<?xml version="1.0" encoding="UTF-8"?>
<svg width="600px" height="419px" version="1.1" viewBox="0 0 600 419" xmlns="http://www.w3.org/2000/svg" xmlns:xlink="http://www.w3.org/1999/xlink">
<defs>
<symbol id="al" overflow="visible">
<path d="m3-9.8594v8.625h1.8125c1.5312 0 2.6484-0.34375 3.3594-1.0312 0.70703-0.69531 1.0625-1.7969 1.0625-3.2969 0-1.4766-0.35547-2.5625-1.0625-3.25-0.71094-0.69531-1.8281-1.0469-3.3594-1.0469zm-1.5-1.2344h3.0781c2.1445 0 3.7188 0.44922 4.7188 1.3438 1.0078 0.89844 1.5156 2.293 1.5156 4.1875 0 1.918-0.50781 3.3242-1.5156 4.2188-1.0117 0.89844-2.5859 1.3438-4.7188 1.3438h-3.0781z"/>
</symbol>
<symbol id="ak" overflow="visible">
<path d="m5.2188-4.1875c-1.1055 0-1.8711 0.13281-2.2969 0.39062-0.42969 0.25-0.64062 0.67969-0.64062 1.2812 0 0.49219 0.15625 0.88281 0.46875 1.1719 0.32031 0.28125 0.75781 0.42188 1.3125 0.42188 0.75781 0 1.3672-0.26953 1.8281-0.8125 0.45703-0.53906 0.6875-1.2539 0.6875-2.1406v-0.3125zm2.7188-0.5625v4.75h-1.3594v-1.2656c-0.3125 0.51172-0.70312 0.88672-1.1719 1.125-0.46094 0.23828-1.0273 0.35938-1.7031 0.35938-0.85547 0-1.5391-0.23828-2.0469-0.71875-0.5-0.47656-0.75-1.1172-0.75-1.9219 0-0.9375 0.3125-1.6406 0.9375-2.1094 0.63281-0.47656 1.5703-0.71875 2.8125-0.71875h1.9219v-0.14062c0-0.625-0.21094-1.1094-0.625-1.4531-0.41797-0.34375-0.99609-0.51562-1.7344-0.51562-0.48047 0-0.94922 0.058594-1.4062 0.17188-0.44922 0.11719-0.88281 0.28125-1.2969 0.5v-1.25c0.50781-0.19531 1-0.34375 1.4688-0.4375s0.92578-0.14062 1.375-0.14062c1.1953 0 2.0938 0.3125 2.6875 0.9375 0.59375 0.61719 0.89062 1.5586 0.89062 2.8281z"/>
</symbol>
<symbol id="h" overflow="visible">
<path d="m6.25-7.0469c-0.14844-0.082031-0.3125-0.14453-0.5-0.1875-0.17969-0.050781-0.375-0.078125-0.59375-0.078125-0.77344 0-1.3672 0.25781-1.7812 0.76562-0.41797 0.5-0.625 1.2188-0.625 2.1562v4.3906h-1.375v-8.3281h1.375v1.2969c0.28906-0.5 0.66406-0.86719 1.125-1.1094 0.45703-0.25 1.0195-0.375 1.6875-0.375 0.09375 0 0.19531 0.007813 0.3125 0.015625 0.11328 0.011719 0.23828 0.027344 0.375 0.046875z"/>
</symbol>
<symbol id="aj" overflow="visible">
<path d="m1.375-11.562h1.375v6.8281l4.0938-3.5938h1.7344l-4.4062 3.9062 4.5938 4.4219h-1.7812l-4.2344-4.0625v4.0625h-1.375z"/>
</symbol>
<symbol id="ai" overflow="visible">
<path d="m3-5.2969v4.0625h2.4062c0.80078 0 1.3945-0.16406 1.7812-0.5 0.39453-0.33203 0.59375-0.84375 0.59375-1.5312 0-0.69531-0.19922-1.207-0.59375-1.5312-0.38672-0.33203-0.98047-0.5-1.7812-0.5zm0-4.5625v3.3438h2.2188c0.72656 0 1.2695-0.13281 1.625-0.40625 0.36328-0.28125 0.54688-0.70312 0.54688-1.2656s-0.18359-0.97656-0.54688-1.25c-0.35547-0.28125-0.89844-0.42188-1.625-0.42188zm-1.5-1.2344h3.8281c1.1445 0 2.0234 0.24219 2.6406 0.71875 0.625 0.46875 0.9375 1.1406 0.9375 2.0156 0 0.6875-0.16406 1.2344-0.48438 1.6406-0.3125 0.39844-0.77734 0.64062-1.3906 0.73438 0.73828 0.15625 1.3125 0.49219 1.7188 1 0.40625 0.5 0.60938 1.125 0.60938 1.875 0 0.99219-0.33984 1.7578-1.0156 2.2969-0.66797 0.54297-1.6211 0.8125-2.8594 0.8125h-3.9844z"/>
</symbol>
<symbol id="ah" overflow="visible">
<path d="m1.4375-8.3281h1.3594v8.3281h-1.3594zm0-3.2344h1.3594v1.7344h-1.3594z"/>
</symbol>
<symbol id="ag" overflow="visible">
<path d="m6.9062-4.2656c0-0.98828-0.20312-1.7539-0.60938-2.2969-0.40625-0.53906-0.98047-0.8125-1.7188-0.8125-0.73047 0-1.3047 0.27344-1.7188 0.8125-0.40625 0.54297-0.60938 1.3086-0.60938 2.2969 0 0.99219 0.20312 1.7617 0.60938 2.3125 0.41406 0.54297 0.98828 0.8125 1.7188 0.8125 0.73828 0 1.3125-0.26953 1.7188-0.8125 0.40625-0.55078 0.60938-1.3203 0.60938-2.3125zm1.375 3.2344c0 1.4141-0.32031 2.4688-0.95312 3.1562-0.625 0.69531-1.5898 1.0469-2.8906 1.0469-0.48047 0-0.93359-0.039063-1.3594-0.10938-0.42969-0.074219-0.83984-0.18359-1.2344-0.32812v-1.3438c0.39453 0.21875 0.78906 0.37891 1.1875 0.48438 0.39453 0.10156 0.79688 0.15625 1.2031 0.15625 0.89453 0 1.5625-0.23438 2-0.70312 0.44531-0.46875 0.67188-1.1719 0.67188-2.1094v-0.6875c-0.28125 0.49219-0.64062 0.85938-1.0781 1.1094-0.4375 0.24219-0.96484 0.35938-1.5781 0.35938-1.0234 0-1.8438-0.38281-2.4688-1.1562-0.625-0.78125-0.9375-1.8164-0.9375-3.1094 0-1.2812 0.3125-2.3047 0.9375-3.0781 0.625-0.78125 1.4453-1.1719 2.4688-1.1719 0.61328 0 1.1406 0.12109 1.5781 0.35938 0.4375 0.24219 0.79688 0.60547 1.0781 1.0938v-1.2656h1.375z"/>
</symbol>
<symbol id="af" overflow="visible">
<path d="m8.3594-5.0156v5.0156h-1.375v-4.9844c0-0.78125-0.15625-1.3633-0.46875-1.75-0.30469-0.39453-0.76172-0.59375-1.375-0.59375-0.74219 0-1.3242 0.23438-1.75 0.70312-0.42969 0.46875-0.64062 1.1094-0.64062 1.9219v4.7031h-1.375v-11.562h1.375v4.5312c0.33203-0.5 0.71875-0.86719 1.1562-1.1094 0.44531-0.25 0.96094-0.375 1.5469-0.375 0.94531 0 1.6641 0.29688 2.1562 0.89062 0.5 0.58594 0.75 1.4531 0.75 2.6094z"/>
</symbol>
<symbol id="ae" overflow="visible">
<path d="m2.7812-10.688v2.3594h2.8281v1.0625h-2.8281v4.5312c0 0.67969 0.09375 1.1172 0.28125 1.3125 0.1875 0.1875 0.56641 0.28125 1.1406 0.28125h1.4062v1.1406h-1.4062c-1.0625 0-1.7969-0.19531-2.2031-0.59375-0.39844-0.39453-0.59375-1.1094-0.59375-2.1406v-4.5312h-1v-1.0625h1v-2.3594z"/>
</symbol>
<symbol id="l" overflow="visible">
<path d="m2.9219-1.2656h5.2344v1.2656h-7.0469v-1.2656c0.57031-0.58203 1.3477-1.3672 2.3281-2.3594 0.98828-1 1.6094-1.6445 1.8594-1.9375 0.47656-0.53906 0.8125-0.99219 1-1.3594 0.19531-0.375 0.29688-0.74219 0.29688-1.1094 0-0.59375-0.21094-1.0703-0.625-1.4375-0.41797-0.375-0.95312-0.5625-1.6094-0.5625-0.46875 0-0.96875 0.085938-1.5 0.25-0.52344 0.15625-1.0781 0.40234-1.6719 0.73438v-1.5156c0.60156-0.23828 1.1641-0.42188 1.6875-0.54688 0.53125-0.125 1.0156-0.1875 1.4531-0.1875 1.1445 0 2.0547 0.28906 2.7344 0.85938 0.6875 0.57422 1.0312 1.3438 1.0312 2.3125 0 0.44922-0.085938 0.88281-0.25 1.2969-0.16797 0.40625-0.48047 0.88672-0.9375 1.4375-0.125 0.14844-0.52344 0.5625-1.1875 1.25-0.65625 0.6875-1.5898 1.6484-2.7969 2.875z"/>
</symbol>
<symbol id="a" overflow="visible">
<path d="m4.8438-10.109c-0.78125 0-1.3672 0.38281-1.75 1.1406-0.38672 0.76172-0.57812 1.9062-0.57812 3.4375 0 1.5234 0.19141 2.6641 0.57812 3.4219 0.38281 0.76172 0.96875 1.1406 1.75 1.1406 0.76953 0 1.3477-0.37891 1.7344-1.1406 0.39453-0.75781 0.59375-1.8984 0.59375-3.4219 0-1.5312-0.19922-2.6758-0.59375-3.4375-0.38672-0.75781-0.96484-1.1406-1.7344-1.1406zm0-1.1875c1.2383 0 2.1875 0.49609 2.8438 1.4844 0.65625 0.98047 0.98438 2.4062 0.98438 4.2812 0 1.8672-0.32812 3.293-0.98438 4.2812-0.65625 0.98047-1.6055 1.4688-2.8438 1.4688-1.25 0-2.2031-0.48828-2.8594-1.4688-0.65625-0.98828-0.98438-2.4141-0.98438-4.2812 0-1.875 0.32812-3.3008 0.98438-4.2812 0.65625-0.98828 1.6094-1.4844 2.8594-1.4844z"/>
</symbol>
<symbol id="k" overflow="visible">
<path d="m5.75-9.7812-3.7812 5.9219h3.7812zm-0.39062-1.3125h1.8906v7.2344h1.5781v1.25h-1.5781v2.6094h-1.5v-2.6094h-5v-1.4531z"/>
</symbol>
<symbol id="j" overflow="visible">
<path d="m5.0156-6.1406c-0.66797 0-1.1992 0.23047-1.5938 0.6875-0.39844 0.46094-0.59375 1.0898-0.59375 1.8906 0 0.80469 0.19531 1.4375 0.59375 1.9062 0.39453 0.46094 0.92578 0.6875 1.5938 0.6875 0.67578 0 1.2109-0.22656 1.6094-0.6875 0.39453-0.46875 0.59375-1.1016 0.59375-1.9062 0-0.80078-0.19922-1.4297-0.59375-1.8906-0.39844-0.45703-0.93359-0.6875-1.6094-0.6875zm2.9844-4.7031v1.3594c-0.375-0.17578-0.75781-0.3125-1.1406-0.40625-0.38672-0.09375-0.76562-0.14062-1.1406-0.14062-0.99219 0-1.7461 0.33594-2.2656 1-0.52344 0.66797-0.82031 1.6797-0.89062 3.0312 0.28906-0.42578 0.65625-0.75391 1.0938-0.98438 0.4375-0.22656 0.92188-0.34375 1.4531-0.34375 1.1133 0 1.9922 0.33984 2.6406 1.0156 0.64453 0.66797 0.96875 1.5859 0.96875 2.75 0 1.1484-0.33984 2.0625-1.0156 2.75-0.66797 0.6875-1.5625 1.0312-2.6875 1.0312-1.2812 0-2.2617-0.48828-2.9375-1.4688-0.67969-0.98828-1.0156-2.4141-1.0156-4.2812 0-1.7578 0.41406-3.1602 1.25-4.2031 0.83203-1.0391 1.9453-1.5625 3.3438-1.5625 0.38281 0 0.76562 0.039063 1.1406 0.10938 0.38281 0.074219 0.78516 0.1875 1.2031 0.34375z"/>
</symbol>
<symbol id="i" overflow="visible">
<path d="m4.8438-5.2656c-0.71875 0-1.2812 0.19531-1.6875 0.57812-0.40625 0.375-0.60938 0.89844-0.60938 1.5625 0 0.66797 0.20312 1.1953 0.60938 1.5781 0.40625 0.38672 0.96875 0.57812 1.6875 0.57812 0.70703 0 1.2656-0.19141 1.6719-0.57812 0.41406-0.38281 0.625-0.91016 0.625-1.5781 0-0.66406-0.20312-1.1875-0.60938-1.5625-0.40625-0.38281-0.96875-0.57812-1.6875-0.57812zm-1.5-0.64062c-0.64844-0.15625-1.1523-0.45312-1.5156-0.89062-0.35547-0.44531-0.53125-0.98828-0.53125-1.625 0-0.88281 0.3125-1.582 0.9375-2.0938 0.63281-0.51953 1.5039-0.78125 2.6094-0.78125 1.1016 0 1.9688 0.26172 2.5938 0.78125 0.625 0.51172 0.9375 1.2109 0.9375 2.0938 0 0.63672-0.17969 1.1797-0.53125 1.625-0.35547 0.4375-0.85547 0.73438-1.5 0.89062 0.72656 0.16797 1.2891 0.49609 1.6875 0.98438 0.40625 0.49219 0.60938 1.0898 0.60938 1.7969 0 1.0742-0.32812 1.9023-0.98438 2.4844-0.65625 0.57422-1.5938 0.85938-2.8125 0.85938-1.2305 0-2.1719-0.28516-2.8281-0.85938-0.65625-0.58203-0.98438-1.4102-0.98438-2.4844 0-0.70703 0.20312-1.3047 0.60938-1.7969 0.40625-0.48828 0.97266-0.81641 1.7031-0.98438zm-0.5625-2.375c0 0.57422 0.17578 1.0234 0.53125 1.3438 0.36328 0.32422 0.875 0.48438 1.5312 0.48438 0.63281 0 1.1328-0.16016 1.5-0.48438 0.36328-0.32031 0.54688-0.76953 0.54688-1.3438 0-0.57031-0.18359-1.0195-0.54688-1.3438-0.36719-0.32031-0.86719-0.48438-1.5-0.48438-0.65625 0-1.168 0.16406-1.5312 0.48438-0.35547 0.32422-0.53125 0.77344-0.53125 1.3438z"/>
</symbol>
<symbol id="ad" overflow="visible">
<path d="m11.172-2.7812h-6.1406l-0.96875 2.7812h-3.9531l5.6406-15.266h4.6875l5.6562 15.266h-3.9531zm-5.1719-2.8281h4.1875l-2.0938-6.0781z"/>
</symbol>
<symbol id="ab" overflow="visible">
<path d="m9.5469-1.9375c-0.51172 0.66797-1.0703 1.1562-1.6719 1.4688-0.60547 0.3125-1.3086 0.46875-2.1094 0.46875-1.3984 0-2.5547-0.54688-3.4688-1.6406-0.90625-1.1016-1.3594-2.5078-1.3594-4.2188 0-1.707 0.45312-3.1094 1.3594-4.2031 0.91406-1.0938 2.0703-1.6406 3.4688-1.6406 0.80078 0 1.5039 0.15625 2.1094 0.46875 0.60156 0.3125 1.1602 0.80859 1.6719 1.4844v-1.7031h3.6719v10.297c0 1.8438-0.58594 3.25-1.75 4.2188-1.1562 0.96875-2.8398 1.4531-5.0469 1.4531-0.71094 0-1.4023-0.058594-2.0781-0.17188-0.66797-0.10547-1.3359-0.26562-2-0.48438v-2.8594c0.63281 0.36328 1.2578 0.63281 1.875 0.8125 0.61328 0.1875 1.2266 0.28125 1.8438 0.28125 1.1953 0 2.0781-0.26562 2.6406-0.79688 0.5625-0.52344 0.84375-1.3359 0.84375-2.4531zm-2.4219-7.125c-0.75 0-1.3398 0.28125-1.7656 0.84375-0.41797 0.55469-0.625 1.3398-0.625 2.3594 0 1.0547 0.20312 1.8516 0.60938 2.3906 0.40625 0.54297 1 0.8125 1.7812 0.8125 0.76953 0 1.3633-0.27344 1.7812-0.82812 0.42578-0.5625 0.64062-1.3516 0.64062-2.375 0-1.0195-0.21484-1.8047-0.64062-2.3594-0.41797-0.5625-1.0117-0.84375-1.7812-0.84375z"/>
</symbol>
<symbol id="g" overflow="visible">
<path d="m13.172-5.75v1.0312h-8.5469c0.09375 0.86719 0.40625 1.5117 0.9375 1.9375 0.53125 0.42969 1.2695 0.64062 2.2188 0.64062 0.76953 0 1.5547-0.11328 2.3594-0.34375 0.8125-0.22656 1.6445-0.57031 2.5-1.0312v2.8281c-0.86719 0.32422-1.7305 0.57031-2.5938 0.73438-0.86719 0.16406-1.7305 0.25-2.5938 0.25-2.0742 0-3.6836-0.52344-4.8281-1.5781-1.1484-1.0508-1.7188-2.5312-1.7188-4.4375 0-1.8633 0.5625-3.3281 1.6875-4.3906 1.125-1.0703 2.6758-1.6094 4.6562-1.6094 1.7891 0 3.2227 0.54297 4.2969 1.625 1.082 1.0859 1.625 2.5312 1.625 4.3438zm-3.75-1.2188c0-0.69531-0.20312-1.2578-0.60938-1.6875-0.40625-0.42578-0.9375-0.64062-1.5938-0.64062-0.71094 0-1.2891 0.20312-1.7344 0.60938-0.4375 0.39844-0.71094 0.96875-0.8125 1.7188z"/>
</symbol>
<symbol id="f" overflow="visible"></symbol>
<symbol id="aa" overflow="visible">
<path d="m1.75-11.453h3.6719v11.453h-3.6719zm0-4.4531h3.6719v2.9844h-3.6719z"/>
</symbol>
<symbol id="z" overflow="visible">
<path d="m13.266-6.9688v6.9688h-3.6875v-5.3438c0-0.97656-0.023437-1.6562-0.0625-2.0312-0.042969-0.375-0.12109-0.64844-0.23438-0.82812-0.13672-0.23828-0.32812-0.42578-0.57812-0.5625-0.24219-0.13281-0.52344-0.20312-0.84375-0.20312-0.76172 0-1.3594 0.29688-1.7969 0.89062-0.42969 0.58594-0.64062 1.3984-0.64062 2.4375v5.6406h-3.6719v-11.453h3.6719v1.6719c0.53906-0.66406 1.1172-1.1562 1.7344-1.4688 0.625-0.3125 1.3125-0.46875 2.0625-0.46875 1.3203 0 2.3281 0.40625 3.0156 1.2188 0.6875 0.80469 1.0312 1.9805 1.0312 3.5312z"/>
</symbol>
<symbol id="y" overflow="visible">
<path d="m0.25-11.453h3.6562l3.0781 7.7656 2.625-7.7656h3.6562l-4.8125 12.531c-0.49219 1.2812-1.0586 2.1719-1.7031 2.6719-0.63672 0.50781-1.4844 0.76562-2.5469 0.76562h-2.1094v-2.4062h1.1406c0.625 0 1.0781-0.10156 1.3594-0.29688 0.28125-0.19922 0.5-0.55469 0.65625-1.0625l0.10938-0.3125z"/>
</symbol>
<symbol id="x" overflow="visible">
<path d="m6.8906-5.1562c-0.77344 0-1.3516 0.13281-1.7344 0.39062-0.375 0.26172-0.5625 0.64062-0.5625 1.1406 0 0.46875 0.14844 0.83594 0.45312 1.0938 0.3125 0.26172 0.74219 0.39062 1.2969 0.39062 0.6875 0 1.2656-0.24219 1.7344-0.73438 0.46875-0.5 0.70312-1.1172 0.70312-1.8594v-0.42188zm5.5781-1.375v6.5312h-3.6875v-1.7031c-0.49219 0.69922-1.043 1.2109-1.6562 1.5312-0.60547 0.3125-1.3516 0.46875-2.2344 0.46875-1.1875 0-2.1523-0.34375-2.8906-1.0312-0.73047-0.69531-1.0938-1.5977-1.0938-2.7031 0-1.3438 0.45703-2.3281 1.375-2.9531 0.92578-0.625 2.375-0.9375 4.3438-0.9375h2.1562v-0.28125c0-0.58203-0.23047-1.0078-0.6875-1.2812-0.44922-0.26953-1.1562-0.40625-2.125-0.40625-0.78125 0-1.5117 0.078125-2.1875 0.23438-0.67969 0.15625-1.3047 0.39062-1.875 0.70312v-2.7812c0.78125-0.19531 1.5625-0.34375 2.3438-0.4375 0.78906-0.09375 1.582-0.14062 2.375-0.14062 2.0625 0 3.5508 0.40625 4.4688 1.2188 0.91406 0.8125 1.375 2.1367 1.375 3.9688z"/>
</symbol>
<symbol id="w" overflow="visible">
<path d="m10.25-8.3281c-0.3125-0.15625-0.63281-0.26562-0.95312-0.32812-0.3125-0.070312-0.63281-0.10938-0.95312-0.10938-0.9375 0-1.6641 0.30469-2.1719 0.90625-0.5 0.59375-0.75 1.4531-0.75 2.5781v5.2812h-3.6719v-11.453h3.6719v1.8906c0.46875-0.75 1.0039-1.2969 1.6094-1.6406 0.61328-0.34375 1.3438-0.51562 2.1875-0.51562 0.125 0 0.25781 0.007812 0.40625 0.015625 0.14453 0 0.35156 0.023437 0.625 0.0625z"/>
</symbol>
<symbol id="ac" overflow="visible">
<path d="m10.703-11.094v2.7812c-0.79297-0.32031-1.5547-0.56641-2.2812-0.73438-0.73047-0.16406-1.418-0.25-2.0625-0.25-0.6875 0-1.2031 0.089844-1.5469 0.26562-0.33594 0.17969-0.5 0.44531-0.5 0.79688 0 0.29297 0.125 0.52344 0.375 0.6875 0.25781 0.15625 0.71875 0.27344 1.375 0.34375l0.65625 0.09375c1.8633 0.24219 3.1172 0.63281 3.7656 1.1719 0.65625 0.54297 0.98438 1.3984 0.98438 2.5625 0 1.2188-0.45312 2.1367-1.3594 2.75-0.89844 0.61719-2.2344 0.92188-4.0156 0.92188-0.76172 0-1.5469-0.0625-2.3594-0.1875-0.80469-0.11328-1.6328-0.28906-2.4844-0.53125v-2.7812c0.72656 0.35547 1.4727 0.62109 2.2344 0.79688 0.76953 0.17969 1.5508 0.26562 2.3438 0.26562 0.71875 0 1.2539-0.097656 1.6094-0.29688 0.36328-0.19531 0.54688-0.48828 0.54688-0.875 0-0.32031-0.125-0.5625-0.375-0.71875-0.24219-0.16406-0.73438-0.29688-1.4844-0.39062l-0.64062-0.078125c-1.625-0.20703-2.7656-0.58594-3.4219-1.1406-0.65625-0.55078-0.98438-1.3828-0.98438-2.5 0-1.2188 0.41406-2.1172 1.25-2.7031 0.83203-0.58203 2.1094-0.875 3.8281-0.875 0.66406 0 1.3672 0.054688 2.1094 0.15625 0.75 0.09375 1.5625 0.25 2.4375 0.46875z"/>
</symbol>
<symbol id="v" overflow="visible">
<path d="m-11.094-1.3906v-4.75c0-1.4141 0.3125-2.5 0.9375-3.25 0.625-0.75781 1.5234-1.1406 2.6875-1.1406 1.1562 0 2.0547 0.38281 2.6875 1.1406 0.625 0.75 0.9375 1.8359 0.9375 3.25v1.875h3.8438v2.875zm2.0781-2.875h3.0938v-1.5781c0-0.55078-0.13281-0.97656-0.40625-1.2812-0.26953-0.30078-0.64844-0.45312-1.1406-0.45312-0.5 0-0.87891 0.15234-1.1406 0.45312-0.26953 0.30469-0.40625 0.73047-0.40625 1.2812z"/>
</symbol>
<symbol id="q" overflow="visible">
<path d="m-3.2344-1.1875h-5.0938v-2.6719h0.84375c0.44922 0 1.0156 0.007813 1.7031 0.015625h1.3594c0.66797 0 1.1484-0.015625 1.4375-0.046875 0.29297-0.039063 0.50781-0.10156 0.64062-0.1875 0.17969-0.11328 0.3125-0.25391 0.40625-0.42188 0.09375-0.17578 0.14062-0.37891 0.14062-0.60938 0-0.55078-0.21094-0.98438-0.64062-1.2969-0.42578-0.32031-1.0195-0.48438-1.7812-0.48438h-4.1094v-2.6719h8.3281v2.6719h-1.2031c0.49219 0.39844 0.85156 0.82031 1.0781 1.2656 0.22656 0.44922 0.34375 0.94531 0.34375 1.4844 0 0.96094-0.28906 1.6953-0.875 2.2031-0.59375 0.5-1.4531 0.75-2.5781 0.75z"/>
</symbol>
<symbol id="p" overflow="visible">
<path d="m-1.2031-3.9375h4.375v2.6562h-11.5v-2.6562h1.2188c-0.47656-0.36328-0.83203-0.76953-1.0625-1.2188-0.22656-0.44531-0.34375-0.96094-0.34375-1.5469 0-1.0195 0.40625-1.8594 1.2188-2.5156s1.8594-0.98438 3.1406-0.98438 2.3359 0.32812 3.1562 0.98438c0.8125 0.65625 1.2188 1.4961 1.2188 2.5156 0 0.58594-0.11719 1.1016-0.34375 1.5469-0.22656 0.44922-0.58594 0.85547-1.0781 1.2188zm-5.3906-1.7656c0 0.5625 0.21484 1 0.64062 1.3125 0.41797 0.30469 1.0156 0.45312 1.7969 0.45312 0.79297 0 1.3984-0.14844 1.8125-0.45312 0.41797-0.3125 0.625-0.75 0.625-1.3125 0-0.57031-0.20703-1.0039-0.625-1.2969-0.41406-0.30078-1.0195-0.45312-1.8125-0.45312-0.78906 0-1.3945 0.15234-1.8125 0.45312-0.41406 0.29297-0.625 0.72656-0.625 1.2969z"/>
</symbol>
<symbol id="d" overflow="visible">
<path d="m-8.3281-1.2812v-2.6562h8.3281v2.6562zm-3.2344 0v-2.6562h2.1719v2.6562z"/>
</symbol>
<symbol id="o" overflow="visible">
<path d="m-11.562-1.2812v-2.6562h11.562v2.6562z"/>
</symbol>
<symbol id="c" overflow="visible"></symbol>
<symbol id="n" overflow="visible">
<path d="m-7.1094-6.9375h-4.4531v-2.6719h11.562v2.6719h-1.2031c0.49219 0.36719 0.85156 0.77344 1.0781 1.2188 0.22656 0.4375 0.34375 0.94531 0.34375 1.5156 0 1.0312-0.40625 1.875-1.2188 2.5312-0.82031 0.65625-1.875 0.98438-3.1562 0.98438s-2.3281-0.32812-3.1406-0.98438-1.2188-1.5-1.2188-2.5312c0-0.57031 0.11719-1.0781 0.34375-1.5156 0.23047-0.44531 0.58594-0.85156 1.0625-1.2188zm5.3906 1.75c0-0.57031-0.20703-1.0039-0.625-1.2969-0.41406-0.30078-1.0195-0.45312-1.8125-0.45312-0.78906 0-1.3945 0.15234-1.8125 0.45312-0.41406 0.29297-0.625 0.72656-0.625 1.2969 0 0.5625 0.21094 0.99609 0.625 1.2969 0.41797 0.30469 1.0234 0.45312 1.8125 0.45312 0.79297 0 1.3984-0.14844 1.8125-0.45312 0.41797-0.30078 0.625-0.73438 0.625-1.2969z"/>
</symbol>
<symbol id="m" overflow="visible">
<path d="m-3.75-5.0156c0 0.5625 0.09375 0.98438 0.28125 1.2656 0.1875 0.27344 0.46875 0.40625 0.84375 0.40625 0.33594 0 0.60156-0.10938 0.79688-0.32812 0.1875-0.22656 0.28125-0.53906 0.28125-0.9375 0-0.5-0.17578-0.92188-0.53125-1.2656-0.36328-0.34375-0.81641-0.51562-1.3594-0.51562h-0.3125zm-1-4.0625h4.75v2.6875h-1.2344c0.51172 0.35547 0.88281 0.75781 1.1094 1.2031 0.22656 0.44922 0.34375 0.99219 0.34375 1.625 0 0.86719-0.25 1.5703-0.75 2.1094-0.50781 0.53125-1.1641 0.79688-1.9688 0.79688-0.96875 0-1.6797-0.33203-2.1406-1-0.45703-0.67578-0.6875-1.7344-0.6875-3.1719v-1.5625h-0.20312c-0.42578 0-0.73438 0.16797-0.92188 0.5-0.19531 0.33594-0.29688 0.85156-0.29688 1.5469 0 0.57422 0.058594 1.1055 0.17188 1.5938 0.11719 0.49219 0.28125 0.94922 0.5 1.375h-2.0156c-0.14453-0.57031-0.25-1.1445-0.3125-1.7188-0.070312-0.57031-0.10938-1.1484-0.10938-1.7344 0-1.5 0.29688-2.582 0.89062-3.25 0.58594-0.66406 1.543-1 2.875-1z"/>
</symbol>
<symbol id="b" overflow="visible">
<path d="m-6.9375-8.9844c-0.51953-0.34375-0.91016-0.74219-1.1719-1.2031-0.26953-0.46875-0.40625-0.97656-0.40625-1.5312 0-0.95703 0.29688-1.6875 0.89062-2.1875 0.58594-0.5 1.4375-0.75 2.5625-0.75h5.0625v2.6719h-4.3438-0.1875c-0.070312-0.007813-0.17578-0.015625-0.3125-0.015625-0.58203 0-1.0039 0.089844-1.2656 0.26562-0.26953 0.17969-0.40625 0.46094-0.40625 0.84375 0 0.5 0.21094 0.89062 0.625 1.1719 0.41797 0.27344 1.0156 0.41406 1.7969 0.42188h4.0938v2.6719h-4.3438c-0.91406 0-1.5039 0.085938-1.7656 0.25-0.26953 0.15625-0.40625 0.4375-0.40625 0.84375 0 0.51172 0.21094 0.90625 0.625 1.1875 0.41797 0.27344 1.0156 0.40625 1.7969 0.40625h4.0938v2.6719h-8.3281v-2.6719h1.2188c-0.46875-0.32031-0.81641-0.69531-1.0469-1.125-0.23828-0.42578-0.35938-0.89453-0.35938-1.4062 0-0.57031 0.14062-1.0781 0.42188-1.5156 0.27344-0.44531 0.65625-0.78125 1.1562-1z"/>
</symbol>
<symbol id="e" overflow="visible">
<path d="m-4.1875-9.5938h0.76562v6.2344c0.625-0.070313 1.0938-0.30078 1.4062-0.6875 0.3125-0.38281 0.46875-0.92188 0.46875-1.6094 0-0.5625-0.082031-1.1328-0.25-1.7188-0.16406-0.59375-0.42188-1.1953-0.76562-1.8125h2.0625c0.23047 0.625 0.40625 1.2578 0.53125 1.8906 0.125 0.625 0.1875 1.25 0.1875 1.875 0 1.5117-0.37891 2.6836-1.1406 3.5156-0.76953 0.83594-1.8477 1.25-3.2344 1.25-1.3516 0-2.4141-0.40625-3.1875-1.2188-0.78125-0.82031-1.1719-1.9531-1.1719-3.3906 0-1.3125 0.39844-2.3594 1.1875-3.1406 0.78125-0.78906 1.8281-1.1875 3.1406-1.1875zm-0.875 2.75c-0.50781 0-0.91406 0.14844-1.2188 0.4375-0.3125 0.29297-0.46875 0.67969-0.46875 1.1562 0 0.51172 0.14844 0.92969 0.4375 1.25 0.28125 0.32422 0.69922 0.52734 1.25 0.60938z"/>
</symbol>
<symbol id="u" overflow="visible">
<path d="m-10.688-4.1875h2.3594v-2.7344h1.9062v2.7344h3.5312c0.38672 0 0.64844-0.070312 0.78125-0.21875 0.13672-0.15625 0.20312-0.46094 0.20312-0.92188v-1.375h1.9062v2.2969c0 1.043-0.21875 1.7891-0.65625 2.2344-0.4375 0.4375-1.1797 0.65625-2.2344 0.65625h-3.5312v1.3125h-1.9062v-1.3125h-2.3594z"/>
</symbol>
<symbol id="t" overflow="visible">
<path d="m-6.0625-7.4531c-0.10156 0.23047-0.17969 0.46094-0.23438 0.6875-0.050781 0.23047-0.078125 0.46094-0.078125 0.6875 0 0.6875 0.21875 1.2188 0.65625 1.5938 0.4375 0.36719 1.0703 0.54688 1.8906 0.54688h3.8281v2.6562h-8.3281v-2.6562h1.375c-0.53906-0.34375-0.9375-0.73438-1.1875-1.1719-0.25-0.44531-0.375-0.97656-0.375-1.5938 0-0.09375 0.007813-0.19141 0.015625-0.29688 0-0.10156 0.011719-0.25391 0.03125-0.45312z"/>
</symbol>
<symbol id="s" overflow="visible">
<path d="m-11.562-1.3125v-4.6094h1.6719v2.0938h10.219v-2.0938h1.6719v4.6094z"/>
</symbol>
<symbol id="r" overflow="visible">
<path d="m2-5.6406v4.6094h-1.6719v-2.0938h-10.219v2.0938h-1.6719v-4.6094z"/>
</symbol>
</defs>
<path d="m374.95 233.62h210.27v106.76h-210.27z" fill="#fff"/>
<path d="m75.223 14.75h291.38v325.63h-291.38z" fill="#fff"/>
<path transform="matrix(1.9021 0 0 1.9031 28.225 13.022)" d="m177.9 172.02h-156.97" fill="none" stroke="#000" stroke-width=".5"/>
<path transform="matrix(1.9021 0 0 1.9031 28.225 13.022)" d="m24.709 0.90789v174.91" fill="none" stroke="#000" stroke-width=".5"/>
<path transform="matrix(1.9021 0 0 1.9031 28.225 13.022)" d="m24.709 0.90789h153.19v171.11h-153.19z" fill="none" stroke="#000" stroke-width="1.5"/>
<path transform="matrix(1.9021 0 0 1.9031 28.225 13.022)" d="m182.29 115.92h110.55v56.097h-110.55z" fill="none" stroke="#000"/>
<path transform="matrix(1.9021 0 0 1.9031 28.225 13.022)" d="m43.857 0.90789v174.91" fill="none" stroke="#000" stroke-width=".5"/>
<path transform="matrix(1.9021 0 0 1.9031 28.225 13.022)" d="m63.005 0.90789v174.91" fill="none" stroke="#000" stroke-width=".5"/>
<path transform="matrix(1.9021 0 0 1.9031 28.225 13.022)" d="m82.154 0.90789v174.91" fill="none" stroke="#000" stroke-width=".5"/>
<path transform="matrix(1.9021 0 0 1.9031 28.225 13.022)" d="m101.3 0.90789v174.91" fill="none" stroke="#000" stroke-width=".5"/>
<path transform="matrix(1.9021 0 0 1.9031 28.225 13.022)" d="m120.45 0.90789v174.91" fill="none" stroke="#000" stroke-width=".5"/>
<path transform="matrix(1.9021 0 0 1.9031 28.225 13.022)" d="m139.6 0.90789v174.91" fill="none" stroke="#000" stroke-width=".5"/>
<path transform="matrix(1.9021 0 0 1.9031 28.225 13.022)" d="m158.75 0.90789v174.91" fill="none" stroke="#000" stroke-width=".5"/>
<path transform="matrix(1.9021 0 0 1.9031 28.225 13.022)" d="m177.9 0.90789v170.93" fill="none" stroke="#000" stroke-width=".75"/>
<path transform="matrix(1.9021 0 0 1.9031 28.225 13.022)" d="m177.9 153.01h-156.97" fill="none" stroke="#000" stroke-width=".5"/>
<path transform="matrix(1.9021 0 0 1.9031 28.225 13.022)" d="m177.9 133.99h-156.97" fill="none" stroke="#000" stroke-width=".5"/>
<path transform="matrix(1.9021 0 0 1.9031 28.225 13.022)" d="m177.9 114.98h-156.97" fill="none" stroke="#000" stroke-width=".5"/>
<path transform="matrix(1.9021 0 0 1.9031 28.225 13.022)" d="m177.9 95.968h-156.97" fill="none" stroke="#000" stroke-width=".5"/>
<path transform="matrix(1.9021 0 0 1.9031 28.225 13.022)" d="m177.9 76.957h-156.97" fill="none" stroke="#000" stroke-width=".5"/>
<path transform="matrix(1.9021 0 0 1.9031 28.225 13.022)" d="m177.9 57.943h-156.97" fill="none" stroke="#000" stroke-width=".5"/>
<path transform="matrix(1.9021 0 0 1.9031 28.225 13.022)" d="m177.9 38.932h-156.97" fill="none" stroke="#000" stroke-width=".5"/>
<path transform="matrix(1.9021 0 0 1.9031 28.225 13.022)" d="m177.9 19.919h-156.97" fill="none" stroke="#000" stroke-width=".5"/>
<path transform="matrix(1.9021 0 0 1.9031 28.225 13.022)" d="m177.9 0.90789h-153.19" fill="none" stroke="#000" stroke-width=".75"/>
<g>
<use x="411.746094" y="276.952155" xlink:href="#al"/>
<use x="423.158615" y="276.952155" xlink:href="#ak"/>
<use x="432.669049" y="276.952155" xlink:href="#h"/>
<use x="438.375309" y="276.952155" xlink:href="#aj"/>
</g>
<g>
<use x="411.746094" y="304.995124" xlink:href="#ai"/>
<use x="421.256528" y="304.995124" xlink:href="#h"/>
<use x="426.962788" y="304.995124" xlink:href="#ah"/>
<use x="430.766962" y="304.995124" xlink:href="#ag"/>
<use x="440.277396" y="304.995124" xlink:href="#af"/>
<use x="449.78783" y="304.995124" xlink:href="#ae"/>
</g>
<g>
<use x="136.320312" y="401.488948" xlink:href="#ad"/>
<use x="153.439094" y="401.488948" xlink:href="#ab"/>
<use x="168.655788" y="401.488948" xlink:href="#g"/>
<use x="181.970396" y="401.488948" xlink:href="#f"/>
<use x="189.578743" y="401.488948" xlink:href="#aa"/>
<use x="197.187091" y="401.488948" xlink:href="#z"/>
<use x="212.403785" y="401.488948" xlink:href="#f"/>
<use x="220.012133" y="401.488948" xlink:href="#y"/>
<use x="233.32674" y="401.488948" xlink:href="#g"/>
<use x="246.641348" y="401.488948" xlink:href="#x"/>
<use x="259.955956" y="401.488948" xlink:href="#w"/>
<use x="269.46639" y="401.488948" xlink:href="#ac"/>
</g>
<g>
<use x="25.386199" y="267.054688" xlink:href="#v"/>
<use x="25.386199" y="255.636218" xlink:href="#q"/>
<use x="25.386199" y="244.217749" xlink:href="#p"/>
<use x="25.386199" y="232.79928" xlink:href="#d"/>
<use x="25.386199" y="227.090045" xlink:href="#o"/>
<use x="25.386199" y="221.38081" xlink:href="#c"/>
<use x="25.386199" y="215.671576" xlink:href="#n"/>
<use x="25.386199" y="204.253107" xlink:href="#d"/>
<use x="25.386199" y="198.543872" xlink:href="#m"/>
<use x="25.386199" y="189.028481" xlink:href="#b"/>
<use x="25.386199" y="173.803855" xlink:href="#e"/>
<use x="25.386199" y="164.288464" xlink:href="#u"/>
<use x="25.386199" y="156.676151" xlink:href="#e"/>
<use x="25.386199" y="147.16076" xlink:href="#t"/>
<use x="25.386199" y="139.548447" xlink:href="#c"/>
<use x="25.386199" y="133.839213" xlink:href="#s"/>
<use x="25.386199" y="126.2269" xlink:href="#b"/>
<use x="25.386199" y="111.002274" xlink:href="#b"/>
<use x="25.386199" y="95.777649" xlink:href="#r"/>
</g>
<g>
<use x="102.613281" y="373.534186" xlink:href="#l"/>
<use x="112.123715" y="373.534186" xlink:href="#a"/>
</g>
<g>
<use x="172.9375" y="373.534186" xlink:href="#k"/>
<use x="182.447934" y="373.534186" xlink:href="#a"/>
</g>
<g>
<use x="248.238281" y="373.534186" xlink:href="#j"/>
<use x="257.748715" y="373.534186" xlink:href="#a"/>
</g>
<g>
<use x="319.453125" y="373.534186" xlink:href="#i"/>
<use x="328.963559" y="373.534186" xlink:href="#a"/>
</g>
<g>
<use x="49.28125" y="273.56153" xlink:href="#l"/>
</g>
<g>
<use x="48.613281" y="201.198249" xlink:href="#k"/>
</g>
<g>
<use x="48.714844" y="128.834967" xlink:href="#j"/>
</g>
<g>
<use x="48.796875" y="56.471686" xlink:href="#i"/>
</g>
<path transform="matrix(1.9021 0 0 1.9031 28.225 13.022)" d="m184.88 135h11.909" fill="none" stroke="#00a" stroke-width=".75"/>
<path d="m387.4 266.14h7.6055v7.6094h-7.6055z" fill="#00a"/>
<path transform="matrix(1.9021 0 0 1.9031 28.225 13.022)" d="m184.88 152h11.909" fill="none" stroke="#338000" stroke-width=".75"/>
<path d="m395 302.29c0 2.1016-1.7031 3.8047-3.8047 3.8047-2.0977 0-3.8008-1.7031-3.8008-3.8047 0-2.1016 1.7031-3.8047 3.8008-3.8047 2.1016 0 3.8047 1.7031 3.8047 3.8047z" fill="#338000"/>
<path transform="matrix(1.9021 0 0 1.9031 28.225 13.022)" d="m43.857 19.919 114.89 109.84" fill="none" stroke="#00a" stroke-width=".75"/>
<path transform="matrix(1.9021 0 0 1.9031 28.225 13.022)" d="m43.857 76.957 114.89 57.035" fill="none" stroke="#338000" stroke-width=".75"/>
<path d="m107.84 46.926h7.6094v7.6133h-7.6094z" fill="#00a"/>
<path d="m144.26 81.742h7.6094v7.6133h-7.6094z" fill="#00a"/>
<path d="m180.69 116.8h7.6055v7.6133h-7.6055z" fill="#00a"/>
<path d="m217.11 151.54h7.6055v7.6133h-7.6055z" fill="#00a"/>
<path d="m253.53 186.23h7.6055v7.6133h-7.6055z" fill="#00a"/>
<path d="m289.95 221.11h7.6055v7.6133h-7.6055z" fill="#00a"/>
<path d="m326.38 256.26h7.6055v7.6133h-7.6055z" fill="#00a"/>
<path d="m115.45 159.48c0 2.1016-1.7031 3.8047-3.8047 3.8047-2.1016 0-3.8047-1.7031-3.8047-3.8047 0-2.1016 1.7031-3.8086 3.8047-3.8086 2.1016 0 3.8047 1.707 3.8047 3.8086z" fill="#338000"/>
<path d="m151.87 177.67c0 2.1016-1.7031 3.8086-3.8047 3.8086-2.1016 0-3.8047-1.707-3.8047-3.8086s1.7031-3.8047 3.8047-3.8047c2.1016 0 3.8047 1.7031 3.8047 3.8047z" fill="#338000"/>
<path d="m188.29 195.46c0 2.1055-1.7031 3.8086-3.8047 3.8086-2.0977 0-3.8008-1.7031-3.8008-3.8086 0-2.1016 1.7031-3.8047 3.8008-3.8047 2.1016 0 3.8047 1.7031 3.8047 3.8047z" fill="#338000"/>
<path d="m224.71 213.91c0 2.1016-1.7031 3.8047-3.8047 3.8047-2.0977 0-3.8008-1.7031-3.8008-3.8047s1.7031-3.8047 3.8008-3.8047c2.1016 0 3.8047 1.7031 3.8047 3.8047z" fill="#338000"/>
<path d="m261.14 231.91c0 2.1016-1.7031 3.8047-3.8047 3.8047-2.0977 0-3.8008-1.7031-3.8008-3.8047 0-2.1016 1.7031-3.8047 3.8008-3.8047 2.1016 0 3.8047 1.7031 3.8047 3.8047z" fill="#338000"/>
<path d="m297.56 250.03c0 2.1055-1.7031 3.8086-3.8008 3.8086-2.1016 0-3.8047-1.7031-3.8047-3.8086 0-2.1016 1.7031-3.8047 3.8047-3.8047 2.0977 0 3.8008 1.7031 3.8008 3.8047z" fill="#338000"/>
<path d="m333.98 268.97c0 2.1016-1.7031 3.8047-3.8008 3.8047-2.1016 0-3.8047-1.7031-3.8047-3.8047 0-2.1016 1.7031-3.8047 3.8047-3.8047 2.0977 0 3.8008 1.7031 3.8008 3.8047z" fill="#338000"/>
</svg>
