<?xml version="1.0" encoding="UTF-8"?>
<svg width="800px" height="481px" version="1.1" viewBox="0 0 800 481" xmlns="http://www.w3.org/2000/svg" xmlns:xlink="http://www.w3.org/1999/xlink">
<defs>
<symbol id="am" overflow="visible">
<path d="m12.062-3h-6.6406l-1.0469 3h-4.2656l6.1094-16.453h5.0625l6.0938 16.453h-4.2656zm-5.5781-3.0469h4.5156l-2.25-6.5469z"/>
</symbol>
<symbol id="ak" overflow="visible">
<path d="m10.297-2.0938c-0.54297 0.71875-1.1406 1.25-1.7969 1.5938-0.64844 0.33594-1.4023 0.5-2.2656 0.5-1.5117 0-2.7617-0.59375-3.75-1.7812-0.98047-1.1875-1.4688-2.6953-1.4688-4.5312 0-1.8438 0.48828-3.3516 1.4688-4.5312 0.98828-1.1875 2.2383-1.7812 3.75-1.7812 0.86328 0 1.6172 0.17188 2.2656 0.51562 0.65625 0.33594 1.2539 0.86719 1.7969 1.5938v-1.8281h3.9844v11.094c0 1.9883-0.63281 3.5039-1.8906 4.5469-1.25 1.0508-3.0703 1.5781-5.4531 1.5781-0.77344 0-1.5156-0.0625-2.2344-0.1875-0.71875-0.11719-1.4453-0.29297-2.1719-0.53125v-3.0781c0.6875 0.39453 1.3594 0.69141 2.0156 0.89062 0.66406 0.19531 1.332 0.29688 2 0.29688 1.3008 0 2.25-0.28906 2.8438-0.85938 0.60156-0.5625 0.90625-1.4453 0.90625-2.6562zm-2.5938-7.6875c-0.82422 0-1.4648 0.30469-1.9219 0.90625-0.44922 0.60547-0.67188 1.4609-0.67188 2.5625 0 1.125 0.21875 1.9844 0.65625 2.5781 0.44531 0.58594 1.0938 0.875 1.9375 0.875 0.82031 0 1.457-0.30078 1.9062-0.90625 0.45703-0.60156 0.6875-1.4531 0.6875-2.5469 0-1.1016-0.23047-1.957-0.6875-2.5625-0.44922-0.60156-1.0859-0.90625-1.9062-0.90625z"/>
</symbol>
<symbol id="u" overflow="visible">
<path d="m14.234-6.2031v1.125h-9.2344c0.09375 0.92969 0.42578 1.625 1 2.0938 0.57031 0.46094 1.375 0.6875 2.4062 0.6875 0.83203 0 1.6797-0.125 2.5469-0.375 0.875-0.25 1.7695-0.625 2.6875-1.125v3.0469c-0.92969 0.35547-1.8594 0.62109-2.7969 0.79688s-1.8711 0.26562-2.7969 0.26562c-2.2422 0-3.9805-0.56641-5.2188-1.7031-1.2422-1.1328-1.8594-2.7227-1.8594-4.7656 0-2.0195 0.60938-3.6016 1.8281-4.75 1.2188-1.1562 2.8945-1.7344 5.0312-1.7344 1.9375 0 3.4883 0.58594 4.6562 1.75 1.1641 1.168 1.75 2.7305 1.75 4.6875zm-4.0625-1.3125c0-0.75-0.21875-1.3516-0.65625-1.8125-0.4375-0.45703-1.0117-0.6875-1.7188-0.6875-0.76172 0-1.3828 0.21484-1.8594 0.64062-0.48047 0.42969-0.77734 1.0469-0.89062 1.8594z"/>
</symbol>
<symbol id="t" overflow="visible"></symbol>
<symbol id="aj" overflow="visible">
<path d="m1.8906-12.344h3.9531v12.344h-3.9531zm0-4.8125h3.9531v3.2188h-3.9531z"/>
</symbol>
<symbol id="ai" overflow="visible">
<path d="m14.312-7.5156v7.5156h-3.9688v-5.75c0-1.0703-0.027344-1.8047-0.078125-2.2031-0.042969-0.40625-0.12109-0.70703-0.23438-0.90625-0.15625-0.25-0.37109-0.44531-0.64062-0.59375-0.26172-0.14453-0.55859-0.21875-0.89062-0.21875-0.82422 0-1.4766 0.32031-1.9531 0.95312-0.46875 0.63672-0.70312 1.5156-0.70312 2.6406v6.0781h-3.9531v-12.344h3.9531v1.7969c0.59375-0.71875 1.2227-1.2422 1.8906-1.5781 0.67578-0.34375 1.4219-0.51562 2.2344-0.51562 1.4258 0 2.5039 0.4375 3.2344 1.3125 0.73828 0.875 1.1094 2.1484 1.1094 3.8125z"/>
</symbol>
<symbol id="ah" overflow="visible">
<path d="m0.28125-12.344h3.9375l3.3281 8.375 2.8281-8.375h3.9375l-5.1875 13.516c-0.52344 1.375-1.1328 2.332-1.8281 2.875-0.69922 0.55078-1.6172 0.82812-2.75 0.82812h-2.2812v-2.5938h1.2344c0.66406 0 1.1484-0.10938 1.4531-0.32812 0.3125-0.21094 0.55078-0.58984 0.71875-1.1406l0.10938-0.34375z"/>
</symbol>
<symbol id="ag" overflow="visible">
<path d="m7.4375-5.5625c-0.82422 0-1.4453 0.14062-1.8594 0.42188-0.41797 0.28125-0.625 0.69531-0.625 1.2344 0 0.5 0.16406 0.89844 0.5 1.1875 0.33203 0.28125 0.79688 0.42188 1.3906 0.42188 0.75 0 1.375-0.26562 1.875-0.79688 0.50781-0.53906 0.76562-1.2109 0.76562-2.0156v-0.45312zm6.0312-1.4844v7.0469h-3.9844v-1.8281c-0.53125 0.75-1.1328 1.2969-1.7969 1.6406-0.65625 0.33203-1.4609 0.5-2.4062 0.5-1.2812 0-2.3242-0.36719-3.125-1.1094-0.79297-0.75-1.1875-1.7188-1.1875-2.9062 0-1.4453 0.49219-2.5078 1.4844-3.1875 1-0.67578 2.5664-1.0156 4.7031-1.0156h2.3281v-0.3125c0-0.625-0.24609-1.0781-0.73438-1.3594-0.49219-0.28906-1.2617-0.4375-2.3125-0.4375-0.84375 0-1.6328 0.085937-2.3594 0.25-0.73047 0.16797-1.4062 0.42188-2.0312 0.76562v-3.0156c0.85156-0.20703 1.7031-0.36328 2.5469-0.46875 0.85156-0.10156 1.707-0.15625 2.5625-0.15625 2.2266 0 3.8359 0.4375 4.8281 1.3125 0.98828 0.875 1.4844 2.3047 1.4844 4.2812z"/>
</symbol>
<symbol id="af" overflow="visible">
<path d="m11.078-8.9844c-0.34375-0.16406-0.6875-0.28516-1.0312-0.35938-0.34375-0.070312-0.6875-0.10938-1.0312-0.10938-1.0234 0-1.8086 0.32812-2.3594 0.98438-0.54297 0.64844-0.8125 1.5742-0.8125 2.7812v5.6875h-3.9531v-12.344h3.9531v2.0312c0.50781-0.8125 1.0938-1.3984 1.75-1.7656 0.65625-0.375 1.4453-0.5625 2.375-0.5625 0.125 0 0.26562 0.007813 0.42188 0.015625 0.15625 0.011719 0.37891 0.03125 0.67188 0.0625z"/>
</symbol>
<symbol id="al" overflow="visible">
<path d="m11.547-11.969v3c-0.84375-0.34375-1.6641-0.60156-2.4531-0.78125-0.78125-0.17578-1.5234-0.26562-2.2188-0.26562-0.75 0-1.3086 0.09375-1.6719 0.28125-0.36719 0.1875-0.54688 0.47656-0.54688 0.85938 0 0.3125 0.13281 0.55859 0.40625 0.73438 0.28125 0.16797 0.77344 0.29297 1.4844 0.375l0.70312 0.09375c2.0195 0.26172 3.3789 0.6875 4.0781 1.2812 0.69531 0.58594 1.0469 1.5 1.0469 2.75 0 1.3125-0.48438 2.3047-1.4531 2.9688-0.96875 0.65625-2.418 0.98438-4.3438 0.98438-0.82422 0-1.6719-0.0625-2.5469-0.1875-0.86719-0.125-1.7578-0.31641-2.6719-0.57812v-3c0.78125 0.38672 1.582 0.67969 2.4062 0.875 0.83203 0.1875 1.6758 0.28125 2.5312 0.28125 0.76953 0 1.3477-0.10156 1.7344-0.3125 0.39453-0.21875 0.59375-0.53906 0.59375-0.96875 0-0.34375-0.13672-0.60156-0.40625-0.78125-0.26172-0.17578-0.79297-0.3125-1.5938-0.40625l-0.70312-0.078125c-1.7617-0.22656-2.9961-0.64062-3.7031-1.2344-0.69922-0.59375-1.0469-1.4922-1.0469-2.7031 0-1.3125 0.44531-2.2812 1.3438-2.9062 0.89453-0.63281 2.2695-0.95312 4.125-0.95312 0.72656 0 1.4922 0.058594 2.2969 0.17188 0.80078 0.10547 1.6719 0.27344 2.6094 0.5z"/>
</symbol>
<symbol id="k" overflow="visible">
<path d="m6.6562-6.4531c0.78125 0.16797 1.3906 0.51172 1.8281 1.0312 0.4375 0.52344 0.65625 1.168 0.65625 1.9375 0 1.1875-0.40625 2.1055-1.2188 2.75-0.8125 0.64844-1.9688 0.96875-3.4688 0.96875-0.5 0-1.0234-0.054687-1.5625-0.15625-0.53125-0.09375-1.0781-0.23828-1.6406-0.4375v-1.5625c0.44531 0.26172 0.9375 0.46094 1.4688 0.59375 0.53906 0.13672 1.1016 0.20312 1.6875 0.20312 1.0078 0 1.7812-0.19531 2.3125-0.59375 0.53125-0.40625 0.79688-0.99219 0.79688-1.7656 0-0.69531-0.25-1.2422-0.75-1.6406-0.49219-0.40625-1.1719-0.60938-2.0469-0.60938h-1.4062v-1.3281h1.4688c0.78906 0 1.3945-0.15625 1.8125-0.46875 0.42578-0.32031 0.64062-0.78516 0.64062-1.3906 0-0.61328-0.21875-1.082-0.65625-1.4062-0.42969-0.33203-1.0469-0.5-1.8594-0.5-0.44922 0-0.92969 0.054687-1.4375 0.15625-0.5 0.09375-1.0586 0.24219-1.6719 0.4375v-1.4375c0.61328-0.17578 1.1875-0.30469 1.7188-0.39062 0.53906-0.082031 1.0508-0.125 1.5312-0.125 1.2266 0 2.2031 0.28125 2.9219 0.84375 0.71875 0.55469 1.0781 1.3086 1.0781 2.2656 0 0.65625-0.19531 1.2148-0.57812 1.6719-0.375 0.46094-0.91797 0.77734-1.625 0.95312z"/>
</symbol>
<symbol id="a" overflow="visible">
<path d="m5.2188-10.906c-0.83594 0-1.4648 0.41406-1.8906 1.2344-0.41797 0.82422-0.625 2.0586-0.625 3.7031 0 1.6367 0.20703 2.8672 0.625 3.6875 0.42578 0.82422 1.0547 1.2344 1.8906 1.2344 0.84375 0 1.4727-0.41016 1.8906-1.2344 0.41406-0.82031 0.625-2.0508 0.625-3.6875 0-1.6445-0.21094-2.8789-0.625-3.7031-0.41797-0.82031-1.0469-1.2344-1.8906-1.2344zm0-1.2812c1.3438 0 2.3672 0.53125 3.0781 1.5938 0.70703 1.0625 1.0625 2.6055 1.0625 4.625 0 2.0117-0.35547 3.5469-1.0625 4.6094-0.71094 1.0625-1.7344 1.5938-3.0781 1.5938s-2.3711-0.53125-3.0781-1.5938c-0.71094-1.0625-1.0625-2.5977-1.0625-4.6094 0-2.0195 0.35156-3.5625 1.0625-4.625 0.70703-1.0625 1.7344-1.5938 3.0781-1.5938z"/>
</symbol>
<symbol id="c" overflow="visible">
<path d="m1.7656-11.969h6.3594v1.3594h-4.875v2.9375c0.23828-0.082031 0.47266-0.14453 0.70312-0.1875 0.23828-0.039063 0.47656-0.0625 0.71875-0.0625 1.332 0 2.3906 0.37109 3.1719 1.1094 0.78125 0.73047 1.1719 1.7188 1.1719 2.9688 0 1.293-0.40234 2.2969-1.2031 3.0156-0.80469 0.71094-1.9336 1.0625-3.3906 1.0625-0.5 0-1.0156-0.046875-1.5469-0.14062-0.52344-0.085938-1.0586-0.20703-1.6094-0.375v-1.625c0.47656 0.26172 0.97266 0.46094 1.4844 0.59375 0.51953 0.125 1.0664 0.1875 1.6406 0.1875 0.91406 0 1.6445-0.24219 2.1875-0.73438 0.53906-0.48828 0.8125-1.1484 0.8125-1.9844 0-0.83203-0.27344-1.4883-0.8125-1.9688-0.54297-0.48828-1.2734-0.73438-2.1875-0.73438-0.4375 0-0.87109 0.046875-1.2969 0.14062-0.42969 0.09375-0.87109 0.24609-1.3281 0.45312z"/>
</symbol>
<symbol id="j" overflow="visible">
<path d="m6.2031-10.562-4.0938 6.3906h4.0938zm-0.42188-1.4062h2.0312v7.7969h1.7188v1.3438h-1.7188v2.8281h-1.6094v-2.8281h-5.4062v-1.5625z"/>
</symbol>
<symbol id="i" overflow="visible">
<path d="m5.4219-6.625c-0.73047 0-1.3086 0.25-1.7344 0.75-0.41797 0.49219-0.625 1.168-0.625 2.0312 0 0.86719 0.20703 1.5469 0.625 2.0469 0.42578 0.5 1.0039 0.75 1.7344 0.75 0.72656 0 1.3008-0.25 1.7188-0.75 0.42578-0.5 0.64062-1.1797 0.64062-2.0469 0-0.86328-0.21484-1.5391-0.64062-2.0312-0.41797-0.5-0.99219-0.75-1.7188-0.75zm3.2188-5.0781v1.4688c-0.40625-0.1875-0.82031-0.33203-1.2344-0.4375-0.41797-0.10156-0.82812-0.15625-1.2344-0.15625-1.0625 0-1.8828 0.36719-2.4531 1.0938-0.5625 0.71875-0.88281 1.8086-0.95312 3.2656 0.3125-0.46875 0.70312-0.82812 1.1719-1.0781 0.47656-0.25 1.0039-0.375 1.5781-0.375 1.207 0 2.1562 0.37109 2.8438 1.1094 0.69531 0.73047 1.0469 1.7188 1.0469 2.9688 0 1.2305-0.36719 2.2188-1.0938 2.9688-0.71875 0.74219-1.6836 1.1094-2.8906 1.1094-1.3867 0-2.4492-0.53125-3.1875-1.5938-0.73047-1.0625-1.0938-2.5977-1.0938-4.6094 0-1.8945 0.44531-3.4062 1.3438-4.5312 0.90625-1.125 2.1133-1.6875 3.625-1.6875 0.40625 0 0.81641 0.042969 1.2344 0.125 0.41406 0.074219 0.84766 0.19531 1.2969 0.35938z"/>
</symbol>
<symbol id="h" overflow="visible">
<path d="m1.3438-11.969h7.7031v0.6875l-4.3438 11.281h-1.7031l4.0938-10.609h-5.75z"/>
</symbol>
<symbol id="o" overflow="visible">
<path d="m5.2188-5.6875c-0.77344 0-1.375 0.21094-1.8125 0.625-0.4375 0.40625-0.65625 0.96875-0.65625 1.6875 0 0.73047 0.21875 1.3047 0.65625 1.7188 0.4375 0.40625 1.0391 0.60938 1.8125 0.60938 0.76953 0 1.375-0.20703 1.8125-0.625 0.44531-0.41406 0.67188-0.98438 0.67188-1.7031s-0.22656-1.2812-0.67188-1.6875c-0.4375-0.41406-1.043-0.625-1.8125-0.625zm-1.625-0.6875c-0.6875-0.16406-1.2305-0.48828-1.625-0.96875-0.38672-0.47656-0.57812-1.0547-0.57812-1.7344 0-0.95703 0.33594-1.7109 1.0156-2.2656 0.6875-0.5625 1.625-0.84375 2.8125-0.84375 1.1953 0 2.1328 0.28125 2.8125 0.84375 0.67578 0.55469 1.0156 1.3086 1.0156 2.2656 0 0.67969-0.19922 1.2578-0.59375 1.7344-0.38672 0.48047-0.92188 0.80469-1.6094 0.96875 0.78125 0.17969 1.3906 0.53125 1.8281 1.0625s0.65625 1.1797 0.65625 1.9375c0 1.168-0.35547 2.0625-1.0625 2.6875-0.71094 0.61719-1.7266 0.92188-3.0469 0.92188-1.3242 0-2.3398-0.30469-3.0469-0.92188-0.71094-0.625-1.0625-1.5195-1.0625-2.6875 0-0.75781 0.21875-1.4062 0.65625-1.9375s1.0469-0.88281 1.8281-1.0625zm-0.59375-2.5625c0 0.625 0.19141 1.1172 0.57812 1.4688 0.39453 0.34375 0.94141 0.51562 1.6406 0.51562 0.69531 0 1.2383-0.17188 1.625-0.51562 0.39453-0.35156 0.59375-0.84375 0.59375-1.4688 0-0.61328-0.19922-1.0938-0.59375-1.4375-0.38672-0.35156-0.92969-0.53125-1.625-0.53125-0.69922 0-1.2461 0.17969-1.6406 0.53125-0.38672 0.34375-0.57812 0.82422-0.57812 1.4375z"/>
</symbol>
<symbol id="b" overflow="visible">
<path d="m1.9219-2.0312h1.6875v1.375l-1.3125 2.5625h-1.0312l0.65625-2.5625z"/>
</symbol>
<symbol id="d" overflow="visible">
<path d="m2.0312-1.3594h2.6562v-9.1406l-2.8906 0.57812v-1.4688l2.875-0.57812h1.6094v10.609h2.6562v1.3594h-6.9062z"/>
</symbol>
<symbol id="s" overflow="visible">
<path d="m3.1562-1.3594h5.6406v1.3594h-7.5938v-1.3594c0.61328-0.63281 1.4531-1.4883 2.5156-2.5625 1.0625-1.0703 1.7266-1.7656 2-2.0781 0.51953-0.58203 0.87891-1.0703 1.0781-1.4688 0.20703-0.40625 0.3125-0.80469 0.3125-1.2031 0-0.63281-0.22656-1.1484-0.67188-1.5469-0.44922-0.40625-1.0273-0.60938-1.7344-0.60938-0.51172 0-1.0469 0.089844-1.6094 0.26562-0.5625 0.17969-1.168 0.44531-1.8125 0.79688v-1.625c0.65625-0.25781 1.2656-0.45703 1.8281-0.59375 0.57031-0.13281 1.0938-0.20312 1.5625-0.20312 1.2383 0 2.2227 0.3125 2.9531 0.9375 0.73828 0.61719 1.1094 1.4453 1.1094 2.4844 0 0.49219-0.09375 0.95312-0.28125 1.3906-0.17969 0.4375-0.51172 0.96094-1 1.5625-0.13672 0.15625-0.5625 0.60547-1.2812 1.3438-0.71094 0.74219-1.7148 1.7773-3.0156 3.1094z"/>
</symbol>
<symbol id="ae" overflow="visible">
<path d="m1.7969-0.25v-1.4688c0.40625 0.1875 0.81641 0.33594 1.2344 0.4375 0.42578 0.10547 0.83594 0.15625 1.2344 0.15625 1.0703 0 1.8906-0.35938 2.4531-1.0781s0.88281-1.8125 0.96875-3.2812c-0.3125 0.46094-0.71094 0.8125-1.1875 1.0625-0.46875 0.24219-0.99609 0.35938-1.5781 0.35938-1.1992 0-2.1484-0.35938-2.8438-1.0781-0.69922-0.72656-1.0469-1.7188-1.0469-2.9688 0-1.2266 0.36328-2.2109 1.0938-2.9531 0.72656-0.75 1.6953-1.125 2.9062-1.125 1.3828 0 2.4414 0.53125 3.1719 1.5938 0.72656 1.0625 1.0938 2.6055 1.0938 4.625 0 1.8867-0.44922 3.3906-1.3438 4.5156-0.89844 1.125-2.1016 1.6875-3.6094 1.6875-0.40625 0-0.82031-0.042969-1.2344-0.125-0.41797-0.085938-0.85547-0.20312-1.3125-0.35938zm3.2344-5.0781c0.72656 0 1.3008-0.24219 1.7188-0.73438 0.42578-0.5 0.64062-1.1797 0.64062-2.0469 0-0.86328-0.21484-1.5469-0.64062-2.0469-0.41797-0.5-0.99219-0.75-1.7188-0.75-0.73047 0-1.3086 0.25-1.7344 0.75-0.42969 0.5-0.64062 1.1836-0.64062 2.0469 0 0.86719 0.21094 1.5469 0.64062 2.0469 0.42578 0.49219 1.0039 0.73438 1.7344 0.73438z"/>
</symbol>
<symbol id="g" overflow="visible">
<path d="m8.0156-8.6406v1.3906c-0.41797-0.22656-0.83984-0.39844-1.2656-0.51562-0.41797-0.125-0.83984-0.1875-1.2656-0.1875-0.96094 0-1.7031 0.30859-2.2344 0.92188-0.52344 0.60547-0.78125 1.4531-0.78125 2.5469s0.25781 1.9492 0.78125 2.5625c0.53125 0.60547 1.2734 0.90625 2.2344 0.90625 0.42578 0 0.84766-0.054687 1.2656-0.17188 0.42578-0.11328 0.84766-0.28516 1.2656-0.51562v1.3594c-0.41797 0.1875-0.85156 0.32812-1.2969 0.42188-0.4375 0.10156-0.90234 0.15625-1.3906 0.15625-1.3555 0-2.4336-0.42188-3.2344-1.2656-0.79297-0.85156-1.1875-2.0039-1.1875-3.4531 0-1.457 0.39844-2.6094 1.2031-3.4531 0.80078-0.84375 1.9062-1.2656 3.3125-1.2656 0.45703 0 0.89844 0.046875 1.3281 0.14062 0.4375 0.09375 0.85938 0.23438 1.2656 0.42188z"/>
</symbol>
<symbol id="r" overflow="visible">
<path d="m5.0312-7.9531c-0.79297 0-1.418 0.3125-1.875 0.9375-0.46094 0.61719-0.6875 1.4609-0.6875 2.5312 0 1.0742 0.22266 1.9219 0.67188 2.5469 0.45703 0.61719 1.0859 0.92188 1.8906 0.92188 0.78125 0 1.3984-0.30469 1.8594-0.92188 0.45703-0.625 0.6875-1.4727 0.6875-2.5469 0-1.0625-0.23047-1.9062-0.6875-2.5312-0.46094-0.625-1.0781-0.9375-1.8594-0.9375zm0-1.25c1.2812 0 2.2852 0.41797 3.0156 1.25 0.73828 0.83594 1.1094 1.9922 1.1094 3.4688 0 1.4688-0.37109 2.625-1.1094 3.4688-0.73047 0.83594-1.7344 1.25-3.0156 1.25-1.293 0-2.3047-0.41406-3.0312-1.25-0.73047-0.84375-1.0938-2-1.0938-3.4688 0-1.4766 0.36328-2.6328 1.0938-3.4688 0.72656-0.83203 1.7383-1.25 3.0312-1.25z"/>
</symbol>
<symbol id="f" overflow="visible">
<path d="m6.75-7.5938c-0.16797-0.10156-0.35156-0.17578-0.54688-0.21875-0.1875-0.039062-0.40234-0.0625-0.64062-0.0625-0.83594 0-1.4766 0.27344-1.9219 0.8125-0.44922 0.54297-0.67188 1.3203-0.67188 2.3281v4.7344h-1.4844v-8.9844h1.4844v1.4062c0.3125-0.55078 0.71875-0.95703 1.2188-1.2188 0.5-0.26953 1.1016-0.40625 1.8125-0.40625 0.10156 0 0.21094 0.011719 0.32812 0.03125 0.125 0.011719 0.26562 0.03125 0.42188 0.0625z"/>
</symbol>
<symbol id="e" overflow="visible">
<path d="m9.2344-4.8594v0.71875h-6.7812c0.0625 1.0234 0.36328 1.7969 0.90625 2.3281 0.55078 0.53125 1.3164 0.79688 2.2969 0.79688 0.5625 0 1.1094-0.066406 1.6406-0.20312 0.53125-0.14453 1.0625-0.35938 1.5938-0.64062v1.4062c-0.53125 0.21875-1.0781 0.38672-1.6406 0.5-0.55469 0.125-1.1172 0.1875-1.6875 0.1875-1.4297 0-2.5625-0.41406-3.4062-1.25-0.83594-0.83203-1.25-1.9609-1.25-3.3906 0-1.4688 0.39453-2.6328 1.1875-3.5 0.78906-0.86328 1.8633-1.2969 3.2188-1.2969 1.207 0 2.1602 0.39062 2.8594 1.1719 0.70703 0.78125 1.0625 1.8398 1.0625 3.1719zm-1.4844-0.4375c-0.011719-0.80078-0.23438-1.4414-0.67188-1.9219-0.4375-0.48828-1.0234-0.73438-1.75-0.73438-0.82422 0-1.4844 0.23438-1.9844 0.70312-0.49219 0.46875-0.77344 1.125-0.84375 1.9688z"/>
</symbol>
<symbol id="q" overflow="visible">
<path d="m3-11.531v2.5469h3.0469v1.1562h-3.0469v4.875c0 0.73047 0.097656 1.1992 0.29688 1.4062 0.20703 0.21094 0.61719 0.3125 1.2344 0.3125h1.5156v1.2344h-1.5156c-1.1367 0-1.9219-0.21094-2.3594-0.64062-0.42969-0.42578-0.64062-1.1953-0.64062-2.3125v-4.875h-1.0938v-1.1562h1.0938v-2.5469z"/>
</symbol>
<symbol id="p" overflow="visible">
<path d="m7.4531-7.625v-4.8594h1.4844v12.484h-1.4844v-1.3438c-0.3125 0.53125-0.70312 0.92969-1.1719 1.1875s-1.0391 0.39062-1.7031 0.39062c-1.0859 0-1.9688-0.42969-2.6562-1.2969-0.67969-0.86328-1.0156-2.0039-1.0156-3.4219 0-1.4062 0.33594-2.5391 1.0156-3.4062 0.6875-0.875 1.5703-1.3125 2.6562-1.3125 0.66406 0 1.2344 0.13281 1.7031 0.39062 0.46875 0.26172 0.85938 0.65625 1.1719 1.1875zm-5.0312 3.1406c0 1.0859 0.22266 1.9375 0.67188 2.5625 0.44531 0.61719 1.0625 0.92188 1.8438 0.92188s1.3945-0.30469 1.8438-0.92188c0.44531-0.625 0.67188-1.4766 0.67188-2.5625 0-1.082-0.22656-1.9297-0.67188-2.5469-0.44922-0.625-1.0625-0.9375-1.8438-0.9375s-1.3984 0.3125-1.8438 0.9375c-0.44922 0.61719-0.67188 1.4648-0.67188 2.5469z"/>
</symbol>
<symbol id="ad" overflow="visible">
<path d="m1.3906-3.5469v-5.4375h1.4844v5.3906c0 0.84375 0.16016 1.4805 0.48438 1.9062 0.33203 0.42969 0.83203 0.64062 1.5 0.64062 0.78906 0 1.4141-0.25391 1.875-0.76562 0.46875-0.50781 0.70312-1.2031 0.70312-2.0781v-5.0938h1.4844v8.9844h-1.4844v-1.375c-0.35547 0.54297-0.77344 0.94922-1.25 1.2188-0.46875 0.25781-1.0156 0.39062-1.6406 0.39062-1.0312 0-1.8203-0.31641-2.3594-0.95312-0.53125-0.64453-0.79688-1.5859-0.79688-2.8281z"/>
</symbol>
<symbol id="ac" overflow="visible">
<path d="m9.0156-5.4219v5.4219h-1.4844v-5.375c0-0.84375-0.16797-1.4766-0.5-1.9062-0.32422-0.42578-0.82031-0.64062-1.4844-0.64062-0.79297 0-1.4219 0.25781-1.8906 0.76562-0.46094 0.51172-0.6875 1.2031-0.6875 2.0781v5.0781h-1.4844v-8.9844h1.4844v1.4062c0.35156-0.53906 0.76953-0.94531 1.25-1.2188 0.47656-0.26953 1.0312-0.40625 1.6562-0.40625 1.0312 0 1.8125 0.32422 2.3438 0.96875 0.53125 0.63672 0.79688 1.5742 0.79688 2.8125z"/>
</symbol>
<symbol id="ab" overflow="visible">
<path d="m-11.969-0.078125v-3.1094l8.8281-3.1719-8.8281-3.1719v-3.0938l11.969 4.4375v3.6719z"/>
</symbol>
<symbol id="n" overflow="visible">
<path d="m-8.9844-1.375v-2.875h8.9844v2.875zm-3.5 0v-2.875h2.3438v2.875z"/>
</symbol>
<symbol id="z" overflow="visible">
<path d="m-8.7031-8.3906h2.1875c-0.25781 0.61719-0.45312 1.2109-0.57812 1.7812-0.125 0.57422-0.1875 1.1094-0.1875 1.6094 0 0.55469 0.070312 0.96094 0.20312 1.2188 0.13672 0.26172 0.34375 0.39062 0.625 0.39062 0.23047 0 0.40625-0.097656 0.53125-0.29688 0.125-0.19531 0.21484-0.55469 0.26562-1.0781l0.078125-0.5c0.1875-1.4688 0.49609-2.457 0.92188-2.9688 0.42969-0.50781 1.1016-0.76562 2.0156-0.76562 0.96094 0 1.6797 0.35547 2.1562 1.0625 0.48047 0.71094 0.71875 1.7617 0.71875 3.1562 0 0.59375-0.046875 1.2109-0.14062 1.8438-0.09375 0.63672-0.23438 1.2891-0.42188 1.9531h-2.1875c0.28125-0.57031 0.49609-1.1562 0.64062-1.75 0.13672-0.60156 0.20312-1.2188 0.20312-1.8438 0-0.5625-0.078125-0.98438-0.23438-1.2656s-0.38281-0.42188-0.6875-0.42188c-0.25781 0-0.45312 0.10156-0.57812 0.29688-0.125 0.1875-0.22266 0.57422-0.29688 1.1562l-0.0625 0.5c-0.15625 1.2812-0.44531 2.1836-0.875 2.7031-0.4375 0.51172-1.0977 0.76562-1.9844 0.76562-0.94531 0-1.6484-0.32812-2.1094-0.98438-0.46875-0.65625-0.70312-1.6562-0.70312-3 0-0.53125 0.042969-1.0859 0.125-1.6719 0.085937-0.58203 0.21094-1.2109 0.375-1.8906z"/>
</symbol>
<symbol id="m" overflow="visible">
<path d="m-3.5-1.2812h-5.4844v-2.8906h0.90625c0.48047 0 1.0898 0.007813 1.8281 0.015625h1.4688c0.71875 0 1.2422-0.015625 1.5625-0.046875 0.3125-0.039063 0.54297-0.10938 0.6875-0.20312 0.1875-0.11328 0.33594-0.26562 0.4375-0.45312 0.10547-0.1875 0.15625-0.40625 0.15625-0.65625 0-0.60156-0.22656-1.0703-0.6875-1.4062-0.45703-0.34375-1.0977-0.51562-1.9219-0.51562h-4.4375v-2.875h8.9844v2.875h-1.2969c0.52344 0.42969 0.90625 0.88672 1.1562 1.375 0.25 0.48047 0.375 1.0117 0.375 1.5938 0 1.043-0.31641 1.8359-0.95312 2.375-0.63281 0.54297-1.5625 0.8125-2.7812 0.8125z"/>
</symbol>
<symbol id="l" overflow="visible">
<path d="m-4.0469-5.4062c0 0.60547 0.10547 1.0586 0.3125 1.3594 0.19922 0.30469 0.49609 0.45312 0.89062 0.45312 0.36719 0 0.65234-0.11719 0.85938-0.35938 0.21094-0.25 0.3125-0.59375 0.3125-1.0312 0-0.53906-0.19141-0.99219-0.57812-1.3594-0.39453-0.36328-0.88281-0.54688-1.4688-0.54688h-0.32812zm-1.0781-4.3906h5.125v2.9062h-1.3281c0.54297 0.38672 0.9375 0.82031 1.1875 1.2969 0.25 0.48047 0.375 1.0625 0.375 1.75 0 0.92969-0.26953 1.6836-0.8125 2.2656-0.53906 0.58594-1.2422 0.875-2.1094 0.875-1.0625 0-1.8359-0.35938-2.3281-1.0781-0.48828-0.72656-0.73438-1.8672-0.73438-3.4219v-1.6875h-0.21875c-0.45703 0-0.78906 0.17969-1 0.53125-0.20703 0.35547-0.3125 0.91406-0.3125 1.6719 0 0.61719 0.0625 1.1875 0.1875 1.7188 0.11719 0.53125 0.29688 1.0273 0.54688 1.4844h-2.1875c-0.15625-0.61328-0.26953-1.2344-0.34375-1.8594-0.082031-0.625-0.125-1.2422-0.125-1.8594 0-1.625 0.32422-2.7969 0.96875-3.5156 0.63672-0.71875 1.6719-1.0781 3.1094-1.0781z"/>
</symbol>
<symbol id="y" overflow="visible">
<path d="m-12.484-1.375v-2.875h12.484v2.875z"/>
</symbol>
<symbol id="x" overflow="visible"></symbol>
<symbol id="w" overflow="visible">
<path d="m-8.7031-8.6406h2.3438c-0.26953 0.39844-0.46875 0.79297-0.59375 1.1875-0.125 0.38672-0.1875 0.79297-0.1875 1.2188 0 0.80469 0.23438 1.4297 0.70312 1.875 0.46875 0.4375 1.1211 0.65625 1.9531 0.65625 0.84375 0 1.5-0.21875 1.9688-0.65625 0.46875-0.44531 0.70312-1.0703 0.70312-1.875 0-0.44531-0.066406-0.875-0.20312-1.2812-0.13281-0.40625-0.33203-0.78125-0.59375-1.125h2.3438c0.16797 0.44922 0.28906 0.90625 0.375 1.375 0.082031 0.46094 0.125 0.92188 0.125 1.3906 0 1.6172-0.41406 2.8828-1.25 3.7969-0.83203 0.91797-1.9883 1.375-3.4688 1.375-1.4766 0-2.6328-0.45703-3.4688-1.375-0.83203-0.91406-1.25-2.1797-1.25-3.7969 0-0.46875 0.042969-0.92969 0.125-1.3906 0.085937-0.45703 0.21094-0.91406 0.375-1.375z"/>
</symbol>
<symbol id="v" overflow="visible">
<path d="m-11.531-4.5156h2.5469v-2.9531h2.0625v2.9531h3.7969c0.41797 0 0.70312-0.082031 0.85938-0.25 0.14844-0.16406 0.21875-0.49219 0.21875-0.98438v-1.4688h2.0469v2.4531c0 1.1367-0.23438 1.9453-0.70312 2.4219-0.47656 0.46875-1.2852 0.70312-2.4219 0.70312h-3.7969v1.4219h-2.0625v-1.4219h-2.5469z"/>
</symbol>
<symbol id="aa" overflow="visible">
<path d="m-8.9844-0.20312v-2.875l6.0938-2.4062-6.0938-2.0469v-2.875l9.8281 3.7812c1 0.375 1.6953 0.82031 2.0938 1.3281 0.40625 0.5 0.60938 1.168 0.60938 2v1.6562h-1.8906v-0.90625c0-0.47656-0.078125-0.82812-0.23438-1.0469-0.15625-0.22656-0.43359-0.40625-0.82812-0.53125l-0.25-0.078125z"/>
</symbol>
</defs>
<path d="m557.61 283.03h226.99v115.11h-226.99z" fill="#fff"/>
<path d="m91.016 21.633h457.58v376.51h-457.58z" fill="#fff"/>
<path transform="matrix(2.0533 0 0 2.052 1.4949 .12263)" d="m266.44 10.483h-225.89" fill="none" stroke="#000" stroke-width=".75"/>
<path transform="matrix(2.0533 0 0 2.052 1.4949 .12263)" d="m43.599 10.483h222.85v183.49h-222.85z" fill="none" stroke="#000" stroke-width="1.5"/>
<path transform="matrix(2.0533 0 0 2.052 1.4949 .12263)" d="m270.84 137.87h110.55v56.097h-110.55z" fill="none" stroke="#000"/>
<path transform="matrix(2.0533 0 0 2.052 1.4949 .12263)" d="m214.63 193.97h-174.02" fill="none" stroke="#000" stroke-width=".75"/>
<path transform="matrix(2.0533 0 0 2.052 1.4949 .12263)" d="m266.75 193.97h-226.14" fill="none" stroke="#000" stroke-width=".75"/>
<path transform="matrix(2.0533 0 0 2.052 1.4949 .12263)" d="m43.599 10.483v186.34" fill="none" stroke="#000" stroke-width=".75"/>
<path transform="matrix(2.0533 0 0 2.052 1.4949 .12263)" d="m266.44 10.483v186.34" fill="none" stroke="#000" stroke-width=".75"/>
<path transform="matrix(2.0533 0 0 2.052 1.4949 .12263)" d="m65.882 10.483v186.34" fill="none" stroke="#000" stroke-width=".75"/>
<path transform="matrix(2.0533 0 0 2.052 1.4949 .12263)" d="m88.167 10.483v186.34" fill="none" stroke="#000" stroke-width=".75"/>
<path transform="matrix(2.0533 0 0 2.052 1.4949 .12263)" d="m110.45 10.483v186.34" fill="none" stroke="#000" stroke-width=".75"/>
<path transform="matrix(2.0533 0 0 2.052 1.4949 .12263)" d="m132.73 10.483v186.34" fill="none" stroke="#000" stroke-width=".75"/>
<path transform="matrix(2.0533 0 0 2.052 1.4949 .12263)" d="m155.02 10.483v186.34" fill="none" stroke="#000" stroke-width=".75"/>
<path transform="matrix(2.0533 0 0 2.052 1.4949 .12263)" d="m177.3 10.483v186.34" fill="none" stroke="#000" stroke-width=".75"/>
<path transform="matrix(2.0533 0 0 2.052 1.4949 .12263)" d="m199.59 10.483v186.34" fill="none" stroke="#000" stroke-width=".75"/>
<path transform="matrix(2.0533 0 0 2.052 1.4949 .12263)" d="m221.87 10.483v186.34" fill="none" stroke="#000" stroke-width=".75"/>
<path transform="matrix(2.0533 0 0 2.052 1.4949 .12263)" d="m244.15 10.483v186.34" fill="none" stroke="#000" stroke-width=".75"/>
<path transform="matrix(2.0533 0 0 2.052 1.4949 .12263)" d="m266.75 178.68h-226.14" fill="none" stroke="#000" stroke-width=".75"/>
<path transform="matrix(2.0533 0 0 2.052 1.4949 .12263)" d="m266.75 163.39h-226.14" fill="none" stroke="#000" stroke-width=".75"/>
<path transform="matrix(2.0533 0 0 2.052 1.4949 .12263)" d="m266.75 148.1h-226.14" fill="none" stroke="#000" stroke-width=".75"/>
<path transform="matrix(2.0533 0 0 2.052 1.4949 .12263)" d="m266.75 132.81h-226.14" fill="none" stroke="#000" stroke-width=".75"/>
<path transform="matrix(2.0533 0 0 2.052 1.4949 .12263)" d="m266.75 117.52h-226.14" fill="none" stroke="#000" stroke-width=".75"/>
<path transform="matrix(2.0533 0 0 2.052 1.4949 .12263)" d="m266.75 102.23h-226.14" fill="none" stroke="#000" stroke-width=".75"/>
<path transform="matrix(2.0533 0 0 2.052 1.4949 .12263)" d="m266.75 86.936h-226.14" fill="none" stroke="#000" stroke-width=".75"/>
<path transform="matrix(2.0533 0 0 2.052 1.4949 .12263)" d="m266.75 71.646h-226.14" fill="none" stroke="#000" stroke-width=".75"/>
<path transform="matrix(2.0533 0 0 2.052 1.4949 .12263)" d="m266.75 56.356h-226.14" fill="none" stroke="#000" stroke-width=".75"/>
<path transform="matrix(2.0533 0 0 2.052 1.4949 .12263)" d="m266.75 41.063h-226.14" fill="none" stroke="#000" stroke-width=".75"/>
<path transform="matrix(2.0533 0 0 2.052 1.4949 .12263)" d="m266.75 25.773h-226.14" fill="none" stroke="#000" stroke-width=".75"/>
<g>
<use x="228.492188" y="461.891785" xlink:href="#am"/>
<use x="246.971843" y="461.891785" xlink:href="#ak"/>
<use x="263.398204" y="461.891785" xlink:href="#u"/>
<use x="277.77127" y="461.891785" xlink:href="#t"/>
<use x="285.98445" y="461.891785" xlink:href="#aj"/>
<use x="294.197631" y="461.891785" xlink:href="#ai"/>
<use x="310.623991" y="461.891785" xlink:href="#t"/>
<use x="318.837172" y="461.891785" xlink:href="#ah"/>
<use x="333.210237" y="461.891785" xlink:href="#u"/>
<use x="347.583303" y="461.891785" xlink:href="#ag"/>
<use x="361.956369" y="461.891785" xlink:href="#af"/>
<use x="372.222844" y="461.891785" xlink:href="#al"/>
</g>
<g>
<use x="80.484375" y="431.850649" xlink:href="#k"/>
<use x="90.75085" y="431.850649" xlink:href="#a"/>
</g>
<g>
<use x="64.121094" y="404.116274" xlink:href="#a"/>
</g>
<g>
<use x="26.852789" y="270.070312" xlink:href="#ab"/>
<use x="26.852789" y="257.758583" xlink:href="#n"/>
<use x="26.852789" y="251.602719" xlink:href="#z"/>
<use x="26.852789" y="241.342945" xlink:href="#m"/>
<use x="26.852789" y="229.031216" xlink:href="#l"/>
<use x="26.852789" y="218.771441" xlink:href="#y"/>
<use x="26.852789" y="212.615577" xlink:href="#x"/>
<use x="26.852789" y="206.459712" xlink:href="#l"/>
<use x="26.852789" y="196.199938" xlink:href="#w"/>
<use x="26.852789" y="185.940164" xlink:href="#m"/>
<use x="26.852789" y="173.628435" xlink:href="#n"/>
<use x="26.852789" y="167.47257" xlink:href="#v"/>
<use x="26.852789" y="159.264751" xlink:href="#aa"/>
</g>
<g>
<use x="126.414062" y="431.850649" xlink:href="#k"/>
<use x="136.680538" y="431.850649" xlink:href="#c"/>
</g>
<g>
<use x="172.21875" y="431.850649" xlink:href="#j"/>
<use x="182.485225" y="431.850649" xlink:href="#a"/>
</g>
<g>
<use x="218.148437" y="431.850649" xlink:href="#j"/>
<use x="228.414913" y="431.850649" xlink:href="#c"/>
</g>
<g>
<use x="263.496094" y="431.850649" xlink:href="#c"/>
<use x="273.762569" y="431.850649" xlink:href="#a"/>
</g>
<g>
<use x="309.425781" y="431.850649" xlink:href="#c"/>
<use x="319.692257" y="431.850649" xlink:href="#c"/>
</g>
<g>
<use x="355.070312" y="431.850649" xlink:href="#i"/>
<use x="365.336788" y="431.850649" xlink:href="#a"/>
</g>
<g>
<use x="400.996094" y="431.850649" xlink:href="#i"/>
<use x="411.262569" y="431.850649" xlink:href="#c"/>
</g>
<g>
<use x="446.480469" y="431.850649" xlink:href="#h"/>
<use x="456.746944" y="431.850649" xlink:href="#a"/>
</g>
<g>
<use x="492.40625" y="431.850649" xlink:href="#h"/>
<use x="502.672725" y="431.850649" xlink:href="#c"/>
</g>
<g>
<use x="538.105469" y="431.850649" xlink:href="#o"/>
<use x="548.371944" y="431.850649" xlink:href="#a"/>
</g>
<g>
<use x="48.875" y="372.670962" xlink:href="#a"/>
<use x="59.141475" y="372.670962" xlink:href="#b"/>
<use x="65.301361" y="372.670962" xlink:href="#d"/>
</g>
<g>
<use x="49.003906" y="341.225649" xlink:href="#a"/>
<use x="59.270382" y="341.225649" xlink:href="#b"/>
<use x="65.430267" y="341.225649" xlink:href="#s"/>
</g>
<g>
<use x="48.675781" y="309.780337" xlink:href="#a"/>
<use x="58.942257" y="309.780337" xlink:href="#b"/>
<use x="65.102142" y="309.780337" xlink:href="#k"/>
</g>
<g>
<use x="48.28125" y="278.335024" xlink:href="#a"/>
<use x="58.547725" y="278.335024" xlink:href="#b"/>
<use x="64.707611" y="278.335024" xlink:href="#j"/>
</g>
<g>
<use x="48.792969" y="246.889712" xlink:href="#a"/>
<use x="59.059444" y="246.889712" xlink:href="#b"/>
<use x="65.21933" y="246.889712" xlink:href="#c"/>
</g>
<g>
<use x="48.394531" y="215.444399" xlink:href="#a"/>
<use x="58.661007" y="215.444399" xlink:href="#b"/>
<use x="64.820892" y="215.444399" xlink:href="#i"/>
</g>
<g>
<use x="48.761719" y="183.999087" xlink:href="#a"/>
<use x="59.028194" y="183.999087" xlink:href="#b"/>
<use x="65.18808" y="183.999087" xlink:href="#h"/>
</g>
<g>
<use x="48.480469" y="152.553774" xlink:href="#a"/>
<use x="58.746944" y="152.553774" xlink:href="#b"/>
<use x="64.90683" y="152.553774" xlink:href="#o"/>
</g>
<g>
<use x="48.515625" y="121.108462" xlink:href="#a"/>
<use x="58.7821" y="121.108462" xlink:href="#b"/>
<use x="64.941986" y="121.108462" xlink:href="#ae"/>
</g>
<g>
<use x="48.449219" y="89.663149" xlink:href="#d"/>
<use x="58.715694" y="89.663149" xlink:href="#b"/>
<use x="64.87558" y="89.663149" xlink:href="#a"/>
</g>
<g>
<use x="48.875" y="58.217837" xlink:href="#d"/>
<use x="59.141475" y="58.217837" xlink:href="#b"/>
<use x="65.301361" y="58.217837" xlink:href="#d"/>
</g>
<g>
<use x="49.003906" y="26.772524" xlink:href="#d"/>
<use x="59.270382" y="26.772524" xlink:href="#b"/>
<use x="65.430267" y="26.772524" xlink:href="#s"/>
</g>
<g>
<use x="597.332031" y="329.74518" xlink:href="#g"/>
<use x="605.545212" y="329.74518" xlink:href="#r"/>
<use x="615.811687" y="329.74518" xlink:href="#f"/>
<use x="621.971572" y="329.74518" xlink:href="#f"/>
<use x="628.131458" y="329.74518" xlink:href="#e"/>
<use x="638.397933" y="329.74518" xlink:href="#g"/>
<use x="646.611114" y="329.74518" xlink:href="#q"/>
<use x="652.770999" y="329.74518" xlink:href="#e"/>
<use x="663.037474" y="329.74518" xlink:href="#p"/>
</g>
<g>
<use x="597.332031" y="359.983462" xlink:href="#ad"/>
<use x="607.598507" y="359.983462" xlink:href="#ac"/>
<use x="617.864982" y="359.983462" xlink:href="#g"/>
<use x="626.078163" y="359.983462" xlink:href="#r"/>
<use x="636.344638" y="359.983462" xlink:href="#f"/>
<use x="642.504523" y="359.983462" xlink:href="#f"/>
<use x="648.664409" y="359.983462" xlink:href="#e"/>
<use x="658.930884" y="359.983462" xlink:href="#g"/>
<use x="667.144064" y="359.983462" xlink:href="#q"/>
<use x="673.30395" y="359.983462" xlink:href="#e"/>
<use x="683.570425" y="359.983462" xlink:href="#p"/>
</g>
<path transform="matrix(2.0533 0 0 2.052 1.4949 .12263)" d="m43.599 11.998 22.283 4.8734 22.285-3.2629 22.283 4.5917 22.283 4.7877 22.285 4.8258 22.283 2.9945 22.285 7.4548 22.283 10.209 22.283 15.642 22.298 10.64" fill="none" stroke="#2b8059" stroke-width=".75"/>
<path d="m84.883 18.609h12.266v12.262h-12.266z" fill="#2b8059"/>
<path d="m130.64 28.613h12.266v12.258h-12.266z" fill="#2b8059"/>
<path d="m176.39 21.914h12.266v12.262h-12.266z" fill="#2b8059"/>
<path d="m222.15 31.34h12.266v12.258h-12.266z" fill="#2b8059"/>
<path d="m267.9 41.164h12.27v12.258h-12.27z" fill="#2b8059"/>
<path d="m313.66 51.066h12.266v12.262h-12.266z" fill="#2b8059"/>
<path d="m359.41 57.211h12.266v12.258h-12.266z" fill="#2b8059"/>
<path d="m405.17 72.504h12.266v12.262h-12.266z" fill="#2b8059"/>
<path d="m450.93 93.453h12.266v12.262h-12.266z" fill="#2b8059"/>
<path d="m496.68 125.55h12.27v12.258h-12.27z" fill="#2b8059"/>
<path d="m542.44 147.37h12.266v12.258h-12.266z" fill="#2b8059"/>
<path transform="matrix(2.0533 0 0 2.052 1.4949 .12263)" d="m273.43 156.96h11.909" fill="none" stroke="#2b8059" stroke-width=".75"/>
<path d="m569.02 316.06h12.266v12.262h-12.266z" fill="#2b8059"/>
<path transform="matrix(2.0533 0 0 2.052 -19.312 31.585)" d="m283.56 158.62h11.909" fill="none" stroke="#3eaf7c" stroke-width=".75"/>
<path d="m580.97 357.07c0 3.2109-2.6055 5.8125-5.8164 5.8125-3.2109 0-5.8164-2.6016-5.8164-5.8125 0-3.2109 2.6055-5.8125 5.8164-5.8125 3.2109 0 5.8164 2.6016 5.8164 5.8125z" fill="#3eaf7c"/>
<path d="m96.832 147.14c0 3.2109-2.6055 5.8125-5.8164 5.8125s-5.8164-2.6016-5.8164-5.8125c0-3.2109 2.6055-5.8125 5.8164-5.8125s5.8164 2.6016 5.8164 5.8125z" fill="#3eaf7c"/>
<path transform="matrix(2.0533 0 0 2.052 1.4949 .12263)" d="m43.599 71.646 22.283 13.017 22.285-16.155 22.283 1.7057 22.283 19.193 22.285-11.506 22.283 24.851 22.285-3.4951 22.283 6.3602 22.283 3.3866 22.298 7.1293" fill="none" stroke="#3eaf7c" stroke-width=".75"/>
<path d="m142.59 173.85c0 3.2109-2.6016 5.8125-5.8164 5.8125-3.2109 0-5.8164-2.6016-5.8164-5.8125 0-3.2109 2.6055-5.8125 5.8164-5.8125 3.2148 0 5.8164 2.6016 5.8164 5.8125z" fill="#3eaf7c"/>
<path d="m188.34 140.7c0 3.2109-2.6055 5.8125-5.8164 5.8125-3.2148 0-5.8164-2.6016-5.8164-5.8125 0-3.2109 2.6016-5.8125 5.8164-5.8125 3.2109 0 5.8164 2.6016 5.8164 5.8125z" fill="#3eaf7c"/>
<path d="m234.1 144.2c0 3.2109-2.6055 5.8125-5.8164 5.8125s-5.8164-2.6016-5.8164-5.8125c0-3.2109 2.6055-5.8125 5.8164-5.8125s5.8164 2.6016 5.8164 5.8125z" fill="#3eaf7c"/>
<path d="m279.85 183.58c0 3.2109-2.6016 5.8125-5.8164 5.8125-3.2109 0-5.8125-2.6016-5.8125-5.8125 0-3.2109 2.6016-5.8125 5.8125-5.8125 3.2148 0 5.8164 2.6016 5.8164 5.8125z" fill="#3eaf7c"/>
<path d="m325.61 159.97c0 3.2109-2.6055 5.8125-5.8164 5.8125-3.2109 0-5.8164-2.6016-5.8164-5.8125 0-3.2109 2.6055-5.8125 5.8164-5.8125 3.2109 0 5.8164 2.6016 5.8164 5.8125z" fill="#3eaf7c"/>
<path d="m371.36 210.96c0 3.2109-2.6016 5.8125-5.8164 5.8125-3.2109 0-5.8164-2.6016-5.8164-5.8125 0-3.2109 2.6055-5.8125 5.8164-5.8125 3.2148 0 5.8164 2.6016 5.8164 5.8125z" fill="#3eaf7c"/>
<path d="m417.12 203.79c0 3.207-2.6055 5.8086-5.8164 5.8086-3.2148 0-5.8164-2.6016-5.8164-5.8086 0-3.2109 2.6016-5.8125 5.8164-5.8125 3.2109 0 5.8164 2.6016 5.8164 5.8125z" fill="#3eaf7c"/>
<path d="m462.88 216.84c0 3.2109-2.6055 5.8125-5.8164 5.8125-3.2109 0-5.8164-2.6016-5.8164-5.8125s2.6055-5.8125 5.8164-5.8125c3.2109 0 5.8164 2.6016 5.8164 5.8125z" fill="#3eaf7c"/>
<path d="m508.63 223.79c0 3.2109-2.6016 5.8125-5.8164 5.8125-3.2109 0-5.8164-2.6016-5.8164-5.8125 0-3.2109 2.6055-5.8125 5.8164-5.8125 3.2148 0 5.8164 2.6016 5.8164 5.8125z" fill="#3eaf7c"/>
<path d="m554.39 238.41c0 3.2109-2.6055 5.8125-5.8164 5.8125-3.2148 0-5.8164-2.6016-5.8164-5.8125 0-3.2109 2.6016-5.8125 5.8164-5.8125 3.2109 0 5.8164 2.6016 5.8164 5.8125z" fill="#3eaf7c"/>
</svg>
