<?xml version="1.0" encoding="UTF-8"?>
<svg width="400px" height="332px" version="1.1" viewBox="0 0 400 332" xmlns="http://www.w3.org/2000/svg" xmlns:xlink="http://www.w3.org/1999/xlink">
<defs>
<symbol id="p" overflow="visible">
<path d="m3.9219-1.7031h7.0469v1.7031h-9.4688v-1.7031c0.76953-0.78906 1.8125-1.8516 3.125-3.1875 1.3203-1.3438 2.1562-2.207 2.5-2.5938 0.64453-0.72656 1.0938-1.3438 1.3438-1.8438 0.25781-0.5 0.39062-0.99219 0.39062-1.4844 0-0.78906-0.27734-1.4375-0.82812-1.9375-0.55469-0.5-1.2773-0.75-2.1719-0.75-0.63672 0-1.3086 0.10938-2.0156 0.32812-0.69922 0.21875-1.4492 0.55469-2.25 1v-2.0469c0.8125-0.32031 1.5703-0.56641 2.2812-0.73438 0.70703-0.16406 1.3516-0.25 1.9375-0.25 1.5508 0 2.7852 0.39062 3.7031 1.1719 0.91406 0.77344 1.375 1.8047 1.375 3.0938 0 0.61719-0.11719 1.1992-0.34375 1.75-0.23047 0.54297-0.64844 1.1875-1.25 1.9375-0.16797 0.1875-0.69922 0.74609-1.5938 1.6719-0.89844 0.92969-2.1562 2.2188-3.7812 3.875z"/>
</symbol>
<symbol id="o" overflow="visible">
<path d="m8.3125-8.0469c0.95703 0.21094 1.707 0.64062 2.25 1.2969 0.55078 0.64844 0.82812 1.4492 0.82812 2.4062 0 1.4805-0.51172 2.625-1.5312 3.4375-1.0117 0.80469-2.4492 1.2031-4.3125 1.2031-0.625 0-1.2734-0.0625-1.9375-0.1875-0.65625-0.125-1.3398-0.3125-2.0469-0.5625v-1.9531c0.5625 0.33594 1.1719 0.58594 1.8281 0.75 0.66406 0.16797 1.3633 0.25 2.0938 0.25 1.2695 0 2.2344-0.25 2.8906-0.75 0.66406-0.5 1-1.2266 1-2.1875 0-0.875-0.30859-1.5625-0.92188-2.0625-0.61719-0.5-1.4766-0.75-2.5781-0.75h-1.7344v-1.6562h1.8125c1 0 1.7578-0.19531 2.2812-0.59375 0.53125-0.39453 0.79688-0.96875 0.79688-1.7188 0-0.75781-0.27734-1.3438-0.82812-1.75-0.54297-0.41406-1.3203-0.625-2.3281-0.625-0.55469 0-1.1484 0.0625-1.7812 0.1875-0.63672 0.11719-1.3281 0.29688-2.0781 0.54688v-1.7969c0.75781-0.21875 1.4727-0.37891 2.1406-0.48438 0.67578-0.10156 1.3125-0.15625 1.9062-0.15625 1.5312 0 2.7383 0.35156 3.625 1.0469 0.89453 0.69922 1.3438 1.6406 1.3438 2.8281 0 0.82422-0.24219 1.5234-0.71875 2.0938-0.46875 0.57422-1.1367 0.96875-2 1.1875z"/>
</symbol>
<symbol id="c" overflow="visible">
<path d="m7.7344-13.172-5.0938 7.9688h5.0938zm-0.53125-1.7656h2.5469v9.7344h2.125v1.6875h-2.125v3.5156h-2.0156v-3.5156h-6.7344v-1.9531z"/>
</symbol>
<symbol id="f" overflow="visible">
<path d="m6.75-8.2656c-0.90625 0-1.625 0.3125-2.1562 0.9375-0.52344 0.61719-0.78125 1.4609-0.78125 2.5312 0 1.0742 0.25781 1.9219 0.78125 2.5469 0.53125 0.625 1.25 0.9375 2.1562 0.9375s1.625-0.3125 2.1562-0.9375 0.79688-1.4727 0.79688-2.5469c0-1.0703-0.26562-1.9141-0.79688-2.5312-0.53125-0.625-1.25-0.9375-2.1562-0.9375zm4.0156-6.3438v1.8438c-0.51172-0.23828-1.0273-0.42188-1.5469-0.54688-0.51172-0.125-1.0156-0.1875-1.5156-0.1875-1.3359 0-2.3555 0.45312-3.0625 1.3594-0.69922 0.89844-1.1016 2.25-1.2031 4.0625 0.39453-0.57031 0.89062-1.0156 1.4844-1.3281s1.2422-0.46875 1.9531-0.46875c1.5 0 2.6797 0.46094 3.5469 1.375 0.875 0.90625 1.3125 2.1406 1.3125 3.7031 0 1.543-0.45312 2.7773-1.3594 3.7031-0.90625 0.92969-2.1172 1.3906-3.625 1.3906-1.7188 0-3.0391-0.66016-3.9531-1.9844-0.91797-1.332-1.375-3.2539-1.375-5.7656 0-2.3633 0.55469-4.2422 1.6719-5.6406 1.125-1.4062 2.6289-2.1094 4.5156-2.1094 0.50781 0 1.0195 0.054687 1.5312 0.15625 0.51953 0.09375 1.0625 0.24219 1.625 0.4375z"/>
</symbol>
<symbol id="z" overflow="visible">
<path d="m1.6719-14.938h9.6094v0.85938l-5.4219 14.078h-2.1094l5.0938-13.234h-7.1719z"/>
</symbol>
<symbol id="y" overflow="visible">
<path d="m2.2031-14.938h7.9375v1.7031h-6.0781v3.6562c0.28906-0.09375 0.58203-0.16406 0.875-0.21875 0.28906-0.050781 0.58203-0.078125 0.875-0.078125 1.6641 0 2.9844 0.46094 3.9531 1.375 0.97656 0.91797 1.4688 2.1523 1.4688 3.7031 0 1.6172-0.5 2.8711-1.5 3.7656-1 0.88672-2.4141 1.3281-4.2344 1.3281-0.625 0-1.2617-0.058594-1.9062-0.17188-0.64844-0.10547-1.3203-0.25781-2.0156-0.46875v-2.0312c0.60156 0.32422 1.2227 0.57031 1.8594 0.73438 0.63281 0.15625 1.3125 0.23438 2.0312 0.23438 1.1562 0 2.0664-0.30078 2.7344-0.90625 0.67578-0.61328 1.0156-1.4414 1.0156-2.4844 0-1.0312-0.33984-1.8477-1.0156-2.4531-0.66797-0.61328-1.5781-0.92188-2.7344-0.92188-0.54297 0-1.0859 0.0625-1.625 0.1875-0.53125 0.11719-1.0781 0.29688-1.6406 0.54688z"/>
</symbol>
<symbol id="x" overflow="visible">
<path d="m1.4688-10.859h6.8594v1.2344h-5.3906v3.2188h5.1562v1.2344h-5.1562v3.9375h5.5156v1.2344h-6.9844z"/>
</symbol>
<symbol id="d" overflow="visible">
<path d="m6.7656-4.1719c0-0.96875-0.20312-1.7188-0.60938-2.25-0.39844-0.53906-0.95312-0.8125-1.6719-0.8125s-1.2812 0.27344-1.6875 0.8125c-0.39844 0.53125-0.59375 1.2812-0.59375 2.25s0.19531 1.7188 0.59375 2.25c0.40625 0.53125 0.96875 0.79688 1.6875 0.79688s1.2734-0.26562 1.6719-0.79688c0.40625-0.53125 0.60938-1.2812 0.60938-2.25zm1.3281 3.1562c0 1.3828-0.30859 2.4141-0.92188 3.0938-0.61719 0.67578-1.5586 1.0156-2.8281 1.0156-0.46875 0-0.91406-0.039062-1.3281-0.10938-0.41797-0.0625-0.82422-0.16797-1.2188-0.3125v-1.2969c0.39453 0.20703 0.78516 0.36328 1.1719 0.46875 0.38281 0.10156 0.77344 0.15625 1.1719 0.15625 0.875 0 1.5312-0.23047 1.9688-0.6875 0.4375-0.46094 0.65625-1.1523 0.65625-2.0781v-0.67188c-0.28125 0.48047-0.64062 0.83984-1.0781 1.0781-0.42969 0.24219-0.9375 0.35938-1.5312 0.35938-1 0-1.8086-0.37891-2.4219-1.1406-0.60547-0.75781-0.90625-1.7695-0.90625-3.0312 0-1.2578 0.30078-2.2695 0.90625-3.0312 0.61328-0.75781 1.4219-1.1406 2.4219-1.1406 0.59375 0 1.1016 0.12109 1.5312 0.35938 0.4375 0.23047 0.79688 0.58594 1.0781 1.0625v-1.2344h1.3281z"/>
</symbol>
<symbol id="g" overflow="visible"></symbol>
<symbol id="e" overflow="visible">
<path d="m7.2656-7.8438v1.25c-0.375-0.20703-0.75781-0.36328-1.1406-0.46875-0.375-0.10156-0.76172-0.15625-1.1562-0.15625-0.86719 0-1.5391 0.27734-2.0156 0.82812-0.48047 0.55469-0.71875 1.3281-0.71875 2.3281 0 0.99219 0.23828 1.7617 0.71875 2.3125 0.47656 0.55469 1.1484 0.82812 2.0156 0.82812 0.39453 0 0.78125-0.050781 1.1562-0.15625 0.38281-0.10156 0.76562-0.25781 1.1406-0.46875v1.2344c-0.375 0.17969-0.76562 0.30859-1.1719 0.39062-0.39844 0.09375-0.82031 0.14062-1.2656 0.14062-1.2305 0-2.2031-0.38281-2.9219-1.1562-0.71875-0.78125-1.0781-1.8203-1.0781-3.125 0-1.332 0.36328-2.3789 1.0938-3.1406 0.72656-0.75781 1.7266-1.1406 3-1.1406 0.40625 0 0.80469 0.042969 1.2031 0.125 0.39453 0.085938 0.77344 0.21094 1.1406 0.375z"/>
</symbol>
<symbol id="b" overflow="visible">
<path d="m8.375-4.4062v0.65625h-6.1562c0.0625 0.91797 0.33594 1.6211 0.82812 2.1094 0.5 0.48047 1.1914 0.71875 2.0781 0.71875 0.50781 0 1.0039-0.0625 1.4844-0.1875 0.48828-0.125 0.97266-0.31641 1.4531-0.57812v1.2656c-0.48047 0.21094-0.97656 0.36719-1.4844 0.46875-0.5 0.11328-1.0117 0.17188-1.5312 0.17188-1.3047 0-2.3359-0.37891-3.0938-1.1406-0.75-0.75781-1.125-1.7852-1.125-3.0781 0-1.332 0.35938-2.3906 1.0781-3.1719s1.6875-1.1719 2.9062-1.1719c1.0938 0 1.957 0.35547 2.5938 1.0625 0.64453 0.69922 0.96875 1.6562 0.96875 2.875zm-1.3438-0.39062c-0.011719-0.73828-0.21875-1.3281-0.625-1.7656-0.39844-0.4375-0.92188-0.65625-1.5781-0.65625-0.75 0-1.3516 0.21484-1.7969 0.64062-0.44922 0.41797-0.70312 1.0117-0.76562 1.7812z"/>
</symbol>
<symbol id="a" overflow="visible">
<path d="m1.4062-11.328h1.3281v11.328h-1.3281z"/>
</symbol>
<symbol id="i" overflow="visible">
<path d="m5.1094-4.0938c-1.0859 0-1.8359 0.125-2.25 0.375-0.41797 0.24219-0.625 0.66406-0.625 1.2656 0 0.46875 0.15625 0.84375 0.46875 1.125s0.73828 0.42188 1.2812 0.42188c0.73828 0 1.332-0.25781 1.7812-0.78125 0.44531-0.53125 0.67188-1.2344 0.67188-2.1094v-0.29688zm2.6562-0.5625v4.6562h-1.3281v-1.2344c-0.30469 0.49219-0.68359 0.85547-1.1406 1.0938-0.46094 0.23828-1.0156 0.35938-1.6719 0.35938-0.83594 0-1.5-0.23438-2-0.70312-0.49219-0.46875-0.73438-1.0977-0.73438-1.8906 0-0.91406 0.30469-1.6016 0.92188-2.0625 0.61328-0.46875 1.5312-0.70312 2.75-0.70312h1.875v-0.14062c0-0.61328-0.20312-1.0859-0.60938-1.4219-0.40625-0.34375-0.97656-0.51562-1.7031-0.51562-0.46875 0-0.92969 0.058594-1.375 0.17188-0.4375 0.11719-0.85938 0.28125-1.2656 0.5v-1.2344c0.48828-0.1875 0.96094-0.32812 1.4219-0.42188 0.46875-0.09375 0.92188-0.14062 1.3594-0.14062 1.1758 0 2.0508 0.30859 2.625 0.92188 0.58203 0.60547 0.875 1.5273 0.875 2.7656z"/>
</symbol>
<symbol id="q" overflow="visible">
<path d="m8.1719-4.9219v4.9219h-1.3438v-4.875c0-0.76953-0.15234-1.3477-0.45312-1.7344-0.29297-0.38281-0.74219-0.57812-1.3438-0.57812-0.71875 0-1.2891 0.23438-1.7031 0.70312-0.41797 0.46094-0.625 1.0859-0.625 1.875v4.6094h-1.3438v-8.1562h1.3438v1.2656c0.3125-0.48828 0.6875-0.85156 1.125-1.0938 0.4375-0.23828 0.9375-0.35938 1.5-0.35938 0.9375 0 1.6445 0.29297 2.125 0.875 0.47656 0.57422 0.71875 1.4219 0.71875 2.5469z"/>
</symbol>
<symbol id="l" overflow="visible">
<path d="m6.7656-6.9219v-4.4062h1.3281v11.328h-1.3281v-1.2188c-0.28125 0.48047-0.64062 0.83984-1.0781 1.0781-0.42969 0.23828-0.9375 0.35938-1.5312 0.35938-0.99219 0-1.793-0.39062-2.4062-1.1719-0.61719-0.78906-0.92188-1.8281-0.92188-3.1094s0.30469-2.3125 0.92188-3.0938c0.61328-0.78906 1.4141-1.1875 2.4062-1.1875 0.59375 0 1.1016 0.12109 1.5312 0.35938 0.4375 0.23047 0.79688 0.58594 1.0781 1.0625zm-4.5625 2.8594c0 0.98047 0.20312 1.75 0.60938 2.3125s0.96094 0.84375 1.6719 0.84375c0.70703 0 1.2656-0.28125 1.6719-0.84375s0.60938-1.332 0.60938-2.3125c0-0.98828-0.20312-1.7656-0.60938-2.3281s-0.96484-0.84375-1.6719-0.84375c-0.71094 0-1.2656 0.28125-1.6719 0.84375s-0.60938 1.3398-0.60938 2.3281z"/>
</symbol>
<symbol id="k" overflow="visible">
<path d="m6.5938-7.9062v1.2656c-0.375-0.19531-0.76562-0.34375-1.1719-0.4375-0.40625-0.10156-0.82812-0.15625-1.2656-0.15625-0.66797 0-1.168 0.10547-1.5 0.3125-0.33594 0.21094-0.5 0.51562-0.5 0.92188 0 0.3125 0.11719 0.55859 0.35938 0.73438 0.23828 0.17969 0.71875 0.34375 1.4375 0.5l0.45312 0.09375c0.94531 0.21094 1.6172 0.5 2.0156 0.875 0.40625 0.36719 0.60938 0.88281 0.60938 1.5469 0 0.76172-0.30469 1.3672-0.90625 1.8125-0.59375 0.4375-1.4141 0.65625-2.4531 0.65625-0.4375 0-0.89844-0.046875-1.375-0.14062-0.46875-0.082031-0.96484-0.20703-1.4844-0.375v-1.3906c0.48828 0.26172 0.97266 0.46094 1.4531 0.59375 0.47656 0.125 0.95312 0.1875 1.4219 0.1875 0.63281 0 1.1172-0.10938 1.4531-0.32812 0.34375-0.21875 0.51562-0.51953 0.51562-0.90625 0-0.36328-0.125-0.64453-0.375-0.84375-0.24219-0.19531-0.77734-0.38281-1.6094-0.5625l-0.45312-0.10938c-0.83594-0.17578-1.4375-0.44141-1.8125-0.79688-0.36719-0.36328-0.54688-0.86328-0.54688-1.5 0-0.75781 0.26953-1.3477 0.8125-1.7656 0.55078-0.41406 1.3203-0.625 2.3125-0.625 0.5 0 0.96875 0.039062 1.4062 0.10938 0.4375 0.074219 0.83594 0.18359 1.2031 0.32812z"/>
</symbol>
<symbol id="w" overflow="visible">
<path d="m2.7031-1.2188v4.3125h-1.3438v-11.25h1.3438v1.2344c0.28125-0.47656 0.63281-0.83203 1.0625-1.0625 0.42578-0.23828 0.9375-0.35938 1.5312-0.35938 0.98828 0 1.7891 0.39844 2.4062 1.1875 0.625 0.78125 0.9375 1.8125 0.9375 3.0938s-0.3125 2.3203-0.9375 3.1094c-0.61719 0.78125-1.418 1.1719-2.4062 1.1719-0.59375 0-1.1055-0.12109-1.5312-0.35938-0.42969-0.23828-0.78125-0.59766-1.0625-1.0781zm4.5469-2.8438c0-0.98828-0.20312-1.7656-0.60938-2.3281s-0.96484-0.84375-1.6719-0.84375c-0.71094 0-1.2656 0.28125-1.6719 0.84375-0.39844 0.5625-0.59375 1.3398-0.59375 2.3281 0 0.98047 0.19531 1.75 0.59375 2.3125 0.40625 0.5625 0.96094 0.84375 1.6719 0.84375 0.70703 0 1.2656-0.28125 1.6719-0.84375s0.60938-1.332 0.60938-2.3125z"/>
</symbol>
<symbol id="n" overflow="visible">
<path d="m6.125-6.9062c-0.15625-0.082031-0.32422-0.14453-0.5-0.1875-0.17969-0.039062-0.37109-0.0625-0.57812-0.0625-0.76172 0-1.3438 0.25-1.75 0.75-0.39844 0.49219-0.59375 1.1953-0.59375 2.1094v4.2969h-1.3438v-8.1562h1.3438v1.2656c0.28125-0.48828 0.64453-0.85156 1.0938-1.0938 0.44531-0.23828 0.99219-0.35938 1.6406-0.35938 0.09375 0 0.19141 0.007812 0.29688 0.015625 0.11328 0.011719 0.23828 0.027344 0.375 0.046875z"/>
</symbol>
<symbol id="v" overflow="visible">
<path d="m7.75-6.5938c0.33203-0.59375 0.72656-1.0312 1.1875-1.3125 0.46875-0.28906 1.0195-0.4375 1.6562-0.4375 0.84375 0 1.4922 0.29688 1.9531 0.89062 0.45703 0.59375 0.6875 1.4375 0.6875 2.5312v4.9219h-1.3438v-4.875c0-0.78125-0.14062-1.3594-0.42188-1.7344-0.27344-0.38281-0.6875-0.57812-1.25-0.57812-0.69922 0-1.25 0.23438-1.6562 0.70312-0.39844 0.46094-0.59375 1.0859-0.59375 1.875v4.6094h-1.3438v-4.875c0-0.78906-0.14062-1.375-0.42188-1.75-0.27344-0.375-0.69922-0.5625-1.2812-0.5625-0.67969 0-1.2188 0.23438-1.625 0.70312-0.39844 0.46094-0.59375 1.0859-0.59375 1.875v4.6094h-1.3438v-8.1562h1.3438v1.2656c0.30078-0.5 0.66406-0.86328 1.0938-1.0938 0.42578-0.23828 0.92969-0.35938 1.5156-0.35938 0.59375 0 1.0977 0.15234 1.5156 0.45312 0.41406 0.29297 0.72266 0.72656 0.92188 1.2969z"/>
</symbol>
<symbol id="u" overflow="visible">
<path d="m5.5312-11.328v1.1094h-1.2812c-0.48047 0-0.8125 0.10156-1 0.29688-0.1875 0.19922-0.28125 0.54688-0.28125 1.0469v0.71875h2.2031v1.0469h-2.2031v7.1094h-1.3438v-7.1094h-1.2812v-1.0469h1.2812v-0.5625c0-0.90625 0.20703-1.5664 0.625-1.9844 0.42578-0.41406 1.0977-0.625 2.0156-0.625z"/>
</symbol>
<symbol id="j" overflow="visible">
<path d="m2.7188-10.469v2.3125h2.7656v1.0469h-2.7656v4.4219c0 0.66797 0.085938 1.0938 0.26562 1.2812 0.1875 0.1875 0.5625 0.28125 1.125 0.28125h1.375v1.125h-1.375c-1.0312 0-1.7461-0.19141-2.1406-0.57812-0.39844-0.38281-0.59375-1.0859-0.59375-2.1094v-4.4219h-0.96875v-1.0469h0.96875v-2.3125z"/>
</symbol>
<symbol id="m" overflow="visible">
<path d="m1.4062-8.1562h1.3281v8.1562h-1.3281zm0-3.1719h1.3281v1.7031h-1.3281z"/>
</symbol>
<symbol id="t" overflow="visible">
<path d="m0.82812-8.1562h6.3438v1.2344l-5.0312 5.8594h5.0312v1.0625h-6.5312v-1.2188l5.0312-5.8594h-4.8438z"/>
</symbol>
<symbol id="s" overflow="visible">
<path d="m2.8594-1.2344h5.125v1.2344h-6.8906v-1.2344c0.55078-0.58203 1.3047-1.3594 2.2656-2.3281 0.96875-0.96875 1.5781-1.5938 1.8281-1.875 0.46875-0.53125 0.79688-0.97656 0.98438-1.3438 0.1875-0.375 0.28125-0.73828 0.28125-1.0938 0-0.57031-0.20312-1.0391-0.60938-1.4062-0.40625-0.36328-0.93359-0.54688-1.5781-0.54688-0.46875 0-0.96094 0.085937-1.4688 0.25-0.51172 0.15625-1.0586 0.39844-1.6406 0.71875v-1.4844c0.59375-0.23828 1.1445-0.41406 1.6562-0.53125 0.51953-0.125 0.99219-0.1875 1.4219-0.1875 1.125 0 2.0195 0.28125 2.6875 0.84375 0.66406 0.5625 1 1.3125 1 2.25 0 0.44922-0.085937 0.875-0.25 1.2812-0.16797 0.39844-0.46875 0.86719-0.90625 1.4062-0.125 0.14844-0.51562 0.55859-1.1719 1.2344-0.64844 0.66797-1.5586 1.6055-2.7344 2.8125z"/>
</symbol>
<symbol id="h" overflow="visible">
<path d="m0.73438-4.6875h3.9062v1.2031h-3.9062z"/>
</symbol>
<symbol id="r" overflow="visible">
<path d="m5.625-9.5781-3.7031 5.7969h3.7031zm-0.375-1.2812h1.8438v7.0781h1.5469v1.2188h-1.5469v2.5625h-1.4688v-2.5625h-4.8906v-1.4219z"/>
</symbol>
</defs>
<path transform="matrix(1.8606 0 0 1.8629 9.4624 13.079)" d="m34.806 50.292c0 6.6262-5.3725 11.999-12 11.999-6.628 0-12-5.3723-12-11.999 0-6.6283 5.3725-12.001 12-12.001 6.628 0 12 5.3723 12 12.001z" fill="#39a675" stroke="#000"/>
<path transform="matrix(1.8606 0 0 1.8629 9.4624 13.079)" d="m34.806 90.104c0 6.6262-5.3725 11.999-12 11.999-6.628 0-12-5.3723-12-11.999 0-6.6283 5.3725-12.001 12-12.001 6.628 0 12 5.3723 12 12.001z" fill="#39a675" stroke="#000"/>
<path transform="matrix(1.8606 0 0 1.8629 9.4624 13.079)" d="m89.982 70.198c0 6.6262-5.3725 11.999-11.998 11.999-6.628 0-12-5.3723-12-11.999 0-6.6283 5.3725-12.001 12-12.001 6.6259 0 11.998 5.3723 11.998 12.001z" fill="#39a675" stroke="#000"/>
<path transform="matrix(1.8606 0 0 1.8629 9.4624 13.079)" d="m145.29 30.52c0 6.6283-5.3725 12.001-12 12.001-6.628 0-12-5.3723-12-12.001s5.3725-12.001 12-12.001c6.628 0 12 5.3723 12 12.001z" fill="#39a675" stroke="#000"/>
<path transform="matrix(1.8606 0 0 1.8629 9.4624 13.079)" d="m145.29 109.87c0 6.6283-5.3725 12.001-12 12.001-6.628 0-12-5.3723-12-12.001 0-6.6262 5.3725-11.999 12-11.999 6.628 0 12 5.3723 12 11.999z" fill="#39a675" stroke="#000"/>
<path transform="matrix(1.8606 0 0 1.8629 9.4624 13.079)" d="m200.78 129.92c0 6.6262-5.3725 11.999-12 11.999-6.628 0-12-5.3723-12-11.999 0-6.6283 5.3725-12.001 12-12.001 6.628 0 12 5.3723 12 12.001z" fill="#fff" stroke="#000"/>
<path transform="matrix(1.8606 0 0 1.8629 9.4624 13.079)" d="m200.78 90.104c0 6.6262-5.3725 11.999-12 11.999-6.628 0-12-5.3723-12-11.999 0-6.6283 5.3725-12.001 12-12.001 6.628 0 12 5.3723 12 12.001z" fill="#206043" stroke="#000"/>
<path transform="matrix(1.8606 0 0 1.8629 9.4624 13.079)" d="m200.78 50.292c0 6.6262-5.3725 11.999-12 11.999-6.628 0-12-5.3723-12-11.999 0-6.6283 5.3725-12.001 12-12.001 6.628 0 12 5.3723 12 12.001z" fill="#39a675" stroke="#000"/>
<path transform="matrix(1.8606 0 0 1.8629 9.4624 13.079)" d="m200.78 10.48c0 6.6262-5.3725 11.999-12 11.999-6.628 0-12-5.3723-12-11.999 0-6.6283 5.3725-12.001 12-12.001 6.628 0 12 5.3723 12 12.001z" fill="#39a675" stroke="#000"/>
<g fill="#fff">
<use x="38.941406" y="114.222816" xlink:href="#p"/>
<use x="51.965632" y="114.222816" xlink:href="#o"/>
</g>
<g fill="#fff">
<use x="38.941406" y="188.386878" xlink:href="#p"/>
<use x="51.965632" y="188.386878" xlink:href="#o"/>
</g>
<g fill="#fff">
<use x="244.578125" y="77.390785" xlink:href="#c"/>
<use x="257.60235" y="77.390785" xlink:href="#f"/>
</g>
<g fill="#fff">
<use x="347.824219" y="40.058753" xlink:href="#c"/>
<use x="360.848444" y="40.058753" xlink:href="#f"/>
</g>
<g fill="#fff">
<use x="347.824219" y="114.222816" xlink:href="#c"/>
<use x="360.848444" y="114.222816" xlink:href="#f"/>
</g>
<g fill="#fff">
<use x="348.050781" y="188.398597" xlink:href="#c"/>
<use x="361.075007" y="188.398597" xlink:href="#z"/>
</g>
<g>
<use x="348.070312" y="262.418128" xlink:href="#c"/>
<use x="361.094538" y="262.418128" xlink:href="#y"/>
</g>
<g fill="#fff">
<use x="244.578125" y="225.21891" xlink:href="#c"/>
<use x="257.60235" y="225.21891" xlink:href="#f"/>
</g>
<g fill="#fff">
<use x="141.679688" y="151.304847" xlink:href="#c"/>
<use x="154.703913" y="151.304847" xlink:href="#f"/>
</g>
<g>
<use x="6.253906" y="301.391758" xlink:href="#x"/>
<use x="15.556924" y="301.391758" xlink:href="#d"/>
<use x="24.859943" y="301.391758" xlink:href="#d"/>
<use x="34.162961" y="301.391758" xlink:href="#g"/>
<use x="39.744772" y="301.391758" xlink:href="#e"/>
<use x="47.187186" y="301.391758" xlink:href="#b"/>
<use x="56.490204" y="301.391758" xlink:href="#a"/>
<use x="60.211412" y="301.391758" xlink:href="#a"/>
<use x="63.932619" y="301.391758" xlink:href="#g"/>
<use x="69.51443" y="301.391758" xlink:href="#i"/>
<use x="78.817448" y="301.391758" xlink:href="#q"/>
<use x="88.120466" y="301.391758" xlink:href="#l"/>
</g>
<g>
<use x="13.699219" y="320.020664" xlink:href="#k"/>
<use x="21.141633" y="320.020664" xlink:href="#w"/>
<use x="30.444651" y="320.020664" xlink:href="#b"/>
<use x="39.74767" y="320.020664" xlink:href="#n"/>
<use x="45.32948" y="320.020664" xlink:href="#v"/>
<use x="60.214309" y="320.020664" xlink:href="#g"/>
<use x="65.79612" y="320.020664" xlink:href="#e"/>
<use x="73.238535" y="320.020664" xlink:href="#b"/>
<use x="82.541553" y="320.020664" xlink:href="#a"/>
<use x="86.26276" y="320.020664" xlink:href="#a"/>
</g>
<g>
<use x="123.433594" y="301.391758" xlink:href="#u"/>
<use x="129.015405" y="301.391758" xlink:href="#b"/>
<use x="138.318423" y="301.391758" xlink:href="#n"/>
<use x="143.900234" y="301.391758" xlink:href="#j"/>
<use x="149.482045" y="301.391758" xlink:href="#m"/>
<use x="153.203252" y="301.391758" xlink:href="#a"/>
<use x="156.924459" y="301.391758" xlink:href="#m"/>
<use x="160.645666" y="301.391758" xlink:href="#t"/>
<use x="168.088081" y="301.391758" xlink:href="#b"/>
<use x="177.391099" y="301.391758" xlink:href="#l"/>
</g>
<g>
<use x="126.222656" y="320.020664" xlink:href="#b"/>
<use x="135.525674" y="320.020664" xlink:href="#d"/>
<use x="144.828693" y="320.020664" xlink:href="#d"/>
<use x="154.131711" y="320.020664" xlink:href="#g"/>
<use x="159.713522" y="320.020664" xlink:href="#e"/>
<use x="167.155936" y="320.020664" xlink:href="#b"/>
<use x="176.458954" y="320.020664" xlink:href="#a"/>
<use x="180.180162" y="320.020664" xlink:href="#a"/>
</g>
<g>
<use x="234.945312" y="301.391758" xlink:href="#s"/>
<use x="244.248331" y="301.391758" xlink:href="#h"/>
<use x="249.830142" y="301.391758" xlink:href="#e"/>
<use x="257.272556" y="301.391758" xlink:href="#b"/>
<use x="266.575574" y="301.391758" xlink:href="#a"/>
<use x="270.296781" y="301.391758" xlink:href="#a"/>
<use x="274.017989" y="301.391758" xlink:href="#h"/>
</g>
<g>
<use x="236.804688" y="320.020664" xlink:href="#k"/>
<use x="244.247102" y="320.020664" xlink:href="#j"/>
<use x="249.828913" y="320.020664" xlink:href="#i"/>
<use x="259.131931" y="320.020664" xlink:href="#d"/>
<use x="268.434949" y="320.020664" xlink:href="#b"/>
</g>
<g>
<use x="338.371094" y="301.391758" xlink:href="#r"/>
<use x="347.674112" y="301.391758" xlink:href="#h"/>
<use x="353.255923" y="301.391758" xlink:href="#e"/>
<use x="360.698337" y="301.391758" xlink:href="#b"/>
<use x="370.001355" y="301.391758" xlink:href="#a"/>
<use x="373.722563" y="301.391758" xlink:href="#a"/>
<use x="377.44377" y="301.391758" xlink:href="#h"/>
</g>
<g>
<use x="340.230469" y="320.020664" xlink:href="#k"/>
<use x="347.672883" y="320.020664" xlink:href="#j"/>
<use x="353.254694" y="320.020664" xlink:href="#i"/>
<use x="362.557712" y="320.020664" xlink:href="#d"/>
<use x="371.86073" y="320.020664" xlink:href="#b"/>
</g>
<path transform="matrix(1.8606 0 0 1.8629 9.4624 13.079)" d="m34.183 54.106 34.034 9.1195" fill="none" stroke="#000"/>
<path d="m129.2 128.93-4.5547 2.6328 13.543-0.22266-11.617-6.9727z" fill-rule="evenodd"/>
<path transform="matrix(1.8606 0 0 1.8629 9.4624 13.079)" d="m34.51 87.454 34.532-9.2537" fill="none" stroke="#000"/>
<path d="m130.73 160.68-2.6289 4.5625 11.617-6.9727-13.543-0.22266z" fill-rule="evenodd"/>
<path transform="matrix(1.8606 0 0 1.8629 9.4624 13.079)" d="m87.731 63.199 33.589-33.59" fill="none" stroke="#000"/>
<path d="m229.93 73.504v5.2695l6.5781-11.855-11.84 6.5859z" fill-rule="evenodd"/>
<path transform="matrix(1.8606 0 0 1.8629 9.4624 13.079)" d="m86.837 78.296 34.924 34.924" fill="none" stroke="#000"/>
<path d="m230.75 218.72h-5.2617l11.84 6.5859-6.5781-11.855z" fill-rule="evenodd"/>
<path transform="matrix(1.8606 0 0 1.8629 9.4624 13.079)" d="m144.49 105.58 34.097-9.1363" fill="none" stroke="#000"/>
<path d="m334.56 194.67-2.6328 4.5625 11.617-6.9727-13.543-0.22266z" fill-rule="evenodd"/>
<path transform="matrix(1.8606 0 0 1.8629 9.4624 13.079)" d="m144.17 114.92 34.127 9.1446" fill="none" stroke="#000"/>
<path d="m334.02 242.27-4.5586 2.6367 13.543-0.22656-11.617-6.9727z" fill-rule="evenodd"/>
<path transform="matrix(1.8606 0 0 1.8629 9.4624 13.079)" d="m144.21 35.477 34.003 9.1111" fill="none" stroke="#000"/>
<path d="m333.87 94.211-4.5586 2.6328 13.543-0.22266-11.617-6.9727z" fill-rule="evenodd"/>
<path transform="matrix(1.8606 0 0 1.8629 9.4624 13.079)" d="m144.22 25.576 34.135-9.1467" fill="none" stroke="#000"/>
<path d="m334.12 45.609-2.6328 4.5664 11.617-6.9766-13.543-0.22266z" fill-rule="evenodd"/>
</svg>
