<?xml version="1.0" encoding="UTF-8"?>
<svg width="600px" height="587px" version="1.1" viewBox="0 0 600 587" xmlns="http://www.w3.org/2000/svg" xmlns:xlink="http://www.w3.org/1999/xlink">
<defs>
<symbol id="am" overflow="visible">
<path d="m15.438-3.8438h-8.5l-1.3281 3.8438h-5.4688l7.8125-21.062h6.4688l7.8125 21.062h-5.4688zm-7.1406-3.9062h5.7812l-2.8906-8.375z"/>
</symbol>
<symbol id="ak" overflow="visible">
<path d="m13.188-2.6875c-0.69922 0.92969-1.4688 1.6094-2.3125 2.0469-0.83594 0.42969-1.8047 0.64062-2.9062 0.64062-1.9297 0-3.5234-0.75781-4.7812-2.2812-1.2617-1.5195-1.8906-3.4531-1.8906-5.7969 0-2.3633 0.62891-4.3008 1.8906-5.8125 1.2578-1.5078 2.8516-2.2656 4.7812-2.2656 1.1016 0 2.0703 0.21875 2.9062 0.65625 0.84375 0.42969 1.6133 1.1094 2.3125 2.0469v-2.3438h5.0781v14.203c0 2.5391-0.80469 4.4766-2.4062 5.8125-1.6055 1.3438-3.9336 2.0156-6.9844 2.0156-0.99219 0-1.9492-0.078125-2.875-0.23438-0.91797-0.14844-1.8398-0.375-2.7656-0.6875v-3.9375c0.88281 0.50781 1.75 0.89062 2.5938 1.1406s1.6953 0.375 2.5625 0.375c1.6562 0 2.8672-0.36719 3.6406-1.0938 0.76953-0.71875 1.1562-1.8477 1.1562-3.3906zm-3.3281-9.8281c-1.0547 0-1.8711 0.38672-2.4531 1.1562-0.58594 0.77344-0.875 1.8672-0.875 3.2812 0 1.4492 0.28125 2.5469 0.84375 3.2969 0.57031 0.74219 1.3984 1.1094 2.4844 1.1094 1.0508 0 1.8672-0.38281 2.4531-1.1562 0.58203-0.76953 0.875-1.8516 0.875-3.25 0-1.4141-0.29297-2.5078-0.875-3.2812-0.58594-0.76953-1.4023-1.1562-2.4531-1.1562z"/>
</symbol>
<symbol id="q" overflow="visible">
<path d="m18.203-7.9375v1.4375h-11.812c0.125 1.1875 0.55078 2.0781 1.2812 2.6719 0.73828 0.58594 1.7656 0.875 3.0781 0.875 1.0625 0 2.1484-0.15625 3.2656-0.46875 1.1133-0.3125 2.2578-0.78906 3.4375-1.4375v3.9062c-1.1875 0.44922-2.3828 0.78906-3.5781 1.0156-1.1992 0.22656-2.3906 0.34375-3.5781 0.34375-2.8672 0-5.0938-0.72266-6.6875-2.1719-1.5859-1.457-2.375-3.5-2.375-6.125 0-2.5703 0.77344-4.5977 2.3281-6.0781 1.5625-1.4766 3.707-2.2188 6.4375-2.2188 2.4883 0 4.4766 0.75 5.9688 2.25 1.4883 1.5 2.2344 3.5 2.2344 6zm-5.1875-1.6875c0-0.95703-0.28125-1.7266-0.84375-2.3125-0.5625-0.59375-1.293-0.89062-2.1875-0.89062-0.98047 0-1.7773 0.27734-2.3906 0.82812-0.61719 0.55469-0.99609 1.3438-1.1406 2.375z"/>
</symbol>
<symbol id="p" overflow="visible"></symbol>
<symbol id="aj" overflow="visible">
<path d="m2.4219-15.797h5.0625v15.797h-5.0625zm0-6.1562h5.0625v4.125h-5.0625z"/>
</symbol>
<symbol id="ai" overflow="visible">
<path d="m18.328-9.625v9.625h-5.0938v-7.3594c0-1.3633-0.03125-2.3047-0.09375-2.8281-0.054687-0.51953-0.15625-0.89844-0.3125-1.1406-0.19922-0.33203-0.46875-0.58594-0.8125-0.76562-0.33594-0.1875-0.71484-0.28125-1.1406-0.28125-1.0625 0-1.8984 0.40625-2.5 1.2188-0.59375 0.8125-0.89062 1.9453-0.89062 3.3906v7.7656h-5.0625v-15.797h5.0625v2.3125c0.75781-0.92578 1.5664-1.6094 2.4219-2.0469 0.85156-0.4375 1.8008-0.65625 2.8438-0.65625 1.8203 0 3.207 0.5625 4.1562 1.6875 0.94531 1.1172 1.4219 2.7422 1.4219 4.875z"/>
</symbol>
<symbol id="ah" overflow="visible">
<path d="m0.35938-15.797h5.0469l4.25 10.719 3.6094-10.719h5.0625l-6.6562 17.297c-0.66797 1.7578-1.4492 2.9883-2.3438 3.6875-0.88672 0.69531-2.0586 1.0469-3.5156 1.0469h-2.9219v-3.3125h1.5781c0.86328 0 1.4883-0.13672 1.875-0.40625 0.39453-0.27344 0.69531-0.76172 0.90625-1.4688l0.14062-0.4375z"/>
</symbol>
<symbol id="ag" overflow="visible">
<path d="m9.5156-7.1094c-1.0547 0-1.8438 0.18359-2.375 0.54688-0.53125 0.35547-0.79688 0.875-0.79688 1.5625 0 0.64844 0.21094 1.1523 0.64062 1.5156 0.42578 0.35547 1.0195 0.53125 1.7812 0.53125 0.94531 0 1.7422-0.33594 2.3906-1.0156 0.65625-0.6875 0.98438-1.5391 0.98438-2.5625v-0.57812zm7.7188-1.9062v9.0156h-5.0938v-2.3438c-0.67969 0.96094-1.4453 1.6562-2.2969 2.0938-0.84375 0.4375-1.8711 0.65625-3.0781 0.65625-1.6367 0-2.9688-0.47266-4-1.4219-1.0234-0.95703-1.5312-2.1953-1.5312-3.7188 0-1.8516 0.63281-3.2109 1.9062-4.0781 1.2812-0.86328 3.2852-1.2969 6.0156-1.2969h2.9844v-0.40625c0-0.78906-0.32031-1.375-0.95312-1.75-0.625-0.375-1.6055-0.5625-2.9375-0.5625-1.0859 0-2.0938 0.10938-3.0312 0.32812-0.92969 0.21875-1.793 0.54297-2.5938 0.96875v-3.8438c1.082-0.25781 2.1641-0.45703 3.25-0.59375 1.0938-0.14453 2.1875-0.21875 3.2812-0.21875 2.8516 0 4.9102 0.5625 6.1719 1.6875 1.2695 1.125 1.9062 2.9531 1.9062 5.4844z"/>
</symbol>
<symbol id="af" overflow="visible">
<path d="m14.172-11.5c-0.44922-0.20703-0.89062-0.35938-1.3281-0.45312-0.4375-0.10156-0.875-0.15625-1.3125-0.15625-1.3047 0-2.3047 0.41797-3 1.25-0.69922 0.83594-1.0469 2.0273-1.0469 3.5781v7.2812h-5.0625v-15.797h5.0625v2.5938c0.64453-1.0312 1.3906-1.7852 2.2344-2.2656 0.84375-0.47656 1.8516-0.71875 3.0312-0.71875 0.16406 0 0.34766 0.011719 0.54688 0.03125 0.19531 0.011719 0.48438 0.042969 0.85938 0.09375z"/>
</symbol>
<symbol id="al" overflow="visible">
<path d="m14.781-15.312v3.8438c-1.0859-0.44531-2.1328-0.78516-3.1406-1.0156-1-0.22656-1.9492-0.34375-2.8438-0.34375-0.96094 0-1.6719 0.12109-2.1406 0.35938-0.46875 0.24219-0.70312 0.60938-0.70312 1.1094 0 0.40625 0.17578 0.71875 0.53125 0.9375 0.35156 0.21875 0.98828 0.38281 1.9062 0.48438l0.875 0.125c2.5938 0.32422 4.3359 0.86719 5.2344 1.625 0.89453 0.75 1.3438 1.9297 1.3438 3.5312 0 1.6875-0.625 2.9531-1.875 3.7969-1.2422 0.84375-3.0938 1.2656-5.5625 1.2656-1.043 0-2.1211-0.085938-3.2344-0.25-1.1172-0.15625-2.2617-0.39844-3.4375-0.73438v-3.8438c1.0078 0.49219 2.0391 0.85938 3.0938 1.1094 1.0625 0.24219 2.1406 0.35938 3.2344 0.35938 0.98828 0 1.7266-0.13281 2.2188-0.40625 0.5-0.26953 0.75-0.67578 0.75-1.2188 0-0.44531-0.17188-0.78125-0.51562-1s-1.0273-0.39062-2.0469-0.51562l-0.89062-0.10938c-2.25-0.28125-3.8281-0.80078-4.7344-1.5625-0.89844-0.76953-1.3438-1.9297-1.3438-3.4844 0-1.6641 0.57031-2.9062 1.7188-3.7188 1.1445-0.8125 2.9062-1.2188 5.2812-1.2188 0.92578 0 1.8984 0.074219 2.9219 0.21875 1.0312 0.14844 2.1484 0.36719 3.3594 0.65625z"/>
</symbol>
<symbol id="ae" overflow="visible">
<path d="m-15.328-1.9219v-5.0312l8.2031-3.5-8.2031-3.5v-5.0156h15.328v3.7344h-11.219l8.2656 3.5312v2.5l-8.2656 3.5312h11.219v3.75z"/>
</symbol>
<symbol id="i" overflow="visible">
<path d="m-5.1719-6.9219c0 0.77344 0.13281 1.3516 0.39062 1.7344 0.26172 0.38672 0.64062 0.57812 1.1406 0.57812 0.46875 0 0.83984-0.15625 1.1094-0.46875 0.26172-0.3125 0.39062-0.74219 0.39062-1.2969 0-0.6875-0.25-1.2656-0.75-1.7344-0.5-0.47656-1.1172-0.71875-1.8594-0.71875h-0.42188zm-1.3906-5.6094h6.5625v3.7031h-1.7031c0.69922 0.49219 1.2109 1.0469 1.5312 1.6719 0.3125 0.61719 0.46875 1.3594 0.46875 2.2344 0 1.1992-0.34375 2.168-1.0312 2.9062-0.69531 0.74219-1.6016 1.1094-2.7188 1.1094-1.3438 0-2.3281-0.46094-2.9531-1.3906-0.63281-0.92578-0.95312-2.3789-0.95312-4.3594v-2.1719h-0.29688c-0.57031 0-0.99219 0.23047-1.2656 0.6875-0.26953 0.46094-0.40625 1.1719-0.40625 2.1406 0 0.79297 0.078125 1.5273 0.23438 2.2031 0.15625 0.67969 0.39062 1.3086 0.70312 1.8906h-2.7969c-0.19531-0.78906-0.34375-1.582-0.4375-2.375-0.10156-0.78906-0.15625-1.582-0.15625-2.375 0-2.0703 0.41406-3.5664 1.2344-4.4844 0.8125-0.92578 2.1406-1.3906 3.9844-1.3906z"/>
</symbol>
<symbol id="y" overflow="visible">
<path d="m-5.8906-4.6719-5.6094 4.1562v-3.8906l3.4062-2.3594-3.4062-2.375v-3.8906l5.5938 4.1406 5.9062-4.3438v3.8906l-3.6406 2.5781 3.6406 2.5625v3.8906z"/>
</symbol>
<symbol id="m" overflow="visible">
<path d="m-11.5-1.7656v-3.6719h11.5v3.6719zm-4.4844 0v-3.6719h3v3.6719z"/>
</symbol>
<symbol id="d" overflow="visible">
<path d="m-9.5938-12.422c-0.70703-0.45703-1.25-1.0039-1.625-1.6406-0.375-0.64453-0.5625-1.3516-0.5625-2.125 0-1.3125 0.41406-2.3125 1.2344-3 0.8125-0.69531 1.9961-1.0469 3.5469-1.0469h7v3.6875h-6-0.26562c-0.10156-0.007813-0.24219-0.015625-0.42188-0.015625-0.8125 0-1.3984 0.12109-1.7656 0.35938-0.36328 0.24219-0.54688 0.625-0.54688 1.1562 0 0.69922 0.28906 1.2422 0.85938 1.625 0.57422 0.375 1.4062 0.57031 2.5 0.57812h5.6406v3.7031h-6c-1.2695 0-2.0859 0.10938-2.4531 0.32812-0.36328 0.21875-0.54688 0.60938-0.54688 1.1719 0 0.69922 0.29297 1.2422 0.875 1.625 0.57422 0.38672 1.3984 0.57812 2.4688 0.57812h5.6562v3.6875h-11.5v-3.6875h1.6875c-0.65625-0.44531-1.1445-0.96094-1.4688-1.5469-0.33203-0.59375-0.5-1.2383-0.5-1.9375 0-0.80078 0.19531-1.5039 0.57812-2.1094 0.38672-0.60156 0.92188-1.0664 1.6094-1.3906z"/>
</symbol>
<symbol id="l" overflow="visible">
<path d="m-4.4844-1.6406h-7.0156v-3.7031h1.1562c0.61719 0 1.3984 0.007812 2.3438 0.015625 0.9375 0.011719 1.5625 0.015625 1.875 0.015625 0.92969 0 1.5938-0.019531 2-0.0625 0.40625-0.050781 0.70312-0.14062 0.89062-0.26562 0.24219-0.14453 0.42969-0.33594 0.5625-0.57812 0.125-0.25 0.1875-0.53125 0.1875-0.84375 0-0.75781-0.28906-1.3594-0.875-1.7969-0.59375-0.4375-1.4141-0.65625-2.4688-0.65625h-5.6719v-3.6875h11.5v3.6875h-1.6562c0.66797 0.55469 1.1641 1.1406 1.4844 1.7656 0.3125 0.61719 0.46875 1.293 0.46875 2.0312 0 1.3359-0.40625 2.3516-1.2188 3.0469-0.8125 0.6875-2 1.0312-3.5625 1.0312z"/>
</symbol>
<symbol id="h" overflow="visible"></symbol>
<symbol id="c" overflow="visible">
<path d="m-11.141-11.047h3c-0.34375 0.5-0.59766 1-0.76562 1.5-0.16406 0.5-0.25 1.0234-0.25 1.5625 0 1.0312 0.30469 1.8359 0.90625 2.4062 0.59375 0.5625 1.4336 0.84375 2.5156 0.84375 1.0742 0 1.9141-0.28125 2.5156-0.84375 0.59375-0.57031 0.89062-1.375 0.89062-2.4062 0-0.57031-0.082031-1.1133-0.25-1.625-0.17578-0.51953-0.42969-1-0.76562-1.4375h3c0.21875 0.57422 0.37891 1.1562 0.48438 1.75 0.10156 0.58594 0.15625 1.1797 0.15625 1.7812 0 2.0742-0.53125 3.6953-1.5938 4.8594-1.0625 1.168-2.5391 1.75-4.4375 1.75-1.8945 0-3.375-0.58203-4.4375-1.75-1.0703-1.1641-1.6094-2.7852-1.6094-4.8594 0-0.60156 0.058594-1.1953 0.17188-1.7812 0.10547-0.58203 0.26172-1.1641 0.46875-1.75z"/>
</symbol>
<symbol id="g" overflow="visible">
<path d="m-9.1562-7.2344c0 0.8125 0.29688 1.4336 0.89062 1.8594 0.58594 0.42969 1.4297 0.64062 2.5312 0.64062 1.0938 0 1.9375-0.21094 2.5312-0.64062 0.58594-0.42578 0.875-1.0469 0.875-1.8594 0-0.80078-0.28906-1.4102-0.875-1.8281-0.59375-0.42578-1.4375-0.64062-2.5312-0.64062-1.1016 0-1.9453 0.21484-2.5312 0.64062-0.59375 0.41797-0.89062 1.0273-0.89062 1.8281zm-2.625 0c0-1.9766 0.53906-3.5195 1.6094-4.625 1.0625-1.1133 2.543-1.6719 4.4375-1.6719 1.8867 0 3.3672 0.55859 4.4375 1.6719 1.0625 1.1055 1.5938 2.6484 1.5938 4.625 0 1.9805-0.53125 3.5312-1.5938 4.6562-1.0703 1.1172-2.5508 1.6719-4.4375 1.6719-1.8945 0-3.375-0.55469-4.4375-1.6719-1.0703-1.125-1.6094-2.6758-1.6094-4.6562z"/>
</symbol>
<symbol id="o" overflow="visible">
<path d="m-9.8125-9.5781h-6.1719v-3.7031h15.984v3.7031h-1.6562c0.67969 0.5 1.1719 1.0586 1.4844 1.6719 0.3125 0.60547 0.46875 1.3086 0.46875 2.1094 0 1.418-0.5625 2.5859-1.6875 3.5-1.125 0.90625-2.5703 1.3594-4.3438 1.3594-1.7812 0-3.2344-0.45312-4.3594-1.3594-1.125-0.91406-1.6875-2.082-1.6875-3.5 0-0.78906 0.16406-1.4922 0.48438-2.1094 0.3125-0.61328 0.80859-1.1719 1.4844-1.6719zm7.4375 2.4219c0-0.78906-0.28516-1.3906-0.85938-1.7969-0.57031-0.41406-1.4062-0.625-2.5-0.625-1.1016 0-1.9414 0.21094-2.5156 0.625-0.57031 0.40625-0.85938 1.0078-0.85938 1.7969 0 0.77344 0.28906 1.3672 0.85938 1.7812 0.57422 0.41797 1.4141 0.625 2.5156 0.625 1.0938 0 1.9297-0.20703 2.5-0.625 0.57422-0.41406 0.85938-1.0078 0.85938-1.7812z"/>
</symbol>
<symbol id="n" overflow="visible">
<path d="m-14.766-5.7812h3.2656v-3.7812h2.625v3.7812h4.875c0.54297 0 0.90625-0.10156 1.0938-0.3125 0.1875-0.20703 0.28125-0.62891 0.28125-1.2656v-1.8906h2.625v3.1562c0 1.4492-0.30078 2.4766-0.90625 3.0781-0.60156 0.60547-1.6328 0.90625-3.0938 0.90625h-4.875v1.8281h-2.625v-1.8281h-3.2656z"/>
</symbol>
<symbol id="ad" overflow="visible">
<path d="m-7-13.312h7v3.6875h-5.3594c-0.98828 0-1.6719 0.027344-2.0469 0.078125-0.38281 0.042969-0.66406 0.11719-0.84375 0.21875-0.23828 0.14844-0.42188 0.34375-0.54688 0.59375-0.13281 0.24219-0.20312 0.51562-0.20312 0.82812 0 0.77344 0.29688 1.375 0.89062 1.8125 0.58594 0.4375 1.4023 0.65625 2.4531 0.65625h5.6562v3.6719h-11.5v-3.6719h1.6875c-0.67578-0.55078-1.1719-1.1406-1.4844-1.7656-0.32031-0.625-0.48438-1.3125-0.48438-2.0625 0-1.3203 0.41406-2.3281 1.2344-3.0156 0.8125-0.6875 1.9961-1.0312 3.5469-1.0312z"/>
</symbol>
<symbol id="j" overflow="visible">
<path d="m-11.141-10.75h2.7969c-0.33203 0.79297-0.57812 1.5547-0.73438 2.2812-0.16406 0.73047-0.25 1.4219-0.25 2.0781 0 0.69922 0.089844 1.2188 0.26562 1.5625 0.16797 0.33594 0.43359 0.5 0.79688 0.5 0.29297 0 0.51562-0.125 0.67188-0.375 0.15625-0.25781 0.27734-0.72266 0.35938-1.3906l0.09375-0.64062c0.24219-1.8828 0.63672-3.1484 1.1875-3.7969 0.54297-0.65625 1.3984-0.98438 2.5625-0.98438 1.2305 0 2.1523 0.45312 2.7656 1.3594 0.61719 0.90625 0.92188 2.2578 0.92188 4.0469 0 0.75-0.0625 1.5312-0.1875 2.3438-0.11328 0.8125-0.28906 1.6484-0.53125 2.5h-2.7969c0.35547-0.72656 0.625-1.4766 0.8125-2.25 0.17969-0.76953 0.26562-1.5508 0.26562-2.3438 0-0.71875-0.097656-1.2578-0.29688-1.625-0.19531-0.36328-0.49219-0.54688-0.89062-0.54688-0.32031 0-0.5625 0.125-0.71875 0.375-0.16406 0.25-0.29688 0.75-0.39062 1.5l-0.078125 0.64062c-0.20703 1.6367-0.58594 2.7812-1.1406 3.4375-0.55078 0.65625-1.3945 0.98438-2.5312 0.98438-1.2188 0-2.1172-0.41406-2.7031-1.25-0.59375-0.83203-0.89062-2.1094-0.89062-3.8281 0-0.67578 0.054688-1.3906 0.15625-2.1406 0.10547-0.75 0.26562-1.5625 0.48438-2.4375z"/>
</symbol>
<symbol id="ac" overflow="visible">
<path d="m-5.7812-13.234h1.0469v8.5781c0.86719-0.082031 1.5156-0.39062 1.9531-0.92188 0.42969-0.53125 0.64062-1.2734 0.64062-2.2344 0-0.78125-0.11328-1.5703-0.34375-2.375-0.22656-0.8125-0.57812-1.6445-1.0469-2.5h2.8281c0.33594 0.86719 0.58594 1.7344 0.75 2.6094 0.16406 0.86719 0.25 1.7305 0.25 2.5938 0 2.0859-0.52344 3.7031-1.5781 4.8594-1.0625 1.1484-2.5469 1.7188-4.4531 1.7188-1.875 0-3.3477-0.5625-4.4219-1.6875-1.082-1.1328-1.625-2.6953-1.625-4.6875 0-1.8008 0.54688-3.2422 1.6406-4.3281 1.0859-1.082 2.5391-1.625 4.3594-1.625zm-1.2188 3.7656c-0.69531 0-1.2578 0.21094-1.6875 0.625-0.42578 0.40625-0.64062 0.9375-0.64062 1.5938 0 0.71094 0.19922 1.2891 0.59375 1.7344 0.39844 0.4375 0.97656 0.71484 1.7344 0.82812z"/>
</symbol>
<symbol id="ab" overflow="visible">
<path d="m-15.984-1.8125v-6.3594h2.3125v2.875h14.141v-2.875h2.2969v6.3594z"/>
</symbol>
<symbol id="aa" overflow="visible">
<path d="m-1.6562-5.4375h6.0312v3.6719h-15.875v-3.6719h1.6875c-0.67578-0.50781-1.1719-1.0703-1.4844-1.6875-0.32031-0.61328-0.48438-1.3203-0.48438-2.125 0-1.4141 0.5625-2.5781 1.6875-3.4844s2.5781-1.3594 4.3594-1.3594c1.7734 0 3.2188 0.45312 4.3438 1.3594s1.6875 2.0703 1.6875 3.4844c0 0.80469-0.15625 1.5117-0.46875 2.125-0.32031 0.61719-0.81641 1.1797-1.4844 1.6875zm-7.4531-2.4375c0 0.78125 0.29297 1.3867 0.875 1.8125 0.57422 0.41797 1.4062 0.625 2.5 0.625 1.0859 0 1.918-0.20703 2.5-0.625 0.57422-0.42578 0.85938-1.0312 0.85938-1.8125 0-0.78906-0.28516-1.3906-0.85938-1.7969-0.57031-0.41406-1.4062-0.625-2.5-0.625-1.1016 0-1.9414 0.21094-2.5156 0.625-0.57031 0.40625-0.85938 1.0078-0.85938 1.7969z"/>
</symbol>
<symbol id="z" overflow="visible">
<path d="m2.7656-7.7969v6.375h-2.2969v-2.8906h-14.141v2.8906h-2.3125v-6.375z"/>
</symbol>
<symbol id="b" overflow="visible">
<path d="m2.6094-1.75h3.3906v-11.688l-3.6875 0.75v-1.8906l3.6719-0.75h2.0625v13.578h3.3906v1.75h-8.8281z"/>
</symbol>
<symbol id="a" overflow="visible">
<path d="m6.6875-13.953c-1.0742 0-1.8828 0.52734-2.4219 1.5781-0.53125 1.043-0.79688 2.6211-0.79688 4.7344 0 2.0938 0.26562 3.668 0.79688 4.7188 0.53906 1.0547 1.3477 1.5781 2.4219 1.5781 1.0703 0 1.875-0.52344 2.4062-1.5781 0.53906-1.0508 0.8125-2.625 0.8125-4.7188 0-2.1133-0.27344-3.6914-0.8125-4.7344-0.53125-1.0508-1.3359-1.5781-2.4062-1.5781zm0-1.6406c1.7188 0 3.0312 0.67969 3.9375 2.0312 0.90625 1.3555 1.3594 3.3281 1.3594 5.9219 0 2.5742-0.45312 4.543-1.3594 5.9062-0.90625 1.3555-2.2188 2.0312-3.9375 2.0312s-3.0312-0.67578-3.9375-2.0312c-0.90625-1.3633-1.3594-3.332-1.3594-5.9062 0-2.5938 0.45312-4.5664 1.3594-5.9219 0.90625-1.3516 2.2188-2.0312 3.9375-2.0312z"/>
</symbol>
<symbol id="f" overflow="visible">
<path d="m4.0312-1.75h7.25v1.75h-9.7344v-1.75c0.78125-0.8125 1.8477-1.8984 3.2031-3.2656 1.3633-1.375 2.2227-2.2578 2.5781-2.6562 0.65625-0.75 1.1133-1.3789 1.375-1.8906 0.26953-0.51953 0.40625-1.0312 0.40625-1.5312 0-0.8125-0.28906-1.4727-0.85938-1.9844-0.57422-0.51953-1.3203-0.78125-2.2344-0.78125-0.64844 0-1.3359 0.11719-2.0625 0.34375-0.71875 0.23047-1.4922 0.57422-2.3125 1.0312v-2.0938c0.83203-0.33203 1.6133-0.58203 2.3438-0.75 0.72656-0.17578 1.3945-0.26562 2-0.26562 1.582 0 2.8438 0.39844 3.7812 1.1875 0.94531 0.79297 1.4219 1.8555 1.4219 3.1875 0 0.625-0.12109 1.2188-0.35938 1.7812-0.23047 0.5625-0.65625 1.2305-1.2812 2-0.16797 0.19922-0.71094 0.77344-1.625 1.7188-0.91797 0.94922-2.2148 2.2734-3.8906 3.9688z"/>
</symbol>
<symbol id="u" overflow="visible">
<path d="m8.5312-8.2656c0.98828 0.21875 1.7656 0.66406 2.3281 1.3281 0.5625 0.66797 0.84375 1.4961 0.84375 2.4844 0 1.5117-0.52344 2.6836-1.5625 3.5156-1.043 0.82422-2.5234 1.2344-4.4375 1.2344-0.64844 0-1.3125-0.0625-2-0.1875-0.67969-0.125-1.375-0.31641-2.0938-0.57812v-2c0.57031 0.34375 1.1953 0.60156 1.875 0.76562 0.6875 0.16797 1.4062 0.25 2.1562 0.25 1.3008 0 2.2891-0.25391 2.9688-0.76562 0.67578-0.50781 1.0156-1.2539 1.0156-2.2344 0-0.90625-0.32031-1.6133-0.95312-2.125-0.625-0.50781-1.5078-0.76562-2.6406-0.76562h-1.7812v-1.7031h1.875c1.0195 0 1.7969-0.20312 2.3281-0.60938 0.53906-0.40625 0.8125-0.98828 0.8125-1.75 0-0.78906-0.28125-1.3945-0.84375-1.8125-0.55469-0.42578-1.3516-0.64062-2.3906-0.64062-0.5625 0-1.1719 0.0625-1.8281 0.1875-0.64844 0.125-1.3594 0.32031-2.1406 0.57812v-1.8438c0.78906-0.21875 1.5312-0.37891 2.2188-0.48438 0.6875-0.11328 1.332-0.17188 1.9375-0.17188 1.5703 0 2.8164 0.35938 3.7344 1.0781 0.92578 0.71094 1.3906 1.6719 1.3906 2.8906 0 0.84375-0.24609 1.5625-0.73438 2.1562-0.49219 0.58594-1.1836 0.98438-2.0781 1.2031z"/>
</symbol>
<symbol id="e" overflow="visible">
<path d="m7.9531-13.516-5.2344 8.1719h5.2344zm-0.54688-1.8125h2.6094v9.9844h2.1875v1.7344h-2.1875v3.6094h-2.0625v-3.6094h-6.9219v-2z"/>
</symbol>
<symbol id="t" overflow="visible">
<path d="m2.2656-15.328h8.1406v1.75h-6.2344v3.7656c0.30078-0.10156 0.60156-0.17969 0.90625-0.23438 0.30078-0.050781 0.60156-0.078125 0.90625-0.078125 1.707 0 3.0625 0.46875 4.0625 1.4062s1.5 2.2031 1.5 3.7969c0 1.6562-0.51562 2.9453-1.5469 3.8594-1.0234 0.90625-2.4688 1.3594-4.3438 1.3594-0.64844 0-1.3047-0.058594-1.9688-0.17188-0.66797-0.10547-1.3555-0.26562-2.0625-0.48438v-2.0781c0.61328 0.33594 1.25 0.58594 1.9062 0.75 0.65625 0.15625 1.3516 0.23438 2.0938 0.23438 1.1758 0 2.1094-0.30469 2.7969-0.92188 0.69531-0.625 1.0469-1.4727 1.0469-2.5469 0-1.0625-0.35156-1.9062-1.0469-2.5312-0.6875-0.625-1.6211-0.9375-2.7969-0.9375-0.5625 0-1.1211 0.0625-1.6719 0.1875-0.55469 0.125-1.1172 0.32031-1.6875 0.57812z"/>
</symbol>
<symbol id="k" overflow="visible">
<path d="m6.9375-8.4844c-0.92969 0-1.668 0.32031-2.2188 0.95312-0.54297 0.63672-0.8125 1.5078-0.8125 2.6094 0 1.1055 0.26953 1.9805 0.8125 2.625 0.55078 0.63672 1.2891 0.95312 2.2188 0.95312 0.9375 0 1.6758-0.31641 2.2188-0.95312 0.53906-0.64453 0.8125-1.5195 0.8125-2.625 0-1.1016-0.27344-1.9727-0.8125-2.6094-0.54297-0.63281-1.2812-0.95312-2.2188-0.95312zm4.125-6.5v1.8906c-0.52344-0.25-1.0469-0.4375-1.5781-0.5625-0.53125-0.13281-1.0586-0.20312-1.5781-0.20312-1.3672 0-2.4141 0.46484-3.1406 1.3906-0.71875 0.92969-1.1328 2.3242-1.2344 4.1875 0.40625-0.59375 0.91016-1.0469 1.5156-1.3594 0.61328-0.32031 1.2852-0.48438 2.0156-0.48438 1.5391 0 2.7578 0.46875 3.6562 1.4062 0.89453 0.92969 1.3438 2.1953 1.3438 3.7969 0 1.5742-0.46875 2.8398-1.4062 3.7969-0.92969 0.94922-2.168 1.4219-3.7188 1.4219-1.7734 0-3.125-0.67578-4.0625-2.0312-0.9375-1.3633-1.4062-3.332-1.4062-5.9062 0-2.4258 0.57031-4.3594 1.7188-5.7969 1.1562-1.4375 2.7031-2.1562 4.6406-2.1562 0.51953 0 1.0469 0.054688 1.5781 0.15625 0.53125 0.09375 1.082 0.24609 1.6562 0.45312z"/>
</symbol>
<symbol id="s" overflow="visible">
<path d="m1.7188-15.328h9.8594v0.89062l-5.5625 14.438h-2.1719l5.25-13.578h-7.375z"/>
</symbol>
<symbol id="r" overflow="visible">
<path d="m6.6875-7.2812c-0.99219 0-1.7656 0.26562-2.3281 0.79688s-0.84375 1.2578-0.84375 2.1719c0 0.92969 0.28125 1.6562 0.84375 2.1875 0.5625 0.52344 1.3359 0.78125 2.3281 0.78125 0.97656 0 1.7539-0.26562 2.3281-0.79688 0.57031-0.53125 0.85938-1.2539 0.85938-2.1719 0-0.91406-0.28906-1.6406-0.85938-2.1719-0.5625-0.53125-1.3398-0.79688-2.3281-0.79688zm-2.0781-0.875c-0.88672-0.21875-1.5781-0.62891-2.0781-1.2344-0.5-0.61328-0.75-1.3594-0.75-2.2344 0-1.2266 0.4375-2.1953 1.3125-2.9062 0.875-0.70703 2.0703-1.0625 3.5938-1.0625 1.5195 0 2.7109 0.35547 3.5781 1.0625 0.875 0.71094 1.3125 1.6797 1.3125 2.9062 0 0.875-0.25 1.6211-0.75 2.2344-0.49219 0.60547-1.1797 1.0156-2.0625 1.2344 1 0.23047 1.7734 0.68359 2.3281 1.3594 0.5625 0.67969 0.84375 1.5078 0.84375 2.4844 0 1.4922-0.45312 2.6328-1.3594 3.4219-0.90625 0.79297-2.2031 1.1875-3.8906 1.1875s-2.9922-0.39453-3.9062-1.1875c-0.90625-0.78906-1.3594-1.9297-1.3594-3.4219 0-0.97656 0.28125-1.8047 0.84375-2.4844 0.5625-0.67578 1.3438-1.1289 2.3438-1.3594zm-0.76562-3.2812c0 0.80469 0.25 1.4297 0.75 1.875 0.5 0.4375 1.1953 0.65625 2.0938 0.65625 0.88281 0 1.5781-0.21875 2.0781-0.65625 0.50781-0.44531 0.76562-1.0703 0.76562-1.875 0-0.78906-0.25781-1.4062-0.76562-1.8438-0.5-0.44531-1.1953-0.67188-2.0781-0.67188-0.89844 0-1.5938 0.22656-2.0938 0.67188-0.5 0.4375-0.75 1.0547-0.75 1.8438z"/>
</symbol>
<symbol id="x" overflow="visible">
<path d="m6.4375-10.172c-1.0117 0-1.8125 0.39844-2.4062 1.1875-0.58594 0.79297-0.875 1.875-0.875 3.25s0.28906 2.4609 0.875 3.25c0.58203 0.79297 1.3828 1.1875 2.4062 1.1875 1.0078 0 1.8047-0.39453 2.3906-1.1875 0.59375-0.80078 0.89062-1.8828 0.89062-3.25 0-1.3633-0.29688-2.4414-0.89062-3.2344-0.58594-0.80078-1.3828-1.2031-2.3906-1.2031zm0-1.5938c1.6445 0 2.9375 0.53906 3.875 1.6094 0.9375 1.0625 1.4062 2.5391 1.4062 4.4219 0 1.875-0.46875 3.3516-1.4062 4.4219-0.9375 1.0742-2.2305 1.6094-3.875 1.6094-1.6484 0-2.9375-0.53516-3.875-1.6094-0.9375-1.0703-1.4062-2.5469-1.4062-4.4219 0-1.8828 0.46875-3.3594 1.4062-4.4219 0.9375-1.0703 2.2266-1.6094 3.875-1.6094z"/>
</symbol>
<symbol id="w" overflow="visible">
<path d="m10.938-9.2812c0.46875-0.85156 1.0312-1.4766 1.6875-1.875 0.65625-0.40625 1.4297-0.60938 2.3281-0.60938 1.1953 0 2.1172 0.42188 2.7656 1.2656 0.65625 0.83594 0.98438 2.0234 0.98438 3.5625v6.9375h-1.9062v-6.875c0-1.1016-0.19922-1.9219-0.59375-2.4531-0.38672-0.53125-0.98047-0.79688-1.7812-0.79688-0.98047 0-1.7578 0.32812-2.3281 0.98438-0.5625 0.64844-0.84375 1.5273-0.84375 2.6406v6.5h-1.8906v-6.875c0-1.1016-0.19922-1.9219-0.59375-2.4531-0.38672-0.53125-0.98438-0.79688-1.7969-0.79688-0.96875 0-1.7422 0.32812-2.3125 0.98438-0.5625 0.64844-0.84375 1.5273-0.84375 2.6406v6.5h-1.9062v-11.5h1.9062v1.7969c0.42578-0.70703 0.94141-1.2266 1.5469-1.5625 0.60156-0.33203 1.3164-0.5 2.1406-0.5 0.84375 0 1.5547 0.21484 2.1406 0.64062 0.58203 0.41797 1.0156 1.0312 1.2969 1.8438z"/>
</symbol>
<symbol id="v" overflow="visible">
<path d="m1.7812-4.5312v-6.9688h1.8906v6.8906c0 1.0938 0.21094 1.9141 0.64062 2.4531 0.42578 0.54297 1.0625 0.8125 1.9062 0.8125 1.0195 0 1.8281-0.32031 2.4219-0.96875 0.59375-0.65625 0.89062-1.5469 0.89062-2.6719v-6.5156h1.8906v11.5h-1.8906v-1.7656c-0.46094 0.69922-0.99219 1.2188-1.5938 1.5625-0.60547 0.33203-1.3086 0.5-2.1094 0.5-1.3242 0-2.3281-0.41016-3.0156-1.2344-0.6875-0.82031-1.0312-2.0195-1.0312-3.5938z"/>
</symbol>
</defs>
<path d="m112.02 26.359h457.76v456.61h-457.76z" fill="#fff"/>
<g>
<use x="231.574219" y="562.52722" xlink:href="#am"/>
<use x="255.230842" y="562.52722" xlink:href="#ak"/>
<use x="276.258951" y="562.52722" xlink:href="#q"/>
<use x="294.658547" y="562.52722" xlink:href="#p"/>
<use x="305.172602" y="562.52722" xlink:href="#aj"/>
<use x="315.686657" y="562.52722" xlink:href="#ai"/>
<use x="336.714766" y="562.52722" xlink:href="#p"/>
<use x="347.228821" y="562.52722" xlink:href="#ah"/>
<use x="365.628416" y="562.52722" xlink:href="#q"/>
<use x="384.028012" y="562.52722" xlink:href="#ag"/>
<use x="402.427608" y="562.52722" xlink:href="#af"/>
<use x="415.570176" y="562.52722" xlink:href="#al"/>
</g>
<g>
<use x="34.374236" y="493.769531" xlink:href="#ae"/>
<use x="34.374236" y="472.754611" xlink:href="#i"/>
<use x="34.374236" y="459.620287" xlink:href="#y"/>
<use x="34.374236" y="446.485962" xlink:href="#m"/>
<use x="34.374236" y="438.605367" xlink:href="#d"/>
<use x="34.374236" y="417.590447" xlink:href="#l"/>
<use x="34.374236" y="401.829257" xlink:href="#d"/>
<use x="34.374236" y="380.814337" xlink:href="#h"/>
<use x="34.374236" y="372.933743" xlink:href="#i"/>
<use x="34.374236" y="359.799418" xlink:href="#c"/>
<use x="34.374236" y="346.665093" xlink:href="#c"/>
<use x="34.374236" y="333.530768" xlink:href="#g"/>
<use x="34.374236" y="320.396443" xlink:href="#d"/>
<use x="34.374236" y="299.381523" xlink:href="#d"/>
<use x="34.374236" y="278.366604" xlink:href="#g"/>
<use x="34.374236" y="265.232279" xlink:href="#o"/>
<use x="34.374236" y="249.471089" xlink:href="#i"/>
<use x="34.374236" y="236.336764" xlink:href="#n"/>
<use x="34.374236" y="225.829304" xlink:href="#m"/>
<use x="34.374236" y="217.948709" xlink:href="#g"/>
<use x="34.374236" y="204.814384" xlink:href="#ad"/>
<use x="34.374236" y="189.053195" xlink:href="#h"/>
<use x="34.374236" y="181.1726" xlink:href="#j"/>
<use x="34.374236" y="168.038275" xlink:href="#l"/>
<use x="34.374236" y="152.277085" xlink:href="#c"/>
<use x="34.374236" y="139.14276" xlink:href="#c"/>
<use x="34.374236" y="126.008435" xlink:href="#ac"/>
<use x="34.374236" y="112.87411" xlink:href="#j"/>
<use x="34.374236" y="99.739786" xlink:href="#j"/>
<use x="34.374236" y="86.605461" xlink:href="#h"/>
<use x="34.374236" y="78.724866" xlink:href="#ab"/>
<use x="34.374236" y="68.217406" xlink:href="#o"/>
<use x="34.374236" y="52.456216" xlink:href="#aa"/>
<use x="34.374236" y="36.695026" xlink:href="#n"/>
<use x="34.374236" y="26.187566" xlink:href="#z"/>
</g>
<path transform="matrix(2.6285 0 0 2.6269 26.839 18.172)" d="m32.408 3.117h174.15v173.82h-174.15z" fill="none" stroke="#000" stroke-width="1.5"/>
<path transform="matrix(2.6285 0 0 2.6269 26.839 18.172)" d="m32.408 3.117v180.67" fill="none" stroke="#000" stroke-width=".75"/>
<path transform="matrix(2.6285 0 0 2.6269 26.839 18.172)" d="m206.56 176.94h-180.67" fill="none" stroke="#000" stroke-width=".75"/>
<path transform="matrix(2.6285 0 0 2.6269 26.839 18.172)" d="m206.56 3.117h-180.67" fill="none" stroke="#000" stroke-width=".75"/>
<path transform="matrix(2.6285 0 0 2.6269 26.839 18.172)" d="m206.56 27.949h-180.67" fill="none" stroke="#000" stroke-width=".75"/>
<path transform="matrix(2.6285 0 0 2.6269 26.839 18.172)" d="m206.56 52.78h-180.67" fill="none" stroke="#000" stroke-width=".75"/>
<path transform="matrix(2.6285 0 0 2.6269 26.839 18.172)" d="m206.56 77.612h-180.67" fill="none" stroke="#000" stroke-width=".75"/>
<path transform="matrix(2.6285 0 0 2.6269 26.839 18.172)" d="m206.56 102.44h-180.67" fill="none" stroke="#000" stroke-width=".75"/>
<path transform="matrix(2.6285 0 0 2.6269 26.839 18.172)" d="m206.56 127.28h-180.67" fill="none" stroke="#000" stroke-width=".75"/>
<path transform="matrix(2.6285 0 0 2.6269 26.839 18.172)" d="m206.56 152.11h-180.67" fill="none" stroke="#000" stroke-width=".75"/>
<path transform="matrix(2.6285 0 0 2.6269 26.839 18.172)" d="m57.287 3.117v180.67" fill="none" stroke="#000" stroke-width=".75"/>
<path transform="matrix(2.6285 0 0 2.6269 26.839 18.172)" d="m82.166 3.117v180.67" fill="none" stroke="#000" stroke-width=".75"/>
<path transform="matrix(2.6285 0 0 2.6269 26.839 18.172)" d="m107.04 3.117v180.67" fill="none" stroke="#000" stroke-width=".75"/>
<path transform="matrix(2.6285 0 0 2.6269 26.839 18.172)" d="m131.92 3.117v180.67" fill="none" stroke="#000" stroke-width=".75"/>
<path transform="matrix(2.6285 0 0 2.6269 26.839 18.172)" d="m156.8 3.117v180.67" fill="none" stroke="#000" stroke-width=".75"/>
<path transform="matrix(2.6285 0 0 2.6269 26.839 18.172)" d="m181.68 3.117v180.67" fill="none" stroke="#000" stroke-width=".75"/>
<g>
<use x="163.820312" y="523.311212" xlink:href="#b"/>
<use x="176.962881" y="523.311212" xlink:href="#a"/>
</g>
<g>
<use x="229.597656" y="523.311212" xlink:href="#f"/>
<use x="242.740225" y="523.311212" xlink:href="#a"/>
</g>
<g>
<use x="294.960938" y="523.311212" xlink:href="#u"/>
<use x="308.103506" y="523.311212" xlink:href="#a"/>
</g>
<g>
<use x="360.644531" y="523.311212" xlink:href="#e"/>
<use x="373.7871" y="523.311212" xlink:href="#a"/>
</g>
<g>
<use x="425.738281" y="523.311212" xlink:href="#t"/>
<use x="438.88085" y="523.311212" xlink:href="#a"/>
</g>
<g>
<use x="491.210937" y="523.311212" xlink:href="#k"/>
<use x="504.353506" y="523.311212" xlink:href="#a"/>
</g>
<g>
<use x="556.476562" y="523.311212" xlink:href="#s"/>
<use x="569.619131" y="523.311212" xlink:href="#a"/>
</g>
<g>
<use x="75.367188" y="425.389337" xlink:href="#f"/>
</g>
<g>
<use x="74.441406" y="360.158868" xlink:href="#e"/>
</g>
<g>
<use x="74.585938" y="294.9284" xlink:href="#k"/>
</g>
<g>
<use x="74.699219" y="229.697931" xlink:href="#r"/>
</g>
<g>
<use x="61.398438" y="164.467462" xlink:href="#b"/>
<use x="74.541006" y="164.467462" xlink:href="#a"/>
</g>
<g>
<use x="62.105469" y="99.236993" xlink:href="#b"/>
<use x="75.248037" y="99.236993" xlink:href="#f"/>
</g>
<g>
<use x="61.179687" y="34.006525" xlink:href="#b"/>
<use x="74.322256" y="34.006525" xlink:href="#e"/>
</g>
<g>
<use x="140.175781" y="43.791681" xlink:href="#x"/>
</g>
<g>
<use x="136.175781" y="88.869806" xlink:href="#w"/>
</g>
<g>
<use x="140.242188" y="132.994806" xlink:href="#v"/>
</g>
<path transform="matrix(2.6285 0 0 2.6269 26.839 18.172)" d="m206.56 3.117v180.67" fill="none" stroke="#000" stroke-width=".75"/>
<path transform="matrix(2.6285 0 0 2.6269 26.839 18.172)" d="m52.837 3.117c34.255 28.904 93.851 76.795 101.88 124.16 2.8295 16.683 14.702 22.822 26.961 24.832l24.879 4.0775" fill="none" stroke="#1b5439" stroke-linecap="round" stroke-width="1.2"/>
<path transform="matrix(2.6285 0 0 2.6269 26.839 18.172)" d="m52.652 24.808c62.966 50.61 83.538 68.988 92.168 109.2 2.7775 12.942 22.895 22.56 36.86 25.173l24.879 4.6544" fill="none" stroke="#2b8059" stroke-linecap="round" stroke-width="1.2"/>
<path transform="matrix(2.6285 0 0 2.6269 26.839 18.172)" d="m52.435 43.34c38.967 30.672 63.999 47.286 82.201 98.961 6.6444 18.86 28.936 22.535 47.044 22.298 11.159-0.14424 24.879 3.4975 24.879 3.4975" fill="none" stroke="#3eaf7c" stroke-linecap="round" stroke-width="1.2"/>
<path transform="matrix(2.6285 0 0 2.6269 0 .30015)" d="m42.619 9.9203h174.15v173.82h-174.15z" fill="none" stroke="#000" stroke-width="1.5"/>
<path transform="matrix(2.6285 0 0 2.6269 0 .30015)" d="m216.77 183.74h-180.67" fill="none" stroke="#000" stroke-width=".75"/>
</svg>
