<?xml version="1.0" encoding="UTF-8"?>
<svg width="800px" height="216px" version="1.1" viewBox="0 0 800 216" xmlns="http://www.w3.org/2000/svg" xmlns:xlink="http://www.w3.org/1999/xlink">
<defs>
<symbol id="z" overflow="visible">
<path d="m6.3125-11.656-2.4688 6.7031h4.9531zm-1.0312-1.7812h2.0625l5.1406 13.438h-1.8906l-1.2344-3.4531h-6.0625l-1.2344 3.4531h-1.9219z"/>
</symbol>
<symbol id="aq" overflow="visible">
<path d="m8.9844-5.0312c0-1.2188-0.25-2.1719-0.75-2.8594-0.5-0.69531-1.1875-1.0469-2.0625-1.0469s-1.5703 0.35156-2.0781 1.0469c-0.5 0.6875-0.75 1.6406-0.75 2.8594s0.25 2.1797 0.75 2.875c0.50781 0.6875 1.2031 1.0312 2.0781 1.0312s1.5625-0.34375 2.0625-1.0312c0.5-0.69531 0.75-1.6562 0.75-2.875zm-5.6406-3.5156c0.35156-0.60156 0.79688-1.0508 1.3281-1.3438 0.53125-0.28906 1.1641-0.4375 1.9062-0.4375 1.2188 0 2.2109 0.49219 2.9844 1.4688 0.76953 0.96875 1.1562 2.2461 1.1562 3.8281 0 1.5859-0.38672 2.8672-1.1562 3.8438-0.77344 0.96875-1.7656 1.4531-2.9844 1.4531-0.74219 0-1.375-0.14844-1.9062-0.4375s-0.97656-0.73828-1.3281-1.3438v1.5156h-1.6719v-14.016h1.6719z"/>
</symbol>
<symbol id="b" overflow="visible">
<path d="m10.141-6.0781v6.0781h-1.6562v-6.0312c0-0.95703-0.1875-1.6719-0.5625-2.1406-0.375-0.47656-0.9375-0.71875-1.6875-0.71875-0.89844 0-1.6055 0.28906-2.125 0.85938-0.51172 0.57422-0.76562 1.3516-0.76562 2.3281v5.7031h-1.6719v-10.078h1.6719v1.5625c0.39453-0.60156 0.86328-1.0547 1.4062-1.3594 0.53906-0.30078 1.1602-0.45312 1.8594-0.45312 1.1562 0 2.0312 0.35938 2.625 1.0781 0.60156 0.71875 0.90625 1.7773 0.90625 3.1719z"/>
</symbol>
<symbol id="a" overflow="visible">
<path d="m10.375-5.4531v0.8125h-7.625c0.070312 1.1367 0.41406 2.0078 1.0312 2.6094 0.61328 0.59375 1.4727 0.89062 2.5781 0.89062 0.63281 0 1.25-0.078125 1.8438-0.23438 0.60156-0.15625 1.1953-0.39062 1.7812-0.70312v1.5625c-0.59375 0.25-1.2031 0.44531-1.8281 0.57812-0.625 0.13281-1.2578 0.20312-1.8906 0.20312-1.6172 0-2.8984-0.46875-3.8438-1.4062-0.9375-0.9375-1.4062-2.2031-1.4062-3.7969 0-1.6562 0.44531-2.9688 1.3438-3.9375 0.89453-0.96875 2.0977-1.4531 3.6094-1.4531 1.3633 0 2.4375 0.4375 3.2188 1.3125 0.78906 0.875 1.1875 2.0625 1.1875 3.5625zm-1.6562-0.48438c-0.011719-0.90625-0.26562-1.6289-0.76562-2.1719-0.49219-0.53906-1.1484-0.8125-1.9688-0.8125-0.92969 0-1.668 0.26172-2.2188 0.78125-0.55469 0.52344-0.875 1.2578-0.96875 2.2031z"/>
</symbol>
<symbol id="h" overflow="visible">
<path d="m10.141-6.0781v6.0781h-1.6562v-6.0312c0-0.95703-0.1875-1.6719-0.5625-2.1406-0.375-0.47656-0.9375-0.71875-1.6875-0.71875-0.89844 0-1.6055 0.28906-2.125 0.85938-0.51172 0.57422-0.76562 1.3516-0.76562 2.3281v5.7031h-1.6719v-14.016h1.6719v5.5c0.39453-0.60156 0.86328-1.0547 1.4062-1.3594 0.53906-0.30078 1.1602-0.45312 1.8594-0.45312 1.1562 0 2.0312 0.35938 2.625 1.0781 0.60156 0.71875 0.90625 1.7773 0.90625 3.1719z"/>
</symbol>
<symbol id="u" overflow="visible">
<path d="m9.6094-8.1406c0.40625-0.75 0.89453-1.3008 1.4688-1.6562 0.58203-0.35156 1.2656-0.53125 2.0469-0.53125 1.0508 0 1.8633 0.37109 2.4375 1.1094 0.57031 0.73047 0.85938 1.7773 0.85938 3.1406v6.0781h-1.6719v-6.0312c0-0.96875-0.17188-1.6875-0.51562-2.1562s-0.86719-0.70312-1.5625-0.70312c-0.86719 0-1.5469 0.28906-2.0469 0.85938-0.49219 0.57422-0.73438 1.3516-0.73438 2.3281v5.7031h-1.6719v-6.0312c0-0.96875-0.17188-1.6875-0.51562-2.1562s-0.875-0.70312-1.5938-0.70312c-0.84375 0-1.5156 0.28906-2.0156 0.85938-0.5 0.57422-0.75 1.3516-0.75 2.3281v5.7031h-1.6719v-10.078h1.6719v1.5625c0.375-0.61328 0.82812-1.0664 1.3594-1.3594 0.53125-0.30078 1.1602-0.45312 1.8906-0.45312 0.72656 0 1.3477 0.1875 1.8594 0.5625 0.51953 0.375 0.90625 0.91797 1.1562 1.625z"/>
</symbol>
<symbol id="g" overflow="visible">
<path d="m8.3906-8.5469v-5.4688h1.6562v14.016h-1.6562v-1.5156c-0.35547 0.60547-0.79688 1.0547-1.3281 1.3438s-1.168 0.4375-1.9062 0.4375c-1.2305 0-2.2305-0.48438-3-1.4531-0.76172-0.97656-1.1406-2.2578-1.1406-3.8438 0-1.582 0.37891-2.8594 1.1406-3.8281 0.76953-0.97656 1.7695-1.4688 3-1.4688 0.73828 0 1.375 0.14844 1.9062 0.4375 0.53125 0.29297 0.97266 0.74219 1.3281 1.3438zm-5.6562 3.5156c0 1.2188 0.25 2.1797 0.75 2.875 0.5 0.6875 1.1914 1.0312 2.0781 1.0312 0.875 0 1.5625-0.34375 2.0625-1.0312 0.50781-0.69531 0.76562-1.6562 0.76562-2.875s-0.25781-2.1719-0.76562-2.8594c-0.5-0.69531-1.1875-1.0469-2.0625-1.0469-0.88672 0-1.5781 0.35156-2.0781 1.0469-0.5 0.6875-0.75 1.6406-0.75 2.8594z"/>
</symbol>
<symbol id="t" overflow="visible">
<path d="m6.8594-14.016v1.3906h-1.5938c-0.59375 0-1.0117 0.12109-1.25 0.35938-0.23047 0.24219-0.34375 0.67188-0.34375 1.2969v0.89062h2.7344v1.2812h-2.7344v8.7969h-1.6562v-8.7969h-1.5938v-1.2812h1.5938v-0.70312c0-1.125 0.25781-1.9414 0.78125-2.4531 0.51953-0.51953 1.3477-0.78125 2.4844-0.78125z"/>
</symbol>
<symbol id="o" overflow="visible">
<path d="m5.6562-8.9219c-0.89844 0-1.6055 0.35156-2.125 1.0469-0.51172 0.6875-0.76562 1.6367-0.76562 2.8438 0 1.2109 0.25391 2.1641 0.76562 2.8594 0.51953 0.6875 1.2266 1.0312 2.125 1.0312 0.88281 0 1.582-0.34766 2.0938-1.0469 0.51953-0.69531 0.78125-1.6445 0.78125-2.8438 0-1.1953-0.26172-2.1445-0.78125-2.8438-0.51172-0.69531-1.2109-1.0469-2.0938-1.0469zm0-1.4062c1.4375 0 2.5664 0.46875 3.3906 1.4062 0.83203 0.9375 1.25 2.2344 1.25 3.8906 0 1.6484-0.41797 2.9453-1.25 3.8906-0.82422 0.9375-1.9531 1.4062-3.3906 1.4062-1.4492 0-2.5859-0.46875-3.4062-1.4062-0.82422-0.94531-1.2344-2.2422-1.2344-3.8906 0-1.6562 0.41016-2.9531 1.2344-3.8906 0.82031-0.9375 1.957-1.4062 3.4062-1.4062z"/>
</symbol>
<symbol id="e" overflow="visible">
<path d="m7.5938-8.5312c-0.1875-0.11328-0.39062-0.19141-0.60938-0.23438-0.21875-0.050781-0.46094-0.078125-0.71875-0.078125-0.9375 0-1.6641 0.30859-2.1719 0.92188-0.5 0.60547-0.75 1.4766-0.75 2.6094v5.3125h-1.6719v-10.078h1.6719v1.5625c0.35156-0.61328 0.80469-1.0664 1.3594-1.3594 0.5625-0.30078 1.2422-0.45312 2.0469-0.45312 0.11328 0 0.23828 0.011719 0.375 0.03125 0.13281 0.011719 0.28516 0.03125 0.45312 0.0625z"/>
</symbol>
<symbol id="m" overflow="visible">
<path d="m1.5625-3.9844v-6.0938h1.6719v6.0312c0 0.96094 0.17969 1.6797 0.54688 2.1562 0.375 0.48047 0.9375 0.71875 1.6875 0.71875 0.89453 0 1.6016-0.28516 2.125-0.85938 0.51953-0.57031 0.78125-1.3477 0.78125-2.3281v-5.7188h1.6562v10.078h-1.6562v-1.5469c-0.40625 0.61719-0.875 1.0742-1.4062 1.375-0.53125 0.28906-1.1523 0.4375-1.8594 0.4375-1.1562 0-2.0391-0.35938-2.6406-1.0781-0.60547-0.72656-0.90625-1.7852-0.90625-3.1719z"/>
</symbol>
<symbol id="l" overflow="visible">
<path d="m8.3906-5.1562c0-1.1953-0.25-2.125-0.75-2.7812-0.49219-0.66406-1.1836-1-2.0781-1-0.89844 0-1.5938 0.33594-2.0938 1-0.49219 0.65625-0.73438 1.5859-0.73438 2.7812 0 1.1992 0.24219 2.125 0.73438 2.7812 0.5 0.65625 1.1953 0.98438 2.0938 0.98438 0.89453 0 1.5859-0.32812 2.0781-0.98438 0.5-0.65625 0.75-1.582 0.75-2.7812zm1.6562 3.9062c0 1.7188-0.38672 2.9922-1.1562 3.8281-0.76172 0.83203-1.9297 1.25-3.5 1.25-0.58594 0-1.1367-0.042969-1.6562-0.125-0.51172-0.085937-1.0117-0.21875-1.5-0.40625v-1.6094c0.48828 0.26953 0.96875 0.46875 1.4375 0.59375 0.47656 0.125 0.96094 0.1875 1.4531 0.1875 1.0938 0 1.9102-0.28906 2.4531-0.85938 0.53906-0.5625 0.8125-1.418 0.8125-2.5625v-0.82812c-0.34375 0.60547-0.78906 1.0547-1.3281 1.3438-0.53125 0.29297-1.168 0.4375-1.9062 0.4375-1.2422 0-2.2422-0.46875-3-1.4062-0.76172-0.94531-1.1406-2.1953-1.1406-3.75 0-1.5625 0.37891-2.8125 1.1406-3.75 0.75781-0.94531 1.7578-1.4219 3-1.4219 0.73828 0 1.375 0.15234 1.9062 0.45312 0.53906 0.29297 0.98438 0.73438 1.3281 1.3281v-1.5312h1.6562z"/>
</symbol>
<symbol id="as" overflow="visible">
<path d="m1.0312-13.438h10.578v1.3906l-8.5 10.516h8.7188v1.5312h-11v-1.3906l8.5156-10.516h-8.3125z"/>
</symbol>
<symbol id="y" overflow="visible">
<path d="m1.8125-13.438h7.7344v1.5312h-5.9062v3.9531h5.3281v1.5312h-5.3281v6.4219h-1.8281z"/>
</symbol>
<symbol id="x" overflow="visible">
<path d="m6.3281-5.0625c-1.3438 0-2.2773 0.15234-2.7969 0.45312-0.51172 0.30469-0.76562 0.82422-0.76562 1.5625 0 0.59375 0.19141 1.0625 0.57812 1.4062 0.39453 0.34375 0.92578 0.51562 1.5938 0.51562 0.91406 0 1.6484-0.32031 2.2031-0.96875 0.5625-0.65625 0.84375-1.5234 0.84375-2.6094v-0.35938zm3.3125-0.6875v5.75h-1.6562v-1.5312c-0.38672 0.61719-0.85938 1.0703-1.4219 1.3594s-1.2578 0.4375-2.0781 0.4375c-1.0312 0-1.8555-0.28516-2.4688-0.85938-0.60547-0.58203-0.90625-1.3633-0.90625-2.3438 0-1.1328 0.37891-1.9883 1.1406-2.5625 0.75781-0.57031 1.8945-0.85938 3.4062-0.85938h2.3281v-0.17188c0-0.75781-0.25781-1.3477-0.76562-1.7656-0.5-0.41406-1.2031-0.625-2.1094-0.625-0.57422 0-1.1367 0.074219-1.6875 0.21875-0.54297 0.13672-1.0703 0.33984-1.5781 0.60938v-1.5312c0.61328-0.22656 1.2031-0.39844 1.7656-0.51562 0.57031-0.125 1.1289-0.1875 1.6719-0.1875 1.457 0 2.5469 0.38281 3.2656 1.1406 0.72656 0.75 1.0938 1.8984 1.0938 3.4375zm-3.4375-8.2188h1.8281v1.8125h-1.8281zm-3.5312 0h1.8281v1.8125h-1.8281z"/>
</symbol>
<symbol id="i" overflow="visible">
<path d="m1.7344-10.078h1.6719v10.078h-1.6719zm0-3.9375h1.6719v2.1094h-1.6719z"/>
</symbol>
<symbol id="k" overflow="visible">
<path d="m1.6719-14.016h1.6719v8.2812l4.9531-4.3438h2.125l-5.3594 4.7188 5.5781 5.3594h-2.1562l-5.1406-4.9219v4.9219h-1.6719z"/>
</symbol>
<symbol id="p" overflow="visible">
<path d="m3.375-12.953v2.875h3.4219v1.2812h-3.4219v5.4688c0 0.82422 0.11328 1.3555 0.34375 1.5938 0.22656 0.23047 0.6875 0.34375 1.375 0.34375h1.7031v1.3906h-1.7031c-1.2812 0-2.168-0.23828-2.6562-0.71875-0.48047-0.47656-0.71875-1.3477-0.71875-2.6094v-5.4688h-1.2188v-1.2812h1.2188v-2.875z"/>
</symbol>
<symbol id="ar" overflow="visible">
<path d="m1.8125-13.438h1.8281v11.906h6.5469v1.5312h-8.375z"/>
</symbol>
<symbol id="ap" overflow="visible">
<path d="m1.5625-3.9844v-6.0938h1.6719v6.0312c0 0.96094 0.17969 1.6797 0.54688 2.1562 0.375 0.48047 0.9375 0.71875 1.6875 0.71875 0.89453 0 1.6016-0.28516 2.125-0.85938 0.51953-0.57031 0.78125-1.3477 0.78125-2.3281v-5.7188h1.6562v10.078h-1.6562v-1.5469c-0.40625 0.61719-0.875 1.0742-1.4062 1.375-0.53125 0.28906-1.1523 0.4375-1.8594 0.4375-1.1562 0-2.0391-0.35938-2.6406-1.0781-0.60547-0.72656-0.90625-1.7852-0.90625-3.1719zm4.1875-6.3438m0.82812-3.6406h1.8281v1.8125h-1.8281zm-3.5312 0h1.8281v1.8125h-1.8281z"/>
</symbol>
<symbol id="w" overflow="visible">
<path d="m9.0156-9.7031v1.5625c-0.46875-0.25781-0.94531-0.45312-1.4219-0.57812-0.46875-0.13281-0.94531-0.20312-1.4219-0.20312-1.0859 0-1.9219 0.34375-2.5156 1.0312-0.59375 0.67969-0.89062 1.6328-0.89062 2.8594 0 1.2305 0.29688 2.1875 0.89062 2.875 0.59375 0.67969 1.4297 1.0156 2.5156 1.0156 0.47656 0 0.95312-0.0625 1.4219-0.1875 0.47656-0.13281 0.95312-0.33203 1.4219-0.59375v1.5312c-0.46875 0.21875-0.95312 0.38281-1.4531 0.48438-0.49219 0.11328-1.0156 0.17188-1.5781 0.17188-1.5234 0-2.7305-0.47656-3.625-1.4375-0.89844-0.95703-1.3438-2.2422-1.3438-3.8594 0-1.6445 0.45312-2.9375 1.3594-3.875 0.90625-0.94531 2.1445-1.4219 3.7188-1.4219 0.50781 0 1.0078 0.054687 1.5 0.15625 0.48828 0.10547 0.96094 0.26172 1.4219 0.46875z"/>
</symbol>
<symbol id="v" overflow="visible">
<path d="m3.6406-11.953v5.0625h2.2812c0.85156 0 1.5078-0.21875 1.9688-0.65625 0.45703-0.4375 0.6875-1.0625 0.6875-1.875 0-0.80078-0.23047-1.4219-0.6875-1.8594-0.46094-0.44531-1.1172-0.67188-1.9688-0.67188zm-1.8281-1.4844h4.1094c1.5078 0 2.6484 0.34375 3.4219 1.0312 0.76953 0.67969 1.1562 1.6719 1.1562 2.9844 0 1.3242-0.38672 2.3242-1.1562 3-0.77344 0.67969-1.9141 1.0156-3.4219 1.0156h-2.2812v5.4062h-1.8281z"/>
</symbol>
<symbol id="ao" overflow="visible">
<path d="m0.90625-5.7812h4.8594v1.4688h-4.8594z"/>
</symbol>
<symbol id="an" overflow="visible">
<path d="m6.3281-5.0625c-1.3438 0-2.2773 0.15234-2.7969 0.45312-0.51172 0.30469-0.76562 0.82422-0.76562 1.5625 0 0.59375 0.19141 1.0625 0.57812 1.4062 0.39453 0.34375 0.92578 0.51562 1.5938 0.51562 0.91406 0 1.6484-0.32031 2.2031-0.96875 0.5625-0.65625 0.84375-1.5234 0.84375-2.6094v-0.35938zm3.3125-0.6875v5.75h-1.6562v-1.5312c-0.38672 0.61719-0.85938 1.0703-1.4219 1.3594s-1.2578 0.4375-2.0781 0.4375c-1.0312 0-1.8555-0.28516-2.4688-0.85938-0.60547-0.58203-0.90625-1.3633-0.90625-2.3438 0-1.1328 0.37891-1.9883 1.1406-2.5625 0.75781-0.57031 1.8945-0.85938 3.4062-0.85938h2.3281v-0.17188c0-0.75781-0.25781-1.3477-0.76562-1.7656-0.5-0.41406-1.2031-0.625-2.1094-0.625-0.57422 0-1.1367 0.074219-1.6875 0.21875-0.54297 0.13672-1.0703 0.33984-1.5781 0.60938v-1.5312c0.61328-0.22656 1.2031-0.39844 1.7656-0.51562 0.57031-0.125 1.1289-0.1875 1.6719-0.1875 1.457 0 2.5469 0.38281 3.2656 1.1406 0.72656 0.75 1.0938 1.8984 1.0938 3.4375z"/>
</symbol>
<symbol id="am" overflow="visible">
<path d="m8.1719-9.7812v1.5625c-0.46875-0.23828-0.96094-0.41406-1.4688-0.53125-0.5-0.125-1.0156-0.1875-1.5469-0.1875-0.83594 0-1.4609 0.125-1.875 0.375-0.40625 0.25-0.60938 0.63281-0.60938 1.1406 0 0.38672 0.14453 0.6875 0.4375 0.90625 0.30078 0.21875 0.89453 0.42969 1.7812 0.625l0.57812 0.125c1.1758 0.25 2.0078 0.60547 2.5 1.0625 0.5 0.46094 0.75 1.1016 0.75 1.9219 0 0.9375-0.37109 1.6836-1.1094 2.2344-0.74219 0.54297-1.7617 0.8125-3.0625 0.8125-0.54297 0-1.1094-0.054687-1.7031-0.15625-0.58594-0.10547-1.1992-0.26562-1.8438-0.48438v-1.7031c0.61328 0.3125 1.2188 0.55469 1.8125 0.71875 0.59375 0.15625 1.1797 0.23438 1.7656 0.23438 0.78125 0 1.3789-0.12891 1.7969-0.39062 0.42578-0.26953 0.64062-0.64844 0.64062-1.1406 0-0.44531-0.15234-0.78906-0.45312-1.0312-0.30469-0.23828-0.96875-0.47266-2-0.70312l-0.57812-0.125c-1.0312-0.21875-1.7773-0.55078-2.2344-1-0.44922-0.44531-0.67188-1.0625-0.67188-1.8438 0-0.94531 0.33203-1.6758 1-2.1875 0.67578-0.51953 1.6328-0.78125 2.875-0.78125 0.61328 0 1.1914 0.046875 1.7344 0.14062 0.53906 0.085938 1.0352 0.21875 1.4844 0.40625z"/>
</symbol>
<symbol id="al" overflow="visible">
<path d="m5.6562-8.9219c-0.89844 0-1.6055 0.35156-2.125 1.0469-0.51172 0.6875-0.76562 1.6367-0.76562 2.8438 0 1.2109 0.25391 2.1641 0.76562 2.8594 0.51953 0.6875 1.2266 1.0312 2.125 1.0312 0.88281 0 1.582-0.34766 2.0938-1.0469 0.51953-0.69531 0.78125-1.6445 0.78125-2.8438 0-1.1953-0.26172-2.1445-0.78125-2.8438-0.51172-0.69531-1.2109-1.0469-2.0938-1.0469zm0-1.4062c1.4375 0 2.5664 0.46875 3.3906 1.4062 0.83203 0.9375 1.25 2.2344 1.25 3.8906 0 1.6484-0.41797 2.9453-1.25 3.8906-0.82422 0.9375-1.9531 1.4062-3.3906 1.4062-1.4492 0-2.5859-0.46875-3.4062-1.4062-0.82422-0.94531-1.2344-2.2422-1.2344-3.8906 0-1.6562 0.41016-2.9531 1.2344-3.8906 0.82031-0.9375 1.957-1.4062 3.4062-1.4062zm0.84375-3.6406h1.8281v1.8125h-1.8281zm-3.5312 0h1.8281v1.8125h-1.8281z"/>
</symbol>
<symbol id="ak" overflow="visible">
<path d="m1.7344-14.016h1.6719v14.016h-1.6719z"/>
</symbol>
<symbol id="aj" overflow="visible">
<path d="m1.5469-12.219h3.1562v7.3281c0 1.0117 0.16016 1.7344 0.48438 2.1719 0.33203 0.42969 0.875 0.64062 1.625 0.64062 0.75781 0 1.3008-0.21094 1.625-0.64062 0.33203-0.4375 0.5-1.1602 0.5-2.1719v-7.3281h3.1562v7.3281c0 1.7305-0.4375 3.0156-1.3125 3.8594-0.86719 0.84375-2.1875 1.2656-3.9688 1.2656-1.7734 0-3.0938-0.42188-3.9688-1.2656-0.86719-0.84375-1.2969-2.1289-1.2969-3.8594z"/>
</symbol>
<symbol id="j" overflow="visible">
<path d="m10.641-5.5781v5.5781h-2.9531v-4.2656c0-0.78906-0.015625-1.3359-0.046875-1.6406-0.03125-0.30078-0.09375-0.52344-0.1875-0.67188-0.11719-0.1875-0.27344-0.33203-0.46875-0.4375-0.19922-0.10156-0.42188-0.15625-0.67188-0.15625-0.61719 0-1.1016 0.23438-1.4531 0.70312-0.34375 0.46875-0.51562 1.1211-0.51562 1.9531v4.5156h-2.9375v-9.1719h2.9375v1.3438c0.44531-0.53125 0.91406-0.92188 1.4062-1.1719 0.5-0.25781 1.0508-0.39062 1.6562-0.39062 1.0625 0 1.8633 0.32812 2.4062 0.98438 0.55078 0.64844 0.82812 1.5898 0.82812 2.8281z"/>
</symbol>
<symbol id="f" overflow="visible">
<path d="m1.4062-9.1719h2.9375v9.1719h-2.9375zm0-3.5625h2.9375v2.3906h-2.9375z"/>
</symbol>
<symbol id="q" overflow="visible">
<path d="m0.25-9.1719h2.9375l2.2969 6.3438 2.2812-6.3438h2.9375l-3.6094 9.1719h-3.2344z"/>
</symbol>
<symbol id="c" overflow="visible">
<path d="m10.578-4.6094v0.82812h-6.8594c0.070312 0.6875 0.31641 1.2031 0.73438 1.5469 0.42578 0.34375 1.0234 0.51562 1.7969 0.51562 0.61328 0 1.2422-0.085938 1.8906-0.26562 0.65625-0.1875 1.3203-0.46094 2-0.82812v2.25c-0.6875 0.27344-1.3828 0.46875-2.0781 0.59375-0.69922 0.13281-1.3906 0.20312-2.0781 0.20312-1.668 0-2.9648-0.42188-3.8906-1.2656-0.91797-0.84375-1.375-2.0234-1.375-3.5469 0-1.4883 0.45312-2.6602 1.3594-3.5156 0.90625-0.86328 2.1484-1.2969 3.7344-1.2969 1.4453 0 2.6016 0.4375 3.4688 1.3125 0.86328 0.86719 1.2969 2.0234 1.2969 3.4688zm-3.0156-0.96875c0-0.5625-0.16797-1.0078-0.5-1.3438-0.32422-0.34375-0.74609-0.51562-1.2656-0.51562-0.5625 0-1.0273 0.16406-1.3906 0.48438-0.35547 0.3125-0.57422 0.77344-0.65625 1.375z"/>
</symbol>
<symbol id="ad" overflow="visible">
<path d="m8.2344-6.6719c-0.26172-0.125-0.51562-0.21094-0.76562-0.26562-0.25-0.0625-0.50781-0.09375-0.76562-0.09375-0.76172 0-1.3438 0.24609-1.75 0.73438-0.40625 0.48047-0.60938 1.1719-0.60938 2.0781v4.2188h-2.9375v-9.1719h2.9375v1.5156c0.375-0.60156 0.80469-1.0391 1.2969-1.3125 0.48828-0.28125 1.0781-0.42188 1.7656-0.42188 0.09375 0 0.19531 0.007813 0.3125 0.015625 0.11328 0.011719 0.28125 0.027344 0.5 0.046875z"/>
</symbol>
<symbol id="d" overflow="visible">
<path d="m8.5938-8.875v2.2188c-0.63672-0.25781-1.2461-0.45312-1.8281-0.57812-0.58594-0.13281-1.1367-0.20312-1.6562-0.20312-0.5625 0-0.98047 0.070312-1.25 0.20312-0.26172 0.13672-0.39062 0.35156-0.39062 0.64062 0 0.24219 0.097656 0.42188 0.29688 0.54688 0.20703 0.125 0.57812 0.21875 1.1094 0.28125l0.51562 0.0625c1.5 0.19922 2.5078 0.51562 3.0312 0.95312 0.51953 0.4375 0.78125 1.1211 0.78125 2.0469 0 0.98047-0.36719 1.7148-1.0938 2.2031-0.71875 0.49219-1.793 0.73438-3.2188 0.73438-0.60547 0-1.2344-0.046875-1.8906-0.14062-0.64844-0.09375-1.3086-0.23438-1.9844-0.42188v-2.2344c0.58203 0.28125 1.1797 0.49609 1.7969 0.64062 0.61328 0.13672 1.2383 0.20312 1.875 0.20312 0.57031 0 1-0.078125 1.2812-0.23438 0.28906-0.15625 0.4375-0.39062 0.4375-0.70312 0-0.25781-0.10156-0.45312-0.29688-0.57812-0.19922-0.13281-0.59375-0.23438-1.1875-0.29688l-0.51562-0.078125c-1.3125-0.15625-2.2305-0.45312-2.75-0.89062-0.52344-0.44531-0.78125-1.125-0.78125-2.0312 0-0.96875 0.33203-1.6875 1-2.1562 0.66406-0.46875 1.6875-0.70312 3.0625-0.70312 0.53906 0 1.1094 0.042969 1.7031 0.125 0.59375 0.085937 1.2422 0.21484 1.9531 0.39062z"/>
</symbol>
<symbol id="n" overflow="visible">
<path d="m1.4062-12.734h2.9375v12.734h-2.9375z"/>
</symbol>
<symbol id="ac" overflow="visible">
<path d="m4.7031-9.8438v7.4688h1.125c1.2891 0 2.2734-0.31641 2.9531-0.95312 0.6875-0.64453 1.0312-1.5781 1.0312-2.7969 0-1.207-0.33984-2.1289-1.0156-2.7656-0.67969-0.63281-1.668-0.95312-2.9688-0.95312zm-3.1562-2.375h3.3281c1.8516 0 3.2344 0.13672 4.1406 0.40625 0.91406 0.26172 1.7031 0.70312 2.3594 1.3281 0.57031 0.55469 0.99219 1.1953 1.2656 1.9219 0.28125 0.71875 0.42188 1.5312 0.42188 2.4375 0 0.92969-0.14062 1.75-0.42188 2.4688-0.27344 0.71875-0.69531 1.3555-1.2656 1.9062-0.65625 0.63672-1.4492 1.0898-2.375 1.3594-0.91797 0.26172-2.293 0.39062-4.125 0.39062h-3.3281z"/>
</symbol>
<symbol id="s" overflow="visible">
<path d="m7.6562-1.5625c-0.40625 0.54297-0.85547 0.9375-1.3438 1.1875-0.48047 0.25-1.0391 0.375-1.6719 0.375-1.125 0-2.0586-0.4375-2.7969-1.3125-0.73047-0.88281-1.0938-2.0078-1.0938-3.375 0-1.375 0.36328-2.5 1.0938-3.375 0.73828-0.875 1.6719-1.3125 2.7969-1.3125 0.63281 0 1.1914 0.125 1.6719 0.375 0.48828 0.25 0.9375 0.64844 1.3438 1.1875v-1.3594h2.9531v8.25c0 1.4688-0.46875 2.5938-1.4062 3.375-0.92969 0.78125-2.2773 1.1719-4.0469 1.1719-0.57422 0-1.1328-0.046875-1.6719-0.14062-0.53125-0.085937-1.0703-0.21484-1.6094-0.39062v-2.2969c0.51953 0.30078 1.0234 0.51953 1.5156 0.65625 0.48828 0.14453 0.98438 0.21875 1.4844 0.21875 0.95703 0 1.6602-0.21094 2.1094-0.625 0.44531-0.41797 0.67188-1.0703 0.67188-1.9688zm-1.9375-5.7031c-0.60547 0-1.0781 0.22656-1.4219 0.67188-0.33594 0.44922-0.5 1.0859-0.5 1.9062 0 0.83594 0.16016 1.4688 0.48438 1.9062 0.33203 0.4375 0.8125 0.65625 1.4375 0.65625 0.61328 0 1.0859-0.22266 1.4219-0.67188 0.34375-0.44531 0.51562-1.0781 0.51562-1.8906 0-0.82031-0.17188-1.457-0.51562-1.9062-0.33594-0.44531-0.80859-0.67188-1.4219-0.67188z"/>
</symbol>
<symbol id="ai" overflow="visible">
<path d="m8.9688-2.2344h-4.9375l-0.78125 2.2344h-3.1719l4.5469-12.219h3.75l4.5469 12.219h-3.1719zm-4.1406-2.2656h3.3438l-1.6719-4.8594z"/>
</symbol>
<symbol id="ah" overflow="visible">
<path d="m4.625-11.766v2.5938h3.0156v2.0938h-3.0156v3.8906c0 0.42969 0.082031 0.71875 0.25 0.875 0.16406 0.14844 0.5 0.21875 1 0.21875h1.5156v2.0938h-2.5156c-1.1562 0-1.9805-0.23828-2.4688-0.71875-0.48047-0.48828-0.71875-1.3125-0.71875-2.4688v-3.8906h-1.4688v-2.0938h1.4688v-2.5938z"/>
</symbol>
<symbol id="ag" overflow="visible">
<path d="m0.078125-12.219h11.297v2.375h-4.0625v9.8438h-3.1562v-9.8438h-4.0781z"/>
</symbol>
<symbol id="af" overflow="visible">
<path d="m8.8281-8.875v2.3906c-0.39844-0.28125-0.79688-0.48438-1.2031-0.60938-0.39844-0.13281-0.8125-0.20312-1.25-0.20312-0.8125 0-1.4492 0.24219-1.9062 0.71875-0.46094 0.48047-0.6875 1.1484-0.6875 2 0 0.85547 0.22656 1.5234 0.6875 2 0.45703 0.48047 1.0938 0.71875 1.9062 0.71875 0.45703 0 0.89453-0.066406 1.3125-0.20312 0.41406-0.13281 0.79688-0.33594 1.1406-0.60938v2.4062c-0.46094 0.16797-0.92969 0.28906-1.4062 0.375-0.46875 0.082031-0.9375 0.125-1.4062 0.125-1.6562 0-2.9531-0.42188-3.8906-1.2656-0.9375-0.85156-1.4062-2.0352-1.4062-3.5469 0-1.5078 0.46875-2.6875 1.4062-3.5312 0.9375-0.85156 2.2344-1.2812 3.8906-1.2812 0.47656 0 0.95312 0.042969 1.4219 0.125 0.46875 0.085937 0.92969 0.21484 1.3906 0.39062z"/>
</symbol>
<symbol id="ae" overflow="visible">
<path d="m10.641-5.5781v5.5781h-2.9531v-4.25c0-0.80078-0.015625-1.3516-0.046875-1.6562-0.03125-0.30078-0.09375-0.52344-0.1875-0.67188-0.11719-0.1875-0.27344-0.33203-0.46875-0.4375-0.19922-0.10156-0.42188-0.15625-0.67188-0.15625-0.61719 0-1.1016 0.23438-1.4531 0.70312-0.34375 0.46875-0.51562 1.1211-0.51562 1.9531v4.5156h-2.9375v-12.734h2.9375v4.9062c0.44531-0.53125 0.91406-0.92188 1.4062-1.1719 0.5-0.25781 1.0508-0.39062 1.6562-0.39062 1.0625 0 1.8633 0.32812 2.4062 0.98438 0.55078 0.64844 0.82812 1.5898 0.82812 2.8281z"/>
</symbol>
<symbol id="r" overflow="visible">
<path d="m5.7812-7.2969c-0.64844 0-1.1406 0.23438-1.4844 0.70312s-0.51562 1.1406-0.51562 2.0156 0.17188 1.5469 0.51562 2.0156 0.83594 0.70312 1.4844 0.70312c0.63281 0 1.125-0.23438 1.4688-0.70312s0.51562-1.1406 0.51562-2.0156-0.17188-1.5469-0.51562-2.0156-0.83594-0.70312-1.4688-0.70312zm0-2.0938c1.582 0 2.8164 0.42969 3.7031 1.2812 0.88281 0.85547 1.3281 2.0312 1.3281 3.5312 0 1.5117-0.44531 2.6953-1.3281 3.5469-0.88672 0.84375-2.1211 1.2656-3.7031 1.2656-1.5859 0-2.8242-0.42188-3.7188-1.2656-0.89844-0.85156-1.3438-2.0352-1.3438-3.5469 0-1.5 0.44531-2.6758 1.3438-3.5312 0.89453-0.85156 2.1328-1.2812 3.7188-1.2812z"/>
</symbol>
<filter id="au" x="0%" y="0%" width="100%" height="100%">
<feColorMatrix in="SourceGraphic" values="0 0 0 0 1 0 0 0 0 1 0 0 0 0 1 0 0 0 1 0"/>
</filter>
<mask id="ab">
<g filter="url(#au)">
<rect width="800" height="216" fill-opacity=".2"/>
</g>
</mask>
<clipPath id="at">
<rect width="801" height="217"/>
</clipPath>
<g id="aa" clip-path="url(#at)">
<path transform="matrix(1.6796 0 0 1.676 38.319 10.37)" d="m133.62 77.66v-24.387h-6.2282l10.214-14.43 10.212 14.43h-6.2259v24.387zm0 0" fill="#50dc9d" stroke="#000" stroke-linecap="round"/>
<path transform="matrix(1.6796 0 0 1.676 38.319 10.37)" d="m287.43 38.671v24.384h-6.2282l10.214 14.432 10.212-14.432h-6.2282v-24.384zm0 0" fill="#50dc9d" stroke="#000" stroke-linecap="round"/>
</g>
</defs>
<path transform="matrix(1.6796 0 0 1.676 38.319 10.37)" d="m83.328 38.708h108.55v39.092h-108.55zm0 0" fill="#2b8059" stroke="#000" stroke-linecap="round" stroke-width="1.5"/>
<path transform="matrix(1.6796 0 0 1.676 38.319 10.37)" d="m83.328 77.799h108.55v39.092h-108.55zm0 0" fill="#3eaf7c" stroke="#000" stroke-linecap="round" stroke-width="1.5"/>
<path transform="matrix(1.6796 0 0 -1.676 38.319 10.37)" d="m237.14-77.622h108.55v39.094h-108.55zm0 0" fill="#2b8059" stroke="#000" stroke-linecap="round" stroke-width="1.5"/>
<path transform="matrix(1.6796 0 0 1.676 38.319 10.37)" d="m237.14-0.38365h108.55v39.092h-108.55zm0 0" fill="#3eaf7c" stroke="#000" stroke-linecap="round" stroke-width="1.5"/>
<path transform="matrix(1.6796 0 0 1.676 38.319 10.37)" d="m359.69 38.708v36.036" fill="none" stroke="#000" stroke-linecap="round" stroke-width="1.5"/>
<path d="m648.56 122.49-6.0742 16.48-6.0742-16.48c3.5859 2.6328 8.4922 2.6172 12.148 0z" fill-rule="evenodd"/>
<path transform="matrix(1.6796 0 0 1.676 38.319 10.37)" d="m69.328 77.799v-36.169" fill="none" stroke="#000" stroke-linecap="round" stroke-width="1.5"/>
<path d="m148.66 93.293 6.0742-16.48 6.0703 16.48c-3.5859-2.6328-8.4922-2.6172-12.145 0z" fill-rule="evenodd"/>
<path transform="matrix(1.6796 0 0 1.676 38.319 10.37)" d="m228.91 41.682v9.7962m0 13.726v9.6237" fill="none" stroke="#000" stroke-linecap="round" stroke-width="1.5"/>
<path d="m416.7 93.379 6.0703-16.48 6.0742 16.48c-3.5859-2.6328-8.4922-2.6172-12.145 0z" fill-rule="evenodd"/>
<path d="m428.89 122.63-6.0703 16.48-6.0742-16.48c3.5859 2.6328 8.4922 2.6172 12.145 0z" fill-rule="evenodd"/>
<path transform="matrix(1.6796 0 0 1.676 38.319 10.37)" d="m200.09 41.682v9.7962m0 13.726v9.6237" fill="none" stroke="#000" stroke-linecap="round" stroke-width="1.5"/>
<path d="m368.29 93.379 6.0703-16.48 6.0742 16.48c-3.5859-2.6328-8.4922-2.6172-12.145 0z" fill-rule="evenodd"/>
<path d="m380.48 122.63-6.0742 16.48-6.0742-16.48c3.5859 2.6328 8.4922 2.6172 12.148 0z" fill-rule="evenodd"/>
<path transform="matrix(1.6796 0 0 1.676 38.319 10.37)" d="m214.51 41.682v9.7962m0 13.726v9.6237" fill="none" stroke="#000" stroke-linecap="round" stroke-width="1.5"/>
<path d="m392.51 93.379 6.0742-16.48 6.0742 16.48c-3.5859-2.6328-8.4922-2.6172-12.148 0z" fill-rule="evenodd"/>
<path d="m404.71 122.63-6.0742 16.48-6.0703-16.48c3.5859 2.6328 8.4883 2.6172 12.145 0z" fill-rule="evenodd"/>
<path transform="matrix(1.6796 0 0 1.676 38.319 10.37)" d="m91.775 77.461v-24.384h-6.2259l10.212-14.432 10.214 14.432h-6.2282v24.384zm0 0" fill="#50dc9d" stroke="#000" stroke-linecap="round"/>
<path transform="matrix(1.6796 0 0 1.676 38.319 10.37)" d="m175.46 77.461v-24.384h-6.2282l10.212-14.432 10.214 14.432h-6.2282v24.384zm0 0" fill="#50dc9d" stroke="#000" stroke-linecap="round"/>
<path transform="matrix(1.6796 0 0 1.676 38.319 10.37)" d="m245.59 38.866v24.387h-6.2282l10.214 14.432 10.214-14.432h-6.2282v-24.387zm0 0" fill="#50dc9d" stroke="#000" stroke-linecap="round"/>
<path transform="matrix(1.6796 0 0 1.676 38.319 10.37)" d="m329.27 38.866v24.387h-6.2259l10.212 14.432 10.214-14.432h-6.2282v-24.387zm0 0" fill="#50dc9d" stroke="#000" stroke-linecap="round"/>
<use mask="url(#ab)" xlink:href="#aa"/>
<path transform="matrix(1.6796 0 0 1.676 38.319 10.37)" d="m345.69 77.799h4.0444m1.9443 0h4.0444m1.9443 0h4.0444m1.9443 0h4.0467m1.9443 0h4.0444" fill="none" stroke="#000" stroke-width="1.5"/>
<path transform="matrix(1.6796 0 0 1.676 38.319 10.37)" d="m345.69 38.708h4.0444m1.9443 0h4.0444m1.9443 0h4.0444m1.9443 0h4.0444m1.9466 0h4.0444" fill="none" stroke="#000" stroke-width="1.5"/>
<path transform="matrix(1.6796 0 0 1.676 38.319 10.37)" d="m191.88 38.708h4.5258m2.2629 0h4.5281m2.2629 0h4.5258m2.2629 0h4.5258m2.2652 0h4.5258m2.2629 0h4.5258m2.2629 0h4.5281" fill="none" stroke="#000" stroke-width="1.5"/>
<path transform="matrix(1.6796 0 0 1.676 38.319 10.37)" d="m55.327 38.708h4.0444m1.9443 0h4.0444m1.9443 0h4.0444m1.9443 0h4.0467m1.9443 0h4.0444" fill="none" stroke="#000" stroke-width="1.5"/>
<path transform="matrix(1.6796 0 0 1.676 38.319 10.37)" d="m55.327 77.799h4.0444m1.9443 0h4.0444m1.9443 0h4.0444m1.9443 0h4.0467m1.9443 0h4.0444" fill="none" stroke="#000" stroke-width="1.5"/>
<path transform="matrix(1.6796 0 0 1.676 38.319 10.37)" d="m191.88 77.799h4.5258m2.2629 0h4.5281m2.2629 0h4.5258m2.2629 0h4.5258m2.2652 0h4.5258m2.2629 0h4.5258m2.2629 0h4.5281" fill="none" stroke="#000" stroke-width="1.5"/>
<g>
<use x="661.015625" y="100.581817" xlink:href="#z"/>
<use x="674.452472" y="100.581817" xlink:href="#aq"/>
<use x="686.209713" y="100.581817" xlink:href="#b"/>
<use x="697.966954" y="100.581817" xlink:href="#a"/>
<use x="709.724195" y="100.581817" xlink:href="#h"/>
<use x="721.481437" y="100.581817" xlink:href="#u"/>
<use x="739.957101" y="100.581817" xlink:href="#a"/>
<use x="751.714342" y="100.581817" xlink:href="#b"/>
<use x="763.471583" y="100.581817" xlink:href="#g"/>
<use x="775.228825" y="100.581817" xlink:href="#a"/>
</g>
<g>
<use x="653.457031" y="123.624786" xlink:href="#z"/>
<use x="666.893878" y="123.624786" xlink:href="#b"/>
<use x="678.651119" y="123.624786" xlink:href="#t"/>
<use x="685.369543" y="123.624786" xlink:href="#o"/>
<use x="697.126784" y="123.624786" xlink:href="#e"/>
<use x="703.845208" y="123.624786" xlink:href="#g"/>
<use x="715.602449" y="123.624786" xlink:href="#a"/>
<use x="727.35969" y="123.624786" xlink:href="#e"/>
<use x="735.757719" y="123.624786" xlink:href="#m"/>
<use x="747.51496" y="123.624786" xlink:href="#b"/>
<use x="759.272201" y="123.624786" xlink:href="#l"/>
<use x="771.029443" y="123.624786" xlink:href="#a"/>
<use x="782.786684" y="123.624786" xlink:href="#b"/>
</g>
<g>
<use x="6.242188" y="100.581817" xlink:href="#as"/>
<use x="19.679035" y="100.581817" xlink:href="#m"/>
<use x="31.436276" y="100.581817" xlink:href="#b"/>
<use x="43.193517" y="100.581817" xlink:href="#a"/>
<use x="54.950758" y="100.581817" xlink:href="#h"/>
<use x="66.707999" y="100.581817" xlink:href="#u"/>
<use x="85.183664" y="100.581817" xlink:href="#a"/>
<use x="96.940905" y="100.581817" xlink:href="#b"/>
<use x="108.698146" y="100.581817" xlink:href="#g"/>
<use x="120.455387" y="100.581817" xlink:href="#a"/>
</g>
<g>
<use x="16.320312" y="123.624786" xlink:href="#y"/>
<use x="24.718342" y="123.624786" xlink:href="#x"/>
<use x="36.475583" y="123.624786" xlink:href="#h"/>
<use x="48.232824" y="123.624786" xlink:href="#i"/>
<use x="53.271642" y="123.624786" xlink:href="#l"/>
<use x="65.028883" y="123.624786" xlink:href="#k"/>
<use x="75.106518" y="123.624786" xlink:href="#a"/>
<use x="86.863759" y="123.624786" xlink:href="#i"/>
<use x="91.902577" y="123.624786" xlink:href="#p"/>
<use x="98.621" y="123.624786" xlink:href="#a"/>
<use x="110.378242" y="123.624786" xlink:href="#b"/>
</g>
<g>
<use x="371.722656" y="114.050567" xlink:href="#ar"/>
<use x="381.800292" y="114.050567" xlink:href="#ap"/>
<use x="393.557533" y="114.050567" xlink:href="#w"/>
<use x="403.635168" y="114.050567" xlink:href="#k"/>
<use x="413.712803" y="114.050567" xlink:href="#a"/>
</g>
<g>
<use x="489.933594" y="37.835724" xlink:href="#v"/>
<use x="500.011229" y="37.835724" xlink:href="#e"/>
<use x="506.729653" y="37.835724" xlink:href="#o"/>
<use x="518.486894" y="37.835724" xlink:href="#g"/>
<use x="530.244135" y="37.835724" xlink:href="#m"/>
<use x="542.001376" y="37.835724" xlink:href="#k"/>
<use x="552.079011" y="37.835724" xlink:href="#p"/>
<use x="558.797435" y="37.835724" xlink:href="#ao"/>
</g>
<g>
<use x="458.023438" y="60.878692" xlink:href="#an"/>
<use x="469.780679" y="60.878692" xlink:href="#b"/>
<use x="481.53792" y="60.878692" xlink:href="#t"/>
<use x="488.256343" y="60.878692" xlink:href="#o"/>
<use x="500.013584" y="60.878692" xlink:href="#e"/>
<use x="506.732008" y="60.878692" xlink:href="#g"/>
<use x="518.489249" y="60.878692" xlink:href="#a"/>
<use x="530.24649" y="60.878692" xlink:href="#e"/>
<use x="538.64452" y="60.878692" xlink:href="#m"/>
<use x="550.401761" y="60.878692" xlink:href="#b"/>
<use x="562.159002" y="60.878692" xlink:href="#l"/>
<use x="573.916243" y="60.878692" xlink:href="#a"/>
<use x="585.673484" y="60.878692" xlink:href="#b"/>
</g>
<g fill="#fff">
<use x="469.902344" y="101.263621" xlink:href="#aj"/>
<use x="483.339191" y="101.263621" xlink:href="#j"/>
<use x="495.096432" y="101.263621" xlink:href="#f"/>
<use x="500.13525" y="101.263621" xlink:href="#q"/>
<use x="511.892491" y="101.263621" xlink:href="#c"/>
<use x="523.649732" y="101.263621" xlink:href="#ad"/>
<use x="532.047761" y="101.263621" xlink:href="#d"/>
<use x="542.125396" y="101.263621" xlink:href="#c"/>
<use x="553.882638" y="101.263621" xlink:href="#n"/>
<use x="558.921455" y="101.263621" xlink:href="#n"/>
<use x="563.960273" y="101.263621" xlink:href="#c"/>
<use x="575.717514" y="101.263621" xlink:href="#d"/>
</g>
<g fill="#fff">
<use x="495.933594" y="122.21284" xlink:href="#ac"/>
<use x="509.370441" y="122.21284" xlink:href="#c"/>
<use x="521.127682" y="122.21284" xlink:href="#d"/>
<use x="531.205317" y="122.21284" xlink:href="#f"/>
<use x="536.244135" y="122.21284" xlink:href="#s"/>
<use x="548.001376" y="122.21284" xlink:href="#j"/>
</g>
<g fill="#fff">
<use x="226.910156" y="101.564402" xlink:href="#ai"/>
<use x="240.347003" y="101.564402" xlink:href="#d"/>
<use x="250.424639" y="101.564402" xlink:href="#d"/>
<use x="260.502274" y="101.564402" xlink:href="#f"/>
<use x="265.541091" y="101.564402" xlink:href="#d"/>
<use x="275.618727" y="101.564402" xlink:href="#ah"/>
<use x="284.016756" y="101.564402" xlink:href="#f"/>
<use x="289.055574" y="101.564402" xlink:href="#q"/>
<use x="300.812815" y="101.564402" xlink:href="#c"/>
</g>
<g fill="#fff">
<use x="208.433594" y="122.513621" xlink:href="#ag"/>
<use x="216.831623" y="122.513621" xlink:href="#c"/>
<use x="228.588864" y="122.513621" xlink:href="#af"/>
<use x="238.6665" y="122.513621" xlink:href="#ae"/>
<use x="250.423741" y="122.513621" xlink:href="#j"/>
<use x="262.180982" y="122.513621" xlink:href="#r"/>
<use x="273.938223" y="122.513621" xlink:href="#n"/>
<use x="278.977041" y="122.513621" xlink:href="#r"/>
<use x="290.734282" y="122.513621" xlink:href="#s"/>
<use x="302.491523" y="122.513621" xlink:href="#f"/>
<use x="307.53034" y="122.513621" xlink:href="#c"/>
<use x="319.287582" y="122.513621" xlink:href="#j"/>
</g>
<g>
<use x="215.992188" y="167.081817" xlink:href="#v"/>
<use x="226.069823" y="167.081817" xlink:href="#a"/>
<use x="237.827064" y="167.081817" xlink:href="#e"/>
<use x="246.225093" y="167.081817" xlink:href="#am"/>
<use x="256.302729" y="167.081817" xlink:href="#al"/>
<use x="268.05997" y="167.081817" xlink:href="#b"/>
<use x="279.817211" y="167.081817" xlink:href="#ak"/>
<use x="284.856028" y="167.081817" xlink:href="#i"/>
<use x="289.894846" y="167.081817" xlink:href="#w"/>
<use x="299.972481" y="167.081817" xlink:href="#h"/>
<use x="311.729722" y="167.081817" xlink:href="#a"/>
</g>
<g>
<use x="216.832031" y="190.124786" xlink:href="#y"/>
<use x="225.230061" y="190.124786" xlink:href="#x"/>
<use x="236.987302" y="190.124786" xlink:href="#h"/>
<use x="248.744543" y="190.124786" xlink:href="#i"/>
<use x="253.783361" y="190.124786" xlink:href="#l"/>
<use x="265.540602" y="190.124786" xlink:href="#k"/>
<use x="275.618237" y="190.124786" xlink:href="#a"/>
<use x="287.375478" y="190.124786" xlink:href="#i"/>
<use x="292.414296" y="190.124786" xlink:href="#p"/>
<use x="299.132719" y="190.124786" xlink:href="#a"/>
<use x="310.88996" y="190.124786" xlink:href="#b"/>
</g>
</svg>
