<?xml version="1.0" encoding="UTF-8"?>
<svg width="600px" height="222px" version="1.1" viewBox="0 0 600 222" xmlns="http://www.w3.org/2000/svg" xmlns:xlink="http://www.w3.org/1999/xlink">
<defs>
<symbol id="a" overflow="visible">
<path d="m4.7188-37.516h9.6562v14.297h14.25v-14.297h9.6719v37.516h-9.6719v-15.906h-14.25v15.906h-9.6562z"/>
</symbol>
</defs>
<path transform="matrix(2.1415 0 0 2.1436 15.184 -7.0871)" d="m20.324 36.429-20.324 58.42c18.671 7.4676 41.075 7.4676 59.746 0l-20.331-58.42c-6.326 0.72161-12.765 0.72161-19.091 0z" fill="#fff" stroke="#000" stroke-linejoin="round" stroke-width="2.8226"/>
<path transform="matrix(2.1415 0 0 2.1436 15.184 -7.0871)" d="m44.805 24.654c0 8.2494-6.6871 14.937-14.936 14.937s-14.937-6.6877-14.937-14.937c0-8.2494 6.6889-14.937 14.937-14.937s14.936 6.6877 14.936 14.937z" fill="#fff" stroke="#000" stroke-width="2.8226"/>
<path d="m100.32 40.973c0 4.4219-3.5781 8.0078-7.9961 8.0078-4.4141 0-7.9961-3.5859-7.9961-8.0078 0-4.418 3.582-8.0039 7.9961-8.0039 4.418 0 7.9961 3.5859 7.9961 8.0039z"/>
<path transform="matrix(2.1415 0 0 2.1436 15.184 -7.0871)" d="m137.05 36.429-20.322 58.42c18.67 7.4676 41.075 7.4676 59.746 0l-20.331-58.42c-6.326 0.72161-12.765 0.72161-19.093 0z" fill="#fff" stroke="#000" stroke-linejoin="round" stroke-width="2.8226"/>
<path transform="matrix(2.1415 0 0 2.1436 15.184 -7.0871)" d="m161.53 24.654c0 8.2494-6.6871 14.937-14.936 14.937-8.2504 0-14.937-6.6877-14.937-14.937 0-8.2494 6.6871-14.937 14.937-14.937 8.2485 0 14.936 6.6877 14.936 14.937z" fill="#fff" stroke="#000" stroke-width="2.8226"/>
<path d="m350.29 40.973c0 4.4219-3.5781 8.0078-7.9961 8.0078s-7.9961-3.5859-7.9961-8.0078c0-4.418 3.5781-8.0039 7.9961-8.0039s7.9961 3.5859 7.9961 8.0039z"/>
<path transform="matrix(2.1415 0 0 2.1436 15.184 -7.0871)" d="m187.85 61.58h29.999v30h-29.999z" fill="#fff" stroke="#000" stroke-width="2.8346"/>
<g>
<use x="428.078125" y="175.824798" xlink:href="#a"/>
</g>
<path transform="matrix(2.1415 0 0 2.1436 15.184 -7.0871)" d="m33.052 53.571 35.572-18.357" fill="none" stroke="#000" stroke-width="2.8346"/>
<path d="m179.59 73.738c0 4.4375-7.1914 8.0391-16.062 8.0391s-16.062-3.6016-16.062-8.0391c0-4.4414 7.1914-8.0391 16.062-8.0391s16.062 3.5977 16.062 8.0391z"/>
<path d="m152.41 89.52h22.234c1.7734 0 3.2109 1.4375 3.2109 3.2148v54.113c0 1.7773-1.4375 3.2148-3.2109 3.2148h-22.234c-1.7734 0-3.2109-1.4375-3.2109-3.2148v-54.113c0-1.7773 1.4375-3.2148 3.2109-3.2148z"/>
<path transform="matrix(2.1415 0 0 2.1436 35.188 -398.95)" d="m59.932 220.65v7.2234" fill="none" stroke="#000" stroke-width="2.8346"/>
<path transform="matrix(2.1415 0 0 2.1436 15.184 -7.0871)" d="m217.85 61.58 45-48.749" fill="none" stroke="#000" stroke-width="2.8346"/>
<path d="m587.84 73.738c0 4.4375-7.1875 8.0391-16.059 8.0391s-16.062-3.6016-16.062-8.0391c0-4.4414 7.1914-8.0391 16.062-8.0391s16.059 3.5977 16.059 8.0391z"/>
<path d="m560.66 89.52h22.234c1.7734 0 3.2109 1.4375 3.2109 3.2148v54.113c0 1.7773-1.4375 3.2148-3.2109 3.2148h-22.234c-1.7734 0-3.2109-1.4375-3.2109-3.2148v-54.113c0-1.7773 1.4375-3.2148 3.2109-3.2148z"/>
<path transform="matrix(2.1415 0 0 2.1436 443.43 -398.95)" d="m59.933 220.65v7.2234" fill="none" stroke="#000" stroke-width="2.8346"/>
<path transform="matrix(2.1415 0 0 2.1436 15.184 -7.0871)" d="m259.91 37.843v-21.262" fill="none" stroke="#000" stroke-width=".75"/>
<path transform="matrix(2.1415 0 0 2.1436 15.184 -7.0871)" d="m158.73 33.361h44.117v24.535" fill="none" stroke="#000" stroke-width="1.5"/>
<path d="m457.36 100.2-7.7422 21.078-7.7422-21.078c4.5703 3.3672 10.824 3.3477 15.484 0z" fill-rule="evenodd"/>
</svg>
