<?xml version="1.0" encoding="UTF-8"?>
<svg width="800px" height="260px" version="1.1" viewBox="0 0 800 260" xmlns="http://www.w3.org/2000/svg" xmlns:xlink="http://www.w3.org/1999/xlink">
<defs>
<symbol id="p" overflow="visible">
<path d="m0.875-19.141h2.6094l4.0156 16.172 4.0156-16.172h2.9062l4.0312 16.172 4-16.172h2.625l-4.7969 19.141h-3.25l-4.0469-16.625-4.0625 16.625h-3.2656z"/>
</symbol>
<symbol id="b" overflow="visible">
<path d="m2.4688-14.359h2.3594v14.359h-2.3594zm0-5.5938h2.3594v2.9844h-2.3594z"/>
</symbol>
<symbol id="a" overflow="visible">
<path d="m14.75-7.7656v1.1406h-10.844c0.10156 1.625 0.59375 2.8672 1.4688 3.7188 0.875 0.85547 2.0938 1.2812 3.6562 1.2812 0.90625 0 1.7812-0.10938 2.625-0.32812 0.85156-0.22656 1.6953-0.56641 2.5312-1.0156v2.2344c-0.84375 0.36719-1.7109 0.64062-2.5938 0.82812-0.88672 0.1875-1.7891 0.28125-2.7031 0.28125-2.293 0-4.1055-0.66406-5.4375-2-1.3359-1.332-2-3.1406-2-5.4219 0-2.3438 0.62891-4.2031 1.8906-5.5781 1.2695-1.3828 2.9844-2.0781 5.1406-2.0781 1.9258 0 3.4531 0.62109 4.5781 1.8594 1.125 1.2422 1.6875 2.9336 1.6875 5.0781zm-2.3594-0.70312c-0.023437-1.2891-0.38672-2.3164-1.0938-3.0781-0.69922-0.76953-1.6328-1.1562-2.7969-1.1562-1.3125 0-2.3672 0.37109-3.1562 1.1094-0.79297 0.74219-1.2461 1.7891-1.3594 3.1406z"/>
</symbol>
<symbol id="j" overflow="visible">
<path d="m11.906-12.188v-7.7656h2.3594v19.953h-2.3594v-2.1562c-0.49219 0.85547-1.1172 1.4922-1.875 1.9062-0.75 0.41406-1.6562 0.625-2.7188 0.625-1.7305 0-3.1406-0.69141-4.2344-2.0781-1.0859-1.3828-1.625-3.207-1.625-5.4688 0-2.2578 0.53906-4.0781 1.625-5.4531 1.0938-1.3828 2.5039-2.0781 4.2344-2.0781 1.0625 0 1.9688 0.21094 2.7188 0.625 0.75781 0.40625 1.3828 1.0391 1.875 1.8906zm-8.0312 5.0156c0 1.7422 0.35156 3.1055 1.0625 4.0938 0.71875 0.98047 1.7031 1.4688 2.9531 1.4688s2.2266-0.48828 2.9375-1.4688c0.71875-0.98828 1.0781-2.3516 1.0781-4.0938 0-1.7266-0.35938-3.0859-1.0781-4.0781-0.71094-0.98828-1.6875-1.4844-2.9375-1.4844s-2.2344 0.49609-2.9531 1.4844c-0.71094 0.99219-1.0625 2.3516-1.0625 4.0781z"/>
</symbol>
<symbol id="e" overflow="visible">
<path d="m10.781-12.156c-0.26172-0.15625-0.54688-0.26953-0.85938-0.34375-0.3125-0.070312-0.65625-0.10938-1.0312-0.10938-1.3359 0-2.3594 0.4375-3.0781 1.3125-0.71094 0.86719-1.0625 2.1094-1.0625 3.7344v7.5625h-2.375v-14.359h2.375v2.2344c0.5-0.875 1.1445-1.5195 1.9375-1.9375 0.78906-0.42578 1.7539-0.64062 2.8906-0.64062 0.16406 0 0.34766 0.011719 0.54688 0.03125 0.19531 0.023437 0.41016 0.054687 0.64062 0.09375z"/>
</symbol>
<symbol id="k" overflow="visible">
<path d="m14.391-8.6719v8.6719h-2.3438v-8.5938c0-1.3516-0.26562-2.3672-0.79688-3.0469-0.53125-0.67578-1.3281-1.0156-2.3906-1.0156-1.2734 0-2.2773 0.40625-3.0156 1.2188-0.73047 0.8125-1.0938 1.918-1.0938 3.3125v8.125h-2.375v-19.953h2.375v7.8281c0.5625-0.86328 1.2227-1.5078 1.9844-1.9375 0.76953-0.42578 1.6562-0.64062 2.6562-0.64062 1.6445 0 2.8906 0.51172 3.7344 1.5312 0.84375 1.0234 1.2656 2.5234 1.2656 4.5z"/>
</symbol>
<symbol id="i" overflow="visible">
<path d="m11.625-13.938v2.2344c-0.66797-0.34375-1.3594-0.59766-2.0781-0.76562-0.71875-0.17578-1.4648-0.26562-2.2344-0.26562-1.168 0-2.0469 0.18359-2.6406 0.54688-0.58594 0.35547-0.875 0.89062-0.875 1.6094 0 0.54297 0.20703 0.96875 0.625 1.2812 0.42578 0.3125 1.2695 0.60938 2.5312 0.89062l0.8125 0.1875c1.6641 0.35547 2.8516 0.85938 3.5625 1.5156 0.70703 0.65625 1.0625 1.5703 1.0625 2.7344 0 1.3359-0.53125 2.3906-1.5938 3.1719-1.0547 0.78125-2.5 1.1719-4.3438 1.1719-0.77344 0-1.5742-0.078125-2.4062-0.23438-0.82422-0.14453-1.6992-0.36719-2.625-0.67188v-2.4375c0.875 0.46094 1.7344 0.80469 2.5781 1.0312 0.84375 0.21875 1.6758 0.32812 2.5 0.32812 1.1133 0 1.9688-0.1875 2.5625-0.5625 0.60156-0.38281 0.90625-0.92188 0.90625-1.6094 0-0.64453-0.21875-1.1328-0.65625-1.4688-0.42969-0.34375-1.3711-0.67578-2.8281-1l-0.82812-0.1875c-1.4609-0.3125-2.5117-0.78516-3.1562-1.4219-0.64844-0.63281-0.96875-1.5078-0.96875-2.625 0-1.3438 0.47266-2.3789 1.4219-3.1094 0.95703-0.73828 2.3164-1.1094 4.0781-1.1094 0.875 0 1.6914 0.0625 2.4531 0.1875 0.76953 0.125 1.4844 0.32031 2.1406 0.57812z"/>
</symbol>
<symbol id="h" overflow="visible">
<path d="m4.7969-18.438v4.0781h4.8594v1.8281h-4.8594v7.7969c0 1.1797 0.16016 1.9336 0.48438 2.2656 0.32031 0.33594 0.97266 0.5 1.9531 0.5h2.4219v1.9688h-2.4219c-1.8125 0-3.0703-0.33594-3.7656-1.0156-0.6875-0.6875-1.0312-1.9258-1.0312-3.7188v-7.7969h-1.7344v-1.8281h1.7344v-4.0781z"/>
</symbol>
<symbol id="g" overflow="visible">
<path d="m2.4688-19.953h2.3594v19.953h-2.3594z"/>
</symbol>
<symbol id="f" overflow="visible">
<path d="m2.2344-5.6719v-8.6875h2.3438v8.5938c0 1.3672 0.26562 2.3867 0.79688 3.0625 0.53125 0.67969 1.3281 1.0156 2.3906 1.0156 1.2695 0 2.2734-0.39844 3.0156-1.2031 0.73828-0.8125 1.1094-1.9219 1.1094-3.3281v-8.1406h2.3594v14.359h-2.3594v-2.2031c-0.57422 0.875-1.2422 1.5273-2 1.9531-0.75 0.41406-1.625 0.625-2.625 0.625-1.6484 0-2.8984-0.50781-3.75-1.5312-0.85547-1.0312-1.2812-2.5352-1.2812-4.5156z"/>
</symbol>
<symbol id="d" overflow="visible">
<path d="m14.391-8.6719v8.6719h-2.3438v-8.5938c0-1.3516-0.26562-2.3672-0.79688-3.0469-0.53125-0.67578-1.3281-1.0156-2.3906-1.0156-1.2734 0-2.2773 0.40625-3.0156 1.2188-0.73047 0.8125-1.0938 1.918-1.0938 3.3125v8.125h-2.375v-14.359h2.375v2.2344c0.5625-0.86328 1.2227-1.5078 1.9844-1.9375 0.76953-0.42578 1.6562-0.64062 2.6562-0.64062 1.6445 0 2.8906 0.51172 3.7344 1.5312 0.84375 1.0234 1.2656 2.5234 1.2656 4.5z"/>
</symbol>
<symbol id="c" overflow="visible">
<path d="m11.906-7.3438c0-1.707-0.35547-3.0312-1.0625-3.9688-0.69922-0.94531-1.6836-1.4219-2.9531-1.4219-1.2617 0-2.2461 0.47656-2.9531 1.4219-0.71094 0.9375-1.0625 2.2617-1.0625 3.9688 0 1.6992 0.35156 3.0234 1.0625 3.9688 0.70703 0.9375 1.6914 1.4062 2.9531 1.4062 1.2695 0 2.2539-0.46875 2.9531-1.4062 0.70703-0.94531 1.0625-2.2695 1.0625-3.9688zm2.3594 5.5625c0 2.4453-0.54297 4.2656-1.625 5.4531-1.0859 1.1953-2.7461 1.7969-4.9844 1.7969-0.82422 0-1.6055-0.0625-2.3438-0.1875-0.73047-0.125-1.4453-0.32031-2.1406-0.57812v-2.2969c0.69531 0.375 1.3789 0.64844 2.0469 0.82812 0.67578 0.1875 1.3633 0.28125 2.0625 0.28125 1.5508 0 2.707-0.40625 3.4688-1.2188 0.76953-0.80469 1.1562-2.0234 1.1562-3.6562v-1.1719c-0.48047 0.85547-1.1016 1.4922-1.8594 1.9062-0.76172 0.41797-1.6719 0.625-2.7344 0.625-1.7617 0-3.1797-0.67188-4.25-2.0156-1.0742-1.3438-1.6094-3.1172-1.6094-5.3281 0-2.2266 0.53516-4.0078 1.6094-5.3438 1.0703-1.3438 2.4883-2.0156 4.25-2.0156 1.0625 0 1.9727 0.21094 2.7344 0.625 0.75781 0.41797 1.3789 1.0469 1.8594 1.8906v-2.1719h2.3594z"/>
</symbol>
<symbol id="o" overflow="visible">
<path d="m2.2812-19.141h2.5938v11.625c0 2.0547 0.36719 3.5312 1.1094 4.4375 0.75 0.89844 1.957 1.3438 3.625 1.3438 1.6562 0 2.8516-0.44531 3.5938-1.3438 0.75-0.90625 1.125-2.3828 1.125-4.4375v-11.625h2.5938v11.953c0 2.4922-0.62109 4.375-1.8594 5.6562-1.2305 1.2734-3.0469 1.9062-5.4531 1.9062-2.418 0-4.2461-0.63281-5.4844-1.9062-1.2305-1.2812-1.8438-3.1641-1.8438-5.6562zm8.5312-4.8438h2.6094v2.6094h-2.6094zm-5 0h2.5938v2.6094h-2.5938z"/>
</symbol>
<symbol id="n" overflow="visible">
<path d="m12.766-7.1719c0-1.7266-0.35938-3.0859-1.0781-4.0781-0.71094-0.98828-1.6836-1.4844-2.9219-1.4844-1.25 0-2.2344 0.49609-2.9531 1.4844-0.71094 0.99219-1.0625 2.3516-1.0625 4.0781 0 1.7422 0.35156 3.1055 1.0625 4.0938 0.71875 0.98047 1.7031 1.4688 2.9531 1.4688 1.2383 0 2.2109-0.48828 2.9219-1.4688 0.71875-0.98828 1.0781-2.3516 1.0781-4.0938zm-8.0156-5.0156c0.5-0.85156 1.125-1.4844 1.875-1.8906 0.75781-0.41406 1.6641-0.625 2.7188-0.625 1.7383 0 3.1484 0.69531 4.2344 2.0781 1.0938 1.375 1.6406 3.1953 1.6406 5.4531 0 2.2617-0.54688 4.0859-1.6406 5.4688-1.0859 1.3867-2.4961 2.0781-4.2344 2.0781-1.0547 0-1.9609-0.21094-2.7188-0.625-0.75-0.41406-1.375-1.0508-1.875-1.9062v2.1562h-2.375v-19.953h2.375z"/>
</symbol>
<symbol id="m" overflow="visible">
<path d="m1.1094-14.359h2.3438l2.9531 11.203 2.9375-11.203h2.7812l2.9375 11.203 2.9375-11.203h2.3594l-3.7656 14.359h-2.7656l-3.0938-11.766-3.0938 11.766h-2.7812z"/>
</symbol>
<symbol id="l" overflow="visible">
<path d="m5.1562-9.1406v7.0156h4.1562c1.3945 0 2.4258-0.28516 3.0938-0.85938 0.66406-0.58203 1-1.4688 1-2.6562 0-1.1953-0.33594-2.0781-1-2.6406-0.66797-0.57031-1.6992-0.85938-3.0938-0.85938zm0-7.875v5.7656h3.8438c1.2578 0 2.1953-0.23438 2.8125-0.70312 0.625-0.47656 0.9375-1.207 0.9375-2.1875 0-0.95703-0.3125-1.6758-0.9375-2.1562-0.61719-0.47656-1.5547-0.71875-2.8125-0.71875zm-2.5781-2.125h6.6094c1.9688 0 3.4844 0.41406 4.5469 1.2344 1.0703 0.8125 1.6094 1.9766 1.6094 3.4844 0 1.1797-0.27734 2.1172-0.82812 2.8125-0.54297 0.6875-1.3398 1.1172-2.3906 1.2812 1.2695 0.28125 2.2539 0.85547 2.9531 1.7188 0.70703 0.86719 1.0625 1.9492 1.0625 3.25 0 1.7109-0.58594 3.0312-1.75 3.9688-1.1562 0.92969-2.8086 1.3906-4.9531 1.3906h-6.8594z"/>
</symbol>
</defs>
<path transform="matrix(1.6397 0 0 1.6418 6.02 -3.1832)" d="m31.331 56.729c-4.1595 0.41162-8.3761 0.41162-12.538 0l-16.216 64.728c14.053 5.6127 30.913 5.6127 44.963 0z" fill="#fff" stroke="#000" stroke-linejoin="round" stroke-width="2.1227"/>
<path transform="matrix(1.6397 0 0 1.6418 6.02 -3.1832)" d="m8.1328 99.278-5.5555 22.18c22.477 10.409 44.963 0 44.963 0l-5.5555-22.182s-19.189 5.1345-33.852 0.002379" fill="#666" stroke="#000" stroke-width="2.1317"/>
<path transform="matrix(1.6397 0 0 1.6418 6.02 -3.1832)" d="m8.1281 99.278c10.904 3.0954 22.956 3.0954 33.859 0" fill="none" stroke="#000" stroke-width="2.1317"/>
<path transform="matrix(1.6397 0 0 1.6418 6.02 -3.1832)" d="m11.049 87.614c9.1265 2.0985 18.894 2.0985 28.023 0" fill="none" stroke="#000" stroke-width=".56164"/>
<path transform="matrix(1.6397 0 0 1.6418 6.02 -3.1832)" d="m13.724 76.943c7.4446 1.3633 15.225 1.3633 22.67 0" fill="none" stroke="#000" stroke-width=".56164"/>
<path transform="matrix(1.6397 0 0 1.6418 6.02 -3.1832)" d="m16.623 65.356c5.5793 0.74709 11.292 0.74709 16.867-0.004758" fill="none" stroke="#000" stroke-width=".56164"/>
<path transform="matrix(1.6397 0 0 1.6418 6.02 -3.1832)" d="m36.303 47.374c0 6.198-5.029 11.225-11.237 11.225s-11.242-5.0274-11.242-11.225c0-6.2004 5.0338-11.225 11.242-11.225s11.237 5.025 11.237 11.225z" fill="#fff" stroke="#000" stroke-width="2.1227"/>
<path d="m56.328 71.84c0 2.543-2.0625 4.6055-4.6094 4.6055-2.543 0-4.6094-2.0625-4.6094-4.6055 0-2.543 2.0664-4.6094 4.6094-4.6094 2.5469 0 4.6094 2.0664 4.6094 4.6094z"/>
<path transform="matrix(1.6397 0 0 1.6418 6.02 -3.1832)" d="m36.299 51.304s-2.8111 5.6103-11.24 0" fill="none" stroke="#000" stroke-width=".95524"/>
<path d="m41.629 175.81h1.9414v5.8945h7.0742v-5.8945h1.9414v14.395h-1.9414v-6.8633h-7.0742v6.8633h-1.9414z" fill="#fff"/>
<path d="m45.043 155.74h1.6328v-4.6406l-1.6797 0.34375v-1.2617l1.6641-0.33984h1.7578v5.8984h1.6289v1.2734h-5.0039z"/>
<path d="m46.727 136.57h3.1562v1.3516h-5.207v-1.3516l2.6094-2.3203c0.23828-0.20703 0.41016-0.41016 0.51562-0.60547 0.10938-0.20703 0.16797-0.42188 0.16797-0.64062 0-0.32812-0.11719-0.59766-0.33984-0.80859-0.21875-0.20703-0.51562-0.3125-0.88672-0.3125-0.29297 0-0.60547 0.0625-0.94922 0.1875-0.33984 0.125-0.71094 0.30859-1.1016 0.54688v-1.5742c0.41016-0.13281 0.82422-0.23438 1.2266-0.30859 0.41406-0.070313 0.8125-0.10938 1.1953-0.10938 0.85938 0 1.5273 0.19531 2.0078 0.57422 0.47266 0.375 0.71484 0.89844 0.71484 1.5742 0 0.39453-0.10547 0.76172-0.3125 1.1016-0.19922 0.33594-0.61719 0.78125-1.2578 1.3398z"/>
<path d="m48.469 114.97c0.48438 0.125 0.85156 0.34375 1.1016 0.65234 0.25 0.30469 0.375 0.69531 0.375 1.168 0 0.71484-0.27344 1.2617-0.80859 1.6328-0.54297 0.36719-1.332 0.54688-2.3789 0.54688-0.375 0-0.74609-0.03125-1.1211-0.09375-0.36328-0.050781-0.72656-0.14062-1.0859-0.26562v-1.4297c0.34766 0.17969 0.69141 0.30859 1.0273 0.40234 0.33984 0.085938 0.67578 0.125 1.0078 0.125 0.48437 0 0.85937-0.082031 1.1211-0.25 0.26562-0.17188 0.40234-0.41797 0.40234-0.73047 0-0.32812-0.13672-0.57812-0.40234-0.74609-0.27344-0.16406-0.66406-0.25-1.1836-0.25h-0.74609v-1.1953h0.77734c0.46875 0 0.8125-0.070312 1.043-0.21875 0.22266-0.14453 0.33984-0.36328 0.33984-0.65625 0-0.27734-0.11719-0.48828-0.33984-0.63672-0.21875-0.15625-0.52734-0.23438-0.93359-0.23438-0.29297 0-0.58984 0.039063-0.90234 0.10938-0.30078 0.0625-0.60156 0.16406-0.89844 0.29687v-1.3555c0.35938-0.10156 0.71875-0.17578 1.0703-0.23047 0.36328-0.050781 0.71875-0.078125 1.0742-0.078125 0.91797 0 1.6133 0.15625 2.082 0.46484 0.46484 0.30469 0.69922 0.75781 0.69922 1.3711 0 0.42578-0.11719 0.77344-0.34375 1.043-0.21484 0.25781-0.54297 0.44531-0.97656 0.55859z"/>
<path transform="matrix(1.6397 0 0 1.6418 6.02 -3.1832)" d="m78.946 121.61 22.482-14.031-0.4979-56.282h-14.051l-22.989 13.881" fill="#fff" stroke="#000" stroke-width="2.1226"/>
<path transform="matrix(1.6397 0 0 1.6418 6.02 -3.1832)" d="m64.4 121.45v-56.12h14.051v56.12z" fill="#fff" stroke="#000" stroke-width="2.1226"/>
<path transform="matrix(1.6397 0 0 1.6418 6.02 -3.1832)" d="m78.451 110.23 22.482-14.031" fill="none" stroke="#000" stroke-width="2.1226"/>
<path transform="matrix(1.6397 0 0 1.6418 6.02 -3.1832)" d="m78.451 99.006 22.482-14.033" fill="none" stroke="#000" stroke-width="2.1226"/>
<path transform="matrix(1.6397 0 0 1.6418 6.02 -3.1832)" d="m78.451 87.783 22.482-14.031" fill="none" stroke="#000" stroke-width="2.1226"/>
<path transform="matrix(1.6397 0 0 1.6418 6.02 -3.1832)" d="m78.451 76.558 22.482-14.031" fill="none" stroke="#000" stroke-width="2.1226"/>
<path transform="matrix(1.6397 0 0 1.6418 6.02 -3.1832)" d="m78.451 65.335 22.482-14.031" fill="none" stroke="#000" stroke-width="2.1226"/>
<path transform="matrix(1.6397 0 0 1.6418 6.02 -3.1832)" d="m78.451 110.23h-14.048" fill="none" stroke="#000" stroke-width="2.1226"/>
<path transform="matrix(1.6397 0 0 1.6418 6.02 -3.1832)" d="m64.4 99.006h14.051" fill="none" stroke="#000" stroke-width="2.1226"/>
<path transform="matrix(1.6397 0 0 1.6418 6.02 -3.1832)" d="m78.451 87.783h-14.048" fill="none" stroke="#000" stroke-width="2.1226"/>
<path transform="matrix(1.6397 0 0 1.6418 6.02 -3.1832)" d="m64.4 76.558h14.051" fill="none" stroke="#000" stroke-width="2.1226"/>
<path transform="matrix(1.6397 0 0 1.6418 6.02 -3.1832)" d="m86.927 116.17-0.047646-11.275" fill="none" stroke="#000" stroke-width=".56162"/>
<path transform="matrix(1.6397 0 0 1.6418 6.02 -3.1832)" d="m95.296 110.94 0.019058-11.235" fill="none" stroke="#000" stroke-width=".56162"/>
<path transform="matrix(1.6397 0 0 1.6418 6.02 -3.1832)" d="m91.167 102.29v-11.145" fill="none" stroke="#000" stroke-width=".56162"/>
<path transform="matrix(1.6397 0 0 1.6418 6.02 -3.1832)" d="m86.927 93.717v-11.225" fill="none" stroke="#000" stroke-width=".56162"/>
<path transform="matrix(1.6397 0 0 1.6418 6.02 -3.1832)" d="m95.312 88.502v-11.242" fill="none" stroke="#000" stroke-width=".56162"/>
<path transform="matrix(1.6397 0 0 1.6418 6.02 -3.1832)" d="m90.989 79.955v-11.256" fill="none" stroke="#000" stroke-width=".56162"/>
<path transform="matrix(1.6397 0 0 1.6418 6.02 -3.1832)" d="m95.312 66.037v-11.223" fill="none" stroke="#000" stroke-width=".56162"/>
<path transform="matrix(1.6397 0 0 1.6418 6.02 -3.1832)" d="m86.91 71.283v-11.225" fill="none" stroke="#000" stroke-width=".56162"/>
<path transform="matrix(1.6397 0 0 1.6418 6.02 -3.1832)" d="m86.91 60.05h-14.079" fill="none" stroke="#000" stroke-width=".56162"/>
<path transform="matrix(1.6397 0 0 1.6418 6.02 -3.1832)" d="m95.312 54.814h-14.051" fill="none" stroke="#000" stroke-width=".56162"/>
<path d="m121.2 189.32h1.6328v-4.6406l-1.6797 0.34375v-1.2617l1.6641-0.33984h1.7578v5.8984h1.6289v1.2734h-5.0039z"/>
<path d="m122.88 170.8h3.1562v1.3516h-5.207v-1.3516l2.6094-2.3203c0.23828-0.20703 0.41016-0.40625 0.51172-0.60547 0.11328-0.20703 0.17188-0.42188 0.17188-0.63672 0-0.33203-0.11719-0.60156-0.33984-0.8125-0.21875-0.20312-0.51562-0.30859-0.88672-0.30859-0.29297 0-0.60547 0.0625-0.94922 0.1875-0.33984 0.12109-0.71094 0.30469-1.1016 0.54297v-1.5703c0.41016-0.13281 0.82422-0.23828 1.2266-0.3125 0.41016-0.070313 0.8125-0.10938 1.1953-0.10938 0.85938 0 1.5273 0.19531 2.0078 0.57422 0.47266 0.375 0.71484 0.90234 0.71484 1.5742 0 0.39453-0.10547 0.76172-0.3125 1.1055-0.19922 0.33203-0.61719 0.77734-1.2578 1.3359z"/>
<path d="m124.62 149.85c0.48438 0.125 0.85156 0.33984 1.1016 0.65234 0.25 0.30469 0.375 0.69141 0.375 1.168 0 0.71484-0.27344 1.2578-0.80859 1.6328-0.54297 0.36719-1.3359 0.54688-2.3789 0.54688-0.375 0-0.74609-0.03125-1.1211-0.09375-0.36328-0.050781-0.72656-0.14062-1.0859-0.26562v-1.4336c0.34766 0.17969 0.69141 0.3125 1.0273 0.40625 0.33984 0.085937 0.67578 0.125 1.0078 0.125 0.48438 0 0.85938-0.082032 1.1211-0.25 0.26562-0.17578 0.40234-0.41797 0.40234-0.73047 0-0.33203-0.13672-0.58203-0.40234-0.74609-0.27344-0.16406-0.66797-0.25-1.1836-0.25h-0.74609v-1.1992h0.77734c0.46875 0 0.8125-0.070312 1.043-0.21875 0.22266-0.14062 0.33984-0.35938 0.33984-0.65234 0-0.28125-0.11719-0.48828-0.33984-0.63672-0.21875-0.15625-0.53125-0.23438-0.93359-0.23438-0.29297 0-0.58984 0.039062-0.90234 0.10938-0.30078 0.0625-0.60156 0.16406-0.90234 0.29688v-1.3555c0.36328-0.10156 0.71875-0.17969 1.0742-0.23438 0.36328-0.050781 0.71875-0.078125 1.0742-0.078125 0.91797 0 1.6133 0.15625 2.082 0.46875 0.46484 0.30078 0.69922 0.75781 0.69922 1.3672 0 0.42969-0.11719 0.77734-0.34375 1.043-0.21484 0.26172-0.54297 0.44922-0.97656 0.5625z"/>
<path d="m123.67 129.61-2.0352 3.0039h2.0352zm-0.3125-1.5273h2.0508v4.5312h1.0273v1.3359h-1.0273v1.3086h-1.7383v-1.3086h-3.1875v-1.5859z"/>
<path d="m121.09 109.64h4.5859v1.3672h-3.1094v1.1055c0.13281-0.039062 0.27344-0.070312 0.42188-0.09375 0.14453-0.019531 0.29297-0.03125 0.44922-0.03125 0.87109 0 1.5469 0.21875 2.0352 0.65234 0.48828 0.4375 0.73047 1.0508 0.73047 1.8398 0 0.76953-0.26953 1.375-0.80469 1.8203-0.53125 0.43359-1.2617 0.65234-2.1914 0.65234-0.40625 0-0.80859-0.042969-1.2148-0.125-0.39453-0.070313-0.78906-0.19141-1.1797-0.35938v-1.4453c0.37891 0.21875 0.75 0.38672 1.1016 0.49609 0.35156 0.11719 0.68359 0.17188 0.99609 0.17188 0.44141 0 0.79688-0.10938 1.0547-0.32422 0.25781-0.21875 0.39062-0.51563 0.39062-0.88672 0-0.38281-0.13281-0.6875-0.39062-0.90625-0.25781-0.21484-0.61328-0.32422-1.0547-0.32422-0.27344 0-0.55469 0.039062-0.85547 0.10938-0.30469 0.074219-0.62109 0.17969-0.96484 0.30859z"/>
<path transform="matrix(1.6397 0 0 1.6418 6.02 -3.1832)" d="m39.11 45.696h95.549" fill="none" stroke="#000" stroke-width="2.1227"/>
<path transform="matrix(1.6397 0 0 1.6418 6.02 -3.1832)" d="m139.56 45.696-7.3517 4.2423v-8.4869z" fill-rule="evenodd" stroke="#000" stroke-width="1.0614"/>
<path transform="matrix(1.6397 0 0 1.6418 6.02 -3.1832)" d="m89.693 58.323h28.101" fill="none" stroke="#000" stroke-width=".56164"/>
<path transform="matrix(1.6397 0 0 1.6418 6.02 -3.1832)" d="m112.51 58.323v-10.029" fill="none" stroke="#000" stroke-width=".56164"/>
<path transform="matrix(1.6397 0 0 1.6418 6.02 -3.1832)" d="m112.51 47 1.1244 1.9391h-2.2489z" fill-rule="evenodd" stroke="#000" stroke-width=".28082"/>
<path d="m199.73 79.949v2.5039h2.5156v1.1367h-2.5156v2.5195h-1.1367v-2.5195h-2.5v-1.1367h2.5v-2.5039z"/>
<path d="m99 246.62c-1.2578 0-2.1289 0.14844-2.6133 0.4375-0.47656 0.27734-0.71484 0.76953-0.71484 1.4609 0 0.55469 0.17969 0.98828 0.54297 1.3086 0.36328 0.32031 0.85547 0.48047 1.4766 0.48047 0.85938 0 1.5469-0.29688 2.0703-0.90234 0.52734-0.60938 0.78906-1.4219 0.78906-2.4414v-0.34375zm3.0898-0.63672v5.3828h-1.5391v-1.4297c-0.36328 0.57031-0.80469 0.99609-1.3359 1.2734-0.52734 0.26953-1.1758 0.40625-1.9414 0.40625-0.96484 0-1.7344-0.26953-2.3008-0.80859-0.57031-0.55078-0.85547-1.2812-0.85547-2.1953 0-1.0586 0.35156-1.8555 1.0586-2.3984 0.71484-0.53516 1.7734-0.80859 3.1836-0.80859h2.1914v-0.15625c0-0.71484-0.23828-1.2617-0.71484-1.6484-0.46484-0.39062-1.125-0.58984-1.9727-0.58984-0.53906 0-1.0664 0.070313-1.5859 0.20313-0.50781 0.125-1 0.31641-1.4766 0.57422v-1.4297c0.56641-0.22656 1.1211-0.39453 1.6484-0.5 0.53516-0.11328 1.0625-0.17188 1.5703-0.17188 1.3672 0 2.3867 0.35938 3.0625 1.0742 0.67188 0.70703 1.0078 1.7812 1.0078 3.2227z"/>
<path transform="matrix(1.6397 0 0 1.6418 6.02 -3.1832)" d="m229.77 122.45v-11.837l19.811-11.54v11.164" fill="#fff" stroke="#000" stroke-linecap="round" stroke-width=".21317"/>
<path transform="matrix(1.6397 0 0 1.6418 6.02 -3.1832)" d="m229.77 122.45v-11.837h-73.377v11.837" fill="#fff" stroke="#000" stroke-linecap="round" stroke-width=".21317"/>
<path transform="matrix(1.6397 0 0 1.6418 6.02 -3.1832)" d="m249.58 90.888v8.1252l-19.813 11.599h-73.374l33.061-19.258zm0 0" fill="#fff" stroke="#000" stroke-linecap="round" stroke-width=".21317"/>
<path transform="matrix(1.6397 0 0 1.6418 6.02 -3.1832)" d="m264.12 121.62 22.484-14.028-0.4979-56.284h-14.053l-22.989 13.881" fill="#fff" stroke="#000" stroke-width="2.1227"/>
<path transform="matrix(1.6397 0 0 1.6418 6.02 -3.1832)" d="m201.64 56.36-15.294 43.902c14.051 5.6127 30.91 5.6127 44.963 0l-15.301-43.9c-4.7598 0.5401-9.6054 0.5401-14.368 0z" fill="#fff" stroke="#000" stroke-linejoin="round" stroke-width="2.1227"/>
<path transform="matrix(1.6397 0 0 1.6418 6.02 -3.1832)" d="m249.58 99.068-19.813 11.54" fill="none" stroke="#000" stroke-width="2.1317"/>
<path transform="matrix(1.6397 0 0 1.6418 6.02 -3.1832)" d="m228.04 90.883h21.536" fill="none" stroke="#000" stroke-width="2.1317"/>
<path transform="matrix(1.6397 0 0 1.6418 6.02 -3.1832)" d="m156.39 122.45v-11.837l33.061-19.258" fill="none" stroke="#000" stroke-width="2.1317"/>
<path transform="matrix(1.6397 0 0 1.6418 6.02 -3.1832)" d="m190.21 89.163c11.895 3.7735 25.338 3.7735 37.233 0" fill="none" stroke="#000" stroke-width=".56164"/>
<path transform="matrix(1.6397 0 0 1.6418 6.02 -3.1832)" d="m193.89 78.604c9.6959 2.3912 20.173 2.3912 29.871 0" fill="none" stroke="#000" stroke-width=".56164"/>
<path transform="matrix(1.6397 0 0 1.6418 6.02 -3.1832)" d="m197.93 67.048c7.1683 1.2563 14.637 1.2563 21.805 0" fill="none" stroke="#000" stroke-width=".56164"/>
<path transform="matrix(1.6397 0 0 1.6418 6.02 -3.1832)" d="m220.07 47.509c0 6.198-5.0338 11.223-11.242 11.223-6.2058 0-11.24-5.025-11.24-11.223 0-6.2004 5.0338-11.223 11.24-11.223 6.2082 0 11.242 5.0227 11.242 11.223z" fill="#fff" stroke="#000" stroke-width="2.1227"/>
<path d="m357.65 72.07c0 2.543-2.0625 4.6055-4.6094 4.6055-2.543 0-4.6055-2.0625-4.6055-4.6055 0-2.5469 2.0625-4.6055 4.6055-4.6055 2.5469 0 4.6094 2.0586 4.6094 4.6055z"/>
<path d="m345.96 159.13h1.6328v-4.6367l-1.6797 0.34375v-1.2617l1.6641-0.34375h1.7578v5.8984h1.6289v1.2773h-5.0039z"/>
<path d="m347.64 139.96h3.1562v1.3555h-5.207v-1.3555l2.6094-2.3203c0.23828-0.20312 0.41016-0.40625 0.51172-0.60547 0.11328-0.20703 0.17188-0.41797 0.17188-0.63672 0-0.33203-0.11719-0.60156-0.33984-0.80859-0.21875-0.20703-0.51562-0.3125-0.88672-0.3125-0.29297 0-0.60547 0.0625-0.94922 0.1875-0.33984 0.125-0.71094 0.30469-1.1016 0.54297v-1.5703c0.41016-0.13281 0.82422-0.23828 1.2266-0.3125 0.41016-0.070313 0.8125-0.10938 1.1953-0.10938 0.85937 0 1.5273 0.19531 2.0078 0.57812 0.47266 0.37109 0.71484 0.89844 0.71484 1.5703 0 0.39844-0.10547 0.76172-0.3125 1.1055-0.19922 0.33594-0.61719 0.77734-1.2578 1.3359z"/>
<path d="m349.37 118.36c0.48828 0.12109 0.85547 0.33984 1.1055 0.65234 0.25 0.30469 0.37109 0.69141 0.37109 1.168 0 0.71484-0.26953 1.2578-0.80469 1.6328-0.54297 0.36719-1.3359 0.54297-2.3789 0.54297-0.375 0-0.74609-0.03125-1.1211-0.09375-0.36328-0.046875-0.72656-0.13672-1.0859-0.26172v-1.4336c0.34766 0.17969 0.69141 0.3125 1.0234 0.40625 0.34375 0.085938 0.67969 0.125 1.0117 0.125 0.48437 0 0.85937-0.082031 1.1211-0.25 0.26562-0.17578 0.40234-0.42188 0.40234-0.73047 0-0.33203-0.13672-0.58203-0.40234-0.75-0.27344-0.16016-0.66797-0.24609-1.1836-0.24609h-0.74609v-1.1992h0.77734c0.46484 0 0.8125-0.070313 1.043-0.21875 0.22266-0.14453 0.33984-0.35938 0.33984-0.65234 0-0.28125-0.11719-0.49219-0.33984-0.63672-0.21875-0.15625-0.53125-0.23437-0.93359-0.23437-0.29297 0-0.58984 0.039062-0.90234 0.10937-0.30078 0.0625-0.60156 0.16406-0.90234 0.29297v-1.3516c0.36328-0.10156 0.71875-0.17969 1.0742-0.23438 0.35938-0.050782 0.71875-0.078125 1.0703-0.078125 0.92188 0 1.6172 0.15625 2.0859 0.46875 0.46484 0.30078 0.69922 0.75781 0.69922 1.3672 0 0.42969-0.11719 0.77344-0.34375 1.043-0.21875 0.26172-0.54297 0.44922-0.98047 0.5625z"/>
<path transform="matrix(1.6397 0 0 1.6418 6.02 -3.1832)" d="m249.58 121.45v-56.122h14.048v56.122z" fill="#fff" stroke="#000" stroke-width="2.1227"/>
<path transform="matrix(1.6397 0 0 1.6418 6.02 -3.1832)" d="m263.63 110.23 22.482-14.028" fill="none" stroke="#000" stroke-width="2.1227"/>
<path transform="matrix(1.6397 0 0 1.6418 6.02 -3.1832)" d="m263.63 99.009 22.482-14.035" fill="none" stroke="#000" stroke-width="2.1227"/>
<path transform="matrix(1.6397 0 0 1.6418 6.02 -3.1832)" d="m263.63 87.788 22.482-14.031" fill="none" stroke="#000" stroke-width="2.1227"/>
<path transform="matrix(1.6397 0 0 1.6418 6.02 -3.1832)" d="m263.63 76.56 22.482-14.031" fill="none" stroke="#000" stroke-width="2.1227"/>
<path transform="matrix(1.6397 0 0 1.6418 6.02 -3.1832)" d="m263.63 65.332 22.482-14.028" fill="none" stroke="#000" stroke-width="2.1227"/>
<path transform="matrix(1.6397 0 0 1.6418 6.02 -3.1832)" d="m263.63 110.23h-14.051" fill="none" stroke="#000" stroke-width="2.1227"/>
<path transform="matrix(1.6397 0 0 1.6418 6.02 -3.1832)" d="m249.58 99.009h14.048" fill="none" stroke="#000" stroke-width="2.1227"/>
<path transform="matrix(1.6397 0 0 1.6418 6.02 -3.1832)" d="m263.63 87.788h-14.051" fill="none" stroke="#000" stroke-width="2.1227"/>
<path transform="matrix(1.6397 0 0 1.6418 6.02 -3.1832)" d="m249.58 76.56h14.048" fill="none" stroke="#000" stroke-width="2.1227"/>
<path transform="matrix(1.6397 0 0 1.6418 6.02 -3.1832)" d="m272.11 116.16-0.047646-11.273" fill="none" stroke="#000" stroke-width=".56164"/>
<path transform="matrix(1.6397 0 0 1.6418 6.02 -3.1832)" d="m280.48 110.94 0.019058-11.237" fill="none" stroke="#000" stroke-width=".56164"/>
<path transform="matrix(1.6397 0 0 1.6418 6.02 -3.1832)" d="m276.34 102.3v-11.145" fill="none" stroke="#000" stroke-width=".56164"/>
<path transform="matrix(1.6397 0 0 1.6418 6.02 -3.1832)" d="m272.11 93.717v-11.225" fill="none" stroke="#000" stroke-width=".56164"/>
<path transform="matrix(1.6397 0 0 1.6418 6.02 -3.1832)" d="m280.49 88.502v-11.242" fill="none" stroke="#000" stroke-width=".56164"/>
<path transform="matrix(1.6397 0 0 1.6418 6.02 -3.1832)" d="m276.17 79.958v-11.256" fill="none" stroke="#000" stroke-width=".56164"/>
<path transform="matrix(1.6397 0 0 1.6418 6.02 -3.1832)" d="m280.49 66.039v-11.223" fill="none" stroke="#000" stroke-width=".56164"/>
<path transform="matrix(1.6397 0 0 1.6418 6.02 -3.1832)" d="m272.08 71.278v-11.225" fill="none" stroke="#000" stroke-width=".56164"/>
<path transform="matrix(1.6397 0 0 1.6418 6.02 -3.1832)" d="m272.08 60.058h-14.079" fill="none" stroke="#000" stroke-width=".56164"/>
<path transform="matrix(1.6397 0 0 1.6418 6.02 -3.1832)" d="m280.49 54.814h-14.048" fill="none" stroke="#000" stroke-width=".56164"/>
<path d="m424.84 189.32h1.6328v-4.6406l-1.6797 0.34375v-1.2617l1.6641-0.33984h1.7578v5.8984h1.6328v1.2734h-5.0078z"/>
<path d="m426.52 170.8h3.1562v1.3555h-5.207v-1.3555l2.6094-2.3203c0.23828-0.20312 0.41016-0.40625 0.51562-0.60547 0.10938-0.20703 0.16797-0.42188 0.16797-0.63672 0-0.33203-0.11328-0.60156-0.33984-0.8125-0.21875-0.20312-0.51172-0.30859-0.88672-0.30859-0.29297 0-0.60547 0.0625-0.94922 0.1875-0.33984 0.12109-0.71094 0.30469-1.1016 0.54297v-1.5703c0.41016-0.13281 0.82422-0.23828 1.2266-0.3125 0.41406-0.070313 0.8125-0.10938 1.1992-0.10938 0.85547 0 1.5234 0.19531 2.0039 0.57813 0.47266 0.37109 0.71484 0.89844 0.71484 1.5703 0 0.39453-0.10547 0.76172-0.3125 1.1055-0.19531 0.33203-0.61719 0.77734-1.2578 1.3359z"/>
<path d="m428.26 149.85c0.48438 0.125 0.85547 0.33984 1.1016 0.65234 0.25 0.30469 0.375 0.69141 0.375 1.168 0 0.71484-0.27344 1.2617-0.80859 1.6328-0.53906 0.36719-1.332 0.54688-2.3789 0.54688-0.37109 0-0.74609-0.03125-1.1172-0.09375-0.36719-0.050781-0.72656-0.14062-1.0898-0.26562v-1.4336c0.35156 0.17969 0.69141 0.3125 1.0273 0.40625 0.33984 0.085937 0.67578 0.125 1.0078 0.125 0.48828 0 0.85938-0.082032 1.1211-0.25 0.26562-0.17578 0.40234-0.41797 0.40234-0.73047 0-0.33203-0.13672-0.57812-0.40234-0.74609-0.27344-0.16406-0.66406-0.25-1.1836-0.25h-0.74609v-1.1992h0.77734c0.46875 0 0.8125-0.070312 1.043-0.21875 0.22656-0.14062 0.33984-0.35938 0.33984-0.65234 0-0.28125-0.11328-0.48828-0.33984-0.63672-0.21875-0.15625-0.52734-0.23438-0.93359-0.23438-0.28906 0-0.58984 0.039062-0.90234 0.10938-0.30078 0.0625-0.60156 0.16406-0.89844 0.29688v-1.3555c0.35938-0.10156 0.71875-0.17969 1.0703-0.23438 0.36328-0.050781 0.71875-0.078125 1.0742-0.078125 0.91797 0 1.6133 0.15625 2.082 0.46875 0.46484 0.30469 0.69922 0.75781 0.69922 1.3672 0 0.42969-0.11719 0.77734-0.34375 1.043-0.21484 0.26172-0.54297 0.44922-0.97656 0.5625z"/>
<path d="m427.31 129.61-2.0352 3.0039h2.0352zm-0.3125-1.5273h2.0547v4.5312h1.0234v1.3359h-1.0234v1.3086h-1.7422v-1.3086h-3.1875v-1.5859z"/>
<path d="m424.73 109.64h4.582v1.3672h-3.1055v1.1055c0.12891-0.039062 0.26953-0.070312 0.41797-0.09375 0.14453-0.019531 0.29688-0.03125 0.44922-0.03125 0.87109 0 1.5469 0.21875 2.0391 0.65625 0.48438 0.43359 0.73047 1.0469 0.73047 1.8359 0 0.76953-0.27344 1.375-0.80859 1.8203-0.53125 0.43359-1.2617 0.65234-2.1914 0.65234-0.40625 0-0.80859-0.042969-1.2148-0.125-0.39453-0.070313-0.78906-0.19141-1.1797-0.35547v-1.4492c0.37891 0.21875 0.75 0.38672 1.1016 0.5 0.35156 0.11328 0.68359 0.16797 0.99609 0.16797 0.44141 0 0.79688-0.10938 1.0586-0.32422 0.25391-0.21875 0.38672-0.51563 0.38672-0.88672 0-0.38281-0.13281-0.6875-0.38672-0.90234-0.26172-0.21875-0.61719-0.32812-1.0586-0.32812-0.27344 0-0.55469 0.039062-0.85547 0.10938-0.30078 0.074219-0.62109 0.17969-0.96094 0.30859z"/>
<path transform="matrix(1.6397 0 0 1.6418 6.02 -3.1832)" d="m220.07 51.447s-2.8111 5.6127-11.242 0" fill="none" stroke="#000" stroke-width=".95524"/>
<path transform="matrix(1.6397 0 0 1.6418 6.02 -3.1832)" d="m223.56 45.696h95.546" fill="none" stroke="#000" stroke-width="2.1227"/>
<path transform="matrix(1.6397 0 0 1.6418 6.02 -3.1832)" d="m324.01 45.696-7.3493 4.2423v-8.4869z" fill-rule="evenodd" stroke="#000" stroke-width="1.0614"/>
<path transform="matrix(1.6397 0 0 1.6418 6.02 -3.1832)" d="m274.14 58.323h28.101" fill="none" stroke="#000" stroke-width=".56164"/>
<path transform="matrix(1.6397 0 0 1.6418 6.02 -3.1832)" d="m296.96 58.323v-10.029" fill="none" stroke="#000" stroke-width=".56164"/>
<path transform="matrix(1.6397 0 0 1.6418 6.02 -3.1832)" d="m296.96 47 1.1244 1.9391h-2.2489z" fill-rule="evenodd" stroke="#000" stroke-width=".28082"/>
<path d="m502.18 79.949v2.5039h2.5156v1.1367h-2.5156v2.5195h-1.1367v-2.5195h-2.5v-1.1367h2.5v-2.5039z"/>
<path transform="matrix(1.6397 0 0 1.6418 6.02 -3.1832)" d="m156.39 110.61h73.374v11.837" fill="none" stroke="#000" stroke-width="2.1317"/>
<path d="m320.63 186.02v2.5039h2.5156v1.1367h-2.5156v2.5234h-1.1367v-2.5234h-2.5v-1.1367h2.5v-2.5039z"/>
<path d="m327.42 190.82h3.1523v1.3555h-5.207v-1.3555l2.6133-2.3203c0.23828-0.20312 0.40625-0.40625 0.51172-0.60547 0.11328-0.20703 0.17187-0.41797 0.17187-0.63672 0-0.33203-0.11719-0.60156-0.34375-0.80859-0.21484-0.20703-0.51172-0.3125-0.88281-0.3125-0.29297 0-0.60938 0.0625-0.94922 0.1875-0.34375 0.125-0.71094 0.30469-1.1055 0.54297v-1.5703c0.41406-0.13281 0.82422-0.23828 1.2305-0.3125 0.41016-0.070312 0.8125-0.10938 1.1953-0.10938 0.85938 0 1.5273 0.19531 2.0039 0.57812 0.47656 0.37109 0.71484 0.89844 0.71484 1.5703 0 0.39844-0.10156 0.76172-0.30859 1.1055-0.19922 0.33594-0.61719 0.77734-1.2578 1.3359z"/>
<path d="m383.28 246.65c0-1.1406-0.23438-2.0312-0.69922-2.6758-0.46484-0.65234-1.1133-0.98047-1.9414-0.98047-0.82031 0-1.4688 0.32422-1.9453 0.98047-0.46484 0.64453-0.69922 1.5352-0.69922 2.6758 0 1.1445 0.23438 2.0391 0.69922 2.6914 0.47656 0.64844 1.125 0.96484 1.9453 0.96484 0.82812 0 1.4766-0.31641 1.9414-0.96484 0.46484-0.65234 0.69922-1.5469 0.69922-2.6914zm-5.2852-3.3008c0.33203-0.55859 0.74609-0.97266 1.2461-1.2422 0.49609-0.28125 1.0898-0.42188 1.7852-0.42188 1.1523 0 2.082 0.46094 2.7969 1.3711 0.71484 0.91406 1.0742 2.1133 1.0742 3.5938 0 1.4844-0.35938 2.6836-1.0742 3.5938-0.71484 0.91406-1.6445 1.3711-2.7969 1.3711-0.69531 0-1.2891-0.13672-1.7852-0.40625-0.5-0.27734-0.91406-0.69922-1.2461-1.2578v1.4141h-1.5547v-13.117h1.5547z"/>
<path transform="matrix(1.6397 0 0 1.6418 6.02 -3.1832)" d="m418.28 121.62 22.482-14.028-0.4979-33.655h-14.048l-22.994 13.881" fill="#fff" stroke="#000" stroke-width="2.1227"/>
<path transform="matrix(1.6397 0 0 1.6418 6.02 -3.1832)" d="m355.79 77.557-15.294 43.902c14.048 5.6151 30.91 5.6151 44.963 0l-15.301-43.9c-4.7622 0.5401-9.6077 0.5401-14.37-0.002379z" fill="#fff" stroke="#000" stroke-linejoin="round" stroke-width="2.1227"/>
<path transform="matrix(1.6397 0 0 1.6418 6.02 -3.1832)" d="m344.36 110.36c11.895 3.7688 25.338 3.7688 37.233 0" fill="none" stroke="#000" stroke-width=".56164"/>
<path transform="matrix(1.6397 0 0 1.6418 6.02 -3.1832)" d="m348.04 99.806c9.6959 2.3912 20.176 2.3912 29.871 0" fill="none" stroke="#000" stroke-width=".56164"/>
<path transform="matrix(1.6397 0 0 1.6418 6.02 -3.1832)" d="m352.07 88.245c7.1683 1.2586 14.634 1.261 21.805 0.002379" fill="none" stroke="#000" stroke-width=".56164"/>
<path transform="matrix(1.6397 0 0 1.6418 6.02 -3.1832)" d="m374.22 68.711c0 6.198-5.0338 11.223-11.242 11.223s-11.24-5.025-11.24-11.223c0-6.2004 5.0314-11.225 11.24-11.225s11.242 5.025 11.242 11.225z" fill="#fff" stroke="#000" stroke-width="2.1227"/>
<path d="m610.41 106.87c0 2.5469-2.0625 4.6094-4.6094 4.6094-2.543 0-4.6094-2.0625-4.6094-4.6094 0-2.543 2.0664-4.6055 4.6094-4.6055 2.5469 0 4.6094 2.0625 4.6094 4.6055z"/>
<path d="m598.71 193.93h1.6328v-4.6367l-1.6797 0.33984v-1.2578l1.6641-0.34375h1.7539v5.8984h1.6328v1.2773h-5.0039z"/>
<path d="m600.4 174.76h3.1523v1.3516h-5.207v-1.3516l2.6133-2.3203c0.23438-0.20703 0.40625-0.40625 0.51172-0.60547 0.11328-0.20703 0.17188-0.42188 0.17188-0.63672 0-0.33203-0.11719-0.60156-0.34375-0.8125-0.21484-0.20312-0.51172-0.30859-0.88281-0.30859-0.29297 0-0.60937 0.0625-0.94922 0.18359-0.34375 0.125-0.71094 0.30859-1.1055 0.54688v-1.5703c0.41406-0.13281 0.82422-0.23828 1.2305-0.3125 0.41016-0.070313 0.8125-0.10938 1.1953-0.10938 0.85938 0 1.5273 0.19531 2.0039 0.57422 0.47656 0.375 0.71484 0.89844 0.71484 1.5742 0 0.39453-0.10547 0.76172-0.30859 1.1055-0.19922 0.33203-0.61719 0.77734-1.2617 1.3359z"/>
<path d="m602.13 153.16c0.48438 0.125 0.85547 0.34375 1.1055 0.65625 0.24609 0.30078 0.37109 0.69141 0.37109 1.1641 0 0.71875-0.26953 1.2617-0.80859 1.6367-0.53906 0.36328-1.332 0.54297-2.375 0.54297-0.375 0-0.74609-0.03125-1.1211-0.09375-0.36328-0.050781-0.72656-0.14062-1.0859-0.26172v-1.4336c0.34766 0.17969 0.69141 0.3125 1.0234 0.40625 0.34375 0.082031 0.67578 0.12109 1.0117 0.12109 0.48438 0 0.85938-0.078125 1.1172-0.24609 0.26953-0.17578 0.40625-0.42188 0.40625-0.73438 0-0.32812-0.13672-0.57812-0.40625-0.74609-0.26953-0.16406-0.66406-0.24609-1.1797-0.24609h-0.74609v-1.1992h0.77734c0.46484 0 0.8125-0.070312 1.0391-0.21875 0.22656-0.14453 0.34375-0.36328 0.34375-0.65234 0-0.28125-0.11719-0.49219-0.34375-0.64062-0.21484-0.15625-0.52734-0.23047-0.92969-0.23047-0.29297 0-0.59375 0.039062-0.90234 0.10547-0.30469 0.0625-0.60156 0.16406-0.90234 0.29687v-1.3516c0.36328-0.10156 0.71875-0.17969 1.0742-0.23438 0.35938-0.050781 0.71875-0.078125 1.0703-0.078125 0.92188 0 1.6172 0.15625 2.082 0.46484 0.46875 0.30469 0.69922 0.76172 0.69922 1.3711 0 0.42969-0.11328 0.77344-0.33984 1.043-0.21875 0.26172-0.54297 0.44531-0.98047 0.55859z"/>
<path transform="matrix(1.6397 0 0 1.6418 6.02 -3.1832)" d="m403.73 121.46v-33.505h14.051v33.505z" fill="#fff" stroke="#000" stroke-width="2.1227"/>
<path transform="matrix(1.6397 0 0 1.6418 6.02 -3.1832)" d="m417.78 110.24 22.479-14.031" fill="none" stroke="#000" stroke-width="2.1227"/>
<path transform="matrix(1.6397 0 0 1.6418 6.02 -3.1832)" d="m417.78 99.013 22.479-14.033" fill="none" stroke="#000" stroke-width="2.1227"/>
<path transform="matrix(1.6397 0 0 1.6418 6.02 -3.1832)" d="m417.78 87.788 22.479-14.031" fill="none" stroke="#000" stroke-width="2.1227"/>
<path transform="matrix(1.6397 0 0 1.6418 6.02 -3.1832)" d="m417.78 110.24h-14.053" fill="none" stroke="#000" stroke-width="2.1227"/>
<path transform="matrix(1.6397 0 0 1.6418 6.02 -3.1832)" d="m403.73 99.013h14.051" fill="none" stroke="#000" stroke-width="2.1227"/>
<path transform="matrix(1.6397 0 0 1.6418 6.02 -3.1832)" d="m426.26 116.17-0.045263-11.273" fill="none" stroke="#000" stroke-width=".56164"/>
<path transform="matrix(1.6397 0 0 1.6418 6.02 -3.1832)" d="m434.63 110.94 0.019059-11.237" fill="none" stroke="#000" stroke-width=".56164"/>
<path transform="matrix(1.6397 0 0 1.6418 6.02 -3.1832)" d="m430.49 102.3v-11.145" fill="none" stroke="#000" stroke-width=".56164"/>
<path transform="matrix(1.6397 0 0 1.6418 6.02 -3.1832)" d="m426.26 93.722v-11.225" fill="none" stroke="#000" stroke-width=".56164"/>
<path transform="matrix(1.6397 0 0 1.6418 6.02 -3.1832)" d="m434.64 88.507v-11.242" fill="none" stroke="#000" stroke-width=".56164"/>
<path transform="matrix(1.6397 0 0 1.6418 6.02 -3.1832)" d="m426.24 82.508h-14.082" fill="none" stroke="#000" stroke-width=".56164"/>
<path transform="matrix(1.6397 0 0 1.6418 6.02 -3.1832)" d="m434.64 77.264h-14.048" fill="none" stroke="#000" stroke-width=".56164"/>
<path d="m677.59 189.32h1.6328v-4.6406l-1.6797 0.34375v-1.2617l1.6641-0.33984h1.7539v5.8984h1.6328v1.2734h-5.0039z"/>
<path d="m679.27 170.8h3.1523v1.3555h-5.2031v-1.3555l2.6094-2.3203c0.23828-0.20312 0.40625-0.40625 0.51172-0.60547 0.11328-0.20703 0.17188-0.42188 0.17188-0.63672 0-0.33203-0.11719-0.60156-0.33984-0.8125-0.21875-0.20312-0.51562-0.30859-0.88672-0.30859-0.29297 0-0.60547 0.0625-0.94922 0.1875-0.33984 0.12109-0.71094 0.30469-1.1016 0.54297v-1.5703c0.41016-0.13281 0.82031-0.23828 1.2266-0.3125 0.41016-0.070313 0.8125-0.10938 1.1953-0.10938 0.85938 0 1.5273 0.19531 2.0039 0.57813 0.47656 0.37109 0.71875 0.89844 0.71875 1.5703 0 0.39453-0.10547 0.76172-0.3125 1.1055-0.19922 0.33203-0.61719 0.77734-1.2578 1.3359z"/>
<path d="m681.01 149.85c0.48828 0.125 0.85547 0.33984 1.1055 0.65234 0.25 0.30469 0.37109 0.69141 0.37109 1.168 0 0.71484-0.26953 1.2617-0.80859 1.6328-0.53906 0.36719-1.332 0.54688-2.375 0.54688-0.375 0-0.74609-0.03125-1.1211-0.09375-0.36328-0.050781-0.72656-0.14062-1.0859-0.26562v-1.4336c0.34766 0.17969 0.69141 0.3125 1.0234 0.40625 0.34375 0.085937 0.67578 0.125 1.0117 0.125 0.48438 0 0.85938-0.082032 1.1172-0.25 0.26953-0.17578 0.40625-0.41797 0.40625-0.73047 0-0.33203-0.13672-0.57812-0.40625-0.74609-0.26953-0.16406-0.66406-0.25-1.1797-0.25h-0.74609v-1.1992h0.77734c0.46484 0 0.8125-0.070312 1.043-0.21875 0.22266-0.14062 0.33984-0.35938 0.33984-0.65234 0-0.28125-0.11719-0.48828-0.33984-0.63672-0.21875-0.15625-0.53125-0.23438-0.93359-0.23438-0.29297 0-0.58984 0.039062-0.90234 0.10938-0.30469 0.0625-0.60156 0.16406-0.90234 0.29688v-1.3555c0.36328-0.10156 0.71875-0.17969 1.0742-0.23438 0.35938-0.050781 0.71875-0.078125 1.0703-0.078125 0.92188 0 1.6172 0.15625 2.0859 0.46875 0.46484 0.30469 0.69922 0.75781 0.69922 1.3672 0 0.42969-0.11719 0.77734-0.34375 1.043-0.21875 0.26172-0.54297 0.44922-0.98047 0.5625z"/>
<path transform="matrix(1.6397 0 0 1.6418 6.02 -3.1832)" d="m374.22 72.644s-2.8111 5.6127-11.242 0" fill="none" stroke="#000" stroke-width=".95524"/>
<path transform="matrix(1.6397 0 0 1.6418 6.02 -3.1832)" d="m377.71 67.9h95.549" fill="none" stroke="#000" stroke-width="2.1227"/>
<path transform="matrix(1.6397 0 0 1.6418 6.02 -3.1832)" d="m478.16 67.9-7.3493 4.2446v-8.4869z" fill-rule="evenodd" stroke="#000" stroke-width="1.0614"/>
<path transform="matrix(1.6397 0 0 1.6418 6.02 -3.1832)" d="m428.29 80.526h28.104" fill="none" stroke="#000" stroke-width=".56164"/>
<path transform="matrix(1.6397 0 0 1.6418 6.02 -3.1832)" d="m451.11 80.526v-10.029" fill="none" stroke="#000" stroke-width=".56164"/>
<path transform="matrix(1.6397 0 0 1.6418 6.02 -3.1832)" d="m451.11 69.206 1.1221 1.9391h-2.2441z" fill-rule="evenodd" stroke="#000" stroke-width=".28082"/>
<path d="m754.93 116.41v2.5039h2.5195v1.1367h-2.5195v2.5195h-1.1328v-2.5195h-2.5039v-1.1367h2.5039v-2.5039z"/>
<path d="m742.85 187 17.633 4.6641v12.742l-17.633-5.9219z" fill="#e9e9ff" fill-rule="evenodd"/>
<path d="m707.94 197.38v12.762l34.914-11.652v-11.484z" fill="#353564" fill-rule="evenodd"/>
<path d="m707.94 210.14 15.531 8.0977 37.012-13.832-17.633-5.918z" fill="#afafde" fill-rule="evenodd"/>
<path transform="matrix(1.6397 0 0 1.6418 6.02 -3.1832)" d="m428.07 122.16 9.472 3.9758 22.572-7.4543-10.754-2.8409z" fill="#fff" fill-rule="evenodd" stroke="#000" stroke-linejoin="round" stroke-width="2.1317"/>
<path transform="matrix(1.6397 0 0 1.6418 6.02 -3.1832)" d="m437.55 126.14v8.7296l22.572-8.425v-7.7612z" fill="#fff" fill-rule="evenodd" stroke="#000" stroke-linejoin="round" stroke-width="2.1317"/>
<path transform="matrix(1.6397 0 0 1.6418 6.02 -3.1832)" d="m428.07 122.16 9.472 3.9758v8.7296l-9.472-4.9322z" fill="#fff" fill-rule="evenodd" stroke="#000" stroke-linejoin="round" stroke-width="2.1317"/>
<path d="m742.85 187 17.633 4.6641v12.742l-17.633-5.9219z" fill="#e9e9ff" fill-rule="evenodd"/>
<path d="m707.94 197.38v12.762l34.914-11.652v-11.484z" fill="#353564" fill-rule="evenodd"/>
<path d="m707.94 210.14 15.531 8.0977 37.012-13.832-17.633-5.918z" fill="#afafde" fill-rule="evenodd"/>
<path transform="matrix(1.6397 0 0 1.6418 6.02 -3.1832)" d="m428.07 122.16 9.472 3.9758 22.572-7.4543-10.754-2.8409z" fill="#fff" fill-rule="evenodd" stroke="#000" stroke-linejoin="round" stroke-width="2.1317"/>
<path transform="matrix(1.6397 0 0 1.6418 6.02 -3.1832)" d="m437.55 126.14v8.7296l22.572-8.425v-7.7612z" fill="#fff" fill-rule="evenodd" stroke="#000" stroke-linejoin="round" stroke-width="2.1317"/>
<path transform="matrix(1.6397 0 0 1.6418 6.02 -3.1832)" d="m428.07 122.16 9.472 3.9758v8.7296l-9.472-4.9322z" fill="#fff" fill-rule="evenodd" stroke="#000" stroke-linejoin="round" stroke-width="2.1317"/>
<path transform="matrix(1.6397 0 0 1.6418 6.02 -3.1832)" d="m460.14 124.68 7.7424-4.6991 5.3101 10.823-8.1188 3.9258z" fill="#fff" stroke="#000" stroke-linejoin="round" stroke-width="1.1783"/>
<path transform="matrix(1.6397 0 0 1.6418 6.02 -3.1832)" d="m438.59 107 5.6984 11.616 20.797 16.117-4.9313-10.048z" fill="#fff" fill-rule="evenodd" stroke="#000" stroke-linejoin="round" stroke-width="1.1783"/>
<path transform="matrix(1.6397 0 0 1.6418 6.02 -3.1832)" d="m438.59 107 7.1087-7.095 22.198 20.081-7.7424 4.6991z" fill="#fff" stroke="#000" stroke-linejoin="round" stroke-width="1.1783"/>
<path transform="matrix(1.6397 0 0 1.6418 6.02 -3.1832)" d="m444.28 118.61 7.6233-6.0481 21.295 18.242-8.1188 3.9234z" fill="#fff" stroke="#000" stroke-linejoin="round" stroke-width="2.1317"/>
<path transform="matrix(1.6397 0 0 1.6418 6.02 -3.1832)" d="m445.69 99.901 6.213 12.665 21.295 18.24-5.3101-10.823z" fill="#fff" stroke="#000" stroke-linejoin="round" stroke-width="2.1317"/>
<path transform="matrix(1.6397 0 0 1.6418 6.02 -3.1832)" d="m438.59 107 7.1087-7.095 6.213 12.665-7.6233 6.0457z" fill="#fff" stroke="#000" stroke-linejoin="round" stroke-width="2.1317"/>
<path d="m715.85 206.21-1.6953 1.9453 1.7383 0.43359zm-0.29688-1.2773 1.7734 0.4375 0.074219 3.5938 0.87109 0.21875 0.03125 1.0703-0.87109-0.21484 0.015624 1.043-1.5078-0.375-0.015625-1.043-2.7344-0.68359-0.03125-1.2617z"/>
<path d="m760.4 196.76 3.1406 2.5234-0.91797 1.2422-2.1289-1.7109-0.76172 0.99609c0.125 0.054687 0.23438 0.10938 0.33984 0.17188 0.11328 0.0625 0.22266 0.13672 0.32812 0.21875 0.58984 0.47656 0.90234 1.0508 0.93359 1.7109 0.039062 0.66406-0.20313 1.3516-0.73047 2.0703-0.53125 0.70312-1.1289 1.1094-1.7891 1.2109-0.65234 0.11328-1.3008-0.085937-1.9414-0.60547-0.28125-0.23047-0.53906-0.48828-0.76172-0.77734-0.21875-0.29297-0.40625-0.61719-0.55859-0.98047l0.99219-1.3242c0.11328 0.42969 0.25 0.78516 0.40625 1.0742 0.16016 0.28906 0.35547 0.52344 0.57422 0.69922 0.29688 0.23828 0.60938 0.32812 0.93359 0.26562 0.32812-0.054688 0.625-0.25 0.88281-0.58984 0.25-0.34375 0.35938-0.67969 0.32812-1.0117-0.023437-0.34375-0.18359-0.62891-0.48047-0.87109-0.1875-0.15625-0.40625-0.28516-0.65625-0.39062-0.24609-0.10156-0.54297-0.17969-0.88281-0.23438z"/>
<path d="m665.1 242.28v1.4453c-0.43359-0.23828-0.87891-0.41016-1.3203-0.52734-0.43359-0.125-0.88281-0.1875-1.3359-0.1875-1.0078 0-1.7891 0.32031-2.3477 0.96484-0.55078 0.63281-0.82422 1.5234-0.82422 2.6758 0 1.1523 0.27344 2.0508 0.82422 2.6914 0.55859 0.63672 1.3398 0.94922 2.3477 0.94922 0.45312 0 0.90234-0.054687 1.3359-0.17187 0.44141-0.12109 0.88672-0.30078 1.3203-0.54297v1.4297c-0.42578 0.19922-0.87109 0.35156-1.3359 0.45312-0.46484 0.10156-0.96094 0.15625-1.4766 0.15625-1.4297 0-2.5664-0.44531-3.4023-1.3398-0.83984-0.90234-1.2617-2.1094-1.2617-3.625 0-1.5312 0.42578-2.7422 1.2773-3.625 0.84375-0.89063 2.0078-1.3398 3.4805-1.3398 0.47266 0 0.94141 0.054687 1.3984 0.15625 0.45312 0.09375 0.89453 0.24219 1.3203 0.4375z"/>
<g>
<use x="4.339844" y="28.343923" xlink:href="#p"/>
<use x="28.935476" y="28.343923" xlink:href="#b"/>
<use x="35.494311" y="28.343923" xlink:href="#a"/>
<use x="51.891399" y="28.343923" xlink:href="#j"/>
<use x="68.288487" y="28.343923" xlink:href="#a"/>
<use x="84.685575" y="28.343923" xlink:href="#e"/>
<use x="94.523827" y="28.343923" xlink:href="#k"/>
<use x="110.920915" y="28.343923" xlink:href="#a"/>
<use x="127.318003" y="28.343923" xlink:href="#e"/>
<use x="138.795965" y="28.343923" xlink:href="#i"/>
<use x="151.913635" y="28.343923" xlink:href="#h"/>
<use x="161.751888" y="28.343923" xlink:href="#a"/>
<use x="178.148976" y="28.343923" xlink:href="#g"/>
<use x="184.707811" y="28.343923" xlink:href="#g"/>
<use x="191.266646" y="28.343923" xlink:href="#f"/>
<use x="207.663734" y="28.343923" xlink:href="#d"/>
<use x="224.060822" y="28.343923" xlink:href="#c"/>
</g>
<g>
<use x="313.4375" y="28.343923" xlink:href="#o"/>
<use x="333.114006" y="28.343923" xlink:href="#n"/>
<use x="349.511093" y="28.343923" xlink:href="#a"/>
<use x="365.908181" y="28.343923" xlink:href="#e"/>
<use x="377.386143" y="28.343923" xlink:href="#m"/>
<use x="398.702357" y="28.343923" xlink:href="#b"/>
<use x="405.261193" y="28.343923" xlink:href="#d"/>
<use x="421.65828" y="28.343923" xlink:href="#j"/>
<use x="438.055368" y="28.343923" xlink:href="#f"/>
<use x="454.452456" y="28.343923" xlink:href="#d"/>
<use x="470.849544" y="28.343923" xlink:href="#c"/>
</g>
<g>
<use x="600.953125" y="28.343923" xlink:href="#l"/>
<use x="618.989922" y="28.343923" xlink:href="#a"/>
<use x="635.38701" y="28.343923" xlink:href="#i"/>
<use x="648.50468" y="28.343923" xlink:href="#a"/>
<use x="664.901768" y="28.343923" xlink:href="#b"/>
<use x="671.460603" y="28.343923" xlink:href="#h"/>
<use x="681.298856" y="28.343923" xlink:href="#b"/>
<use x="687.857691" y="28.343923" xlink:href="#c"/>
<use x="704.254779" y="28.343923" xlink:href="#f"/>
<use x="720.651867" y="28.343923" xlink:href="#d"/>
<use x="737.048955" y="28.343923" xlink:href="#c"/>
</g>
</svg>
