<?xml version="1.0" encoding="UTF-8"?>
<svg width="800px" height="435px" version="1.1" viewBox="0 0 800 435" xmlns="http://www.w3.org/2000/svg" xmlns:xlink="http://www.w3.org/1999/xlink">
<defs>
<symbol id="f" overflow="visible">
<path d="m14.391-8.6719v8.6719h-2.3594v-8.5938c0-1.3516-0.26562-2.3672-0.79688-3.0469-0.52344-0.67578-1.3125-1.0156-2.375-1.0156-1.2734 0-2.2773 0.40625-3.0156 1.2188-0.73047 0.8125-1.0938 1.9219-1.0938 3.3281v8.1094h-2.375v-14.359h2.375v2.2344c0.5625-0.86328 1.2227-1.5078 1.9844-1.9375 0.76953-0.42578 1.6562-0.64062 2.6562-0.64062 1.6445 0 2.8906 0.51172 3.7344 1.5312 0.84375 1.0234 1.2656 2.5234 1.2656 4.5z"/>
</symbol>
<symbol id="g" overflow="visible">
<path d="m8.0312-12.703c-1.2734 0-2.2734 0.49609-3 1.4844-0.73047 0.99219-1.0938 2.3398-1.0938 4.0469 0 1.7188 0.36328 3.0742 1.0938 4.0625 0.72656 0.99219 1.7266 1.4844 3 1.4844 1.25 0 2.2383-0.49219 2.9688-1.4844 0.73828-0.98828 1.1094-2.3438 1.1094-4.0625 0-1.6953-0.37109-3.0391-1.1094-4.0312-0.73047-1-1.7188-1.5-2.9688-1.5zm0-2c2.0391 0 3.6445 0.66797 4.8125 2 1.1758 1.3359 1.7656 3.1797 1.7656 5.5312 0 2.3555-0.58984 4.2031-1.7656 5.5469-1.168 1.3359-2.7734 2-4.8125 2-2.0625 0-3.6797-0.66406-4.8438-2-1.1562-1.3438-1.7344-3.1914-1.7344-5.5469 0-2.3516 0.57812-4.1953 1.7344-5.5312 1.1641-1.332 2.7812-2 4.8438-2z"/>
</symbol>
<symbol id="i" overflow="visible">
<path d="m10.781-12.156c-0.27344-0.14453-0.5625-0.25391-0.875-0.32812-0.30469-0.070313-0.64062-0.10938-1.0156-0.10938-1.3359 0-2.3594 0.43359-3.0781 1.2969-0.71094 0.86719-1.0625 2.1094-1.0625 3.7344v7.5625h-2.375v-14.359h2.375v2.2344c0.48828-0.875 1.1289-1.5195 1.9219-1.9375 0.80078-0.42578 1.7695-0.64062 2.9062-0.64062 0.15625 0 0.33203 0.011719 0.53125 0.03125 0.19531 0.023437 0.41406 0.054687 0.65625 0.09375z"/>
</symbol>
<symbol id="h" overflow="visible">
<path d="m13.641-11.594c0.58203-1.0625 1.2812-1.8438 2.0938-2.3438 0.82031-0.50781 1.7891-0.76562 2.9062-0.76562 1.4883 0 2.6406 0.52734 3.4531 1.5781 0.8125 1.043 1.2188 2.5273 1.2188 4.4531v8.6719h-2.375v-8.5938c0-1.375-0.24609-2.3945-0.73438-3.0625-0.48047-0.66406-1.2188-1-2.2188-1-1.2188 0-2.1836 0.40625-2.8906 1.2188-0.71094 0.8125-1.0625 1.9219-1.0625 3.3281v8.1094h-2.375v-8.5938c0-1.3828-0.24609-2.4062-0.73438-3.0625-0.48047-0.66406-1.2266-1-2.2344-1-1.2109 0-2.168 0.41406-2.875 1.2344-0.71094 0.8125-1.0625 1.918-1.0625 3.3125v8.1094h-2.375v-14.359h2.375v2.2344c0.53906-0.88281 1.1875-1.5352 1.9375-1.9531 0.75-0.41406 1.6406-0.625 2.6719-0.625 1.0391 0 1.9258 0.26562 2.6562 0.79688 0.72656 0.53125 1.2695 1.3047 1.625 2.3125z"/>
</symbol>
<symbol id="e" overflow="visible">
<path d="m8.9844-7.2188c-1.9062 0-3.2266 0.21875-3.9531 0.65625-0.73047 0.4375-1.0938 1.1836-1.0938 2.2344 0 0.83594 0.26953 1.4961 0.8125 1.9844 0.55078 0.49219 1.3008 0.73438 2.25 0.73438 1.3125 0 2.3594-0.46094 3.1406-1.3906 0.78906-0.92578 1.1875-2.1562 1.1875-3.6875v-0.53125zm4.7031-0.96875v8.1875h-2.3594v-2.1719c-0.54297 0.86719-1.2148 1.5078-2.0156 1.9219-0.80469 0.41406-1.7812 0.625-2.9375 0.625-1.4688 0-2.6367-0.41016-3.5-1.2344-0.86719-0.83203-1.2969-1.9375-1.2969-3.3125 0-1.6133 0.53516-2.832 1.6094-3.6562 1.082-0.82031 2.6953-1.2344 4.8438-1.2344h3.2969v-0.23438c0-1.082-0.35938-1.9219-1.0781-2.5156-0.71094-0.59375-1.7031-0.89062-2.9844-0.89062-0.82422 0-1.625 0.10156-2.4062 0.29688-0.77344 0.19922-1.5156 0.49609-2.2344 0.89062v-2.1875c0.86328-0.33203 1.6953-0.58203 2.5-0.75 0.8125-0.16406 1.6016-0.25 2.375-0.25 2.0703 0 3.6172 0.54297 4.6406 1.625 1.0312 1.0742 1.5469 2.7031 1.5469 4.8906z"/>
</symbol>
<symbol id="d" overflow="visible">
<path d="m2.4688-19.938h2.3594v19.938h-2.3594z"/>
</symbol>
<symbol id="a" overflow="visible">
<path d="m2.4688-14.359h2.3594v14.359h-2.3594zm0-5.5781h2.3594v2.9844h-2.3594z"/>
</symbol>
<symbol id="c" overflow="visible">
<path d="m4.7969-18.438v4.0781h4.8594v1.8438h-4.8594v7.7812c0 1.1797 0.16016 1.9336 0.48438 2.2656 0.32031 0.33594 0.97266 0.5 1.9531 0.5h2.4219v1.9688h-2.4219c-1.8242 0-3.0781-0.33594-3.7656-1.0156-0.6875-0.67578-1.0312-1.9141-1.0312-3.7188v-7.7812h-1.7344v-1.8438h1.7344v-4.0781z"/>
</symbol>
<symbol id="s" overflow="visible">
<path d="m8.4375 1.3281c-0.66797 1.707-1.3203 2.8203-1.9531 3.3438-0.625 0.51953-1.4688 0.78125-2.5312 0.78125h-1.875v-1.9688h1.375c0.64453 0 1.1445-0.15625 1.5-0.46875 0.36328-0.30469 0.76562-1.0273 1.2031-2.1719l0.42188-1.0781-5.7969-14.125h2.5l4.4844 11.234 4.4688-11.234h2.5z"/>
</symbol>
<symbol id="l" overflow="visible"></symbol>
<symbol id="b" overflow="visible">
<path d="m14.734-7.7656v1.1562h-10.828c0.10156 1.625 0.59375 2.8672 1.4688 3.7188 0.875 0.84375 2.0938 1.2656 3.6562 1.2656 0.89453 0 1.7695-0.10938 2.625-0.32812 0.85156-0.22656 1.6953-0.5625 2.5312-1v2.2188c-0.84375 0.36719-1.7148 0.64062-2.6094 0.82812-0.88672 0.1875-1.7812 0.28125-2.6875 0.28125-2.293 0-4.1055-0.66406-5.4375-2-1.3359-1.332-2-3.1328-2-5.4062 0-2.3516 0.62891-4.2188 1.8906-5.5938 1.2695-1.3828 2.9766-2.0781 5.125-2.0781 1.9375 0 3.4609 0.625 4.5781 1.875 1.125 1.2422 1.6875 2.9297 1.6875 5.0625zm-2.3594-0.6875c-0.011719-1.2891-0.37109-2.3203-1.0781-3.0938-0.71094-0.76953-1.6406-1.1562-2.7969-1.1562-1.3125 0-2.3672 0.375-3.1562 1.125-0.79297 0.74219-1.2461 1.7812-1.3594 3.125z"/>
</symbol>
<symbol id="v" overflow="visible">
<path d="m1.2812-8.2344h6.9062v2.0938h-6.9062z"/>
</symbol>
<symbol id="k" overflow="visible">
<path d="m11.906-12.172v-7.7656h2.3594v19.938h-2.3594v-2.1562c-0.5 0.85547-1.1328 1.4922-1.8906 1.9062-0.75 0.41406-1.6523 0.625-2.7031 0.625-1.7305 0-3.1406-0.69141-4.2344-2.0781-1.0859-1.3828-1.625-3.207-1.625-5.4688 0-2.25 0.53906-4.0664 1.625-5.4531 1.0938-1.3828 2.5039-2.0781 4.2344-2.0781 1.0508 0 1.9531 0.21094 2.7031 0.625 0.75781 0.41797 1.3906 1.0547 1.8906 1.9062zm-8.0312 5c0 1.7422 0.35156 3.1055 1.0625 4.0938 0.71875 0.98047 1.7031 1.4688 2.9531 1.4688 1.2383 0 2.2188-0.48828 2.9375-1.4688 0.71875-0.98828 1.0781-2.3516 1.0781-4.0938 0-1.7266-0.35938-3.0859-1.0781-4.0781-0.71875-0.98828-1.6992-1.4844-2.9375-1.4844-1.25 0-2.2344 0.49609-2.9531 1.4844-0.71094 0.99219-1.0625 2.3516-1.0625 4.0781z"/>
</symbol>
<symbol id="j" overflow="visible">
<path d="m11.609-13.938v2.2344c-0.66797-0.34375-1.3594-0.59766-2.0781-0.76562-0.71094-0.17578-1.4492-0.26562-2.2188-0.26562-1.168 0-2.0469 0.18359-2.6406 0.54688-0.58594 0.35547-0.875 0.89062-0.875 1.6094 0 0.55469 0.20703 0.98438 0.625 1.2969 0.42578 0.3125 1.2695 0.60938 2.5312 0.89062l0.8125 0.17188c1.6641 0.36719 2.8477 0.875 3.5469 1.5312 0.70703 0.64844 1.0625 1.5586 1.0625 2.7344 0 1.3242-0.52734 2.375-1.5781 3.1562-1.0547 0.78125-2.5 1.1719-4.3438 1.1719-0.77344 0-1.5742-0.078125-2.4062-0.23438-0.83594-0.14453-1.7109-0.36719-2.625-0.67188v-2.4219c0.875 0.44922 1.7344 0.78906 2.5781 1.0156 0.84375 0.21875 1.6758 0.32812 2.5 0.32812 1.1133 0 1.9688-0.1875 2.5625-0.5625 0.59375-0.38281 0.89062-0.92188 0.89062-1.6094 0-0.64453-0.21484-1.1328-0.64062-1.4688-0.42969-0.34375-1.3711-0.67188-2.8281-0.98438l-0.82812-0.20312c-1.4609-0.30078-2.5117-0.76953-3.1562-1.4062-0.64844-0.64453-0.96875-1.5195-0.96875-2.625 0-1.3516 0.47266-2.3945 1.4219-3.125 0.95703-0.73828 2.3164-1.1094 4.0781-1.1094 0.86328 0 1.6797 0.070313 2.4531 0.20312 0.76953 0.125 1.4766 0.3125 2.125 0.5625z"/>
</symbol>
<symbol id="n" overflow="visible">
<path d="m4.75-2.1562v7.6094h-2.375v-19.812h2.375v2.1875c0.48828-0.85156 1.1133-1.4883 1.875-1.9062 0.75781-0.41406 1.6602-0.625 2.7031-0.625 1.7383 0 3.1484 0.69531 4.2344 2.0781 1.0938 1.3867 1.6406 3.2031 1.6406 5.4531 0 2.2617-0.54688 4.0859-1.6406 5.4688-1.0859 1.3867-2.4961 2.0781-4.2344 2.0781-1.043 0-1.9453-0.21094-2.7031-0.625-0.76172-0.41406-1.3867-1.0508-1.875-1.9062zm8.0156-5.0156c0-1.7266-0.35938-3.0859-1.0781-4.0781-0.71094-0.98828-1.6875-1.4844-2.9375-1.4844-1.2422 0-2.2188 0.49609-2.9375 1.4844-0.71094 0.99219-1.0625 2.3516-1.0625 4.0781 0 1.7422 0.35156 3.1055 1.0625 4.0938 0.71875 0.98047 1.6953 1.4688 2.9375 1.4688 1.25 0 2.2266-0.48828 2.9375-1.4688 0.71875-0.98828 1.0781-2.3516 1.0781-4.0938z"/>
</symbol>
<symbol id="r" overflow="visible">
<path d="m12.797-13.797v2.2031c-0.66797-0.375-1.3398-0.64844-2.0156-0.82812-0.66797-0.1875-1.3438-0.28125-2.0312-0.28125-1.5234 0-2.7031 0.48438-3.5469 1.4531s-1.2656 2.3281-1.2656 4.0781c0 1.7617 0.42188 3.125 1.2656 4.0938s2.0234 1.4531 3.5469 1.4531c0.6875 0 1.3633-0.085938 2.0312-0.26562 0.67578-0.1875 1.3477-0.46875 2.0156-0.84375v2.1875c-0.66797 0.30469-1.3555 0.53125-2.0625 0.6875-0.69922 0.15625-1.4453 0.23438-2.2344 0.23438-2.1562 0-3.8711-0.67578-5.1406-2.0312-1.2734-1.3633-1.9062-3.2031-1.9062-5.5156 0-2.332 0.64062-4.1719 1.9219-5.5156s3.0391-2.0156 5.2812-2.0156c0.72656 0 1.4375 0.078125 2.125 0.23438 0.6875 0.14844 1.3594 0.37109 2.0156 0.67188z"/>
</symbol>
<symbol id="q" overflow="visible">
<path d="m0.78125-14.359h2.5l4.4844 12.047 4.4688-12.047h2.5l-5.375 14.359h-3.2031z"/>
</symbol>
<symbol id="u" overflow="visible">
<path d="m1.0938-14.359h2.3594l2.9531 11.203 2.9219-11.203h2.7812l2.9531 11.203 2.9219-11.203h2.3594l-3.75 14.359h-2.7812l-3.0781-11.766-3.1094 11.766h-2.7656z"/>
</symbol>
<symbol id="m" overflow="visible">
<path d="m9.7344-19.938v1.9531h-2.2656c-0.84375 0-1.4336 0.17188-1.7656 0.51562-0.32422 0.34375-0.48438 0.96094-0.48438 1.8438v1.2656h3.8906v1.8438h-3.8906v12.516h-2.3594v-12.516h-2.25v-1.8438h2.25v-1c0-1.5938 0.36719-2.7539 1.1094-3.4844 0.73828-0.72656 1.9141-1.0938 3.5312-1.0938z"/>
</symbol>
<symbol id="t" overflow="visible">
<path d="m14.391-8.6719v8.6719h-2.3594v-8.5938c0-1.3516-0.26562-2.3672-0.79688-3.0469-0.52344-0.67578-1.3125-1.0156-2.375-1.0156-1.2734 0-2.2773 0.40625-3.0156 1.2188-0.73047 0.8125-1.0938 1.9219-1.0938 3.3281v8.1094h-2.375v-19.938h2.375v7.8125c0.5625-0.86328 1.2227-1.5078 1.9844-1.9375 0.76953-0.42578 1.6562-0.64062 2.6562-0.64062 1.6445 0 2.8906 0.51172 3.7344 1.5312 0.84375 1.0234 1.2656 2.5234 1.2656 4.5z"/>
</symbol>
<symbol id="p" overflow="visible">
<path d="m4.7031-19.141v7.125h-2.1875v-7.125zm4.8281 0v7.125h-2.1719v-7.125z"/>
</symbol>
<symbol id="o" overflow="visible">
<path d="m12.766-7.1719c0-1.7266-0.35938-3.0859-1.0781-4.0781-0.71094-0.98828-1.6875-1.4844-2.9375-1.4844-1.2422 0-2.2188 0.49609-2.9375 1.4844-0.71094 0.99219-1.0625 2.3516-1.0625 4.0781 0 1.7422 0.35156 3.1055 1.0625 4.0938 0.71875 0.98047 1.6953 1.4688 2.9375 1.4688 1.25 0 2.2266-0.48828 2.9375-1.4688 0.71875-0.98828 1.0781-2.3516 1.0781-4.0938zm-8.0156-5c0.48828-0.85156 1.1133-1.4883 1.875-1.9062 0.75781-0.41406 1.6602-0.625 2.7031-0.625 1.7383 0 3.1484 0.69531 4.2344 2.0781 1.0938 1.3867 1.6406 3.2031 1.6406 5.4531 0 2.2617-0.54688 4.0859-1.6406 5.4688-1.0859 1.3867-2.4961 2.0781-4.2344 2.0781-1.043 0-1.9453-0.21094-2.7031-0.625-0.76172-0.41406-1.3867-1.0508-1.875-1.9062v2.1562h-2.375v-19.938h2.375z"/>
</symbol>
</defs>
<path transform="matrix(2.6221 0 0 2.6242 0 .29138)" d="m25.521 48.755h29.999" fill="none" stroke="#000" stroke-width="2.8346"/>
<path transform="matrix(2.6221 0 0 2.6242 0 .29138)" d="m40.521 138.75v-135" fill="none" stroke="#000" stroke-width="2.8346"/>
<path d="m88.258 49.055 17.918-48.762 17.918 48.762c-10.578-7.7891-25.051-7.7422-35.836 0z" fill-rule="evenodd"/>
<path transform="matrix(2.6221 0 0 2.6242 0 .29138)" d="m168.02 60.003h105" fill="none" stroke="#000" stroke-width="2.8346"/>
<path transform="matrix(2.6221 0 0 2.6242 0 .29138)" d="m220.52 112.5v-105" fill="none" stroke="#000" stroke-width="2.8346"/>
<path transform="matrix(2.6221 0 0 2.6242 0 .29138)" d="m224.27 60.003c0 2.072-1.6789 3.7511-3.7497 3.7511s-3.7497-1.6791-3.7497-3.7511c0-2.0706 1.6789-3.7496 3.7497-3.7496s3.7497 1.6791 3.7497 3.7496z" fill="none" stroke="#000" stroke-width="1.4173"/>
<path transform="matrix(2.6221 0 0 2.6242 725.72 49.506)" d="m-75 30c0 2.0706-1.6789 3.7496-3.7497 3.7496s-3.7497-1.6791-3.7497-3.7496c0-2.072 1.6789-3.7511 3.7497-3.7511s3.7497 1.6791 3.7497 3.7511z" fill="none" stroke="#000" stroke-width="1.4173"/>
<path d="m525.12 128.23c0 3.2578-2.6406 5.9023-5.8984 5.9023-3.2578 0-5.8984-2.6445-5.8984-5.9023 0-3.2617 2.6406-5.9062 5.8984-5.9062 3.2578 0 5.8984 2.6445 5.8984 5.9062z"/>
<path transform="matrix(2.6221 0 0 2.6242 312.74 -9.5386)" d="m-75 30c0 2.0706-1.6789 3.7496-3.7497 3.7496-2.0722 0-3.7512-1.6791-3.7512-3.7496s1.6789-3.7496 3.7512-3.7496c2.0708 0 3.7497 1.6791 3.7497 3.7496z" fill="none" stroke="#000" stroke-width="1.4173"/>
<path d="m112.15 69.188c0 3.2617-2.6406 5.9062-5.8984 5.9062-3.2617 0-5.9023-2.6445-5.9023-5.9062s2.6406-5.9023 5.9023-5.9023c3.2578 0 5.8984 2.6406 5.8984 5.9023z"/>
<path transform="matrix(2.6221 0 0 2.6242 312.74 108.55)" d="m-75 30c0 2.072-1.6789 3.7496-3.7497 3.7496-2.0722 0-3.7512-1.6776-3.7512-3.7496 0-2.0706 1.6789-3.7496 3.7512-3.7496 2.0708 0 3.7497 1.6791 3.7497 3.7496z" fill="none" stroke="#000" stroke-width="1.4173"/>
<path d="m112.15 187.28c0 3.2617-2.6406 5.9062-5.8984 5.9062-3.2617 0-5.9023-2.6445-5.9023-5.9062 0-3.2617 2.6406-5.9023 5.9023-5.9023 3.2578 0 5.8984 2.6406 5.8984 5.9023z"/>
<path transform="matrix(2.6221 0 0 2.6242 883.04 -29.22)" d="m-74.999 30.001c0 2.0706-1.6789 3.7496-3.7512 3.7496-2.0708 0-3.7497-1.6791-3.7497-3.7496 0-2.072 1.6789-3.7511 3.7497-3.7511 2.0722 0 3.7512 1.6791 3.7512 3.7511z" fill="none" stroke="#000" stroke-width="1.4173"/>
<path d="m682.45 49.508c0 3.2578-2.6445 5.9023-5.9023 5.9023-3.2578 0-5.8984-2.6445-5.8984-5.9023 0-3.2617 2.6406-5.9062 5.8984-5.9062 3.2578 0 5.9023 2.6445 5.9023 5.9062z"/>
<path transform="matrix(2.6221 0 0 2.6242 843.71 108.55)" d="m-75 30c0 2.072-1.6789 3.7496-3.7512 3.7496-2.0708 0-3.7497-1.6776-3.7497-3.7496 0-2.0706 1.6789-3.7496 3.7497-3.7496 2.0722 0 3.7512 1.6791 3.7512 3.7496z" fill="none" stroke="#000" stroke-width="1.4173"/>
<path d="m643.12 187.28c0 3.2617-2.6406 5.9062-5.9023 5.9062-3.2578 0-5.8984-2.6445-5.8984-5.9062 0-3.2617 2.6406-5.9023 5.8984-5.9023 3.2617 0 5.9023 2.6406 5.9023 5.9023z"/>
<g>
<use x="163.1875" y="134.026607" xlink:href="#f"/>
<use x="178.920016" y="134.026607" xlink:href="#g"/>
<use x="194.652533" y="134.026607" xlink:href="#i"/>
<use x="205.140877" y="134.026607" xlink:href="#h"/>
<use x="231.361738" y="134.026607" xlink:href="#e"/>
<use x="247.094255" y="134.026607" xlink:href="#d"/>
<use x="254.960513" y="134.026607" xlink:href="#a"/>
<use x="262.826771" y="134.026607" xlink:href="#c"/>
<use x="273.315115" y="134.026607" xlink:href="#s"/>
<use x="289.047632" y="134.026607" xlink:href="#l"/>
<use x="296.91389" y="134.026607" xlink:href="#d"/>
<use x="304.780148" y="134.026607" xlink:href="#a"/>
<use x="312.646407" y="134.026607" xlink:href="#h"/>
<use x="338.867267" y="134.026607" xlink:href="#a"/>
<use x="346.733526" y="134.026607" xlink:href="#c"/>
</g>
<g>
<use x="-1.277344" y="398.483638" xlink:href="#g"/>
<use x="14.455173" y="398.483638" xlink:href="#f"/>
<use x="30.187689" y="398.483638" xlink:href="#b"/>
<use x="45.920206" y="398.483638" xlink:href="#v"/>
<use x="56.40855" y="398.483638" xlink:href="#k"/>
<use x="72.141067" y="398.483638" xlink:href="#a"/>
<use x="80.007325" y="398.483638" xlink:href="#h"/>
<use x="106.228186" y="398.483638" xlink:href="#b"/>
<use x="121.960702" y="398.483638" xlink:href="#f"/>
<use x="137.693219" y="398.483638" xlink:href="#j"/>
<use x="150.803649" y="398.483638" xlink:href="#a"/>
<use x="158.669907" y="398.483638" xlink:href="#g"/>
<use x="174.402424" y="398.483638" xlink:href="#f"/>
<use x="190.13494" y="398.483638" xlink:href="#e"/>
<use x="205.867457" y="398.483638" xlink:href="#d"/>
</g>
<g>
<use x="30.1875" y="431.28442" xlink:href="#n"/>
<use x="45.920016" y="431.28442" xlink:href="#b"/>
<use x="61.652533" y="431.28442" xlink:href="#i"/>
<use x="72.140877" y="431.28442" xlink:href="#j"/>
<use x="85.251308" y="431.28442" xlink:href="#n"/>
<use x="100.983824" y="431.28442" xlink:href="#b"/>
<use x="116.716341" y="431.28442" xlink:href="#r"/>
<use x="132.448857" y="431.28442" xlink:href="#c"/>
<use x="142.937202" y="431.28442" xlink:href="#a"/>
<use x="150.80346" y="431.28442" xlink:href="#q"/>
<use x="166.535976" y="431.28442" xlink:href="#b"/>
</g>
<g>
<use x="506.117188" y="396.448482" xlink:href="#q"/>
<use x="521.849704" y="396.448482" xlink:href="#a"/>
<use x="529.715962" y="396.448482" xlink:href="#b"/>
<use x="545.448479" y="396.448482" xlink:href="#u"/>
<use x="566.425167" y="396.448482" xlink:href="#l"/>
<use x="574.291426" y="396.448482" xlink:href="#g"/>
<use x="590.023942" y="396.448482" xlink:href="#m"/>
<use x="600.512286" y="396.448482" xlink:href="#l"/>
<use x="608.378545" y="396.448482" xlink:href="#c"/>
<use x="618.866889" y="396.448482" xlink:href="#t"/>
<use x="634.599406" y="396.448482" xlink:href="#b"/>
</g>
<g>
<use x="430.074219" y="429.249263" xlink:href="#p"/>
<use x="443.184649" y="429.249263" xlink:href="#k"/>
<use x="458.917166" y="429.249263" xlink:href="#a"/>
<use x="466.783424" y="429.249263" xlink:href="#m"/>
<use x="477.271768" y="429.249263" xlink:href="#m"/>
<use x="487.760113" y="429.249263" xlink:href="#b"/>
<use x="503.492629" y="429.249263" xlink:href="#i"/>
<use x="513.980973" y="429.249263" xlink:href="#b"/>
<use x="529.71349" y="429.249263" xlink:href="#f"/>
<use x="545.446006" y="429.249263" xlink:href="#c"/>
<use x="555.934351" y="429.249263" xlink:href="#l"/>
<use x="563.800609" y="429.249263" xlink:href="#r"/>
<use x="579.533125" y="429.249263" xlink:href="#e"/>
<use x="595.265642" y="429.249263" xlink:href="#n"/>
<use x="610.998158" y="429.249263" xlink:href="#e"/>
<use x="626.730675" y="429.249263" xlink:href="#o"/>
<use x="642.463191" y="429.249263" xlink:href="#a"/>
<use x="650.32945" y="429.249263" xlink:href="#d"/>
<use x="658.195708" y="429.249263" xlink:href="#a"/>
<use x="666.061966" y="429.249263" xlink:href="#c"/>
<use x="676.55031" y="429.249263" xlink:href="#a"/>
<use x="684.416569" y="429.249263" xlink:href="#b"/>
<use x="700.149085" y="429.249263" xlink:href="#j"/>
<use x="713.259516" y="429.249263" xlink:href="#p"/>
</g>
<g>
<use x="143.675781" y="77.014888" xlink:href="#f"/>
<use x="159.408298" y="77.014888" xlink:href="#g"/>
<use x="175.140814" y="77.014888" xlink:href="#i"/>
<use x="185.629159" y="77.014888" xlink:href="#h"/>
<use x="211.850019" y="77.014888" xlink:href="#e"/>
<use x="227.582536" y="77.014888" xlink:href="#d"/>
</g>
<g>
<use x="143.675781" y="195.104732" xlink:href="#k"/>
<use x="159.408298" y="195.104732" xlink:href="#a"/>
<use x="167.274556" y="195.104732" xlink:href="#j"/>
<use x="180.384986" y="195.104732" xlink:href="#e"/>
<use x="196.117503" y="195.104732" xlink:href="#o"/>
<use x="211.850019" y="195.104732" xlink:href="#d"/>
<use x="219.716278" y="195.104732" xlink:href="#b"/>
<use x="235.448794" y="195.104732" xlink:href="#k"/>
</g>
</svg>
