<?xml version="1.0" encoding="UTF-8"?>
<svg width="800px" height="558px" version="1.1" viewBox="0 0 800 558" xmlns="http://www.w3.org/2000/svg" xmlns:xlink="http://www.w3.org/1999/xlink">
<defs>
<symbol id="an" overflow="visible">
<path d="m3.9844-13.141v11.5h2.4219c2.0391 0 3.5352-0.46094 4.4844-1.3906 0.94531-0.92578 1.4219-2.3828 1.4219-4.375 0-1.9766-0.47656-3.4258-1.4219-4.3438-0.94922-0.92578-2.4453-1.3906-4.4844-1.3906zm-2-1.6406h4.1094c2.8633 0 4.9688 0.60156 6.3125 1.7969 1.3438 1.1875 2.0156 3.0469 2.0156 5.5781 0 2.5547-0.67969 4.4297-2.0312 5.625-1.3438 1.1875-3.4453 1.7812-6.2969 1.7812h-4.1094z"/>
</symbol>
<symbol id="am" overflow="visible">
<path d="m1.7188-4.375v-6.7188h1.8281v6.6406c0 1.0547 0.20312 1.8438 0.60938 2.375 0.40625 0.52344 1.0195 0.78125 1.8438 0.78125 0.98828 0 1.7656-0.3125 2.3281-0.9375 0.57031-0.625 0.85938-1.4766 0.85938-2.5625v-6.2969h1.8281v11.094h-1.8281v-1.7031c-0.4375 0.67969-0.94922 1.1797-1.5312 1.5-0.58594 0.32031-1.2656 0.48438-2.0469 0.48438-1.2734 0-2.2422-0.39453-2.9062-1.1875-0.65625-0.78906-0.98438-1.9453-0.98438-3.4688z"/>
</symbol>
<symbol id="al" overflow="visible">
<path d="m11.125-6.6875v6.6875h-1.8125v-6.6406c0-1.0391-0.21094-1.8203-0.625-2.3438-0.40625-0.53125-1.0156-0.79688-1.8281-0.79688-0.99219 0-1.7734 0.32031-2.3438 0.95312-0.5625 0.625-0.84375 1.4805-0.84375 2.5625v6.2656h-1.8281v-11.094h1.8281v1.7188c0.4375-0.66406 0.94531-1.1602 1.5312-1.4844 0.59375-0.33203 1.2812-0.5 2.0625-0.5 1.2695 0 2.2266 0.39844 2.875 1.1875 0.65625 0.79297 0.98438 1.9531 0.98438 3.4844z"/>
</symbol>
<symbol id="ak" overflow="visible">
<path d="m1.8438-15.406h1.8281v9.0938l5.4375-4.7812h2.3281l-5.875 5.1875 6.125 5.9062h-2.375l-5.6406-5.4219v5.4219h-1.8281z"/>
</symbol>
<symbol id="n" overflow="visible">
<path d="m11.391-6v0.89062h-8.375c0.082031 1.25 0.46094 2.2109 1.1406 2.875 0.67578 0.65625 1.6172 0.98438 2.8281 0.98438 0.69531 0 1.375-0.082031 2.0312-0.25 0.65625-0.17578 1.3047-0.4375 1.9531-0.78125v1.7188c-0.65625 0.27344-1.3281 0.48047-2.0156 0.625-0.67969 0.14453-1.3711 0.21875-2.0781 0.21875-1.7734 0-3.1719-0.50781-4.2031-1.5312-1.0312-1.0312-1.5469-2.4258-1.5469-4.1875 0-1.8125 0.48828-3.25 1.4688-4.3125 0.97656-1.0703 2.3008-1.6094 3.9688-1.6094 1.4883 0 2.6641 0.48047 3.5312 1.4375 0.86328 0.96094 1.2969 2.2656 1.2969 3.9219zm-1.8125-0.53125c-0.011719-1-0.29297-1.7969-0.84375-2.3906-0.54297-0.59375-1.2617-0.89062-2.1562-0.89062-1.0234 0-1.8398 0.28906-2.4531 0.85938-0.60547 0.57422-0.95312 1.3828-1.0469 2.4219z"/>
</symbol>
<symbol id="c" overflow="visible">
<path d="m1.9062-15.406h1.8281v15.406h-1.8281z"/>
</symbol>
<symbol id="aj" overflow="visible">
<path d="m1.9844-14.781h2v6.0625h7.2812v-6.0625h2v14.781h-2v-7.0469h-7.2812v7.0469h-2z"/>
</symbol>
<symbol id="m" overflow="visible">
<path d="m3.8906-1.6875h6.9844v1.6875h-9.3906v-1.6875c0.75781-0.78125 1.7969-1.832 3.1094-3.1562 1.3125-1.3203 2.1328-2.1758 2.4688-2.5625 0.63281-0.71875 1.0781-1.3281 1.3281-1.8281 0.25781-0.5 0.39062-0.98828 0.39062-1.4688 0-0.78906-0.27734-1.4297-0.82812-1.9219-0.55469-0.5-1.2734-0.75-2.1562-0.75-0.625 0-1.2891 0.10938-1.9844 0.32812-0.69922 0.21875-1.4453 0.55469-2.2344 1v-2.0312c0.8125-0.32031 1.5664-0.5625 2.2656-0.71875 0.69531-0.16406 1.3359-0.25 1.9219-0.25 1.5312 0 2.75 0.38672 3.6562 1.1562 0.91406 0.76172 1.375 1.7812 1.375 3.0625 0 0.60547-0.11719 1.1836-0.34375 1.7344-0.23047 0.54297-0.64844 1.1836-1.25 1.9219-0.15625 0.1875-0.67969 0.74219-1.5625 1.6562-0.88672 0.90625-2.1367 2.1836-3.75 3.8281z"/>
</symbol>
<symbol id="a" overflow="visible">
<path d="m6.4531-13.469c-1.0312 0-1.8086 0.51172-2.3281 1.5312-0.52344 1.0117-0.78125 2.5312-0.78125 4.5625 0 2.0234 0.25781 3.543 0.78125 4.5625 0.51953 1.0117 1.2969 1.5156 2.3281 1.5156s1.8047-0.50391 2.3281-1.5156c0.51953-1.0195 0.78125-2.5391 0.78125-4.5625 0-2.0312-0.26172-3.5508-0.78125-4.5625-0.52344-1.0195-1.2969-1.5312-2.3281-1.5312zm0-1.5781c1.6562 0 2.9219 0.65625 3.7969 1.9688 0.875 1.3047 1.3125 3.2031 1.3125 5.7031 0 2.4922-0.4375 4.3906-1.3125 5.7031-0.875 1.3047-2.1406 1.9531-3.7969 1.9531s-2.9219-0.64844-3.7969-1.9531c-0.875-1.3125-1.3125-3.2109-1.3125-5.7031 0-2.5 0.4375-4.3984 1.3125-5.7031 0.875-1.3125 2.1406-1.9688 3.7969-1.9688z"/>
</symbol>
<symbol id="q" overflow="visible">
<path d="m7.6719-13.047-5.0625 7.8906h5.0625zm-0.53125-1.7344h2.5156v9.625h2.1094v1.6719h-2.1094v3.4844h-1.9844v-3.4844h-6.6875v-1.9375z"/>
</symbol>
<symbol id="p" overflow="visible">
<path d="m6.6875-8.1875c-0.89844 0-1.6094 0.30859-2.1406 0.92188-0.52344 0.61719-0.78125 1.4531-0.78125 2.5156s0.25781 1.9062 0.78125 2.5312c0.53125 0.61719 1.2422 0.92188 2.1406 0.92188 0.90625 0 1.6172-0.30469 2.1406-0.92188 0.51953-0.625 0.78125-1.4688 0.78125-2.5312s-0.26172-1.8984-0.78125-2.5156c-0.52344-0.61328-1.2344-0.92188-2.1406-0.92188zm3.9844-6.2656v1.8125c-0.51172-0.23828-1.0234-0.42188-1.5312-0.54688-0.51172-0.125-1.0156-0.1875-1.5156-0.1875-1.3242 0-2.3359 0.44922-3.0312 1.3438-0.6875 0.89844-1.0859 2.2461-1.1875 4.0469 0.38281-0.58203 0.86719-1.0234 1.4531-1.3281 0.59375-0.3125 1.2422-0.46875 1.9531-0.46875 1.4883 0 2.6602 0.45312 3.5156 1.3594 0.86328 0.89844 1.2969 2.1211 1.2969 3.6719 0 1.5234-0.44922 2.7422-1.3438 3.6562-0.89844 0.91797-2.0938 1.375-3.5938 1.375-1.7109 0-3.0156-0.64844-3.9219-1.9531-0.89844-1.3125-1.3438-3.2109-1.3438-5.7031 0-2.3438 0.55078-4.207 1.6562-5.5938 1.1133-1.3828 2.6016-2.0781 4.4688-2.0781 0.5 0 1.0039 0.054687 1.5156 0.15625 0.50781 0.09375 1.0469 0.24219 1.6094 0.4375z"/>
</symbol>
<symbol id="o" overflow="visible">
<path d="m6.4531-7.0156c-0.96094 0-1.7109 0.25781-2.25 0.76562-0.54297 0.5-0.8125 1.1992-0.8125 2.0938 0 0.88672 0.26953 1.5859 0.8125 2.0938 0.53906 0.51172 1.2891 0.76562 2.25 0.76562 0.94531 0 1.6914-0.25391 2.2344-0.76562 0.55078-0.50781 0.82812-1.207 0.82812-2.0938 0-0.89453-0.27734-1.5938-0.82812-2.0938-0.54297-0.50781-1.2891-0.76562-2.2344-0.76562zm-2-0.85938c-0.86719-0.20703-1.5391-0.60156-2.0156-1.1875-0.48047-0.59375-0.71875-1.3125-0.71875-2.1562 0-1.1875 0.42188-2.1172 1.2656-2.7969 0.84375-0.6875 2-1.0312 3.4688-1.0312s2.6172 0.34375 3.4531 1.0312c0.84375 0.67969 1.2656 1.6094 1.2656 2.7969 0 0.84375-0.24219 1.5625-0.71875 2.1562-0.48047 0.58594-1.1484 0.98047-2 1.1875 0.96875 0.23047 1.7188 0.67188 2.25 1.3281 0.53906 0.64844 0.8125 1.4453 0.8125 2.3906 0 1.4297-0.4375 2.5273-1.3125 3.2969-0.875 0.76172-2.125 1.1406-3.75 1.1406-1.6367 0-2.8906-0.37891-3.7656-1.1406-0.875-0.76953-1.3125-1.8672-1.3125-3.2969 0-0.94531 0.26953-1.7422 0.8125-2.3906 0.53906-0.65625 1.2969-1.0977 2.2656-1.3281zm-0.73438-3.1562c0 0.76172 0.23828 1.3594 0.71875 1.7969 0.47656 0.42969 1.1484 0.64062 2.0156 0.64062 0.85156 0 1.5195-0.21094 2-0.64062 0.48828-0.4375 0.73438-1.0352 0.73438-1.7969 0-0.76953-0.24609-1.3672-0.73438-1.7969-0.48047-0.42578-1.1484-0.64062-2-0.64062-0.86719 0-1.5391 0.21484-2.0156 0.64062-0.48047 0.42969-0.71875 1.0273-0.71875 1.7969z"/>
</symbol>
<symbol id="ai" overflow="visible">
<path d="m14.906-3.7031h-8.2031l-1.2969 3.7031h-5.2656l7.5312-20.328h6.25l7.5312 20.328h-5.2812zm-6.9062-3.7656h5.5781l-2.7812-8.0938z"/>
</symbol>
<symbol id="af" overflow="visible">
<path d="m2.3438-21.172h4.875v21.172h-4.875z"/>
</symbol>
<symbol id="ae" overflow="visible">
<path d="m7.6719-19.578v4.3281h5.0156v3.4844h-5.0156v6.4688c0 0.71094 0.14062 1.1875 0.42188 1.4375s0.83594 0.375 1.6719 0.375h2.5v3.4844h-4.1719c-1.9297 0-3.293-0.39844-4.0938-1.2031-0.80469-0.80078-1.2031-2.1641-1.2031-4.0938v-6.4688h-2.4219v-3.4844h2.4219v-4.3281z"/>
</symbol>
<symbol id="l" overflow="visible">
<path d="m17.562-7.6562v1.375h-11.391c0.11328 1.1484 0.52344 2.0078 1.2344 2.5781 0.70703 0.57422 1.6953 0.85938 2.9688 0.85938 1.0312 0 2.082-0.14844 3.1562-0.45312 1.0703-0.30078 2.1758-0.76562 3.3125-1.3906v3.7656c-1.1562 0.4375-2.3125 0.76562-3.4688 0.98438-1.1484 0.21875-2.2969 0.32812-3.4531 0.32812-2.7617 0-4.9062-0.69531-6.4375-2.0938-1.5234-1.4062-2.2812-3.375-2.2812-5.9062 0-2.4883 0.75-4.4414 2.25-5.8594 1.5-1.4258 3.5664-2.1406 6.2031-2.1406 2.3945 0 4.3125 0.72656 5.75 2.1719 1.4375 1.4375 2.1562 3.3672 2.1562 5.7812zm-5-1.625c0-0.92578-0.27344-1.6719-0.8125-2.2344-0.54297-0.57031-1.25-0.85938-2.125-0.85938-0.9375 0-1.7031 0.26562-2.2969 0.79688s-0.96484 1.2969-1.1094 2.2969z"/>
</symbol>
<symbol id="k" overflow="visible">
<path d="m13.672-11.094c-0.42969-0.19531-0.85547-0.34375-1.2812-0.4375-0.41797-0.09375-0.83984-0.14062-1.2656-0.14062-1.25 0-2.2148 0.40234-2.8906 1.2031-0.67969 0.80469-1.0156 1.9531-1.0156 3.4531v7.0156h-4.875v-15.25h4.875v2.5156c0.625-1 1.3438-1.7266 2.1562-2.1875 0.8125-0.45703 1.7852-0.6875 2.9219-0.6875 0.16406 0 0.34375 0.007813 0.53125 0.015625 0.1875 0.011719 0.46094 0.042969 0.82812 0.09375z"/>
</symbol>
<symbol id="j" overflow="visible"></symbol>
<symbol id="ad" overflow="visible">
<path d="m2.3438-15.25h4.875v15.25h-4.875zm0-5.9219h4.875v3.9688h-4.875z"/>
</symbol>
<symbol id="i" overflow="visible">
<path d="m17.672-9.2812v9.2812h-4.8906v-7.1094c0-1.3125-0.03125-2.2188-0.09375-2.7188s-0.16797-0.86328-0.3125-1.0938c-0.1875-0.32031-0.44922-0.57031-0.78125-0.75-0.32422-0.17578-0.69531-0.26562-1.1094-0.26562-1.0117 0-1.8086 0.39844-2.3906 1.1875-0.58594 0.78125-0.875 1.8672-0.875 3.25v7.5h-4.875v-15.25h4.875v2.2344c0.73828-0.88281 1.5195-1.5352 2.3438-1.9531 0.82031-0.42578 1.7344-0.64062 2.7344-0.64062 1.7578 0 3.0938 0.54297 4 1.625 0.91406 1.0742 1.375 2.6406 1.375 4.7031z"/>
</symbol>
<symbol id="ac" overflow="visible">
<path d="m2.5625-20.328h5.2344v18.359c0 2.5312-0.6875 4.4219-2.0625 5.6719s-3.4531 1.875-6.2344 1.875h-1.0625v-3.9531h0.8125c1.0938 0 1.9141-0.30859 2.4688-0.92188 0.5625-0.60547 0.84375-1.4922 0.84375-2.6719z"/>
</symbol>
<symbol id="ah" overflow="visible">
<path d="m9.1719-6.8594c-1.0117 0-1.7773 0.17188-2.2969 0.51562-0.51172 0.34375-0.76562 0.85547-0.76562 1.5312 0 0.61719 0.20703 1.1016 0.625 1.4531 0.41406 0.34375 0.98828 0.51562 1.7188 0.51562 0.91406 0 1.6875-0.32812 2.3125-0.98438 0.63281-0.65625 0.95312-1.4766 0.95312-2.4688v-0.5625zm7.4531-1.8438v8.7031h-4.9062v-2.2656c-0.65625 0.92969-1.3984 1.6055-2.2188 2.0312-0.8125 0.41406-1.8086 0.625-2.9844 0.625-1.5742 0-2.8555-0.45703-3.8438-1.375-0.98047-0.92578-1.4688-2.125-1.4688-3.5938 0-1.7812 0.61328-3.0859 1.8438-3.9219 1.2266-0.84375 3.1602-1.2656 5.7969-1.2656h2.875v-0.375c0-0.76953-0.30859-1.332-0.92188-1.6875-0.60547-0.36328-1.5547-0.54688-2.8438-0.54688-1.043 0-2.0156 0.10547-2.9219 0.3125-0.89844 0.21094-1.7305 0.52344-2.5 0.9375v-3.7031c1.0391-0.25781 2.0859-0.45312 3.1406-0.57812 1.0625-0.13281 2.1172-0.20312 3.1719-0.20312 2.75 0 4.7344 0.54297 5.9531 1.625 1.2188 1.0859 1.8281 2.8438 1.8281 5.2812z"/>
</symbol>
<symbol id="ag" overflow="visible">
<path d="m17.672-9.2812v9.2812h-4.8906v-7.0781c0-1.332-0.03125-2.25-0.09375-2.75s-0.16797-0.86328-0.3125-1.0938c-0.1875-0.32031-0.44922-0.57031-0.78125-0.75-0.32422-0.17578-0.69531-0.26562-1.1094-0.26562-1.0117 0-1.8086 0.39844-2.3906 1.1875-0.58594 0.78125-0.875 1.8672-0.875 3.25v7.5h-4.875v-21.172h4.875v8.1562c0.73828-0.88281 1.5195-1.5352 2.3438-1.9531 0.82031-0.42578 1.7344-0.64062 2.7344-0.64062 1.7578 0 3.0938 0.54297 4 1.625 0.91406 1.0742 1.375 2.6406 1.375 4.7031z"/>
</symbol>
<symbol id="ab" overflow="visible">
<path d="m-14.797-1.8594v-6.3281c0-1.8828 0.41797-3.3281 1.25-4.3281 0.83594-1.0078 2.0273-1.5156 3.5781-1.5156 1.5547 0 2.7461 0.50781 3.5781 1.5156 0.83594 1 1.25 2.4453 1.25 4.3281v2.5156h5.1406v3.8125zm2.7656-3.8125h4.125v-2.1094c0-0.73828-0.17578-1.3047-0.53125-1.7031-0.36328-0.40625-0.875-0.60938-1.5312-0.60938-0.66406 0-1.1758 0.20312-1.5312 0.60938-0.35156 0.39844-0.53125 0.96484-0.53125 1.7031z"/>
</symbol>
<symbol id="g" overflow="visible">
<path d="m-4.3281-1.5781h-6.7656v-3.5781h1.1094c0.59375 0 1.3516 0.007812 2.2656 0.015625 0.90625 0.011719 1.5117 0.015625 1.8125 0.015625 0.89844 0 1.543-0.019531 1.9375-0.0625 0.38672-0.050781 0.66797-0.13281 0.84375-0.25 0.23047-0.14453 0.41406-0.33203 0.54688-0.5625 0.125-0.23828 0.1875-0.50781 0.1875-0.8125 0-0.73828-0.28516-1.3164-0.85938-1.7344-0.57031-0.42578-1.3633-0.64062-2.375-0.64062h-5.4688v-3.5469h11.094v3.5469h-1.6094c0.64844 0.53125 1.125 1.1016 1.4375 1.7031 0.30078 0.59375 0.45312 1.25 0.45312 1.9688 0 1.2812-0.39062 2.2617-1.1719 2.9375-0.78906 0.66797-1.9375 1-3.4375 1z"/>
</symbol>
<symbol id="x" overflow="visible">
<path d="m-1.6094-5.25h5.8281v3.5469h-15.312v-3.5469h1.625c-0.65625-0.48828-1.1328-1.0312-1.4375-1.625-0.3125-0.59375-0.46875-1.2734-0.46875-2.0469 0-1.3633 0.54688-2.4844 1.6406-3.3594 1.0859-0.88281 2.4805-1.3281 4.1875-1.3281 1.7188 0 3.1211 0.44531 4.2031 1.3281 1.0859 0.875 1.625 1.9961 1.625 3.3594 0 0.77344-0.15234 1.4531-0.45312 2.0469-0.3125 0.59375-0.78906 1.1367-1.4375 1.625zm-7.1875-2.3594c0 0.76172 0.28125 1.3438 0.84375 1.75s1.3672 0.60938 2.4062 0.60938c1.0547 0 1.8594-0.20312 2.4219-0.60938 0.55469-0.40625 0.82812-0.98828 0.82812-1.75 0-0.75781-0.27344-1.3359-0.82812-1.7344-0.55078-0.39453-1.3594-0.59375-2.4219-0.59375-1.0508 0-1.8516 0.19922-2.4062 0.59375-0.5625 0.39844-0.84375 0.97656-0.84375 1.7344z"/>
</symbol>
<symbol id="w" overflow="visible">
<path d="m-11.094-1.7031v-3.5469h11.094v3.5469zm-4.3281 0v-3.5469h2.8906v3.5469z"/>
</symbol>
<symbol id="f" overflow="visible">
<path d="m-15.422-1.7031v-3.5469h15.422v3.5469z"/>
</symbol>
<symbol id="b" overflow="visible">
<path d="m-5.5781-12.781h1.0156v8.2969c0.83594-0.082031 1.4609-0.37891 1.875-0.89062 0.40625-0.51953 0.60938-1.2422 0.60938-2.1719 0-0.75-0.10938-1.5156-0.32812-2.2969s-0.55078-1.582-1-2.4062h2.7344c0.3125 0.83594 0.54688 1.6719 0.70312 2.5156 0.16406 0.83594 0.25 1.6719 0.25 2.5156 0 2.0117-0.50781 3.5742-1.5312 4.6875-1.0195 1.1055-2.4531 1.6562-4.2969 1.6562-1.8008 0-3.2227-0.54688-4.2656-1.6406-1.0391-1.0938-1.5625-2.5938-1.5625-4.5 0-1.75 0.52734-3.1445 1.5781-4.1875 1.0547-1.0508 2.4609-1.5781 4.2188-1.5781zm-1.1875 3.6562c-0.66406 0-1.207 0.19922-1.625 0.59375-0.41406 0.38672-0.625 0.89844-0.625 1.5312 0 0.6875 0.19922 1.2461 0.59375 1.6719 0.38672 0.42969 0.9375 0.69531 1.6562 0.79688z"/>
</symbol>
<symbol id="v" overflow="visible">
<path d="m-6.7656-12.859h6.7656v3.5781h-5.1719c-0.95703 0-1.6172 0.023438-1.9844 0.0625-0.36328 0.042969-0.62891 0.11719-0.79688 0.21875-0.23828 0.13672-0.42188 0.32422-0.54688 0.5625-0.125 0.24219-0.1875 0.51172-0.1875 0.8125 0 0.74219 0.28906 1.3242 0.85938 1.75 0.5625 0.41797 1.3555 0.625 2.375 0.625h5.4531v3.5469h-11.094v-3.5469h1.625c-0.65625-0.53125-1.1328-1.0977-1.4375-1.7031-0.3125-0.60156-0.46875-1.2656-0.46875-1.9844 0-1.2812 0.39844-2.2539 1.1875-2.9219 0.78125-0.66406 1.9219-1 3.4219-1z"/>
</symbol>
<symbol id="u" overflow="visible">
<path d="m-9.4688-9.25h-5.9531v-3.5625h15.422v3.5625h-1.6094c0.65625 0.49219 1.1367 1.0312 1.4375 1.625 0.30078 0.58594 0.45312 1.2617 0.45312 2.0312 0 1.3672-0.53906 2.4922-1.625 3.375-1.082 0.875-2.4844 1.3125-4.2031 1.3125-1.707 0-3.1016-0.4375-4.1875-1.3125-1.0938-0.88281-1.6406-2.0078-1.6406-3.375 0-0.76953 0.15625-1.4453 0.46875-2.0312 0.30469-0.59375 0.78125-1.1328 1.4375-1.625zm7.1719 2.3438c0-0.75781-0.27344-1.3359-0.82812-1.7344-0.55078-0.40625-1.3594-0.60938-2.4219-0.60938-1.0508 0-1.8516 0.20312-2.4062 0.60938-0.5625 0.39844-0.84375 0.97656-0.84375 1.7344 0 0.75 0.28125 1.3281 0.84375 1.7344 0.55469 0.39844 1.3555 0.59375 2.4062 0.59375 1.0625 0 1.8711-0.19531 2.4219-0.59375 0.55469-0.40625 0.82812-0.98438 0.82812-1.7344z"/>
</symbol>
<symbol id="e" overflow="visible">
<path d="m-8.0781-9.9375c-0.14453 0.30469-0.25 0.60938-0.3125 0.92188-0.070313 0.30469-0.10938 0.60938-0.10938 0.92188 0 0.91797 0.29297 1.6211 0.875 2.1094 0.58594 0.49219 1.4219 0.73438 2.5156 0.73438h5.1094v3.5469h-11.094v-3.5469h1.8125c-0.71875-0.45703-1.2422-0.97656-1.5781-1.5625-0.34375-0.59375-0.51562-1.3008-0.51562-2.125 0-0.125 0.007812-0.25391 0.015625-0.39062 0.011719-0.13281 0.039063-0.33594 0.078125-0.60938z"/>
</symbol>
<symbol id="aa" overflow="visible">
<path d="m-10.75-10.672h2.8906c-0.33203 0.49219-0.57812 0.98047-0.73438 1.4688-0.15625 0.48047-0.23438 0.98047-0.23438 1.5 0 0.99219 0.29297 1.7617 0.875 2.3125 0.57422 0.55469 1.375 0.82812 2.4062 0.82812 1.043 0 1.8555-0.27344 2.4375-0.82812 0.57422-0.55078 0.85938-1.3203 0.85938-2.3125 0-0.55078-0.082031-1.0781-0.25-1.5781-0.16406-0.5-0.41016-0.96094-0.73438-1.3906h2.9062c0.21094 0.5625 0.35938 1.1328 0.45312 1.7031 0.10156 0.5625 0.15625 1.1328 0.15625 1.7031 0 2-0.50781 3.5703-1.5312 4.7031-1.0312 1.125-2.4609 1.6875-4.2969 1.6875-1.8203 0-3.25-0.5625-4.2812-1.6875-1.0312-1.1328-1.5469-2.7031-1.5469-4.7031 0-0.57031 0.054688-1.1406 0.15625-1.7031 0.10547-0.57031 0.26172-1.1406 0.46875-1.7031z"/>
</symbol>
<symbol id="z" overflow="visible">
<path d="m-6.7656-12.859h6.7656v3.5781h-5.1562c-0.96875 0-1.6328 0.023438-2 0.0625-0.36328 0.042969-0.62891 0.11719-0.79688 0.21875-0.23828 0.13672-0.42188 0.32422-0.54688 0.5625-0.125 0.24219-0.1875 0.51172-0.1875 0.8125 0 0.74219 0.28906 1.3242 0.85938 1.75 0.5625 0.41797 1.3555 0.625 2.375 0.625h5.4531v3.5469h-15.422v-3.5469h5.9531c-0.65625-0.53125-1.1328-1.0977-1.4375-1.7031-0.3125-0.60156-0.46875-1.2656-0.46875-1.9844 0-1.2812 0.39844-2.2539 1.1875-2.9219 0.78125-0.66406 1.9219-1 3.4219-1z"/>
</symbol>
<symbol id="y" overflow="visible">
<path d="m-9.25-11.984c-0.6875-0.44531-1.2109-0.97656-1.5781-1.5938-0.36328-0.625-0.54688-1.3008-0.54688-2.0312 0-1.2812 0.39844-2.2539 1.1875-2.9219 0.78125-0.66406 1.9219-1 3.4219-1h6.7656v3.5625h-5.7812-0.26562c-0.09375-0.007812-0.22656-0.015625-0.40625-0.015625-0.78125 0-1.3477 0.11719-1.7031 0.34375-0.35156 0.23047-0.53125 0.60547-0.53125 1.125 0 0.67969 0.27734 1.1992 0.82812 1.5625 0.55469 0.36719 1.3555 0.55469 2.4062 0.5625h5.4531v3.5625h-5.7812c-1.2266 0-2.0195 0.10938-2.375 0.32812-0.35156 0.21094-0.53125 0.58594-0.53125 1.125 0 0.67969 0.28125 1.2031 0.84375 1.5781 0.55469 0.36719 1.3516 0.54688 2.3906 0.54688h5.4531v3.5625h-11.094v-3.5625h1.625c-0.63281-0.4375-1.1094-0.9375-1.4219-1.5-0.32031-0.5625-0.48438-1.1797-0.48438-1.8594 0-0.76953 0.1875-1.4453 0.5625-2.0312 0.375-0.59375 0.89844-1.0391 1.5625-1.3438z"/>
</symbol>
<symbol id="h" overflow="visible">
<path d="m-10.75-10.375h2.6875c-0.3125 0.76172-0.54688 1.4961-0.70312 2.2031-0.16406 0.71094-0.25 1.375-0.25 2 0 0.67969 0.089844 1.1836 0.26562 1.5156 0.16797 0.32422 0.42188 0.48438 0.76562 0.48438 0.29297 0 0.51562-0.125 0.67188-0.375 0.14844-0.25 0.25781-0.69141 0.32812-1.3281l0.09375-0.625c0.23047-1.8203 0.60938-3.0469 1.1406-3.6719 0.52344-0.625 1.3516-0.9375 2.4844-0.9375 1.1797 0 2.0625 0.4375 2.6562 1.3125 0.59375 0.86719 0.89062 2.1641 0.89062 3.8906 0 0.74219-0.058594 1.5-0.17188 2.2812-0.11328 0.78125-0.28516 1.5859-0.51562 2.4062h-2.7031c0.34375-0.70703 0.60547-1.4297 0.78125-2.1719 0.16797-0.73828 0.25-1.4922 0.25-2.2656 0-0.6875-0.09375-1.207-0.28125-1.5625-0.1875-0.35156-0.47266-0.53125-0.85938-0.53125-0.3125 0-0.54688 0.125-0.70312 0.375-0.15625 0.24219-0.27344 0.71875-0.35938 1.4375l-0.078125 0.625c-0.19531 1.5742-0.5625 2.6797-1.0938 3.3125-0.53906 0.63672-1.3594 0.95312-2.4531 0.95312-1.1641 0-2.0352-0.39844-2.6094-1.2031-0.57031-0.8125-0.85938-2.0508-0.85938-3.7188 0-0.64453 0.054688-1.3281 0.15625-2.0469 0.10547-0.71875 0.26172-1.5039 0.46875-2.3594z"/>
</symbol>
<symbol id="t" overflow="visible"></symbol>
<symbol id="s" overflow="visible">
<path d="m-15.422-1.75v-4.1875h1.4219v2.375h15.266v-2.375h1.4062v4.1875z"/>
</symbol>
<symbol id="d" overflow="visible">
<path d="m-8.9688-10.547c-0.82031-0.45703-1.4258-1-1.8125-1.625-0.39453-0.63281-0.59375-1.3828-0.59375-2.25 0-1.1562 0.40625-2.0469 1.2188-2.6719s1.9648-0.9375 3.4531-0.9375h6.7031v1.8281h-6.6406c-1.0625 0-1.8477 0.1875-2.3594 0.5625-0.51953 0.375-0.78125 0.95312-0.78125 1.7344 0 0.9375 0.3125 1.6836 0.9375 2.2344 0.625 0.54297 1.4844 0.8125 2.5781 0.8125h6.2656v1.8438h-6.6406c-1.0703 0-1.8633 0.1875-2.375 0.5625-0.50781 0.375-0.76562 0.95312-0.76562 1.7344 0 0.9375 0.32031 1.6836 0.95312 2.2344 0.625 0.54297 1.4805 0.8125 2.5625 0.8125h6.2656v1.8281h-11.094v-1.8281h1.7188c-0.67578-0.41406-1.1758-0.91406-1.5-1.5-0.33203-0.58203-0.5-1.2695-0.5-2.0625 0-0.8125 0.21094-1.5 0.625-2.0625 0.40625-0.5625 1-0.97656 1.7812-1.25z"/>
</symbol>
<symbol id="r" overflow="visible">
<path d="m-15.422-6.1719h18.094v4.2031h-1.4062v-2.375h-15.266v2.375h-1.4219z"/>
</symbol>
</defs>
<path transform="matrix(2.5361 0 0 2.5344 37.633 17.342)" d="m177.9 172.02h-156.97" fill="none" stroke="#000" stroke-width=".5"/>
<path transform="matrix(2.5361 0 0 2.5344 37.633 17.342)" d="m24.709 0.90688v174.91" fill="none" stroke="#000" stroke-width=".5"/>
<path transform="matrix(2.5361 0 0 2.5344 37.633 17.342)" d="m24.709 0.90688h153.19v171.11h-153.19z" fill="none" stroke="#000" stroke-width="1.5"/>
<path transform="matrix(2.5361 0 0 2.5344 37.633 17.342)" d="m182.29 115.92h110.55v56.098h-110.55z" fill="none" stroke="#000"/>
<path transform="matrix(2.5361 0 0 2.5344 37.633 17.342)" d="m43.857 0.90688v174.91" fill="none" stroke="#000" stroke-width=".5"/>
<path transform="matrix(2.5361 0 0 2.5344 37.633 17.342)" d="m63.005 0.90688v174.91" fill="none" stroke="#000" stroke-width=".5"/>
<path transform="matrix(2.5361 0 0 2.5344 37.633 17.342)" d="m82.154 0.90688v174.91" fill="none" stroke="#000" stroke-width=".5"/>
<path transform="matrix(2.5361 0 0 2.5344 37.633 17.342)" d="m101.3 0.90688v174.91" fill="none" stroke="#000" stroke-width=".5"/>
<path transform="matrix(2.5361 0 0 2.5344 37.633 17.342)" d="m120.45 0.90688v174.91" fill="none" stroke="#000" stroke-width=".5"/>
<path transform="matrix(2.5361 0 0 2.5344 37.633 17.342)" d="m139.6 0.90688v174.91" fill="none" stroke="#000" stroke-width=".5"/>
<path transform="matrix(2.5361 0 0 2.5344 37.633 17.342)" d="m158.75 0.90688v174.91" fill="none" stroke="#000" stroke-width=".5"/>
<path transform="matrix(2.5361 0 0 2.5344 37.633 17.342)" d="m177.9 0.90688v170.93" fill="none" stroke="#000" stroke-width=".75"/>
<path transform="matrix(2.5361 0 0 2.5344 37.633 17.342)" d="m177.9 153.01h-156.97" fill="none" stroke="#000" stroke-width=".5"/>
<path transform="matrix(2.5361 0 0 2.5344 37.633 17.342)" d="m177.9 133.99h-156.97" fill="none" stroke="#000" stroke-width=".5"/>
<path transform="matrix(2.5361 0 0 2.5344 37.633 17.342)" d="m177.9 114.98h-156.97" fill="none" stroke="#000" stroke-width=".5"/>
<path transform="matrix(2.5361 0 0 2.5344 37.633 17.342)" d="m177.9 95.969h-156.97" fill="none" stroke="#000" stroke-width=".5"/>
<path transform="matrix(2.5361 0 0 2.5344 37.633 17.342)" d="m177.9 76.955h-156.97" fill="none" stroke="#000" stroke-width=".5"/>
<path transform="matrix(2.5361 0 0 2.5344 37.633 17.342)" d="m177.9 57.944h-156.97" fill="none" stroke="#000" stroke-width=".5"/>
<path transform="matrix(2.5361 0 0 2.5344 37.633 17.342)" d="m177.9 38.932h-156.97" fill="none" stroke="#000" stroke-width=".5"/>
<path transform="matrix(2.5361 0 0 2.5344 37.633 17.342)" d="m177.9 19.92h-156.97" fill="none" stroke="#000" stroke-width=".5"/>
<path transform="matrix(2.5361 0 0 2.5344 37.633 17.342)" d="m177.9 0.90688h-153.19" fill="none" stroke="#000" stroke-width=".75"/>
<g>
<use x="548.996094" y="368.827784" xlink:href="#an"/>
<use x="564.212788" y="368.827784" xlink:href="#am"/>
<use x="576.893367" y="368.827784" xlink:href="#al"/>
<use x="589.573946" y="368.827784" xlink:href="#ak"/>
<use x="599.718409" y="368.827784" xlink:href="#n"/>
<use x="612.398988" y="368.827784" xlink:href="#c"/>
</g>
<g>
<use x="548.996094" y="406.17544" xlink:href="#aj"/>
<use x="564.212788" y="406.17544" xlink:href="#n"/>
<use x="576.893367" y="406.17544" xlink:href="#c"/>
<use x="581.965599" y="406.17544" xlink:href="#c"/>
</g>
<g>
<use x="181.761719" y="534.67948" xlink:href="#ai"/>
<use x="204.586761" y="534.67948" xlink:href="#af"/>
<use x="214.731224" y="534.67948" xlink:href="#ae"/>
<use x="227.411802" y="534.67948" xlink:href="#l"/>
<use x="245.164613" y="534.67948" xlink:href="#k"/>
<use x="257.845192" y="534.67948" xlink:href="#j"/>
<use x="267.989655" y="534.67948" xlink:href="#ad"/>
<use x="278.134118" y="534.67948" xlink:href="#i"/>
<use x="298.423044" y="534.67948" xlink:href="#j"/>
<use x="308.567507" y="534.67948" xlink:href="#ac"/>
<use x="318.71197" y="534.67948" xlink:href="#ah"/>
<use x="336.46478" y="534.67948" xlink:href="#ag"/>
<use x="356.753706" y="534.67948" xlink:href="#k"/>
<use x="369.434285" y="534.67948" xlink:href="#l"/>
<use x="387.187095" y="534.67948" xlink:href="#i"/>
</g>
<g>
<use x="33.848266" y="391.132812" xlink:href="#ab"/>
<use x="33.848266" y="375.926355" xlink:href="#g"/>
<use x="33.848266" y="360.719897" xlink:href="#x"/>
<use x="33.848266" y="345.513439" xlink:href="#w"/>
<use x="33.848266" y="337.91021" xlink:href="#f"/>
<use x="33.848266" y="330.306981" xlink:href="#f"/>
<use x="33.848266" y="322.703752" xlink:href="#b"/>
<use x="33.848266" y="310.031704" xlink:href="#v"/>
<use x="33.848266" y="294.825246" xlink:href="#u"/>
<use x="33.848266" y="279.618788" xlink:href="#g"/>
<use x="33.848266" y="264.41233" xlink:href="#e"/>
<use x="33.848266" y="254.274692" xlink:href="#aa"/>
<use x="33.848266" y="241.602643" xlink:href="#z"/>
<use x="33.848266" y="226.396186" xlink:href="#y"/>
<use x="33.848266" y="206.120908" xlink:href="#b"/>
<use x="33.848266" y="193.44886" xlink:href="#h"/>
<use x="33.848266" y="180.776812" xlink:href="#h"/>
<use x="33.848266" y="168.104764" xlink:href="#b"/>
<use x="33.848266" y="155.432716" xlink:href="#e"/>
</g>
<g>
<use x="33.848266" y="145.292969" xlink:href="#t"/>
<use x="33.848266" y="137.68974" xlink:href="#s"/>
<use x="33.848266" y="130.086511" xlink:href="#d"/>
<use x="33.848266" y="109.811234" xlink:href="#d"/>
<use x="33.848266" y="89.535957" xlink:href="#r"/>
</g>
<g>
<use x="136.816406" y="497.452784" xlink:href="#m"/>
<use x="149.496985" y="497.452784" xlink:href="#a"/>
</g>
<g>
<use x="230.585938" y="497.452784" xlink:href="#q"/>
<use x="243.266516" y="497.452784" xlink:href="#a"/>
</g>
<g>
<use x="330.984375" y="497.452784" xlink:href="#p"/>
<use x="343.664954" y="497.452784" xlink:href="#a"/>
</g>
<g>
<use x="425.9375" y="497.452784" xlink:href="#o"/>
<use x="438.618079" y="497.452784" xlink:href="#a"/>
</g>
<g>
<use x="65.707031" y="364.316065" xlink:href="#m"/>
</g>
<g>
<use x="64.816406" y="267.944972" xlink:href="#q"/>
</g>
<g>
<use x="64.953125" y="171.577784" xlink:href="#p"/>
</g>
<g>
<use x="65.0625" y="75.20669" xlink:href="#o"/>
</g>
<path transform="matrix(2.5361 0 0 2.5344 37.633 17.342)" d="m184.88 135h11.909" fill="none" stroke="#00a" stroke-width=".75"/>
<path d="m516.53 354.43h10.145v10.137h-10.145z" fill="#00a"/>
<path transform="matrix(2.5361 0 0 2.5344 37.633 17.342)" d="m184.88 152h11.909" fill="none" stroke="#338000" stroke-width=".75"/>
<path d="m526.67 402.57c0 2.8008-2.2695 5.0703-5.0703 5.0703-2.8008 0-5.0742-2.2695-5.0742-5.0703 0-2.8008 2.2734-5.0703 5.0742-5.0703 2.8008 0 5.0703 2.2695 5.0703 5.0703z" fill="#338000"/>
<path transform="matrix(2.5361 0 0 2.5344 37.633 17.342)" d="m43.857 19.92 114.89 109.84" fill="none" stroke="#00a" stroke-width=".75"/>
<path transform="matrix(2.5361 0 0 2.5344 37.633 17.342)" d="m43.857 76.955 114.89 57.037" fill="none" stroke="#338000" stroke-width=".75"/>
<path d="m143.79 62.492h10.145v10.137h-10.145z" fill="#00a"/>
<path d="m192.35 108.86h10.145v10.137h-10.145z" fill="#00a"/>
<path d="m240.91 155.55h10.145v10.141h-10.145z" fill="#00a"/>
<path d="m289.48 201.8h10.145v10.141h-10.145z" fill="#00a"/>
<path d="m338.04 248.01h10.145v10.137h-10.145z" fill="#00a"/>
<path d="m386.6 294.45h10.145v10.141h-10.145z" fill="#00a"/>
<path d="m435.16 341.28h10.145v10.137h-10.145z" fill="#00a"/>
<path d="m153.93 212.38c0 2.8008-2.2695 5.0703-5.0742 5.0703-2.8008 0-5.0703-2.2695-5.0703-5.0703 0-2.7969 2.2695-5.0664 5.0703-5.0664 2.8047 0 5.0742 2.2695 5.0742 5.0664z" fill="#338000"/>
<path d="m202.5 236.61c0 2.8008-2.2695 5.0703-5.0742 5.0703-2.8008 0-5.0703-2.2695-5.0703-5.0703 0-2.7969 2.2695-5.0664 5.0703-5.0664 2.8047 0 5.0742 2.2695 5.0742 5.0664z" fill="#338000"/>
<path d="m251.06 260.3c0 2.8008-2.2695 5.0703-5.0742 5.0703-2.8008 0-5.0703-2.2695-5.0703-5.0703 0-2.7969 2.2695-5.0664 5.0703-5.0664 2.8047 0 5.0742 2.2695 5.0742 5.0664z" fill="#338000"/>
<path d="m299.62 284.87c0 2.8008-2.2695 5.0703-5.0703 5.0703-2.8047 0-5.0742-2.2695-5.0742-5.0703 0-2.8008 2.2695-5.0703 5.0742-5.0703 2.8008 0 5.0703 2.2695 5.0703 5.0703z" fill="#338000"/>
<path d="m348.18 308.84c0 2.8008-2.2695 5.0703-5.0703 5.0703-2.8047 0-5.0742-2.2695-5.0742-5.0703 0-2.7969 2.2695-5.0664 5.0742-5.0664 2.8008 0 5.0703 2.2695 5.0703 5.0664z" fill="#338000"/>
<path d="m396.75 332.97c0 2.8008-2.2695 5.0703-5.0703 5.0703s-5.0742-2.2695-5.0742-5.0703c0-2.7969 2.2734-5.0664 5.0742-5.0664s5.0703 2.2695 5.0703 5.0664z" fill="#338000"/>
<path d="m445.31 358.2c0 2.7969-2.2695 5.0664-5.0703 5.0664s-5.0742-2.2695-5.0742-5.0664c0-2.8008 2.2734-5.0703 5.0742-5.0703s5.0703 2.2695 5.0703 5.0703z" fill="#338000"/>
</svg>
