<?xml version="1.0" encoding="UTF-8"?>
<svg width="600px" height="370px" version="1.1" viewBox="0 0 600 370" xmlns="http://www.w3.org/2000/svg" xmlns:xlink="http://www.w3.org/1999/xlink">
<defs>
<symbol id="v" overflow="visible">
<path d="m1.8906-2.0938h2.6875v-7.5938l-2.75 0.5625v-2.0625l2.7344-0.5625h2.875v9.6562h2.6875v2.0938h-8.2344z"/>
</symbol>
<symbol id="u" overflow="visible">
<path d="m1.6094-0.26562v-2.1719c0.48828 0.23047 0.95312 0.40234 1.3906 0.51562 0.44531 0.11719 0.88281 0.17188 1.3125 0.17188 0.90625 0 1.6094-0.25 2.1094-0.75 0.50781-0.50781 0.80469-1.2539 0.89062-2.2344-0.35547 0.26172-0.73438 0.46094-1.1406 0.59375-0.40625 0.125-0.84375 0.1875-1.3125 0.1875-1.2109 0-2.1836-0.34766-2.9219-1.0469-0.74219-0.70703-1.1094-1.6289-1.1094-2.7656 0-1.2695 0.41016-2.2852 1.2344-3.0469 0.82031-0.75781 1.9258-1.1406 3.3125-1.1406 1.5312 0 2.7188 0.52344 3.5625 1.5625 0.84375 1.0312 1.2656 2.4922 1.2656 4.375 0 1.9375-0.49609 3.4648-1.4844 4.5781-0.98047 1.1172-2.3242 1.6719-4.0312 1.6719-0.55469 0-1.0859-0.042969-1.5938-0.125-0.5-0.085938-0.99609-0.20703-1.4844-0.375zm3.75-5.6562c0.53125 0 0.92578-0.17188 1.1875-0.51562 0.26953-0.34375 0.40625-0.85938 0.40625-1.5469 0-0.67578-0.13672-1.1875-0.40625-1.5312-0.26172-0.35156-0.65625-0.53125-1.1875-0.53125s-0.93359 0.17969-1.2031 0.53125c-0.26172 0.34375-0.39062 0.85547-0.39062 1.5312 0 0.6875 0.12891 1.2031 0.39062 1.5469 0.26953 0.34375 0.67188 0.51562 1.2031 0.51562z"/>
</symbol>
<symbol id="k" overflow="visible">
<path d="m1.7031-11.75h7.5469v2.2188h-5.125v1.8281c0.22656-0.0625 0.45703-0.10938 0.6875-0.14062 0.23828-0.039062 0.48828-0.0625 0.75-0.0625 1.4258 0 2.5391 0.35938 3.3438 1.0781 0.80078 0.71875 1.2031 1.7188 1.2031 3 0 1.2734-0.4375 2.2656-1.3125 2.9844-0.86719 0.71875-2.0742 1.0781-3.625 1.0781-0.66797 0-1.3281-0.070313-1.9844-0.20312-0.64844-0.125-1.293-0.31641-1.9375-0.57812v-2.3906c0.63281 0.36719 1.2383 0.64062 1.8125 0.82812 0.58203 0.1875 1.1289 0.28125 1.6406 0.28125 0.72656 0 1.3008-0.17578 1.7188-0.53125 0.42578-0.36328 0.64062-0.85156 0.64062-1.4688 0-0.625-0.21484-1.1133-0.64062-1.4688-0.41797-0.35156-0.99219-0.53125-1.7188-0.53125-0.4375 0-0.90625 0.058594-1.4062 0.17188-0.49219 0.10547-1.0234 0.27734-1.5938 0.51562z"/>
</symbol>
<symbol id="e" overflow="visible">
<path d="m7.4219-5.8906c0-1.4688-0.14062-2.5-0.42188-3.0938-0.27344-0.60156-0.73047-0.90625-1.375-0.90625-0.65625 0-1.125 0.30469-1.4062 0.90625-0.27344 0.59375-0.40625 1.625-0.40625 3.0938 0 1.4922 0.13281 2.543 0.40625 3.1562 0.28125 0.60547 0.75 0.90625 1.4062 0.90625 0.64453 0 1.1016-0.30078 1.375-0.90625 0.28125-0.61328 0.42188-1.6641 0.42188-3.1562zm3.0312 0.03125c0 1.9492-0.42188 3.4531-1.2656 4.5156-0.83594 1.0547-2.0234 1.5781-3.5625 1.5781-1.5547 0-2.75-0.52344-3.5938-1.5781-0.84375-1.0625-1.2656-2.5664-1.2656-4.5156 0-1.957 0.42188-3.4609 1.2656-4.5156 0.84375-1.0625 2.0391-1.5938 3.5938-1.5938 1.5391 0 2.7266 0.53125 3.5625 1.5938 0.84375 1.0547 1.2656 2.5586 1.2656 4.5156z"/>
</symbol>
<symbol id="ah" overflow="visible">
<path d="m1.0781-11.75h8.875v1.7031l-4.5938 10.047h-2.9531l4.3438-9.5312h-5.6719z"/>
</symbol>
<symbol id="j" overflow="visible">
<path d="m4.6562-2.2344h5.1719v2.2344h-8.5469v-2.2344l4.2969-3.7812c0.375-0.34375 0.65625-0.67969 0.84375-1.0156 0.1875-0.33203 0.28125-0.67578 0.28125-1.0312 0-0.55078-0.1875-0.99219-0.5625-1.3281-0.36719-0.33203-0.85547-0.5-1.4688-0.5-0.48047 0-1 0.10156-1.5625 0.29688-0.5625 0.19922-1.1641 0.5-1.7969 0.90625v-2.5938c0.67578-0.21875 1.3477-0.38281 2.0156-0.5 0.66406-0.125 1.3203-0.1875 1.9688-0.1875 1.4062 0 2.5 0.3125 3.2812 0.9375 0.78125 0.61719 1.1719 1.4766 1.1719 2.5781 0 0.64844-0.16797 1.2461-0.5 1.7969-0.33594 0.55469-1.0312 1.293-2.0938 2.2188z"/>
</symbol>
<symbol id="g" overflow="visible">
<path d="m2-1.3438h2.6094v-8.9688l-2.8438 0.57812v-1.4531l2.8281-0.5625h1.5781v10.406h2.6094v1.3438h-6.7812z"/>
</symbol>
<symbol id="t" overflow="visible">
<path d="m3.0938-1.3438h5.5625v1.3438h-7.4688v-1.3438c0.60156-0.625 1.4258-1.4609 2.4688-2.5156 1.0391-1.0508 1.6953-1.7266 1.9688-2.0312 0.50781-0.57031 0.86328-1.0547 1.0625-1.4531 0.19531-0.39453 0.29688-0.78516 0.29688-1.1719 0-0.625-0.21875-1.1289-0.65625-1.5156-0.4375-0.39453-1.0078-0.59375-1.7031-0.59375-0.5 0-1.0312 0.089844-1.5938 0.26562-0.55469 0.16797-1.1406 0.42969-1.7656 0.78125v-1.6094c0.63281-0.25781 1.2266-0.45312 1.7812-0.57812 0.5625-0.13281 1.0781-0.20312 1.5469-0.20312 1.2188 0 2.1875 0.30859 2.9062 0.92188 0.72656 0.60547 1.0938 1.418 1.0938 2.4375 0 0.48047-0.09375 0.9375-0.28125 1.375-0.17969 0.42969-0.50781 0.9375-0.98438 1.5312-0.13672 0.14844-0.55859 0.58594-1.2656 1.3125-0.69922 0.73047-1.6875 1.7461-2.9688 3.0469z"/>
</symbol>
<symbol id="s" overflow="visible">
<path d="m5.3281-6.5156c-0.71875 0-1.2891 0.24609-1.7031 0.73438-0.41797 0.49219-0.625 1.1641-0.625 2.0156 0 0.84375 0.20703 1.5117 0.625 2 0.41406 0.49219 0.98438 0.73438 1.7031 0.73438s1.2852-0.24219 1.7031-0.73438c0.41406-0.48828 0.625-1.1562 0.625-2 0-0.85156-0.21094-1.5234-0.625-2.0156-0.41797-0.48828-0.98438-0.73438-1.7031-0.73438zm3.1562-4.9844v1.4531c-0.39844-0.1875-0.79688-0.32812-1.2031-0.42188-0.40625-0.10156-0.8125-0.15625-1.2188-0.15625-1.043 0-1.8438 0.35547-2.4062 1.0625-0.55469 0.71094-0.86719 1.7773-0.9375 3.2031 0.30078-0.44531 0.6875-0.78906 1.1562-1.0312 0.46875-0.25 0.98438-0.375 1.5469-0.375 1.1875 0 2.1172 0.35938 2.7969 1.0781 0.6875 0.71094 1.0312 1.6836 1.0312 2.9219 0 1.2109-0.35938 2.1797-1.0781 2.9062-0.71094 0.73047-1.6562 1.0938-2.8438 1.0938-1.3672 0-2.4062-0.51953-3.125-1.5625-0.71875-1.0391-1.0781-2.5508-1.0781-4.5312 0-1.8633 0.44141-3.3477 1.3281-4.4531 0.88281-1.1016 2.0664-1.6562 3.5469-1.6562 0.40625 0 0.8125 0.042969 1.2188 0.125 0.40625 0.074219 0.82812 0.1875 1.2656 0.34375z"/>
</symbol>
<symbol id="r" overflow="visible">
<path d="m6.0938-10.375-4.0156 6.2812h4.0156zm-0.40625-1.375h2v7.6562h1.6719v1.3281h-1.6719v2.7656h-1.5938v-2.7656h-5.3125v-1.5469z"/>
</symbol>
<symbol id="q" overflow="visible">
<path d="m5.125-10.703c-0.8125 0-1.4297 0.40234-1.8438 1.2031-0.41797 0.80469-0.625 2.0156-0.625 3.6406 0 1.6055 0.20703 2.8125 0.625 3.625 0.41406 0.80469 1.0312 1.2031 1.8438 1.2031 0.83203 0 1.4531-0.39844 1.8594-1.2031 0.41406-0.8125 0.625-2.0195 0.625-3.625 0-1.625-0.21094-2.8359-0.625-3.6406-0.40625-0.80078-1.0273-1.2031-1.8594-1.2031zm0-1.2656c1.3203 0 2.332 0.52344 3.0312 1.5625 0.69531 1.043 1.0469 2.5586 1.0469 4.5469 0 1.9805-0.35156 3.4922-1.0469 4.5312-0.69922 1.043-1.7109 1.5625-3.0312 1.5625-1.3125 0-2.3203-0.51953-3.0156-1.5625-0.69922-1.0391-1.0469-2.5508-1.0469-4.5312 0-1.9883 0.34766-3.5039 1.0469-4.5469 0.69531-1.0391 1.7031-1.5625 3.0156-1.5625z"/>
</symbol>
<symbol id="ag" overflow="visible">
<path d="m5.125-5.5781c-0.75 0-1.3438 0.20312-1.7812 0.60938-0.42969 0.39844-0.64062 0.94922-0.64062 1.6562 0 0.71094 0.21094 1.2656 0.64062 1.6719 0.4375 0.40625 1.0312 0.60938 1.7812 0.60938 0.75781 0 1.3594-0.20312 1.7969-0.60938s0.65625-0.96094 0.65625-1.6719c0-0.70703-0.21875-1.2578-0.65625-1.6562-0.4375-0.40625-1.0391-0.60938-1.7969-0.60938zm-1.5938-0.6875c-0.67969-0.16406-1.2109-0.47656-1.5938-0.9375-0.375-0.46875-0.5625-1.0391-0.5625-1.7188 0-0.9375 0.33203-1.6758 1-2.2188 0.66406-0.55078 1.582-0.82812 2.75-0.82812 1.1758 0 2.0977 0.27734 2.7656 0.82812 0.66406 0.54297 1 1.2812 1 2.2188 0 0.67969-0.19531 1.25-0.57812 1.7188-0.375 0.46094-0.90234 0.77344-1.5781 0.9375 0.75781 0.1875 1.3516 0.54297 1.7812 1.0625 0.4375 0.51172 0.65625 1.1406 0.65625 1.8906 0 1.1484-0.35156 2.0273-1.0469 2.6406-0.69922 0.60547-1.6992 0.90625-3 0.90625-1.293 0-2.2891-0.30078-2.9844-0.90625-0.69922-0.61328-1.0469-1.4922-1.0469-2.6406 0-0.75 0.21094-1.3789 0.64062-1.8906 0.4375-0.51953 1.0352-0.875 1.7969-1.0625zm-0.57812-2.5c0 0.60547 0.1875 1.0781 0.5625 1.4219 0.38281 0.34375 0.92188 0.51562 1.6094 0.51562s1.2227-0.17188 1.6094-0.51562c0.38281-0.34375 0.57812-0.81641 0.57812-1.4219 0-0.61328-0.19531-1.0859-0.57812-1.4219-0.38672-0.34375-0.92188-0.51562-1.6094-0.51562s-1.2266 0.17188-1.6094 0.51562c-0.375 0.33594-0.5625 0.80859-0.5625 1.4219z"/>
</symbol>
<symbol id="af" overflow="visible">
<path d="m-11.766-1.4844v-5.0312c0-1.4883 0.33594-2.6328 1-3.4375 0.66797-0.80078 1.6172-1.2031 2.8438-1.2031 1.2305 0 2.1797 0.40234 2.8438 1.2031 0.66797 0.80469 1 1.9492 1 3.4375v2h4.0781v3.0312zm2.2031-3.0312h3.2812v-1.6719c0-0.59375-0.14062-1.0469-0.42188-1.3594-0.28906-0.32031-0.69531-0.48438-1.2188-0.48438-0.53125 0-0.9375 0.16406-1.2188 0.48438-0.28125 0.3125-0.42188 0.76562-0.42188 1.3594z"/>
</symbol>
<symbol id="d" overflow="visible">
<path d="m-4.4375-10.156h0.79688v6.5938c0.66797-0.070312 1.168-0.3125 1.5-0.71875 0.33594-0.40625 0.5-0.97656 0.5-1.7188 0-0.59375-0.085937-1.1953-0.26562-1.8125-0.17578-0.625-0.44531-1.2656-0.8125-1.9219h2.1875c0.25 0.66797 0.4375 1.3359 0.5625 2 0.13281 0.66797 0.20312 1.3359 0.20312 2 0 1.5938-0.40625 2.8359-1.2188 3.7188-0.8125 0.88672-1.9531 1.3281-3.4219 1.3281-1.4375 0-2.5664-0.42969-3.3906-1.2969-0.83203-0.875-1.25-2.0703-1.25-3.5938 0-1.3828 0.42188-2.4922 1.2656-3.3281 0.83594-0.83203 1.9492-1.25 3.3438-1.25zm-0.9375 2.8906c-0.53125 0-0.95703 0.15625-1.2812 0.46875-0.33203 0.3125-0.5 0.72656-0.5 1.2344 0 0.54297 0.15625 0.98438 0.46875 1.3281 0.30469 0.34375 0.74219 0.55859 1.3125 0.64062z"/>
</symbol>
<symbol id="m" overflow="visible">
<path d="m-6.4219-7.9062c-0.11328 0.25-0.19531 0.5-0.25 0.75-0.0625 0.24219-0.09375 0.48047-0.09375 0.71875 0 0.73047 0.23438 1.293 0.70312 1.6875 0.46875 0.38672 1.1367 0.57812 2 0.57812h4.0625v2.8125h-8.8281v-2.8125h1.4531c-0.58203-0.36328-1.0039-0.78125-1.2656-1.25-0.26953-0.46875-0.40625-1.0312-0.40625-1.6875 0-0.09375 0.007813-0.19141 0.015625-0.29688 0.011719-0.11328 0.027344-0.27344 0.046875-0.48438z"/>
</symbol>
<symbol id="c" overflow="visible">
<path d="m-8.5469-8.25h2.1406c-0.25 0.60547-0.4375 1.1875-0.5625 1.75s-0.1875 1.0938-0.1875 1.5938c0 0.53125 0.070312 0.92969 0.20312 1.1875 0.125 0.26172 0.32812 0.39062 0.60938 0.39062 0.23047 0 0.40625-0.09375 0.53125-0.28125 0.11719-0.19531 0.19922-0.55078 0.25-1.0625l0.078125-0.5c0.1875-1.4453 0.49219-2.4141 0.90625-2.9062 0.41797-0.5 1.0781-0.75 1.9844-0.75 0.9375 0 1.6484 0.35156 2.125 1.0469 0.46875 0.6875 0.70312 1.7188 0.70312 3.0938 0 0.58594-0.046875 1.1875-0.14062 1.8125-0.09375 0.61719-0.23438 1.25-0.42188 1.9062h-2.1406c0.27344-0.5625 0.48047-1.1328 0.625-1.7188 0.13672-0.59375 0.20312-1.1953 0.20312-1.8125 0-0.55078-0.078125-0.96094-0.23438-1.2344-0.15625-0.28125-0.37891-0.42188-0.67188-0.42188-0.25781 0-0.44531 0.10156-0.5625 0.29688-0.125 0.1875-0.22266 0.57031-0.29688 1.1406l-0.0625 0.48438c-0.15625 1.2617-0.44531 2.1484-0.875 2.6562-0.42578 0.5-1.0703 0.75-1.9375 0.75-0.9375 0-1.6289-0.31641-2.0781-0.95312-0.45703-0.64453-0.6875-1.6289-0.6875-2.9531 0-0.51953 0.042969-1.0664 0.125-1.6406 0.085937-0.57031 0.21094-1.1953 0.375-1.875z"/>
</symbol>
<symbol id="l" overflow="visible">
<path d="m-7.0156-5.5469c0 0.625 0.22656 1.1055 0.67188 1.4375 0.44922 0.32422 1.0938 0.48438 1.9375 0.48438s1.4961-0.16016 1.9531-0.48438c0.44922-0.33203 0.67188-0.8125 0.67188-1.4375 0-0.61328-0.22266-1.082-0.67188-1.4062-0.45703-0.33203-1.1094-0.5-1.9531-0.5s-1.4883 0.16797-1.9375 0.5c-0.44531 0.32422-0.67188 0.79297-0.67188 1.4062zm-2.0312 0c0-1.5195 0.41406-2.707 1.2344-3.5625 0.82422-0.85156 1.9609-1.2812 3.4062-1.2812 1.4492 0 2.5859 0.42969 3.4062 1.2812 0.82422 0.85547 1.2344 2.043 1.2344 3.5625 0 1.5234-0.41016 2.7148-1.2344 3.5781-0.82031 0.85547-1.957 1.2812-3.4062 1.2812-1.4453 0-2.582-0.42578-3.4062-1.2812-0.82031-0.86328-1.2344-2.0547-1.2344-3.5781z"/>
</symbol>
<symbol id="f" overflow="visible">
<path d="m-5.375-10.219h5.375v2.8281h-4.1094c-0.75781 0-1.2852 0.023437-1.5781 0.0625-0.28906 0.03125-0.50391 0.089844-0.64062 0.17188-0.1875 0.11719-0.32812 0.26562-0.42188 0.45312-0.10156 0.1875-0.15625 0.40234-0.15625 0.64062 0 0.58594 0.23047 1.0469 0.6875 1.3906 0.44922 0.33594 1.0742 0.5 1.875 0.5h4.3438v2.8125h-8.8281v-2.8125h1.2969c-0.51953-0.42578-0.89844-0.87891-1.1406-1.3594-0.25-0.47656-0.375-1.0039-0.375-1.5781 0-1.0195 0.32031-1.7891 0.95312-2.3125 0.625-0.53125 1.5312-0.79688 2.7188-0.79688z"/>
</symbol>
<symbol id="b" overflow="visible"></symbol>
<symbol id="w" overflow="visible">
<path d="m-8.8281-0.5625v-2.75l6.0781-1.4688-6.0781-1.5v-2.3438l6.0156-1.4844-6.0156-1.4844v-2.75l8.8281 2.3281v3.0781l-6.0625 1.4844 6.0625 1.4844v3.0781z"/>
</symbol>
<symbol id="a" overflow="visible">
<path d="m-8.8281-1.3594v-2.8125h8.8281v2.8125zm-3.4375 0v-2.8125h2.2969v2.8125z"/>
</symbol>
<symbol id="p" overflow="visible">
<path d="m-11.328-4.4375h2.5v-2.9062h2.0156v2.9062h3.75c0.40625 0 0.68359-0.078125 0.82812-0.23438 0.14844-0.16406 0.21875-0.48828 0.21875-0.96875v-1.4531h2.0156v2.4219c0 1.1172-0.22656 1.9062-0.6875 2.375-0.46875 0.46094-1.2578 0.6875-2.375 0.6875h-3.75v1.3906h-2.0156v-1.3906h-2.5z"/>
</symbol>
<symbol id="i" overflow="visible">
<path d="m-5.375-10.219h5.375v2.8281h-4.0938c-0.76953 0-1.3008 0.023437-1.5938 0.0625-0.28906 0.03125-0.50391 0.089844-0.64062 0.17188-0.1875 0.11719-0.32812 0.26562-0.42188 0.45312-0.10156 0.1875-0.15625 0.40234-0.15625 0.64062 0 0.58594 0.23047 1.0469 0.6875 1.3906 0.44922 0.33594 1.0742 0.5 1.875 0.5h4.3438v2.8125h-12.266v-2.8125h4.7344c-0.51953-0.42578-0.89844-0.87891-1.1406-1.3594-0.25-0.47656-0.375-1.0039-0.375-1.5781 0-1.0195 0.32031-1.7891 0.95312-2.3125 0.625-0.53125 1.5312-0.79688 2.7188-0.79688z"/>
</symbol>
<symbol id="o" overflow="visible">
<path d="m-2.1406-8.6094v4.7344l2.1406 0.75v3.0469l-11.766-4.3594v-3.6094l11.766-4.3594v3.0469zm-2.1875 3.9844v-3.2188l-4.6875 1.5938z"/>
</symbol>
<symbol id="h" overflow="visible">
<path d="m-12.266-1.3594v-2.8125h12.266v2.8125z"/>
</symbol>
<symbol id="ae" overflow="visible">
<path d="m-8.8281-0.92188v-7.6875h1.9688l4.8438 4.6406v-4.6406h2.0156v7.8906h-1.9688l-4.8438-4.6562v4.4531z"/>
</symbol>
<symbol id="n" overflow="visible">
<path d="m-7.3594-9.5312c-0.55078-0.35156-0.96875-0.77344-1.25-1.2656-0.28906-0.48828-0.4375-1.0312-0.4375-1.625 0-1.0078 0.32031-1.7812 0.95312-2.3125 0.625-0.53125 1.5312-0.79688 2.7188-0.79688h5.375v2.8438h-4.6094c-0.0625-0.007812-0.12891-0.015625-0.20312-0.015625h-0.3125c-0.625 0-1.0781 0.09375-1.3594 0.28125-0.28125 0.17969-0.42188 0.46875-0.42188 0.875 0 0.54297 0.21875 0.96094 0.65625 1.25 0.4375 0.29297 1.0781 0.44531 1.9219 0.45312h4.3281v2.8281h-4.6094c-0.96875 0-1.5938 0.085937-1.875 0.25-0.28125 0.16797-0.42188 0.46875-0.42188 0.90625 0 0.53125 0.22656 0.94922 0.67188 1.25 0.4375 0.29297 1.0703 0.4375 1.8906 0.4375h4.3438v2.8281h-8.8281v-2.8281h1.2969c-0.5-0.34375-0.875-0.73828-1.125-1.1875-0.25781-0.44531-0.39062-0.94141-0.39062-1.4844 0-0.61328 0.15234-1.1562 0.45312-1.625 0.29297-0.46875 0.70312-0.82031 1.2344-1.0625z"/>
</symbol>
<symbol id="ad" overflow="visible">
<path d="m-11.766-3.4062h4.375v1.875h-4.375z"/>
</symbol>
<symbol id="ac" overflow="visible">
<path d="m-7.5312-7.3594h-4.7344v-2.8281h12.266v2.8281h-1.2812c0.52344 0.39844 0.90625 0.82812 1.1562 1.2969 0.23828 0.46094 0.35938 0.99609 0.35938 1.6094 0 1.0938-0.42969 1.9922-1.2969 2.6875-0.86328 0.69922-1.9766 1.0469-3.3438 1.0469-1.3633 0-2.4766-0.34766-3.3438-1.0469-0.86328-0.69531-1.2969-1.5938-1.2969-2.6875 0-0.60156 0.125-1.1406 0.375-1.6094 0.24219-0.46875 0.62109-0.89844 1.1406-1.2969zm5.7031 1.8594c0-0.60156-0.21875-1.0625-0.65625-1.375-0.4375-0.32031-1.0781-0.48438-1.9219-0.48438s-1.4844 0.16406-1.9219 0.48438c-0.4375 0.3125-0.65625 0.77344-0.65625 1.375 0 0.60547 0.21875 1.0703 0.65625 1.3906 0.4375 0.3125 1.0781 0.46875 1.9219 0.46875s1.4844-0.15625 1.9219-0.46875c0.4375-0.32031 0.65625-0.78516 0.65625-1.3906z"/>
</symbol>
<symbol id="ab" overflow="visible">
<path d="m-3.9688-5.3125c0 0.59375 0.10156 1.043 0.29688 1.3438 0.19922 0.29297 0.49219 0.4375 0.875 0.4375 0.36719 0 0.65234-0.11719 0.85938-0.35938 0.19922-0.23828 0.29688-0.57031 0.29688-1 0-0.53125-0.19141-0.97266-0.57812-1.3281-0.38281-0.36328-0.86328-0.54688-1.4375-0.54688h-0.3125zm-1.0625-4.2969h5.0312v2.8438h-1.3125c0.54297 0.375 0.9375 0.80469 1.1875 1.2812 0.23828 0.46875 0.35938 1.043 0.35938 1.7188 0 0.90625-0.26562 1.6484-0.79688 2.2188-0.53906 0.57422-1.2344 0.85938-2.0781 0.85938-1.0391 0-1.8008-0.35156-2.2812-1.0625-0.48828-0.71875-0.73438-1.8359-0.73438-3.3594v-1.6562h-0.21875c-0.44531 0-0.76953 0.17969-0.96875 0.53125-0.20703 0.34375-0.3125 0.89062-0.3125 1.6406 0 0.60547 0.0625 1.168 0.1875 1.6875 0.11719 0.51172 0.29297 0.99219 0.53125 1.4375h-2.1562c-0.14453-0.60156-0.25391-1.207-0.32812-1.8125-0.082031-0.61328-0.125-1.2227-0.125-1.8281 0-1.5938 0.32031-2.7383 0.95312-3.4375 0.625-0.70703 1.6484-1.0625 3.0625-1.0625z"/>
</symbol>
<symbol id="aa" overflow="visible">
<path d="m-11.766-1.4844v-3.0312h7.0469c0.98047 0 1.6797-0.15625 2.0938-0.46875 0.41797-0.32031 0.625-0.84375 0.625-1.5625s-0.20703-1.2344-0.625-1.5469c-0.41406-0.32031-1.1133-0.48438-2.0938-0.48438h-7.0469v-3.0312h7.0469c1.668 0 2.9141 0.41797 3.7344 1.25 0.8125 0.83594 1.2188 2.1055 1.2188 3.8125 0 1.7109-0.40625 2.9805-1.2188 3.8125-0.82031 0.83594-2.0664 1.25-3.7344 1.25z"/>
</symbol>
<symbol id="z" overflow="visible">
<path d="m-11.391-9.6562h2.4844c-0.28906 0.64844-0.50781 1.2773-0.65625 1.8906-0.14453 0.61719-0.21875 1.1953-0.21875 1.7344 0 0.73047 0.10156 1.2656 0.29688 1.6094 0.19922 0.34375 0.51172 0.51562 0.9375 0.51562 0.3125 0 0.55859-0.11328 0.73438-0.34375 0.17969-0.23828 0.32812-0.66406 0.45312-1.2812l0.26562-1.2812c0.26172-1.3125 0.66406-2.2422 1.2031-2.7969 0.53125-0.55078 1.2891-0.82812 2.2656-0.82812 1.3047 0 2.2734 0.38672 2.9062 1.1562 0.63672 0.77344 0.95312 1.9492 0.95312 3.5312 0 0.74219-0.074219 1.4844-0.21875 2.2344s-0.35156 1.5-0.625 2.25h-2.5625c0.39844-0.75 0.69922-1.4727 0.90625-2.1719 0.19922-0.69531 0.29688-1.375 0.29688-2.0312s-0.10938-1.1602-0.32812-1.5156c-0.21875-0.35156-0.53516-0.53125-0.95312-0.53125-0.36328 0-0.64453 0.12109-0.84375 0.35938-0.19531 0.24219-0.37891 0.71875-0.54688 1.4375l-0.25 1.1719c-0.25 1.1797-0.64844 2.0391-1.2031 2.5781-0.55078 0.54297-1.2969 0.8125-2.2344 0.8125-1.1758 0-2.0781-0.375-2.7031-1.125-0.63281-0.75781-0.95312-1.8477-0.95312-3.2656 0-0.64453 0.054687-1.3047 0.15625-1.9844 0.09375-0.6875 0.24219-1.3945 0.4375-2.125z"/>
</symbol>
<symbol id="y" overflow="visible">
<path d="m-12.266-1.3906v-4.8906h1.7812v2.2188h10.844v-2.2188h1.7656v4.8906z"/>
</symbol>
<symbol id="x" overflow="visible">
<path d="m2.125-5.9844v4.8906h-1.7656v-2.2188h-10.844v2.2188h-1.7812v-4.8906z"/>
</symbol>
</defs>
<path d="m111.74 21.68h471.84v299.3h-471.84z" fill="#fff"/>
<path transform="matrix(2.018 0 0 2.0161 8.2717 5.2283)" d="m285.09 156.62h-236.04" fill="none" stroke="#000" stroke-width=".5"/>
<path transform="matrix(2.018 0 0 2.0161 8.2717 5.2283)" d="m51.273 8.1599v150.88" fill="none" stroke="#000" stroke-width=".5"/>
<path transform="matrix(2.018 0 0 2.0161 8.2717 5.2283)" d="m51.273 8.1599h233.81v148.38h-233.81z" fill="none" stroke="#000" stroke-width="1.5"/>
<path transform="matrix(2.018 0 0 2.0161 8.2717 5.2283)" d="m109.73 156.62v2.4219" fill="none" stroke="#000" stroke-width=".5"/>
<path transform="matrix(2.018 0 0 2.0161 8.2717 5.2283)" d="m285.09 138.06h-236.04" fill="none" stroke="#000" stroke-width=".5"/>
<path transform="matrix(2.018 0 0 2.0161 8.2717 5.2283)" d="m285.09 119.5h-236.04" fill="none" stroke="#000" stroke-width=".5"/>
<path transform="matrix(2.018 0 0 2.0161 8.2717 5.2283)" d="m285.09 100.94h-236.04" fill="none" stroke="#000" stroke-width=".5"/>
<path transform="matrix(2.018 0 0 2.0161 8.2717 5.2283)" d="m285.09 82.387h-236.04" fill="none" stroke="#000" stroke-width=".5"/>
<path transform="matrix(2.018 0 0 2.0161 8.2717 5.2283)" d="m285.09 63.83h-236.04" fill="none" stroke="#000" stroke-width=".5"/>
<path transform="matrix(2.018 0 0 2.0161 8.2717 5.2283)" d="m285.09 45.275h-236.04" fill="none" stroke="#000" stroke-width=".5"/>
<path transform="matrix(2.018 0 0 2.0161 8.2717 5.2283)" d="m285.09 26.717h-236.04" fill="none" stroke="#000" stroke-width=".5"/>
<path transform="matrix(2.018 0 0 2.0161 8.2717 5.2283)" d="m285.09 8.1599v150.88" fill="none" stroke="#000" stroke-width=".5"/>
<path transform="matrix(2.018 0 0 2.0161 8.2717 5.2283)" d="m168.18 156.62v2.4219" fill="none" stroke="#000" stroke-width=".5"/>
<path transform="matrix(2.018 0 0 2.0161 8.2717 5.2283)" d="m226.63 156.62v2.4219" fill="none" stroke="#000" stroke-width=".5"/>
<path transform="matrix(2.018 0 0 2.0161 8.2717 5.2283)" d="m285.09 8.1599h-236.04" fill="none" stroke="#000" stroke-width=".5"/>
<g>
<use x="147.734375" y="355.658827" xlink:href="#v"/>
<use x="159.8426" y="355.658827" xlink:href="#u"/>
<use x="171.950825" y="355.658827" xlink:href="#k"/>
<use x="184.05905" y="355.658827" xlink:href="#e"/>
</g>
<g>
<use x="265.871094" y="355.658827" xlink:href="#v"/>
<use x="277.979319" y="355.658827" xlink:href="#u"/>
<use x="290.087544" y="355.658827" xlink:href="#ah"/>
<use x="302.195769" y="355.658827" xlink:href="#k"/>
</g>
<g>
<use x="384.242187" y="355.658827" xlink:href="#j"/>
<use x="396.350412" y="355.658827" xlink:href="#e"/>
<use x="408.458637" y="355.658827" xlink:href="#e"/>
<use x="420.566862" y="355.658827" xlink:href="#j"/>
</g>
<g>
<use x="501.886719" y="355.658827" xlink:href="#j"/>
<use x="513.994944" y="355.658827" xlink:href="#e"/>
<use x="526.103169" y="355.658827" xlink:href="#k"/>
<use x="538.211394" y="355.658827" xlink:href="#e"/>
</g>
<g>
<use x="70.125" y="100.908827" xlink:href="#g"/>
<use x="80.215187" y="100.908827" xlink:href="#t"/>
</g>
<g>
<use x="79.796875" y="213.147108" xlink:href="#s"/>
</g>
<g>
<use x="79.6875" y="250.56117" xlink:href="#r"/>
</g>
<g>
<use x="80.394531" y="287.975233" xlink:href="#t"/>
</g>
<g>
<use x="79.851562" y="325.389295" xlink:href="#q"/>
</g>
<g>
<use x="79.882812" y="175.736952" xlink:href="#ag"/>
</g>
<g>
<use x="69.582031" y="138.322889" xlink:href="#g"/>
<use x="79.672219" y="138.322889" xlink:href="#q"/>
</g>
<g>
<use x="69.414062" y="63.494764" xlink:href="#g"/>
<use x="79.50425" y="63.494764" xlink:href="#r"/>
</g>
<g>
<use x="69.523438" y="26.084608" xlink:href="#g"/>
<use x="79.613625" y="26.084608" xlink:href="#s"/>
</g>
<g>
<use x="27.165193" y="325.035156" xlink:href="#af"/>
<use x="27.165193" y="312.938387" xlink:href="#d"/>
<use x="27.165193" y="302.857747" xlink:href="#m"/>
<use x="27.165193" y="294.793234" xlink:href="#c"/>
<use x="27.165193" y="284.712593" xlink:href="#l"/>
<use x="27.165193" y="272.615824" xlink:href="#f"/>
<use x="27.165193" y="260.519056" xlink:href="#c"/>
<use x="27.165193" y="250.438415" xlink:href="#b"/>
<use x="27.165193" y="244.39003" xlink:href="#w"/>
<use x="27.165193" y="230.277133" xlink:href="#a"/>
<use x="27.165193" y="224.228749" xlink:href="#p"/>
<use x="27.165193" y="216.164236" xlink:href="#i"/>
<use x="27.165193" y="204.067467" xlink:href="#b"/>
<use x="27.165193" y="198.019083" xlink:href="#o"/>
<use x="27.165193" y="185.922314" xlink:href="#h"/>
<use x="27.165193" y="179.87393" xlink:href="#ae"/>
<use x="27.165193" y="169.793289" xlink:href="#i"/>
<use x="27.165193" y="157.69652" xlink:href="#d"/>
<use x="27.165193" y="147.615879" xlink:href="#a"/>
<use x="27.165193" y="141.567495" xlink:href="#n"/>
<use x="27.165193" y="125.43847" xlink:href="#d"/>
<use x="27.165193" y="115.357829" xlink:href="#m"/>
<use x="27.165193" y="107.293316" xlink:href="#ad"/>
<use x="27.165193" y="103.26106" xlink:href="#c"/>
<use x="27.165193" y="93.180419" xlink:href="#b"/>
<use x="27.165193" y="87.132035" xlink:href="#ac"/>
<use x="27.165193" y="75.035266" xlink:href="#a"/>
<use x="27.165193" y="68.986882" xlink:href="#c"/>
<use x="27.165193" y="58.906241" xlink:href="#d"/>
<use x="27.165193" y="48.8256" xlink:href="#ab"/>
<use x="27.165193" y="38.744959" xlink:href="#c"/>
<use x="27.165193" y="28.664319" xlink:href="#d"/>
</g>
<g>
<use x="47.34488" y="281.6875" xlink:href="#a"/>
<use x="47.34488" y="275.639116" xlink:href="#f"/>
<use x="47.34488" y="263.542347" xlink:href="#b"/>
<use x="47.34488" y="257.493962" xlink:href="#p"/>
<use x="47.34488" y="249.42945" xlink:href="#i"/>
<use x="47.34488" y="237.332681" xlink:href="#d"/>
<use x="47.34488" y="227.25204" xlink:href="#b"/>
<use x="47.34488" y="221.203656" xlink:href="#aa"/>
<use x="47.34488" y="207.090759" xlink:href="#z"/>
<use x="47.34488" y="194.99399" xlink:href="#o"/>
<use x="47.34488" y="182.897221" xlink:href="#b"/>
<use x="47.34488" y="176.848836" xlink:href="#y"/>
<use x="47.34488" y="168.784324" xlink:href="#a"/>
<use x="47.34488" y="162.735939" xlink:href="#f"/>
<use x="47.34488" y="150.63917" xlink:href="#b"/>
<use x="47.34488" y="144.590786" xlink:href="#n"/>
<use x="47.34488" y="128.461761" xlink:href="#a"/>
<use x="47.34488" y="122.413376" xlink:href="#h"/>
<use x="47.34488" y="116.364992" xlink:href="#h"/>
<use x="47.34488" y="110.316607" xlink:href="#a"/>
<use x="47.34488" y="104.268223" xlink:href="#l"/>
<use x="47.34488" y="92.171454" xlink:href="#f"/>
<use x="47.34488" y="80.074685" xlink:href="#c"/>
<use x="47.34488" y="69.994045" xlink:href="#x"/>
</g>
<path transform="matrix(2.018 0 0 2.0161 8.2717 5.2283)" d="m68.955 155h23.089v1.6178h-23.089z" fill="#39a675" stroke="#000" stroke-width=".75"/>
<path transform="matrix(2.018 0 0 2.0161 8.2717 5.2283)" d="m127.41 151.91h23.089v4.7043h-23.089z" fill="#39a675" stroke="#000" stroke-width=".75"/>
<path transform="matrix(2.018 0 0 2.0161 8.2717 5.2283)" d="m185.86 119.56h23.089v37.051h-23.089z" fill="#39a675" stroke="#000" stroke-width=".75"/>
<path transform="matrix(2.018 0 0 2.0161 8.2717 5.2283)" d="m244.32 17.293h23.089v139.32h-23.089z" fill="#39a675" stroke="#000" stroke-width=".75"/>
</svg>
