<?xml version="1.0" encoding="UTF-8"?>
<svg width="800px" height="494px" version="1.1" viewBox="0 0 800 494" xmlns="http://www.w3.org/2000/svg" xmlns:xlink="http://www.w3.org/1999/xlink">
<defs>
<symbol id="v" overflow="visible">
<path d="m2.5156-2.7969h3.5781v-10.141l-3.6719 0.75v-2.75l3.6562-0.76562h3.8438v12.906h3.5781v2.7969h-10.984z"/>
</symbol>
<symbol id="u" overflow="visible">
<path d="m2.1562-0.34375v-2.9062c0.64453 0.30469 1.2578 0.53125 1.8438 0.6875 0.59375 0.14844 1.1758 0.21875 1.75 0.21875 1.207 0 2.1445-0.33203 2.8125-1 0.67578-0.67578 1.0703-1.6719 1.1875-2.9844-0.46875 0.35547-0.97656 0.62109-1.5156 0.79688-0.54297 0.16797-1.1328 0.25-1.7656 0.25-1.6055 0-2.9023-0.46094-3.8906-1.3906-0.98047-0.9375-1.4688-2.1719-1.4688-3.7031 0-1.6875 0.54688-3.0352 1.6406-4.0469 1.1016-1.0195 2.5781-1.5312 4.4219-1.5312 2.0391 0 3.625 0.69531 4.75 2.0781 1.125 1.375 1.6875 3.3242 1.6875 5.8438 0 2.5938-0.65625 4.6367-1.9688 6.125-1.3125 1.4805-3.1094 2.2188-5.3906 2.2188-0.74219 0-1.4492-0.058594-2.125-0.17188-0.66797-0.10547-1.3242-0.26562-1.9688-0.48438zm5-7.5625c0.69531 0 1.2227-0.22656 1.5781-0.6875 0.36328-0.45703 0.54688-1.1445 0.54688-2.0625 0-0.91406-0.18359-1.6016-0.54688-2.0625-0.35547-0.46875-0.88281-0.70312-1.5781-0.70312-0.71094 0-1.2461 0.23438-1.6094 0.70312-0.35547 0.46094-0.53125 1.1484-0.53125 2.0625 0 0.91797 0.17578 1.6055 0.53125 2.0625 0.36328 0.46094 0.89844 0.6875 1.6094 0.6875z"/>
</symbol>
<symbol id="l" overflow="visible">
<path d="m2.2812-15.703h10.062v2.9844h-6.8281v2.4219c0.30078-0.082031 0.60938-0.14453 0.92188-0.1875 0.3125-0.050781 0.63281-0.078125 0.96875-0.078125 1.9141 0 3.4062 0.48047 4.4688 1.4375 1.0703 0.96094 1.6094 2.293 1.6094 4 0 1.6992-0.58594 3.0312-1.75 4-1.1562 0.96094-2.7656 1.4375-4.8281 1.4375-0.88672 0-1.7656-0.089844-2.6406-0.26562-0.875-0.16406-1.7461-0.42578-2.6094-0.78125v-3.1875c0.85156 0.49219 1.6641 0.85938 2.4375 1.1094 0.76953 0.24219 1.4922 0.35938 2.1719 0.35938 0.97656 0 1.75-0.23828 2.3125-0.71875 0.57031-0.47656 0.85938-1.1289 0.85938-1.9531 0-0.82031-0.28906-1.4727-0.85938-1.9531-0.5625-0.47656-1.3359-0.71875-2.3125-0.71875-0.58594 0-1.2031 0.078125-1.8594 0.23438-0.65625 0.14844-1.3672 0.38281-2.125 0.70312z"/>
</symbol>
<symbol id="c" overflow="visible">
<path d="m9.9062-7.8594c0-1.9688-0.1875-3.3516-0.5625-4.1562-0.36719-0.80078-0.98047-1.2031-1.8438-1.2031-0.875 0-1.5 0.40234-1.875 1.2031-0.36719 0.80469-0.54688 2.1875-0.54688 4.1562 0 1.9805 0.17969 3.375 0.54688 4.1875 0.375 0.8125 1 1.2188 1.875 1.2188 0.86328 0 1.4766-0.40625 1.8438-1.2188 0.375-0.8125 0.5625-2.207 0.5625-4.1875zm4.0469 0.03125c0 2.5938-0.5625 4.6016-1.6875 6.0156-1.1172 1.418-2.7031 2.125-4.7656 2.125-2.0742 0-3.6719-0.70703-4.7969-2.125-1.1172-1.4141-1.6719-3.4219-1.6719-6.0156 0-2.6133 0.55469-4.625 1.6719-6.0312 1.125-1.4141 2.7227-2.125 4.7969-2.125 2.0625 0 3.6484 0.71094 4.7656 2.125 1.125 1.4062 1.6875 3.418 1.6875 6.0312z"/>
</symbol>
<symbol id="ao" overflow="visible">
<path d="m1.4375-15.703h11.828v2.2812l-6.1094 13.422h-3.9531l5.7969-12.719h-7.5625z"/>
</symbol>
<symbol id="k" overflow="visible">
<path d="m6.2031-2.9688h6.9062v2.9688h-11.406v-2.9688l5.7344-5.0625c0.50781-0.45703 0.88281-0.90625 1.125-1.3438 0.25-0.44531 0.375-0.91016 0.375-1.3906 0-0.73828-0.25-1.332-0.75-1.7812-0.49219-0.44531-1.1484-0.67188-1.9688-0.67188-0.625 0-1.3125 0.13672-2.0625 0.40625-0.75 0.27344-1.5547 0.67188-2.4062 1.2031v-3.4531c0.90625-0.28906 1.8008-0.51562 2.6875-0.67188 0.89453-0.16406 1.7695-0.25 2.625-0.25 1.875 0 3.332 0.41797 4.375 1.25 1.0391 0.82422 1.5625 1.9766 1.5625 3.4531 0 0.85547-0.21875 1.6523-0.65625 2.3906-0.4375 0.74219-1.3672 1.7305-2.7812 2.9688z"/>
</symbol>
<symbol id="f" overflow="visible">
<path d="m2.6719-1.7812h3.4688v-11.984l-3.7812 0.76562v-1.9375l3.7656-0.76562h2.125v13.922h3.4688v1.7812h-9.0469z"/>
</symbol>
<symbol id="t" overflow="visible">
<path d="m4.125-1.7812h7.4219v1.7812h-9.9688v-1.7812c0.80078-0.83203 1.8945-1.9531 3.2812-3.3594 1.3945-1.4062 2.2734-2.3125 2.6406-2.7188 0.67578-0.76953 1.1484-1.4141 1.4219-1.9375 0.26953-0.53125 0.40625-1.0508 0.40625-1.5625 0-0.83203-0.29688-1.5078-0.89062-2.0312-0.58594-0.53125-1.3438-0.79688-2.2812-0.79688-0.66797 0-1.3711 0.11719-2.1094 0.34375-0.74219 0.23047-1.5273 0.57812-2.3594 1.0469v-2.1406c0.85156-0.34375 1.6484-0.60156 2.3906-0.78125 0.73828-0.17578 1.4219-0.26562 2.0469-0.26562 1.625 0 2.9141 0.40625 3.875 1.2188 0.96875 0.8125 1.4531 1.9023 1.4531 3.2656 0 0.64844-0.12109 1.2617-0.35938 1.8438-0.24219 0.57422-0.67969 1.25-1.3125 2.0312-0.17969 0.21094-0.73438 0.79688-1.6719 1.7656s-2.2656 2.3281-3.9844 4.0781z"/>
</symbol>
<symbol id="s" overflow="visible">
<path d="m7.1094-8.6875c-0.96094 0-1.7188 0.32812-2.2812 0.98438-0.55469 0.64844-0.82812 1.5391-0.82812 2.6719 0 1.125 0.27344 2.0156 0.82812 2.6719 0.5625 0.65625 1.3203 0.98438 2.2812 0.98438 0.94531 0 1.6953-0.32812 2.25-0.98438 0.5625-0.65625 0.84375-1.5469 0.84375-2.6719 0-1.1328-0.28125-2.0234-0.84375-2.6719-0.55469-0.65625-1.3047-0.98438-2.25-0.98438zm4.2188-6.6562v1.9219c-0.53125-0.25-1.0742-0.4375-1.625-0.5625-0.54297-0.13281-1.0781-0.20312-1.6094-0.20312-1.3984 0-2.4648 0.47656-3.2031 1.4219-0.74219 0.9375-1.168 2.3672-1.2812 4.2812 0.41406-0.61328 0.9375-1.082 1.5625-1.4062 0.625-0.32031 1.3125-0.48438 2.0625-0.48438 1.5703 0 2.8164 0.48047 3.7344 1.4375 0.91406 0.96094 1.375 2.2617 1.375 3.9062 0 1.6055-0.48047 2.8984-1.4375 3.875-0.94922 0.98047-2.2148 1.4688-3.7969 1.4688-1.8125 0-3.2031-0.69531-4.1719-2.0938-0.96094-1.3945-1.4375-3.4102-1.4375-6.0469 0-2.4766 0.58594-4.457 1.7656-5.9375 1.1758-1.4766 2.7578-2.2188 4.75-2.2188 0.53125 0 1.0664 0.054687 1.6094 0.15625 0.53906 0.10547 1.1094 0.26562 1.7031 0.48438z"/>
</symbol>
<symbol id="r" overflow="visible">
<path d="m8.1406-13.844-5.3594 8.375h5.3594zm-0.5625-1.8594h2.6719v10.234h2.2344v1.7656h-2.2344v3.7031h-2.1094v-3.7031h-7.0938v-2.0469z"/>
</symbol>
<symbol id="q" overflow="visible">
<path d="m6.8438-14.297c-1.0938 0-1.918 0.53906-2.4688 1.6094-0.55469 1.0742-0.82812 2.6953-0.82812 4.8594 0 2.1484 0.27344 3.7617 0.82812 4.8438 0.55078 1.0742 1.375 1.6094 2.4688 1.6094 1.1016 0 1.9258-0.53516 2.4688-1.6094 0.55078-1.082 0.82812-2.6953 0.82812-4.8438 0-2.1641-0.27734-3.7852-0.82812-4.8594-0.54297-1.0703-1.3672-1.6094-2.4688-1.6094zm0-1.6875c1.7578 0 3.1016 0.69922 4.0312 2.0938 0.92578 1.3867 1.3906 3.4062 1.3906 6.0625 0 2.6367-0.46484 4.6523-1.3906 6.0469-0.92969 1.3984-2.2734 2.0938-4.0312 2.0938-1.7617 0-3.1055-0.69531-4.0312-2.0938-0.92969-1.3945-1.3906-3.4102-1.3906-6.0469 0-2.6562 0.46094-4.6758 1.3906-6.0625 0.92578-1.3945 2.2695-2.0938 4.0312-2.0938z"/>
</symbol>
<symbol id="an" overflow="visible">
<path d="m6.8438-7.4531c-1.0117 0-1.8086 0.27344-2.3906 0.8125-0.57422 0.54297-0.85938 1.2812-0.85938 2.2188 0 0.94922 0.28516 1.6953 0.85938 2.2344 0.58203 0.54297 1.3789 0.8125 2.3906 0.8125 1.0078 0 1.8047-0.26953 2.3906-0.8125 0.58203-0.53906 0.875-1.2852 0.875-2.2344 0-0.9375-0.29297-1.6758-0.875-2.2188-0.57422-0.53906-1.3711-0.8125-2.3906-0.8125zm-2.125-0.90625c-0.90625-0.21875-1.6172-0.64062-2.125-1.2656-0.51172-0.625-0.76562-1.3828-0.76562-2.2812 0-1.2578 0.44531-2.2539 1.3438-2.9844 0.89453-0.72656 2.1172-1.0938 3.6719-1.0938 1.5625 0 2.7852 0.36719 3.6719 1.0938 0.89453 0.73047 1.3438 1.7266 1.3438 2.9844 0 0.89844-0.25781 1.6562-0.76562 2.2812-0.51172 0.625-1.2148 1.0469-2.1094 1.2656 1.0195 0.24219 1.8164 0.71094 2.3906 1.4062 0.57031 0.6875 0.85938 1.5312 0.85938 2.5312 0 1.5234-0.46875 2.6953-1.4062 3.5156-0.92969 0.8125-2.2578 1.2188-3.9844 1.2188-1.7305 0-3.0586-0.40625-3.9844-1.2188-0.92969-0.82031-1.3906-1.9922-1.3906-3.5156 0-1 0.28516-1.8438 0.85938-2.5312 0.57031-0.69531 1.3672-1.1641 2.3906-1.4062zm-0.78125-3.3594c0 0.8125 0.25391 1.4492 0.76562 1.9062 0.50781 0.46094 1.2227 0.6875 2.1406 0.6875 0.90625 0 1.6133-0.22656 2.125-0.6875 0.51953-0.45703 0.78125-1.0938 0.78125-1.9062s-0.26172-1.4414-0.78125-1.8906c-0.51172-0.45703-1.2188-0.6875-2.125-0.6875-0.91797 0-1.6328 0.23047-2.1406 0.6875-0.51172 0.44922-0.76562 1.0781-0.76562 1.8906z"/>
</symbol>
<symbol id="am" overflow="visible">
<path d="m-15.703-1.9688v-6.7188c0-2 0.44922-3.5312 1.3438-4.5938 0.88672-1.0703 2.1484-1.6094 3.7812-1.6094 1.6484 0 2.9141 0.53906 3.7969 1.6094 0.88672 1.0625 1.3281 2.5938 1.3281 4.5938v2.6562h5.4531v4.0625zm2.9375-4.0625h4.3906v-2.2344c0-0.78125-0.19141-1.3828-0.57812-1.8125-0.38281-0.42578-0.92578-0.64062-1.625-0.64062-0.69531 0-1.2344 0.21484-1.6094 0.64062-0.38281 0.42969-0.57812 1.0312-0.57812 1.8125z"/>
</symbol>
<symbol id="b" overflow="visible">
<path d="m-5.9219-13.562h1.0781v8.7969c0.88672-0.09375 1.5469-0.41016 1.9844-0.95312 0.4375-0.55078 0.65625-1.3164 0.65625-2.2969 0-0.78906-0.11328-1.5977-0.34375-2.4219-0.23828-0.83203-0.59375-1.6875-1.0625-2.5625h2.8906c0.34375 0.88672 0.60156 1.7773 0.76562 2.6719 0.17578 0.88672 0.26562 1.7734 0.26562 2.6562 0 2.1367-0.53906 3.7969-1.625 4.9844-1.082 1.1797-2.6016 1.7656-4.5625 1.7656-1.9141 0-3.4258-0.57812-4.5312-1.7344-1.1016-1.1641-1.6562-2.7656-1.6562-4.7969 0-1.8516 0.55859-3.332 1.6719-4.4375 1.1172-1.1133 2.6055-1.6719 4.4688-1.6719zm-1.25 3.875c-0.71875 0-1.2969 0.21094-1.7344 0.625-0.4375 0.41797-0.65625 0.96094-0.65625 1.625 0 0.73047 0.21094 1.3242 0.625 1.7812 0.40625 0.46094 0.99609 0.74609 1.7656 0.85938z"/>
</symbol>
<symbol id="j" overflow="visible">
<path d="m-8.5625-10.562c-0.15625 0.33594-0.26953 0.66797-0.34375 1-0.070312 0.32422-0.10938 0.64844-0.10938 0.96875 0 0.96875 0.3125 1.7148 0.9375 2.2344 0.61719 0.52344 1.5 0.78125 2.6562 0.78125h5.4219v3.7656h-11.781v-3.7656h1.9375c-0.76953-0.47656-1.332-1.0312-1.6875-1.6562-0.35156-0.625-0.53125-1.3789-0.53125-2.2656 0-0.125 0.007812-0.25781 0.015625-0.40625 0.011719-0.14453 0.039063-0.35938 0.078125-0.64062z"/>
</symbol>
<symbol id="ad" overflow="visible">
<path d="m-11.406-11h2.8594c-0.33203 0.80469-0.58203 1.5781-0.75 2.3281-0.17578 0.75-0.26562 1.4609-0.26562 2.125 0 0.71094 0.09375 1.2422 0.28125 1.5938 0.17969 0.34375 0.44922 0.51562 0.8125 0.51562 0.30469 0 0.53906-0.12891 0.70312-0.39062 0.15625-0.25781 0.27734-0.73438 0.35938-1.4219l0.09375-0.65625c0.24219-1.9258 0.64062-3.2227 1.2031-3.8906 0.5625-0.66406 1.4453-1 2.6406-1 1.25 0 2.1953 0.46484 2.8281 1.3906 0.63672 0.92969 0.95312 2.3086 0.95312 4.1406 0 0.78125-0.0625 1.5898-0.1875 2.4219-0.125 0.82422-0.3125 1.6719-0.5625 2.5469h-2.8594c0.36719-0.75 0.64062-1.5156 0.82812-2.2969 0.17969-0.78906 0.26562-1.5938 0.26562-2.4062 0-0.73828-0.097656-1.2891-0.29688-1.6562-0.20703-0.375-0.50781-0.5625-0.90625-0.5625-0.33203 0-0.58203 0.13281-0.75 0.39062-0.16406 0.25-0.29688 0.75781-0.39062 1.5156l-0.078125 0.67188c-0.20703 1.668-0.59375 2.8398-1.1562 3.5156-0.57031 0.67969-1.4375 1.0156-2.5938 1.0156-1.25 0-2.1758-0.42578-2.7812-1.2812-0.60156-0.85156-0.90625-2.1641-0.90625-3.9375 0-0.69531 0.054688-1.4258 0.15625-2.1875 0.10547-0.75781 0.27344-1.5859 0.5-2.4844z"/>
</symbol>
<symbol id="ac" overflow="visible">
<path d="m-9.375-7.4062c0 0.83594 0.30469 1.4688 0.90625 1.9062 0.60547 0.4375 1.4688 0.65625 2.5938 0.65625s1.9922-0.21875 2.5938-0.65625c0.59375-0.4375 0.89062-1.0703 0.89062-1.9062 0-0.82031-0.29688-1.4531-0.89062-1.8906-0.60156-0.4375-1.4688-0.65625-2.5938-0.65625s-1.9883 0.21875-2.5938 0.65625c-0.60156 0.4375-0.90625 1.0703-0.90625 1.8906zm-2.6875 0c0-2.0312 0.54688-3.6133 1.6406-4.75 1.0938-1.1328 2.6094-1.7031 4.5469-1.7031s3.4531 0.57031 4.5469 1.7031c1.0938 1.1367 1.6406 2.7188 1.6406 4.75s-0.54688 3.6211-1.6406 4.7656c-1.0938 1.1484-2.6094 1.7188-4.5469 1.7188s-3.4531-0.57031-4.5469-1.7188c-1.0938-1.1445-1.6406-2.7344-1.6406-4.7656z"/>
</symbol>
<symbol id="e" overflow="visible">
<path d="m-7.1719-13.641h7.1719v3.7812h-5.4844c-1.0195 0-1.7227 0.027344-2.1094 0.078125-0.38281 0.042969-0.66406 0.11719-0.84375 0.21875-0.25 0.15625-0.44141 0.35938-0.57812 0.60938-0.13281 0.25-0.20312 0.53906-0.20312 0.85938 0 0.78125 0.30469 1.3984 0.90625 1.8438 0.60547 0.44922 1.4453 0.67188 2.5156 0.67188h5.7969v3.7656h-11.781v-3.7656h1.7344c-0.6875-0.5625-1.1914-1.1602-1.5156-1.7969-0.33203-0.64453-0.5-1.3516-0.5-2.125 0-1.3516 0.41797-2.3789 1.25-3.0781 0.83594-0.70703 2.0469-1.0625 3.6406-1.0625z"/>
</symbol>
<symbol id="a" overflow="visible"></symbol>
<symbol id="i" overflow="visible">
<path d="m-9.8125-12.719c-0.72656-0.47656-1.2852-1.0469-1.6719-1.7031-0.38281-0.65625-0.57812-1.375-0.57812-2.1562 0-1.3516 0.41797-2.3828 1.25-3.0938 0.83594-0.70703 2.0469-1.0625 3.6406-1.0625h7.1719v3.7812h-6.1406-0.28125c-0.10156-0.007813-0.24219-0.015625-0.42188-0.015625-0.83203 0-1.4375 0.125-1.8125 0.375-0.375 0.24219-0.5625 0.63672-0.5625 1.1875 0 0.71094 0.29688 1.2617 0.89062 1.6562 0.58594 0.38672 1.4336 0.58594 2.5469 0.59375h5.7812v3.7812h-6.1406c-1.3008 0-2.1406 0.11719-2.5156 0.34375-0.375 0.23047-0.5625 0.63281-0.5625 1.2031 0 0.71875 0.29688 1.2773 0.89062 1.6719 0.59375 0.38672 1.4375 0.57812 2.5312 0.57812h5.7969v3.7969h-11.781v-3.7969h1.7344c-0.66406-0.45703-1.1641-0.98438-1.5-1.5781-0.34375-0.60156-0.51562-1.2656-0.51562-1.9844 0-0.8125 0.19922-1.5312 0.59375-2.1562 0.39844-0.625 0.94922-1.0977 1.6562-1.4219z"/>
</symbol>
<symbol id="d" overflow="visible">
<path d="m-11.781-1.8125v-3.7656h11.781v3.7656zm-4.5781 0v-3.7656h3.0781v3.7656z"/>
</symbol>
<symbol id="p" overflow="visible">
<path d="m-15.125-5.9219h3.3438v-3.875h2.7031v3.875h4.9844c0.55469 0 0.92969-0.10938 1.125-0.32812 0.1875-0.21875 0.28125-0.64453 0.28125-1.2812v-1.9375h2.6875v3.2188c0 1.4922-0.30469 2.5469-0.92188 3.1719-0.625 0.61719-1.6797 0.92188-3.1719 0.92188h-4.9844v1.875h-2.7031v-1.875h-3.3438z"/>
</symbol>
<symbol id="o" overflow="visible">
<path d="m-2.8594-11.5v6.3281l2.8594 1v4.0625l-15.703-5.8125v-4.8281l15.703-5.8125v4.0781zm-2.9062 5.3125v-4.2969l-6.25 2.1406z"/>
</symbol>
<symbol id="al" overflow="visible">
<path d="m-16.359-1.8125v-3.7656h16.359v3.7656z"/>
</symbol>
<symbol id="ak" overflow="visible">
<path d="m-11.781-1.2344v-10.266h2.6406l6.4531 6.2031v-6.2031h2.6875v10.531h-2.625l-6.4531-6.2031v5.9375z"/>
</symbol>
<symbol id="n" overflow="visible">
<path d="m-7.1719-13.641h7.1719v3.7812h-5.4688c-1.0312 0-1.7383 0.027344-2.125 0.078125-0.38281 0.042969-0.66406 0.11719-0.84375 0.21875-0.25 0.15625-0.44141 0.35938-0.57812 0.60938-0.13281 0.25-0.20312 0.53906-0.20312 0.85938 0 0.78125 0.30469 1.3984 0.90625 1.8438 0.60547 0.44922 1.4453 0.67188 2.5156 0.67188h5.7969v3.7656h-16.359v-3.7656h6.3125c-0.6875-0.5625-1.1914-1.1602-1.5156-1.7969-0.33203-0.64453-0.5-1.3516-0.5-2.125 0-1.3516 0.41797-2.3789 1.25-3.0781 0.83594-0.70703 2.0469-1.0625 3.6406-1.0625z"/>
</symbol>
<symbol id="aj" overflow="visible">
<path d="m-15.703-1.9688v-4.0625h5.7344l-5.7344-5.8281v-4.7031l7.4375 7.5625 8.2656-8.3438v5.0781l-6.1875 6.2344h6.1875v4.0625z"/>
</symbol>
<symbol id="ai" overflow="visible">
<path d="m-5.2969-7.0938c0 0.79297 0.13672 1.3867 0.40625 1.7812 0.26172 0.39844 0.65234 0.59375 1.1719 0.59375 0.48047 0 0.85547-0.15625 1.125-0.46875 0.26172-0.32031 0.39062-0.76953 0.39062-1.3438 0-0.70703-0.25-1.3008-0.75-1.7812-0.50781-0.48828-1.1484-0.73438-1.9219-0.73438h-0.42188zm-1.4219-5.75h6.7188v3.7969h-1.75c0.71875 0.51172 1.2461 1.0859 1.5781 1.7188 0.32031 0.625 0.48438 1.3906 0.48438 2.2969 0 1.2188-0.35156 2.2109-1.0625 2.9688-0.71875 0.76172-1.6445 1.1406-2.7812 1.1406-1.3828 0-2.3945-0.47266-3.0312-1.4219-0.64453-0.95703-0.96875-2.4531-0.96875-4.4844v-2.2188h-0.29688c-0.59375 0-1.0312 0.24219-1.3125 0.71875-0.28125 0.46875-0.42188 1.1992-0.42188 2.1875 0 0.80469 0.085938 1.5547 0.25 2.25 0.15625 0.69922 0.39844 1.3438 0.71875 1.9375h-2.8594c-0.19531-0.8125-0.34766-1.625-0.45312-2.4375-0.10156-0.8125-0.15625-1.625-0.15625-2.4375 0-2.125 0.42188-3.6562 1.2656-4.5938 0.83594-0.94531 2.1953-1.4219 4.0781-1.4219z"/>
</symbol>
<symbol id="ah" overflow="visible">
<path d="m-16.359-1.8125v-3.7656h8.9062l-4.3281-4.3281v-4.375l5.4062 5.75 6.375-6.2031v4.5625l-4.9062 4.5938h4.9062v3.7656z"/>
</symbol>
<symbol id="ag" overflow="visible">
<path d="m-10.047-9.8125h-6.3125v-3.7969h16.359v3.7969h-1.7031c0.69922 0.51172 1.2109 1.0781 1.5312 1.7031s0.48438 1.3516 0.48438 2.1719c0 1.4492-0.57812 2.6406-1.7344 3.5781-1.1562 0.92969-2.6406 1.3906-4.4531 1.3906s-3.2969-0.46094-4.4531-1.3906c-1.1562-0.9375-1.7344-2.1289-1.7344-3.5781 0-0.8125 0.16797-1.5312 0.5-2.1562 0.32422-0.63281 0.82812-1.207 1.5156-1.7188zm7.625 2.4688c0-0.80078-0.28906-1.4102-0.875-1.8281-0.59375-0.42578-1.4531-0.64062-2.5781-0.64062s-1.9766 0.21484-2.5625 0.64062c-0.59375 0.41797-0.89062 1.0273-0.89062 1.8281 0 0.80469 0.29688 1.418 0.89062 1.8438 0.58594 0.41797 1.4375 0.625 2.5625 0.625s1.9844-0.20703 2.5781-0.625c0.58594-0.42578 0.875-1.0391 0.875-1.8438z"/>
</symbol>
<symbol id="af" overflow="visible">
<path d="m-15.703-1.9688v-4.0625h9.4219c1.293 0 2.2188-0.20703 2.7812-0.625 0.55469-0.42578 0.82812-1.1172 0.82812-2.0781 0-0.96875-0.27344-1.6602-0.82812-2.0781-0.5625-0.42578-1.4883-0.64062-2.7812-0.64062h-9.4219v-4.0469h9.4219c2.2188 0 3.875 0.55859 4.9688 1.6719 1.0859 1.1172 1.625 2.8125 1.625 5.0938s-0.53906 3.9805-1.625 5.0938c-1.0938 1.1172-2.75 1.6719-4.9688 1.6719z"/>
</symbol>
<symbol id="ae" overflow="visible">
<path d="m-15.203-12.906h3.3281c-0.38281 0.86719-0.67578 1.7109-0.875 2.5312-0.19531 0.82422-0.29688 1.6016-0.29688 2.3281 0 0.96094 0.13672 1.6719 0.40625 2.1406 0.26172 0.46094 0.67188 0.6875 1.2344 0.6875 0.41797 0 0.74609-0.15625 0.98438-0.46875 0.23047-0.3125 0.43359-0.875 0.60938-1.6875l0.34375-1.7344c0.34375-1.7383 0.875-2.9766 1.5938-3.7188 0.71875-0.73828 1.7344-1.1094 3.0469-1.1094 1.7305 0 3.0234 0.51562 3.875 1.5469 0.84375 1.0312 1.2656 2.6016 1.2656 4.7031 0 1-0.10156 2-0.29688 3-0.1875 1-0.46094 2-0.82812 3h-3.4219c0.53125-1 0.93359-1.9688 1.2031-2.9062 0.27344-0.9375 0.40625-1.8359 0.40625-2.7031 0-0.88281-0.14453-1.5625-0.4375-2.0312-0.30078-0.46875-0.72266-0.70312-1.2656-0.70312-0.48828 0-0.86328 0.16406-1.125 0.48438-0.26953 0.3125-0.51562 0.94922-0.73438 1.9062l-0.34375 1.5625c-0.33203 1.5742-0.86328 2.7266-1.5938 3.4531-0.73828 0.71875-1.7344 1.0781-2.9844 1.0781-1.5625 0-2.7656-0.50391-3.6094-1.5156-0.84375-1.0078-1.2656-2.457-1.2656-4.3438 0-0.86328 0.070313-1.75 0.20312-2.6562 0.125-0.91406 0.32031-1.8633 0.57812-2.8438z"/>
</symbol>
<symbol id="ab" overflow="visible">
<path d="m-16.359-1.8438v-4.4688h1.5v2.5312h16.188v-2.5312h1.5156v4.4688z"/>
</symbol>
<symbol id="h" overflow="visible">
<path d="m-11.781-2.0312v-1.9375h11.781v1.9375zm-4.5781 0v-1.9375h2.4531v1.9375z"/>
</symbol>
<symbol id="g" overflow="visible">
<path d="m-7.1094-11.812h7.1094v1.9375h-7.0469c-1.1133 0-1.9453 0.21875-2.5 0.65625-0.55078 0.42969-0.82812 1.0742-0.82812 1.9375 0 1.0547 0.33594 1.8828 1 2.4844 0.66797 0.59375 1.5742 0.89062 2.7188 0.89062h6.6562v1.9531h-11.781v-1.9531h1.8281c-0.69531-0.45703-1.2227-1-1.5781-1.625-0.35156-0.625-0.53125-1.3477-0.53125-2.1719 0-1.3516 0.42188-2.375 1.2656-3.0625 0.83594-0.69531 2.0625-1.0469 3.6875-1.0469z"/>
</symbol>
<symbol id="aa" overflow="visible"></symbol>
<symbol id="z" overflow="visible">
<path d="m-15.703-2.1094v-3.1719l10.688-4-10.688-4.0312v-3.1562h15.703v2.0625h-13.781l10.766 4.0469v2.1406l-10.766 4.0469h13.781v2.0625z"/>
</symbol>
<symbol id="m" overflow="visible">
<path d="m-16.359-2.0312v-1.9375h16.359v1.9375z"/>
</symbol>
<symbol id="y" overflow="visible">
<path d="m-10.422-6.5938c0 1.043 0.40625 1.8672 1.2188 2.4688 0.8125 0.59375 1.9219 0.89062 3.3281 0.89062s2.5156-0.29688 3.3281-0.89062c0.8125-0.60156 1.2188-1.4258 1.2188-2.4688 0-1.0312-0.40625-1.8477-1.2188-2.4531-0.82031-0.60156-1.9297-0.90625-3.3281-0.90625-1.3945 0-2.5 0.30469-3.3125 0.90625-0.82031 0.60547-1.2344 1.4219-1.2344 2.4531zm-1.6406 0c0-1.6758 0.54688-2.9922 1.6406-3.9531 1.0938-0.96875 2.6094-1.4531 4.5469-1.4531 1.9297 0 3.4453 0.48438 4.5469 1.4531 1.0938 0.96094 1.6406 2.2773 1.6406 3.9531 0 1.6875-0.54688 3.0117-1.6406 3.9688-1.1016 0.96094-2.6172 1.4375-4.5469 1.4375-1.9375 0-3.4531-0.47656-4.5469-1.4375-1.0938-0.95703-1.6406-2.2812-1.6406-3.9688z"/>
</symbol>
<symbol id="x" overflow="visible">
<path d="m-6.375-12.094h0.95312v8.8906c1.3359-0.082031 2.3516-0.48438 3.0469-1.2031 0.69922-0.71875 1.0469-1.7188 1.0469-3 0-0.75-0.085937-1.4727-0.26562-2.1719-0.1875-0.69531-0.46094-1.3906-0.82812-2.0781h1.8281c0.29297 0.69922 0.51562 1.4141 0.67188 2.1406 0.15625 0.73047 0.23438 1.4688 0.23438 2.2188 0 1.875-0.54688 3.3672-1.6406 4.4688-1.0938 1.0938-2.5703 1.6406-4.4375 1.6406-1.9258 0-3.457-0.51953-4.5938-1.5625-1.1328-1.0391-1.7031-2.4414-1.7031-4.2031 0-1.582 0.51172-2.832 1.5312-3.75 1.0234-0.92578 2.4062-1.3906 4.1562-1.3906zm-0.5625 1.9219c-1.0625 0.023437-1.9062 0.32422-2.5312 0.90625-0.63281 0.57422-0.95312 1.3359-0.95312 2.2812 0 1.0859 0.30859 1.9492 0.92188 2.5938 0.60547 0.64844 1.4648 1.0234 2.5781 1.125z"/>
</symbol>
<symbol id="w" overflow="visible">
<path d="m-16.359-6.5469h19.203v4.4531h-1.5156v-2.5156h-16.188v2.5156h-1.5z"/>
</symbol>
</defs>
<path transform="matrix(2.6907 0 0 2.6918 11.029 6.9805)" d="m285.09 156.62h-236.04" fill="none" stroke="#000" stroke-width=".5"/>
<path transform="matrix(2.6907 0 0 2.6918 11.029 6.9805)" d="m51.274 8.1599v150.88" fill="none" stroke="#000" stroke-width=".5"/>
<path transform="matrix(2.6907 0 0 2.6918 11.029 6.9805)" d="m51.274 8.1599h233.81v148.38h-233.81z" fill="none" stroke="#000" stroke-width="1.5"/>
<path transform="matrix(2.6907 0 0 2.6918 11.029 6.9805)" d="m109.73 156.62v2.422" fill="none" stroke="#000" stroke-width=".5"/>
<path transform="matrix(2.6907 0 0 2.6918 11.029 6.9805)" d="m285.09 138.06h-236.04" fill="none" stroke="#000" stroke-width=".5"/>
<path transform="matrix(2.6907 0 0 2.6918 11.029 6.9805)" d="m285.09 119.5h-236.04" fill="none" stroke="#000" stroke-width=".5"/>
<path transform="matrix(2.6907 0 0 2.6918 11.029 6.9805)" d="m285.09 100.94h-236.04" fill="none" stroke="#000" stroke-width=".5"/>
<path transform="matrix(2.6907 0 0 2.6918 11.029 6.9805)" d="m285.09 82.387h-236.04" fill="none" stroke="#000" stroke-width=".5"/>
<path transform="matrix(2.6907 0 0 2.6918 11.029 6.9805)" d="m285.09 63.831h-236.04" fill="none" stroke="#000" stroke-width=".5"/>
<path transform="matrix(2.6907 0 0 2.6918 11.029 6.9805)" d="m285.09 45.273h-236.04" fill="none" stroke="#000" stroke-width=".5"/>
<path transform="matrix(2.6907 0 0 2.6918 11.029 6.9805)" d="m285.09 26.717h-236.04" fill="none" stroke="#000" stroke-width=".5"/>
<path transform="matrix(2.6907 0 0 2.6918 11.029 6.9805)" d="m285.09 8.1599v150.88" fill="none" stroke="#000" stroke-width=".5"/>
<path transform="matrix(2.6907 0 0 2.6918 11.029 6.9805)" d="m168.18 156.62v2.422" fill="none" stroke="#000" stroke-width=".5"/>
<path transform="matrix(2.6907 0 0 2.6918 11.029 6.9805)" d="m226.63 156.62v2.422" fill="none" stroke="#000" stroke-width=".5"/>
<path transform="matrix(2.6907 0 0 2.6918 11.029 6.9805)" d="m285.09 8.1599h-236.04" fill="none" stroke="#000" stroke-width=".5"/>
<g>
<use x="196.976562" y="474.852025" xlink:href="#v"/>
<use x="213.120862" y="474.852025" xlink:href="#u"/>
<use x="229.265162" y="474.852025" xlink:href="#l"/>
<use x="245.409462" y="474.852025" xlink:href="#c"/>
</g>
<g>
<use x="354.496094" y="474.852025" xlink:href="#v"/>
<use x="370.640394" y="474.852025" xlink:href="#u"/>
<use x="386.784694" y="474.852025" xlink:href="#ao"/>
<use x="402.928994" y="474.852025" xlink:href="#l"/>
</g>
<g>
<use x="512.324219" y="474.852025" xlink:href="#k"/>
<use x="528.468519" y="474.852025" xlink:href="#c"/>
<use x="544.612819" y="474.852025" xlink:href="#c"/>
<use x="560.757119" y="474.852025" xlink:href="#k"/>
</g>
<g>
<use x="669.183594" y="474.852025" xlink:href="#k"/>
<use x="685.327894" y="474.852025" xlink:href="#c"/>
<use x="701.472194" y="474.852025" xlink:href="#l"/>
<use x="717.616494" y="474.852025" xlink:href="#c"/>
</g>
<g>
<use x="93.5" y="134.727025" xlink:href="#f"/>
<use x="106.953583" y="134.727025" xlink:href="#t"/>
</g>
<g>
<use x="106.394531" y="284.582494" xlink:href="#s"/>
</g>
<g>
<use x="106.25" y="334.531713" xlink:href="#r"/>
</g>
<g>
<use x="107.195312" y="384.484838" xlink:href="#t"/>
</g>
<g>
<use x="106.46875" y="434.437963" xlink:href="#q"/>
</g>
<g>
<use x="106.511719" y="234.629369" xlink:href="#an"/>
</g>
<g>
<use x="92.773438" y="184.68015" xlink:href="#f"/>
<use x="106.227021" y="184.68015" xlink:href="#q"/>
</g>
<g>
<use x="92.554688" y="84.777807" xlink:href="#f"/>
<use x="106.008271" y="84.777807" xlink:href="#r"/>
</g>
<g>
<use x="92.699219" y="34.824682" xlink:href="#f"/>
<use x="106.152802" y="34.824682" xlink:href="#s"/>
</g>
<g>
<use x="36.218955" y="438.003906" xlink:href="#am"/>
<use x="36.218955" y="421.853085" xlink:href="#b"/>
<use x="36.218955" y="408.394067" xlink:href="#j"/>
<use x="36.218955" y="397.626853" xlink:href="#ad"/>
<use x="36.218955" y="384.167836" xlink:href="#ac"/>
<use x="36.218955" y="370.708818" xlink:href="#e"/>
<use x="36.218955" y="354.557997" xlink:href="#b"/>
<use x="36.218955" y="341.098979" xlink:href="#e"/>
<use x="36.218955" y="324.948158" xlink:href="#a"/>
<use x="36.218955" y="316.872748" xlink:href="#i"/>
<use x="36.218955" y="295.338319" xlink:href="#d"/>
<use x="36.218955" y="287.262909" xlink:href="#p"/>
<use x="36.218955" y="276.495695" xlink:href="#a"/>
<use x="36.218955" y="268.420284" xlink:href="#o"/>
<use x="36.218955" y="252.269463" xlink:href="#al"/>
<use x="36.218955" y="244.194052" xlink:href="#ak"/>
<use x="36.218955" y="230.735035" xlink:href="#n"/>
<use x="36.218955" y="214.584214" xlink:href="#b"/>
<use x="36.218955" y="201.125196" xlink:href="#d"/>
<use x="36.218955" y="193.049785" xlink:href="#i"/>
<use x="36.218955" y="171.515357" xlink:href="#b"/>
<use x="36.218955" y="158.05634" xlink:href="#j"/>
<use x="36.218955" y="147.289125" xlink:href="#a"/>
<use x="36.218955" y="139.213715" xlink:href="#aj"/>
<use x="36.218955" y="123.062894" xlink:href="#j"/>
<use x="36.218955" y="112.29568" xlink:href="#ai"/>
<use x="36.218955" y="98.836662" xlink:href="#e"/>
<use x="36.218955" y="82.685841" xlink:href="#ah"/>
<use x="36.218955" y="69.226823" xlink:href="#n"/>
<use x="36.218955" y="53.076002" xlink:href="#b"/>
<use x="36.218955" y="39.616984" xlink:href="#d"/>
<use x="36.218955" y="31.541574" xlink:href="#p"/>
</g>
<g>
<use x="63.129111" y="372.054687" xlink:href="#d"/>
<use x="63.129111" y="363.979277" xlink:href="#i"/>
<use x="63.129111" y="342.444849" xlink:href="#a"/>
<use x="63.129111" y="334.369438" xlink:href="#ag"/>
<use x="63.129111" y="318.218617" xlink:href="#b"/>
<use x="63.129111" y="304.759599" xlink:href="#e"/>
<use x="63.129111" y="288.608778" xlink:href="#a"/>
<use x="63.129111" y="280.533368" xlink:href="#af"/>
<use x="63.129111" y="264.382546" xlink:href="#ae"/>
<use x="63.129111" y="248.231725" xlink:href="#o"/>
<use x="63.129111" y="232.080904" xlink:href="#a"/>
</g>
<g>
<use x="63.129111" y="224.003906" xlink:href="#ab"/>
<use x="63.129111" y="215.928496" xlink:href="#h"/>
<use x="63.129111" y="210.544889" xlink:href="#g"/>
<use x="63.129111" y="197.085871" xlink:href="#aa"/>
<use x="63.129111" y="189.01046" xlink:href="#z"/>
<use x="63.129111" y="170.167836" xlink:href="#h"/>
<use x="63.129111" y="164.784229" xlink:href="#m"/>
<use x="63.129111" y="159.400622" xlink:href="#m"/>
<use x="63.129111" y="154.017015" xlink:href="#h"/>
<use x="63.129111" y="148.633408" xlink:href="#y"/>
<use x="63.129111" y="135.17439" xlink:href="#g"/>
<use x="63.129111" y="121.715372" xlink:href="#x"/>
<use x="63.129111" y="108.256355" xlink:href="#g"/>
<use x="63.129111" y="94.797337" xlink:href="#w"/>
</g>
<path transform="matrix(2.6907 0 0 2.6918 11.029 6.9805)" d="m68.956 155h23.087v1.618h-23.087z" fill="#333" stroke="#000" stroke-width=".75"/>
<path transform="matrix(2.6907 0 0 2.6918 11.029 6.9805)" d="m127.41 151.91h23.089v4.7047h-23.089z" fill="#333" stroke="#000" stroke-width=".75"/>
<path transform="matrix(2.6907 0 0 2.6918 11.029 6.9805)" d="m185.86 119.56h23.089v37.051h-23.089z" fill="#333" stroke="#000" stroke-width=".75"/>
<path transform="matrix(2.6907 0 0 2.6918 11.029 6.9805)" d="m244.32 17.292h23.089v139.32h-23.089z" fill="#333" stroke="#000" stroke-width=".75"/>
</svg>
