<?xml version="1.0" encoding="UTF-8"?>
<svg width="800px" height="703px" version="1.1" viewBox="0 0 800 703" xmlns="http://www.w3.org/2000/svg" xmlns:xlink="http://www.w3.org/1999/xlink">
<defs>
<symbol id="ai" overflow="visible">
<path d="m23.828-5.9219h-13.109l-2.0781 5.9219h-8.4219l12.047-32.516h10l12.047 32.516h-8.4375zm-11.016-6.0312h8.9062l-4.4531-12.938z"/>
</symbol>
<symbol id="af" overflow="visible">
<path d="m3.75-33.891h7.7969v33.891h-7.7969z"/>
</symbol>
<symbol id="ae" overflow="visible">
<path d="m12.266-31.328v6.9375h8.0312v5.5781h-8.0312v10.344c0 1.125 0.22266 1.8906 0.67188 2.2969 0.44531 0.39844 1.3438 0.59375 2.6875 0.59375h4v5.5781h-6.6875c-3.0742 0-5.2578-0.64062-6.5469-1.9219-1.2812-1.2891-1.9219-3.4727-1.9219-6.5469v-10.344h-3.875v-5.5781h3.875v-6.9375z"/>
</symbol>
<symbol id="m" overflow="visible">
<path d="m28.094-12.266v2.2188h-18.219c0.1875 1.8359 0.84375 3.2109 1.9688 4.125 1.1328 0.91797 2.7188 1.375 4.75 1.375 1.6445 0 3.3281-0.24219 5.0469-0.73438 1.7188-0.48828 3.4844-1.2266 5.2969-2.2188v6.0156c-1.8438 0.69922-3.6875 1.2266-5.5312 1.5781s-3.6875 0.53125-5.5312 0.53125c-4.418 0-7.8516-1.1172-10.297-3.3594-2.4375-2.2383-3.6562-5.3828-3.6562-9.4375 0-3.9766 1.1953-7.1094 3.5938-9.3906 2.4062-2.2812 5.7109-3.4219 9.9219-3.4219 3.832 0 6.8984 1.1562 9.2031 3.4688 2.3008 2.3047 3.4531 5.3867 3.4531 9.25zm-8.0156-2.5938c0-1.4766-0.43359-2.6719-1.2969-3.5781-0.86719-0.90625-1.9922-1.3594-3.375-1.3594-1.5117 0-2.7422 0.42969-3.6875 1.2812-0.94922 0.84375-1.5391 2.0625-1.7656 3.6562z"/>
</symbol>
<symbol id="l" overflow="visible">
<path d="m21.875-17.75c-0.6875-0.32031-1.3711-0.55469-2.0469-0.70312-0.67969-0.15625-1.3555-0.23438-2.0312-0.23438-2 0-3.543 0.64844-4.625 1.9375-1.0859 1.2812-1.625 3.1211-1.625 5.5156v11.234h-7.7969v-24.391h7.7969v4c1-1.5938 2.1484-2.7539 3.4531-3.4844 1.3008-0.73828 2.8594-1.1094 4.6719-1.1094 0.25781 0 0.53906 0.011719 0.84375 0.03125 0.30078 0.023437 0.74219 0.070313 1.3281 0.14062z"/>
</symbol>
<symbol id="k" overflow="visible"></symbol>
<symbol id="ad" overflow="visible">
<path d="m3.75-24.391h7.7969v24.391h-7.7969zm0-9.5h7.7969v6.3594h-7.7969z"/>
</symbol>
<symbol id="j" overflow="visible">
<path d="m28.266-14.859v14.859h-7.8281v-11.375c0-2.1016-0.054688-3.5508-0.15625-4.3438-0.09375-0.80078-0.25781-1.3906-0.48438-1.7656-0.30469-0.50781-0.71484-0.90625-1.2344-1.1875-0.52344-0.28906-1.1211-0.4375-1.7969-0.4375-1.625 0-2.9023 0.63281-3.8281 1.8906-0.92969 1.2617-1.3906 3-1.3906 5.2188v12h-7.7969v-24.391h7.7969v3.5625c1.1758-1.4141 2.4219-2.4609 3.7344-3.1406 1.3203-0.67578 2.7852-1.0156 4.3906-1.0156 2.8125 0 4.9453 0.86719 6.4062 2.5938 1.457 1.7305 2.1875 4.2422 2.1875 7.5312z"/>
</symbol>
<symbol id="ac" overflow="visible">
<path d="m4.0938-32.516h8.3906v29.359c0 4.0508-1.1055 7.0781-3.3125 9.0781-2.1992 2.0078-5.5273 3.0156-9.9844 3.0156h-1.6875v-6.3438h1.2969c1.75 0 3.0664-0.49219 3.9531-1.4688 0.89453-0.96875 1.3438-2.3945 1.3438-4.2812z"/>
</symbol>
<symbol id="ah" overflow="visible">
<path d="m14.688-10.984c-1.6367 0-2.8672 0.27734-3.6875 0.82812-0.8125 0.55469-1.2188 1.3711-1.2188 2.4531 0 0.98047 0.32812 1.75 0.98438 2.3125 0.66406 0.5625 1.5859 0.84375 2.7656 0.84375 1.457 0 2.6875-0.52344 3.6875-1.5781 1.0078-1.0508 1.5156-2.3672 1.5156-3.9531v-0.90625zm11.906-2.9375v13.922h-7.8594v-3.6094c-1.043 1.4805-2.2188 2.5586-3.5312 3.2344-1.3047 0.66406-2.8906 1-4.7656 1-2.5312 0-4.5859-0.73438-6.1562-2.2031-1.5742-1.4766-2.3594-3.3906-2.3594-5.7344 0-2.8633 0.97656-4.9609 2.9375-6.2969 1.9688-1.3438 5.0625-2.0156 9.2812-2.0156h4.5938v-0.60938c0-1.2266-0.49219-2.1289-1.4688-2.7031-0.96875-0.57031-2.4844-0.85938-4.5469-0.85938-1.668 0-3.2188 0.16797-4.6562 0.5-1.4375 0.33594-2.7773 0.83594-4.0156 1.5v-5.9531c1.6758-0.40625 3.3516-0.71094 5.0312-0.92188 1.6875-0.20703 3.375-0.3125 5.0625-0.3125 4.3945 0 7.5664 0.87109 9.5156 2.6094 1.957 1.7305 2.9375 4.5469 2.9375 8.4531z"/>
</symbol>
<symbol id="ag" overflow="visible">
<path d="m28.266-14.859v14.859h-7.8281v-11.328c0-2.1328-0.054688-3.5977-0.15625-4.3906-0.09375-0.80078-0.25781-1.3906-0.48438-1.7656-0.30469-0.50781-0.71484-0.90625-1.2344-1.1875-0.52344-0.28906-1.1211-0.4375-1.7969-0.4375-1.625 0-2.9023 0.63281-3.8281 1.8906-0.92969 1.2617-1.3906 3-1.3906 5.2188v12h-7.7969v-33.891h7.7969v13.062c1.1758-1.4141 2.4219-2.4609 3.7344-3.1406 1.3203-0.67578 2.7852-1.0156 4.3906-1.0156 2.8125 0 4.9453 0.86719 6.4062 2.5938 1.457 1.7305 2.1875 4.2422 2.1875 7.5312z"/>
</symbol>
<symbol id="ab" overflow="visible">
<path d="m-23.641-2.9844v-16.453h4.6094v10.359h4.3906v-9.75h4.6094v9.75h5.4219v-10.719h4.6094v16.812z"/>
</symbol>
<symbol id="d" overflow="visible">
<path d="m-10.797-20.562h10.797v5.7031h-8.2656c-1.5312 0-2.5859 0.039063-3.1719 0.10938-0.58203 0.0625-1.0078 0.17969-1.2812 0.34375-0.36328 0.21875-0.64844 0.52344-0.85938 0.90625-0.20703 0.375-0.3125 0.80859-0.3125 1.2969 0 1.1875 0.46094 2.1211 1.375 2.7969 0.90625 0.66797 2.168 1 3.7812 1h8.7344v5.6875h-17.734v-5.6875h2.5938c-1.0312-0.85156-1.7891-1.7578-2.2812-2.7188-0.5-0.95703-0.75-2.0195-0.75-3.1875 0-2.0508 0.63281-3.6016 1.8906-4.6562 1.2617-1.0625 3.0898-1.5938 5.4844-1.5938z"/>
</symbol>
<symbol id="w" overflow="visible">
<path d="m-22.781-8.9219h5.0469v-5.8438h4.0469v5.8438h7.5312c0.82422 0 1.3828-0.16016 1.6719-0.48438 0.28125-0.33203 0.42188-0.98438 0.42188-1.9531v-2.9219h4.0625v4.875c0 2.2422-0.46094 3.8281-1.3906 4.7656-0.9375 0.92969-2.5234 1.3906-4.7656 1.3906h-7.5312v2.8281h-4.0469v-2.8281h-5.0469z"/>
</symbol>
<symbol id="v" overflow="visible">
<path d="m-24.641-14.406h3.7188v3.1406c0 0.80469 0.14844 1.3672 0.4375 1.6875 0.29297 0.3125 0.79688 0.46875 1.5156 0.46875h1.2344v-4.8438h4.0469v4.8438h13.688v5.6719h-13.688v2.8125h-4.0469v-2.8125h-1.2344c-1.9375 0-3.3633-0.53516-4.2812-1.6094-0.92578-1.082-1.3906-2.7539-1.3906-5.0156z"/>
</symbol>
<symbol id="i" overflow="visible">
<path d="m-8.9219-20.438h1.625v13.266c1.3242-0.14453 2.3203-0.62891 2.9844-1.4531 0.66797-0.82031 1-1.9727 1-3.4531 0-1.1875-0.17578-2.4062-0.53125-3.6562-0.35156-1.2578-0.89062-2.5508-1.6094-3.875h4.375c0.51172 1.3438 0.89062 2.6875 1.1406 4.0312 0.25781 1.3438 0.39062 2.6875 0.39062 4.0312 0 3.2109-0.8125 5.7031-2.4375 7.4844-1.6328 1.7812-3.9258 2.6719-6.875 2.6719-2.8828 0-5.1562-0.875-6.8125-2.625-1.6641-1.75-2.5-4.1562-2.5-7.2188 0-2.7891 0.84375-5.0195 2.5312-6.6875 1.6797-1.6758 3.918-2.5156 6.7188-2.5156zm-1.875 5.8281c-1.082 0-1.9531 0.32031-2.6094 0.95312-0.65625 0.625-0.98438 1.4453-0.98438 2.4531 0 1.0938 0.30859 1.9844 0.92188 2.6719 0.61719 0.6875 1.5078 1.1211 2.6719 1.2969z"/>
</symbol>
<symbol id="u" overflow="visible">
<path d="m-12.906-15.906c-0.22656 0.49219-0.39844 0.98438-0.51562 1.4844-0.11328 0.49219-0.17188 0.98047-0.17188 1.4688 0 1.4609 0.46875 2.5859 1.4062 3.375 0.9375 0.78125 2.2773 1.1719 4.0156 1.1719h8.1719v5.6875h-17.734v-5.6875h2.9062c-1.1562-0.71875-2-1.5508-2.5312-2.5-0.53906-0.94531-0.8125-2.082-0.8125-3.4062 0-0.1875 0.011719-0.39062 0.03125-0.60938 0.011719-0.22656 0.042969-0.55078 0.09375-0.96875z"/>
</symbol>
<symbol id="h" overflow="visible">
<path d="m-6.9062-2.5312h-10.828v-5.7031h1.7656c0.96094 0 2.168 0.007813 3.625 0.015625 1.4492 0.011719 2.418 0.015625 2.9062 0.015625 1.4297 0 2.4531-0.035156 3.0781-0.10938 0.625-0.082031 1.0859-0.21094 1.375-0.39062 0.36719-0.22656 0.65234-0.53125 0.85938-0.90625 0.19922-0.375 0.29688-0.80469 0.29688-1.2969 0-1.1758-0.45312-2.1016-1.3594-2.7812-0.91406-0.67578-2.1797-1.0156-3.7969-1.0156h-8.75v-5.6719h17.734v5.6719h-2.5625c1.0312 0.85547 1.793 1.7617 2.2812 2.7188 0.48828 0.96094 0.73438 2.0117 0.73438 3.1562 0 2.0547-0.625 3.6172-1.875 4.6875-1.2578 1.0742-3.0859 1.6094-5.4844 1.6094z"/>
</symbol>
<symbol id="g" overflow="visible">
<path d="m-3.0156-14.797c1.043 0.78125 1.8086 1.6406 2.2969 2.5781 0.48047 0.9375 0.71875 2.0273 0.71875 3.2656 0 2.168-0.84766 3.9609-2.5469 5.375-1.707 1.418-3.8828 2.125-6.5312 2.125-2.6445 0-4.8164-0.70703-6.5156-2.125-1.6953-1.4141-2.5469-3.207-2.5469-5.375 0-1.2383 0.24609-2.3281 0.73438-3.2656 0.49219-0.9375 1.2578-1.7969 2.2969-2.5781h-2.625v-5.7031h15.938c2.8516 0 5.0312 0.90234 6.5312 2.7031 1.5078 1.8047 2.2656 4.4141 2.2656 7.8281 0 1.1172-0.085938 2.1875-0.25 3.2188-0.16797 1.0312-0.42969 2.0742-0.78125 3.125h-4.4219c0.57031-1 1-1.9727 1.2812-2.9219 0.28125-0.94531 0.42188-1.8984 0.42188-2.8594 0-1.8633-0.40625-3.2266-1.2188-4.0938-0.8125-0.86328-2.0859-1.2969-3.8281-1.2969zm-11.031 3.7344c0 1.1797 0.43359 2.0938 1.2969 2.75 0.86719 0.64844 2.0898 0.96875 3.6719 0.96875 1.625 0 2.8594-0.3125 3.7031-0.9375 0.83594-0.63281 1.25-1.5625 1.25-2.7812 0-1.1758-0.42969-2.0938-1.2969-2.75-0.86328-0.65625-2.082-0.98438-3.6562-0.98438-1.582 0-2.8047 0.32812-3.6719 0.98438-0.86328 0.65625-1.2969 1.5742-1.2969 2.75z"/>
</symbol>
<symbol id="c" overflow="visible"></symbol>
<symbol id="aa" overflow="visible">
<path d="m-17.734-0.48438v-5.6875l12.25-4.4062-12.25-4.4062v-5.6875l17.734 6.9844v6.2188z"/>
</symbol>
<symbol id="z" overflow="visible">
<path d="m-14.109-11.172c0 1.2617 0.45312 2.2188 1.3594 2.875 0.89844 0.65625 2.1953 0.98438 3.8906 0.98438 1.7109 0 3.0156-0.32812 3.9219-0.98438 0.89844-0.65625 1.3438-1.6133 1.3438-2.875 0-1.2383-0.44531-2.1797-1.3438-2.8281-0.90625-0.65625-2.2109-0.98438-3.9219-0.98438-1.6953 0-2.9922 0.32812-3.8906 0.98438-0.90625 0.64844-1.3594 1.5898-1.3594 2.8281zm-4.0625 0c0-3.0508 0.82812-5.4375 2.4844-7.1562 1.6484-1.7188 3.9219-2.5781 6.8281-2.5781 2.918 0 5.1992 0.85938 6.8438 2.5781 1.6484 1.7188 2.4688 4.1055 2.4688 7.1562 0 3.0625-0.82031 5.4609-2.4688 7.1875-1.6445 1.7305-3.9258 2.5938-6.8438 2.5938-2.9062 0-5.1797-0.86328-6.8281-2.5938-1.6562-1.7266-2.4844-4.125-2.4844-7.1875z"/>
</symbol>
<symbol id="y" overflow="visible">
<path d="m-14.797-19.172c-1.0938-0.71875-1.9258-1.5703-2.5-2.5625-0.58203-0.98828-0.875-2.0703-0.875-3.25 0-2.0391 0.63281-3.5938 1.8906-4.6562 1.2617-1.0703 3.0898-1.6094 5.4844-1.6094h10.797v5.7031h-9.25c-0.13281-0.007813-0.27344-0.015625-0.42188-0.015625-0.15625-0.007812-0.36719-0.015625-0.64062-0.015625-1.2578 0-2.1719 0.1875-2.7344 0.5625-0.5625 0.36719-0.84375 0.96094-0.84375 1.7812 0 1.0859 0.44531 1.918 1.3281 2.5 0.88672 0.58594 2.168 0.88672 3.8438 0.90625h8.7188v5.7031h-9.25c-1.9688 0-3.2344 0.17188-3.7969 0.51562-0.5625 0.33594-0.84375 0.93359-0.84375 1.7969 0 1.0938 0.44922 1.9375 1.3438 2.5312 0.88672 0.58594 2.1562 0.875 3.8125 0.875h8.7344v5.7188h-17.734v-5.7188h2.5938c-1-0.6875-1.7539-1.4844-2.2656-2.3906-0.50781-0.90625-0.76562-1.8984-0.76562-2.9844 0-1.2266 0.29688-2.3125 0.89062-3.25s1.4219-1.6484 2.4844-2.1406z"/>
</symbol>
<symbol id="x" overflow="visible">
<path d="m-4.3125-17.328v9.5312l4.3125 1.5v6.1406l-23.641-8.7656v-7.2656l23.641-8.7656v6.125zm-4.3906 8.0156v-6.4844l-9.4062 3.2344z"/>
</symbol>
<symbol id="t" overflow="visible">
<path d="m-24.641-2.7812v-6.7188h2.2656v3.7969h24.391v-3.7969h2.2656v6.7188z"/>
</symbol>
<symbol id="s" overflow="visible">
<path d="m-17.062-15.828h2.7344c-0.45703 0.82422-0.80078 1.6523-1.0312 2.4844-0.22656 0.82422-0.34375 1.6562-0.34375 2.5 0 1.8984 0.60547 3.3711 1.8125 4.4219 1.1992 1.043 2.875 1.5625 5.0312 1.5625 2.168 0 3.8516-0.51953 5.0469-1.5625 1.1992-1.0508 1.7969-2.5234 1.7969-4.4219 0-0.84375-0.10938-1.6758-0.32812-2.5-0.22656-0.83203-0.57031-1.6602-1.0312-2.4844h2.6875c0.38672 0.8125 0.67188 1.6562 0.85938 2.5312 0.1875 0.86719 0.28125 1.793 0.28125 2.7812 0 2.668-0.83594 4.7891-2.5156 6.3594-1.6758 1.5742-3.9414 2.3594-6.7969 2.3594-2.8828 0-5.1562-0.78906-6.8125-2.375-1.6641-1.5938-2.5-3.7734-2.5-6.5469 0-0.89453 0.09375-1.7695 0.28125-2.625 0.1875-0.85156 0.46484-1.6797 0.82812-2.4844z"/>
</symbol>
<symbol id="r" overflow="visible">
<path d="m-14.328-16.875c-1.3125-0.72656-2.2812-1.5977-2.9062-2.6094-0.625-1.0195-0.9375-2.2188-0.9375-3.5938 0-1.8438 0.65234-3.2656 1.9531-4.2656 1.293-1.0078 3.1328-1.5156 5.5156-1.5156h10.703v2.9375h-10.609c-1.6953 0-2.957 0.30469-3.7812 0.90625-0.82031 0.59375-1.2344 1.5117-1.2344 2.75 0 1.5117 0.5 2.7031 1.5 3.5781s2.3672 1.3125 4.0938 1.3125h10.031v2.9375h-10.609c-1.707 0-2.9688 0.30469-3.7812 0.90625-0.82031 0.60547-1.2344 1.5312-1.2344 2.7812 0 1.4922 0.50781 2.6797 1.5156 3.5625 1 0.875 2.3594 1.3125 4.0781 1.3125h10.031v2.9219h-17.734v-2.9219h2.75c-1.082-0.66406-1.8828-1.4609-2.4062-2.3906-0.51953-0.9375-0.78125-2.0391-0.78125-3.3125 0-1.2891 0.32812-2.3906 0.98438-3.2969s1.6094-1.5703 2.8594-2z"/>
</symbol>
<symbol id="q" overflow="visible">
<path d="m-24.641-9.875h28.922v6.7188h-2.2656v-3.7812h-24.391v3.7812h-2.2656z"/>
</symbol>
<symbol id="f" overflow="visible">
<path d="m12.266-20.875-8.0781 12.641h8.0781zm-0.84375-2.7812h4.0156v15.422h3.375v2.6562h-3.375v5.5781h-3.1719v-5.5781h-10.688v-3.0938z"/>
</symbol>
<symbol id="b" overflow="visible">
<path d="m3.5-23.656h12.562v2.6875h-9.625v5.7969c0.45703-0.15625 0.91406-0.26953 1.375-0.34375 0.46875-0.082031 0.9375-0.125 1.4062-0.125 2.6328 0 4.7227 0.72656 6.2656 2.1719 1.5391 1.4492 2.3125 3.4062 2.3125 5.875 0 2.5547-0.79297 4.5312-2.375 5.9375-1.5859 1.4062-3.8125 2.1094-6.6875 2.1094-1 0-2.0156-0.085937-3.0469-0.25-1.0234-0.16797-2.0859-0.41406-3.1875-0.75v-3.2188c0.94531 0.51172 1.9258 0.89844 2.9375 1.1562 1.0195 0.25 2.0938 0.375 3.2188 0.375 1.832 0 3.2812-0.47656 4.3438-1.4375 1.0703-0.96875 1.6094-2.2734 1.6094-3.9219 0-1.6445-0.53906-2.9453-1.6094-3.9062-1.0625-0.96875-2.5117-1.4531-4.3438-1.4531-0.85547 0-1.7109 0.10156-2.5625 0.29688-0.84375 0.1875-1.7109 0.48047-2.5938 0.875z"/>
</symbol>
<symbol id="a" overflow="visible">
<path d="m10.312-21.547c-1.6484 0-2.8867 0.8125-3.7188 2.4375-0.82422 1.6172-1.2344 4.0469-1.2344 7.2969s0.41016 5.6875 1.2344 7.3125c0.83203 1.6172 2.0703 2.4219 3.7188 2.4219 1.6562 0 2.8945-0.80469 3.7188-2.4219 0.83203-1.625 1.25-4.0625 1.25-7.3125s-0.41797-5.6797-1.25-7.2969c-0.82422-1.625-2.0625-2.4375-3.7188-2.4375zm0-2.5469c2.6445 0 4.6641 1.0547 6.0625 3.1562 1.4062 2.0938 2.1094 5.1367 2.1094 9.125 0 3.9922-0.70312 7.0312-2.1094 9.125-1.3984 2.0938-3.418 3.1406-6.0625 3.1406-2.6562 0-4.6836-1.0469-6.0781-3.1406-1.3984-2.0938-2.0938-5.1328-2.0938-9.125 0-3.9883 0.69531-7.0312 2.0938-9.125 1.3945-2.1016 3.4219-3.1562 6.0781-3.1562z"/>
</symbol>
<symbol id="e" overflow="visible">
<path d="m10.703-13.109c-1.4375 0-2.5781 0.49609-3.4219 1.4844-0.83594 0.98047-1.25 2.3242-1.25 4.0312 0 1.6992 0.41406 3.043 1.25 4.0312 0.84375 0.99219 1.9844 1.4844 3.4219 1.4844s2.5703-0.49219 3.4062-1.4844c0.84375-0.98828 1.2656-2.332 1.2656-4.0312 0-1.707-0.42188-3.0508-1.2656-4.0312-0.83594-0.98828-1.9688-1.4844-3.4062-1.4844zm6.3594-10.031v2.9219c-0.80469-0.38281-1.6172-0.67578-2.4375-0.875-0.8125-0.19531-1.6211-0.29688-2.4219-0.29688-2.1172 0-3.7305 0.71484-4.8438 2.1406-1.1172 1.4297-1.75 3.5859-1.9062 6.4688 0.625-0.92578 1.4062-1.6328 2.3438-2.125 0.9375-0.48828 1.9688-0.73438 3.0938-0.73438 2.375 0 4.25 0.72656 5.625 2.1719 1.3828 1.4375 2.0781 3.3984 2.0781 5.875 0 2.4297-0.71875 4.375-2.1562 5.8438s-3.3516 2.2031-5.7344 2.2031c-2.7305 0-4.8203-1.0469-6.2656-3.1406-1.4492-2.0938-2.1719-5.1328-2.1719-9.125 0-3.7383 0.88281-6.7188 2.6562-8.9375 1.7812-2.2266 4.1602-3.3438 7.1406-3.3438 0.80078 0 1.6133 0.085938 2.4375 0.25 0.82031 0.15625 1.6758 0.39062 2.5625 0.70312z"/>
</symbol>
<symbol id="p" overflow="visible">
<path d="m6.2188-2.6875h11.172v2.6875h-15.016v-2.6875c1.2188-1.2578 2.875-2.9453 4.9688-5.0625 2.0938-2.125 3.4102-3.4922 3.9531-4.1094 1.0195-1.1445 1.7344-2.1133 2.1406-2.9062 0.40625-0.80078 0.60938-1.5859 0.60938-2.3594 0-1.2578-0.44531-2.2852-1.3281-3.0781-0.875-0.78906-2.0234-1.1875-3.4375-1.1875-1 0-2.0586 0.17969-3.1719 0.53125-1.1172 0.34375-2.3086 0.87109-3.5781 1.5781v-3.2344c1.2891-0.51953 2.4922-0.91016 3.6094-1.1719 1.125-0.26953 2.1484-0.40625 3.0781-0.40625 2.4453 0 4.3984 0.61719 5.8594 1.8438 1.457 1.2305 2.1875 2.8711 2.1875 4.9219 0 0.96875-0.18359 1.8906-0.54688 2.7656-0.36719 0.86719-1.0273 1.8906-1.9844 3.0781-0.27344 0.30469-1.1172 1.1875-2.5312 2.6562-1.4062 1.4609-3.4023 3.5078-5.9844 6.1406z"/>
</symbol>
<symbol id="o" overflow="visible">
<path d="m10.312-11.234c-1.5234 0-2.7188 0.40625-3.5938 1.2188-0.86719 0.8125-1.2969 1.9336-1.2969 3.3594 0 1.4297 0.42969 2.5469 1.2969 3.3594 0.875 0.8125 2.0703 1.2188 3.5938 1.2188 1.5195 0 2.7188-0.40625 3.5938-1.2188 0.875-0.82031 1.3125-1.9414 1.3125-3.3594 0-1.4258-0.4375-2.5469-1.3125-3.3594-0.86719-0.8125-2.0625-1.2188-3.5938-1.2188zm-3.2031-1.3594c-1.375-0.34375-2.4492-0.98438-3.2188-1.9219-0.76172-0.9375-1.1406-2.082-1.1406-3.4375 0-1.8945 0.67188-3.3906 2.0156-4.4844 1.3516-1.1016 3.2031-1.6562 5.5469-1.6562 2.3516 0 4.1953 0.55469 5.5312 1.6562 1.3438 1.0938 2.0156 2.5898 2.0156 4.4844 0 1.3555-0.38672 2.5-1.1562 3.4375-0.76172 0.9375-1.8203 1.5781-3.1719 1.9219 1.5391 0.35547 2.7383 1.0586 3.5938 2.1094 0.86328 1.043 1.2969 2.3203 1.2969 3.8281 0 2.293-0.70312 4.0547-2.1094 5.2812-1.3984 1.2188-3.3984 1.8281-6 1.8281-2.6055 0-4.6094-0.60938-6.0156-1.8281-1.3984-1.2266-2.0938-2.9883-2.0938-5.2812 0-1.5078 0.42969-2.7852 1.2969-3.8281 0.86328-1.0508 2.0664-1.7539 3.6094-2.1094zm-1.1719-5.0625c0 1.2305 0.37891 2.1875 1.1406 2.875 0.76953 0.6875 1.8477 1.0312 3.2344 1.0312 1.375 0 2.4453-0.34375 3.2188-1.0312 0.78125-0.6875 1.1719-1.6445 1.1719-2.875 0-1.2188-0.39062-2.1719-1.1719-2.8594-0.77344-0.6875-1.8438-1.0312-3.2188-1.0312-1.3867 0-2.4648 0.34375-3.2344 1.0312-0.76172 0.6875-1.1406 1.6406-1.1406 2.8594z"/>
</symbol>
<symbol id="n" overflow="visible">
<path d="m4.0156-2.6875h5.2344v-18.062l-5.6875 1.1406v-2.9062l5.6562-1.1406h3.2031v20.969h5.2188v2.6875h-13.625z"/>
</symbol>
</defs>
<path transform="matrix(4.0548 0 0 4.0558 55.686 29.07)" d="m172.23 78.631c-22.102-9.8827-92.142-15.488-114.83-78.048h-24.98v87.908c47.909-2.8018 93.646-2.3818 139.81-2.5889z" fill="#ccc" stroke="#000" stroke-width=".75"/>
<path transform="matrix(4.0548 0 0 4.0558 55.686 29.07)" d="m32.166 0.58272v134.43" fill="none" stroke="#000" stroke-width=".75"/>
<path transform="matrix(4.0548 0 0 4.0558 55.686 29.07)" d="m171.97 128.68h-146.14" fill="none" stroke="#000" stroke-width=".74945"/>
<path transform="matrix(4.0548 0 0 4.0558 55.686 29.07)" d="m32.166 0.58272h139.81v128.09h-139.81z" fill="none" stroke="#000" stroke-width="1.5"/>
<path transform="matrix(4.0548 0 0 4.0558 55.686 29.07)" d="m171.97 105.39h-146.14" fill="none" stroke="#000" stroke-width=".74945"/>
<path transform="matrix(4.0548 0 0 4.0558 55.686 29.07)" d="m171.97 82.096h-146.14" fill="none" stroke="#000" stroke-width=".74945"/>
<path transform="matrix(4.0548 0 0 4.0558 55.686 29.07)" d="m171.97 58.807h-146.14" fill="none" stroke="#000" stroke-width=".74945"/>
<path transform="matrix(4.0548 0 0 4.0558 55.686 29.07)" d="m171.97 35.517h-146.14" fill="none" stroke="#000" stroke-width=".74945"/>
<path transform="matrix(4.0548 0 0 4.0558 55.686 29.07)" d="m171.97 12.227h-146.14" fill="none" stroke="#000" stroke-width=".74945"/>
<path transform="matrix(4.0548 0 0 4.0558 55.686 29.07)" d="m171.97 0.58272h-146.14" fill="none" stroke="#000" stroke-width=".74945"/>
<path transform="matrix(4.0548 0 0 4.0558 55.686 29.07)" d="m171.97 117.03h-139.81" fill="none" stroke="#000" stroke-width=".74945"/>
<path transform="matrix(4.0548 0 0 4.0558 55.686 29.07)" d="m171.97 93.741h-139.81" fill="none" stroke="#000" stroke-width=".74945"/>
<path transform="matrix(4.0548 0 0 4.0558 55.686 29.07)" d="m171.97 70.451h-139.81" fill="none" stroke="#000" stroke-width=".74945"/>
<path transform="matrix(4.0548 0 0 4.0558 55.686 29.07)" d="m171.97 47.162h-139.81" fill="none" stroke="#000" stroke-width=".74945"/>
<path transform="matrix(4.0548 0 0 4.0558 55.686 29.07)" d="m171.97 23.872h-139.81" fill="none" stroke="#000" stroke-width=".74945"/>
<path transform="matrix(4.0548 0 0 4.0558 55.686 29.07)" d="m171.97 0.58272v134.43" fill="none" stroke="#000" stroke-width=".75"/>
<path transform="matrix(4.0548 0 0 4.0558 55.686 29.07)" d="m125.37 0.58272v134.43" fill="none" stroke="#000" stroke-width=".75"/>
<path transform="matrix(4.0548 0 0 4.0558 55.686 29.07)" d="m78.769 0.58272v134.43" fill="none" stroke="#000" stroke-width=".75"/>
<g>
<use x="289.230469" y="665.678843" xlink:href="#ai"/>
<use x="325.723832" y="665.678843" xlink:href="#af"/>
<use x="341.943104" y="665.678843" xlink:href="#ae"/>
<use x="362.217195" y="665.678843" xlink:href="#m"/>
<use x="390.600922" y="665.678843" xlink:href="#l"/>
<use x="410.875013" y="665.678843" xlink:href="#k"/>
<use x="427.094285" y="665.678843" xlink:href="#ad"/>
<use x="443.313558" y="665.678843" xlink:href="#j"/>
<use x="475.752103" y="665.678843" xlink:href="#k"/>
<use x="491.971375" y="665.678843" xlink:href="#ac"/>
<use x="508.190648" y="665.678843" xlink:href="#ah"/>
<use x="536.574375" y="665.678843" xlink:href="#ag"/>
<use x="569.01292" y="665.678843" xlink:href="#l"/>
<use x="589.28701" y="665.678843" xlink:href="#m"/>
<use x="617.670737" y="665.678843" xlink:href="#j"/>
</g>
<g>
<use x="53.211755" y="532.605469" xlink:href="#ab"/>
<use x="53.211755" y="512.32659" xlink:href="#d"/>
<use x="53.211755" y="487.991935" xlink:href="#w"/>
<use x="53.211755" y="471.768832" xlink:href="#v"/>
<use x="53.211755" y="459.601505" xlink:href="#i"/>
<use x="53.211755" y="439.322626" xlink:href="#u"/>
<use x="53.211755" y="423.099523" xlink:href="#d"/>
<use x="53.211755" y="398.764868" xlink:href="#h"/>
<use x="53.211755" y="374.430213" xlink:href="#d"/>
<use x="53.211755" y="350.095559" xlink:href="#g"/>
<use x="53.211755" y="325.760904" xlink:href="#c"/>
<use x="53.211755" y="313.593577" xlink:href="#aa"/>
<use x="53.211755" y="293.314698" xlink:href="#z"/>
<use x="53.211755" y="273.035819" xlink:href="#y"/>
<use x="53.211755" y="240.589613" xlink:href="#c"/>
<use x="53.211755" y="228.422286" xlink:href="#x"/>
<use x="53.211755" y="204.087631" xlink:href="#h"/>
<use x="53.211755" y="179.752976" xlink:href="#g"/>
<use x="53.211755" y="155.418322" xlink:href="#i"/>
<use x="53.211755" y="135.139443" xlink:href="#c"/>
</g>
<g>
<use x="53.211755" y="122.972656" xlink:href="#t"/>
<use x="53.211755" y="110.805329" xlink:href="#s"/>
<use x="53.211755" y="94.582226" xlink:href="#r"/>
<use x="53.211755" y="62.13602" xlink:href="#q"/>
</g>
<g>
<use x="166.464844" y="606.050897" xlink:href="#f"/>
<use x="186.738934" y="606.050897" xlink:href="#b"/>
</g>
<g>
<use x="354.628906" y="606.050897" xlink:href="#b"/>
<use x="374.902997" y="606.050897" xlink:href="#a"/>
</g>
<g>
<use x="543.933594" y="606.050897" xlink:href="#b"/>
<use x="564.207684" y="606.050897" xlink:href="#b"/>
</g>
<g>
<use x="732.675781" y="606.050897" xlink:href="#e"/>
<use x="752.949872" y="606.050897" xlink:href="#a"/>
</g>
<g>
<use x="114.414062" y="468.08996" xlink:href="#p"/>
<use x="134.688153" y="468.08996" xlink:href="#a"/>
</g>
<g>
<use x="114.414062" y="373.632929" xlink:href="#f"/>
<use x="134.688153" y="373.632929" xlink:href="#a"/>
</g>
<g>
<use x="114.414062" y="279.171991" xlink:href="#e"/>
<use x="134.688153" y="279.171991" xlink:href="#a"/>
</g>
<g>
<use x="114.414062" y="184.71496" xlink:href="#o"/>
<use x="134.688153" y="184.71496" xlink:href="#a"/>
</g>
<g>
<use x="93.957031" y="90.257929" xlink:href="#n"/>
<use x="114.231122" y="90.257929" xlink:href="#a"/>
<use x="134.505213" y="90.257929" xlink:href="#a"/>
</g>
</svg>
