<?xml version="1.0" encoding="UTF-8"?>
<svg width="600px" height="527px" version="1.1" viewBox="0 0 600 527" xmlns="http://www.w3.org/2000/svg" xmlns:xlink="http://www.w3.org/1999/xlink">
<defs>
<symbol id="ag" overflow="visible">
<path d="m17.875-4.4375h-9.8438l-1.5469 4.4375h-6.3281l9.0469-24.375h7.4844l9.0469 24.375h-6.3281zm-8.2656-4.5312h6.6719l-3.3281-9.6875z"/>
</symbol>
<symbol id="ae" overflow="visible">
<path d="m15.25-3.1094c-0.80469 1.0742-1.6875 1.8594-2.6562 2.3594s-2.0898 0.75-3.3594 0.75c-2.2422 0-4.0898-0.87891-5.5469-2.6406-1.4609-1.7578-2.1875-4-2.1875-6.7188 0-2.7266 0.72656-4.9609 2.1875-6.7031 1.457-1.75 3.3047-2.625 5.5469-2.625 1.2695 0 2.3906 0.25 3.3594 0.75s1.8516 1.2891 2.6562 2.3594v-2.7031h5.8906v16.438c0 2.9375-0.93359 5.1797-2.7969 6.7344-1.8555 1.5508-4.543 2.3281-8.0625 2.3281-1.1484 0-2.2578-0.089844-3.3281-0.26562-1.0625-0.17969-2.1367-0.44531-3.2188-0.79688v-4.5625c1.0312 0.59375 2.0352 1.0312 3.0156 1.3125 0.97656 0.28906 1.9609 0.4375 2.9531 0.4375 1.9141 0 3.3164-0.42188 4.2031-1.2656 0.89453-0.83594 1.3438-2.1406 1.3438-3.9219zm-3.8438-11.375c-1.2109 0-2.1523 0.44922-2.8281 1.3438-0.67969 0.89844-1.0156 2.1562-1.0156 3.7812 0 1.6797 0.32031 2.9492 0.96875 3.8125 0.65625 0.86719 1.6133 1.2969 2.875 1.2969 1.2188 0 2.1602-0.44141 2.8281-1.3281 0.67578-0.89453 1.0156-2.1562 1.0156-3.7812s-0.33984-2.8828-1.0156-3.7812c-0.66797-0.89453-1.6094-1.3438-2.8281-1.3438z"/>
</symbol>
<symbol id="j" overflow="visible">
<path d="m21.078-9.1875v1.6562h-13.672c0.13281 1.375 0.625 2.4062 1.4688 3.0938 0.85156 0.6875 2.0469 1.0312 3.5781 1.0312 1.2266 0 2.4844-0.17969 3.7656-0.54688 1.2891-0.36328 2.6172-0.91406 3.9844-1.6562v4.5c-1.3867 0.52344-2.7734 0.91406-4.1562 1.1719-1.375 0.26953-2.7578 0.40625-4.1406 0.40625-3.3125 0-5.8867-0.83594-7.7188-2.5156-1.8359-1.6875-2.75-4.0469-2.75-7.0781 0-2.9766 0.89844-5.3203 2.7031-7.0312 1.8008-1.7188 4.2812-2.5781 7.4375-2.5781 2.875 0 5.1758 0.87109 6.9062 2.6094 1.7266 1.7305 2.5938 4.043 2.5938 6.9375zm-6.0156-1.9531c0-1.1016-0.32812-1.9922-0.98438-2.6719-0.64844-0.6875-1.4922-1.0312-2.5312-1.0312-1.1367 0-2.0586 0.32031-2.7656 0.95312-0.71094 0.63672-1.1484 1.5547-1.3125 2.75z"/>
</symbol>
<symbol id="i" overflow="visible"></symbol>
<symbol id="ad" overflow="visible">
<path d="m2.8125-18.281h5.8438v18.281h-5.8438zm0-7.125h5.8438v4.7656h-5.8438z"/>
</symbol>
<symbol id="ac" overflow="visible">
<path d="m21.203-11.141v11.141h-5.875v-8.5156c0-1.582-0.039063-2.6719-0.10938-3.2656-0.074219-0.60156-0.19922-1.0469-0.375-1.3281-0.23047-0.38281-0.54297-0.67969-0.9375-0.89062-0.38672-0.20703-0.82812-0.3125-1.3281-0.3125-1.2188 0-2.1797 0.46875-2.875 1.4062-0.69922 0.9375-1.0469 2.2422-1.0469 3.9062v9h-5.8438v-18.281h5.8438v2.6719c0.88281-1.0625 1.8203-1.8477 2.8125-2.3594 0.98828-0.50781 2.082-0.76562 3.2812-0.76562 2.1133 0 3.7188 0.65234 4.8125 1.9531 1.0938 1.293 1.6406 3.1719 1.6406 5.6406z"/>
</symbol>
<symbol id="ab" overflow="visible">
<path d="m0.40625-18.281h5.8438l4.9219 12.406 4.1875-12.406h5.8438l-7.6875 20.016c-0.78125 2.0312-1.6875 3.4531-2.7188 4.2656-1.0234 0.8125-2.375 1.2188-4.0625 1.2188h-3.3906v-3.8438h1.8281c1 0 1.7227-0.15625 2.1719-0.46875 0.44531-0.3125 0.79688-0.88281 1.0469-1.7031l0.17188-0.5z"/>
</symbol>
<symbol id="aa" overflow="visible">
<path d="m11.016-8.2344c-1.2188 0-2.1406 0.21094-2.7656 0.625-0.61719 0.41797-0.92188 1.0273-0.92188 1.8281 0 0.74219 0.25 1.3242 0.75 1.75 0.5 0.41797 1.1875 0.625 2.0625 0.625 1.1016 0 2.0312-0.39453 2.7812-1.1875 0.75-0.78906 1.125-1.7812 1.125-2.9688v-0.67188zm8.9219-2.2031v10.438h-5.8906v-2.7031c-0.78125 1.1055-1.6641 1.9141-2.6406 2.4219-0.98047 0.5-2.1719 0.75-3.5781 0.75-1.8984 0-3.4375-0.55078-4.625-1.6562-1.1797-1.1016-1.7656-2.5352-1.7656-4.2969 0-2.1445 0.73438-3.7188 2.2031-4.7188 1.4766-1 3.7969-1.5 6.9531-1.5h3.4531v-0.45312c0-0.92578-0.36719-1.6016-1.0938-2.0312-0.73047-0.4375-1.8672-0.65625-3.4062-0.65625-1.2617 0-2.4336 0.125-3.5156 0.375-1.0742 0.25-2.0742 0.625-3 1.125v-4.4531c1.2578-0.30078 2.5195-0.53125 3.7812-0.6875 1.2578-0.16406 2.5195-0.25 3.7812-0.25 3.3008 0 5.6797 0.65234 7.1406 1.9531 1.4688 1.3047 2.2031 3.418 2.2031 6.3438z"/>
</symbol>
<symbol id="z" overflow="visible">
<path d="m16.406-13.312c-0.52344-0.23828-1.0391-0.41406-1.5469-0.53125-0.5-0.11328-1.0078-0.17188-1.5156-0.17188-1.5 0-2.6562 0.48438-3.4688 1.4531-0.8125 0.96094-1.2188 2.3398-1.2188 4.1406v8.4219h-5.8438v-18.281h5.8438v3c0.75-1.1953 1.6094-2.0703 2.5781-2.625 0.97656-0.55078 2.1484-0.82812 3.5156-0.82812 0.19531 0 0.41016 0.011719 0.64062 0.03125 0.22656 0.023437 0.5625 0.058594 1 0.10938z"/>
</symbol>
<symbol id="af" overflow="visible">
<path d="m17.109-17.719v4.4375c-1.2617-0.51953-2.4766-0.91016-3.6406-1.1719-1.1562-0.25781-2.2578-0.39062-3.2969-0.39062-1.1055 0-1.9297 0.14062-2.4688 0.42188-0.54297 0.27344-0.8125 0.69922-0.8125 1.2812 0 0.46875 0.20312 0.82812 0.60938 1.0781 0.41406 0.25 1.1484 0.43359 2.2031 0.54688l1.0312 0.15625c2.9883 0.375 5 1 6.0312 1.875 1.0391 0.86719 1.5625 2.2305 1.5625 4.0938 0 1.9492-0.71875 3.4141-2.1562 4.3906-1.4375 0.98047-3.5859 1.4688-6.4375 1.4688-1.2109 0-2.4609-0.09375-3.75-0.28125-1.293-0.1875-2.6172-0.47266-3.9688-0.85938v-4.4375c1.1562 0.5625 2.3477 0.99219 3.5781 1.2812 1.2266 0.28125 2.4727 0.42188 3.7344 0.42188 1.1445 0 2.0039-0.15625 2.5781-0.46875 0.58203-0.32031 0.875-0.79688 0.875-1.4219 0-0.51953-0.20312-0.90625-0.60938-1.1562-0.39844-0.25781-1.1875-0.45703-2.375-0.59375l-1.0312-0.14062c-2.5938-0.32031-4.418-0.92188-5.4688-1.7969-1.043-0.88281-1.5625-2.2266-1.5625-4.0312 0-1.9375 0.66016-3.375 1.9844-4.3125 1.332-0.9375 3.3672-1.4062 6.1094-1.4062 1.082 0 2.2188 0.085937 3.4062 0.25 1.1875 0.16797 2.4766 0.42188 3.875 0.76562z"/>
</symbol>
<symbol id="y" overflow="visible">
<path d="m-14.281-6.8125h10.828v-1.6406c0-1.8633-0.46094-3.2852-1.3906-4.2656-0.92578-0.98828-2.2734-1.4844-4.0469-1.4844-1.75 0-3.082 0.49219-4 1.4688-0.92578 0.98047-1.3906 2.4062-1.3906 4.2812zm-3.4531 4.5781v-4.8281c0-2.6875 0.19531-4.6875 0.57812-6 0.38672-1.3203 1.0391-2.457 1.9531-3.4062 0.80469-0.83203 1.7266-1.4453 2.7656-1.8438 1.043-0.40625 2.2266-0.60938 3.5469-0.60938 1.3438 0 2.543 0.20312 3.5938 0.60938 1.043 0.39844 1.9648 1.0117 2.7656 1.8438 0.91797 0.96094 1.5703 2.1055 1.9531 3.4375 0.38672 1.3242 0.57812 3.3125 0.57812 5.9688v4.8281z"/>
</symbol>
<symbol id="r" overflow="visible">
<path d="m-13.297-2.0469v-4.25h13.297v4.25zm-5.1875 0v-4.25h3.4688v4.25z"/>
</symbol>
<symbol id="q" overflow="visible">
<path d="m-12.891-12.438h3.2344c-0.38281 0.90625-0.67188 1.7891-0.85938 2.6406-0.1875 0.84375-0.28125 1.6406-0.28125 2.3906 0 0.8125 0.10547 1.418 0.3125 1.8125 0.19922 0.38672 0.50781 0.57812 0.92188 0.57812 0.34375 0 0.60938-0.14453 0.79688-0.4375 0.17969-0.30078 0.30859-0.83594 0.39062-1.6094l0.10938-0.73438c0.27344-2.1875 0.72656-3.6562 1.3594-4.4062 0.63672-0.75 1.6328-1.125 2.9844-1.125 1.418 0 2.4844 0.52734 3.2031 1.5781 0.71094 1.043 1.0625 2.6016 1.0625 4.6719 0 0.875-0.074219 1.7812-0.21875 2.7188-0.13281 0.9375-0.33594 1.9023-0.60938 2.8906h-3.2344c0.41797-0.84375 0.73047-1.707 0.9375-2.5938 0.19922-0.89453 0.29688-1.8008 0.29688-2.7188 0-0.83203-0.11328-1.457-0.34375-1.875-0.22656-0.42578-0.56641-0.64062-1.0156-0.64062-0.38281 0-0.67188 0.14844-0.85938 0.4375-0.1875 0.29297-0.32812 0.87109-0.42188 1.7344l-0.10938 0.75c-0.22656 1.8867-0.66016 3.2109-1.2969 3.9688-0.64453 0.76172-1.625 1.1406-2.9375 1.1406-1.4062 0-2.4453-0.47656-3.125-1.4375-0.6875-0.96875-1.0312-2.4531-1.0312-4.4531 0-0.78125 0.0625-1.6016 0.1875-2.4688 0.11719-0.86328 0.29688-1.8008 0.54688-2.8125z"/>
</symbol>
<symbol id="p" overflow="visible">
<path d="m-17.078-6.6875h3.7812v-4.3906h3.0312v4.3906h5.6406c0.625 0 1.0469-0.11719 1.2656-0.35938 0.21094-0.25 0.3125-0.73828 0.3125-1.4688v-2.1875h3.0469v3.6406c0 1.6875-0.34766 2.8828-1.0469 3.5781-0.70703 0.69922-1.8984 1.0469-3.5781 1.0469h-5.6406v2.1094h-3.0312v-2.1094h-3.7812z"/>
</symbol>
<symbol id="o" overflow="visible">
<path d="m-5.9844-8c0 0.88672 0.15234 1.5547 0.45312 2 0.30469 0.44922 0.74609 0.67188 1.3281 0.67188 0.54297 0 0.96484-0.17969 1.2656-0.54688 0.30469-0.36328 0.45312-0.86328 0.45312-1.5 0-0.80078-0.28516-1.4727-0.85938-2.0156-0.57031-0.55078-1.2891-0.82812-2.1562-0.82812h-0.48438zm-1.6094-6.5h7.5938v4.2812h-1.9688c0.80469 0.57422 1.3906 1.2188 1.7656 1.9375 0.36328 0.71094 0.54688 1.5742 0.54688 2.5938 0 1.375-0.39844 2.4961-1.2031 3.3594-0.80078 0.85547-1.8438 1.2812-3.125 1.2812-1.5625 0-2.707-0.53516-3.4375-1.6094-0.72656-1.0703-1.0938-2.7539-1.0938-5.0469v-2.5156h-0.32812c-0.67578 0-1.1719 0.26562-1.4844 0.79688s-0.46875 1.3594-0.46875 2.4844c0 0.90625 0.09375 1.7578 0.28125 2.5469 0.17969 0.78125 0.44922 1.5117 0.8125 2.1875h-3.25c-0.21875-0.91406-0.38281-1.832-0.5-2.75-0.11328-0.91406-0.17188-1.832-0.17188-2.75 0-2.4062 0.47656-4.1406 1.4219-5.2031 0.94922-1.0625 2.4844-1.5938 4.6094-1.5938z"/>
</symbol>
<symbol id="n" overflow="visible">
<path d="m-8.0938-15.422h8.0938v4.2812h-6.2031c-1.1445 0-1.9375 0.027344-2.375 0.078125-0.4375 0.054688-0.75391 0.14062-0.95312 0.26562-0.28125 0.16797-0.5 0.39844-0.65625 0.6875-0.15625 0.28125-0.23438 0.60547-0.23438 0.96875 0 0.88672 0.34375 1.5859 1.0312 2.0938 0.6875 0.5 1.6367 0.75 2.8438 0.75h6.5469v4.25h-13.297v-4.25h1.9375c-0.76953-0.64453-1.3359-1.3281-1.7031-2.0469-0.375-0.71875-0.5625-1.5156-0.5625-2.3906 0-1.5312 0.47656-2.6914 1.4219-3.4844 0.9375-0.80078 2.3086-1.2031 4.1094-1.2031z"/>
</symbol>
<symbol id="g" overflow="visible">
<path d="m-12.891-12.797h3.4688c-0.39453 0.58594-0.6875 1.168-0.875 1.75-0.1875 0.57422-0.28125 1.1797-0.28125 1.8125 0 1.1875 0.35156 2.1172 1.0469 2.7812 0.6875 0.65625 1.6523 0.98438 2.8906 0.98438 1.2422 0 2.2109-0.32812 2.9062-0.98438 0.6875-0.66406 1.0312-1.5938 1.0312-2.7812 0-0.66406-0.097656-1.2969-0.29688-1.8906-0.19531-0.60156-0.48828-1.1602-0.875-1.6719h3.4844c0.24219 0.66797 0.42188 1.3438 0.54688 2.0312s0.1875 1.375 0.1875 2.0625c0 2.3984-0.61328 4.2734-1.8438 5.625-1.2266 1.3555-2.9414 2.0312-5.1406 2.0312-2.1953 0-3.9102-0.67578-5.1406-2.0312-1.2266-1.3516-1.8438-3.2266-1.8438-5.625 0-0.69531 0.0625-1.3828 0.1875-2.0625 0.125-0.67578 0.30859-1.3516 0.54688-2.0312z"/>
</symbol>
<symbol id="d" overflow="visible">
<path d="m-6.6875-15.328h1.2188v9.9531c0.99219-0.10156 1.7344-0.46094 2.2344-1.0781 0.5-0.625 0.75-1.4883 0.75-2.5938 0-0.89453-0.12891-1.8125-0.39062-2.75-0.26953-0.9375-0.67578-1.8984-1.2188-2.8906h3.2812c0.38672 1 0.67188 2.0078 0.85938 3.0156 0.19531 1 0.29688 2.0078 0.29688 3.0156 0 2.4062-0.60938 4.2773-1.8281 5.6094-1.2266 1.3359-2.9453 2-5.1562 2-2.1641 0-3.8672-0.65625-5.1094-1.9688-1.25-1.3125-1.875-3.1133-1.875-5.4062 0-2.0938 0.63281-3.7656 1.8906-5.0156 1.2617-1.2578 2.9453-1.8906 5.0469-1.8906zm-1.4062 4.375c-0.8125 0-1.4609 0.24219-1.9531 0.71875-0.5 0.46875-0.75 1.0859-0.75 1.8438 0 0.82422 0.23438 1.4922 0.70312 2 0.46094 0.51172 1.125 0.83594 2 0.96875z"/>
</symbol>
<symbol id="c" overflow="visible"></symbol>
<symbol id="x" overflow="visible">
<path d="m-18.484-10.797h2.7969v2.3438c0 0.60547 0.10938 1.0273 0.32812 1.2656 0.21875 0.24219 0.59375 0.35938 1.125 0.35938h0.9375v-3.6406h3.0312v3.6406h10.266v4.25h-10.266v2.1094h-3.0312v-2.1094h-0.9375c-1.4453 0-2.5156-0.39844-3.2031-1.2031-0.69531-0.8125-1.0469-2.0664-1.0469-3.7656z"/>
</symbol>
<symbol id="w" overflow="visible">
<path d="m-9.6875-11.922c-0.16406 0.36719-0.28906 0.73438-0.375 1.1094-0.082031 0.36719-0.125 0.73438-0.125 1.1094 0 1.0938 0.35156 1.9375 1.0469 2.5312 0.69922 0.58594 1.7031 0.875 3.0156 0.875h6.125v4.25h-13.297v-4.25h2.1719c-0.86328-0.53906-1.4922-1.1641-1.8906-1.875-0.40625-0.70703-0.60938-1.5625-0.60938-2.5625 0-0.13281 0.007812-0.28516 0.015625-0.45312 0.011719-0.16406 0.039063-0.41016 0.078125-0.73438z"/>
</symbol>
<symbol id="v" overflow="visible">
<path d="m-10.578-8.375c0 0.9375 0.33984 1.6562 1.0156 2.1562 0.67969 0.5 1.6523 0.75 2.9219 0.75 1.2734 0 2.2461-0.25 2.9219-0.75 0.67969-0.5 1.0156-1.2188 1.0156-2.1562 0-0.92578-0.33594-1.6328-1.0156-2.125-0.67578-0.48828-1.6484-0.73438-2.9219-0.73438-1.2695 0-2.2422 0.24609-2.9219 0.73438-0.67578 0.49219-1.0156 1.1992-1.0156 2.125zm-3.0469 0c0-2.2891 0.62109-4.0781 1.8594-5.3594 1.2305-1.2891 2.9375-1.9375 5.125-1.9375s3.9023 0.64844 5.1406 1.9375c1.2305 1.2812 1.8438 3.0703 1.8438 5.3594 0 2.293-0.61328 4.0898-1.8438 5.3906-1.2383 1.293-2.9531 1.9375-5.1406 1.9375s-3.8945-0.64453-5.125-1.9375c-1.2383-1.3008-1.8594-3.0977-1.8594-5.3906z"/>
</symbol>
<symbol id="h" overflow="visible">
<path d="m-11.094-14.375c-0.82031-0.53906-1.4453-1.1797-1.875-1.9219-0.4375-0.73828-0.65625-1.5508-0.65625-2.4375 0-1.5312 0.47656-2.6914 1.4219-3.4844 0.9375-0.80078 2.3086-1.2031 4.1094-1.2031h8.0938v4.2656h-6.9375-0.3125c-0.11328-0.007812-0.27344-0.015625-0.48438-0.015625-0.9375 0-1.6172 0.14062-2.0469 0.42188-0.42578 0.27344-0.64062 0.71484-0.64062 1.3281 0 0.8125 0.33594 1.4375 1 1.875 0.66797 0.4375 1.6328 0.66797 2.8906 0.6875h6.5312v4.2812h-6.9375c-1.4688 0-2.4141 0.125-2.8438 0.375-0.42578 0.25-0.64062 0.70312-0.64062 1.3594 0 0.8125 0.33984 1.4453 1.0156 1.8906 0.66797 0.4375 1.6211 0.65625 2.8594 0.65625h6.5469v4.2812h-13.297v-4.2812h1.9375c-0.75-0.51953-1.3125-1.1172-1.6875-1.7969-0.38281-0.67578-0.57812-1.4219-0.57812-2.2344 0-0.92578 0.22656-1.7383 0.67188-2.4375 0.4375-0.70703 1.0586-1.2422 1.8594-1.6094z"/>
</symbol>
<symbol id="u" overflow="visible">
<path d="m-13.297-0.29688v-4.25l9.0156-3.5781-9.0156-3.0469v-4.25l14.562 5.5938c1.4766 0.5625 2.5078 1.2188 3.0938 1.9688 0.59375 0.75 0.89062 1.7422 0.89062 2.9688v2.4531h-2.7969v-1.3281c0-0.71875-0.11719-1.2383-0.34375-1.5625-0.23047-0.33203-0.64062-0.59375-1.2344-0.78125l-0.35938-0.10938z"/>
</symbol>
<symbol id="t" overflow="visible">
<path d="m-18.484-2.0938v-7.375h2.6719v3.3438h16.344v-3.3438h2.6719v7.375z"/>
</symbol>
<symbol id="s" overflow="visible">
<path d="m3.2031-9.0312v7.375h-2.6719v-3.3281h-16.344v3.3281h-2.6719v-7.375z"/>
</symbol>
<symbol id="f" overflow="visible">
<path d="m9.1875-15.641-6.0469 9.4688h6.0469zm-0.625-2.0938h3.0156v11.562h2.5312v1.9844h-2.5312v4.1875h-2.3906v-4.1875h-8v-2.3125z"/>
</symbol>
<symbol id="b" overflow="visible">
<path d="m2.625-17.734h9.4219v2.0156h-7.2188v4.3438c0.34375-0.11328 0.6875-0.19531 1.0312-0.25 0.35156-0.0625 0.70312-0.09375 1.0469-0.09375 1.9883 0 3.5625 0.54297 4.7188 1.625 1.1562 1.0859 1.7344 2.5547 1.7344 4.4062 0 1.9062-0.60156 3.3906-1.7969 4.4531-1.1875 1.0547-2.8594 1.5781-5.0156 1.5781-0.75 0-1.5117-0.0625-2.2812-0.1875-0.77344-0.125-1.5703-0.31641-2.3906-0.57812v-2.4062c0.71875 0.38672 1.457 0.67969 2.2188 0.875 0.75781 0.1875 1.5625 0.28125 2.4062 0.28125 1.3633 0 2.4453-0.35938 3.25-1.0781 0.80078-0.72656 1.2031-1.707 1.2031-2.9375 0-1.2383-0.40234-2.2188-1.2031-2.9375-0.80469-0.71875-1.8867-1.0781-3.25-1.0781-0.64844 0-1.2891 0.074219-1.9219 0.21875-0.63672 0.13672-1.2891 0.35547-1.9531 0.65625z"/>
</symbol>
<symbol id="a" overflow="visible">
<path d="m7.7344-16.156c-1.2422 0-2.1719 0.60938-2.7969 1.8281-0.61719 1.2109-0.92188 3.0391-0.92188 5.4844 0 2.4297 0.30469 4.25 0.92188 5.4688 0.625 1.2109 1.5547 1.8125 2.7969 1.8125 1.2383 0 2.1719-0.60156 2.7969-1.8125 0.625-1.2188 0.9375-3.0391 0.9375-5.4688 0-2.4453-0.3125-4.2734-0.9375-5.4844-0.625-1.2188-1.5586-1.8281-2.7969-1.8281zm0-1.9062c1.9883 0 3.5039 0.78906 4.5469 2.3594 1.0508 1.5742 1.5781 3.8594 1.5781 6.8594 0 2.9805-0.52734 5.2578-1.5781 6.8281-1.043 1.5742-2.5586 2.3594-4.5469 2.3594-1.9922 0-3.5117-0.78516-4.5625-2.3594-1.043-1.5703-1.5625-3.8477-1.5625-6.8281 0-3 0.51953-5.2852 1.5625-6.8594 1.0508-1.5703 2.5703-2.3594 4.5625-2.3594z"/>
</symbol>
<symbol id="e" overflow="visible">
<path d="m8.0312-9.8281c-1.0742 0-1.9297 0.37109-2.5625 1.1094-0.625 0.74219-0.9375 1.75-0.9375 3.0312 0 1.2734 0.3125 2.2773 0.9375 3.0156 0.63281 0.74219 1.4883 1.1094 2.5625 1.1094 1.0703 0 1.9219-0.36719 2.5469-1.1094 0.63281-0.73828 0.95312-1.7422 0.95312-3.0156 0-1.2812-0.32031-2.2891-0.95312-3.0312-0.625-0.73828-1.4766-1.1094-2.5469-1.1094zm4.7656-7.5156v2.1875c-0.60547-0.28125-1.2148-0.49219-1.8281-0.64062-0.61719-0.15625-1.2266-0.23438-1.8281-0.23438-1.5859 0-2.793 0.53906-3.625 1.6094-0.83594 1.0625-1.3086 2.6719-1.4219 4.8281 0.45703-0.6875 1.0391-1.2109 1.75-1.5781 0.70703-0.36328 1.4844-0.54688 2.3281-0.54688 1.7812 0 3.1875 0.54297 4.2188 1.625 1.0391 1.0742 1.5625 2.543 1.5625 4.4062 0 1.8242-0.54297 3.2891-1.625 4.3906-1.0742 1.0938-2.5078 1.6406-4.2969 1.6406-2.0547 0-3.6211-0.78516-4.7031-2.3594-1.0859-1.5703-1.625-3.8477-1.625-6.8281 0-2.8125 0.66016-5.0508 1.9844-6.7188 1.332-1.6641 3.1172-2.5 5.3594-2.5 0.60156 0 1.2109 0.0625 1.8281 0.1875 0.61328 0.11719 1.2539 0.29297 1.9219 0.53125z"/>
</symbol>
<symbol id="m" overflow="visible">
<path d="m4.6719-2.0156h8.375v2.0156h-11.266v-2.0156c0.90625-0.94531 2.1445-2.2109 3.7188-3.7969 1.5703-1.5938 2.5625-2.6172 2.9688-3.0781 0.76953-0.86328 1.3047-1.5938 1.6094-2.1875 0.30078-0.59375 0.45312-1.1797 0.45312-1.7656 0-0.9375-0.33594-1.7031-1-2.2969-0.65625-0.59375-1.5117-0.89062-2.5625-0.89062-0.76172 0-1.5586 0.13281-2.3906 0.39062-0.83594 0.26172-1.7266 0.65625-2.6719 1.1875v-2.4219c0.95703-0.39453 1.8594-0.69141 2.7031-0.89062 0.84375-0.19531 1.6094-0.29688 2.2969-0.29688 1.8438 0 3.3125 0.46484 4.4062 1.3906 1.0938 0.91797 1.6406 2.1406 1.6406 3.6719 0 0.73047-0.14062 1.4219-0.42188 2.0781-0.27344 0.65625-0.76562 1.4297-1.4844 2.3125-0.19922 0.23047-0.82812 0.89062-1.8906 1.9844s-2.5586 2.6328-4.4844 4.6094z"/>
</symbol>
<symbol id="l" overflow="visible">
<path d="m7.7344-8.4219c-1.1484 0-2.0469 0.30859-2.7031 0.92188-0.64844 0.60547-0.96875 1.4453-0.96875 2.5156 0 1.0625 0.32031 1.9023 0.96875 2.5156 0.65625 0.60547 1.5547 0.90625 2.7031 0.90625 1.1328 0 2.0312-0.30078 2.6875-0.90625 0.66406-0.61328 1-1.4531 1-2.5156 0-1.0703-0.32812-1.9102-0.98438-2.5156-0.65625-0.61328-1.5586-0.92188-2.7031-0.92188zm-2.4062-1.0156c-1.0234-0.25781-1.8242-0.73828-2.4062-1.4375-0.57422-0.70703-0.85938-1.5664-0.85938-2.5781 0-1.4141 0.50391-2.5352 1.5156-3.3594 1.0078-0.83203 2.3945-1.25 4.1562-1.25 1.7578 0 3.1445 0.41797 4.1562 1.25 1.0078 0.82422 1.5156 1.9453 1.5156 3.3594 0 1.0117-0.29297 1.8711-0.875 2.5781-0.57422 0.69922-1.3711 1.1797-2.3906 1.4375 1.1562 0.26172 2.0547 0.78906 2.7031 1.5781 0.64453 0.78125 0.96875 1.7422 0.96875 2.875 0 1.7188-0.52734 3.0391-1.5781 3.9531-1.043 0.91797-2.543 1.375-4.5 1.375-1.9609 0-3.4648-0.45703-4.5156-1.375-1.043-0.91406-1.5625-2.2344-1.5625-3.9531 0-1.1328 0.32031-2.0938 0.96875-2.875 0.64453-0.78906 1.5469-1.3164 2.7031-1.5781zm-0.875-3.7969c0 0.91797 0.28516 1.6367 0.85938 2.1562 0.57031 0.51172 1.3789 0.76562 2.4219 0.76562 1.0312 0 1.8359-0.25391 2.4219-0.76562 0.58203-0.51953 0.875-1.2383 0.875-2.1562 0-0.91406-0.29297-1.6289-0.875-2.1406-0.58594-0.51953-1.3906-0.78125-2.4219-0.78125-1.043 0-1.8516 0.26172-2.4219 0.78125-0.57422 0.51172-0.85938 1.2266-0.85938 2.1406z"/>
</symbol>
<symbol id="k" overflow="visible">
<path d="m3.0156-2.0156h3.9219v-13.531l-4.2656 0.85938v-2.1875l4.2344-0.85938h2.4062v15.719h3.9219v2.0156h-10.219z"/>
</symbol>
</defs>
<path d="m140.35 23.562h424.4v389.45h-424.4z" fill="#fff"/>
<path transform="matrix(3.0411 0 0 3.0404 41.764 21.792)" d="m172.22 78.632c-22.102-9.8839-92.141-15.488-114.83-78.049h-24.979v87.909c47.907-2.8021 93.646-2.382 139.81-2.5901z" fill="#ccc" stroke="#000" stroke-width=".75"/>
<path transform="matrix(3.0411 0 0 3.0404 41.764 21.792)" d="m32.166 0.58222v134.43" fill="none" stroke="#000" stroke-width=".75"/>
<path transform="matrix(3.0411 0 0 3.0404 41.764 21.792)" d="m171.97 128.68h-146.14" fill="none" stroke="#000" stroke-width=".74945"/>
<path transform="matrix(3.0411 0 0 3.0404 41.764 21.792)" d="m32.166 0.58222h139.81v128.09h-139.81z" fill="none" stroke="#000" stroke-width="1.5"/>
<path transform="matrix(3.0411 0 0 3.0404 41.764 21.792)" d="m171.97 105.39h-146.14" fill="none" stroke="#000" stroke-width=".74945"/>
<path transform="matrix(3.0411 0 0 3.0404 41.764 21.792)" d="m171.97 82.097h-146.14" fill="none" stroke="#000" stroke-width=".74945"/>
<path transform="matrix(3.0411 0 0 3.0404 41.764 21.792)" d="m171.97 58.806h-146.14" fill="none" stroke="#000" stroke-width=".74945"/>
<path transform="matrix(3.0411 0 0 3.0404 41.764 21.792)" d="m171.97 35.517h-146.14" fill="none" stroke="#000" stroke-width=".74945"/>
<path transform="matrix(3.0411 0 0 3.0404 41.764 21.792)" d="m171.97 12.228h-146.14" fill="none" stroke="#000" stroke-width=".74945"/>
<path transform="matrix(3.0411 0 0 3.0404 41.764 21.792)" d="m171.97 0.58222h-146.14" fill="none" stroke="#000" stroke-width=".74945"/>
<path transform="matrix(3.0411 0 0 3.0404 41.764 21.792)" d="m171.97 117.03h-139.81" fill="none" stroke="#000" stroke-width=".74945"/>
<path transform="matrix(3.0411 0 0 3.0404 41.764 21.792)" d="m171.97 93.741h-139.81" fill="none" stroke="#000" stroke-width=".74945"/>
<path transform="matrix(3.0411 0 0 3.0404 41.764 21.792)" d="m171.97 70.451h-139.81" fill="none" stroke="#000" stroke-width=".74945"/>
<path transform="matrix(3.0411 0 0 3.0404 41.764 21.792)" d="m171.97 47.162h-139.81" fill="none" stroke="#000" stroke-width=".74945"/>
<path transform="matrix(3.0411 0 0 3.0404 41.764 21.792)" d="m171.97 23.872h-139.81" fill="none" stroke="#000" stroke-width=".74945"/>
<path transform="matrix(3.0411 0 0 3.0404 41.764 21.792)" d="m171.97 0.58222v134.43" fill="none" stroke="#000" stroke-width=".75"/>
<path transform="matrix(3.0411 0 0 3.0404 41.764 21.792)" d="m125.37 0.58222v134.43" fill="none" stroke="#000" stroke-width=".75"/>
<path transform="matrix(3.0411 0 0 3.0404 41.764 21.792)" d="m78.769 0.58222v134.43" fill="none" stroke="#000" stroke-width=".75"/>
<g>
<use x="235.59375" y="499.02179" xlink:href="#ag"/>
<use x="262.963772" y="499.02179" xlink:href="#ae"/>
<use x="287.292681" y="499.02179" xlink:href="#j"/>
<use x="308.580476" y="499.02179" xlink:href="#i"/>
<use x="320.744931" y="499.02179" xlink:href="#ad"/>
<use x="332.909385" y="499.02179" xlink:href="#ac"/>
<use x="357.238294" y="499.02179" xlink:href="#i"/>
<use x="369.402748" y="499.02179" xlink:href="#ab"/>
<use x="390.690543" y="499.02179" xlink:href="#j"/>
<use x="411.978339" y="499.02179" xlink:href="#aa"/>
<use x="433.266134" y="499.02179" xlink:href="#z"/>
<use x="448.471702" y="499.02179" xlink:href="#af"/>
</g>
<g>
<use x="39.906863" y="377.980469" xlink:href="#y"/>
<use x="39.906863" y="356.697742" xlink:href="#r"/>
<use x="39.906863" y="347.576574" xlink:href="#q"/>
<use x="39.906863" y="332.374626" xlink:href="#p"/>
<use x="39.906863" y="320.213068" xlink:href="#o"/>
<use x="39.906863" y="305.01112" xlink:href="#n"/>
<use x="39.906863" y="286.768783" xlink:href="#g"/>
<use x="39.906863" y="271.566835" xlink:href="#d"/>
<use x="39.906863" y="256.364888" xlink:href="#c"/>
<use x="39.906863" y="247.243719" xlink:href="#x"/>
<use x="39.906863" y="238.122551" xlink:href="#w"/>
<use x="39.906863" y="225.960993" xlink:href="#v"/>
<use x="39.906863" y="210.759045" xlink:href="#h"/>
<use x="39.906863" y="186.435929" xlink:href="#c"/>
<use x="39.906863" y="177.31476" xlink:href="#d"/>
<use x="39.906863" y="162.112813" xlink:href="#u"/>
<use x="39.906863" y="146.910865" xlink:href="#d"/>
<use x="39.906863" y="131.708917" xlink:href="#c"/>
<use x="39.906863" y="122.587749" xlink:href="#t"/>
<use x="39.906863" y="110.426191" xlink:href="#g"/>
<use x="39.906863" y="95.224243" xlink:href="#h"/>
<use x="39.906863" y="70.901127" xlink:href="#s"/>
</g>
<g>
<use x="124.847656" y="454.323361" xlink:href="#f"/>
<use x="140.053224" y="454.323361" xlink:href="#b"/>
</g>
<g>
<use x="265.972656" y="454.323361" xlink:href="#b"/>
<use x="281.178224" y="454.323361" xlink:href="#a"/>
</g>
<g>
<use x="407.949219" y="454.323361" xlink:href="#b"/>
<use x="423.154787" y="454.323361" xlink:href="#b"/>
</g>
<g>
<use x="549.507812" y="454.323361" xlink:href="#e"/>
<use x="564.71338" y="454.323361" xlink:href="#a"/>
</g>
<g>
<use x="85.808594" y="350.901486" xlink:href="#m"/>
<use x="101.014162" y="350.901486" xlink:href="#a"/>
</g>
<g>
<use x="85.808594" y="280.088986" xlink:href="#f"/>
<use x="101.014162" y="280.088986" xlink:href="#a"/>
</g>
<g>
<use x="85.808594" y="209.280393" xlink:href="#e"/>
<use x="101.014162" y="209.280393" xlink:href="#a"/>
</g>
<g>
<use x="85.808594" y="138.471799" xlink:href="#l"/>
<use x="101.014162" y="138.471799" xlink:href="#a"/>
</g>
<g>
<use x="70.46875" y="67.663205" xlink:href="#k"/>
<use x="85.674318" y="67.663205" xlink:href="#a"/>
<use x="100.879886" y="67.663205" xlink:href="#a"/>
</g>
</svg>
