<?xml version="1.0" encoding="UTF-8"?>
<svg width="800px" height="663px" version="1.1" viewBox="0 0 800 663" xmlns="http://www.w3.org/2000/svg" xmlns:xlink="http://www.w3.org/1999/xlink">
<defs>
<symbol id="r" overflow="visible">
<path d="m7.8594-3.3906h14.094v3.3906h-18.953v-3.3906c1.5312-1.5938 3.6172-3.7227 6.2656-6.3906 2.6445-2.6641 4.3047-4.3906 4.9844-5.1719 1.2891-1.4453 2.1914-2.6719 2.7031-3.6719 0.51953-1.0078 0.78125-2 0.78125-2.9688 0-1.5938-0.55859-2.8828-1.6719-3.875-1.1172-1-2.5625-1.5-4.3438-1.5-1.2734 0-2.6094 0.21875-4.0156 0.65625s-2.9062 1.1055-4.5 2v-4.0781c1.625-0.65625 3.1406-1.1484 4.5469-1.4844 1.4141-0.33203 2.7109-0.5 3.8906-0.5 3.082 0 5.5391 0.77734 7.375 2.3281 1.8438 1.543 2.7656 3.6055 2.7656 6.1875 0 1.2305-0.23047 2.3984-0.6875 3.5-0.46094 1.0938-1.293 2.3867-2.5 3.875-0.33594 0.38672-1.3984 1.5-3.1875 3.3438-1.7812 1.8438-4.2969 4.4297-7.5469 7.75z"/>
</symbol>
<symbol id="q" overflow="visible">
<path d="m16.609-16.078c1.9375 0.40625 3.4453 1.2656 4.5312 2.5781 1.082 1.3047 1.625 2.9141 1.625 4.8281 0 2.9492-1.0156 5.2305-3.0469 6.8438-2.0234 1.6055-4.8984 2.4062-8.625 2.4062-1.25 0-2.543-0.125-3.875-0.375-1.3242-0.23828-2.6875-0.60938-4.0938-1.1094v-3.8906c1.1133 0.65625 2.3359 1.1523 3.6719 1.4844 1.332 0.33594 2.7227 0.5 4.1719 0.5 2.5312 0 4.457-0.5 5.7812-1.5 1.332-1 2-2.4531 2-4.3594 0-1.7578-0.62109-3.1328-1.8594-4.125-1.2305-0.98828-2.9453-1.4844-5.1406-1.4844h-3.4688v-3.3281h3.625c1.9883 0 3.5078-0.39453 4.5625-1.1875 1.0508-0.78906 1.5781-1.9297 1.5781-3.4219 0-1.5312-0.54297-2.7031-1.625-3.5156-1.0859-0.82031-2.6406-1.2344-4.6719-1.2344-1.1055 0-2.293 0.12109-3.5625 0.35938-1.2617 0.24219-2.6523 0.60938-4.1719 1.1094v-3.5938c1.5312-0.42578 2.9609-0.74219 4.2969-0.95312 1.3438-0.21875 2.6094-0.32812 3.7969-0.32812 3.0625 0 5.4844 0.69922 7.2656 2.0938 1.7891 1.3867 2.6875 3.2656 2.6875 5.6406 0 1.6562-0.47656 3.0547-1.4219 4.1875-0.9375 1.1367-2.2812 1.9297-4.0312 2.375z"/>
</symbol>
<symbol id="c" overflow="visible">
<path d="m15.469-26.312-10.188 15.922h10.188zm-1.0625-3.5156h5.0781v19.438h4.2656v3.3594h-4.2656v7.0312h-4.0156v-7.0312h-13.469v-3.9062z"/>
</symbol>
<symbol id="d" overflow="visible">
<path d="m13.516-16.531c-1.8125 0-3.25 0.62109-4.3125 1.8594-1.0625 1.2422-1.5938 2.9375-1.5938 5.0938 0 2.1484 0.53125 3.8438 1.5938 5.0938 1.0625 1.2422 2.5 1.8594 4.3125 1.8594s3.2422-0.61719 4.2969-1.8594c1.0625-1.25 1.5938-2.9453 1.5938-5.0938 0-2.1562-0.53125-3.8516-1.5938-5.0938-1.0547-1.2383-2.4844-1.8594-4.2969-1.8594zm8.0156-12.641v3.6719c-1.0117-0.47656-2.0391-0.84375-3.0781-1.0938-1.0312-0.25-2.0547-0.375-3.0625-0.375-2.668 0-4.7031 0.90234-6.1094 2.7031-1.4062 1.793-2.2109 4.5078-2.4062 8.1406 0.78906-1.1562 1.7734-2.0391 2.9531-2.6562 1.1875-0.625 2.4922-0.9375 3.9219-0.9375 3 0 5.3672 0.91406 7.1094 2.7344 1.7383 1.8125 2.6094 4.2812 2.6094 7.4062 0 3.0742-0.90625 5.5391-2.7188 7.3906-1.8125 1.8438-4.2266 2.7656-7.2344 2.7656-3.4609 0-6.1016-1.3203-7.9219-3.9688-1.8242-2.6445-2.7344-6.4766-2.7344-11.5 0-4.707 1.1172-8.4609 3.3594-11.266 2.2383-2.8125 5.2422-4.2188 9.0156-4.2188 1.0078 0 2.0312 0.10547 3.0625 0.3125 1.0312 0.19922 2.1094 0.49609 3.2344 0.89062z"/>
</symbol>
<symbol id="ab" overflow="visible">
<path d="m3.3594-29.828h19.188v1.7188l-10.828 28.109h-4.2188l10.188-26.438h-14.328z"/>
</symbol>
<symbol id="aa" overflow="visible">
<path d="m4.4219-29.828h15.844v3.3906h-12.156v7.3125c0.59375-0.19531 1.1797-0.34375 1.7656-0.4375 0.58203-0.10156 1.1719-0.15625 1.7656-0.15625 3.3203 0 5.957 0.91406 7.9062 2.7344 1.9453 1.8242 2.9219 4.293 2.9219 7.4062 0 3.2188-1 5.7188-3 7.5-2 1.7734-4.8203 2.6562-8.4531 2.6562-1.25 0-2.5273-0.10938-3.8281-0.32812-1.3047-0.21094-2.6484-0.52344-4.0312-0.95312v-4.0469c1.1953 0.64844 2.4375 1.1328 3.7188 1.4531 1.2812 0.32422 2.6328 0.48438 4.0625 0.48438 2.3008 0 4.125-0.60156 5.4688-1.8125 1.3516-1.2188 2.0312-2.8672 2.0312-4.9531 0-2.0703-0.67969-3.7109-2.0312-4.9219-1.3438-1.2188-3.168-1.8281-5.4688-1.8281-1.0859 0-2.1641 0.12109-3.2344 0.35938-1.0742 0.24219-2.168 0.61719-3.2812 1.125z"/>
</symbol>
<symbol id="p" overflow="visible">
<path d="m2.9219-21.703h13.719v2.4688h-10.781v6.4375h10.328v2.4688h-10.328v7.8594h11.047v2.4688h-13.984z"/>
</symbol>
<symbol id="g" overflow="visible">
<path d="m2.8125-16.281h2.6719v16.281h-2.6719zm0-6.3281h2.6719v3.375h-2.6719z"/>
</symbol>
<symbol id="j" overflow="visible">
<path d="m1.6406-16.281h12.703v2.4375l-10.062 11.703h10.062v2.1406h-13.062v-2.4375l10.062-11.703h-9.7031z"/>
</symbol>
<symbol id="a" overflow="visible">
<path d="m16.734-8.8125v1.3125h-12.297c0.11328 1.8438 0.66406 3.25 1.6562 4.2188 1 0.96094 2.3828 1.4375 4.1562 1.4375 1.0195 0 2.0078-0.125 2.9688-0.375 0.96875-0.25781 1.9297-0.64062 2.8906-1.1406v2.5312c-0.96094 0.40625-1.9453 0.71484-2.9531 0.92188-1.0117 0.21875-2.0312 0.32812-3.0625 0.32812-2.6055 0-4.668-0.75391-6.1875-2.2656-1.5117-1.5078-2.2656-3.5547-2.2656-6.1406 0-2.6562 0.71875-4.7656 2.1562-6.3281 1.4375-1.5703 3.3789-2.3594 5.8281-2.3594 2.1875 0 3.9141 0.71094 5.1875 2.125 1.2812 1.4062 1.9219 3.3203 1.9219 5.7344zm-2.6875-0.78125c-0.011719-1.457-0.41797-2.625-1.2188-3.5-0.80469-0.875-1.8594-1.3125-3.1719-1.3125-1.5 0-2.6992 0.42188-3.5938 1.2656-0.89844 0.84375-1.4141 2.0312-1.5469 3.5625z"/>
</symbol>
<symbol id="b" overflow="visible">
<path d="m2.8125-22.609h2.6719v22.609h-2.6719z"/>
</symbol>
<symbol id="s" overflow="visible"></symbol>
<symbol id="e" overflow="visible">
<path d="m2.5312-6.4219v-9.8594h2.6719v9.75c0 1.543 0.29688 2.6992 0.89062 3.4688 0.60156 0.77344 1.5078 1.1562 2.7188 1.1562 1.4375 0 2.5703-0.45703 3.4062-1.375 0.84375-0.92578 1.2656-2.1797 1.2656-3.7656v-9.2344h2.6719v16.281h-2.6719v-2.5c-0.64844 0.99219-1.4023 1.7266-2.2656 2.2031-0.85547 0.47656-1.8516 0.71875-2.9844 0.71875-1.8672 0-3.2812-0.57812-4.25-1.7344-0.96875-1.1641-1.4531-2.8672-1.4531-5.1094z"/>
</symbol>
<symbol id="n" overflow="visible">
<path d="m16.344-9.8281v9.8281h-2.6875v-9.7344c0-1.5391-0.30469-2.6914-0.90625-3.4531-0.59375-0.76953-1.4922-1.1562-2.6875-1.1562-1.4492 0-2.5898 0.46484-3.4219 1.3906-0.83594 0.91797-1.25 2.168-1.25 3.75v9.2031h-2.6875v-16.281h2.6875v2.5312c0.63281-0.97656 1.3828-1.707 2.25-2.1875 0.875-0.48828 1.8789-0.73438 3.0156-0.73438 1.8633 0 3.2734 0.57812 4.2344 1.7344 0.96875 1.1562 1.4531 2.8594 1.4531 5.1094z"/>
</symbol>
<symbol id="i" overflow="visible">
<path d="m13.516-13.812v-8.7969h2.6719v22.609h-2.6719v-2.4375c-0.5625 0.96875-1.2773 1.6875-2.1406 2.1562-0.85547 0.46875-1.8828 0.70312-3.0781 0.70312-1.9688 0-3.5742-0.78125-4.8125-2.3438-1.2305-1.5703-1.8438-3.6406-1.8438-6.2031s0.61328-4.625 1.8438-6.1875c1.2383-1.5703 2.8438-2.3594 4.8125-2.3594 1.1953 0 2.2227 0.23438 3.0781 0.70312 0.86328 0.46875 1.5781 1.1875 2.1406 2.1562zm-9.1094 5.6875c0 1.9688 0.39844 3.5156 1.2031 4.6406 0.8125 1.1172 1.9258 1.6719 3.3438 1.6719 1.4141 0 2.5312-0.55469 3.3438-1.6719 0.8125-1.125 1.2188-2.6719 1.2188-4.6406s-0.40625-3.5078-1.2188-4.625c-0.8125-1.125-1.9297-1.6875-3.3438-1.6875-1.418 0-2.5312 0.5625-3.3438 1.6875-0.80469 1.1172-1.2031 2.6562-1.2031 4.625z"/>
</symbol>
<symbol id="m" overflow="visible">
<path d="m15.922-20.984v2.8594c-1.1055-0.53125-2.1523-0.92578-3.1406-1.1875-0.99219-0.25781-1.9492-0.39062-2.875-0.39062-1.5938 0-2.8281 0.3125-3.7031 0.9375-0.86719 0.61719-1.2969 1.4961-1.2969 2.6406 0 0.96094 0.28516 1.6836 0.85938 2.1719 0.58203 0.49219 1.6758 0.88281 3.2812 1.1719l1.7812 0.375c2.1875 0.41797 3.8008 1.1523 4.8438 2.2031 1.0391 1.043 1.5625 2.4492 1.5625 4.2188 0 2.1055-0.70312 3.6992-2.1094 4.7812-1.4062 1.0859-3.4766 1.625-6.2031 1.625-1.0234 0-2.1172-0.12109-3.2812-0.35938-1.1562-0.22656-2.3555-0.56641-3.5938-1.0156v-3.0312c1.1953 0.66797 2.3633 1.1719 3.5 1.5156 1.1445 0.33594 2.2695 0.5 3.375 0.5 1.6758 0 2.9688-0.32812 3.875-0.98438 0.91406-0.65625 1.375-1.5938 1.375-2.8125 0-1.0703-0.32812-1.9062-0.98438-2.5-0.65625-0.60156-1.7305-1.0547-3.2188-1.3594l-1.7812-0.34375c-2.1992-0.4375-3.7891-1.1172-4.7656-2.0469-0.96875-0.9375-1.4531-2.2344-1.4531-3.8906 0-1.9141 0.67188-3.4258 2.0156-4.5312 1.3516-1.1016 3.2188-1.6562 5.5938-1.6562 1.0195 0 2.0547 0.09375 3.1094 0.28125 1.0508 0.17969 2.1289 0.45312 3.2344 0.82812z"/>
</symbol>
<symbol id="l" overflow="visible">
<path d="m10.203-8.1875c-2.1562 0-3.6523 0.25-4.4844 0.75-0.83594 0.49219-1.25 1.3359-1.25 2.5312 0 0.94922 0.3125 1.7031 0.9375 2.2656 0.625 0.55469 1.4727 0.82812 2.5469 0.82812 1.4766 0 2.6641-0.52344 3.5625-1.5781 0.89453-1.0508 1.3438-2.4531 1.3438-4.2031v-0.59375zm5.3281-1.0938v9.2812h-2.6719v-2.4688c-0.60547 0.99219-1.3672 1.7188-2.2812 2.1875-0.90625 0.46875-2.0234 0.70312-3.3438 0.70312-1.668 0-2.9961-0.46875-3.9844-1.4062-0.98047-0.9375-1.4688-2.1875-1.4688-3.75 0-1.832 0.61328-3.2109 1.8438-4.1406 1.2266-0.9375 3.0547-1.4062 5.4844-1.4062h3.75v-0.25c0-1.2383-0.40625-2.1914-1.2188-2.8594-0.80469-0.67578-1.9375-1.0156-3.4062-1.0156-0.92969 0-1.8359 0.11719-2.7188 0.34375-0.875 0.21875-1.7188 0.55469-2.5312 1v-2.4688c0.97656-0.38281 1.9258-0.67188 2.8438-0.85938 0.91406-0.1875 1.8125-0.28125 2.6875-0.28125 2.3516 0 4.1094 0.60938 5.2656 1.8281 1.1641 1.2188 1.75 3.0742 1.75 5.5625z"/>
</symbol>
<symbol id="k" overflow="visible">
<path d="m15.484-13.156c0.66406-1.1953 1.4609-2.082 2.3906-2.6562 0.92578-0.57031 2.0195-0.85938 3.2812-0.85938 1.6953 0 3.0039 0.59375 3.9219 1.7812 0.92578 1.1875 1.3906 2.875 1.3906 5.0625v9.8281h-2.6875v-9.7344c0-1.5625-0.27734-2.7188-0.82812-3.4688-0.55469-0.75781-1.3984-1.1406-2.5312-1.1406-1.3867 0-2.4844 0.46484-3.2969 1.3906-0.80469 0.91797-1.2031 2.168-1.2031 3.75v9.2031h-2.6875v-9.7344c0-1.5703-0.27734-2.7344-0.82812-3.4844-0.55469-0.75-1.4023-1.125-2.5469-1.125-1.3672 0-2.4531 0.46484-3.2656 1.3906-0.80469 0.92969-1.2031 2.1797-1.2031 3.75v9.2031h-2.6875v-16.281h2.6875v2.5312c0.61328-1 1.3438-1.7344 2.1875-2.2031 0.85156-0.47656 1.8672-0.71875 3.0469-0.71875 1.1758 0 2.1797 0.30469 3.0156 0.90625 0.83203 0.59375 1.4453 1.4648 1.8438 2.6094z"/>
</symbol>
<symbol id="z" overflow="visible">
<path d="m14.484-8.125c0-1.9688-0.40625-3.5078-1.2188-4.625-0.80469-1.125-1.9141-1.6875-3.3281-1.6875-1.418 0-2.5312 0.5625-3.3438 1.6875-0.80469 1.1172-1.2031 2.6562-1.2031 4.625s0.39844 3.5156 1.2031 4.6406c0.8125 1.1172 1.9258 1.6719 3.3438 1.6719 1.4141 0 2.5234-0.55469 3.3281-1.6719 0.8125-1.125 1.2188-2.6719 1.2188-4.6406zm-9.0938-5.6875c0.5625-0.96875 1.2695-1.6875 2.125-2.1562 0.86328-0.46875 1.8906-0.70312 3.0781-0.70312 1.9766 0 3.582 0.78906 4.8125 2.3594 1.2383 1.5625 1.8594 3.625 1.8594 6.1875s-0.62109 4.6328-1.8594 6.2031c-1.2305 1.5625-2.8359 2.3438-4.8125 2.3438-1.1875 0-2.2148-0.23438-3.0781-0.70312-0.85547-0.46875-1.5625-1.1875-2.125-2.1562v2.4375h-2.6875v-22.609h2.6875z"/>
</symbol>
<symbol id="y" overflow="visible">
<path d="m11.047-22.609v2.2188h-2.5625c-0.96094 0-1.625 0.19531-2 0.57812-0.36719 0.38672-0.54688 1.0859-0.54688 2.0938v1.4375h4.3906v2.0781h-4.3906v14.203h-2.7031v-14.203h-2.5469v-2.0781h2.5469v-1.125c0-1.8125 0.42188-3.1289 1.2656-3.9531 0.84375-0.83203 2.1797-1.25 4.0156-1.25z"/>
</symbol>
<symbol id="x" overflow="visible">
<path d="m12.234-13.781c-0.30469-0.17578-0.63281-0.30078-0.98438-0.375-0.35547-0.082031-0.74219-0.125-1.1562-0.125-1.5234 0-2.6875 0.49219-3.5 1.4688-0.80469 0.98047-1.2031 2.3906-1.2031 4.2344v8.5781h-2.6875v-16.281h2.6875v2.5312c0.5625-0.98828 1.2891-1.7227 2.1875-2.2031 0.90625-0.47656 2.0039-0.71875 3.2969-0.71875 0.17578 0 0.375 0.015625 0.59375 0.046875 0.22656 0.023438 0.47656 0.054688 0.75 0.09375z"/>
</symbol>
<symbol id="w" overflow="visible">
<path d="m14.516-15.656v2.5c-0.75-0.41406-1.5078-0.72656-2.2656-0.9375-0.76172-0.20703-1.5312-0.3125-2.3125-0.3125-1.7305 0-3.0742 0.55469-4.0312 1.6562-0.96094 1.0938-1.4375 2.6367-1.4375 4.625 0 1.9922 0.47656 3.5391 1.4375 4.6406 0.95703 1.0938 2.3008 1.6406 4.0312 1.6406 0.78125 0 1.5508-0.10156 2.3125-0.3125 0.75781-0.20703 1.5156-0.51953 2.2656-0.9375v2.4688c-0.74219 0.34375-1.5117 0.60547-2.3125 0.78125-0.80469 0.17578-1.6523 0.26562-2.5469 0.26562-2.4609 0-4.4141-0.76953-5.8594-2.3125-1.4375-1.5391-2.1562-3.6172-2.1562-6.2344 0-2.6562 0.72656-4.7422 2.1875-6.2656 1.457-1.5195 3.457-2.2812 6-2.2812 0.82031 0 1.625 0.089844 2.4062 0.26562 0.78906 0.16797 1.5508 0.41797 2.2812 0.75z"/>
</symbol>
<symbol id="v" overflow="visible">
<path d="m16.344-9.8281v9.8281h-2.6875v-9.7344c0-1.5391-0.30469-2.6914-0.90625-3.4531-0.59375-0.76953-1.4922-1.1562-2.6875-1.1562-1.4492 0-2.5898 0.46484-3.4219 1.3906-0.83594 0.91797-1.25 2.168-1.25 3.75v9.2031h-2.6875v-22.609h2.6875v8.8594c0.63281-0.97656 1.3828-1.707 2.25-2.1875 0.875-0.48828 1.8789-0.73438 3.0156-0.73438 1.8633 0 3.2734 0.57812 4.2344 1.7344 0.96875 1.1562 1.4531 2.8594 1.4531 5.1094z"/>
</symbol>
<symbol id="h" overflow="visible">
<path d="m5.4531-20.906v4.625h5.5v2.0781h-5.5v8.8438c0 1.3242 0.17969 2.1797 0.54688 2.5625 0.36328 0.375 1.1016 0.5625 2.2188 0.5625h2.7344v2.2344h-2.7344c-2.0742 0-3.5-0.38281-4.2812-1.1562-0.78125-0.76953-1.1719-2.1719-1.1719-4.2031v-8.8438h-1.9688v-2.0781h1.9688v-4.625z"/>
</symbol>
<symbol id="u" overflow="visible">
<path d="m5.7188-2.4688h10.234v2.4688h-13.766v-2.4688c1.1016-1.1562 2.6172-2.7031 4.5469-4.6406 1.9258-1.9453 3.1328-3.2031 3.625-3.7656 0.9375-1.0508 1.5938-1.9414 1.9688-2.6719 0.375-0.73828 0.5625-1.4609 0.5625-2.1719 0-1.1445-0.40625-2.082-1.2188-2.8125-0.80469-0.72656-1.8555-1.0938-3.1562-1.0938-0.91797 0-1.8906 0.16406-2.9219 0.48438-1.0234 0.32422-2.1094 0.80859-3.2656 1.4531v-2.9688c1.1758-0.46875 2.2812-0.82031 3.3125-1.0625 1.0312-0.25 1.9688-0.375 2.8125-0.375 2.25 0 4.0391 0.5625 5.375 1.6875 1.3438 1.125 2.0156 2.625 2.0156 4.5 0 0.89844-0.16797 1.7461-0.5 2.5469-0.33594 0.79297-0.94531 1.7344-1.8281 2.8281-0.24219 0.28125-1.0117 1.0938-2.3125 2.4375-1.293 1.3359-3.1211 3.2109-5.4844 5.625z"/>
</symbol>
<symbol id="f" overflow="visible">
<path d="m1.4531-9.3438h7.8281v2.375h-7.8281z"/>
</symbol>
<symbol id="o" overflow="visible">
<path d="m1.6719-21.703h17.047v2.2344l-13.719 17h14.047v2.4688h-17.703v-2.2344l13.719-17h-13.391z"/>
</symbol>
<symbol id="t" overflow="visible">
<path d="m11.25-19.141-7.4062 11.578h7.4062zm-0.76562-2.5625h3.6875v14.141h3.0938v2.4531h-3.0938v5.1094h-2.9219v-5.1094h-9.7969v-2.8438z"/>
</symbol>
</defs>
<path transform="matrix(3.7212 0 0 3.7201 18.925 26.118)" d="m34.805 50.291c0 6.6278-5.3725 12-11.999 12-6.628 0-12-5.372-12-12 0-6.6278 5.3725-12 12-12 6.6269 0 11.999 5.372 11.999 12z" fill="#ccc" stroke="#000"/>
<path transform="matrix(3.7212 0 0 3.7201 18.925 26.118)" d="m34.805 90.104c0 6.6278-5.3725 12-11.999 12-6.628 0-12-5.372-12-12s5.3725-12 12-12c6.6269 0 11.999 5.372 11.999 12z" fill="#ccc" stroke="#000"/>
<path transform="matrix(3.7212 0 0 3.7201 18.925 26.118)" d="m89.983 70.197c0 6.6278-5.3725 12.001-12 12.001-6.6269 0-11.999-5.373-11.999-12.001 0-6.6268 5.3725-12 11.999-12 6.628 0 12 5.373 12 12z" fill="#ccc" stroke="#000"/>
<path transform="matrix(3.7212 0 0 3.7201 18.925 26.118)" d="m145.29 30.52c0 6.6278-5.3725 12-12 12-6.6269 0-11.999-5.372-11.999-12s5.3725-12 11.999-12c6.628 0 12 5.372 12 12z" fill="#ccc" stroke="#000"/>
<path transform="matrix(3.7212 0 0 3.7201 18.925 26.118)" d="m145.29 109.87c0 6.6278-5.3725 12-12 12-6.6269 0-11.999-5.372-11.999-12s5.3725-12 11.999-12c6.628 0 12 5.372 12 12z" fill="#ccc" stroke="#000"/>
<path transform="matrix(3.7212 0 0 3.7201 18.925 26.118)" d="m200.78 129.92c0 6.6268-5.3725 12-11.999 12-6.628 0-12-5.373-12-12 0-6.6278 5.3725-12 12-12 6.6269 0 11.999 5.372 11.999 12z" fill="#fff" stroke="#000"/>
<path transform="matrix(3.7212 0 0 3.7201 18.925 26.118)" d="m200.78 90.104c0 6.6278-5.3725 12-11.999 12-6.628 0-12-5.372-12-12s5.3725-12 12-12c6.6269 0 11.999 5.372 11.999 12z" fill="#333" stroke="#000"/>
<path transform="matrix(3.7212 0 0 3.7201 18.925 26.118)" d="m200.78 50.291c0 6.6278-5.3725 12-11.999 12-6.628 0-12-5.372-12-12 0-6.6278 5.3725-12 12-12 6.6269 0 11.999 5.372 11.999 12z" fill="#ccc" stroke="#000"/>
<path transform="matrix(3.7212 0 0 3.7201 18.925 26.118)" d="m200.78 10.479c0 6.6278-5.3725 12-11.999 12-6.628 0-12-5.372-12-12s5.3725-12 12-12c6.6269 0 11.999 5.372 11.999 12z" fill="#ccc" stroke="#000"/>
<g>
<use x="77.886719" y="228.103187" xlink:href="#r"/>
<use x="103.93517" y="228.103187" xlink:href="#q"/>
</g>
<g>
<use x="77.886719" y="376.208656" xlink:href="#r"/>
<use x="103.93517" y="376.208656" xlink:href="#q"/>
</g>
<g>
<use x="489.15625" y="154.552406" xlink:href="#c"/>
<use x="515.204701" y="154.552406" xlink:href="#d"/>
</g>
<g>
<use x="695.644531" y="79.997718" xlink:href="#c"/>
<use x="721.692982" y="79.997718" xlink:href="#d"/>
</g>
<g>
<use x="695.644531" y="228.103187" xlink:href="#c"/>
<use x="721.692982" y="228.103187" xlink:href="#d"/>
</g>
<g fill="#fff">
<use x="696.105469" y="376.228187" xlink:href="#c"/>
<use x="722.15392" y="376.228187" xlink:href="#ab"/>
</g>
<g>
<use x="696.144531" y="524.044593" xlink:href="#c"/>
<use x="722.192982" y="524.044593" xlink:href="#aa"/>
</g>
<g>
<use x="489.15625" y="449.759437" xlink:href="#c"/>
<use x="515.204701" y="449.759437" xlink:href="#d"/>
</g>
<g>
<use x="283.359375" y="302.153968" xlink:href="#c"/>
<use x="309.407826" y="302.153968" xlink:href="#d"/>
</g>
<g>
<use x="23.59375" y="601.874662" xlink:href="#p"/>
<use x="42.199786" y="601.874662" xlink:href="#g"/>
<use x="49.642201" y="601.874662" xlink:href="#j"/>
<use x="64.52703" y="601.874662" xlink:href="#a"/>
<use x="83.133066" y="601.874662" xlink:href="#b"/>
<use x="90.575481" y="601.874662" xlink:href="#b"/>
<use x="98.017895" y="601.874662" xlink:href="#a"/>
<use x="116.623931" y="601.874662" xlink:href="#s"/>
<use x="127.787553" y="601.874662" xlink:href="#e"/>
<use x="146.39359" y="601.874662" xlink:href="#n"/>
<use x="164.999626" y="601.874662" xlink:href="#i"/>
</g>
<g>
<use x="18.011719" y="639.073881" xlink:href="#m"/>
<use x="36.617755" y="639.073881" xlink:href="#l"/>
<use x="55.223791" y="639.073881" xlink:href="#k"/>
<use x="84.993449" y="639.073881" xlink:href="#a"/>
<use x="103.599486" y="639.073881" xlink:href="#n"/>
<use x="122.205522" y="639.073881" xlink:href="#j"/>
<use x="137.090351" y="639.073881" xlink:href="#a"/>
<use x="155.696387" y="639.073881" xlink:href="#b"/>
<use x="163.138802" y="639.073881" xlink:href="#b"/>
<use x="170.581216" y="639.073881" xlink:href="#a"/>
</g>
<g>
<use x="222.964844" y="601.874662" xlink:href="#z"/>
<use x="241.57088" y="601.874662" xlink:href="#a"/>
<use x="260.176916" y="601.874662" xlink:href="#y"/>
<use x="271.340538" y="601.874662" xlink:href="#x"/>
<use x="282.50416" y="601.874662" xlink:href="#e"/>
<use x="301.110196" y="601.874662" xlink:href="#w"/>
<use x="315.995025" y="601.874662" xlink:href="#v"/>
<use x="334.601062" y="601.874662" xlink:href="#h"/>
<use x="345.764683" y="601.874662" xlink:href="#a"/>
<use x="364.37072" y="601.874662" xlink:href="#h"/>
<use x="375.534341" y="601.874662" xlink:href="#a"/>
</g>
<g>
<use x="262.039062" y="639.073881" xlink:href="#p"/>
<use x="280.645099" y="639.073881" xlink:href="#g"/>
<use x="288.087513" y="639.073881" xlink:href="#j"/>
<use x="302.972342" y="639.073881" xlink:href="#a"/>
<use x="321.578379" y="639.073881" xlink:href="#b"/>
<use x="329.020793" y="639.073881" xlink:href="#b"/>
<use x="336.463208" y="639.073881" xlink:href="#a"/>
</g>
<g>
<use x="468.675781" y="601.874662" xlink:href="#u"/>
<use x="487.281818" y="601.874662" xlink:href="#f"/>
<use x="498.445439" y="601.874662" xlink:href="#o"/>
<use x="517.051476" y="601.874662" xlink:href="#a"/>
<use x="535.657512" y="601.874662" xlink:href="#b"/>
<use x="543.099926" y="601.874662" xlink:href="#b"/>
<use x="550.542341" y="601.874662" xlink:href="#f"/>
</g>
<g>
<use x="453.792969" y="639.073881" xlink:href="#m"/>
<use x="472.399005" y="639.073881" xlink:href="#h"/>
<use x="483.562627" y="639.073881" xlink:href="#l"/>
<use x="502.168663" y="639.073881" xlink:href="#i"/>
<use x="520.774699" y="639.073881" xlink:href="#g"/>
<use x="528.217114" y="639.073881" xlink:href="#e"/>
<use x="546.82315" y="639.073881" xlink:href="#k"/>
</g>
<g>
<use x="675.167969" y="601.874662" xlink:href="#t"/>
<use x="693.774005" y="601.874662" xlink:href="#f"/>
<use x="704.937627" y="601.874662" xlink:href="#o"/>
<use x="723.543663" y="601.874662" xlink:href="#a"/>
<use x="742.149699" y="601.874662" xlink:href="#b"/>
<use x="749.592114" y="601.874662" xlink:href="#b"/>
<use x="757.034528" y="601.874662" xlink:href="#f"/>
</g>
<g>
<use x="660.28125" y="639.073881" xlink:href="#m"/>
<use x="678.887286" y="639.073881" xlink:href="#h"/>
<use x="690.050908" y="639.073881" xlink:href="#l"/>
<use x="708.656944" y="639.073881" xlink:href="#i"/>
<use x="727.262981" y="639.073881" xlink:href="#g"/>
<use x="734.705395" y="639.073881" xlink:href="#e"/>
<use x="753.311431" y="639.073881" xlink:href="#k"/>
</g>
<path transform="matrix(3.7212 0 0 3.7201 18.925 26.118)" d="m34.184 54.106 34.032 9.1185" fill="none" stroke="#000"/>
<path d="m258.39 257.47-9.1172 5.2617 27.086-0.44531-23.234-13.926z" fill-rule="evenodd"/>
<path transform="matrix(3.7212 0 0 3.7201 18.925 26.118)" d="m34.509 87.453 34.532-9.2529" fill="none" stroke="#000"/>
<path d="m261.46 320.88-5.2656 9.1133 23.234-13.926-27.086-0.44922z" fill-rule="evenodd"/>
<path transform="matrix(3.7212 0 0 3.7201 18.925 26.118)" d="m87.73 63.198 33.59-33.59" fill="none" stroke="#000"/>
<path d="m459.86 146.79v10.523l13.16-23.676-23.684 13.152z" fill-rule="evenodd"/>
<path transform="matrix(3.7212 0 0 3.7201 18.925 26.118)" d="m86.838 78.296 34.923 34.924" fill="none" stroke="#000"/>
<path d="m461.5 436.79h-10.527l23.684 13.152-13.156-23.676z" fill-rule="evenodd"/>
<path transform="matrix(3.7212 0 0 3.7201 18.925 26.118)" d="m144.49 105.58 34.097-9.1364" fill="none" stroke="#000"/>
<path d="m669.11 388.76-5.2617 9.1094 23.234-13.926-27.086-0.44531z" fill-rule="evenodd"/>
<path transform="matrix(3.7212 0 0 3.7201 18.925 26.118)" d="m144.17 114.92 34.126 9.1437" fill="none" stroke="#000"/>
<path d="m668.03 483.81-9.1133 5.2578 27.086-0.44531-23.234-13.926z" fill-rule="evenodd"/>
<path transform="matrix(3.7212 0 0 3.7201 18.925 26.118)" d="m144.21 35.476 34.004 9.1112" fill="none" stroke="#000"/>
<path d="m667.73 188.14-9.1172 5.2617 27.086-0.44531-23.234-13.93z" fill-rule="evenodd"/>
<path transform="matrix(3.7212 0 0 3.7201 18.925 26.118)" d="m144.22 25.575 34.135-9.1458" fill="none" stroke="#000"/>
<path d="m668.24 91.086-5.2617 9.1094 23.234-13.926-27.086-0.44531z" fill-rule="evenodd"/>
</svg>
