<?xml version="1.0" encoding="UTF-8"?>
<svg width="800px" height="660px" version="1.1" viewBox="0 0 800 660" xmlns="http://www.w3.org/2000/svg" xmlns:xlink="http://www.w3.org/1999/xlink">
<defs>
<symbol id="q" overflow="visible">
<path d="m7.875-3.4062h14.109v3.4062h-18.984v-3.4062c1.5391-1.582 3.6328-3.7109 6.2812-6.3906 2.6445-2.6758 4.3125-4.4062 5-5.1875 1.2891-1.4453 2.1914-2.6758 2.7031-3.6875 0.50781-1.0078 0.76562-2.0039 0.76562-2.9844 0-1.582-0.55859-2.875-1.6719-3.875-1.1055-1-2.5547-1.5-4.3438-1.5-1.2734 0-2.6094 0.21875-4.0156 0.65625s-2.9141 1.1055-4.5156 2v-4.0781c1.625-0.65625 3.1445-1.1484 4.5625-1.4844 1.4141-0.33203 2.7109-0.5 3.8906-0.5 3.0938 0 5.5625 0.77734 7.4062 2.3281 1.8438 1.543 2.7656 3.6094 2.7656 6.2031 0 1.2305-0.23438 2.3984-0.70312 3.5-0.46094 1.0938-1.293 2.3906-2.5 3.8906-0.33594 0.38672-1.3984 1.5078-3.1875 3.3594-1.793 1.8438-4.3125 4.4297-7.5625 7.75z"/>
</symbol>
<symbol id="z" overflow="visible">
<path d="m16.641-16.125c1.9375 0.41797 3.4453 1.2812 4.5312 2.5938 1.082 1.3047 1.625 2.918 1.625 4.8438 0 2.9492-1.0156 5.2305-3.0469 6.8438-2.0234 1.6172-4.9023 2.4219-8.6406 2.4219-1.25 0-2.543-0.125-3.875-0.375-1.3242-0.23828-2.6953-0.60938-4.1094-1.1094v-3.9062c1.125 0.65625 2.3516 1.1523 3.6875 1.4844 1.332 0.33594 2.7227 0.5 4.1719 0.5 2.5391 0 4.4727-0.5 5.7969-1.5 1.332-1 2-2.4531 2-4.3594 0-1.7578-0.62109-3.1328-1.8594-4.125-1.2305-1-2.9492-1.5-5.1562-1.5h-3.4844v-3.3281h3.6562c1.9883 0 3.5078-0.39453 4.5625-1.1875 1.0508-0.80078 1.5781-1.9453 1.5781-3.4375 0-1.5391-0.54688-2.7188-1.6406-3.5312-1.0859-0.82031-2.6406-1.2344-4.6719-1.2344-1.1055 0-2.293 0.12109-3.5625 0.35938-1.2617 0.24219-2.6523 0.61719-4.1719 1.125v-3.6094c1.5312-0.42578 2.9609-0.74219 4.2969-0.95312 1.3438-0.21875 2.6094-0.32812 3.7969-0.32812 3.0703 0 5.5039 0.69922 7.2969 2.0938 1.7891 1.3984 2.6875 3.2812 2.6875 5.6562 0 1.6562-0.47656 3.0586-1.4219 4.2031-0.94922 1.1367-2.2969 1.9219-4.0469 2.3594z"/>
</symbol>
<symbol id="c" overflow="visible">
<path d="m15.5-26.375-10.219 15.953h10.219zm-1.0625-3.5312h5.0781v19.484h4.2656v3.375h-4.2656v7.0469h-4.0156v-7.0469h-13.5v-3.9062z"/>
</symbol>
<symbol id="d" overflow="visible">
<path d="m3.3594-29.906h19.219v1.7344l-10.844 28.172h-4.2344l10.219-26.5h-14.359z"/>
</symbol>
<symbol id="p" overflow="visible">
<path d="m2.9219-21.75h13.75v2.4844h-10.812v6.4375h10.359v2.4688h-10.359v7.8906h11.062v2.4688h-14z"/>
</symbol>
<symbol id="g" overflow="visible">
<path d="m2.8125-16.312h2.6719v16.312h-2.6719zm0-6.3438h2.6719v3.3906h-2.6719z"/>
</symbol>
<symbol id="j" overflow="visible">
<path d="m1.6406-16.312h12.734v2.4531l-10.078 11.719h10.078v2.1406h-13.094v-2.4531l10.078-11.719h-9.7188z"/>
</symbol>
<symbol id="a" overflow="visible">
<path d="m16.75-8.8281v1.3125h-12.312c0.11328 1.8438 0.66406 3.25 1.6562 4.2188 1 0.96875 2.3906 1.4531 4.1719 1.4531 1.0312 0 2.0234-0.125 2.9844-0.375 0.96875-0.25781 1.9258-0.64062 2.875-1.1406v2.5312c-0.96094 0.40625-1.9453 0.71484-2.9531 0.92188-1.0117 0.21875-2.0312 0.32812-3.0625 0.32812-2.6055 0-4.668-0.75391-6.1875-2.2656-1.5234-1.5195-2.2812-3.5703-2.2812-6.1562 0-2.6641 0.71875-4.7812 2.1562-6.3438 1.4453-1.5703 3.3945-2.3594 5.8438-2.3594 2.1875 0 3.9141 0.71094 5.1875 2.125 1.2812 1.4062 1.9219 3.3242 1.9219 5.75zm-2.6719-0.78125c-0.023437-1.4688-0.43359-2.6406-1.2344-3.5156-0.80469-0.875-1.8594-1.3125-3.1719-1.3125-1.5 0-2.6992 0.42188-3.5938 1.2656-0.89844 0.84375-1.4141 2.0391-1.5469 3.5781z"/>
</symbol>
<symbol id="b" overflow="visible">
<path d="m2.8125-22.656h2.6719v22.656h-2.6719z"/>
</symbol>
<symbol id="r" overflow="visible"></symbol>
<symbol id="e" overflow="visible">
<path d="m2.5312-6.4375v-9.875h2.6875v9.7656c0 1.5547 0.29688 2.7148 0.89062 3.4844 0.60156 0.77344 1.5078 1.1562 2.7188 1.1562 1.4375 0 2.5781-0.45703 3.4219-1.375 0.84375-0.92578 1.2656-2.1875 1.2656-3.7812v-9.25h2.6719v16.312h-2.6719v-2.5c-0.65625 0.99219-1.418 1.7266-2.2812 2.2031-0.85547 0.47656-1.8516 0.71875-2.9844 0.71875-1.875 0-3.2969-0.58203-4.2656-1.75-0.96875-1.1641-1.4531-2.8672-1.4531-5.1094z"/>
</symbol>
<symbol id="n" overflow="visible">
<path d="m16.359-9.8438v9.8438h-2.6719v-9.7656c0-1.5391-0.30469-2.6914-0.90625-3.4531-0.60547-0.76953-1.5078-1.1562-2.7031-1.1562-1.4492 0-2.5898 0.46484-3.4219 1.3906-0.83594 0.91797-1.25 2.1719-1.25 3.7656v9.2188h-2.7031v-16.312h2.7031v2.5312c0.63281-0.97656 1.3828-1.707 2.25-2.1875 0.875-0.48828 1.8789-0.73438 3.0156-0.73438 1.875 0 3.2891 0.58594 4.25 1.75 0.95703 1.1562 1.4375 2.8594 1.4375 5.1094z"/>
</symbol>
<symbol id="i" overflow="visible">
<path d="m13.531-13.844v-8.8125h2.6875v22.656h-2.6875v-2.4531c-0.5625 0.98047-1.2773 1.7031-2.1406 2.1719-0.85547 0.46875-1.8828 0.70312-3.0781 0.70312-1.9688 0-3.5742-0.78516-4.8125-2.3594-1.2422-1.5703-1.8594-3.6406-1.8594-6.2031s0.61719-4.6289 1.8594-6.2031c1.2383-1.5703 2.8438-2.3594 4.8125-2.3594 1.1953 0 2.2227 0.23438 3.0781 0.70312 0.86328 0.46875 1.5781 1.1875 2.1406 2.1562zm-9.125 5.7031c0 1.9688 0.40625 3.5156 1.2188 4.6406 0.8125 1.1172 1.9258 1.6719 3.3438 1.6719 1.4141 0 2.5312-0.55469 3.3438-1.6719 0.8125-1.125 1.2188-2.6719 1.2188-4.6406s-0.40625-3.5156-1.2188-4.6406-1.9297-1.6875-3.3438-1.6875c-1.418 0-2.5312 0.5625-3.3438 1.6875s-1.2188 2.6719-1.2188 4.6406z"/>
</symbol>
<symbol id="m" overflow="visible">
<path d="m15.953-21.031v2.875c-1.1172-0.53906-2.168-0.94141-3.1562-1.2031-0.99219-0.25781-1.9492-0.39062-2.875-0.39062-1.5938 0-2.8281 0.3125-3.7031 0.9375-0.86719 0.61719-1.2969 1.4961-1.2969 2.6406 0 0.96875 0.28516 1.6992 0.85938 2.1875 0.58203 0.49219 1.6758 0.88672 3.2812 1.1875l1.7812 0.35938c2.1953 0.41797 3.8164 1.1523 4.8594 2.2031 1.0391 1.0547 1.5625 2.4648 1.5625 4.2344 0 2.1055-0.71094 3.7031-2.125 4.7969-1.4062 1.0859-3.4766 1.625-6.2031 1.625-1.0312 0-2.125-0.12109-3.2812-0.35938-1.1562-0.22656-2.3594-0.57031-3.6094-1.0312v-3.0156c1.1953 0.66797 2.3672 1.1719 3.5156 1.5156 1.1445 0.33594 2.2695 0.5 3.375 0.5 1.6758 0 2.9688-0.32812 3.875-0.98438 0.91406-0.66406 1.375-1.6094 1.375-2.8281 0-1.0703-0.32812-1.9062-0.98438-2.5-0.64844-0.60156-1.7188-1.0547-3.2188-1.3594l-1.7812-0.34375c-2.1992-0.4375-3.7891-1.1172-4.7656-2.0469-0.98047-0.9375-1.4688-2.2383-1.4688-3.9062 0-1.9141 0.67578-3.4258 2.0312-4.5312 1.3516-1.1133 3.2188-1.6719 5.5938-1.6719 1.0195 0 2.0547 0.09375 3.1094 0.28125 1.0625 0.1875 2.1445 0.46484 3.25 0.82812z"/>
</symbol>
<symbol id="l" overflow="visible">
<path d="m10.219-8.2031c-2.168 0-3.668 0.25-4.5 0.75-0.83594 0.49219-1.25 1.3359-1.25 2.5312 0 0.94922 0.3125 1.7031 0.9375 2.2656 0.625 0.55469 1.4766 0.82812 2.5625 0.82812 1.4766 0 2.6641-0.52344 3.5625-1.5781 0.90625-1.0508 1.3594-2.4531 1.3594-4.2031v-0.59375zm5.3438-1.1094v9.3125h-2.6719v-2.4688c-0.61719 0.99219-1.3828 1.7188-2.2969 2.1875-0.90625 0.46875-2.0234 0.70312-3.3438 0.70312-1.668 0-2.9961-0.46875-3.9844-1.4062-0.98047-0.9375-1.4688-2.1914-1.4688-3.7656 0-1.832 0.60938-3.2109 1.8281-4.1406 1.2266-0.9375 3.0625-1.4062 5.5-1.4062h3.7656v-0.26562c0-1.2266-0.40625-2.1797-1.2188-2.8594-0.8125-0.67578-1.9531-1.0156-3.4219-1.0156-0.92969 0-1.8359 0.11719-2.7188 0.34375-0.88672 0.21875-1.7344 0.55469-2.5469 1v-2.4688c0.97656-0.38281 1.9258-0.67188 2.8438-0.85938 0.92578-0.1875 1.8281-0.28125 2.7031-0.28125 2.3516 0 4.1133 0.61719 5.2812 1.8438 1.1641 1.2188 1.75 3.0703 1.75 5.5469z"/>
</symbol>
<symbol id="k" overflow="visible">
<path d="m15.5-13.188c0.66406-1.1953 1.4609-2.082 2.3906-2.6562 0.9375-0.57031 2.0352-0.85938 3.2969-0.85938 1.707 0 3.0195 0.59375 3.9375 1.7812 0.92578 1.1875 1.3906 2.8828 1.3906 5.0781v9.8438h-2.7031v-9.7656c0-1.5625-0.27734-2.7188-0.82812-3.4688-0.55469-0.75781-1.3984-1.1406-2.5312-1.1406-1.3867 0-2.4844 0.46484-3.2969 1.3906-0.80469 0.91797-1.2031 2.1719-1.2031 3.7656v9.2188h-2.6875v-9.7656c0-1.5703-0.27734-2.7344-0.82812-3.4844-0.55469-0.75-1.4062-1.125-2.5625-1.125-1.375 0-2.4648 0.46484-3.2656 1.3906-0.80469 0.92969-1.2031 2.1836-1.2031 3.7656v9.2188h-2.7031v-16.312h2.7031v2.5312c0.60156-1 1.332-1.7344 2.1875-2.2031 0.85156-0.47656 1.8672-0.71875 3.0469-0.71875 1.1875 0 2.1914 0.30469 3.0156 0.90625 0.83203 0.59375 1.4453 1.4648 1.8438 2.6094z"/>
</symbol>
<symbol id="y" overflow="visible">
<path d="m14.516-8.1406c0-1.9688-0.40625-3.5156-1.2188-4.6406s-1.9297-1.6875-3.3438-1.6875c-1.418 0-2.5312 0.5625-3.3438 1.6875-0.80469 1.125-1.2031 2.6719-1.2031 4.6406s0.39844 3.5156 1.2031 4.6406c0.8125 1.1172 1.9258 1.6719 3.3438 1.6719 1.4141 0 2.5312-0.55469 3.3438-1.6719 0.8125-1.125 1.2188-2.6719 1.2188-4.6406zm-9.1094-5.7031c0.5625-0.96875 1.2695-1.6875 2.125-2.1562 0.86328-0.46875 1.8906-0.70312 3.0781-0.70312 1.9766 0 3.5859 0.78906 4.8281 2.3594 1.2383 1.5742 1.8594 3.6406 1.8594 6.2031s-0.62109 4.6328-1.8594 6.2031c-1.2422 1.5742-2.8516 2.3594-4.8281 2.3594-1.1875 0-2.2148-0.23438-3.0781-0.70312-0.85547-0.46875-1.5625-1.1914-2.125-2.1719v2.4531h-2.7031v-22.656h2.7031z"/>
</symbol>
<symbol id="x" overflow="visible">
<path d="m11.062-22.656v2.2188h-2.5625c-0.96094 0-1.625 0.19922-2 0.59375-0.375 0.38672-0.5625 1.0859-0.5625 2.0938v1.4375h4.4062v2.0781h-4.4062v14.234h-2.6875v-14.234h-2.5625v-2.0781h2.5625v-1.1406c0-1.8125 0.42188-3.1289 1.2656-3.9531 0.84375-0.83203 2.1797-1.25 4.0156-1.25z"/>
</symbol>
<symbol id="w" overflow="visible">
<path d="m12.25-13.812c-0.29297-0.16406-0.61719-0.28906-0.96875-0.375-0.35547-0.082031-0.74609-0.125-1.1719-0.125-1.5234 0-2.6875 0.49609-3.5 1.4844-0.80469 0.98047-1.2031 2.3906-1.2031 4.2344v8.5938h-2.7031v-16.312h2.7031v2.5312c0.5625-0.98828 1.2891-1.7227 2.1875-2.2031 0.90625-0.47656 2.0039-0.71875 3.2969-0.71875 0.1875 0 0.39062 0.015625 0.60938 0.046875 0.21875 0.023438 0.46875 0.054688 0.75 0.09375z"/>
</symbol>
<symbol id="v" overflow="visible">
<path d="m14.547-15.688v2.5c-0.76172-0.41406-1.5234-0.72656-2.2812-0.9375-0.76172-0.20703-1.5312-0.3125-2.3125-0.3125-1.7422 0-3.0898 0.55469-4.0469 1.6562-0.96094 1.1055-1.4375 2.6523-1.4375 4.6406 0 1.9922 0.47656 3.5391 1.4375 4.6406 0.95703 1.1055 2.3047 1.6562 4.0469 1.6562 0.78125 0 1.5508-0.10156 2.3125-0.3125 0.75781-0.20703 1.5195-0.52344 2.2812-0.95312v2.4844c-0.75 0.34375-1.5273 0.60547-2.3281 0.78125-0.80469 0.17578-1.6523 0.26562-2.5469 0.26562-2.4609 0-4.4141-0.76953-5.8594-2.3125-1.4492-1.5391-2.1719-3.625-2.1719-6.25 0-2.6562 0.72656-4.7422 2.1875-6.2656 1.4688-1.5312 3.4727-2.2969 6.0156-2.2969 0.82031 0 1.625 0.085937 2.4062 0.25 0.78906 0.16797 1.5547 0.42188 2.2969 0.76562z"/>
</symbol>
<symbol id="u" overflow="visible">
<path d="m16.359-9.8438v9.8438h-2.6719v-9.7656c0-1.5391-0.30469-2.6914-0.90625-3.4531-0.60547-0.76953-1.5078-1.1562-2.7031-1.1562-1.4492 0-2.5898 0.46484-3.4219 1.3906-0.83594 0.91797-1.25 2.1719-1.25 3.7656v9.2188h-2.7031v-22.656h2.7031v8.875c0.63281-0.97656 1.3828-1.707 2.25-2.1875 0.875-0.48828 1.8789-0.73438 3.0156-0.73438 1.875 0 3.2891 0.58594 4.25 1.75 0.95703 1.1562 1.4375 2.8594 1.4375 5.1094z"/>
</symbol>
<symbol id="h" overflow="visible">
<path d="m5.4531-20.938v4.625h5.5156v2.0781h-5.5156v8.8594c0 1.3359 0.17969 2.1875 0.54688 2.5625 0.36328 0.375 1.1016 0.5625 2.2188 0.5625h2.75v2.25h-2.75c-2.0625 0-3.4922-0.38281-4.2812-1.1562-0.78125-0.76953-1.1719-2.1758-1.1719-4.2188v-8.8594h-1.9688v-2.0781h1.9688v-4.625z"/>
</symbol>
<symbol id="t" overflow="visible">
<path d="m5.7188-2.4688h10.266v2.4688h-13.797v-2.4688c1.1133-1.1562 2.6328-2.707 4.5625-4.6562 1.9258-1.9453 3.1328-3.2031 3.625-3.7656 0.94531-1.0625 1.6016-1.957 1.9688-2.6875 0.375-0.73828 0.5625-1.4609 0.5625-2.1719 0-1.1562-0.40625-2.0938-1.2188-2.8125-0.80469-0.72656-1.8555-1.0938-3.1562-1.0938-0.92969 0-1.9023 0.16406-2.9219 0.48438-1.0234 0.3125-2.1172 0.79688-3.2812 1.4531v-2.9844c1.1875-0.46875 2.2891-0.82031 3.3125-1.0625 1.0312-0.25 1.9727-0.375 2.8281-0.375 2.25 0 4.0391 0.5625 5.375 1.6875 1.3438 1.125 2.0156 2.6328 2.0156 4.5156 0 0.89844-0.16797 1.7461-0.5 2.5469-0.33594 0.80469-0.94531 1.7461-1.8281 2.8281-0.24219 0.28125-1.0117 1.0938-2.3125 2.4375-1.3047 1.3438-3.1367 3.2305-5.5 5.6562z"/>
</symbol>
<symbol id="f" overflow="visible">
<path d="m1.4531-9.3594h7.8438v2.3906h-7.8438z"/>
</symbol>
<symbol id="o" overflow="visible">
<path d="m1.6719-21.75h17.078v2.25l-13.75 17.031h14.078v2.4688h-17.734v-2.25l13.734-17.016h-13.406z"/>
</symbol>
<symbol id="s" overflow="visible">
<path d="m11.266-19.188-7.4219 11.609h7.4219zm-0.76562-2.5625h3.6875v14.172h3.1094v2.4531h-3.1094v5.125h-2.9219v-5.125h-9.8125v-2.8438z"/>
</symbol>
</defs>
<path transform="matrix(3.7269 0 0 3.7286 14.89 19.563)" d="m35.656 52.12c0 6.6275-5.3727 12-12 12-6.6273 0-12-5.3724-12-12s5.3727-12 12-12c6.6273 0 12 5.3724 12 12z" fill="#ccc" stroke="#000"/>
<path transform="matrix(3.7269 0 0 3.7286 14.89 19.563)" d="m35.656 91.932c0 6.6275-5.3727 12-12 12-6.6273 0-12-5.3724-12-12s5.3727-12 12-12c6.6273 0 12 5.3724 12 12z" fill="#333" stroke="#000"/>
<path transform="matrix(3.7269 0 0 3.7286 14.89 19.563)" d="m90.832 72.026c0 6.6275-5.3727 12-12 12-6.6273 0-12-5.3724-12-12s5.3727-12 12-12c6.6273 0 12 5.3724 12 12z" fill="#333" stroke="#000"/>
<path transform="matrix(3.7269 0 0 3.7286 14.89 19.563)" d="m146.14 32.349c0 6.6264-5.3727 12-12 12-6.6273 0-12-5.3734-12-12 0-6.6275 5.3727-12.001 12-12.001 6.6273 0 12 5.3734 12 12.001z" fill="#333" stroke="#000"/>
<path transform="matrix(3.7269 0 0 3.7286 14.89 19.563)" d="m146.14 111.7c0 6.6275-5.3727 12-12 12-6.6273 0-12-5.3724-12-12 0-6.6275 5.3727-12 12-12 6.6273 0 12 5.3724 12 12z" fill="#333" stroke="#000"/>
<path transform="matrix(3.7269 0 0 3.7286 14.89 19.563)" d="m201.63 131.74c0 6.6275-5.3727 12-12 12-6.6273 0-12-5.3724-12-12s5.3727-12 12-12c6.6273 0 12 5.3724 12 12z" fill="#333" stroke="#000"/>
<path transform="matrix(3.7269 0 0 3.7286 14.89 19.563)" d="m201.63 91.932c0 6.6275-5.3727 12-12 12-6.6273 0-12-5.3724-12-12s5.3727-12 12-12c6.6273 0 12 5.3724 12 12z" fill="#333" stroke="#000"/>
<path transform="matrix(3.7269 0 0 3.7286 14.89 19.563)" d="m201.63 52.12c0 6.6275-5.3727 12-12 12-6.6273 0-12-5.3724-12-12s5.3727-12 12-12c6.6273 0 12 5.3724 12 12z" fill="#333" stroke="#000"/>
<path transform="matrix(3.7269 0 0 3.7286 14.89 19.563)" d="m201.63 12.308c0 6.6275-5.3727 12-12 12-6.6273 0-12-5.3724-12-12s5.3727-12 12-12c6.6273 0 12 5.3724 12 12z" fill="#333" stroke="#000"/>
<g>
<use x="77.105469" y="228.826182" xlink:href="#q"/>
<use x="103.193528" y="228.826182" xlink:href="#z"/>
</g>
<g fill="#fff">
<use x="76.617188" y="377.556651" xlink:href="#q"/>
<use x="102.705247" y="377.556651" xlink:href="#c"/>
</g>
<g fill="#fff">
<use x="283.355469" y="303.064464" xlink:href="#c"/>
<use x="309.443528" y="303.064464" xlink:href="#d"/>
</g>
<g fill="#fff">
<use x="489.460938" y="155.126964" xlink:href="#c"/>
<use x="515.548997" y="155.126964" xlink:href="#d"/>
</g>
<g fill="#fff">
<use x="696.265625" y="80.404307" xlink:href="#c"/>
<use x="722.353684" y="80.404307" xlink:href="#d"/>
</g>
<g fill="#fff">
<use x="696.265625" y="228.845714" xlink:href="#c"/>
<use x="722.353684" y="228.845714" xlink:href="#d"/>
</g>
<g fill="#fff">
<use x="696.265625" y="377.28712" xlink:href="#c"/>
<use x="722.353684" y="377.28712" xlink:href="#d"/>
</g>
<g fill="#fff">
<use x="696.265625" y="525.728526" xlink:href="#c"/>
<use x="722.353684" y="525.728526" xlink:href="#d"/>
</g>
<g fill="#fff">
<use x="489.460938" y="451.00587" xlink:href="#c"/>
<use x="515.548997" y="451.00587" xlink:href="#d"/>
</g>
<g>
<use x="22.734375" y="603.445224" xlink:href="#p"/>
<use x="41.368703" y="603.445224" xlink:href="#g"/>
<use x="48.822434" y="603.445224" xlink:href="#j"/>
<use x="63.729897" y="603.445224" xlink:href="#a"/>
<use x="82.364225" y="603.445224" xlink:href="#b"/>
<use x="89.817956" y="603.445224" xlink:href="#b"/>
<use x="97.271687" y="603.445224" xlink:href="#a"/>
<use x="115.906015" y="603.445224" xlink:href="#r"/>
<use x="127.086612" y="603.445224" xlink:href="#e"/>
<use x="145.72094" y="603.445224" xlink:href="#n"/>
<use x="164.355268" y="603.445224" xlink:href="#i"/>
</g>
<g>
<use x="17.140625" y="640.73038" xlink:href="#m"/>
<use x="35.774953" y="640.73038" xlink:href="#l"/>
<use x="54.409281" y="640.73038" xlink:href="#k"/>
<use x="84.224206" y="640.73038" xlink:href="#a"/>
<use x="102.858534" y="640.73038" xlink:href="#n"/>
<use x="121.492862" y="640.73038" xlink:href="#j"/>
<use x="136.400324" y="640.73038" xlink:href="#a"/>
<use x="155.034652" y="640.73038" xlink:href="#b"/>
<use x="162.488384" y="640.73038" xlink:href="#b"/>
<use x="169.942115" y="640.73038" xlink:href="#a"/>
</g>
<g>
<use x="222.410156" y="603.445224" xlink:href="#y"/>
<use x="241.044484" y="603.445224" xlink:href="#a"/>
<use x="259.678812" y="603.445224" xlink:href="#x"/>
<use x="270.859409" y="603.445224" xlink:href="#w"/>
<use x="282.040006" y="603.445224" xlink:href="#e"/>
<use x="300.674334" y="603.445224" xlink:href="#v"/>
<use x="315.581796" y="603.445224" xlink:href="#u"/>
<use x="334.216124" y="603.445224" xlink:href="#h"/>
<use x="345.396721" y="603.445224" xlink:href="#a"/>
<use x="364.031049" y="603.445224" xlink:href="#h"/>
<use x="375.211646" y="603.445224" xlink:href="#a"/>
</g>
<g>
<use x="261.539062" y="640.73038" xlink:href="#p"/>
<use x="280.173391" y="640.73038" xlink:href="#g"/>
<use x="287.627122" y="640.73038" xlink:href="#j"/>
<use x="302.534584" y="640.73038" xlink:href="#a"/>
<use x="321.168912" y="640.73038" xlink:href="#b"/>
<use x="328.622643" y="640.73038" xlink:href="#b"/>
<use x="336.076375" y="640.73038" xlink:href="#a"/>
</g>
<g>
<use x="468.492188" y="603.445224" xlink:href="#t"/>
<use x="487.126516" y="603.445224" xlink:href="#f"/>
<use x="498.307112" y="603.445224" xlink:href="#o"/>
<use x="516.94144" y="603.445224" xlink:href="#a"/>
<use x="535.575768" y="603.445224" xlink:href="#b"/>
<use x="543.0295" y="603.445224" xlink:href="#b"/>
<use x="550.483231" y="603.445224" xlink:href="#f"/>
</g>
<g>
<use x="453.585938" y="640.73038" xlink:href="#m"/>
<use x="472.220266" y="640.73038" xlink:href="#h"/>
<use x="483.400862" y="640.73038" xlink:href="#l"/>
<use x="502.03519" y="640.73038" xlink:href="#i"/>
<use x="520.669518" y="640.73038" xlink:href="#g"/>
<use x="528.12325" y="640.73038" xlink:href="#e"/>
<use x="546.757578" y="640.73038" xlink:href="#k"/>
</g>
<g>
<use x="675.296875" y="603.445224" xlink:href="#s"/>
<use x="693.931203" y="603.445224" xlink:href="#f"/>
<use x="705.1118" y="603.445224" xlink:href="#o"/>
<use x="723.746128" y="603.445224" xlink:href="#a"/>
<use x="742.380456" y="603.445224" xlink:href="#b"/>
<use x="749.834187" y="603.445224" xlink:href="#b"/>
<use x="757.287918" y="603.445224" xlink:href="#f"/>
</g>
<g>
<use x="660.386719" y="640.73038" xlink:href="#m"/>
<use x="679.021047" y="640.73038" xlink:href="#h"/>
<use x="690.201644" y="640.73038" xlink:href="#l"/>
<use x="708.835972" y="640.73038" xlink:href="#i"/>
<use x="727.4703" y="640.73038" xlink:href="#g"/>
<use x="734.924031" y="640.73038" xlink:href="#e"/>
<use x="753.558359" y="640.73038" xlink:href="#k"/>
</g>
<path transform="matrix(3.7269 0 0 3.7286 14.89 19.563)" d="m35.033 55.934 34.033 9.1188" fill="none" stroke="#000"/>
<path d="m257.89 258.26-9.1289 5.2734 27.125-0.44531-23.27-13.961z" fill-rule="evenodd"/>
<path transform="matrix(3.7269 0 0 3.7286 14.89 19.563)" d="m35.359 89.282 34.532-9.2529" fill="none" stroke="#000"/>
<path d="m260.96 321.82-5.2734 9.1328 23.273-13.957-27.129-0.44922z" fill-rule="evenodd"/>
<path transform="matrix(3.7269 0 0 3.7286 14.89 19.563)" d="m88.58 65.027 33.59-33.59" fill="none" stroke="#000"/>
<path d="m459.66 147.32v10.547l13.176-23.73-23.719 13.184z" fill-rule="evenodd"/>
<path transform="matrix(3.7269 0 0 3.7286 14.89 19.563)" d="m87.687 80.125 34.924 34.924" fill="none" stroke="#000"/>
<path d="m461.3 437.98h-10.543l23.719 13.184-13.176-23.727z" fill-rule="evenodd"/>
<path transform="matrix(3.7269 0 0 3.7286 14.89 19.563)" d="m145.34 107.41 34.097-9.1356" fill="none" stroke="#000"/>
<path d="m669.23 389.85-5.2695 9.1328 23.27-13.957-27.129-0.44922z" fill-rule="evenodd"/>
<path transform="matrix(3.7269 0 0 3.7286 14.89 19.563)" d="m145.02 116.75 34.126 9.144" fill="none" stroke="#000"/>
<path d="m668.14 485.11-9.1289 5.2734 27.129-0.44922-23.27-13.957z" fill-rule="evenodd"/>
<path transform="matrix(3.7269 0 0 3.7286 14.89 19.563)" d="m145.06 37.305 34.004 9.1115" fill="none" stroke="#000"/>
<path d="m667.85 188.77-9.1289 5.2734 27.129-0.44922-23.273-13.957z" fill-rule="evenodd"/>
<path transform="matrix(3.7269 0 0 3.7286 14.89 19.563)" d="m145.07 27.403 34.135-9.1461" fill="none" stroke="#000"/>
<path d="m668.36 91.496-5.2734 9.1328 23.273-13.957-27.129-0.44922z" fill-rule="evenodd"/>
</svg>
