<?xml version="1.0" encoding="UTF-8"?>
<svg width="600px" height="447px" version="1.1" viewBox="0 0 600 447" xmlns="http://www.w3.org/2000/svg" xmlns:xlink="http://www.w3.org/1999/xlink">
<defs>
<symbol id="an" overflow="visible">
<path d="m13.188-3.2812h-7.25l-1.1562 3.2812h-4.6562l6.6562-17.984h5.5312l6.6719 17.984h-4.6562zm-6.0938-3.3281h4.9219l-2.4531-7.1562z"/>
</symbol>
<symbol id="am" overflow="visible">
<path d="m2.0781-18.75h4.3125v18.75h-4.3125z"/>
</symbol>
<symbol id="al" overflow="visible">
<path d="m6.7812-17.328v3.8281h4.4531v3.0938h-4.4531v5.7188c0 0.625 0.125 1.0547 0.375 1.2812 0.25 0.21875 0.74219 0.32812 1.4844 0.32812h2.2188v3.0781h-3.7031c-1.6992 0-2.9062-0.35156-3.625-1.0625-0.71094-0.70703-1.0625-1.9141-1.0625-3.625v-5.7188h-2.1406v-3.0938h2.1406v-3.8281z"/>
</symbol>
<symbol id="o" overflow="visible">
<path d="m15.547-6.7812v1.2344h-10.094c0.11328 1.0117 0.48438 1.7734 1.1094 2.2812 0.625 0.5 1.5 0.75 2.625 0.75 0.90625 0 1.832-0.13281 2.7812-0.40625 0.95703-0.26953 1.9375-0.67578 2.9375-1.2188v3.3281c-1.0234 0.38672-2.043 0.67188-3.0625 0.85938-1.0234 0.19531-2.043 0.29688-3.0625 0.29688-2.4375 0-4.3359-0.61719-5.6875-1.8594-1.3555-1.2383-2.0312-2.9766-2.0312-5.2188 0-2.1953 0.66016-3.9258 1.9844-5.1875 1.332-1.2578 3.1641-1.8906 5.5-1.8906 2.125 0 3.8203 0.64062 5.0938 1.9219 1.2695 1.2734 1.9062 2.9766 1.9062 5.1094zm-4.4375-1.4375c0-0.8125-0.24219-1.4688-0.71875-1.9688-0.46875-0.50781-1.0938-0.76562-1.875-0.76562-0.83594 0-1.5117 0.23438-2.0312 0.70312-0.52344 0.46875-0.84375 1.1484-0.96875 2.0312z"/>
</symbol>
<symbol id="n" overflow="visible">
<path d="m12.109-9.8125c-0.38672-0.17578-0.76562-0.30469-1.1406-0.39062-0.36719-0.09375-0.74219-0.14062-1.125-0.14062-1.1055 0-1.9609 0.35938-2.5625 1.0781-0.59375 0.71094-0.89062 1.7266-0.89062 3.0469v6.2188h-4.3125v-13.5h4.3125v2.2188c0.55078-0.875 1.1875-1.5156 1.9062-1.9219s1.582-0.60938 2.5938-0.60938c0.14453 0 0.30078 0.007812 0.46875 0.015625 0.16406 0.011719 0.41016 0.039063 0.73438 0.078125z"/>
</symbol>
<symbol id="ak" overflow="visible">
<path d="m12.625-13.078v3.2812c-0.92969-0.38281-1.8242-0.67188-2.6875-0.85938-0.85547-0.19531-1.6641-0.29688-2.4219-0.29688-0.82422 0-1.4336 0.10547-1.8281 0.3125-0.39844 0.19922-0.59375 0.51172-0.59375 0.9375 0 0.35547 0.14453 0.625 0.4375 0.8125 0.30078 0.17969 0.84375 0.30859 1.625 0.39062l0.76562 0.10938c2.207 0.28125 3.6914 0.74609 4.4531 1.3906 0.76953 0.64844 1.1562 1.6562 1.1562 3.0312 0 1.4375-0.53125 2.5156-1.5938 3.2344s-2.6484 1.0781-4.75 1.0781c-0.89844 0-1.8242-0.074219-2.7812-0.21875-0.94922-0.13281-1.9219-0.34375-2.9219-0.625v-3.2656c0.85156 0.41797 1.7344 0.73047 2.6406 0.9375 0.90625 0.21094 1.8281 0.3125 2.7656 0.3125 0.84375 0 1.4727-0.11328 1.8906-0.34375 0.42578-0.23828 0.64062-0.58594 0.64062-1.0469 0-0.38281-0.14844-0.67188-0.4375-0.85938-0.29297-0.1875-0.875-0.33203-1.75-0.4375l-0.76562-0.09375c-1.918-0.23828-3.2617-0.67969-4.0312-1.3281-0.77344-0.65625-1.1562-1.6445-1.1562-2.9688 0-1.4375 0.48828-2.5 1.4688-3.1875 0.97656-0.6875 2.4766-1.0312 4.5-1.0312 0.80078 0 1.6406 0.0625 2.5156 0.1875 0.875 0.11719 1.8281 0.29688 2.8594 0.54688z"/>
</symbol>
<symbol id="aj" overflow="visible">
<path d="m11.266-2.2812c-0.60547 0.78125-1.2656 1.3594-1.9844 1.7344-0.71094 0.36719-1.5312 0.54688-2.4688 0.54688-1.6484 0-3.0117-0.64453-4.0938-1.9375-1.0742-1.3008-1.6094-2.957-1.6094-4.9688 0-2.0078 0.53516-3.6602 1.6094-4.9531 1.082-1.2891 2.4453-1.9375 4.0938-1.9375 0.9375 0 1.7578 0.1875 2.4688 0.5625 0.71875 0.36719 1.3789 0.94531 1.9844 1.7344v-2h4.3281v12.141c0 2.1641-0.6875 3.8203-2.0625 4.9688-1.3672 1.1445-3.3516 1.7188-5.9531 1.7188-0.84375 0-1.6641-0.070313-2.4531-0.20312-0.78125-0.125-1.5703-0.32031-2.3594-0.57812v-3.3594c0.75 0.42578 1.4844 0.74219 2.2031 0.95312 0.72656 0.21875 1.457 0.32812 2.1875 0.32812 1.4141 0 2.4531-0.3125 3.1094-0.9375 0.66406-0.61719 1-1.5781 1-2.8906zm-2.8594-8.4062c-0.88672 0-1.5781 0.33594-2.0781 1-0.5 0.65625-0.75 1.5859-0.75 2.7812 0 1.2422 0.23828 2.1836 0.71875 2.8281 0.48828 0.63672 1.1914 0.95312 2.1094 0.95312 0.90625 0 1.6094-0.32812 2.1094-0.98438 0.5-0.66406 0.75-1.5977 0.75-2.7969 0-1.1953-0.25-2.125-0.75-2.7812-0.5-0.66406-1.2031-1-2.1094-1z"/>
</symbol>
<symbol id="ai" overflow="visible">
<path d="m1.9219-5.25v-8.25h4.3438v1.3594c0 0.73047-0.007813 1.6484-0.015625 2.75v2.2031c0 1.0938 0.023438 1.8828 0.078125 2.3594 0.050781 0.46875 0.14844 0.8125 0.29688 1.0312 0.17578 0.28125 0.40625 0.5 0.6875 0.65625 0.28125 0.14844 0.60938 0.21875 0.98438 0.21875 0.89453 0 1.5977-0.34375 2.1094-1.0312 0.51953-0.6875 0.78125-1.6445 0.78125-2.875v-6.6719h4.3125v13.5h-4.3125v-1.9531c-0.65625 0.79297-1.3516 1.375-2.0781 1.75-0.71875 0.36328-1.5156 0.54688-2.3906 0.54688-1.5625 0-2.7578-0.47266-3.5781-1.4219-0.8125-0.95703-1.2188-2.3477-1.2188-4.1719z"/>
</symbol>
<symbol id="m" overflow="visible">
<path d="m6.3906-1.9531v7.0781h-4.3125v-18.625h4.3125v1.9844c0.59375-0.78906 1.25-1.3672 1.9688-1.7344 0.72656-0.375 1.5625-0.5625 2.5-0.5625 1.6641 0 3.0312 0.66406 4.0938 1.9844 1.0703 1.3125 1.6094 3.0117 1.6094 5.0938 0 2.0859-0.53906 3.7891-1.6094 5.1094-1.0625 1.3125-2.4297 1.9688-4.0938 1.9688-0.9375 0-1.7734-0.18359-2.5-0.54688-0.71875-0.375-1.375-0.95703-1.9688-1.75zm2.875-8.7344c-0.92969 0-1.6406 0.33984-2.1406 1.0156-0.49219 0.67969-0.73438 1.6562-0.73438 2.9375s0.24219 2.2617 0.73438 2.9375c0.5 0.67969 1.2109 1.0156 2.1406 1.0156 0.91406 0 1.6172-0.33594 2.1094-1.0156 0.48828-0.67578 0.73438-1.6562 0.73438-2.9375s-0.24609-2.2578-0.73438-2.9375c-0.49219-0.67578-1.1953-1.0156-2.1094-1.0156z"/>
</symbol>
<symbol id="ah" overflow="visible"></symbol>
<symbol id="ag" overflow="visible">
<path d="m2.125-18.75h5.1094v1.7344h-2.8906v18.547h2.8906v1.7188h-5.1094z"/>
</symbol>
<symbol id="af" overflow="visible">
<path d="m2.4219-17.984h2.4375v16.734c0 2.1641-0.41406 3.7383-1.2344 4.7188-0.82422 0.97656-2.1484 1.4688-3.9688 1.4688h-0.9375v-2.0469h0.76562c1.0703 0 1.8281-0.30469 2.2656-0.90625 0.44531-0.60547 0.67188-1.6836 0.67188-3.2344z"/>
</symbol>
<symbol id="ae" overflow="visible">
<path d="m8.4688-6.7812c-1.793 0-3.0391 0.21094-3.7344 0.625-0.6875 0.40625-1.0312 1.1016-1.0312 2.0781 0 0.79297 0.25391 1.4219 0.76562 1.8906 0.51953 0.46094 1.2266 0.6875 2.125 0.6875 1.2266 0 2.2109-0.4375 2.9531-1.3125 0.75-0.875 1.125-2.0312 1.125-3.4688v-0.5zm4.4219-0.92188v7.7031h-2.2188v-2.0469c-0.51172 0.82422-1.1484 1.4297-1.9062 1.8125-0.75 0.38281-1.6719 0.57812-2.7656 0.57812-1.375 0-2.4766-0.38281-3.2969-1.1562-0.8125-0.76953-1.2188-1.8047-1.2188-3.1094 0-1.5195 0.50391-2.6641 1.5156-3.4375 1.0195-0.76953 2.5391-1.1562 4.5625-1.1562h3.1094v-0.21875c0-1.0195-0.33984-1.8047-1.0156-2.3594-0.66797-0.5625-1.6094-0.84375-2.8281-0.84375-0.77344 0-1.5234 0.09375-2.25 0.28125-0.73047 0.17969-1.4336 0.45312-2.1094 0.82812v-2.0469c0.8125-0.3125 1.5977-0.54688 2.3594-0.70312 0.76953-0.15625 1.5156-0.23438 2.2344-0.23438 1.957 0 3.4141 0.50781 4.375 1.5156 0.96875 1.0117 1.4531 2.543 1.4531 4.5938z"/>
</symbol>
<symbol id="ad" overflow="visible">
<path d="m13.547-8.1406v8.1406h-2.2188v-8.0781c0-1.2695-0.25-2.2227-0.75-2.8594-0.49219-0.63281-1.2344-0.95312-2.2344-0.95312-1.1992 0-2.1484 0.38672-2.8438 1.1562-0.6875 0.76172-1.0312 1.7969-1.0312 3.1094v7.625h-2.2344v-18.75h2.2344v7.3594c0.53125-0.8125 1.1562-1.4141 1.875-1.8125 0.71875-0.40625 1.5469-0.60938 2.4844-0.60938 1.5508 0 2.7227 0.48047 3.5156 1.4375 0.80078 0.96094 1.2031 2.3711 1.2031 4.2344z"/>
</symbol>
<symbol id="ac" overflow="visible">
<path d="m10.156-11.422c-0.25-0.14453-0.52734-0.25-0.82812-0.3125-0.29297-0.070313-0.61719-0.10938-0.96875-0.10938-1.25 0-2.2148 0.41406-2.8906 1.2344-0.66797 0.8125-1 1.9805-1 3.5v7.1094h-2.2344v-13.5h2.2344v2.1094c0.46875-0.82031 1.0703-1.4297 1.8125-1.8281 0.75-0.39453 1.6602-0.59375 2.7344-0.59375 0.15625 0 0.32031 0.011719 0.5 0.03125 0.1875 0.023438 0.39453 0.046875 0.625 0.078125z"/>
</symbol>
<symbol id="ab" overflow="visible">
<path d="m13.875-7.2969v1.0781h-10.203c0.10156 1.5312 0.56641 2.6992 1.3906 3.5 0.82031 0.79297 1.9688 1.1875 3.4375 1.1875 0.85156 0 1.6758-0.10156 2.4688-0.3125 0.80078-0.20703 1.5977-0.51953 2.3906-0.9375v2.0938c-0.80469 0.33594-1.6211 0.58984-2.4531 0.76562-0.83594 0.17578-1.6836 0.26562-2.5469 0.26562-2.1484 0-3.8516-0.625-5.1094-1.875-1.2617-1.25-1.8906-2.9414-1.8906-5.0781 0-2.207 0.59375-3.957 1.7812-5.25 1.1953-1.3008 2.8125-1.9531 4.8438-1.9531 1.8125 0 3.2422 0.58594 4.2969 1.75 1.0625 1.168 1.5938 2.7578 1.5938 4.7656zm-2.2188-0.65625c-0.023438-1.207-0.36719-2.1719-1.0312-2.8906-0.65625-0.72656-1.5312-1.0938-2.625-1.0938-1.2422 0-2.2305 0.35156-2.9688 1.0469-0.74219 0.69922-1.168 1.6836-1.2812 2.9531z"/>
</symbol>
<symbol id="aa" overflow="visible">
<path d="m7.5156-18.75v22h-5.1094v-1.7188h2.875v-18.547h-2.875v-1.7344z"/>
</symbol>
<symbol id="g" overflow="visible">
<path d="m2.2344-1.4844h2.8906v-9.9844l-3.1562 0.64062v-1.625l3.1406-0.625h1.7656v11.594h2.8906v1.4844h-7.5312z"/>
</symbol>
<symbol id="a" overflow="visible">
<path d="m1.9375-13.078h6.9531v1.4844h-5.3281v3.2188c0.25-0.09375 0.50391-0.16016 0.76562-0.20312 0.25781-0.039063 0.51953-0.0625 0.78125-0.0625 1.457 0 2.6133 0.40234 3.4688 1.2031 0.85156 0.79297 1.2812 1.8711 1.2812 3.2344 0 1.418-0.44531 2.5156-1.3281 3.2969-0.875 0.77344-2.1094 1.1562-3.7031 1.1562-0.55469 0-1.1172-0.046875-1.6875-0.14062-0.5625-0.09375-1.1484-0.23438-1.75-0.42188v-1.7656c0.51953 0.28125 1.0625 0.49609 1.625 0.64062 0.5625 0.13672 1.1562 0.20312 1.7812 0.20312 1.0078 0 1.8047-0.26562 2.3906-0.79688 0.59375-0.53125 0.89062-1.2539 0.89062-2.1719 0-0.90625-0.29688-1.625-0.89062-2.1562-0.58594-0.53125-1.3828-0.79688-2.3906-0.79688-0.48047 0-0.95312 0.054688-1.4219 0.15625-0.46875 0.10547-0.94922 0.27344-1.4375 0.5z"/>
</symbol>
<symbol id="d" overflow="visible">
<path d="m0.875-5.625h4.7344v1.4219h-4.7344z"/>
</symbol>
<symbol id="b" overflow="visible">
<path d="m1.9688-0.26562v-1.625c0.44531 0.21875 0.89453 0.38672 1.3438 0.5 0.45703 0.10547 0.90625 0.15625 1.3438 0.15625 1.1758 0 2.0703-0.39062 2.6875-1.1719 0.61328-0.78906 0.96094-1.9844 1.0469-3.5781-0.33594 0.5-0.76172 0.88672-1.2812 1.1562-0.52344 0.26172-1.1016 0.39062-1.7344 0.39062-1.3047 0-2.3398-0.39453-3.1094-1.1875-0.76172-0.78906-1.1406-1.8672-1.1406-3.2344 0-1.3438 0.39453-2.4219 1.1875-3.2344 0.80078-0.8125 1.8633-1.2188 3.1875-1.2188 1.5078 0 2.6602 0.58594 3.4531 1.75 0.80078 1.1562 1.2031 2.8359 1.2031 5.0312 0 2.0625-0.49219 3.7109-1.4688 4.9375-0.98047 1.2305-2.293 1.8438-3.9375 1.8438-0.44922 0-0.90234-0.046875-1.3594-0.14062-0.46094-0.085938-0.93359-0.20703-1.4219-0.375zm3.5312-5.5469c0.78906 0 1.4141-0.26953 1.875-0.8125 0.46875-0.53906 0.70312-1.2852 0.70312-2.2344 0-0.94531-0.23438-1.6914-0.70312-2.2344-0.46094-0.53906-1.0859-0.8125-1.875-0.8125-0.80469 0-1.4375 0.27344-1.9062 0.8125-0.46094 0.54297-0.6875 1.2891-0.6875 2.2344 0 0.94922 0.22656 1.6953 0.6875 2.2344 0.46875 0.54297 1.1016 0.8125 1.9062 0.8125z"/>
</symbol>
<symbol id="l" overflow="visible">
<path d="m3.4375-1.4844h6.1875v1.4844h-8.3125v-1.4844c0.67578-0.69531 1.5938-1.6289 2.75-2.7969 1.1562-1.1758 1.8828-1.9297 2.1875-2.2656 0.5625-0.63281 0.95703-1.1719 1.1875-1.6094 0.22656-0.44531 0.34375-0.88281 0.34375-1.3125 0-0.69531-0.24609-1.2656-0.73438-1.7031-0.49219-0.4375-1.125-0.65625-1.9062-0.65625-0.5625 0-1.1523 0.10156-1.7656 0.29688-0.61719 0.1875-1.2734 0.48047-1.9688 0.875v-1.7969c0.70703-0.28125 1.3672-0.49219 1.9844-0.64062 0.625-0.14453 1.1953-0.21875 1.7188-0.21875 1.3516 0 2.4297 0.33984 3.2344 1.0156 0.8125 0.67969 1.2188 1.5859 1.2188 2.7188 0 0.53125-0.10547 1.043-0.3125 1.5312-0.19922 0.48047-0.5625 1.0469-1.0938 1.7031-0.14844 0.16797-0.61719 0.65625-1.4062 1.4688-0.78125 0.80469-1.8867 1.9336-3.3125 3.3906z"/>
</symbol>
<symbol id="k" overflow="visible">
<path d="m7.2812-7.0469c0.85156 0.17969 1.5156 0.55469 1.9844 1.125 0.47656 0.57422 0.71875 1.2812 0.71875 2.125 0 1.293-0.44922 2.293-1.3438 3-0.88672 0.69922-2.1484 1.0469-3.7812 1.0469-0.54297 0-1.1055-0.054688-1.6875-0.15625-0.58594-0.10156-1.1836-0.26562-1.7969-0.48438v-1.7188c0.48828 0.29297 1.0234 0.51172 1.6094 0.65625 0.58203 0.14844 1.1914 0.21875 1.8281 0.21875 1.1133 0 1.957-0.21875 2.5312-0.65625 0.58203-0.4375 0.875-1.0703 0.875-1.9062 0-0.76953-0.27344-1.375-0.8125-1.8125-0.54297-0.4375-1.293-0.65625-2.25-0.65625h-1.5312v-1.4531h1.5938c0.875 0 1.5391-0.17188 2-0.51562 0.46875-0.35156 0.70312-0.85156 0.70312-1.5 0-0.67578-0.24219-1.1914-0.71875-1.5469-0.48047-0.36328-1.1641-0.54688-2.0469-0.54688-0.49219 0-1.0117 0.054687-1.5625 0.15625-0.55469 0.10547-1.1641 0.27344-1.8281 0.5v-1.5781c0.66406-0.1875 1.2891-0.32812 1.875-0.42188 0.59375-0.09375 1.1484-0.14062 1.6719-0.14062 1.3438 0 2.4062 0.30859 3.1875 0.92188 0.78125 0.60547 1.1719 1.4297 1.1719 2.4688 0 0.71875-0.21094 1.3281-0.625 1.8281-0.40625 0.5-0.99609 0.85156-1.7656 1.0469z"/>
</symbol>
<symbol id="j" overflow="visible">
<path d="m6.7812-11.531-4.4688 6.9844h4.4688zm-0.45312-1.5469h2.2188v8.5312h1.875v1.4688h-1.875v3.0781h-1.7656v-3.0781h-5.9062v-1.7188z"/>
</symbol>
<symbol id="e" overflow="visible">
<path d="m5.9219-7.25c-0.79297 0-1.4219 0.27734-1.8906 0.82812-0.46094 0.54297-0.6875 1.2812-0.6875 2.2188 0 0.94922 0.22656 1.6992 0.6875 2.25 0.46875 0.54297 1.0977 0.8125 1.8906 0.8125 0.80078 0 1.4297-0.26953 1.8906-0.8125 0.46875-0.55078 0.70312-1.3008 0.70312-2.25 0-0.9375-0.23438-1.6758-0.70312-2.2188-0.46094-0.55078-1.0898-0.82812-1.8906-0.82812zm3.5156-5.5312v1.6094c-0.4375-0.20703-0.88672-0.36719-1.3438-0.48438-0.44922-0.11328-0.89844-0.17188-1.3438-0.17188-1.168 0-2.0625 0.39844-2.6875 1.1875-0.61719 0.79297-0.96484 1.9844-1.0469 3.5781 0.34375-0.50781 0.77344-0.89844 1.2969-1.1719 0.51953-0.26953 1.0938-0.40625 1.7188-0.40625 1.3125 0 2.3477 0.40234 3.1094 1.2031 0.76953 0.79297 1.1562 1.8711 1.1562 3.2344 0 1.3438-0.40234 2.4219-1.2031 3.2344-0.79297 0.8125-1.8516 1.2188-3.1719 1.2188-1.5117 0-2.668-0.57812-3.4688-1.7344-0.80469-1.1562-1.2031-2.8359-1.2031-5.0469 0-2.0625 0.48828-3.707 1.4688-4.9375 0.98828-1.2266 2.3125-1.8438 3.9688-1.8438 0.4375 0 0.87891 0.046875 1.3281 0.14062 0.45703 0.085937 0.92969 0.21484 1.4219 0.39062z"/>
</symbol>
<symbol id="c" overflow="visible">
<path d="m5.7031-11.906c-0.90625 0-1.5898 0.44922-2.0469 1.3438-0.46094 0.89844-0.6875 2.2422-0.6875 4.0312 0 1.793 0.22656 3.1406 0.6875 4.0469 0.45703 0.89844 1.1406 1.3438 2.0469 1.3438 0.91406 0 1.6016-0.44531 2.0625-1.3438 0.45703-0.90625 0.6875-2.2539 0.6875-4.0469 0-1.7891-0.23047-3.1328-0.6875-4.0312-0.46094-0.89453-1.1484-1.3438-2.0625-1.3438zm0-1.4062c1.4688 0 2.5859 0.58594 3.3594 1.75 0.78125 1.1562 1.1719 2.8359 1.1719 5.0312 0 2.2109-0.39062 3.8906-1.1719 5.0469-0.77344 1.1562-1.8906 1.7344-3.3594 1.7344s-2.5898-0.57812-3.3594-1.7344c-0.77344-1.1562-1.1562-2.8359-1.1562-5.0469 0-2.1953 0.38281-3.875 1.1562-5.0312 0.76953-1.1641 1.8906-1.75 3.3594-1.75z"/>
</symbol>
<symbol id="f" overflow="visible">
<path d="m1.4688-13.078h8.4219v0.75l-4.75 12.328h-1.8594l4.4844-11.594h-6.2969z"/>
</symbol>
<symbol id="z" overflow="visible">
<path d="m5.7031-6.2031c-0.84375 0-1.5078 0.22656-1.9844 0.67188-0.48047 0.44922-0.71875 1.0703-0.71875 1.8594 0 0.78125 0.23828 1.4023 0.71875 1.8594 0.47656 0.44922 1.1406 0.67188 1.9844 0.67188s1.5039-0.22266 1.9844-0.67188c0.48828-0.45703 0.73438-1.0781 0.73438-1.8594 0-0.78906-0.24219-1.4102-0.71875-1.8594-0.48047-0.44531-1.1484-0.67188-2-0.67188zm-1.7656-0.76562c-0.76172-0.1875-1.3555-0.53516-1.7812-1.0469-0.41797-0.51953-0.625-1.1562-0.625-1.9062 0-1.0391 0.36719-1.8633 1.1094-2.4688 0.75-0.61328 1.7695-0.92188 3.0625-0.92188 1.3008 0 2.3203 0.30859 3.0625 0.92188 0.75 0.60547 1.125 1.4297 1.125 2.4688 0 0.75-0.21484 1.3867-0.64062 1.9062-0.42969 0.51172-1.0156 0.85938-1.7656 1.0469 0.85156 0.19922 1.5156 0.58984 1.9844 1.1719 0.47656 0.57422 0.71875 1.2812 0.71875 2.125 0 1.2617-0.38672 2.2305-1.1562 2.9062-0.77344 0.67969-1.8828 1.0156-3.3281 1.0156-1.4375 0-2.5469-0.33594-3.3281-1.0156-0.77344-0.67578-1.1562-1.6445-1.1562-2.9062 0-0.84375 0.23828-1.5508 0.71875-2.125 0.47656-0.58203 1.1445-0.97266 2-1.1719zm-0.65625-2.7812c0 0.67969 0.21094 1.2031 0.64062 1.5781 0.42578 0.375 1.0195 0.5625 1.7812 0.5625 0.75781 0 1.3516-0.1875 1.7812-0.5625 0.4375-0.375 0.65625-0.89844 0.65625-1.5781 0-0.67578-0.21875-1.2031-0.65625-1.5781-0.42969-0.38281-1.0234-0.57812-1.7812-0.57812-0.76172 0-1.3555 0.19531-1.7812 0.57812-0.42969 0.375-0.64062 0.90234-0.64062 1.5781z"/>
</symbol>
<symbol id="y" overflow="visible">
<path d="m-0.96875-13.406c0.40625 0.84375 0.71484 1.7188 0.92188 2.625 0.19531 0.90625 0.29688 1.8398 0.29688 2.7969 0 2.1797-0.60938 3.9062-1.8281 5.1875-1.2188 1.2734-2.8672 1.9062-4.9531 1.9062-2.1133 0-3.7734-0.64453-4.9844-1.9375-1.207-1.3008-1.8125-3.0781-1.8125-5.3281 0-0.875 0.085937-1.707 0.25-2.5 0.16797-0.80078 0.41406-1.5547 0.73438-2.2656h2.7031c-0.41406 0.73047-0.72266 1.4609-0.92188 2.1875-0.20703 0.71875-0.3125 1.4375-0.3125 2.1562 0 1.3438 0.375 2.3828 1.125 3.1094 0.75 0.73047 1.8242 1.0938 3.2188 1.0938 1.3867 0 2.4609-0.34766 3.2188-1.0469 0.75-0.70703 1.125-1.707 1.125-3 0-0.34375-0.019531-0.66406-0.0625-0.96875-0.050781-0.30078-0.125-0.57031-0.21875-0.8125h-2.5312v2.0625h-2.2656v-5.2656z"/>
</symbol>
<symbol id="i" overflow="visible">
<path d="m-7.1406-8.7969c-0.13281 0.28125-0.22656 0.55859-0.28125 0.82812-0.0625 0.27344-0.09375 0.54297-0.09375 0.8125 0 0.80469 0.26172 1.4219 0.78125 1.8594 0.51172 0.4375 1.25 0.65625 2.2188 0.65625h4.5156v3.1406h-9.8125v-3.1406h1.6094c-0.64453-0.40625-1.1133-0.86719-1.4062-1.3906-0.30078-0.51953-0.45312-1.1445-0.45312-1.875 0-0.10156 0.007812-0.21875 0.015625-0.34375 0.011719-0.125 0.03125-0.30078 0.0625-0.53125z"/>
</symbol>
<symbol id="x" overflow="visible">
<path d="m-4.9375-11.297h0.89062v7.3281c0.74219-0.070312 1.2969-0.33594 1.6719-0.79688 0.36719-0.45703 0.54688-1.0938 0.54688-1.9062 0-0.65625-0.097656-1.3281-0.29688-2.0156-0.19531-0.69531-0.49219-1.4102-0.89062-2.1406h2.4219c0.28125 0.74219 0.49219 1.4805 0.625 2.2188 0.14453 0.74219 0.21875 1.4805 0.21875 2.2188 0 1.7812-0.44531 3.168-1.3438 4.1562-0.90625 0.98047-2.1758 1.4688-3.8125 1.4688-1.5938 0-2.8477-0.48438-3.7656-1.4531-0.92578-0.96875-1.3906-2.2969-1.3906-3.9844 0-1.5391 0.46875-2.7734 1.4062-3.7031 0.92969-0.92578 2.168-1.3906 3.7188-1.3906zm-1.0469 3.2188c-0.59375 0-1.0703 0.17969-1.4375 0.53125-0.36328 0.34375-0.54688 0.79688-0.54688 1.3594 0 0.60547 0.17188 1.1016 0.51562 1.4844 0.34375 0.375 0.83594 0.60938 1.4688 0.70312z"/>
</symbol>
<symbol id="w" overflow="visible">
<path d="m-9.8125-1.5v-3.1406h9.8125v3.1406zm-3.8281 0v-3.1406h2.5625v3.1406z"/>
</symbol>
<symbol id="h" overflow="visible">
<path d="m-13.641-7.9688h2.0625v1.7344c0 0.44922 0.085937 0.76172 0.25 0.9375 0.15625 0.17969 0.43359 0.26562 0.82812 0.26562h0.6875v-2.6875h2.2344v2.6875h7.5781v3.125h-7.5781v1.5625h-2.2344v-1.5625h-0.6875c-1.0703 0-1.8633-0.29688-2.375-0.89062-0.50781-0.59375-0.76562-1.5156-0.76562-2.7656z"/>
</symbol>
<symbol id="v" overflow="visible">
<path d="m-13.641-1.5v-3.1406h7.4219l-3.5938-3.6094v-3.6406l4.5 4.7812 5.3125-5.1562v3.7969l-4.0938 3.8281h4.0938v3.1406z"/>
</symbol>
<symbol id="u" overflow="visible">
<path d="m-4.4219-5.9062c0 0.65625 0.11719 1.1523 0.34375 1.4844 0.21875 0.32422 0.54297 0.48438 0.96875 0.48438 0.40625 0 0.72656-0.12891 0.95312-0.39062 0.21875-0.26953 0.32812-0.64062 0.32812-1.1094 0-0.59375-0.21094-1.0859-0.64062-1.4844-0.42578-0.40625-0.95703-0.60938-1.5938-0.60938h-0.35938zm-1.1875-4.7812h5.6094v3.1562h-1.4531c0.59375 0.41797 1.0273 0.89062 1.2969 1.4219 0.26953 0.52344 0.40625 1.1562 0.40625 1.9062 0 1.0234-0.29688 1.8516-0.89062 2.4844-0.59375 0.63672-1.3633 0.95312-2.3125 0.95312-1.1445 0-1.9844-0.39453-2.5156-1.1875-0.53906-0.78906-0.8125-2.0352-0.8125-3.7344v-1.8438h-0.25c-0.5 0-0.86328 0.19922-1.0938 0.59375-0.22656 0.38672-0.34375 0.99609-0.34375 1.8281 0 0.66797 0.070312 1.293 0.20312 1.875 0.13672 0.57422 0.33984 1.1094 0.60938 1.6094h-2.4062c-0.15625-0.67578-0.27344-1.3516-0.35938-2.0312-0.09375-0.67578-0.14062-1.3516-0.14062-2.0312 0-1.7695 0.35547-3.0469 1.0625-3.8281 0.69922-0.78125 1.8281-1.1719 3.3906-1.1719z"/>
</symbol>
<symbol id="t" overflow="visible">
<path d="m-12.609-4.9375h2.7969v-3.2188h2.2344v3.2188h4.1719c0.46094 0 0.76562-0.085938 0.92188-0.26562 0.15625-0.17578 0.23438-0.53516 0.23438-1.0781v-1.6094h2.25v2.6875c0 1.2422-0.25391 2.1211-0.76562 2.6406-0.51953 0.51172-1.3984 0.76562-2.6406 0.76562h-4.1719v1.5625h-2.2344v-1.5625h-2.7969z"/>
</symbol>
<symbol id="s" overflow="visible"></symbol>
<symbol id="r" overflow="visible">
<path d="m-13.641-1.5469v-3.7031h1.25v2.0938h13.5v-2.0938h1.25v3.7031z"/>
</symbol>
<symbol id="q" overflow="visible">
<path d="m-5.7656-13.047c0 0.51172 0.21875 0.91406 0.65625 1.2031 0.42969 0.29297 1.0273 0.4375 1.7969 0.4375 0.76172 0 1.3594-0.14453 1.7969-0.4375 0.4375-0.28906 0.65625-0.69141 0.65625-1.2031 0-0.48828-0.21875-0.87891-0.65625-1.1719-0.4375-0.28906-1.0352-0.4375-1.7969-0.4375-0.75781 0-1.3594 0.14844-1.7969 0.4375-0.4375 0.29297-0.65625 0.68359-0.65625 1.1719zm-1.1094 0c0-0.91406 0.32422-1.6445 0.96875-2.1875 0.64844-0.53906 1.5117-0.8125 2.5938-0.8125 1.0938 0 1.9648 0.27344 2.6094 0.8125 0.63672 0.54297 0.95312 1.2734 0.95312 2.1875 0 0.9375-0.31641 1.6797-0.95312 2.2188-0.64453 0.54297-1.5156 0.8125-2.6094 0.8125s-1.957-0.26953-2.5938-0.8125c-0.64453-0.55078-0.96875-1.2891-0.96875-2.2188zm-5.3438 9.0469c0 0.5 0.21875 0.89844 0.65625 1.1875 0.4375 0.29297 1.0391 0.4375 1.7969 0.4375 0.77344 0 1.375-0.14062 1.8125-0.42188 0.42969-0.28906 0.64062-0.69141 0.64062-1.2031 0-0.50781-0.21094-0.90625-0.64062-1.1875-0.4375-0.28906-1.0391-0.4375-1.8125-0.4375-0.75 0-1.3438 0.14844-1.7812 0.4375-0.44531 0.29297-0.67188 0.6875-0.67188 1.1875zm-1.1094-7.9062v-1.4062l13.578 8.1875v1.3906zm0 7.9062c0-0.92578 0.32422-1.6602 0.96875-2.2031 0.63672-0.55078 1.5-0.82812 2.5938-0.82812 1.1055 0 1.9766 0.27734 2.6094 0.82812 0.63672 0.54297 0.95312 1.2773 0.95312 2.2031 0 0.92969-0.31641 1.6641-0.95312 2.2031-0.64453 0.54297-1.5156 0.8125-2.6094 0.8125-1.082 0-1.9453-0.26953-2.5938-0.8125-0.64453-0.55078-0.96875-1.2852-0.96875-2.2031z"/>
</symbol>
<symbol id="p" overflow="visible">
<path d="m-13.641-5.4531h16v3.7031h-1.25v-2.0938h-13.5v2.0938h-1.25z"/>
</symbol>
</defs>
<path d="m95.961 22.586h463.61v327.93h-463.61z" fill="#fff"/>
<path transform="matrix(2.2446 0 0 2.243 -6.5762 3.4795)" d="m252.23 154.72-209.13-0.003483" fill="none" stroke="#000" stroke-width=".75"/>
<path transform="matrix(2.2446 0 0 2.243 -6.5762 3.4795)" d="m45.683 8.5182v149.05" fill="none" stroke="#000" stroke-width=".75"/>
<path transform="matrix(2.2446 0 0 2.243 -6.5762 3.4795)" d="m45.683 8.5182h206.55v146.2h-206.55z" fill="none" stroke="#000" stroke-width="1.5"/>
<path transform="matrix(2.2446 0 0 2.243 -6.5762 3.4795)" d="m75.19 8.5182v149.05" fill="none" stroke="#000" stroke-width=".75"/>
<path transform="matrix(2.2446 0 0 2.243 -6.5762 3.4795)" d="m104.7 8.5182v149.05" fill="none" stroke="#000" stroke-width=".75"/>
<path transform="matrix(2.2446 0 0 2.243 -6.5762 3.4795)" d="m134.2 8.5182v149.05" fill="none" stroke="#000" stroke-width=".75"/>
<path transform="matrix(2.2446 0 0 2.243 -6.5762 3.4795)" d="m163.71 8.5182v149.05" fill="none" stroke="#000" stroke-width=".75"/>
<path transform="matrix(2.2446 0 0 2.243 -6.5762 3.4795)" d="m193.22 8.5182v149.05" fill="none" stroke="#000" stroke-width=".75"/>
<path transform="matrix(2.2446 0 0 2.243 -6.5762 3.4795)" d="m222.72 8.5182v149.05" fill="none" stroke="#000" stroke-width=".75"/>
<path transform="matrix(2.2446 0 0 2.243 -6.5762 3.4795)" d="m252.23 8.5182v149.05" fill="none" stroke="#000" stroke-width=".75"/>
<path transform="matrix(2.2446 0 0 2.243 -6.5762 3.4795)" d="m252.23 125.48-209.13-0.003483" fill="none" stroke="#000" stroke-width=".75"/>
<path transform="matrix(2.2446 0 0 2.243 -6.5762 3.4795)" d="m252.23 96.238-209.13-0.003483" fill="none" stroke="#000" stroke-width=".75"/>
<path transform="matrix(2.2446 0 0 2.243 -6.5762 3.4795)" d="m252.23 66.998-209.13-0.003483" fill="none" stroke="#000" stroke-width=".75"/>
<path transform="matrix(2.2446 0 0 2.243 -6.5762 3.4795)" d="m252.23 37.758-209.13-0.005224" fill="none" stroke="#000" stroke-width=".75"/>
<path transform="matrix(2.2446 0 0 2.243 -6.5762 3.4795)" d="m252.23 8.5182-209.13-0.005224" fill="none" stroke="#000" stroke-width=".75"/>
<g>
<use x="192.523438" y="425.8816" xlink:href="#an"/>
<use x="212.724395" y="425.8816" xlink:href="#am"/>
<use x="221.702599" y="425.8816" xlink:href="#al"/>
<use x="232.925353" y="425.8816" xlink:href="#o"/>
<use x="248.637209" y="425.8816" xlink:href="#n"/>
<use x="259.859964" y="425.8816" xlink:href="#ak"/>
<use x="275.57182" y="425.8816" xlink:href="#aj"/>
<use x="293.528227" y="425.8816" xlink:href="#n"/>
<use x="304.750981" y="425.8816" xlink:href="#ai"/>
<use x="322.707388" y="425.8816" xlink:href="#m"/>
<use x="340.663795" y="425.8816" xlink:href="#m"/>
<use x="358.620202" y="425.8816" xlink:href="#o"/>
</g>
<g>
<use x="374.332031" y="425.8816" xlink:href="#ah"/>
<use x="381.065684" y="425.8816" xlink:href="#ag"/>
<use x="390.043887" y="425.8816" xlink:href="#af"/>
<use x="396.77754" y="425.8816" xlink:href="#ae"/>
<use x="412.489396" y="425.8816" xlink:href="#ad"/>
<use x="428.201252" y="425.8816" xlink:href="#ac"/>
<use x="437.179456" y="425.8816" xlink:href="#ab"/>
<use x="452.891312" y="425.8816" xlink:href="#aa"/>
</g>
<g>
<use x="135.746094" y="387.636633" xlink:href="#g"/>
<use x="146.968848" y="387.636633" xlink:href="#a"/>
<use x="158.191603" y="387.636633" xlink:href="#d"/>
<use x="164.925255" y="387.636633" xlink:href="#g"/>
<use x="176.14801" y="387.636633" xlink:href="#b"/>
</g>
<g>
<use x="202.304688" y="387.636633" xlink:href="#l"/>
<use x="213.527442" y="387.636633" xlink:href="#a"/>
<use x="224.750196" y="387.636633" xlink:href="#d"/>
<use x="231.483849" y="387.636633" xlink:href="#l"/>
<use x="242.706603" y="387.636633" xlink:href="#b"/>
</g>
<g>
<use x="268.507812" y="387.636633" xlink:href="#k"/>
<use x="279.730567" y="387.636633" xlink:href="#a"/>
<use x="290.953321" y="387.636633" xlink:href="#d"/>
<use x="297.686974" y="387.636633" xlink:href="#k"/>
<use x="308.909728" y="387.636633" xlink:href="#b"/>
</g>
<g>
<use x="334.984375" y="387.636633" xlink:href="#j"/>
<use x="346.207129" y="387.636633" xlink:href="#a"/>
<use x="357.429884" y="387.636633" xlink:href="#d"/>
<use x="364.163536" y="387.636633" xlink:href="#j"/>
<use x="375.386291" y="387.636633" xlink:href="#b"/>
</g>
<g>
<use x="400.957031" y="387.636633" xlink:href="#a"/>
<use x="412.179786" y="387.636633" xlink:href="#a"/>
<use x="423.40254" y="387.636633" xlink:href="#d"/>
<use x="430.136193" y="387.636633" xlink:href="#a"/>
<use x="441.358947" y="387.636633" xlink:href="#b"/>
</g>
<g>
<use x="467.253906" y="387.636633" xlink:href="#e"/>
<use x="478.476661" y="387.636633" xlink:href="#a"/>
<use x="489.699415" y="387.636633" xlink:href="#d"/>
<use x="496.433068" y="387.636633" xlink:href="#e"/>
<use x="507.655822" y="387.636633" xlink:href="#b"/>
</g>
<g>
<use x="54.855469" y="357.050696" xlink:href="#a"/>
<use x="66.078223" y="357.050696" xlink:href="#c"/>
</g>
<g>
<use x="54.855469" y="291.460852" xlink:href="#e"/>
<use x="66.078223" y="291.460852" xlink:href="#c"/>
</g>
<g>
<use x="54.855469" y="225.874914" xlink:href="#f"/>
<use x="66.078223" y="225.874914" xlink:href="#c"/>
</g>
<g>
<use x="54.855469" y="94.699133" xlink:href="#b"/>
<use x="66.078223" y="94.699133" xlink:href="#c"/>
</g>
<g>
<use x="43.429688" y="29.113196" xlink:href="#g"/>
<use x="54.652442" y="29.113196" xlink:href="#c"/>
<use x="65.875196" y="29.113196" xlink:href="#c"/>
</g>
<g>
<use x="54.855469" y="160.285071" xlink:href="#z"/>
<use x="66.078223" y="160.285071" xlink:href="#c"/>
</g>
<g>
<use x="29.355044" y="253.515625" xlink:href="#y"/>
<use x="29.355044" y="237.814496" xlink:href="#i"/>
<use x="29.355044" y="228.842422" xlink:href="#x"/>
<use x="29.355044" y="217.62733" xlink:href="#w"/>
<use x="29.355044" y="210.898274" xlink:href="#h"/>
<use x="29.355044" y="204.169219" xlink:href="#v"/>
<use x="29.355044" y="192.954127" xlink:href="#i"/>
<use x="29.355044" y="183.982053" xlink:href="#u"/>
<use x="29.355044" y="172.766961" xlink:href="#h"/>
<use x="29.355044" y="166.037905" xlink:href="#t"/>
</g>
<g>
<use x="29.355044" y="157.066406" xlink:href="#s"/>
<use x="29.355044" y="150.337351" xlink:href="#r"/>
<use x="29.355044" y="143.608296" xlink:href="#q"/>
<use x="29.355044" y="125.664148" xlink:href="#p"/>
</g>
<g>
<use x="533.375" y="387.636633" xlink:href="#f"/>
<use x="544.597754" y="387.636633" xlink:href="#a"/>
<use x="555.820509" y="387.636633" xlink:href="#d"/>
<use x="562.554161" y="387.636633" xlink:href="#f"/>
<use x="573.776916" y="387.636633" xlink:href="#b"/>
</g>
<path transform="matrix(2.2446 0 0 2.243 -6.5762 3.4795)" d="m60.521 122.72 14.669-64.535 15.089-49.668 14.419 5.9438 14.709 10.226 14.796 4.507 14.669 5.8602 14.838 5.7313 14.718 5.8794 14.789 7.4572 14.955 12.877 14.553 14.651 14.765 20.216 14.741 26.272" fill="none" stroke="#00a" stroke-width=".75"/>
<path d="m122.56 272.04h13.41v13.402h-13.41z" fill="#00a"/>
<path d="m155.48 127.29h13.41v13.402h-13.41z" fill="#00a"/>
<path d="m189.35 15.883h13.406v13.402h-13.406z" fill="#00a"/>
<path d="m221.71 29.211h13.41v13.398h-13.41z" fill="#00a"/>
<path d="m254.73 52.148h13.41v13.398h-13.41z" fill="#00a"/>
<path d="m287.95 62.258h13.41v13.398h-13.41z" fill="#00a"/>
<path d="m320.87 75.398h13.41v13.402h-13.41z" fill="#00a"/>
<path d="m354.18 88.254h13.406v13.402h-13.406z" fill="#00a"/>
<path d="m387.21 101.45h13.41v13.398h-13.41z" fill="#00a"/>
<path d="m420.4 118.17h13.41v13.402h-13.41z" fill="#00a"/>
<path d="m453.97 147.05h13.41v13.402h-13.41z" fill="#00a"/>
<path d="m486.63 179.92h13.41v13.398h-13.41z" fill="#00a"/>
<path d="m519.78 225.26h13.41v13.398h-13.41z" fill="#00a"/>
<path d="m552.86 284.19h13.41v13.398h-13.41z" fill="#00a"/>
</svg>
