<?xml version="1.0" encoding="UTF-8"?>
<svg width="800px" height="596px" version="1.1" viewBox="0 0 800 596" xmlns="http://www.w3.org/2000/svg" xmlns:xlink="http://www.w3.org/1999/xlink">
<defs>
<symbol id="an" overflow="visible">
<path d="m17.594-4.375h-9.6875l-1.5312 4.375h-6.2188l8.8906-23.984h7.375l8.8906 23.984h-6.2188zm-8.1406-4.4375h6.5781l-3.2812-9.5469z"/>
</symbol>
<symbol id="am" overflow="visible">
<path d="m2.7656-24.984h5.75v24.984h-5.75z"/>
</symbol>
<symbol id="al" overflow="visible">
<path d="m9.0469-23.094v5.1094h5.9375v4.1094h-5.9375v7.625c0 0.83594 0.16406 1.4023 0.5 1.7031 0.33203 0.29297 0.99219 0.4375 1.9844 0.4375h2.9531v4.1094h-4.9375c-2.2734 0-3.8828-0.47266-4.8281-1.4219-0.94922-0.94531-1.4219-2.5547-1.4219-4.8281v-7.625h-2.8594v-4.1094h2.8594v-5.1094z"/>
</symbol>
<symbol id="o" overflow="visible">
<path d="m20.734-9.0469v1.6406h-13.453c0.13281 1.3555 0.61719 2.3711 1.4531 3.0469 0.84375 0.66797 2.0156 1 3.5156 1 1.207 0 2.4453-0.17578 3.7188-0.53125 1.2695-0.36328 2.5781-0.91016 3.9219-1.6406v4.4375c-1.3672 0.51172-2.7305 0.89844-4.0938 1.1562-1.3555 0.26953-2.7148 0.40625-4.0781 0.40625-3.2617 0-5.793-0.82812-7.5938-2.4844-1.8047-1.6562-2.7031-3.9766-2.7031-6.9688 0-2.9258 0.88281-5.2266 2.6562-6.9062 1.7695-1.6875 4.207-2.5312 7.3125-2.5312 2.832 0 5.0977 0.85547 6.7969 2.5625 1.6953 1.6992 2.5469 3.9688 2.5469 6.8125zm-5.9062-1.9062c0-1.0938-0.32422-1.9727-0.96875-2.6406-0.63672-0.66406-1.4688-1-2.5-1-1.1172 0-2.0234 0.3125-2.7188 0.9375-0.6875 0.625-1.1211 1.5273-1.2969 2.7031z"/>
</symbol>
<symbol id="n" overflow="visible">
<path d="m16.141-13.094c-0.5-0.22656-1-0.39844-1.5-0.51562-0.5-0.11328-1-0.17188-1.5-0.17188-1.4805 0-2.6211 0.47656-3.4219 1.4219-0.80469 0.94922-1.2031 2.3086-1.2031 4.0781v8.2812h-5.75v-17.984h5.75v2.9531c0.73828-1.1758 1.5859-2.0352 2.5469-2.5781 0.95703-0.53906 2.1094-0.8125 3.4531-0.8125 0.19531 0 0.40625 0.011719 0.625 0.03125 0.22656 0.011719 0.55469 0.042969 0.98438 0.09375z"/>
</symbol>
<symbol id="ak" overflow="visible">
<path d="m16.828-17.422v4.3594c-1.2305-0.50781-2.418-0.89062-3.5625-1.1406-1.1484-0.25781-2.2305-0.39062-3.25-0.39062-1.0938 0-1.9062 0.13672-2.4375 0.40625-0.53125 0.27344-0.79688 0.69531-0.79688 1.2656 0 0.46094 0.19531 0.8125 0.59375 1.0625 0.40625 0.24219 1.1289 0.41797 2.1719 0.53125l1.0156 0.15625c2.9453 0.375 4.9258 0.99219 5.9375 1.8438 1.0195 0.85547 1.5312 2.1992 1.5312 4.0312 0 1.918-0.71094 3.3594-2.125 4.3281-1.4062 0.96094-3.5156 1.4375-6.3281 1.4375-1.1875 0-2.418-0.09375-3.6875-0.28125-1.2734-0.1875-2.5742-0.46875-3.9062-0.84375v-4.375c1.1445 0.5625 2.3164 0.98438 3.5156 1.2656 1.207 0.27344 2.4297 0.40625 3.6719 0.40625 1.125 0 1.9727-0.14844 2.5469-0.45312 0.57031-0.3125 0.85938-0.77344 0.85938-1.3906 0-0.50781-0.19922-0.89062-0.59375-1.1406-0.39844-0.25781-1.1797-0.45703-2.3438-0.59375l-1.0156-0.125c-2.5547-0.32031-4.3438-0.91406-5.375-1.7812-1.0312-0.875-1.5469-2.1914-1.5469-3.9531 0-1.9062 0.64844-3.3164 1.9531-4.2344 1.3125-0.92578 3.3164-1.3906 6.0156-1.3906 1.0625 0 2.1758 0.085937 3.3438 0.25 1.1641 0.15625 2.4375 0.40625 3.8125 0.75z"/>
</symbol>
<symbol id="aj" overflow="visible">
<path d="m15.016-3.0469c-0.79297 1.043-1.668 1.8125-2.625 2.3125-0.94922 0.49219-2.0547 0.73438-3.3125 0.73438-2.1992 0-4.0156-0.86328-5.4531-2.5938-1.4297-1.7266-2.1406-3.9297-2.1406-6.6094 0-2.6875 0.71094-4.8906 2.1406-6.6094 1.4375-1.7188 3.2539-2.5781 5.4531-2.5781 1.2578 0 2.3633 0.25 3.3125 0.75 0.95703 0.49219 1.832 1.2617 2.625 2.3125v-2.6562h5.7812v16.172c0 2.8828-0.91797 5.0859-2.75 6.6094-1.8242 1.5312-4.4688 2.2969-7.9375 2.2969-1.125 0-2.2148-0.089844-3.2656-0.26562-1.0547-0.16797-2.1055-0.42969-3.1562-0.78125v-4.4688c1 0.57031 1.9766 1 2.9375 1.2812 0.96875 0.28906 1.9414 0.4375 2.9219 0.4375 1.8828 0 3.2656-0.41797 4.1406-1.25 0.88281-0.82422 1.3281-2.1094 1.3281-3.8594zm-3.7969-11.203c-1.1875 0-2.1172 0.44531-2.7812 1.3281-0.66797 0.875-1 2.1172-1 3.7188 0 1.6484 0.32031 2.8984 0.96875 3.75 0.64453 0.85547 1.582 1.2812 2.8125 1.2812 1.1953 0 2.1289-0.4375 2.7969-1.3125 0.66406-0.88281 1-2.125 1-3.7188 0-1.6016-0.33594-2.8438-1-3.7188-0.66797-0.88281-1.6016-1.3281-2.7969-1.3281z"/>
</symbol>
<symbol id="ai" overflow="visible">
<path d="m2.5781-7v-10.984h5.7812v1.7969c0 0.96875-0.007813 2.1953-0.015625 3.6719-0.011719 1.4688-0.015625 2.4492-0.015625 2.9375 0 1.4492 0.035156 2.4922 0.10938 3.125 0.070312 0.63672 0.20312 1.1016 0.39062 1.3906 0.22656 0.375 0.53125 0.66797 0.90625 0.875 0.38281 0.19922 0.82812 0.29688 1.3281 0.29688 1.1953 0 2.1406-0.45703 2.8281-1.375 0.6875-0.92578 1.0312-2.207 1.0312-3.8438v-8.875h5.75v17.984h-5.75v-2.6094c-0.875 1.0547-1.7969 1.8281-2.7656 2.3281s-2.0391 0.75-3.2031 0.75c-2.0859 0-3.668-0.63281-4.75-1.9062-1.0859-1.2812-1.625-3.1328-1.625-5.5625z"/>
</symbol>
<symbol id="m" overflow="visible">
<path d="m8.5156-2.6094v9.4531h-5.75v-24.828h5.75v2.625c0.78906-1.0391 1.6719-1.8125 2.6406-2.3125s2.0781-0.75 3.3281-0.75c2.2188 0 4.0391 0.88281 5.4688 2.6406 1.4258 1.7617 2.1406 4.0273 2.1406 6.7969 0 2.7812-0.71484 5.0547-2.1406 6.8125-1.4297 1.7617-3.25 2.6406-5.4688 2.6406-1.25 0-2.3594-0.25-3.3281-0.75s-1.8516-1.2734-2.6406-2.3281zm3.8281-11.641c-1.2305 0-2.1797 0.45312-2.8438 1.3594-0.65625 0.90625-0.98438 2.2109-0.98438 3.9062 0 1.7109 0.32812 3.0156 0.98438 3.9219 0.66406 0.90625 1.6133 1.3594 2.8438 1.3594 1.2266 0 2.1641-0.44531 2.8125-1.3438 0.65625-0.90625 0.98438-2.2188 0.98438-3.9375 0-1.707-0.32812-3.0078-0.98438-3.9062-0.64844-0.90625-1.5859-1.3594-2.8125-1.3594z"/>
</symbol>
<symbol id="ah" overflow="visible"></symbol>
<symbol id="ag" overflow="visible">
<path d="m2.8281-24.984h6.8125v2.2969h-3.8594v24.734h3.8594v2.2969h-6.8125z"/>
</symbol>
<symbol id="af" overflow="visible">
<path d="m3.2344-23.984h3.25v22.312c0 2.8945-0.55469 4.9922-1.6562 6.2969-1.0938 1.3008-2.8594 1.9531-5.2969 1.9531h-1.2344v-2.7188h1.0156c1.4375 0 2.4453-0.40234 3.0312-1.2031 0.59375-0.80469 0.89062-2.2461 0.89062-4.3281z"/>
</symbol>
<symbol id="ae" overflow="visible">
<path d="m11.281-9.0469c-2.3867 0-4.043 0.27734-4.9688 0.82812-0.91797 0.54297-1.375 1.4766-1.375 2.7969 0 1.043 0.34375 1.875 1.0312 2.5 0.69531 0.61719 1.6406 0.92188 2.8281 0.92188 1.6328 0 2.9453-0.58203 3.9375-1.75 0.98828-1.1641 1.4844-2.7109 1.4844-4.6406v-0.65625zm5.9062-1.2188v10.266h-2.9688v-2.7344c-0.66797 1.0938-1.5078 1.9023-2.5156 2.4219-1.0117 0.51953-2.2461 0.78125-3.7031 0.78125-1.8438 0-3.3086-0.51562-4.3906-1.5469-1.0859-1.0391-1.625-2.4258-1.625-4.1562 0-2.0195 0.67578-3.5469 2.0312-4.5781 1.3516-1.0312 3.375-1.5469 6.0625-1.5469h4.1406v-0.28125c0-1.3633-0.44922-2.4141-1.3438-3.1562-0.88672-0.75-2.1406-1.125-3.7656-1.125-1.0234 0-2.0234 0.125-3 0.375-0.98047 0.25-1.918 0.62109-2.8125 1.1094v-2.7344c1.082-0.41406 2.1289-0.72656 3.1406-0.9375 1.0195-0.20703 2.0156-0.3125 2.9844-0.3125 2.6016 0 4.5469 0.67969 5.8281 2.0312 1.2891 1.3438 1.9375 3.3867 1.9375 6.125z"/>
</symbol>
<symbol id="ad" overflow="visible">
<path d="m18.062-10.859v10.859h-2.9531v-10.766c0-1.6953-0.33594-2.9688-1-3.8125-0.65625-0.84375-1.6523-1.2656-2.9844-1.2656-1.5938 0-2.8555 0.51172-3.7812 1.5312-0.91797 1.0117-1.375 2.3906-1.375 4.1406v10.172h-2.9844v-24.984h2.9844v9.7969c0.70703-1.082 1.5391-1.8906 2.5-2.4219 0.95703-0.53906 2.0625-0.8125 3.3125-0.8125 2.0703 0 3.6328 0.64062 4.6875 1.9219 1.0625 1.2812 1.5938 3.1641 1.5938 5.6406z"/>
</symbol>
<symbol id="ac" overflow="visible">
<path d="m13.531-15.219c-0.33594-0.19531-0.69922-0.33594-1.0938-0.42188-0.38672-0.09375-0.8125-0.14062-1.2812-0.14062-1.6797 0-2.9648 0.54297-3.8594 1.625-0.88672 1.0859-1.3281 2.6484-1.3281 4.6875v9.4688h-2.9844v-17.984h2.9844v2.7969c0.61328-1.0938 1.4219-1.9062 2.4219-2.4375s2.2109-0.79688 3.6406-0.79688c0.19531 0 0.41406 0.015625 0.65625 0.046875 0.25 0.023438 0.52344 0.058594 0.82812 0.10938z"/>
</symbol>
<symbol id="ab" overflow="visible">
<path d="m18.5-9.7344v1.4531h-13.594c0.125 2.0312 0.73438 3.5781 1.8281 4.6406 1.1016 1.0625 2.6328 1.5938 4.5938 1.5938 1.1328 0 2.2344-0.13281 3.2969-0.40625 1.0703-0.28125 2.1328-0.69531 3.1875-1.25v2.7812c-1.0625 0.46094-2.1523 0.80469-3.2656 1.0312-1.1172 0.23828-2.2461 0.35938-3.3906 0.35938-2.875 0-5.1523-0.83203-6.8281-2.5-1.6797-1.6758-2.5156-3.9375-2.5156-6.7812 0-2.9453 0.79688-5.2852 2.3906-7.0156 1.5938-1.7266 3.7383-2.5938 6.4375-2.5938 2.4258 0 4.3438 0.78125 5.75 2.3438 1.4062 1.5547 2.1094 3.668 2.1094 6.3438zm-2.9531-0.85938c-0.023437-1.625-0.47656-2.9141-1.3594-3.875-0.88672-0.96875-2.0586-1.4531-3.5156-1.4531-1.6484 0-2.9688 0.46875-3.9688 1.4062-0.99219 0.92969-1.5586 2.2422-1.7031 3.9375z"/>
</symbol>
<symbol id="aa" overflow="visible">
<path d="m10.016-24.984v29.328h-6.8125v-2.2969h3.8438v-24.734h-3.8438v-2.2969z"/>
</symbol>
<symbol id="g" overflow="visible">
<path d="m2.9688-1.9844h3.8594v-13.312l-4.2031 0.84375v-2.1406l4.1719-0.84375h2.3594v15.453h3.8594v1.9844h-10.047z"/>
</symbol>
<symbol id="a" overflow="visible">
<path d="m2.5781-17.438h9.2812v1.9844h-7.1094v4.2812c0.34375-0.125 0.67969-0.21094 1.0156-0.26562 0.34375-0.0625 0.6875-0.09375 1.0312-0.09375 1.9453 0 3.4883 0.53906 4.625 1.6094 1.1445 1.0625 1.7188 2.5078 1.7188 4.3281 0 1.875-0.58984 3.3359-1.7656 4.375-1.168 1.043-2.8125 1.5625-4.9375 1.5625-0.73047 0-1.4766-0.0625-2.2344-0.1875-0.76172-0.125-1.5469-0.3125-2.3594-0.5625v-2.375c0.70703 0.38672 1.4297 0.67188 2.1719 0.85938 0.75 0.1875 1.5391 0.28125 2.375 0.28125 1.3516 0 2.4219-0.35156 3.2031-1.0625 0.78906-0.70703 1.1875-1.6719 1.1875-2.8906s-0.39844-2.1797-1.1875-2.8906c-0.78125-0.70703-1.8516-1.0625-3.2031-1.0625-0.625 0-1.2578 0.074219-1.8906 0.21875-0.625 0.13672-1.2656 0.35547-1.9219 0.65625z"/>
</symbol>
<symbol id="d" overflow="visible">
<path d="m1.1719-7.5156h6.2969v1.9219h-6.2969z"/>
</symbol>
<symbol id="b" overflow="visible">
<path d="m2.625-0.35938v-2.1562c0.59375 0.28125 1.1914 0.5 1.7969 0.65625 0.61328 0.14844 1.2109 0.21875 1.7969 0.21875 1.5625 0 2.75-0.51953 3.5625-1.5625 0.82031-1.0508 1.2969-2.6445 1.4219-4.7812-0.46094 0.66797-1.0391 1.1836-1.7344 1.5469-0.6875 0.35547-1.4531 0.53125-2.2969 0.53125-1.7422 0-3.1211-0.52344-4.1406-1.5781-1.0234-1.0625-1.5312-2.5078-1.5312-4.3438 0-1.7812 0.53125-3.2109 1.5938-4.2969 1.0625-1.082 2.4727-1.625 4.2344-1.625 2.0195 0 3.5625 0.77344 4.625 2.3125 1.0625 1.543 1.5938 3.7891 1.5938 6.7344 0 2.75-0.65625 4.9492-1.9688 6.5938-1.3047 1.6367-3.0547 2.4531-5.25 2.4531-0.59375 0-1.1992-0.0625-1.8125-0.1875-0.60547-0.11719-1.2344-0.28516-1.8906-0.51562zm4.7031-7.3906c1.0625 0 1.8984-0.35938 2.5156-1.0781 0.625-0.72656 0.9375-1.7266 0.9375-3 0-1.25-0.3125-2.2383-0.9375-2.9688-0.61719-0.72656-1.4531-1.0938-2.5156-1.0938s-1.9062 0.36719-2.5312 1.0938c-0.61719 0.73047-0.92188 1.7188-0.92188 2.9688 0 1.2734 0.30469 2.2734 0.92188 3 0.625 0.71875 1.4688 1.0781 2.5312 1.0781z"/>
</symbol>
<symbol id="l" overflow="visible">
<path d="m4.5938-1.9844h8.2344v1.9844h-11.078v-1.9844c0.89453-0.92578 2.1133-2.1719 3.6562-3.7344 1.5508-1.5625 2.5234-2.5664 2.9219-3.0156 0.75781-0.85156 1.2891-1.5703 1.5938-2.1562 0.30078-0.59375 0.45312-1.1719 0.45312-1.7344 0-0.92578-0.32812-1.6797-0.98438-2.2656-0.64844-0.58203-1.4961-0.875-2.5469-0.875-0.74219 0-1.5234 0.13281-2.3438 0.39062-0.82422 0.25-1.6992 0.63672-2.625 1.1562v-2.375c0.94531-0.38281 1.832-0.67188 2.6562-0.85938 0.83203-0.19531 1.5859-0.29688 2.2656-0.29688 1.8125 0 3.2539 0.45312 4.3281 1.3594 1.0703 0.89844 1.6094 2.1016 1.6094 3.6094 0 0.71875-0.13672 1.4023-0.40625 2.0469-0.26172 0.63672-0.74609 1.3906-1.4531 2.2656-0.19922 0.23047-0.82031 0.88672-1.8594 1.9688-1.043 1.0742-2.5156 2.5781-4.4219 4.5156z"/>
</symbol>
<symbol id="k" overflow="visible">
<path d="m9.7188-9.4062c1.125 0.24219 2.0039 0.74609 2.6406 1.5156 0.63281 0.76172 0.95312 1.7031 0.95312 2.8281 0 1.7188-0.59375 3.0547-1.7812 4-1.1797 0.9375-2.8594 1.4062-5.0469 1.4062-0.73047 0-1.4844-0.074219-2.2656-0.21875-0.77344-0.14453-1.5703-0.36328-2.3906-0.65625v-2.2656c0.65625 0.375 1.3672 0.66406 2.1406 0.85938 0.78125 0.19922 1.5977 0.29688 2.4531 0.29688 1.4766 0 2.6016-0.28906 3.375-0.875 0.78125-0.59375 1.1719-1.4414 1.1719-2.5469 0-1.0312-0.36719-1.8359-1.0938-2.4219-0.71875-0.58203-1.7188-0.875-3-0.875h-2.0312v-1.9375h2.125c1.1562 0 2.0391-0.22656 2.6562-0.6875 0.61328-0.46875 0.92188-1.1328 0.92188-2 0-0.89453-0.32031-1.582-0.95312-2.0625-0.625-0.47656-1.5312-0.71875-2.7188-0.71875-0.64844 0-1.3398 0.074219-2.0781 0.21875-0.74219 0.13672-1.5586 0.35156-2.4531 0.64062v-2.0938c0.89453-0.25 1.7344-0.4375 2.5156-0.5625 0.78906-0.125 1.5312-0.1875 2.2188-0.1875 1.7891 0 3.207 0.40625 4.25 1.2188 1.0508 0.8125 1.5781 1.9141 1.5781 3.2969 0 0.96875-0.27734 1.7891-0.82812 2.4531-0.55469 0.66797-1.3398 1.125-2.3594 1.375z"/>
</symbol>
<symbol id="j" overflow="visible">
<path d="m9.0469-15.391-5.9688 9.3125h5.9688zm-0.625-2.0469h2.9688v11.359h2.5v1.9688h-2.5v4.1094h-2.3438v-4.1094h-7.875v-2.2812z"/>
</symbol>
<symbol id="e" overflow="visible">
<path d="m7.9062-9.6562c-1.0625 0-1.9062 0.36719-2.5312 1.0938-0.61719 0.71875-0.92188 1.7109-0.92188 2.9688 0 1.25 0.30469 2.2422 0.92188 2.9688 0.625 0.73047 1.4688 1.0938 2.5312 1.0938 1.0508 0 1.8828-0.36328 2.5-1.0938 0.625-0.72656 0.9375-1.7188 0.9375-2.9688 0-1.2578-0.3125-2.25-0.9375-2.9688-0.61719-0.72656-1.4492-1.0938-2.5-1.0938zm4.6875-7.3906v2.1406c-0.59375-0.28125-1.1953-0.49219-1.7969-0.64062-0.60547-0.14453-1.2031-0.21875-1.7969-0.21875-1.5625 0-2.7578 0.52734-3.5781 1.5781-0.8125 1.0547-1.2812 2.6406-1.4062 4.7656 0.45703-0.67578 1.0352-1.1953 1.7344-1.5625 0.69531-0.36328 1.4609-0.54688 2.2969-0.54688 1.75 0 3.1289 0.53125 4.1406 1.5938 1.0195 1.0625 1.5312 2.5117 1.5312 4.3438 0 1.793-0.53125 3.2305-1.5938 4.3125-1.0547 1.0859-2.4609 1.625-4.2188 1.625-2.0234 0-3.5703-0.76953-4.6406-2.3125-1.0625-1.5508-1.5938-3.7969-1.5938-6.7344 0-2.7578 0.64844-4.957 1.9531-6.5938 1.3125-1.6328 3.0703-2.4531 5.2812-2.4531 0.59375 0 1.1914 0.058594 1.7969 0.17188 0.60156 0.11719 1.2344 0.29297 1.8906 0.53125z"/>
</symbol>
<symbol id="c" overflow="visible">
<path d="m7.6094-15.891c-1.2188 0-2.1367 0.60156-2.75 1.7969-0.60547 1.1992-0.90625 2.9961-0.90625 5.3906 0 2.3984 0.30078 4.1953 0.90625 5.3906 0.61328 1.1875 1.5312 1.7812 2.75 1.7812s2.1328-0.59375 2.75-1.7812c0.61328-1.1953 0.92188-2.9922 0.92188-5.3906 0-2.3945-0.30859-4.1914-0.92188-5.3906-0.61719-1.1953-1.5312-1.7969-2.75-1.7969zm0-1.8594c1.957 0 3.4531 0.77344 4.4844 2.3125 1.0312 1.543 1.5469 3.7891 1.5469 6.7344 0 2.9375-0.51562 5.1836-1.5469 6.7344-1.0312 1.543-2.5273 2.3125-4.4844 2.3125-1.9609 0-3.4531-0.76953-4.4844-2.3125-1.0312-1.5508-1.5469-3.7969-1.5469-6.7344 0-2.9453 0.51562-5.1914 1.5469-6.7344 1.0312-1.5391 2.5234-2.3125 4.4844-2.3125z"/>
</symbol>
<symbol id="f" overflow="visible">
<path d="m1.9688-17.438h11.219v1l-6.3438 16.438h-2.4531l5.9531-15.453h-8.375z"/>
</symbol>
<symbol id="z" overflow="visible">
<path d="m7.6094-8.2812c-1.125 0-2.0117 0.30469-2.6562 0.90625-0.63672 0.59375-0.95312 1.418-0.95312 2.4688 0 1.0547 0.31641 1.8828 0.95312 2.4844 0.64453 0.59375 1.5312 0.89062 2.6562 0.89062s2.0078-0.30078 2.6562-0.90625c0.64453-0.60156 0.96875-1.4258 0.96875-2.4688 0-1.0508-0.32422-1.875-0.96875-2.4688-0.64844-0.60156-1.5312-0.90625-2.6562-0.90625zm-2.3594-1c-1.0117-0.25-1.8047-0.71875-2.375-1.4062-0.5625-0.69531-0.84375-1.5469-0.84375-2.5469 0-1.3945 0.49219-2.4922 1.4844-3.2969 1-0.8125 2.3633-1.2188 4.0938-1.2188 1.7383 0 3.1016 0.40625 4.0938 1.2188 0.98828 0.80469 1.4844 1.9023 1.4844 3.2969 0 1-0.28906 1.8516-0.85938 2.5469-0.5625 0.6875-1.3438 1.1562-2.3438 1.4062 1.1328 0.26172 2.0195 0.77734 2.6562 1.5469 0.63281 0.77344 0.95312 1.7148 0.95312 2.8281 0 1.6875-0.51562 2.9844-1.5469 3.8906s-2.5117 1.3594-4.4375 1.3594c-1.9297 0-3.4062-0.45312-4.4375-1.3594s-1.5469-2.2031-1.5469-3.8906c0-1.1133 0.31641-2.0547 0.95312-2.8281 0.64453-0.76953 1.5352-1.2852 2.6719-1.5469zm-0.85938-3.7344c0 0.90625 0.28125 1.6172 0.84375 2.125 0.5625 0.5 1.3516 0.75 2.375 0.75 1.0078 0 1.8008-0.25 2.375-0.75 0.57031-0.50781 0.85938-1.2188 0.85938-2.125 0-0.89453-0.28906-1.5977-0.85938-2.1094-0.57422-0.50781-1.3672-0.76562-2.375-0.76562-1.0234 0-1.8125 0.25781-2.375 0.76562-0.5625 0.51172-0.84375 1.2148-0.84375 2.1094z"/>
</symbol>
<symbol id="y" overflow="visible">
<path d="m-1.2969-17.875c0.54297 1.125 0.95312 2.293 1.2344 3.5 0.26953 1.2109 0.40625 2.4531 0.40625 3.7344 0 2.9062-0.8125 5.2109-2.4375 6.9062-1.625 1.6992-3.8281 2.5469-6.6094 2.5469-2.8125 0-5.0234-0.86328-6.6406-2.5938-1.6133-1.7266-2.4219-4.0977-2.4219-7.1094 0-1.1562 0.10938-2.2656 0.32812-3.3281s0.54297-2.0664 0.96875-3.0156h3.6094c-0.55078 0.98047-0.96094 1.9492-1.2344 2.9062-0.26953 0.96094-0.40625 1.9219-0.40625 2.8906 0 1.793 0.5 3.1719 1.5 4.1406s2.4336 1.4531 4.2969 1.4531c1.8438 0 3.2734-0.46094 4.2812-1.3906 1-0.9375 1.5-2.2656 1.5-3.9844 0-0.46875-0.023437-0.89844-0.078125-1.2969-0.0625-0.40625-0.15625-0.76953-0.28125-1.0938h-3.3906v2.75h-3.0156v-7.0156z"/>
</symbol>
<symbol id="i" overflow="visible">
<path d="m-9.5312-11.734c-0.16406 0.375-0.28906 0.74609-0.375 1.1094-0.082031 0.35547-0.125 0.71484-0.125 1.0781 0 1.0742 0.35156 1.9023 1.0469 2.4844 0.6875 0.58594 1.6719 0.875 2.9531 0.875h6.0312v4.1719h-13.094v-4.1719h2.1562c-0.85156-0.53906-1.4766-1.1602-1.875-1.8594-0.39453-0.69531-0.59375-1.5312-0.59375-2.5 0-0.14453 0.007812-0.29688 0.015625-0.45312 0.011719-0.16406 0.039063-0.40625 0.078125-0.71875z"/>
</symbol>
<symbol id="x" overflow="visible">
<path d="m-6.5781-15.062h1.1875v9.7656c0.98047-0.09375 1.7188-0.44141 2.2188-1.0469 0.49219-0.61328 0.73438-1.4688 0.73438-2.5625 0-0.875-0.12891-1.7695-0.39062-2.6875-0.25781-0.92578-0.65625-1.8789-1.1875-2.8594h3.2188c0.375 0.99219 0.65625 1.9805 0.84375 2.9688 0.19531 0.99219 0.29688 1.9805 0.29688 2.9688 0 2.3672-0.59766 4.2031-1.7969 5.5156-1.207 1.3125-2.8984 1.9688-5.0781 1.9688-2.1328 0-3.8125-0.64062-5.0312-1.9219-1.2266-1.2891-1.8438-3.0664-1.8438-5.3281 0-2.0508 0.62109-3.6914 1.8594-4.9219 1.2422-1.2383 2.8984-1.8594 4.9688-1.8594zm-1.3906 4.2969c-0.78906 0-1.4297 0.23438-1.9219 0.70312-0.48828 0.46094-0.73438 1.0586-0.73438 1.7969 0 0.8125 0.23047 1.4766 0.6875 1.9844 0.46094 0.5 1.1172 0.8125 1.9688 0.9375z"/>
</symbol>
<symbol id="w" overflow="visible">
<path d="m-13.094-2.0156v-4.1719h13.094v4.1719zm-5.0938 0v-4.1719h3.4062v4.1719z"/>
</symbol>
<symbol id="h" overflow="visible">
<path d="m-18.188-10.625h2.75v2.3125c0 0.59375 0.10938 1.0117 0.32812 1.25 0.21094 0.23047 0.57812 0.34375 1.1094 0.34375h0.90625v-3.5781h3v3.5781h10.094v4.1875h-10.094v2.0781h-3v-2.0781h-0.90625c-1.4258 0-2.4766-0.39453-3.1562-1.1875-0.6875-0.80078-1.0312-2.0352-1.0312-3.7031z"/>
</symbol>
<symbol id="v" overflow="visible">
<path d="m-18.188-2.0156v-4.1719h9.9062l-4.8125-4.8125v-4.8594l6.0156 6.3906 7.0781-6.8906v5.0625l-5.4531 5.1094h5.4531v4.1719z"/>
</symbol>
<symbol id="u" overflow="visible">
<path d="m-5.8906-7.875c0 0.875 0.15234 1.5312 0.45312 1.9688 0.29297 0.4375 0.72656 0.65625 1.2969 0.65625 0.53125 0 0.94922-0.17578 1.25-0.53125 0.30469-0.35156 0.45312-0.84375 0.45312-1.4688 0-0.78906-0.28125-1.4531-0.84375-1.9844-0.57031-0.53906-1.2812-0.8125-2.125-0.8125h-0.48438zm-1.5781-6.3906h7.4688v4.2188h-1.9375c0.79297 0.5625 1.3711 1.1953 1.7344 1.8906 0.36328 0.69922 0.54688 1.5547 0.54688 2.5625 0 1.3555-0.39453 2.4531-1.1875 3.2969-0.78906 0.84375-1.8164 1.2656-3.0781 1.2656-1.5391 0-2.6641-0.52344-3.375-1.5781-0.71875-1.0508-1.0781-2.707-1.0781-4.9688v-2.4688h-0.32812c-0.66406 0-1.1484 0.26172-1.4531 0.78125-0.3125 0.52344-0.46875 1.3359-0.46875 2.4375 0 0.89844 0.089844 1.7305 0.26562 2.5 0.17969 0.77344 0.44922 1.4922 0.8125 2.1562h-3.1875c-0.21875-0.89453-0.38281-1.7891-0.5-2.6875-0.11328-0.90625-0.17188-1.8125-0.17188-2.7188 0-2.3633 0.46875-4.0664 1.4062-5.1094 0.92969-1.0508 2.4375-1.5781 4.5312-1.5781z"/>
</symbol>
<symbol id="t" overflow="visible">
<path d="m-16.812-6.5781h3.7188v-4.3125h3v4.3125h5.5469c0.60547 0 1.0156-0.11719 1.2344-0.35938 0.21094-0.23828 0.3125-0.71875 0.3125-1.4375v-2.1562h3v3.5938c0 1.6484-0.34375 2.8203-1.0312 3.5156-0.6875 0.6875-1.8594 1.0312-3.5156 1.0312h-5.5469v2.0781h-3v-2.0781h-3.7188z"/>
</symbol>
<symbol id="s" overflow="visible"></symbol>
<symbol id="r" overflow="visible">
<path d="m-18.188-2.0625v-4.9531h1.6719v2.8125h18v-2.8125h1.6719v4.9531z"/>
</symbol>
<symbol id="q" overflow="visible">
<path d="m-7.6719-17.391c0 0.67969 0.28906 1.2109 0.85938 1.5938 0.57422 0.38672 1.375 0.57812 2.4062 0.57812 1.0117 0 1.8086-0.19141 2.3906-0.57812 0.58594-0.38281 0.875-0.91406 0.875-1.5938 0-0.66406-0.28906-1.1914-0.875-1.5781-0.58203-0.38281-1.3789-0.57812-2.3906-0.57812-1.0195 0-1.8164 0.19531-2.3906 0.57812-0.58203 0.38672-0.875 0.91406-0.875 1.5781zm-1.4844 0c0-1.2266 0.42969-2.2031 1.2812-2.9219 0.85547-0.72656 2.0117-1.0938 3.4688-1.0938 1.4609 0 2.6172 0.36719 3.4688 1.0938 0.85547 0.73047 1.2812 1.7031 1.2812 2.9219 0 1.2422-0.42578 2.2266-1.2812 2.9531-0.85156 0.73047-2.0078 1.0938-3.4688 1.0938-1.4688 0-2.625-0.36328-3.4688-1.0938-0.85156-0.72656-1.2812-1.7109-1.2812-2.9531zm-7.125 12.047c0 0.67969 0.29297 1.2109 0.875 1.5938 0.57422 0.38672 1.3711 0.57812 2.3906 0.57812 1.0234 0 1.8242-0.19141 2.4062-0.57812 0.57422-0.38281 0.85938-0.91406 0.85938-1.5938 0-0.67578-0.28516-1.207-0.85938-1.5938-0.58203-0.38281-1.3828-0.57812-2.4062-0.57812-1.0078 0-1.8047 0.19922-2.3906 0.59375-0.58203 0.38672-0.875 0.91406-0.875 1.5781zm-1.4844-10.547v-1.8594l18.109 10.906v1.875zm0 10.547c0-1.2266 0.42969-2.207 1.2812-2.9375 0.85547-0.72656 2.0117-1.0938 3.4688-1.0938 1.4688 0 2.6328 0.36719 3.4844 1.0938 0.84375 0.73047 1.2656 1.7109 1.2656 2.9375 0 1.2422-0.42578 2.2266-1.2812 2.9531-0.85156 0.71875-2.0078 1.0781-3.4688 1.0781-1.4453 0-2.5977-0.36328-3.4531-1.0938-0.86328-0.72656-1.2969-1.707-1.2969-2.9375z"/>
</symbol>
<symbol id="p" overflow="visible">
<path d="m-18.188-7.2812h21.344v4.9531h-1.6719v-2.7812h-18v2.7812h-1.6719z"/>
</symbol>
</defs>
<path transform="matrix(2.9927 0 0 2.9907 -8.7682 4.6394)" d="m252.23 154.72-209.13-0.003918" fill="none" stroke="#000" stroke-width=".75"/>
<path transform="matrix(2.9927 0 0 2.9907 -8.7682 4.6394)" d="m45.683 8.5177v149.05" fill="none" stroke="#000" stroke-width=".75"/>
<path transform="matrix(2.9927 0 0 2.9907 -8.7682 4.6394)" d="m45.683 8.5177h206.55v146.2h-206.55z" fill="none" stroke="#000" stroke-width="1.5"/>
<path transform="matrix(2.9927 0 0 2.9907 -8.7682 4.6394)" d="m75.189 8.5177v149.05" fill="none" stroke="#000" stroke-width=".75"/>
<path transform="matrix(2.9927 0 0 2.9907 -8.7682 4.6394)" d="m104.7 8.5177v149.05" fill="none" stroke="#000" stroke-width=".75"/>
<path transform="matrix(2.9927 0 0 2.9907 -8.7682 4.6394)" d="m134.2 8.5177v149.05" fill="none" stroke="#000" stroke-width=".75"/>
<path transform="matrix(2.9927 0 0 2.9907 -8.7682 4.6394)" d="m163.71 8.5177v149.05" fill="none" stroke="#000" stroke-width=".75"/>
<path transform="matrix(2.9927 0 0 2.9907 -8.7682 4.6394)" d="m193.22 8.5177v149.05" fill="none" stroke="#000" stroke-width=".75"/>
<path transform="matrix(2.9927 0 0 2.9907 -8.7682 4.6394)" d="m222.72 8.5177v149.05" fill="none" stroke="#000" stroke-width=".75"/>
<path transform="matrix(2.9927 0 0 2.9907 -8.7682 4.6394)" d="m252.23 8.5177v149.05" fill="none" stroke="#000" stroke-width=".75"/>
<path transform="matrix(2.9927 0 0 2.9907 -8.7682 4.6394)" d="m252.23 125.48-209.13-0.003918" fill="none" stroke="#000" stroke-width=".75"/>
<path transform="matrix(2.9927 0 0 2.9907 -8.7682 4.6394)" d="m252.23 96.238-209.13-0.003918" fill="none" stroke="#000" stroke-width=".75"/>
<path transform="matrix(2.9927 0 0 2.9907 -8.7682 4.6394)" d="m252.23 66.997-209.13-0.003918" fill="none" stroke="#000" stroke-width=".75"/>
<path transform="matrix(2.9927 0 0 2.9907 -8.7682 4.6394)" d="m252.23 37.758-209.13-0.005224" fill="none" stroke="#000" stroke-width=".75"/>
<path transform="matrix(2.9927 0 0 2.9907 -8.7682 4.6394)" d="m252.23 8.5177-209.13-0.003918" fill="none" stroke="#000" stroke-width=".75"/>
<g>
<use x="256.699219" y="567.843435" xlink:href="#an"/>
<use x="283.633829" y="567.843435" xlink:href="#am"/>
<use x="295.604767" y="567.843435" xlink:href="#al"/>
<use x="310.56844" y="567.843435" xlink:href="#o"/>
<use x="331.517581" y="567.843435" xlink:href="#n"/>
<use x="346.481254" y="567.843435" xlink:href="#ak"/>
<use x="367.430395" y="567.843435" xlink:href="#aj"/>
<use x="391.372271" y="567.843435" xlink:href="#n"/>
<use x="406.335944" y="567.843435" xlink:href="#ai"/>
<use x="430.27782" y="567.843435" xlink:href="#m"/>
<use x="454.219696" y="567.843435" xlink:href="#m"/>
<use x="478.161572" y="567.843435" xlink:href="#o"/>
</g>
<g>
<use x="499.109375" y="567.843435" xlink:href="#ah"/>
<use x="508.087579" y="567.843435" xlink:href="#ag"/>
<use x="520.058517" y="567.843435" xlink:href="#af"/>
<use x="529.03672" y="567.843435" xlink:href="#ae"/>
<use x="549.985862" y="567.843435" xlink:href="#ad"/>
<use x="570.935003" y="567.843435" xlink:href="#ac"/>
<use x="582.905941" y="567.843435" xlink:href="#ab"/>
<use x="603.855083" y="567.843435" xlink:href="#aa"/>
</g>
<g>
<use x="180.996094" y="516.848844" xlink:href="#g"/>
<use x="195.959766" y="516.848844" xlink:href="#a"/>
<use x="210.923439" y="516.848844" xlink:href="#d"/>
<use x="219.901642" y="516.848844" xlink:href="#g"/>
<use x="234.865315" y="516.848844" xlink:href="#b"/>
</g>
<g>
<use x="269.738281" y="516.848844" xlink:href="#l"/>
<use x="284.701954" y="516.848844" xlink:href="#a"/>
<use x="299.665626" y="516.848844" xlink:href="#d"/>
<use x="308.64383" y="516.848844" xlink:href="#l"/>
<use x="323.607502" y="516.848844" xlink:href="#b"/>
</g>
<g>
<use x="358.011719" y="516.848844" xlink:href="#k"/>
<use x="372.975391" y="516.848844" xlink:href="#a"/>
<use x="387.939064" y="516.848844" xlink:href="#d"/>
<use x="396.917267" y="516.848844" xlink:href="#k"/>
<use x="411.88094" y="516.848844" xlink:href="#b"/>
</g>
<g>
<use x="446.644531" y="516.848844" xlink:href="#j"/>
<use x="461.608204" y="516.848844" xlink:href="#a"/>
<use x="476.571876" y="516.848844" xlink:href="#d"/>
<use x="485.55008" y="516.848844" xlink:href="#j"/>
<use x="500.513752" y="516.848844" xlink:href="#b"/>
</g>
<g>
<use x="534.613281" y="516.848844" xlink:href="#a"/>
<use x="549.576954" y="516.848844" xlink:href="#a"/>
<use x="564.540626" y="516.848844" xlink:href="#d"/>
<use x="573.51883" y="516.848844" xlink:href="#a"/>
<use x="588.482502" y="516.848844" xlink:href="#b"/>
</g>
<g>
<use x="623.003906" y="516.848844" xlink:href="#e"/>
<use x="637.967579" y="516.848844" xlink:href="#a"/>
<use x="652.931251" y="516.848844" xlink:href="#d"/>
<use x="661.909455" y="516.848844" xlink:href="#e"/>
<use x="676.873127" y="516.848844" xlink:href="#b"/>
</g>
<g>
<use x="73.136719" y="476.063688" xlink:href="#a"/>
<use x="88.100391" y="476.063688" xlink:href="#c"/>
</g>
<g>
<use x="73.136719" y="388.614469" xlink:href="#e"/>
<use x="88.100391" y="388.614469" xlink:href="#c"/>
</g>
<g>
<use x="73.136719" y="301.16525" xlink:href="#f"/>
<use x="88.100391" y="301.16525" xlink:href="#c"/>
</g>
<g>
<use x="73.136719" y="126.266813" xlink:href="#b"/>
<use x="88.100391" y="126.266813" xlink:href="#c"/>
</g>
<g>
<use x="57.90625" y="38.813688" xlink:href="#g"/>
<use x="72.869923" y="38.813688" xlink:href="#c"/>
<use x="87.833595" y="38.813688" xlink:href="#c"/>
</g>
<g>
<use x="73.136719" y="213.716032" xlink:href="#z"/>
<use x="88.100391" y="213.716032" xlink:href="#c"/>
</g>
<g>
<use x="39.137454" y="338.023438" xlink:href="#y"/>
<use x="39.137454" y="317.088599" xlink:href="#i"/>
<use x="39.137454" y="305.125834" xlink:href="#x"/>
<use x="39.137454" y="290.172377" xlink:href="#w"/>
<use x="39.137454" y="281.200303" xlink:href="#h"/>
<use x="39.137454" y="272.22823" xlink:href="#v"/>
<use x="39.137454" y="257.274773" xlink:href="#i"/>
<use x="39.137454" y="245.312008" xlink:href="#u"/>
<use x="39.137454" y="230.358552" xlink:href="#h"/>
<use x="39.137454" y="221.386478" xlink:href="#t"/>
</g>
<g>
<use x="39.137454" y="209.421875" xlink:href="#s"/>
<use x="39.137454" y="200.449801" xlink:href="#r"/>
<use x="39.137454" y="191.477727" xlink:href="#q"/>
<use x="39.137454" y="167.552197" xlink:href="#p"/>
</g>
<g>
<use x="711.164062" y="516.848844" xlink:href="#f"/>
<use x="726.127735" y="516.848844" xlink:href="#a"/>
<use x="741.091408" y="516.848844" xlink:href="#d"/>
<use x="750.069611" y="516.848844" xlink:href="#f"/>
<use x="765.033284" y="516.848844" xlink:href="#b"/>
</g>
<path transform="matrix(2.9927 0 0 2.9907 -8.7682 4.6394)" d="m60.521 122.72 14.668-64.535 15.089-49.67 14.418 5.9442 14.711 10.226 14.796 4.5075 14.668 5.8593 14.838 5.7326 14.719 5.8789 14.787 7.4567 14.955 12.879 14.552 14.651 14.766 20.215 14.74 26.273" fill="none" stroke="#00a" stroke-width=".75"/>
<path d="m163.41 362.72h17.879v17.867h-17.879z" fill="#00a"/>
<path d="m207.32 169.71h17.879v17.867h-17.879z" fill="#00a"/>
<path d="m252.47 21.18h17.879v17.867h-17.879z" fill="#00a"/>
<path d="m295.62 38.945h17.879v17.867h-17.879z" fill="#00a"/>
<path d="m339.64 69.527h17.879v17.867h-17.879z" fill="#00a"/>
<path d="m383.93 83.008h17.879v17.867h-17.879z" fill="#00a"/>
<path d="m427.82 100.54h17.879v17.863h-17.879z" fill="#00a"/>
<path d="m472.23 117.68h17.879v17.863h-17.879z" fill="#00a"/>
<path d="m516.28 135.26h17.879v17.867h-17.879z" fill="#00a"/>
<path d="m560.54 157.56h17.879v17.867h-17.879z" fill="#00a"/>
<path d="m605.3 196.07h17.879v17.867h-17.879z" fill="#00a"/>
<path d="m648.84 239.89h17.879v17.867h-17.879z" fill="#00a"/>
<path d="m693.04 300.35h17.879v17.867h-17.879z" fill="#00a"/>
<path d="m737.15 378.92h17.879v17.867h-17.879z" fill="#00a"/>
</svg>
