<?xml version="1.0" encoding="UTF-8"?>
<svg width="800px" height="115px" version="1.1" viewBox="0 0 800 115" xmlns="http://www.w3.org/2000/svg">
<g>
<path d="m0 1.3359v112.33h164.65v-112.33zm5.6094 5.6172h153.43v101.09h-153.43z"/>
<path d="m211.78 1.3359v112.33h164.65v-112.33zm5.6094 5.6172h153.43v101.09h-153.43z"/>
<path d="m423.57 1.3359v112.33h164.65v-112.33zm5.6094 5.6172h153.43v101.09h-153.43z"/>
<path d="m635.35 1.3359v112.33h164.65v-112.33zm5.6094 5.6172h153.43v101.09h-153.43z"/>
<path d="m161.85 55.848v4.4961h41.09v-4.4961z"/>
<path d="m184.99 58.098-8.9766 8.9922 31.414-8.9922-31.414-8.9922z" fill-rule="evenodd"/>
<path d="m171.9 46.684 11.395 11.414-11.395 11.414 39.879-11.414zm8.2227 4.8516 22.945 6.5625-22.953 6.5703 6.5625-6.5703-0.84766-0.84766z" fill-rule="evenodd"/>
<path d="m373.63 55.758v4.4961h41.094v-4.4961z"/>
<path d="m396.77 58.004-8.9727 8.9922 31.414-8.9922-31.414-8.9922z" fill-rule="evenodd"/>
<path d="m383.68 46.59 11.395 11.414-11.395 11.414 39.883-11.414zm8.2188 4.8438 22.949 6.5664-22.941 6.5703 6.5508-6.5664-0.84375-0.84766z" fill-rule="evenodd"/>
<path d="m585.41 55.555v4.4961h41.09v-4.4961z"/>
<path d="m608.55 57.805-8.9766 8.9883 31.414-8.9883-31.414-8.9922z" fill-rule="evenodd"/>
<path d="m595.46 46.387 11.395 11.418-11.395 11.414 39.883-11.414zm8.2266 4.8516 22.941 6.5664-22.941 6.5625 6.5586-6.5625-0.85156-0.84766z" fill-rule="evenodd"/>
<path d="m19.844 22.805c-0.89844 0-1.5977 0.33203-2.0938 0.99609-0.49609 0.66797-0.74219 1.6055-0.74219 2.8125 0 1.2031 0.24609 2.1406 0.74219 2.8047 0.49609 0.66797 1.1953 1 2.0938 1 0.90625 0 1.6055-0.33203 2.1016-1 0.49609-0.66406 0.74609-1.6016 0.74609-2.8047 0-1.207-0.25-2.1445-0.74609-2.8125-0.49609-0.66406-1.1953-0.99609-2.1016-0.99609zm0-2.1445c1.8398 0 3.2852 0.52734 4.3281 1.582 1.043 1.0547 1.5625 2.5117 1.5625 4.3711 0 1.8555-0.51953 3.3086-1.5625 4.3633-1.043 1.0547-2.4883 1.5859-4.3281 1.5859-1.8359 0-3.2773-0.53125-4.3242-1.5859-1.043-1.0547-1.5664-2.5078-1.5664-4.3633 0-1.8594 0.52344-3.3164 1.5664-4.3711 1.0469-1.0547 2.4883-1.582 4.3242-1.582z"/>
<path d="m27.844 20.383h2.7461v6.5078l3.1602-3.1562h3.1914l-4.1953 3.9492 4.5234 4.6523h-3.3281l-3.3516-3.5859v3.5859h-2.7461z"/>
<path d="m37.867 23.734h7.4922v1.918l-4.5234 4.7188h4.5234v1.9648h-7.6836v-1.918l4.5273-4.7188h-4.3359z"/>
<path d="m47.434 23.734h2.7461v8.6016h-2.7461zm0-3.3516h2.7461v2.2422h-2.7461z"/>
<path d="m55.562 31.094v4.5156h-2.7461v-11.875h2.7461v1.2578c0.37891-0.5 0.79688-0.87109 1.2578-1.1055 0.46094-0.24219 0.98828-0.36328 1.5859-0.36328 1.0586 0 1.9297 0.42578 2.6094 1.2695 0.67969 0.83984 1.0195 1.9219 1.0195 3.25s-0.33984 2.4141-1.0195 3.2578c-0.67969 0.83984-1.5508 1.2617-2.6094 1.2617-0.59766 0-1.125-0.12109-1.5859-0.35547-0.46094-0.24219-0.87891-0.61328-1.2578-1.1133zm1.8242-5.5703c-0.58594 0-1.0391 0.21875-1.3555 0.65234-0.3125 0.42969-0.46875 1.0547-0.46875 1.8672s0.15625 1.4375 0.46875 1.875c0.31641 0.42969 0.76953 0.64453 1.3555 0.64453 0.58984 0 1.0352-0.21484 1.3438-0.64453 0.3125-0.42969 0.46875-1.0547 0.46875-1.875 0-0.82031-0.15625-1.4453-0.46875-1.875-0.30859-0.42969-0.75391-0.64453-1.3438-0.64453z"/>
<path d="m64.059 23.734h2.7461v8.6016h-2.7461zm0-3.3516h2.7461v2.2422h-2.7461z"/>
<path d="m72.441 21.289v2.4453h2.832v1.9648h-2.832v3.6484c0 0.40234 0.082032 0.67188 0.23828 0.81641 0.16016 0.13672 0.47266 0.20703 0.94531 0.20703h1.4102v1.9648h-2.3555c-1.082 0-1.8516-0.22266-2.3086-0.67578-0.44922-0.45312-0.67578-1.2266-0.67578-2.3125v-3.6484h-1.3633v-1.9648h1.3633v-2.4453z"/>
<path d="m80.801 28.465c-0.57031 0-1.0039 0.097656-1.293 0.29297-0.28906 0.19531-0.42969 0.48047-0.42969 0.85938 0 0.34766 0.11328 0.625 0.34375 0.82422 0.23438 0.19141 0.55859 0.28906 0.97266 0.28906 0.51953 0 0.95312-0.18359 1.3047-0.55078 0.35547-0.375 0.53125-0.83984 0.53125-1.3984v-0.31641zm4.1953-1.0352v4.9062h-2.7656v-1.2734c-0.37109 0.52344-0.78516 0.90234-1.2422 1.1445-0.46094 0.23438-1.0234 0.35547-1.6797 0.35547-0.89062 0-1.6133-0.26172-2.1719-0.77734-0.55078-0.52344-0.82812-1.1992-0.82812-2.0273 0-1.0117 0.34375-1.75 1.0352-2.2227 0.69531-0.46875 1.7852-0.70703 3.2656-0.70703h1.6211v-0.21484c0-0.43359-0.17188-0.75391-0.51562-0.95312-0.34375-0.20312-0.875-0.30469-1.6016-0.30469-0.58984 0-1.1367 0.058593-1.6406 0.17578-0.50781 0.11719-0.97656 0.29297-1.4141 0.53125v-2.0977c0.58984-0.14453 1.1797-0.25391 1.7734-0.32422 0.59375-0.078125 1.1875-0.11719 1.7773-0.11719 1.5508 0 2.668 0.30859 3.3516 0.92578 0.69141 0.60938 1.0352 1.6016 1.0352 2.9805z"/>
<path d="m87.551 20.383h2.7461v11.953h-2.7461z"/>
<path d="m92.938 20.383h2.7461v11.953h-2.7461z"/>
<path d="m102.17 28.465c-0.57422 0-1.0078 0.097656-1.2969 0.29297-0.28906 0.19531-0.42969 0.48047-0.42969 0.85938 0 0.34766 0.11328 0.625 0.34375 0.82422 0.23438 0.19141 0.5625 0.28906 0.97656 0.28906 0.51562 0 0.94922-0.18359 1.3008-0.55078 0.35547-0.375 0.53125-0.83984 0.53125-1.3984v-0.31641zm4.1953-1.0352v4.9062h-2.7695v-1.2734c-0.36719 0.52344-0.78125 0.90234-1.2422 1.1445-0.46094 0.23438-1.0195 0.35547-1.6797 0.35547-0.89062 0-1.6133-0.26172-2.1719-0.77734-0.55078-0.52344-0.82812-1.1992-0.82812-2.0273 0-1.0117 0.34375-1.75 1.0352-2.2227 0.69531-0.46875 1.7852-0.70703 3.2695-0.70703h1.6172v-0.21484c0-0.43359-0.17188-0.75391-0.51562-0.95312-0.33984-0.20312-0.875-0.30469-1.6016-0.30469-0.58984 0-1.1367 0.058593-1.6406 0.17578-0.50781 0.11719-0.97656 0.29297-1.4141 0.53125v-2.0977c0.58984-0.14453 1.1797-0.25391 1.7734-0.32422 0.59375-0.078125 1.1875-0.11719 1.7812-0.11719 1.5469 0 2.6641 0.30859 3.3516 0.92578 0.6875 0.60938 1.0352 1.6016 1.0352 2.9805z"/>
<path d="m111.66 31.094v4.5156h-2.7461v-11.875h2.7461v1.2578c0.37891-0.5 0.80078-0.87109 1.2578-1.1055 0.46094-0.24219 0.99219-0.36328 1.5898-0.36328 1.0586 0 1.9258 0.42578 2.6055 1.2695 0.67969 0.83984 1.0195 1.9219 1.0195 3.25s-0.33984 2.4141-1.0195 3.2578c-0.67969 0.83984-1.5469 1.2617-2.6055 1.2617-0.59766 0-1.1289-0.12109-1.5898-0.35547-0.45703-0.24219-0.87891-0.61328-1.2578-1.1133zm1.8281-5.5703c-0.58984 0-1.043 0.21875-1.3594 0.65234-0.3125 0.42969-0.46875 1.0547-0.46875 1.8672s0.15625 1.4375 0.46875 1.875c0.31641 0.42969 0.76953 0.64453 1.3594 0.64453 0.58594 0 1.0352-0.21484 1.3398-0.64453 0.3125-0.42969 0.46875-1.0547 0.46875-1.875 0-0.82031-0.15625-1.4453-0.46875-1.875-0.30469-0.42969-0.75391-0.64453-1.3398-0.64453z"/>
<path d="m122.91 31.094v4.5156h-2.7461v-11.875h2.7461v1.2578c0.37891-0.5 0.79688-0.87109 1.2578-1.1055 0.46094-0.24219 0.98828-0.36328 1.5859-0.36328 1.0586 0 1.9297 0.42578 2.6094 1.2695 0.67969 0.83984 1.0195 1.9219 1.0195 3.25s-0.33984 2.4141-1.0195 3.2578c-0.67969 0.83984-1.5508 1.2617-2.6094 1.2617-0.59766 0-1.125-0.12109-1.5859-0.35547-0.46094-0.24219-0.87891-0.61328-1.2578-1.1133zm1.8242-5.5703c-0.58984 0-1.0391 0.21875-1.3594 0.65234-0.30859 0.42969-0.46484 1.0547-0.46484 1.8672s0.15625 1.4375 0.46484 1.875c0.32031 0.42969 0.76953 0.64453 1.3594 0.64453s1.0352-0.21484 1.3438-0.64453c0.30859-0.42969 0.46484-1.0547 0.46484-1.875 0-0.82031-0.15625-1.4453-0.46484-1.875-0.30859-0.42969-0.75391-0.64453-1.3438-0.64453z"/>
<path d="m139.98 28.012v0.78516h-6.418c0.066406 0.64453 0.29688 1.1289 0.69922 1.4492 0.39844 0.32422 0.95312 0.48438 1.6719 0.48438 0.57812 0 1.168-0.082031 1.7695-0.25391 0.60938-0.17187 1.2344-0.43359 1.8711-0.78125v2.1211c-0.64844 0.24609-1.2969 0.42969-1.9453 0.55078-0.65234 0.12891-1.3008 0.19531-1.9492 0.19531-1.5547 0-2.7656-0.39453-3.6289-1.1836-0.85938-0.79688-1.2891-1.9062-1.2891-3.3359 0-1.4023 0.42188-2.5078 1.2656-3.3125 0.84766-0.80469 2.0156-1.207 3.5-1.207 1.3477 0 2.4258 0.41016 3.2344 1.2227 0.8125 0.81641 1.2188 1.9023 1.2188 3.2656zm-2.8203-0.91406c0-0.52344-0.15625-0.94141-0.46094-1.2578-0.30078-0.32422-0.69922-0.48438-1.1875-0.48438-0.53516 0-0.96484 0.14844-1.2969 0.45312-0.33203 0.29688-0.53906 0.72656-0.62109 1.2891z"/>
<path d="m150.7 27.098v5.2383h-2.7617v-4.0078c0-0.74219-0.015625-1.2539-0.050782-1.5391-0.03125-0.28125-0.089843-0.48828-0.17187-0.62109-0.10547-0.17969-0.25-0.31641-0.4375-0.41406-0.18359-0.10156-0.39063-0.15234-0.62891-0.15234-0.57031 0-1.0195 0.22266-1.3477 0.66797-0.32812 0.4375-0.49219 1.0508-0.49219 1.8359v4.2344h-2.7461v-8.6055h2.7461v1.2578c0.41406-0.5 0.85547-0.87109 1.3203-1.1055 0.46484-0.24219 0.98047-0.36328 1.543-0.36328 0.99219 0 1.7422 0.30859 2.2539 0.91797 0.51562 0.60938 0.77344 1.4922 0.77344 2.6562z"/>
<path d="m40.898 60.203h7.2383v1.3086h-5.6914v3.3945h5.4531v1.3047h-5.4531v4.1602h5.832v1.3047h-7.3789z"/>
<path d="m55.738 64.391c-0.16016-0.089844-0.33203-0.15625-0.52344-0.19922-0.18359-0.046875-0.38672-0.070312-0.61328-0.070312-0.79687 0-1.4102 0.26172-1.8398 0.78516-0.42188 0.51953-0.63672 1.2617-0.63672 2.2344v4.5352h-1.418v-8.6055h1.418v1.3359c0.29688-0.52344 0.68359-0.91016 1.1602-1.1602 0.47266-0.25391 1.0508-0.38281 1.7305-0.38281 0.097656 0 0.20703 0.007813 0.32422 0.023438 0.11719 0.007812 0.24609 0.027343 0.39062 0.054687z"/>
<path d="m64.082 66.48v5.1953h-1.4102v-5.1484c0-0.8125-0.16016-1.4219-0.47656-1.8281-0.31641-0.40625-0.79297-0.60547-1.4258-0.60547-0.76172 0-1.3633 0.24219-1.8008 0.72656-0.44141 0.48828-0.66016 1.1523-0.66016 1.9922v4.8633h-1.418v-8.6055h1.418v1.3359c0.33594-0.51562 0.73438-0.90234 1.1875-1.1602 0.46094-0.25391 0.98828-0.38281 1.5898-0.38281 0.98437 0 1.7305 0.30859 2.2383 0.92188 0.50391 0.60938 0.75781 1.5078 0.75781 2.6953z"/>
<path d="m66.898 63.07h1.4102v8.6055h-1.4102zm0-3.3516h1.4102v1.793h-1.4102z"/>
<path d="m78.402 66.48v5.1953h-1.4102v-5.1484c0-0.8125-0.16016-1.4219-0.47656-1.8281s-0.79297-0.60547-1.4258-0.60547c-0.76172 0-1.3633 0.24219-1.8047 0.72656-0.4375 0.48828-0.66016 1.1523-0.66016 1.9922v4.8633h-1.418v-8.6055h1.418v1.3359c0.33984-0.51562 0.73438-0.90234 1.1914-1.1602 0.46094-0.25391 0.98828-0.38281 1.5859-0.38281 0.98828 0 1.7344 0.30859 2.2422 0.92188 0.50391 0.60938 0.75781 1.5078 0.75781 2.6953z"/>
<path d="m88.562 67.02v0.69141h-6.4883c0.0625 0.97266 0.35547 1.7148 0.875 2.2266 0.52734 0.50781 1.2578 0.76172 2.1953 0.76172 0.54297 0 1.0664-0.066407 1.5703-0.19922 0.51172-0.13281 1.0195-0.33203 1.5195-0.59766v1.3359c-0.50781 0.21484-1.0234 0.37891-1.5586 0.49219-0.53125 0.11328-1.0703 0.16797-1.6172 0.16797-1.3711 0-2.457-0.39844-3.2578-1.1992-0.79688-0.79688-1.1992-1.8789-1.1992-3.2422 0-1.4102 0.37891-2.5234 1.1367-3.3477 0.76172-0.83203 1.7891-1.2461 3.0742-1.2461 1.1562 0 2.0703 0.375 2.7383 1.1211 0.67578 0.74219 1.0117 1.7539 1.0117 3.0352zm-1.4102-0.41406c-0.007813-0.77344-0.22656-1.3906-0.65234-1.8516-0.41797-0.46094-0.97656-0.69141-1.6719-0.69141-0.78516 0-1.418 0.22266-1.8945 0.66797-0.46875 0.44531-0.73828 1.0742-0.8125 1.8828z"/>
<path d="m95.859 64.391c-0.16016-0.089844-0.33203-0.15625-0.52344-0.19922-0.18359-0.046875-0.38672-0.070312-0.61328-0.070312-0.79688 0-1.4102 0.26172-1.8398 0.78516-0.42578 0.51953-0.63672 1.2617-0.63672 2.2344v4.5352h-1.418v-8.6055h1.418v1.3359c0.29688-0.52344 0.68359-0.91016 1.1562-1.1602 0.47656-0.25391 1.0547-0.38281 1.7344-0.38281 0.097656 0 0.20312 0.007813 0.32422 0.023438 0.11719 0.007812 0.24609 0.027343 0.39062 0.054687z"/>
<path d="m97.191 68.281v-5.2109h1.4141v5.1562c0 0.8125 0.15625 1.4258 0.47266 1.8359 0.31641 0.40234 0.79297 0.60547 1.4297 0.60547 0.76172 0 1.3594-0.24219 1.8008-0.73047 0.44531-0.48438 0.66797-1.1484 0.66797-1.9883v-4.8789h1.4102v8.6055h-1.4102v-1.3203c-0.34375 0.51953-0.74219 0.91016-1.1992 1.168-0.44922 0.25-0.97266 0.375-1.5703 0.375-0.98828 0-1.7344-0.30859-2.2461-0.92188-0.51172-0.61328-0.76953-1.5156-0.76953-2.6953z"/>
<path d="m114.43 66.48v5.1953h-1.4102v-5.1484c0-0.8125-0.16016-1.4219-0.47656-1.8281s-0.79297-0.60547-1.4258-0.60547c-0.76172 0-1.3633 0.24219-1.8008 0.72656-0.44141 0.48828-0.66016 1.1523-0.66016 1.9922v4.8633h-1.4219v-8.6055h1.4219v1.3359c0.33594-0.51562 0.73047-0.90234 1.1875-1.1602 0.46094-0.25391 0.98828-0.38281 1.5859-0.38281 0.98828 0 1.7344 0.30859 2.2422 0.92188 0.50391 0.60938 0.75781 1.5078 0.75781 2.6953z"/>
<path d="m122.9 67.273c0-1.0234-0.21484-1.8203-0.63672-2.3828s-1.0117-0.84375-1.7734-0.84375c-0.75781 0-1.3477 0.28125-1.7695 0.84375s-0.62891 1.3594-0.62891 2.3828c0 1.0195 0.20703 1.8086 0.62891 2.375 0.42188 0.5625 1.0117 0.84375 1.7695 0.84375 0.76172 0 1.3516-0.28125 1.7734-0.84375 0.42188-0.56641 0.63672-1.3555 0.63672-2.375zm1.4102 3.332c0 1.4688-0.32422 2.5547-0.97266 3.2656-0.65234 0.71875-1.6445 1.0781-2.9844 1.0781-0.49609 0-0.96484-0.039063-1.4023-0.11719-0.44141-0.070312-0.86719-0.18359-1.2812-0.33594v-1.375c0.41406 0.22266 0.82031 0.39062 1.2266 0.49609 0.40234 0.10937 0.81641 0.16406 1.2344 0.16406 0.92578 0 1.6172-0.24219 2.0781-0.73047 0.46094-0.48047 0.69141-1.2109 0.69141-2.1914v-0.69922c-0.29297 0.50781-0.66406 0.88672-1.1211 1.1367-0.45312 0.25391-1 0.37891-1.6328 0.37891-1.0547 0-1.9023-0.40234-2.5469-1.207-0.64453-0.80469-0.96484-1.8711-0.96484-3.1953 0-1.332 0.32031-2.3984 0.96484-3.2031 0.64453-0.80469 1.4922-1.207 2.5469-1.207 0.63281 0 1.1797 0.125 1.6328 0.375 0.45703 0.25 0.82812 0.63281 1.1211 1.1367v-1.3047h1.4102z"/>
<path d="m40.273 79.875h8.9961v1.1797l-7.2422 8.9844h7.418v1.3047h-9.3477v-1.1836l7.2383-8.9805h-7.0625z"/>
<path d="m51.484 87.949v-5.2109h1.4141v5.1562c0 0.8125 0.15625 1.4258 0.47266 1.8359 0.31641 0.40625 0.79297 0.60547 1.4258 0.60547 0.76562 0 1.3633-0.24219 1.8047-0.72656 0.44531-0.48828 0.66797-1.1523 0.66797-1.9922v-4.8789h1.4102v8.6055h-1.4102v-1.3203c-0.34375 0.52344-0.74219 0.91016-1.1992 1.168-0.44922 0.25-0.97266 0.375-1.5703 0.375-0.98828 0-1.7344-0.30859-2.2461-0.92188-0.51172-0.61328-0.76953-1.5117-0.76953-2.6953z"/>
<path d="m64.914 83.73c-0.75391 0-1.3555 0.29688-1.793 0.89062-0.44141 0.58984-0.66016 1.3984-0.66016 2.4297 0 1.0273 0.21875 1.8398 0.65234 2.4336 0.4375 0.58984 1.0391 0.88281 1.8008 0.88281 0.75391 0 1.3477-0.29688 1.7891-0.89063 0.4375-0.59375 0.66016-1.4023 0.66016-2.4258 0-1.0195-0.22266-1.8281-0.66016-2.4219-0.44141-0.59766-1.0352-0.89844-1.7891-0.89844zm0-1.1992c1.2266 0 2.1914 0.39844 2.8906 1.1992 0.70312 0.79688 1.0508 1.9062 1.0508 3.3203 0 1.4062-0.34766 2.5117-1.0508 3.3164-0.69922 0.80078-1.6641 1.1992-2.8906 1.1992-1.2305 0-2.1992-0.39844-2.8984-1.1992-0.69531-0.80469-1.043-1.9102-1.043-3.3164 0-1.4141 0.34766-2.5234 1.043-3.3203 0.69922-0.80078 1.668-1.1992 2.8984-1.1992z"/>
<path d="m76.176 84.059c-0.16016-0.089844-0.33594-0.15625-0.52344-0.19922-0.18359-0.042969-0.38672-0.066406-0.61328-0.066406-0.79687 0-1.4102 0.26172-1.8398 0.78125-0.42578 0.51953-0.63672 1.2656-0.63672 2.2383v4.5312h-1.418v-8.6055h1.418v1.3359c0.29688-0.51953 0.68359-0.90625 1.1562-1.1602 0.47656-0.25391 1.0547-0.38281 1.7344-0.38281 0.097656 0 0.20312 0.007812 0.32031 0.023438 0.12109 0.011718 0.25 0.027343 0.39453 0.054687z"/>
<path d="m83.031 84.047v-4.6562h1.4102v11.953h-1.4102v-1.2891c-0.29688 0.51172-0.67188 0.89062-1.1289 1.1445-0.44922 0.24609-0.99219 0.36719-1.625 0.36719-1.0391 0-1.8828-0.41406-2.5391-1.2461-0.64844-0.82812-0.97266-1.918-0.97266-3.2695 0-1.3555 0.32422-2.4453 0.97266-3.2734 0.65625-0.83203 1.5-1.2461 2.5391-1.2461 0.63281 0 1.1758 0.125 1.625 0.375 0.45703 0.24609 0.83203 0.625 1.1289 1.1406zm-4.8086 3.0039c0 1.0391 0.21094 1.8555 0.63672 2.4492 0.42969 0.58984 1.0156 0.88281 1.7617 0.88281s1.3359-0.29297 1.7656-0.88281c0.42969-0.59375 0.64453-1.4102 0.64453-2.4492 0-1.043-0.21484-1.8555-0.64453-2.4453-0.42969-0.59375-1.0195-0.89062-1.7656-0.89062s-1.332 0.29688-1.7617 0.89062c-0.42578 0.58984-0.63672 1.4023-0.63672 2.4453z"/>
<path d="m94.488 86.148v5.1953h-1.4102v-5.1484c0-0.8125-0.16016-1.4219-0.47656-1.8281-0.31641-0.40234-0.79297-0.60547-1.4258-0.60547-0.76172 0-1.3633 0.24219-1.8008 0.73047-0.44141 0.48437-0.66016 1.1484-0.66016 1.9883v4.8633h-1.418v-8.6055h1.418v1.3359c0.33594-0.51562 0.73438-0.90234 1.1875-1.1602 0.46094-0.25391 0.98828-0.38281 1.5898-0.38281 0.98437 0 1.7305 0.30859 2.2383 0.92188 0.50391 0.60938 0.75781 1.5078 0.75781 2.6953z"/>
<path d="m97.156 87.949v-5.2109h1.4141v5.1562c0 0.8125 0.15625 1.4258 0.47266 1.8359 0.32031 0.40625 0.79297 0.60547 1.4297 0.60547 0.76172 0 1.3633-0.24219 1.8008-0.72656 0.44531-0.48828 0.66797-1.1523 0.66797-1.9922v-4.8789h1.4102v8.6055h-1.4102v-1.3203c-0.34375 0.52344-0.74219 0.91016-1.1953 1.168-0.45312 0.25-0.97656 0.375-1.5742 0.375-0.98828 0-1.7344-0.30859-2.2461-0.92188s-0.76953-1.5117-0.76953-2.6953z"/>
<path d="m114.4 86.148v5.1953h-1.4102v-5.1484c0-0.8125-0.16016-1.4219-0.47656-1.8281-0.31641-0.40234-0.79297-0.60547-1.4258-0.60547-0.76172 0-1.3633 0.24219-1.8008 0.73047-0.44141 0.48437-0.66016 1.1484-0.66016 1.9883v4.8633h-1.418v-8.6055h1.418v1.3359c0.33594-0.51562 0.73438-0.90234 1.1875-1.1602 0.46094-0.25391 0.98828-0.38281 1.5898-0.38281 0.98438 0 1.7305 0.30859 2.2383 0.92188 0.50391 0.60938 0.75781 1.5078 0.75781 2.6953z"/>
<path d="m122.87 86.941c0-1.0234-0.21094-1.8164-0.63672-2.3828-0.41797-0.5625-1.0117-0.84375-1.7734-0.84375-0.75391 0-1.3477 0.28125-1.7695 0.84375-0.42188 0.56641-0.62891 1.3594-0.62891 2.3828 0 1.0195 0.20703 1.8125 0.62891 2.375s1.0156 0.84375 1.7695 0.84375c0.76172 0 1.3555-0.28125 1.7734-0.84375 0.42578-0.5625 0.63672-1.3555 0.63672-2.375zm1.4102 3.3359c0 1.4648-0.32422 2.5508-0.97266 3.2656-0.64844 0.71484-1.6445 1.0742-2.9844 1.0742-0.49609 0-0.96484-0.039063-1.4023-0.11719-0.44141-0.070312-0.86719-0.18359-1.2812-0.33594v-1.375c0.41406 0.22656 0.82422 0.39063 1.2266 0.5 0.40234 0.10547 0.81641 0.16016 1.2344 0.16016 0.92578 0 1.6172-0.24219 2.0781-0.73047 0.46094-0.48047 0.69141-1.2109 0.69141-2.1875v-0.69922c-0.29297 0.50391-0.66406 0.88281-1.1211 1.1367-0.45312 0.25-1 0.375-1.6328 0.375-1.0547 0-1.9023-0.40234-2.5469-1.207-0.64453-0.80469-0.96484-1.8672-0.96484-3.1953 0-1.332 0.32031-2.3984 0.96484-3.2031 0.64453-0.80469 1.4922-1.207 2.5469-1.207 0.63281 0 1.1797 0.125 1.6328 0.375 0.45703 0.25391 0.82812 0.63281 1.1211 1.1406v-1.3086h1.4102z"/>
<path d="m227.61 22.391h2.8281l1.9805 8.3359 1.9648-8.3359h2.8438l1.9648 8.3359 1.9766-8.3359h2.8086l-2.6992 11.473h-3.4062l-2.0781-8.7188-2.0547 8.7188h-3.4062z"/>
<path d="m253.8 29.539v0.78125h-6.418c0.066406 0.64453 0.29688 1.1289 0.69531 1.4531 0.39844 0.32422 0.95703 0.48437 1.6719 0.48437 0.57812 0 1.168-0.085937 1.7734-0.25391 0.60938-0.17578 1.2305-0.4375 1.8711-0.78516v2.1211c-0.64844 0.24609-1.3008 0.42969-1.9492 0.55469-0.64844 0.12891-1.2969 0.19141-1.9492 0.19141-1.5508 0-2.7617-0.39453-3.625-1.1836-0.85938-0.79297-1.2891-1.9062-1.2891-3.3359 0-1.4023 0.42187-2.5039 1.2656-3.3086 0.84766-0.80469 2.0156-1.207 3.4961-1.207 1.3516 0 2.4297 0.40625 3.2383 1.2227 0.8125 0.8125 1.2188 1.9023 1.2188 3.2656zm-2.8242-0.91797c0-0.51953-0.15234-0.94141-0.45703-1.2578-0.30469-0.32422-0.69922-0.48438-1.1914-0.48438-0.53125 0-0.96094 0.15234-1.2969 0.45312-0.33203 0.29688-0.53906 0.72656-0.62109 1.2891z"/>
<path d="m262.27 27.602c-0.24219-0.11328-0.48047-0.19531-0.72266-0.24609-0.23438-0.054688-0.47266-0.085938-0.71484-0.085938-0.70312 0-1.25 0.23047-1.6328 0.68359-0.37891 0.45312-0.56641 1.1016-0.56641 1.9453v3.9648h-2.7461v-8.6055h2.7461v1.4141c0.35156-0.5625 0.75781-0.97266 1.2109-1.2305 0.46094-0.26172 1.0117-0.39062 1.6484-0.39062 0.09375 0 0.19141 0.003907 0.30078 0.015625 0.10547 0.003906 0.26172 0.019532 0.46875 0.046875z"/>
<path d="m272.27 28.621v5.2422h-2.7617v-4.0117c0-0.74219-0.019531-1.2539-0.054687-1.5352-0.03125-0.28125-0.085938-0.48828-0.16797-0.62109-0.10547-0.17969-0.25391-0.32031-0.4375-0.41797-0.18359-0.10156-0.39453-0.15234-0.62891-0.15234-0.57031 0-1.0234 0.22266-1.3477 0.66797-0.32813 0.44141-0.49219 1.0547-0.49219 1.8359v4.2344h-2.7461v-8.6055h2.7461v1.2617c0.41406-0.50391 0.85547-0.87109 1.3203-1.1094 0.46484-0.23828 0.97656-0.35938 1.5391-0.35938 0.99219 0 1.7461 0.30469 2.2578 0.91406 0.51562 0.60938 0.77344 1.4961 0.77344 2.6602z"/>
<path d="m274.81 25.258h2.7461v8.6055h-2.7461zm0-3.3516h2.7461v2.2461h-2.7461z"/>
<path d="m287.14 25.527v2.2422c-0.375-0.25391-0.75-0.44531-1.1289-0.56641-0.37109-0.125-0.76172-0.1875-1.1641-0.1875-0.76562 0-1.3672 0.22656-1.7969 0.67969-0.42188 0.44531-0.63281 1.0703-0.63281 1.8711 0 0.80469 0.21094 1.4336 0.63281 1.8828 0.42969 0.44531 1.0312 0.66797 1.7969 0.66797 0.42969 0 0.83594-0.0625 1.2188-0.19141 0.39062-0.12891 0.74609-0.31641 1.0742-0.56641v2.25c-0.42969 0.16016-0.86719 0.27734-1.3125 0.35156-0.4375 0.082031-0.88281 0.125-1.3242 0.125-1.5508 0-2.7617-0.39844-3.6367-1.1914-0.875-0.79688-1.3125-1.9062-1.3125-3.3281 0-1.418 0.4375-2.5234 1.3125-3.3164 0.875-0.80078 2.0859-1.1992 3.6367-1.1992 0.44922 0 0.89062 0.039063 1.3242 0.12109 0.44141 0.078125 0.87891 0.19531 1.3125 0.35547z"/>
<path d="m289.51 21.906h2.7461v6.5078l3.1602-3.1562h3.1875l-4.1953 3.9492 4.5273 4.6562h-3.3281l-3.3516-3.5898v3.5898h-2.7461z"/>
<path d="m308.11 29.539v0.78125h-6.418c0.066406 0.64453 0.29688 1.1289 0.69531 1.4531 0.39844 0.32422 0.95703 0.48437 1.6719 0.48437 0.57812 0 1.168-0.085937 1.7734-0.25391 0.60938-0.17578 1.2305-0.4375 1.8711-0.78516v2.1211c-0.64844 0.24609-1.3008 0.42969-1.9492 0.55469-0.64844 0.12891-1.2969 0.19141-1.9492 0.19141-1.5508 0-2.7617-0.39453-3.625-1.1836-0.85938-0.79297-1.2891-1.9062-1.2891-3.3359 0-1.4023 0.42188-2.5039 1.2656-3.3086 0.84766-0.80469 2.0156-1.207 3.4961-1.207 1.3516 0 2.4297 0.40625 3.2383 1.2227 0.8125 0.8125 1.2188 1.9023 1.2188 3.2656zm-2.8242-0.91797c0-0.51953-0.15234-0.94141-0.45703-1.2578-0.30469-0.32422-0.69922-0.48438-1.1914-0.48438-0.53125 0-0.96094 0.15234-1.2969 0.45312-0.33203 0.29688-0.53906 0.72656-0.62109 1.2891z"/>
<path d="m309.71 28.215h4.8164v2.2383h-4.8164z"/>
<path d="m323.77 31.773h-4.6172l-0.72656 2.0898h-2.9688l4.2422-11.473h3.5195l4.2422 11.473h-2.9688zm-3.8789-2.1289h3.1367l-1.5664-4.5625z"/>
<path d="m335.24 27.602c-0.24219-0.11328-0.48047-0.19531-0.72266-0.24609-0.23438-0.054688-0.47266-0.085938-0.71484-0.085938-0.70313 0-1.25 0.23047-1.6328 0.68359-0.37891 0.45312-0.56641 1.1016-0.56641 1.9453v3.9648h-2.7461v-8.6055h2.7461v1.4141c0.35156-0.5625 0.75781-0.97266 1.2109-1.2305 0.46094-0.26172 1.0117-0.39062 1.6484-0.39062 0.09375 0 0.19141 0.003907 0.30078 0.015625 0.10547 0.003906 0.26172 0.019532 0.46875 0.046875z"/>
<path d="m345.18 29.539v0.78125h-6.418c0.066406 0.64453 0.29688 1.1289 0.69531 1.4531 0.40234 0.32422 0.95703 0.48437 1.6719 0.48437 0.57812 0 1.1719-0.085937 1.7734-0.25391 0.60938-0.17578 1.2344-0.4375 1.8711-0.78516v2.1211c-0.64844 0.24609-1.2969 0.42969-1.9492 0.55469-0.64844 0.12891-1.2969 0.19141-1.9453 0.19141-1.5547 0-2.7656-0.39453-3.6289-1.1836-0.85938-0.79297-1.2891-1.9062-1.2891-3.3359 0-1.4023 0.42187-2.5039 1.2656-3.3086 0.84766-0.80469 2.0156-1.207 3.4961-1.207 1.3516 0 2.4297 0.40625 3.2383 1.2227 0.8125 0.8125 1.2188 1.9023 1.2188 3.2656zm-2.8203-0.91797c0-0.51953-0.15625-0.94141-0.46094-1.2578-0.30078-0.32422-0.69922-0.48438-1.1875-0.48438-0.53516 0-0.96484 0.15234-1.2969 0.45312-0.33203 0.29688-0.53906 0.72656-0.62109 1.2891z"/>
<path d="m351.11 29.992c-0.57422 0-1.0039 0.097656-1.2969 0.28906-0.28516 0.19531-0.42969 0.48438-0.42969 0.86328 0 0.34766 0.11719 0.62109 0.34375 0.82031 0.23828 0.19531 0.5625 0.29297 0.97656 0.29297 0.51562 0 0.94922-0.18359 1.3047-0.55469 0.35156-0.375 0.52734-0.83984 0.52734-1.3984v-0.3125zm4.1953-1.0391v4.9102h-2.7695v-1.2773c-0.36719 0.52344-0.78125 0.90625-1.2422 1.1445-0.46094 0.23828-1.0195 0.35547-1.6797 0.35547-0.89062 0-1.6133-0.25781-2.1719-0.77734-0.55078-0.51953-0.82812-1.1992-0.82812-2.0273 0-1.0078 0.34766-1.75 1.0352-2.2188 0.69531-0.47266 1.7852-0.70703 3.2695-0.70703h1.6172v-0.21484c0-0.4375-0.17188-0.75391-0.51172-0.95312-0.34375-0.20703-0.87891-0.30859-1.6055-0.30859-0.58594 0-1.1328 0.058594-1.6406 0.17578-0.50781 0.11719-0.97656 0.29687-1.4102 0.53125v-2.0977c0.58594-0.14453 1.1758-0.25 1.7695-0.32422 0.59375-0.074218 1.1875-0.11328 1.7812-0.11328 1.5469 0 2.6641 0.30859 3.3516 0.92188 0.69141 0.60938 1.0352 1.6016 1.0352 2.9805z"/>
<path d="m357.86 21.906h2.7461v11.957h-2.7461z"/>
<path d="m266.27 61.73h1.5469v10.164h5.5781v1.3047h-7.125z"/>
<path d="m282.02 68.543v0.69141h-6.4883c0.0625 0.97656 0.35547 1.7188 0.875 2.2305 0.52734 0.50781 1.2578 0.76172 2.1953 0.76172 0.53906 0 1.0664-0.070312 1.5703-0.20312 0.51172-0.13281 1.0195-0.33203 1.5195-0.59766v1.3359c-0.50781 0.21484-1.0273 0.37891-1.5586 0.49219-0.53125 0.11328-1.0703 0.16797-1.6172 0.16797-1.3711 0-2.457-0.39844-3.2578-1.1953-0.80078-0.80078-1.1992-1.8828-1.1992-3.2461 0-1.4062 0.37891-2.5234 1.1367-3.3477 0.76172-0.82812 1.7852-1.2461 3.0742-1.2461 1.1562 0 2.0703 0.375 2.7383 1.1211 0.67578 0.74609 1.0117 1.7578 1.0117 3.0352zm-1.4102-0.41406c-0.011719-0.77344-0.22656-1.3906-0.65234-1.8516-0.41797-0.46094-0.97656-0.69141-1.6719-0.69141-0.78516 0-1.418 0.22266-1.8945 0.66797-0.46875 0.44531-0.74219 1.0742-0.8125 1.8828z"/>
<path d="m291.21 64.594-3.1094 4.1875 3.2695 4.418h-1.6641l-2.5-3.3789-2.5 3.3789h-1.6641l3.3359-4.5-3.0547-4.1055h1.6641l2.2773 3.0664 2.2812-3.0664z"/>
<path d="m293.36 64.594h1.4141v8.6055h-1.4141zm0-3.3477h1.4141v1.7891h-1.4141z"/>
<path d="m297.67 61.246h1.418v7.0586l4.2109-3.7109h1.8008l-4.5547 4.0273 4.7461 4.5781h-1.8398l-4.3633-4.2031v4.2031h-1.418z"/>
<path d="m309.59 65.586c-0.75781 0-1.3555 0.29687-1.7969 0.89062-0.4375 0.58984-0.65625 1.3984-0.65625 2.4297 0 1.0273 0.21484 1.8398 0.65234 2.4336 0.4375 0.58984 1.0391 0.88672 1.8008 0.88672 0.75 0 1.3477-0.30078 1.7852-0.89453 0.44141-0.59375 0.66016-1.4023 0.66016-2.4258 0-1.0195-0.21875-1.8281-0.66016-2.4219-0.4375-0.59766-1.0352-0.89844-1.7852-0.89844zm0-1.1992c1.2266 0 2.1914 0.40234 2.8906 1.1992 0.69922 0.80078 1.0508 1.9062 1.0508 3.3203 0 1.4062-0.35156 2.5156-1.0508 3.3203-0.69922 0.79688-1.6641 1.1953-2.8906 1.1953-1.2344 0-2.1992-0.39844-2.8984-1.1953-0.69531-0.80469-1.043-1.9141-1.043-3.3203 0-1.4141 0.34766-2.5195 1.043-3.3203 0.69922-0.79688 1.6641-1.1992 2.8984-1.1992z"/>
<path d="m323.01 68.008v5.1914h-1.4102v-5.1445c0-0.81641-0.16016-1.4258-0.47656-1.832-0.31641-0.40234-0.79297-0.60547-1.4258-0.60547-0.76172 0-1.3633 0.24219-1.8047 0.73047-0.4375 0.48438-0.66016 1.1484-0.66016 1.9883v4.8633h-1.418v-8.6055h1.418v1.3398c0.33984-0.51953 0.73438-0.90625 1.1914-1.1602 0.46094-0.25781 0.98828-0.38672 1.5859-0.38672 0.98828 0 1.7344 0.30859 2.2422 0.92188 0.50391 0.60938 0.75781 1.5078 0.75781 2.6992z"/>
<path d="m265.87 81.773v1.5156c-0.58594-0.28125-1.1406-0.49219-1.6641-0.62891-0.51953-0.14062-1.0234-0.21094-1.5078-0.21094-0.84375 0-1.4961 0.16406-1.957 0.49219-0.45703 0.32812-0.68359 0.79688-0.68359 1.3984 0 0.50781 0.15234 0.89062 0.45312 1.1523 0.30469 0.25781 0.88281 0.46484 1.7344 0.625l0.93359 0.19141c1.1562 0.21875 2.0078 0.60938 2.5547 1.168 0.55078 0.55078 0.82812 1.2969 0.82812 2.2266 0 1.1133-0.37109 1.9531-1.1211 2.5273-0.73828 0.57422-1.8281 0.86328-3.2656 0.86328-0.54297 0-1.1211-0.0625-1.7344-0.1875-0.60547-0.12109-1.2383-0.30469-1.8945-0.54297v-1.5977c0.62891 0.35156 1.2461 0.61719 1.8477 0.79688 0.60547 0.17969 1.1992 0.26953 1.7812 0.26953 0.88281 0 1.5664-0.17578 2.0469-0.52344 0.48047-0.34766 0.72266-0.84375 0.72266-1.4883 0-0.56641-0.17578-1.0039-0.52344-1.3242-0.33984-0.31641-0.90625-0.55469-1.6953-0.71484l-0.94141-0.18359c-1.1562-0.23047-1.9922-0.58984-2.5078-1.082s-0.77344-1.1758-0.77344-2.0508c0-1.0156 0.35156-1.8125 1.0625-2.3984 0.71875-0.58203 1.7031-0.875 2.9531-0.875 0.53906 0 1.0859 0.046875 1.6445 0.14453 0.55469 0.097656 1.125 0.24609 1.707 0.4375z"/>
<path d="m276.27 88.215v0.69141h-6.4883c0.058594 0.97266 0.35156 1.7148 0.875 2.2266 0.52344 0.50781 1.2578 0.76172 2.1914 0.76172 0.54297 0 1.0664-0.066406 1.5742-0.19922 0.51172-0.13672 1.0156-0.33594 1.5156-0.60156v1.3359c-0.50391 0.21484-1.0234 0.37891-1.5547 0.49219s-1.0703 0.17188-1.6172 0.17188c-1.3711 0-2.457-0.40234-3.2617-1.1992-0.79688-0.80078-1.1953-1.8828-1.1953-3.2422 0-1.4102 0.37891-2.5273 1.1328-3.3516 0.76172-0.82812 1.7891-1.2422 3.0781-1.2422 1.1562 0 2.0664 0.37109 2.7383 1.1211 0.67188 0.74219 1.0117 1.7539 1.0117 3.0352zm-1.4102-0.41797c-0.011719-0.77344-0.23047-1.3906-0.65234-1.8516-0.42188-0.46094-0.97656-0.69141-1.6719-0.69141-0.78906 0-1.4219 0.22266-1.8945 0.66797-0.47266 0.44922-0.74219 1.0742-0.8125 1.8828z"/>
<path d="m285.27 85.914c0.35156-0.63281 0.77344-1.1016 1.2656-1.4023 0.49219-0.30469 1.0664-0.45312 1.7344-0.45312 0.89453 0 1.582 0.3125 2.0703 0.94141 0.48438 0.625 0.72656 1.5195 0.72656 2.6758v5.1953h-1.418v-5.1484c0-0.82422-0.14453-1.4375-0.4375-1.8359-0.29297-0.40234-0.73438-0.60156-1.3359-0.60156-0.73047 0-1.3086 0.24219-1.7305 0.73047-0.42578 0.48828-0.63672 1.1484-0.63672 1.9883v4.8672h-1.418v-5.1484c0-0.83203-0.14844-1.4414-0.4375-1.8359-0.29297-0.40234-0.74219-0.60156-1.3516-0.60156-0.72266 0-1.293 0.24609-1.7188 0.73828-0.42188 0.48828-0.63672 1.1484-0.63672 1.9805v4.8672h-1.418v-8.6055h1.418v1.3359c0.32422-0.52734 0.71094-0.91797 1.1602-1.168s0.98438-0.375 1.6016-0.375c0.625 0 1.1523 0.15625 1.5898 0.47266 0.4375 0.32031 0.76172 0.78125 0.97266 1.3828z"/>
<path d="m297.79 88.543c-1.1406 0-1.9297 0.13281-2.3711 0.39062-0.4375 0.26172-0.65625 0.70703-0.65625 1.3398 0 0.5 0.16406 0.89844 0.48828 1.1992 0.33203 0.28906 0.78516 0.4375 1.3516 0.4375 0.78125 0 1.4062-0.27734 1.8789-0.83203 0.47656-0.55859 0.71484-1.2969 0.71484-2.2188v-0.31641zm2.8164-0.58203v4.9102h-1.4102v-1.3086c-0.32422 0.52344-0.72656 0.91016-1.207 1.1602-0.48047 0.24609-1.0664 0.37109-1.7617 0.37109-0.87891 0-1.582-0.24609-2.1016-0.73828-0.51953-0.49609-0.77734-1.1602-0.77734-1.9922 0-0.96875 0.32422-1.6953 0.96875-2.1875 0.64844-0.49219 1.6133-0.73828 2.8984-0.73828h1.9805v-0.13672c0-0.65234-0.21484-1.1523-0.64453-1.5078-0.42578-0.35938-1.0234-0.53906-1.7969-0.53906-0.49219 0-0.96875 0.058594-1.4336 0.17969-0.46484 0.11719-0.91406 0.29297-1.3438 0.52734v-1.3047c0.51953-0.19922 1.0195-0.34766 1.5039-0.44531 0.48828-0.10156 0.96094-0.15234 1.418-0.15234 1.2461 0 2.1719 0.32031 2.7852 0.96484 0.61328 0.64844 0.92187 1.625 0.92187 2.9375z"/>
<path d="m310.65 87.676v5.1953h-1.4102v-5.1484c0-0.81641-0.16016-1.4258-0.47656-1.8281-0.31641-0.40625-0.79297-0.60938-1.4258-0.60938-0.76172 0-1.3633 0.24219-1.8047 0.73047-0.4375 0.48828-0.66016 1.1484-0.66016 1.9883v4.8672h-1.418v-8.6055h1.418v1.3359c0.33984-0.51953 0.73438-0.90625 1.1914-1.1602 0.46094-0.25781 0.98828-0.38281 1.5859-0.38281 0.98828 0 1.7344 0.30469 2.2383 0.92188 0.50781 0.60938 0.76172 1.5078 0.76172 2.6953z"/>
<path d="m314.86 81.82v2.4453h2.9062v1.0977h-2.9062v4.6719c0 0.69922 0.09375 1.1523 0.28125 1.3516 0.19531 0.19922 0.58594 0.30078 1.1758 0.30078h1.4492v1.1836h-1.4492c-1.0898 0-1.8398-0.20312-2.2539-0.60938-0.41406-0.41016-0.62109-1.1523-0.62109-2.2266v-4.6719h-1.0391v-1.0977h1.0391v-2.4453z"/>
<path d="m319.62 84.266h1.4102v8.6055h-1.4102zm0-3.3516h1.4102v1.7891h-1.4102z"/>
<path d="m323.93 80.914h1.418v7.0625l4.2109-3.7109h1.8008l-4.5547 4.0234 4.7461 4.582h-1.8398l-4.3633-4.2031v4.2031h-1.418z"/>
<path d="m460.12 25.309c0.46484 0 0.81641-0.10156 1.0547-0.30859 0.24219-0.20312 0.36328-0.50781 0.36328-0.90625 0-0.39453-0.12109-0.69531-0.36328-0.89844-0.23828-0.21094-0.58984-0.31641-1.0547-0.31641h-1.6367v2.4297zm0.097656 5.0156c0.59375 0 1.0391-0.125 1.3359-0.375 0.30078-0.25 0.45312-0.63281 0.45312-1.1367 0-0.5-0.14844-0.87109-0.44531-1.1172-0.29688-0.25-0.74609-0.375-1.3438-0.375h-1.7344v3.0039zm2.7461-4.125c0.63281 0.18359 1.125 0.52344 1.4727 1.0234 0.34766 0.49609 0.51953 1.1055 0.51953 1.8281 0 1.1055-0.37109 1.9297-1.1172 2.4727-0.74609 0.54297-1.8828 0.8125-3.4062 0.8125h-4.9023v-11.469h4.4336c1.5898 0 2.7422 0.24219 3.4531 0.72266 0.71484 0.48047 1.0742 1.25 1.0742 2.3125 0 0.55859-0.13281 1.0352-0.39063 1.4297-0.26172 0.38672-0.64062 0.67578-1.1367 0.86719z"/>
<path d="m473.76 26.074c-0.23828-0.10938-0.48047-0.19141-0.71875-0.24219-0.23438-0.058593-0.47266-0.085937-0.71484-0.085937-0.70312 0-1.25 0.22656-1.6328 0.68359-0.37891 0.44922-0.56641 1.0977-0.56641 1.9453v3.9609h-2.7461v-8.6016h2.7461v1.4102c0.35156-0.5625 0.75781-0.97266 1.2109-1.2266 0.46094-0.26172 1.0117-0.39453 1.6484-0.39453 0.09375 0 0.19141 0.007812 0.30078 0.015624 0.10547 0.007813 0.26172 0.023438 0.46484 0.046876z"/>
<path d="m479.21 25.492c-0.60547 0-1.0703 0.21875-1.3945 0.66016-0.31641 0.4375-0.47656 1.0664-0.47656 1.8906s0.16016 1.457 0.47656 1.8984c0.32422 0.43359 0.78906 0.65234 1.3945 0.65234 0.60156 0 1.0586-0.21875 1.375-0.65234 0.31641-0.44141 0.47656-1.0742 0.47656-1.8984s-0.16016-1.4531-0.47656-1.8906c-0.31641-0.44141-0.77344-0.66016-1.375-0.66016zm0-1.9688c1.4805 0 2.6328 0.40234 3.4609 1.1992 0.83203 0.80078 1.25 1.9062 1.25 3.3203 0 1.4141-0.41797 2.5195-1.25 3.3203-0.82812 0.79688-1.9805 1.1992-3.4609 1.1992-1.4805 0-2.6406-0.40234-3.4805-1.1992-0.83203-0.80078-1.25-1.9062-1.25-3.3203 0-1.4141 0.41797-2.5195 1.25-3.3203 0.83984-0.79688 2-1.1992 3.4805-1.1992z"/>
<path d="m492.86 24v2.2461c-0.37109-0.25781-0.74609-0.44531-1.125-0.57031-0.375-0.12109-0.76172-0.18359-1.168-0.18359-0.76562 0-1.3633 0.22656-1.793 0.67578-0.42578 0.44531-0.63672 1.0703-0.63672 1.875 0 0.80469 0.21094 1.4297 0.63672 1.8828 0.42969 0.44531 1.0273 0.66797 1.793 0.66797 0.42969 0 0.83594-0.0625 1.2227-0.19141 0.38672-0.12891 0.74609-0.31641 1.0703-0.57031v2.2539c-0.42969 0.15625-0.86328 0.27344-1.3086 0.35156-0.44141 0.082031-0.88281 0.125-1.3281 0.125-1.5508 0-2.7617-0.39844-3.6367-1.1914-0.875-0.80078-1.3086-1.9102-1.3086-3.3281s0.43359-2.5234 1.3086-3.3203 2.0859-1.1992 3.6367-1.1992c0.44922 0 0.89062 0.042968 1.3281 0.125 0.4375 0.078124 0.875 0.19531 1.3086 0.35156z"/>
<path d="m499.08 28.465c-0.57422 0-1.0039 0.097656-1.2969 0.29297-0.28516 0.19531-0.42969 0.48047-0.42969 0.85938 0 0.34766 0.11328 0.625 0.34375 0.82422 0.23828 0.19141 0.5625 0.28906 0.97656 0.28906 0.51562 0 0.94922-0.18359 1.3008-0.55078 0.35547-0.375 0.53125-0.83984 0.53125-1.3984v-0.31641zm4.1953-1.0352v4.9062h-2.7695v-1.2734c-0.36719 0.52344-0.78125 0.90234-1.2422 1.1445-0.46094 0.23438-1.0195 0.35547-1.6797 0.35547-0.89063 0-1.6133-0.26172-2.1719-0.77734-0.55078-0.52344-0.82812-1.1992-0.82812-2.0273 0-1.0117 0.34766-1.75 1.0352-2.2227 0.69531-0.46875 1.7852-0.70703 3.2695-0.70703h1.6172v-0.21484c0-0.43359-0.17187-0.75391-0.51562-0.95312-0.33984-0.20312-0.875-0.30469-1.6016-0.30469-0.58984 0-1.1367 0.058593-1.6406 0.17578-0.50781 0.11719-0.97656 0.29297-1.4102 0.53125v-2.0977c0.58594-0.14453 1.1758-0.25391 1.7695-0.32422 0.59375-0.078125 1.1875-0.11719 1.7812-0.11719 1.5469 0 2.6641 0.30859 3.3516 0.92578 0.6875 0.60938 1.0352 1.6016 1.0352 2.9805z"/>
<path d="m505.36 26.691h4.8164v2.2344h-4.8164z"/>
<path d="m519.42 30.246h-4.6172l-0.73047 2.0898h-2.9688l4.2422-11.469h3.5195l4.2422 11.469h-2.9688zm-3.8828-2.125h3.1367l-1.5625-4.5664z"/>
<path d="m530.89 26.074c-0.23828-0.10938-0.48047-0.19141-0.72266-0.24219-0.23437-0.058593-0.47266-0.085937-0.71094-0.085937-0.70703 0-1.25 0.22656-1.6328 0.68359-0.37891 0.44922-0.57031 1.0977-0.57031 1.9453v3.9609h-2.7461v-8.6016h2.7461v1.4102c0.35547-0.5625 0.75781-0.97266 1.2148-1.2266 0.45703-0.26172 1.0078-0.39453 1.6484-0.39453 0.089844 0 0.19141 0.007812 0.29688 0.015624 0.10938 0.007813 0.26562 0.023438 0.46875 0.046876z"/>
<path d="m540.83 28.012v0.78516h-6.4219c0.066406 0.64453 0.30078 1.1289 0.69922 1.4492 0.39844 0.32422 0.95703 0.48438 1.6719 0.48438 0.57812 0 1.168-0.082031 1.7734-0.25391 0.60547-0.17187 1.2305-0.43359 1.8711-0.78125v2.1211c-0.65234 0.24609-1.3008 0.42969-1.9492 0.55078-0.64844 0.12891-1.3008 0.19531-1.9492 0.19531-1.5547 0-2.7617-0.39453-3.6289-1.1836-0.85547-0.79688-1.2852-1.9062-1.2852-3.3359 0-1.4023 0.42188-2.5078 1.2656-3.3125 0.84766-0.80469 2.0117-1.207 3.4961-1.207 1.3477 0 2.4297 0.41016 3.2344 1.2227 0.81641 0.81641 1.2227 1.9023 1.2227 3.2656zm-2.8242-0.91406c0-0.52344-0.15234-0.94141-0.46094-1.2578-0.30078-0.32422-0.69531-0.48438-1.1875-0.48438-0.53125 0-0.96484 0.14844-1.2969 0.45312-0.33203 0.29688-0.53906 0.72656-0.62109 1.2891z"/>
<path d="m546.75 28.465c-0.57031 0-1.0039 0.097656-1.293 0.29297-0.28906 0.19531-0.42969 0.48047-0.42969 0.85938 0 0.34766 0.11328 0.625 0.34375 0.82422 0.23438 0.19141 0.55859 0.28906 0.97266 0.28906 0.51953 0 0.95312-0.18359 1.3047-0.55078 0.35156-0.375 0.53125-0.83984 0.53125-1.3984v-0.31641zm4.1953-1.0352v4.9062h-2.7656v-1.2734c-0.37109 0.52344-0.78516 0.90234-1.2461 1.1445-0.45703 0.23438-1.0195 0.35547-1.6758 0.35547-0.89062 0-1.6133-0.26172-2.1719-0.77734-0.55469-0.52344-0.82812-1.1992-0.82812-2.0273 0-1.0117 0.34375-1.75 1.0352-2.2227 0.69531-0.46875 1.7852-0.70703 3.2656-0.70703h1.6211v-0.21484c0-0.43359-0.17188-0.75391-0.51562-0.95312-0.34375-0.20312-0.875-0.30469-1.6016-0.30469-0.58984 0-1.1367 0.058593-1.6445 0.17578-0.50391 0.11719-0.97656 0.29297-1.4102 0.53125v-2.0977c0.58984-0.14453 1.1797-0.25391 1.7734-0.32422 0.59375-0.078125 1.1836-0.11719 1.7773-0.11719 1.5508 0 2.668 0.30859 3.3516 0.92578 0.69141 0.60938 1.0352 1.6016 1.0352 2.9805z"/>
<path d="m553.5 20.383h2.7461v11.953h-2.7461z"/>
<path d="m487.09 60.582v1.5117c-0.58984-0.28125-1.1445-0.49219-1.6641-0.62891-0.52344-0.13672-1.0273-0.20703-1.5117-0.20703-0.84375 0-1.4961 0.16406-1.957 0.49219-0.45312 0.32812-0.67969 0.79297-0.67969 1.3984 0 0.50391 0.14844 0.89062 0.44922 1.1523 0.30859 0.25391 0.88672 0.46094 1.7344 0.62109l0.9375 0.19141c1.1562 0.22266 2.0078 0.60938 2.5547 1.168 0.55078 0.55469 0.82812 1.2969 0.82812 2.2305 0 1.1094-0.375 1.9531-1.1211 2.5273-0.74219 0.57031-1.832 0.85938-3.2656 0.85938-0.54297 0-1.1211-0.0625-1.7344-0.18359-0.60938-0.125-1.2422-0.30469-1.8945-0.54688v-1.5977c0.62891 0.35156 1.2461 0.62109 1.8477 0.80078 0.60156 0.17578 1.1953 0.26562 1.7812 0.26562 0.88281 0 1.5664-0.17188 2.0469-0.51953 0.48047-0.35156 0.71875-0.84766 0.71875-1.4922 0-0.5625-0.17188-1.0039-0.51953-1.3203-0.34375-0.32031-0.91016-0.55859-1.6953-0.71484l-0.94531-0.18359c-1.1523-0.23047-1.9883-0.59375-2.5078-1.0859-0.51562-0.49219-0.77344-1.1758-0.77344-2.0508 0-1.0156 0.35547-1.8125 1.0664-2.3984 0.71484-0.58203 1.6992-0.875 2.9531-0.875 0.53516 0 1.082 0.050781 1.6406 0.14844 0.55859 0.097657 1.1289 0.24219 1.7109 0.4375z"/>
<path d="m493.7 72.473c-0.39844 1.0273-0.78516 1.6953-1.1641 2.0078-0.37891 0.3125-0.88672 0.46875-1.5195 0.46875h-1.125v-1.1836h0.82812c0.38672 0 0.6875-0.09375 0.90234-0.27734 0.21484-0.18359 0.45312-0.62109 0.71484-1.3047l0.25391-0.64844-3.4766-8.4648h1.4961l2.6836 6.7305 2.6836-6.7305h1.4961z"/>
<path d="m506.57 66.48v5.1953h-1.4102v-5.1484c0-0.8125-0.16016-1.4219-0.47656-1.8281-0.31641-0.40625-0.79297-0.60547-1.4258-0.60547-0.76172 0-1.3633 0.24219-1.8047 0.72656-0.4375 0.48828-0.65625 1.1523-0.65625 1.9922v4.8633h-1.4219v-8.6055h1.4219v1.3359c0.33594-0.51562 0.73047-0.90234 1.1875-1.1602 0.46094-0.25391 0.98828-0.38281 1.5859-0.38281 0.98828 0 1.7344 0.30859 2.2422 0.92188 0.50391 0.60938 0.75781 1.5078 0.75781 2.6953z"/>
<path d="m510.78 60.629v2.4414h2.9062v1.0977h-2.9062v4.6719c0 0.70312 0.09375 1.1523 0.28516 1.3516 0.19141 0.19922 0.58203 0.30078 1.1719 0.30078h1.4492v1.1836h-1.4492c-1.0898 0-1.8398-0.20312-2.2539-0.60547-0.41406-0.41016-0.62109-1.1562-0.62109-2.2305v-4.6719h-1.0352v-1.0977h1.0352v-2.4414z"/>
<path d="m519.45 67.352c-1.1406 0-1.9336 0.12891-2.3711 0.39063-0.44141 0.26172-0.66016 0.70703-0.66016 1.3359 0 0.50391 0.16406 0.90234 0.49219 1.1992 0.33203 0.29297 0.78125 0.4375 1.3477 0.4375 0.78516 0 1.4102-0.27734 1.8789-0.82812 0.47656-0.55859 0.71484-1.3008 0.71484-2.2227v-0.3125zm2.8125-0.58594v4.9102h-1.4102v-1.3047c-0.32422 0.51953-0.72266 0.90625-1.2031 1.1602-0.48047 0.24219-1.0703 0.36719-1.7656 0.36719-0.87891 0-1.5781-0.24609-2.1016-0.73828-0.51562-0.49609-0.77344-1.1602-0.77344-1.9883 0-0.96875 0.32031-1.6992 0.96484-2.1914 0.64844-0.49219 1.6172-0.73828 2.8984-0.73828h1.9805v-0.13672c0-0.65234-0.21484-1.1523-0.64453-1.5078-0.42578-0.35547-1.0234-0.53516-1.793-0.53516-0.49219 0-0.96875 0.058594-1.4375 0.17578-0.46484 0.11719-0.91016 0.29297-1.3398 0.53125v-1.3086c0.51563-0.19922 1.0156-0.34766 1.5039-0.44531 0.48438-0.10156 0.95703-0.15234 1.418-0.15234 1.2422 0 2.1719 0.32422 2.7852 0.96875 0.61328 0.64453 0.91797 1.6211 0.91797 2.9336z"/>
<path d="m532.3 63.07-3.1055 4.1875 3.2695 4.418h-1.668l-2.5-3.3828-2.5 3.3828h-1.6641l3.3359-4.5039-3.0508-4.1016h1.6641l2.2773 3.0664 2.2773-3.0664z"/>
<path d="m465.63 81.148v4.3086h1.9492c0.71875 0 1.2773-0.18359 1.6719-0.55859 0.39453-0.375 0.58984-0.90625 0.58984-1.5977 0-0.6875-0.19531-1.2188-0.58984-1.5898-0.39453-0.375-0.95312-0.5625-1.6719-0.5625zm-1.5469-1.2734h3.4961c1.2812 0 2.2539 0.28906 2.9062 0.875 0.66016 0.57812 0.98828 1.4297 0.98828 2.5508 0 1.1328-0.32812 1.9883-0.98828 2.5664-0.65234 0.57812-1.625 0.86719-2.9062 0.86719h-1.9492v4.6094h-1.5469z"/>
<path d="m480.64 86.148v5.1953h-1.4141v-5.1484c0-0.8125-0.15625-1.4219-0.47266-1.8281-0.31641-0.40234-0.79297-0.60547-1.4297-0.60547-0.76172 0-1.3594 0.24219-1.8008 0.73047-0.4375 0.48437-0.66016 1.1484-0.66016 1.9883v4.8633h-1.418v-11.953h1.418v4.6836c0.33984-0.51562 0.73438-0.90234 1.1914-1.1602 0.45703-0.25391 0.98828-0.38281 1.5859-0.38281 0.98828 0 1.7344 0.30859 2.2383 0.92188 0.50781 0.60938 0.76172 1.5078 0.76172 2.6953z"/>
<path d="m486.78 83.73c-0.75391 0-1.3516 0.29688-1.793 0.89062-0.44141 0.58984-0.66016 1.3984-0.66016 2.4297 0 1.0273 0.21875 1.8398 0.65234 2.4336 0.44141 0.58984 1.0391 0.88281 1.8008 0.88281 0.75391 0 1.3477-0.29688 1.7891-0.89063 0.4375-0.59375 0.66016-1.4023 0.66016-2.4258 0-1.0195-0.22266-1.8281-0.66016-2.4219-0.44141-0.59766-1.0352-0.89844-1.7891-0.89844zm0-1.1992c1.2305 0 2.1914 0.39844 2.8945 1.1992 0.69922 0.79688 1.0508 1.9062 1.0508 3.3203 0 1.4062-0.35156 2.5117-1.0508 3.3164-0.70312 0.80078-1.6641 1.1992-2.8945 1.1992-1.2305 0-2.1953-0.39844-2.8984-1.1992-0.69531-0.80469-1.043-1.9102-1.043-3.3164 0-1.4141 0.34766-2.5234 1.043-3.3203 0.70312-0.80078 1.668-1.1992 2.8984-1.1992z"/>
<path d="m500.2 86.148v5.1953h-1.4102v-5.1484c0-0.8125-0.15625-1.4219-0.47656-1.8281-0.31641-0.40234-0.79297-0.60547-1.4258-0.60547-0.76172 0-1.3633 0.24219-1.8008 0.73047-0.44141 0.48437-0.66016 1.1484-0.66016 1.9883v4.8633h-1.418v-8.6055h1.418v1.3359c0.33594-0.51562 0.73438-0.90234 1.1875-1.1602 0.46094-0.25391 0.99219-0.38281 1.5898-0.38281 0.98438 0 1.7305 0.30859 2.2383 0.92188 0.50781 0.60938 0.75781 1.5078 0.75781 2.6953z"/>
<path d="m506.34 83.73c-0.75781 0-1.3555 0.29688-1.793 0.89062-0.44141 0.58984-0.66016 1.3984-0.66016 2.4297 0 1.0273 0.21484 1.8398 0.65234 2.4336 0.4375 0.58984 1.0391 0.88281 1.8008 0.88281 0.75 0 1.3477-0.29688 1.7891-0.89063 0.4375-0.59375 0.65625-1.4023 0.65625-2.4258 0-1.0195-0.21875-1.8281-0.65625-2.4219-0.44141-0.59766-1.0391-0.89844-1.7891-0.89844zm0-1.1992c1.2266 0 2.1914 0.39844 2.8906 1.1992 0.70312 0.79688 1.0508 1.9062 1.0508 3.3203 0 1.4062-0.34766 2.5117-1.0508 3.3164-0.69922 0.80078-1.6641 1.1992-2.8906 1.1992-1.2305 0-2.1992-0.39844-2.8984-1.1992-0.69531-0.80469-1.043-1.9102-1.043-3.3164 0-1.4141 0.34766-2.5234 1.043-3.3203 0.69922-0.80078 1.668-1.1992 2.8984-1.1992z"/>
<path d="m512.62 79.391h1.4102v11.953h-1.4102z"/>
<path d="m520.32 83.73c-0.75391 0-1.3516 0.29688-1.793 0.89062-0.44141 0.58984-0.66016 1.3984-0.66016 2.4297 0 1.0273 0.21875 1.8398 0.65234 2.4336 0.44141 0.58984 1.0391 0.88281 1.8008 0.88281 0.75391 0 1.3477-0.29688 1.7891-0.89063 0.4375-0.59375 0.66016-1.4023 0.66016-2.4258 0-1.0195-0.22266-1.8281-0.66016-2.4219-0.44141-0.59766-1.0352-0.89844-1.7891-0.89844zm0-1.1992c1.2305 0 2.1914 0.39844 2.8945 1.1992 0.69922 0.79688 1.0508 1.9062 1.0508 3.3203 0 1.4062-0.35156 2.5117-1.0508 3.3164-0.70313 0.80078-1.6641 1.1992-2.8945 1.1992-1.2305 0-2.1953-0.39844-2.8984-1.1992-0.69531-0.80469-1.043-1.9102-1.043-3.3164 0-1.4141 0.34766-2.5234 1.043-3.3203 0.70312-0.80078 1.668-1.1992 2.8984-1.1992z"/>
<path d="m532.25 86.941c0-1.0234-0.21484-1.8164-0.63672-2.3828-0.42188-0.5625-1.0117-0.84375-1.7734-0.84375-0.75781 0-1.3477 0.28125-1.7734 0.84375-0.41797 0.56641-0.62891 1.3594-0.62891 2.3828 0 1.0195 0.21094 1.8125 0.62891 2.375 0.42578 0.5625 1.0156 0.84375 1.7734 0.84375 0.76172 0 1.3516-0.28125 1.7734-0.84375 0.42187-0.5625 0.63672-1.3555 0.63672-2.375zm1.4102 3.3359c0 1.4648-0.32422 2.5508-0.97656 3.2656-0.64844 0.71484-1.6406 1.0742-2.9805 1.0742-0.49609 0-0.96484-0.039063-1.4062-0.11719-0.4375-0.070312-0.86328-0.18359-1.2812-0.33594v-1.375c0.41797 0.22656 0.82422 0.39063 1.2305 0.5 0.40234 0.10547 0.8125 0.16016 1.2344 0.16016 0.92578 0 1.6172-0.24219 2.0781-0.73047 0.46094-0.48047 0.69141-1.2109 0.69141-2.1875v-0.69922c-0.29297 0.50391-0.66797 0.88281-1.1211 1.1367-0.45703 0.25-1 0.375-1.6328 0.375-1.0547 0-1.9023-0.40234-2.5469-1.207-0.64453-0.80469-0.96875-1.8672-0.96875-3.1953 0-1.332 0.32422-2.3984 0.96875-3.2031 0.64453-0.80469 1.4922-1.207 2.5469-1.207 0.63281 0 1.1758 0.125 1.6328 0.375 0.45313 0.25391 0.82813 0.63281 1.1211 1.1406v-1.3086h1.4102z"/>
<path d="m536.57 82.738h1.4102v8.6055h-1.4102zm0-3.3477h1.4102v1.7891h-1.4102z"/>
<path d="m548.28 86.688v0.69141h-6.4883c0.0625 0.97266 0.35156 1.7148 0.875 2.2305 0.52734 0.50391 1.2578 0.75781 2.1914 0.75781 0.54297 0 1.0664-0.066407 1.5742-0.19922 0.51172-0.13281 1.0156-0.33203 1.5195-0.59766v1.3359c-0.50781 0.21484-1.0273 0.37891-1.5586 0.49219-0.53125 0.11328-1.0703 0.16797-1.6172 0.16797-1.3711 0-2.457-0.39844-3.2617-1.1992-0.79688-0.79688-1.1953-1.8789-1.1953-3.2422 0-1.4062 0.37891-2.5234 1.1367-3.3477 0.76172-0.83203 1.7852-1.2461 3.0742-1.2461 1.1562 0 2.0664 0.375 2.7383 1.1211 0.67578 0.74219 1.0117 1.7539 1.0117 3.0352zm-1.4102-0.41406c-0.011719-0.77344-0.22656-1.3906-0.65234-1.8516-0.41797-0.46094-0.97656-0.69141-1.6719-0.69141-0.78906 0-1.418 0.22266-1.8945 0.66797-0.46875 0.44531-0.74219 1.0742-0.8125 1.8828z"/>
<path d="m665.37 22.391h3.7578l2.6094 6.1406 2.6211-6.1406h3.75v11.473h-2.7891v-8.3906l-2.6406 6.1836h-1.8711l-2.6367-6.1836v8.3906h-2.8008z"/>
<path d="m684.97 27.016c-0.60938 0-1.0742 0.22266-1.3984 0.66406-0.31641 0.43359-0.47266 1.0625-0.47266 1.8867 0 0.82812 0.15625 1.457 0.47266 1.8984 0.32422 0.4375 0.78906 0.65234 1.3984 0.65234 0.59766 0 1.0547-0.21484 1.3711-0.65234 0.31641-0.44141 0.47656-1.0703 0.47656-1.8984 0-0.82422-0.16016-1.4531-0.47656-1.8867-0.31641-0.44141-0.77344-0.66406-1.3711-0.66406zm0-1.9648c1.4766 0 2.6289 0.39844 3.457 1.1992 0.83594 0.79688 1.25 1.9062 1.25 3.3164 0 1.4141-0.41406 2.5234-1.25 3.3203-0.82812 0.80078-1.9805 1.1992-3.457 1.1992-1.4844 0-2.6445-0.39844-3.4844-1.1992-0.83203-0.79688-1.25-1.9062-1.25-3.3203 0-1.4102 0.41797-2.5195 1.25-3.3164 0.83984-0.80078 2-1.1992 3.4844-1.1992z"/>
<path d="m694.67 22.816v2.4414h2.832v1.9688h-2.832v3.6484c0 0.39844 0.082031 0.67188 0.23828 0.8125 0.16016 0.14062 0.47266 0.20703 0.94531 0.20703h1.4102v1.9688h-2.3555c-1.082 0-1.8516-0.22656-2.3086-0.67578-0.44922-0.45703-0.67188-1.2266-0.67188-2.3125v-3.6484h-1.3672v-1.9688h1.3672v-2.4414z"/>
<path d="m703.27 27.016c-0.60547 0-1.0703 0.22266-1.3945 0.66406-0.31641 0.43359-0.47656 1.0625-0.47656 1.8867 0 0.82812 0.16016 1.457 0.47656 1.8984 0.32422 0.4375 0.78906 0.65234 1.3945 0.65234 0.60156 0 1.0586-0.21484 1.375-0.65234 0.31641-0.44141 0.47656-1.0703 0.47656-1.8984 0-0.82422-0.16016-1.4531-0.47656-1.8867-0.31641-0.44141-0.77344-0.66406-1.375-0.66406zm0-1.9648c1.4805 0 2.6328 0.39844 3.4609 1.1992 0.83203 0.79688 1.25 1.9062 1.25 3.3164 0 1.4141-0.41797 2.5234-1.25 3.3203-0.82812 0.80078-1.9805 1.1992-3.4609 1.1992s-2.6406-0.39844-3.4805-1.1992c-0.83203-0.79688-1.25-1.9062-1.25-3.3203 0-1.4102 0.41797-2.5195 1.25-3.3164 0.83984-0.80078 2-1.1992 3.4805-1.1992z"/>
<path d="m716.35 27.602c-0.23828-0.11328-0.48047-0.19531-0.72266-0.24609-0.23438-0.054688-0.47266-0.085938-0.71094-0.085938-0.70703 0-1.25 0.23047-1.6328 0.68359-0.37891 0.45312-0.57031 1.1016-0.57031 1.9453v3.9648h-2.7461v-8.6055h2.7461v1.4141c0.35547-0.5625 0.75781-0.97266 1.2148-1.2305 0.45703-0.26172 1.0078-0.39062 1.6484-0.39062 0.089844 0 0.19141 0.003907 0.29688 0.015625 0.10938 0.003906 0.26562 0.019532 0.46875 0.046875z"/>
<path d="m717.72 25.258h2.7422v8.6055h-2.7422zm0-3.3516h2.7422v2.2461h-2.7422z"/>
<path d="m729.81 25.527v2.0898c-0.58984-0.24609-1.1562-0.42969-1.7031-0.55469-0.54688-0.12109-1.0625-0.18359-1.5508-0.18359-0.51953 0-0.91016 0.066406-1.1641 0.19922-0.25 0.12891-0.375 0.32812-0.375 0.60156 0 0.21875 0.09375 0.38672 0.28125 0.50391 0.19531 0.12109 0.53906 0.20703 1.0352 0.26172l0.48437 0.070313c1.4062 0.17969 2.3516 0.47266 2.8398 0.88281 0.48438 0.41016 0.72656 1.0547 0.72656 1.9297 0 0.91797-0.33594 1.6055-1.0117 2.0664-0.67578 0.46094-1.6836 0.69141-3.0234 0.69141-0.56641 0-1.1523-0.046876-1.7617-0.13672-0.60547-0.089844-1.2266-0.22266-1.8633-0.40234v-2.0898c0.54688 0.26562 1.1055 0.46875 1.6797 0.60156 0.57812 0.13281 1.1602 0.19922 1.7539 0.19922 0.53906 0 0.94141-0.074218 1.2109-0.22266 0.27344-0.14844 0.41016-0.37109 0.41016-0.66016 0-0.24609-0.097656-0.42969-0.28516-0.54688-0.18359-0.12109-0.55469-0.21875-1.1133-0.28516l-0.48047-0.0625c-1.2227-0.15234-2.082-0.4375-2.5703-0.85156-0.49219-0.41406-0.73828-1.043-0.73828-1.8906 0-0.91016 0.3125-1.5859 0.9375-2.0273 0.62109-0.44141 1.5781-0.66016 2.8672-0.66016 0.50781 0 1.0391 0.039063 1.5977 0.11328 0.55469 0.078126 1.1602 0.19922 1.8164 0.36328z"/>
<path d="m739.39 25.527v2.2422c-0.37109-0.25391-0.75-0.44531-1.125-0.56641-0.375-0.125-0.76172-0.1875-1.168-0.1875-0.76562 0-1.3633 0.22656-1.793 0.67969-0.42578 0.44531-0.63672 1.0703-0.63672 1.8711 0 0.80469 0.21094 1.4336 0.63672 1.8828 0.42969 0.44531 1.0273 0.66797 1.793 0.66797 0.42969 0 0.83594-0.0625 1.2188-0.19141 0.39062-0.12891 0.74609-0.31641 1.0742-0.56641v2.25c-0.42969 0.16016-0.86719 0.27734-1.3125 0.35156-0.4375 0.082031-0.87891 0.125-1.3242 0.125-1.5508 0-2.7617-0.39844-3.6367-1.1914-0.875-0.79688-1.3125-1.9062-1.3125-3.3281 0-1.418 0.4375-2.5234 1.3125-3.3164 0.875-0.80078 2.0859-1.1992 3.6367-1.1992 0.44922 0 0.89062 0.039063 1.3242 0.12109 0.44141 0.078125 0.87891 0.19531 1.3125 0.35547z"/>
<path d="m750.4 28.621v5.2422h-2.7617v-3.9961c0-0.75391-0.019531-1.2695-0.054688-1.5508-0.03125-0.28125-0.085937-0.48828-0.16797-0.62109-0.10937-0.17969-0.25391-0.32031-0.4375-0.41797-0.18359-0.10156-0.39453-0.15234-0.62891-0.15234-0.57422 0-1.0234 0.22266-1.3516 0.66797-0.32422 0.44141-0.48828 1.0547-0.48828 1.8359v4.2344h-2.7461v-11.957h2.7461v4.6133c0.41406-0.50391 0.85156-0.87109 1.3164-1.1094 0.46875-0.23828 0.98047-0.35938 1.543-0.35938 0.99219 0 1.7422 0.30469 2.2539 0.91406 0.51953 0.60938 0.77734 1.4961 0.77734 2.6602z"/>
<path d="m761.52 29.539v0.78125h-6.4219c0.066406 0.64453 0.30078 1.1289 0.69922 1.4531 0.39844 0.32422 0.95703 0.48437 1.6719 0.48437 0.57812 0 1.168-0.085937 1.7734-0.25391 0.60547-0.17578 1.2305-0.4375 1.8711-0.78516v2.1211c-0.65234 0.24609-1.3008 0.42969-1.9492 0.55469-0.64844 0.12891-1.3008 0.19141-1.9492 0.19141-1.5547 0-2.7617-0.39453-3.6289-1.1836-0.85547-0.79297-1.2852-1.9062-1.2852-3.3359 0-1.4023 0.42188-2.5039 1.2656-3.3086 0.84766-0.80469 2.0117-1.207 3.4961-1.207 1.3477 0 2.4297 0.40625 3.2344 1.2227 0.81641 0.8125 1.2227 1.9023 1.2227 3.2656zm-2.8242-0.91797c0-0.51953-0.15234-0.94141-0.46094-1.2578-0.30078-0.32422-0.69531-0.48438-1.1875-0.48438-0.53125 0-0.96484 0.15234-1.2969 0.45312-0.33203 0.29688-0.53906 0.72656-0.62109 1.2891z"/>
<path d="m769.98 27.602c-0.23828-0.11328-0.48047-0.19531-0.71875-0.24609-0.23437-0.054688-0.47266-0.085938-0.71484-0.085938-0.70312 0-1.25 0.23047-1.6328 0.68359-0.37891 0.45312-0.56641 1.1016-0.56641 1.9453v3.9648h-2.7461v-8.6055h2.7461v1.4141c0.35156-0.5625 0.75391-0.97266 1.2109-1.2305 0.46094-0.26172 1.0078-0.39062 1.6484-0.39062 0.09375 0 0.19141 0.003907 0.30078 0.015625 0.10547 0.003906 0.26172 0.019532 0.46484 0.046875z"/>
<path d="m698.32 52.902c-0.54297 0.28125-1.1055 0.49219-1.6953 0.63672-0.58594 0.14453-1.1992 0.21484-1.8398 0.21484-1.9062 0-3.418-0.53125-4.5352-1.5977-1.1133-1.0703-1.6719-2.5195-1.6719-4.3477 0-1.8359 0.55859-3.2852 1.6719-4.3477 1.1172-1.0742 2.6289-1.6094 4.5352-1.6094 0.64062 0 1.2539 0.074219 1.8398 0.21875 0.58984 0.14063 1.1523 0.35547 1.6953 0.63672v2.375c-0.54687-0.375-1.0859-0.64844-1.6172-0.82422-0.53125-0.17187-1.0938-0.26172-1.6797-0.26172-1.0547 0-1.8828 0.33984-2.4844 1.0156-0.60547 0.67578-0.90625 1.6094-0.90625 2.7969 0 1.1836 0.30078 2.1133 0.90625 2.7891 0.60156 0.67578 1.4297 1.0117 2.4844 1.0117 0.58594 0 1.1484-0.085937 1.6797-0.25781 0.53125-0.17578 1.0703-0.44922 1.6172-0.82422z"/>
<path d="m704.73 46.688c-0.60547 0-1.0703 0.21875-1.3945 0.66016-0.31641 0.43359-0.47656 1.0664-0.47656 1.8906s0.16016 1.457 0.47656 1.8945c0.32422 0.4375 0.78906 0.65625 1.3945 0.65625 0.60156 0 1.0586-0.21875 1.375-0.65625 0.31641-0.4375 0.47656-1.0703 0.47656-1.8945s-0.16016-1.457-0.47656-1.8906c-0.31641-0.44141-0.77344-0.66016-1.375-0.66016zm0-1.9688c1.4805 0 2.6328 0.39844 3.4609 1.1992 0.83203 0.79688 1.25 1.9062 1.25 3.3203 0 1.4141-0.41797 2.5195-1.25 3.3164-0.82812 0.80078-1.9805 1.1992-3.4609 1.1992s-2.6406-0.39844-3.4805-1.1992c-0.83203-0.79688-1.25-1.9023-1.25-3.3164 0-1.4141 0.41797-2.5234 1.25-3.3203 0.83984-0.80078 2-1.1992 3.4805-1.1992z"/>
<path d="m717.82 47.27c-0.23828-0.11328-0.48047-0.19531-0.72266-0.24609-0.23438-0.054688-0.47266-0.082032-0.71094-0.082032-0.70703 0-1.25 0.22656-1.6328 0.68359-0.37891 0.44922-0.57031 1.0977-0.57031 1.9414v3.9648h-2.7461v-8.6055h2.7461v1.4141c0.35547-0.5625 0.75781-0.97266 1.2148-1.2305s1.0078-0.39062 1.6484-0.39062c0.089843 0 0.19141 0.003906 0.29688 0.015625 0.10938 0.003906 0.26562 0.019531 0.46875 0.046875z"/>
<path d="m722.18 42.484v2.4414h2.832v1.9688h-2.832v3.6484c0 0.39844 0.082031 0.67188 0.23828 0.8125 0.16016 0.14062 0.47266 0.21094 0.94531 0.21094h1.4102v1.9648h-2.3555c-1.082 0-1.8516-0.22656-2.3086-0.67578-0.44922-0.45703-0.67578-1.2266-0.67578-2.3125v-3.6484h-1.3633v-1.9688h1.3633v-2.4414z"/>
<path d="m735.27 49.207v0.78125h-6.4219c0.066406 0.64844 0.30078 1.1328 0.69922 1.4531 0.39844 0.32422 0.95703 0.48438 1.6719 0.48438 0.57812 0 1.168-0.085937 1.7734-0.25391 0.60547-0.17188 1.2305-0.43359 1.8711-0.78125v2.1172c-0.64844 0.24609-1.3008 0.43359-1.9492 0.55469-0.64844 0.12891-1.2969 0.19141-1.9492 0.19141-1.5547 0-2.7617-0.39453-3.625-1.1836-0.85938-0.79297-1.2891-1.9062-1.2891-3.332 0-1.4062 0.42188-2.5078 1.2656-3.3125 0.84766-0.80469 2.0117-1.207 3.4961-1.207 1.3516 0 2.4297 0.40625 3.2383 1.2227 0.8125 0.8125 1.2188 1.9023 1.2188 3.2656zm-2.8242-0.91406c0-0.52344-0.15234-0.94531-0.46094-1.2617-0.30078-0.32031-0.69531-0.48438-1.1875-0.48438-0.53125 0-0.96484 0.15234-1.2969 0.45312-0.33203 0.29688-0.53906 0.72656-0.62109 1.293z"/>
<path d="m739.52 49.129-3.1016-4.2031h2.9062l1.7578 2.5508 1.7812-2.5508h2.9062l-3.0977 4.1875 3.25 4.418h-2.9062l-1.9336-2.7188-1.9102 2.7188h-2.9062z"/>
<path d="m677.16 82.926-2.1016 5.7109h4.2109zm-0.875-1.5273h1.7578l4.3633 11.473h-1.6094l-1.043-2.9453h-5.1641l-1.043 2.9453h-1.6328z"/>
<path d="m688.99 85.586c-0.15625-0.09375-0.33203-0.16016-0.51953-0.19922-0.18359-0.046875-0.38672-0.070313-0.61328-0.070313-0.79688 0-1.4102 0.26172-1.8398 0.78516-0.42578 0.51563-0.63672 1.2617-0.63672 2.2344v4.5352h-1.4219v-8.6055h1.4219v1.3359c0.29688-0.52344 0.67969-0.91016 1.1562-1.1602 0.47656-0.25781 1.0547-0.38281 1.7344-0.38281 0.097656 0 0.20312 0.003906 0.32031 0.019531 0.12109 0.011719 0.25 0.03125 0.39453 0.054687z"/>
<path d="m691.87 81.82v2.4453h2.9062v1.0977h-2.9062v4.6719c0 0.69922 0.09375 1.1523 0.28125 1.3516 0.19531 0.19922 0.58594 0.30078 1.1758 0.30078h1.4492v1.1836h-1.4492c-1.0898 0-1.8398-0.20312-2.2539-0.60938-0.41406-0.41016-0.62109-1.1523-0.62109-2.2266v-4.6719h-1.0391v-1.0977h1.0391v-2.4453z"/>
<path d="m696.63 84.266h1.4102v8.6055h-1.4102zm0-3.3516h1.4102v1.7891h-1.4102z"/>
<path d="m700.95 80.914h1.418v7.0625l4.2109-3.7109h1.8008l-4.5547 4.0234 4.7461 4.582h-1.8398l-4.3633-4.2031v4.2031h-1.418z"/>
<path d="m709.46 89.473v-5.207h1.4102v5.1523c0 0.81641 0.16016 1.4297 0.47656 1.8359 0.31641 0.40625 0.79297 0.60938 1.4258 0.60938 0.76172 0 1.3633-0.24219 1.8008-0.73047 0.44531-0.48828 0.66797-1.1484 0.66797-1.9883v-4.8789h1.4141v8.6055h-1.4141v-1.3242c-0.33984 0.52344-0.73828 0.91406-1.1953 1.168-0.44922 0.25-0.97266 0.37891-1.5703 0.37891-0.98828 0-1.7383-0.30859-2.25-0.92188-0.51172-0.61719-0.76562-1.5156-0.76562-2.6992z"/>
<path d="m719.57 80.914h1.4102v11.957h-1.4102z"/>
<path d="m727.83 88.543c-1.1406 0-1.9297 0.13281-2.3672 0.39062-0.44141 0.26172-0.66016 0.70703-0.66016 1.3398 0 0.5 0.16406 0.89844 0.48828 1.1992 0.33203 0.28906 0.78516 0.4375 1.3516 0.4375 0.78125 0 1.4102-0.27734 1.8789-0.83203 0.47656-0.55859 0.71484-1.2969 0.71484-2.2188v-0.31641zm2.8164-0.58203v4.9102h-1.4102v-1.3086c-0.32422 0.52344-0.72656 0.91016-1.207 1.1602-0.48047 0.24609-1.0664 0.37109-1.7617 0.37109-0.87891 0-1.582-0.24609-2.1016-0.73828-0.51562-0.49609-0.77734-1.1602-0.77734-1.9922 0-0.96875 0.32422-1.6953 0.96875-2.1875 0.64844-0.49219 1.6133-0.73828 2.8984-0.73828h1.9805v-0.13672c0-0.65234-0.21484-1.1523-0.64453-1.5078-0.42578-0.35938-1.0234-0.53906-1.7969-0.53906-0.48828 0-0.96875 0.058594-1.4336 0.17969-0.46484 0.11719-0.91406 0.29297-1.3438 0.52734v-1.3047c0.51953-0.19922 1.0195-0.34766 1.5039-0.44531 0.48828-0.10156 0.96094-0.15234 1.4219-0.15234 1.2422 0 2.168 0.32031 2.7812 0.96484 0.61328 0.64844 0.92188 1.625 0.92188 2.9375z"/>
<path d="m734.95 81.82v2.4453h2.9062v1.0977h-2.9062v4.6719c0 0.69922 0.097656 1.1523 0.28516 1.3516 0.19531 0.19922 0.58594 0.30078 1.1719 0.30078h1.4492v1.1836h-1.4492c-1.0859 0-1.8398-0.20312-2.2539-0.60938-0.41406-0.41016-0.62109-1.1523-0.62109-2.2266v-4.6719h-1.0352v-1.0977h1.0352v-2.4453z"/>
<path d="m739.71 84.266h1.4102v8.6055h-1.4102zm0-3.3516h1.4102v1.7891h-1.4102z"/>
<path d="m747.41 85.254c-0.75781 0-1.3555 0.29688-1.793 0.89453-0.44141 0.58594-0.66016 1.3945-0.66016 2.4258s0.21484 1.8398 0.65234 2.4375c0.4375 0.58594 1.0391 0.88281 1.8008 0.88281 0.75 0 1.3477-0.29688 1.7852-0.89062 0.44141-0.59766 0.66016-1.4062 0.66016-2.4297 0-1.0195-0.21875-1.8242-0.66016-2.4219-0.4375-0.59766-1.0352-0.89844-1.7852-0.89844zm0-1.1953c1.2266 0 2.1914 0.39844 2.8906 1.1953 0.69922 0.80078 1.0508 1.9062 1.0508 3.3203 0 1.4102-0.35156 2.5156-1.0508 3.3203-0.69922 0.79688-1.6641 1.1992-2.8906 1.1992-1.2344 0-2.1992-0.40234-2.8984-1.1992-0.69531-0.80469-1.043-1.9102-1.043-3.3203 0-1.4141 0.34766-2.5195 1.043-3.3203 0.69922-0.79688 1.6641-1.1953 2.8984-1.1953z"/>
<path d="m760.83 87.676v5.1953h-1.4102v-5.1484c0-0.81641-0.16016-1.4258-0.47656-1.8281-0.31641-0.40625-0.79297-0.60938-1.4258-0.60938-0.76172 0-1.3633 0.24219-1.8047 0.73047-0.4375 0.48828-0.66016 1.1484-0.66016 1.9883v4.8672h-1.418v-8.6055h1.418v1.3359c0.33984-0.51953 0.73438-0.90625 1.1914-1.1602 0.46094-0.25781 0.98828-0.38281 1.5859-0.38281 0.98828 0 1.7344 0.30469 2.2422 0.92188 0.50391 0.60938 0.75781 1.5078 0.75781 2.6953z"/>
</g>
</svg>
