<?xml version="1.0" encoding="UTF-8"?>
<svg width="800px" height="452px" version="1.1" viewBox="0 0 800 452" xmlns="http://www.w3.org/2000/svg" xmlns:xlink="http://www.w3.org/1999/xlink">
<defs>
<symbol id="w" overflow="visible">
<path d="m3.9688-4.8594c-0.53125 0-0.95312 0.18359-1.2656 0.54688-0.3125 0.36719-0.46875 0.86719-0.46875 1.5 0 0.625 0.15625 1.125 0.46875 1.5 0.3125 0.36719 0.73438 0.54688 1.2656 0.54688s0.95312-0.17969 1.2656-0.54688c0.3125-0.375 0.46875-0.875 0.46875-1.5 0-0.63281-0.15625-1.1328-0.46875-1.5-0.3125-0.36328-0.73438-0.54688-1.2656-0.54688zm2.3594-3.7188v1.0781c-0.30469-0.13281-0.60547-0.23828-0.90625-0.3125-0.30469-0.082031-0.60156-0.125-0.89062-0.125-0.79297 0-1.3984 0.26562-1.8125 0.79688-0.40625 0.53125-0.64062 1.3359-0.70312 2.4062 0.23828-0.34375 0.53125-0.60156 0.875-0.78125 0.34375-0.1875 0.72656-0.28125 1.1562-0.28125 0.875 0 1.5664 0.27344 2.0781 0.8125 0.50781 0.53125 0.76562 1.2578 0.76562 2.1719 0 0.89844-0.26562 1.6211-0.79688 2.1719-0.53125 0.54297-1.2422 0.8125-2.125 0.8125-1.0117 0-1.7891-0.38281-2.3281-1.1562-0.53125-0.78125-0.79688-1.9102-0.79688-3.3906 0-1.3828 0.32812-2.4883 0.98438-3.3125 0.65625-0.82031 1.5352-1.2344 2.6406-1.2344 0.30078 0 0.60156 0.03125 0.90625 0.09375 0.30078 0.054687 0.61719 0.13672 0.95312 0.25z"/>
</symbol>
<symbol id="a" overflow="visible">
<path d="m3.8281-7.9844c-0.61719 0-1.0781 0.30469-1.3906 0.90625-0.30469 0.59375-0.45312 1.4961-0.45312 2.7031 0 1.1992 0.14844 2.1016 0.45312 2.7031 0.3125 0.60547 0.77344 0.90625 1.3906 0.90625 0.61328 0 1.0703-0.30078 1.375-0.90625 0.3125-0.60156 0.46875-1.5039 0.46875-2.7031 0-1.207-0.15625-2.1094-0.46875-2.7031-0.30469-0.60156-0.76172-0.90625-1.375-0.90625zm0-0.9375c0.97656 0 1.7266 0.39062 2.25 1.1719 0.51953 0.77344 0.78125 1.8984 0.78125 3.375 0 1.4805-0.26172 2.6094-0.78125 3.3906-0.52344 0.77344-1.2734 1.1562-2.25 1.1562-0.99219 0-1.7461-0.38281-2.2656-1.1562-0.51172-0.78125-0.76562-1.9102-0.76562-3.3906 0-1.4766 0.25391-2.6016 0.76562-3.375 0.51953-0.78125 1.2734-1.1719 2.2656-1.1719z"/>
</symbol>
<symbol id="v" overflow="visible">
<path d="m0.59375-3.7812h3.1562v0.96875h-3.1562z"/>
</symbol>
<symbol id="u" overflow="visible">
<path d="m1.3281-0.1875v-1.0781c0.28906 0.14844 0.58594 0.25781 0.89062 0.32812 0.3125 0.074219 0.61328 0.10938 0.90625 0.10938 0.78125 0 1.3789-0.25781 1.7969-0.78125 0.41406-0.53125 0.64844-1.332 0.70312-2.4062-0.23047 0.33594-0.52344 0.59375-0.875 0.78125-0.34375 0.17969-0.72656 0.26562-1.1406 0.26562-0.875 0-1.5703-0.26562-2.0781-0.79688-0.51172-0.53125-0.76562-1.2539-0.76562-2.1719 0-0.90625 0.26562-1.6289 0.79688-2.1719 0.53125-0.53906 1.2383-0.8125 2.125-0.8125 1.0078 0 1.7812 0.39062 2.3125 1.1719 0.53906 0.77344 0.8125 1.8984 0.8125 3.375 0 1.3867-0.32812 2.4922-0.98438 3.3125-0.65625 0.82422-1.543 1.2344-2.6562 1.2344-0.29297 0-0.59375-0.03125-0.90625-0.09375-0.30469-0.054688-0.61719-0.14062-0.9375-0.26562zm2.3594-3.7188c0.53125 0 0.95312-0.17969 1.2656-0.54688 0.3125-0.36328 0.46875-0.85938 0.46875-1.4844 0-0.63281-0.15625-1.1328-0.46875-1.5-0.3125-0.36328-0.73438-0.54688-1.2656-0.54688s-0.95312 0.18359-1.2656 0.54688c-0.3125 0.36719-0.46875 0.86719-0.46875 1.5 0 0.625 0.15625 1.1211 0.46875 1.4844 0.3125 0.36719 0.73438 0.54688 1.2656 0.54688z"/>
</symbol>
<symbol id="t" overflow="visible">
<path d="m0.98438-8.7656h5.6406v0.5l-3.1875 8.2656h-1.2344l3-7.7656h-4.2188z"/>
</symbol>
<symbol id="s" overflow="visible">
<path d="m3.8281-4.1719c-0.5625 0-1.0078 0.15234-1.3281 0.45312-0.32422 0.30469-0.48438 0.71875-0.48438 1.25s0.16016 0.94922 0.48438 1.25c0.32031 0.30469 0.76562 0.45312 1.3281 0.45312s1.0039-0.14844 1.3281-0.45312c0.32031-0.3125 0.48438-0.72656 0.48438-1.25 0-0.53125-0.16406-0.94531-0.48438-1.25-0.32422-0.30078-0.76562-0.45312-1.3281-0.45312zm-1.1875-0.5c-0.51172-0.125-0.91406-0.35938-1.2031-0.70312-0.28125-0.35156-0.42188-0.78125-0.42188-1.2812 0-0.69531 0.25-1.25 0.75-1.6562s1.1875-0.60938 2.0625-0.60938 1.5547 0.20312 2.0469 0.60938c0.5 0.40625 0.75 0.96094 0.75 1.6562 0 0.5-0.14062 0.92969-0.42188 1.2812-0.28125 0.34375-0.67969 0.57812-1.1875 0.70312 0.57031 0.13672 1.0156 0.39844 1.3281 0.78125 0.32031 0.38672 0.48438 0.85938 0.48438 1.4219 0 0.85547-0.26172 1.5117-0.78125 1.9688-0.51172 0.44922-1.25 0.67188-2.2188 0.67188s-1.7148-0.22266-2.2344-0.67188c-0.52344-0.45703-0.78125-1.1133-0.78125-1.9688 0-0.5625 0.16016-1.0352 0.48438-1.4219 0.32031-0.38281 0.76953-0.64453 1.3438-0.78125zm-0.4375-1.875c0 0.46094 0.14062 0.82031 0.42188 1.0781 0.28906 0.25 0.69141 0.375 1.2031 0.375 0.50781 0 0.90625-0.125 1.1875-0.375 0.28906-0.25781 0.4375-0.61719 0.4375-1.0781 0-0.44531-0.14844-0.79688-0.4375-1.0469-0.28125-0.25781-0.67969-0.39062-1.1875-0.39062-0.51172 0-0.91406 0.13281-1.2031 0.39062-0.28125 0.25-0.42188 0.60156-0.42188 1.0469z"/>
</symbol>
<symbol id="d" overflow="visible">
<path d="m8.75-3.8594c-0.34375 0-0.61719 0.14844-0.8125 0.4375-0.1875 0.29297-0.28125 0.69531-0.28125 1.2031 0 0.51172 0.09375 0.91406 0.28125 1.2031 0.19531 0.29297 0.46875 0.4375 0.8125 0.4375 0.33203 0 0.59375-0.14453 0.78125-0.4375 0.19531-0.28906 0.29688-0.69141 0.29688-1.2031 0-0.50781-0.10156-0.91016-0.29688-1.2031-0.1875-0.28906-0.44922-0.4375-0.78125-0.4375zm0-0.75c0.61328 0 1.1016 0.21875 1.4688 0.65625 0.36328 0.42969 0.54688 1.0078 0.54688 1.7344 0 0.74219-0.18359 1.3242-0.54688 1.75-0.36719 0.42969-0.85547 0.64062-1.4688 0.64062-0.625 0-1.1211-0.21094-1.4844-0.64062-0.36719-0.42578-0.54688-1.0078-0.54688-1.75 0-0.72656 0.17969-1.3047 0.54688-1.7344 0.36328-0.4375 0.85938-0.65625 1.4844-0.65625zm-6.0625-3.5781c-0.34375 0-0.61719 0.14844-0.8125 0.4375-0.1875 0.29297-0.28125 0.69531-0.28125 1.2031 0 0.52344 0.09375 0.92969 0.28125 1.2188 0.19531 0.28125 0.46875 0.42188 0.8125 0.42188s0.60938-0.14062 0.79688-0.42188c0.19531-0.28906 0.29688-0.69531 0.29688-1.2188 0-0.5-0.10156-0.89453-0.29688-1.1875-0.19922-0.30078-0.46484-0.45312-0.79688-0.45312zm5.2969-0.73438h0.9375l-5.4844 9.0938h-0.9375zm-5.2969 0c0.61328 0 1.1016 0.21484 1.4688 0.64062 0.375 0.42969 0.5625 1.0078 0.5625 1.7344 0 0.74219-0.18359 1.3242-0.54688 1.75-0.36719 0.42969-0.85938 0.64062-1.4844 0.64062s-1.1211-0.21094-1.4844-0.64062c-0.36719-0.42578-0.54688-1.0078-0.54688-1.75 0-0.72656 0.17969-1.3047 0.54688-1.7344 0.36328-0.42578 0.85938-0.64062 1.4844-0.64062z"/>
</symbol>
<symbol id="bl" overflow="visible">
<path d="m4.875-4.7344c0.57031 0.125 1.0156 0.38281 1.3281 0.76562 0.32031 0.38672 0.48438 0.85938 0.48438 1.4219 0 0.86719-0.29688 1.5391-0.89062 2.0156-0.59375 0.46875-1.4375 0.70312-2.5312 0.70312-0.375 0-0.75781-0.039063-1.1406-0.10938-0.38672-0.070312-0.78906-0.17969-1.2031-0.32812v-1.1406c0.32031 0.1875 0.67578 0.33594 1.0625 0.4375 0.39453 0.09375 0.80469 0.14062 1.2344 0.14062 0.75 0 1.3164-0.14453 1.7031-0.4375 0.39453-0.28906 0.59375-0.71875 0.59375-1.2812 0-0.51953-0.18359-0.92578-0.54688-1.2188-0.36719-0.28906-0.87109-0.4375-1.5156-0.4375h-1.0156v-0.96875h1.0625c0.58203 0 1.0312-0.11328 1.3438-0.34375 0.3125-0.23828 0.46875-0.57812 0.46875-1.0156 0-0.44531-0.16406-0.78906-0.48438-1.0312-0.32422-0.25-0.78125-0.375-1.375-0.375-0.32422 0-0.67188 0.039062-1.0469 0.10938-0.375 0.074219-0.78125 0.18359-1.2188 0.32812v-1.0469c0.44531-0.125 0.86328-0.21875 1.25-0.28125 0.39453-0.0625 0.76953-0.09375 1.125-0.09375 0.89453 0 1.6016 0.20312 2.125 0.60938 0.53125 0.40625 0.79688 0.96094 0.79688 1.6562 0 0.49219-0.14062 0.90234-0.42188 1.2344-0.27344 0.33594-0.66797 0.5625-1.1875 0.6875z"/>
</symbol>
<symbol id="bk" overflow="visible">
<path d="m2.3125-1h4.1406v1h-5.5781v-1c0.45703-0.46875 1.0703-1.0938 1.8438-1.875 0.78125-0.78125 1.2695-1.2852 1.4688-1.5156 0.38281-0.42578 0.64844-0.78516 0.79688-1.0781 0.14453-0.30078 0.21875-0.59375 0.21875-0.875 0-0.46875-0.16406-0.84766-0.48438-1.1406-0.32422-0.30078-0.75-0.45312-1.2812-0.45312-0.36719 0-0.75781 0.070312-1.1719 0.20312-0.41797 0.125-0.85938 0.32031-1.3281 0.57812v-1.1875c0.47656-0.19531 0.92578-0.34375 1.3438-0.4375 0.41406-0.09375 0.79688-0.14062 1.1406-0.14062 0.90625 0 1.6289 0.23047 2.1719 0.6875 0.53906 0.44922 0.8125 1.0547 0.8125 1.8125 0 0.35547-0.070312 0.69531-0.20312 1.0156-0.13672 0.32422-0.38281 0.70312-0.73438 1.1406-0.10547 0.11719-0.42188 0.44531-0.95312 0.98438-0.52344 0.54297-1.2578 1.3047-2.2031 2.2812z"/>
</symbol>
<symbol id="bo" overflow="visible">
<path d="m1.4844-1h1.9531v-6.6875l-2.1094 0.42188v-1.0781l2.0938-0.42188h1.1875v7.7656h1.9375v1h-5.0625z"/>
</symbol>
<symbol id="bn" overflow="visible">
<path d="m4.5469-7.7344-3 4.6719h3zm-0.3125-1.0312h1.5v5.7031h1.25v1h-1.25v2.0625h-1.1875v-2.0625h-3.9531v-1.1562z"/>
</symbol>
<symbol id="bm" overflow="visible">
<path d="m1.2969-8.7656h4.6562v1h-3.5625v2.1406c0.16406-0.050781 0.33203-0.09375 0.5-0.125 0.17578-0.03125 0.35156-0.046875 0.53125-0.046875 0.97656 0 1.7539 0.27344 2.3281 0.8125 0.57031 0.53125 0.85938 1.2578 0.85938 2.1719 0 0.94922-0.29688 1.6836-0.89062 2.2031-0.58594 0.52344-1.4141 0.78125-2.4844 0.78125-0.36719 0-0.74219-0.03125-1.125-0.09375-0.375-0.0625-0.77344-0.15625-1.1875-0.28125v-1.1875c0.35156 0.1875 0.71875 0.32812 1.0938 0.42188s0.77344 0.14062 1.2031 0.14062c0.67578 0 1.2109-0.17578 1.6094-0.53125 0.39453-0.35156 0.59375-0.83594 0.59375-1.4531 0-0.61328-0.19922-1.0977-0.59375-1.4531-0.39844-0.35156-0.93359-0.53125-1.6094-0.53125-0.32422 0-0.64062 0.039063-0.95312 0.10938-0.3125 0.0625-0.63672 0.17188-0.96875 0.32812z"/>
</symbol>
<symbol id="bj" overflow="visible">
<path d="m-1.5938-6.4219v3.5312l1.5938 0.5625v2.2656l-8.7656-3.25v-2.6875l8.7656-3.25v2.2656zm-1.625 2.9688v-2.4062l-3.5 1.2031z"/>
</symbol>
<symbol id="k" overflow="visible">
<path d="m-4-7.625h4v2.1094h-3.0625c-0.57031 0-0.96094 0.015625-1.1719 0.046875-0.21875 0.023438-0.37891 0.0625-0.48438 0.125-0.13281 0.085938-0.23828 0.19922-0.3125 0.34375-0.082031 0.13672-0.125 0.29297-0.125 0.46875 0 0.44922 0.17188 0.79688 0.51562 1.0469 0.33594 0.25 0.80469 0.375 1.4062 0.375h3.2344v2.0938h-6.5781v-2.0938h0.96875c-0.38281-0.32031-0.66406-0.66016-0.84375-1.0156-0.1875-0.35156-0.28125-0.75-0.28125-1.1875 0-0.75 0.23438-1.3203 0.70312-1.7188 0.46094-0.39453 1.1367-0.59375 2.0312-0.59375z"/>
</symbol>
<symbol id="q" overflow="visible">
<path d="m-8.4531-3.3125h1.875v-2.1562h1.5v2.1562h2.7969c0.30469 0 0.51172-0.054688 0.625-0.17188 0.10547-0.125 0.15625-0.36719 0.15625-0.73438v-1.0781h1.5v1.8125c0 0.82422-0.17188 1.4141-0.51562 1.7656-0.35156 0.34375-0.94141 0.51562-1.7656 0.51562h-2.7969v1.0469h-1.5v-1.0469h-1.875z"/>
</symbol>
<symbol id="b" overflow="visible">
<path d="m-3.3125-7.5781h0.60938v4.9219c0.49219-0.050781 0.85938-0.22656 1.1094-0.53125 0.24219-0.3125 0.35938-0.73828 0.35938-1.2812 0-0.44531-0.0625-0.89844-0.1875-1.3594-0.13281-0.46875-0.33203-0.94531-0.59375-1.4375h1.6094c0.1875 0.5 0.32812 1 0.42188 1.5 0.10156 0.49219 0.15625 0.98438 0.15625 1.4844 0 1.1875-0.30078 2.1172-0.90625 2.7812-0.60156 0.65625-1.4531 0.98438-2.5469 0.98438-1.0703 0-1.9141-0.32031-2.5312-0.96875-0.61328-0.65625-0.92188-1.5508-0.92188-2.6875 0-1.0312 0.3125-1.8516 0.9375-2.4688 0.61719-0.625 1.4453-0.9375 2.4844-0.9375zm-0.6875 2.1562c-0.40625 0-0.72656 0.12109-0.96875 0.35938-0.25 0.23047-0.375 0.53125-0.375 0.90625 0 0.40625 0.11719 0.74219 0.34375 1 0.23047 0.25 0.5625 0.40625 1 0.46875z"/>
</symbol>
<symbol id="p" overflow="visible">
<path d="m-6.5781-1.0156v-2.0938h6.5781v2.0938zm-2.5625 0v-2.0938h1.7188v2.0938z"/>
</symbol>
<symbol id="ai" overflow="visible">
<path d="m-9.1406-1.0156v-2.0938h9.1406v2.0938z"/>
</symbol>
<symbol id="e" overflow="visible"></symbol>
<symbol id="o" overflow="visible">
<path d="m-5.6094-5.4844h-3.5312v-2.125h9.1406v2.125h-0.95312c0.38672 0.29297 0.67188 0.61719 0.85938 0.96875 0.17578 0.34375 0.26562 0.74609 0.26562 1.2031 0 0.80469-0.32031 1.4648-0.96875 1.9844-0.64453 0.52344-1.4727 0.78125-2.4844 0.78125-1.0195 0-1.8477-0.25781-2.4844-0.78125-0.64453-0.51953-0.96875-1.1797-0.96875-1.9844 0-0.45703 0.09375-0.85938 0.28125-1.2031 0.17969-0.35156 0.46094-0.67578 0.84375-0.96875zm4.25 1.3906c0-0.45703-0.16016-0.80078-0.48438-1.0312-0.33203-0.23828-0.8125-0.35938-1.4375-0.35938s-1.0977 0.12109-1.4219 0.35938c-0.33203 0.23047-0.5 0.57422-0.5 1.0312 0 0.4375 0.16797 0.77734 0.5 1.0156 0.32422 0.24219 0.79688 0.35938 1.4219 0.35938s1.1055-0.11719 1.4375-0.35938c0.32422-0.23828 0.48438-0.57812 0.48438-1.0156z"/>
</symbol>
<symbol id="j" overflow="visible">
<path d="m-4.7812-5.8906c-0.09375 0.17969-0.16016 0.35938-0.20312 0.54688-0.039063 0.17969-0.0625 0.35938-0.0625 0.54688 0 0.54297 0.17969 0.96094 0.53125 1.25 0.34375 0.29297 0.83984 0.4375 1.4844 0.4375h3.0312v2.0938h-6.5781v-2.0938h1.0781c-0.42578-0.26953-0.73828-0.58203-0.9375-0.9375-0.19531-0.35156-0.29688-0.77344-0.29688-1.2656 0-0.0625 0.007813-0.13281 0.015625-0.21875 0-0.082031 0.011719-0.20312 0.03125-0.35938z"/>
</symbol>
<symbol id="al" overflow="visible">
<path d="m-8.7656-1.1094v-3.75c0-1.1133 0.25-1.9688 0.75-2.5625 0.49219-0.60156 1.1953-0.90625 2.1094-0.90625 0.91797 0 1.625 0.30469 2.125 0.90625 0.49219 0.59375 0.73438 1.4492 0.73438 2.5625v1.5h3.0469v2.25zm1.6406-2.25h2.4375v-1.2656c0-0.4375-0.10156-0.76953-0.3125-1-0.21875-0.23828-0.51953-0.35938-0.90625-0.35938-0.39453 0-0.69531 0.12109-0.90625 0.35938-0.20703 0.23047-0.3125 0.5625-0.3125 1z"/>
</symbol>
<symbol id="bi" overflow="visible">
<path d="m-6.375-6.1562h1.5938c-0.1875 0.46094-0.32812 0.89844-0.42188 1.3125-0.09375 0.41797-0.14062 0.8125-0.14062 1.1875 0 0.39844 0.054688 0.69531 0.15625 0.89062 0.09375 0.1875 0.24609 0.28125 0.45312 0.28125 0.17969 0 0.3125-0.070313 0.40625-0.21875 0.085937-0.14453 0.14844-0.40625 0.1875-0.78125l0.046875-0.375c0.13672-1.0703 0.36719-1.7969 0.6875-2.1719 0.3125-0.375 0.80469-0.5625 1.4688-0.5625 0.69922 0 1.2266 0.26172 1.5781 0.78125 0.35547 0.51172 0.53125 1.2812 0.53125 2.3125 0 0.4375-0.039063 0.89062-0.10938 1.3594-0.0625 0.46094-0.16016 0.93359-0.29688 1.4219h-1.6094c0.21094-0.41406 0.36719-0.84375 0.46875-1.2812 0.09375-0.44531 0.14062-0.89844 0.14062-1.3594 0-0.40625-0.050781-0.71094-0.15625-0.92188-0.11328-0.20703-0.28516-0.3125-0.51562-0.3125-0.1875 0-0.32812 0.074219-0.42188 0.21875-0.09375 0.13672-0.16016 0.41797-0.20312 0.84375l-0.046875 0.375c-0.125 0.9375-0.34375 1.5938-0.65625 1.9688-0.32031 0.375-0.80469 0.5625-1.4531 0.5625-0.69531 0-1.2109-0.23828-1.5469-0.71875-0.33203-0.47656-0.5-1.207-0.5-2.1875 0-0.39453 0.03125-0.80469 0.09375-1.2344 0.054687-0.42578 0.14062-0.89062 0.26562-1.3906z"/>
</symbol>
<symbol id="ak" overflow="visible">
<path d="m-5.2344-4.1406c0 0.46875 0.16797 0.82812 0.5 1.0781 0.33594 0.24219 0.82031 0.35938 1.4531 0.35938 0.625 0 1.1094-0.11719 1.4531-0.35938 0.33594-0.25 0.5-0.60938 0.5-1.0781 0-0.45703-0.16406-0.80469-0.5-1.0469-0.34375-0.25-0.82812-0.375-1.4531-0.375-0.63281 0-1.1172 0.125-1.4531 0.375-0.33203 0.24219-0.5 0.58984-0.5 1.0469zm-1.5 0c0-1.1328 0.30859-2.0195 0.92188-2.6562 0.60547-0.63281 1.4492-0.95312 2.5312-0.95312 1.0859 0 1.9336 0.32031 2.5469 0.95312 0.60547 0.63672 0.90625 1.5234 0.90625 2.6562 0 1.1367-0.30078 2.0273-0.90625 2.6719-0.61328 0.63672-1.4609 0.95312-2.5469 0.95312-1.082 0-1.9258-0.31641-2.5312-0.95312-0.61328-0.64453-0.92188-1.5352-0.92188-2.6719z"/>
</symbol>
<symbol id="bh" overflow="visible">
<path d="m-2.2812-1.2344v-2.1094h1.7969l2.1875 1.4531v1.25l-2.1875-0.59375z"/>
</symbol>
<symbol id="aj" overflow="visible">
<path d="m-1.3594-4.5156c0-0.44531-0.16016-0.78516-0.48438-1.0156-0.33203-0.23828-0.8125-0.35938-1.4375-0.35938s-1.0977 0.12109-1.4219 0.35938c-0.33203 0.23047-0.5 0.57031-0.5 1.0156 0 0.44922 0.16797 0.79688 0.5 1.0469 0.32422 0.24219 0.79688 0.35938 1.4219 0.35938s1.1055-0.11719 1.4375-0.35938c0.32422-0.25 0.48438-0.59766 0.48438-1.0469zm-4.25 1.4062c-0.38281-0.28906-0.66406-0.61328-0.84375-0.96875-0.1875-0.35156-0.28125-0.75781-0.28125-1.2188 0-0.8125 0.32422-1.4766 0.96875-2 0.63672-0.51953 1.4648-0.78125 2.4844-0.78125 1.0117 0 1.8398 0.26172 2.4844 0.78125 0.64844 0.52344 0.96875 1.1875 0.96875 2 0 0.46094-0.089844 0.86719-0.26562 1.2188-0.1875 0.35547-0.47266 0.67969-0.85938 0.96875h0.95312v2.0938h-9.1406v-2.0938z"/>
</symbol>
<symbol id="r" overflow="visible">
<path d="m-5.4844-7.1094c-0.40625-0.25781-0.71094-0.57031-0.92188-0.9375-0.21875-0.375-0.32812-0.78125-0.32812-1.2188 0-0.75 0.23438-1.3203 0.70312-1.7188 0.46094-0.39453 1.1367-0.59375 2.0312-0.59375h4v2.1094h-3.4375-0.14062c-0.0625-0.007812-0.14453-0.015625-0.25-0.015625-0.46875 0-0.80469 0.070313-1.0156 0.20312-0.20703 0.13672-0.3125 0.35938-0.3125 0.67188 0 0.39844 0.16797 0.70312 0.5 0.92188 0.32422 0.21875 0.79688 0.33594 1.4219 0.34375h3.2344v2.1094h-3.4375c-0.72656 0-1.1953 0.0625-1.4062 0.1875-0.20703 0.125-0.3125 0.35156-0.3125 0.67188 0 0.40625 0.16797 0.71875 0.5 0.9375 0.33594 0.21875 0.80859 0.32812 1.4219 0.32812h3.2344v2.1094h-6.5781v-2.1094h0.96875c-0.375-0.25781-0.65625-0.55469-0.84375-0.89062-0.1875-0.33203-0.28125-0.70312-0.28125-1.1094 0-0.45703 0.10938-0.85938 0.32812-1.2031 0.21875-0.35156 0.52734-0.61719 0.92188-0.79688z"/>
</symbol>
<symbol id="bg" overflow="visible">
<path d="m-0.65625-8.9844c0.28125 0.5625 0.49219 1.1484 0.625 1.75 0.13281 0.60547 0.20312 1.2305 0.20312 1.875 0 1.4688-0.40625 2.6328-1.2188 3.4844-0.82031 0.85547-1.9297 1.2812-3.3281 1.2812-1.4141 0-2.5234-0.42969-3.3281-1.2969-0.8125-0.875-1.2188-2.0664-1.2188-3.5781 0-0.58203 0.058594-1.1406 0.17188-1.6719 0.10547-0.53906 0.26172-1.0508 0.46875-1.5312h1.8125c-0.26953 0.49219-0.47266 0.98047-0.60938 1.4688-0.14453 0.48047-0.21875 0.96484-0.21875 1.4531 0 0.89844 0.25781 1.5898 0.76562 2.0781 0.5 0.49219 1.2188 0.73438 2.1562 0.73438 0.92969 0 1.6484-0.23438 2.1562-0.70312 0.5-0.46875 0.75-1.1328 0.75-2 0-0.23828-0.015625-0.45703-0.046875-0.65625-0.03125-0.20703-0.078125-0.39062-0.14062-0.54688h-1.7031v1.375h-1.5156v-3.5156z"/>
</symbol>
<symbol id="bf" overflow="visible">
<path d="m-2.9531-3.9531c0 0.4375 0.074219 0.76562 0.21875 0.98438 0.14844 0.21875 0.36719 0.32812 0.65625 0.32812 0.26172 0 0.46875-0.085937 0.625-0.26562 0.14844-0.17578 0.21875-0.42188 0.21875-0.73438 0-0.39453-0.14062-0.72656-0.42188-1-0.28125-0.26953-0.63281-0.40625-1.0625-0.40625h-0.23438zm-0.79688-3.2188h3.75v2.125h-0.96875c0.39844 0.28125 0.6875 0.60156 0.875 0.95312 0.17578 0.34375 0.26562 0.77344 0.26562 1.2812 0 0.67969-0.19531 1.2305-0.59375 1.6562-0.39453 0.42969-0.91016 0.64062-1.5469 0.64062-0.76953 0-1.3359-0.26562-1.7031-0.79688-0.36328-0.53125-0.54688-1.3633-0.54688-2.5v-1.2344h-0.15625c-0.33203 0-0.57812 0.13281-0.73438 0.39062-0.15625 0.26172-0.23438 0.66797-0.23438 1.2188 0 0.46094 0.046875 0.88281 0.14062 1.2656 0.09375 0.38672 0.23047 0.74609 0.40625 1.0781h-1.6094c-0.10156-0.44531-0.17969-0.89453-0.23438-1.3438-0.0625-0.45703-0.09375-0.91406-0.09375-1.375 0-1.1875 0.23438-2.0391 0.70312-2.5625 0.46875-0.53125 1.2305-0.79688 2.2812-0.79688zm-5.5625 4.9219v-1.375h1.4531v1.375zm0-2.3281v-1.375h1.4531v1.375z"/>
</symbol>
<symbol id="be" overflow="visible">
<path d="m-4-7.625h4v2.1094h-3.0625c-0.57031 0-0.96094 0.015625-1.1719 0.046875-0.21875 0.023438-0.37891 0.0625-0.48438 0.125-0.13281 0.085938-0.23828 0.19922-0.3125 0.34375-0.082031 0.13672-0.125 0.29297-0.125 0.46875 0 0.44922 0.17188 0.79688 0.51562 1.0469 0.33594 0.25 0.80469 0.375 1.4062 0.375h3.2344v2.0938h-9.1406v-2.0938h3.5312c-0.38281-0.32031-0.66406-0.66016-0.84375-1.0156-0.1875-0.35156-0.28125-0.75-0.28125-1.1875 0-0.75 0.23438-1.3203 0.70312-1.7188 0.46094-0.39453 1.1367-0.59375 2.0312-0.59375z"/>
</symbol>
<symbol id="bd" overflow="visible">
<path d="m-2.9531-3.9531c0 0.4375 0.074219 0.76562 0.21875 0.98438 0.14844 0.21875 0.36719 0.32812 0.65625 0.32812 0.26172 0 0.46875-0.085937 0.625-0.26562 0.14844-0.17578 0.21875-0.42188 0.21875-0.73438 0-0.39453-0.14062-0.72656-0.42188-1-0.28125-0.26953-0.63281-0.40625-1.0625-0.40625h-0.23438zm-0.79688-3.2188h3.75v2.125h-0.96875c0.39844 0.28125 0.6875 0.60156 0.875 0.95312 0.17578 0.34375 0.26562 0.77344 0.26562 1.2812 0 0.67969-0.19531 1.2305-0.59375 1.6562-0.39453 0.42969-0.91016 0.64062-1.5469 0.64062-0.76953 0-1.3359-0.26562-1.7031-0.79688-0.36328-0.53125-0.54688-1.3633-0.54688-2.5v-1.2344h-0.15625c-0.33203 0-0.57812 0.13281-0.73438 0.39062-0.15625 0.26172-0.23438 0.66797-0.23438 1.2188 0 0.46094 0.046875 0.88281 0.14062 1.2656 0.09375 0.38672 0.23047 0.74609 0.40625 1.0781h-1.6094c-0.10156-0.44531-0.17969-0.89453-0.23438-1.3438-0.0625-0.45703-0.09375-0.91406-0.09375-1.375 0-1.1875 0.23438-2.0391 0.70312-2.5625 0.46875-0.53125 1.2305-0.79688 2.2812-0.79688z"/>
</symbol>
<symbol id="ah" overflow="visible">
<path d="m-9.2344-9.3594 2.4062-2.4062 9.3281 4.3906-4.3906-9.3281 2.4062-2.4062 5.8438 12.75-2.8438 2.8438z"/>
</symbol>
<symbol id="ae" overflow="visible">
<path d="m-5.9062-8.0625 2.2188-2.2188 6.9844 6.9844-2.2188 2.2188zm-2.7188-2.7188 2.2188-2.2188 1.8281 1.8281-2.2188 2.2188z"/>
</symbol>
<symbol id="ac" overflow="visible">
<path d="m-0.125-11.781-3.75-3.75 2.2344-2.2344 9.7031 9.7031-2.2344 2.2344-1-1c0.09375 0.71875 0.046875 1.3594-0.14062 1.9219-0.17969 0.55469-0.50781 1.0703-0.98438 1.5469-0.86719 0.86719-1.918 1.2344-3.1562 1.1094-1.2266-0.125-2.3789-0.72656-3.4531-1.8125-1.0703-1.0703-1.6758-2.2227-1.8125-3.4531-0.13281-1.2383 0.23047-2.2891 1.0938-3.1562 0.48047-0.46875 1.0078-0.78906 1.5781-0.96875 0.5625-0.1875 1.2031-0.23438 1.9219-0.14062zm3.0469 5.9844c0.47656-0.47656 0.66406-1.0156 0.5625-1.6094-0.09375-0.60156-0.47656-1.2383-1.1406-1.9062-0.65625-0.65625-1.2891-1.0352-1.8906-1.1406-0.60156-0.10156-1.1445 0.085937-1.625 0.5625-0.47656 0.48047-0.66406 1.0234-0.5625 1.625 0.10547 0.60547 0.48438 1.2344 1.1406 1.8906 0.66406 0.66797 1.2969 1.0547 1.8906 1.1562 0.60156 0.09375 1.1445-0.097656 1.625-0.57812z"/>
</symbol>
<symbol id="c" overflow="visible">
<path d="m4.5312-11.562 0.64062 0.64062-5.2344 5.2344c0.58203 0.46094 1.1641 0.66406 1.75 0.60938 0.59375-0.0625 1.1797-0.38281 1.7656-0.96875 0.46875-0.46875 0.875-1.0156 1.2188-1.6406 0.35156-0.63281 0.65625-1.3516 0.90625-2.1562l1.7188 1.7188c-0.33594 0.71875-0.71484 1.3984-1.1406 2.0312-0.42969 0.625-0.90625 1.1992-1.4375 1.7188-1.2617 1.2617-2.5625 1.9219-3.9062 1.9844s-2.5938-0.48438-3.75-1.6406c-1.1328-1.1328-1.6875-2.3672-1.6562-3.7031 0.03125-1.3438 0.65234-2.6172 1.8594-3.8281 1.0938-1.0938 2.3047-1.6406 3.625-1.6406 1.3203-0.007813 2.5352 0.53906 3.6406 1.6406zm-3.0312 1.5625c-0.42969-0.42578-0.89844-0.64453-1.4062-0.65625-0.50781-0.007812-0.96094 0.18359-1.3594 0.57812-0.4375 0.4375-0.66406 0.91406-0.6875 1.4219-0.019531 0.51172 0.16406 1.0312 0.54688 1.5625z"/>
</symbol>
<symbol id="g" overflow="visible">
<path d="m-1.1562-9.9375c-0.5 0.5-0.69531 1.0586-0.59375 1.6719 0.09375 0.60547 0.47656 1.2422 1.1406 1.9062 0.67578 0.67969 1.3164 1.0703 1.9219 1.1719 0.60156 0.09375 1.1562-0.10938 1.6562-0.60938 0.48828-0.48828 0.6875-1.0391 0.59375-1.6562-0.085938-0.61328-0.46484-1.2578-1.1406-1.9375-0.66797-0.66406-1.3086-1.0469-1.9219-1.1406s-1.1641 0.10547-1.6562 0.59375zm-1.6094-1.5938c1.2109-1.207 2.4766-1.8203 3.7969-1.8438 1.3203-0.03125 2.5547 0.52734 3.7031 1.6719 1.1445 1.1484 1.7031 2.3828 1.6719 3.7031-0.023438 1.3125-0.63672 2.5742-1.8438 3.7812-1.2109 1.2109-2.4766 1.8281-3.7969 1.8594s-2.5547-0.52344-3.7031-1.6719c-1.1445-1.1445-1.7031-2.3789-1.6719-3.7031 0.023437-1.3203 0.63672-2.5859 1.8438-3.7969z"/>
</symbol>
<symbol id="f" overflow="visible">
<path d="m1.1719-11.328c-0.28125 0.09375-0.54297 0.21875-0.78125 0.375-0.24219 0.15625-0.45312 0.32812-0.64062 0.51562-0.57031 0.57422-0.83203 1.2031-0.78125 1.8906 0.054688 0.67969 0.42188 1.3555 1.1094 2.0312l3.2188 3.2188-2.2188 2.2188-6.9844-6.9844 2.2188-2.2188 1.1562 1.1562c-0.16406-0.75-0.17188-1.4102-0.015625-1.9844 0.15625-0.58203 0.49609-1.1328 1.0156-1.6562 0.074219-0.070313 0.16406-0.14844 0.26562-0.23438 0.09375-0.082031 0.23438-0.19531 0.42188-0.34375z"/>
</symbol>
<symbol id="l" overflow="visible">
<path d="m-0.0625-13.469 1.8281 1.8281c-0.51172 0.09375-0.96875 0.24609-1.375 0.45312-0.39453 0.21094-0.75781 0.47656-1.0938 0.79688-0.625 0.625-0.92578 1.293-0.90625 2 0.011719 0.69922 0.34375 1.375 1 2.0312 0.64453 0.65625 1.3203 0.99609 2.0312 1.0156 0.70703 0.023438 1.375-0.28125 2-0.90625 0.35156-0.35156 0.63281-0.73828 0.84375-1.1562 0.21875-0.41406 0.35156-0.85938 0.40625-1.3281l1.8281 1.8281c-0.21875 0.46875-0.48047 0.91797-0.78125 1.3438-0.29297 0.41797-0.62109 0.80859-0.98438 1.1719-1.25 1.25-2.5547 1.9141-3.9062 1.9844-1.3516 0.074219-2.6094-0.46875-3.7656-1.625-1.1445-1.1445-1.6875-2.3945-1.625-3.75 0.0625-1.3633 0.71875-2.6719 1.9688-3.9219 0.36719-0.36328 0.76172-0.69141 1.1875-0.98438 0.41797-0.28906 0.86719-0.55078 1.3438-0.78125z"/>
</symbol>
<symbol id="ab" overflow="visible"></symbol>
<symbol id="aa" overflow="visible">
<path d="m6.4844-3.1406-1.8438 1.8594c-1.6562-0.39453-3.1016-0.89844-4.3281-1.5156-1.2266-0.61328-2.3008-1.3789-3.2188-2.2969-0.90625-0.90625-1.6719-1.9766-2.2969-3.2188-0.625-1.2383-1.125-2.6758-1.5-4.3125l1.8438-1.8594c0.44922 1.5117 1.0117 2.8711 1.6875 4.0781 0.67969 1.2109 1.4688 2.2656 2.375 3.1719 0.92578 0.92969 1.9922 1.7305 3.2031 2.4062 1.207 0.67969 2.5664 1.2422 4.0781 1.6875z"/>
</symbol>
<symbol id="bc" overflow="visible">
<path d="m8.0312-9.0625c-0.21094 0.66797-0.49609 1.2969-0.85938 1.8906-0.36719 0.59375-0.80859 1.1523-1.3281 1.6719-1.5547 1.5547-3.2148 2.3516-4.9844 2.3906-1.7578 0.03125-3.3789-0.69141-4.8594-2.1719-1.4883-1.4883-2.2109-3.1133-2.1719-4.875 0.03125-1.7695 0.82422-3.4297 2.375-4.9844 0.52344-0.51953 1.0781-0.96094 1.6719-1.3281 0.59375-0.36328 1.2266-0.64844 1.8906-0.85938l1.9375 1.9375c-0.76172 0.13672-1.4297 0.35156-2 0.64062-0.57031 0.29297-1.0938 0.67969-1.5625 1.1562-0.86328 0.85547-1.2656 1.8047-1.2031 2.8438 0.054688 1.0312 0.5625 2.0312 1.5312 3 0.96094 0.96094 1.9531 1.4688 2.9844 1.5312 1.0391 0.054688 1.9922-0.34766 2.8594-1.2031 0.46875-0.47656 0.84766-1.0039 1.1406-1.5781 0.28906-0.57031 0.50781-1.2344 0.65625-1.9844z"/>
</symbol>
<symbol id="bb" overflow="visible">
<path d="m-0.60938-9.7656c0.51172-0.5 0.78125-0.94531 0.8125-1.3438 0.03125-0.40625-0.17188-0.82812-0.60938-1.2656-0.41406-0.41406-0.82031-0.60156-1.2188-0.5625-0.39453 0.03125-0.84766 0.29688-1.3594 0.79688l-1.0156 1.0156 2.375 2.375zm0.64062 2.6719 3.5312 3.5312-2.3906 2.3906-9.2969-9.2969 3.6719-3.6719c1.2188-1.2188 2.3242-1.9062 3.3125-2.0625 0.98047-0.16406 1.9102 0.19531 2.7969 1.0781 0.61328 0.61719 0.96875 1.2734 1.0625 1.9688 0.09375 0.69922-0.070312 1.4336-0.48438 2.2031 0.41406-0.25 0.88281-0.36719 1.4062-0.35938 0.51953 0 1.1797 0.13672 1.9844 0.40625l3.9375 1.3438-2.5469 2.5469-3.4531-1.1719c-0.6875-0.22656-1.2344-0.31641-1.6406-0.26562-0.40625 0.054687-0.80859 0.27734-1.2031 0.67188z"/>
</symbol>
<symbol id="ag" overflow="visible">
<path d="m2.6875 0.65625c-0.4375-1.5195-0.99609-2.8828-1.6719-4.0938-0.67969-1.207-1.4766-2.2734-2.4062-3.2031-0.90625-0.90625-1.9609-1.6953-3.1719-2.375-1.207-0.67578-2.5703-1.2344-4.0938-1.6719l1.8594-1.8594c1.6484 0.375 3.0898 0.88281 4.3281 1.5156 1.2305 0.625 2.2969 1.3906 3.2031 2.2969 0.91406 0.91797 1.6797 1.9922 2.2969 3.2188 0.625 1.2188 1.1289 2.6562 1.5156 4.3125z"/>
</symbol>
<symbol id="ba" overflow="visible">
<path d="m-0.8125-10.594c0.38672-0.38281 0.59375-0.75391 0.625-1.1094 0.03125-0.36328-0.11328-0.70703-0.4375-1.0312-0.32031-0.32031-0.66406-0.46875-1.0312-0.4375-0.36328 0.023437-0.73828 0.22656-1.125 0.60938l-1.3281 1.3281 1.9688 1.9688zm4.1562 3.9688c0.47656-0.47656 0.73828-0.9375 0.78125-1.375 0.039062-0.44531-0.14062-0.875-0.54688-1.2812s-0.82812-0.58594-1.2656-0.54688c-0.4375 0.03125-0.90234 0.29297-1.3906 0.78125l-1.4219 1.4219 2.4219 2.4219zm-1.1094-5.5781c0.66406-0.34375 1.3359-0.45703 2.0156-0.34375 0.6875 0.11719 1.3281 0.46875 1.9219 1.0625 0.88281 0.88672 1.2422 1.8555 1.0781 2.9062-0.16797 1.0547-0.86719 2.1992-2.0938 3.4375l-3.9844 3.9688-9.2969-9.2969 3.6094-3.5938c1.2812-1.2891 2.4141-2.0312 3.3906-2.2188 0.96875-0.19531 1.8789 0.13281 2.7344 0.98438 0.44531 0.44922 0.72266 0.94531 0.82812 1.4844 0.11328 0.53125 0.046875 1.0703-0.20312 1.6094z"/>
</symbol>
<symbol id="i" overflow="visible">
<path d="m1.0625-7.3438c-0.46875 0.46875-0.74219 0.90234-0.8125 1.2969-0.074219 0.39844 0.039062 0.74609 0.34375 1.0469 0.28125 0.28125 0.59766 0.40625 0.95312 0.375 0.35156-0.03125 0.69531-0.20703 1.0312-0.53125 0.41406-0.42578 0.61328-0.92969 0.59375-1.5156-0.011719-0.59375-0.24609-1.1172-0.70312-1.5781l-0.25-0.25zm2.5625-4.25 3.9844 3.9844-2.25 2.25-1.0312-1.0312c0.125 0.73047 0.09375 1.375-0.09375 1.9375-0.17969 0.55469-0.53906 1.1016-1.0781 1.6406-0.71875 0.71875-1.5156 1.1016-2.3906 1.1406-0.86328 0.03125-1.6328-0.28906-2.3125-0.96875-0.82031-0.82031-1.1406-1.7031-0.95312-2.6406 0.17969-0.94531 0.87109-2.0234 2.0781-3.2344l1.3125-1.3125-0.17188-0.17188c-0.35547-0.35156-0.75391-0.47266-1.2031-0.35938-0.44531 0.11719-0.96094 0.46484-1.5469 1.0469-0.47656 0.48047-0.875 0.97656-1.1875 1.4844-0.3125 0.51172-0.55078 1.0391-0.71875 1.5781l-1.7031-1.7031c0.36719-0.59375 0.76172-1.1602 1.1875-1.7031 0.41797-0.53906 0.86719-1.0508 1.3438-1.5312 1.2617-1.2578 2.418-1.9219 3.4688-1.9844 1.0625-0.0625 2.1484 0.46484 3.2656 1.5781z"/>
</symbol>
<symbol id="h" overflow="visible">
<path d="m3.8438-12.344 4.25 4.25-2.25 2.25-3.25-3.25c-0.60547-0.60156-1.0391-1.0039-1.2969-1.2031-0.25-0.20703-0.46094-0.33203-0.625-0.375-0.24219-0.050781-0.47656-0.039063-0.70312 0.03125-0.23828 0.0625-0.45312 0.1875-0.64062 0.375-0.46875 0.46875-0.65625 1.0156-0.5625 1.6406s0.46094 1.2578 1.0938 1.8906l3.4375 3.4375-2.2188 2.2188-6.9844-6.9844 2.2188-2.2188 1.0312 1.0312c-0.0625-0.75-0.003906-1.4062 0.17188-1.9688 0.17969-0.57031 0.49609-1.0859 0.95312-1.5469 0.8125-0.8125 1.6719-1.1797 2.5781-1.1094 0.91406 0.074219 1.8477 0.58594 2.7969 1.5312z"/>
</symbol>
<symbol id="az" overflow="visible">
<path d="m-8.625-10.781 2.2188-2.2188 5.2812 5.2812 0.015625-5.125 2.5938-2.6094-0.21875 6.625 7.4688 0.09375-2.7188 2.7188-5.625-0.1875 2.9062 2.9062-2.2188 2.2188z"/>
</symbol>
<symbol id="af" overflow="visible">
<path d="m1.7031-13.359c-0.13672-0.71875-0.125-1.3789 0.03125-1.9844 0.15625-0.61328 0.46875-1.1562 0.9375-1.625 0.80078-0.80078 1.6562-1.1641 2.5625-1.0938 0.91406 0.074219 1.8477 0.58594 2.7969 1.5312l4.25 4.25-2.2344 2.2344-3.6406-3.6406c-0.042969-0.050781-0.09375-0.10156-0.15625-0.15625-0.054688-0.0625-0.13672-0.14453-0.25-0.25-0.49219-0.5-0.92188-0.78906-1.2969-0.875-0.36719-0.082031-0.71094 0.039062-1.0312 0.35938-0.42969 0.42969-0.58594 0.93359-0.46875 1.5156 0.125 0.57422 0.51562 1.1992 1.1719 1.875l3.4219 3.4219-2.25 2.25-3.6406-3.6406c-0.77344-0.76953-1.3359-1.1953-1.6875-1.2812-0.35156-0.09375-0.70312 0.027344-1.0469 0.35938-0.42578 0.42969-0.57812 0.9375-0.45312 1.5312 0.11719 0.58594 0.49609 1.1992 1.1406 1.8438l3.4375 3.4375-2.2344 2.2344-6.9844-6.9844 2.2344-2.2344 1.0312 1.0312c-0.11328-0.67578-0.09375-1.2891 0.0625-1.8438 0.14844-0.55078 0.43359-1.0391 0.85938-1.4688 0.48047-0.47656 1.0234-0.78516 1.625-0.92188 0.60156-0.14453 1.207-0.10156 1.8125 0.125z"/>
</symbol>
<symbol id="ay" overflow="visible">
<path d="m-5.4531-12.469 1.9844 1.9688 2.2969-2.2969 1.6094 1.6094-2.2969 2.2969 2.9531 2.9531c0.32031 0.32422 0.60156 0.48047 0.84375 0.46875 0.23828-0.007812 0.55078-0.20703 0.9375-0.59375l1.1406-1.1406 1.5938 1.5938-1.9062 1.9062c-0.88672 0.88672-1.6992 1.3281-2.4375 1.3281-0.73047-0.007812-1.5312-0.45312-2.4062-1.3281l-2.9531-2.9531-1.1094 1.1094-1.6094-1.6094 1.1094-1.1094-1.9844-1.9688z"/>
</symbol>
<symbol id="ax" overflow="visible">
<path d="m5.125-8.5-3.75 3.75 1.0938 2.2812-2.4062 2.4062-5.8438-12.75 2.8438-2.8438 12.75 5.8438-2.4062 2.4062zm-4.875 1.4062 2.5312-2.5312-4.9688-2.4375z"/>
</symbol>
<symbol id="ad" overflow="visible">
<path d="m-9.2344-9.3594 8.5781-8.5781 1.8125 1.8125-3.0938 3.0938 7.4844 7.4844-2.3906 2.4062-7.4844-7.4844-3.0938 3.0781z"/>
</symbol>
<symbol id="aw" overflow="visible">
<path d="m-8.125-10.469 3.0469-3.0469 7.0938 2.8594-2.8438-7.1094 3.0625-3.0469 9.2969 9.2969-2.2812 2.2656-6.8125-6.8125 2.875 7.1562-1.5156 1.5156-7.1562-2.875 6.8125 6.8125-2.2812 2.2812z"/>
</symbol>
<symbol id="av" overflow="visible">
<path d="m-8.9219-9.6719 2.3125-2.3125 8.3438 5.1562-5.1562-8.3438 2.3281-2.3281 8.3438 5.1719-5.1562-8.3594 2.2812-2.2812 7.1094 11.484-2.7656 2.7656-8.7656-5.375 5.4062 8.7344-2.7656 2.7656z"/>
</symbol>
<symbol id="n" overflow="visible">
<path d="m-0.25-13.281 1.6875 1.6875c-0.66797 0.27344-1.2734 0.58594-1.8125 0.9375-0.55078 0.34375-1.0234 0.71484-1.4219 1.1094-0.41406 0.41797-0.67188 0.78906-0.76562 1.1094-0.10156 0.3125-0.046875 0.57812 0.17188 0.79688 0.17969 0.17969 0.39062 0.23438 0.64062 0.17188s0.60547-0.26953 1.0625-0.625l0.4375-0.34375c1.2891-1 2.3008-1.5312 3.0312-1.5938 0.72656-0.0625 1.4453 0.26172 2.1562 0.96875 0.75 0.75 1.0312 1.5898 0.84375 2.5156-0.17969 0.91797-0.80859 1.918-1.8906 3-0.46094 0.46094-0.96875 0.90234-1.5312 1.3281-0.5625 0.42969-1.1797 0.82812-1.8438 1.2031l-1.7031-1.7031c0.66797-0.22656 1.2852-0.51953 1.8594-0.875 0.58203-0.36328 1.1133-0.78516 1.5938-1.2656 0.42578-0.42578 0.6875-0.8125 0.78125-1.1562 0.10156-0.35156 0.039063-0.64453-0.1875-0.875-0.21094-0.19531-0.4375-0.26953-0.6875-0.21875-0.24219 0.054687-0.62109 0.27734-1.1406 0.67188l-0.42188 0.35938c-1.1133 0.86719-2.0391 1.3281-2.7812 1.3906-0.73828 0.0625-1.4531-0.24219-2.1406-0.92188-0.73828-0.75-1.0352-1.5508-0.89062-2.4062 0.14844-0.86328 0.74609-1.8203 1.7969-2.875 0.40625-0.40625 0.87109-0.80078 1.3906-1.1875 0.51172-0.39453 1.1016-0.79688 1.7656-1.2031z"/>
</symbol>
<symbol id="m" overflow="visible">
<path d="m3.8438-12.344 4.25 4.25-2.25 2.25-3.2344-3.2344c-0.61719-0.61328-1.0547-1.0195-1.3125-1.2188-0.25-0.20703-0.46094-0.33203-0.625-0.375-0.24219-0.050781-0.47656-0.039063-0.70312 0.03125-0.23828 0.0625-0.45312 0.1875-0.64062 0.375-0.46875 0.46875-0.65625 1.0156-0.5625 1.6406s0.46094 1.2578 1.0938 1.8906l3.4375 3.4375-2.2188 2.2188-9.7031-9.7031 2.2188-2.2188 3.75 3.75c-0.0625-0.75-0.003906-1.4062 0.17188-1.9688 0.17969-0.57031 0.49609-1.0859 0.95312-1.5469 0.8125-0.8125 1.6719-1.1797 2.5781-1.1094 0.91406 0.074219 1.8477 0.58594 2.7969 1.5312z"/>
</symbol>
<symbol id="au" overflow="visible">
<path d="m-8.625-10.781 2.2188-2.2188 9.7031 9.7031-2.2188 2.2188z"/>
</symbol>
<symbol id="at" overflow="visible">
<path d="m-4.0312-15.375 1.4688 1.4688-1.2344 1.2344c-0.32031 0.32422-0.48828 0.60547-0.5 0.84375-0.007813 0.24219 0.125 0.5 0.40625 0.78125l0.48438 0.48438 1.9062-1.9062 1.6094 1.6094-1.9062 1.9062 5.375 5.375-2.2344 2.2344-5.375-5.375-1.0938 1.0938-1.6094-1.6094 1.0938-1.0938-0.48438-0.48438c-0.75781-0.75781-1.1094-1.5352-1.0469-2.3281 0.0625-0.78906 0.53906-1.6289 1.4219-2.5156z"/>
</symbol>
<symbol id="as" overflow="visible">
<path d="m-8.125-10.469 6.4688-6.4688 1.8125 1.8125-4.0781 4.0781 1.7344 1.7344 3.8438-3.8438 1.8125 1.8125-3.8438 3.8438 3.9375 3.9375-2.3906 2.3906z"/>
</symbol>
<symbol id="ar" overflow="visible">
<path d="m9.6406-2.3906h-5.3125l-0.82812 2.3906h-3.4062l4.875-13.156h4.0312l4.875 13.156h-3.4062zm-4.4531-2.4531h3.5938l-1.7969-5.2344z"/>
</symbol>
<symbol id="aq" overflow="visible">
<path d="m1.5156-13.719h3.1562v13.719h-3.1562z"/>
</symbol>
<symbol id="ap" overflow="visible">
<path d="m4.9688-12.672v2.7969h3.25v2.2656h-3.25v4.1875c0 0.46094 0.085938 0.77344 0.26562 0.9375 0.17578 0.15625 0.53516 0.23438 1.0781 0.23438h1.625v2.25h-2.7031c-1.25 0-2.1367-0.25781-2.6562-0.78125-0.51172-0.51953-0.76562-1.3984-0.76562-2.6406v-4.1875h-1.5781v-2.2656h1.5781v-2.7969z"/>
</symbol>
<symbol id="z" overflow="visible">
<path d="m11.375-4.9688v0.90625h-7.3906c0.082031 0.74219 0.35156 1.2969 0.8125 1.6719 0.45703 0.36719 1.0977 0.54688 1.9219 0.54688 0.65625 0 1.332-0.097656 2.0312-0.29688 0.69531-0.19531 1.4141-0.49219 2.1562-0.89062v2.4375c-0.75 0.28125-1.5 0.49219-2.25 0.625-0.74219 0.14453-1.4844 0.21875-2.2344 0.21875-1.7812 0-3.168-0.45312-4.1562-1.3594-0.99219-0.90625-1.4844-2.1758-1.4844-3.8125 0-1.6133 0.48438-2.8789 1.4531-3.7969 0.96875-0.92578 2.3047-1.3906 4.0156-1.3906 1.5508 0 2.7891 0.46875 3.7188 1.4062 0.9375 0.92969 1.4062 2.1719 1.4062 3.7344zm-3.25-1.0469c0-0.59375-0.17969-1.0703-0.53125-1.4375-0.34375-0.375-0.79688-0.5625-1.3594-0.5625-0.61719 0-1.1172 0.17188-1.5 0.51562-0.375 0.34375-0.60938 0.83984-0.70312 1.4844z"/>
</symbol>
<symbol id="y" overflow="visible">
<path d="m8.8438-7.1875c-0.27344-0.125-0.54688-0.21875-0.82812-0.28125-0.27344-0.0625-0.54297-0.09375-0.8125-0.09375-0.8125 0-1.4375 0.26172-1.875 0.78125-0.4375 0.52344-0.65625 1.2656-0.65625 2.2344v4.5469h-3.1562v-9.875h3.1562v1.625c0.40625-0.64453 0.86719-1.1133 1.3906-1.4062 0.53125-0.30078 1.1602-0.45312 1.8906-0.45312 0.10156 0 0.21875 0.007813 0.34375 0.015625 0.125 0.011719 0.30469 0.03125 0.54688 0.0625z"/>
</symbol>
<symbol id="ao" overflow="visible">
<path d="m9.2188-9.5625v2.3906c-0.66797-0.28125-1.3203-0.48828-1.9531-0.625-0.625-0.14453-1.2188-0.21875-1.7812-0.21875-0.59375 0-1.0391 0.078125-1.3281 0.23438-0.29297 0.14844-0.4375 0.375-0.4375 0.6875 0 0.25 0.10938 0.44531 0.32812 0.57812 0.21875 0.13672 0.61328 0.23438 1.1875 0.29688l0.5625 0.078125c1.6133 0.21094 2.6953 0.54688 3.25 1.0156 0.5625 0.46875 0.84375 1.2109 0.84375 2.2188 0 1.0547-0.39062 1.8438-1.1719 2.375-0.77344 0.52344-1.9297 0.78125-3.4688 0.78125-0.64844 0-1.3203-0.054688-2.0156-0.15625-0.69922-0.09375-1.418-0.24219-2.1562-0.45312v-2.4062c0.63281 0.3125 1.2812 0.54688 1.9375 0.70312 0.66406 0.14844 1.3359 0.21875 2.0156 0.21875 0.61328 0 1.0781-0.082031 1.3906-0.25 0.3125-0.17578 0.46875-0.42969 0.46875-0.76562 0-0.28125-0.10938-0.48828-0.32812-0.625-0.21094-0.13281-0.63672-0.24219-1.2812-0.32812l-0.54688-0.0625c-1.4062-0.17578-2.3906-0.5-2.9531-0.96875-0.5625-0.47656-0.84375-1.2031-0.84375-2.1719 0-1.0508 0.35156-1.8281 1.0625-2.3281 0.71875-0.50781 1.8203-0.76562 3.3125-0.76562 0.57031 0 1.1758 0.046875 1.8125 0.14062 0.64453 0.085938 1.3438 0.21875 2.0938 0.40625z"/>
</symbol>
<symbol id="an" overflow="visible">
<path d="m8.2344-1.6719c-0.4375 0.57422-0.91797 0.99609-1.4375 1.2656-0.52344 0.27344-1.125 0.40625-1.8125 0.40625-1.2109 0-2.2109-0.47266-3-1.4219-0.78125-0.94531-1.1719-2.1562-1.1719-3.625 0-1.4766 0.39062-2.6875 1.1719-3.625 0.78906-0.94531 1.7891-1.4219 3-1.4219 0.6875 0 1.2891 0.13672 1.8125 0.40625 0.51953 0.27344 1 0.69922 1.4375 1.2812v-1.4688h3.1719v8.875c0 1.5938-0.50781 2.8047-1.5156 3.6406-1 0.83203-2.4492 1.25-4.3438 1.25-0.61719 0-1.2148-0.046875-1.7969-0.14062-0.57422-0.09375-1.1523-0.23438-1.7344-0.42188v-2.4688c0.55078 0.32031 1.0938 0.5625 1.625 0.71875s1.0625 0.23438 1.5938 0.23438c1.0312 0 1.7852-0.23047 2.2656-0.6875 0.48828-0.44922 0.73438-1.1562 0.73438-2.125zm-2.0781-6.1406c-0.65625 0-1.168 0.24219-1.5312 0.71875-0.36719 0.48047-0.54688 1.1641-0.54688 2.0469 0 0.90625 0.17578 1.5938 0.53125 2.0625 0.35156 0.46094 0.86719 0.6875 1.5469 0.6875 0.65625 0 1.1641-0.23828 1.5312-0.71875 0.36328-0.47656 0.54688-1.1562 0.54688-2.0312 0-0.88281-0.18359-1.5664-0.54688-2.0469-0.36719-0.47656-0.875-0.71875-1.5312-0.71875z"/>
</symbol>
<symbol id="am" overflow="visible">
<path d="m1.4062-3.8438v-6.0312h3.1719v1c0 0.53125-0.007813 1.2031-0.015625 2.0156v1.6094c0 0.79297 0.019531 1.3672 0.0625 1.7188 0.039062 0.34375 0.11328 0.59375 0.21875 0.75 0.125 0.21094 0.28906 0.37109 0.5 0.48438 0.20703 0.11719 0.44531 0.17188 0.71875 0.17188 0.65625 0 1.1719-0.25 1.5469-0.75 0.375-0.50781 0.5625-1.2188 0.5625-2.125v-4.875h3.1562v9.875h-3.1562v-1.4219c-0.46875 0.57422-0.96875 0.99609-1.5 1.2656s-1.1211 0.40625-1.7656 0.40625c-1.1367 0-2.0078-0.34766-2.6094-1.0469-0.59375-0.69531-0.89062-1.7109-0.89062-3.0469z"/>
</symbol>
<symbol id="x" overflow="visible">
<path d="m4.6719-1.4219v5.1719h-3.1562v-13.625h3.1562v1.4531c0.4375-0.57031 0.91406-0.99219 1.4375-1.2656 0.53125-0.28125 1.1406-0.42188 1.8281-0.42188 1.2188 0 2.2188 0.48438 3 1.4531s1.1719 2.2148 1.1719 3.7344c0 1.5234-0.39062 2.7656-1.1719 3.7344-0.78125 0.96094-1.7812 1.4375-3 1.4375-0.6875 0-1.2969-0.13672-1.8281-0.40625-0.52344-0.26953-1-0.69141-1.4375-1.2656zm2.0938-6.3906c-0.67969 0-1.1992 0.25-1.5625 0.75-0.35547 0.49219-0.53125 1.2031-0.53125 2.1406 0 0.92969 0.17578 1.6406 0.53125 2.1406 0.36328 0.5 0.88281 0.75 1.5625 0.75 0.67578 0 1.1914-0.24219 1.5469-0.73438 0.35156-0.5 0.53125-1.2188 0.53125-2.1562s-0.17969-1.6484-0.53125-2.1406c-0.35547-0.5-0.87109-0.75-1.5469-0.75z"/>
</symbol>
</defs>
<path d="m563.21 120.5h221.67v135.58h-221.67z" fill="#fff"/>
<path d="m121.53 19.082h430.49v237.44h-430.49z" fill="#fff"/>
<path transform="matrix(2.0052 0 0 2.0047 -120.18 -10.256)" d="m335.24 133.08h-218.52" fill="none" stroke="#000" stroke-width=".5"/>
<path transform="matrix(2.0052 0 0 2.0047 -120.18 -10.256)" d="m120.55 14.635v122.21" fill="none" stroke="#000" stroke-width=".5"/>
<path transform="matrix(2.0052 0 0 2.0047 -120.18 -10.256)" d="m120.55 14.635h214.69v118.44h-214.69z" fill="none" stroke="#000" stroke-width="1.5"/>
<path transform="matrix(2.0052 0 0 2.0047 -120.18 -10.256)" d="m340.82 65.225h110.55v67.63h-110.55z" fill="none" stroke="#000"/>
<path transform="matrix(2.0052 0 0 2.0047 -120.18 -10.256)" d="m335.24 14.635v122.21" fill="none" stroke="#000" stroke-width=".5"/>
<path transform="matrix(2.0052 0 0 2.0047 -120.18 -10.256)" d="m292.3 133.08v3.7685" fill="none" stroke="#000" stroke-width=".5"/>
<path transform="matrix(2.0052 0 0 2.0047 -120.18 -10.256)" d="m249.36 133.08v3.7685" fill="none" stroke="#000" stroke-width=".5"/>
<path transform="matrix(2.0052 0 0 2.0047 -120.18 -10.256)" d="m206.42 133.08v3.7685" fill="none" stroke="#000" stroke-width=".5"/>
<path transform="matrix(2.0052 0 0 2.0047 -120.18 -10.256)" d="m163.48 133.08v3.7685" fill="none" stroke="#000" stroke-width=".5"/>
<path transform="matrix(2.0052 0 0 2.0047 -120.18 -10.256)" d="m335.24 118.24h-218.52" fill="none" stroke="#000" stroke-width=".5"/>
<path transform="matrix(2.0052 0 0 2.0047 -120.18 -10.256)" d="m335.24 103.4h-218.52" fill="none" stroke="#000" stroke-width=".5"/>
<path transform="matrix(2.0052 0 0 2.0047 -120.18 -10.256)" d="m335.24 88.567h-218.52" fill="none" stroke="#000" stroke-width=".5"/>
<path transform="matrix(2.0052 0 0 2.0047 -120.18 -10.256)" d="m335.24 73.731h-218.52" fill="none" stroke="#000" stroke-width=".5"/>
<path transform="matrix(2.0052 0 0 2.0047 -120.18 -10.256)" d="m335.24 58.894h-218.52" fill="none" stroke="#000" stroke-width=".5"/>
<path transform="matrix(2.0052 0 0 2.0047 -120.18 -10.256)" d="m335.24 44.058h-218.52" fill="none" stroke="#000" stroke-width=".5"/>
<path transform="matrix(2.0052 0 0 2.0047 -120.18 -10.256)" d="m335.24 29.222h-218.52" fill="none" stroke="#000" stroke-width=".5"/>
<path transform="matrix(2.0052 0 0 2.0047 -120.18 -10.256)" d="m335.24 14.385h-218.52" fill="none" stroke="#000" stroke-width=".5"/>
<g>
<use x="601.878906" y="162.051516" xlink:href="#w"/>
<use x="609.899519" y="162.051516" xlink:href="#a"/>
<use x="617.920131" y="162.051516" xlink:href="#v"/>
<use x="621.930438" y="162.051516" xlink:href="#w"/>
<use x="629.95105" y="162.051516" xlink:href="#u"/>
</g>
<g>
<use x="601.878906" y="191.590579" xlink:href="#t"/>
<use x="609.899519" y="191.590579" xlink:href="#a"/>
<use x="617.920131" y="191.590579" xlink:href="#v"/>
<use x="621.930438" y="191.590579" xlink:href="#t"/>
<use x="629.95105" y="191.590579" xlink:href="#u"/>
</g>
<g>
<use x="601.878906" y="221.133547" xlink:href="#s"/>
<use x="609.899519" y="221.133547" xlink:href="#a"/>
<use x="617.920131" y="221.133547" xlink:href="#v"/>
<use x="621.930438" y="221.133547" xlink:href="#s"/>
<use x="629.95105" y="221.133547" xlink:href="#u"/>
</g>
<g>
<use x="82.636719" y="260.899172" xlink:href="#a"/>
<use x="90.657331" y="260.899172" xlink:href="#d"/>
</g>
<g>
<use x="74.980469" y="171.67261" xlink:href="#bl"/>
<use x="83.001081" y="171.67261" xlink:href="#a"/>
<use x="91.021694" y="171.67261" xlink:href="#d"/>
</g>
<g>
<use x="74.980469" y="82.446047" xlink:href="#w"/>
<use x="83.001081" y="82.446047" xlink:href="#a"/>
<use x="91.021694" y="82.446047" xlink:href="#d"/>
</g>
<g>
<use x="74.980469" y="201.414797" xlink:href="#bk"/>
<use x="83.001081" y="201.414797" xlink:href="#a"/>
<use x="91.021694" y="201.414797" xlink:href="#d"/>
</g>
<g>
<use x="74.980469" y="231.156985" xlink:href="#bo"/>
<use x="83.001081" y="231.156985" xlink:href="#a"/>
<use x="91.021694" y="231.156985" xlink:href="#d"/>
</g>
<g>
<use x="33.71034" y="218.070312" xlink:href="#bj"/>
<use x="33.71034" y="208.046858" xlink:href="#k"/>
<use x="33.71034" y="200.028094" xlink:href="#q"/>
<use x="33.71034" y="194.014021" xlink:href="#b"/>
<use x="33.71034" y="185.995257" xlink:href="#p"/>
<use x="33.71034" y="181.985875" xlink:href="#ai"/>
<use x="33.71034" y="177.976493" xlink:href="#e"/>
<use x="33.71034" y="173.967111" xlink:href="#o"/>
<use x="33.71034" y="165.948347" xlink:href="#b"/>
<use x="33.71034" y="157.929583" xlink:href="#j"/>
<use x="33.71034" y="151.915511" xlink:href="#e"/>
<use x="33.71034" y="147.906129" xlink:href="#al"/>
<use x="33.71034" y="139.887365" xlink:href="#b"/>
<use x="33.71034" y="131.868601" xlink:href="#j"/>
<use x="33.71034" y="125.854528" xlink:href="#bi"/>
<use x="33.71034" y="117.835764" xlink:href="#ak"/>
<use x="33.71034" y="109.817" xlink:href="#k"/>
<use x="33.71034" y="101.798236" xlink:href="#b"/>
<use x="33.71034" y="93.779472" xlink:href="#k"/>
<use x="33.71034" y="85.760709" xlink:href="#bh"/>
<use x="33.71034" y="81.751327" xlink:href="#e"/>
<use x="33.71034" y="77.741945" xlink:href="#o"/>
<use x="33.71034" y="69.723181" xlink:href="#p"/>
<use x="33.71034" y="65.713799" xlink:href="#b"/>
</g>
<g>
<use x="48.749403" y="241.125" xlink:href="#al"/>
<use x="48.749403" y="233.106236" xlink:href="#j"/>
<use x="48.749403" y="227.092163" xlink:href="#ak"/>
<use x="48.749403" y="219.073399" xlink:href="#aj"/>
<use x="48.749403" y="211.054635" xlink:href="#ai"/>
<use x="48.749403" y="207.045254" xlink:href="#b"/>
<use x="48.749403" y="199.02649" xlink:href="#r"/>
<use x="48.749403" y="186.998344" xlink:href="#b"/>
<use x="48.749403" y="178.97958" xlink:href="#e"/>
<use x="48.749403" y="174.970198" xlink:href="#r"/>
<use x="48.749403" y="162.942052" xlink:href="#p"/>
<use x="48.749403" y="158.93267" xlink:href="#q"/>
<use x="48.749403" y="152.918597" xlink:href="#e"/>
<use x="48.749403" y="148.909215" xlink:href="#o"/>
<use x="48.749403" y="140.890452" xlink:href="#b"/>
<use x="48.749403" y="132.871688" xlink:href="#r"/>
<use x="48.749403" y="120.843542" xlink:href="#e"/>
<use x="48.749403" y="116.83416" xlink:href="#bg"/>
<use x="48.749403" y="106.810705" xlink:href="#b"/>
<use x="48.749403" y="98.791941" xlink:href="#j"/>
<use x="48.749403" y="92.777868" xlink:href="#bf"/>
<use x="48.749403" y="84.759104" xlink:href="#q"/>
<use x="48.749403" y="78.745032" xlink:href="#e"/>
<use x="48.749403" y="74.73565" xlink:href="#be"/>
<use x="48.749403" y="66.716886" xlink:href="#bd"/>
<use x="48.749403" y="58.698122" xlink:href="#aj"/>
<use x="48.749403" y="50.679358" xlink:href="#b"/>
<use x="48.749403" y="42.660594" xlink:href="#k"/>
</g>
<g>
<use x="74.980469" y="141.930422" xlink:href="#bn"/>
<use x="83.001081" y="141.930422" xlink:href="#a"/>
<use x="91.021694" y="141.930422" xlink:href="#d"/>
</g>
<g>
<use x="74.980469" y="112.188235" xlink:href="#bm"/>
<use x="83.001081" y="112.188235" xlink:href="#a"/>
<use x="91.021694" y="112.188235" xlink:href="#d"/>
</g>
<g>
<use x="74.980469" y="52.70386" xlink:href="#t"/>
<use x="83.001081" y="52.70386" xlink:href="#a"/>
<use x="91.021694" y="52.70386" xlink:href="#d"/>
</g>
<g>
<use x="74.980469" y="22.961672" xlink:href="#s"/>
<use x="83.001081" y="22.961672" xlink:href="#a"/>
<use x="91.021694" y="22.961672" xlink:href="#d"/>
</g>
<g>
<use x="23.351906" y="438.028864" xlink:href="#ah"/>
<use x="33.276908" y="428.10615" xlink:href="#ae"/>
<use x="37.53048" y="423.853558" xlink:href="#ac"/>
<use x="46.037625" y="415.348375" xlink:href="#c"/>
<use x="54.544769" y="406.843191" xlink:href="#g"/>
<use x="63.051913" y="398.338008" xlink:href="#f"/>
<use x="68.723343" y="392.667885" xlink:href="#c"/>
<use x="77.230487" y="384.162702" xlink:href="#l"/>
<use x="84.319774" y="377.075049" xlink:href="#g"/>
<use x="92.826918" y="368.569865" xlink:href="#f"/>
<use x="98.498348" y="362.899743" xlink:href="#ac"/>
<use x="107.005492" y="354.39456" xlink:href="#c"/>
<use x="115.512637" y="345.889376" xlink:href="#f"/>
<use x="121.184066" y="340.219254" xlink:href="#ab"/>
<use x="125.437638" y="335.966662" xlink:href="#aa"/>
<use x="131.109068" y="330.29654" xlink:href="#ah"/>
<use x="141.03407" y="320.373826" xlink:href="#bc"/>
<use x="150.959071" y="310.451112" xlink:href="#bb"/>
<use x="160.884073" y="300.528398" xlink:href="#ag"/>
</g>
<g>
<use x="138.125344" y="409.360895" xlink:href="#ba"/>
<use x="148.050346" y="399.438181" xlink:href="#i"/>
<use x="156.55749" y="390.932998" xlink:href="#h"/>
<use x="165.064634" y="382.427814" xlink:href="#az"/>
<use x="173.571779" y="373.922631" xlink:href="#g"/>
<use x="182.078923" y="365.417447" xlink:href="#af"/>
<use x="194.839639" y="352.659672" xlink:href="#i"/>
<use x="203.346784" y="344.154488" xlink:href="#ay"/>
<use x="209.018213" y="338.484366" xlink:href="#ab"/>
<use x="213.271785" y="334.231774" xlink:href="#aa"/>
<use x="218.943215" y="328.561652" xlink:href="#ax"/>
<use x="227.450359" y="320.056469" xlink:href="#ad"/>
<use x="235.957504" y="311.551285" xlink:href="#aw"/>
<use x="248.71822" y="298.79351" xlink:href="#ag"/>
</g>
<g>
<use x="229.238625" y="403.31402" xlink:href="#av"/>
<use x="243.417199" y="389.138714" xlink:href="#i"/>
<use x="251.924343" y="380.633531" xlink:href="#n"/>
<use x="259.01363" y="373.545878" xlink:href="#l"/>
<use x="266.102917" y="366.458225" xlink:href="#m"/>
<use x="274.610062" y="357.953042" xlink:href="#af"/>
<use x="287.370778" y="345.195266" xlink:href="#i"/>
<use x="295.877922" y="336.690083" xlink:href="#n"/>
<use x="302.967209" y="329.60243" xlink:href="#l"/>
<use x="310.056496" y="322.514777" xlink:href="#m"/>
<use x="318.563641" y="314.009594" xlink:href="#ae"/>
<use x="322.817213" y="309.757002" xlink:href="#h"/>
<use x="331.324357" y="301.251818" xlink:href="#c"/>
</g>
<g>
<use x="378.539406" y="340.302301" xlink:href="#ad"/>
<use x="385.628693" y="333.214648" xlink:href="#c"/>
<use x="394.135838" y="324.709465" xlink:href="#au"/>
<use x="398.38941" y="320.456873" xlink:href="#c"/>
<use x="406.896554" y="311.95169" xlink:href="#at"/>
<use x="412.567984" y="306.281567" xlink:href="#g"/>
<use x="421.075128" y="297.776384" xlink:href="#h"/>
</g>
<g>
<use x="443.262063" y="361.677301" xlink:href="#as"/>
<use x="451.769207" y="353.172118" xlink:href="#c"/>
<use x="460.276351" y="344.666934" xlink:href="#f"/>
<use x="465.947781" y="338.996812" xlink:href="#h"/>
<use x="474.454925" y="330.491629" xlink:href="#n"/>
<use x="481.544212" y="323.403976" xlink:href="#c"/>
<use x="490.051356" y="314.898792" xlink:href="#m"/>
<use x="498.558501" y="306.393609" xlink:href="#c"/>
<use x="507.065645" y="297.888425" xlink:href="#f"/>
</g>
<g>
<use x="607.742188" y="141.601686" xlink:href="#ar"/>
<use x="621.77826" y="141.601686" xlink:href="#aq"/>
<use x="627.793719" y="141.601686" xlink:href="#ap"/>
<use x="635.814332" y="141.601686" xlink:href="#z"/>
<use x="647.84525" y="141.601686" xlink:href="#y"/>
<use x="655.865863" y="141.601686" xlink:href="#ao"/>
<use x="665.891629" y="141.601686" xlink:href="#an"/>
<use x="677.922548" y="141.601686" xlink:href="#y"/>
<use x="685.94316" y="141.601686" xlink:href="#am"/>
<use x="697.974079" y="141.601686" xlink:href="#x"/>
<use x="710.004998" y="141.601686" xlink:href="#x"/>
<use x="722.035917" y="141.601686" xlink:href="#z"/>
</g>
<path transform="matrix(2.0052 0 0 2.0047 -120.18 -10.256)" d="m346.38 79.982h5.9748v5.9743h-5.9748z" fill="#fff" stroke="#000" stroke-width=".75"/>
<path transform="matrix(2.0052 0 0 2.0047 -120.18 -10.256)" d="m346.38 94.718h5.9748v5.9743h-5.9748z" fill="#999" stroke="#000" stroke-width=".75"/>
<path transform="matrix(2.0052 0 0 2.0047 -120.18 -10.256)" d="m346.38 109.45h5.9748v5.9743h-5.9748z" fill="#333" stroke="#000" stroke-width=".75"/>
<path transform="matrix(2.0052 0 0 2.0047 -120.18 -10.256)" d="m127.11 85.675h9.9373v47.401h-9.9373z" fill="#fff" stroke="#000" stroke-width=".75"/>
<path transform="matrix(2.0052 0 0 2.0047 -120.18 -10.256)" d="m137.04 30.49h9.9392v102.59h-9.9392z" fill="#999" stroke="#000" stroke-width=".75"/>
<path transform="matrix(2.0052 0 0 2.0047 -120.18 -10.256)" d="m146.98 30.49h9.9392v102.59h-9.9392z" fill="#333" stroke="#000" stroke-width=".75"/>
<path transform="matrix(2.0052 0 0 2.0047 -120.18 -10.256)" d="m170.04 88.567h9.9373v44.509h-9.9373z" fill="#fff" stroke="#000" stroke-width=".75"/>
<path transform="matrix(2.0052 0 0 2.0047 -120.18 -10.256)" d="m179.98 56.143h9.9392v76.933h-9.9392z" fill="#999" stroke="#000" stroke-width=".75"/>
<path transform="matrix(2.0052 0 0 2.0047 -120.18 -10.256)" d="m189.92 17.117h9.9392v115.96h-9.9392z" fill="#333" stroke="#000" stroke-width=".75"/>
<path transform="matrix(2.0052 0 0 2.0047 -120.18 -10.256)" d="m212.98 128.19h9.9392v4.887h-9.9392z" fill="#fff" stroke="#000" stroke-width=".75"/>
<path transform="matrix(2.0052 0 0 2.0047 -120.18 -10.256)" d="m222.92 130.63h9.9373v2.4435h-9.9373z" fill="#999" stroke="#000" stroke-width=".75"/>
<path transform="matrix(2.0052 0 0 2.0047 -120.18 -10.256)" d="m232.86 100.12h9.9392v32.958h-9.9392z" fill="#333" stroke="#000" stroke-width=".75"/>
<path transform="matrix(2.0052 0 0 2.0047 -120.18 -10.256)" d="m255.92 126.45h9.9392v6.6251h-9.9392z" fill="#fff" stroke="#000" stroke-width=".75"/>
<path transform="matrix(2.0052 0 0 2.0047 -120.18 -10.256)" d="m265.86 123.77h9.9373v9.3024h-9.9373z" fill="#999" stroke="#000" stroke-width=".75"/>
<path transform="matrix(2.0052 0 0 2.0047 -120.18 -10.256)" d="m275.8 122.28h9.9392v10.795h-9.9392z" fill="#333" stroke="#000" stroke-width=".75"/>
<path transform="matrix(2.0052 0 0 2.0047 -120.18 -10.256)" d="m298.86 125.7h9.9392v7.3714h-9.9392z" fill="#fff" stroke="#000" stroke-width=".75"/>
<path transform="matrix(2.0052 0 0 2.0047 -120.18 -10.256)" d="m318.74 128.78h9.9392v4.3005h-9.9392z" fill="#333" stroke="#000" stroke-width=".75"/>
</svg>
