<?xml version="1.0" encoding="UTF-8"?>
<svg width="800px" height="462px" version="1.1" viewBox="0 0 800 462" xmlns="http://www.w3.org/2000/svg" xmlns:xlink="http://www.w3.org/1999/xlink">
<defs>
<symbol id="di" overflow="visible">
<path d="m-13.969-1.0781v-11.734h2.1875l9.0625 7.4844v-7.7031h2.7188v12.172h-2.1719l-9.0781-7.5v7.2812z"/>
</symbol>
<symbol id="db" overflow="visible">
<path d="m-4.0781-1.5h-6.3906v-3.3594h1.0469c0.5625 0 1.2773 0.007813 2.1406 0.015625h1.7031c0.84375 0 1.4531-0.019531 1.8281-0.0625 0.36719-0.039062 0.63281-0.11719 0.79688-0.23438 0.21875-0.13281 0.39062-0.3125 0.51562-0.53125 0.11719-0.21875 0.17188-0.47266 0.17188-0.76562 0-0.69531-0.26562-1.2422-0.79688-1.6406-0.53906-0.40625-1.2852-0.60938-2.2344-0.60938h-5.1719v-3.3438h10.469v3.3438h-1.5156c0.61719 0.51172 1.0703 1.0469 1.3594 1.6094 0.28125 0.5625 0.42188 1.1875 0.42188 1.875 0 1.2109-0.36719 2.1328-1.1094 2.7656-0.73828 0.625-1.8164 0.9375-3.2344 0.9375z"/>
</symbol>
<symbol id="da" overflow="visible">
<path d="m-10.156-9.7969h2.5469c-0.28906 0.71875-0.50781 1.4141-0.65625 2.0781-0.15625 0.66797-0.23438 1.2969-0.23438 1.8906 0 0.63672 0.078125 1.1094 0.23438 1.4219 0.15625 0.30469 0.40234 0.45312 0.73438 0.45312 0.27344 0 0.48047-0.11328 0.625-0.34375 0.13672-0.23828 0.24219-0.66016 0.3125-1.2656l0.078125-0.57812c0.21875-1.7188 0.57812-2.875 1.0781-3.4688s1.2812-0.89062 2.3438-0.89062c1.125 0 1.9688 0.41406 2.5312 1.2344 0.55469 0.82422 0.82812 2.0547 0.82812 3.6875 0 0.69922-0.058594 1.418-0.17188 2.1562-0.10156 0.74219-0.26562 1.4961-0.48438 2.2656h-2.5312c0.32422-0.66406 0.57031-1.3477 0.73438-2.0469 0.15625-0.69531 0.23438-1.4102 0.23438-2.1406 0-0.65625-0.085937-1.1445-0.26562-1.4688-0.1875-0.33203-0.45703-0.5-0.8125-0.5-0.30078 0-0.52344 0.11719-0.67188 0.34375-0.14453 0.23047-0.25781 0.68359-0.34375 1.3594l-0.0625 0.59375c-0.1875 1.4922-0.53125 2.5391-1.0312 3.1406-0.50781 0.59375-1.2812 0.89062-2.3125 0.89062-1.1133 0-1.9375-0.37891-2.4688-1.1406-0.53906-0.76953-0.8125-1.9375-0.8125-3.5 0-0.625 0.046875-1.2734 0.14062-1.9531 0.09375-0.67578 0.24219-1.4141 0.4375-2.2188z"/>
</symbol>
<symbol id="an" overflow="visible">
<path d="m-13.453-5.2656h2.9844v-3.4531h2.3906v3.4531h4.4375c0.49219 0 0.82422-0.09375 1-0.28125 0.16797-0.19531 0.25-0.58203 0.25-1.1562v-1.7188h2.3906v2.8594c0 1.3242-0.27344 2.2617-0.82812 2.8125-0.55078 0.55469-1.4883 0.82812-2.8125 0.82812h-4.4375v1.6719h-2.3906v-1.6719h-2.9844z"/>
</symbol>
<symbol id="y" overflow="visible">
<path d="m-4.7188-6.2969c0 0.69922 0.12109 1.2266 0.35938 1.5781 0.24219 0.34375 0.58984 0.51562 1.0469 0.51562 0.42969 0 0.76172-0.14062 1-0.42188 0.24219-0.28125 0.35938-0.67578 0.35938-1.1875 0-0.625-0.22266-1.1484-0.67188-1.5781-0.45703-0.4375-1.0234-0.65625-1.7031-0.65625h-0.39062zm-1.2656-5.125h5.9844v3.375h-1.5469c0.63672 0.44922 1.1016 0.95312 1.3906 1.5156 0.28125 0.5625 0.42188 1.2461 0.42188 2.0469 0 1.0859-0.3125 1.9648-0.9375 2.6406-0.63281 0.67969-1.457 1.0156-2.4688 1.0156-1.2266 0-2.1289-0.42188-2.7031-1.2656-0.57031-0.84375-0.85938-2.1719-0.85938-3.9844v-1.9688h-0.26562c-0.53125 0-0.91406 0.21094-1.1562 0.625-0.25 0.41797-0.375 1.0703-0.375 1.9531 0 0.71875 0.074219 1.3906 0.21875 2.0156 0.13672 0.61719 0.35156 1.1875 0.64062 1.7188h-2.5625c-0.16406-0.71875-0.29688-1.4375-0.39062-2.1562-0.09375-0.72656-0.14062-1.457-0.14062-2.1875 0-1.8828 0.375-3.2422 1.125-4.0781 0.74219-0.84375 1.9492-1.2656 3.625-1.2656z"/>
</symbol>
<symbol id="s" overflow="visible">
<path d="m-6.375-12.141h6.375v3.3594h-4.875c-0.90625 0-1.5312 0.023438-1.875 0.0625-0.34375 0.042969-0.59766 0.11719-0.76562 0.21875-0.21875 0.125-0.38281 0.30469-0.5 0.53125-0.125 0.23047-0.1875 0.48438-0.1875 0.76562 0 0.69922 0.27344 1.25 0.8125 1.6562 0.54297 0.39844 1.2891 0.59375 2.2344 0.59375h5.1562v3.3438h-10.469v-3.3438h1.5312c-0.61328-0.50781-1.0664-1.0469-1.3594-1.6094-0.28906-0.57031-0.4375-1.2031-0.4375-1.8906 0-1.207 0.375-2.125 1.125-2.75 0.74219-0.625 1.8203-0.9375 3.2344-0.9375z"/>
</symbol>
<symbol id="cz" overflow="visible">
<path d="m-8.9375-8.7344h-5.6094v-3.375h14.547v3.375h-1.5156c0.61719 0.46094 1.0703 0.96875 1.3594 1.5312 0.28125 0.55469 0.42188 1.1953 0.42188 1.9219 0 1.293-0.50781 2.3555-1.5312 3.1875-1.0312 0.82422-2.3516 1.2344-3.9688 1.2344-1.6133 0-2.9297-0.41016-3.9531-1.2344-1.0312-0.83203-1.5469-1.8945-1.5469-3.1875 0-0.72656 0.14844-1.3672 0.4375-1.9219 0.29297-0.5625 0.74609-1.0703 1.3594-1.5312zm6.7812 2.2031c0-0.71875-0.25781-1.2656-0.78125-1.6406-0.53125-0.375-1.2969-0.5625-2.2969-0.5625-0.98828 0-1.7422 0.1875-2.2656 0.5625-0.53125 0.375-0.79688 0.92188-0.79688 1.6406 0 0.71094 0.26562 1.2578 0.79688 1.6406 0.52344 0.375 1.2773 0.5625 2.2656 0.5625 1 0 1.7656-0.1875 2.2969-0.5625 0.52344-0.38281 0.78125-0.92969 0.78125-1.6406z"/>
</symbol>
<symbol id="x" overflow="visible"></symbol>
<symbol id="cy" overflow="visible">
<path d="m-10.156-10.078h2.7344c-0.3125 0.46094-0.53906 0.91797-0.6875 1.375-0.14453 0.46094-0.21875 0.93359-0.21875 1.4219 0 0.9375 0.27344 1.668 0.8125 2.1875 0.54297 0.52344 1.3047 0.78125 2.2812 0.78125 0.98047 0 1.7461-0.25781 2.2969-0.78125 0.54297-0.51953 0.8125-1.25 0.8125-2.1875 0-0.51953-0.078125-1.0156-0.23438-1.4844s-0.38281-0.90625-0.6875-1.3125h2.7344c0.19922 0.53125 0.34375 1.0703 0.4375 1.6094 0.09375 0.53125 0.14062 1.0703 0.14062 1.6094 0 1.8984-0.48438 3.375-1.4531 4.4375s-2.3164 1.5938-4.0469 1.5938c-1.7188 0-3.0625-0.53125-4.0312-1.5938-0.97656-1.0625-1.4688-2.5391-1.4688-4.4375 0-0.53906 0.054687-1.0781 0.15625-1.6094 0.09375-0.53906 0.23438-1.0781 0.42188-1.6094z"/>
</symbol>
<symbol id="dh" overflow="visible">
<path d="m-6.375-12.141h6.375v3.3594h-4.8594c-0.91406 0-1.5469 0.023438-1.8906 0.0625-0.34375 0.042969-0.59766 0.11719-0.76562 0.21875-0.21875 0.125-0.38281 0.30469-0.5 0.53125-0.125 0.23047-0.1875 0.48438-0.1875 0.76562 0 0.69922 0.27344 1.25 0.8125 1.6562 0.54297 0.39844 1.2891 0.59375 2.2344 0.59375h5.1562v3.3438h-14.547v-3.3438h5.6094c-0.61328-0.50781-1.0664-1.0469-1.3594-1.6094-0.28906-0.57031-0.4375-1.2031-0.4375-1.8906 0-1.207 0.375-2.125 1.125-2.75 0.74219-0.625 1.8203-0.9375 3.2344-0.9375z"/>
</symbol>
<symbol id="dg" overflow="visible">
<path d="m-2.4844-2.25v-3.1719h-9.0312l0.67188 3.2656h-2.4531l-0.67188-3.25v-3.4219h11.484v-3.1875h2.4844v9.7656z"/>
</symbol>
<symbol id="df" overflow="visible">
<path d="m-2.6406-5.5156v-6.1406h2.6406v10.141h-2.6406l-4.5-5.0938c-0.41406-0.45703-0.81641-0.79688-1.2031-1.0156-0.39453-0.21875-0.80469-0.32812-1.2344-0.32812-0.65625 0-1.1797 0.22656-1.5781 0.67188-0.39453 0.4375-0.59375 1.0234-0.59375 1.75 0 0.55469 0.12109 1.168 0.35938 1.8438 0.24219 0.66797 0.59375 1.3828 1.0625 2.1406h-3.0625c-0.26953-0.8125-0.47266-1.6133-0.60938-2.4062-0.14453-0.78906-0.21875-1.5664-0.21875-2.3281 0-1.6758 0.37109-2.9766 1.1094-3.9062 0.73047-0.92578 1.7578-1.3906 3.0781-1.3906 0.76172 0 1.4688 0.19922 2.125 0.59375 0.65625 0.39844 1.5391 1.2266 2.6406 2.4844z"/>
</symbol>
<symbol id="de" overflow="visible">
<path d="m-13.969-1.7656v-4.5781l7.4844-3.1719-7.4844-3.2031v-4.5781h13.969v3.4062h-10.219l7.5312 3.2188v2.2812l-7.5312 3.2188h10.219v3.4062z"/>
</symbol>
<symbol id="dd" overflow="visible">
<path d="m-8.3281-6.5938c0 0.74219 0.26562 1.3086 0.79688 1.7031 0.53125 0.38672 1.2969 0.57812 2.2969 0.57812 1.0117 0 1.7812-0.19141 2.3125-0.57812 0.53125-0.39453 0.79688-0.96094 0.79688-1.7031 0-0.72656-0.26562-1.2852-0.79688-1.6719-0.53125-0.38281-1.3008-0.57812-2.3125-0.57812-1 0-1.7656 0.19531-2.2969 0.57812-0.53125 0.38672-0.79688 0.94531-0.79688 1.6719zm-2.4062 0c0-1.8008 0.49219-3.207 1.4688-4.2188 0.96875-1.0195 2.3125-1.5312 4.0312-1.5312 1.7305 0 3.0781 0.51172 4.0469 1.5312 0.96875 1.0117 1.4531 2.418 1.4531 4.2188 0 1.8125-0.48438 3.2305-1.4531 4.25-0.96875 1.0117-2.3164 1.5156-4.0469 1.5156-1.7188 0-3.0625-0.50391-4.0312-1.5156-0.97656-1.0195-1.4688-2.4375-1.4688-4.25z"/>
</symbol>
<symbol id="dc" overflow="visible">
<path d="m-5.2656-12.062h0.95312v7.8281c0.78125-0.082031 1.3711-0.36328 1.7656-0.84375 0.39844-0.48828 0.59375-1.1719 0.59375-2.0469 0-0.70703-0.10156-1.4297-0.3125-2.1719-0.20703-0.73828-0.52344-1.5-0.95312-2.2812h2.5781c0.30469 0.80469 0.52734 1.6016 0.67188 2.3906 0.15625 0.79297 0.23438 1.5859 0.23438 2.375 0 1.8984-0.47656 3.3711-1.4375 4.4219-0.96875 1.043-2.3203 1.5625-4.0625 1.5625-1.707 0-3.0508-0.51562-4.0312-1.5469-0.97656-1.0312-1.4688-2.4453-1.4688-4.25 0-1.6445 0.5-2.9609 1.5-3.9531 0.99219-0.98828 2.3125-1.4844 3.9688-1.4844zm-1.1094 3.4375c-0.63281 0-1.1445 0.1875-1.5312 0.5625-0.39453 0.36719-0.59375 0.85156-0.59375 1.4531 0 0.64844 0.18359 1.1719 0.54688 1.5781 0.36719 0.40625 0.89062 0.65625 1.5781 0.75z"/>
</symbol>
<symbol id="cx" overflow="visible">
<path d="m-14.547-1.6406v-3.9688h1.3281v2.2344h14.406v-2.2344h1.3438v3.9688z"/>
</symbol>
<symbol id="al" overflow="visible">
<path d="m-10.469-1.8125v-1.7188h10.469v1.7188zm-4.0781 0v-1.7188h2.1719v1.7188z"/>
</symbol>
<symbol id="w" overflow="visible">
<path d="m-6.3281-10.516h6.3281v1.7188h-6.2656c-0.98828 0-1.7266 0.19922-2.2188 0.59375-0.5 0.38672-0.75 0.96484-0.75 1.7344 0 0.92969 0.29688 1.6641 0.89062 2.2031 0.59375 0.53125 1.4023 0.79688 2.4219 0.79688h5.9219v1.7344h-10.469v-1.7344h1.625c-0.63281-0.41406-1.1094-0.89844-1.4219-1.4531-0.3125-0.5625-0.46875-1.207-0.46875-1.9375 0-1.1953 0.375-2.1016 1.125-2.7188 0.74219-0.625 1.8359-0.9375 3.2812-0.9375z"/>
</symbol>
<symbol id="r" overflow="visible"></symbol>
<symbol id="cs" overflow="visible">
<path d="m-6.1406-13.922c0 0.54297 0.23047 0.96875 0.6875 1.2812 0.46094 0.30469 1.1016 0.45312 1.9219 0.45312 0.8125 0 1.4531-0.14844 1.9219-0.45312 0.46094-0.3125 0.6875-0.73828 0.6875-1.2812 0-0.53125-0.22656-0.95312-0.6875-1.2656-0.46875-0.3125-1.1094-0.46875-1.9219-0.46875s-1.4453 0.15625-1.9062 0.46875c-0.46875 0.3125-0.70312 0.73438-0.70312 1.2656zm-1.1875 0c0-0.98828 0.34375-1.7695 1.0312-2.3438 0.67969-0.58203 1.6016-0.875 2.7656-0.875 1.168 0 2.0938 0.29297 2.7812 0.875 0.67969 0.58594 1.0156 1.3672 1.0156 2.3438 0 0.99219-0.33594 1.7773-1.0156 2.3594-0.6875 0.58594-1.6133 0.875-2.7812 0.875-1.1641 0-2.0859-0.28906-2.7656-0.875-0.6875-0.58203-1.0312-1.3672-1.0312-2.3594zm-5.7031 9.6406c0 0.54297 0.23438 0.96875 0.70312 1.2812 0.46094 0.30469 1.0938 0.45312 1.9062 0.45312 0.82422 0 1.4688-0.14844 1.9375-0.45312 0.46094-0.30078 0.6875-0.72656 0.6875-1.2812 0-0.53906-0.22656-0.96094-0.6875-1.2656-0.46875-0.3125-1.1133-0.46875-1.9375-0.46875-0.80078 0-1.4375 0.15625-1.9062 0.46875s-0.70312 0.73438-0.70312 1.2656zm-1.1875-8.4375v-1.5l14.484 8.7344v1.5zm0 8.4375c0-0.97656 0.34375-1.7578 1.0312-2.3438 0.67969-0.59375 1.6016-0.89062 2.7656-0.89062 1.1797 0 2.1094 0.29297 2.7969 0.875 0.67969 0.58594 1.0156 1.3711 1.0156 2.3594 0 1-0.33594 1.7891-1.0156 2.3594-0.6875 0.57422-1.6172 0.85938-2.7969 0.85938-1.1562 0-2.0781-0.28516-2.7656-0.85938-0.6875-0.58203-1.0312-1.3672-1.0312-2.3594z"/>
</symbol>
<symbol id="cr" overflow="visible">
<path d="m-8.8906-8.7031h-5.6562v-1.7188h14.547v1.7188h-1.5781c0.625 0.36719 1.0898 0.82422 1.3906 1.375 0.30078 0.55469 0.45312 1.2148 0.45312 1.9844 0 1.2734-0.50391 2.3047-1.5156 3.0938-1.0078 0.79297-2.3359 1.1875-3.9844 1.1875-1.6445 0-2.9727-0.39453-3.9844-1.1875-1.0078-0.78906-1.5156-1.8203-1.5156-3.0938 0-0.76953 0.15234-1.4297 0.45312-1.9844 0.30469-0.55078 0.76562-1.0078 1.3906-1.375zm3.6562 5.875c1.2734 0 2.2656-0.25781 2.9844-0.78125 0.71875-0.51953 1.0781-1.2383 1.0781-2.1562 0-0.90625-0.35938-1.6172-1.0781-2.1406-0.71875-0.53125-1.7109-0.79688-2.9844-0.79688-1.2578 0-2.25 0.26562-2.9688 0.79688-0.71875 0.52344-1.0781 1.2344-1.0781 2.1406 0 0.91797 0.35938 1.6367 1.0781 2.1562 0.71875 0.52344 1.7109 0.78125 2.9688 0.78125z"/>
</symbol>
<symbol id="v" overflow="visible">
<path d="m-5.6719-10.766h0.84375v7.9062c1.1875-0.070313 2.0938-0.42578 2.7188-1.0625 0.61719-0.63281 0.92188-1.5234 0.92188-2.6719 0-0.65625-0.078125-1.2969-0.23438-1.9219-0.16406-0.625-0.41016-1.2383-0.73438-1.8438h1.625c0.26172 0.61719 0.46094 1.2461 0.59375 1.8906 0.13281 0.64844 0.20312 1.3086 0.20312 1.9844 0 1.668-0.48438 2.9922-1.4531 3.9688-0.96875 0.96875-2.2852 1.4531-3.9531 1.4531-1.707 0-3.0664-0.45703-4.0781-1.375-1.0078-0.92578-1.5156-2.1758-1.5156-3.75 0-1.4141 0.46094-2.5312 1.375-3.3438 0.90625-0.82031 2.1367-1.2344 3.6875-1.2344zm-0.5 1.7188c-0.9375 0.011719-1.6875 0.27734-2.25 0.79688-0.5625 0.51172-0.84375 1.1953-0.84375 2.0469 0 0.96094 0.27344 1.7266 0.8125 2.2969 0.54297 0.57422 1.3086 0.90625 2.2969 1z"/>
</symbol>
<symbol id="cq" overflow="visible">
<path d="m-8.875-7.875c-0.10156 0.19922-0.17969 0.41406-0.23438 0.64062-0.050781 0.21875-0.078125 0.46875-0.078125 0.75 0 0.96875 0.32031 1.7148 0.95312 2.2344 0.625 0.52344 1.5312 0.78125 2.7188 0.78125h5.5156v1.7344h-10.469v-1.7344h1.625c-0.63281-0.36328-1.1094-0.83203-1.4219-1.4062-0.3125-0.58203-0.46875-1.2891-0.46875-2.125 0-0.11328 0.011719-0.24219 0.03125-0.39062 0.011719-0.14453 0.03125-0.30078 0.0625-0.46875z"/>
</symbol>
<symbol id="ak" overflow="visible">
<path d="m-12.406-3.7656h5.2344v-2.375c0-0.88281-0.22266-1.5664-0.67188-2.0469-0.45703-0.47656-1.1094-0.71875-1.9531-0.71875-0.83203 0-1.4727 0.24219-1.9219 0.71875-0.45703 0.48047-0.6875 1.1641-0.6875 2.0469zm-1.5625 1.8906v-4.2656c0-1.5703 0.35547-2.7539 1.0625-3.5469 0.71094-0.80078 1.7461-1.2031 3.1094-1.2031 1.3867 0 2.4336 0.40234 3.1406 1.2031 0.69922 0.79297 1.0469 1.9766 1.0469 3.5469v2.375h5.6094v1.8906z"/>
</symbol>
<symbol id="cw" overflow="visible">
<path d="m0-5.4844-13.969 5.3281v-1.9688l11.766-4.4219-11.766-4.4375v-1.9688l13.969 5.3281z"/>
</symbol>
<symbol id="cv" overflow="visible">
<path d="m-13.5-10.25h1.8438c-0.34375 0.71875-0.59766 1.3984-0.76562 2.0312-0.17578 0.63672-0.26562 1.25-0.26562 1.8438 0 1.0312 0.20312 1.8281 0.60938 2.3906 0.39844 0.55469 0.96484 0.82812 1.7031 0.82812 0.61719 0 1.0781-0.1875 1.3906-0.5625s0.57031-1.0781 0.76562-2.1094l0.23438-1.1406c0.27344-1.4062 0.74609-2.4414 1.4219-3.1094 0.66797-0.67578 1.5703-1.0156 2.7031-1.0156 1.3555 0 2.3828 0.45312 3.0781 1.3594 0.69922 0.90625 1.0469 2.2344 1.0469 3.9844 0 0.66797-0.074219 1.375-0.21875 2.125-0.14453 0.74219-0.36719 1.5117-0.67188 2.3125h-1.9375c0.42969-0.76953 0.75-1.5195 0.96875-2.25 0.21875-0.73828 0.32812-1.4688 0.32812-2.1875 0-1.0703-0.20703-1.8984-0.625-2.4844-0.42578-0.59375-1.0352-0.89062-1.8281-0.89062-0.6875 0-1.2227 0.21484-1.6094 0.64062-0.38281 0.41797-0.67188 1.1055-0.85938 2.0625l-0.23438 1.1562c-0.28125 1.4062-0.71875 2.4297-1.3125 3.0625-0.60156 0.625-1.4375 0.9375-2.5 0.9375-1.2266 0-2.1953-0.42969-2.9062-1.2969-0.71875-0.875-1.0781-2.0703-1.0781-3.5938 0-0.65625 0.0625-1.3203 0.1875-2 0.11719-0.6875 0.29297-1.3828 0.53125-2.0938z"/>
</symbol>
<symbol id="cu" overflow="visible">
<path d="m-5.2656-6.5625c0 1.3867 0.16406 2.3516 0.48438 2.8906 0.3125 0.53125 0.85547 0.79688 1.625 0.79688 0.60547 0 1.0898-0.19531 1.4531-0.59375 0.35547-0.40625 0.53125-0.95312 0.53125-1.6406 0-0.95703-0.33594-1.7227-1.0156-2.2969-0.67578-0.58203-1.5703-0.875-2.6875-0.875h-0.39062zm-0.71875-3.4375h5.9844v1.7188h-1.5938c0.63672 0.39844 1.1055 0.88672 1.4062 1.4688 0.30078 0.58594 0.45312 1.3047 0.45312 2.1562 0 1.0742-0.29688 1.9297-0.89062 2.5625-0.60156 0.625-1.4102 0.9375-2.4219 0.9375-1.1758 0-2.0625-0.39062-2.6562-1.1719-0.60156-0.78906-0.90625-1.9688-0.90625-3.5312v-2.4219h-0.17188c-0.78906 0-1.3984 0.26172-1.8281 0.78125-0.4375 0.52344-0.65625 1.2578-0.65625 2.2031 0 0.59375 0.074219 1.1797 0.21875 1.75 0.13672 0.5625 0.35156 1.1055 0.64062 1.625h-1.5938c-0.23828-0.625-0.42188-1.2344-0.54688-1.8281s-0.1875-1.1719-0.1875-1.7344c0-1.5078 0.39844-2.6406 1.1875-3.3906 0.78125-0.75 1.9688-1.125 3.5625-1.125z"/>
</symbol>
<symbol id="am" overflow="visible">
<path d="m-13.453-3.5h2.9844v-3.5469h1.3281v3.5469h5.6875c0.85547 0 1.4062-0.11328 1.6562-0.34375 0.24219-0.23828 0.35938-0.71875 0.35938-1.4375v-1.7656h1.4375v1.7656c0 1.3242-0.24219 2.2422-0.73438 2.75-0.5 0.5-1.4062 0.75-2.7188 0.75h-5.6875v1.2656h-1.3281v-1.2656h-2.9844z"/>
</symbol>
<symbol id="ct" overflow="visible">
<path d="m-14.547-5.8281h17.078v3.9688h-1.3438v-2.2344h-14.406v2.2344h-1.3281z"/>
</symbol>
<symbol id="cp" overflow="visible">
<path d="m1.7656-13.969h9.7188v2.7188h-6.125v2.6094h5.75v2.7188h-5.75v3.2031h6.3281v2.7188h-9.9219z"/>
</symbol>
<symbol id="aj" overflow="visible">
<path d="m9.3906-7.625c-0.29297-0.13281-0.58594-0.23438-0.875-0.29688-0.29297-0.070313-0.58594-0.10938-0.875-0.10938-0.86719 0-1.5312 0.27734-2 0.82812-0.46094 0.55469-0.6875 1.3438-0.6875 2.375v4.8281h-3.3438v-10.469h3.3438v1.7188c0.4375-0.6875 0.92969-1.1875 1.4844-1.5 0.5625-0.32031 1.2344-0.48438 2.0156-0.48438 0.10156 0 0.21875 0.007813 0.34375 0.015625 0.13281 0.011719 0.32812 0.03125 0.57812 0.0625z"/>
</symbol>
<symbol id="cl" overflow="visible">
<path d="m0.67188-10.469h3.25l1.7656 7.2188 1.7656-7.2188h2.7969l1.7656 7.1406 1.7656-7.1406h3.25l-2.75 10.469h-3.6719l-1.7656-7.2031-1.75 7.2031h-3.6562z"/>
</symbol>
<symbol id="ck" overflow="visible">
<path d="m6.2969-4.7188c-0.69922 0-1.2266 0.12109-1.5781 0.35938-0.34375 0.24219-0.51562 0.58984-0.51562 1.0469 0 0.42969 0.14062 0.76172 0.42188 1 0.28125 0.24219 0.67578 0.35938 1.1875 0.35938 0.625 0 1.1484-0.22266 1.5781-0.67188 0.4375-0.45703 0.65625-1.0234 0.65625-1.7031v-0.39062zm5.125-1.2656v5.9844h-3.375v-1.5469c-0.44922 0.63672-0.95312 1.1016-1.5156 1.3906-0.5625 0.28125-1.2461 0.42188-2.0469 0.42188-1.0859 0-1.9648-0.3125-2.6406-0.9375-0.67969-0.63281-1.0156-1.457-1.0156-2.4688 0-1.2266 0.42188-2.1289 1.2656-2.7031 0.84375-0.57031 2.1719-0.85938 3.9844-0.85938h1.9688v-0.26562c0-0.53125-0.21094-0.91406-0.625-1.1562-0.41797-0.25-1.0703-0.375-1.9531-0.375-0.71875 0-1.3906 0.074219-2.0156 0.21875-0.61719 0.13672-1.1875 0.35156-1.7188 0.64062v-2.5625c0.71875-0.16406 1.4375-0.29688 2.1562-0.39062 0.72656-0.09375 1.457-0.14062 2.1875-0.14062 1.8828 0 3.2422 0.375 4.0781 1.125 0.84375 0.74219 1.2656 1.9492 1.2656 3.625z"/>
</symbol>
<symbol id="cj" overflow="visible">
<path d="m10.078-10.156v2.7344c-0.46094-0.3125-0.91797-0.53906-1.375-0.6875-0.46094-0.14453-0.93359-0.21875-1.4219-0.21875-0.9375 0-1.668 0.27344-2.1875 0.8125-0.52344 0.54297-0.78125 1.3047-0.78125 2.2812 0 0.98047 0.25781 1.7461 0.78125 2.2969 0.51953 0.54297 1.25 0.8125 2.1875 0.8125 0.51953 0 1.0156-0.078125 1.4844-0.23438s0.90625-0.38281 1.3125-0.6875v2.7344c-0.53125 0.19922-1.0703 0.34375-1.6094 0.4375-0.53125 0.09375-1.0703 0.14062-1.6094 0.14062-1.8984 0-3.375-0.48438-4.4375-1.4531s-1.5938-2.3164-1.5938-4.0469c0-1.7188 0.53125-3.0625 1.5938-4.0312 1.0625-0.97656 2.5391-1.4688 4.4375-1.4688 0.53906 0 1.0781 0.054687 1.6094 0.15625 0.53906 0.09375 1.0781 0.23438 1.6094 0.42188z"/>
</symbol>
<symbol id="ci" overflow="visible">
<path d="m12.141-6.375v6.375h-3.3594v-4.8594c0-0.91406-0.023438-1.5469-0.0625-1.8906-0.042969-0.34375-0.11719-0.59766-0.21875-0.76562-0.125-0.21875-0.30469-0.38281-0.53125-0.5-0.23047-0.125-0.48438-0.1875-0.76562-0.1875-0.69922 0-1.25 0.27344-1.6562 0.8125-0.39844 0.54297-0.59375 1.2891-0.59375 2.2344v5.1562h-3.3438v-14.547h3.3438v5.6094c0.50781-0.61328 1.0469-1.0664 1.6094-1.3594 0.57031-0.28906 1.2031-0.4375 1.8906-0.4375 1.207 0 2.125 0.375 2.75 1.125 0.625 0.74219 0.9375 1.8203 0.9375 3.2344z"/>
</symbol>
<symbol id="ch" overflow="visible">
<path d="m9.7969-10.156v2.5469c-0.71875-0.28906-1.4141-0.50781-2.0781-0.65625-0.66797-0.15625-1.2969-0.23438-1.8906-0.23438-0.63672 0-1.1094 0.078125-1.4219 0.23438-0.30469 0.15625-0.45312 0.40234-0.45312 0.73438 0 0.27344 0.11328 0.48047 0.34375 0.625 0.23828 0.13672 0.66016 0.24219 1.2656 0.3125l0.57812 0.078125c1.7188 0.21875 2.875 0.57812 3.4688 1.0781s0.89062 1.2812 0.89062 2.3438c0 1.125-0.41406 1.9688-1.2344 2.5312-0.82422 0.55469-2.0547 0.82812-3.6875 0.82812-0.69922 0-1.418-0.058594-2.1562-0.17188-0.74219-0.10156-1.4961-0.26562-2.2656-0.48438v-2.5312c0.66406 0.32422 1.3477 0.57031 2.0469 0.73438 0.69531 0.15625 1.4102 0.23438 2.1406 0.23438 0.65625 0 1.1445-0.085937 1.4688-0.26562 0.33203-0.1875 0.5-0.45703 0.5-0.8125 0-0.30078-0.11719-0.52344-0.34375-0.67188-0.23047-0.14453-0.68359-0.25781-1.3594-0.34375l-0.59375-0.0625c-1.4922-0.1875-2.5391-0.53125-3.1406-1.0312-0.59375-0.50781-0.89062-1.2812-0.89062-2.3125 0-1.1133 0.37891-1.9375 1.1406-2.4688 0.76953-0.53906 1.9375-0.8125 3.5-0.8125 0.625 0 1.2734 0.046875 1.9531 0.14062 0.67578 0.09375 1.4141 0.24219 2.2188 0.4375z"/>
</symbol>
<symbol id="u" overflow="visible">
<path d="m12.062-5.2656v0.95312h-7.8281c0.082031 0.78125 0.36328 1.3711 0.84375 1.7656 0.48828 0.39844 1.1719 0.59375 2.0469 0.59375 0.70703 0 1.4297-0.10156 2.1719-0.3125 0.73828-0.20703 1.5-0.52344 2.2812-0.95312v2.5781c-0.80469 0.30469-1.6016 0.52734-2.3906 0.67188-0.79297 0.15625-1.5859 0.23438-2.375 0.23438-1.8984 0-3.3711-0.47656-4.4219-1.4375-1.043-0.96875-1.5625-2.3203-1.5625-4.0625 0-1.707 0.51562-3.0508 1.5469-4.0312 1.0312-0.97656 2.4453-1.4688 4.25-1.4688 1.6445 0 2.9609 0.5 3.9531 1.5 0.98828 0.99219 1.4844 2.3125 1.4844 3.9688zm-3.4375-1.1094c0-0.63281-0.1875-1.1445-0.5625-1.5312-0.36719-0.39453-0.85156-0.59375-1.4531-0.59375-0.64844 0-1.1719 0.18359-1.5781 0.54688-0.40625 0.36719-0.65625 0.89062-0.75 1.5781z"/>
</symbol>
<symbol id="ai" overflow="visible">
<path d="m12.141-6.375v6.375h-3.3594v-4.875c0-0.90625-0.023438-1.5312-0.0625-1.875-0.042969-0.34375-0.11719-0.59766-0.21875-0.76562-0.125-0.21875-0.30469-0.38281-0.53125-0.5-0.23047-0.125-0.48438-0.1875-0.76562-0.1875-0.69922 0-1.25 0.27344-1.6562 0.8125-0.39844 0.54297-0.59375 1.2891-0.59375 2.2344v5.1562h-3.3438v-10.469h3.3438v1.5312c0.50781-0.61328 1.0469-1.0664 1.6094-1.3594 0.57031-0.28906 1.2031-0.4375 1.8906-0.4375 1.207 0 2.125 0.375 2.75 1.125 0.625 0.74219 0.9375 1.8203 0.9375 3.2344z"/>
</symbol>
<symbol id="co" overflow="visible">
<path d="m1.7656-13.969h3.5938v5.0938l5.1875-5.0938h4.1875l-6.7344 6.6094 7.4219 7.3594h-4.5l-5.5625-5.5v5.5h-3.5938z"/>
</symbol>
<symbol id="cn" overflow="visible">
<path d="m1.6094-10.469h3.3438v10.469h-3.3438zm0-4.0781h3.3438v2.7188h-3.3438z"/>
</symbol>
<symbol id="cm" overflow="visible">
<path d="m8.7344-8.9375v-5.6094h3.375v14.547h-3.375v-1.5156c-0.46094 0.61719-0.96875 1.0703-1.5312 1.3594-0.55469 0.28125-1.1953 0.42188-1.9219 0.42188-1.293 0-2.3555-0.50781-3.1875-1.5312-0.82422-1.0312-1.2344-2.3516-1.2344-3.9688 0-1.6133 0.41016-2.9297 1.2344-3.9531 0.83203-1.0312 1.8945-1.5469 3.1875-1.5469 0.72656 0 1.3672 0.14844 1.9219 0.4375 0.5625 0.29297 1.0703 0.74609 1.5312 1.3594zm-2.2031 6.7812c0.71875 0 1.2656-0.25781 1.6406-0.78125 0.375-0.53125 0.5625-1.2969 0.5625-2.2969 0-0.98828-0.1875-1.7422-0.5625-2.2656-0.375-0.53125-0.92188-0.79688-1.6406-0.79688-0.71094 0-1.2578 0.26562-1.6406 0.79688-0.375 0.52344-0.5625 1.2773-0.5625 2.2656 0 1 0.1875 1.7656 0.5625 2.2969 0.38281 0.52344 0.92969 0.78125 1.6406 0.78125z"/>
</symbol>
<symbol id="cg" overflow="visible">
<path d="m11.453-0.82812c-0.71875 0.34375-1.4688 0.60547-2.25 0.78125-0.77344 0.17578-1.5703 0.26562-2.3906 0.26562-1.8555 0-3.3281-0.51953-4.4219-1.5625-1.0859-1.0391-1.625-2.4531-1.625-4.2344 0-1.8008 0.55078-3.2188 1.6562-4.25 1.1133-1.0312 2.6289-1.5469 4.5469-1.5469 0.75 0 1.4609 0.074219 2.1406 0.21875 0.6875 0.13672 1.332 0.33984 1.9375 0.60938v2.3125c-0.625-0.35156-1.25-0.61328-1.875-0.78125-0.61719-0.17578-1.2305-0.26562-1.8438-0.26562-1.1484 0-2.0312 0.32422-2.6562 0.96875-0.61719 0.63672-0.92188 1.5469-0.92188 2.7344s0.29688 2.1055 0.89062 2.75c0.59375 0.63672 1.4414 0.95312 2.5469 0.95312 0.30078 0 0.57812-0.015625 0.82812-0.046875 0.25781-0.039063 0.49219-0.10156 0.70312-0.1875v-2.1719h-1.7656v-1.9219h4.5z"/>
</symbol>
<symbol id="q" overflow="visible">
<path d="m7.5156-6.0938c-0.24219-0.11328-0.47656-0.19531-0.70312-0.25-0.23047-0.050781-0.46484-0.078125-0.70312-0.078125-0.6875 0-1.2188 0.22656-1.5938 0.67188-0.36719 0.4375-0.54688 1.0703-0.54688 1.8906v3.8594h-2.6875v-8.375h2.6875v1.375c0.34375-0.55078 0.73828-0.95312 1.1875-1.2031 0.44531-0.25 0.98438-0.375 1.6094-0.375 0.082031 0 0.17578 0.007813 0.28125 0.015625 0.10156 0 0.25391 0.011719 0.45312 0.03125z"/>
</symbol>
<symbol id="p" overflow="visible">
<path d="m5.0469-3.7656c-0.5625 0-0.98438 0.09375-1.2656 0.28125s-0.42188 0.46484-0.42188 0.82812c0 0.34375 0.11328 0.61719 0.34375 0.8125 0.22656 0.1875 0.53906 0.28125 0.9375 0.28125 0.50781 0 0.9375-0.17969 1.2812-0.54688 0.34375-0.36328 0.51562-0.81641 0.51562-1.3594v-0.29688zm4.0938-1.0156v4.7812h-2.7031v-1.25c-0.36719 0.51172-0.77344 0.88672-1.2188 1.125-0.44922 0.22656-0.99609 0.34375-1.6406 0.34375-0.86719 0-1.5703-0.25-2.1094-0.75-0.54297-0.50781-0.8125-1.1719-0.8125-1.9844 0-0.97656 0.33594-1.6953 1.0156-2.1562 0.67578-0.45703 1.7383-0.6875 3.1875-0.6875h1.5781v-0.21875c0-0.42578-0.16797-0.73438-0.5-0.92188-0.33594-0.19531-0.85547-0.29688-1.5625-0.29688-0.57422 0-1.1094 0.058594-1.6094 0.17188-0.49219 0.11719-0.94922 0.28906-1.375 0.51562v-2.0469c0.57031-0.14453 1.1445-0.25 1.7188-0.3125 0.58203-0.070312 1.1641-0.10938 1.75-0.10938 1.5078 0 2.5977 0.29688 3.2656 0.89062 0.67578 0.59375 1.0156 1.5625 1.0156 2.9062z"/>
</symbol>
<symbol id="o" overflow="visible">
<path d="m6.9844-7.1562v-4.4844h2.7031v11.641h-2.7031v-1.2188c-0.36719 0.5-0.77344 0.86719-1.2188 1.0938-0.4375 0.22656-0.94922 0.34375-1.5312 0.34375-1.043 0-1.8984-0.41016-2.5625-1.2344-0.65625-0.82031-0.98438-1.8789-0.98438-3.1719 0-1.2891 0.32812-2.3438 0.98438-3.1562 0.66406-0.82031 1.5195-1.2344 2.5625-1.2344 0.57031 0 1.082 0.11719 1.5312 0.34375 0.44531 0.23047 0.85156 0.58984 1.2188 1.0781zm-1.7656 5.4219c0.57031 0 1.0078-0.20703 1.3125-0.625 0.30078-0.41406 0.45312-1.0234 0.45312-1.8281 0-0.78906-0.15234-1.3945-0.45312-1.8125-0.30469-0.42578-0.74219-0.64062-1.3125-0.64062-0.5625 0-0.99609 0.21484-1.2969 0.64062-0.30469 0.41797-0.45312 1.0234-0.45312 1.8125 0 0.80469 0.14844 1.4141 0.45312 1.8281 0.30078 0.41797 0.73438 0.625 1.2969 0.625z"/>
</symbol>
<symbol id="t" overflow="visible"></symbol>
<symbol id="i" overflow="visible">
<path d="m9.6562-4.2188v0.76562h-6.2656c0.0625 0.63672 0.28516 1.1094 0.67188 1.4219 0.39453 0.3125 0.94141 0.46875 1.6406 0.46875 0.5625 0 1.1406-0.082031 1.7344-0.25 0.59375-0.16406 1.2031-0.42188 1.8281-0.76562v2.0625c-0.63672 0.24219-1.2734 0.42188-1.9062 0.54688-0.63672 0.125-1.2734 0.1875-1.9062 0.1875-1.5117 0-2.6875-0.38281-3.5312-1.1562-0.84375-0.76953-1.2656-1.8516-1.2656-3.25 0-1.3633 0.41016-2.4375 1.2344-3.2188 0.83203-0.78125 1.9727-1.1719 3.4219-1.1719 1.3125 0 2.3633 0.39844 3.1562 1.1875 0.78906 0.79297 1.1875 1.8516 1.1875 3.1719zm-2.75-0.89062c0-0.50781-0.15234-0.91406-0.45312-1.2188-0.29297-0.3125-0.67969-0.46875-1.1562-0.46875-0.52344 0-0.94531 0.14844-1.2656 0.4375-0.32422 0.29297-0.52734 0.71094-0.60938 1.25z"/>
</symbol>
<symbol id="bw" overflow="visible">
<path d="m0.23438-8.375h2.6719l2.0938 5.7812 2.0781-5.7812h2.6875l-3.2969 8.375h-2.9375z"/>
</symbol>
<symbol id="ad" overflow="visible">
<path d="m5.75-1.7344c0.57031 0 1.0078-0.20703 1.3125-0.625 0.30078-0.41406 0.45312-1.0234 0.45312-1.8281 0-0.78906-0.15234-1.3945-0.45312-1.8125-0.30469-0.42578-0.74219-0.64062-1.3125-0.64062-0.57422 0-1.0156 0.21484-1.3281 0.64062-0.30469 0.41797-0.45312 1.0234-0.45312 1.8125 0 0.79297 0.14844 1.4023 0.45312 1.8281 0.3125 0.41797 0.75391 0.625 1.3281 0.625zm-1.7812-5.4219c0.36328-0.48828 0.76953-0.84766 1.2188-1.0781 0.45703-0.22656 0.97656-0.34375 1.5625-0.34375 1.0312 0 1.875 0.41406 2.5312 1.2344 0.66406 0.8125 1 1.8672 1 3.1562 0 1.293-0.33594 2.3516-1 3.1719-0.65625 0.82422-1.5 1.2344-2.5312 1.2344-0.58594 0-1.1055-0.11719-1.5625-0.34375-0.44922-0.23828-0.85547-0.60156-1.2188-1.0938v1.2188h-2.6875v-11.641h2.6875z"/>
</symbol>
<symbol id="bv" overflow="visible">
<path d="m1.2812-11.641h2.6875v11.641h-2.6875z"/>
</symbol>
<symbol id="ah" overflow="visible">
<path d="m1.2812-8.375h2.6875v8.375h-2.6875zm0-3.2656h2.6875v2.1875h-2.6875z"/>
</symbol>
<symbol id="j" overflow="visible">
<path d="m9.7188-5.1094v5.1094h-2.7031v-3.9062c0-0.71875-0.015625-1.2109-0.046875-1.4844-0.03125-0.28125-0.089844-0.48828-0.17188-0.625-0.10547-0.16406-0.24609-0.29688-0.42188-0.39062-0.17969-0.10156-0.38281-0.15625-0.60938-0.15625-0.5625 0-1.0078 0.21875-1.3281 0.65625-0.3125 0.42969-0.46875 1.0234-0.46875 1.7812v4.125h-2.6875v-8.375h2.6875v1.2188c0.40625-0.48828 0.83203-0.84766 1.2812-1.0781 0.45703-0.22656 0.96094-0.34375 1.5156-0.34375 0.95703 0 1.6875 0.29688 2.1875 0.89062 0.50781 0.59375 0.76562 1.4531 0.76562 2.5781z"/>
</symbol>
<symbol id="cf" overflow="visible">
<path d="m5.875-6.8438c0.45703 0 0.80078-0.097656 1.0312-0.29688 0.23828-0.20703 0.35938-0.50391 0.35938-0.89062 0-0.38281-0.12109-0.67578-0.35938-0.875-0.23047-0.20703-0.57422-0.3125-1.0312-0.3125h-1.5938v2.375zm0.10938 4.8906c0.57031 0 1.0039-0.11719 1.2969-0.35938 0.28906-0.25 0.4375-0.625 0.4375-1.125 0-0.47656-0.14844-0.83594-0.4375-1.0781-0.28125-0.25-0.71484-0.375-1.2969-0.375h-1.7031v2.9375zm2.6719-4.0312c0.625 0.1875 1.1016 0.52344 1.4375 1 0.34375 0.48047 0.51562 1.0742 0.51562 1.7812 0 1.0742-0.36719 1.875-1.0938 2.4062-0.73047 0.53125-1.8398 0.79688-3.3281 0.79688h-4.7812v-11.172h4.3281c1.5508 0 2.6758 0.23438 3.375 0.70312 0.69531 0.46875 1.0469 1.2188 1.0469 2.25 0 0.54297-0.13281 1.0078-0.39062 1.3906-0.25 0.38672-0.62109 0.66797-1.1094 0.84375z"/>
</symbol>
<symbol id="ag" overflow="visible">
<path d="m9.7188-5.1094v5.1094h-2.7031v-3.8906c0-0.72656-0.015625-1.2266-0.046875-1.5-0.03125-0.28125-0.089844-0.48828-0.17188-0.625-0.10547-0.16406-0.24609-0.29688-0.42188-0.39062-0.17969-0.10156-0.38281-0.15625-0.60938-0.15625-0.5625 0-1.0078 0.21875-1.3281 0.65625-0.3125 0.42969-0.46875 1.0234-0.46875 1.7812v4.125h-2.6875v-11.641h2.6875v4.4844c0.40625-0.48828 0.83203-0.84766 1.2812-1.0781 0.45703-0.22656 0.96094-0.34375 1.5156-0.34375 0.95703 0 1.6875 0.29688 2.1875 0.89062 0.50781 0.59375 0.76562 1.4531 0.76562 2.5781z"/>
</symbol>
<symbol id="af" overflow="visible">
<path d="m1.2031-3.2656v-5.1094h2.6875v0.82812c0 0.46094-0.007813 1.0312-0.015625 1.7188v1.375c0 0.66797 0.015625 1.1523 0.046875 1.4531 0.039063 0.29297 0.10156 0.50781 0.1875 0.64062 0.11328 0.17969 0.25781 0.3125 0.4375 0.40625 0.17578 0.09375 0.37891 0.14062 0.60938 0.14062 0.55078 0 0.98828-0.21094 1.3125-0.64062 0.32031-0.42578 0.48438-1.0234 0.48438-1.7969v-4.125h2.6719v8.375h-2.6719v-1.2188c-0.40625 0.49219-0.83984 0.85547-1.2969 1.0938-0.44922 0.22656-0.94531 0.34375-1.4844 0.34375-0.96875 0-1.7109-0.29688-2.2188-0.89062-0.5-0.59375-0.75-1.457-0.75-2.5938z"/>
</symbol>
<symbol id="ce" overflow="visible">
<path d="m6.9844-1.4219c-0.36719 0.49219-0.77344 0.85156-1.2188 1.0781-0.4375 0.23047-0.94922 0.34375-1.5312 0.34375-1.0312 0-1.8828-0.39844-2.5469-1.2031-0.66797-0.8125-1-1.8359-1-3.0781 0-1.2578 0.33203-2.2852 1-3.0781 0.66406-0.80078 1.5156-1.2031 2.5469-1.2031 0.58203 0 1.0938 0.11719 1.5312 0.34375 0.44531 0.23047 0.85156 0.58984 1.2188 1.0781v-1.2344h2.7031v7.5312c0 1.3438-0.42969 2.3672-1.2812 3.0781-0.85547 0.71875-2.0898 1.0781-3.7031 1.0781-0.52344 0-1.0273-0.042969-1.5156-0.125-0.49219-0.085938-0.98047-0.20312-1.4688-0.35938v-2.0938c0.46875 0.26953 0.92578 0.46875 1.375 0.59375 0.44531 0.13281 0.89844 0.20312 1.3594 0.20312 0.875 0 1.5156-0.19531 1.9219-0.57812 0.40625-0.38672 0.60938-0.98438 0.60938-1.7969zm-1.7656-5.2188c-0.55469 0-0.98438 0.21094-1.2969 0.625-0.30469 0.40625-0.45312 0.98438-0.45312 1.7344 0 0.76172 0.14453 1.3398 0.4375 1.7344 0.30078 0.39844 0.73828 0.59375 1.3125 0.59375 0.5625 0 0.99219-0.20312 1.2969-0.60938 0.3125-0.40625 0.46875-0.97656 0.46875-1.7188 0-0.75-0.15625-1.3281-0.46875-1.7344-0.30469-0.41406-0.73438-0.625-1.2969-0.625z"/>
</symbol>
<symbol id="cd" overflow="visible">
<path d="m0.85938-11.172h9.3906v1.7344l-5.9844 7.2656h6.1562v2.1719h-9.7344v-1.75l6-7.25h-5.8281z"/>
</symbol>
<symbol id="cc" overflow="visible">
<path d="m7.8438-8.125v2.0469c-0.58594-0.23828-1.1406-0.41406-1.6719-0.53125-0.53125-0.125-1.0391-0.1875-1.5156-0.1875-0.5 0-0.875 0.0625-1.125 0.1875s-0.375 0.32031-0.375 0.57812c0 0.21875 0.09375 0.38672 0.28125 0.5 0.1875 0.11719 0.52344 0.19922 1.0156 0.25l0.46875 0.078125c1.3633 0.16797 2.2812 0.45312 2.75 0.85938 0.47656 0.39844 0.71875 1.0234 0.71875 1.875 0 0.89844-0.32812 1.5703-0.98438 2.0156-0.65625 0.44922-1.6406 0.67188-2.9531 0.67188-0.55469 0-1.125-0.046875-1.7188-0.14062-0.58594-0.082031-1.1875-0.21094-1.8125-0.39062v-2.0312c0.53125 0.26172 1.0781 0.46094 1.6406 0.59375 0.5625 0.125 1.1328 0.1875 1.7188 0.1875 0.51953 0 0.91016-0.070312 1.1719-0.21875 0.26953-0.14453 0.40625-0.35938 0.40625-0.64062 0-0.23828-0.09375-0.41406-0.28125-0.53125-0.17969-0.125-0.54297-0.21875-1.0938-0.28125l-0.46875-0.0625c-1.1875-0.14453-2.0234-0.42188-2.5-0.82812-0.48047-0.40625-0.71875-1.0195-0.71875-1.8438 0-0.88281 0.30078-1.5391 0.90625-1.9688 0.61328-0.42578 1.5469-0.64062 2.7969-0.64062 0.5 0 1.0195 0.039063 1.5625 0.10938 0.53906 0.074219 1.1328 0.1875 1.7812 0.34375z"/>
</symbol>
<symbol id="ae" overflow="visible">
<path d="m4.2188-10.766v2.3906h2.75v1.9062h-2.75v3.5625c0 0.38672 0.070312 0.64844 0.21875 0.78125 0.15625 0.13672 0.46094 0.20312 0.92188 0.20312h1.3906v1.9219h-2.2969c-1.0625 0-1.8203-0.21875-2.2656-0.65625-0.4375-0.44531-0.65625-1.1953-0.65625-2.25v-3.5625h-1.3281v-1.9062h1.3281v-2.3906z"/>
</symbol>
<symbol id="cb" overflow="visible">
<path d="m8.0625-8.125v2.1875c-0.36719-0.25-0.73047-0.42969-1.0938-0.54688-0.36719-0.125-0.74609-0.1875-1.1406-0.1875-0.75 0-1.3359 0.21875-1.75 0.65625-0.41797 0.4375-0.625 1.0469-0.625 1.8281s0.20703 1.3906 0.625 1.8281c0.41406 0.4375 1 0.65625 1.75 0.65625 0.41406 0 0.8125-0.0625 1.1875-0.1875s0.72266-0.30469 1.0469-0.54688v2.1875c-0.41797 0.15625-0.84375 0.26953-1.2812 0.34375-0.42969 0.082031-0.85938 0.125-1.2969 0.125-1.5117 0-2.6953-0.38281-3.5469-1.1562-0.85547-0.78125-1.2812-1.8633-1.2812-3.25 0-1.375 0.42578-2.4453 1.2812-3.2188 0.85156-0.78125 2.0352-1.1719 3.5469-1.1719 0.4375 0 0.86719 0.039063 1.2969 0.10938 0.42578 0.074219 0.85156 0.1875 1.2812 0.34375z"/>
</symbol>
<symbol id="ca" overflow="visible">
<path d="m1.7969-1.9844h2.5469v-7.2344l-2.6094 0.54688v-1.9688l2.5938-0.53125h2.7344v9.1875h2.5469v1.9844h-7.8125z"/>
</symbol>
<symbol id="bz" overflow="visible">
<path d="m4.4219-2.125h4.9062v2.125h-8.1094v-2.125l4.0781-3.5938c0.36328-0.33203 0.62891-0.65625 0.79688-0.96875 0.17578-0.3125 0.26562-0.64062 0.26562-0.98438 0-0.51953-0.17969-0.9375-0.53125-1.25-0.34375-0.32031-0.80859-0.48438-1.3906-0.48438-0.46094 0-0.95312 0.10156-1.4844 0.29688-0.53125 0.1875-1.1016 0.46875-1.7031 0.84375v-2.4531c0.64453-0.21875 1.2812-0.37891 1.9062-0.48438 0.63281-0.11328 1.2578-0.17188 1.875-0.17188 1.332 0 2.3672 0.29688 3.1094 0.89062 0.75 0.58594 1.125 1.4023 1.125 2.4531 0 0.60547-0.16406 1.1719-0.48438 1.7031-0.3125 0.53125-0.97656 1.2344-1.9844 2.1094z"/>
</symbol>
<symbol id="by" overflow="visible">
<path d="m1.4062-11.172h3.6719l2.5469 5.9844 2.5469-5.9844h3.6719v11.172h-2.7344v-8.1719l-2.5625 6.0312h-1.8281l-2.5781-6.0312v8.1719h-2.7344z"/>
</symbol>
<symbol id="bx" overflow="visible">
<path d="m5.2812-6.6719c-0.59375 0-1.0469 0.21484-1.3594 0.64062-0.3125 0.42969-0.46875 1.043-0.46875 1.8438 0 0.80469 0.15625 1.418 0.46875 1.8438 0.3125 0.42969 0.76562 0.64062 1.3594 0.64062 0.58203 0 1.0234-0.21094 1.3281-0.64062 0.3125-0.42578 0.46875-1.0391 0.46875-1.8438 0-0.80078-0.15625-1.4141-0.46875-1.8438-0.30469-0.42578-0.74609-0.64062-1.3281-0.64062zm0-1.9062c1.4375 0 2.5625 0.39062 3.375 1.1719 0.8125 0.77344 1.2188 1.8438 1.2188 3.2188s-0.40625 2.4531-1.2188 3.2344-1.9375 1.1719-3.375 1.1719c-1.4492 0-2.5859-0.39062-3.4062-1.1719-0.8125-0.78125-1.2188-1.8594-1.2188-3.2344s0.40625-2.4453 1.2188-3.2188c0.82031-0.78125 1.957-1.1719 3.4062-1.1719z"/>
</symbol>
<symbol id="g" overflow="visible">
<path d="m6.7812-8.1406v1.3125c-0.38672-0.19531-0.78906-0.34766-1.2031-0.45312-0.41797-0.10156-0.85156-0.15625-1.2969-0.15625-0.6875 0-1.2031 0.10938-1.5469 0.32812-0.34375 0.21094-0.51562 0.52344-0.51562 0.9375 0 0.3125 0.11719 0.5625 0.35938 0.75 0.25 0.17969 0.74219 0.35156 1.4844 0.51562l0.46875 0.10938c0.97656 0.21094 1.6719 0.50781 2.0781 0.89062 0.41406 0.375 0.625 0.90625 0.625 1.5938 0 0.78125-0.30859 1.4023-0.92188 1.8594-0.61719 0.44922-1.4648 0.67188-2.5469 0.67188-0.44922 0-0.91797-0.046875-1.4062-0.14062-0.48047-0.082031-0.99219-0.21094-1.5312-0.39062v-1.4219c0.50781 0.27344 1.0078 0.47656 1.5 0.60938 0.5 0.125 0.98828 0.1875 1.4688 0.1875 0.65625 0 1.1562-0.10938 1.5-0.32812 0.35156-0.22656 0.53125-0.53906 0.53125-0.9375 0-0.375-0.13281-0.66016-0.39062-0.85938-0.25-0.20703-0.80469-0.39844-1.6562-0.57812l-0.46875-0.10938c-0.85547-0.1875-1.4766-0.46094-1.8594-0.82812-0.375-0.375-0.5625-0.88281-0.5625-1.5312 0-0.78906 0.27344-1.3984 0.82812-1.8281 0.5625-0.42578 1.3594-0.64062 2.3906-0.64062 0.50781 0 0.98828 0.039063 1.4375 0.10938 0.44531 0.074219 0.85938 0.18359 1.2344 0.32812z"/>
</symbol>
<symbol id="f" overflow="visible">
<path d="m7.4844-8.0625v1.2969c-0.39844-0.21875-0.79297-0.37891-1.1875-0.48438-0.38672-0.11328-0.77734-0.17188-1.1719-0.17188-0.89844 0-1.5938 0.28906-2.0938 0.85938-0.49219 0.5625-0.73438 1.3555-0.73438 2.375 0 1.0234 0.24219 1.8203 0.73438 2.3906 0.5 0.5625 1.1953 0.84375 2.0938 0.84375 0.39453 0 0.78516-0.050781 1.1719-0.15625 0.39453-0.10156 0.78906-0.26562 1.1875-0.48438v1.2656c-0.38672 0.1875-0.78906 0.32422-1.2031 0.40625-0.40625 0.09375-0.84375 0.14062-1.3125 0.14062-1.2617 0-2.2656-0.39453-3.0156-1.1875-0.74219-0.78906-1.1094-1.8633-1.1094-3.2188 0-1.3633 0.375-2.4375 1.125-3.2188s1.7812-1.1719 3.0938-1.1719c0.42578 0 0.83594 0.042969 1.2344 0.125 0.40625 0.085937 0.80078 0.21484 1.1875 0.39062z"/>
</symbol>
<symbol id="e" overflow="visible">
<path d="m8.4062-5.0625v5.0625h-1.375v-5.0156c0-0.78906-0.15625-1.3828-0.46875-1.7812-0.30469-0.39453-0.76562-0.59375-1.3906-0.59375-0.74219 0-1.3242 0.24219-1.75 0.71875-0.42969 0.46875-0.64062 1.1172-0.64062 1.9375v4.7344h-1.3906v-11.641h1.3906v4.5625c0.32031-0.50781 0.70703-0.88281 1.1562-1.125 0.44531-0.25 0.96094-0.375 1.5469-0.375 0.96875 0 1.6953 0.29688 2.1875 0.89062 0.48828 0.59375 0.73438 1.4688 0.73438 2.625z"/>
</symbol>
<symbol id="z" overflow="visible">
<path d="m0.64062-8.375h1.375l1.7344 6.5312 1.7031-6.5312h1.625l1.7188 6.5312 1.7188-6.5312h1.375l-2.1875 8.375h-1.625l-1.8125-6.875-1.8125 6.875h-1.6094z"/>
</symbol>
<symbol id="h" overflow="visible">
<path d="m8.6094-4.5312v0.67188h-6.3281c0.0625 0.94922 0.34766 1.6719 0.85938 2.1719 0.50781 0.49219 1.2227 0.73438 2.1406 0.73438 0.51953 0 1.0312-0.0625 1.5312-0.1875 0.5-0.13281 0.99219-0.33203 1.4844-0.59375v1.3125c-0.5 0.21094-1.0117 0.36719-1.5312 0.46875-0.51172 0.11328-1.0391 0.17188-1.5781 0.17188-1.3359 0-2.3906-0.39062-3.1719-1.1719s-1.1719-1.832-1.1719-3.1562c0-1.375 0.36719-2.4609 1.1094-3.2656 0.73828-0.80078 1.7383-1.2031 3-1.2031 1.125 0 2.0156 0.36719 2.6719 1.0938 0.65625 0.71875 0.98438 1.7031 0.98438 2.9531zm-1.375-0.40625c-0.011719-0.75-0.22656-1.3477-0.64062-1.7969-0.40625-0.45703-0.94922-0.6875-1.625-0.6875-0.77344 0-1.3867 0.21875-1.8438 0.65625-0.46094 0.4375-0.72656 1.0469-0.79688 1.8281z"/>
</symbol>
<symbol id="k" overflow="visible">
<path d="m6.2969-7.0938c-0.15625-0.09375-0.32422-0.16016-0.5-0.20312-0.17969-0.039063-0.38281-0.0625-0.60938-0.0625-0.77344 0-1.3672 0.25781-1.7812 0.76562-0.41797 0.5-0.625 1.2266-0.625 2.1719v4.4219h-1.3906v-8.375h1.3906v1.2969c0.28125-0.50781 0.65625-0.88281 1.125-1.125 0.46875-0.25 1.0312-0.375 1.6875-0.375 0.09375 0 0.19531 0.007813 0.3125 0.015625 0.11328 0.011719 0.24219 0.027344 0.39062 0.046875z"/>
</symbol>
<symbol id="bi" overflow="visible">
<path d="m1.4375-11.641h1.3906v11.641h-1.3906z"/>
</symbol>
<symbol id="d" overflow="visible">
<path d="m1.4375-8.375h1.3906v8.375h-1.3906zm0-3.2656h1.3906v1.7344h-1.3906z"/>
</symbol>
<symbol id="a" overflow="visible">
<path d="m2.8125-10.766v2.3906h2.8281v1.0625h-2.8281v4.5469c0 0.6875 0.09375 1.1328 0.28125 1.3281 0.1875 0.1875 0.56641 0.28125 1.1406 0.28125h1.4062v1.1562h-1.4062c-1.0625 0-1.7969-0.19531-2.2031-0.59375-0.40625-0.39453-0.60938-1.1172-0.60938-2.1719v-4.5469h-1.0156v-1.0625h1.0156v-2.3906z"/>
</symbol>
<symbol id="ac" overflow="visible">
<path d="m1.3906-11.641h1.3906v6.875l4.1094-3.6094h1.75l-4.4375 3.9219 4.625 4.4531h-1.7969l-4.25-4.0938v4.0938h-1.3906z"/>
</symbol>
<symbol id="n" overflow="visible">
<path d="m8.4062-5.0625v5.0625h-1.375v-5.0156c0-0.78906-0.15625-1.3828-0.46875-1.7812-0.30469-0.39453-0.76562-0.59375-1.3906-0.59375-0.74219 0-1.3242 0.24219-1.75 0.71875-0.42969 0.46875-0.64062 1.1172-0.64062 1.9375v4.7344h-1.3906v-8.375h1.3906v1.2969c0.32031-0.50781 0.70703-0.88281 1.1562-1.125 0.44531-0.25 0.96094-0.375 1.5469-0.375 0.96875 0 1.6953 0.29688 2.1875 0.89062 0.48828 0.59375 0.73438 1.4688 0.73438 2.625z"/>
</symbol>
<symbol id="bu" overflow="visible">
<path d="m0.45312-8.375h1.4688l2.6094 7.0312 2.625-7.0312h1.4531l-3.1406 8.375h-1.875z"/>
</symbol>
<symbol id="ab" overflow="visible">
<path d="m4.6875-7.4219c-0.74219 0-1.3242 0.29297-1.75 0.875-0.42969 0.57422-0.64062 1.3594-0.64062 2.3594 0 1.0117 0.21094 1.8047 0.64062 2.375 0.42578 0.57422 1.0078 0.85938 1.75 0.85938 0.73828 0 1.3203-0.28516 1.75-0.85938 0.42578-0.58203 0.64062-1.375 0.64062-2.375 0-0.98828-0.21484-1.7734-0.64062-2.3594-0.42969-0.58203-1.0117-0.875-1.75-0.875zm0-1.1562c1.1953 0 2.1406 0.39062 2.8281 1.1719 0.6875 0.77344 1.0312 1.8438 1.0312 3.2188s-0.34375 2.4531-1.0312 3.2344-1.6328 1.1719-2.8281 1.1719c-1.1992 0-2.1406-0.39062-2.8281-1.1719-0.67969-0.78125-1.0156-1.8594-1.0156-3.2344s0.33594-2.4453 1.0156-3.2188c0.6875-0.78125 1.6289-1.1719 2.8281-1.1719z"/>
</symbol>
<symbol id="bt" overflow="visible">
<path d="m7.4688-4.1875c0-1.0078-0.21094-1.8008-0.625-2.375-0.41797-0.58203-0.99219-0.875-1.7188-0.875-0.73047 0-1.3047 0.29297-1.7188 0.875-0.41797 0.57422-0.625 1.3672-0.625 2.375 0 1.0117 0.20703 1.8086 0.625 2.3906 0.41406 0.57422 0.98828 0.85938 1.7188 0.85938 0.72656 0 1.3008-0.28516 1.7188-0.85938 0.41406-0.58203 0.625-1.3789 0.625-2.3906zm-4.6875-2.9219c0.28125-0.5 0.64062-0.86719 1.0781-1.1094 0.44531-0.23828 0.97656-0.35938 1.5938-0.35938 1.0195 0 1.8477 0.40625 2.4844 1.2188 0.63281 0.80469 0.95312 1.8594 0.95312 3.1719 0 1.3242-0.32031 2.3906-0.95312 3.2031-0.63672 0.80469-1.4648 1.2031-2.4844 1.2031-0.61719 0-1.1484-0.12109-1.5938-0.35938-0.4375-0.25-0.79688-0.61719-1.0781-1.1094v1.25h-1.3906v-11.641h1.3906z"/>
</symbol>
<symbol id="bs" overflow="visible">
<path d="m0.51562-11.172h1.5156l2.3594 9.4375 2.3438-9.4375h1.6875l2.3594 9.4375 2.3438-9.4375h1.5312l-2.8125 11.172h-1.8906l-2.3594-9.7031-2.3906 9.7031h-1.8906z"/>
</symbol>
<symbol id="c" overflow="visible">
<path d="m5.25-4.2188c-1.1172 0-1.8867 0.13281-2.3125 0.39062-0.42969 0.25-0.64062 0.68359-0.64062 1.2969 0 0.49219 0.16016 0.88281 0.48438 1.1719 0.32031 0.28125 0.75781 0.42188 1.3125 0.42188 0.75781 0 1.3672-0.26953 1.8281-0.8125 0.46875-0.53906 0.70312-1.2578 0.70312-2.1562v-0.3125zm2.75-0.5625v4.7812h-1.375v-1.2656c-0.3125 0.5-0.70312 0.875-1.1719 1.125-0.46875 0.23828-1.043 0.35938-1.7188 0.35938-0.86719 0-1.5547-0.23828-2.0625-0.71875-0.5-0.48828-0.75-1.1328-0.75-1.9375 0-0.94531 0.3125-1.6602 0.9375-2.1406 0.63281-0.47656 1.5781-0.71875 2.8281-0.71875h1.9375v-0.125c0-0.63281-0.21094-1.125-0.625-1.4688-0.41797-0.35156-1-0.53125-1.75-0.53125-0.48047 0-0.94922 0.058594-1.4062 0.17188-0.46094 0.11719-0.89844 0.28906-1.3125 0.51562v-1.2656c0.50781-0.19531 1-0.34375 1.4688-0.4375 0.47656-0.09375 0.94141-0.14062 1.3906-0.14062 1.207 0 2.1094 0.3125 2.7031 0.9375 0.60156 0.625 0.90625 1.5781 0.90625 2.8594z"/>
</symbol>
<symbol id="m" overflow="visible">
<path d="m7.9688-6.7656c0.34375-0.625 0.75391-1.082 1.2344-1.375 0.47656-0.28906 1.0391-0.4375 1.6875-0.4375 0.875 0 1.5469 0.30859 2.0156 0.92188 0.47656 0.60547 0.71875 1.4688 0.71875 2.5938v5.0625h-1.375v-5.0156c0-0.80078-0.14844-1.3945-0.4375-1.7812-0.28125-0.39453-0.71484-0.59375-1.2969-0.59375-0.71094 0-1.2734 0.24219-1.6875 0.71875-0.41797 0.46875-0.625 1.1172-0.625 1.9375v4.7344h-1.3906v-5.0156c0-0.8125-0.14062-1.4102-0.42188-1.7969-0.28125-0.38281-0.71875-0.57812-1.3125-0.57812-0.71094 0-1.2734 0.24219-1.6875 0.71875-0.40625 0.48047-0.60938 1.125-0.60938 1.9375v4.7344h-1.3906v-8.375h1.3906v1.2969c0.3125-0.50781 0.6875-0.88281 1.125-1.125 0.4375-0.25 0.95703-0.375 1.5625-0.375 0.61328 0 1.1328 0.15625 1.5625 0.46875 0.42578 0.30469 0.73828 0.75 0.9375 1.3438z"/>
</symbol>
<symbol id="br" overflow="visible">
<path d="m3.0156-5.3438v4.0938h2.4219c0.8125 0 1.4141-0.16406 1.8125-0.5 0.39453-0.33203 0.59375-0.84766 0.59375-1.5469 0-0.69531-0.19922-1.2109-0.59375-1.5469-0.39844-0.33203-1-0.5-1.8125-0.5zm0-4.5938v3.375h2.2344c0.73828 0 1.2891-0.13281 1.6562-0.40625 0.36328-0.28125 0.54688-0.70703 0.54688-1.2812 0-0.5625-0.18359-0.98438-0.54688-1.2656-0.36719-0.28125-0.91797-0.42188-1.6562-0.42188zm-1.5156-1.2344h3.8594c1.1562 0 2.0469 0.24219 2.6719 0.71875 0.625 0.48047 0.9375 1.1641 0.9375 2.0469 0 0.67969-0.16406 1.2188-0.48438 1.625-0.3125 0.40625-0.78125 0.65625-1.4062 0.75 0.75 0.16797 1.3281 0.50781 1.7344 1.0156 0.41406 0.5 0.625 1.1328 0.625 1.8906 0 1-0.34375 1.7734-1.0312 2.3125-0.67969 0.54297-1.6406 0.8125-2.8906 0.8125h-4.0156z"/>
</symbol>
<symbol id="l" overflow="visible">
<path d="m1.2969-3.3125v-5.0625h1.375v5.0156c0 0.79297 0.15625 1.3867 0.46875 1.7812 0.3125 0.39844 0.77344 0.59375 1.3906 0.59375 0.75 0 1.3359-0.23438 1.7656-0.70312 0.4375-0.47656 0.65625-1.125 0.65625-1.9375v-4.75h1.375v8.375h-1.375v-1.2812c-0.34375 0.5-0.73438 0.875-1.1719 1.125s-0.94922 0.375-1.5312 0.375c-0.96875 0-1.7031-0.29688-2.2031-0.89062-0.5-0.60156-0.75-1.4844-0.75-2.6406z"/>
</symbol>
<symbol id="b" overflow="visible">
<path d="m4.875-10.172c-0.78125 0-1.3711 0.38672-1.7656 1.1562-0.38672 0.76172-0.57812 1.9062-0.57812 3.4375s0.19141 2.6836 0.57812 3.4531c0.39453 0.76172 0.98438 1.1406 1.7656 1.1406s1.3633-0.37891 1.75-1.1406c0.39453-0.76953 0.59375-1.9219 0.59375-3.4531s-0.19922-2.6758-0.59375-3.4375c-0.38672-0.76953-0.96875-1.1562-1.75-1.1562zm0-1.2031c1.25 0 2.2031 0.49609 2.8594 1.4844 0.66406 0.99219 1 2.4297 1 4.3125 0 1.8867-0.33594 3.3242-1 4.3125-0.65625 0.99219-1.6094 1.4844-2.8594 1.4844s-2.2109-0.49219-2.875-1.4844c-0.65625-0.98828-0.98438-2.4258-0.98438-4.3125 0-1.8828 0.32812-3.3203 0.98438-4.3125 0.66406-0.98828 1.625-1.4844 2.875-1.4844z"/>
</symbol>
<symbol id="aa" overflow="visible">
<path d="m1.9062-1.2656h2.4688v-8.5312l-2.6875 0.53125v-1.375l2.6719-0.53125h1.5156v9.9062h2.4688v1.2656h-6.4375z"/>
</symbol>
<symbol id="bq" overflow="visible">
<path d="m2.9375-1.2656h5.2812v1.2656h-7.0938v-1.2656c0.57031-0.59375 1.3516-1.3906 2.3438-2.3906 0.98828-1.0078 1.6133-1.6562 1.875-1.9375 0.47656-0.55078 0.8125-1.0156 1-1.3906 0.19531-0.375 0.29688-0.74219 0.29688-1.1094 0-0.59375-0.21094-1.0781-0.625-1.4531-0.41797-0.375-0.96094-0.5625-1.625-0.5625-0.48047 0-0.98438 0.085937-1.5156 0.25-0.52344 0.16797-1.0781 0.41797-1.6719 0.75v-1.5312c0.60156-0.23828 1.1719-0.42188 1.7031-0.54688s1.0156-0.1875 1.4531-0.1875c1.1562 0 2.0781 0.29297 2.7656 0.875 0.6875 0.57422 1.0312 1.3438 1.0312 2.3125 0 0.46094-0.089844 0.89844-0.26562 1.3125-0.16797 0.40625-0.48047 0.89062-0.9375 1.4531-0.125 0.14844-0.52344 0.5625-1.1875 1.25-0.66797 0.6875-1.6094 1.6562-2.8281 2.9062z"/>
</symbol>
<symbol id="bp" overflow="visible">
<path d="m6.2188-6.0312c0.72656 0.15625 1.2969 0.48047 1.7031 0.96875 0.40625 0.49219 0.60938 1.0938 0.60938 1.8125 0 1.1055-0.38281 1.9609-1.1406 2.5625-0.76172 0.60547-1.8398 0.90625-3.2344 0.90625-0.46875 0-0.95312-0.046875-1.4531-0.14062s-1.0117-0.23438-1.5312-0.42188v-1.4531c0.41406 0.25 0.875 0.4375 1.375 0.5625 0.5 0.11719 1.0195 0.17188 1.5625 0.17188 0.94531 0 1.6641-0.17969 2.1562-0.54688 0.5-0.375 0.75-0.92188 0.75-1.6406 0-0.65625-0.23047-1.1641-0.6875-1.5312-0.46094-0.375-1.1016-0.5625-1.9219-0.5625h-1.3125v-1.25h1.3594c0.75 0 1.3203-0.14453 1.7188-0.4375 0.39453-0.30078 0.59375-0.73438 0.59375-1.2969 0-0.57031-0.21094-1.0078-0.625-1.3125-0.40625-0.3125-0.98438-0.46875-1.7344-0.46875-0.41797 0-0.86719 0.046875-1.3438 0.14062-0.46875 0.09375-0.99219 0.23438-1.5625 0.42188v-1.3438c0.57031-0.16406 1.1094-0.28516 1.6094-0.35938 0.50781-0.082031 0.98438-0.125 1.4219-0.125 1.1445 0 2.0508 0.26172 2.7188 0.78125 0.67578 0.52344 1.0156 1.2266 1.0156 2.1094 0 0.625-0.17969 1.1523-0.53125 1.5781-0.35547 0.42969-0.85938 0.71875-1.5156 0.875z"/>
</symbol>
<symbol id="bo" overflow="visible">
<path d="m5.7969-9.8594-3.8281 5.9688h3.8281zm-0.40625-1.3125h1.9062v7.2812h1.5938v1.25h-1.5938v2.6406h-1.5v-2.6406h-5.0469v-1.4531z"/>
</symbol>
<symbol id="bn" overflow="visible">
<path d="m1.6562-11.172h5.9375v1.2656h-4.5625v2.75c0.22656-0.082031 0.45312-0.14062 0.67188-0.17188 0.21875-0.039063 0.4375-0.0625 0.65625-0.0625 1.25 0 2.2344 0.34375 2.9531 1.0312 0.72656 0.67969 1.0938 1.6055 1.0938 2.7812 0 1.1992-0.375 2.1328-1.125 2.7969-0.74219 0.66797-1.793 1-3.1562 1-0.46875 0-0.94922-0.042969-1.4375-0.125-0.49219-0.074219-0.99219-0.19141-1.5-0.35938v-1.5156c0.44531 0.24219 0.91016 0.42188 1.3906 0.54688 0.47656 0.11719 0.98438 0.17188 1.5156 0.17188 0.86328 0 1.5469-0.22266 2.0469-0.67188 0.50781-0.45703 0.76562-1.0703 0.76562-1.8438 0-0.78125-0.25781-1.3945-0.76562-1.8438-0.5-0.45703-1.1836-0.6875-2.0469-0.6875-0.40625 0-0.8125 0.046875-1.2188 0.14062-0.39844 0.085938-0.80469 0.21875-1.2188 0.40625z"/>
</symbol>
<symbol id="bm" overflow="visible">
<path d="m5.0625-6.1875c-0.67969 0-1.2148 0.23438-1.6094 0.70312-0.39844 0.46094-0.59375 1.0938-0.59375 1.9062 0 0.80469 0.19531 1.4375 0.59375 1.9062 0.39453 0.46094 0.92969 0.6875 1.6094 0.6875 0.67578 0 1.2109-0.22656 1.6094-0.6875 0.39453-0.46875 0.59375-1.1016 0.59375-1.9062 0-0.8125-0.19922-1.4453-0.59375-1.9062-0.39844-0.46875-0.93359-0.70312-1.6094-0.70312zm3-4.7344v1.375c-0.38672-0.17578-0.77344-0.3125-1.1562-0.40625-0.38672-0.10156-0.76562-0.15625-1.1406-0.15625-1 0-1.7656 0.33984-2.2969 1.0156-0.52344 0.67969-0.82031 1.6953-0.89062 3.0469 0.28906-0.42578 0.65625-0.75391 1.0938-0.98438 0.44531-0.23828 0.94141-0.35938 1.4844-0.35938 1.1133 0 1.9922 0.34375 2.6406 1.0312 0.65625 0.67969 0.98438 1.6055 0.98438 2.7812 0 1.1484-0.33984 2.0703-1.0156 2.7656-0.67969 0.6875-1.5781 1.0312-2.7031 1.0312-1.293 0-2.2812-0.49219-2.9688-1.4844-0.6875-0.98828-1.0312-2.4258-1.0312-4.3125 0-1.7578 0.41406-3.1641 1.25-4.2188 0.84375-1.0508 1.9727-1.5781 3.3906-1.5781 0.375 0 0.75391 0.039062 1.1406 0.10938 0.39453 0.074219 0.80078 0.1875 1.2188 0.34375z"/>
</symbol>
<symbol id="bl" overflow="visible">
<path d="m1.25-11.172h7.1875v0.64062l-4.0469 10.531h-1.5781l3.8125-9.9062h-5.375z"/>
</symbol>
<symbol id="bk" overflow="visible">
<path d="m4.875-5.3125c-0.71875 0-1.2891 0.19531-1.7031 0.57812-0.40625 0.38672-0.60938 0.91797-0.60938 1.5938 0 0.66797 0.20312 1.1953 0.60938 1.5781 0.41406 0.38672 0.98438 0.57812 1.7031 0.57812s1.2812-0.19141 1.6875-0.57812c0.41406-0.38281 0.625-0.91016 0.625-1.5781 0-0.67578-0.21094-1.207-0.625-1.5938-0.40625-0.38281-0.96875-0.57812-1.6875-0.57812zm-1.5156-0.64062c-0.64844-0.15625-1.1523-0.45312-1.5156-0.89062-0.36719-0.44531-0.54688-0.99219-0.54688-1.6406 0-0.88281 0.31641-1.5859 0.95312-2.1094 0.63281-0.51953 1.5078-0.78125 2.625-0.78125 1.1133 0 1.9844 0.26172 2.6094 0.78125 0.63281 0.52344 0.95312 1.2266 0.95312 2.1094 0 0.64844-0.18359 1.1953-0.54688 1.6406-0.35547 0.4375-0.85547 0.73438-1.5 0.89062 0.72656 0.16797 1.2969 0.5 1.7031 1 0.40625 0.49219 0.60938 1.0938 0.60938 1.8125 0 1.0859-0.33594 1.918-1 2.5-0.65625 0.57422-1.6016 0.85938-2.8281 0.85938-1.2305 0-2.1797-0.28516-2.8438-0.85938-0.65625-0.58203-0.98438-1.4141-0.98438-2.5 0-0.71875 0.20312-1.3203 0.60938-1.8125 0.40625-0.5 0.97266-0.83203 1.7031-1zm-0.54688-2.3906c0 0.58594 0.17578 1.0391 0.53125 1.3594 0.36328 0.32422 0.875 0.48438 1.5312 0.48438 0.64453 0 1.1484-0.16016 1.5156-0.48438 0.375-0.32031 0.5625-0.77344 0.5625-1.3594 0-0.57031-0.1875-1.0195-0.5625-1.3438-0.36719-0.32031-0.87109-0.48438-1.5156-0.48438-0.65625 0-1.168 0.16406-1.5312 0.48438-0.35547 0.32422-0.53125 0.77344-0.53125 1.3438z"/>
</symbol>
<symbol id="bj" overflow="visible">
<path d="m1.6875-0.23438v-1.375c0.375 0.17969 0.75391 0.3125 1.1406 0.40625 0.39453 0.09375 0.78125 0.14062 1.1562 0.14062 1 0 1.7578-0.33203 2.2812-1 0.53125-0.66406 0.83203-1.6875 0.90625-3.0625-0.29297 0.4375-0.66406 0.77344-1.1094 1-0.4375 0.23047-0.92969 0.34375-1.4688 0.34375-1.1172 0-2-0.33594-2.6562-1.0156-0.64844-0.67578-0.96875-1.6016-0.96875-2.7812 0-1.1445 0.33594-2.0625 1.0156-2.75 0.67578-0.69531 1.5781-1.0469 2.7031-1.0469 1.2891 0 2.2734 0.49609 2.9531 1.4844 0.6875 0.99219 1.0312 2.4297 1.0312 4.3125 0 1.7617-0.41797 3.168-1.25 4.2188-0.83594 1.0547-1.9609 1.5781-3.375 1.5781-0.375 0-0.76172-0.039062-1.1562-0.10938-0.38672-0.074219-0.78906-0.1875-1.2031-0.34375zm3-4.7344c0.67578 0 1.2109-0.22656 1.6094-0.6875 0.40625-0.46875 0.60938-1.1094 0.60938-1.9219 0-0.80078-0.20312-1.4297-0.60938-1.8906-0.39844-0.46875-0.93359-0.70312-1.6094-0.70312-0.67969 0-1.2148 0.23438-1.6094 0.70312-0.39844 0.46094-0.59375 1.0898-0.59375 1.8906 0 0.8125 0.19531 1.4531 0.59375 1.9219 0.39453 0.46094 0.92969 0.6875 1.6094 0.6875z"/>
</symbol>
<clipPath id="ds">
<rect width="111" height="118"/>
</clipPath>
<g id="ap" clip-path="url(#ds)">
<path d="m0 108.17h111v9.832h-111z" fill="#999"/>
<path d="m0 98.332h111v9.8359h-111z" fill="#f9f9f9"/>
<path d="m0 88.5h111v9.832h-111z" fill="#999"/>
<path d="m0 78.668h111v9.832h-111z" fill="#f9f9f9"/>
<path d="m0 68.832h111v9.8359h-111z" fill="#999"/>
<path d="m0 59h111v9.832h-111z" fill="#f9f9f9"/>
<path d="m0 49.168h111v9.832h-111z" fill="#999"/>
<path d="m0 39.332h111v9.8359h-111z" fill="#f9f9f9"/>
<path d="m0 29.5h111v9.832h-111z" fill="#999"/>
<path d="m0 19.668h111v9.832h-111z" fill="#f9f9f9"/>
<path d="m0 9.832h111v9.8359h-111z" fill="#999"/>
<path d="m0 0h111v9.832h-111z" fill="#f9f9f9"/>
</g>
<pattern id="bh" width="111" height="118" patternTransform="matrix(.51278 -.51278 .10081 .10081 223.7 -131.77)" patternUnits="userSpaceOnUse">
<use xlink:href="#ap"/>
</pattern>
<clipPath id="dq">
<rect width="113" height="120"/>
</clipPath>
<g id="ao" clip-path="url(#dq)">
<path d="m0 110h113v10h-113z" fill="#666"/>
<path d="m0 100h113v10h-113z" fill="#333"/>
<path d="m0 90h113v10h-113z" fill="#666"/>
<path d="m0 80h113v10h-113z" fill="#333"/>
<path d="m0 70h113v10h-113z" fill="#666"/>
<path d="m0 60h113v10h-113z" fill="#333"/>
<path d="m0 50h113v10h-113z" fill="#666"/>
<path d="m0 40h113v10h-113z" fill="#333"/>
<path d="m0 30h113v10h-113z" fill="#666"/>
<path d="m0 20h113v10h-113z" fill="#333"/>
<path d="m0 10h113v10h-113z" fill="#666"/>
<path d="m0 0h113v10h-113z" fill="#333"/>
</g>
<pattern id="bg" width="113" height="120" patternTransform="matrix(.51185 .51185 -.11106 .11106 316.57 -131.77)" patternUnits="userSpaceOnUse">
<use xlink:href="#ao"/>
</pattern>
<clipPath id="dp">
<rect width="111" height="118"/>
</clipPath>
<g id="ax" clip-path="url(#dp)">
<path d="m0 108.17h111v9.832h-111z" fill="#999"/>
<path d="m0 98.332h111v9.8359h-111z" fill="#f9f9f9"/>
<path d="m0 88.5h111v9.832h-111z" fill="#999"/>
<path d="m0 78.668h111v9.832h-111z" fill="#f9f9f9"/>
<path d="m0 68.832h111v9.8359h-111z" fill="#999"/>
<path d="m0 59h111v9.832h-111z" fill="#f9f9f9"/>
<path d="m0 49.168h111v9.832h-111z" fill="#999"/>
<path d="m0 39.332h111v9.8359h-111z" fill="#f9f9f9"/>
<path d="m0 29.5h111v9.832h-111z" fill="#999"/>
<path d="m0 19.668h111v9.832h-111z" fill="#f9f9f9"/>
<path d="m0 9.832h111v9.8359h-111z" fill="#999"/>
<path d="m0 0h111v9.832h-111z" fill="#f9f9f9"/>
</g>
<pattern id="bf" width="111" height="118" patternTransform="matrix(.51278 -.51278 .10081 .10081 223.7 -131.77)" patternUnits="userSpaceOnUse">
<use xlink:href="#ax"/>
</pattern>
<clipPath id="do">
<rect width="113" height="120"/>
</clipPath>
<g id="aw" clip-path="url(#do)">
<path d="m0 110h113v10h-113z" fill="#666"/>
<path d="m0 100h113v10h-113z" fill="#333"/>
<path d="m0 90h113v10h-113z" fill="#666"/>
<path d="m0 80h113v10h-113z" fill="#333"/>
<path d="m0 70h113v10h-113z" fill="#666"/>
<path d="m0 60h113v10h-113z" fill="#333"/>
<path d="m0 50h113v10h-113z" fill="#666"/>
<path d="m0 40h113v10h-113z" fill="#333"/>
<path d="m0 30h113v10h-113z" fill="#666"/>
<path d="m0 20h113v10h-113z" fill="#333"/>
<path d="m0 10h113v10h-113z" fill="#666"/>
<path d="m0 0h113v10h-113z" fill="#333"/>
</g>
<pattern id="be" width="113" height="120" patternTransform="matrix(.51185 .51185 -.11106 .11106 316.57 -131.77)" patternUnits="userSpaceOnUse">
<use xlink:href="#aw"/>
</pattern>
<clipPath id="dn">
<rect width="111" height="118"/>
</clipPath>
<g id="av" clip-path="url(#dn)">
<path d="m0 108.17h111v9.832h-111z" fill="#999"/>
<path d="m0 98.332h111v9.8359h-111z" fill="#f9f9f9"/>
<path d="m0 88.5h111v9.832h-111z" fill="#999"/>
<path d="m0 78.668h111v9.832h-111z" fill="#f9f9f9"/>
<path d="m0 68.832h111v9.8359h-111z" fill="#999"/>
<path d="m0 59h111v9.832h-111z" fill="#f9f9f9"/>
<path d="m0 49.168h111v9.832h-111z" fill="#999"/>
<path d="m0 39.332h111v9.8359h-111z" fill="#f9f9f9"/>
<path d="m0 29.5h111v9.832h-111z" fill="#999"/>
<path d="m0 19.668h111v9.832h-111z" fill="#f9f9f9"/>
<path d="m0 9.832h111v9.8359h-111z" fill="#999"/>
<path d="m0 0h111v9.832h-111z" fill="#f9f9f9"/>
</g>
<pattern id="bd" width="111" height="118" patternTransform="matrix(.51278 -.51278 .10081 .10081 223.7 -131.77)" patternUnits="userSpaceOnUse">
<use xlink:href="#av"/>
</pattern>
<clipPath id="dm">
<rect width="113" height="120"/>
</clipPath>
<g id="au" clip-path="url(#dm)">
<path d="m0 110h113v10h-113z" fill="#666"/>
<path d="m0 100h113v10h-113z" fill="#333"/>
<path d="m0 90h113v10h-113z" fill="#666"/>
<path d="m0 80h113v10h-113z" fill="#333"/>
<path d="m0 70h113v10h-113z" fill="#666"/>
<path d="m0 60h113v10h-113z" fill="#333"/>
<path d="m0 50h113v10h-113z" fill="#666"/>
<path d="m0 40h113v10h-113z" fill="#333"/>
<path d="m0 30h113v10h-113z" fill="#666"/>
<path d="m0 20h113v10h-113z" fill="#333"/>
<path d="m0 10h113v10h-113z" fill="#666"/>
<path d="m0 0h113v10h-113z" fill="#333"/>
</g>
<pattern id="bc" width="113" height="120" patternTransform="matrix(.51185 .51185 -.11106 .11106 316.57 -131.77)" patternUnits="userSpaceOnUse">
<use xlink:href="#au"/>
</pattern>
<clipPath id="dl">
<rect width="111" height="118"/>
</clipPath>
<g id="at" clip-path="url(#dl)">
<path d="m0 108.17h111v9.832h-111z" fill="#999"/>
<path d="m0 98.332h111v9.8359h-111z" fill="#f9f9f9"/>
<path d="m0 88.5h111v9.832h-111z" fill="#999"/>
<path d="m0 78.668h111v9.832h-111z" fill="#f9f9f9"/>
<path d="m0 68.832h111v9.8359h-111z" fill="#999"/>
<path d="m0 59h111v9.832h-111z" fill="#f9f9f9"/>
<path d="m0 49.168h111v9.832h-111z" fill="#999"/>
<path d="m0 39.332h111v9.8359h-111z" fill="#f9f9f9"/>
<path d="m0 29.5h111v9.832h-111z" fill="#999"/>
<path d="m0 19.668h111v9.832h-111z" fill="#f9f9f9"/>
<path d="m0 9.832h111v9.8359h-111z" fill="#999"/>
<path d="m0 0h111v9.832h-111z" fill="#f9f9f9"/>
</g>
<pattern id="bb" width="111" height="118" patternTransform="matrix(.51278 -.51278 .10081 .10081 223.7 -131.77)" patternUnits="userSpaceOnUse">
<use xlink:href="#at"/>
</pattern>
<clipPath id="dk">
<rect width="113" height="120"/>
</clipPath>
<g id="as" clip-path="url(#dk)">
<path d="m0 110h113v10h-113z" fill="#666"/>
<path d="m0 100h113v10h-113z" fill="#333"/>
<path d="m0 90h113v10h-113z" fill="#666"/>
<path d="m0 80h113v10h-113z" fill="#333"/>
<path d="m0 70h113v10h-113z" fill="#666"/>
<path d="m0 60h113v10h-113z" fill="#333"/>
<path d="m0 50h113v10h-113z" fill="#666"/>
<path d="m0 40h113v10h-113z" fill="#333"/>
<path d="m0 30h113v10h-113z" fill="#666"/>
<path d="m0 20h113v10h-113z" fill="#333"/>
<path d="m0 10h113v10h-113z" fill="#666"/>
<path d="m0 0h113v10h-113z" fill="#333"/>
</g>
<pattern id="ba" width="113" height="120" patternTransform="matrix(.51185 .51185 -.11106 .11106 316.57 -131.77)" patternUnits="userSpaceOnUse">
<use xlink:href="#as"/>
</pattern>
<clipPath id="dj">
<rect width="113" height="120"/>
</clipPath>
<g id="ar" clip-path="url(#dj)">
<path d="m0 110h113v10h-113z" fill="#666"/>
<path d="m0 100h113v10h-113z" fill="#333"/>
<path d="m0 90h113v10h-113z" fill="#666"/>
<path d="m0 80h113v10h-113z" fill="#333"/>
<path d="m0 70h113v10h-113z" fill="#666"/>
<path d="m0 60h113v10h-113z" fill="#333"/>
<path d="m0 50h113v10h-113z" fill="#666"/>
<path d="m0 40h113v10h-113z" fill="#333"/>
<path d="m0 30h113v10h-113z" fill="#666"/>
<path d="m0 20h113v10h-113z" fill="#333"/>
<path d="m0 10h113v10h-113z" fill="#666"/>
<path d="m0 0h113v10h-113z" fill="#333"/>
</g>
<pattern id="az" width="113" height="120" patternTransform="matrix(.51185 .51185 -.11106 .11106 316.57 -131.77)" patternUnits="userSpaceOnUse">
<use xlink:href="#ar"/>
</pattern>
<clipPath id="dr">
<rect width="111" height="118"/>
</clipPath>
<g id="aq" clip-path="url(#dr)">
<path d="m0 108.17h111v9.832h-111z" fill="#999"/>
<path d="m0 98.332h111v9.8359h-111z" fill="#f9f9f9"/>
<path d="m0 88.5h111v9.832h-111z" fill="#999"/>
<path d="m0 78.668h111v9.832h-111z" fill="#f9f9f9"/>
<path d="m0 68.832h111v9.8359h-111z" fill="#999"/>
<path d="m0 59h111v9.832h-111z" fill="#f9f9f9"/>
<path d="m0 49.168h111v9.832h-111z" fill="#999"/>
<path d="m0 39.332h111v9.8359h-111z" fill="#f9f9f9"/>
<path d="m0 29.5h111v9.832h-111z" fill="#999"/>
<path d="m0 19.668h111v9.832h-111z" fill="#f9f9f9"/>
<path d="m0 9.832h111v9.8359h-111z" fill="#999"/>
<path d="m0 0h111v9.832h-111z" fill="#f9f9f9"/>
</g>
<pattern id="ay" width="111" height="118" patternTransform="matrix(.51278 -.51278 .10081 .10081 223.7 -131.77)" patternUnits="userSpaceOnUse">
<use xlink:href="#aq"/>
</pattern>
</defs>
<path d="m647.99 316.3h137.56v67.793h-137.56z" fill="#fff"/>
<path d="m647.99 163.3h137.56v67.797h-137.56z" fill="#fff"/>
<path d="m110.27 64.945h524.43v355.21h-524.43z" fill="#fff"/>
<g>
<use x="28.388196" y="383.050781" xlink:href="#di"/>
<use x="28.388196" y="369.642817" xlink:href="#db"/>
<use x="28.388196" y="356.234852" xlink:href="#da"/>
<use x="28.388196" y="344.742311" xlink:href="#an"/>
<use x="28.388196" y="335.165193" xlink:href="#y"/>
<use x="28.388196" y="321.757229" xlink:href="#s"/>
<use x="28.388196" y="308.349264" xlink:href="#cz"/>
<use x="28.388196" y="294.9413" xlink:href="#x"/>
<use x="28.388196" y="289.195029" xlink:href="#s"/>
<use x="28.388196" y="275.787064" xlink:href="#y"/>
<use x="28.388196" y="262.3791" xlink:href="#cy"/>
<use x="28.388196" y="250.886559" xlink:href="#dh"/>
<use x="28.388196" y="237.478594" xlink:href="#x"/>
<use x="28.388196" y="231.732324" xlink:href="#dg"/>
<use x="28.388196" y="218.324359" xlink:href="#df"/>
<use x="28.388196" y="204.916394" xlink:href="#x"/>
<use x="28.388196" y="199.170124" xlink:href="#de"/>
<use x="28.388196" y="180.015889" xlink:href="#dd"/>
<use x="28.388196" y="166.607924" xlink:href="#s"/>
<use x="28.388196" y="153.199959" xlink:href="#y"/>
<use x="28.388196" y="139.791995" xlink:href="#an"/>
<use x="28.388196" y="130.214877" xlink:href="#dc"/>
<use x="28.388196" y="116.806913" xlink:href="#s"/>
</g>
<g>
<use x="52.341321" y="359.109375" xlink:href="#cx"/>
<use x="52.341321" y="351.447681" xlink:href="#al"/>
<use x="52.341321" y="345.70141" xlink:href="#w"/>
<use x="52.341321" y="334.208869" xlink:href="#r"/>
<use x="52.341321" y="328.462599" xlink:href="#cs"/>
<use x="52.341321" y="309.308364" xlink:href="#r"/>
<use x="52.341321" y="303.562093" xlink:href="#cr"/>
<use x="52.341321" y="292.069552" xlink:href="#v"/>
<use x="52.341321" y="280.577011" xlink:href="#cq"/>
<use x="52.341321" y="272.915317" xlink:href="#r"/>
<use x="52.341321" y="267.169046" xlink:href="#ak"/>
<use x="52.341321" y="255.676505" xlink:href="#cw"/>
<use x="52.341321" y="242.268541" xlink:href="#cv"/>
<use x="52.341321" y="230.775999" xlink:href="#r"/>
<use x="52.341321" y="225.029729" xlink:href="#ak"/>
<use x="52.341321" y="213.537188" xlink:href="#cu"/>
<use x="52.341321" y="202.044647" xlink:href="#am"/>
<use x="52.341321" y="194.382953" xlink:href="#al"/>
<use x="52.341321" y="188.636682" xlink:href="#v"/>
<use x="52.341321" y="177.144141" xlink:href="#w"/>
<use x="52.341321" y="165.6516" xlink:href="#am"/>
<use x="52.341321" y="157.989906" xlink:href="#v"/>
<use x="52.341321" y="146.497365" xlink:href="#w"/>
<use x="52.341321" y="135.004824" xlink:href="#ct"/>
</g>
<g>
<use x="175.6875" y="51.521583" xlink:href="#cp"/>
<use x="189.100924" y="51.521583" xlink:href="#aj"/>
<use x="198.68194" y="51.521583" xlink:href="#cl"/>
<use x="215.927771" y="51.521583" xlink:href="#ck"/>
<use x="229.341194" y="51.521583" xlink:href="#cj"/>
<use x="240.838414" y="51.521583" xlink:href="#ci"/>
<use x="254.251838" y="51.521583" xlink:href="#ch"/>
<use x="265.749058" y="51.521583" xlink:href="#u"/>
<use x="279.162482" y="51.521583" xlink:href="#ai"/>
<use x="292.575905" y="51.521583" xlink:href="#u"/>
</g>
<g>
<use x="466.105469" y="51.521583" xlink:href="#co"/>
<use x="481.435096" y="51.521583" xlink:href="#cn"/>
<use x="487.183706" y="51.521583" xlink:href="#ai"/>
<use x="500.597129" y="51.521583" xlink:href="#cm"/>
<use x="514.010553" y="51.521583" xlink:href="#u"/>
<use x="527.423976" y="51.521583" xlink:href="#aj"/>
</g>
<g>
<use x="678.933594" y="100.711797" xlink:href="#cg"/>
<use x="692.347017" y="100.711797" xlink:href="#q"/>
<use x="700.011831" y="100.711797" xlink:href="#p"/>
<use x="709.592848" y="100.711797" xlink:href="#o"/>
<use x="721.090068" y="100.711797" xlink:href="#t"/>
<use x="726.838678" y="100.711797" xlink:href="#o"/>
<use x="738.335898" y="100.711797" xlink:href="#i"/>
<use x="747.916915" y="100.711797" xlink:href="#q"/>
</g>
<g>
<use x="654.980469" y="119.864141" xlink:href="#bw"/>
<use x="664.561486" y="119.864141" xlink:href="#i"/>
<use x="674.142502" y="119.864141" xlink:href="#q"/>
<use x="681.807316" y="119.864141" xlink:href="#ad"/>
<use x="693.304536" y="119.864141" xlink:href="#bv"/>
<use x="699.053146" y="119.864141" xlink:href="#i"/>
<use x="708.634163" y="119.864141" xlink:href="#ah"/>
<use x="714.382773" y="119.864141" xlink:href="#ad"/>
<use x="725.879993" y="119.864141" xlink:href="#i"/>
<use x="735.46101" y="119.864141" xlink:href="#j"/>
<use x="746.95823" y="119.864141" xlink:href="#o"/>
<use x="758.455451" y="119.864141" xlink:href="#i"/>
<use x="768.036467" y="119.864141" xlink:href="#j"/>
</g>
<g>
<use x="660.730469" y="139.020391" xlink:href="#cf"/>
<use x="672.227689" y="139.020391" xlink:href="#i"/>
<use x="681.808706" y="139.020391" xlink:href="#ag"/>
<use x="693.305926" y="139.020391" xlink:href="#ah"/>
<use x="699.054536" y="139.020391" xlink:href="#j"/>
<use x="710.551756" y="139.020391" xlink:href="#o"/>
<use x="722.048976" y="139.020391" xlink:href="#i"/>
<use x="731.629993" y="139.020391" xlink:href="#q"/>
<use x="739.294807" y="139.020391" xlink:href="#af"/>
<use x="750.792027" y="139.020391" xlink:href="#j"/>
<use x="762.289247" y="139.020391" xlink:href="#ce"/>
</g>
<g>
<use x="656.667969" y="275.985235" xlink:href="#cd"/>
<use x="668.165189" y="275.985235" xlink:href="#af"/>
<use x="679.662409" y="275.985235" xlink:href="#cc"/>
<use x="689.243426" y="275.985235" xlink:href="#ae"/>
<use x="696.908239" y="275.985235" xlink:href="#p"/>
<use x="706.489256" y="275.985235" xlink:href="#j"/>
<use x="717.986476" y="275.985235" xlink:href="#o"/>
<use x="729.483697" y="275.985235" xlink:href="#t"/>
<use x="735.232307" y="275.985235" xlink:href="#j"/>
<use x="746.729527" y="275.985235" xlink:href="#p"/>
<use x="756.310544" y="275.985235" xlink:href="#cb"/>
<use x="765.891561" y="275.985235" xlink:href="#ag"/>
</g>
<g>
<use x="665.292969" y="295.137579" xlink:href="#ca"/>
<use x="676.790189" y="295.137579" xlink:href="#bz"/>
<use x="688.287409" y="295.137579" xlink:href="#t"/>
<use x="694.036019" y="295.137579" xlink:href="#by"/>
<use x="709.365646" y="295.137579" xlink:href="#bx"/>
<use x="718.946663" y="295.137579" xlink:href="#j"/>
<use x="730.443883" y="295.137579" xlink:href="#p"/>
<use x="740.0249" y="295.137579" xlink:href="#ae"/>
<use x="747.689713" y="295.137579" xlink:href="#i"/>
<use x="757.27073" y="295.137579" xlink:href="#j"/>
</g>
<g>
<use x="680.34375" y="182.957891" xlink:href="#g"/>
<use x="688.008563" y="182.957891" xlink:href="#f"/>
<use x="695.673377" y="182.957891" xlink:href="#e"/>
<use x="705.254394" y="182.957891" xlink:href="#z"/>
<use x="718.667817" y="182.957891" xlink:href="#h"/>
<use x="728.248834" y="182.957891" xlink:href="#k"/>
</g>
<g>
<use x="680.285156" y="202.911016" xlink:href="#bi"/>
<use x="684.117563" y="202.911016" xlink:href="#h"/>
<use x="693.69858" y="202.911016" xlink:href="#d"/>
<use x="697.530987" y="202.911016" xlink:href="#f"/>
<use x="705.1958" y="202.911016" xlink:href="#e"/>
<use x="714.776817" y="202.911016" xlink:href="#a"/>
</g>
<g>
<use x="679.871094" y="222.864141" xlink:href="#ac"/>
<use x="687.535907" y="222.864141" xlink:href="#h"/>
<use x="697.116924" y="222.864141" xlink:href="#d"/>
<use x="700.949331" y="222.864141" xlink:href="#n"/>
<use x="710.530348" y="222.864141" xlink:href="#h"/>
</g>
<g>
<use x="680.824219" y="335.953985" xlink:href="#bu"/>
<use x="690.405236" y="335.953985" xlink:href="#h"/>
<use x="699.986252" y="335.953985" xlink:href="#k"/>
<use x="705.734863" y="335.953985" xlink:href="#g"/>
<use x="713.399676" y="335.953985" xlink:href="#a"/>
<use x="719.148286" y="335.953985" xlink:href="#ab"/>
<use x="728.729303" y="335.953985" xlink:href="#k"/>
<use x="734.477913" y="335.953985" xlink:href="#bt"/>
<use x="744.05893" y="335.953985" xlink:href="#h"/>
<use x="753.639947" y="335.953985" xlink:href="#n"/>
</g>
<g>
<use x="680.96875" y="355.90711" xlink:href="#bs"/>
<use x="694.382174" y="355.90711" xlink:href="#c"/>
<use x="703.96319" y="355.90711" xlink:href="#f"/>
<use x="711.628004" y="355.90711" xlink:href="#e"/>
<use x="721.209021" y="355.90711" xlink:href="#ac"/>
<use x="728.873834" y="355.90711" xlink:href="#ab"/>
<use x="738.454851" y="355.90711" xlink:href="#m"/>
<use x="753.784478" y="355.90711" xlink:href="#c"/>
</g>
<g>
<use x="680.136719" y="375.860235" xlink:href="#br"/>
<use x="689.717736" y="375.860235" xlink:href="#h"/>
<use x="699.298752" y="375.860235" xlink:href="#z"/>
<use x="712.712176" y="375.860235" xlink:href="#l"/>
<use x="722.293193" y="375.860235" xlink:href="#g"/>
<use x="729.958006" y="375.860235" xlink:href="#g"/>
<use x="737.62282" y="375.860235" xlink:href="#a"/>
<use x="743.37143" y="375.860235" xlink:href="#g"/>
<use x="751.036243" y="375.860235" xlink:href="#h"/>
<use x="760.61726" y="375.860235" xlink:href="#d"/>
<use x="764.449667" y="375.860235" xlink:href="#n"/>
</g>
<g>
<use x="87.382813" y="426.34461" xlink:href="#b"/>
</g>
<g>
<use x="77.628906" y="390.715704" xlink:href="#aa"/>
<use x="87.209923" y="390.715704" xlink:href="#b"/>
</g>
<g>
<use x="77.628906" y="355.090704" xlink:href="#bq"/>
<use x="87.209923" y="355.090704" xlink:href="#b"/>
</g>
<g>
<use x="77.628906" y="319.461797" xlink:href="#bp"/>
<use x="87.209923" y="319.461797" xlink:href="#b"/>
</g>
<g>
<use x="77.628906" y="283.836797" xlink:href="#bo"/>
<use x="87.209923" y="283.836797" xlink:href="#b"/>
</g>
<g>
<use x="77.628906" y="248.207891" xlink:href="#bn"/>
<use x="87.209923" y="248.207891" xlink:href="#b"/>
</g>
<g>
<use x="77.628906" y="212.582891" xlink:href="#bm"/>
<use x="87.209923" y="212.582891" xlink:href="#b"/>
</g>
<g>
<use x="77.628906" y="176.953985" xlink:href="#bl"/>
<use x="87.209923" y="176.953985" xlink:href="#b"/>
</g>
<g>
<use x="77.628906" y="141.328985" xlink:href="#bk"/>
<use x="87.209923" y="141.328985" xlink:href="#b"/>
</g>
<g>
<use x="77.628906" y="105.700079" xlink:href="#bj"/>
<use x="87.209923" y="105.700079" xlink:href="#b"/>
</g>
<g>
<use x="67.875" y="70.075079" xlink:href="#aa"/>
<use x="77.456017" y="70.075079" xlink:href="#b"/>
<use x="87.037034" y="70.075079" xlink:href="#b"/>
</g>
<path transform="matrix(1.9162 0 0 1.9154 .75937 0)" d="m337.77 165.13h71.789v35.393h-71.789z" fill="none" stroke="#000" stroke-width=".5"/>
<g>
<use x="130.542969" y="444.102422" xlink:href="#a"/>
<use x="136.291579" y="444.102422" xlink:href="#k"/>
<use x="142.040189" y="444.102422" xlink:href="#c"/>
<use x="151.621206" y="444.102422" xlink:href="#l"/>
<use x="161.202223" y="444.102422" xlink:href="#m"/>
<use x="176.53185" y="444.102422" xlink:href="#c"/>
<use x="186.112866" y="444.102422" xlink:href="#a"/>
<use x="191.861476" y="444.102422" xlink:href="#d"/>
<use x="195.693883" y="444.102422" xlink:href="#g"/>
<use x="203.358697" y="444.102422" xlink:href="#f"/>
<use x="211.02351" y="444.102422" xlink:href="#e"/>
</g>
<g>
<use x="289.777344" y="436.442266" xlink:href="#n"/>
<use x="299.358361" y="436.442266" xlink:href="#d"/>
<use x="303.190767" y="436.442266" xlink:href="#f"/>
<use x="310.855581" y="436.442266" xlink:href="#e"/>
<use x="320.436598" y="436.442266" xlink:href="#a"/>
</g>
<g>
<use x="262.949219" y="451.762579" xlink:href="#a"/>
<use x="268.697829" y="451.762579" xlink:href="#k"/>
<use x="274.446439" y="451.762579" xlink:href="#c"/>
<use x="284.027456" y="451.762579" xlink:href="#l"/>
<use x="293.608473" y="451.762579" xlink:href="#m"/>
<use x="308.9381" y="451.762579" xlink:href="#c"/>
<use x="318.519116" y="451.762579" xlink:href="#a"/>
<use x="324.267726" y="451.762579" xlink:href="#d"/>
<use x="328.100133" y="451.762579" xlink:href="#g"/>
<use x="335.764947" y="451.762579" xlink:href="#f"/>
<use x="343.42976" y="451.762579" xlink:href="#e"/>
</g>
<path transform="matrix(1.9162 0 0 1.9154 .75937 0)" d="m125.57 236.72v-202.81" fill="none" stroke="#000" stroke-width=".75"/>
<path transform="matrix(1.9162 0 0 1.9154 .75937 0)" d="m62.544 122.77h22.821v96.584h-22.821z" fill="url(#bh)" stroke="#000" stroke-width=".5"/>
<path transform="matrix(1.9162 0 0 1.9154 .75937 0)" d="m62.544 95.799h22.821v26.971h-22.821z" fill="url(#bg)" stroke="#000" stroke-width=".5"/>
<path transform="matrix(1.9162 0 0 1.9154 .75937 0)" d="m62.544 33.907h22.821v61.893h-22.821z" fill="#1a1a1a" stroke="#000" stroke-width=".5"/>
<path transform="matrix(1.9162 0 0 1.9154 .75937 0)" d="m96.273 206.07h22.821v13.284h-22.821z" fill="none" stroke="#000" stroke-width=".5"/>
<path transform="matrix(1.9162 0 0 1.9154 .75937 0)" d="m96.273 174.58h22.821v31.492h-22.821z" fill="#ccc" stroke="#000" stroke-width=".5"/>
<path transform="matrix(1.9162 0 0 1.9154 .75937 0)" d="m96.273 122.69h22.821v51.888h-22.821z" fill="#666" stroke="#000" stroke-width=".5"/>
<path transform="matrix(1.9162 0 0 1.9154 .75937 0)" d="m130.77 191.22h22.821v28.131h-22.821z" fill="url(#bf)" stroke="#000" stroke-width=".5"/>
<path transform="matrix(1.9162 0 0 1.9154 .75937 0)" d="m130.77 132.42h22.821v58.799h-22.821z" fill="url(#be)" stroke="#000" stroke-width=".5"/>
<path transform="matrix(1.9162 0 0 1.9154 .75937 0)" d="m130.77 33.907h22.821v98.518h-22.821z" fill="#1a1a1a" stroke="#000" stroke-width=".5"/>
<path transform="matrix(1.9162 0 0 1.9154 .75937 0)" d="m165.08 217.43h22.821v1.9272h-22.821z" fill="none" stroke="#000" stroke-width=".5"/>
<path transform="matrix(1.9162 0 0 1.9154 .75937 0)" d="m165.08 211.67h22.821v5.7551h-22.821z" fill="#ccc" stroke="#000" stroke-width=".5"/>
<path transform="matrix(1.9162 0 0 1.9154 .75937 0)" d="m165.08 191.6h22.821v20.347h-22.821z" fill="#666" stroke="#000" stroke-width=".5"/>
<g>
<use x="392.464844" y="444.102422" xlink:href="#a"/>
<use x="398.213454" y="444.102422" xlink:href="#k"/>
<use x="403.962064" y="444.102422" xlink:href="#c"/>
<use x="413.543081" y="444.102422" xlink:href="#l"/>
<use x="423.124098" y="444.102422" xlink:href="#m"/>
<use x="438.453725" y="444.102422" xlink:href="#c"/>
<use x="448.034741" y="444.102422" xlink:href="#a"/>
<use x="453.783351" y="444.102422" xlink:href="#d"/>
<use x="457.615758" y="444.102422" xlink:href="#g"/>
<use x="465.280572" y="444.102422" xlink:href="#f"/>
<use x="472.945385" y="444.102422" xlink:href="#e"/>
</g>
<g>
<use x="551.699219" y="436.442266" xlink:href="#n"/>
<use x="561.280236" y="436.442266" xlink:href="#d"/>
<use x="565.112642" y="436.442266" xlink:href="#f"/>
<use x="572.777456" y="436.442266" xlink:href="#e"/>
<use x="582.358473" y="436.442266" xlink:href="#a"/>
</g>
<g>
<use x="524.871094" y="451.762579" xlink:href="#a"/>
<use x="530.619704" y="451.762579" xlink:href="#k"/>
<use x="536.368314" y="451.762579" xlink:href="#c"/>
<use x="545.949331" y="451.762579" xlink:href="#l"/>
<use x="555.530348" y="451.762579" xlink:href="#m"/>
<use x="570.859975" y="451.762579" xlink:href="#c"/>
<use x="580.440991" y="451.762579" xlink:href="#a"/>
<use x="586.189601" y="451.762579" xlink:href="#d"/>
<use x="590.022008" y="451.762579" xlink:href="#g"/>
<use x="597.686822" y="451.762579" xlink:href="#f"/>
<use x="605.351635" y="451.762579" xlink:href="#e"/>
</g>
<path transform="matrix(1.9162 0 0 1.9154 .75937 0)" d="m262.41 236.72v-202.81" fill="none" stroke="#000" stroke-width=".75"/>
<path transform="matrix(1.9162 0 0 1.9154 .75937 0)" d="m199.2 104.12h22.821v115.23h-22.821z" fill="url(#bd)" stroke="#000" stroke-width=".5"/>
<path transform="matrix(1.9162 0 0 1.9154 .75937 0)" d="m199.2 50.766h22.821v53.358h-22.821z" fill="url(#bc)" stroke="#000" stroke-width=".5"/>
<path transform="matrix(1.9162 0 0 1.9154 .75937 0)" d="m199.2 34.396h22.821v16.37h-22.821z" fill="#1a1a1a" stroke="#000" stroke-width=".5"/>
<path transform="matrix(1.9162 0 0 1.9154 .75937 0)" d="m233.31 198.76h22.821v20.598h-22.821z" fill="none" stroke="#000" stroke-width=".5"/>
<path transform="matrix(1.9162 0 0 1.9154 .75937 0)" d="m233.31 168.83h22.821v29.93h-22.821z" fill="#ccc" stroke="#000" stroke-width=".5"/>
<path transform="matrix(1.9162 0 0 1.9154 .75937 0)" d="m233.31 104.21h22.821v64.619h-22.821z" fill="#666" stroke="#000" stroke-width=".5"/>
<path transform="matrix(1.9162 0 0 1.9154 .75937 0)" d="m267.62 194.96h22.821v24.395h-22.821z" fill="url(#bb)" stroke="#000" stroke-width=".5"/>
<path transform="matrix(1.9162 0 0 1.9154 .75937 0)" d="m267.62 75.242h22.821v119.72h-22.821z" fill="url(#ba)" stroke="#000" stroke-width=".5"/>
<path transform="matrix(1.9162 0 0 1.9154 .75937 0)" d="m267.62 33.907h22.821v41.336h-22.821z" fill="#1a1a1a" stroke="#000" stroke-width=".5"/>
<path transform="matrix(1.9162 0 0 1.9154 .75937 0)" d="m301.74 207.85h22.821v11.506h-22.821z" fill="none" stroke="#000" stroke-width=".5"/>
<path transform="matrix(1.9162 0 0 1.9154 .75937 0)" d="m301.74 195.2h22.821v12.644h-22.821z" fill="#666" stroke="#000" stroke-width=".5"/>
<path transform="matrix(1.9162 0 0 1.9154 .75937 0)" d="m337.77 85.256h71.789v35.395h-71.789z" fill="none" stroke="#000" stroke-width=".5"/>
<path transform="matrix(1.9162 0 0 1.9154 .75937 0)" d="m337.77 165.15h71.789v35.393h-71.789z" fill="none" stroke="#000" stroke-width=".5"/>
<path transform="matrix(1.9162 0 0 1.9154 .75937 0)" d="m341.58 168.74h7.353v7.3519h-7.353z" fill="none" stroke="#000" stroke-width=".5"/>
<path transform="matrix(1.9162 0 0 1.9154 .75937 0)" d="m341.58 88.859h7.353v7.3519h-7.353z" fill="#666" stroke="#000" stroke-width=".5"/>
<path transform="matrix(1.9162 0 0 1.9154 .75937 0)" d="m341.58 99.276h7.353v7.3519h-7.353z" fill="#ccc" stroke="#000" stroke-width=".5"/>
<path transform="matrix(1.9162 0 0 1.9154 .75937 0)" d="m341.58 109.69h7.353v7.354h-7.353z" fill="none" stroke="#000" stroke-width=".5"/>
<path transform="matrix(1.9162 0 0 1.9154 .75937 0)" d="m341.58 168.74h7.353v7.3519h-7.353z" fill="#1a1a1a" stroke="#000" stroke-width=".5"/>
<path transform="matrix(1.9162 0 0 1.9154 .75937 0)" d="m341.58 179.15h7.353v7.3519h-7.353z" fill="url(#az)" stroke="#000" stroke-width=".5"/>
<path transform="matrix(1.9162 0 0 1.9154 .75937 0)" d="m341.58 189.57h7.353v7.3519h-7.353z" fill="url(#ay)" stroke="#000" stroke-width=".5"/>
<path transform="matrix(1.9162 0 0 1.9154 .75937 0)" d="m57.148 236.72v-219.14" fill="none" stroke="#000" stroke-width=".75"/>
<path transform="matrix(1.9162 0 0 1.9154 .75937 0)" d="m193.99 236.72v-219.14" fill="none" stroke="#000" stroke-width=".75"/>
<path transform="matrix(1.9162 0 0 1.9154 .75937 0)" d="m330.83 236.72v-219.14" fill="none" stroke="#000" stroke-width=".75"/>
<path transform="matrix(1.9162 0 0 1.9154 .75937 0)" d="m57.148 219.35h273.68" fill="none" stroke="#000" stroke-width=".75"/>
<path transform="matrix(1.9162 0 0 1.9154 .75937 0)" d="m57.148 33.907h273.68" fill="none" stroke="#000" stroke-width=".75"/>
<path transform="matrix(1.9162 0 0 1.9154 .75937 0)" d="m57.148 219.35h-3.0496" fill="none" stroke="#000" stroke-width=".5"/>
<path transform="matrix(1.9162 0 0 1.9154 .75937 0)" d="m57.148 200.81h-3.0496" fill="none" stroke="#000" stroke-width=".5"/>
<path transform="matrix(1.9162 0 0 1.9154 .75937 0)" d="m57.148 182.26h-3.0496" fill="none" stroke="#000" stroke-width=".5"/>
<path transform="matrix(1.9162 0 0 1.9154 .75937 0)" d="m57.148 163.72h-3.0496" fill="none" stroke="#000" stroke-width=".5"/>
<path transform="matrix(1.9162 0 0 1.9154 .75937 0)" d="m57.148 145.17h-3.0496" fill="none" stroke="#000" stroke-width=".5"/>
<path transform="matrix(1.9162 0 0 1.9154 .75937 0)" d="m57.148 126.63h-3.0496" fill="none" stroke="#000" stroke-width=".5"/>
<path transform="matrix(1.9162 0 0 1.9154 .75937 0)" d="m57.148 108.09h-3.0496" fill="none" stroke="#000" stroke-width=".5"/>
<path transform="matrix(1.9162 0 0 1.9154 .75937 0)" d="m57.148 89.54h-3.0496" fill="none" stroke="#000" stroke-width=".5"/>
<path transform="matrix(1.9162 0 0 1.9154 .75937 0)" d="m57.148 70.996h-3.0496" fill="none" stroke="#000" stroke-width=".5"/>
<path transform="matrix(1.9162 0 0 1.9154 .75937 0)" d="m57.148 52.452h-3.0496" fill="none" stroke="#000" stroke-width=".5"/>
<path transform="matrix(1.9162 0 0 1.9154 .75937 0)" d="m57.148 33.907h-3.0496" fill="none" stroke="#000" stroke-width=".5"/>
</svg>
