<?xml version="1.0" encoding="UTF-8"?>
<svg width="800px" height="462px" version="1.1" viewBox="0 0 800 462" xmlns="http://www.w3.org/2000/svg" xmlns:xlink="http://www.w3.org/1999/xlink">
<defs>
<symbol id="a" overflow="visible">
<path d="m4.875-10.172c-0.78125 0-1.3711 0.38672-1.7656 1.1562-0.38672 0.76172-0.57812 1.9062-0.57812 3.4375s0.19141 2.6836 0.57812 3.4531c0.39453 0.76172 0.98438 1.1406 1.7656 1.1406s1.3633-0.37891 1.75-1.1406c0.39453-0.76953 0.59375-1.9219 0.59375-3.4531s-0.19922-2.6758-0.59375-3.4375c-0.38672-0.76953-0.96875-1.1562-1.75-1.1562zm0-1.2031c1.25 0 2.2031 0.49609 2.8594 1.4844 0.66406 0.99219 1 2.4297 1 4.3125 0 1.8867-0.33594 3.3242-1 4.3125-0.65625 0.99219-1.6094 1.4844-2.8594 1.4844s-2.2109-0.49219-2.875-1.4844c-0.65625-0.98828-0.98438-2.4258-0.98438-4.3125 0-1.8828 0.32812-3.3203 0.98438-4.3125 0.66406-0.98828 1.625-1.4844 2.875-1.4844z"/>
</symbol>
<symbol id="al" overflow="visible">
<path d="m1.9062-1.2656h2.4688v-8.5312l-2.6875 0.53125v-1.375l2.6719-0.53125h1.5156v9.9062h2.4688v1.2656h-6.4375z"/>
</symbol>
<symbol id="cv" overflow="visible">
<path d="m2.9375-1.2656h5.2812v1.2656h-7.0938v-1.2656c0.57031-0.59375 1.3516-1.3906 2.3438-2.3906 0.98828-1.0078 1.6133-1.6562 1.875-1.9375 0.47656-0.55078 0.8125-1.0156 1-1.3906 0.19531-0.375 0.29688-0.74219 0.29688-1.1094 0-0.59375-0.21094-1.0781-0.625-1.4531-0.41797-0.375-0.96094-0.5625-1.625-0.5625-0.48047 0-0.98438 0.085937-1.5156 0.25-0.52344 0.16797-1.0781 0.41797-1.6719 0.75v-1.5312c0.60156-0.23828 1.1719-0.42188 1.7031-0.54688s1.0156-0.1875 1.4531-0.1875c1.1562 0 2.0781 0.29297 2.7656 0.875 0.6875 0.57422 1.0312 1.3438 1.0312 2.3125 0 0.46094-0.089844 0.89844-0.26562 1.3125-0.16797 0.40625-0.48047 0.89062-0.9375 1.4531-0.125 0.14844-0.52344 0.5625-1.1875 1.25-0.66797 0.6875-1.6094 1.6562-2.8281 2.9062z"/>
</symbol>
<symbol id="cu" overflow="visible">
<path d="m6.2188-6.0312c0.72656 0.15625 1.2969 0.48047 1.7031 0.96875 0.40625 0.49219 0.60938 1.0938 0.60938 1.8125 0 1.1055-0.38281 1.9609-1.1406 2.5625-0.76172 0.60547-1.8398 0.90625-3.2344 0.90625-0.46875 0-0.95312-0.046875-1.4531-0.14062s-1.0117-0.23438-1.5312-0.42188v-1.4531c0.41406 0.25 0.875 0.4375 1.375 0.5625 0.5 0.11719 1.0195 0.17188 1.5625 0.17188 0.94531 0 1.6641-0.17969 2.1562-0.54688 0.5-0.375 0.75-0.92188 0.75-1.6406 0-0.65625-0.23047-1.1641-0.6875-1.5312-0.46094-0.375-1.1016-0.5625-1.9219-0.5625h-1.3125v-1.25h1.3594c0.75 0 1.3203-0.14453 1.7188-0.4375 0.39453-0.30078 0.59375-0.73438 0.59375-1.2969 0-0.57031-0.21094-1.0078-0.625-1.3125-0.40625-0.3125-0.98438-0.46875-1.7344-0.46875-0.41797 0-0.86719 0.046875-1.3438 0.14062-0.46875 0.09375-0.99219 0.23438-1.5625 0.42188v-1.3438c0.57031-0.16406 1.1094-0.28516 1.6094-0.35938 0.50781-0.082031 0.98438-0.125 1.4219-0.125 1.1445 0 2.0508 0.26172 2.7188 0.78125 0.67578 0.52344 1.0156 1.2266 1.0156 2.1094 0 0.625-0.17969 1.1523-0.53125 1.5781-0.35547 0.42969-0.85938 0.71875-1.5156 0.875z"/>
</symbol>
<symbol id="ct" overflow="visible">
<path d="m5.7969-9.8594-3.8281 5.9688h3.8281zm-0.40625-1.3125h1.9062v7.2812h1.5938v1.25h-1.5938v2.6406h-1.5v-2.6406h-5.0469v-1.4531z"/>
</symbol>
<symbol id="cs" overflow="visible">
<path d="m1.6562-11.172h5.9375v1.2656h-4.5625v2.75c0.22656-0.082031 0.45312-0.14062 0.67188-0.17188 0.21875-0.039063 0.4375-0.0625 0.65625-0.0625 1.25 0 2.2344 0.34375 2.9531 1.0312 0.72656 0.67969 1.0938 1.6055 1.0938 2.7812 0 1.1992-0.375 2.1328-1.125 2.7969-0.74219 0.66797-1.793 1-3.1562 1-0.46875 0-0.94922-0.042969-1.4375-0.125-0.49219-0.074219-0.99219-0.19141-1.5-0.35938v-1.5156c0.44531 0.24219 0.91016 0.42188 1.3906 0.54688 0.47656 0.11719 0.98438 0.17188 1.5156 0.17188 0.86328 0 1.5469-0.22266 2.0469-0.67188 0.50781-0.45703 0.76562-1.0703 0.76562-1.8438 0-0.78125-0.25781-1.3945-0.76562-1.8438-0.5-0.45703-1.1836-0.6875-2.0469-0.6875-0.40625 0-0.8125 0.046875-1.2188 0.14062-0.39844 0.085938-0.80469 0.21875-1.2188 0.40625z"/>
</symbol>
<symbol id="cr" overflow="visible">
<path d="m5.0625-6.1875c-0.67969 0-1.2148 0.23438-1.6094 0.70312-0.39844 0.46094-0.59375 1.0938-0.59375 1.9062 0 0.80469 0.19531 1.4375 0.59375 1.9062 0.39453 0.46094 0.92969 0.6875 1.6094 0.6875 0.67578 0 1.2109-0.22656 1.6094-0.6875 0.39453-0.46875 0.59375-1.1016 0.59375-1.9062 0-0.8125-0.19922-1.4453-0.59375-1.9062-0.39844-0.46875-0.93359-0.70312-1.6094-0.70312zm3-4.7344v1.375c-0.38672-0.17578-0.77344-0.3125-1.1562-0.40625-0.38672-0.10156-0.76562-0.15625-1.1406-0.15625-1 0-1.7656 0.33984-2.2969 1.0156-0.52344 0.67969-0.82031 1.6953-0.89062 3.0469 0.28906-0.42578 0.65625-0.75391 1.0938-0.98438 0.44531-0.23828 0.94141-0.35938 1.4844-0.35938 1.1133 0 1.9922 0.34375 2.6406 1.0312 0.65625 0.67969 0.98438 1.6055 0.98438 2.7812 0 1.1484-0.33984 2.0703-1.0156 2.7656-0.67969 0.6875-1.5781 1.0312-2.7031 1.0312-1.293 0-2.2812-0.49219-2.9688-1.4844-0.6875-0.98828-1.0312-2.4258-1.0312-4.3125 0-1.7578 0.41406-3.1641 1.25-4.2188 0.84375-1.0508 1.9727-1.5781 3.3906-1.5781 0.375 0 0.75391 0.039062 1.1406 0.10938 0.39453 0.074219 0.80078 0.1875 1.2188 0.34375z"/>
</symbol>
<symbol id="cq" overflow="visible">
<path d="m1.25-11.172h7.1875v0.64062l-4.0469 10.531h-1.5781l3.8125-9.9062h-5.375z"/>
</symbol>
<symbol id="cp" overflow="visible">
<path d="m4.875-5.3125c-0.71875 0-1.2891 0.19531-1.7031 0.57812-0.40625 0.38672-0.60938 0.91797-0.60938 1.5938 0 0.66797 0.20312 1.1953 0.60938 1.5781 0.41406 0.38672 0.98438 0.57812 1.7031 0.57812s1.2812-0.19141 1.6875-0.57812c0.41406-0.38281 0.625-0.91016 0.625-1.5781 0-0.67578-0.21094-1.207-0.625-1.5938-0.40625-0.38281-0.96875-0.57812-1.6875-0.57812zm-1.5156-0.64062c-0.64844-0.15625-1.1523-0.45312-1.5156-0.89062-0.36719-0.44531-0.54688-0.99219-0.54688-1.6406 0-0.88281 0.31641-1.5859 0.95312-2.1094 0.63281-0.51953 1.5078-0.78125 2.625-0.78125 1.1133 0 1.9844 0.26172 2.6094 0.78125 0.63281 0.52344 0.95312 1.2266 0.95312 2.1094 0 0.64844-0.18359 1.1953-0.54688 1.6406-0.35547 0.4375-0.85547 0.73438-1.5 0.89062 0.72656 0.16797 1.2969 0.5 1.7031 1 0.40625 0.49219 0.60938 1.0938 0.60938 1.8125 0 1.0859-0.33594 1.918-1 2.5-0.65625 0.57422-1.6016 0.85938-2.8281 0.85938-1.2305 0-2.1797-0.28516-2.8438-0.85938-0.65625-0.58203-0.98438-1.4141-0.98438-2.5 0-0.71875 0.20312-1.3203 0.60938-1.8125 0.40625-0.5 0.97266-0.83203 1.7031-1zm-0.54688-2.3906c0 0.58594 0.17578 1.0391 0.53125 1.3594 0.36328 0.32422 0.875 0.48438 1.5312 0.48438 0.64453 0 1.1484-0.16016 1.5156-0.48438 0.375-0.32031 0.5625-0.77344 0.5625-1.3594 0-0.57031-0.1875-1.0195-0.5625-1.3438-0.36719-0.32031-0.87109-0.48438-1.5156-0.48438-0.65625 0-1.168 0.16406-1.5312 0.48438-0.35547 0.32422-0.53125 0.77344-0.53125 1.3438z"/>
</symbol>
<symbol id="db" overflow="visible">
<path d="m1.6875-0.23438v-1.375c0.375 0.17969 0.75391 0.3125 1.1406 0.40625 0.39453 0.09375 0.78125 0.14062 1.1562 0.14062 1 0 1.7578-0.33203 2.2812-1 0.53125-0.66406 0.83203-1.6875 0.90625-3.0625-0.29297 0.4375-0.66406 0.77344-1.1094 1-0.4375 0.23047-0.92969 0.34375-1.4688 0.34375-1.1172 0-2-0.33594-2.6562-1.0156-0.64844-0.67578-0.96875-1.6016-0.96875-2.7812 0-1.1445 0.33594-2.0625 1.0156-2.75 0.67578-0.69531 1.5781-1.0469 2.7031-1.0469 1.2891 0 2.2734 0.49609 2.9531 1.4844 0.6875 0.99219 1.0312 2.4297 1.0312 4.3125 0 1.7617-0.41797 3.168-1.25 4.2188-0.83594 1.0547-1.9609 1.5781-3.375 1.5781-0.375 0-0.76172-0.039062-1.1562-0.10938-0.38672-0.074219-0.78906-0.1875-1.2031-0.34375zm3-4.7344c0.67578 0 1.2109-0.22656 1.6094-0.6875 0.40625-0.46875 0.60938-1.1094 0.60938-1.9219 0-0.80078-0.20312-1.4297-0.60938-1.8906-0.39844-0.46875-0.93359-0.70312-1.6094-0.70312-0.67969 0-1.2148 0.23438-1.6094 0.70312-0.39844 0.46094-0.59375 1.0898-0.59375 1.8906 0 0.8125 0.19531 1.4531 0.59375 1.9219 0.39453 0.46094 0.92969 0.6875 1.6094 0.6875z"/>
</symbol>
<symbol id="v" overflow="visible">
<path d="m6.7812-8.1406v1.3125c-0.38672-0.19531-0.78906-0.34766-1.2031-0.45312-0.41797-0.10156-0.85156-0.15625-1.2969-0.15625-0.6875 0-1.2031 0.10938-1.5469 0.32812-0.34375 0.21094-0.51562 0.52344-0.51562 0.9375 0 0.3125 0.11719 0.5625 0.35938 0.75 0.25 0.17969 0.74219 0.35156 1.4844 0.51562l0.46875 0.10938c0.97656 0.21094 1.6719 0.50781 2.0781 0.89062 0.41406 0.375 0.625 0.90625 0.625 1.5938 0 0.78125-0.30859 1.4023-0.92188 1.8594-0.61719 0.44922-1.4648 0.67188-2.5469 0.67188-0.44922 0-0.91797-0.046875-1.4062-0.14062-0.48047-0.082031-0.99219-0.21094-1.5312-0.39062v-1.4219c0.50781 0.27344 1.0078 0.47656 1.5 0.60938 0.5 0.125 0.98828 0.1875 1.4688 0.1875 0.65625 0 1.1562-0.10938 1.5-0.32812 0.35156-0.22656 0.53125-0.53906 0.53125-0.9375 0-0.375-0.13281-0.66016-0.39062-0.85938-0.25-0.20703-0.80469-0.39844-1.6562-0.57812l-0.46875-0.10938c-0.85547-0.1875-1.4766-0.46094-1.8594-0.82812-0.375-0.375-0.5625-0.88281-0.5625-1.5312 0-0.78906 0.27344-1.3984 0.82812-1.8281 0.5625-0.42578 1.3594-0.64062 2.3906-0.64062 0.50781 0 0.98828 0.039063 1.4375 0.10938 0.44531 0.074219 0.85938 0.18359 1.2344 0.32812z"/>
</symbol>
<symbol id="e" overflow="visible">
<path d="m8.6094-4.5312v0.67188h-6.3281c0.0625 0.94922 0.34766 1.6719 0.85938 2.1719 0.50781 0.49219 1.2227 0.73438 2.1406 0.73438 0.51953 0 1.0312-0.0625 1.5312-0.1875 0.5-0.13281 0.99219-0.33203 1.4844-0.59375v1.3125c-0.5 0.21094-1.0117 0.36719-1.5312 0.46875-0.51172 0.11328-1.0391 0.17188-1.5781 0.17188-1.3359 0-2.3906-0.39062-3.1719-1.1719s-1.1719-1.832-1.1719-3.1562c0-1.375 0.36719-2.4609 1.1094-3.2656 0.73828-0.80078 1.7383-1.2031 3-1.2031 1.125 0 2.0156 0.36719 2.6719 1.0938 0.65625 0.71875 0.98438 1.7031 0.98438 2.9531zm-1.375-0.40625c-0.011719-0.75-0.22656-1.3477-0.64062-1.7969-0.40625-0.45703-0.94922-0.6875-1.625-0.6875-0.77344 0-1.3867 0.21875-1.8438 0.65625-0.46094 0.4375-0.72656 1.0469-0.79688 1.8281z"/>
</symbol>
<symbol id="da" overflow="visible">
<path d="m0.45312-8.375h1.4688l2.6094 7.0312 2.625-7.0312h1.4531l-3.1406 8.375h-1.875z"/>
</symbol>
<symbol id="q" overflow="visible">
<path d="m6.2969-7.0938c-0.15625-0.09375-0.32422-0.16016-0.5-0.20312-0.17969-0.039063-0.38281-0.0625-0.60938-0.0625-0.77344 0-1.3672 0.25781-1.7812 0.76562-0.41797 0.5-0.625 1.2266-0.625 2.1719v4.4219h-1.3906v-8.375h1.3906v1.2969c0.28125-0.50781 0.65625-0.88281 1.125-1.125 0.46875-0.25 1.0312-0.375 1.6875-0.375 0.09375 0 0.19531 0.007813 0.3125 0.015625 0.11328 0.011719 0.24219 0.027344 0.39062 0.046875z"/>
</symbol>
<symbol id="cz" overflow="visible">
<path d="m4.3906 0-4.2656-11.172h1.5781l3.5312 9.4062 3.5469-9.4062h1.5781l-4.2656 11.172z"/>
</symbol>
<symbol id="d" overflow="visible">
<path d="m1.4375-8.375h1.3906v8.375h-1.3906zm0-3.2656h1.3906v1.7344h-1.3906z"/>
</symbol>
<symbol id="cy" overflow="visible">
<path d="m6.9531-4.2812c0-1-0.21094-1.7734-0.625-2.3281-0.40625-0.55078-0.98047-0.82812-1.7188-0.82812-0.74219 0-1.3203 0.27734-1.7344 0.82812-0.40625 0.55469-0.60938 1.3281-0.60938 2.3281 0 0.99219 0.20312 1.7617 0.60938 2.3125 0.41406 0.54297 0.99219 0.8125 1.7344 0.8125 0.73828 0 1.3125-0.26953 1.7188-0.8125 0.41406-0.55078 0.625-1.3203 0.625-2.3125zm1.3906 3.2344c0 1.4258-0.32031 2.4883-0.95312 3.1875-0.63672 0.69531-1.6094 1.0469-2.9219 1.0469-0.48047 0-0.93359-0.039062-1.3594-0.10938-0.42969-0.074219-0.84375-0.18359-1.25-0.32812v-1.3438c0.40625 0.21875 0.80078 0.37891 1.1875 0.48438 0.39453 0.10156 0.80078 0.15625 1.2188 0.15625 0.89453 0 1.5664-0.23438 2.0156-0.70312 0.44531-0.46875 0.67188-1.1836 0.67188-2.1406v-0.67188c-0.28125 0.49219-0.64844 0.85938-1.0938 1.1094-0.4375 0.24219-0.96484 0.35938-1.5781 0.35938-1.0312 0-1.8672-0.39062-2.5-1.1719-0.625-0.78125-0.9375-1.8164-0.9375-3.1094 0-1.3008 0.3125-2.3438 0.9375-3.125 0.63281-0.78125 1.4688-1.1719 2.5-1.1719 0.61328 0 1.1406 0.125 1.5781 0.375 0.44531 0.24219 0.8125 0.60547 1.0938 1.0938v-1.2656h1.3906z"/>
</symbol>
<symbol id="am" overflow="visible">
<path d="m1.4375-11.641h1.3906v11.641h-1.3906z"/>
</symbol>
<symbol id="k" overflow="visible">
<path d="m8.4062-5.0625v5.0625h-1.375v-5.0156c0-0.78906-0.15625-1.3828-0.46875-1.7812-0.30469-0.39453-0.76562-0.59375-1.3906-0.59375-0.74219 0-1.3242 0.24219-1.75 0.71875-0.42969 0.46875-0.64062 1.1172-0.64062 1.9375v4.7344h-1.3906v-8.375h1.3906v1.2969c0.32031-0.50781 0.70703-0.88281 1.1562-1.125 0.44531-0.25 0.96094-0.375 1.5469-0.375 0.96875 0 1.6953 0.29688 2.1875 0.89062 0.48828 0.59375 0.73438 1.4688 0.73438 2.625z"/>
</symbol>
<symbol id="b" overflow="visible">
<path d="m2.8125-10.766v2.3906h2.8281v1.0625h-2.8281v4.5469c0 0.6875 0.09375 1.1328 0.28125 1.3281 0.1875 0.1875 0.56641 0.28125 1.1406 0.28125h1.4062v1.1562h-1.4062c-1.0625 0-1.7969-0.19531-2.2031-0.59375-0.40625-0.39453-0.60938-1.1172-0.60938-2.1719v-4.5469h-1.0156v-1.0625h1.0156v-2.3906z"/>
</symbol>
<symbol id="cx" overflow="visible"></symbol>
<symbol id="h" overflow="visible">
<path d="m7.4844-8.0625v1.2969c-0.39844-0.21875-0.79297-0.37891-1.1875-0.48438-0.38672-0.11328-0.77734-0.17188-1.1719-0.17188-0.89844 0-1.5938 0.28906-2.0938 0.85938-0.49219 0.5625-0.73438 1.3555-0.73438 2.375 0 1.0234 0.24219 1.8203 0.73438 2.3906 0.5 0.5625 1.1953 0.84375 2.0938 0.84375 0.39453 0 0.78516-0.050781 1.1719-0.15625 0.39453-0.10156 0.78906-0.26562 1.1875-0.48438v1.2656c-0.38672 0.1875-0.78906 0.32422-1.2031 0.40625-0.40625 0.09375-0.84375 0.14062-1.3125 0.14062-1.2617 0-2.2656-0.39453-3.0156-1.1875-0.74219-0.78906-1.1094-1.8633-1.1094-3.2188 0-1.3633 0.375-2.4375 1.125-3.2188s1.7812-1.1719 3.0938-1.1719c0.42578 0 0.83594 0.042969 1.2344 0.125 0.40625 0.085937 0.80078 0.21484 1.1875 0.39062z"/>
</symbol>
<symbol id="j" overflow="visible">
<path d="m4.6875-7.4219c-0.74219 0-1.3242 0.29297-1.75 0.875-0.42969 0.57422-0.64062 1.3594-0.64062 2.3594 0 1.0117 0.21094 1.8047 0.64062 2.375 0.42578 0.57422 1.0078 0.85938 1.75 0.85938 0.73828 0 1.3203-0.28516 1.75-0.85938 0.42578-0.58203 0.64062-1.375 0.64062-2.375 0-0.98828-0.21484-1.7734-0.64062-2.3594-0.42969-0.58203-1.0117-0.875-1.75-0.875zm0-1.1562c1.1953 0 2.1406 0.39062 2.8281 1.1719 0.6875 0.77344 1.0312 1.8438 1.0312 3.2188s-0.34375 2.4531-1.0312 3.2344-1.6328 1.1719-2.8281 1.1719c-1.1992 0-2.1406-0.39062-2.8281-1.1719-0.67969-0.78125-1.0156-1.8594-1.0156-3.2344s0.33594-2.4453 1.0156-3.2188c0.6875-0.78125 1.6289-1.1719 2.8281-1.1719z"/>
</symbol>
<symbol id="i" overflow="visible">
<path d="m7.9688-6.7656c0.34375-0.625 0.75391-1.082 1.2344-1.375 0.47656-0.28906 1.0391-0.4375 1.6875-0.4375 0.875 0 1.5469 0.30859 2.0156 0.92188 0.47656 0.60547 0.71875 1.4688 0.71875 2.5938v5.0625h-1.375v-5.0156c0-0.80078-0.14844-1.3945-0.4375-1.7812-0.28125-0.39453-0.71484-0.59375-1.2969-0.59375-0.71094 0-1.2734 0.24219-1.6875 0.71875-0.41797 0.46875-0.625 1.1172-0.625 1.9375v4.7344h-1.3906v-5.0156c0-0.8125-0.14062-1.4102-0.42188-1.7969-0.28125-0.38281-0.71875-0.57812-1.3125-0.57812-0.71094 0-1.2734 0.24219-1.6875 0.71875-0.40625 0.48047-0.60938 1.125-0.60938 1.9375v4.7344h-1.3906v-8.375h1.3906v1.2969c0.3125-0.50781 0.6875-0.88281 1.125-1.125 0.4375-0.25 0.95703-0.375 1.5625-0.375 0.61328 0 1.1328 0.15625 1.5625 0.46875 0.42578 0.30469 0.73828 0.75 0.9375 1.3438z"/>
</symbol>
<symbol id="c" overflow="visible">
<path d="m5.25-4.2188c-1.1172 0-1.8867 0.13281-2.3125 0.39062-0.42969 0.25-0.64062 0.68359-0.64062 1.2969 0 0.49219 0.16016 0.88281 0.48438 1.1719 0.32031 0.28125 0.75781 0.42188 1.3125 0.42188 0.75781 0 1.3672-0.26953 1.8281-0.8125 0.46875-0.53906 0.70312-1.2578 0.70312-2.1562v-0.3125zm2.75-0.5625v4.7812h-1.375v-1.2656c-0.3125 0.5-0.70312 0.875-1.1719 1.125-0.46875 0.23828-1.043 0.35938-1.7188 0.35938-0.86719 0-1.5547-0.23828-2.0625-0.71875-0.5-0.48828-0.75-1.1328-0.75-1.9375 0-0.94531 0.3125-1.6602 0.9375-2.1406 0.63281-0.47656 1.5781-0.71875 2.8281-0.71875h1.9375v-0.125c0-0.63281-0.21094-1.125-0.625-1.4688-0.41797-0.35156-1-0.53125-1.75-0.53125-0.48047 0-0.94922 0.058594-1.4062 0.17188-0.46094 0.11719-0.89844 0.28906-1.3125 0.51562v-1.2656c0.50781-0.19531 1-0.34375 1.4688-0.4375 0.47656-0.09375 0.94141-0.14062 1.3906-0.14062 1.207 0 2.1094 0.3125 2.7031 0.9375 0.60156 0.625 0.90625 1.5781 0.90625 2.8594z"/>
</symbol>
<symbol id="z" overflow="visible">
<path d="m6.9531-7.1094v-4.5312h1.3906v11.641h-1.3906v-1.25c-0.28125 0.49219-0.64844 0.85938-1.0938 1.1094-0.4375 0.23828-0.96484 0.35938-1.5781 0.35938-1.0234 0-1.8516-0.39844-2.4844-1.2031-0.63672-0.8125-0.95312-1.8789-0.95312-3.2031 0-1.3125 0.31641-2.3672 0.95312-3.1719 0.63281-0.8125 1.4609-1.2188 2.4844-1.2188 0.61328 0 1.1406 0.12109 1.5781 0.35938 0.44531 0.24219 0.8125 0.60938 1.0938 1.1094zm-4.6875 2.9219c0 1.0117 0.20703 1.8086 0.625 2.3906 0.41406 0.57422 0.98828 0.85938 1.7188 0.85938 0.72656 0 1.3008-0.28516 1.7188-0.85938 0.41406-0.58203 0.625-1.3789 0.625-2.3906 0-1.0078-0.21094-1.8008-0.625-2.375-0.41797-0.58203-0.99219-0.875-1.7188-0.875-0.73047 0-1.3047 0.29297-1.7188 0.875-0.41797 0.57422-0.625 1.3672-0.625 2.375z"/>
</symbol>
<symbol id="cw" overflow="visible">
<path d="m9.875-10.312v1.5938c-0.51172-0.47656-1.0586-0.83203-1.6406-1.0625-0.57422-0.23828-1.1836-0.35938-1.8281-0.35938-1.2812 0-2.2617 0.39062-2.9375 1.1719-0.67969 0.78125-1.0156 1.9141-1.0156 3.3906 0 1.4688 0.33594 2.5938 1.0156 3.375 0.67578 0.78125 1.6562 1.1719 2.9375 1.1719 0.64453 0 1.2539-0.11328 1.8281-0.34375 0.58203-0.23828 1.1289-0.59375 1.6406-1.0625v1.5781c-0.53125 0.35547-1.0938 0.625-1.6875 0.8125-0.58594 0.17578-1.2109 0.26562-1.875 0.26562-1.6875 0-3.0234-0.51562-4-1.5469-0.96875-1.0391-1.4531-2.457-1.4531-4.25 0-1.7891 0.48438-3.2031 1.4531-4.2344 0.97656-1.0391 2.3125-1.5625 4-1.5625 0.66406 0 1.2969 0.089844 1.8906 0.26562 0.59375 0.17969 1.1484 0.44531 1.6719 0.79688z"/>
</symbol>
<symbol id="p" overflow="visible">
<path d="m1.2969-3.3125v-5.0625h1.375v5.0156c0 0.79297 0.15625 1.3867 0.46875 1.7812 0.3125 0.39844 0.77344 0.59375 1.3906 0.59375 0.75 0 1.3359-0.23438 1.7656-0.70312 0.4375-0.47656 0.65625-1.125 0.65625-1.9375v-4.75h1.375v8.375h-1.375v-1.2812c-0.34375 0.5-0.73438 0.875-1.1719 1.125s-0.94922 0.375-1.5312 0.375c-0.96875 0-1.7031-0.29688-2.2031-0.89062-0.5-0.60156-0.75-1.4844-0.75-2.6406z"/>
</symbol>
<symbol id="co" overflow="visible">
<path d="m-12.891-12.344h2c-0.59375 0.63672-1.0352 1.3203-1.3281 2.0469-0.30078 0.71875-0.45312 1.4844-0.45312 2.2969 0 1.5938 0.49219 2.8203 1.4688 3.6719 0.98047 0.84375 2.3906 1.2656 4.2344 1.2656s3.2578-0.42188 4.2344-1.2656c0.96875-0.85156 1.4531-2.0781 1.4531-3.6719 0-0.8125-0.14453-1.5781-0.4375-2.2969-0.28906-0.72656-0.73438-1.4102-1.3281-2.0469h1.9688c0.44922 0.66797 0.78906 1.3711 1.0156 2.1094 0.21875 0.74219 0.32812 1.5234 0.32812 2.3438 0 2.1172-0.64453 3.7812-1.9375 5-1.2891 1.2109-3.0547 1.8125-5.2969 1.8125-2.2383 0-4.0039-0.60156-5.2969-1.8125-1.3008-1.2188-1.9531-2.8828-1.9531-5 0-0.83203 0.11719-1.6172 0.34375-2.3594 0.21875-0.73828 0.54688-1.4375 0.98438-2.0938z"/>
</symbol>
<symbol id="u" overflow="visible">
<path d="m-9.2656-5.8594c0 0.91797 0.35938 1.6484 1.0781 2.1875 0.71875 0.53125 1.7031 0.79688 2.9531 0.79688 1.2617 0 2.25-0.26562 2.9688-0.79688s1.0781-1.2578 1.0781-2.1875c0-0.91406-0.35938-1.6406-1.0781-2.1719-0.72656-0.53906-1.7188-0.8125-2.9688-0.8125-1.2383 0-2.2188 0.27344-2.9375 0.8125-0.72656 0.53125-1.0938 1.2578-1.0938 2.1719zm-1.4688 0c0-1.5 0.49219-2.6758 1.4688-3.5312 0.96875-0.85156 2.3125-1.2812 4.0312-1.2812s3.0703 0.42969 4.0469 1.2812c0.96875 0.85547 1.4531 2.0312 1.4531 3.5312s-0.48438 2.6797-1.4531 3.5312c-0.97656 0.84375-2.3281 1.2656-4.0469 1.2656s-3.0625-0.42188-4.0312-1.2656c-0.97656-0.85156-1.4688-2.0312-1.4688-3.5312z"/>
</symbol>
<symbol id="o" overflow="visible">
<path d="m-6.3281-10.516h6.3281v1.7188h-6.2656c-0.98828 0-1.7266 0.19922-2.2188 0.59375-0.5 0.38672-0.75 0.96484-0.75 1.7344 0 0.92969 0.29688 1.6641 0.89062 2.2031 0.59375 0.53125 1.4023 0.79688 2.4219 0.79688h5.9219v1.7344h-10.469v-1.7344h1.625c-0.63281-0.41406-1.1094-0.89844-1.4219-1.4531-0.3125-0.5625-0.46875-1.207-0.46875-1.9375 0-1.1953 0.375-2.1016 1.125-2.7188 0.74219-0.625 1.8359-0.9375 3.2812-0.9375z"/>
</symbol>
<symbol id="cb" overflow="visible">
<path d="m-8.8906-8.7031h-5.6562v-1.7188h14.547v1.7188h-1.5781c0.625 0.36719 1.0898 0.82422 1.3906 1.375 0.30078 0.55469 0.45312 1.2148 0.45312 1.9844 0 1.2734-0.50391 2.3047-1.5156 3.0938-1.0078 0.79297-2.3359 1.1875-3.9844 1.1875-1.6445 0-2.9727-0.39453-3.9844-1.1875-1.0078-0.78906-1.5156-1.8203-1.5156-3.0938 0-0.76953 0.15234-1.4297 0.45312-1.9844 0.30469-0.55078 0.76562-1.0078 1.3906-1.375zm3.6562 5.875c1.2734 0 2.2656-0.25781 2.9844-0.78125 0.71875-0.51953 1.0781-1.2383 1.0781-2.1562 0-0.90625-0.35938-1.6172-1.0781-2.1406-0.71875-0.53125-1.7109-0.79688-2.9844-0.79688-1.2578 0-2.25 0.26562-2.9688 0.79688-0.71875 0.52344-1.0781 1.2344-1.0781 2.1406 0 0.91797 0.35938 1.6367 1.0781 2.1562 0.71875 0.52344 1.7109 0.78125 2.9688 0.78125z"/>
</symbol>
<symbol id="t" overflow="visible">
<path d="m-10.469-1.8125v-1.7188h10.469v1.7188zm-4.0781 0v-1.7188h2.1719v1.7188z"/>
</symbol>
<symbol id="n" overflow="visible">
<path d="m-13.453-3.5h2.9844v-3.5469h1.3281v3.5469h5.6875c0.85547 0 1.4062-0.11328 1.6562-0.34375 0.24219-0.23828 0.35938-0.71875 0.35938-1.4375v-1.7656h1.4375v1.7656c0 1.3242-0.24219 2.2422-0.73438 2.75-0.5 0.5-1.4062 0.75-2.7188 0.75h-5.6875v1.2656h-1.3281v-1.2656h-2.9844z"/>
</symbol>
<symbol id="g" overflow="visible"></symbol>
<symbol id="ai" overflow="visible">
<path d="m-5.2656-6.5625c0 1.3867 0.16406 2.3516 0.48438 2.8906 0.3125 0.53125 0.85547 0.79688 1.625 0.79688 0.60547 0 1.0898-0.19531 1.4531-0.59375 0.35547-0.40625 0.53125-0.95312 0.53125-1.6406 0-0.95703-0.33594-1.7227-1.0156-2.2969-0.67578-0.58203-1.5703-0.875-2.6875-0.875h-0.39062zm-0.71875-3.4375h5.9844v1.7188h-1.5938c0.63672 0.39844 1.1055 0.88672 1.4062 1.4688 0.30078 0.58594 0.45312 1.3047 0.45312 2.1562 0 1.0742-0.29688 1.9297-0.89062 2.5625-0.60156 0.625-1.4102 0.9375-2.4219 0.9375-1.1758 0-2.0625-0.39062-2.6562-1.1719-0.60156-0.78906-0.90625-1.9688-0.90625-3.5312v-2.4219h-0.17188c-0.78906 0-1.3984 0.26172-1.8281 0.78125-0.4375 0.52344-0.65625 1.2578-0.65625 2.2031 0 0.59375 0.074219 1.1797 0.21875 1.75 0.13672 0.5625 0.35156 1.1055 0.64062 1.625h-1.5938c-0.23828-0.625-0.42188-1.2344-0.54688-1.8281s-0.1875-1.1719-0.1875-1.7344c0-1.5078 0.39844-2.6406 1.1875-3.3906 0.78125-0.75 1.9688-1.125 3.5625-1.125z"/>
</symbol>
<symbol id="ah" overflow="visible">
<path d="m-14.547-7.1094h1.4219v1.6406c0 0.625 0.125 1.0586 0.375 1.2969 0.25 0.24219 0.69922 0.35938 1.3438 0.35938h0.9375v-2.8438h1.3281v2.8438h9.1406v1.7344h-9.1406v1.6406h-1.3281v-1.6406h-0.73438c-1.1641 0-2.0156-0.26953-2.5469-0.8125-0.53125-0.55078-0.79688-1.4141-0.79688-2.5938z"/>
</symbol>
<symbol id="ak" overflow="visible">
<path d="m-5.6719-10.766h0.84375v7.9062c1.1875-0.070313 2.0938-0.42578 2.7188-1.0625 0.61719-0.63281 0.92188-1.5234 0.92188-2.6719 0-0.65625-0.078125-1.2969-0.23438-1.9219-0.16406-0.625-0.41016-1.2383-0.73438-1.8438h1.625c0.26172 0.61719 0.46094 1.2461 0.59375 1.8906 0.13281 0.64844 0.20312 1.3086 0.20312 1.9844 0 1.668-0.48438 2.9922-1.4531 3.9688-0.96875 0.96875-2.2852 1.4531-3.9531 1.4531-1.707 0-3.0664-0.45703-4.0781-1.375-1.0078-0.92578-1.5156-2.1758-1.5156-3.75 0-1.4141 0.46094-2.5312 1.375-3.3438 0.90625-0.82031 2.1367-1.2344 3.6875-1.2344zm-0.5 1.7188c-0.9375 0.011719-1.6875 0.27734-2.25 0.79688-0.5625 0.51172-0.84375 1.1953-0.84375 2.0469 0 0.96094 0.27344 1.7266 0.8125 2.2969 0.54297 0.57422 1.3086 0.90625 2.2969 1z"/>
</symbol>
<symbol id="cn" overflow="visible">
<path d="m-8.875-7.875c-0.10156 0.19922-0.17969 0.41406-0.23438 0.64062-0.050781 0.21875-0.078125 0.46875-0.078125 0.75 0 0.96875 0.32031 1.7148 0.95312 2.2344 0.625 0.52344 1.5312 0.78125 2.7188 0.78125h5.5156v1.7344h-10.469v-1.7344h1.625c-0.63281-0.36328-1.1094-0.83203-1.4219-1.4062-0.3125-0.58203-0.46875-1.2891-0.46875-2.125 0-0.11328 0.011719-0.24219 0.03125-0.39062 0.011719-0.14453 0.03125-0.30078 0.0625-0.46875z"/>
</symbol>
<symbol id="cm" overflow="visible">
<path d="m-1.5938-2.375v-3.0938h-10.656l0.67188 3.3594h-1.7188l-0.67188-3.3281v-1.8906h12.375v-3.0938h1.5938v8.0469z"/>
</symbol>
<symbol id="cl" overflow="visible">
<path d="m-1.5938-3.6719v-6.5938h1.5938v8.8594h-1.5938c-0.73828-0.71875-1.7344-1.6914-2.9844-2.9219-1.25-1.2383-2.0547-2.0195-2.4219-2.3438-0.67578-0.60156-1.25-1.0234-1.7188-1.2656-0.46875-0.23828-0.92969-0.35938-1.3906-0.35938-0.73828 0-1.3438 0.26172-1.8125 0.78125-0.46875 0.52344-0.70312 1.1992-0.70312 2.0312 0 0.59375 0.10547 1.2188 0.3125 1.875 0.19922 0.65625 0.50781 1.3594 0.92188 2.1094h-1.9062c-0.30078-0.75781-0.53125-1.4688-0.6875-2.125-0.15625-0.66406-0.23438-1.2695-0.23438-1.8125 0-1.4453 0.36719-2.6016 1.0938-3.4688 0.71875-0.86328 1.6836-1.2969 2.8906-1.2969 0.57422 0 1.1211 0.10938 1.6406 0.32812 0.51172 0.21875 1.1172 0.60938 1.8125 1.1719 0.17969 0.15625 0.69922 0.65625 1.5625 1.5 0.86719 0.83594 2.0742 2.0117 3.625 3.5312z"/>
</symbol>
<symbol id="ck" overflow="visible">
<path d="m-8.4688-9.9688c-0.76953-0.42578-1.3359-0.9375-1.7031-1.5312-0.375-0.60156-0.5625-1.3125-0.5625-2.125 0-1.082 0.38672-1.9219 1.1562-2.5156 0.76172-0.59375 1.8438-0.89062 3.25-0.89062h6.3281v1.7344h-6.2656c-1 0-1.7422 0.17969-2.2344 0.53125-0.48828 0.35547-0.73438 0.89844-0.73438 1.625 0 0.89844 0.29688 1.6055 0.89062 2.125 0.59375 0.51172 1.4023 0.76562 2.4219 0.76562h5.9219v1.7344h-6.2656c-1.0078 0-1.7539 0.17969-2.2344 0.53125-0.48828 0.35547-0.73438 0.90234-0.73438 1.6406 0 0.88672 0.29688 1.5898 0.89062 2.1094 0.59375 0.51172 1.4023 0.76562 2.4219 0.76562h5.9219v1.7344h-10.469v-1.7344h1.625c-0.64453-0.39453-1.1172-0.86328-1.4219-1.4062-0.3125-0.55078-0.46875-1.207-0.46875-1.9688 0-0.75781 0.19922-1.4062 0.59375-1.9375 0.38672-0.53125 0.94531-0.92578 1.6719-1.1875z"/>
</symbol>
<symbol id="cj" overflow="visible">
<path d="m-6.3281-10.516h6.3281v1.7188h-6.2656c-0.98828 0-1.7266 0.19922-2.2188 0.59375-0.5 0.38672-0.75 0.96484-0.75 1.7344 0 0.92969 0.29688 1.6641 0.89062 2.2031 0.59375 0.53125 1.4023 0.79688 2.4219 0.79688h5.9219v1.7344h-14.547v-1.7344h5.7031c-0.63281-0.41406-1.1094-0.89844-1.4219-1.4531-0.3125-0.5625-0.46875-1.207-0.46875-1.9375 0-1.1953 0.375-2.1016 1.125-2.7188 0.74219-0.625 1.8359-0.9375 3.2812-0.9375z"/>
</symbol>
<symbol id="aj" overflow="visible">
<path d="m-10.172-8.4844h1.625c-0.23828 0.49219-0.42188 0.99609-0.54688 1.5156-0.125 0.52344-0.1875 1.0625-0.1875 1.625 0 0.85547 0.13281 1.4961 0.39062 1.9219 0.26172 0.42969 0.65234 0.64062 1.1719 0.64062 0.39844 0 0.71094-0.14844 0.9375-0.45312 0.23047-0.30078 0.44922-0.91406 0.65625-1.8438l0.125-0.59375c0.26172-1.2188 0.63281-2.082 1.1094-2.5938 0.48047-0.51953 1.1484-0.78125 2-0.78125 0.96875 0 1.7422 0.38672 2.3125 1.1562 0.5625 0.77344 0.84375 1.8281 0.84375 3.1719 0 0.5625-0.058594 1.1523-0.17188 1.7656-0.10156 0.60547-0.26562 1.2461-0.48438 1.9219h-1.7656c0.32422-0.64453 0.57031-1.2734 0.73438-1.8906 0.16797-0.61328 0.25-1.2227 0.25-1.8281 0-0.8125-0.13281-1.4375-0.40625-1.875-0.28125-0.4375-0.67578-0.65625-1.1875-0.65625-0.45703 0-0.8125 0.16406-1.0625 0.48438-0.25 0.3125-0.49219 1-0.73438 2.0625l-0.14062 0.59375c-0.21875 1.0742-0.55469 1.8516-1.0156 2.3281-0.46875 0.46875-1.1094 0.70312-1.9219 0.70312-0.98828 0-1.75-0.34766-2.2812-1.0469-0.53906-0.69531-0.8125-1.6914-0.8125-2.9844 0-0.63281 0.046875-1.2266 0.14062-1.7812 0.09375-0.5625 0.23438-1.082 0.42188-1.5625z"/>
</symbol>
<symbol id="ci" overflow="visible">
<path d="m-14.547-1.6406v-3.9688h1.3281v2.2344h14.406v-2.2344h1.3438v3.9688z"/>
</symbol>
<symbol id="ch" overflow="visible">
<path d="m-6.1406-13.922c0 0.54297 0.23047 0.96875 0.6875 1.2812 0.46094 0.30469 1.1016 0.45312 1.9219 0.45312 0.8125 0 1.4531-0.14844 1.9219-0.45312 0.46094-0.3125 0.6875-0.73828 0.6875-1.2812 0-0.53125-0.22656-0.95312-0.6875-1.2656-0.46875-0.3125-1.1094-0.46875-1.9219-0.46875s-1.4453 0.15625-1.9062 0.46875c-0.46875 0.3125-0.70312 0.73438-0.70312 1.2656zm-1.1875 0c0-0.98828 0.34375-1.7695 1.0312-2.3438 0.67969-0.58203 1.6016-0.875 2.7656-0.875 1.168 0 2.0938 0.29297 2.7812 0.875 0.67969 0.58594 1.0156 1.3672 1.0156 2.3438 0 0.99219-0.33594 1.7773-1.0156 2.3594-0.6875 0.58594-1.6133 0.875-2.7812 0.875-1.1641 0-2.0859-0.28906-2.7656-0.875-0.6875-0.58203-1.0312-1.3672-1.0312-2.3594zm-5.7031 9.6406c0 0.54297 0.23438 0.96875 0.70312 1.2812 0.46094 0.30469 1.0938 0.45312 1.9062 0.45312 0.82422 0 1.4688-0.14844 1.9375-0.45312 0.46094-0.30078 0.6875-0.72656 0.6875-1.2812 0-0.53906-0.22656-0.96094-0.6875-1.2656-0.46875-0.3125-1.1133-0.46875-1.9375-0.46875-0.80078 0-1.4375 0.15625-1.9062 0.46875s-0.70312 0.73438-0.70312 1.2656zm-1.1875-8.4375v-1.5l14.484 8.7344v1.5zm0 8.4375c0-0.97656 0.34375-1.7578 1.0312-2.3438 0.67969-0.59375 1.6016-0.89062 2.7656-0.89062 1.1797 0 2.1094 0.29297 2.7969 0.875 0.67969 0.58594 1.0156 1.3711 1.0156 2.3594 0 1-0.33594 1.7891-1.0156 2.3594-0.6875 0.57422-1.6172 0.85938-2.7969 0.85938-1.1562 0-2.0781-0.28516-2.7656-0.85938-0.6875-0.58203-1.0312-1.3672-1.0312-2.3594z"/>
</symbol>
<symbol id="cg" overflow="visible">
<path d="m-12.406-3.7656h5.2344v-2.375c0-0.88281-0.22266-1.5664-0.67188-2.0469-0.45703-0.47656-1.1094-0.71875-1.9531-0.71875-0.83203 0-1.4727 0.24219-1.9219 0.71875-0.45703 0.48047-0.6875 1.1641-0.6875 2.0469zm-1.5625 1.8906v-4.2656c0-1.5703 0.35547-2.7539 1.0625-3.5469 0.71094-0.80078 1.7461-1.2031 3.1094-1.2031 1.3867 0 2.4336 0.40234 3.1406 1.2031 0.69922 0.79297 1.0469 1.9766 1.0469 3.5469v2.375h5.6094v1.8906z"/>
</symbol>
<symbol id="cf" overflow="visible">
<path d="m0-5.4844-13.969 5.3281v-1.9688l11.766-4.4219-11.766-4.4375v-1.9688l13.969 5.3281z"/>
</symbol>
<symbol id="ce" overflow="visible">
<path d="m-13.5-10.25h1.8438c-0.34375 0.71875-0.59766 1.3984-0.76562 2.0312-0.17578 0.63672-0.26562 1.25-0.26562 1.8438 0 1.0312 0.20312 1.8281 0.60938 2.3906 0.39844 0.55469 0.96484 0.82812 1.7031 0.82812 0.61719 0 1.0781-0.1875 1.3906-0.5625s0.57031-1.0781 0.76562-2.1094l0.23438-1.1406c0.27344-1.4062 0.74609-2.4414 1.4219-3.1094 0.66797-0.67578 1.5703-1.0156 2.7031-1.0156 1.3555 0 2.3828 0.45312 3.0781 1.3594 0.69922 0.90625 1.0469 2.2344 1.0469 3.9844 0 0.66797-0.074219 1.375-0.21875 2.125-0.14453 0.74219-0.36719 1.5117-0.67188 2.3125h-1.9375c0.42969-0.76953 0.75-1.5195 0.96875-2.25 0.21875-0.73828 0.32812-1.4688 0.32812-2.1875 0-1.0703-0.20703-1.8984-0.625-2.4844-0.42578-0.59375-1.0352-0.89062-1.8281-0.89062-0.6875 0-1.2227 0.21484-1.6094 0.64062-0.38281 0.41797-0.67188 1.1055-0.85938 2.0625l-0.23438 1.1562c-0.28125 1.4062-0.71875 2.4297-1.3125 3.0625-0.60156 0.625-1.4375 0.9375-2.5 0.9375-1.2266 0-2.1953-0.42969-2.9062-1.2969-0.71875-0.875-1.0781-2.0703-1.0781-3.5938 0-0.65625 0.0625-1.3203 0.1875-2 0.11719-0.6875 0.29297-1.3828 0.53125-2.0938z"/>
</symbol>
<symbol id="cd" overflow="visible">
<path d="m-1.5781-3.4688h5.5625v1.7344h-14.453v-1.7344h1.5781c-0.625-0.36328-1.0859-0.82031-1.3906-1.375-0.30078-0.55078-0.45312-1.207-0.45312-1.9688 0-1.2812 0.50781-2.3164 1.5156-3.1094 1.0117-0.78906 2.3398-1.1875 3.9844-1.1875 1.6484 0 2.9766 0.39844 3.9844 1.1875 1.0117 0.79297 1.5156 1.8281 1.5156 3.1094 0 0.76172-0.15234 1.418-0.45312 1.9688-0.30078 0.55469-0.76562 1.0117-1.3906 1.375zm-3.6562-5.8594c-1.2578 0-2.25 0.26172-2.9688 0.78125-0.71875 0.52344-1.0781 1.2422-1.0781 2.1562 0 0.90625 0.35938 1.6211 1.0781 2.1406 0.71875 0.52344 1.7109 0.78125 2.9688 0.78125 1.2734 0 2.2656-0.25781 2.9844-0.78125 0.71875-0.51953 1.0781-1.2344 1.0781-2.1406 0-0.91406-0.35938-1.6328-1.0781-2.1562-0.71875-0.51953-1.7109-0.78125-2.9844-0.78125z"/>
</symbol>
<symbol id="cc" overflow="visible">
<path d="m-14.547-5.8281h17.078v3.9688h-1.3438v-2.2344h-14.406v2.2344h-1.3281z"/>
</symbol>
<symbol id="ca" overflow="visible">
<path d="m10.234-2.5469h-5.625l-0.89062 2.5469h-3.625l5.1719-13.969h4.2969l5.1719 13.969h-3.625zm-4.7344-2.5938h3.8281l-1.9062-5.5469z"/>
</symbol>
<symbol id="ag" overflow="visible">
<path d="m8.7344-8.9375v-5.6094h3.375v14.547h-3.375v-1.5156c-0.46094 0.61719-0.96875 1.0703-1.5312 1.3594-0.55469 0.28125-1.1953 0.42188-1.9219 0.42188-1.293 0-2.3555-0.50781-3.1875-1.5312-0.82422-1.0312-1.2344-2.3516-1.2344-3.9688 0-1.6133 0.41016-2.9297 1.2344-3.9531 0.83203-1.0312 1.8945-1.5469 3.1875-1.5469 0.72656 0 1.3672 0.14844 1.9219 0.4375 0.5625 0.29297 1.0703 0.74609 1.5312 1.3594zm-2.2031 6.7812c0.71875 0 1.2656-0.25781 1.6406-0.78125 0.375-0.53125 0.5625-1.2969 0.5625-2.2969 0-0.98828-0.1875-1.7422-0.5625-2.2656-0.375-0.53125-0.92188-0.79688-1.6406-0.79688-0.71094 0-1.2578 0.26562-1.6406 0.79688-0.375 0.52344-0.5625 1.2773-0.5625 2.2656 0 1 0.1875 1.7656 0.5625 2.2969 0.38281 0.52344 0.92969 0.78125 1.6406 0.78125z"/>
</symbol>
<symbol id="bw" overflow="visible">
<path d="m1.5-4.0781v-6.3906h3.3594v1.0469c0 0.5625-0.007813 1.2773-0.015625 2.1406v1.7031c0 0.84375 0.019531 1.4531 0.0625 1.8281 0.039062 0.36719 0.11719 0.63281 0.23438 0.79688 0.13281 0.21875 0.3125 0.39062 0.53125 0.51562 0.21875 0.11719 0.47266 0.17188 0.76562 0.17188 0.69531 0 1.2422-0.26562 1.6406-0.79688 0.40625-0.53906 0.60938-1.2852 0.60938-2.2344v-5.1719h3.3438v10.469h-3.3438v-1.5156c-0.51172 0.61719-1.0469 1.0703-1.6094 1.3594-0.5625 0.28125-1.1875 0.42188-1.875 0.42188-1.2109 0-2.1328-0.36719-2.7656-1.1094-0.625-0.73828-0.9375-1.8164-0.9375-3.2344z"/>
</symbol>
<symbol id="af" overflow="visible">
<path d="m1.6094-14.547h3.3438v14.547h-3.3438z"/>
</symbol>
<symbol id="bv" overflow="visible">
<path d="m5.2656-13.453v2.9844h3.4531v2.3906h-3.4531v4.4375c0 0.49219 0.09375 0.82422 0.28125 1 0.19531 0.16797 0.58203 0.25 1.1562 0.25h1.7188v2.3906h-2.8594c-1.3242 0-2.2617-0.27344-2.8125-0.82812-0.55469-0.55078-0.82812-1.4883-0.82812-2.8125v-4.4375h-1.6719v-2.3906h1.6719v-2.9844z"/>
</symbol>
<symbol id="bu" overflow="visible">
<path d="m9.7969-10.156v2.5469c-0.71875-0.28906-1.4141-0.50781-2.0781-0.65625-0.66797-0.15625-1.2969-0.23438-1.8906-0.23438-0.63672 0-1.1094 0.078125-1.4219 0.23438-0.30469 0.15625-0.45312 0.40234-0.45312 0.73438 0 0.27344 0.11328 0.48047 0.34375 0.625 0.23828 0.13672 0.66016 0.24219 1.2656 0.3125l0.57812 0.078125c1.7188 0.21875 2.875 0.57812 3.4688 1.0781s0.89062 1.2812 0.89062 2.3438c0 1.125-0.41406 1.9688-1.2344 2.5312-0.82422 0.55469-2.0547 0.82812-3.6875 0.82812-0.69922 0-1.418-0.058594-2.1562-0.17188-0.74219-0.10156-1.4961-0.26562-2.2656-0.48438v-2.5312c0.66406 0.32422 1.3477 0.57031 2.0469 0.73438 0.69531 0.15625 1.4102 0.23438 2.1406 0.23438 0.65625 0 1.1445-0.085937 1.4688-0.26562 0.33203-0.1875 0.5-0.45703 0.5-0.8125 0-0.30078-0.11719-0.52344-0.34375-0.67188-0.23047-0.14453-0.68359-0.25781-1.3594-0.34375l-0.59375-0.0625c-1.4922-0.1875-2.5391-0.53125-3.1406-1.0312-0.59375-0.50781-0.89062-1.2812-0.89062-2.3125 0-1.1133 0.37891-1.9375 1.1406-2.4688 0.76953-0.53906 1.9375-0.8125 3.5-0.8125 0.625 0 1.2734 0.046875 1.9531 0.14062 0.67578 0.09375 1.4141 0.24219 2.2188 0.4375z"/>
</symbol>
<symbol id="bt" overflow="visible">
<path d="m12.828-0.76562c-0.65625 0.34375-1.3438 0.60156-2.0625 0.76562-0.71875 0.17578-1.4688 0.26562-2.25 0.26562-2.3242 0-4.168-0.64453-5.5312-1.9375-1.3555-1.3008-2.0312-3.0664-2.0312-5.2969 0-2.2266 0.67578-3.9922 2.0312-5.2969 1.3633-1.3008 3.207-1.9531 5.5312-1.9531 0.78125 0 1.5312 0.089844 2.25 0.26562 0.71875 0.17969 1.4062 0.4375 2.0625 0.78125v2.8906c-0.66797-0.45703-1.3242-0.78906-1.9688-1-0.64844-0.21875-1.3281-0.32812-2.0469-0.32812-1.2812 0-2.293 0.41406-3.0312 1.2344-0.74219 0.82422-1.1094 1.9609-1.1094 3.4062 0 1.4375 0.36719 2.5703 1.1094 3.3906 0.73828 0.82422 1.75 1.2344 3.0312 1.2344 0.71875 0 1.3984-0.10156 2.0469-0.3125 0.64453-0.20703 1.3008-0.53906 1.9688-1z"/>
</symbol>
<symbol id="bs" overflow="visible">
<path d="m12.141-6.375v6.375h-3.3594v-4.8594c0-0.91406-0.023438-1.5469-0.0625-1.8906-0.042969-0.34375-0.11719-0.59766-0.21875-0.76562-0.125-0.21875-0.30469-0.38281-0.53125-0.5-0.23047-0.125-0.48438-0.1875-0.76562-0.1875-0.69922 0-1.25 0.27344-1.6562 0.8125-0.39844 0.54297-0.59375 1.2891-0.59375 2.2344v5.1562h-3.3438v-14.547h3.3438v5.6094c0.50781-0.61328 1.0469-1.0664 1.6094-1.3594 0.57031-0.28906 1.2031-0.4375 1.8906-0.4375 1.207 0 2.125 0.375 2.75 1.125 0.625 0.74219 0.9375 1.8203 0.9375 3.2344z"/>
</symbol>
<symbol id="br" overflow="visible">
<path d="m1.6094-10.469h3.3438v10.469h-3.3438zm0-4.0781h3.3438v2.7188h-3.3438z"/>
</symbol>
<symbol id="bz" overflow="visible">
<path d="m9.3906-7.625c-0.29297-0.13281-0.58594-0.23438-0.875-0.29688-0.29297-0.070313-0.58594-0.10938-0.875-0.10938-0.86719 0-1.5312 0.27734-2 0.82812-0.46094 0.55469-0.6875 1.3438-0.6875 2.375v4.8281h-3.3438v-10.469h3.3438v1.7188c0.4375-0.6875 0.92969-1.1875 1.4844-1.5 0.5625-0.32031 1.2344-0.48438 2.0156-0.48438 0.10156 0 0.21875 0.007813 0.34375 0.015625 0.13281 0.011719 0.32812 0.03125 0.57812 0.0625z"/>
</symbol>
<symbol id="by" overflow="visible">
<path d="m12.062-5.2656v0.95312h-7.8281c0.082031 0.78125 0.36328 1.3711 0.84375 1.7656 0.48828 0.39844 1.1719 0.59375 2.0469 0.59375 0.70703 0 1.4297-0.10156 2.1719-0.3125 0.73828-0.20703 1.5-0.52344 2.2812-0.95312v2.5781c-0.80469 0.30469-1.6016 0.52734-2.3906 0.67188-0.79297 0.15625-1.5859 0.23438-2.375 0.23438-1.8984 0-3.3711-0.47656-4.4219-1.4375-1.043-0.96875-1.5625-2.3203-1.5625-4.0625 0-1.707 0.51562-3.0508 1.5469-4.0312 1.0312-0.97656 2.4453-1.4688 4.25-1.4688 1.6445 0 2.9609 0.5 3.9531 1.5 0.98828 0.99219 1.4844 2.3125 1.4844 3.9688zm-3.4375-1.1094c0-0.63281-0.1875-1.1445-0.5625-1.5312-0.36719-0.39453-0.85156-0.59375-1.4531-0.59375-0.64844 0-1.1719 0.18359-1.5781 0.54688-0.40625 0.36719-0.65625 0.89062-0.75 1.5781z"/>
</symbol>
<symbol id="bx" overflow="visible">
<path d="m12.141-6.375v6.375h-3.3594v-4.875c0-0.90625-0.023438-1.5312-0.0625-1.875-0.042969-0.34375-0.11719-0.59766-0.21875-0.76562-0.125-0.21875-0.30469-0.38281-0.53125-0.5-0.23047-0.125-0.48438-0.1875-0.76562-0.1875-0.69922 0-1.25 0.27344-1.6562 0.8125-0.39844 0.54297-0.59375 1.2891-0.59375 2.2344v5.1562h-3.3438v-10.469h3.3438v1.5312c0.50781-0.61328 1.0469-1.0664 1.6094-1.3594 0.57031-0.28906 1.2031-0.4375 1.8906-0.4375 1.207 0 2.125 0.375 2.75 1.125 0.625 0.74219 0.9375 1.8203 0.9375 3.2344z"/>
</symbol>
<symbol id="bq" overflow="visible">
<path d="m4.2812-9v6.8281h1.0469c1.1758 0 2.0703-0.28906 2.6875-0.875 0.625-0.58203 0.9375-1.4297 0.9375-2.5469 0-1.1133-0.3125-1.957-0.9375-2.5312-0.61719-0.58203-1.5117-0.875-2.6875-0.875zm-2.875-2.1719h3.0469c1.6875 0 2.9453 0.12109 3.7812 0.35938 0.83203 0.24219 1.5469 0.65234 2.1406 1.2344 0.51953 0.5 0.90625 1.0859 1.1562 1.75 0.25781 0.65625 0.39062 1.4023 0.39062 2.2344 0 0.84375-0.13281 1.6016-0.39062 2.2656-0.25 0.65625-0.63672 1.2344-1.1562 1.7344-0.60547 0.58594-1.3281 0.99609-2.1719 1.2344-0.83594 0.24219-2.0859 0.35938-3.75 0.35938h-3.0469z"/>
</symbol>
<symbol id="l" overflow="visible">
<path d="m9.6562-4.2188v0.76562h-6.2656c0.0625 0.63672 0.28516 1.1094 0.67188 1.4219 0.39453 0.3125 0.94141 0.46875 1.6406 0.46875 0.5625 0 1.1406-0.082031 1.7344-0.25 0.59375-0.16406 1.2031-0.42188 1.8281-0.76562v2.0625c-0.63672 0.24219-1.2734 0.42188-1.9062 0.54688-0.63672 0.125-1.2734 0.1875-1.9062 0.1875-1.5117 0-2.6875-0.38281-3.5312-1.1562-0.84375-0.76953-1.2656-1.8516-1.2656-3.25 0-1.3633 0.41016-2.4375 1.2344-3.2188 0.83203-0.78125 1.9727-1.1719 3.4219-1.1719 1.3125 0 2.3633 0.39844 3.1562 1.1875 0.78906 0.79297 1.1875 1.8516 1.1875 3.1719zm-2.75-0.89062c0-0.50781-0.15234-0.91406-0.45312-1.2188-0.29297-0.3125-0.67969-0.46875-1.1562-0.46875-0.52344 0-0.94531 0.14844-1.2656 0.4375-0.32422 0.29297-0.52734 0.71094-0.60938 1.25z"/>
</symbol>
<symbol id="ac" overflow="visible">
<path d="m6.9844-1.4219c-0.36719 0.49219-0.77344 0.85156-1.2188 1.0781-0.4375 0.23047-0.94922 0.34375-1.5312 0.34375-1.0312 0-1.8828-0.39844-2.5469-1.2031-0.66797-0.8125-1-1.8359-1-3.0781 0-1.2578 0.33203-2.2852 1-3.0781 0.66406-0.80078 1.5156-1.2031 2.5469-1.2031 0.58203 0 1.0938 0.11719 1.5312 0.34375 0.44531 0.23047 0.85156 0.58984 1.2188 1.0781v-1.2344h2.7031v7.5312c0 1.3438-0.42969 2.3672-1.2812 3.0781-0.85547 0.71875-2.0898 1.0781-3.7031 1.0781-0.52344 0-1.0273-0.042969-1.5156-0.125-0.49219-0.085938-0.98047-0.20312-1.4688-0.35938v-2.0938c0.46875 0.26953 0.92578 0.46875 1.375 0.59375 0.44531 0.13281 0.89844 0.20312 1.3594 0.20312 0.875 0 1.5156-0.19531 1.9219-0.57812 0.40625-0.38672 0.60938-0.98438 0.60938-1.7969zm-1.7656-5.2188c-0.55469 0-0.98438 0.21094-1.2969 0.625-0.30469 0.40625-0.45312 0.98438-0.45312 1.7344 0 0.76172 0.14453 1.3398 0.4375 1.7344 0.30078 0.39844 0.73828 0.59375 1.3125 0.59375 0.5625 0 0.99219-0.20312 1.2969-0.60938 0.3125-0.40625 0.46875-0.97656 0.46875-1.7188 0-0.75-0.15625-1.3281-0.46875-1.7344-0.30469-0.41406-0.73438-0.625-1.2969-0.625z"/>
</symbol>
<symbol id="y" overflow="visible">
<path d="m7.5156-6.0938c-0.24219-0.11328-0.47656-0.19531-0.70312-0.25-0.23047-0.050781-0.46484-0.078125-0.70312-0.078125-0.6875 0-1.2188 0.22656-1.5938 0.67188-0.36719 0.4375-0.54688 1.0703-0.54688 1.8906v3.8594h-2.6875v-8.375h2.6875v1.375c0.34375-0.55078 0.73828-0.95312 1.1875-1.2031 0.44531-0.25 0.98438-0.375 1.6094-0.375 0.082031 0 0.17578 0.007813 0.28125 0.015625 0.10156 0 0.25391 0.011719 0.45312 0.03125z"/>
</symbol>
<symbol id="x" overflow="visible"></symbol>
<symbol id="r" overflow="visible">
<path d="m5.2812-6.6719c-0.59375 0-1.0469 0.21484-1.3594 0.64062-0.3125 0.42969-0.46875 1.043-0.46875 1.8438 0 0.80469 0.15625 1.418 0.46875 1.8438 0.3125 0.42969 0.76562 0.64062 1.3594 0.64062 0.58203 0 1.0234-0.21094 1.3281-0.64062 0.3125-0.42578 0.46875-1.0391 0.46875-1.8438 0-0.80078-0.15625-1.4141-0.46875-1.8438-0.30469-0.42578-0.74609-0.64062-1.3281-0.64062zm0-1.9062c1.4375 0 2.5625 0.39062 3.375 1.1719 0.8125 0.77344 1.2188 1.8438 1.2188 3.2188s-0.40625 2.4531-1.2188 3.2344-1.9375 1.1719-3.375 1.1719c-1.4492 0-2.5859-0.39062-3.4062-1.1719-0.8125-0.78125-1.2188-1.8594-1.2188-3.2344s0.40625-2.4453 1.2188-3.2188c0.82031-0.78125 1.957-1.1719 3.4062-1.1719z"/>
</symbol>
<symbol id="ab" overflow="visible">
<path d="m6.7969-11.641v1.75h-1.4688c-0.38672 0-0.65625 0.074219-0.8125 0.21875-0.14844 0.13672-0.21875 0.37109-0.21875 0.70312v0.59375h2.2969v1.9062h-2.2969v6.4688h-2.6719v-6.4688h-1.3281v-1.9062h1.3281v-0.59375c0-0.91406 0.25391-1.5859 0.76562-2.0156 0.50781-0.4375 1.2969-0.65625 2.3594-0.65625z"/>
</symbol>
<symbol id="aa" overflow="visible">
<path d="m9.0625-6.9844c0.33203-0.51953 0.73438-0.91406 1.2031-1.1875 0.46875-0.26953 0.97656-0.40625 1.5312-0.40625 0.96875 0 1.7031 0.29688 2.2031 0.89062 0.50781 0.59375 0.76562 1.4531 0.76562 2.5781v5.1094h-2.7031v-4.375c0.007812-0.0625 0.015625-0.125 0.015625-0.1875v-0.3125c0-0.59375-0.089844-1.0195-0.26562-1.2812-0.16797-0.26953-0.44922-0.40625-0.84375-0.40625-0.51172 0-0.90625 0.21094-1.1875 0.625-0.27344 0.41797-0.41406 1.0273-0.42188 1.8281v4.1094h-2.6875v-4.375c0-0.92578-0.085937-1.5195-0.25-1.7812-0.15625-0.26953-0.4375-0.40625-0.84375-0.40625-0.51172 0-0.90625 0.21484-1.1875 0.64062-0.28125 0.41797-0.42188 1.0156-0.42188 1.7969v4.125h-2.7031v-8.375h2.7031v1.2188c0.32031-0.46875 0.69531-0.82031 1.125-1.0625 0.42578-0.23828 0.89844-0.35938 1.4219-0.35938 0.57031 0 1.082 0.14062 1.5312 0.42188 0.44531 0.27344 0.78516 0.66406 1.0156 1.1719z"/>
</symbol>
<symbol id="w" overflow="visible">
<path d="m5.0469-3.7656c-0.5625 0-0.98438 0.09375-1.2656 0.28125s-0.42188 0.46484-0.42188 0.82812c0 0.34375 0.11328 0.61719 0.34375 0.8125 0.22656 0.1875 0.53906 0.28125 0.9375 0.28125 0.50781 0 0.9375-0.17969 1.2812-0.54688 0.34375-0.36328 0.51562-0.81641 0.51562-1.3594v-0.29688zm4.0938-1.0156v4.7812h-2.7031v-1.25c-0.36719 0.51172-0.77344 0.88672-1.2188 1.125-0.44922 0.22656-0.99609 0.34375-1.6406 0.34375-0.86719 0-1.5703-0.25-2.1094-0.75-0.54297-0.50781-0.8125-1.1719-0.8125-1.9844 0-0.97656 0.33594-1.6953 1.0156-2.1562 0.67578-0.45703 1.7383-0.6875 3.1875-0.6875h1.5781v-0.21875c0-0.42578-0.16797-0.73438-0.5-0.92188-0.33594-0.19531-0.85547-0.29688-1.5625-0.29688-0.57422 0-1.1094 0.058594-1.6094 0.17188-0.49219 0.11719-0.94922 0.28906-1.375 0.51562v-2.0469c0.57031-0.14453 1.1445-0.25 1.7188-0.3125 0.58203-0.070312 1.1641-0.10938 1.75-0.10938 1.5078 0 2.5977 0.29688 3.2656 0.89062 0.67578 0.59375 1.0156 1.5625 1.0156 2.9062z"/>
</symbol>
<symbol id="f" overflow="visible">
<path d="m1.2812-8.375h2.6875v8.375h-2.6875zm0-3.2656h2.6875v2.1875h-2.6875z"/>
</symbol>
<symbol id="m" overflow="visible">
<path d="m9.7188-5.1094v5.1094h-2.7031v-3.9062c0-0.71875-0.015625-1.2109-0.046875-1.4844-0.03125-0.28125-0.089844-0.48828-0.17188-0.625-0.10547-0.16406-0.24609-0.29688-0.42188-0.39062-0.17969-0.10156-0.38281-0.15625-0.60938-0.15625-0.5625 0-1.0078 0.21875-1.3281 0.65625-0.3125 0.42969-0.46875 1.0234-0.46875 1.7812v4.125h-2.6875v-8.375h2.6875v1.2188c0.40625-0.48828 0.83203-0.84766 1.2812-1.0781 0.45703-0.22656 0.96094-0.34375 1.5156-0.34375 0.95703 0 1.6875 0.29688 2.1875 0.89062 0.50781 0.59375 0.76562 1.4531 0.76562 2.5781z"/>
</symbol>
<symbol id="ae" overflow="visible">
<path d="m6.9844-7.1562v-4.4844h2.7031v11.641h-2.7031v-1.2188c-0.36719 0.5-0.77344 0.86719-1.2188 1.0938-0.4375 0.22656-0.94922 0.34375-1.5312 0.34375-1.043 0-1.8984-0.41016-2.5625-1.2344-0.65625-0.82031-0.98438-1.8789-0.98438-3.1719 0-1.2891 0.32812-2.3438 0.98438-3.1562 0.66406-0.82031 1.5195-1.2344 2.5625-1.2344 0.57031 0 1.082 0.11719 1.5312 0.34375 0.44531 0.23047 0.85156 0.58984 1.2188 1.0781zm-1.7656 5.4219c0.57031 0 1.0078-0.20703 1.3125-0.625 0.30078-0.41406 0.45312-1.0234 0.45312-1.8281 0-0.78906-0.15234-1.3945-0.45312-1.8125-0.30469-0.42578-0.74219-0.64062-1.3125-0.64062-0.5625 0-0.99609 0.21484-1.2969 0.64062-0.30469 0.41797-0.45312 1.0234-0.45312 1.8125 0 0.80469 0.14844 1.4141 0.45312 1.8281 0.30078 0.41797 0.73438 0.625 1.2969 0.625z"/>
</symbol>
<symbol id="ad" overflow="visible">
<path d="m7.8438-8.125v2.0469c-0.58594-0.23828-1.1406-0.41406-1.6719-0.53125-0.53125-0.125-1.0391-0.1875-1.5156-0.1875-0.5 0-0.875 0.0625-1.125 0.1875s-0.375 0.32031-0.375 0.57812c0 0.21875 0.09375 0.38672 0.28125 0.5 0.1875 0.11719 0.52344 0.19922 1.0156 0.25l0.46875 0.078125c1.3633 0.16797 2.2812 0.45312 2.75 0.85938 0.47656 0.39844 0.71875 1.0234 0.71875 1.875 0 0.89844-0.32812 1.5703-0.98438 2.0156-0.65625 0.44922-1.6406 0.67188-2.9531 0.67188-0.55469 0-1.125-0.046875-1.7188-0.14062-0.58594-0.082031-1.1875-0.21094-1.8125-0.39062v-2.0312c0.53125 0.26172 1.0781 0.46094 1.6406 0.59375 0.5625 0.125 1.1328 0.1875 1.7188 0.1875 0.51953 0 0.91016-0.070312 1.1719-0.21875 0.26953-0.14453 0.40625-0.35938 0.40625-0.64062 0-0.23828-0.09375-0.41406-0.28125-0.53125-0.17969-0.125-0.54297-0.21875-1.0938-0.28125l-0.46875-0.0625c-1.1875-0.14453-2.0234-0.42188-2.5-0.82812-0.48047-0.40625-0.71875-1.0195-0.71875-1.8438 0-0.88281 0.30078-1.5391 0.90625-1.9688 0.61328-0.42578 1.5469-0.64062 2.7969-0.64062 0.5 0 1.0195 0.039063 1.5625 0.10938 0.53906 0.074219 1.1328 0.1875 1.7812 0.34375z"/>
</symbol>
<symbol id="bp" overflow="visible">
<path d="m5.75-1.7344c0.57031 0 1.0078-0.20703 1.3125-0.625 0.30078-0.41406 0.45312-1.0234 0.45312-1.8281 0-0.78906-0.15234-1.3945-0.45312-1.8125-0.30469-0.42578-0.74219-0.64062-1.3125-0.64062-0.57422 0-1.0156 0.21484-1.3281 0.64062-0.30469 0.41797-0.45312 1.0234-0.45312 1.8125 0 0.79297 0.14844 1.4023 0.45312 1.8281 0.3125 0.41797 0.75391 0.625 1.3281 0.625zm-1.7812-5.4219c0.36328-0.48828 0.76953-0.84766 1.2188-1.0781 0.45703-0.22656 0.97656-0.34375 1.5625-0.34375 1.0312 0 1.875 0.41406 2.5312 1.2344 0.66406 0.8125 1 1.8672 1 3.1562 0 1.293-0.33594 2.3516-1 3.1719-0.65625 0.82422-1.5 1.2344-2.5312 1.2344-0.58594 0-1.1055-0.11719-1.5625-0.34375-0.44922-0.23828-0.85547-0.60156-1.2188-1.0938v1.2188h-2.6875v-11.641h2.6875z"/>
</symbol>
<symbol id="bo" overflow="visible">
<path d="m1.2812-11.641h2.6875v11.641h-2.6875z"/>
</symbol>
<symbol id="s" overflow="visible">
<path d="m4.2188-10.766v2.3906h2.75v1.9062h-2.75v3.5625c0 0.38672 0.070312 0.64844 0.21875 0.78125 0.15625 0.13672 0.46094 0.20312 0.92188 0.20312h1.3906v1.9219h-2.2969c-1.0625 0-1.8203-0.21875-2.2656-0.65625-0.4375-0.44531-0.65625-1.1953-0.65625-2.25v-3.5625h-1.3281v-1.9062h1.3281v-2.3906z"/>
</symbol>
<symbol id="bn" overflow="visible">
<path d="m0.1875-8.375h2.6719l2.2656 5.6875 1.9062-5.6875h2.6875l-3.5312 9.1719c-0.35547 0.92578-0.76562 1.5781-1.2344 1.9531s-1.0938 0.5625-1.875 0.5625h-1.5469v-1.7656h0.84375c0.44531 0 0.77344-0.074219 0.98438-0.21875 0.20703-0.14844 0.36719-0.40625 0.48438-0.78125l0.078125-0.21875z"/>
</symbol>
<symbol id="bm" overflow="visible">
<path d="m10.266-0.60938c-0.53125 0.27344-1.0859 0.47656-1.6562 0.60938-0.57422 0.14453-1.1719 0.21875-1.7969 0.21875-1.8555 0-3.3281-0.51953-4.4219-1.5625-1.0859-1.0391-1.625-2.4531-1.625-4.2344s0.53906-3.1914 1.625-4.2344c1.0938-1.0391 2.5664-1.5625 4.4219-1.5625 0.625 0 1.2227 0.074219 1.7969 0.21875 0.57031 0.13672 1.125 0.33984 1.6562 0.60938v2.3125c-0.53125-0.36328-1.0586-0.62891-1.5781-0.79688-0.52344-0.16406-1.0703-0.25-1.6406-0.25-1.0234 0-1.8281 0.32812-2.4219 0.98438-0.58594 0.65625-0.875 1.5625-0.875 2.7188s0.28906 2.0625 0.875 2.7188c0.59375 0.65625 1.3984 0.98438 2.4219 0.98438 0.57031 0 1.1172-0.082031 1.6406-0.25 0.51953-0.16406 1.0469-0.42969 1.5781-0.79688z"/>
</symbol>
<symbol id="bl" overflow="visible">
<path d="m1.7969-1.9844h2.5469v-7.2344l-2.6094 0.54688v-1.9688l2.5938-0.53125h2.7344v9.1875h2.5469v1.9844h-7.8125z"/>
</symbol>
<symbol id="bk" overflow="visible">
<path d="m4.4219-2.125h4.9062v2.125h-8.1094v-2.125l4.0781-3.5938c0.36328-0.33203 0.62891-0.65625 0.79688-0.96875 0.17578-0.3125 0.26562-0.64062 0.26562-0.98438 0-0.51953-0.17969-0.9375-0.53125-1.25-0.34375-0.32031-0.80859-0.48438-1.3906-0.48438-0.46094 0-0.95312 0.10156-1.4844 0.29688-0.53125 0.1875-1.1016 0.46875-1.7031 0.84375v-2.4531c0.64453-0.21875 1.2812-0.37891 1.9062-0.48438 0.63281-0.11328 1.2578-0.17188 1.875-0.17188 1.332 0 2.3672 0.29688 3.1094 0.89062 0.75 0.58594 1.125 1.4023 1.125 2.4531 0 0.60547-0.16406 1.1719-0.48438 1.7031-0.3125 0.53125-0.97656 1.2344-1.9844 2.1094z"/>
</symbol>
<symbol id="bj" overflow="visible">
<path d="m9.7188-5.1094v5.1094h-2.7031v-3.8906c0-0.72656-0.015625-1.2266-0.046875-1.5-0.03125-0.28125-0.089844-0.48828-0.17188-0.625-0.10547-0.16406-0.24609-0.29688-0.42188-0.39062-0.17969-0.10156-0.38281-0.15625-0.60938-0.15625-0.5625 0-1.0078 0.21875-1.3281 0.65625-0.3125 0.42969-0.46875 1.0234-0.46875 1.7812v4.125h-2.6875v-11.641h2.6875v4.4844c0.40625-0.48828 0.83203-0.84766 1.2812-1.0781 0.45703-0.22656 0.96094-0.34375 1.5156-0.34375 0.95703 0 1.6875 0.29688 2.1875 0.89062 0.50781 0.59375 0.76562 1.4531 0.76562 2.5781z"/>
</symbol>
<clipPath id="dm">
<rect width="35" height="37"/>
</clipPath>
<g id="ao" clip-path="url(#dm)">
<path d="m0 33.918h35v3.082h-35z" fill="#89f5bf"/>
<path d="m0 30.832h35v3.0859h-35z" fill="#f5fdf9"/>
<path d="m0 27.75h35v3.082h-35z" fill="#89f5bf"/>
<path d="m0 24.668h35v3.082h-35z" fill="#f5fdf9"/>
<path d="m0 21.582h35v3.0859h-35z" fill="#89f5bf"/>
<path d="m0 18.5h35v3.082h-35z" fill="#f5fdf9"/>
<path d="m0 15.418h35v3.082h-35z" fill="#89f5bf"/>
<path d="m0 12.332h35v3.0859h-35z" fill="#f5fdf9"/>
<path d="m0 9.25h35v3.082h-35z" fill="#89f5bf"/>
<path d="m0 6.168h35v3.082h-35z" fill="#f5fdf9"/>
<path d="m0 3.082h35v3.0859h-35z" fill="#89f5bf"/>
<path d="m0 0h35v3.082h-35z" fill="#f5fdf9"/>
</g>
<pattern id="bi" width="35" height="37" patternTransform="matrix(.71349 -.7132 .71777 .71748 775.85 -252.4)" patternUnits="userSpaceOnUse">
<use xlink:href="#ao"/>
</pattern>
<clipPath id="dj">
<rect width="34" height="36"/>
</clipPath>
<g id="an" clip-path="url(#dj)">
<path d="m0 33h34v3h-34z" fill="#50dc9d"/>
<path d="m0 30h34v3h-34z" fill="#39a675"/>
<path d="m0 27h34v3h-34z" fill="#50dc9d"/>
<path d="m0 24h34v3h-34z" fill="#39a675"/>
<path d="m0 21h34v3h-34z" fill="#50dc9d"/>
<path d="m0 18h34v3h-34z" fill="#39a675"/>
<path d="m0 15h34v3h-34z" fill="#50dc9d"/>
<path d="m0 12h34v3h-34z" fill="#39a675"/>
<path d="m0 9h34v3h-34z" fill="#50dc9d"/>
<path d="m0 6h34v3h-34z" fill="#39a675"/>
<path d="m0 3h34v3h-34z" fill="#50dc9d"/>
<path d="m0 0h34v3h-34z" fill="#39a675"/>
</g>
<pattern id="bh" width="34" height="36" patternTransform="matrix(.71036 .71007 -.71349 .7132 953.82 -252.4)" patternUnits="userSpaceOnUse">
<use xlink:href="#an"/>
</pattern>
<clipPath id="di">
<rect width="35" height="37"/>
</clipPath>
<g id="ax" clip-path="url(#di)">
<path d="m0 33.918h35v3.082h-35z" fill="#89f5bf"/>
<path d="m0 30.832h35v3.0859h-35z" fill="#f5fdf9"/>
<path d="m0 27.75h35v3.082h-35z" fill="#89f5bf"/>
<path d="m0 24.668h35v3.082h-35z" fill="#f5fdf9"/>
<path d="m0 21.582h35v3.0859h-35z" fill="#89f5bf"/>
<path d="m0 18.5h35v3.082h-35z" fill="#f5fdf9"/>
<path d="m0 15.418h35v3.082h-35z" fill="#89f5bf"/>
<path d="m0 12.332h35v3.0859h-35z" fill="#f5fdf9"/>
<path d="m0 9.25h35v3.082h-35z" fill="#89f5bf"/>
<path d="m0 6.168h35v3.082h-35z" fill="#f5fdf9"/>
<path d="m0 3.082h35v3.0859h-35z" fill="#89f5bf"/>
<path d="m0 0h35v3.082h-35z" fill="#f5fdf9"/>
</g>
<pattern id="bf" width="35" height="37" patternTransform="matrix(.71349 -.7132 .71777 .71748 775.85 -252.4)" patternUnits="userSpaceOnUse">
<use xlink:href="#ax"/>
</pattern>
<clipPath id="dh">
<rect width="34" height="36"/>
</clipPath>
<g id="aw" clip-path="url(#dh)">
<path d="m0 33h34v3h-34z" fill="#50dc9d"/>
<path d="m0 30h34v3h-34z" fill="#39a675"/>
<path d="m0 27h34v3h-34z" fill="#50dc9d"/>
<path d="m0 24h34v3h-34z" fill="#39a675"/>
<path d="m0 21h34v3h-34z" fill="#50dc9d"/>
<path d="m0 18h34v3h-34z" fill="#39a675"/>
<path d="m0 15h34v3h-34z" fill="#50dc9d"/>
<path d="m0 12h34v3h-34z" fill="#39a675"/>
<path d="m0 9h34v3h-34z" fill="#50dc9d"/>
<path d="m0 6h34v3h-34z" fill="#39a675"/>
<path d="m0 3h34v3h-34z" fill="#50dc9d"/>
<path d="m0 0h34v3h-34z" fill="#39a675"/>
</g>
<pattern id="be" width="34" height="36" patternTransform="matrix(.71036 .71007 -.71349 .7132 953.82 -252.4)" patternUnits="userSpaceOnUse">
<use xlink:href="#aw"/>
</pattern>
<clipPath id="dg">
<rect width="35" height="37"/>
</clipPath>
<g id="av" clip-path="url(#dg)">
<path d="m0 33.918h35v3.082h-35z" fill="#89f5bf"/>
<path d="m0 30.832h35v3.0859h-35z" fill="#f5fdf9"/>
<path d="m0 27.75h35v3.082h-35z" fill="#89f5bf"/>
<path d="m0 24.668h35v3.082h-35z" fill="#f5fdf9"/>
<path d="m0 21.582h35v3.0859h-35z" fill="#89f5bf"/>
<path d="m0 18.5h35v3.082h-35z" fill="#f5fdf9"/>
<path d="m0 15.418h35v3.082h-35z" fill="#89f5bf"/>
<path d="m0 12.332h35v3.0859h-35z" fill="#f5fdf9"/>
<path d="m0 9.25h35v3.082h-35z" fill="#89f5bf"/>
<path d="m0 6.168h35v3.082h-35z" fill="#f5fdf9"/>
<path d="m0 3.082h35v3.0859h-35z" fill="#89f5bf"/>
<path d="m0 0h35v3.082h-35z" fill="#f5fdf9"/>
</g>
<pattern id="bd" width="35" height="37" patternTransform="matrix(.71349 -.7132 .71777 .71748 775.85 -252.4)" patternUnits="userSpaceOnUse">
<use xlink:href="#av"/>
</pattern>
<clipPath id="df">
<rect width="34" height="36"/>
</clipPath>
<g id="au" clip-path="url(#df)">
<path d="m0 33h34v3h-34z" fill="#50dc9d"/>
<path d="m0 30h34v3h-34z" fill="#39a675"/>
<path d="m0 27h34v3h-34z" fill="#50dc9d"/>
<path d="m0 24h34v3h-34z" fill="#39a675"/>
<path d="m0 21h34v3h-34z" fill="#50dc9d"/>
<path d="m0 18h34v3h-34z" fill="#39a675"/>
<path d="m0 15h34v3h-34z" fill="#50dc9d"/>
<path d="m0 12h34v3h-34z" fill="#39a675"/>
<path d="m0 9h34v3h-34z" fill="#50dc9d"/>
<path d="m0 6h34v3h-34z" fill="#39a675"/>
<path d="m0 3h34v3h-34z" fill="#50dc9d"/>
<path d="m0 0h34v3h-34z" fill="#39a675"/>
</g>
<pattern id="bc" width="34" height="36" patternTransform="matrix(.71036 .71007 -.71349 .7132 953.82 -252.4)" patternUnits="userSpaceOnUse">
<use xlink:href="#au"/>
</pattern>
<clipPath id="de">
<rect width="35" height="37"/>
</clipPath>
<g id="at" clip-path="url(#de)">
<path d="m0 33.918h35v3.082h-35z" fill="#89f5bf"/>
<path d="m0 30.832h35v3.0859h-35z" fill="#f5fdf9"/>
<path d="m0 27.75h35v3.082h-35z" fill="#89f5bf"/>
<path d="m0 24.668h35v3.082h-35z" fill="#f5fdf9"/>
<path d="m0 21.582h35v3.0859h-35z" fill="#89f5bf"/>
<path d="m0 18.5h35v3.082h-35z" fill="#f5fdf9"/>
<path d="m0 15.418h35v3.082h-35z" fill="#89f5bf"/>
<path d="m0 12.332h35v3.0859h-35z" fill="#f5fdf9"/>
<path d="m0 9.25h35v3.082h-35z" fill="#89f5bf"/>
<path d="m0 6.168h35v3.082h-35z" fill="#f5fdf9"/>
<path d="m0 3.082h35v3.0859h-35z" fill="#89f5bf"/>
<path d="m0 0h35v3.082h-35z" fill="#f5fdf9"/>
</g>
<pattern id="bb" width="35" height="37" patternTransform="matrix(.71349 -.7132 .71777 .71748 775.85 -252.4)" patternUnits="userSpaceOnUse">
<use xlink:href="#at"/>
</pattern>
<clipPath id="dd">
<rect width="34" height="36"/>
</clipPath>
<g id="as" clip-path="url(#dd)">
<path d="m0 33h34v3h-34z" fill="#50dc9d"/>
<path d="m0 30h34v3h-34z" fill="#39a675"/>
<path d="m0 27h34v3h-34z" fill="#50dc9d"/>
<path d="m0 24h34v3h-34z" fill="#39a675"/>
<path d="m0 21h34v3h-34z" fill="#50dc9d"/>
<path d="m0 18h34v3h-34z" fill="#39a675"/>
<path d="m0 15h34v3h-34z" fill="#50dc9d"/>
<path d="m0 12h34v3h-34z" fill="#39a675"/>
<path d="m0 9h34v3h-34z" fill="#50dc9d"/>
<path d="m0 6h34v3h-34z" fill="#39a675"/>
<path d="m0 3h34v3h-34z" fill="#50dc9d"/>
<path d="m0 0h34v3h-34z" fill="#39a675"/>
</g>
<pattern id="ba" width="34" height="36" patternTransform="matrix(.71036 .71007 -.71349 .7132 953.82 -252.4)" patternUnits="userSpaceOnUse">
<use xlink:href="#as"/>
</pattern>
<clipPath id="dc">
<rect width="34" height="36"/>
</clipPath>
<g id="ar" clip-path="url(#dc)">
<path d="m0 33h34v3h-34z" fill="#50dc9d"/>
<path d="m0 30h34v3h-34z" fill="#39a675"/>
<path d="m0 27h34v3h-34z" fill="#50dc9d"/>
<path d="m0 24h34v3h-34z" fill="#39a675"/>
<path d="m0 21h34v3h-34z" fill="#50dc9d"/>
<path d="m0 18h34v3h-34z" fill="#39a675"/>
<path d="m0 15h34v3h-34z" fill="#50dc9d"/>
<path d="m0 12h34v3h-34z" fill="#39a675"/>
<path d="m0 9h34v3h-34z" fill="#50dc9d"/>
<path d="m0 6h34v3h-34z" fill="#39a675"/>
<path d="m0 3h34v3h-34z" fill="#50dc9d"/>
<path d="m0 0h34v3h-34z" fill="#39a675"/>
</g>
<pattern id="az" width="34" height="36" patternTransform="matrix(.37071 .37071 -.37235 .37235 497.37 -131.77)" patternUnits="userSpaceOnUse">
<use xlink:href="#ar"/>
</pattern>
<clipPath id="dl">
<rect width="35" height="37"/>
</clipPath>
<g id="aq" clip-path="url(#dl)">
<path d="m0 33.918h35v3.082h-35z" fill="#89f5bf"/>
<path d="m0 30.832h35v3.0859h-35z" fill="#f5fdf9"/>
<path d="m0 27.75h35v3.082h-35z" fill="#89f5bf"/>
<path d="m0 24.668h35v3.082h-35z" fill="#f5fdf9"/>
<path d="m0 21.582h35v3.0859h-35z" fill="#89f5bf"/>
<path d="m0 18.5h35v3.082h-35z" fill="#f5fdf9"/>
<path d="m0 15.418h35v3.082h-35z" fill="#89f5bf"/>
<path d="m0 12.332h35v3.0859h-35z" fill="#f5fdf9"/>
<path d="m0 9.25h35v3.082h-35z" fill="#89f5bf"/>
<path d="m0 6.168h35v3.082h-35z" fill="#f5fdf9"/>
<path d="m0 3.082h35v3.0859h-35z" fill="#89f5bf"/>
<path d="m0 0h35v3.082h-35z" fill="#f5fdf9"/>
</g>
<pattern id="ay" width="35" height="37" patternTransform="matrix(.37234 -.37234 .37458 .37458 404.5 -131.77)" patternUnits="userSpaceOnUse">
<use xlink:href="#aq"/>
</pattern>
<clipPath id="dk">
<rect width="34" height="36"/>
</clipPath>
<g id="ap" clip-path="url(#dk)">
<path d="m0 33h34v3h-34z" fill="#50dc9d"/>
<path d="m0 30h34v3h-34z" fill="#39a675"/>
<path d="m0 27h34v3h-34z" fill="#50dc9d"/>
<path d="m0 24h34v3h-34z" fill="#39a675"/>
<path d="m0 21h34v3h-34z" fill="#50dc9d"/>
<path d="m0 18h34v3h-34z" fill="#39a675"/>
<path d="m0 15h34v3h-34z" fill="#50dc9d"/>
<path d="m0 12h34v3h-34z" fill="#39a675"/>
<path d="m0 9h34v3h-34z" fill="#50dc9d"/>
<path d="m0 6h34v3h-34z" fill="#39a675"/>
<path d="m0 3h34v3h-34z" fill="#50dc9d"/>
<path d="m0 0h34v3h-34z" fill="#39a675"/>
</g>
<pattern id="bg" width="34" height="36" patternTransform="matrix(.71036 .71007 -.71349 .7132 953.82 -252.4)" patternUnits="userSpaceOnUse">
<use xlink:href="#ap"/>
</pattern>
</defs>
<path d="m110.27 64.945h524.43v355.21h-524.43z" fill="#fff"/>
<g>
<use x="87.382813" y="426.34461" xlink:href="#a"/>
</g>
<g>
<use x="77.628906" y="390.715704" xlink:href="#al"/>
<use x="87.209923" y="390.715704" xlink:href="#a"/>
</g>
<g>
<use x="77.628906" y="355.090704" xlink:href="#cv"/>
<use x="87.209923" y="355.090704" xlink:href="#a"/>
</g>
<g>
<use x="77.628906" y="319.461797" xlink:href="#cu"/>
<use x="87.209923" y="319.461797" xlink:href="#a"/>
</g>
<g>
<use x="77.628906" y="283.836797" xlink:href="#ct"/>
<use x="87.209923" y="283.836797" xlink:href="#a"/>
</g>
<g>
<use x="77.628906" y="248.207891" xlink:href="#cs"/>
<use x="87.209923" y="248.207891" xlink:href="#a"/>
</g>
<g>
<use x="77.628906" y="212.582891" xlink:href="#cr"/>
<use x="87.209923" y="212.582891" xlink:href="#a"/>
</g>
<g>
<use x="77.628906" y="176.953985" xlink:href="#cq"/>
<use x="87.209923" y="176.953985" xlink:href="#a"/>
</g>
<g>
<use x="77.628906" y="141.328985" xlink:href="#cp"/>
<use x="87.209923" y="141.328985" xlink:href="#a"/>
</g>
<g>
<use x="77.628906" y="105.700079" xlink:href="#db"/>
<use x="87.209923" y="105.700079" xlink:href="#a"/>
</g>
<g>
<use x="67.875" y="70.075079" xlink:href="#al"/>
<use x="77.456017" y="70.075079" xlink:href="#a"/>
<use x="87.037034" y="70.075079" xlink:href="#a"/>
</g>
<g>
<use x="28.388196" y="366.199219" xlink:href="#co"/>
<use x="28.388196" y="352.791254" xlink:href="#u"/>
<use x="28.388196" y="341.298713" xlink:href="#o"/>
<use x="28.388196" y="329.806172" xlink:href="#cb"/>
<use x="28.388196" y="318.313631" xlink:href="#t"/>
<use x="28.388196" y="312.56736" xlink:href="#n"/>
<use x="28.388196" y="304.905666" xlink:href="#t"/>
<use x="28.388196" y="299.159396" xlink:href="#u"/>
<use x="28.388196" y="287.666855" xlink:href="#o"/>
<use x="28.388196" y="276.174314" xlink:href="#g"/>
<use x="28.388196" y="270.428043" xlink:href="#ai"/>
<use x="28.388196" y="258.935502" xlink:href="#ah"/>
<use x="28.388196" y="253.189231" xlink:href="#n"/>
<use x="28.388196" y="245.527537" xlink:href="#ak"/>
<use x="28.388196" y="234.034996" xlink:href="#cn"/>
<use x="28.388196" y="226.373302" xlink:href="#g"/>
<use x="28.388196" y="220.627032" xlink:href="#cm"/>
<use x="28.388196" y="209.13449" xlink:href="#cl"/>
<use x="28.388196" y="197.641949" xlink:href="#g"/>
<use x="28.388196" y="191.895679" xlink:href="#ck"/>
<use x="28.388196" y="172.741444" xlink:href="#u"/>
<use x="28.388196" y="161.248903" xlink:href="#o"/>
<use x="28.388196" y="149.756361" xlink:href="#n"/>
<use x="28.388196" y="142.094667" xlink:href="#cj"/>
<use x="28.388196" y="130.602126" xlink:href="#aj"/>
</g>
<g>
<use x="52.341321" y="347.046875" xlink:href="#ci"/>
<use x="52.341321" y="339.385181" xlink:href="#t"/>
<use x="52.341321" y="333.63891" xlink:href="#o"/>
<use x="52.341321" y="322.146369" xlink:href="#g"/>
<use x="52.341321" y="316.400099" xlink:href="#ch"/>
<use x="52.341321" y="297.245864" xlink:href="#g"/>
<use x="52.341321" y="291.499593" xlink:href="#u"/>
<use x="52.341321" y="280.007052" xlink:href="#ah"/>
<use x="52.341321" y="272.345358" xlink:href="#g"/>
<use x="52.341321" y="266.599087" xlink:href="#cg"/>
<use x="52.341321" y="255.106546" xlink:href="#cf"/>
<use x="52.341321" y="241.698582" xlink:href="#ce"/>
<use x="52.341321" y="230.206041" xlink:href="#g"/>
<use x="52.341321" y="224.45977" xlink:href="#cd"/>
<use x="52.341321" y="212.967229" xlink:href="#ai"/>
<use x="52.341321" y="201.474688" xlink:href="#n"/>
<use x="52.341321" y="193.812994" xlink:href="#t"/>
<use x="52.341321" y="188.066723" xlink:href="#ak"/>
<use x="52.341321" y="176.574182" xlink:href="#o"/>
<use x="52.341321" y="165.081641" xlink:href="#n"/>
<use x="52.341321" y="157.419947" xlink:href="#aj"/>
<use x="52.341321" y="147.842829" xlink:href="#cc"/>
</g>
<g>
<use x="206.457031" y="51.521583" xlink:href="#ca"/>
<use x="221.786658" y="51.521583" xlink:href="#ag"/>
<use x="235.200082" y="51.521583" xlink:href="#bw"/>
<use x="248.613505" y="51.521583" xlink:href="#af"/>
<use x="254.362115" y="51.521583" xlink:href="#bv"/>
<use x="263.943132" y="51.521583" xlink:href="#bu"/>
</g>
<g>
<use x="457.515625" y="51.521583" xlink:href="#bt"/>
<use x="470.929049" y="51.521583" xlink:href="#bs"/>
<use x="484.342472" y="51.521583" xlink:href="#br"/>
<use x="490.091082" y="51.521583" xlink:href="#af"/>
<use x="495.839692" y="51.521583" xlink:href="#ag"/>
<use x="509.253116" y="51.521583" xlink:href="#bz"/>
<use x="518.834133" y="51.521583" xlink:href="#by"/>
<use x="532.247556" y="51.521583" xlink:href="#bx"/>
</g>
<g>
<use x="675.515625" y="100.711797" xlink:href="#bq"/>
<use x="688.929049" y="100.711797" xlink:href="#l"/>
<use x="698.510065" y="100.711797" xlink:href="#ac"/>
<use x="710.007286" y="100.711797" xlink:href="#y"/>
<use x="717.672099" y="100.711797" xlink:href="#l"/>
<use x="727.253116" y="100.711797" xlink:href="#l"/>
<use x="736.834133" y="100.711797" xlink:href="#x"/>
<use x="742.582743" y="100.711797" xlink:href="#r"/>
<use x="752.16376" y="100.711797" xlink:href="#ab"/>
</g>
<g>
<use x="672.640625" y="119.864141" xlink:href="#y"/>
<use x="680.305438" y="119.864141" xlink:href="#l"/>
<use x="689.886455" y="119.864141" xlink:href="#aa"/>
<use x="705.216082" y="119.864141" xlink:href="#w"/>
<use x="714.797099" y="119.864141" xlink:href="#f"/>
<use x="720.545709" y="119.864141" xlink:href="#m"/>
<use x="732.042929" y="119.864141" xlink:href="#f"/>
<use x="737.791539" y="119.864141" xlink:href="#m"/>
<use x="749.28876" y="119.864141" xlink:href="#ac"/>
</g>
<g>
<use x="675.515625" y="139.020391" xlink:href="#ae"/>
<use x="687.012845" y="139.020391" xlink:href="#f"/>
<use x="692.761455" y="139.020391" xlink:href="#ad"/>
<use x="702.342472" y="139.020391" xlink:href="#w"/>
<use x="711.923489" y="139.020391" xlink:href="#bp"/>
<use x="723.420709" y="139.020391" xlink:href="#f"/>
<use x="729.169319" y="139.020391" xlink:href="#bo"/>
<use x="734.917929" y="139.020391" xlink:href="#f"/>
<use x="740.666539" y="139.020391" xlink:href="#s"/>
<use x="748.331353" y="139.020391" xlink:href="#bn"/>
</g>
<path d="m647.99 163.3h145.82v67.797h-145.82z" fill="#fff"/>
<g>
<use x="651.265625" y="275.985235" xlink:href="#bm"/>
<use x="662.762845" y="275.985235" xlink:href="#r"/>
<use x="672.343862" y="275.985235" xlink:href="#m"/>
<use x="683.841082" y="275.985235" xlink:href="#ae"/>
<use x="695.338302" y="275.985235" xlink:href="#f"/>
<use x="701.086913" y="275.985235" xlink:href="#s"/>
<use x="708.751726" y="275.985235" xlink:href="#f"/>
<use x="714.500336" y="275.985235" xlink:href="#r"/>
<use x="724.081353" y="275.985235" xlink:href="#m"/>
<use x="735.578573" y="275.985235" xlink:href="#x"/>
<use x="741.327183" y="275.985235" xlink:href="#w"/>
<use x="750.9082" y="275.985235" xlink:href="#ab"/>
<use x="756.65681" y="275.985235" xlink:href="#s"/>
<use x="764.321624" y="275.985235" xlink:href="#l"/>
<use x="773.90264" y="275.985235" xlink:href="#y"/>
</g>
<g>
<use x="669.46875" y="295.137579" xlink:href="#bl"/>
<use x="680.96597" y="295.137579" xlink:href="#bk"/>
<use x="692.46319" y="295.137579" xlink:href="#x"/>
<use x="698.2118" y="295.137579" xlink:href="#aa"/>
<use x="713.541427" y="295.137579" xlink:href="#r"/>
<use x="723.122444" y="295.137579" xlink:href="#m"/>
<use x="734.619664" y="295.137579" xlink:href="#s"/>
<use x="742.284478" y="295.137579" xlink:href="#bj"/>
<use x="753.781698" y="295.137579" xlink:href="#ad"/>
</g>
<path d="m647.99 316.3h145.82v67.793h-145.82z" fill="#fff"/>
<g>
<use x="679.757812" y="182.957891" xlink:href="#v"/>
<use x="687.422626" y="182.957891" xlink:href="#e"/>
<use x="697.003643" y="182.957891" xlink:href="#da"/>
<use x="706.58466" y="182.957891" xlink:href="#e"/>
<use x="716.165676" y="182.957891" xlink:href="#q"/>
<use x="721.914287" y="182.957891" xlink:href="#e"/>
</g>
<g>
<use x="681.351562" y="355.90711" xlink:href="#cz"/>
<use x="690.932579" y="355.90711" xlink:href="#d"/>
<use x="694.764986" y="355.90711" xlink:href="#cy"/>
<use x="704.346003" y="355.90711" xlink:href="#d"/>
<use x="708.17841" y="355.90711" xlink:href="#am"/>
<use x="712.010816" y="355.90711" xlink:href="#e"/>
<use x="721.591833" y="355.90711" xlink:href="#k"/>
<use x="731.17285" y="355.90711" xlink:href="#b"/>
<use x="736.92146" y="355.90711" xlink:href="#cx"/>
<use x="742.67007" y="355.90711" xlink:href="#h"/>
<use x="750.334884" y="355.90711" xlink:href="#j"/>
<use x="759.915901" y="355.90711" xlink:href="#i"/>
<use x="775.245527" y="355.90711" xlink:href="#c"/>
</g>
<g>
<use x="679.710938" y="202.911016" xlink:href="#i"/>
<use x="695.040564" y="202.911016" xlink:href="#d"/>
<use x="698.872971" y="202.911016" xlink:href="#am"/>
<use x="702.705378" y="202.911016" xlink:href="#z"/>
</g>
<path transform="matrix(1.9162 0 0 1.9154 .75937 0)" d="m337.77 85.256h76.101v35.395h-76.101z" fill="none" stroke="#000" stroke-width=".5"/>
<g>
<use x="679.367188" y="222.864141" xlink:href="#k"/>
<use x="688.948204" y="222.864141" xlink:href="#j"/>
<use x="698.529221" y="222.864141" xlink:href="#k"/>
<use x="708.110238" y="222.864141" xlink:href="#e"/>
</g>
<path transform="matrix(1.9162 0 0 1.9154 .75937 0)" d="m337.77 165.15h76.101v35.393h-76.101z" fill="none" stroke="#000" stroke-width=".5"/>
<g>
<use x="680.328125" y="335.953985" xlink:href="#z"/>
<use x="689.909142" y="335.953985" xlink:href="#e"/>
<use x="699.490159" y="335.953985" xlink:href="#h"/>
<use x="707.154972" y="335.953985" xlink:href="#e"/>
<use x="716.735989" y="335.953985" xlink:href="#c"/>
<use x="726.317006" y="335.953985" xlink:href="#v"/>
<use x="733.981819" y="335.953985" xlink:href="#e"/>
<use x="743.562836" y="335.953985" xlink:href="#z"/>
</g>
<g>
<use x="680.390625" y="375.860235" xlink:href="#cw"/>
<use x="691.887845" y="375.860235" xlink:href="#j"/>
<use x="701.468862" y="375.860235" xlink:href="#k"/>
<use x="711.049879" y="375.860235" xlink:href="#v"/>
<use x="718.714692" y="375.860235" xlink:href="#h"/>
<use x="726.379506" y="375.860235" xlink:href="#d"/>
<use x="730.211913" y="375.860235" xlink:href="#j"/>
<use x="739.792929" y="375.860235" xlink:href="#p"/>
<use x="749.373946" y="375.860235" xlink:href="#v"/>
</g>
<path transform="matrix(1.9162 0 0 1.9154 .75937 0)" d="m125.57 236.72v-202.81" fill="none" stroke="#000" stroke-width=".75"/>
<path d="m120.61 235.16h43.73v185h-43.73z" fill="url(#bi)"/>
<path d="m120.61 183.5h43.73v51.66h-43.73z" fill="url(#bh)"/>
<path d="m120.61 64.945h43.73v118.55h-43.73z" fill="#2b8059"/>
<path d="m185.24 394.71h43.73v25.445h-43.73z" fill="#e1fbec"/>
<path d="m185.24 334.39h43.73v60.32h-43.73z" fill="#89f5bf"/>
<path d="m185.24 235h43.73v99.387h-43.73z" fill="#50dc9d"/>
<path d="m251.35 366.27h43.73v53.883h-43.73z" fill="url(#bf)"/>
<path d="m251.35 253.65h43.73v112.62h-43.73z" fill="url(#be)"/>
<path d="m251.35 64.945h43.73v188.7h-43.73z" fill="#2b8059"/>
<path d="m317.09 416.46h43.73v3.6914h-43.73z" fill="#e1fbec"/>
<path d="m317.09 405.44h43.73v11.023h-43.73z" fill="#89f5bf"/>
<path d="m317.09 366.99h43.73v38.973h-43.73z" fill="#50dc9d"/>
<path transform="matrix(1.9162 0 0 1.9154 .75937 0)" d="m262.41 236.72v-202.81" fill="none" stroke="#000" stroke-width=".75"/>
<path d="m382.46 199.44h43.73v220.71h-43.73z" fill="url(#bd)"/>
<path d="m382.46 97.238h43.73v102.2h-43.73z" fill="url(#bc)"/>
<path d="m382.46 65.883h43.73v31.355h-43.73z" fill="#2b8059"/>
<path d="m447.83 380.7h43.73v39.453h-43.73z" fill="#e1fbec"/>
<path d="m447.83 323.38h43.73v57.328h-43.73z" fill="#89f5bf"/>
<path d="m447.83 199.6h43.73v123.77h-43.73z" fill="#50dc9d"/>
<path d="m513.57 373.43h43.73v46.727h-43.73z" fill="url(#bb)"/>
<path d="m513.57 144.12h43.73v229.31h-43.73z" fill="url(#ba)"/>
<path d="m513.57 64.945h43.73v79.176h-43.73z" fill="#2b8059"/>
<path d="m578.95 398.12h43.73v22.039h-43.73z" fill="#e1fbec"/>
<path d="m578.95 373.9h43.73v24.219h-43.73z" fill="#50dc9d"/>
<path transform="matrix(1.9162 0 0 1.9154 .75937 0)" d="m341.58 168.74h7.353v7.3519h-7.353z" fill="none" stroke="#000" stroke-width=".5"/>
<path transform="matrix(1.9162 0 0 1.9154 .75937 0)" d="m341.58 88.859h7.353v7.3519h-7.353z" fill="#50dc9d" stroke="#000" stroke-width=".5"/>
<path transform="matrix(1.9162 0 0 1.9154 .75937 0)" d="m341.58 99.276h7.353v7.3519h-7.353z" fill="#89f5bf" stroke="#000" stroke-width=".5"/>
<path transform="matrix(1.9162 0 0 1.9154 .75937 0)" d="m341.58 109.69h7.353v7.354h-7.353z" fill="#e1fbec" stroke="#000" stroke-width=".5"/>
<path transform="matrix(1.9162 0 0 1.9154 .75937 0)" d="m341.58 168.74h7.353v7.3519h-7.353z" fill="#2b8059" stroke="#000" stroke-width=".5"/>
<path transform="matrix(1.9162 0 0 1.9154 .75937 0)" d="m341.58 179.15h7.353v7.3519h-7.353z" fill="url(#az)" stroke="#000" stroke-width=".5"/>
<path transform="matrix(1.9162 0 0 1.9154 .75937 0)" d="m341.58 189.57h7.353v7.3519h-7.353z" fill="url(#ay)" stroke="#000" stroke-width=".5"/>
<g>
<use x="139.21875" y="444.102422" xlink:href="#b"/>
<use x="144.96736" y="444.102422" xlink:href="#q"/>
<use x="150.71597" y="444.102422" xlink:href="#c"/>
<use x="160.296987" y="444.102422" xlink:href="#p"/>
<use x="169.878004" y="444.102422" xlink:href="#i"/>
<use x="185.207631" y="444.102422" xlink:href="#c"/>
<use x="194.788648" y="444.102422" xlink:href="#b"/>
<use x="200.537258" y="444.102422" xlink:href="#d"/>
<use x="204.369664" y="444.102422" xlink:href="#h"/>
</g>
<g>
<use x="295.347656" y="436.442266" xlink:href="#k"/>
<use x="304.928673" y="436.442266" xlink:href="#j"/>
<use x="314.50969" y="436.442266" xlink:href="#b"/>
</g>
<g>
<use x="271.398438" y="451.762579" xlink:href="#b"/>
<use x="277.147048" y="451.762579" xlink:href="#q"/>
<use x="282.895658" y="451.762579" xlink:href="#c"/>
<use x="292.476675" y="451.762579" xlink:href="#p"/>
<use x="302.057691" y="451.762579" xlink:href="#i"/>
<use x="317.387318" y="451.762579" xlink:href="#c"/>
<use x="326.968335" y="451.762579" xlink:href="#b"/>
<use x="332.716945" y="451.762579" xlink:href="#d"/>
<use x="336.549352" y="451.762579" xlink:href="#h"/>
</g>
<g>
<use x="401.140625" y="444.102422" xlink:href="#b"/>
<use x="406.889235" y="444.102422" xlink:href="#q"/>
<use x="412.637845" y="444.102422" xlink:href="#c"/>
<use x="422.218862" y="444.102422" xlink:href="#p"/>
<use x="431.799879" y="444.102422" xlink:href="#i"/>
<use x="447.129506" y="444.102422" xlink:href="#c"/>
<use x="456.710523" y="444.102422" xlink:href="#b"/>
<use x="462.459133" y="444.102422" xlink:href="#d"/>
<use x="466.291539" y="444.102422" xlink:href="#h"/>
</g>
<g>
<use x="557.269531" y="436.442266" xlink:href="#k"/>
<use x="566.850548" y="436.442266" xlink:href="#j"/>
<use x="576.431565" y="436.442266" xlink:href="#b"/>
</g>
<g>
<use x="533.316406" y="451.762579" xlink:href="#b"/>
<use x="539.065016" y="451.762579" xlink:href="#q"/>
<use x="544.813626" y="451.762579" xlink:href="#c"/>
<use x="554.394643" y="451.762579" xlink:href="#p"/>
<use x="563.97566" y="451.762579" xlink:href="#i"/>
<use x="579.305287" y="451.762579" xlink:href="#c"/>
<use x="588.886304" y="451.762579" xlink:href="#b"/>
<use x="594.634914" y="451.762579" xlink:href="#d"/>
<use x="598.467321" y="451.762579" xlink:href="#h"/>
</g>
<path d="m120.61 183.5h43.73v51.66h-43.73z" fill="url(#bg)"/>
<path transform="matrix(1.9162 0 0 1.9154 .75937 0)" d="m57.148 236.72v-219.14" fill="none" stroke="#000" stroke-width=".75"/>
<path transform="matrix(1.9162 0 0 1.9154 .75937 0)" d="m193.99 236.72v-219.14" fill="none" stroke="#000" stroke-width=".75"/>
<path transform="matrix(1.9162 0 0 1.9154 .75937 0)" d="m330.83 236.72v-219.14" fill="none" stroke="#000" stroke-width=".75"/>
<path transform="matrix(1.9162 0 0 1.9154 .75937 0)" d="m57.148 33.907h273.68" fill="none" stroke="#000" stroke-width=".75"/>
<path transform="matrix(1.9162 0 0 1.9154 .75937 0)" d="m57.148 219.35h-3.0496" fill="none" stroke="#000" stroke-width=".5"/>
<path transform="matrix(1.9162 0 0 1.9154 .75937 0)" d="m57.148 200.81h-3.0496" fill="none" stroke="#000" stroke-width=".5"/>
<path transform="matrix(1.9162 0 0 1.9154 .75937 0)" d="m57.148 182.26h-3.0496" fill="none" stroke="#000" stroke-width=".5"/>
<path transform="matrix(1.9162 0 0 1.9154 .75937 0)" d="m57.148 163.72h-3.0496" fill="none" stroke="#000" stroke-width=".5"/>
<path transform="matrix(1.9162 0 0 1.9154 .75937 0)" d="m57.148 145.17h-3.0496" fill="none" stroke="#000" stroke-width=".5"/>
<path transform="matrix(1.9162 0 0 1.9154 .75937 0)" d="m57.148 126.63h-3.0496" fill="none" stroke="#000" stroke-width=".5"/>
<path transform="matrix(1.9162 0 0 1.9154 .75937 0)" d="m57.148 108.09h-3.0496" fill="none" stroke="#000" stroke-width=".5"/>
<path transform="matrix(1.9162 0 0 1.9154 .75937 0)" d="m57.148 89.54h-3.0496" fill="none" stroke="#000" stroke-width=".5"/>
<path transform="matrix(1.9162 0 0 1.9154 .75937 0)" d="m57.148 70.996h-3.0496" fill="none" stroke="#000" stroke-width=".5"/>
<path transform="matrix(1.9162 0 0 1.9154 .75937 0)" d="m57.148 52.452h-3.0496" fill="none" stroke="#000" stroke-width=".5"/>
<path transform="matrix(1.9162 0 0 1.9154 .75937 0)" d="m57.148 33.907h-3.0496" fill="none" stroke="#000" stroke-width=".5"/>
<path transform="matrix(1.9162 0 0 1.9154 .75937 0)" d="m57.148 219.35h273.68" fill="none" stroke="#000" stroke-width=".75"/>
</svg>
