<?xml version="1.0" encoding="UTF-8"?>
<svg width="600px" height="392px" version="1.1" viewBox="0 0 600 392" xmlns="http://www.w3.org/2000/svg" xmlns:xlink="http://www.w3.org/1999/xlink">
<defs>
<symbol id="m" overflow="visible">
<path d="m4.75-5.8125c-0.63672 0-1.1406 0.21875-1.5156 0.65625-0.36719 0.4375-0.54688 1.0391-0.54688 1.7969 0 0.75 0.17969 1.3438 0.54688 1.7812 0.375 0.4375 0.87891 0.65625 1.5156 0.65625 0.64453 0 1.1484-0.21875 1.5156-0.65625 0.375-0.4375 0.5625-1.0312 0.5625-1.7812 0-0.75781-0.1875-1.3594-0.5625-1.7969-0.36719-0.4375-0.87109-0.65625-1.5156-0.65625zm2.8281-4.4531v1.2969c-0.35547-0.16406-0.71484-0.28906-1.0781-0.375-0.36719-0.09375-0.72656-0.14062-1.0781-0.14062-0.9375 0-1.6562 0.32031-2.1562 0.95312-0.49219 0.625-0.77344 1.5781-0.84375 2.8594 0.26953-0.40625 0.61328-0.71875 1.0312-0.9375 0.42578-0.21875 0.89062-0.32812 1.3906-0.32812 1.0508 0 1.8828 0.32422 2.5 0.96875 0.61328 0.63672 0.92188 1.5078 0.92188 2.6094 0 1.0742-0.32422 1.9375-0.96875 2.5938-0.63672 0.64844-1.4844 0.96875-2.5469 0.96875-1.2109 0-2.1367-0.46094-2.7812-1.3906-0.64844-0.92578-0.96875-2.2734-0.96875-4.0469 0-1.6562 0.39453-2.9766 1.1875-3.9688 0.78906-0.98828 1.8477-1.4844 3.1719-1.4844 0.35156 0 0.71094 0.039062 1.0781 0.10938 0.36328 0.074219 0.74219 0.17969 1.1406 0.3125z"/>
</symbol>
<symbol id="f" overflow="visible">
<path d="m1.5469-10.484h5.5781v1.1875h-4.2656v2.5781c0.20703-0.070312 0.41016-0.125 0.60938-0.15625 0.20703-0.039062 0.41406-0.0625 0.625-0.0625 1.1758 0 2.1016 0.32422 2.7812 0.96875 0.6875 0.63672 1.0312 1.5078 1.0312 2.6094 0 1.125-0.35547 2-1.0625 2.625-0.69922 0.625-1.6875 0.9375-2.9688 0.9375-0.4375 0-0.88672-0.039063-1.3438-0.10938-0.46094-0.074219-0.93359-0.1875-1.4219-0.34375v-1.4219c0.42578 0.23047 0.86328 0.40234 1.3125 0.51562 0.44531 0.11719 0.92188 0.17188 1.4219 0.17188 0.8125 0 1.4531-0.21094 1.9219-0.64062 0.47656-0.42578 0.71875-1.0039 0.71875-1.7344 0-0.73828-0.24219-1.3164-0.71875-1.7344-0.46875-0.42578-1.1094-0.64062-1.9219-0.64062-0.375 0-0.75781 0.042969-1.1406 0.125-0.375 0.085937-0.76172 0.21484-1.1562 0.39062z"/>
</symbol>
<symbol id="e" overflow="visible">
<path d="m0.70312-4.5156h3.7969v1.1562h-3.7969z"/>
</symbol>
<symbol id="t" overflow="visible">
<path d="m1.5781-0.21875v-1.2969c0.36328 0.17969 0.72656 0.3125 1.0938 0.40625 0.36328 0.085937 0.72266 0.125 1.0781 0.125 0.9375 0 1.6484-0.3125 2.1406-0.9375 0.5-0.63281 0.78125-1.5977 0.84375-2.8906-0.27344 0.40625-0.61719 0.71875-1.0312 0.9375-0.41797 0.21094-0.88281 0.3125-1.3906 0.3125-1.043 0-1.8711-0.3125-2.4844-0.9375-0.61719-0.63281-0.92188-1.5039-0.92188-2.6094 0-1.082 0.31641-1.9453 0.95312-2.5938 0.64453-0.65625 1.4922-0.98438 2.5469-0.98438 1.2188 0 2.1445 0.46875 2.7812 1.4062 0.64453 0.92969 0.96875 2.2773 0.96875 4.0469 0 1.6562-0.39844 2.9805-1.1875 3.9688-0.78125 0.98047-1.8359 1.4688-3.1562 1.4688-0.36719 0-0.73047-0.039063-1.0938-0.10938-0.36719-0.0625-0.74609-0.16406-1.1406-0.3125zm2.8281-4.4531c0.63281 0 1.1406-0.21094 1.5156-0.64062 0.375-0.4375 0.5625-1.0352 0.5625-1.7969 0-0.75781-0.1875-1.3594-0.5625-1.7969s-0.88281-0.65625-1.5156-0.65625c-0.63672 0-1.1406 0.21875-1.5156 0.65625s-0.5625 1.0391-0.5625 1.7969c0 0.76172 0.1875 1.3594 0.5625 1.7969 0.375 0.42969 0.87891 0.64062 1.5156 0.64062z"/>
</symbol>
<symbol id="d" overflow="visible">
<path d="m1.1875-10.484h6.75v0.59375l-3.8125 9.8906h-1.4844l3.5781-9.2969h-5.0312z"/>
</symbol>
<symbol id="a" overflow="visible">
<path d="m4.5781-9.5625c-0.73047 0-1.2812 0.35938-1.6562 1.0781-0.36719 0.71875-0.54688 1.8047-0.54688 3.25 0 1.4375 0.17969 2.5156 0.54688 3.2344 0.375 0.71875 0.92578 1.0781 1.6562 1.0781 0.73828 0 1.2891-0.35938 1.6562-1.0781 0.36328-0.71875 0.54688-1.7969 0.54688-3.2344 0-1.4453-0.18359-2.5312-0.54688-3.25-0.36719-0.71875-0.91797-1.0781-1.6562-1.0781zm0-1.125c1.1758 0 2.0703 0.46875 2.6875 1.4062 0.625 0.92969 0.9375 2.2773 0.9375 4.0469 0 1.7734-0.3125 3.1211-0.9375 4.0469-0.61719 0.92969-1.5117 1.3906-2.6875 1.3906-1.1797 0-2.0781-0.46094-2.7031-1.3906-0.61719-0.92578-0.92188-2.2734-0.92188-4.0469 0-1.7695 0.30469-3.1172 0.92188-4.0469 0.625-0.9375 1.5234-1.4062 2.7031-1.4062z"/>
</symbol>
<symbol id="l" overflow="visible">
<path d="m5.4375-9.25-3.5781 5.5938h3.5781zm-0.35938-1.2344h1.7812v6.8281h1.5v1.1875h-1.5v2.4688h-1.4219v-2.4688h-4.7344v-1.375z"/>
</symbol>
<symbol id="k" overflow="visible">
<path d="m4.5781-4.9844c-0.67969 0-1.2109 0.18359-1.5938 0.54688-0.38672 0.35547-0.57812 0.85156-0.57812 1.4844 0 0.63672 0.19141 1.1367 0.57812 1.5 0.38281 0.35547 0.91406 0.53125 1.5938 0.53125 0.67578 0 1.207-0.17969 1.5938-0.54688 0.39453-0.36328 0.59375-0.85938 0.59375-1.4844 0-0.63281-0.19922-1.1289-0.59375-1.4844-0.38672-0.36328-0.91797-0.54688-1.5938-0.54688zm-1.4219-0.60938c-0.60547-0.14453-1.0781-0.42578-1.4219-0.84375-0.34375-0.41406-0.51562-0.92578-0.51562-1.5312 0-0.83203 0.29688-1.4922 0.89062-1.9844 0.60156-0.48828 1.4258-0.73438 2.4688-0.73438 1.0391 0 1.8594 0.24609 2.4531 0.73438 0.60156 0.49219 0.90625 1.1523 0.90625 1.9844 0 0.60547-0.17188 1.1172-0.51562 1.5312-0.33594 0.41797-0.80859 0.69922-1.4219 0.84375 0.6875 0.16797 1.2227 0.48438 1.6094 0.95312 0.38281 0.46094 0.57812 1.0234 0.57812 1.6875 0 1.0234-0.3125 1.8047-0.9375 2.3438-0.625 0.54297-1.5156 0.8125-2.6719 0.8125s-2.0469-0.26953-2.6719-0.8125c-0.61719-0.53906-0.92188-1.3203-0.92188-2.3438 0-0.66406 0.1875-1.2266 0.5625-1.6875 0.38281-0.46875 0.92188-0.78516 1.6094-0.95312zm-0.51562-2.2344c0 0.54297 0.16406 0.96875 0.5 1.2812 0.34375 0.30469 0.82031 0.45312 1.4375 0.45312 0.61328 0 1.0938-0.14844 1.4375-0.45312 0.34375-0.3125 0.51562-0.73828 0.51562-1.2812 0-0.53906-0.17188-0.96094-0.51562-1.2656-0.34375-0.3125-0.82422-0.46875-1.4375-0.46875-0.61719 0-1.0938 0.15625-1.4375 0.46875-0.33594 0.30469-0.5 0.72656-0.5 1.2656z"/>
</symbol>
<symbol id="ay" overflow="visible">
<path d="m6.625-9.0156v3.9062h3.9219v1.2031h-3.9219v3.9062h-1.1875v-3.9062h-3.9062v-1.2031h3.9062v-3.9062z"/>
</symbol>
<symbol id="bb" overflow="visible">
<path d="m1.7812-1.1875h2.3281v-8.0156l-2.5312 0.51562v-1.2969l2.5156-0.5h1.4219v9.2969h2.3281v1.1875h-6.0625z"/>
</symbol>
<symbol id="ba" overflow="visible">
<path d="m2.7656-1.1875h4.9531v1.1875h-6.6562v-1.1875c0.53125-0.5625 1.2578-1.3125 2.1875-2.25 0.9375-0.9375 1.5234-1.5391 1.7656-1.8125 0.45703-0.50781 0.77344-0.94141 0.95312-1.2969 0.17578-0.35156 0.26562-0.70312 0.26562-1.0469 0-0.5625-0.19922-1.0156-0.59375-1.3594-0.38672-0.35156-0.89062-0.53125-1.5156-0.53125-0.44922 0-0.92188 0.078125-1.4219 0.23438-0.49219 0.15625-1.0156 0.39062-1.5781 0.70312v-1.4375c0.57031-0.22656 1.1016-0.39844 1.5938-0.51562 0.5-0.125 0.95703-0.1875 1.375-0.1875 1.082 0 1.9453 0.27734 2.5938 0.82812 0.65625 0.54297 0.98438 1.2656 0.98438 2.1719 0 0.42969-0.085937 0.83984-0.25 1.2344-0.15625 0.38672-0.44922 0.83984-0.875 1.3594-0.125 0.13672-0.5 0.53125-1.125 1.1875-0.625 0.64844-1.5117 1.5547-2.6562 2.7188z"/>
</symbol>
<symbol id="az" overflow="visible">
<path d="m5.8438-5.6562c0.67578 0.14844 1.207 0.44922 1.5938 0.90625 0.38281 0.46094 0.57812 1.0273 0.57812 1.7031 0 1.0312-0.35938 1.8359-1.0781 2.4062-0.71094 0.5625-1.7188 0.84375-3.0312 0.84375-0.4375 0-0.89062-0.046875-1.3594-0.14062-0.46875-0.082031-0.95312-0.20703-1.4531-0.375v-1.375c0.39453 0.23047 0.82812 0.40625 1.2969 0.53125 0.46875 0.11719 0.95703 0.17188 1.4688 0.17188 0.89453 0 1.5703-0.17578 2.0312-0.53125 0.46875-0.35156 0.70312-0.86328 0.70312-1.5312 0-0.625-0.21875-1.1094-0.65625-1.4531-0.42969-0.35156-1.0273-0.53125-1.7969-0.53125h-1.2344v-1.1562h1.2812c0.69531 0 1.2344-0.14062 1.6094-0.42188s0.5625-0.67969 0.5625-1.2031c0-0.53906-0.19531-0.95312-0.57812-1.2344-0.38672-0.28906-0.93359-0.4375-1.6406-0.4375-0.39844 0-0.82031 0.042969-1.2656 0.125-0.4375 0.085937-0.92969 0.21484-1.4688 0.39062v-1.2656c0.53906-0.14453 1.0469-0.25391 1.5156-0.32812 0.47656-0.082031 0.92578-0.125 1.3438-0.125 1.0703 0 1.9219 0.24609 2.5469 0.73438 0.63281 0.49219 0.95312 1.1523 0.95312 1.9844 0 0.58594-0.16797 1.0781-0.5 1.4844-0.33594 0.39844-0.80859 0.67188-1.4219 0.82812z"/>
</symbol>
<symbol id="ax" overflow="visible">
<path d="m-10.5-1.3281v-4.4844c0-1.332 0.29688-2.3516 0.89062-3.0625 0.59375-0.71875 1.4375-1.0781 2.5312-1.0781 1.1055 0 1.9531 0.35938 2.5469 1.0781 0.59375 0.71094 0.89062 1.7305 0.89062 3.0625v1.7812h3.6406v2.7031zm1.9531-2.7031h2.9375v-1.4844c0-0.53125-0.125-0.9375-0.375-1.2188-0.25781-0.28906-0.625-0.4375-1.0938-0.4375s-0.82812 0.14844-1.0781 0.4375c-0.25781 0.28125-0.39062 0.6875-0.39062 1.2188z"/>
</symbol>
<symbol id="b" overflow="visible">
<path d="m-3.9531-9.0625h0.70312v5.875c0.59375-0.0625 1.043-0.27344 1.3438-0.64062 0.29297-0.36328 0.4375-0.875 0.4375-1.5312 0-0.51953-0.078125-1.0547-0.23438-1.6094-0.15625-0.5625-0.39453-1.1328-0.71875-1.7188h1.9375c0.23047 0.59375 0.40234 1.1875 0.51562 1.7812 0.11328 0.59375 0.17188 1.1875 0.17188 1.7812 0 1.4297-0.35938 2.5391-1.0781 3.3281-0.72656 0.78125-1.75 1.1719-3.0625 1.1719-1.2812 0-2.2852-0.38281-3.0156-1.1562-0.73828-0.76953-1.1094-1.8359-1.1094-3.2031 0-1.2383 0.375-2.2266 1.125-2.9688 0.74219-0.73828 1.7344-1.1094 2.9844-1.1094zm-0.84375 2.5781c-0.47656 0-0.86328 0.14062-1.1562 0.42188-0.28906 0.28125-0.4375 0.64844-0.4375 1.0938 0 0.49219 0.13672 0.88672 0.40625 1.1875 0.27344 0.30469 0.66797 0.49219 1.1875 0.5625z"/>
</symbol>
<symbol id="ap" overflow="visible">
<path d="m-5.7344-7.0625c-0.10156 0.23047-0.17578 0.45312-0.21875 0.67188-0.050781 0.21094-0.078125 0.42969-0.078125 0.65625 0 0.64844 0.21094 1.1484 0.625 1.5 0.40625 0.34375 1 0.51562 1.7812 0.51562h3.625v2.5156h-7.875v-2.5156h1.2969c-0.51953-0.32031-0.89453-0.69141-1.125-1.1094-0.23828-0.42578-0.35938-0.92969-0.35938-1.5156 0-0.082031 0.007812-0.17188 0.015625-0.26562 0-0.10156 0.011719-0.25 0.03125-0.4375z"/>
</symbol>
<symbol id="ao" overflow="visible">
<path d="m-7.625-7.3594h1.9062c-0.22656 0.54297-0.39453 1.0625-0.5 1.5625-0.11328 0.5-0.17188 0.97656-0.17188 1.4219 0 0.48047 0.0625 0.83594 0.1875 1.0625 0.11719 0.23047 0.29688 0.34375 0.54688 0.34375 0.19922 0 0.35547-0.085938 0.46875-0.26562 0.10547-0.17578 0.18359-0.48828 0.23438-0.9375l0.0625-0.4375c0.15625-1.2891 0.42188-2.1602 0.79688-2.6094 0.375-0.44531 0.96484-0.67188 1.7656-0.67188 0.84375 0 1.4805 0.3125 1.9062 0.9375 0.41797 0.61719 0.625 1.5391 0.625 2.7656 0 0.52344-0.042969 1.0586-0.125 1.6094-0.082031 0.55469-0.20312 1.125-0.35938 1.7188h-1.9219c0.24219-0.5 0.42188-1.0156 0.54688-1.5469s0.1875-1.0664 0.1875-1.6094c0-0.48828-0.066406-0.85938-0.20312-1.1094-0.13281-0.25-0.33594-0.375-0.60938-0.375-0.21875 0-0.38281 0.089844-0.5 0.26562-0.11328 0.16797-0.19531 0.50781-0.25 1.0156l-0.0625 0.45312c-0.14453 1.1172-0.40625 1.8984-0.78125 2.3438-0.38281 0.44922-0.96094 0.67188-1.7344 0.67188-0.83203 0-1.4453-0.28125-1.8438-0.84375-0.40625-0.57031-0.60938-1.4531-0.60938-2.6406 0-0.45703 0.039062-0.94141 0.10938-1.4531 0.0625-0.50781 0.17188-1.0664 0.32812-1.6719z"/>
</symbol>
<symbol id="an" overflow="visible">
<path d="m-6.2656-4.9531c0 0.55469 0.20312 0.98047 0.60938 1.2812 0.39844 0.29297 0.96875 0.4375 1.7188 0.4375 0.76172 0 1.3438-0.14453 1.75-0.4375 0.39844-0.30078 0.59375-0.72656 0.59375-1.2812 0-0.55078-0.19531-0.96875-0.59375-1.25-0.40625-0.28906-0.98828-0.4375-1.75-0.4375-0.75 0-1.3203 0.14844-1.7188 0.4375-0.40625 0.28125-0.60938 0.69922-0.60938 1.25zm-1.7969 0c0-1.3516 0.36719-2.4102 1.0938-3.1719 0.73047-0.75781 1.7422-1.1406 3.0312-1.1406 1.3047 0 2.3203 0.38281 3.0469 1.1406 0.73047 0.76172 1.0938 1.8203 1.0938 3.1719 0 1.3555-0.36328 2.418-1.0938 3.1875-0.72656 0.76172-1.7422 1.1406-3.0469 1.1406-1.2891 0-2.3008-0.37891-3.0312-1.1406-0.72656-0.76953-1.0938-1.832-1.0938-3.1875z"/>
</symbol>
<symbol id="c" overflow="visible">
<path d="m-4.7969-9.125h4.7969v2.5312h-3.6719c-0.67578 0-1.1445 0.015625-1.4062 0.046875-0.25781 0.03125-0.45312 0.085937-0.57812 0.15625-0.15625 0.10547-0.28125 0.24219-0.375 0.40625-0.09375 0.16797-0.14062 0.35938-0.14062 0.57812 0 0.52344 0.20312 0.93359 0.60938 1.2344 0.40625 0.30469 0.96875 0.45312 1.6875 0.45312h3.875v2.5156h-7.875v-2.5156h1.1562c-0.46875-0.38281-0.80469-0.78906-1.0156-1.2188-0.21875-0.42578-0.32812-0.89453-0.32812-1.4062 0-0.90625 0.28125-1.5938 0.84375-2.0625 0.55469-0.47656 1.3594-0.71875 2.4219-0.71875z"/>
</symbol>
<symbol id="j" overflow="visible"></symbol>
<symbol id="am" overflow="visible">
<path d="m-6.7188-6.5625h-4.2344v-2.5312h10.953v2.5312h-1.1406c0.46875 0.34375 0.8125 0.72656 1.0312 1.1406 0.20703 0.41797 0.3125 0.90234 0.3125 1.4531 0 0.96875-0.38281 1.7656-1.1562 2.3906-0.76953 0.625-1.7656 0.9375-2.9844 0.9375-1.207 0-2.1953-0.3125-2.9688-0.9375-0.76953-0.625-1.1562-1.4219-1.1562-2.3906 0-0.53906 0.10938-1.0195 0.32812-1.4375 0.21094-0.42578 0.54688-0.8125 1.0156-1.1562zm5.0938 1.6562c0-0.53906-0.19531-0.95312-0.59375-1.2344-0.39453-0.28125-0.96875-0.42188-1.7188-0.42188s-1.3164 0.14062-1.7031 0.42188c-0.39453 0.28125-0.59375 0.69531-0.59375 1.2344 0 0.53125 0.19922 0.94531 0.59375 1.2344 0.38672 0.28125 0.95312 0.42188 1.7031 0.42188s1.3242-0.14062 1.7188-0.42188c0.39844-0.28906 0.59375-0.70312 0.59375-1.2344z"/>
</symbol>
<symbol id="i" overflow="visible">
<path d="m-7.875-1.2031v-2.5156h7.875v2.5156zm-3.0781 0v-2.5156h2.0625v2.5156z"/>
</symbol>
<symbol id="aw" overflow="visible">
<path d="m-10.5-1.3281v-2.7031h4v-3.9844h-4v-2.7031h10.5v2.7031h-4.4531v3.9844h4.4531v2.7031z"/>
</symbol>
<symbol id="av" overflow="visible">
<path d="m-10.953-1.2031v-2.5156h10.953v2.5156z"/>
</symbol>
<symbol id="au" overflow="visible">
<path d="m-10.953-6.3906h1.6562v1.3906c0 0.35547 0.070313 0.60547 0.20312 0.75 0.125 0.13672 0.35156 0.20312 0.67188 0.20312h0.54688v-2.1406h1.7969v2.1406h6.0781v2.5156h-6.0781v1.25h-1.7969v-1.25h-0.54688c-0.86328 0-1.5-0.23438-1.9062-0.70312-0.41406-0.47656-0.625-1.2227-0.625-2.2344z"/>
</symbol>
<symbol id="at" overflow="visible">
<path d="m-1.625-5.3906c0-0.53906-0.19531-0.95312-0.59375-1.2344-0.39453-0.28906-0.96875-0.4375-1.7188-0.4375s-1.3164 0.14844-1.7031 0.4375c-0.39453 0.28125-0.59375 0.69531-0.59375 1.2344 0 0.53125 0.19922 0.94531 0.59375 1.2344 0.39844 0.29297 0.96484 0.4375 1.7031 0.4375 0.75 0 1.3242-0.14453 1.7188-0.4375 0.39844-0.28906 0.59375-0.70312 0.59375-1.2344zm-5.0938 1.6719c-0.46875-0.35156-0.80469-0.73828-1.0156-1.1562-0.21875-0.42578-0.32812-0.91016-0.32812-1.4531 0-0.96875 0.38672-1.7656 1.1562-2.3906 0.77344-0.625 1.7617-0.9375 2.9688-0.9375 1.2188 0 2.2148 0.3125 2.9844 0.9375 0.77344 0.625 1.1562 1.4219 1.1562 2.3906 0 0.54297-0.10938 1.0273-0.32812 1.4531-0.21875 0.41797-0.55469 0.80469-1.0156 1.1562h1.1406v2.5156h-10.953v-2.5156z"/>
</symbol>
<symbol id="as" overflow="visible">
<path d="m-6.2656-4.9531c0 0.55469 0.20312 0.98047 0.60938 1.2812 0.39844 0.29297 0.96875 0.4375 1.7188 0.4375 0.76172 0 1.3438-0.14453 1.75-0.4375 0.39844-0.30078 0.59375-0.72656 0.59375-1.2812 0-0.55078-0.19531-0.96875-0.59375-1.25-0.40625-0.28906-0.98828-0.4375-1.75-0.4375-0.75 0-1.3203 0.14844-1.7188 0.4375-0.40625 0.28125-0.60938 0.69922-0.60938 1.25zm-1.7969 0c0-1.3516 0.36719-2.4102 1.0938-3.1719 0.73047-0.75781 1.7422-1.1406 3.0312-1.1406 1.3047 0 2.3203 0.38281 3.0469 1.1406 0.73047 0.76172 1.0938 1.8203 1.0938 3.1719 0 1.3555-0.36328 2.418-1.0938 3.1875-0.72656 0.76172-1.7422 1.1406-3.0469 1.1406-1.2891 0-2.3008-0.37891-3.0312-1.1406-0.72656-0.76953-1.0938-1.832-1.0938-3.1875zm-3.0938 2.2344v-1.6406h1.7344v1.6406zm0-2.7656v-1.6562h1.7344v1.6562z"/>
</symbol>
<symbol id="ar" overflow="visible">
<path d="m-10.109-3.9531h2.2344v-2.5938h1.7969v2.5938h3.3438c0.36719 0 0.61719-0.070313 0.75-0.21875 0.125-0.14453 0.1875-0.42969 0.1875-0.85938v-1.2969h1.7969v2.1562c0 0.99219-0.20703 1.6953-0.625 2.1094-0.41406 0.41797-1.1172 0.625-2.1094 0.625h-3.3438v1.25h-1.7969v-1.25h-2.2344z"/>
</symbol>
<symbol id="aq" overflow="visible">
<path d="m-1.3438-6.5625c0.46875 0.34375 0.8125 0.72656 1.0312 1.1406 0.21094 0.41797 0.3125 0.90234 0.3125 1.4531 0 0.96094-0.375 1.7578-1.125 2.3906-0.75781 0.625-1.7266 0.9375-2.9062 0.9375-1.1758 0-2.1406-0.3125-2.8906-0.9375-0.75-0.63281-1.125-1.4297-1.125-2.3906 0-0.55078 0.10938-1.0352 0.32812-1.4531 0.21094-0.41406 0.54688-0.79688 1.0156-1.1406h-1.1719v-2.5312h7.0781c1.2695 0 2.2383 0.40234 2.9062 1.2031 0.66406 0.79297 1 1.9492 1 3.4688 0 0.49219-0.039063 0.96484-0.10938 1.4219-0.074219 0.46094-0.1875 0.92188-0.34375 1.3906h-1.9688c0.25-0.4375 0.4375-0.86328 0.5625-1.2812 0.125-0.42578 0.1875-0.85156 0.1875-1.2812 0-0.82031-0.18359-1.4258-0.54688-1.8125-0.35547-0.38281-0.91406-0.57812-1.6875-0.57812zm-4.8906 1.6562c0 0.52344 0.19531 0.92969 0.57812 1.2188 0.38672 0.29297 0.92969 0.4375 1.625 0.4375 0.71875 0 1.2656-0.14062 1.6406-0.42188s0.5625-0.69141 0.5625-1.2344c0-0.51953-0.19141-0.92578-0.57812-1.2188-0.38281-0.28906-0.92578-0.4375-1.625-0.4375-0.69531 0-1.2383 0.14844-1.625 0.4375-0.38281 0.29297-0.57812 0.69922-0.57812 1.2188z"/>
</symbol>
<symbol id="al" overflow="visible">
<path d="m-10.953-1.2344v-2.9844h1.0156v1.6875h10.828v-1.6875h1.0156v2.9844z"/>
</symbol>
<symbol id="af" overflow="visible">
<path d="m-4.625-10.469c0 0.41797 0.17969 0.74219 0.53125 0.96875 0.34375 0.23047 0.82422 0.34375 1.4375 0.34375 0.61719 0 1.1016-0.11328 1.4531-0.34375 0.34375-0.22656 0.51562-0.55078 0.51562-0.96875 0-0.39453-0.17188-0.70703-0.51562-0.9375-0.35156-0.22656-0.83594-0.34375-1.4531-0.34375-0.61328 0-1.0938 0.11719-1.4375 0.34375-0.35156 0.23047-0.53125 0.54297-0.53125 0.9375zm-0.89062 0c0-0.73828 0.26172-1.3203 0.78125-1.75 0.51172-0.4375 1.2031-0.65625 2.0781-0.65625s1.5742 0.21875 2.0938 0.65625c0.51172 0.4375 0.76562 1.0234 0.76562 1.75 0 0.75-0.25391 1.3438-0.76562 1.7812-0.51953 0.4375-1.2188 0.65625-2.0938 0.65625s-1.5664-0.21875-2.0781-0.65625c-0.51953-0.4375-0.78125-1.0312-0.78125-1.7812zm-4.2812 7.25c0 0.40625 0.17969 0.73047 0.53125 0.96875 0.34375 0.23047 0.82031 0.34375 1.4219 0.34375 0.625 0 1.1172-0.11328 1.4688-0.34375 0.34375-0.22656 0.51562-0.55078 0.51562-0.96875 0-0.40625-0.17188-0.72266-0.51562-0.95312-0.35156-0.22656-0.84375-0.34375-1.4688-0.34375-0.60156 0-1.0781 0.12109-1.4219 0.35938-0.35156 0.23047-0.53125 0.54297-0.53125 0.9375zm-0.89062-6.3438v-1.125l10.891 6.5625v1.125zm0 6.3438c0-0.73828 0.25781-1.3281 0.76562-1.7656 0.51172-0.4375 1.2031-0.65625 2.0781-0.65625 0.89844 0 1.6016 0.21875 2.1094 0.65625 0.51172 0.4375 0.76562 1.0273 0.76562 1.7656 0 0.75-0.25391 1.3438-0.76562 1.7812-0.51953 0.42969-1.2227 0.64062-2.1094 0.64062-0.86328 0-1.5508-0.21094-2.0625-0.64062-0.51953-0.4375-0.78125-1.0312-0.78125-1.7812z"/>
</symbol>
<symbol id="h" overflow="visible"></symbol>
<symbol id="ae" overflow="visible">
<path d="m-7.875-1.3594v-1.2969h7.875v1.2969zm-3.0781 0v-1.2969h1.6406v1.2969z"/>
</symbol>
<symbol id="ad" overflow="visible">
<path d="m-4.75-7.8906h4.75v1.2812h-4.7188c-0.73828 0-1.2891 0.14844-1.6562 0.4375-0.375 0.29297-0.5625 0.73047-0.5625 1.3125 0 0.69922 0.22656 1.25 0.67188 1.6562 0.4375 0.39844 1.043 0.59375 1.8125 0.59375h4.4531v1.2969h-7.875v-1.2969h1.2188c-0.46875-0.3125-0.81641-0.67578-1.0469-1.0938-0.23828-0.41406-0.35938-0.89844-0.35938-1.4531 0-0.89453 0.28125-1.5703 0.84375-2.0312 0.55469-0.46875 1.375-0.70312 2.4688-0.70312z"/>
</symbol>
<symbol id="ac" overflow="visible">
<path d="m-6.6875-6.5312h-4.2656v-1.2969h10.953v1.2969h-1.1875c0.46875 0.27344 0.82031 0.61719 1.0469 1.0312 0.22656 0.40625 0.34375 0.90234 0.34375 1.4844 0 0.96094-0.37891 1.7344-1.1406 2.3281-0.75781 0.59375-1.7578 0.89062-3 0.89062-1.2383 0-2.2344-0.29688-2.9844-0.89062-0.75781-0.59375-1.1406-1.3672-1.1406-2.3281 0-0.58203 0.11719-1.0781 0.34375-1.4844 0.21875-0.41406 0.5625-0.75781 1.0312-1.0312zm2.75 4.4062c0.96094 0 1.7109-0.19141 2.25-0.57812 0.54297-0.39453 0.8125-0.9375 0.8125-1.625s-0.26953-1.2227-0.8125-1.6094c-0.53906-0.39453-1.2891-0.59375-2.25-0.59375-0.94531 0-1.6914 0.19922-2.2344 0.59375-0.53906 0.38672-0.8125 0.92188-0.8125 1.6094s0.27344 1.2305 0.8125 1.625c0.54297 0.38672 1.2891 0.57812 2.2344 0.57812z"/>
</symbol>
<symbol id="g" overflow="visible">
<path d="m-4.2656-8.0938h0.64062v5.9531c0.88672-0.0625 1.5625-0.33203 2.0312-0.8125 0.46875-0.47656 0.70312-1.1445 0.70312-2 0-0.5-0.0625-0.97656-0.1875-1.4375-0.125-0.46875-0.30469-0.92969-0.54688-1.3906h1.2188c0.19922 0.46094 0.35156 0.93359 0.45312 1.4219 0.10156 0.49219 0.15625 0.98438 0.15625 1.4844 0 1.25-0.36328 2.2461-1.0938 2.9844-0.72656 0.73047-1.7188 1.0938-2.9688 1.0938-1.2891 0-2.3125-0.34375-3.0625-1.0312-0.75781-0.69531-1.1406-1.6406-1.1406-2.8281 0-1.0508 0.34375-1.8828 1.0312-2.5 0.67969-0.625 1.6016-0.9375 2.7656-0.9375zm-0.375 1.2969c-0.70703 0.011719-1.2695 0.21094-1.6875 0.59375-0.42578 0.38672-0.64062 0.89844-0.64062 1.5312 0 0.73047 0.20312 1.3125 0.60938 1.75 0.40625 0.42969 0.98047 0.67188 1.7188 0.73438z"/>
</symbol>
<symbol id="r" overflow="visible">
<path d="m-6.6719-5.9219c-0.082031 0.14844-0.14453 0.30859-0.1875 0.48438-0.039063 0.16797-0.0625 0.35547-0.0625 0.5625 0 0.73047 0.24219 1.293 0.71875 1.6875 0.48047 0.38672 1.1641 0.57812 2.0469 0.57812h4.1562v1.2969h-7.875v-1.2969h1.2188c-0.47656-0.26953-0.83203-0.625-1.0625-1.0625-0.22656-0.4375-0.34375-0.96094-0.34375-1.5781 0-0.09375 0.007812-0.19141 0.015625-0.29688 0.011719-0.11328 0.027344-0.23438 0.046875-0.35938z"/>
</symbol>
<symbol id="ab" overflow="visible">
<path d="m-9.1094-4.9219 5.2344 1.9219v-3.8438zm-1.3906 0.79688v-1.6094l10.5-3.9844v1.4688l-2.6875 0.95312v4.7344l2.6875 0.95312v1.5z"/>
</symbol>
<symbol id="ak" overflow="visible">
<path d="m-10.953-1.3594v-1.2969h10.953v1.2969z"/>
</symbol>
<symbol id="s" overflow="visible">
<path d="m-10.109-2.6406h2.2344v-2.6562h1v2.6562h4.2812c0.64844 0 1.0625-0.082031 1.25-0.25 0.17969-0.17578 0.26562-0.53516 0.26562-1.0781v-1.3281h1.0781v1.3281c0 1-0.1875 1.6953-0.5625 2.0781-0.375 0.375-1.0508 0.5625-2.0312 0.5625h-4.2812v0.9375h-1v-0.9375h-2.2344z"/>
</symbol>
<symbol id="aj" overflow="visible">
<path d="m-7.6406-6.375h1.2188c-0.1875 0.36719-0.32812 0.74609-0.42188 1.1406-0.09375 0.39844-0.14062 0.80469-0.14062 1.2188 0 0.64844 0.10156 1.1328 0.29688 1.4531 0.19922 0.3125 0.49609 0.46875 0.89062 0.46875 0.29297 0 0.52734-0.11328 0.70312-0.34375 0.16797-0.22656 0.32812-0.6875 0.48438-1.375l0.09375-0.45312c0.19922-0.91406 0.48047-1.5664 0.84375-1.9531 0.35547-0.38281 0.85547-0.57812 1.5-0.57812 0.73047 0 1.3086 0.29297 1.7344 0.875 0.42969 0.57422 0.64062 1.3672 0.64062 2.375 0 0.42969-0.042969 0.87109-0.125 1.3281-0.082031 0.46094-0.20312 0.9375-0.35938 1.4375h-1.3438c0.25-0.47656 0.4375-0.94531 0.5625-1.4062 0.125-0.46875 0.1875-0.92578 0.1875-1.375 0-0.61328-0.10156-1.082-0.3125-1.4062-0.20703-0.33203-0.50391-0.5-0.89062-0.5-0.35156 0-0.625 0.12109-0.8125 0.35938-0.1875 0.24219-0.36328 0.75781-0.53125 1.5469l-0.10938 0.45312c-0.16406 0.80469-0.42188 1.3828-0.76562 1.7344-0.35156 0.35547-0.83594 0.53125-1.4531 0.53125-0.73828 0-1.3047-0.25781-1.7031-0.78125-0.40625-0.51953-0.60938-1.2656-0.60938-2.2344 0-0.47656 0.039062-0.92578 0.10938-1.3438 0.0625-0.42578 0.16797-0.81641 0.3125-1.1719z"/>
</symbol>
<symbol id="ai" overflow="visible">
<path d="m-3.1094-1.2188h-4.7656v-1.2969h4.7188c0.74219 0 1.2969-0.14453 1.6719-0.4375 0.375-0.28906 0.5625-0.72656 0.5625-1.3125 0-0.69531-0.22266-1.2422-0.67188-1.6406-0.44531-0.40625-1.0508-0.60938-1.8125-0.60938h-4.4688v-1.2969h7.875v1.2969h-1.2031c0.46875 0.3125 0.82422 0.67969 1.0625 1.0938 0.22656 0.40625 0.34375 0.88672 0.34375 1.4375 0 0.90625-0.28125 1.5938-0.84375 2.0625s-1.3828 0.70312-2.4688 0.70312z"/>
</symbol>
<symbol id="ah" overflow="visible">
<path d="m-10.953-5.3438h1.0781v1.2344c0 0.46875 0.09375 0.79688 0.28125 0.98438 0.1875 0.17969 0.52734 0.26562 1.0156 0.26562h0.70312v-2.1406h1v2.1406h6.875v1.2969h-6.875v1.2344h-1v-1.2344h-0.54688c-0.88281 0-1.5234-0.20312-1.9219-0.60938-0.40625-0.41406-0.60938-1.0664-0.60938-1.9531z"/>
</symbol>
<symbol id="ag" overflow="visible">
<path d="m-10.953-4.375h12.859v2.9844h-1.0156v-1.6875h-10.828v1.6875h-1.0156z"/>
</symbol>
<symbol id="aa" overflow="visible">
<path d="m10.578-2.625h-5.8281l-0.90625 2.625h-3.75l5.3438-14.422h4.4375l5.3438 14.422h-3.7344zm-4.8906-2.6719h3.9531l-1.9688-5.75z"/>
</symbol>
<symbol id="x" overflow="visible">
<path d="m1.6562-15.031h3.4688v15.031h-3.4688z"/>
</symbol>
<symbol id="w" overflow="visible">
<path d="m5.4375-13.891v3.0781h3.5781v2.4688h-3.5781v4.5938c0 0.5 0.097656 0.83984 0.29688 1.0156 0.20703 0.17969 0.60938 0.26562 1.2031 0.26562h1.7656v2.4688h-2.9688c-1.3672 0-2.3359-0.28125-2.9062-0.84375-0.5625-0.57031-0.84375-1.5391-0.84375-2.9062v-4.5938h-1.7188v-2.4688h1.7188v-3.0781z"/>
</symbol>
<symbol id="q" overflow="visible">
<path d="m12.469-5.4375v0.98438h-8.0938c0.082031 0.8125 0.375 1.4219 0.875 1.8281 0.50781 0.40625 1.2109 0.60938 2.1094 0.60938 0.72656 0 1.4727-0.10938 2.2344-0.32812 0.76953-0.21875 1.5547-0.54688 2.3594-0.98438v2.6719c-0.8125 0.3125-1.6328 0.54688-2.4531 0.70312-0.8125 0.15625-1.6328 0.23438-2.4531 0.23438-1.9609 0-3.4844-0.49219-4.5781-1.4844-1.0859-1-1.625-2.3984-1.625-4.2031 0-1.7578 0.53125-3.1445 1.5938-4.1562 1.0703-1.0078 2.5469-1.5156 4.4219-1.5156 1.6953 0 3.0547 0.51562 4.0781 1.5469 1.0195 1.0234 1.5312 2.3867 1.5312 4.0938zm-3.5625-1.1562c0-0.65625-0.19531-1.1797-0.57812-1.5781-0.375-0.40625-0.875-0.60938-1.5-0.60938-0.66797 0-1.2109 0.1875-1.625 0.5625-0.41797 0.375-0.67969 0.91797-0.78125 1.625z"/>
</symbol>
<symbol id="p" overflow="visible">
<path d="m9.7031-7.875c-0.30469-0.13281-0.60547-0.23438-0.90625-0.29688-0.29297-0.070313-0.59375-0.10938-0.90625-0.10938-0.88672 0-1.5703 0.28906-2.0469 0.85938-0.48047 0.5625-0.71875 1.375-0.71875 2.4375v4.9844h-3.4688v-10.812h3.4688v1.7656c0.44531-0.70703 0.95703-1.2227 1.5312-1.5469 0.57031-0.32031 1.2656-0.48438 2.0781-0.48438 0.11328 0 0.23828 0.007813 0.375 0.015625 0.13281 0.011719 0.33203 0.03125 0.59375 0.0625z"/>
</symbol>
<symbol id="o" overflow="visible"></symbol>
<symbol id="v" overflow="visible">
<path d="m1.6562-10.812h3.4688v10.812h-3.4688zm0-4.2188h3.4688v2.8281h-3.4688z"/>
</symbol>
<symbol id="n" overflow="visible">
<path d="m12.547-6.5938v6.5938h-3.4844v-5.0469c0-0.92578-0.023438-1.5664-0.0625-1.9219-0.042969-0.35156-0.11719-0.61328-0.21875-0.78125-0.13672-0.22656-0.32031-0.40625-0.54688-0.53125-0.23047-0.125-0.49609-0.1875-0.79688-0.1875-0.71875 0-1.2891 0.28125-1.7031 0.84375-0.40625 0.55469-0.60938 1.3203-0.60938 2.2969v5.3281h-3.4688v-10.812h3.4688v1.5781c0.51953-0.63281 1.0703-1.0977 1.6562-1.3906 0.59375-0.30078 1.2422-0.45312 1.9531-0.45312 1.25 0 2.1953 0.38672 2.8438 1.1562 0.64453 0.76172 0.96875 1.8711 0.96875 3.3281z"/>
</symbol>
<symbol id="u" overflow="visible">
<path d="m1.8125-14.422h3.7188v13.016c0 1.8008-0.49219 3.1445-1.4688 4.0312-0.96875 0.88281-2.4453 1.3281-4.4219 1.3281h-0.75v-2.7969h0.57812c0.76953 0 1.3516-0.21875 1.75-0.65625 0.39453-0.42969 0.59375-1.0625 0.59375-1.9062z"/>
</symbol>
<symbol id="z" overflow="visible">
<path d="m6.5156-4.875c-0.71875 0-1.2617 0.125-1.625 0.375-0.36719 0.24219-0.54688 0.60156-0.54688 1.0781 0 0.4375 0.14453 0.78125 0.4375 1.0312 0.28906 0.25 0.69531 0.375 1.2188 0.375 0.65625 0 1.2031-0.23438 1.6406-0.70312 0.44531-0.46875 0.67188-1.0508 0.67188-1.75v-0.40625zm5.2812-1.2969v6.1719h-3.4844v-1.6094c-0.46875 0.65625-0.99609 1.1367-1.5781 1.4375-0.57422 0.30078-1.2773 0.45312-2.1094 0.45312-1.1172 0-2.0273-0.32812-2.7344-0.98438-0.69922-0.65625-1.0469-1.5039-1.0469-2.5469 0-1.2578 0.4375-2.1875 1.3125-2.7812s2.25-0.89062 4.125-0.89062h2.0312v-0.28125c0-0.53906-0.21875-0.9375-0.65625-1.1875-0.42969-0.25781-1.1016-0.39062-2.0156-0.39062-0.74219 0-1.4297 0.078125-2.0625 0.23438-0.63672 0.14844-1.2305 0.36719-1.7812 0.65625v-2.6406c0.73828-0.17578 1.4844-0.3125 2.2344-0.40625s1.5-0.14062 2.25-0.14062c1.9453 0 3.3516 0.38672 4.2188 1.1562 0.86328 0.77344 1.2969 2.0234 1.2969 3.75z"/>
</symbol>
<symbol id="y" overflow="visible">
<path d="m12.547-6.5938v6.5938h-3.4844v-5.0156c0-0.94531-0.023438-1.5977-0.0625-1.9531-0.042969-0.35156-0.11719-0.61328-0.21875-0.78125-0.13672-0.22656-0.32031-0.40625-0.54688-0.53125-0.23047-0.125-0.49609-0.1875-0.79688-0.1875-0.71875 0-1.2891 0.28125-1.7031 0.84375-0.40625 0.55469-0.60938 1.3203-0.60938 2.2969v5.3281h-3.4688v-15.031h3.4688v5.7969c0.51953-0.63281 1.0703-1.0977 1.6562-1.3906 0.59375-0.30078 1.2422-0.45312 1.9531-0.45312 1.25 0 2.1953 0.38672 2.8438 1.1562 0.64453 0.76172 0.96875 1.8711 0.96875 3.3281z"/>
</symbol>
</defs>
<path transform="matrix(1.8003 0 0 1.7989 -48.365 .33855)" d="m89.315 9.8377v166.17" fill="none" stroke="#000" stroke-width=".75"/>
<path transform="matrix(1.8003 0 0 1.7989 -48.365 .33855)" d="m345.36 9.8377h-259.87" fill="none" stroke="#000" stroke-width=".6"/>
<path transform="matrix(1.8003 0 0 1.7989 -48.365 .33855)" d="m89.315 9.8377h256.04v162.33h-256.04z" fill="none" stroke="#000"/>
<path transform="matrix(1.8003 0 0 1.7989 -48.365 .33855)" d="m345.36 172.17h-259.87" fill="none" stroke="#000" stroke-width=".6"/>
<path transform="matrix(1.8003 0 0 1.7989 -48.365 .33855)" d="m345.36 145.11h-259.87" fill="none" stroke="#000" stroke-width=".6"/>
<path transform="matrix(1.8003 0 0 1.7989 -48.365 .33855)" d="m345.36 118.06h-259.87" fill="none" stroke="#000" stroke-width=".6"/>
<path transform="matrix(1.8003 0 0 1.7989 -48.365 .33855)" d="m345.36 91h-259.87" fill="none" stroke="#000" stroke-width=".6"/>
<path transform="matrix(1.8003 0 0 1.7989 -48.365 .33855)" d="m345.36 63.945h-259.87" fill="none" stroke="#000" stroke-width=".6"/>
<path transform="matrix(1.8003 0 0 1.7989 -48.365 .33855)" d="m345.36 36.893h-259.87" fill="none" stroke="#000" stroke-width=".6"/>
<path transform="matrix(1.8003 0 0 1.7989 -48.365 .33855)" d="m153.32 9.8377v166.17" fill="none" stroke="#000" stroke-width=".75"/>
<path transform="matrix(1.8003 0 0 1.7989 -48.365 .33855)" d="m217.33 9.8377v166.17" fill="none" stroke="#000" stroke-width=".75"/>
<path transform="matrix(1.8003 0 0 1.7989 -48.365 .33855)" d="m281.35 9.8377v166.17" fill="none" stroke="#000" stroke-width=".75"/>
<path transform="matrix(1.8003 0 0 1.7989 -48.365 .33855)" d="m345.36 9.8377v166.17" fill="none" stroke="#000" stroke-width=".75"/>
<g>
<use x="91.238281" y="342.709475" xlink:href="#m"/>
<use x="100.239622" y="342.709475" xlink:href="#f"/>
<use x="109.240962" y="342.709475" xlink:href="#e"/>
<use x="114.641767" y="342.709475" xlink:href="#m"/>
<use x="123.643107" y="342.709475" xlink:href="#t"/>
</g>
<g>
<use x="206.769531" y="342.709475" xlink:href="#d"/>
<use x="215.770872" y="342.709475" xlink:href="#a"/>
<use x="224.772212" y="342.709475" xlink:href="#e"/>
<use x="230.173017" y="342.709475" xlink:href="#d"/>
<use x="239.174357" y="342.709475" xlink:href="#l"/>
</g>
<g>
<use x="322.109375" y="342.709475" xlink:href="#d"/>
<use x="331.110716" y="342.709475" xlink:href="#f"/>
<use x="340.112056" y="342.709475" xlink:href="#e"/>
<use x="345.51286" y="342.709475" xlink:href="#d"/>
<use x="354.514201" y="342.709475" xlink:href="#t"/>
</g>
<g>
<use x="437.34375" y="342.709475" xlink:href="#k"/>
<use x="446.345091" y="342.709475" xlink:href="#a"/>
<use x="455.346431" y="342.709475" xlink:href="#e"/>
<use x="460.747235" y="342.709475" xlink:href="#k"/>
<use x="469.748576" y="342.709475" xlink:href="#l"/>
</g>
<g>
<use x="558.339844" y="342.709475" xlink:href="#k"/>
<use x="567.341184" y="342.709475" xlink:href="#f"/>
<use x="576.342525" y="342.709475" xlink:href="#ay"/>
</g>
<g>
<use x="82.363281" y="315.275881" xlink:href="#a"/>
</g>
<g>
<use x="73.28125" y="266.607912" xlink:href="#bb"/>
<use x="82.282591" y="266.607912" xlink:href="#a"/>
</g>
<g>
<use x="73.28125" y="217.939943" xlink:href="#ba"/>
<use x="82.282591" y="217.939943" xlink:href="#a"/>
</g>
<g>
<use x="73.28125" y="169.275881" xlink:href="#az"/>
<use x="82.282591" y="169.275881" xlink:href="#a"/>
</g>
<g>
<use x="73.28125" y="120.607912" xlink:href="#l"/>
<use x="82.282591" y="120.607912" xlink:href="#a"/>
</g>
<g>
<use x="73.28125" y="71.939943" xlink:href="#f"/>
<use x="82.282591" y="71.939943" xlink:href="#a"/>
</g>
<g>
<use x="73.28125" y="23.271975" xlink:href="#m"/>
<use x="82.282591" y="23.271975" xlink:href="#a"/>
</g>
<g>
<use x="23.833241" y="284.65625" xlink:href="#ax"/>
<use x="23.833241" y="273.863113" xlink:href="#b"/>
<use x="23.833241" y="264.868833" xlink:href="#ap"/>
<use x="23.833241" y="257.673408" xlink:href="#ao"/>
<use x="23.833241" y="248.679127" xlink:href="#an"/>
<use x="23.833241" y="237.885991" xlink:href="#c"/>
<use x="23.833241" y="227.092854" xlink:href="#b"/>
<use x="23.833241" y="218.098573" xlink:href="#c"/>
<use x="23.833241" y="207.305436" xlink:href="#j"/>
<use x="23.833241" y="201.908868" xlink:href="#am"/>
<use x="23.833241" y="191.115731" xlink:href="#i"/>
<use x="23.833241" y="185.719163" xlink:href="#b"/>
<use x="23.833241" y="176.724882" xlink:href="#j"/>
<use x="23.833241" y="171.328314" xlink:href="#aw"/>
<use x="23.833241" y="158.736321" xlink:href="#i"/>
<use x="23.833241" y="153.339752" xlink:href="#av"/>
<use x="23.833241" y="147.943184" xlink:href="#au"/>
<use x="23.833241" y="142.546616" xlink:href="#b"/>
<use x="23.833241" y="133.552335" xlink:href="#j"/>
<use x="23.833241" y="128.155767" xlink:href="#at"/>
<use x="23.833241" y="117.36263" xlink:href="#b"/>
<use x="23.833241" y="108.368349" xlink:href="#c"/>
<use x="23.833241" y="97.575212" xlink:href="#as"/>
<use x="23.833241" y="86.782076" xlink:href="#ar"/>
<use x="23.833241" y="79.586651" xlink:href="#i"/>
<use x="23.833241" y="74.190083" xlink:href="#aq"/>
<use x="23.833241" y="63.396946" xlink:href="#b"/>
<use x="23.833241" y="54.402665" xlink:href="#c"/>
</g>
<g>
<use x="41.837147" y="236.988281" xlink:href="#al"/>
<use x="41.837147" y="231.591713" xlink:href="#af"/>
<use x="41.837147" y="217.200864" xlink:href="#h"/>
<use x="41.837147" y="211.804295" xlink:href="#ae"/>
<use x="41.837147" y="208.206583" xlink:href="#ad"/>
<use x="41.837147" y="199.212302" xlink:href="#h"/>
<use x="41.837147" y="193.815734" xlink:href="#ac"/>
<use x="41.837147" y="184.821453" xlink:href="#g"/>
<use x="41.837147" y="175.827173" xlink:href="#r"/>
<use x="41.837147" y="170.430604" xlink:href="#h"/>
<use x="41.837147" y="165.034036" xlink:href="#ab"/>
<use x="41.837147" y="156.039755" xlink:href="#ak"/>
<use x="41.837147" y="152.442043" xlink:href="#s"/>
<use x="41.837147" y="147.045475" xlink:href="#g"/>
<use x="41.837147" y="138.051194" xlink:href="#r"/>
<use x="41.837147" y="132.654626" xlink:href="#aj"/>
<use x="41.837147" y="125.459201" xlink:href="#s"/>
<use x="41.837147" y="120.062633" xlink:href="#ai"/>
<use x="41.837147" y="111.068352" xlink:href="#ah"/>
<use x="41.837147" y="105.671784" xlink:href="#g"/>
<use x="41.837147" y="96.677503" xlink:href="#ag"/>
</g>
<g>
<use x="262.832031" y="375.448282" xlink:href="#aa"/>
<use x="279.034444" y="375.448282" xlink:href="#x"/>
<use x="286.235517" y="375.448282" xlink:href="#w"/>
<use x="295.236857" y="375.448282" xlink:href="#q"/>
<use x="307.838734" y="375.448282" xlink:href="#p"/>
<use x="316.840074" y="375.448282" xlink:href="#o"/>
<use x="324.041147" y="375.448282" xlink:href="#v"/>
<use x="331.242219" y="375.448282" xlink:href="#n"/>
<use x="345.644364" y="375.448282" xlink:href="#o"/>
<use x="352.845437" y="375.448282" xlink:href="#u"/>
<use x="360.046509" y="375.448282" xlink:href="#z"/>
<use x="372.648386" y="375.448282" xlink:href="#y"/>
<use x="387.050531" y="375.448282" xlink:href="#p"/>
<use x="396.051871" y="375.448282" xlink:href="#q"/>
<use x="408.653748" y="375.448282" xlink:href="#n"/>
</g>
<path transform="matrix(1.8003 0 0 1.7989 -48.365 .33855)" d="m89.315 148.71c24.554-1.1466 49.096-2.2931 64.01-5.4245 23.085-5.6807 43.095-16.16 64.01-25.227 20.106-6.8989 42.513-17.112 64.012-29.248 23.315-15.127 42.828-34.44 64.01-51.915" fill="none" stroke="#00a" stroke-width=".75"/>
<path d="m107.05 262.46h10.754v10.746h-10.754z" fill="#00a"/>
<path d="m222.28 252.71h10.758v10.746h-10.758z" fill="#00a"/>
<path d="m337.52 207.33h10.754v10.75h-10.754z" fill="#00a"/>
<path d="m452.75 154.72h10.758v10.746h-10.758z" fill="#00a"/>
<path d="m567.99 61.328h10.754v10.746h-10.754z" fill="#00a"/>
</svg>
