<?xml version="1.0" encoding="UTF-8"?>
<svg width="800px" height="523px" version="1.1" viewBox="0 0 800 523" xmlns="http://www.w3.org/2000/svg" xmlns:xlink="http://www.w3.org/1999/xlink">
<defs>
<symbol id="m" overflow="visible">
<path d="m6.3438-7.75c-0.85547 0-1.5312 0.29297-2.0312 0.875-0.49219 0.57422-0.73438 1.3711-0.73438 2.3906 0 1 0.24219 1.793 0.73438 2.375 0.5 0.58594 1.1758 0.875 2.0312 0.875 0.84375 0 1.5156-0.28906 2.0156-0.875 0.5-0.58203 0.75-1.375 0.75-2.375 0-1.0195-0.25-1.8164-0.75-2.3906-0.5-0.58203-1.1719-0.875-2.0156-0.875zm3.75-5.9375v1.7188c-0.46875-0.21875-0.94922-0.38281-1.4375-0.5-0.48047-0.125-0.96094-0.1875-1.4375-0.1875-1.25 0-2.2109 0.42188-2.875 1.2656-0.65625 0.84375-1.0312 2.1211-1.125 3.8281 0.375-0.53906 0.83594-0.95703 1.3906-1.25 0.5625-0.28906 1.1758-0.4375 1.8438-0.4375 1.4062 0 2.5156 0.42969 3.3281 1.2812 0.82031 0.85547 1.2344 2.0156 1.2344 3.4844 0 1.4375-0.42969 2.5898-1.2812 3.4531-0.85547 0.86719-1.9844 1.2969-3.3906 1.2969-1.625 0-2.8672-0.61719-3.7188-1.8594-0.85547-1.2383-1.2812-3.0352-1.2812-5.3906 0-2.2188 0.51953-3.9844 1.5625-5.2969 1.0508-1.3125 2.4609-1.9688 4.2344-1.9688 0.47656 0 0.95703 0.046875 1.4375 0.14062 0.48828 0.09375 0.99219 0.23438 1.5156 0.42188z"/>
</symbol>
<symbol id="f" overflow="visible">
<path d="m2.0781-14h7.4219v1.5938h-5.6875v3.4375c0.26953-0.09375 0.53906-0.16016 0.8125-0.20312 0.28125-0.050781 0.55469-0.078125 0.82812-0.078125 1.5625 0 2.8008 0.42969 3.7188 1.2812 0.91406 0.85547 1.375 2.0156 1.375 3.4844 0 1.5-0.47656 2.668-1.4219 3.5-0.9375 0.83594-2.2578 1.25-3.9531 1.25-0.59375 0-1.1992-0.054687-1.8125-0.15625-0.60547-0.09375-1.2305-0.23828-1.875-0.4375v-1.9062c0.5625 0.3125 1.1406 0.54297 1.7344 0.6875 0.60156 0.14844 1.2383 0.21875 1.9062 0.21875 1.082 0 1.9375-0.28125 2.5625-0.84375 0.63281-0.57031 0.95312-1.3438 0.95312-2.3125 0-0.97656-0.32031-1.75-0.95312-2.3125-0.625-0.57031-1.4805-0.85938-2.5625-0.85938-0.5 0-1.0078 0.058594-1.5156 0.17188-0.5 0.10547-1.0117 0.27734-1.5312 0.51562z"/>
</symbol>
<symbol id="e" overflow="visible">
<path d="m0.9375-6.0312h5.0469v1.5469h-5.0469z"/>
</symbol>
<symbol id="t" overflow="visible">
<path d="m2.1094-0.29688v-1.7188c0.47656 0.23047 0.95703 0.40234 1.4375 0.51562 0.48828 0.11719 0.96875 0.17188 1.4375 0.17188 1.25 0 2.2031-0.41406 2.8594-1.25 0.66406-0.84375 1.0469-2.1172 1.1406-3.8281-0.36719 0.53125-0.82812 0.94531-1.3906 1.2344-0.55469 0.28125-1.168 0.42188-1.8438 0.42188-1.3984 0-2.5078-0.42188-3.3281-1.2656-0.8125-0.84375-1.2188-2-1.2188-3.4688 0-1.4375 0.42578-2.5859 1.2812-3.4531 0.85156-0.875 1.9844-1.3125 3.3906-1.3125 1.625 0 2.8633 0.62109 3.7188 1.8594 0.85156 1.2422 1.2812 3.043 1.2812 5.4062 0 2.2109-0.52734 3.9688-1.5781 5.2812-1.0547 1.3125-2.4609 1.9688-4.2188 1.9688-0.48047 0-0.96484-0.046875-1.4531-0.14062-0.49219-0.09375-0.99609-0.23438-1.5156-0.42188zm3.7656-5.9219c0.85156 0 1.5234-0.28906 2.0156-0.875 0.5-0.58203 0.75-1.3789 0.75-2.3906 0-1.0078-0.25-1.8047-0.75-2.3906-0.49219-0.58203-1.1641-0.875-2.0156-0.875-0.84375 0-1.5156 0.29297-2.0156 0.875-0.5 0.58594-0.75 1.3828-0.75 2.3906 0 1.0117 0.25 1.8086 0.75 2.3906 0.5 0.58594 1.1719 0.875 2.0156 0.875z"/>
</symbol>
<symbol id="d" overflow="visible">
<path d="m1.5781-14h9v0.8125l-5.0781 13.188h-1.9844l4.7812-12.406h-6.7188z"/>
</symbol>
<symbol id="a" overflow="visible">
<path d="m6.1094-12.75c-0.98047 0-1.7148 0.48047-2.2031 1.4375-0.49219 0.96094-0.73438 2.4023-0.73438 4.3281 0 1.918 0.24219 3.3555 0.73438 4.3125 0.48828 0.96094 1.2227 1.4375 2.2031 1.4375 0.97656 0 1.7109-0.47656 2.2031-1.4375 0.48828-0.95703 0.73438-2.3945 0.73438-4.3125 0-1.9258-0.24609-3.3672-0.73438-4.3281-0.49219-0.95703-1.2266-1.4375-2.2031-1.4375zm0-1.5c1.5625 0 2.7539 0.62109 3.5781 1.8594 0.83203 1.2422 1.25 3.043 1.25 5.4062 0 2.3555-0.41797 4.1523-1.25 5.3906-0.82422 1.2422-2.0156 1.8594-3.5781 1.8594-1.5742 0-2.7773-0.61719-3.6094-1.8594-0.82422-1.2383-1.2344-3.0352-1.2344-5.3906 0-2.3633 0.41016-4.1641 1.2344-5.4062 0.83203-1.2383 2.0352-1.8594 3.6094-1.8594z"/>
</symbol>
<symbol id="l" overflow="visible">
<path d="m7.25-12.344-4.7812 7.4688h4.7812zm-0.48438-1.6562h2.375v9.125h2v1.5781h-2v3.2969h-1.8906v-3.2969h-6.3125v-1.8281z"/>
</symbol>
<symbol id="k" overflow="visible">
<path d="m6.1094-6.6406c-0.90625 0-1.6211 0.24219-2.1406 0.71875-0.51172 0.48047-0.76562 1.1406-0.76562 1.9844s0.25391 1.5078 0.76562 1.9844c0.51953 0.48047 1.2344 0.71875 2.1406 0.71875 0.89453 0 1.6016-0.23828 2.125-0.71875 0.51953-0.48828 0.78125-1.1484 0.78125-1.9844 0-0.84375-0.26172-1.5039-0.78125-1.9844-0.51172-0.47656-1.2188-0.71875-2.125-0.71875zm-1.9062-0.8125c-0.8125-0.19531-1.4492-0.57031-1.9062-1.125-0.44922-0.5625-0.67188-1.2422-0.67188-2.0469 0-1.1133 0.39453-1.9922 1.1875-2.6406 0.80078-0.65625 1.8984-0.98438 3.2969-0.98438 1.3828 0 2.4727 0.32812 3.2656 0.98438 0.80078 0.64844 1.2031 1.5273 1.2031 2.6406 0 0.80469-0.23047 1.4844-0.6875 2.0469-0.44922 0.55469-1.0781 0.92969-1.8906 1.125 0.91406 0.21094 1.6289 0.625 2.1406 1.25 0.50781 0.61719 0.76562 1.3711 0.76562 2.2656 0 1.3555-0.41797 2.3984-1.25 3.125-0.82422 0.71875-2.0078 1.0781-3.5469 1.0781-1.5547 0-2.7461-0.35938-3.5781-1.0781-0.82422-0.72656-1.2344-1.7695-1.2344-3.125 0-0.89453 0.25391-1.6484 0.76562-2.2656 0.51953-0.625 1.2344-1.0391 2.1406-1.25zm-0.6875-3c0 0.73047 0.22266 1.2969 0.67188 1.7031 0.45703 0.40625 1.0977 0.60938 1.9219 0.60938 0.8125 0 1.4453-0.20312 1.9062-0.60938 0.45703-0.40625 0.6875-0.97266 0.6875-1.7031 0-0.71875-0.23047-1.2812-0.6875-1.6875-0.46094-0.40625-1.0938-0.60938-1.9062-0.60938-0.82422 0-1.4648 0.20312-1.9219 0.60938-0.44922 0.40625-0.67188 0.96875-0.67188 1.6875z"/>
</symbol>
<symbol id="ay" overflow="visible">
<path d="m8.8281-12.047v5.2344h5.2344v1.5938h-5.2344v5.2188h-1.5781v-5.2188h-5.2188v-1.5938h5.2188v-5.2344z"/>
</symbol>
<symbol id="bb" overflow="visible">
<path d="m2.375-1.5938h3.0938v-10.688l-3.3594 0.6875v-1.7344l3.3438-0.67188h1.8906v12.406h3.1094v1.5938h-8.0781z"/>
</symbol>
<symbol id="ba" overflow="visible">
<path d="m3.6875-1.5938h6.6094v1.5938h-8.8906v-1.5938c0.71875-0.73828 1.6953-1.7344 2.9375-2.9844 1.2383-1.2578 2.0195-2.0703 2.3438-2.4375 0.60156-0.67578 1.0234-1.25 1.2656-1.7188 0.23828-0.47656 0.35938-0.94531 0.35938-1.4062 0-0.73828-0.26172-1.3438-0.78125-1.8125-0.52344-0.46875-1.1992-0.70312-2.0312-0.70312-0.59375 0-1.2266 0.10547-1.8906 0.3125-0.65625 0.19922-1.3594 0.51172-2.1094 0.9375v-1.9219c0.75781-0.30078 1.4688-0.53125 2.125-0.6875 0.66406-0.15625 1.2734-0.23438 1.8281-0.23438 1.4453 0 2.6016 0.36719 3.4688 1.0938 0.86328 0.71875 1.2969 1.6836 1.2969 2.8906 0 0.58594-0.10938 1.1367-0.32812 1.6562-0.21094 0.51172-0.60156 1.1172-1.1719 1.8125-0.15625 0.17969-0.65625 0.70312-1.5 1.5781-0.83594 0.86719-2.0117 2.0742-3.5312 3.625z"/>
</symbol>
<symbol id="az" overflow="visible">
<path d="m7.7969-7.5469c0.90625 0.19922 1.6133 0.60547 2.125 1.2188 0.50781 0.60547 0.76562 1.3594 0.76562 2.2656 0 1.375-0.48047 2.4453-1.4375 3.2031-0.94922 0.75-2.2969 1.125-4.0469 1.125-0.58594 0-1.1875-0.058594-1.8125-0.17188-0.625-0.11328-1.2656-0.28516-1.9219-0.51562v-1.8281c0.51953 0.30469 1.0938 0.53125 1.7188 0.6875s1.2734 0.23438 1.9531 0.23438c1.1875 0 2.0938-0.23438 2.7188-0.70312s0.9375-1.1445 0.9375-2.0312c0-0.83203-0.29297-1.4766-0.875-1.9375-0.57422-0.46875-1.375-0.70312-2.4062-0.70312h-1.6406v-1.5625h1.7188c0.92578 0 1.6328-0.17969 2.125-0.54688 0.5-0.375 0.75-0.91016 0.75-1.6094 0-0.71875-0.25781-1.2695-0.76562-1.6562-0.51172-0.38281-1.2422-0.57812-2.1875-0.57812-0.52344 0-1.0781 0.058594-1.6719 0.17188-0.59375 0.10547-1.2461 0.27734-1.9531 0.51562v-1.6875c0.71875-0.19531 1.3906-0.34375 2.0156-0.4375 0.625-0.10156 1.2188-0.15625 1.7812-0.15625 1.4375 0 2.5703 0.32812 3.4062 0.98438 0.84375 0.64844 1.2656 1.5273 1.2656 2.6406 0 0.78125-0.22656 1.4375-0.67188 1.9688-0.44922 0.53125-1.0781 0.90234-1.8906 1.1094z"/>
</symbol>
<symbol id="ax" overflow="visible">
<path d="m-14-1.7656v-5.9844c0-1.7812 0.39844-3.1445 1.1875-4.0938 0.79297-0.95703 1.918-1.4375 3.375-1.4375 1.4688 0 2.6016 0.48047 3.3906 1.4375 0.79297 0.94922 1.1875 2.3125 1.1875 4.0938v2.375h4.8594v3.6094zm2.6094-3.6094h3.9219v-2c0-0.69531-0.17188-1.2344-0.51562-1.6094-0.34375-0.38281-0.82812-0.57812-1.4531-0.57812s-1.1016 0.19531-1.4375 0.57812c-0.34375 0.375-0.51562 0.91406-0.51562 1.6094z"/>
</symbol>
<symbol id="b" overflow="visible">
<path d="m-5.2812-12.094h0.95312v7.8438c0.79297-0.082031 1.3867-0.36328 1.7812-0.84375 0.39844-0.48828 0.59375-1.1719 0.59375-2.0469 0-0.70703-0.10156-1.4297-0.3125-2.1719-0.21875-0.73828-0.53516-1.5-0.95312-2.2812h2.5781c0.30469 0.79297 0.52734 1.5859 0.67188 2.375 0.15625 0.79297 0.23438 1.5898 0.23438 2.3906 0 1.8984-0.47656 3.3711-1.4375 4.4219-0.96875 1.0547-2.3203 1.5781-4.0625 1.5781-1.7188 0-3.0664-0.51562-4.0469-1.5469-0.97656-1.0312-1.4688-2.4531-1.4688-4.2656 0-1.6562 0.5-2.9766 1.5-3.9688 0.99219-0.98828 2.3125-1.4844 3.9688-1.4844zm-1.1094 3.4531c-0.63281 0-1.1445 0.1875-1.5312 0.5625-0.39453 0.36719-0.59375 0.85156-0.59375 1.4531 0 0.64844 0.18359 1.1719 0.54688 1.5781 0.36719 0.40625 0.89062 0.66406 1.5781 0.76562z"/>
</symbol>
<symbol id="ap" overflow="visible">
<path d="m-7.6406-9.4062c-0.13281 0.29297-0.23438 0.58594-0.29688 0.875-0.070312 0.29297-0.10938 0.58594-0.10938 0.875 0 0.86719 0.27734 1.5312 0.82812 2 0.55469 0.46094 1.3438 0.6875 2.375 0.6875h4.8438v3.3594h-10.5v-3.3594h1.7188c-0.6875-0.42578-1.1875-0.92188-1.5-1.4844s-0.46875-1.2344-0.46875-2.0156c0-0.11328 0.007812-0.23438 0.015625-0.35938 0-0.13281 0.015625-0.32812 0.046875-0.57812z"/>
</symbol>
<symbol id="ao" overflow="visible">
<path d="m-10.172-9.8125h2.5469c-0.30078 0.71875-0.52344 1.4141-0.67188 2.0781-0.14453 0.66797-0.21875 1.2969-0.21875 1.8906 0 0.63672 0.078125 1.1094 0.23438 1.4219s0.40234 0.46875 0.73438 0.46875c0.27344 0 0.48047-0.11328 0.625-0.34375 0.13672-0.23828 0.24219-0.66016 0.3125-1.2656l0.078125-0.59375c0.21875-1.7188 0.57812-2.875 1.0781-3.4688s1.2891-0.89062 2.3594-0.89062c1.1172 0 1.9531 0.41406 2.5156 1.2344 0.5625 0.82422 0.84375 2.0547 0.84375 3.6875 0 0.69922-0.058594 1.418-0.17188 2.1562-0.10156 0.74219-0.26562 1.5-0.48438 2.2812h-2.5469c0.32422-0.66406 0.57031-1.3477 0.73438-2.0469 0.16797-0.70703 0.25-1.4258 0.25-2.1562 0-0.65625-0.085937-1.1445-0.26562-1.4688-0.1875-0.33203-0.45703-0.5-0.8125-0.5-0.30078 0-0.52344 0.11719-0.67188 0.34375-0.14453 0.23047-0.25781 0.68359-0.34375 1.3594l-0.078125 0.59375c-0.1875 1.4922-0.53125 2.5391-1.0312 3.1406-0.50781 0.59375-1.2812 0.89062-2.3125 0.89062-1.1133 0-1.9375-0.37891-2.4688-1.1406-0.53906-0.75781-0.8125-1.9258-0.8125-3.5 0-0.625 0.046875-1.2734 0.14062-1.9531 0.09375-0.67578 0.24219-1.4141 0.4375-2.2188z"/>
</symbol>
<symbol id="an" overflow="visible">
<path d="m-8.3594-6.6094c0 0.74219 0.27344 1.3086 0.8125 1.7031 0.53125 0.38672 1.3047 0.57812 2.3125 0.57812 1 0 1.7734-0.19141 2.3125-0.57812 0.53125-0.39453 0.79688-0.96094 0.79688-1.7031 0-0.72656-0.26562-1.2852-0.79688-1.6719-0.53906-0.39453-1.3125-0.59375-2.3125-0.59375-1.0078 0-1.7812 0.19922-2.3125 0.59375-0.53906 0.38672-0.8125 0.94531-0.8125 1.6719zm-2.3906 0c0-1.8008 0.49219-3.2109 1.4688-4.2344 0.96875-1.0195 2.3203-1.5312 4.0469-1.5312 1.7188 0 3.0703 0.51172 4.0469 1.5312 0.96875 1.0234 1.4531 2.4336 1.4531 4.2344 0 1.8125-0.48438 3.2305-1.4531 4.25-0.97656 1.0234-2.3281 1.5312-4.0469 1.5312-1.7266 0-3.0781-0.50781-4.0469-1.5312-0.97656-1.0195-1.4688-2.4375-1.4688-4.25z"/>
</symbol>
<symbol id="c" overflow="visible">
<path d="m-6.3906-12.172h6.3906v3.375h-4.8906c-0.90625 0-1.5312 0.023437-1.875 0.0625-0.34375 0.042969-0.59766 0.11719-0.76562 0.21875-0.21875 0.125-0.38281 0.30469-0.5 0.53125-0.125 0.21875-0.1875 0.47656-0.1875 0.76562 0 0.69922 0.27344 1.25 0.8125 1.6562 0.54297 0.39844 1.2891 0.59375 2.2344 0.59375h5.1719v3.3594h-10.5v-3.3594h1.5312c-0.61328-0.50781-1.0625-1.0469-1.3438-1.6094-0.28906-0.57031-0.4375-1.2031-0.4375-1.8906 0-1.207 0.375-2.125 1.125-2.75 0.74219-0.63281 1.8203-0.95312 3.2344-0.95312z"/>
</symbol>
<symbol id="j" overflow="visible"></symbol>
<symbol id="am" overflow="visible">
<path d="m-8.9688-8.75h-5.625v-3.3906h14.594v3.3906h-1.5156c0.61719 0.46094 1.0703 0.96875 1.3594 1.5312 0.28125 0.55469 0.42188 1.1953 0.42188 1.9219 0 1.293-0.50781 2.3555-1.5312 3.1875-1.0312 0.83594-2.3516 1.25-3.9688 1.25-1.625 0-2.9453-0.41406-3.9688-1.25-1.0312-0.83203-1.5469-1.8945-1.5469-3.1875 0-0.72656 0.14844-1.3672 0.4375-1.9219 0.28125-0.5625 0.73047-1.0703 1.3438-1.5312zm6.7969 2.2031c0-0.71875-0.25781-1.2656-0.78125-1.6406-0.51953-0.375-1.2812-0.5625-2.2812-0.5625s-1.7578 0.1875-2.2812 0.5625c-0.53125 0.375-0.79688 0.92188-0.79688 1.6406s0.26562 1.2656 0.79688 1.6406c0.52344 0.375 1.2812 0.5625 2.2812 0.5625s1.7617-0.1875 2.2812-0.5625c0.52344-0.375 0.78125-0.92188 0.78125-1.6406z"/>
</symbol>
<symbol id="i" overflow="visible">
<path d="m-10.5-1.6094v-3.3594h10.5v3.3594zm-4.0938 0v-3.3594h2.7344v3.3594z"/>
</symbol>
<symbol id="aw" overflow="visible">
<path d="m-14-1.7656v-3.6094h5.3438v-5.3281h-5.3438v-3.6094h14v3.6094h-5.9375v5.3281h5.9375v3.6094z"/>
</symbol>
<symbol id="av" overflow="visible">
<path d="m-14.594-1.6094v-3.3594h14.594v3.3594z"/>
</symbol>
<symbol id="au" overflow="visible">
<path d="m-14.594-8.5156h2.2031v1.8438c0 0.48047 0.089844 0.8125 0.26562 1 0.16797 0.1875 0.46484 0.28125 0.89062 0.28125h0.73438v-2.875h2.4062v2.875h8.0938v3.3594h-8.0938v1.6719h-2.4062v-1.6719h-0.73438c-1.1445 0-1.9883-0.31641-2.5312-0.95312-0.55078-0.64453-0.82812-1.6328-0.82812-2.9688z"/>
</symbol>
<symbol id="at" overflow="visible">
<path d="m-2.1719-7.2031c0-0.71875-0.25781-1.2656-0.78125-1.6406-0.51953-0.375-1.2812-0.5625-2.2812-0.5625s-1.7578 0.1875-2.2812 0.5625c-0.53125 0.375-0.79688 0.92188-0.79688 1.6406s0.26562 1.2734 0.79688 1.6562c0.52344 0.38672 1.2812 0.57812 2.2812 0.57812 0.99219 0 1.75-0.19141 2.2812-0.57812 0.52344-0.38281 0.78125-0.9375 0.78125-1.6562zm-6.7969 2.2344c-0.61328-0.45703-1.0625-0.96875-1.3438-1.5312-0.28906-0.5625-0.4375-1.2109-0.4375-1.9531 0-1.2891 0.51562-2.3516 1.5469-3.1875 1.0234-0.83203 2.3438-1.25 3.9688-1.25 1.6172 0 2.9375 0.41797 3.9688 1.25 1.0234 0.83594 1.5312 1.8984 1.5312 3.1875 0 0.74219-0.14062 1.3906-0.42188 1.9531-0.28906 0.5625-0.74219 1.0742-1.3594 1.5312h1.5156v3.3594h-14.594v-3.3594z"/>
</symbol>
<symbol id="as" overflow="visible">
<path d="m-8.3594-6.6094c0 0.74219 0.27344 1.3086 0.8125 1.7031 0.53125 0.38672 1.3047 0.57812 2.3125 0.57812 1 0 1.7734-0.19141 2.3125-0.57812 0.53125-0.39453 0.79688-0.96094 0.79688-1.7031 0-0.72656-0.26562-1.2852-0.79688-1.6719-0.53906-0.39453-1.3125-0.59375-2.3125-0.59375-1.0078 0-1.7812 0.19922-2.3125 0.59375-0.53906 0.38672-0.8125 0.94531-0.8125 1.6719zm-2.3906 0c0-1.8008 0.49219-3.2109 1.4688-4.2344 0.96875-1.0195 2.3203-1.5312 4.0469-1.5312 1.7188 0 3.0703 0.51172 4.0469 1.5312 0.96875 1.0234 1.4531 2.4336 1.4531 4.2344 0 1.8125-0.48438 3.2305-1.4531 4.25-0.97656 1.0234-2.3281 1.5312-4.0469 1.5312-1.7266 0-3.0781-0.50781-4.0469-1.5312-0.97656-1.0195-1.4688-2.4375-1.4688-4.25zm-4.1094 2.9844v-2.2031h2.2969v2.2031zm0-3.7031v-2.2031h2.2969v2.2031z"/>
</symbol>
<symbol id="ar" overflow="visible">
<path d="m-13.484-5.2812h2.9844v-3.4531h2.4062v3.4531h4.4531c0.48047 0 0.80859-0.09375 0.98438-0.28125 0.16797-0.19531 0.25-0.58203 0.25-1.1562v-1.7344h2.4062v2.8906c0 1.3242-0.27344 2.2617-0.82812 2.8125-0.55078 0.55469-1.4883 0.82812-2.8125 0.82812h-4.4531v1.6719h-2.4062v-1.6719h-2.9844z"/>
</symbol>
<symbol id="aq" overflow="visible">
<path d="m-1.7812-8.75c0.61719 0.46094 1.0703 0.96875 1.3594 1.5312 0.28125 0.55469 0.42188 1.1953 0.42188 1.9219 0 1.2812-0.50391 2.3438-1.5156 3.1875-1.0078 0.83594-2.2969 1.25-3.8594 1.25s-2.8438-0.41406-3.8438-1.25c-1.0078-0.84375-1.5156-1.9062-1.5156-3.1875 0-0.72656 0.14844-1.3672 0.4375-1.9219 0.28125-0.5625 0.73438-1.0703 1.3594-1.5312h-1.5625v-3.3906h9.4375c1.6875 0 2.9727 0.53906 3.8594 1.6094 0.89453 1.0625 1.3438 2.6094 1.3438 4.6406 0 0.65625-0.054687 1.293-0.15625 1.9062-0.09375 0.60547-0.24609 1.2188-0.45312 1.8438h-2.6094c0.33203-0.59375 0.58203-1.1719 0.75-1.7344 0.16406-0.5625 0.25-1.125 0.25-1.6875 0-1.1016-0.24219-1.9102-0.71875-2.4219-0.48047-0.50781-1.2344-0.76562-2.2656-0.76562zm-6.5312 2.2031c0 0.69922 0.25781 1.2422 0.76562 1.625 0.51172 0.38672 1.2344 0.57812 2.1719 0.57812 0.96875 0 1.7031-0.1875 2.2031-0.5625 0.49219-0.375 0.73438-0.92188 0.73438-1.6406 0-0.69531-0.25391-1.2383-0.76562-1.625-0.50781-0.38281-1.2344-0.57812-2.1719-0.57812s-1.6602 0.19531-2.1719 0.57812c-0.50781 0.38672-0.76562 0.92969-0.76562 1.625z"/>
</symbol>
<symbol id="al" overflow="visible">
<path d="m-14.594-1.6562v-3.9688h1.3438v2.25h14.438v-2.25h1.3438v3.9688z"/>
</symbol>
<symbol id="af" overflow="visible">
<path d="m-6.1562-13.969c0 0.55469 0.23438 0.98438 0.70312 1.2969 0.46094 0.30469 1.1016 0.45312 1.9219 0.45312 0.8125 0 1.4531-0.14844 1.9219-0.45312 0.46094-0.3125 0.6875-0.74219 0.6875-1.2969 0-0.53125-0.22656-0.94531-0.6875-1.25-0.46875-0.3125-1.1094-0.46875-1.9219-0.46875-0.82031 0-1.4609 0.15625-1.9219 0.46875-0.46875 0.30469-0.70312 0.71875-0.70312 1.25zm-1.1875 0c0-0.97656 0.34375-1.7578 1.0312-2.3438 0.6875-0.58203 1.6172-0.875 2.7812-0.875 1.168 0 2.0938 0.29297 2.7812 0.875 0.67969 0.58594 1.0156 1.3672 1.0156 2.3438 0 1-0.33594 1.793-1.0156 2.375-0.6875 0.58594-1.6133 0.875-2.7812 0.875-1.1758 0-2.1016-0.28906-2.7812-0.875-0.6875-0.58203-1.0312-1.375-1.0312-2.375zm-5.7188 9.6875c0 0.53125 0.23438 0.95312 0.70312 1.2656 0.46094 0.3125 1.0938 0.46875 1.9062 0.46875 0.83594 0 1.4844-0.14844 1.9531-0.45312 0.46094-0.3125 0.6875-0.73828 0.6875-1.2812 0-0.53906-0.22656-0.96875-0.6875-1.2812-0.46875-0.3125-1.1172-0.46875-1.9531-0.46875-0.80078 0-1.4375 0.15625-1.9062 0.46875s-0.70312 0.74219-0.70312 1.2812zm-1.1875-8.4688v-1.5l14.516 8.75v1.5zm0 8.4688c0-0.98828 0.34375-1.7734 1.0312-2.3594 0.67969-0.59375 1.6016-0.89062 2.7656-0.89062 1.1875 0 2.125 0.29297 2.8125 0.875 0.67969 0.58594 1.0156 1.375 1.0156 2.375 0 0.99219-0.34375 1.7773-1.0312 2.3594-0.6875 0.57422-1.6172 0.85938-2.7969 0.85938-1.1562 0-2.0781-0.28516-2.7656-0.85938-0.6875-0.58203-1.0312-1.3672-1.0312-2.3594z"/>
</symbol>
<symbol id="h" overflow="visible"></symbol>
<symbol id="ae" overflow="visible">
<path d="m-10.5-1.8125v-1.7188h10.5v1.7188zm-4.0938 0v-1.7188h2.1875v1.7188z"/>
</symbol>
<symbol id="ad" overflow="visible">
<path d="m-6.3438-10.547h6.3438v1.7344h-6.2812c-0.98828 0-1.7266 0.19531-2.2188 0.57812-0.5 0.38672-0.75 0.96875-0.75 1.75 0 0.92969 0.29688 1.6641 0.89062 2.2031 0.59375 0.53125 1.4023 0.79688 2.4219 0.79688h5.9375v1.7344h-10.5v-1.7344h1.625c-0.625-0.40625-1.0938-0.89062-1.4062-1.4531s-0.46875-1.207-0.46875-1.9375c0-1.207 0.375-2.1172 1.125-2.7344 0.74219-0.625 1.8359-0.9375 3.2812-0.9375z"/>
</symbol>
<symbol id="ac" overflow="visible">
<path d="m-8.9062-8.7188h-5.6875v-1.7344h14.594v1.7344h-1.5781c0.625 0.36719 1.0898 0.82422 1.3906 1.375 0.30078 0.55469 0.45312 1.2148 0.45312 1.9844 0 1.2734-0.50391 2.3086-1.5156 3.1094-1.0078 0.79297-2.3359 1.1875-3.9844 1.1875-1.6562 0-2.9883-0.39453-4-1.1875-1.0078-0.80078-1.5156-1.8359-1.5156-3.1094 0-0.76953 0.15234-1.4297 0.45312-1.9844 0.30469-0.55078 0.76562-1.0078 1.3906-1.375zm3.6719 5.875c1.2617 0 2.2578-0.25781 2.9844-0.78125 0.71875-0.51953 1.0781-1.2383 1.0781-2.1562 0-0.90625-0.35938-1.6172-1.0781-2.1406-0.72656-0.53125-1.7227-0.79688-2.9844-0.79688-1.2695 0-2.2656 0.26562-2.9844 0.79688-0.72656 0.52344-1.0938 1.2344-1.0938 2.1406 0 0.91797 0.36719 1.6367 1.0938 2.1562 0.71875 0.52344 1.7148 0.78125 2.9844 0.78125z"/>
</symbol>
<symbol id="g" overflow="visible">
<path d="m-5.6875-10.797h0.84375v7.9375c1.1875-0.070313 2.0938-0.42578 2.7188-1.0625 0.625-0.64453 0.9375-1.5391 0.9375-2.6875 0-0.66406-0.078125-1.3047-0.23438-1.9219-0.16406-0.625-0.41406-1.2422-0.75-1.8594h1.6406c0.26172 0.625 0.46094 1.2617 0.59375 1.9062 0.13281 0.64844 0.20312 1.3086 0.20312 1.9844 0 1.668-0.48438 2.9922-1.4531 3.9688-0.97656 0.98047-2.2969 1.4688-3.9531 1.4688-1.7188 0-3.082-0.46094-4.0938-1.3906-1.0078-0.92578-1.5156-2.1758-1.5156-3.75 0-1.4141 0.45312-2.5352 1.3594-3.3594 0.90625-0.82031 2.1406-1.2344 3.7031-1.2344zm-0.5 1.7344c-0.94531 0.011719-1.7031 0.27734-2.2656 0.79688-0.5625 0.51172-0.84375 1.1953-0.84375 2.0469 0 0.96094 0.27734 1.7305 0.82812 2.3125 0.54297 0.57422 1.3086 0.90234 2.2969 0.98438z"/>
</symbol>
<symbol id="r" overflow="visible">
<path d="m-8.8906-7.8906c-0.11328 0.1875-0.19531 0.39844-0.25 0.625-0.050781 0.23047-0.078125 0.48438-0.078125 0.76562 0 0.96875 0.32031 1.7148 0.95312 2.2344 0.63672 0.52344 1.5469 0.78125 2.7344 0.78125h5.5312v1.7344h-10.5v-1.7344h1.625c-0.63281-0.35156-1.1016-0.82031-1.4062-1.4062-0.3125-0.58203-0.46875-1.2891-0.46875-2.125 0-0.11328 0.011719-0.24219 0.03125-0.39062 0.011719-0.14453 0.03125-0.30469 0.0625-0.48438z"/>
</symbol>
<symbol id="ab" overflow="visible">
<path d="m-12.141-6.5625 6.9688 2.5625v-5.1406zm-1.8594 1.0625v-2.1406l14-5.3438v1.9688l-3.5938 1.2812v6.3125l3.5938 1.2812v1.9844z"/>
</symbol>
<symbol id="ak" overflow="visible">
<path d="m-14.594-1.8125v-1.7188h14.594v1.7188z"/>
</symbol>
<symbol id="s" overflow="visible">
<path d="m-13.484-3.5156h2.9844v-3.5469h1.3438v3.5469h5.7031c0.85547 0 1.4062-0.11328 1.6562-0.34375 0.24219-0.23828 0.35938-0.71875 0.35938-1.4375v-1.7656h1.4375v1.7656c0 1.3359-0.24219 2.2578-0.73438 2.7656-0.5 0.5-1.4062 0.75-2.7188 0.75h-5.7031v1.2656h-1.3438v-1.2656h-2.9844z"/>
</symbol>
<symbol id="aj" overflow="visible">
<path d="m-10.188-8.5h1.625c-0.25 0.49219-0.4375 0.99609-0.5625 1.5156-0.125 0.52344-0.1875 1.0625-0.1875 1.625 0 0.86719 0.13672 1.5117 0.40625 1.9375 0.26172 0.42969 0.65234 0.64062 1.1719 0.64062 0.39844 0 0.71094-0.14844 0.9375-0.45312 0.23047-0.3125 0.44922-0.92969 0.65625-1.8594l0.125-0.59375c0.27344-1.2188 0.64844-2.082 1.125-2.5938 0.46875-0.51953 1.1367-0.78125 2-0.78125 0.96875 0 1.7422 0.38672 2.3125 1.1562 0.5625 0.77344 0.84375 1.8359 0.84375 3.1875 0 0.5625-0.058594 1.1523-0.17188 1.7656-0.10156 0.60547-0.26562 1.2422-0.48438 1.9062h-1.7812c0.33594-0.63281 0.58594-1.2578 0.75-1.875 0.16797-0.625 0.25-1.2383 0.25-1.8438 0-0.8125-0.13281-1.4375-0.40625-1.875-0.28125-0.4375-0.67578-0.65625-1.1875-0.65625-0.46875 0-0.82812 0.16406-1.0781 0.48438-0.25 0.3125-0.48828 1-0.71875 2.0625l-0.14062 0.60938c-0.22656 1.0625-0.57031 1.8359-1.0312 2.3125-0.46875 0.48047-1.1094 0.71875-1.9219 0.71875-0.98828 0-1.75-0.34766-2.2812-1.0469-0.53906-0.70703-0.8125-1.7031-0.8125-2.9844 0-0.64453 0.046875-1.25 0.14062-1.8125s0.23438-1.0781 0.42188-1.5469z"/>
</symbol>
<symbol id="ai" overflow="visible">
<path d="m-4.1406-1.625h-6.3594v-1.7344h6.2969c0.99219 0 1.7344-0.19141 2.2344-0.57812 0.49219-0.38281 0.73438-0.96875 0.73438-1.75 0-0.92578-0.29688-1.6602-0.89062-2.2031-0.59375-0.53906-1.3984-0.8125-2.4219-0.8125h-5.9531v-1.7188h10.5v1.7188h-1.6094c0.63672 0.41797 1.1094 0.90625 1.4219 1.4688 0.30078 0.55469 0.45312 1.1953 0.45312 1.9219 0 1.2109-0.375 2.125-1.125 2.75s-1.8438 0.9375-3.2812 0.9375z"/>
</symbol>
<symbol id="ah" overflow="visible">
<path d="m-14.594-7.125h1.4375v1.6562c0 0.61719 0.125 1.043 0.375 1.2812 0.25 0.24219 0.69922 0.35938 1.3438 0.35938h0.9375v-2.8438h1.3438v2.8438h9.1562v1.7344h-9.1562v1.6562h-1.3438v-1.6562h-0.73438c-1.1641 0-2.0156-0.26953-2.5469-0.8125-0.53906-0.53906-0.8125-1.4062-0.8125-2.5938z"/>
</symbol>
<symbol id="ag" overflow="visible">
<path d="m-14.594-5.8438h17.125v3.9844h-1.3438v-2.25h-14.438v2.25h-1.3438z"/>
</symbol>
<symbol id="aa" overflow="visible">
<path d="m14.109-3.5h-7.7656l-1.2188 3.5h-5l7.1406-19.25h5.9062l7.1406 19.25h-5zm-6.5312-3.5781h5.2812l-2.6406-7.6562z"/>
</symbol>
<symbol id="x" overflow="visible">
<path d="m2.2188-20.062h4.6094v20.062h-4.6094z"/>
</symbol>
<symbol id="w" overflow="visible">
<path d="m7.2656-18.547v4.1094h4.75v3.2969h-4.75v6.125c0 0.66797 0.12891 1.1211 0.39062 1.3594 0.26953 0.24219 0.80078 0.35938 1.5938 0.35938h2.375v3.2969h-3.9688c-1.8242 0-3.1172-0.37891-3.875-1.1406-0.76172-0.75781-1.1406-2.0508-1.1406-3.875v-6.125h-2.2969v-3.2969h2.2969v-4.1094z"/>
</symbol>
<symbol id="q" overflow="visible">
<path d="m16.641-7.2656v1.3281h-10.797c0.11328 1.0859 0.50391 1.8984 1.1719 2.4375 0.66406 0.54297 1.6016 0.8125 2.8125 0.8125 0.96875 0 1.9609-0.14453 2.9844-0.4375 1.0195-0.28906 2.0664-0.72656 3.1406-1.3125v3.5625c-1.0938 0.40625-2.1875 0.71484-3.2812 0.92188-1.0938 0.21875-2.1836 0.32812-3.2656 0.32812-2.6172 0-4.6484-0.66016-6.0938-1.9844-1.4492-1.332-2.1719-3.1953-2.1719-5.5938 0-2.3516 0.70703-4.2031 2.125-5.5469 1.4258-1.3516 3.3828-2.0312 5.875-2.0312 2.2695 0 4.0859 0.68359 5.4531 2.0469 1.3633 1.3672 2.0469 3.1875 2.0469 5.4688zm-4.75-1.5312c0-0.875-0.25781-1.5781-0.76562-2.1094-0.51172-0.53906-1.1836-0.8125-2.0156-0.8125-0.88672 0-1.6094 0.25-2.1719 0.75s-0.91406 1.2266-1.0469 2.1719z"/>
</symbol>
<symbol id="p" overflow="visible">
<path d="m12.938-10.516c-0.39844-0.1875-0.79688-0.32031-1.2031-0.40625-0.39844-0.09375-0.79688-0.14062-1.2031-0.14062-1.1875 0-2.1055 0.38281-2.75 1.1406-0.63672 0.76172-0.95312 1.8516-0.95312 3.2656v6.6562h-4.6094v-14.438h4.6094v2.375c0.59375-0.94531 1.2734-1.6328 2.0469-2.0625 0.76953-0.4375 1.6914-0.65625 2.7656-0.65625 0.15625 0 0.32031 0.007812 0.5 0.015625 0.1875 0.011719 0.45312 0.039063 0.79688 0.078125z"/>
</symbol>
<symbol id="o" overflow="visible"></symbol>
<symbol id="v" overflow="visible">
<path d="m2.2188-14.438h4.6094v14.438h-4.6094zm0-5.625h4.6094v3.7656h-4.6094z"/>
</symbol>
<symbol id="n" overflow="visible">
<path d="m16.734-8.7969v8.7969h-4.6406v-6.7344c0-1.2383-0.03125-2.0938-0.09375-2.5625-0.054688-0.47656-0.14844-0.83203-0.28125-1.0625-0.17969-0.30078-0.42188-0.53516-0.73438-0.70312-0.3125-0.16406-0.66797-0.25-1.0625-0.25-0.96094 0-1.7148 0.375-2.2656 1.125-0.55469 0.74219-0.82812 1.7656-0.82812 3.0781v7.1094h-4.6094v-14.438h4.6094v2.1094c0.69531-0.84375 1.4375-1.4609 2.2188-1.8594 0.78125-0.39453 1.6445-0.59375 2.5938-0.59375 1.6641 0 2.9297 0.51172 3.7969 1.5312 0.86328 1.0234 1.2969 2.5078 1.2969 4.4531z"/>
</symbol>
<symbol id="u" overflow="visible">
<path d="m2.4219-19.25h4.9688v17.375c0 2.4062-0.65234 4.1953-1.9531 5.375-1.3047 1.1875-3.2773 1.7812-5.9219 1.7812h-1v-3.75h0.78125c1.0312 0 1.8047-0.28906 2.3281-0.85938 0.53125-0.57422 0.79688-1.4219 0.79688-2.5469z"/>
</symbol>
<symbol id="z" overflow="visible">
<path d="m8.6875-6.5c-0.96094 0-1.6836 0.16797-2.1719 0.5-0.48047 0.32422-0.71875 0.80469-0.71875 1.4375 0 0.58594 0.19141 1.043 0.57812 1.375 0.39453 0.33594 0.9375 0.5 1.625 0.5 0.875 0 1.6094-0.3125 2.2031-0.9375s0.89062-1.4062 0.89062-2.3438v-0.53125zm7.0625-1.7344v8.2344h-4.6562v-2.1406c-0.625 0.875-1.3242 1.5156-2.0938 1.9219-0.77344 0.39453-1.7148 0.59375-2.8281 0.59375-1.4922 0-2.7031-0.4375-3.6406-1.3125-0.92969-0.875-1.3906-2.0039-1.3906-3.3906 0-1.6953 0.57812-2.9414 1.7344-3.7344 1.1641-0.78906 3-1.1875 5.5-1.1875h2.7188v-0.35938c0-0.72656-0.29297-1.2578-0.875-1.5938-0.57422-0.34375-1.4688-0.51562-2.6875-0.51562-0.99219 0-1.9141 0.10156-2.7656 0.29688-0.84375 0.19922-1.6367 0.49609-2.375 0.89062v-3.5156c0.98828-0.25 1.9844-0.42969 2.9844-0.54688 1-0.125 2-0.1875 3-0.1875 2.6016 0 4.4844 0.51562 5.6406 1.5469 1.1562 1.0234 1.7344 2.6875 1.7344 5z"/>
</symbol>
<symbol id="y" overflow="visible">
<path d="m16.734-8.7969v8.7969h-4.6406v-6.7031c0-1.2578-0.03125-2.125-0.09375-2.5938-0.054688-0.47656-0.14844-0.83203-0.28125-1.0625-0.17969-0.30078-0.42188-0.53516-0.73438-0.70312-0.3125-0.16406-0.66797-0.25-1.0625-0.25-0.96094 0-1.7148 0.375-2.2656 1.125-0.55469 0.74219-0.82812 1.7656-0.82812 3.0781v7.1094h-4.6094v-20.062h4.6094v7.7344c0.69531-0.84375 1.4375-1.4609 2.2188-1.8594 0.78125-0.39453 1.6445-0.59375 2.5938-0.59375 1.6641 0 2.9297 0.51172 3.7969 1.5312 0.86328 1.0234 1.2969 2.5078 1.2969 4.4531z"/>
</symbol>
</defs>
<path transform="matrix(2.4004 0 0 2.4 -64.487 .45169)" d="m89.314 9.8378v166.17" fill="none" stroke="#000" stroke-width=".75"/>
<path transform="matrix(2.4004 0 0 2.4 -64.487 .45169)" d="m345.36 9.8378h-259.88" fill="none" stroke="#000" stroke-width=".6"/>
<path transform="matrix(2.4004 0 0 2.4 -64.487 .45169)" d="m89.314 9.8378h256.04v162.33h-256.04z" fill="none" stroke="#000"/>
<path transform="matrix(2.4004 0 0 2.4 -64.487 .45169)" d="m345.36 172.16h-259.88" fill="none" stroke="#000" stroke-width=".6"/>
<path transform="matrix(2.4004 0 0 2.4 -64.487 .45169)" d="m345.36 145.11h-259.88" fill="none" stroke="#000" stroke-width=".6"/>
<path transform="matrix(2.4004 0 0 2.4 -64.487 .45169)" d="m345.36 118.06h-259.88" fill="none" stroke="#000" stroke-width=".6"/>
<path transform="matrix(2.4004 0 0 2.4 -64.487 .45169)" d="m345.36 91.001h-259.88" fill="none" stroke="#000" stroke-width=".6"/>
<path transform="matrix(2.4004 0 0 2.4 -64.487 .45169)" d="m345.36 63.946h-259.88" fill="none" stroke="#000" stroke-width=".6"/>
<path transform="matrix(2.4004 0 0 2.4 -64.487 .45169)" d="m345.36 36.892h-259.88" fill="none" stroke="#000" stroke-width=".6"/>
<path transform="matrix(2.4004 0 0 2.4 -64.487 .45169)" d="m153.32 9.8378v166.17" fill="none" stroke="#000" stroke-width=".75"/>
<path transform="matrix(2.4004 0 0 2.4 -64.487 .45169)" d="m217.34 9.8378v166.17" fill="none" stroke="#000" stroke-width=".75"/>
<path transform="matrix(2.4004 0 0 2.4 -64.487 .45169)" d="m281.35 9.8378v166.17" fill="none" stroke="#000" stroke-width=".75"/>
<path transform="matrix(2.4004 0 0 2.4 -64.487 .45169)" d="m345.36 9.8378v166.17" fill="none" stroke="#000" stroke-width=".75"/>
<g>
<use x="121.648438" y="457.235971" xlink:href="#m"/>
<use x="133.650225" y="457.235971" xlink:href="#f"/>
<use x="145.652012" y="457.235971" xlink:href="#e"/>
<use x="152.853085" y="457.235971" xlink:href="#m"/>
<use x="164.854872" y="457.235971" xlink:href="#t"/>
</g>
<g>
<use x="275.695312" y="457.235971" xlink:href="#d"/>
<use x="287.6971" y="457.235971" xlink:href="#a"/>
<use x="299.698887" y="457.235971" xlink:href="#e"/>
<use x="306.89996" y="457.235971" xlink:href="#d"/>
<use x="318.901747" y="457.235971" xlink:href="#l"/>
</g>
<g>
<use x="429.476562" y="457.235971" xlink:href="#d"/>
<use x="441.47835" y="457.235971" xlink:href="#f"/>
<use x="453.480137" y="457.235971" xlink:href="#e"/>
<use x="460.68121" y="457.235971" xlink:href="#d"/>
<use x="472.682997" y="457.235971" xlink:href="#t"/>
</g>
<g>
<use x="583.125" y="457.235971" xlink:href="#k"/>
<use x="595.126787" y="457.235971" xlink:href="#a"/>
<use x="607.128575" y="457.235971" xlink:href="#e"/>
<use x="614.329647" y="457.235971" xlink:href="#k"/>
<use x="626.331435" y="457.235971" xlink:href="#l"/>
</g>
<g>
<use x="744.453125" y="457.235971" xlink:href="#k"/>
<use x="756.454912" y="457.235971" xlink:href="#f"/>
<use x="768.4567" y="457.235971" xlink:href="#ay"/>
</g>
<g>
<use x="109.820312" y="420.634408" xlink:href="#a"/>
</g>
<g>
<use x="97.710938" y="355.704721" xlink:href="#bb"/>
<use x="109.712725" y="355.704721" xlink:href="#a"/>
</g>
<g>
<use x="97.710938" y="290.775033" xlink:href="#ba"/>
<use x="109.712725" y="290.775033" xlink:href="#a"/>
</g>
<g>
<use x="97.710938" y="225.84144" xlink:href="#az"/>
<use x="109.712725" y="225.84144" xlink:href="#a"/>
</g>
<g>
<use x="97.710938" y="160.911752" xlink:href="#l"/>
<use x="109.712725" y="160.911752" xlink:href="#a"/>
</g>
<g>
<use x="97.710938" y="95.982065" xlink:href="#f"/>
<use x="109.712725" y="95.982065" xlink:href="#a"/>
</g>
<g>
<use x="97.710938" y="31.048471" xlink:href="#m"/>
<use x="109.712725" y="31.048471" xlink:href="#a"/>
</g>
<g>
<use x="31.777655" y="377.386719" xlink:href="#ax"/>
<use x="31.777655" y="362.986692" xlink:href="#b"/>
<use x="31.777655" y="350.986669" xlink:href="#ap"/>
<use x="31.777655" y="341.386652" xlink:href="#ao"/>
<use x="31.777655" y="329.386629" xlink:href="#an"/>
<use x="31.777655" y="317.386607" xlink:href="#c"/>
<use x="31.777655" y="302.98658" xlink:href="#b"/>
<use x="31.777655" y="290.986557" xlink:href="#c"/>
<use x="31.777655" y="276.586531" xlink:href="#j"/>
<use x="31.777655" y="269.386517" xlink:href="#am"/>
<use x="31.777655" y="254.98649" xlink:href="#i"/>
<use x="31.777655" y="247.786477" xlink:href="#b"/>
<use x="31.777655" y="235.786454" xlink:href="#j"/>
<use x="31.777655" y="228.586441" xlink:href="#aw"/>
<use x="31.777655" y="211.78641" xlink:href="#i"/>
<use x="31.777655" y="204.586396" xlink:href="#av"/>
<use x="31.777655" y="197.386383" xlink:href="#au"/>
<use x="31.777655" y="190.186369" xlink:href="#b"/>
<use x="31.777655" y="178.186347" xlink:href="#j"/>
<use x="31.777655" y="170.986333" xlink:href="#at"/>
<use x="31.777655" y="156.586306" xlink:href="#b"/>
<use x="31.777655" y="144.586284" xlink:href="#c"/>
<use x="31.777655" y="130.186257" xlink:href="#as"/>
<use x="31.777655" y="118.186235" xlink:href="#ar"/>
<use x="31.777655" y="108.586217" xlink:href="#i"/>
<use x="31.777655" y="101.386203" xlink:href="#aq"/>
<use x="31.777655" y="86.986177" xlink:href="#b"/>
<use x="31.777655" y="74.986154" xlink:href="#c"/>
</g>
<g>
<use x="55.781561" y="316.183594" xlink:href="#al"/>
<use x="55.781561" y="308.98358" xlink:href="#af"/>
<use x="55.781561" y="289.783544" xlink:href="#h"/>
<use x="55.781561" y="282.583531" xlink:href="#ae"/>
<use x="55.781561" y="277.783522" xlink:href="#ad"/>
<use x="55.781561" y="265.7835" xlink:href="#h"/>
<use x="55.781561" y="258.583486" xlink:href="#ac"/>
<use x="55.781561" y="246.583464" xlink:href="#g"/>
<use x="55.781561" y="234.583441" xlink:href="#r"/>
<use x="55.781561" y="227.383428" xlink:href="#h"/>
<use x="55.781561" y="220.183414" xlink:href="#ab"/>
<use x="55.781561" y="208.183392" xlink:href="#ak"/>
<use x="55.781561" y="203.383383" xlink:href="#s"/>
<use x="55.781561" y="196.18337" xlink:href="#g"/>
<use x="55.781561" y="184.183347" xlink:href="#r"/>
<use x="55.781561" y="176.983334" xlink:href="#aj"/>
<use x="55.781561" y="167.383316" xlink:href="#s"/>
<use x="55.781561" y="160.183302" xlink:href="#ai"/>
<use x="55.781561" y="148.18328" xlink:href="#ah"/>
<use x="55.781561" y="140.983267" xlink:href="#g"/>
<use x="55.781561" y="128.983244" xlink:href="#ag"/>
</g>
<g>
<use x="350.445312" y="500.916452" xlink:href="#aa"/>
<use x="372.04853" y="500.916452" xlink:href="#x"/>
<use x="381.64996" y="500.916452" xlink:href="#w"/>
<use x="393.651747" y="500.916452" xlink:href="#q"/>
<use x="410.454249" y="500.916452" xlink:href="#p"/>
<use x="422.456037" y="500.916452" xlink:href="#o"/>
<use x="432.057467" y="500.916452" xlink:href="#v"/>
<use x="441.658897" y="500.916452" xlink:href="#n"/>
<use x="460.861756" y="500.916452" xlink:href="#o"/>
<use x="470.463186" y="500.916452" xlink:href="#u"/>
<use x="480.064616" y="500.916452" xlink:href="#z"/>
<use x="496.867118" y="500.916452" xlink:href="#y"/>
<use x="516.069978" y="500.916452" xlink:href="#p"/>
<use x="528.071766" y="500.916452" xlink:href="#q"/>
<use x="544.874268" y="500.916452" xlink:href="#n"/>
</g>
<path transform="matrix(2.4004 0 0 2.4 -64.487 .45169)" d="m89.314 148.71c24.555-1.1458 49.099-2.2933 64.011-5.4232 23.086-5.682 43.094-16.162 64.011-25.228 20.103-6.8994 42.512-17.111 64.011-29.248 23.314-15.127 42.827-34.44 64.011-51.916" fill="none" stroke="#00a" stroke-width=".75"/>
<path d="m142.73 350.18h14.34v14.336h-14.34z" fill="#00a"/>
<path d="m296.38 337.16h14.34v14.34h-14.34z" fill="#00a"/>
<path d="m450.02 276.62h14.34v14.336h-14.34z" fill="#00a"/>
<path d="m603.67 206.42h14.34v14.336h-14.34z" fill="#00a"/>
<path d="m757.32 81.824h14.34v14.336h-14.34z" fill="#00a"/>
</svg>
