<?xml version="1.0" encoding="UTF-8"?>
<svg width="600px" height="363px" version="1.1" viewBox="0 0 600 363" xmlns="http://www.w3.org/2000/svg" xmlns:xlink="http://www.w3.org/1999/xlink">
<defs>
<symbol id="bi" overflow="visible">
<path d="m10.188-2.5312h-5.6094l-0.89062 2.5312h-3.5938l5.1406-13.922h4.2812l5.1406 13.922h-3.5938zm-4.7188-2.5938h3.8125l-1.9062-5.5312z"/>
</symbol>
<symbol id="bg" overflow="visible">
<path d="m8.6875-1.7656c-0.46094 0.60547-0.96484 1.0547-1.5156 1.3438-0.55469 0.28125-1.1875 0.42188-1.9062 0.42188-1.2812 0-2.3398-0.5-3.1719-1.5-0.82422-1.0078-1.2344-2.2891-1.2344-3.8438 0-1.5625 0.41016-2.8359 1.2344-3.8281 0.83203-1 1.8906-1.5 3.1719-1.5 0.71875 0 1.3516 0.14844 1.9062 0.4375 0.55078 0.28125 1.0547 0.73047 1.5156 1.3438v-1.5469h3.3594v9.3906c0 1.6758-0.53125 2.957-1.5938 3.8438-1.0547 0.88281-2.5859 1.3281-4.5938 1.3281-0.65625 0-1.293-0.054688-1.9062-0.15625-0.60547-0.09375-1.2148-0.24609-1.8281-0.45312v-2.6094c0.58203 0.34375 1.1562 0.59375 1.7188 0.75 0.5625 0.16406 1.125 0.25 1.6875 0.25 1.0938 0 1.8906-0.24219 2.3906-0.71875 0.50781-0.48047 0.76562-1.2227 0.76562-2.2344zm-2.1875-6.5c-0.6875 0-1.2266 0.25781-1.6094 0.76562-0.38672 0.51172-0.57812 1.2305-0.57812 2.1562 0 0.96094 0.17969 1.6875 0.54688 2.1875 0.375 0.49219 0.92188 0.73438 1.6406 0.73438 0.69531 0 1.2344-0.25391 1.6094-0.76562 0.38281-0.50781 0.57812-1.2266 0.57812-2.1562 0-0.92578-0.19531-1.6445-0.57812-2.1562-0.375-0.50781-0.91406-0.76562-1.6094-0.76562z"/>
</symbol>
<symbol id="ai" overflow="visible">
<path d="m12-5.25v0.95312h-7.7812c0.082031 0.78125 0.36328 1.3711 0.84375 1.7656 0.48828 0.38672 1.1641 0.57812 2.0312 0.57812 0.69531 0 1.4102-0.10156 2.1406-0.3125 0.73828-0.20703 1.5-0.51953 2.2812-0.9375v2.5625c-0.79297 0.30469-1.5859 0.52734-2.375 0.67188-0.78125 0.15625-1.5703 0.23438-2.3594 0.23438-1.8867 0-3.3555-0.47656-4.4062-1.4375-1.043-0.95703-1.5625-2.3047-1.5625-4.0469 0-1.6953 0.51562-3.0312 1.5469-4 1.0312-0.97656 2.4414-1.4688 4.2344-1.4688 1.6445 0 2.957 0.49609 3.9375 1.4844 0.97656 0.98047 1.4688 2.2969 1.4688 3.9531zm-3.4219-1.1094c0-0.63281-0.1875-1.1445-0.5625-1.5312-0.36719-0.38281-0.84375-0.57812-1.4375-0.57812-0.64844 0-1.1719 0.18359-1.5781 0.54688-0.39844 0.35547-0.64844 0.875-0.75 1.5625z"/>
</symbol>
<symbol id="ah" overflow="visible"></symbol>
<symbol id="bf" overflow="visible">
<path d="m1.5938-10.438h3.3438v10.438h-3.3438zm0-4.0625h3.3438v2.7188h-3.3438z"/>
</symbol>
<symbol id="be" overflow="visible">
<path d="m12.078-6.3594v6.3594h-3.3438v-4.8594c0-0.90625-0.023437-1.5312-0.0625-1.875-0.042969-0.34375-0.11719-0.59375-0.21875-0.75-0.125-0.21875-0.30469-0.38281-0.53125-0.5-0.21875-0.125-0.46875-0.1875-0.75-0.1875-0.69922 0-1.2461 0.27344-1.6406 0.8125-0.39844 0.53125-0.59375 1.2734-0.59375 2.2188v5.1406h-3.3438v-10.438h3.3438v1.5312c0.5-0.61328 1.0312-1.0625 1.5938-1.3438 0.5625-0.28906 1.1875-0.4375 1.875-0.4375 1.1953 0 2.1094 0.37109 2.7344 1.1094 0.625 0.74219 0.9375 1.8125 0.9375 3.2188z"/>
</symbol>
<symbol id="bd" overflow="visible">
<path d="m0.23438-10.438h3.3281l2.7969 7.0781 2.3906-7.0781h3.3281l-4.375 11.422c-0.44922 1.1641-0.96484 1.9766-1.5469 2.4375-0.58594 0.46875-1.3594 0.70312-2.3281 0.70312h-1.9219v-2.1875h1.0469c0.5625 0 0.96875-0.09375 1.2188-0.28125 0.25781-0.17969 0.46094-0.5 0.60938-0.96875l0.09375-0.28125z"/>
</symbol>
<symbol id="bc" overflow="visible">
<path d="m6.2812-4.7031c-0.69922 0-1.2266 0.12109-1.5781 0.35938-0.35547 0.24219-0.53125 0.58984-0.53125 1.0469 0 0.41797 0.14062 0.74609 0.42188 0.98438 0.28906 0.24219 0.6875 0.35938 1.1875 0.35938 0.625 0 1.1484-0.22266 1.5781-0.67188 0.42578-0.44531 0.64062-1.0078 0.64062-1.6875v-0.39062zm5.0781-1.25v5.9531h-3.3594v-1.5469c-0.44922 0.63672-0.95312 1.1016-1.5156 1.3906-0.55469 0.28125-1.2305 0.42188-2.0312 0.42188-1.0742 0-1.9492-0.3125-2.625-0.9375-0.67969-0.63281-1.0156-1.4531-1.0156-2.4531 0-1.2266 0.42188-2.1289 1.2656-2.7031 0.84375-0.57031 2.1641-0.85938 3.9688-0.85938h1.9531v-0.26562c0-0.51953-0.21094-0.89844-0.625-1.1406-0.41797-0.25-1.0625-0.375-1.9375-0.375-0.71875 0-1.3867 0.074219-2 0.21875-0.61719 0.13672-1.1836 0.35156-1.7031 0.64062v-2.5469c0.70703-0.17578 1.4219-0.30469 2.1406-0.39062 0.72656-0.09375 1.4531-0.14062 2.1719-0.14062 1.875 0 3.2266 0.37109 4.0625 1.1094 0.83203 0.74219 1.25 1.9492 1.25 3.625z"/>
</symbol>
<symbol id="bb" overflow="visible">
<path d="m9.3438-7.5938c-0.29297-0.13281-0.58594-0.23438-0.875-0.29688-0.28125-0.070313-0.57031-0.10938-0.85938-0.10938-0.86719 0-1.5273 0.27734-1.9844 0.82812-0.46094 0.55469-0.6875 1.3398-0.6875 2.3594v4.8125h-3.3438v-10.438h3.3438v1.7188c0.42578-0.6875 0.91406-1.1875 1.4688-1.5 0.55078-0.3125 1.2188-0.46875 2-0.46875 0.11328 0 0.23438 0.007812 0.35938 0.015625 0.13281 0 0.32031 0.015625 0.5625 0.046875z"/>
</symbol>
<symbol id="bh" overflow="visible">
<path d="m9.75-10.109v2.5312c-0.71875-0.30078-1.4141-0.52344-2.0781-0.67188-0.65625-0.14453-1.2812-0.21875-1.875-0.21875-0.63672 0-1.1094 0.078125-1.4219 0.23438-0.30469 0.15625-0.45312 0.40234-0.45312 0.73438 0 0.26172 0.11328 0.46484 0.34375 0.60938 0.23828 0.14844 0.66016 0.25 1.2656 0.3125l0.57812 0.09375c1.707 0.21875 2.8516 0.57812 3.4375 1.0781 0.59375 0.49219 0.89062 1.2656 0.89062 2.3281 0 1.1172-0.41406 1.9531-1.2344 2.5156-0.8125 0.55469-2.0312 0.82812-3.6562 0.82812-0.6875 0-1.4023-0.058594-2.1406-0.17188-0.73047-0.10156-1.4844-0.25781-2.2656-0.46875v-2.5469c0.66406 0.32422 1.3477 0.57031 2.0469 0.73438 0.69531 0.15625 1.4062 0.23438 2.125 0.23438 0.65625 0 1.1445-0.085937 1.4688-0.26562 0.33203-0.17578 0.5-0.44141 0.5-0.79688 0-0.30078-0.11719-0.52344-0.34375-0.67188-0.23047-0.14453-0.68359-0.25781-1.3594-0.34375l-0.57812-0.078125c-1.4805-0.17578-2.5234-0.51562-3.125-1.0156-0.59375-0.50781-0.89062-1.2812-0.89062-2.3125 0-1.1016 0.375-1.9219 1.125-2.4531 0.75781-0.53125 1.9258-0.79688 3.5-0.79688 0.61328 0 1.2539 0.046875 1.9219 0.14062 0.67578 0.09375 1.4141 0.24219 2.2188 0.4375z"/>
</symbol>
<symbol id="w" overflow="visible">
<path d="m1.7188-1.1562h2.2344v-7.7188l-2.4375 0.48438v-1.25l2.4219-0.48438h1.375v8.9688h2.2188v1.1562h-5.8125z"/>
</symbol>
<symbol id="b" overflow="visible">
<path d="m1.5-10.125h5.3594v1.1562h-4.1094v2.4844c0.19531-0.070313 0.39453-0.125 0.59375-0.15625 0.19531-0.03125 0.39453-0.046875 0.59375-0.046875 1.125 0 2.0156 0.30859 2.6719 0.92188 0.66406 0.61719 1 1.4531 1 2.5156 0 1.0938-0.33984 1.9453-1.0156 2.5469-0.67969 0.60547-1.6328 0.90625-2.8594 0.90625-0.42969 0-0.86719-0.039063-1.3125-0.10938-0.4375-0.074219-0.89062-0.17969-1.3594-0.32812v-1.375c0.40625 0.21875 0.82812 0.38672 1.2656 0.5 0.4375 0.10547 0.89453 0.15625 1.375 0.15625 0.78125 0 1.3945-0.20312 1.8438-0.60938 0.45703-0.41406 0.6875-0.97656 0.6875-1.6875 0-0.70703-0.23047-1.2656-0.6875-1.6719-0.44922-0.41406-1.0625-0.625-1.8438-0.625-0.36719 0-0.73047 0.042969-1.0938 0.125-0.36719 0.085937-0.73438 0.21094-1.1094 0.375z"/>
</symbol>
<symbol id="f" overflow="visible">
<path d="m0.67188-4.3594h3.6562v1.1094h-3.6562z"/>
</symbol>
<symbol id="k" overflow="visible">
<path d="m2.6562-1.1562h4.7812v1.1562h-6.4219v-1.1562c0.51953-0.53125 1.2266-1.25 2.125-2.1562 0.89453-0.91406 1.457-1.5039 1.6875-1.7656 0.4375-0.48828 0.73828-0.90625 0.90625-1.25 0.17578-0.34375 0.26562-0.67578 0.26562-1 0-0.53906-0.1875-0.97656-0.5625-1.3125-0.375-0.34375-0.86719-0.51562-1.4688-0.51562-0.42969 0-0.88281 0.078125-1.3594 0.23438-0.48047 0.14844-0.99219 0.37109-1.5312 0.67188v-1.3906c0.55078-0.21875 1.0664-0.38281 1.5469-0.5 0.47656-0.11328 0.91406-0.17188 1.3125-0.17188 1.0508 0 1.8828 0.26562 2.5 0.79688 0.625 0.52344 0.9375 1.2188 0.9375 2.0938 0 0.41797-0.078125 0.8125-0.23438 1.1875s-0.4375 0.8125-0.84375 1.3125c-0.11719 0.13672-0.47656 0.51562-1.0781 1.1406-0.60547 0.625-1.4609 1.5-2.5625 2.625z"/>
</symbol>
<symbol id="e" overflow="visible">
<path d="m5.2344-8.9375-3.4531 5.4062h3.4531zm-0.35938-1.1875h1.7188v6.5938h1.4531v1.1406h-1.4531v2.3906h-1.3594v-2.3906h-4.5625v-1.3125z"/>
</symbol>
<symbol id="r" overflow="visible">
<path d="m4.5781-5.6094c-0.61719 0-1.1055 0.21484-1.4688 0.64062-0.35547 0.41797-0.53125 0.99219-0.53125 1.7188 0 0.73047 0.17578 1.3086 0.53125 1.7344 0.36328 0.41797 0.85156 0.625 1.4688 0.625 0.61328 0 1.0977-0.20703 1.4531-0.625 0.36328-0.42578 0.54688-1.0039 0.54688-1.7344 0-0.72656-0.18359-1.3008-0.54688-1.7188-0.35547-0.42578-0.83984-0.64062-1.4531-0.64062zm2.7031-4.2969v1.25c-0.33594-0.16406-0.67969-0.28906-1.0312-0.375-0.35547-0.082031-0.70312-0.125-1.0469-0.125-0.89844 0-1.5859 0.30859-2.0625 0.92188-0.48047 0.60547-0.75 1.5273-0.8125 2.7656 0.26953-0.39453 0.60156-0.69531 1-0.90625 0.40625-0.20703 0.84766-0.3125 1.3281-0.3125 1.0078 0 1.8047 0.30859 2.3906 0.92188 0.59375 0.61719 0.89062 1.4531 0.89062 2.5156 0 1.043-0.30859 1.8828-0.92188 2.5156-0.60547 0.625-1.418 0.9375-2.4375 0.9375-1.168 0-2.0625-0.44531-2.6875-1.3438-0.61719-0.90625-0.92188-2.207-0.92188-3.9062 0-1.6016 0.375-2.8789 1.125-3.8281 0.75781-0.95703 1.7812-1.4375 3.0625-1.4375 0.34375 0 0.6875 0.039062 1.0312 0.10938 0.35156 0.0625 0.71875 0.16406 1.0938 0.29688z"/>
</symbol>
<symbol id="ac" overflow="visible">
<path d="m1.1406-10.125h6.5v0.57812l-3.6719 9.5469h-1.4375l3.4531-8.9688h-4.8438z"/>
</symbol>
<symbol id="ar" overflow="visible">
<path d="m1.5156-0.20312v-1.25c0.34375 0.15625 0.69141 0.28125 1.0469 0.375 0.35156 0.085937 0.69531 0.125 1.0312 0.125 0.90625 0 1.5938-0.30078 2.0625-0.90625 0.47656-0.61328 0.75391-1.5391 0.82812-2.7812-0.26172 0.38672-0.59375 0.68359-1 0.89062-0.39844 0.21094-0.83984 0.3125-1.3281 0.3125-1.0117 0-1.8125-0.30078-2.4062-0.90625-0.58594-0.61328-0.875-1.4531-0.875-2.5156 0-1.0391 0.30469-1.875 0.92188-2.5 0.61328-0.63281 1.4297-0.95312 2.4531-0.95312 1.1641 0 2.0547 0.45312 2.6719 1.3594 0.61328 0.89844 0.92188 2.1992 0.92188 3.9062 0 1.5938-0.38281 2.8711-1.1406 3.8281-0.75 0.94922-1.7656 1.4219-3.0469 1.4219-0.34375 0-0.69531-0.039063-1.0469-0.10938-0.34375-0.0625-0.71094-0.16016-1.0938-0.29688zm2.7344-4.2969c0.60156 0 1.082-0.20703 1.4375-0.625 0.36328-0.42578 0.54688-1.0039 0.54688-1.7344 0-0.72656-0.18359-1.3008-0.54688-1.7188-0.35547-0.42578-0.83594-0.64062-1.4375-0.64062-0.61719 0-1.1055 0.21484-1.4688 0.64062-0.35547 0.41797-0.53125 0.99219-0.53125 1.7188 0 0.73047 0.17578 1.3086 0.53125 1.7344 0.36328 0.41797 0.85156 0.625 1.4688 0.625z"/>
</symbol>
<symbol id="ab" overflow="visible">
<path d="m4.4062-4.8125c-0.64844 0-1.1562 0.17969-1.5312 0.53125-0.375 0.34375-0.5625 0.82422-0.5625 1.4375 0 0.60547 0.1875 1.0859 0.5625 1.4375 0.375 0.34375 0.88281 0.51562 1.5312 0.51562 0.64453 0 1.1562-0.17188 1.5312-0.51562 0.375-0.35156 0.5625-0.83203 0.5625-1.4375 0-0.61328-0.1875-1.0938-0.5625-1.4375-0.36719-0.35156-0.875-0.53125-1.5312-0.53125zm-1.375-0.57812c-0.58594-0.14453-1.043-0.41406-1.375-0.8125-0.32422-0.40625-0.48438-0.89844-0.48438-1.4844 0-0.8125 0.28516-1.4531 0.85938-1.9219 0.58203-0.46875 1.375-0.70312 2.375-0.70312 1.0078 0 1.8008 0.23438 2.375 0.70312 0.57031 0.46875 0.85938 1.1094 0.85938 1.9219 0 0.58594-0.16797 1.0781-0.5 1.4844-0.32422 0.39844-0.77734 0.66797-1.3594 0.8125 0.65625 0.15625 1.1641 0.46094 1.5312 0.90625 0.375 0.44922 0.5625 0.99609 0.5625 1.6406 0 0.98047-0.30469 1.7344-0.90625 2.2656-0.59375 0.52344-1.4492 0.78125-2.5625 0.78125-1.1172 0-1.9766-0.25781-2.5781-0.78125-0.59375-0.53125-0.89062-1.2852-0.89062-2.2656 0-0.64453 0.17969-1.1914 0.54688-1.6406 0.375-0.44531 0.89062-0.75 1.5469-0.90625zm-0.5-2.1719c0 0.53125 0.16016 0.94531 0.48438 1.2344 0.33203 0.29297 0.79688 0.4375 1.3906 0.4375 0.58203 0 1.0391-0.14453 1.375-0.4375 0.33203-0.28906 0.5-0.70312 0.5-1.2344 0-0.51953-0.16797-0.92578-0.5-1.2188-0.33594-0.28906-0.79297-0.4375-1.375-0.4375-0.59375 0-1.0586 0.14844-1.3906 0.4375-0.32422 0.29297-0.48438 0.69922-0.48438 1.2188z"/>
</symbol>
<symbol id="a" overflow="visible">
<path d="m4.4062-9.2188c-0.71094 0-1.2422 0.35156-1.5938 1.0469-0.35547 0.6875-0.53125 1.7305-0.53125 3.125 0 1.3867 0.17578 2.4297 0.53125 3.125 0.35156 0.6875 0.88281 1.0312 1.5938 1.0312 0.70703 0 1.2383-0.34375 1.5938-1.0312 0.35156-0.69531 0.53125-1.7383 0.53125-3.125 0-1.3945-0.17969-2.4375-0.53125-3.125-0.35547-0.69531-0.88672-1.0469-1.5938-1.0469zm0-1.0938c1.1328 0 2 0.45312 2.5938 1.3594 0.59375 0.89844 0.89062 2.1992 0.89062 3.9062 0 1.6992-0.29688 3-0.89062 3.9062-0.59375 0.89844-1.4609 1.3438-2.5938 1.3438-1.1367 0-2.0078-0.44531-2.6094-1.3438-0.59375-0.90625-0.89062-2.207-0.89062-3.9062 0-1.707 0.29688-3.0078 0.89062-3.9062 0.60156-0.90625 1.4727-1.3594 2.6094-1.3594z"/>
</symbol>
<symbol id="ba" overflow="visible">
<path d="m6.375-8.7031v3.7656h3.7656v1.1562h-3.7656v3.7812h-1.1406v-3.7812h-3.7656v-1.1562h3.7656v-3.7656z"/>
</symbol>
<symbol id="az" overflow="visible">
<path d="m5.625-5.4531c0.65625 0.13672 1.1641 0.42969 1.5312 0.875 0.36328 0.4375 0.54688 0.98438 0.54688 1.6406 0 1-0.34375 1.7773-1.0312 2.3281-0.67969 0.54297-1.6523 0.8125-2.9219 0.8125-0.41797 0-0.85547-0.042969-1.3125-0.125-0.44922-0.082031-0.90625-0.21094-1.375-0.39062v-1.3125c0.375 0.21875 0.78516 0.38672 1.2344 0.5 0.45703 0.11719 0.92969 0.17188 1.4219 0.17188 0.85156 0 1.5039-0.16406 1.9531-0.5 0.44531-0.34375 0.67188-0.83594 0.67188-1.4844 0-0.60156-0.21094-1.0703-0.625-1.4062-0.41797-0.33203-0.99609-0.5-1.7344-0.5h-1.1875v-1.125h1.2344c0.67578 0 1.1914-0.13281 1.5469-0.40625 0.35156-0.26953 0.53125-0.66016 0.53125-1.1719 0-0.51953-0.1875-0.91406-0.5625-1.1875-0.36719-0.28125-0.88672-0.42188-1.5625-0.42188-0.375 0-0.78125 0.042969-1.2188 0.125-0.42969 0.085938-0.89844 0.21094-1.4062 0.375v-1.2188c0.51953-0.14453 1.0039-0.25391 1.4531-0.32812 0.45703-0.070313 0.88281-0.10938 1.2812-0.10938 1.0391 0 1.8633 0.24219 2.4688 0.71875 0.60156 0.46875 0.90625 1.1055 0.90625 1.9062 0 0.5625-0.16406 1.0391-0.48438 1.4219-0.3125 0.38672-0.76562 0.65625-1.3594 0.8125z"/>
</symbol>
<symbol id="ay" overflow="visible">
<path d="m6.2969-3.8906c0-0.90625-0.1875-1.6016-0.5625-2.0938-0.375-0.5-0.89844-0.75-1.5625-0.75-0.66797 0-1.1875 0.25-1.5625 0.75-0.375 0.49219-0.5625 1.1875-0.5625 2.0938s0.1875 1.6094 0.5625 2.1094c0.375 0.49219 0.89453 0.73438 1.5625 0.73438 0.66406 0 1.1875-0.24219 1.5625-0.73438 0.375-0.5 0.5625-1.2031 0.5625-2.1094zm1.2344 2.9531c0 1.2891-0.28906 2.25-0.85938 2.875-0.57422 0.63281-1.4492 0.95312-2.625 0.95312-0.4375 0-0.85547-0.039063-1.25-0.10938-0.38672-0.0625-0.76172-0.16406-1.125-0.29688v-1.2031c0.36328 0.19531 0.72266 0.34375 1.0781 0.4375 0.36328 0.09375 0.72656 0.14062 1.0938 0.14062 0.82031 0 1.4375-0.21484 1.8438-0.64062 0.40625-0.42969 0.60938-1.0742 0.60938-1.9375v-0.625c-0.26172 0.44922-0.59375 0.78906-1 1.0156-0.39844 0.21875-0.875 0.32812-1.4375 0.32812-0.92969 0-1.6797-0.35156-2.25-1.0625-0.5625-0.70703-0.84375-1.6484-0.84375-2.8281 0-1.1758 0.28125-2.1172 0.84375-2.8281 0.57031-0.70703 1.3203-1.0625 2.25-1.0625 0.5625 0 1.0391 0.11719 1.4375 0.34375 0.40625 0.21875 0.73828 0.55469 1 1v-1.1562h1.2344z"/>
</symbol>
<symbol id="c" overflow="visible">
<path d="m7.7969-4.1094v0.60938h-5.7344c0.050781 0.85547 0.30469 1.5117 0.76562 1.9688 0.46875 0.44922 1.1133 0.67188 1.9375 0.67188 0.47656 0 0.94141-0.054687 1.3906-0.17188 0.44531-0.125 0.89453-0.30078 1.3438-0.53125v1.1719c-0.44922 0.1875-0.90625 0.33594-1.375 0.4375-0.46875 0.10156-0.94531 0.15625-1.4219 0.15625-1.2109 0-2.168-0.35156-2.875-1.0625-0.71094-0.70703-1.0625-1.6602-1.0625-2.8594 0-1.25 0.33203-2.2383 1-2.9688 0.67578-0.72656 1.582-1.0938 2.7188-1.0938 1.0195 0 1.8281 0.32812 2.4219 0.98438s0.89062 1.5547 0.89062 2.6875zm-1.25-0.35938c-0.011719-0.6875-0.20312-1.2344-0.57812-1.6406s-0.86719-0.60938-1.4688-0.60938c-0.69922 0-1.2578 0.19922-1.6719 0.59375-0.41797 0.38672-0.65625 0.9375-0.71875 1.6562z"/>
</symbol>
<symbol id="v" overflow="visible">
<path d="m7.6094-4.5781v4.5781h-1.25v-4.5469c0-0.71875-0.14062-1.2539-0.42188-1.6094-0.28125-0.35156-0.69922-0.53125-1.25-0.53125-0.67969 0-1.2109 0.21484-1.5938 0.64062-0.38672 0.42969-0.57812 1.0117-0.57812 1.75v4.2969h-1.25v-7.5938h1.25v1.1719c0.28906-0.44531 0.64062-0.78516 1.0469-1.0156 0.40625-0.22656 0.86719-0.34375 1.3906-0.34375 0.875 0 1.5352 0.27344 1.9844 0.8125 0.44531 0.54297 0.67188 1.3398 0.67188 2.3906z"/>
</symbol>
<symbol id="ag" overflow="visible">
<path d="m5.7031-6.4375c-0.14844-0.070312-0.30469-0.12891-0.46875-0.17188-0.15625-0.039063-0.33594-0.0625-0.53125-0.0625-0.71094 0-1.25 0.23047-1.625 0.6875-0.375 0.46094-0.5625 1.1211-0.5625 1.9844v4h-1.25v-7.5938h1.25v1.1719c0.25781-0.45703 0.59766-0.79688 1.0156-1.0156 0.41406-0.22656 0.92578-0.34375 1.5312-0.34375 0.082031 0 0.17578 0.007812 0.28125 0.015625 0.10156 0.011719 0.21875 0.027344 0.34375 0.046875z"/>
</symbol>
<symbol id="i" overflow="visible">
<path d="m4.75-3.8125c-1.0117 0-1.7109 0.11719-2.0938 0.34375-0.38672 0.23047-0.57812 0.62109-0.57812 1.1719 0 0.44922 0.14453 0.80469 0.4375 1.0625 0.28906 0.26172 0.6875 0.39062 1.1875 0.39062 0.6875 0 1.2383-0.24219 1.6562-0.73438 0.41406-0.48828 0.625-1.1445 0.625-1.9688v-0.26562zm2.4844-0.51562v4.3281h-1.25v-1.1562c-0.28125 0.46094-0.63672 0.80469-1.0625 1.0312-0.41797 0.21875-0.93359 0.32812-1.5469 0.32812-0.78125 0-1.4023-0.21875-1.8594-0.65625-0.46094-0.4375-0.6875-1.0234-0.6875-1.7656 0-0.85156 0.28516-1.4922 0.85938-1.9219 0.57031-0.4375 1.4258-0.65625 2.5625-0.65625h1.7344v-0.125c0-0.57031-0.1875-1.0156-0.5625-1.3281s-0.90234-0.46875-1.5781-0.46875c-0.4375 0-0.86719 0.054688-1.2812 0.15625-0.40625 0.10547-0.79688 0.26172-1.1719 0.46875v-1.1562c0.45703-0.17578 0.89844-0.30469 1.3281-0.39062 0.42578-0.09375 0.84375-0.14062 1.25-0.14062 1.0938 0 1.9102 0.28906 2.4531 0.85938 0.53906 0.5625 0.8125 1.4297 0.8125 2.5938z"/>
</symbol>
<symbol id="o" overflow="visible">
<path d="m1.3125-10.547h1.2344v10.547h-1.2344z"/>
</symbol>
<symbol id="u" overflow="visible">
<path d="m4.4531 0.70312c-0.34375 0.90625-0.68359 1.4922-1.0156 1.7656-0.33594 0.28125-0.78125 0.42188-1.3438 0.42188h-1v-1.0469h0.73438c0.34375 0 0.60938-0.085938 0.79688-0.25 0.1875-0.15625 0.39453-0.53906 0.625-1.1406l0.23438-0.57812-3.0781-7.4688h1.3281l2.3594 5.9375 2.375-5.9375h1.3281z"/>
</symbol>
<symbol id="n" overflow="visible"></symbol>
<symbol id="t" overflow="visible">
<path d="m7.6094-4.5781v4.5781h-1.25v-4.5469c0-0.71875-0.14062-1.2539-0.42188-1.6094-0.28125-0.35156-0.69922-0.53125-1.25-0.53125-0.67969 0-1.2109 0.21484-1.5938 0.64062-0.38672 0.42969-0.57812 1.0117-0.57812 1.75v4.2969h-1.25v-10.547h1.25v4.125c0.28906-0.44531 0.64062-0.78516 1.0469-1.0156 0.40625-0.22656 0.86719-0.34375 1.3906-0.34375 0.875 0 1.5352 0.27344 1.9844 0.8125 0.44531 0.54297 0.67188 1.3398 0.67188 2.3906z"/>
</symbol>
<symbol id="m" overflow="visible">
<path d="m6.2969-6.4375v-4.1094h1.2344v10.547h-1.2344v-1.1406c-0.26172 0.44922-0.59375 0.78906-1 1.0156-0.39844 0.21875-0.875 0.32812-1.4375 0.32812-0.91797 0-1.6641-0.36328-2.2344-1.0938-0.57422-0.73828-0.85938-1.707-0.85938-2.9062 0-1.1875 0.28516-2.1445 0.85938-2.875 0.57031-0.73828 1.3164-1.1094 2.2344-1.1094 0.5625 0 1.0391 0.10938 1.4375 0.32812 0.40625 0.21875 0.73828 0.55859 1 1.0156zm-4.25 2.6406c0 0.91797 0.1875 1.6406 0.5625 2.1719 0.38281 0.52344 0.90625 0.78125 1.5625 0.78125s1.1719-0.25781 1.5469-0.78125c0.38281-0.53125 0.57812-1.2539 0.57812-2.1719 0-0.91406-0.19531-1.6328-0.57812-2.1562-0.375-0.51953-0.89062-0.78125-1.5469-0.78125s-1.1797 0.26172-1.5625 0.78125c-0.375 0.52344-0.5625 1.2422-0.5625 2.1562z"/>
</symbol>
<symbol id="h" overflow="visible">
<path d="m1.3125-7.5938h1.2344v7.5938h-1.2344zm0-2.9531h1.2344v1.5781h-1.2344z"/>
</symbol>
<symbol id="s" overflow="visible">
<path d="m6.7656-7.3125v1.1719c-0.35547-0.19531-0.71094-0.34375-1.0625-0.4375-0.35547-0.09375-0.71484-0.14062-1.0781-0.14062-0.80469 0-1.4297 0.25781-1.875 0.76562-0.44922 0.51172-0.67188 1.2305-0.67188 2.1562 0 0.92969 0.22266 1.6523 0.67188 2.1719 0.44531 0.51172 1.0703 0.76562 1.875 0.76562 0.36328 0 0.72266-0.046875 1.0781-0.14062 0.35156-0.10156 0.70703-0.25 1.0625-0.4375v1.1406c-0.35547 0.16797-0.71875 0.29297-1.0938 0.375-0.36719 0.082031-0.75781 0.125-1.1719 0.125-1.1484 0-2.0586-0.35938-2.7344-1.0781-0.66797-0.71875-1-1.6914-1-2.9219 0-1.2383 0.33594-2.2109 1.0156-2.9219 0.67578-0.70703 1.6094-1.0625 2.7969-1.0625 0.38281 0 0.75781 0.042969 1.125 0.125 0.36328 0.074219 0.71875 0.1875 1.0625 0.34375z"/>
</symbol>
<symbol id="l" overflow="visible">
<path d="m2.5156-1.1406v4.0312h-1.25v-10.484h1.25v1.1562c0.25781-0.45703 0.58594-0.79688 0.98438-1.0156 0.39453-0.21875 0.875-0.32812 1.4375-0.32812 0.91406 0 1.6602 0.37109 2.2344 1.1094 0.58203 0.73047 0.875 1.6875 0.875 2.875 0 1.1992-0.29297 2.168-0.875 2.9062-0.57422 0.73047-1.3203 1.0938-2.2344 1.0938-0.5625 0-1.043-0.10938-1.4375-0.32812-0.39844-0.22656-0.72656-0.56641-0.98438-1.0156zm4.2344-2.6562c0-0.91406-0.19531-1.6328-0.57812-2.1562-0.375-0.51953-0.89062-0.78125-1.5469-0.78125s-1.1719 0.26172-1.5469 0.78125c-0.375 0.52344-0.5625 1.2422-0.5625 2.1562 0 0.91797 0.1875 1.6406 0.5625 2.1719 0.375 0.52344 0.89062 0.78125 1.5469 0.78125s1.1719-0.25781 1.5469-0.78125c0.38281-0.53125 0.57812-1.2539 0.57812-2.1719z"/>
</symbol>
<symbol id="ax" overflow="visible">
<path d="m6.1406-7.375v1.1875c-0.35547-0.1875-0.72656-0.32031-1.1094-0.40625-0.375-0.09375-0.76562-0.14062-1.1719-0.14062-0.61719 0-1.0781 0.09375-1.3906 0.28125-0.30469 0.1875-0.45312 0.47656-0.45312 0.85938 0 0.29297 0.10938 0.52344 0.32812 0.6875 0.21875 0.15625 0.66016 0.3125 1.3281 0.46875l0.42188 0.09375c0.88281 0.1875 1.5156 0.45312 1.8906 0.79688s0.5625 0.82812 0.5625 1.4531c0 0.71094-0.28125 1.2734-0.84375 1.6875-0.55469 0.40625-1.3203 0.60938-2.2969 0.60938-0.40625 0-0.82812-0.042969-1.2656-0.125-0.4375-0.082031-0.90234-0.20312-1.3906-0.35938v-1.2812c0.45703 0.24219 0.91016 0.42188 1.3594 0.54688 0.44531 0.11719 0.89062 0.17188 1.3281 0.17188 0.58203 0 1.0312-0.097656 1.3438-0.29688 0.32031-0.20703 0.48438-0.49219 0.48438-0.85938 0-0.34375-0.11719-0.60156-0.34375-0.78125-0.23047-0.17578-0.73047-0.34766-1.5-0.51562l-0.4375-0.10938c-0.77344-0.16406-1.3281-0.41406-1.6719-0.75-0.33594-0.33203-0.5-0.79688-0.5-1.3906 0-0.70703 0.25-1.2539 0.75-1.6406 0.50781-0.39453 1.2266-0.59375 2.1562-0.59375 0.45703 0 0.89062 0.039062 1.2969 0.10938 0.40625 0.0625 0.78125 0.16406 1.125 0.29688z"/>
</symbol>
<symbol id="aw" overflow="visible">
<path d="m0.40625-7.5938h1.3281l2.3594 6.375 2.375-6.375h1.3281l-2.8438 7.5938h-1.7031z"/>
</symbol>
<symbol id="af" overflow="visible">
<path d="m2.7344-9v7.875h1.6406c1.3945 0 2.4141-0.31641 3.0625-0.95312 0.64453-0.63281 0.96875-1.6328 0.96875-3 0-1.3516-0.32422-2.3438-0.96875-2.9688-0.64844-0.63281-1.668-0.95312-3.0625-0.95312zm-1.375-1.125h2.8125c1.957 0 3.3945 0.41406 4.3125 1.2344 0.91406 0.8125 1.375 2.0859 1.375 3.8125 0 1.75-0.46484 3.0391-1.3906 3.8594-0.91797 0.8125-2.3516 1.2188-4.2969 1.2188h-2.8125z"/>
</symbol>
<symbol id="ae" overflow="visible">
<path d="m5.1406-10.547v1.0312h-1.1875c-0.44922 0-0.76172 0.09375-0.9375 0.28125-0.16797 0.17969-0.25 0.5-0.25 0.96875v0.67188h2.0469v0.96875h-2.0469v6.625h-1.25v-6.625h-1.2031v-0.96875h1.2031v-0.53125c0-0.84375 0.19141-1.457 0.57812-1.8438 0.39453-0.38281 1.0195-0.57812 1.875-0.57812z"/>
</symbol>
<symbol id="av" overflow="visible">
<path d="m1.1719-3v-4.5938h1.25v4.5469c0 0.71875 0.14062 1.2617 0.42188 1.625 0.28125 0.35547 0.69531 0.53125 1.25 0.53125 0.67578 0 1.207-0.21094 1.5938-0.64062 0.39453-0.42578 0.59375-1.0156 0.59375-1.7656v-4.2969h1.25v7.5938h-1.25v-1.1719c-0.30469 0.46875-0.65625 0.82031-1.0625 1.0469-0.39844 0.21875-0.85547 0.32812-1.375 0.32812-0.875 0-1.543-0.26953-2-0.8125-0.44922-0.55078-0.67188-1.3477-0.67188-2.3906z"/>
</symbol>
<symbol id="ad" overflow="visible">
<path d="m2.5312-9.75v2.1562h2.5781v0.96875h-2.5781v4.125c0 0.61719 0.082031 1.0117 0.25 1.1875 0.17578 0.17969 0.52344 0.26562 1.0469 0.26562h1.2812v1.0469h-1.2812c-0.96875 0-1.6367-0.17578-2-0.53125-0.36719-0.36328-0.54688-1.0195-0.54688-1.9688v-4.125h-0.90625v-0.96875h0.90625v-2.1562z"/>
</symbol>
<symbol id="au" overflow="visible">
<path d="m0.57812-7.5938h1.25l1.5625 5.9219 1.5469-5.9219h1.4688l1.5469 5.9219 1.5625-5.9219h1.2344l-1.9844 7.5938h-1.4688l-1.625-6.2188-1.6406 6.2188h-1.4688z"/>
</symbol>
<symbol id="at" overflow="visible">
<path d="m4.7344-8.7812-1.8438 5.0469h3.7031zm-0.76562-1.3438h1.5469l3.8438 10.125h-1.4219l-0.90625-2.5938h-4.5625l-0.92188 2.5938h-1.4375z"/>
</symbol>
<symbol id="as" overflow="visible">
<path d="m1.3594-10.125h1.375v8.9688h4.9062v1.1562h-6.2812z"/>
</symbol>
<symbol id="aq" overflow="visible">
<path d="m-8.9844-2.7344h3.7969v-1.7188c0-0.63281-0.16016-1.125-0.48438-1.4688-0.33203-0.35156-0.80078-0.53125-1.4062-0.53125-0.60156 0-1.0703 0.17969-1.4062 0.53125-0.33203 0.34375-0.5 0.83594-0.5 1.4688zm-1.125 1.375v-3.0938c0-1.1328 0.26172-1.9883 0.78125-2.5625 0.51172-0.58203 1.2617-0.875 2.25-0.875 0.99219 0 1.7422 0.29297 2.25 0.875 0.51172 0.57422 0.76562 1.4297 0.76562 2.5625v1.7188h4.0625v1.375z"/>
</symbol>
<symbol id="j" overflow="visible">
<path d="m-6.4219-5.7031c-0.070313 0.13672-0.12891 0.28906-0.17188 0.45312-0.039062 0.16797-0.0625 0.35156-0.0625 0.54688 0 0.71094 0.23047 1.25 0.6875 1.625 0.46094 0.375 1.1172 0.5625 1.9688 0.5625h4v1.25h-7.5781v-1.25h1.1719c-0.45703-0.25781-0.79688-0.59766-1.0156-1.0156-0.22656-0.42578-0.34375-0.9375-0.34375-1.5312 0-0.09375 0.007813-0.19141 0.015625-0.29688 0.011719-0.10156 0.03125-0.21875 0.0625-0.34375z"/>
</symbol>
<symbol id="d" overflow="visible">
<path d="m-6.7031-4.25c0 0.66797 0.26172 1.1992 0.78125 1.5938 0.52344 0.38672 1.2344 0.57812 2.1406 0.57812s1.6211-0.19141 2.1406-0.57812c0.52344-0.38281 0.78125-0.91406 0.78125-1.5938 0-0.66406-0.25781-1.1914-0.78125-1.5781-0.51953-0.38281-1.2344-0.57812-2.1406-0.57812-0.89453 0-1.6016 0.19531-2.125 0.57812-0.53125 0.38672-0.79688 0.91406-0.79688 1.5781zm-1.0625 0c0-1.082 0.35547-1.9297 1.0625-2.5469 0.69922-0.625 1.6719-0.9375 2.9219-0.9375 1.2422 0 2.2148 0.3125 2.9219 0.9375 0.71094 0.61719 1.0625 1.4648 1.0625 2.5469 0 1.0938-0.35156 1.9492-1.0625 2.5625-0.70703 0.61719-1.6797 0.92188-2.9219 0.92188-1.25 0-2.2227-0.30469-2.9219-0.92188-0.70703-0.61328-1.0625-1.4688-1.0625-2.5625z"/>
</symbol>
<symbol id="q" overflow="visible">
<path d="m-1.1406-2.5156h4.0312v1.25h-10.469v-1.25h1.1562c-0.45703-0.25781-0.79688-0.58594-1.0156-0.98438-0.21875-0.40625-0.32812-0.88281-0.32812-1.4375 0-0.92578 0.37109-1.6758 1.1094-2.25 0.73047-0.57031 1.6875-0.85938 2.875-0.85938s2.1523 0.28906 2.8906 0.85938c0.73047 0.57422 1.0938 1.3242 1.0938 2.25 0 0.55469-0.10938 1.0312-0.32812 1.4375-0.21875 0.39844-0.55469 0.72656-1.0156 0.98438zm-2.6406-4.2344c-0.91406 0-1.6328 0.1875-2.1562 0.5625-0.51953 0.375-0.78125 0.89062-0.78125 1.5469 0 0.66797 0.26172 1.1875 0.78125 1.5625 0.52344 0.375 1.2422 0.5625 2.1562 0.5625 0.91797 0 1.6367-0.1875 2.1562-0.5625 0.52344-0.375 0.78125-0.89453 0.78125-1.5625 0-0.65625-0.25781-1.1719-0.78125-1.5469-0.51953-0.375-1.2383-0.5625-2.1562-0.5625z"/>
</symbol>
<symbol id="ak" overflow="visible">
<path d="m-9.7344-2.5469h2.1562v-2.5625h0.96875v2.5625h4.1094c0.625 0 1.0273-0.082031 1.2031-0.25 0.16797-0.16406 0.25-0.50781 0.25-1.0312v-1.2812h1.0469v1.2812c0 0.96094-0.17578 1.625-0.53125 2-0.36328 0.36719-1.0195 0.54688-1.9688 0.54688h-4.1094v0.90625h-0.96875v-0.90625h-2.1562z"/>
</symbol>
<symbol id="x" overflow="visible">
<path d="m-7.5781-1.3125v-1.2344h7.5781v1.2344zm-2.9531 0v-1.2344h1.5781v1.2344z"/>
</symbol>
<symbol id="p" overflow="visible">
<path d="m-4.5781-7.6094h4.5781v1.2344h-4.5312c-0.71875 0-1.2539 0.14062-1.6094 0.42188-0.35156 0.28125-0.53125 0.70312-0.53125 1.2656 0 0.67969 0.21484 1.2109 0.64062 1.5938 0.42969 0.38672 1.0117 0.57812 1.75 0.57812h4.2812v1.25h-7.5781v-1.25h1.1719c-0.44531-0.28906-0.78516-0.64062-1.0156-1.0469-0.22656-0.40625-0.34375-0.875-0.34375-1.4062 0-0.875 0.27344-1.5312 0.8125-1.9688 0.54297-0.44531 1.3359-0.67188 2.375-0.67188z"/>
</symbol>
<symbol id="g" overflow="visible"></symbol>
<symbol id="aj" overflow="visible">
<path d="m-10.531-5.1562h1.0312v1.2031c0 0.44922 0.09375 0.76172 0.28125 0.9375 0.17969 0.16797 0.5 0.25 0.96875 0.25h0.67188v-2.0469h0.96875v2.0469h6.6094v1.25h-6.6094v1.2031h-0.96875v-1.2031h-0.53125c-0.84375 0-1.457-0.19141-1.8438-0.57812-0.38281-0.39453-0.57812-1.0195-0.57812-1.875z"/>
</symbol>
<symbol id="aa" overflow="visible">
<path d="m-4.0938-7.7969h0.60938v5.7344c0.85547-0.050781 1.5078-0.30469 1.9531-0.76562 0.44922-0.46875 0.67188-1.1172 0.67188-1.9531 0-0.47656-0.054687-0.94141-0.17188-1.3906-0.125-0.44531-0.30078-0.89062-0.53125-1.3281h1.1719c0.19922 0.44922 0.34375 0.90625 0.4375 1.375 0.10156 0.46875 0.15625 0.94531 0.15625 1.4219 0 1.2109-0.35156 2.168-1.0625 2.875-0.70703 0.71094-1.6602 1.0625-2.8594 1.0625-1.2383 0-2.2227-0.33203-2.9531-1-0.72656-0.67578-1.0938-1.582-1.0938-2.7188 0-1.0195 0.32812-1.8281 0.98438-2.4219s1.5547-0.89062 2.6875-0.89062zm-0.375 1.25c-0.67578 0.011719-1.2188 0.20312-1.625 0.57812-0.40625 0.36719-0.60938 0.85547-0.60938 1.4688 0 0.69922 0.19922 1.2578 0.59375 1.6719 0.38672 0.41797 0.9375 0.65625 1.6562 0.71875z"/>
</symbol>
<symbol id="z" overflow="visible">
<path d="m-7.3594-6.1406h1.1875c-0.1875 0.35547-0.32031 0.71875-0.40625 1.0938-0.09375 0.375-0.14062 0.76562-0.14062 1.1719 0 0.625 0.09375 1.0938 0.28125 1.4062 0.1875 0.30469 0.47656 0.45312 0.85938 0.45312 0.28125 0 0.50781-0.10938 0.67188-0.32812 0.16797-0.21875 0.32422-0.66016 0.46875-1.3281l0.09375-0.4375c0.19922-0.88281 0.46875-1.5078 0.8125-1.875 0.34375-0.375 0.82422-0.5625 1.4375-0.5625 0.71094 0 1.2734 0.28125 1.6875 0.84375 0.40625 0.55469 0.60938 1.3125 0.60938 2.2812 0 0.40625-0.042969 0.83594-0.125 1.2812-0.082031 0.4375-0.20312 0.90234-0.35938 1.3906h-1.2812c0.24219-0.45703 0.42188-0.91016 0.54688-1.3594 0.11719-0.44531 0.17188-0.89062 0.17188-1.3281 0-0.59375-0.097656-1.0469-0.29688-1.3594-0.20703-0.3125-0.49219-0.46875-0.85938-0.46875-0.33203 0-0.58594 0.11719-0.76562 0.34375-0.1875 0.21875-0.36328 0.71875-0.53125 1.5l-0.09375 0.42188c-0.16406 0.77344-0.41406 1.3281-0.75 1.6719-0.34375 0.34375-0.80469 0.51562-1.3906 0.51562-0.70703 0-1.2539-0.25-1.6406-0.75-0.39453-0.50781-0.59375-1.2266-0.59375-2.1562 0-0.45703 0.039063-0.89062 0.10938-1.2969 0.0625-0.40625 0.16406-0.78125 0.29688-1.125z"/>
</symbol>
<symbol id="ap" overflow="visible">
<path d="m-10.531-1.1875v-2.875h0.96875v1.625h10.422v-1.625h0.96875v2.875z"/>
</symbol>
<symbol id="ao" overflow="visible">
<path d="m-4.4531-10.094c0 0.39844 0.17188 0.71094 0.51562 0.9375 0.33594 0.21875 0.79688 0.32812 1.3906 0.32812 0.58594 0 1.0469-0.10938 1.3906-0.32812 0.33594-0.22656 0.5-0.53906 0.5-0.9375 0-0.375-0.16406-0.67188-0.5-0.89062-0.34375-0.22656-0.80469-0.34375-1.3906-0.34375-0.59375 0-1.0547 0.11719-1.3906 0.34375-0.34375 0.21875-0.51562 0.51562-0.51562 0.89062zm-0.85938 0c0-0.70703 0.25-1.2695 0.75-1.6875 0.5-0.42578 1.1719-0.64062 2.0156-0.64062s1.5156 0.21484 2.0156 0.64062c0.49219 0.41797 0.73438 0.98047 0.73438 1.6875 0 0.73047-0.24219 1.3047-0.73438 1.7188-0.5 0.41797-1.1719 0.625-2.0156 0.625-0.85156 0-1.5234-0.20703-2.0156-0.625-0.5-0.42578-0.75-1-0.75-1.7188zm-4.1094 7c0 0.38672 0.16797 0.69531 0.5 0.92188 0.33594 0.21875 0.79688 0.32812 1.3906 0.32812s1.0586-0.10938 1.3906-0.32812c0.33594-0.21875 0.5-0.52344 0.5-0.92188 0-0.39453-0.16406-0.70312-0.5-0.92188-0.33203-0.22656-0.79688-0.34375-1.3906-0.34375-0.58203 0-1.0391 0.11719-1.375 0.34375-0.34375 0.23047-0.51562 0.53906-0.51562 0.92188zm-0.85938-6.125v-1.0781l10.484 6.3281v1.0781zm0 6.125c0-0.71875 0.25-1.2852 0.75-1.7031 0.49219-0.42578 1.1562-0.64062 2-0.64062s1.5156 0.21484 2.0156 0.64062c0.49219 0.41797 0.73438 0.98438 0.73438 1.7031s-0.24219 1.2891-0.73438 1.7031c-0.5 0.41797-1.1719 0.625-2.0156 0.625s-1.5078-0.20703-2-0.625c-0.5-0.42578-0.75-0.99219-0.75-1.7031z"/>
</symbol>
<symbol id="an" overflow="visible">
<path d="m-3.8125-4.75c0 1 0.11719 1.6992 0.34375 2.0938 0.23047 0.38672 0.625 0.57812 1.1875 0.57812 0.4375 0 0.78906-0.14453 1.0469-0.4375 0.26172-0.28906 0.39062-0.6875 0.39062-1.1875 0-0.69531-0.24219-1.2539-0.73438-1.6719-0.48828-0.41406-1.1406-0.625-1.9531-0.625h-0.28125zm-0.51562-2.5h4.3281v1.25h-1.1562c0.46875 0.29297 0.8125 0.65234 1.0312 1.0781 0.21875 0.41797 0.32812 0.93359 0.32812 1.5469 0 0.78125-0.21875 1.4023-0.65625 1.8594-0.4375 0.46094-1.0195 0.6875-1.75 0.6875-0.85156 0-1.4922-0.28516-1.9219-0.85938-0.4375-0.57031-0.65625-1.4258-0.65625-2.5625v-1.75h-0.125c-0.57031 0-1.0156 0.19531-1.3281 0.57812-0.3125 0.375-0.46875 0.90234-0.46875 1.5781 0 0.4375 0.054687 0.86719 0.15625 1.2812 0.10547 0.40625 0.26172 0.79688 0.46875 1.1719h-1.1562c-0.17578-0.45703-0.30469-0.89844-0.39062-1.3281-0.09375-0.42578-0.14062-0.84375-0.14062-1.25 0-1.0938 0.28906-1.9102 0.85938-2.4531 0.5625-0.55078 1.4219-0.82812 2.5781-0.82812z"/>
</symbol>
<symbol id="y" overflow="visible">
<path d="m-3.875-6.2969c-0.90625 0-1.6016 0.1875-2.0938 0.5625-0.5 0.36719-0.75 0.88672-0.75 1.5625 0 0.66797 0.25 1.1875 0.75 1.5625 0.49219 0.375 1.1875 0.5625 2.0938 0.5625 0.89844 0 1.5938-0.1875 2.0938-0.5625 0.49219-0.375 0.73438-0.89453 0.73438-1.5625 0-0.67578-0.24219-1.1953-0.73438-1.5625-0.5-0.375-1.1953-0.5625-2.0938-0.5625zm2.9375-1.25c1.2891 0 2.25 0.28906 2.875 0.85938 0.63281 0.57422 0.95312 1.4531 0.95312 2.6406 0 0.4375-0.039063 0.85156-0.10938 1.2344-0.0625 0.38672-0.16406 0.76172-0.29688 1.125h-1.2188c0.19531-0.36328 0.34375-0.72266 0.4375-1.0781 0.10156-0.35156 0.15625-0.71875 0.15625-1.0938 0-0.8125-0.21484-1.4219-0.64062-1.8281-0.42969-0.40625-1.0742-0.60938-1.9375-0.60938h-0.60938c0.44922 0.25 0.78125 0.57812 1 0.98438s0.32812 0.88672 0.32812 1.4375c0 0.9375-0.35156 1.6953-1.0625 2.2656-0.70703 0.5625-1.6445 0.84375-2.8125 0.84375-1.1758 0-2.1172-0.28125-2.8281-0.84375-0.70703-0.57031-1.0625-1.3281-1.0625-2.2656 0-0.55078 0.11719-1.0312 0.34375-1.4375 0.21875-0.40625 0.55469-0.73438 1-0.98438h-1.1562v-1.25z"/>
</symbol>
<symbol id="am" overflow="visible">
<path d="m-2.9844-1.1719h-4.5938v-1.25h4.5469c0.71094 0 1.2461-0.14062 1.6094-0.42188 0.35547-0.28125 0.53125-0.70312 0.53125-1.2656 0-0.66406-0.21094-1.1914-0.64062-1.5781-0.42578-0.39453-1.0078-0.59375-1.75-0.59375h-4.2969v-1.25h7.5781v1.25h-1.1562c0.46094 0.30469 0.80469 0.65234 1.0312 1.0469 0.21875 0.39844 0.32812 0.85938 0.32812 1.3906 0 0.875-0.26953 1.543-0.8125 2-0.53906 0.44922-1.332 0.67188-2.375 0.67188z"/>
</symbol>
<symbol id="al" overflow="visible">
<path d="m-10.531-4.2188h12.359v2.875h-0.96875v-1.625h-10.422v1.625h-0.96875z"/>
</symbol>
</defs>
<path d="m91.66 17.398h295.87v271.32h-295.87z" fill="#fff"/>
<path d="m395.18 171.36h191.58v117.36h-191.58z" fill="#fff"/>
<path transform="matrix(1.733 0 0 1.7353 -17.935 -2.2534)" d="m63.242 11.324h170.73v156.35h-170.73z" fill="none" stroke="#000" stroke-width="1.5"/>
<path transform="matrix(1.733 0 0 1.7353 -17.935 -2.2534)" d="m238.39 100.05h110.55v67.629h-110.55z" fill="none" stroke="#000"/>
<path transform="matrix(1.733 0 0 1.7353 -17.935 -2.2534)" d="m233.97 167.68h-174.02" fill="none" stroke="#000" stroke-width=".75"/>
<path transform="matrix(1.733 0 0 1.7353 -17.935 -2.2534)" d="m233.97 167.68h-174.02" fill="none" stroke="#000" stroke-width=".75"/>
<path transform="matrix(1.733 0 0 1.7353 -17.935 -2.2534)" d="m233.97 148.13h-174.02" fill="none" stroke="#000" stroke-width=".75"/>
<path transform="matrix(1.733 0 0 1.7353 -17.935 -2.2534)" d="m233.97 128.59h-174.02" fill="none" stroke="#000" stroke-width=".75"/>
<path transform="matrix(1.733 0 0 1.7353 -17.935 -2.2534)" d="m233.97 109.04h-174.02" fill="none" stroke="#000" stroke-width=".75"/>
<path transform="matrix(1.733 0 0 1.7353 -17.935 -2.2534)" d="m233.97 89.501h-174.02" fill="none" stroke="#000" stroke-width=".75"/>
<path transform="matrix(1.733 0 0 1.7353 -17.935 -2.2534)" d="m233.97 69.956h-174.02" fill="none" stroke="#000" stroke-width=".75"/>
<path transform="matrix(1.733 0 0 1.7353 -17.935 -2.2534)" d="m233.97 50.413h-174.02" fill="none" stroke="#000" stroke-width=".75"/>
<path transform="matrix(1.733 0 0 1.7353 -17.935 -2.2534)" d="m233.97 30.868h-174.02" fill="none" stroke="#000" stroke-width=".75"/>
<path transform="matrix(1.733 0 0 1.7353 -17.935 -2.2534)" d="m233.97 11.324h-174.02" fill="none" stroke="#000" stroke-width=".75"/>
<path transform="matrix(1.733 0 0 1.7353 -17.935 -2.2534)" d="m63.242 11.324v159.21" fill="none" stroke="#000" stroke-width=".75"/>
<path transform="matrix(1.733 0 0 1.7353 -17.935 -2.2534)" d="m97.389 11.324v159.21" fill="none" stroke="#000" stroke-width=".75"/>
<path transform="matrix(1.733 0 0 1.7353 -17.935 -2.2534)" d="m131.54 11.324v159.21" fill="none" stroke="#000" stroke-width=".75"/>
<path transform="matrix(1.733 0 0 1.7353 -17.935 -2.2534)" d="m165.68 11.324v159.21" fill="none" stroke="#000" stroke-width=".75"/>
<path transform="matrix(1.733 0 0 1.7353 -17.935 -2.2534)" d="m199.83 11.324v159.21" fill="none" stroke="#000" stroke-width=".75"/>
<path transform="matrix(1.733 0 0 1.7353 -17.935 -2.2534)" d="m233.97 11.324v159.21" fill="none" stroke="#000" stroke-width=".75"/>
<g>
<use x="162.527344" y="347.032032" xlink:href="#bi"/>
<use x="178.123965" y="347.032032" xlink:href="#bg"/>
<use x="191.987629" y="347.032032" xlink:href="#ai"/>
<use x="204.118335" y="347.032032" xlink:href="#ah"/>
<use x="211.050166" y="347.032032" xlink:href="#bf"/>
<use x="217.981998" y="347.032032" xlink:href="#be"/>
<use x="231.845662" y="347.032032" xlink:href="#ah"/>
<use x="238.777494" y="347.032032" xlink:href="#bd"/>
<use x="250.908199" y="347.032032" xlink:href="#ai"/>
<use x="263.038905" y="347.032032" xlink:href="#bc"/>
<use x="275.169611" y="347.032032" xlink:href="#bb"/>
<use x="283.834401" y="347.032032" xlink:href="#bh"/>
</g>
<g>
<use x="71.398437" y="317.44491" xlink:href="#w"/>
<use x="80.063227" y="317.44491" xlink:href="#b"/>
<use x="88.728017" y="317.44491" xlink:href="#f"/>
<use x="93.926891" y="317.44491" xlink:href="#k"/>
<use x="102.591681" y="317.44491" xlink:href="#w"/>
</g>
<g>
<use x="130.574219" y="317.44491" xlink:href="#k"/>
<use x="139.239009" y="317.44491" xlink:href="#k"/>
<use x="147.903798" y="317.44491" xlink:href="#f"/>
<use x="153.102672" y="317.44491" xlink:href="#e"/>
<use x="161.767462" y="317.44491" xlink:href="#e"/>
</g>
<g>
<use x="187.417969" y="317.44491" xlink:href="#e"/>
<use x="196.082759" y="317.44491" xlink:href="#b"/>
<use x="204.747548" y="317.44491" xlink:href="#f"/>
<use x="209.946422" y="317.44491" xlink:href="#f"/>
<use x="215.145296" y="317.44491" xlink:href="#b"/>
<use x="223.810086" y="317.44491" xlink:href="#e"/>
</g>
<g>
<use x="248.894531" y="317.44491" xlink:href="#b"/>
<use x="257.559321" y="317.44491" xlink:href="#b"/>
<use x="266.224111" y="317.44491" xlink:href="#f"/>
<use x="271.422985" y="317.44491" xlink:href="#r"/>
<use x="280.087774" y="317.44491" xlink:href="#e"/>
</g>
<g>
<use x="308.21875" y="317.44491" xlink:href="#r"/>
<use x="316.88354" y="317.44491" xlink:href="#b"/>
<use x="325.54833" y="317.44491" xlink:href="#f"/>
<use x="330.747203" y="317.44491" xlink:href="#ac"/>
<use x="339.411993" y="317.44491" xlink:href="#ar"/>
</g>
<g>
<use x="373.167969" y="317.44491" xlink:href="#ab"/>
<use x="381.832759" y="317.44491" xlink:href="#a"/>
<use x="390.497548" y="317.44491" xlink:href="#ba"/>
</g>
<g>
<use x="68.742188" y="293.776941" xlink:href="#a"/>
</g>
<g>
<use x="59.921875" y="259.862879" xlink:href="#w"/>
<use x="68.586665" y="259.862879" xlink:href="#a"/>
</g>
<g>
<use x="59.921875" y="225.94491" xlink:href="#k"/>
<use x="68.586665" y="225.94491" xlink:href="#a"/>
</g>
<g>
<use x="59.921875" y="158.112879" xlink:href="#e"/>
<use x="68.586665" y="158.112879" xlink:href="#a"/>
</g>
<g>
<use x="59.921875" y="124.198816" xlink:href="#b"/>
<use x="68.586665" y="124.198816" xlink:href="#a"/>
</g>
<g>
<use x="59.921875" y="90.280848" xlink:href="#r"/>
<use x="68.586665" y="90.280848" xlink:href="#a"/>
</g>
<g>
<use x="59.921875" y="56.366785" xlink:href="#ac"/>
<use x="68.586665" y="56.366785" xlink:href="#a"/>
</g>
<g>
<use x="59.921875" y="22.452723" xlink:href="#ab"/>
<use x="68.586665" y="22.452723" xlink:href="#a"/>
</g>
<g>
<use x="59.921875" y="192.030848" xlink:href="#az"/>
<use x="68.586665" y="192.030848" xlink:href="#a"/>
</g>
<g>
<use x="22.907629" y="228.621094" xlink:href="#aq"/>
<use x="22.907629" y="219.944353" xlink:href="#j"/>
<use x="22.907629" y="214.738308" xlink:href="#d"/>
<use x="22.907629" y="206.061567" xlink:href="#q"/>
<use x="22.907629" y="197.384825" xlink:href="#d"/>
<use x="22.907629" y="188.708084" xlink:href="#j"/>
<use x="22.907629" y="183.502039" xlink:href="#ak"/>
<use x="22.907629" y="178.295995" xlink:href="#x"/>
<use x="22.907629" y="174.825298" xlink:href="#d"/>
<use x="22.907629" y="166.148557" xlink:href="#p"/>
<use x="22.907629" y="157.471816" xlink:href="#g"/>
<use x="22.907629" y="152.265771" xlink:href="#d"/>
<use x="22.907629" y="143.58903" xlink:href="#aj"/>
<use x="22.907629" y="138.382985" xlink:href="#g"/>
<use x="22.907629" y="133.17694" xlink:href="#q"/>
<use x="22.907629" y="124.500199" xlink:href="#aa"/>
<use x="22.907629" y="115.823458" xlink:href="#j"/>
<use x="22.907629" y="110.617413" xlink:href="#z"/>
<use x="22.907629" y="103.67602" xlink:href="#d"/>
<use x="22.907629" y="94.999279" xlink:href="#p"/>
<use x="22.907629" y="86.322538" xlink:href="#z"/>
</g>
<g>
<use x="40.235754" y="213.003906" xlink:href="#ap"/>
<use x="40.235754" y="207.797862" xlink:href="#ao"/>
<use x="40.235754" y="193.915076" xlink:href="#g"/>
<use x="40.235754" y="188.709031" xlink:href="#x"/>
<use x="40.235754" y="185.238334" xlink:href="#p"/>
<use x="40.235754" y="176.561593" xlink:href="#g"/>
<use x="40.235754" y="171.355548" xlink:href="#an"/>
<use x="40.235754" y="162.678807" xlink:href="#y"/>
<use x="40.235754" y="154.002066" xlink:href="#aa"/>
<use x="40.235754" y="145.325325" xlink:href="#g"/>
<use x="40.235754" y="140.11928" xlink:href="#y"/>
<use x="40.235754" y="131.442539" xlink:href="#j"/>
<use x="40.235754" y="126.236494" xlink:href="#d"/>
<use x="40.235754" y="117.559753" xlink:href="#am"/>
<use x="40.235754" y="108.883012" xlink:href="#q"/>
<use x="40.235754" y="100.206271" xlink:href="#al"/>
</g>
<g>
<use x="424.664062" y="207.331629" xlink:href="#ay"/>
<use x="433.328852" y="207.331629" xlink:href="#c"/>
<use x="441.993642" y="207.331629" xlink:href="#v"/>
<use x="450.658432" y="207.331629" xlink:href="#c"/>
<use x="459.323222" y="207.331629" xlink:href="#ag"/>
<use x="464.522095" y="207.331629" xlink:href="#i"/>
<use x="473.186885" y="207.331629" xlink:href="#o"/>
<use x="476.652801" y="207.331629" xlink:href="#o"/>
<use x="480.118717" y="207.331629" xlink:href="#u"/>
<use x="488.783507" y="207.331629" xlink:href="#n"/>
<use x="493.982381" y="207.331629" xlink:href="#t"/>
<use x="502.64717" y="207.331629" xlink:href="#i"/>
<use x="511.31196" y="207.331629" xlink:href="#v"/>
<use x="519.97675" y="207.331629" xlink:href="#m"/>
<use x="528.64154" y="207.331629" xlink:href="#h"/>
<use x="532.107456" y="207.331629" xlink:href="#s"/>
<use x="539.039287" y="207.331629" xlink:href="#i"/>
<use x="547.704077" y="207.331629" xlink:href="#l"/>
<use x="556.368867" y="207.331629" xlink:href="#l"/>
<use x="565.033657" y="207.331629" xlink:href="#c"/>
<use x="573.698447" y="207.331629" xlink:href="#m"/>
</g>
<g>
<use x="424.679688" y="232.901941" xlink:href="#ax"/>
<use x="431.611519" y="232.901941" xlink:href="#c"/>
<use x="440.276309" y="232.901941" xlink:href="#aw"/>
<use x="448.941099" y="232.901941" xlink:href="#c"/>
<use x="457.605889" y="232.901941" xlink:href="#ag"/>
<use x="462.804762" y="232.901941" xlink:href="#c"/>
<use x="471.469552" y="232.901941" xlink:href="#o"/>
<use x="474.935468" y="232.901941" xlink:href="#u"/>
<use x="483.600258" y="232.901941" xlink:href="#n"/>
<use x="488.799132" y="232.901941" xlink:href="#t"/>
<use x="497.463922" y="232.901941" xlink:href="#i"/>
<use x="506.128711" y="232.901941" xlink:href="#v"/>
<use x="514.793501" y="232.901941" xlink:href="#m"/>
<use x="523.458291" y="232.901941" xlink:href="#h"/>
<use x="526.924207" y="232.901941" xlink:href="#s"/>
<use x="533.856039" y="232.901941" xlink:href="#i"/>
<use x="542.520828" y="232.901941" xlink:href="#l"/>
<use x="551.185618" y="232.901941" xlink:href="#l"/>
<use x="559.850408" y="232.901941" xlink:href="#c"/>
<use x="568.515198" y="232.901941" xlink:href="#m"/>
</g>
<g>
<use x="424.070312" y="258.47616" xlink:href="#af"/>
<use x="434.46806" y="258.47616" xlink:href="#h"/>
<use x="437.933976" y="258.47616" xlink:href="#ae"/>
<use x="443.13285" y="258.47616" xlink:href="#ae"/>
<use x="448.331724" y="258.47616" xlink:href="#h"/>
<use x="451.79764" y="258.47616" xlink:href="#s"/>
<use x="458.729472" y="258.47616" xlink:href="#av"/>
<use x="467.394261" y="258.47616" xlink:href="#o"/>
<use x="470.860177" y="258.47616" xlink:href="#ad"/>
<use x="476.059051" y="258.47616" xlink:href="#u"/>
<use x="484.723841" y="258.47616" xlink:href="#n"/>
<use x="489.922715" y="258.47616" xlink:href="#au"/>
<use x="502.05342" y="258.47616" xlink:href="#h"/>
<use x="505.519336" y="258.47616" xlink:href="#ad"/>
<use x="510.71821" y="258.47616" xlink:href="#t"/>
<use x="519.383" y="258.47616" xlink:href="#n"/>
<use x="524.581874" y="258.47616" xlink:href="#at"/>
<use x="533.246664" y="258.47616" xlink:href="#af"/>
<use x="543.644411" y="258.47616" xlink:href="#as"/>
</g>
<path transform="matrix(1.733 0 0 1.7353 -16.732 0)" d="m62.548 166.38 34.147-2.6314 34.147-3.5318 34.145-5.5082 34.147-8.9567 34.145-33.096" fill="none" stroke="#d40000" stroke-width=".75"/>
<path transform="matrix(1.733 0 0 1.7353 -16.732 0)" d="m240.28 146.29h11.908" fill="none" stroke="#d40000" stroke-width=".75"/>
<path transform="matrix(1.733 0 0 1.7353 -16.732 0)" d="m240.28 131.28h11.908" fill="none" stroke="#338000" stroke-width=".75"/>
<path transform="matrix(1.733 0 0 1.7353 -16.732 0)" d="m240.28 117.79h11.908" fill="none" stroke="#00a" stroke-width=".75"/>
<path transform="matrix(1.733 0 0 1.7353 -16.732 0)" d="m62.548 160.18 34.147-6.4806 34.147-9.7288 34.145-20.223 34.147-11.883 34.145-50.449" fill="none" stroke="#338000" stroke-width=".75"/>
<path transform="matrix(1.733 0 0 1.7353 -16.732 0)" d="m62.548 142.75c16.534-1.3709 29.815-3.1491 34.147-6.0439 7.017-1.5307 18.166-7.6151 34.147-19.023 3.176-0.40518 21.829-13.979 34.145-22.172 13.482-8.7676 27.917-13.126 34.147-22.084 13.25-13.749 22.733-31.23 34.145-46.951" fill="none" stroke="#00a" stroke-width=".75"/>
<path d="m85.617 292h11.406l-5.5078-9.5508z" fill="#d40000"/>
<path d="m145.13 287.12h11.406l-5.5078-9.5508z" fill="#d40000"/>
<path d="m204.31 282.8h11.402l-5.5039-9.5547z" fill="#d40000"/>
<path d="m263.48 273.24h11.406l-5.5078-9.5508z" fill="#d40000"/>
<path d="m322.66 257.7h11.406l-5.5078-9.5508z" fill="#d40000"/>
<path d="m381.83 200.51h11.402l-5.5078-9.5508z" fill="#d40000"/>
<path d="m404.29 257.98h11.402l-5.5039-9.5508z" fill="#d40000"/>
<path d="m96.57 277.96c0 2.7148-2.1992 4.918-4.9102 4.918-2.7109 0-4.9062-2.2031-4.9062-4.918s2.1953-4.9141 4.9062-4.9141c2.7109 0 4.9102 2.1992 4.9102 4.9141z" fill="#338000"/>
<path d="m155.75 266.72c0 2.7148-2.1992 4.918-4.9102 4.918-2.7109 0-4.9102-2.2031-4.9102-4.918s2.1992-4.9141 4.9102-4.9141c2.7109 0 4.9102 2.1992 4.9102 4.9141z" fill="#338000"/>
<path d="m214.92 249.84c0 2.7148-2.1953 4.9141-4.9062 4.9141-2.7109 0-4.9102-2.1992-4.9102-4.9141 0-2.7148 2.1992-4.9141 4.9102-4.9141 2.7109 0 4.9062 2.1992 4.9062 4.9141z" fill="#338000"/>
<path d="m274.09 214.74c0 2.7148-2.1992 4.9141-4.9102 4.9141-2.7109 0-4.9062-2.1992-4.9062-4.9141 0-2.7148 2.1953-4.9141 4.9062-4.9141 2.7109 0 4.9102 2.1992 4.9102 4.9141z" fill="#338000"/>
<path d="m333.27 194.12c0 2.7148-2.1953 4.9141-4.9062 4.9141s-4.9102-2.1992-4.9102-4.9141 2.1992-4.918 4.9102-4.918 4.9062 2.2031 4.9062 4.918z" fill="#338000"/>
<path d="m392.44 106.57c0 2.7148-2.1992 4.918-4.9102 4.918s-4.9062-2.2031-4.9062-4.918c0-2.7148 2.1953-4.9141 4.9062-4.9141s4.9102 2.1992 4.9102 4.9141z" fill="#338000"/>
<path d="m414.89 227.82c0 2.7148-2.1953 4.9141-4.9062 4.9141-2.7109 0-4.9102-2.1992-4.9102-4.9141 0-2.7148 2.1992-4.9141 4.9102-4.9141 2.7109 0 4.9062 2.1992 4.9062 4.9141z" fill="#338000"/>
<path d="m86.43 243.19h10.355v10.367h-10.355z" fill="#00a"/>
<path d="m145.66 232.05h10.352v10.367h-10.352z" fill="#00a"/>
<path d="m204.83 199.04h10.355v10.367h-10.355z" fill="#00a"/>
<path d="m264.01 160.56h10.352v10.367h-10.352z" fill="#00a"/>
<path d="m323.18 122.24h10.352v10.367h-10.352z" fill="#00a"/>
<path d="m382.36 40.762h10.355v10.367h-10.355z" fill="#00a"/>
<path d="m404.81 199.21h10.352v10.367h-10.352z" fill="#00a"/>
</svg>
