<?xml version="1.0" encoding="UTF-8"?>
<svg width="600px" height="363px" version="1.1" viewBox="0 0 600 363" xmlns="http://www.w3.org/2000/svg" xmlns:xlink="http://www.w3.org/1999/xlink">
<defs>
<symbol id="br" overflow="visible">
<path d="m10.188-2.5312h-5.6094l-0.89062 2.5312h-3.5938l5.1406-13.922h4.2812l5.1406 13.922h-3.5938zm-4.7188-2.5938h3.8125l-1.9062-5.5312z"/>
</symbol>
<symbol id="bo" overflow="visible">
<path d="m1.5938-14.5h3.3438v14.5h-3.3438z"/>
</symbol>
<symbol id="bn" overflow="visible">
<path d="m5.2344-13.406v2.9688h3.4375v2.375h-3.4375v4.4375c0 0.48047 0.09375 0.80859 0.28125 0.98438 0.19531 0.16797 0.58203 0.25 1.1562 0.25h1.7188v2.3906h-2.8594c-1.3125 0-2.2461-0.27344-2.7969-0.82812-0.55469-0.55078-0.82812-1.4844-0.82812-2.7969v-4.4375h-1.6562v-2.375h1.6562v-2.9688z"/>
</symbol>
<symbol id="ah" overflow="visible">
<path d="m12-5.25v0.95312h-7.7812c0.082031 0.78125 0.36328 1.3711 0.84375 1.7656 0.48828 0.38672 1.1641 0.57812 2.0312 0.57812 0.69531 0 1.4102-0.10156 2.1406-0.3125 0.73828-0.20703 1.5-0.51953 2.2812-0.9375v2.5625c-0.79297 0.30469-1.5859 0.52734-2.375 0.67188-0.78125 0.15625-1.5703 0.23438-2.3594 0.23438-1.8867 0-3.3555-0.47656-4.4062-1.4375-1.043-0.95703-1.5625-2.3047-1.5625-4.0469 0-1.6953 0.51562-3.0312 1.5469-4 1.0312-0.97656 2.4414-1.4688 4.2344-1.4688 1.6445 0 2.957 0.49609 3.9375 1.4844 0.97656 0.98047 1.4688 2.2969 1.4688 3.9531zm-3.4219-1.1094c0-0.63281-0.1875-1.1445-0.5625-1.5312-0.36719-0.38281-0.84375-0.57812-1.4375-0.57812-0.64844 0-1.1719 0.18359-1.5781 0.54688-0.39844 0.35547-0.64844 0.875-0.75 1.5625z"/>
</symbol>
<symbol id="ag" overflow="visible">
<path d="m9.3438-7.5938c-0.29297-0.13281-0.58594-0.23438-0.875-0.29688-0.28125-0.070313-0.57031-0.10938-0.85938-0.10938-0.86719 0-1.5273 0.27734-1.9844 0.82812-0.46094 0.55469-0.6875 1.3398-0.6875 2.3594v4.8125h-3.3438v-10.438h3.3438v1.7188c0.42578-0.6875 0.91406-1.1875 1.4688-1.5 0.55078-0.3125 1.2188-0.46875 2-0.46875 0.11328 0 0.23438 0.007812 0.35938 0.015625 0.13281 0 0.32031 0.015625 0.5625 0.046875z"/>
</symbol>
<symbol id="af" overflow="visible"></symbol>
<symbol id="bm" overflow="visible">
<path d="m1.5938-10.438h3.3438v10.438h-3.3438zm0-4.0625h3.3438v2.7188h-3.3438z"/>
</symbol>
<symbol id="ae" overflow="visible">
<path d="m12.078-6.3594v6.3594h-3.3438v-4.8594c0-0.90625-0.023437-1.5312-0.0625-1.875-0.042969-0.34375-0.11719-0.59375-0.21875-0.75-0.125-0.21875-0.30469-0.38281-0.53125-0.5-0.21875-0.125-0.46875-0.1875-0.75-0.1875-0.69922 0-1.2461 0.27344-1.6406 0.8125-0.39844 0.53125-0.59375 1.2734-0.59375 2.2188v5.1406h-3.3438v-10.438h3.3438v1.5312c0.5-0.61328 1.0312-1.0625 1.5938-1.3438 0.5625-0.28906 1.1875-0.4375 1.875-0.4375 1.1953 0 2.1094 0.37109 2.7344 1.1094 0.625 0.74219 0.9375 1.8125 0.9375 3.2188z"/>
</symbol>
<symbol id="bl" overflow="visible">
<path d="m1.75-13.922h3.5781v12.562c0 1.7383-0.46875 3.0352-1.4062 3.8906-0.9375 0.86328-2.3594 1.2969-4.2656 1.2969h-0.73438v-2.7188h0.5625c0.75 0 1.3125-0.21094 1.6875-0.625 0.38281-0.41797 0.57812-1.0312 0.57812-1.8438z"/>
</symbol>
<symbol id="bq" overflow="visible">
<path d="m6.2812-4.7031c-0.69922 0-1.2266 0.12109-1.5781 0.35938-0.35547 0.24219-0.53125 0.58984-0.53125 1.0469 0 0.41797 0.14062 0.74609 0.42188 0.98438 0.28906 0.24219 0.6875 0.35938 1.1875 0.35938 0.625 0 1.1484-0.22266 1.5781-0.67188 0.42578-0.44531 0.64062-1.0078 0.64062-1.6875v-0.39062zm5.0781-1.25v5.9531h-3.3594v-1.5469c-0.44922 0.63672-0.95312 1.1016-1.5156 1.3906-0.55469 0.28125-1.2305 0.42188-2.0312 0.42188-1.0742 0-1.9492-0.3125-2.625-0.9375-0.67969-0.63281-1.0156-1.4531-1.0156-2.4531 0-1.2266 0.42188-2.1289 1.2656-2.7031 0.84375-0.57031 2.1641-0.85938 3.9688-0.85938h1.9531v-0.26562c0-0.51953-0.21094-0.89844-0.625-1.1406-0.41797-0.25-1.0625-0.375-1.9375-0.375-0.71875 0-1.3867 0.074219-2 0.21875-0.61719 0.13672-1.1836 0.35156-1.7031 0.64062v-2.5469c0.70703-0.17578 1.4219-0.30469 2.1406-0.39062 0.72656-0.09375 1.4531-0.14062 2.1719-0.14062 1.875 0 3.2266 0.37109 4.0625 1.1094 0.83203 0.74219 1.25 1.9492 1.25 3.625z"/>
</symbol>
<symbol id="bp" overflow="visible">
<path d="m12.078-6.3594v6.3594h-3.3438v-4.8438c0-0.91406-0.023437-1.5469-0.0625-1.8906-0.042969-0.34375-0.11719-0.59375-0.21875-0.75-0.125-0.21875-0.30469-0.38281-0.53125-0.5-0.21875-0.125-0.46875-0.1875-0.75-0.1875-0.69922 0-1.2461 0.27344-1.6406 0.8125-0.39844 0.53125-0.59375 1.2734-0.59375 2.2188v5.1406h-3.3438v-14.5h3.3438v5.5938c0.5-0.61328 1.0312-1.0625 1.5938-1.3438 0.5625-0.28906 1.1875-0.4375 1.875-0.4375 1.1953 0 2.1094 0.37109 2.7344 1.1094 0.625 0.74219 0.9375 1.8125 0.9375 3.2188z"/>
</symbol>
<symbol id="r" overflow="visible">
<path d="m1.7188-1.1562h2.2344v-7.7188l-2.4375 0.48438v-1.25l2.4219-0.48438h1.375v8.9688h2.2188v1.1562h-5.8125z"/>
</symbol>
<symbol id="c" overflow="visible">
<path d="m1.5-10.125h5.3594v1.1562h-4.1094v2.4844c0.19531-0.070313 0.39453-0.125 0.59375-0.15625 0.19531-0.03125 0.39453-0.046875 0.59375-0.046875 1.125 0 2.0156 0.30859 2.6719 0.92188 0.66406 0.61719 1 1.4531 1 2.5156 0 1.0938-0.33984 1.9453-1.0156 2.5469-0.67969 0.60547-1.6328 0.90625-2.8594 0.90625-0.42969 0-0.86719-0.039063-1.3125-0.10938-0.4375-0.074219-0.89062-0.17969-1.3594-0.32812v-1.375c0.40625 0.21875 0.82812 0.38672 1.2656 0.5 0.4375 0.10547 0.89453 0.15625 1.375 0.15625 0.78125 0 1.3945-0.20312 1.8438-0.60938 0.45703-0.41406 0.6875-0.97656 0.6875-1.6875 0-0.70703-0.23047-1.2656-0.6875-1.6719-0.44922-0.41406-1.0625-0.625-1.8438-0.625-0.36719 0-0.73047 0.042969-1.0938 0.125-0.36719 0.085937-0.73438 0.21094-1.1094 0.375z"/>
</symbol>
<symbol id="e" overflow="visible">
<path d="m0.67188-4.3594h3.6562v1.1094h-3.6562z"/>
</symbol>
<symbol id="i" overflow="visible">
<path d="m2.6562-1.1562h4.7812v1.1562h-6.4219v-1.1562c0.51953-0.53125 1.2266-1.25 2.125-2.1562 0.89453-0.91406 1.457-1.5039 1.6875-1.7656 0.4375-0.48828 0.73828-0.90625 0.90625-1.25 0.17578-0.34375 0.26562-0.67578 0.26562-1 0-0.53906-0.1875-0.97656-0.5625-1.3125-0.375-0.34375-0.86719-0.51562-1.4688-0.51562-0.42969 0-0.88281 0.078125-1.3594 0.23438-0.48047 0.14844-0.99219 0.37109-1.5312 0.67188v-1.3906c0.55078-0.21875 1.0664-0.38281 1.5469-0.5 0.47656-0.11328 0.91406-0.17188 1.3125-0.17188 1.0508 0 1.8828 0.26562 2.5 0.79688 0.625 0.52344 0.9375 1.2188 0.9375 2.0938 0 0.41797-0.078125 0.8125-0.23438 1.1875s-0.4375 0.8125-0.84375 1.3125c-0.11719 0.13672-0.47656 0.51562-1.0781 1.1406-0.60547 0.625-1.4609 1.5-2.5625 2.625z"/>
</symbol>
<symbol id="d" overflow="visible">
<path d="m5.2344-8.9375-3.4531 5.4062h3.4531zm-0.35938-1.1875h1.7188v6.5938h1.4531v1.1406h-1.4531v2.3906h-1.3594v-2.3906h-4.5625v-1.3125z"/>
</symbol>
<symbol id="p" overflow="visible">
<path d="m4.5781-5.6094c-0.61719 0-1.1055 0.21484-1.4688 0.64062-0.35547 0.41797-0.53125 0.99219-0.53125 1.7188 0 0.73047 0.17578 1.3086 0.53125 1.7344 0.36328 0.41797 0.85156 0.625 1.4688 0.625 0.61328 0 1.0977-0.20703 1.4531-0.625 0.36328-0.42578 0.54688-1.0039 0.54688-1.7344 0-0.72656-0.18359-1.3008-0.54688-1.7188-0.35547-0.42578-0.83984-0.64062-1.4531-0.64062zm2.7031-4.2969v1.25c-0.33594-0.16406-0.67969-0.28906-1.0312-0.375-0.35547-0.082031-0.70312-0.125-1.0469-0.125-0.89844 0-1.5859 0.30859-2.0625 0.92188-0.48047 0.60547-0.75 1.5273-0.8125 2.7656 0.26953-0.39453 0.60156-0.69531 1-0.90625 0.40625-0.20703 0.84766-0.3125 1.3281-0.3125 1.0078 0 1.8047 0.30859 2.3906 0.92188 0.59375 0.61719 0.89062 1.4531 0.89062 2.5156 0 1.043-0.30859 1.8828-0.92188 2.5156-0.60547 0.625-1.418 0.9375-2.4375 0.9375-1.168 0-2.0625-0.44531-2.6875-1.3438-0.61719-0.90625-0.92188-2.207-0.92188-3.9062 0-1.6016 0.375-2.8789 1.125-3.8281 0.75781-0.95703 1.7812-1.4375 3.0625-1.4375 0.34375 0 0.6875 0.039062 1.0312 0.10938 0.35156 0.0625 0.71875 0.16406 1.0938 0.29688z"/>
</symbol>
<symbol id="x" overflow="visible">
<path d="m1.1406-10.125h6.5v0.57812l-3.6719 9.5469h-1.4375l3.4531-8.9688h-4.8438z"/>
</symbol>
<symbol id="bb" overflow="visible">
<path d="m1.5156-0.20312v-1.25c0.34375 0.15625 0.69141 0.28125 1.0469 0.375 0.35156 0.085937 0.69531 0.125 1.0312 0.125 0.90625 0 1.5938-0.30078 2.0625-0.90625 0.47656-0.61328 0.75391-1.5391 0.82812-2.7812-0.26172 0.38672-0.59375 0.68359-1 0.89062-0.39844 0.21094-0.83984 0.3125-1.3281 0.3125-1.0117 0-1.8125-0.30078-2.4062-0.90625-0.58594-0.61328-0.875-1.4531-0.875-2.5156 0-1.0391 0.30469-1.875 0.92188-2.5 0.61328-0.63281 1.4297-0.95312 2.4531-0.95312 1.1641 0 2.0547 0.45312 2.6719 1.3594 0.61328 0.89844 0.92188 2.1992 0.92188 3.9062 0 1.5938-0.38281 2.8711-1.1406 3.8281-0.75 0.94922-1.7656 1.4219-3.0469 1.4219-0.34375 0-0.69531-0.039063-1.0469-0.10938-0.34375-0.0625-0.71094-0.16016-1.0938-0.29688zm2.7344-4.2969c0.60156 0 1.082-0.20703 1.4375-0.625 0.36328-0.42578 0.54688-1.0039 0.54688-1.7344 0-0.72656-0.18359-1.3008-0.54688-1.7188-0.35547-0.42578-0.83594-0.64062-1.4375-0.64062-0.61719 0-1.1055 0.21484-1.4688 0.64062-0.35547 0.41797-0.53125 0.99219-0.53125 1.7188 0 0.73047 0.17578 1.3086 0.53125 1.7344 0.36328 0.41797 0.85156 0.625 1.4688 0.625z"/>
</symbol>
<symbol id="w" overflow="visible">
<path d="m4.4062-4.8125c-0.64844 0-1.1562 0.17969-1.5312 0.53125-0.375 0.34375-0.5625 0.82422-0.5625 1.4375 0 0.60547 0.1875 1.0859 0.5625 1.4375 0.375 0.34375 0.88281 0.51562 1.5312 0.51562 0.64453 0 1.1562-0.17188 1.5312-0.51562 0.375-0.35156 0.5625-0.83203 0.5625-1.4375 0-0.61328-0.1875-1.0938-0.5625-1.4375-0.36719-0.35156-0.875-0.53125-1.5312-0.53125zm-1.375-0.57812c-0.58594-0.14453-1.043-0.41406-1.375-0.8125-0.32422-0.40625-0.48438-0.89844-0.48438-1.4844 0-0.8125 0.28516-1.4531 0.85938-1.9219 0.58203-0.46875 1.375-0.70312 2.375-0.70312 1.0078 0 1.8008 0.23438 2.375 0.70312 0.57031 0.46875 0.85938 1.1094 0.85938 1.9219 0 0.58594-0.16797 1.0781-0.5 1.4844-0.32422 0.39844-0.77734 0.66797-1.3594 0.8125 0.65625 0.15625 1.1641 0.46094 1.5312 0.90625 0.375 0.44922 0.5625 0.99609 0.5625 1.6406 0 0.98047-0.30469 1.7344-0.90625 2.2656-0.59375 0.52344-1.4492 0.78125-2.5625 0.78125-1.1172 0-1.9766-0.25781-2.5781-0.78125-0.59375-0.53125-0.89062-1.2852-0.89062-2.2656 0-0.64453 0.17969-1.1914 0.54688-1.6406 0.375-0.44531 0.89062-0.75 1.5469-0.90625zm-0.5-2.1719c0 0.53125 0.16016 0.94531 0.48438 1.2344 0.33203 0.29297 0.79688 0.4375 1.3906 0.4375 0.58203 0 1.0391-0.14453 1.375-0.4375 0.33203-0.28906 0.5-0.70312 0.5-1.2344 0-0.51953-0.16797-0.92578-0.5-1.2188-0.33594-0.28906-0.79297-0.4375-1.375-0.4375-0.59375 0-1.0586 0.14844-1.3906 0.4375-0.32422 0.29297-0.48438 0.69922-0.48438 1.2188z"/>
</symbol>
<symbol id="b" overflow="visible">
<path d="m4.4062-9.2188c-0.71094 0-1.2422 0.35156-1.5938 1.0469-0.35547 0.6875-0.53125 1.7305-0.53125 3.125 0 1.3867 0.17578 2.4297 0.53125 3.125 0.35156 0.6875 0.88281 1.0312 1.5938 1.0312 0.70703 0 1.2383-0.34375 1.5938-1.0312 0.35156-0.69531 0.53125-1.7383 0.53125-3.125 0-1.3945-0.17969-2.4375-0.53125-3.125-0.35547-0.69531-0.88672-1.0469-1.5938-1.0469zm0-1.0938c1.1328 0 2 0.45312 2.5938 1.3594 0.59375 0.89844 0.89062 2.1992 0.89062 3.9062 0 1.6992-0.29688 3-0.89062 3.9062-0.59375 0.89844-1.4609 1.3438-2.5938 1.3438-1.1367 0-2.0078-0.44531-2.6094-1.3438-0.59375-0.90625-0.89062-2.207-0.89062-3.9062 0-1.707 0.29688-3.0078 0.89062-3.9062 0.60156-0.90625 1.4727-1.3594 2.6094-1.3594z"/>
</symbol>
<symbol id="bk" overflow="visible">
<path d="m6.375-8.7031v3.7656h3.7656v1.1562h-3.7656v3.7812h-1.1406v-3.7812h-3.7656v-1.1562h3.7656v-3.7656z"/>
</symbol>
<symbol id="bj" overflow="visible">
<path d="m5.625-5.4531c0.65625 0.13672 1.1641 0.42969 1.5312 0.875 0.36328 0.4375 0.54688 0.98438 0.54688 1.6406 0 1-0.34375 1.7773-1.0312 2.3281-0.67969 0.54297-1.6523 0.8125-2.9219 0.8125-0.41797 0-0.85547-0.042969-1.3125-0.125-0.44922-0.082031-0.90625-0.21094-1.375-0.39062v-1.3125c0.375 0.21875 0.78516 0.38672 1.2344 0.5 0.45703 0.11719 0.92969 0.17188 1.4219 0.17188 0.85156 0 1.5039-0.16406 1.9531-0.5 0.44531-0.34375 0.67188-0.83594 0.67188-1.4844 0-0.60156-0.21094-1.0703-0.625-1.4062-0.41797-0.33203-0.99609-0.5-1.7344-0.5h-1.1875v-1.125h1.2344c0.67578 0 1.1914-0.13281 1.5469-0.40625 0.35156-0.26953 0.53125-0.66016 0.53125-1.1719 0-0.51953-0.1875-0.91406-0.5625-1.1875-0.36719-0.28125-0.88672-0.42188-1.5625-0.42188-0.375 0-0.78125 0.042969-1.2188 0.125-0.42969 0.085938-0.89844 0.21094-1.4062 0.375v-1.2188c0.51953-0.14453 1.0039-0.25391 1.4531-0.32812 0.45703-0.070313 0.88281-0.10938 1.2812-0.10938 1.0391 0 1.8633 0.24219 2.4688 0.71875 0.60156 0.46875 0.90625 1.1055 0.90625 1.9062 0 0.5625-0.16406 1.0391-0.48438 1.4219-0.3125 0.38672-0.76562 0.65625-1.3594 0.8125z"/>
</symbol>
<symbol id="ad" overflow="visible">
<path d="m6.2969-3.8906c0-0.90625-0.1875-1.6016-0.5625-2.0938-0.375-0.5-0.89844-0.75-1.5625-0.75-0.66797 0-1.1875 0.25-1.5625 0.75-0.375 0.49219-0.5625 1.1875-0.5625 2.0938s0.1875 1.6094 0.5625 2.1094c0.375 0.49219 0.89453 0.73438 1.5625 0.73438 0.66406 0 1.1875-0.24219 1.5625-0.73438 0.375-0.5 0.5625-1.2031 0.5625-2.1094zm1.2344 2.9531c0 1.2891-0.28906 2.25-0.85938 2.875-0.57422 0.63281-1.4492 0.95312-2.625 0.95312-0.4375 0-0.85547-0.039063-1.25-0.10938-0.38672-0.0625-0.76172-0.16406-1.125-0.29688v-1.2031c0.36328 0.19531 0.72266 0.34375 1.0781 0.4375 0.36328 0.09375 0.72656 0.14062 1.0938 0.14062 0.82031 0 1.4375-0.21484 1.8438-0.64062 0.40625-0.42969 0.60938-1.0742 0.60938-1.9375v-0.625c-0.26172 0.44922-0.59375 0.78906-1 1.0156-0.39844 0.21875-0.875 0.32812-1.4375 0.32812-0.92969 0-1.6797-0.35156-2.25-1.0625-0.5625-0.70703-0.84375-1.6484-0.84375-2.8281 0-1.1758 0.28125-2.1172 0.84375-2.8281 0.57031-0.70703 1.3203-1.0625 2.25-1.0625 0.5625 0 1.0391 0.11719 1.4375 0.34375 0.40625 0.21875 0.73828 0.55469 1 1v-1.1562h1.2344z"/>
</symbol>
<symbol id="a" overflow="visible">
<path d="m7.7969-4.1094v0.60938h-5.7344c0.050781 0.85547 0.30469 1.5117 0.76562 1.9688 0.46875 0.44922 1.1133 0.67188 1.9375 0.67188 0.47656 0 0.94141-0.054687 1.3906-0.17188 0.44531-0.125 0.89453-0.30078 1.3438-0.53125v1.1719c-0.44922 0.1875-0.90625 0.33594-1.375 0.4375-0.46875 0.10156-0.94531 0.15625-1.4219 0.15625-1.2109 0-2.168-0.35156-2.875-1.0625-0.71094-0.70703-1.0625-1.6602-1.0625-2.8594 0-1.25 0.33203-2.2383 1-2.9688 0.67578-0.72656 1.582-1.0938 2.7188-1.0938 1.0195 0 1.8281 0.32812 2.4219 0.98438s0.89062 1.5547 0.89062 2.6875zm-1.25-0.35938c-0.011719-0.6875-0.20312-1.2344-0.57812-1.6406s-0.86719-0.60938-1.4688-0.60938c-0.69922 0-1.2578 0.19922-1.6719 0.59375-0.41797 0.38672-0.65625 0.9375-0.71875 1.6562z"/>
</symbol>
<symbol id="q" overflow="visible">
<path d="m7.6094-4.5781v4.5781h-1.25v-4.5469c0-0.71875-0.14062-1.2539-0.42188-1.6094-0.28125-0.35156-0.69922-0.53125-1.25-0.53125-0.67969 0-1.2109 0.21484-1.5938 0.64062-0.38672 0.42969-0.57812 1.0117-0.57812 1.75v4.2969h-1.25v-7.5938h1.25v1.1719c0.28906-0.44531 0.64062-0.78516 1.0469-1.0156 0.40625-0.22656 0.86719-0.34375 1.3906-0.34375 0.875 0 1.5352 0.27344 1.9844 0.8125 0.44531 0.54297 0.67188 1.3398 0.67188 2.3906z"/>
</symbol>
<symbol id="g" overflow="visible">
<path d="m5.7031-6.4375c-0.14844-0.070312-0.30469-0.12891-0.46875-0.17188-0.15625-0.039063-0.33594-0.0625-0.53125-0.0625-0.71094 0-1.25 0.23047-1.625 0.6875-0.375 0.46094-0.5625 1.1211-0.5625 1.9844v4h-1.25v-7.5938h1.25v1.1719c0.25781-0.45703 0.59766-0.79688 1.0156-1.0156 0.41406-0.22656 0.92578-0.34375 1.5312-0.34375 0.082031 0 0.17578 0.007812 0.28125 0.015625 0.10156 0.011719 0.21875 0.027344 0.34375 0.046875z"/>
</symbol>
<symbol id="ac" overflow="visible">
<path d="m1.3125-10.547h1.2344v10.547h-1.2344z"/>
</symbol>
<symbol id="l" overflow="visible"></symbol>
<symbol id="ab" overflow="visible">
<path d="m6.75-3.7969c0-0.91406-0.19531-1.6328-0.57812-2.1562-0.375-0.51953-0.89062-0.78125-1.5469-0.78125s-1.1719 0.26172-1.5469 0.78125c-0.375 0.52344-0.5625 1.2422-0.5625 2.1562 0 0.91797 0.1875 1.6406 0.5625 2.1719 0.375 0.52344 0.89062 0.78125 1.5469 0.78125s1.1719-0.25781 1.5469-0.78125c0.38281-0.53125 0.57812-1.2539 0.57812-2.1719zm-4.2344-2.6406c0.25781-0.45703 0.58594-0.79688 0.98438-1.0156 0.39453-0.21875 0.875-0.32812 1.4375-0.32812 0.91406 0 1.6602 0.37109 2.2344 1.1094 0.58203 0.73047 0.875 1.6875 0.875 2.875 0 1.1992-0.29297 2.168-0.875 2.9062-0.57422 0.73047-1.3203 1.0938-2.2344 1.0938-0.5625 0-1.043-0.10938-1.4375-0.32812-0.39844-0.22656-0.72656-0.56641-0.98438-1.0156v1.1406h-1.25v-10.547h1.25z"/>
</symbol>
<symbol id="k" overflow="visible">
<path d="m7.6094-4.5781v4.5781h-1.25v-4.5469c0-0.71875-0.14062-1.2539-0.42188-1.6094-0.28125-0.35156-0.69922-0.53125-1.25-0.53125-0.67969 0-1.2109 0.21484-1.5938 0.64062-0.38672 0.42969-0.57812 1.0117-0.57812 1.75v4.2969h-1.25v-10.547h1.25v4.125c0.28906-0.44531 0.64062-0.78516 1.0469-1.0156 0.40625-0.22656 0.86719-0.34375 1.3906-0.34375 0.875 0 1.5352 0.27344 1.9844 0.8125 0.44531 0.54297 0.67188 1.3398 0.67188 2.3906z"/>
</symbol>
<symbol id="f" overflow="visible">
<path d="m1.3125-7.5938h1.2344v7.5938h-1.2344zm0-2.9531h1.2344v1.5781h-1.2344z"/>
</symbol>
<symbol id="aa" overflow="visible">
<path d="m6.2969-6.4375v-4.1094h1.2344v10.547h-1.2344v-1.1406c-0.26172 0.44922-0.59375 0.78906-1 1.0156-0.39844 0.21875-0.875 0.32812-1.4375 0.32812-0.91797 0-1.6641-0.36328-2.2344-1.0938-0.57422-0.73828-0.85938-1.707-0.85938-2.9062 0-1.1875 0.28516-2.1445 0.85938-2.875 0.57031-0.73828 1.3164-1.1094 2.2344-1.1094 0.5625 0 1.0391 0.10938 1.4375 0.32812 0.40625 0.21875 0.73828 0.55859 1 1.0156zm-4.25 2.6406c0 0.91797 0.1875 1.6406 0.5625 2.1719 0.38281 0.52344 0.90625 0.78125 1.5625 0.78125s1.1719-0.25781 1.5469-0.78125c0.38281-0.53125 0.57812-1.2539 0.57812-2.1719 0-0.91406-0.19531-1.6328-0.57812-2.1562-0.375-0.51953-0.89062-0.78125-1.5469-0.78125s-1.1797 0.26172-1.5625 0.78125c-0.375 0.52344-0.5625 1.2422-0.5625 2.1562z"/>
</symbol>
<symbol id="j" overflow="visible">
<path d="m2.5312-9.75v2.1562h2.5781v0.96875h-2.5781v4.125c0 0.61719 0.082031 1.0117 0.25 1.1875 0.17578 0.17969 0.52344 0.26562 1.0469 0.26562h1.2812v1.0469h-1.2812c-0.96875 0-1.6367-0.17578-2-0.53125-0.36719-0.36328-0.54688-1.0195-0.54688-1.9688v-4.125h-0.90625v-0.96875h0.90625v-2.1562z"/>
</symbol>
<symbol id="bi" overflow="visible">
<path d="m6.1406-7.375v1.1875c-0.35547-0.1875-0.72656-0.32031-1.1094-0.40625-0.375-0.09375-0.76562-0.14062-1.1719-0.14062-0.61719 0-1.0781 0.09375-1.3906 0.28125-0.30469 0.1875-0.45312 0.47656-0.45312 0.85938 0 0.29297 0.10938 0.52344 0.32812 0.6875 0.21875 0.15625 0.66016 0.3125 1.3281 0.46875l0.42188 0.09375c0.88281 0.1875 1.5156 0.45312 1.8906 0.79688s0.5625 0.82812 0.5625 1.4531c0 0.71094-0.28125 1.2734-0.84375 1.6875-0.55469 0.40625-1.3203 0.60938-2.2969 0.60938-0.40625 0-0.82812-0.042969-1.2656-0.125-0.4375-0.082031-0.90234-0.20312-1.3906-0.35938v-1.2812c0.45703 0.24219 0.91016 0.42188 1.3594 0.54688 0.44531 0.11719 0.89062 0.17188 1.3281 0.17188 0.58203 0 1.0312-0.097656 1.3438-0.29688 0.32031-0.20703 0.48438-0.49219 0.48438-0.85938 0-0.34375-0.11719-0.60156-0.34375-0.78125-0.23047-0.17578-0.73047-0.34766-1.5-0.51562l-0.4375-0.10938c-0.77344-0.16406-1.3281-0.41406-1.6719-0.75-0.33594-0.33203-0.5-0.79688-0.5-1.3906 0-0.70703 0.25-1.2539 0.75-1.6406 0.50781-0.39453 1.2266-0.59375 2.1562-0.59375 0.45703 0 0.89062 0.039062 1.2969 0.10938 0.40625 0.0625 0.78125 0.16406 1.125 0.29688z"/>
</symbol>
<symbol id="z" overflow="visible">
<path d="m6.7656-7.3125v1.1719c-0.35547-0.19531-0.71094-0.34375-1.0625-0.4375-0.35547-0.09375-0.71484-0.14062-1.0781-0.14062-0.80469 0-1.4297 0.25781-1.875 0.76562-0.44922 0.51172-0.67188 1.2305-0.67188 2.1562 0 0.92969 0.22266 1.6523 0.67188 2.1719 0.44531 0.51172 1.0703 0.76562 1.875 0.76562 0.36328 0 0.72266-0.046875 1.0781-0.14062 0.35156-0.10156 0.70703-0.25 1.0625-0.4375v1.1406c-0.35547 0.16797-0.71875 0.29297-1.0938 0.375-0.36719 0.082031-0.75781 0.125-1.1719 0.125-1.1484 0-2.0586-0.35938-2.7344-1.0781-0.66797-0.71875-1-1.6914-1-2.9219 0-1.2383 0.33594-2.2109 1.0156-2.9219 0.67578-0.70703 1.6094-1.0625 2.7969-1.0625 0.38281 0 0.75781 0.042969 1.125 0.125 0.36328 0.074219 0.71875 0.1875 1.0625 0.34375z"/>
</symbol>
<symbol id="y" overflow="visible">
<path d="m0.57812-7.5938h1.25l1.5625 5.9219 1.5469-5.9219h1.4688l1.5469 5.9219 1.5625-5.9219h1.2344l-1.9844 7.5938h-1.4688l-1.625-6.2188-1.6406 6.2188h-1.4688z"/>
</symbol>
<symbol id="bh" overflow="visible">
<path d="m7.4219-9.7969v1.3438c-0.52344-0.25-1.0117-0.4375-1.4688-0.5625-0.46094-0.125-0.90625-0.1875-1.3438-0.1875-0.74219 0-1.3125 0.14844-1.7188 0.4375-0.40625 0.29297-0.60938 0.70312-0.60938 1.2344 0 0.44922 0.13281 0.78906 0.40625 1.0156 0.26953 0.23047 0.78125 0.41406 1.5312 0.54688l0.82812 0.17188c1.0195 0.19922 1.7695 0.54297 2.25 1.0312 0.48828 0.49219 0.73438 1.1484 0.73438 1.9688 0 0.98047-0.32812 1.7266-0.98438 2.2344-0.65625 0.51172-1.6211 0.76562-2.8906 0.76562-0.48047 0-0.99219-0.058594-1.5312-0.17188-0.53125-0.10156-1.0898-0.26562-1.6719-0.48438v-1.4062c0.55078 0.3125 1.0938 0.54688 1.625 0.70312 0.53906 0.15625 1.0664 0.23438 1.5781 0.23438 0.78125 0 1.3789-0.14844 1.7969-0.45312 0.42578-0.3125 0.64062-0.75 0.64062-1.3125 0-0.5-0.15234-0.89062-0.45312-1.1719-0.30469-0.28125-0.80469-0.48828-1.5-0.625l-0.82812-0.17188c-1.0234-0.19531-1.7617-0.51562-2.2188-0.95312-0.46094-0.4375-0.6875-1.0391-0.6875-1.8125 0-0.89453 0.3125-1.5977 0.9375-2.1094 0.63281-0.51953 1.5039-0.78125 2.6094-0.78125 0.47656 0 0.96094 0.046875 1.4531 0.14062 0.48828 0.085937 0.99219 0.21094 1.5156 0.375z"/>
</symbol>
<symbol id="bg" overflow="visible">
<path d="m1.2656-10.547h1.25v6.2188l3.7031-3.2656h1.5938l-4.0156 3.5469 4.1875 4.0469h-1.625l-3.8438-3.7031v3.7031h-1.25z"/>
</symbol>
<symbol id="bf" overflow="visible">
<path d="m7.2031-6.1406c0.3125-0.5625 0.67969-0.97266 1.1094-1.2344 0.4375-0.26953 0.95312-0.40625 1.5469-0.40625 0.78125 0 1.3828 0.27734 1.8125 0.82812 0.4375 0.55469 0.65625 1.3438 0.65625 2.375v4.5781h-1.25v-4.5469c0-0.72656-0.13281-1.2656-0.39062-1.6094-0.26172-0.35156-0.65234-0.53125-1.1719-0.53125-0.64844 0-1.1562 0.21484-1.5312 0.64062-0.375 0.42969-0.5625 1.0117-0.5625 1.75v4.2969h-1.25v-4.5469c0-0.72656-0.13281-1.2656-0.39062-1.6094-0.26172-0.35156-0.65625-0.53125-1.1875-0.53125-0.63672 0-1.1406 0.21484-1.5156 0.64062-0.375 0.42969-0.5625 1.0117-0.5625 1.75v4.2969h-1.25v-7.5938h1.25v1.1719c0.28125-0.45703 0.61719-0.79688 1.0156-1.0156 0.39453-0.22656 0.86719-0.34375 1.4219-0.34375 0.53906 0 1.0039 0.14062 1.3906 0.42188 0.39453 0.28125 0.67969 0.6875 0.85938 1.2188z"/>
</symbol>
<symbol id="be" overflow="visible">
<path d="m4.7344-8.7812-1.8438 5.0469h3.7031zm-0.76562-1.3438h1.5469l3.8438 10.125h-1.4219l-0.90625-2.5938h-4.5625l-0.92188 2.5938h-1.4375z"/>
</symbol>
<symbol id="bd" overflow="visible">
<path d="m2.7344-9v7.875h1.6406c1.3945 0 2.4141-0.31641 3.0625-0.95312 0.64453-0.63281 0.96875-1.6328 0.96875-3 0-1.3516-0.32422-2.3438-0.96875-2.9688-0.64844-0.63281-1.668-0.95312-3.0625-0.95312zm-1.375-1.125h2.8125c1.957 0 3.3945 0.41406 4.3125 1.2344 0.91406 0.8125 1.375 2.0859 1.375 3.8125 0 1.75-0.46484 3.0391-1.3906 3.8594-0.91797 0.8125-2.3516 1.2188-4.2969 1.2188h-2.8125z"/>
</symbol>
<symbol id="bc" overflow="visible">
<path d="m1.3594-10.125h1.375v8.9688h4.9062v1.1562h-6.2812z"/>
</symbol>
<symbol id="ba" overflow="visible">
<path d="m-1.8438-7.4062v4.0781l1.8438 0.64062v2.625l-10.109-3.75v-3.1094l10.109-3.75v2.625zm-1.875 3.4219v-2.7656l-4.0156 1.375z"/>
</symbol>
<symbol id="o" overflow="visible">
<path d="m-4.6094-8.7969h4.6094v2.4375h-3.5312c-0.65625 0-1.1094 0.015625-1.3594 0.046875s-0.42969 0.085938-0.54688 0.15625c-0.15625 0.09375-0.27344 0.22656-0.35938 0.39062-0.09375 0.15625-0.14062 0.33984-0.14062 0.54688 0 0.51172 0.19922 0.91406 0.59375 1.2031 0.38672 0.28125 0.92188 0.42188 1.6094 0.42188h3.7344v2.4219h-7.5781v-2.4219h1.1094c-0.4375-0.36328-0.75781-0.75-0.96875-1.1562-0.21875-0.41406-0.32812-0.875-0.32812-1.375 0-0.875 0.27344-1.5352 0.8125-1.9844 0.53125-0.45703 1.3125-0.6875 2.3438-0.6875z"/>
</symbol>
<symbol id="aw" overflow="visible">
<path d="m-9.7344-3.8125h2.1562v-2.5h1.7344v2.5h3.2188c0.34375 0 0.57812-0.066406 0.70312-0.20312 0.125-0.14453 0.1875-0.42578 0.1875-0.84375v-1.25h1.7344v2.0781c0 0.96094-0.19531 1.6406-0.59375 2.0469-0.40625 0.39844-1.082 0.59375-2.0312 0.59375h-3.2188v1.2031h-1.7344v-1.2031h-2.1562z"/>
</symbol>
<symbol id="h" overflow="visible">
<path d="m-3.8125-8.7344h0.6875v5.6719c0.57422-0.0625 1-0.26953 1.2812-0.625 0.28125-0.35156 0.42188-0.84375 0.42188-1.4688 0-0.50781-0.070313-1.0312-0.21875-1.5625-0.15625-0.53906-0.38281-1.0938-0.6875-1.6562h1.875c0.21094 0.57422 0.37109 1.1484 0.48438 1.7188 0.11328 0.57422 0.17188 1.1484 0.17188 1.7188 0 1.375-0.34766 2.4453-1.0469 3.2031-0.69531 0.76172-1.6758 1.1406-2.9375 1.1406-1.2383 0-2.2109-0.375-2.9219-1.125-0.70703-0.75-1.0625-1.7734-1.0625-3.0781 0-1.1953 0.35938-2.1484 1.0781-2.8594 0.71875-0.71875 1.6797-1.0781 2.875-1.0781zm-0.79688 2.4844c-0.46875 0-0.84375 0.13672-1.125 0.40625-0.28125 0.27344-0.42188 0.62109-0.42188 1.0469 0 0.48047 0.13672 0.86719 0.40625 1.1562 0.26172 0.29297 0.64062 0.47656 1.1406 0.54688z"/>
</symbol>
<symbol id="av" overflow="visible">
<path d="m-7.5781-1.1719v-2.4219h7.5781v2.4219zm-2.9531 0v-2.4219h1.9844v2.4219z"/>
</symbol>
<symbol id="au" overflow="visible">
<path d="m-10.531-1.1719v-2.4219h10.531v2.4219z"/>
</symbol>
<symbol id="v" overflow="visible"></symbol>
<symbol id="at" overflow="visible">
<path d="m-6.4688-6.3281h-4.0625v-2.4375h10.531v2.4375h-1.0938c0.44922 0.33594 0.77734 0.70312 0.98438 1.1094 0.20703 0.39844 0.3125 0.85938 0.3125 1.3906 0 0.9375-0.36719 1.7109-1.1094 2.3125-0.75 0.59375-1.707 0.89062-2.875 0.89062-1.1641 0-2.1172-0.29688-2.8594-0.89062-0.75-0.60156-1.125-1.375-1.125-2.3125 0-0.51953 0.10938-0.98438 0.32812-1.3906 0.21094-0.40625 0.53125-0.77344 0.96875-1.1094zm4.9062 1.5938c0-0.51953-0.1875-0.91406-0.5625-1.1875-0.38281-0.26953-0.9375-0.40625-1.6562-0.40625s-1.2656 0.13672-1.6406 0.40625c-0.38281 0.27344-0.57812 0.66797-0.57812 1.1875 0 0.52344 0.19531 0.91797 0.57812 1.1875 0.375 0.27344 0.92188 0.40625 1.6406 0.40625s1.2734-0.13281 1.6562-0.40625c0.375-0.26953 0.5625-0.66406 0.5625-1.1875z"/>
</symbol>
<symbol id="u" overflow="visible">
<path d="m-5.5156-6.7969c-0.10156 0.21094-0.17578 0.41797-0.21875 0.625-0.050781 0.21094-0.078125 0.42188-0.078125 0.64062 0 0.625 0.20312 1.1055 0.60938 1.4375 0.39844 0.33594 0.96875 0.5 1.7188 0.5h3.4844v2.4219h-7.5781v-2.4219h1.25c-0.5-0.3125-0.86328-0.66406-1.0938-1.0625-0.22656-0.40625-0.34375-0.89453-0.34375-1.4688 0-0.070312 0.007813-0.15625 0.015625-0.25 0.011719-0.10156 0.027344-0.24219 0.046875-0.42188z"/>
</symbol>
<symbol id="az" overflow="visible">
<path d="m-10.109-1.2812v-4.3281c0-1.2812 0.28906-2.2656 0.85938-2.9531 0.57422-0.6875 1.3867-1.0312 2.4375-1.0312 1.0625 0 1.8828 0.34375 2.4531 1.0312 0.57422 0.6875 0.85938 1.6719 0.85938 2.9531v1.7344h3.5v2.5938zm1.8906-2.5938h2.8281v-1.4531c0-0.5-0.11719-0.88281-0.35938-1.1562-0.25-0.28125-0.60156-0.42188-1.0625-0.42188-0.44531 0-0.78906 0.14062-1.0312 0.42188-0.25 0.27344-0.375 0.65625-0.375 1.1562z"/>
</symbol>
<symbol id="ay" overflow="visible">
<path d="m-7.3438-7.0938h1.8438c-0.21875 0.52344-0.37891 1.0273-0.48438 1.5156-0.11328 0.48047-0.17188 0.93359-0.17188 1.3594 0 0.46094 0.058594 0.80469 0.17188 1.0312 0.11719 0.21875 0.29297 0.32812 0.53125 0.32812 0.19922 0 0.35156-0.082031 0.45312-0.25 0.10547-0.16406 0.18359-0.47266 0.23438-0.92188l0.0625-0.42188c0.15625-1.2383 0.41797-2.0703 0.78125-2.5 0.35547-0.42578 0.91797-0.64062 1.6875-0.64062 0.8125 0 1.4219 0.29688 1.8281 0.89062s0.60938 1.4844 0.60938 2.6719c0 0.5-0.042969 1.0156-0.125 1.5469-0.082031 0.53125-0.20312 1.0859-0.35938 1.6562h-1.8438c0.24219-0.48828 0.41797-0.98438 0.53125-1.4844 0.11719-0.50781 0.17188-1.0312 0.17188-1.5625 0-0.46875-0.0625-0.82031-0.1875-1.0625-0.13281-0.23828-0.32812-0.35938-0.57812-0.35938-0.21875 0-0.37891 0.085937-0.48438 0.25-0.10156 0.16797-0.1875 0.49609-0.25 0.98438l-0.0625 0.42188c-0.13281 1.0859-0.38281 1.8438-0.75 2.2812-0.36328 0.42969-0.91406 0.64062-1.6562 0.64062-0.80078 0-1.3945-0.27344-1.7812-0.82812-0.39453-0.55078-0.59375-1.3945-0.59375-2.5312 0-0.44531 0.039063-0.91406 0.10938-1.4062 0.0625-0.48828 0.16797-1.0234 0.3125-1.6094z"/>
</symbol>
<symbol id="ax" overflow="visible">
<path d="m-6.0312-4.7812c0 0.54297 0.19531 0.95312 0.57812 1.2344 0.38672 0.28125 0.94531 0.42188 1.6719 0.42188 0.73047 0 1.2891-0.14062 1.6719-0.42188 0.38672-0.28125 0.57812-0.69141 0.57812-1.2344 0-0.51953-0.19141-0.92188-0.57812-1.2031-0.38281-0.28125-0.94141-0.42188-1.6719-0.42188-0.72656 0-1.2852 0.14062-1.6719 0.42188-0.38281 0.28125-0.57812 0.68359-0.57812 1.2031zm-1.7344 0c0-1.3008 0.35547-2.3164 1.0625-3.0469 0.69922-0.73828 1.6719-1.1094 2.9219-1.1094 1.2422 0 2.2148 0.37109 2.9219 1.1094 0.71094 0.73047 1.0625 1.7461 1.0625 3.0469 0 1.3125-0.35156 2.3398-1.0625 3.0781-0.70703 0.74219-1.6797 1.1094-2.9219 1.1094-1.25 0-2.2227-0.36719-2.9219-1.1094-0.70703-0.73828-1.0625-1.7656-1.0625-3.0781z"/>
</symbol>
<symbol id="as" overflow="visible">
<path d="m-10.531-1.1875v-2.875h0.96875v1.625h10.422v-1.625h0.96875v2.875z"/>
</symbol>
<symbol id="am" overflow="visible">
<path d="m-4.4531-10.094c0 0.39844 0.17188 0.71094 0.51562 0.9375 0.33594 0.21875 0.79688 0.32812 1.3906 0.32812 0.58594 0 1.0469-0.10938 1.3906-0.32812 0.33594-0.22656 0.5-0.53906 0.5-0.9375 0-0.375-0.16406-0.67188-0.5-0.89062-0.34375-0.22656-0.80469-0.34375-1.3906-0.34375-0.59375 0-1.0547 0.11719-1.3906 0.34375-0.34375 0.21875-0.51562 0.51562-0.51562 0.89062zm-0.85938 0c0-0.70703 0.25-1.2695 0.75-1.6875 0.5-0.42578 1.1719-0.64062 2.0156-0.64062s1.5156 0.21484 2.0156 0.64062c0.49219 0.41797 0.73438 0.98047 0.73438 1.6875 0 0.73047-0.24219 1.3047-0.73438 1.7188-0.5 0.41797-1.1719 0.625-2.0156 0.625-0.85156 0-1.5234-0.20703-2.0156-0.625-0.5-0.42578-0.75-1-0.75-1.7188zm-4.1094 7c0 0.38672 0.16797 0.69531 0.5 0.92188 0.33594 0.21875 0.79688 0.32812 1.3906 0.32812s1.0586-0.10938 1.3906-0.32812c0.33594-0.21875 0.5-0.52344 0.5-0.92188 0-0.39453-0.16406-0.70312-0.5-0.92188-0.33203-0.22656-0.79688-0.34375-1.3906-0.34375-0.58203 0-1.0391 0.11719-1.375 0.34375-0.34375 0.23047-0.51562 0.53906-0.51562 0.92188zm-0.85938-6.125v-1.0781l10.484 6.3281v1.0781zm0 6.125c0-0.71875 0.25-1.2852 0.75-1.7031 0.49219-0.42578 1.1562-0.64062 2-0.64062s1.5156 0.21484 2.0156 0.64062c0.49219 0.41797 0.73438 0.98438 0.73438 1.7031s-0.24219 1.2891-0.73438 1.7031c-0.5 0.41797-1.1719 0.625-2.0156 0.625s-1.5078-0.20703-2-0.625c-0.5-0.42578-0.75-0.99219-0.75-1.7031z"/>
</symbol>
<symbol id="n" overflow="visible"></symbol>
<symbol id="al" overflow="visible">
<path d="m-7.5781-1.3125v-1.2344h7.5781v1.2344zm-2.9531 0v-1.2344h1.5781v1.2344z"/>
</symbol>
<symbol id="ak" overflow="visible">
<path d="m-4.5781-7.6094h4.5781v1.2344h-4.5312c-0.71875 0-1.2539 0.14062-1.6094 0.42188-0.35156 0.28125-0.53125 0.70312-0.53125 1.2656 0 0.67969 0.21484 1.2109 0.64062 1.5938 0.42969 0.38672 1.0117 0.57812 1.75 0.57812h4.2812v1.25h-7.5781v-1.25h1.1719c-0.44531-0.28906-0.78516-0.64062-1.0156-1.0469-0.22656-0.40625-0.34375-0.875-0.34375-1.4062 0-0.875 0.27344-1.5312 0.8125-1.9688 0.54297-0.44531 1.3359-0.67188 2.375-0.67188z"/>
</symbol>
<symbol id="aj" overflow="visible">
<path d="m-6.4219-6.2969h-4.1094v-1.25h10.531v1.25h-1.1406c0.46094 0.26172 0.79688 0.59375 1.0156 1 0.21875 0.39844 0.32812 0.87109 0.32812 1.4219 0 0.91797-0.36328 1.668-1.0938 2.25-0.73828 0.57422-1.7031 0.85938-2.8906 0.85938s-2.1445-0.28516-2.875-0.85938c-0.73828-0.58203-1.1094-1.332-1.1094-2.25 0-0.55078 0.10938-1.0234 0.32812-1.4219 0.21875-0.40625 0.55859-0.73828 1.0156-1zm2.6406 4.25c0.91797 0 1.6367-0.1875 2.1562-0.5625 0.52344-0.38281 0.78125-0.90625 0.78125-1.5625s-0.25781-1.1719-0.78125-1.5469c-0.51953-0.38281-1.2383-0.57812-2.1562-0.57812-0.91406 0-1.6328 0.19531-2.1562 0.57812-0.51953 0.375-0.78125 0.89062-0.78125 1.5469s0.26172 1.1797 0.78125 1.5625c0.52344 0.375 1.2422 0.5625 2.1562 0.5625z"/>
</symbol>
<symbol id="m" overflow="visible">
<path d="m-4.0938-7.7969h0.60938v5.7344c0.85547-0.050781 1.5078-0.30469 1.9531-0.76562 0.44922-0.46875 0.67188-1.1172 0.67188-1.9531 0-0.47656-0.054687-0.94141-0.17188-1.3906-0.125-0.44531-0.30078-0.89062-0.53125-1.3281h1.1719c0.19922 0.44922 0.34375 0.90625 0.4375 1.375 0.10156 0.46875 0.15625 0.94531 0.15625 1.4219 0 1.2109-0.35156 2.168-1.0625 2.875-0.70703 0.71094-1.6602 1.0625-2.8594 1.0625-1.2383 0-2.2227-0.33203-2.9531-1-0.72656-0.67578-1.0938-1.582-1.0938-2.7188 0-1.0195 0.32812-1.8281 0.98438-2.4219s1.5547-0.89062 2.6875-0.89062zm-0.375 1.25c-0.67578 0.011719-1.2188 0.20312-1.625 0.57812-0.40625 0.36719-0.60938 0.85547-0.60938 1.4688 0 0.69922 0.19922 1.2578 0.59375 1.6719 0.38672 0.41797 0.9375 0.65625 1.6562 0.71875z"/>
</symbol>
<symbol id="s" overflow="visible">
<path d="m-6.4219-5.7031c-0.070313 0.13672-0.12891 0.28906-0.17188 0.45312-0.039062 0.16797-0.0625 0.35156-0.0625 0.54688 0 0.71094 0.23047 1.25 0.6875 1.625 0.46094 0.375 1.1172 0.5625 1.9688 0.5625h4v1.25h-7.5781v-1.25h1.1719c-0.45703-0.25781-0.79688-0.59766-1.0156-1.0156-0.22656-0.42578-0.34375-0.9375-0.34375-1.5312 0-0.09375 0.007813-0.19141 0.015625-0.29688 0.011719-0.10156 0.03125-0.21875 0.0625-0.34375z"/>
</symbol>
<symbol id="ai" overflow="visible">
<path d="m-8.75-4.75 5.0156 1.8594v-3.7188zm-1.3594 0.78125v-1.5469l10.109-3.8594v1.4219l-2.5938 0.92188v4.5625l2.5938 0.92188v1.4375z"/>
</symbol>
<symbol id="ar" overflow="visible">
<path d="m-10.531-1.3125v-1.2344h10.531v1.2344z"/>
</symbol>
<symbol id="t" overflow="visible">
<path d="m-9.7344-2.5469h2.1562v-2.5625h0.96875v2.5625h4.1094c0.625 0 1.0273-0.082031 1.2031-0.25 0.16797-0.16406 0.25-0.50781 0.25-1.0312v-1.2812h1.0469v1.2812c0 0.96094-0.17578 1.625-0.53125 2-0.36328 0.36719-1.0195 0.54688-1.9688 0.54688h-4.1094v0.90625h-0.96875v-0.90625h-2.1562z"/>
</symbol>
<symbol id="aq" overflow="visible">
<path d="m-7.3594-6.1406h1.1875c-0.1875 0.35547-0.32031 0.71875-0.40625 1.0938-0.09375 0.375-0.14062 0.76562-0.14062 1.1719 0 0.625 0.09375 1.0938 0.28125 1.4062 0.1875 0.30469 0.47656 0.45312 0.85938 0.45312 0.28125 0 0.50781-0.10938 0.67188-0.32812 0.16797-0.21875 0.32422-0.66016 0.46875-1.3281l0.09375-0.4375c0.19922-0.88281 0.46875-1.5078 0.8125-1.875 0.34375-0.375 0.82422-0.5625 1.4375-0.5625 0.71094 0 1.2734 0.28125 1.6875 0.84375 0.40625 0.55469 0.60938 1.3125 0.60938 2.2812 0 0.40625-0.042969 0.83594-0.125 1.2812-0.082031 0.4375-0.20312 0.90234-0.35938 1.3906h-1.2812c0.24219-0.45703 0.42188-0.91016 0.54688-1.3594 0.11719-0.44531 0.17188-0.89062 0.17188-1.3281 0-0.59375-0.097656-1.0469-0.29688-1.3594-0.20703-0.3125-0.49219-0.46875-0.85938-0.46875-0.33203 0-0.58594 0.11719-0.76562 0.34375-0.1875 0.21875-0.36328 0.71875-0.53125 1.5l-0.09375 0.42188c-0.16406 0.77344-0.41406 1.3281-0.75 1.6719-0.34375 0.34375-0.80469 0.51562-1.3906 0.51562-0.70703 0-1.2539-0.25-1.6406-0.75-0.39453-0.50781-0.59375-1.2266-0.59375-2.1562 0-0.45703 0.039063-0.89062 0.10938-1.2969 0.0625-0.40625 0.16406-0.78125 0.29688-1.125z"/>
</symbol>
<symbol id="ap" overflow="visible">
<path d="m-2.9844-1.1719h-4.5938v-1.25h4.5469c0.71094 0 1.2461-0.14062 1.6094-0.42188 0.35547-0.28125 0.53125-0.70312 0.53125-1.2656 0-0.66406-0.21094-1.1914-0.64062-1.5781-0.42578-0.39453-1.0078-0.59375-1.75-0.59375h-4.2969v-1.25h7.5781v1.25h-1.1562c0.46094 0.30469 0.80469 0.65234 1.0312 1.0469 0.21875 0.39844 0.32812 0.85938 0.32812 1.3906 0 0.875-0.26953 1.543-0.8125 2-0.53906 0.44922-1.332 0.67188-2.375 0.67188z"/>
</symbol>
<symbol id="ao" overflow="visible">
<path d="m-10.531-5.1562h1.0312v1.2031c0 0.44922 0.09375 0.76172 0.28125 0.9375 0.17969 0.16797 0.5 0.25 0.96875 0.25h0.67188v-2.0469h0.96875v2.0469h6.6094v1.25h-6.6094v1.2031h-0.96875v-1.2031h-0.53125c-0.84375 0-1.457-0.19141-1.8438-0.57812-0.38281-0.39453-0.57812-1.0195-0.57812-1.875z"/>
</symbol>
<symbol id="an" overflow="visible">
<path d="m-10.531-4.2188h12.359v2.875h-0.96875v-1.625h-10.422v1.625h-0.96875z"/>
</symbol>
</defs>
<path transform="matrix(1.733 0 0 1.7353 -17.935 -2.2534)" d="m63.242 11.324h170.73v156.35h-170.73z" fill="none" stroke="#000" stroke-width="1.5"/>
<path transform="matrix(1.733 0 0 1.7353 -17.935 -2.2534)" d="m238.39 100.05h110.55v67.629h-110.55z" fill="none" stroke="#000"/>
<path transform="matrix(1.733 0 0 1.7353 -17.935 -2.2534)" d="m233.97 167.68h-174.02" fill="none" stroke="#000" stroke-width=".75"/>
<path transform="matrix(1.733 0 0 1.7353 -17.935 -2.2534)" d="m233.97 167.68h-174.02" fill="none" stroke="#000" stroke-width=".75"/>
<path transform="matrix(1.733 0 0 1.7353 -17.935 -2.2534)" d="m233.97 148.13h-174.02" fill="none" stroke="#000" stroke-width=".75"/>
<path transform="matrix(1.733 0 0 1.7353 -17.935 -2.2534)" d="m233.97 128.59h-174.02" fill="none" stroke="#000" stroke-width=".75"/>
<path transform="matrix(1.733 0 0 1.7353 -17.935 -2.2534)" d="m233.97 109.04h-174.02" fill="none" stroke="#000" stroke-width=".75"/>
<path transform="matrix(1.733 0 0 1.7353 -17.935 -2.2534)" d="m233.97 89.501h-174.02" fill="none" stroke="#000" stroke-width=".75"/>
<path transform="matrix(1.733 0 0 1.7353 -17.935 -2.2534)" d="m233.97 69.956h-174.02" fill="none" stroke="#000" stroke-width=".75"/>
<path transform="matrix(1.733 0 0 1.7353 -17.935 -2.2534)" d="m233.97 50.413h-174.02" fill="none" stroke="#000" stroke-width=".75"/>
<path transform="matrix(1.733 0 0 1.7353 -17.935 -2.2534)" d="m233.97 30.868h-174.02" fill="none" stroke="#000" stroke-width=".75"/>
<path transform="matrix(1.733 0 0 1.7353 -17.935 -2.2534)" d="m233.97 11.324h-174.02" fill="none" stroke="#000" stroke-width=".75"/>
<path transform="matrix(1.733 0 0 1.7353 -17.935 -2.2534)" d="m63.242 11.324v159.21" fill="none" stroke="#000" stroke-width=".75"/>
<path transform="matrix(1.733 0 0 1.7353 -17.935 -2.2534)" d="m97.389 11.324v159.21" fill="none" stroke="#000" stroke-width=".75"/>
<path transform="matrix(1.733 0 0 1.7353 -17.935 -2.2534)" d="m131.54 11.324v159.21" fill="none" stroke="#000" stroke-width=".75"/>
<path transform="matrix(1.733 0 0 1.7353 -17.935 -2.2534)" d="m165.68 11.324v159.21" fill="none" stroke="#000" stroke-width=".75"/>
<path transform="matrix(1.733 0 0 1.7353 -17.935 -2.2534)" d="m199.83 11.324v159.21" fill="none" stroke="#000" stroke-width=".75"/>
<path transform="matrix(1.733 0 0 1.7353 -17.935 -2.2534)" d="m233.97 11.324v159.21" fill="none" stroke="#000" stroke-width=".75"/>
<g>
<use x="162.527344" y="347.032032" xlink:href="#br"/>
<use x="178.123965" y="347.032032" xlink:href="#bo"/>
<use x="185.055797" y="347.032032" xlink:href="#bn"/>
<use x="193.720587" y="347.032032" xlink:href="#ah"/>
<use x="205.851293" y="347.032032" xlink:href="#ag"/>
<use x="214.516082" y="347.032032" xlink:href="#af"/>
<use x="221.447914" y="347.032032" xlink:href="#bm"/>
<use x="228.379746" y="347.032032" xlink:href="#ae"/>
<use x="242.24341" y="347.032032" xlink:href="#af"/>
<use x="249.175241" y="347.032032" xlink:href="#bl"/>
<use x="256.107073" y="347.032032" xlink:href="#bq"/>
<use x="268.237779" y="347.032032" xlink:href="#bp"/>
<use x="282.101443" y="347.032032" xlink:href="#ag"/>
<use x="290.766232" y="347.032032" xlink:href="#ah"/>
<use x="302.896938" y="347.032032" xlink:href="#ae"/>
</g>
<g>
<use x="71.398437" y="317.44491" xlink:href="#r"/>
<use x="80.063227" y="317.44491" xlink:href="#c"/>
<use x="88.728017" y="317.44491" xlink:href="#e"/>
<use x="93.926891" y="317.44491" xlink:href="#i"/>
<use x="102.591681" y="317.44491" xlink:href="#r"/>
</g>
<g>
<use x="130.574219" y="317.44491" xlink:href="#i"/>
<use x="139.239009" y="317.44491" xlink:href="#i"/>
<use x="147.903798" y="317.44491" xlink:href="#e"/>
<use x="153.102672" y="317.44491" xlink:href="#d"/>
<use x="161.767462" y="317.44491" xlink:href="#d"/>
</g>
<g>
<use x="187.417969" y="317.44491" xlink:href="#d"/>
<use x="196.082759" y="317.44491" xlink:href="#c"/>
<use x="204.747548" y="317.44491" xlink:href="#e"/>
<use x="209.946422" y="317.44491" xlink:href="#e"/>
<use x="215.145296" y="317.44491" xlink:href="#c"/>
<use x="223.810086" y="317.44491" xlink:href="#d"/>
</g>
<g>
<use x="248.894531" y="317.44491" xlink:href="#c"/>
<use x="257.559321" y="317.44491" xlink:href="#c"/>
<use x="266.224111" y="317.44491" xlink:href="#e"/>
<use x="271.422985" y="317.44491" xlink:href="#p"/>
<use x="280.087774" y="317.44491" xlink:href="#d"/>
</g>
<g>
<use x="308.21875" y="317.44491" xlink:href="#p"/>
<use x="316.88354" y="317.44491" xlink:href="#c"/>
<use x="325.54833" y="317.44491" xlink:href="#e"/>
<use x="330.747203" y="317.44491" xlink:href="#x"/>
<use x="339.411993" y="317.44491" xlink:href="#bb"/>
</g>
<g>
<use x="373.167969" y="317.44491" xlink:href="#w"/>
<use x="381.832759" y="317.44491" xlink:href="#b"/>
<use x="390.497548" y="317.44491" xlink:href="#bk"/>
</g>
<g>
<use x="68.742188" y="293.776941" xlink:href="#b"/>
</g>
<g>
<use x="59.921875" y="259.862879" xlink:href="#r"/>
<use x="68.586665" y="259.862879" xlink:href="#b"/>
</g>
<g>
<use x="59.921875" y="225.94491" xlink:href="#i"/>
<use x="68.586665" y="225.94491" xlink:href="#b"/>
</g>
<g>
<use x="59.921875" y="158.112879" xlink:href="#d"/>
<use x="68.586665" y="158.112879" xlink:href="#b"/>
</g>
<g>
<use x="59.921875" y="124.198816" xlink:href="#c"/>
<use x="68.586665" y="124.198816" xlink:href="#b"/>
</g>
<g>
<use x="59.921875" y="90.280848" xlink:href="#p"/>
<use x="68.586665" y="90.280848" xlink:href="#b"/>
</g>
<g>
<use x="59.921875" y="56.366785" xlink:href="#x"/>
<use x="68.586665" y="56.366785" xlink:href="#b"/>
</g>
<g>
<use x="59.921875" y="22.452723" xlink:href="#w"/>
<use x="68.586665" y="22.452723" xlink:href="#b"/>
</g>
<g>
<use x="59.921875" y="192.030848" xlink:href="#bj"/>
<use x="68.586665" y="192.030848" xlink:href="#b"/>
</g>
<g>
<use x="22.907629" y="232.09375" xlink:href="#ba"/>
<use x="22.907629" y="221.681661" xlink:href="#o"/>
<use x="22.907629" y="211.269571" xlink:href="#aw"/>
<use x="22.907629" y="204.328178" xlink:href="#h"/>
<use x="22.907629" y="195.651437" xlink:href="#av"/>
<use x="22.907629" y="190.445392" xlink:href="#au"/>
<use x="22.907629" y="185.239347" xlink:href="#v"/>
<use x="22.907629" y="180.033303" xlink:href="#at"/>
<use x="22.907629" y="169.621213" xlink:href="#h"/>
<use x="22.907629" y="160.944472" xlink:href="#u"/>
<use x="22.907629" y="154.003079" xlink:href="#v"/>
<use x="22.907629" y="148.797034" xlink:href="#az"/>
<use x="22.907629" y="138.384945" xlink:href="#h"/>
<use x="22.907629" y="129.708204" xlink:href="#u"/>
<use x="22.907629" y="122.766811" xlink:href="#ay"/>
<use x="22.907629" y="114.09007" xlink:href="#ax"/>
<use x="22.907629" y="105.413328" xlink:href="#o"/>
<use x="22.907629" y="95.001239" xlink:href="#h"/>
<use x="22.907629" y="86.324498" xlink:href="#o"/>
</g>
<g>
<use x="40.235754" y="224.285156" xlink:href="#as"/>
<use x="40.235754" y="219.079112" xlink:href="#am"/>
<use x="40.235754" y="205.196326" xlink:href="#n"/>
<use x="40.235754" y="199.990281" xlink:href="#al"/>
<use x="40.235754" y="196.519584" xlink:href="#ak"/>
<use x="40.235754" y="187.842843" xlink:href="#n"/>
<use x="40.235754" y="182.636798" xlink:href="#aj"/>
<use x="40.235754" y="173.960057" xlink:href="#m"/>
<use x="40.235754" y="165.283316" xlink:href="#s"/>
<use x="40.235754" y="160.077271" xlink:href="#n"/>
<use x="40.235754" y="154.871227" xlink:href="#ai"/>
<use x="40.235754" y="146.194485" xlink:href="#ar"/>
<use x="40.235754" y="142.723789" xlink:href="#t"/>
<use x="40.235754" y="137.517744" xlink:href="#m"/>
<use x="40.235754" y="128.841003" xlink:href="#s"/>
<use x="40.235754" y="123.634958" xlink:href="#aq"/>
<use x="40.235754" y="116.693565" xlink:href="#t"/>
<use x="40.235754" y="111.487521" xlink:href="#ap"/>
<use x="40.235754" y="102.810779" xlink:href="#ao"/>
<use x="40.235754" y="97.604735" xlink:href="#m"/>
<use x="40.235754" y="88.927993" xlink:href="#an"/>
</g>
<g>
<use x="428.59375" y="207.331629" xlink:href="#ad"/>
<use x="437.25854" y="207.331629" xlink:href="#a"/>
<use x="445.92333" y="207.331629" xlink:href="#q"/>
<use x="454.588119" y="207.331629" xlink:href="#a"/>
<use x="463.252909" y="207.331629" xlink:href="#g"/>
<use x="468.451783" y="207.331629" xlink:href="#a"/>
<use x="477.116573" y="207.331629" xlink:href="#ac"/>
<use x="480.582489" y="207.331629" xlink:href="#ac"/>
<use x="484.048405" y="207.331629" xlink:href="#l"/>
<use x="489.247278" y="207.331629" xlink:href="#ab"/>
<use x="497.912068" y="207.331629" xlink:href="#a"/>
<use x="506.576858" y="207.331629" xlink:href="#k"/>
<use x="515.241648" y="207.331629" xlink:href="#f"/>
<use x="518.707564" y="207.331629" xlink:href="#q"/>
<use x="527.372353" y="207.331629" xlink:href="#aa"/>
<use x="536.037143" y="207.331629" xlink:href="#a"/>
<use x="544.701933" y="207.331629" xlink:href="#g"/>
<use x="549.900807" y="207.331629" xlink:href="#j"/>
</g>
<g>
<use x="428.59375" y="232.901941" xlink:href="#bi"/>
<use x="435.525582" y="232.901941" xlink:href="#z"/>
<use x="442.457414" y="232.901941" xlink:href="#k"/>
<use x="451.122203" y="232.901941" xlink:href="#y"/>
<use x="463.252909" y="232.901941" xlink:href="#a"/>
<use x="471.917699" y="232.901941" xlink:href="#g"/>
<use x="477.116573" y="232.901941" xlink:href="#l"/>
<use x="482.315447" y="232.901941" xlink:href="#ab"/>
<use x="490.980236" y="232.901941" xlink:href="#a"/>
<use x="499.645026" y="232.901941" xlink:href="#k"/>
<use x="508.309816" y="232.901941" xlink:href="#f"/>
<use x="511.775732" y="232.901941" xlink:href="#q"/>
<use x="520.440522" y="232.901941" xlink:href="#aa"/>
<use x="529.105311" y="232.901941" xlink:href="#a"/>
<use x="537.770101" y="232.901941" xlink:href="#g"/>
<use x="542.968975" y="232.901941" xlink:href="#j"/>
</g>
<g>
<use x="428.59375" y="258.47616" xlink:href="#bh"/>
<use x="437.25854" y="258.47616" xlink:href="#z"/>
<use x="444.190372" y="258.47616" xlink:href="#k"/>
<use x="452.855161" y="258.47616" xlink:href="#y"/>
<use x="464.985867" y="258.47616" xlink:href="#f"/>
<use x="468.451783" y="258.47616" xlink:href="#a"/>
<use x="477.116573" y="258.47616" xlink:href="#g"/>
<use x="482.315447" y="258.47616" xlink:href="#f"/>
<use x="485.781362" y="258.47616" xlink:href="#ad"/>
<use x="494.446152" y="258.47616" xlink:href="#bg"/>
<use x="501.377984" y="258.47616" xlink:href="#a"/>
<use x="510.042774" y="258.47616" xlink:href="#f"/>
<use x="513.50869" y="258.47616" xlink:href="#j"/>
<use x="518.707564" y="258.47616" xlink:href="#l"/>
<use x="523.906437" y="258.47616" xlink:href="#bf"/>
<use x="537.770101" y="258.47616" xlink:href="#f"/>
<use x="541.236017" y="258.47616" xlink:href="#j"/>
<use x="546.434891" y="258.47616" xlink:href="#l"/>
<use x="551.633765" y="258.47616" xlink:href="#be"/>
<use x="560.298555" y="258.47616" xlink:href="#bd"/>
<use x="570.696302" y="258.47616" xlink:href="#bc"/>
</g>
<path transform="matrix(1.733 0 0 1.7353 -16.732 0)" d="m62.548 166.38 34.147-2.6314 34.147-3.5318 34.145-5.5082 34.147-8.9567 34.145-33.096" fill="none" stroke="#d40000" stroke-width=".75"/>
<path transform="matrix(1.733 0 0 1.7353 -16.732 0)" d="m240.28 146.29h11.908" fill="none" stroke="#d40000" stroke-width=".75"/>
<path transform="matrix(1.733 0 0 1.7353 -16.732 0)" d="m240.28 131.28h11.908" fill="none" stroke="#338000" stroke-width=".75"/>
<path transform="matrix(1.733 0 0 1.7353 -16.732 0)" d="m240.28 117.79h11.908" fill="none" stroke="#00a" stroke-width=".75"/>
<path transform="matrix(1.733 0 0 1.7353 -16.732 0)" d="m62.548 160.18 34.147-6.4806 34.147-9.7288 34.145-20.223 34.147-11.883 34.145-50.449" fill="none" stroke="#338000" stroke-width=".75"/>
<path transform="matrix(1.733 0 0 1.7353 -16.732 0)" d="m62.548 142.75c16.534-1.3709 29.815-3.1491 34.147-6.0439 7.017-1.5307 18.166-7.6151 34.147-19.023 3.176-0.40518 21.829-13.979 34.145-22.172 13.482-8.7676 27.917-13.126 34.147-22.084 13.25-13.749 22.733-31.23 34.145-46.951" fill="none" stroke="#00a" stroke-width=".75"/>
<path d="m85.617 292h11.406l-5.5078-9.5508z" fill="#d40000"/>
<path d="m145.13 287.12h11.406l-5.5078-9.5508z" fill="#d40000"/>
<path d="m204.31 282.8h11.402l-5.5039-9.5547z" fill="#d40000"/>
<path d="m263.48 273.24h11.406l-5.5078-9.5508z" fill="#d40000"/>
<path d="m322.66 257.7h11.406l-5.5078-9.5508z" fill="#d40000"/>
<path d="m381.83 200.51h11.402l-5.5078-9.5508z" fill="#d40000"/>
<path d="m404.29 257.98h11.402l-5.5039-9.5508z" fill="#d40000"/>
<path d="m96.57 277.96c0 2.7148-2.1992 4.918-4.9102 4.918-2.7109 0-4.9062-2.2031-4.9062-4.918s2.1953-4.9141 4.9062-4.9141c2.7109 0 4.9102 2.1992 4.9102 4.9141z" fill="#338000"/>
<path d="m155.75 266.72c0 2.7148-2.1992 4.918-4.9102 4.918-2.7109 0-4.9102-2.2031-4.9102-4.918s2.1992-4.9141 4.9102-4.9141c2.7109 0 4.9102 2.1992 4.9102 4.9141z" fill="#338000"/>
<path d="m214.92 249.84c0 2.7148-2.1953 4.9141-4.9062 4.9141-2.7109 0-4.9102-2.1992-4.9102-4.9141 0-2.7148 2.1992-4.9141 4.9102-4.9141 2.7109 0 4.9062 2.1992 4.9062 4.9141z" fill="#338000"/>
<path d="m274.09 214.74c0 2.7148-2.1992 4.9141-4.9102 4.9141-2.7109 0-4.9062-2.1992-4.9062-4.9141 0-2.7148 2.1953-4.9141 4.9062-4.9141 2.7109 0 4.9102 2.1992 4.9102 4.9141z" fill="#338000"/>
<path d="m333.27 194.12c0 2.7148-2.1953 4.9141-4.9062 4.9141s-4.9102-2.1992-4.9102-4.9141 2.1992-4.918 4.9102-4.918 4.9062 2.2031 4.9062 4.918z" fill="#338000"/>
<path d="m392.44 106.57c0 2.7148-2.1992 4.918-4.9102 4.918s-4.9062-2.2031-4.9062-4.918c0-2.7148 2.1953-4.9141 4.9062-4.9141s4.9102 2.1992 4.9102 4.9141z" fill="#338000"/>
<path d="m414.89 227.82c0 2.7148-2.1953 4.9141-4.9062 4.9141-2.7109 0-4.9102-2.1992-4.9102-4.9141 0-2.7148 2.1992-4.9141 4.9102-4.9141 2.7109 0 4.9062 2.1992 4.9062 4.9141z" fill="#338000"/>
<path d="m86.43 243.19h10.355v10.367h-10.355z" fill="#00a"/>
<path d="m145.66 232.05h10.352v10.367h-10.352z" fill="#00a"/>
<path d="m204.83 199.04h10.355v10.367h-10.355z" fill="#00a"/>
<path d="m264.01 160.56h10.352v10.367h-10.352z" fill="#00a"/>
<path d="m323.18 122.24h10.352v10.367h-10.352z" fill="#00a"/>
<path d="m382.36 40.762h10.355v10.367h-10.355z" fill="#00a"/>
<path d="m404.81 199.21h10.352v10.367h-10.352z" fill="#00a"/>
</svg>
