<?xml version="1.0" encoding="UTF-8"?>
<svg width="800px" height="483px" version="1.1" viewBox="0 0 800 483" xmlns="http://www.w3.org/2000/svg" xmlns:xlink="http://www.w3.org/1999/xlink">
<defs>
<symbol id="br" overflow="visible">
<path d="m13.578-3.375h-7.4688l-1.1875 3.375h-4.7969l6.8594-18.516h5.7031l6.8594 18.516h-4.7969zm-6.2812-3.4375h5.0781l-2.5312-7.3594z"/>
</symbol>
<symbol id="bo" overflow="visible">
<path d="m2.1406-19.297h4.4375v19.297h-4.4375z"/>
</symbol>
<symbol id="bn" overflow="visible">
<path d="m6.9844-17.844v3.9531h4.5781v3.1719h-4.5781v5.8906c0 0.64844 0.12891 1.0859 0.39062 1.3125 0.25781 0.23047 0.76953 0.34375 1.5312 0.34375h2.2812v3.1719h-3.8125c-1.7617 0-3.0078-0.36328-3.7344-1.0938-0.73047-0.73828-1.0938-1.9844-1.0938-3.7344v-5.8906h-2.2188v-3.1719h2.2188v-3.9531z"/>
</symbol>
<symbol id="ah" overflow="visible">
<path d="m16.016-6.9844v1.2656h-10.391c0.10156 1.043 0.47656 1.8242 1.125 2.3438 0.64453 0.52344 1.5469 0.78125 2.7031 0.78125 0.9375 0 1.8945-0.13281 2.875-0.40625 0.97656-0.28125 1.9883-0.70312 3.0312-1.2656v3.4219c-1.0547 0.39844-2.1055 0.69531-3.1562 0.89062-1.0547 0.20703-2.1055 0.3125-3.1562 0.3125-2.5117 0-4.4648-0.63281-5.8594-1.9062-1.3984-1.2812-2.0938-3.0781-2.0938-5.3906 0-2.2578 0.67969-4.0391 2.0469-5.3438 1.375-1.3008 3.2578-1.9531 5.6562-1.9531 2.1875 0 3.9375 0.66406 5.25 1.9844 1.3125 1.3125 1.9688 3.0703 1.9688 5.2656zm-4.5781-1.4688c0-0.84375-0.24609-1.5234-0.73438-2.0469-0.49219-0.51953-1.1328-0.78125-1.9219-0.78125-0.86719 0-1.5703 0.24609-2.1094 0.73438-0.53125 0.48047-0.86719 1.1797-1 2.0938z"/>
</symbol>
<symbol id="ag" overflow="visible">
<path d="m12.469-10.109c-0.39844-0.1875-0.78906-0.32031-1.1719-0.40625-0.38672-0.082031-0.77344-0.125-1.1562-0.125-1.1484 0-2.0273 0.36719-2.6406 1.0938-0.61719 0.73047-0.92188 1.7773-0.92188 3.1406v6.4062h-4.4375v-13.891h4.4375v2.2812c0.57031-0.90625 1.2266-1.5664 1.9688-1.9844 0.73828-0.42578 1.625-0.64062 2.6562-0.64062 0.15625 0 0.31641 0.011719 0.48438 0.03125 0.17578 0.011719 0.42969 0.039063 0.76562 0.078125z"/>
</symbol>
<symbol id="af" overflow="visible"></symbol>
<symbol id="bm" overflow="visible">
<path d="m2.1406-13.891h4.4375v13.891h-4.4375zm0-5.4062h4.4375v3.6094h-4.4375z"/>
</symbol>
<symbol id="ae" overflow="visible">
<path d="m16.109-8.4531v8.4531h-4.4688v-6.4688c0-1.207-0.027344-2.0352-0.078125-2.4844-0.054688-0.45703-0.14844-0.79688-0.28125-1.0156-0.17969-0.28125-0.41797-0.5-0.71875-0.65625-0.29297-0.16406-0.625-0.25-1-0.25-0.92969 0-1.6562 0.35938-2.1875 1.0781-0.53125 0.71094-0.79688 1.6992-0.79688 2.9688v6.8281h-4.4375v-13.891h4.4375v2.0312c0.66406-0.8125 1.375-1.4102 2.125-1.7969 0.75781-0.38281 1.5938-0.57812 2.5-0.57812 1.6016 0 2.8203 0.49609 3.6562 1.4844 0.83203 0.98047 1.25 2.4141 1.25 4.2969z"/>
</symbol>
<symbol id="bl" overflow="visible">
<path d="m2.3281-18.516h4.7812v16.719c0 2.3008-0.63281 4.0234-1.8906 5.1719-1.25 1.1445-3.1406 1.7188-5.6719 1.7188h-0.96875v-3.625h0.73438c1 0 1.75-0.27734 2.25-0.82812 0.50781-0.55469 0.76562-1.3633 0.76562-2.4375z"/>
</symbol>
<symbol id="bq" overflow="visible">
<path d="m8.3594-6.25c-0.92969 0-1.625 0.15625-2.0938 0.46875-0.46094 0.3125-0.6875 0.77734-0.6875 1.3906 0 0.5625 0.1875 1.0078 0.5625 1.3281 0.375 0.3125 0.89453 0.46875 1.5625 0.46875 0.84375 0 1.5469-0.29688 2.1094-0.89062 0.57031-0.60156 0.85938-1.3594 0.85938-2.2656v-0.5zm6.7969-1.6719v7.9219h-4.4844v-2.0625c-0.59375 0.84375-1.2656 1.4609-2.0156 1.8438-0.74219 0.38281-1.6406 0.57812-2.7031 0.57812-1.4492 0-2.6211-0.41406-3.5156-1.25-0.89844-0.84375-1.3438-1.9375-1.3438-3.2812 0-1.625 0.55469-2.8164 1.6719-3.5781 1.125-0.75781 2.8906-1.1406 5.2969-1.1406h2.6094v-0.34375c0-0.70703-0.27734-1.2227-0.82812-1.5469-0.55469-0.33203-1.418-0.5-2.5938-0.5-0.94922 0-1.8359 0.10156-2.6562 0.29688-0.82422 0.1875-1.5859 0.46875-2.2812 0.84375v-3.375c0.94531-0.23828 1.8984-0.41406 2.8594-0.53125 0.95703-0.125 1.9219-0.1875 2.8906-0.1875 2.5 0 4.3047 0.49609 5.4219 1.4844 1.1133 0.99219 1.6719 2.6016 1.6719 4.8281z"/>
</symbol>
<symbol id="bp" overflow="visible">
<path d="m16.109-8.4531v8.4531h-4.4688v-6.4531c0-1.2188-0.027344-2.0508-0.078125-2.5-0.054688-0.45703-0.14844-0.79688-0.28125-1.0156-0.17969-0.28125-0.41797-0.5-0.71875-0.65625-0.29297-0.16406-0.625-0.25-1-0.25-0.92969 0-1.6562 0.35938-2.1875 1.0781-0.53125 0.71094-0.79688 1.6992-0.79688 2.9688v6.8281h-4.4375v-19.297h4.4375v7.4375c0.66406-0.8125 1.375-1.4102 2.125-1.7969 0.75781-0.38281 1.5938-0.57812 2.5-0.57812 1.6016 0 2.8203 0.49609 3.6562 1.4844 0.83203 0.98047 1.25 2.4141 1.25 4.2969z"/>
</symbol>
<symbol id="r" overflow="visible">
<path d="m2.2969-1.5312h2.9688v-10.266l-3.2344 0.64062v-1.6562l3.2188-0.65625h1.8281v11.938h2.9688v1.5312h-7.75z"/>
</symbol>
<symbol id="c" overflow="visible">
<path d="m2-13.469h7.1562v1.5312h-5.4844v3.3125c0.25781-0.09375 0.51953-0.16016 0.78125-0.20312 0.26953-0.050781 0.53516-0.078125 0.79688-0.078125 1.5078 0 2.7031 0.41406 3.5781 1.2344 0.875 0.82422 1.3125 1.9453 1.3125 3.3594 0 1.4492-0.45312 2.5742-1.3594 3.375-0.89844 0.80469-2.168 1.2031-3.8125 1.2031-0.5625 0-1.1406-0.054687-1.7344-0.15625-0.58594-0.09375-1.1875-0.23438-1.8125-0.42188v-1.8281c0.53906 0.29297 1.0977 0.51172 1.6719 0.65625 0.58203 0.14844 1.1953 0.21875 1.8438 0.21875 1.0391 0 1.8633-0.26953 2.4688-0.8125 0.61328-0.55078 0.92188-1.2969 0.92188-2.2344s-0.30859-1.6797-0.92188-2.2344c-0.60547-0.55078-1.4297-0.82812-2.4688-0.82812-0.49219 0-0.98047 0.058594-1.4688 0.17188-0.48047 0.10547-0.96875 0.27344-1.4688 0.5z"/>
</symbol>
<symbol id="e" overflow="visible">
<path d="m0.90625-5.7969h4.8594v1.4844h-4.8594z"/>
</symbol>
<symbol id="i" overflow="visible">
<path d="m3.5469-1.5312h6.3594v1.5312h-8.5469v-1.5312c0.6875-0.71875 1.625-1.6758 2.8125-2.875 1.1953-1.207 1.9531-1.9883 2.2656-2.3438 0.58203-0.65625 0.98828-1.207 1.2188-1.6562 0.22656-0.45703 0.34375-0.90625 0.34375-1.3438 0-0.71875-0.25-1.3008-0.75-1.75-0.5-0.44531-1.1562-0.67188-1.9688-0.67188-0.5625 0-1.1641 0.10156-1.7969 0.29688-0.63672 0.19922-1.3203 0.5-2.0469 0.90625v-1.8438c0.73828-0.28906 1.4258-0.50781 2.0625-0.65625 0.63281-0.15625 1.2188-0.23438 1.75-0.23438 1.3945 0 2.5078 0.35156 3.3438 1.0469 0.83203 0.69922 1.25 1.6328 1.25 2.7969 0 0.55469-0.10547 1.0781-0.3125 1.5781-0.21094 0.49219-0.58984 1.0742-1.1406 1.75-0.14844 0.16797-0.625 0.66797-1.4375 1.5-0.80469 0.83594-1.9375 2-3.4062 3.5z"/>
</symbol>
<symbol id="d" overflow="visible">
<path d="m6.9844-11.875-4.6094 7.1875h4.6094zm-0.48438-1.5938h2.2969v8.7812h1.9219v1.5156h-1.9219v3.1719h-1.8125v-3.1719h-6.0781v-1.7656z"/>
</symbol>
<symbol id="p" overflow="visible">
<path d="m6.0938-7.4531c-0.8125 0-1.4609 0.28125-1.9375 0.84375-0.48047 0.55469-0.71875 1.3203-0.71875 2.2969 0 0.96094 0.23828 1.7188 0.71875 2.2812 0.47656 0.5625 1.125 0.84375 1.9375 0.84375 0.82031 0 1.4727-0.28125 1.9531-0.84375 0.47656-0.5625 0.71875-1.3203 0.71875-2.2812 0-0.97656-0.24219-1.7422-0.71875-2.2969-0.48047-0.5625-1.1328-0.84375-1.9531-0.84375zm3.625-5.7188v1.6719c-0.46094-0.21875-0.92188-0.38281-1.3906-0.5-0.46094-0.11328-0.91797-0.17188-1.375-0.17188-1.2109 0-2.1328 0.40625-2.7656 1.2188-0.63672 0.8125-0.99609 2.0391-1.0781 3.6719 0.35156-0.51953 0.79688-0.92188 1.3281-1.2031 0.53906-0.28125 1.1289-0.42188 1.7656-0.42188 1.3516 0 2.4219 0.41406 3.2031 1.2344 0.78906 0.82422 1.1875 1.9453 1.1875 3.3594 0 1.375-0.41406 2.4844-1.2344 3.3281-0.8125 0.83594-1.9023 1.25-3.2656 1.25-1.5547 0-2.7422-0.59375-3.5625-1.7812-0.82422-1.1953-1.2344-2.9297-1.2344-5.2031 0-2.125 0.50391-3.8164 1.5156-5.0781 1.0078-1.2695 2.3633-1.9062 4.0625-1.9062 0.45703 0 0.92188 0.046875 1.3906 0.14062 0.46875 0.085938 0.95312 0.21484 1.4531 0.39062z"/>
</symbol>
<symbol id="x" overflow="visible">
<path d="m1.5156-13.469h8.6719v0.78125l-4.9062 12.688h-1.8906l4.5938-11.938h-6.4688z"/>
</symbol>
<symbol id="bb" overflow="visible">
<path d="m2.0312-0.28125v-1.6562c0.45703 0.21875 0.92188 0.38672 1.3906 0.5 0.46875 0.11719 0.92578 0.17188 1.375 0.17188 1.207 0 2.1289-0.40625 2.7656-1.2188 0.63281-0.8125 0.99219-2.0391 1.0781-3.6875-0.34375 0.52344-0.78906 0.92188-1.3281 1.2031-0.53125 0.27344-1.1211 0.40625-1.7656 0.40625-1.3555 0-2.4219-0.40625-3.2031-1.2188s-1.1719-1.9258-1.1719-3.3438c0-1.3828 0.40625-2.4922 1.2188-3.3281 0.82031-0.83203 1.9102-1.25 3.2656-1.25 1.5625 0 2.75 0.60156 3.5625 1.7969 0.82031 1.1875 1.2344 2.918 1.2344 5.1875 0 2.125-0.50781 3.8242-1.5156 5.0938-1 1.2617-2.3516 1.8906-4.0469 1.8906-0.46094 0-0.92969-0.046875-1.4062-0.14062-0.46875-0.09375-0.95312-0.22656-1.4531-0.40625zm3.625-5.7031c0.82031 0 1.4727-0.28125 1.9531-0.84375 0.47656-0.5625 0.71875-1.3281 0.71875-2.2969s-0.24219-1.7344-0.71875-2.2969c-0.48047-0.5625-1.1328-0.84375-1.9531-0.84375-0.8125 0-1.4609 0.28125-1.9375 0.84375-0.48047 0.5625-0.71875 1.3281-0.71875 2.2969s0.23828 1.7344 0.71875 2.2969c0.47656 0.5625 1.125 0.84375 1.9375 0.84375z"/>
</symbol>
<symbol id="w" overflow="visible">
<path d="m5.875-6.3906c-0.86719 0-1.5469 0.23438-2.0469 0.70312-0.49219 0.46094-0.73438 1.0938-0.73438 1.9062s0.24219 1.4492 0.73438 1.9062c0.5 0.46094 1.1797 0.6875 2.0469 0.6875 0.86328 0 1.5469-0.22656 2.0469-0.6875 0.5-0.46875 0.75-1.1016 0.75-1.9062 0-0.8125-0.25-1.4453-0.75-1.9062-0.49219-0.46875-1.1719-0.70312-2.0469-0.70312zm-1.8281-0.78125c-0.78125-0.1875-1.3906-0.54688-1.8281-1.0781-0.42969-0.53906-0.64062-1.1953-0.64062-1.9688 0-1.0703 0.37891-1.9219 1.1406-2.5469 0.76953-0.625 1.8203-0.9375 3.1562-0.9375 1.3438 0 2.3945 0.3125 3.1562 0.9375 0.76953 0.625 1.1562 1.4766 1.1562 2.5469 0 0.77344-0.21875 1.4297-0.65625 1.9688-0.4375 0.53125-1.0469 0.89062-1.8281 1.0781 0.88281 0.21094 1.5703 0.60938 2.0625 1.2031 0.48828 0.59375 0.73438 1.3242 0.73438 2.1875 0 1.3047-0.40234 2.3047-1.2031 3-0.79297 0.69922-1.9336 1.0469-3.4219 1.0469-1.4922 0-2.6367-0.34766-3.4375-1.0469-0.79297-0.69531-1.1875-1.6953-1.1875-3 0-0.86328 0.24219-1.5938 0.73438-2.1875 0.5-0.59375 1.1875-0.99219 2.0625-1.2031zm-0.65625-2.875c0 0.69922 0.21094 1.2461 0.64062 1.6406 0.4375 0.38672 1.0508 0.57812 1.8438 0.57812 0.78125 0 1.3906-0.19141 1.8281-0.57812 0.44531-0.39453 0.67188-0.94141 0.67188-1.6406 0-0.69531-0.22656-1.2383-0.67188-1.625-0.4375-0.39453-1.0469-0.59375-1.8281-0.59375-0.79297 0-1.4062 0.19922-1.8438 0.59375-0.42969 0.38672-0.64062 0.92969-0.64062 1.625z"/>
</symbol>
<symbol id="b" overflow="visible">
<path d="m5.875-12.266c-0.9375 0-1.6484 0.46484-2.125 1.3906-0.46875 0.91797-0.70312 2.3047-0.70312 4.1562 0 1.8438 0.23438 3.2305 0.70312 4.1562 0.47656 0.91797 1.1875 1.375 2.125 1.375 0.94531 0 1.6562-0.45703 2.125-1.375 0.46875-0.92578 0.70312-2.3125 0.70312-4.1562 0-1.8516-0.23438-3.2383-0.70312-4.1562-0.46875-0.92578-1.1797-1.3906-2.125-1.3906zm0-1.4375c1.5078 0 2.6602 0.60156 3.4531 1.7969 0.80078 1.1875 1.2031 2.918 1.2031 5.1875 0 2.2734-0.40234 4.0078-1.2031 5.2031-0.79297 1.1875-1.9453 1.7812-3.4531 1.7812-1.5117 0-2.668-0.59375-3.4688-1.7812-0.79297-1.1953-1.1875-2.9297-1.1875-5.2031 0-2.2695 0.39453-4 1.1875-5.1875 0.80078-1.1953 1.957-1.7969 3.4688-1.7969z"/>
</symbol>
<symbol id="bk" overflow="visible">
<path d="m8.5-11.578v5.0156h5.0312v1.5469h-5.0312v5.0156h-1.5156v-5.0156h-5.0312v-1.5469h5.0312v-5.0156z"/>
</symbol>
<symbol id="bj" overflow="visible">
<path d="m7.5-7.2656c0.875 0.1875 1.5547 0.57812 2.0469 1.1719 0.48828 0.58594 0.73438 1.3125 0.73438 2.1875 0 1.3242-0.46094 2.3516-1.375 3.0781-0.91797 0.73047-2.2148 1.0938-3.8906 1.0938-0.57422 0-1.1641-0.058594-1.7656-0.17188-0.59375-0.11328-1.2109-0.28125-1.8438-0.5v-1.7656c0.50781 0.30469 1.0625 0.53125 1.6562 0.6875 0.60156 0.14844 1.2344 0.21875 1.8906 0.21875 1.1445 0 2.0156-0.22266 2.6094-0.67188 0.60156-0.45703 0.90625-1.1133 0.90625-1.9688 0-0.80078-0.28125-1.4258-0.84375-1.875-0.55469-0.44531-1.3242-0.67188-2.3125-0.67188h-1.5781v-1.4844h1.6406c0.89453 0 1.582-0.17578 2.0625-0.53125 0.47656-0.36328 0.71875-0.88281 0.71875-1.5625 0-0.6875-0.25-1.2109-0.75-1.5781-0.49219-0.375-1.1875-0.5625-2.0938-0.5625-0.5 0-1.0391 0.058594-1.6094 0.17188-0.57422 0.10547-1.2031 0.27344-1.8906 0.5v-1.625c0.69531-0.19531 1.3477-0.34375 1.9531-0.4375 0.60156-0.09375 1.1719-0.14062 1.7031-0.14062 1.3828 0 2.4766 0.3125 3.2812 0.9375 0.8125 0.625 1.2188 1.4766 1.2188 2.5469 0 0.75-0.21484 1.3828-0.64062 1.8906-0.42969 0.51172-1.0391 0.86719-1.8281 1.0625z"/>
</symbol>
<symbol id="ad" overflow="visible">
<path d="m8.3906-5.1719c0-1.1953-0.25-2.125-0.75-2.7812-0.49219-0.66406-1.1836-1-2.0781-1-0.89844 0-1.5938 0.33594-2.0938 1-0.49219 0.65625-0.73438 1.5859-0.73438 2.7812 0 1.1992 0.24219 2.1328 0.73438 2.7969 0.5 0.65625 1.1953 0.98438 2.0938 0.98438 0.89453 0 1.5859-0.32812 2.0781-0.98438 0.5-0.66406 0.75-1.5977 0.75-2.7969zm1.6562 3.9219c0 1.7188-0.38281 2.9922-1.1406 3.8281-0.76172 0.84375-1.9336 1.2656-3.5156 1.2656-0.58594 0-1.1367-0.046875-1.6562-0.14062-0.51172-0.085937-1.0117-0.21484-1.5-0.39062v-1.6094c0.48828 0.25781 0.96875 0.45312 1.4375 0.57812 0.47656 0.125 0.96875 0.1875 1.4688 0.1875 1.082 0 1.8945-0.28906 2.4375-0.85938 0.53906-0.5625 0.8125-1.418 0.8125-2.5625v-0.82812c-0.34375 0.59375-0.78906 1.043-1.3281 1.3438-0.53125 0.29297-1.168 0.4375-1.9062 0.4375-1.2422 0-2.2422-0.46875-3-1.4062-0.76172-0.94531-1.1406-2.2031-1.1406-3.7656s0.37891-2.8125 1.1406-3.75c0.75781-0.94531 1.7578-1.4219 3-1.4219 0.73828 0 1.375 0.15234 1.9062 0.45312 0.53906 0.29297 0.98438 0.73438 1.3281 1.3281v-1.5312h1.6562z"/>
</symbol>
<symbol id="a" overflow="visible">
<path d="m10.391-5.4688v0.8125h-7.6406c0.070312 1.1484 0.41406 2.0234 1.0312 2.625 0.625 0.59375 1.4844 0.89062 2.5781 0.89062 0.63281 0 1.25-0.078125 1.8438-0.23438 0.60156-0.15625 1.2031-0.39062 1.7969-0.70312v1.5625c-0.59375 0.25-1.2031 0.44531-1.8281 0.57812-0.625 0.13281-1.2617 0.20312-1.9062 0.20312-1.6172 0-2.8984-0.46875-3.8438-1.4062-0.9375-0.9375-1.4062-2.207-1.4062-3.8125 0-1.6562 0.44531-2.9688 1.3438-3.9375 0.89453-0.96875 2.0977-1.4531 3.6094-1.4531 1.3633 0 2.4414 0.4375 3.2344 1.3125 0.78906 0.875 1.1875 2.0625 1.1875 3.5625zm-1.6562-0.48438c-0.023437-0.90625-0.28125-1.6289-0.78125-2.1719-0.49219-0.53906-1.1406-0.8125-1.9531-0.8125-0.92969 0-1.6719 0.26172-2.2344 0.78125-0.55469 0.52344-0.87109 1.2617-0.95312 2.2188z"/>
</symbol>
<symbol id="q" overflow="visible">
<path d="m10.141-6.0938v6.0938h-1.6562v-6.0469c0-0.94531-0.1875-1.6602-0.5625-2.1406-0.375-0.47656-0.93359-0.71875-1.6719-0.71875-0.89844 0-1.6055 0.28906-2.125 0.85938-0.52344 0.57422-0.78125 1.3555-0.78125 2.3438v5.7031h-1.6719v-10.094h1.6719v1.5625c0.39453-0.60156 0.86328-1.0547 1.4062-1.3594 0.53906-0.30078 1.1602-0.45312 1.8594-0.45312 1.1641 0 2.0469 0.35938 2.6406 1.0781s0.89062 1.7773 0.89062 3.1719z"/>
</symbol>
<symbol id="g" overflow="visible">
<path d="m7.5938-8.5469c-0.1875-0.11328-0.39062-0.19141-0.60938-0.23438-0.21875-0.050781-0.46094-0.078125-0.71875-0.078125-0.9375 0-1.6641 0.30859-2.1719 0.92188-0.5 0.60547-0.75 1.4766-0.75 2.6094v5.3281h-1.6719v-10.094h1.6719v1.5625c0.35156-0.61328 0.80469-1.0664 1.3594-1.3594 0.5625-0.30078 1.2422-0.45312 2.0469-0.45312 0.11328 0 0.23828 0.011719 0.375 0.03125 0.14453 0.011719 0.30078 0.03125 0.46875 0.0625z"/>
</symbol>
<symbol id="ac" overflow="visible">
<path d="m1.7344-14.031h1.6719v14.031h-1.6719z"/>
</symbol>
<symbol id="l" overflow="visible"></symbol>
<symbol id="ab" overflow="visible">
<path d="m9-5.0469c0-1.2188-0.25781-2.1719-0.76562-2.8594-0.5-0.69531-1.1875-1.0469-2.0625-1.0469s-1.5703 0.35156-2.0781 1.0469c-0.5 0.6875-0.75 1.6406-0.75 2.8594 0 1.2305 0.25 2.1953 0.75 2.8906 0.50781 0.6875 1.2031 1.0312 2.0781 1.0312s1.5625-0.34375 2.0625-1.0312c0.50781-0.69531 0.76562-1.6602 0.76562-2.8906zm-5.6562-3.5156c0.35156-0.60156 0.79688-1.0508 1.3281-1.3438 0.53125-0.28906 1.1641-0.4375 1.9062-0.4375 1.2266 0 2.2227 0.49219 2.9844 1.4688 0.76953 0.96875 1.1562 2.2461 1.1562 3.8281 0 1.5938-0.38672 2.8828-1.1562 3.8594-0.76172 0.96875-1.7578 1.4531-2.9844 1.4531-0.74219 0-1.375-0.14844-1.9062-0.4375s-0.97656-0.73828-1.3281-1.3438v1.5156h-1.6719v-14.031h1.6719z"/>
</symbol>
<symbol id="k" overflow="visible">
<path d="m10.141-6.0938v6.0938h-1.6562v-6.0469c0-0.94531-0.1875-1.6602-0.5625-2.1406-0.375-0.47656-0.93359-0.71875-1.6719-0.71875-0.89844 0-1.6055 0.28906-2.125 0.85938-0.52344 0.57422-0.78125 1.3555-0.78125 2.3438v5.7031h-1.6719v-14.031h1.6719v5.5c0.39453-0.60156 0.86328-1.0547 1.4062-1.3594 0.53906-0.30078 1.1602-0.45312 1.8594-0.45312 1.1641 0 2.0469 0.35938 2.6406 1.0781s0.89062 1.7773 0.89062 3.1719z"/>
</symbol>
<symbol id="f" overflow="visible">
<path d="m1.7344-10.094h1.6719v10.094h-1.6719zm0-3.9375h1.6719v2.0938h-1.6719z"/>
</symbol>
<symbol id="aa" overflow="visible">
<path d="m8.3906-8.5625v-5.4688h1.6562v14.031h-1.6562v-1.5156c-0.34375 0.60547-0.78906 1.0547-1.3281 1.3438-0.53125 0.28906-1.168 0.4375-1.9062 0.4375-1.2188 0-2.2148-0.48438-2.9844-1.4531-0.77344-0.97656-1.1562-2.2656-1.1562-3.8594 0-1.582 0.38281-2.8594 1.1562-3.8281 0.76953-0.97656 1.7656-1.4688 2.9844-1.4688 0.73828 0 1.375 0.14844 1.9062 0.4375 0.53906 0.29297 0.98438 0.74219 1.3281 1.3438zm-5.6562 3.5156c0 1.2305 0.25 2.1953 0.75 2.8906 0.5 0.6875 1.1914 1.0312 2.0781 1.0312 0.875 0 1.5625-0.34375 2.0625-1.0312 0.50781-0.69531 0.76562-1.6602 0.76562-2.8906 0-1.2188-0.25781-2.1719-0.76562-2.8594-0.5-0.69531-1.1875-1.0469-2.0625-1.0469-0.88672 0-1.5781 0.35156-2.0781 1.0469-0.5 0.6875-0.75 1.6406-0.75 2.8594z"/>
</symbol>
<symbol id="j" overflow="visible">
<path d="m3.3906-12.969v2.875h3.4219v1.2812h-3.4219v5.4844c0 0.82422 0.10938 1.3555 0.32812 1.5938 0.22656 0.23047 0.6875 0.34375 1.375 0.34375h1.7188v1.3906h-1.7188c-1.2812 0-2.168-0.23828-2.6562-0.71875-0.48047-0.47656-0.71875-1.3477-0.71875-2.6094v-5.4844h-1.2188v-1.2812h1.2188v-2.875z"/>
</symbol>
<symbol id="bi" overflow="visible">
<path d="m8.1875-9.7969v1.5625c-0.46875-0.23828-0.96094-0.41406-1.4688-0.53125-0.5-0.125-1.0234-0.1875-1.5625-0.1875-0.82422 0-1.4453 0.125-1.8594 0.375-0.40625 0.25-0.60938 0.63281-0.60938 1.1406 0 0.38672 0.14453 0.6875 0.4375 0.90625 0.28906 0.21875 0.88281 0.42969 1.7812 0.625l0.5625 0.125c1.1758 0.25 2.0156 0.60938 2.5156 1.0781 0.5 0.46094 0.75 1.1016 0.75 1.9219 0 0.9375-0.375 1.6836-1.125 2.2344-0.74219 0.54297-1.7617 0.8125-3.0625 0.8125-0.54297 0-1.1055-0.054687-1.6875-0.15625-0.58594-0.10547-1.2031-0.26562-1.8594-0.48438v-1.7031c0.61328 0.3125 1.2188 0.55469 1.8125 0.71875 0.59375 0.15625 1.1797 0.23438 1.7656 0.23438 0.78906 0 1.3945-0.13281 1.8125-0.40625 0.41406-0.26953 0.625-0.64453 0.625-1.125 0-0.45703-0.15234-0.80469-0.45312-1.0469-0.30469-0.23828-0.96875-0.46875-2-0.6875l-0.57812-0.14062c-1.0234-0.21875-1.7617-0.55078-2.2188-1-0.46094-0.44531-0.6875-1.0625-0.6875-1.8438 0-0.94531 0.33203-1.6758 1-2.1875 0.67578-0.51953 1.6328-0.78125 2.875-0.78125 0.61328 0 1.1914 0.046875 1.7344 0.14062 0.53906 0.085937 1.0391 0.21875 1.5 0.40625z"/>
</symbol>
<symbol id="z" overflow="visible">
<path d="m9.0156-9.7188v1.5625c-0.46875-0.25781-0.94531-0.45312-1.4219-0.57812-0.46875-0.13281-0.94531-0.20312-1.4219-0.20312-1.0742 0-1.9141 0.34375-2.5156 1.0312-0.59375 0.67969-0.89062 1.6328-0.89062 2.8594 0 1.2422 0.29688 2.2031 0.89062 2.8906 0.60156 0.67969 1.4414 1.0156 2.5156 1.0156 0.47656 0 0.95312-0.0625 1.4219-0.1875 0.47656-0.13281 0.95312-0.33203 1.4219-0.59375v1.5312c-0.46094 0.21875-0.9375 0.38281-1.4375 0.48438-0.5 0.11328-1.0273 0.17188-1.5781 0.17188-1.5312 0-2.7461-0.47656-3.6406-1.4375-0.89844-0.95703-1.3438-2.25-1.3438-3.875 0-1.6445 0.45312-2.9375 1.3594-3.875 0.90625-0.94531 2.1445-1.4219 3.7188-1.4219 0.51953 0 1.0195 0.054688 1.5 0.15625 0.48828 0.10547 0.96094 0.26172 1.4219 0.46875z"/>
</symbol>
<symbol id="y" overflow="visible">
<path d="m0.78125-10.094h1.6562l2.0781 7.875 2.0625-7.875h1.9531l2.0781 7.875 2.0781-7.875h1.6562l-2.6406 10.094h-1.9688l-2.1719-8.2812-2.1875 8.2812h-1.9531z"/>
</symbol>
<symbol id="bh" overflow="visible">
<path d="m9.8906-13.016v1.7656c-0.6875-0.32031-1.3398-0.56641-1.9531-0.73438-0.61719-0.16406-1.2109-0.25-1.7812-0.25-0.99219 0-1.7578 0.19531-2.2969 0.57812-0.54297 0.38672-0.8125 0.93359-0.8125 1.6406 0 0.60547 0.17578 1.0586 0.53125 1.3594 0.36328 0.30469 1.0469 0.54688 2.0469 0.73438l1.0938 0.21875c1.3633 0.26172 2.3672 0.71875 3.0156 1.375 0.64453 0.64844 0.96875 1.5156 0.96875 2.6094 0 1.3047-0.4375 2.293-1.3125 2.9688-0.875 0.67969-2.1562 1.0156-3.8438 1.0156-0.64844 0-1.3281-0.074219-2.0469-0.21875-0.71875-0.14453-1.4648-0.35938-2.2344-0.64062v-1.875c0.73828 0.41797 1.4609 0.73047 2.1719 0.9375 0.71875 0.21094 1.4219 0.3125 2.1094 0.3125 1.0391 0 1.8438-0.20312 2.4062-0.60938s0.84375-0.98828 0.84375-1.75c0-0.66406-0.20312-1.1797-0.60938-1.5469-0.40625-0.375-1.0742-0.65625-2-0.84375l-1.1094-0.21875c-1.3555-0.26953-2.3398-0.69141-2.9531-1.2656-0.60547-0.58203-0.90625-1.3828-0.90625-2.4062 0-1.1953 0.41406-2.1328 1.25-2.8125 0.84375-0.6875 2.0039-1.0312 3.4844-1.0312 0.625 0 1.2656 0.058594 1.9219 0.17188 0.65625 0.11719 1.3281 0.28906 2.0156 0.51562z"/>
</symbol>
<symbol id="bg" overflow="visible">
<path d="m1.6719-14.031h1.6719v8.2812l4.9531-4.3438h2.125l-5.3594 4.7188 5.5938 5.375h-2.1719l-5.1406-4.9375v4.9375h-1.6719z"/>
</symbol>
<symbol id="bf" overflow="visible">
<path d="m9.6094-8.1562c0.41406-0.75 0.91016-1.3008 1.4844-1.6562 0.58203-0.35156 1.2656-0.53125 2.0469-0.53125 1.0508 0 1.8633 0.37109 2.4375 1.1094 0.57031 0.73047 0.85938 1.7773 0.85938 3.1406v6.0938h-1.6719v-6.0469c0-0.96875-0.17188-1.6875-0.51562-2.1562s-0.86719-0.70312-1.5625-0.70312c-0.86719 0-1.5469 0.28906-2.0469 0.85938-0.5 0.57422-0.75 1.3555-0.75 2.3438v5.7031h-1.6719v-6.0469c0-0.96875-0.17188-1.6875-0.51562-2.1562s-0.87109-0.70312-1.5781-0.70312c-0.85547 0-1.5312 0.29297-2.0312 0.875-0.5 0.57422-0.75 1.3516-0.75 2.3281v5.7031h-1.6719v-10.094h1.6719v1.5625c0.38281-0.61328 0.83594-1.0664 1.3594-1.3594 0.53125-0.30078 1.1602-0.45312 1.8906-0.45312 0.73828 0 1.3633 0.1875 1.875 0.5625 0.51953 0.375 0.89844 0.91797 1.1406 1.625z"/>
</symbol>
<symbol id="be" overflow="visible">
<path d="m6.3125-11.672-2.4688 6.7031h4.9531zm-1.0312-1.7969h2.0781l5.125 13.469h-1.8906l-1.2188-3.4531h-6.0781l-1.2344 3.4531h-1.9219z"/>
</symbol>
<symbol id="bd" overflow="visible">
<path d="m3.6406-11.969v10.469h2.2031c1.8516 0 3.2109-0.41406 4.0781-1.25 0.86328-0.84375 1.2969-2.1758 1.2969-4 0-1.8008-0.43359-3.1172-1.2969-3.9531-0.86719-0.84375-2.2266-1.2656-4.0781-1.2656zm-1.8281-1.5h3.75c2.6133 0 4.5312 0.54688 5.75 1.6406 1.2188 1.0859 1.8281 2.7773 1.8281 5.0781 0 2.3242-0.61719 4.0312-1.8438 5.125-1.2305 1.0859-3.1406 1.625-5.7344 1.625h-3.75z"/>
</symbol>
<symbol id="bc" overflow="visible">
<path d="m1.8125-13.469h1.8281v11.938h6.5625v1.5312h-8.3906z"/>
</symbol>
<symbol id="ba" overflow="visible">
<path d="m-2.4531-9.8594v5.4219l2.4531 0.85938v3.4844l-13.469-4.9844v-4.1406l13.469-4.9844v3.4844zm-2.5 4.5625v-3.6875l-5.3594 1.8281z"/>
</symbol>
<symbol id="o" overflow="visible">
<path d="m-6.1562-11.703h6.1562v3.25h-4.7188c-0.86328 0-1.4609 0.023437-1.7969 0.0625-0.33203 0.03125-0.57812 0.09375-0.73438 0.1875-0.20703 0.125-0.36719 0.29688-0.48438 0.51562-0.125 0.21875-0.1875 0.46875-0.1875 0.75 0 0.66797 0.26172 1.1953 0.78125 1.5781 0.52344 0.38672 1.2461 0.57812 2.1719 0.57812h4.9688v3.2344h-10.109v-3.2344h1.4844c-0.59375-0.48828-1.0312-1.0039-1.3125-1.5469-0.28125-0.55078-0.42188-1.1562-0.42188-1.8125 0-1.1641 0.35938-2.0508 1.0781-2.6562 0.71875-0.60156 1.7617-0.90625 3.125-0.90625z"/>
</symbol>
<symbol id="aw" overflow="visible">
<path d="m-12.984-5.0781h2.875v-3.3281h2.3125v3.3281h4.2812c0.46875 0 0.78906-0.09375 0.95312-0.28125 0.16797-0.1875 0.25-0.55469 0.25-1.1094v-1.6562h2.3125v2.7656c0 1.2812-0.26562 2.1875-0.79688 2.7188s-1.4375 0.79688-2.7188 0.79688h-4.2812v1.5938h-2.3125v-1.5938h-2.875z"/>
</symbol>
<symbol id="h" overflow="visible">
<path d="m-5.0781-11.641h0.92188v7.5625c0.75-0.082031 1.3203-0.35938 1.7031-0.82812 0.375-0.46875 0.5625-1.125 0.5625-1.9688 0-0.67578-0.097656-1.3672-0.29688-2.0781-0.19531-0.71875-0.50391-1.4531-0.92188-2.2031h2.5c0.28125 0.76172 0.49609 1.5273 0.64062 2.2969 0.15625 0.76172 0.23438 1.5234 0.23438 2.2812 0 1.8359-0.46094 3.2578-1.3906 4.2656-0.9375 1.0117-2.2422 1.5156-3.9219 1.5156-1.6445 0-2.9414-0.49219-3.8906-1.4844-0.94531-1-1.4219-2.3672-1.4219-4.1094 0-1.5938 0.48047-2.8633 1.4375-3.8125 0.96094-0.95703 2.2422-1.4375 3.8438-1.4375zm-1.0781 3.3281c-0.61328 0-1.1094 0.18359-1.4844 0.54688-0.375 0.35547-0.5625 0.82031-0.5625 1.3906 0 0.625 0.17969 1.1367 0.53125 1.5312 0.35547 0.38672 0.85938 0.625 1.5156 0.71875z"/>
</symbol>
<symbol id="av" overflow="visible">
<path d="m-10.109-1.5469v-3.2344h10.109v3.2344zm-3.9375 0v-3.2344h2.6406v3.2344z"/>
</symbol>
<symbol id="au" overflow="visible">
<path d="m-14.047-1.5469v-3.2344h14.047v3.2344z"/>
</symbol>
<symbol id="v" overflow="visible"></symbol>
<symbol id="at" overflow="visible">
<path d="m-8.625-8.4219h-5.4219v-3.25h14.047v3.25h-1.4688c0.60547 0.44922 1.0469 0.9375 1.3281 1.4688 0.26953 0.53125 0.40625 1.1523 0.40625 1.8594 0 1.2422-0.49219 2.2617-1.4844 3.0625-0.98828 0.80469-2.2656 1.2031-3.8281 1.2031s-2.8359-0.39844-3.8281-1.2031c-0.98828-0.80078-1.4844-1.8203-1.4844-3.0625 0-0.69531 0.14062-1.3125 0.42188-1.8438 0.28125-0.53906 0.71875-1.0352 1.3125-1.4844zm6.5469 2.125c0-0.6875-0.25-1.2109-0.75-1.5781-0.50781-0.36328-1.25-0.54688-2.2188-0.54688-0.95703 0-1.6875 0.18359-2.1875 0.54688-0.50781 0.36719-0.76562 0.89062-0.76562 1.5781s0.25781 1.2148 0.76562 1.5781c0.5 0.36719 1.2305 0.54688 2.1875 0.54688 0.96875 0 1.7109-0.17969 2.2188-0.54688 0.5-0.36328 0.75-0.89062 0.75-1.5781z"/>
</symbol>
<symbol id="u" overflow="visible">
<path d="m-7.3594-9.0469c-0.125 0.28125-0.21875 0.5625-0.28125 0.84375-0.070313 0.27344-0.10938 0.54688-0.10938 0.82812 0 0.83594 0.27344 1.4766 0.8125 1.9219 0.53125 0.44922 1.293 0.67188 2.2812 0.67188h4.6562v3.2344h-10.109v-3.2344h1.6562c-0.65625-0.41406-1.1328-0.89062-1.4375-1.4219-0.3125-0.53906-0.46875-1.1875-0.46875-1.9375 0-0.11328 0.007813-0.23438 0.015625-0.35938 0.011719-0.125 0.03125-0.30469 0.0625-0.54688z"/>
</symbol>
<symbol id="az" overflow="visible">
<path d="m-13.469-1.7031v-5.75c0-1.7188 0.38281-3.0352 1.1406-3.9531 0.76172-0.91406 1.8438-1.375 3.25-1.375 1.418 0 2.5078 0.46094 3.2656 1.375 0.76172 0.91797 1.1406 2.2344 1.1406 3.9531v2.2812h4.6719v3.4688zm2.5156-3.4688h3.7656v-1.9219c0-0.66406-0.16016-1.1797-0.48438-1.5469-0.33203-0.375-0.80078-0.5625-1.4062-0.5625-0.60156 0-1.0664 0.1875-1.3906 0.5625-0.32031 0.36719-0.48438 0.88281-0.48438 1.5469z"/>
</symbol>
<symbol id="ay" overflow="visible">
<path d="m-9.7969-9.4375h2.4531c-0.28125 0.6875-0.49219 1.3555-0.64062 2-0.14453 0.64844-0.21875 1.25-0.21875 1.8125 0 0.61719 0.078125 1.0742 0.23438 1.375 0.14844 0.29297 0.38281 0.4375 0.70312 0.4375 0.26172 0 0.46094-0.10938 0.59375-0.32812 0.13672-0.22656 0.24219-0.63281 0.3125-1.2188l0.078125-0.5625c0.21094-1.6562 0.55859-2.7695 1.0469-3.3438 0.48047-0.57031 1.2305-0.85938 2.25-0.85938 1.0859 0 1.8984 0.40234 2.4375 1.2031 0.54297 0.79297 0.8125 1.9766 0.8125 3.5469 0 0.66797-0.054687 1.3594-0.15625 2.0781-0.10547 0.71094-0.26562 1.4375-0.48438 2.1875h-2.4531c0.3125-0.64453 0.54688-1.3047 0.70312-1.9844 0.15625-0.67578 0.23438-1.3633 0.23438-2.0625 0-0.625-0.082031-1.0938-0.25-1.4062-0.17578-0.32031-0.4375-0.48438-0.78125-0.48438-0.28906 0-0.50391 0.10938-0.64062 0.32812-0.14453 0.21875-0.25781 0.65625-0.34375 1.3125l-0.0625 0.5625c-0.17578 1.4375-0.50781 2.4492-1 3.0312-0.48828 0.57422-1.2266 0.85938-2.2188 0.85938-1.0703 0-1.8672-0.36328-2.3906-1.0938-0.51953-0.73828-0.78125-1.8633-0.78125-3.375 0-0.60156 0.046875-1.2266 0.14062-1.875 0.09375-0.65625 0.23438-1.3672 0.42188-2.1406z"/>
</symbol>
<symbol id="ax" overflow="visible">
<path d="m-8.0469-6.3594c0 0.71875 0.26172 1.2656 0.78125 1.6406 0.51172 0.375 1.25 0.5625 2.2188 0.5625s1.7148-0.1875 2.2344-0.5625c0.51172-0.375 0.76562-0.92188 0.76562-1.6406 0-0.69531-0.25391-1.2344-0.76562-1.6094-0.51953-0.375-1.2656-0.5625-2.2344-0.5625s-1.707 0.1875-2.2188 0.5625c-0.51953 0.375-0.78125 0.91406-0.78125 1.6094zm-2.3125 0c0-1.7383 0.47656-3.0938 1.4219-4.0625 0.9375-0.97656 2.2344-1.4688 3.8906-1.4688 1.668 0 2.9688 0.49219 3.9062 1.4688 0.9375 0.96875 1.4062 2.3242 1.4062 4.0625 0 1.7422-0.46875 3.1055-1.4062 4.0938-0.9375 0.98047-2.2383 1.4688-3.9062 1.4688-1.6562 0-2.9531-0.48828-3.8906-1.4688-0.94531-0.98828-1.4219-2.3516-1.4219-4.0938z"/>
</symbol>
<symbol id="as" overflow="visible">
<path d="m-14.047-1.5938v-3.8125h1.2969v2.1562h13.891v-2.1562h1.2969v3.8125z"/>
</symbol>
<symbol id="am" overflow="visible">
<path d="m-5.9375-13.422c0 0.52344 0.22656 0.93359 0.67188 1.2344 0.44922 0.29297 1.0703 0.4375 1.8594 0.4375 0.78125 0 1.3984-0.14453 1.8438-0.4375 0.44922-0.30078 0.67188-0.71094 0.67188-1.2344 0-0.50781-0.22266-0.91406-0.67188-1.2188-0.44531-0.30078-1.0625-0.45312-1.8438-0.45312s-1.3945 0.15234-1.8438 0.45312c-0.45703 0.30469-0.6875 0.71094-0.6875 1.2188zm-1.1406 0c0-0.95703 0.33594-1.7109 1-2.2656 0.65625-0.5625 1.5469-0.84375 2.6719-0.84375s2.0234 0.28125 2.6875 0.84375c0.65625 0.5625 0.98438 1.3203 0.98438 2.2656 0 0.96094-0.32812 1.7188-0.98438 2.2812-0.66406 0.55469-1.5625 0.82812-2.6875 0.82812s-2.0156-0.28125-2.6719-0.84375c-0.66406-0.5625-1-1.3164-1-2.2656zm-5.5 9.2969c0 0.52344 0.22656 0.93359 0.67188 1.2344 0.44922 0.29297 1.0703 0.4375 1.8594 0.4375 0.79297 0 1.4141-0.14453 1.8594-0.4375 0.4375-0.30078 0.65625-0.71094 0.65625-1.2344 0-0.51953-0.21875-0.92578-0.65625-1.2188-0.44531-0.30078-1.0664-0.45312-1.8594-0.45312-0.78125 0-1.3945 0.15234-1.8438 0.45312-0.45703 0.30469-0.6875 0.71094-0.6875 1.2188zm-1.1406-8.1406v-1.4375l13.984 8.4219v1.4375zm0 8.1406c0-0.94531 0.32812-1.7031 0.98438-2.2656s1.5547-0.84375 2.6875-0.84375c1.1367 0 2.0312 0.28125 2.6875 0.84375 0.65625 0.55469 0.98438 1.3086 0.98438 2.2656 0 0.96094-0.32812 1.7188-0.98438 2.2812-0.66406 0.55469-1.5625 0.82812-2.6875 0.82812s-2.0156-0.28125-2.6719-0.84375c-0.66406-0.5625-1-1.3164-1-2.2656z"/>
</symbol>
<symbol id="n" overflow="visible"></symbol>
<symbol id="al" overflow="visible">
<path d="m-10.109-1.7344v-1.6719h10.109v1.6719zm-3.9375 0v-1.6719h2.1094v1.6719z"/>
</symbol>
<symbol id="ak" overflow="visible">
<path d="m-6.0938-10.141h6.0938v1.6562h-6.0469c-0.95703 0-1.6719 0.1875-2.1406 0.5625-0.47656 0.375-0.71875 0.9375-0.71875 1.6875 0 0.89844 0.28906 1.6055 0.85938 2.125 0.57422 0.51172 1.3516 0.76562 2.3281 0.76562h5.7188v1.6719h-10.109v-1.6719h1.5781c-0.61328-0.39453-1.0703-0.86328-1.375-1.4062-0.30078-0.53906-0.45312-1.1602-0.45312-1.8594 0-1.1562 0.36719-2.0312 1.0938-2.625 0.71875-0.60156 1.7773-0.90625 3.1719-0.90625z"/>
</symbol>
<symbol id="aj" overflow="visible">
<path d="m-8.5781-8.3906h-5.4688v-1.6562h14.047v1.6562h-1.5156c0.60547 0.35547 1.0547 0.79688 1.3438 1.3281s0.4375 1.168 0.4375 1.9062c0 1.2305-0.48438 2.2305-1.4531 3-0.97656 0.76172-2.2656 1.1406-3.8594 1.1406-1.582 0-2.8633-0.37891-3.8438-1.1406-0.97656-0.76953-1.4688-1.7695-1.4688-3 0-0.73828 0.14844-1.375 0.4375-1.9062 0.29297-0.53125 0.74219-0.97266 1.3438-1.3281zm3.5312 5.6562c1.2188 0 2.1797-0.25 2.875-0.75 0.69922-0.5 1.0469-1.1914 1.0469-2.0781 0-0.875-0.34766-1.5625-1.0469-2.0625-0.69531-0.50781-1.6562-0.76562-2.875-0.76562s-2.1758 0.25781-2.875 0.76562c-0.69531 0.5-1.0469 1.1875-1.0469 2.0625 0 0.88672 0.35156 1.5781 1.0469 2.0781 0.69922 0.5 1.6562 0.75 2.875 0.75z"/>
</symbol>
<symbol id="m" overflow="visible">
<path d="m-5.4688-10.375h0.8125v7.625c1.1484-0.070312 2.0234-0.41406 2.625-1.0312 0.59375-0.61328 0.89062-1.4727 0.89062-2.5781 0-0.63281-0.078125-1.25-0.23438-1.8438-0.15625-0.60156-0.39062-1.1953-0.70312-1.7812h1.5625c0.25 0.59375 0.44531 1.2031 0.57812 1.8281 0.13281 0.625 0.20312 1.2578 0.20312 1.8906 0 1.6172-0.46875 2.8984-1.4062 3.8438-0.9375 0.9375-2.207 1.4062-3.8125 1.4062-1.6562 0-2.9688-0.44531-3.9375-1.3438-0.97656-0.89453-1.4688-2.0977-1.4688-3.6094 0-1.3633 0.44531-2.4375 1.3281-3.2188 0.875-0.78906 2.0625-1.1875 3.5625-1.1875zm-0.48438 1.6562c-0.90625 0.011719-1.6289 0.26562-2.1719 0.76562-0.53906 0.49219-0.8125 1.1484-0.8125 1.9688 0 0.92969 0.26172 1.668 0.78125 2.2188 0.52344 0.55469 1.2578 0.875 2.2031 0.96875z"/>
</symbol>
<symbol id="s" overflow="visible">
<path d="m-8.5625-7.5938c-0.10156 0.1875-0.17969 0.39062-0.23438 0.60938-0.050781 0.21875-0.078125 0.46094-0.078125 0.71875 0 0.9375 0.30859 1.6641 0.92188 2.1719 0.60547 0.5 1.4805 0.75 2.625 0.75h5.3281v1.6719h-10.109v-1.6719h1.5781c-0.61328-0.35156-1.0703-0.80469-1.375-1.3594-0.30078-0.5625-0.45312-1.2422-0.45312-2.0469 0-0.11328 0.011719-0.23828 0.03125-0.375 0.011719-0.13281 0.03125-0.28516 0.0625-0.45312z"/>
</symbol>
<symbol id="ai" overflow="visible">
<path d="m-11.672-6.3125 6.7031 2.4688v-4.9531zm-1.7969 1.0312v-2.0625l13.469-5.1406v1.8906l-3.4531 1.2344v6.0625l3.4531 1.2344v1.9219z"/>
</symbol>
<symbol id="ar" overflow="visible">
<path d="m-14.047-1.7344v-1.6719h14.047v1.6719z"/>
</symbol>
<symbol id="t" overflow="visible">
<path d="m-12.984-3.375h2.875v-3.4219h1.2969v3.4219h5.4844c0.82422 0 1.3555-0.11328 1.5938-0.34375 0.23047-0.22656 0.34375-0.6875 0.34375-1.375v-1.7031h1.3906v1.7031c0 1.2812-0.23828 2.168-0.71875 2.6562-0.47656 0.48047-1.3477 0.71875-2.6094 0.71875h-5.4844v1.2188h-1.2969v-1.2188h-2.875z"/>
</symbol>
<symbol id="aq" overflow="visible">
<path d="m-9.8125-8.1719h1.5781c-0.23828 0.46875-0.42188 0.96094-0.54688 1.4688-0.125 0.5-0.1875 1.0156-0.1875 1.5469 0 0.83594 0.13281 1.4609 0.39062 1.875 0.25 0.40625 0.625 0.60938 1.125 0.60938 0.38672 0 0.69531-0.14453 0.92188-0.4375 0.21875-0.30078 0.42969-0.89453 0.625-1.7812l0.125-0.57812c0.25-1.1758 0.60547-2.0078 1.0625-2.5 0.46094-0.5 1.1055-0.75 1.9375-0.75 0.9375 0 1.6836 0.37109 2.2344 1.1094 0.54297 0.74219 0.8125 1.7617 0.8125 3.0625 0 0.54297-0.054687 1.1094-0.15625 1.7031-0.10547 0.58594-0.26562 1.1992-0.48438 1.8438h-1.7031c0.3125-0.61328 0.55469-1.2188 0.71875-1.8125 0.15625-0.59375 0.23438-1.1797 0.23438-1.7656 0-0.78125-0.13281-1.3789-0.40625-1.7969-0.26953-0.42578-0.64453-0.64062-1.125-0.64062-0.45703 0-0.80469 0.15234-1.0469 0.45312-0.23828 0.30469-0.46875 0.96875-0.6875 2l-0.14062 0.57812c-0.21875 1.0312-0.55078 1.7773-1 2.2344-0.44531 0.44922-1.0625 0.67188-1.8438 0.67188-0.94531 0-1.6797-0.33203-2.2031-1-0.51953-0.67578-0.78125-1.6328-0.78125-2.875 0-0.61328 0.046875-1.1914 0.14062-1.7344 0.09375-0.53906 0.23047-1.0352 0.40625-1.4844z"/>
</symbol>
<symbol id="ap" overflow="visible">
<path d="m-3.9844-1.5625h-6.125v-1.6719h6.0625c0.94922 0 1.6641-0.17969 2.1406-0.54688 0.48047-0.375 0.71875-0.9375 0.71875-1.6875 0-0.89453-0.28125-1.6016-0.84375-2.125-0.57031-0.51953-1.3516-0.78125-2.3438-0.78125h-5.7344v-1.6562h10.109v1.6562h-1.5469c0.61719 0.40625 1.0742 0.875 1.375 1.4062 0.28906 0.53125 0.4375 1.1523 0.4375 1.8594 0 1.1562-0.35938 2.0391-1.0781 2.6406-0.72656 0.60547-1.7852 0.90625-3.1719 0.90625z"/>
</symbol>
<symbol id="ao" overflow="visible">
<path d="m-14.047-6.8594h1.3906v1.5938c0 0.59375 0.12109 1.0117 0.35938 1.25 0.24219 0.23047 0.67188 0.34375 1.2969 0.34375h0.89062v-2.7344h1.2969v2.7344h8.8125v1.6562h-8.8125v1.5938h-1.2969v-1.5938h-0.70312c-1.125 0-1.9414-0.25781-2.4531-0.78125-0.51953-0.51953-0.78125-1.3477-0.78125-2.4844z"/>
</symbol>
<symbol id="an" overflow="visible">
<path d="m-14.047-5.625h16.484v3.8281h-1.2969v-2.1562h-13.891v2.1562h-1.2969z"/>
</symbol>
</defs>
<path transform="matrix(2.3106 0 0 2.309 -23.913 -2.9984)" d="m63.242 11.324h170.73v156.35h-170.73z" fill="none" stroke="#000" stroke-width="1.5"/>
<path transform="matrix(2.3106 0 0 2.309 -23.913 -2.9984)" d="m238.39 100.05h110.55v67.631h-110.55z" fill="none" stroke="#000"/>
<path transform="matrix(2.3106 0 0 2.309 -23.913 -2.9984)" d="m233.97 167.68h-174.02" fill="none" stroke="#000" stroke-width=".75"/>
<path transform="matrix(2.3106 0 0 2.309 -23.913 -2.9984)" d="m233.97 167.68h-174.02" fill="none" stroke="#000" stroke-width=".75"/>
<path transform="matrix(2.3106 0 0 2.309 -23.913 -2.9984)" d="m233.97 148.13h-174.02" fill="none" stroke="#000" stroke-width=".75"/>
<path transform="matrix(2.3106 0 0 2.309 -23.913 -2.9984)" d="m233.97 128.59h-174.02" fill="none" stroke="#000" stroke-width=".75"/>
<path transform="matrix(2.3106 0 0 2.309 -23.913 -2.9984)" d="m233.97 109.05h-174.02" fill="none" stroke="#000" stroke-width=".75"/>
<path transform="matrix(2.3106 0 0 2.309 -23.913 -2.9984)" d="m233.97 89.501h-174.02" fill="none" stroke="#000" stroke-width=".75"/>
<path transform="matrix(2.3106 0 0 2.309 -23.913 -2.9984)" d="m233.97 69.956h-174.02" fill="none" stroke="#000" stroke-width=".75"/>
<path transform="matrix(2.3106 0 0 2.309 -23.913 -2.9984)" d="m233.97 50.411h-174.02" fill="none" stroke="#000" stroke-width=".75"/>
<path transform="matrix(2.3106 0 0 2.309 -23.913 -2.9984)" d="m233.97 30.868h-174.02" fill="none" stroke="#000" stroke-width=".75"/>
<path transform="matrix(2.3106 0 0 2.309 -23.913 -2.9984)" d="m233.97 11.324h-174.02" fill="none" stroke="#000" stroke-width=".75"/>
<path transform="matrix(2.3106 0 0 2.309 -23.913 -2.9984)" d="m63.242 11.324v159.21" fill="none" stroke="#000" stroke-width=".75"/>
<path transform="matrix(2.3106 0 0 2.309 -23.913 -2.9984)" d="m97.388 11.324v159.21" fill="none" stroke="#000" stroke-width=".75"/>
<path transform="matrix(2.3106 0 0 2.309 -23.913 -2.9984)" d="m131.53 11.324v159.21" fill="none" stroke="#000" stroke-width=".75"/>
<path transform="matrix(2.3106 0 0 2.309 -23.913 -2.9984)" d="m165.68 11.324v159.21" fill="none" stroke="#000" stroke-width=".75"/>
<path transform="matrix(2.3106 0 0 2.309 -23.913 -2.9984)" d="m199.83 11.324v159.21" fill="none" stroke="#000" stroke-width=".75"/>
<path transform="matrix(2.3106 0 0 2.309 -23.913 -2.9984)" d="m233.97 11.324v159.21" fill="none" stroke="#000" stroke-width=".75"/>
<g>
<use x="216.703125" y="461.75301" xlink:href="#br"/>
<use x="237.49862" y="461.75301" xlink:href="#bo"/>
<use x="246.741063" y="461.75301" xlink:href="#bn"/>
<use x="258.294116" y="461.75301" xlink:href="#ah"/>
<use x="274.46839" y="461.75301" xlink:href="#ag"/>
<use x="286.021443" y="461.75301" xlink:href="#af"/>
<use x="295.263886" y="461.75301" xlink:href="#bm"/>
<use x="304.506328" y="461.75301" xlink:href="#ae"/>
<use x="322.991213" y="461.75301" xlink:href="#af"/>
<use x="332.233655" y="461.75301" xlink:href="#bl"/>
<use x="341.476098" y="461.75301" xlink:href="#bq"/>
<use x="357.650372" y="461.75301" xlink:href="#bp"/>
<use x="376.135257" y="461.75301" xlink:href="#ag"/>
<use x="387.68831" y="461.75301" xlink:href="#ah"/>
<use x="403.862584" y="461.75301" xlink:href="#ae"/>
</g>
<g>
<use x="95.195312" y="422.384537" xlink:href="#r"/>
<use x="106.748366" y="422.384537" xlink:href="#c"/>
<use x="118.301419" y="422.384537" xlink:href="#e"/>
<use x="125.23325" y="422.384537" xlink:href="#i"/>
<use x="136.786303" y="422.384537" xlink:href="#r"/>
</g>
<g>
<use x="174.101562" y="422.384537" xlink:href="#i"/>
<use x="185.654616" y="422.384537" xlink:href="#i"/>
<use x="197.207669" y="422.384537" xlink:href="#e"/>
<use x="204.1395" y="422.384537" xlink:href="#d"/>
<use x="215.692553" y="422.384537" xlink:href="#d"/>
</g>
<g>
<use x="249.890625" y="422.384537" xlink:href="#d"/>
<use x="261.443678" y="422.384537" xlink:href="#c"/>
<use x="272.996731" y="422.384537" xlink:href="#e"/>
<use x="279.928563" y="422.384537" xlink:href="#e"/>
<use x="286.860395" y="422.384537" xlink:href="#c"/>
<use x="298.413448" y="422.384537" xlink:href="#d"/>
</g>
<g>
<use x="331.863281" y="422.384537" xlink:href="#c"/>
<use x="343.416334" y="422.384537" xlink:href="#c"/>
<use x="354.969387" y="422.384537" xlink:href="#e"/>
<use x="361.901219" y="422.384537" xlink:href="#p"/>
<use x="373.454272" y="422.384537" xlink:href="#d"/>
</g>
<g>
<use x="410.960938" y="422.384537" xlink:href="#p"/>
<use x="422.513991" y="422.384537" xlink:href="#c"/>
<use x="434.067044" y="422.384537" xlink:href="#e"/>
<use x="440.998875" y="422.384537" xlink:href="#x"/>
<use x="452.551928" y="422.384537" xlink:href="#bb"/>
</g>
<g>
<use x="497.558594" y="422.384537" xlink:href="#w"/>
<use x="509.111647" y="422.384537" xlink:href="#b"/>
<use x="520.6647" y="422.384537" xlink:href="#bk"/>
</g>
<g>
<use x="91.660156" y="390.896256" xlink:href="#b"/>
</g>
<g>
<use x="79.898438" y="345.767349" xlink:href="#r"/>
<use x="91.451491" y="345.767349" xlink:href="#b"/>
</g>
<g>
<use x="79.898438" y="300.638443" xlink:href="#i"/>
<use x="91.451491" y="300.638443" xlink:href="#b"/>
</g>
<g>
<use x="79.898438" y="210.384537" xlink:href="#d"/>
<use x="91.451491" y="210.384537" xlink:href="#b"/>
</g>
<g>
<use x="79.898438" y="165.255631" xlink:href="#c"/>
<use x="91.451491" y="165.255631" xlink:href="#b"/>
</g>
<g>
<use x="79.898438" y="120.126724" xlink:href="#p"/>
<use x="91.451491" y="120.126724" xlink:href="#b"/>
</g>
<g>
<use x="79.898438" y="75.001724" xlink:href="#x"/>
<use x="91.451491" y="75.001724" xlink:href="#b"/>
</g>
<g>
<use x="79.898438" y="29.872818" xlink:href="#w"/>
<use x="91.451491" y="29.872818" xlink:href="#b"/>
</g>
<g>
<use x="79.898438" y="255.513443" xlink:href="#bj"/>
<use x="91.451491" y="255.513443" xlink:href="#b"/>
</g>
<g>
<use x="30.540901" y="308.820312" xlink:href="#ba"/>
<use x="30.540901" y="294.96621" xlink:href="#o"/>
<use x="30.540901" y="281.112108" xlink:href="#aw"/>
<use x="30.540901" y="271.876039" xlink:href="#h"/>
<use x="30.540901" y="260.330954" xlink:href="#av"/>
<use x="30.540901" y="253.403903" xlink:href="#au"/>
<use x="30.540901" y="246.476851" xlink:href="#v"/>
<use x="30.540901" y="239.5498" xlink:href="#at"/>
<use x="30.540901" y="225.695698" xlink:href="#h"/>
<use x="30.540901" y="214.150612" xlink:href="#u"/>
<use x="30.540901" y="204.914544" xlink:href="#v"/>
<use x="30.540901" y="197.987493" xlink:href="#az"/>
<use x="30.540901" y="184.13339" xlink:href="#h"/>
<use x="30.540901" y="172.588305" xlink:href="#u"/>
<use x="30.540901" y="163.352236" xlink:href="#ay"/>
<use x="30.540901" y="151.807151" xlink:href="#ax"/>
<use x="30.540901" y="140.262066" xlink:href="#o"/>
<use x="30.540901" y="126.407963" xlink:href="#h"/>
<use x="30.540901" y="114.862878" xlink:href="#o"/>
</g>
<g>
<use x="53.64637" y="298.429688" xlink:href="#as"/>
<use x="53.64637" y="291.502636" xlink:href="#am"/>
<use x="53.64637" y="273.0305" xlink:href="#n"/>
<use x="53.64637" y="266.103448" xlink:href="#al"/>
<use x="53.64637" y="261.485414" xlink:href="#ak"/>
<use x="53.64637" y="249.940329" xlink:href="#n"/>
<use x="53.64637" y="243.013278" xlink:href="#aj"/>
<use x="53.64637" y="231.468192" xlink:href="#m"/>
<use x="53.64637" y="219.923107" xlink:href="#s"/>
<use x="53.64637" y="212.996055" xlink:href="#n"/>
<use x="53.64637" y="206.069004" xlink:href="#ai"/>
<use x="53.64637" y="194.523919" xlink:href="#ar"/>
<use x="53.64637" y="189.905885" xlink:href="#t"/>
<use x="53.64637" y="182.978833" xlink:href="#m"/>
<use x="53.64637" y="171.433748" xlink:href="#s"/>
<use x="53.64637" y="164.506697" xlink:href="#aq"/>
<use x="53.64637" y="155.270628" xlink:href="#t"/>
<use x="53.64637" y="148.343577" xlink:href="#ap"/>
<use x="53.64637" y="136.798492" xlink:href="#ao"/>
<use x="53.64637" y="129.871441" xlink:href="#m"/>
<use x="53.64637" y="118.326355" xlink:href="#an"/>
</g>
<g>
<use x="571.460938" y="275.868912" xlink:href="#ad"/>
<use x="583.013991" y="275.868912" xlink:href="#a"/>
<use x="594.567044" y="275.868912" xlink:href="#q"/>
<use x="606.120097" y="275.868912" xlink:href="#a"/>
<use x="617.67315" y="275.868912" xlink:href="#g"/>
<use x="624.604981" y="275.868912" xlink:href="#a"/>
<use x="636.158034" y="275.868912" xlink:href="#ac"/>
<use x="640.779256" y="275.868912" xlink:href="#ac"/>
<use x="645.400477" y="275.868912" xlink:href="#l"/>
<use x="652.332309" y="275.868912" xlink:href="#ab"/>
<use x="663.885362" y="275.868912" xlink:href="#a"/>
<use x="675.438415" y="275.868912" xlink:href="#k"/>
<use x="686.991468" y="275.868912" xlink:href="#f"/>
<use x="691.612689" y="275.868912" xlink:href="#q"/>
<use x="703.165742" y="275.868912" xlink:href="#aa"/>
<use x="714.718795" y="275.868912" xlink:href="#a"/>
<use x="726.271848" y="275.868912" xlink:href="#g"/>
<use x="733.20368" y="275.868912" xlink:href="#j"/>
</g>
<g>
<use x="571.460938" y="309.896256" xlink:href="#bi"/>
<use x="580.70338" y="309.896256" xlink:href="#z"/>
<use x="589.945822" y="309.896256" xlink:href="#k"/>
<use x="601.498875" y="309.896256" xlink:href="#y"/>
<use x="617.67315" y="309.896256" xlink:href="#a"/>
<use x="629.226203" y="309.896256" xlink:href="#g"/>
<use x="636.158034" y="309.896256" xlink:href="#l"/>
<use x="643.089866" y="309.896256" xlink:href="#ab"/>
<use x="654.642919" y="309.896256" xlink:href="#a"/>
<use x="666.195972" y="309.896256" xlink:href="#k"/>
<use x="677.749025" y="309.896256" xlink:href="#f"/>
<use x="682.370247" y="309.896256" xlink:href="#q"/>
<use x="693.9233" y="309.896256" xlink:href="#aa"/>
<use x="705.476353" y="309.896256" xlink:href="#a"/>
<use x="717.029406" y="309.896256" xlink:href="#g"/>
<use x="723.961237" y="309.896256" xlink:href="#j"/>
</g>
<g>
<use x="571.460938" y="343.919693" xlink:href="#bh"/>
<use x="583.013991" y="343.919693" xlink:href="#z"/>
<use x="592.256433" y="343.919693" xlink:href="#k"/>
<use x="603.809486" y="343.919693" xlink:href="#y"/>
<use x="619.98376" y="343.919693" xlink:href="#f"/>
<use x="624.604981" y="343.919693" xlink:href="#a"/>
<use x="636.158034" y="343.919693" xlink:href="#g"/>
<use x="643.089866" y="343.919693" xlink:href="#f"/>
<use x="647.711087" y="343.919693" xlink:href="#ad"/>
<use x="659.264141" y="343.919693" xlink:href="#bg"/>
<use x="668.506583" y="343.919693" xlink:href="#a"/>
<use x="680.059636" y="343.919693" xlink:href="#f"/>
<use x="684.680857" y="343.919693" xlink:href="#j"/>
<use x="691.612689" y="343.919693" xlink:href="#l"/>
<use x="698.544521" y="343.919693" xlink:href="#bf"/>
<use x="717.029406" y="343.919693" xlink:href="#f"/>
<use x="721.650627" y="343.919693" xlink:href="#j"/>
<use x="728.582459" y="343.919693" xlink:href="#l"/>
<use x="735.514291" y="343.919693" xlink:href="#be"/>
<use x="747.067344" y="343.919693" xlink:href="#bd"/>
<use x="760.931007" y="343.919693" xlink:href="#bc"/>
</g>
<path transform="matrix(2.3106 0 0 2.309 -22.31 0)" d="m62.548 166.38 34.146-2.634 34.146-3.5307 34.148-5.51 34.146-8.9561 34.146-33.095" fill="none" stroke="#d40000" stroke-width=".75"/>
<path transform="matrix(2.3106 0 0 2.309 -22.31 0)" d="m240.28 146.28h11.908" fill="none" stroke="#d40000" stroke-width=".75"/>
<path transform="matrix(2.3106 0 0 2.309 -22.31 0)" d="m240.28 131.28h11.908" fill="none" stroke="#338000" stroke-width=".75"/>
<path transform="matrix(2.3106 0 0 2.309 -22.31 0)" d="m240.28 117.78h11.908" fill="none" stroke="#00a" stroke-width=".75"/>
<path transform="matrix(2.3106 0 0 2.309 -22.31 0)" d="m62.548 160.18 34.146-6.481 34.146-9.7292 34.148-20.223 34.146-11.883 34.146-50.448" fill="none" stroke="#338000" stroke-width=".75"/>
<path transform="matrix(2.3106 0 0 2.309 -22.31 0)" d="m62.548 142.75c16.534-1.3703 29.815-3.1483 34.146-6.0446 7.0159-1.5293 18.165-7.6145 34.146-19.022 3.1783-0.40602 21.83-13.979 34.148-22.172 13.481-8.7683 27.916-13.124 34.146-22.086 13.249-13.749 22.733-31.231 34.146-46.951" fill="none" stroke="#00a" stroke-width=".75"/>
<path d="m114.16 388.52h15.207l-7.3438-12.707z" fill="#d40000"/>
<path d="m193.51 382.04h15.207l-7.3438-12.707z" fill="#d40000"/>
<path d="m272.41 376.29h15.207l-7.3438-12.711z" fill="#d40000"/>
<path d="m351.31 363.57h15.207l-7.3438-12.707z" fill="#d40000"/>
<path d="m430.21 342.89h15.207l-7.3438-12.707z" fill="#d40000"/>
<path d="m509.11 266.8h15.207l-7.3398-12.707z" fill="#d40000"/>
<path d="m539.05 343.26h15.207l-7.3438-12.707z" fill="#d40000"/>
<path d="m128.76 369.86c0 3.6133-2.9336 6.5391-6.5469 6.5391-3.6133 0-6.543-2.9258-6.543-6.5391s2.9297-6.5391 6.543-6.5391c3.6133 0 6.5469 2.9258 6.5469 6.5391z" fill="#338000"/>
<path d="m207.66 354.89c0 3.6133-2.9297 6.543-6.5469 6.543-3.6133 0-6.543-2.9297-6.543-6.543 0-3.6094 2.9297-6.5391 6.543-6.5391 3.6172 0 6.5469 2.9297 6.5469 6.5391z" fill="#338000"/>
<path d="m286.56 332.43c0 3.6133-2.9297 6.543-6.5469 6.543-3.6133 0-6.543-2.9297-6.543-6.543 0-3.6094 2.9297-6.5391 6.543-6.5391 3.6172 0 6.5469 2.9297 6.5469 6.5391z" fill="#338000"/>
<path d="m365.46 285.73c0 3.6133-2.9297 6.543-6.543 6.543-3.6172 0-6.5469-2.9297-6.5469-6.543 0-3.6094 2.9297-6.5391 6.5469-6.5391 3.6133 0 6.543 2.9297 6.543 6.5391z" fill="#338000"/>
<path d="m444.36 258.29c0 3.6094-2.9297 6.5391-6.543 6.5391-3.6172 0-6.5469-2.9297-6.5469-6.5391 0-3.6133 2.9297-6.543 6.5469-6.543 3.6133 0 6.543 2.9297 6.543 6.543z" fill="#338000"/>
<path d="m523.25 141.81c0 3.6094-2.9297 6.5391-6.543 6.5391-3.6172 0-6.5469-2.9297-6.5469-6.5391 0-3.6133 2.9297-6.543 6.5469-6.543 3.6133 0 6.543 2.9297 6.543 6.543z" fill="#338000"/>
<path d="m553.2 303.14c0 3.6133-2.9297 6.543-6.5469 6.543-3.6133 0-6.543-2.9297-6.543-6.543 0-3.6094 2.9297-6.5391 6.543-6.5391 3.6172 0 6.5469 2.9297 6.5469 6.5391z" fill="#338000"/>
<path d="m115.24 323.58h13.805v13.793h-13.805z" fill="#00a"/>
<path d="m194.21 308.76h13.805v13.793h-13.805z" fill="#00a"/>
<path d="m273.11 264.84h13.805v13.797h-13.805z" fill="#00a"/>
<path d="m352.01 213.64h13.801v13.793h-13.801z" fill="#00a"/>
<path d="m430.91 162.64h13.805v13.797h-13.805z" fill="#00a"/>
<path d="m509.81 54.234h13.805v13.793h-13.805z" fill="#00a"/>
<path d="m539.75 265.07h13.805v13.793h-13.805z" fill="#00a"/>
</svg>
