<?xml version="1.0" encoding="UTF-8"?>
<svg width="800px" height="635px" version="1.1" viewBox="0 0 800 635" xmlns="http://www.w3.org/2000/svg" xmlns:xlink="http://www.w3.org/1999/xlink">
<defs>
<symbol id="q" overflow="visible">
<path d="m9.7344-16.547-6.4219 10.016h6.4219zm-0.67188-2.2188h3.2031v12.234h2.6719v2.1094h-2.6719v4.4219h-2.5312v-4.4219h-8.4844v-2.4531z"/>
</symbol>
<symbol id="a" overflow="visible">
<path d="m8.1875-17.094c-1.3125 0-2.2969 0.64844-2.9531 1.9375-0.65625 1.2812-0.98438 3.2148-0.98438 5.7969 0 2.5742 0.32812 4.5078 0.98438 5.7969 0.65625 1.2812 1.6406 1.9219 2.9531 1.9219s2.2969-0.64062 2.9531-1.9219c0.66406-1.2891 1-3.2227 1-5.7969 0-2.582-0.33594-4.5156-1-5.7969-0.65625-1.2891-1.6406-1.9375-2.9531-1.9375zm0-2c2.1016 0 3.707 0.83594 4.8125 2.5 1.1133 1.6562 1.6719 4.0703 1.6719 7.2344 0 3.1562-0.55859 5.5703-1.6719 7.2344-1.1055 1.6562-2.7109 2.4844-4.8125 2.4844-2.1055 0-3.7148-0.82812-4.8281-2.4844-1.1055-1.6641-1.6562-4.0781-1.6562-7.2344 0-3.1641 0.55078-5.5781 1.6562-7.2344 1.1133-1.6641 2.7227-2.5 4.8281-2.5z"/>
</symbol>
<symbol id="am" overflow="visible">
<path d="m2.7812-18.766h9.9688v2.1406h-7.6406v4.5938c0.36328-0.125 0.72656-0.21875 1.0938-0.28125 0.375-0.0625 0.74219-0.09375 1.1094-0.09375 2.1016 0 3.7656 0.57812 4.9844 1.7344 1.2188 1.1484 1.8281 2.6992 1.8281 4.6562 0 2.0234-0.63281 3.5898-1.8906 4.7031-1.25 1.1172-3.0234 1.6719-5.3125 1.6719-0.78125 0-1.5859-0.070313-2.4062-0.20312-0.8125-0.125-1.6562-0.32031-2.5312-0.59375v-2.5469c0.75781 0.40625 1.5391 0.71484 2.3438 0.92188 0.80078 0.19922 1.6484 0.29688 2.5469 0.29688 1.4453 0 2.5938-0.37891 3.4375-1.1406 0.85156-0.76953 1.2812-1.8047 1.2812-3.1094 0-1.3125-0.42969-2.3477-1.2812-3.1094-0.84375-0.75781-1.9922-1.1406-3.4375-1.1406-0.67969 0-1.3555 0.078125-2.0312 0.23438-0.67969 0.14844-1.3672 0.375-2.0625 0.6875z"/>
</symbol>
<symbol id="l" overflow="visible">
<path d="m8.5-10.391c-1.1367 0-2.0391 0.39062-2.7031 1.1719-0.66797 0.78125-1 1.8516-1 3.2031 0 1.3438 0.33203 2.4141 1 3.2031 0.66406 0.78125 1.5664 1.1719 2.7031 1.1719 1.1328 0 2.0352-0.39062 2.7031-1.1719 0.66406-0.78906 1-1.8594 1-3.2031 0-1.3516-0.33594-2.4219-1-3.2031-0.66797-0.78125-1.5703-1.1719-2.7031-1.1719zm5.0469-7.9531v2.3125c-0.64844-0.30078-1.293-0.53125-1.9375-0.6875-0.64844-0.16406-1.2891-0.25-1.9219-0.25-1.6797 0-2.9609 0.57031-3.8438 1.7031-0.88672 1.125-1.3906 2.8359-1.5156 5.125 0.48828-0.72656 1.1094-1.2852 1.8594-1.6719 0.75-0.39453 1.5703-0.59375 2.4688-0.59375 1.8828 0 3.375 0.57422 4.4688 1.7188 1.0938 1.1484 1.6406 2.7031 1.6406 4.6719 0 1.9297-0.57422 3.4766-1.7188 4.6406-1.1367 1.1562-2.6523 1.7344-4.5469 1.7344-2.168 0-3.8281-0.82812-4.9844-2.4844-1.1484-1.6641-1.7188-4.0781-1.7188-7.2344 0-2.9688 0.70312-5.332 2.1094-7.0938 1.4062-1.7578 3.2969-2.6406 5.6719-2.6406 0.63281 0 1.2734 0.0625 1.9219 0.1875 0.65625 0.125 1.3359 0.3125 2.0469 0.5625z"/>
</symbol>
<symbol id="k" overflow="visible">
<path d="m2.1094-18.766h12.078v1.0781l-6.8125 17.688h-2.6562l6.4062-16.625h-9.0156z"/>
</symbol>
<symbol id="j" overflow="visible">
<path d="m8.1875-8.9062c-1.2109 0-2.1641 0.32422-2.8594 0.96875-0.6875 0.64844-1.0312 1.5312-1.0312 2.6562 0 1.1367 0.34375 2.0273 1.0312 2.6719 0.69531 0.64844 1.6484 0.96875 2.8594 0.96875 1.207 0 2.1562-0.32031 2.8438-0.96875 0.69531-0.65625 1.0469-1.5469 1.0469-2.6719s-0.34375-2.0078-1.0312-2.6562c-0.6875-0.64453-1.6406-0.96875-2.8594-0.96875zm-2.5469-1.0781c-1.0859-0.26953-1.9336-0.77344-2.5469-1.5156-0.60547-0.75-0.90625-1.6602-0.90625-2.7344 0-1.5 0.53125-2.6797 1.5938-3.5469 1.0703-0.875 2.5391-1.3125 4.4062-1.3125 1.8633 0 3.3281 0.4375 4.3906 1.3125 1.0703 0.86719 1.6094 2.0469 1.6094 3.5469 0 1.0742-0.30859 1.9844-0.92188 2.7344-0.60547 0.74219-1.4492 1.2461-2.5312 1.5156 1.2266 0.28125 2.1797 0.83984 2.8594 1.6719 0.6875 0.82422 1.0312 1.8359 1.0312 3.0312 0 1.8242-0.55859 3.2188-1.6719 4.1875-1.1055 0.96875-2.6953 1.4531-4.7656 1.4531-2.0742 0-3.668-0.48438-4.7812-1.4531-1.1055-0.96875-1.6562-2.3633-1.6562-4.1875 0-1.1953 0.34375-2.207 1.0312-3.0312 0.6875-0.83203 1.6406-1.3906 2.8594-1.6719zm-0.92188-4.0156c0 0.96875 0.30078 1.7305 0.90625 2.2812 0.60156 0.54297 1.457 0.8125 2.5625 0.8125 1.082 0 1.9297-0.26953 2.5469-0.8125 0.625-0.55078 0.9375-1.3125 0.9375-2.2812s-0.3125-1.7227-0.9375-2.2656c-0.61719-0.55078-1.4648-0.82812-2.5469-0.82812-1.1055 0-1.9609 0.27734-2.5625 0.82812-0.60547 0.54297-0.90625 1.2969-0.90625 2.2656z"/>
</symbol>
<symbol id="al" overflow="visible">
<path d="m12.531-7.0312c0-1.6953-0.35156-3.0312-1.0469-4-0.69922-0.96875-1.6641-1.4531-2.8906-1.4531-1.2188 0-2.1797 0.48438-2.875 1.4531-0.69922 0.96875-1.0469 2.3047-1.0469 4 0 1.7109 0.34766 3.0469 1.0469 4.0156 0.69531 0.96094 1.6562 1.4375 2.875 1.4375 1.2266 0 2.1914-0.47656 2.8906-1.4375 0.69531-0.96875 1.0469-2.3047 1.0469-4.0156zm-7.8594-4.9062c0.47656-0.83203 1.0859-1.4531 1.8281-1.8594 0.75-0.40625 1.6406-0.60938 2.6719-0.60938 1.707 0 3.0938 0.67969 4.1562 2.0312 1.0703 1.3555 1.6094 3.1367 1.6094 5.3438 0 2.2188-0.53906 4.0078-1.6094 5.3594-1.0625 1.3555-2.4492 2.0312-4.1562 2.0312-1.0312 0-1.9219-0.20312-2.6719-0.60938-0.74219-0.40625-1.3516-1.0234-1.8281-1.8594v2.1094h-2.3281v-19.547h2.3281z"/>
</symbol>
<symbol id="ak" overflow="visible">
<path d="m2.4219-19.547h2.3125v19.547h-2.3125z"/>
</symbol>
<symbol id="f" overflow="visible">
<path d="m8.8281-7.0781c-1.875 0-3.1719 0.21484-3.8906 0.64062-0.71875 0.42969-1.0781 1.1562-1.0781 2.1875 0 0.82422 0.26953 1.4766 0.8125 1.9531 0.53906 0.48047 1.2734 0.71875 2.2031 0.71875 1.2812 0 2.3047-0.45312 3.0781-1.3594 0.78125-0.90625 1.1719-2.1133 1.1719-3.625v-0.51562zm4.6094-0.95312v8.0312h-2.3125v-2.1406c-0.53125 0.85547-1.1953 1.4844-1.9844 1.8906-0.78125 0.40625-1.7422 0.60938-2.875 0.60938-1.4492 0-2.6016-0.39844-3.4531-1.2031-0.84375-0.8125-1.2656-1.8945-1.2656-3.25 0-1.582 0.53125-2.7734 1.5938-3.5781 1.0625-0.8125 2.6445-1.2188 4.75-1.2188h3.2344v-0.21875c0-1.0625-0.35156-1.8828-1.0469-2.4688-0.69922-0.58203-1.6836-0.875-2.9531-0.875-0.80469 0-1.5859 0.10156-2.3438 0.29688-0.76172 0.1875-1.4961 0.47656-2.2031 0.85938v-2.1406c0.84375-0.32031 1.6602-0.5625 2.4531-0.71875 0.80078-0.16406 1.582-0.25 2.3438-0.25 2.0312 0 3.5469 0.52734 4.5469 1.5781 1.0078 1.0547 1.5156 2.6523 1.5156 4.7969z"/>
</symbol>
<symbol id="au" overflow="visible">
<path d="m2.1875-5.5469v-8.5312h2.3125v8.4375c0 1.3359 0.25781 2.3359 0.78125 3 0.51953 0.66797 1.3008 1 2.3438 1 1.25 0 2.2344-0.39453 2.9531-1.1875 0.72656-0.80078 1.0938-1.8906 1.0938-3.2656v-7.9844h2.3125v14.078h-2.3125v-2.1562c-0.5625 0.85547-1.2188 1.4922-1.9688 1.9062-0.74219 0.40625-1.6016 0.60938-2.5781 0.60938-1.6172 0-2.8438-0.5-3.6875-1.5-0.83594-1.0078-1.25-2.4766-1.25-4.4062z"/>
</symbol>
<symbol id="at" overflow="visible">
<path d="m11.688-7.2031c0-1.6758-0.34375-2.9727-1.0312-3.8906-0.6875-0.92578-1.6562-1.3906-2.9062-1.3906-1.2422 0-2.2109 0.46484-2.9062 1.3906-0.6875 0.91797-1.0312 2.2148-1.0312 3.8906 0 1.668 0.34375 2.9648 1.0312 3.8906 0.69531 0.91797 1.6641 1.375 2.9062 1.375 1.25 0 2.2188-0.45703 2.9062-1.375 0.6875-0.92578 1.0312-2.2227 1.0312-3.8906zm2.3125 5.4531c0 2.3945-0.53125 4.1758-1.5938 5.3438-1.0625 1.1758-2.6953 1.7656-4.8906 1.7656-0.8125 0-1.5781-0.0625-2.2969-0.1875s-1.418-0.3125-2.0938-0.5625v-2.25c0.67578 0.375 1.3438 0.64453 2 0.8125 0.66406 0.17578 1.3438 0.26562 2.0312 0.26562 1.5195 0 2.6562-0.39844 3.4062-1.1875 0.75-0.79297 1.125-1.9844 1.125-3.5781v-1.1406c-0.48047 0.82422-1.0938 1.4453-1.8438 1.8594-0.74219 0.40625-1.6328 0.60938-2.6719 0.60938-1.7188 0-3.1094-0.65625-4.1719-1.9688-1.0547-1.3203-1.5781-3.0664-1.5781-5.2344 0-2.1758 0.52344-3.9219 1.5781-5.2344 1.0625-1.3125 2.4531-1.9688 4.1719-1.9688 1.0391 0 1.9297 0.20312 2.6719 0.60938 0.75 0.40625 1.3633 1.0273 1.8438 1.8594v-2.1406h2.3125z"/>
</symbol>
<symbol id="g" overflow="visible">
<path d="m10.594-11.906c-0.26172-0.15625-0.54688-0.26953-0.85938-0.34375-0.30469-0.070312-0.64062-0.10938-1.0156-0.10938-1.3047 0-2.3047 0.42969-3 1.2812-0.69922 0.85547-1.0469 2.0781-1.0469 3.6719v7.4062h-2.3281v-14.078h2.3281v2.1875c0.47656-0.85156 1.1094-1.4844 1.8906-1.8906 0.78125-0.41406 1.7266-0.625 2.8438-0.625 0.15625 0 0.32812 0.011719 0.51562 0.03125 0.19531 0.023438 0.41406 0.054688 0.65625 0.09375z"/>
</symbol>
<symbol id="as" overflow="visible">
<path d="m2.1875-5.5469v-8.5312h2.3125v8.4375c0 1.3359 0.25781 2.3359 0.78125 3 0.51953 0.66797 1.3008 1 2.3438 1 1.25 0 2.2344-0.39453 2.9531-1.1875 0.72656-0.80078 1.0938-1.8906 1.0938-3.2656v-7.9844h2.3125v14.078h-2.3125v-2.1562c-0.5625 0.85547-1.2188 1.4922-1.9688 1.9062-0.74219 0.40625-1.6016 0.60938-2.5781 0.60938-1.6172 0-2.8438-0.5-3.6875-1.5-0.83594-1.0078-1.25-2.4766-1.25-4.4062zm5.8281-8.8594m1.1562-5.0938h2.5469v2.5312h-2.5469zm-4.9219 0h2.5469v2.5312h-2.5469z"/>
</symbol>
<symbol id="ar" overflow="visible">
<path d="m14.125-8.5v8.5h-2.3125v-8.4219c0-1.332-0.26172-2.3281-0.78125-2.9844-0.51172-0.66406-1.2891-1-2.3281-1-1.25 0-2.2344 0.40234-2.9531 1.2031-0.71875 0.79297-1.0781 1.875-1.0781 3.25v7.9531h-2.3281v-14.078h2.3281v2.1875c0.55078-0.84375 1.2031-1.4727 1.9531-1.8906 0.75-0.41406 1.6133-0.625 2.5938-0.625 1.6133 0 2.832 0.5 3.6562 1.5 0.83203 1 1.25 2.4688 1.25 4.4062z"/>
</symbol>
<symbol id="aq" overflow="visible">
<path d="m4.9375-2.1406h8.875v2.1406h-11.922v-2.1406c0.95703-0.98828 2.2695-2.3203 3.9375-4 1.6641-1.6875 2.7109-2.7734 3.1406-3.2656 0.8125-0.90625 1.3789-1.6758 1.7031-2.3125 0.32031-0.63281 0.48438-1.2539 0.48438-1.8594 0-1-0.35547-1.8125-1.0625-2.4375-0.69922-0.63281-1.6055-0.95312-2.7188-0.95312-0.80469 0-1.6484 0.14062-2.5312 0.42188-0.88672 0.27344-1.8281 0.6875-2.8281 1.25v-2.5625c1.0195-0.40625 1.9727-0.71094 2.8594-0.92188 0.89453-0.20703 1.707-0.3125 2.4375-0.3125 1.9453 0 3.5 0.48438 4.6562 1.4531s1.7344 2.2656 1.7344 3.8906c0 0.77344-0.14844 1.5078-0.4375 2.2031-0.28125 0.6875-0.80859 1.5-1.5781 2.4375-0.21094 0.24219-0.875 0.94531-2 2.1094-1.1172 1.1562-2.6992 2.7773-4.75 4.8594z"/>
</symbol>
<symbol id="ap" overflow="visible">
<path d="m2.7344-12.672v-2.2812l16.109 5.8438v2.0781l-16.109 5.8438v-2.2812l12.938-4.5781z"/>
</symbol>
<symbol id="p" overflow="visible"></symbol>
<symbol id="o" overflow="visible">
<path d="m2.5312-18.766h2.5312v17.453c0 2.2578-0.43359 3.8984-1.2969 4.9219-0.85547 1.0312-2.2305 1.5469-4.125 1.5469h-0.96875v-2.1406h0.78125c1.125 0 1.9141-0.32031 2.375-0.95312 0.46875-0.625 0.70312-1.75 0.70312-3.375z"/>
</symbol>
<symbol id="n" overflow="visible">
<path d="m14.125-8.5v8.5h-2.3125v-8.4219c0-1.332-0.26172-2.3281-0.78125-2.9844-0.51172-0.66406-1.2891-1-2.3281-1-1.25 0-2.2344 0.40234-2.9531 1.2031-0.71875 0.79297-1.0781 1.875-1.0781 3.25v7.9531h-2.3281v-19.547h2.3281v7.6562c0.55078-0.84375 1.2031-1.4727 1.9531-1.8906 0.75-0.41406 1.6133-0.625 2.5938-0.625 1.6133 0 2.832 0.5 3.6562 1.5 0.83203 1 1.25 2.4688 1.25 4.4062z"/>
</symbol>
<symbol id="m" overflow="visible">
<path d="m14.469-7.6094v1.125h-10.641c0.10156 1.5938 0.58203 2.8086 1.4375 3.6406 0.86328 0.83594 2.0625 1.25 3.5938 1.25 0.89453 0 1.7578-0.10938 2.5938-0.32812 0.83203-0.21875 1.6602-0.54688 2.4844-0.98438v2.1875c-0.83594 0.35547-1.6875 0.62109-2.5625 0.79688-0.86719 0.1875-1.75 0.28125-2.6562 0.28125-2.2422 0-4.0156-0.64844-5.3281-1.9531-1.3125-1.3125-1.9688-3.082-1.9688-5.3125 0-2.3008 0.61719-4.125 1.8594-5.4688 1.25-1.3516 2.9297-2.0312 5.0469-2.0312 1.8945 0 3.3906 0.60938 4.4844 1.8281 1.1016 1.2188 1.6562 2.875 1.6562 4.9688zm-2.3125-0.6875c-0.011719-1.2578-0.36719-2.2656-1.0625-3.0156-0.6875-0.75781-1.6055-1.1406-2.75-1.1406-1.293 0-2.3242 0.36719-3.0938 1.0938-0.77344 0.73047-1.2188 1.7578-1.3438 3.0781z"/>
</symbol>
<symbol id="ao" overflow="visible">
<path d="m18.844-12.672-12.969 4.625 12.969 4.5781v2.2812l-16.109-5.8438v-2.0781l16.109-5.8438z"/>
</symbol>
<symbol id="an" overflow="visible">
<path d="m10.453-10.109c1.207 0.26172 2.1562 0.80469 2.8438 1.625 0.6875 0.8125 1.0312 1.8242 1.0312 3.0312 0 1.8555-0.64062 3.2891-1.9219 4.2969-1.2734 1.0117-3.0781 1.5156-5.4219 1.5156-0.79297 0-1.6055-0.078125-2.4375-0.23438-0.83594-0.14453-1.6953-0.375-2.5781-0.6875v-2.4531c0.69531 0.40625 1.4609 0.71875 2.2969 0.9375 0.84375 0.21094 1.7227 0.3125 2.6406 0.3125 1.5938 0 2.8047-0.3125 3.6406-0.9375 0.83203-0.63281 1.25-1.5508 1.25-2.75 0-1.1016-0.39062-1.9688-1.1719-2.5938-0.77344-0.625-1.8516-0.9375-3.2344-0.9375h-2.1875v-2.0781h2.2969c1.2383 0 2.1914-0.25 2.8594-0.75 0.66406-0.5 1-1.2188 1-2.1562 0-0.96875-0.34375-1.707-1.0312-2.2188-0.6875-0.51953-1.668-0.78125-2.9375-0.78125-0.69922 0-1.4492 0.078125-2.25 0.23438-0.79297 0.14844-1.6641 0.38281-2.6094 0.70312v-2.2656c0.95703-0.26953 1.8594-0.46875 2.7031-0.59375 0.84375-0.13281 1.6406-0.20312 2.3906-0.20312 1.9258 0 3.4453 0.4375 4.5625 1.3125 1.125 0.875 1.6875 2.0586 1.6875 3.5469 0 1.043-0.29688 1.9219-0.89062 2.6406-0.59375 0.71094-1.4375 1.2031-2.5312 1.4844z"/>
</symbol>
<symbol id="aj" overflow="visible">
<path d="m11.906-13.406c-0.29297-0.16406-0.60938-0.28516-0.95312-0.35938-0.34375-0.082031-0.72656-0.125-1.1406-0.125-1.4688 0-2.6016 0.48047-3.3906 1.4375-0.78125 0.94922-1.1719 2.3203-1.1719 4.1094v8.3438h-2.625v-15.828h2.625v2.4531c0.53906-0.95703 1.25-1.6719 2.125-2.1406 0.88281-0.46875 1.9531-0.70312 3.2031-0.70312 0.17578 0 0.375 0.015625 0.59375 0.046875 0.21875 0.023437 0.45703 0.054687 0.71875 0.09375z"/>
</symbol>
<symbol id="ai" overflow="visible">
<path d="m8.875-14.016c-1.3984 0-2.5 0.54688-3.3125 1.6406-0.8125 1.0859-1.2188 2.5742-1.2188 4.4688 0 1.8984 0.39844 3.3906 1.2031 4.4844 0.8125 1.0859 1.9219 1.625 3.3281 1.625 1.3828 0 2.4766-0.54688 3.2812-1.6406 0.8125-1.0938 1.2188-2.582 1.2188-4.4688 0-1.875-0.40625-3.3594-1.2188-4.4531-0.80469-1.1016-1.8984-1.6562-3.2812-1.6562zm0-2.2031c2.2578 0 4.0352 0.74219 5.3281 2.2188 1.2891 1.4688 1.9375 3.5 1.9375 6.0938s-0.64844 4.6328-1.9375 6.1094c-1.293 1.4688-3.0703 2.2031-5.3281 2.2031-2.2812 0-4.0703-0.73438-5.3594-2.2031-1.2812-1.4766-1.9219-3.5156-1.9219-6.1094s0.64062-4.625 1.9219-6.0938c1.2891-1.4766 3.0781-2.2188 5.3594-2.2188z"/>
</symbol>
<symbol id="ah" overflow="visible">
<path d="m5.2969-20.328v4.5h5.375v2.0156h-5.375v8.5938c0 1.293 0.17578 2.125 0.53125 2.5 0.35156 0.36719 1.0703 0.54688 2.1562 0.54688h2.6875v2.1719h-2.6875c-2 0-3.3867-0.375-4.1562-1.125-0.76172-0.75-1.1406-2.1133-1.1406-4.0938v-8.5938h-1.9062v-2.0156h1.9062v-4.5z"/>
</symbol>
<symbol id="ag" overflow="visible">
<path d="m1.1719-25.781h3.5312l5.4219 21.797 5.4219-21.797h3.9219l5.4219 21.797 5.4219-21.797h3.5312l-6.4688 25.781h-4.4062l-5.4375-22.391-5.5 22.391h-4.3906z"/>
</symbol>
<symbol id="e" overflow="visible">
<path d="m19.906-10.469v1.5625h-14.641c0.14453 2.1875 0.80469 3.8555 1.9844 5 1.1875 1.1484 2.832 1.7188 4.9375 1.7188 1.2188 0 2.3984-0.14844 3.5469-0.45312 1.1562-0.30078 2.2969-0.75 3.4219-1.3438v3c-1.1484 0.48047-2.3203 0.84375-3.5156 1.0938-1.1992 0.25781-2.4141 0.39062-3.6406 0.39062-3.0938 0-5.543-0.89453-7.3438-2.6875-1.8047-1.8008-2.7031-4.2344-2.7031-7.2969 0-3.1641 0.85156-5.6758 2.5625-7.5312 1.7188-1.8633 4.0234-2.7969 6.9219-2.7969 2.6133 0 4.6758 0.83984 6.1875 2.5156 1.5195 1.6797 2.2812 3.9531 2.2812 6.8281zm-3.1875-0.9375c-0.023438-1.7383-0.51172-3.125-1.4688-4.1562-0.94922-1.0391-2.2031-1.5625-3.7656-1.5625-1.7812 0-3.2031 0.50781-4.2656 1.5156-1.0625 1-1.6797 2.4062-1.8438 4.2188z"/>
</symbol>
<symbol id="d" overflow="visible">
<path d="m3.3438-26.875h3.1719v26.875h-3.1719z"/>
</symbol>
<symbol id="c" overflow="visible">
<path d="m19.438-11.672v11.672h-3.1875v-11.578c0-1.8203-0.35938-3.1875-1.0781-4.0938-0.71094-0.91406-1.7773-1.375-3.2031-1.375-1.7188 0-3.0781 0.54688-4.0781 1.6406-0.99219 1.0938-1.4844 2.5859-1.4844 4.4688v10.938h-3.1875v-19.344h3.1875v3c0.76953-1.1562 1.6719-2.0195 2.7031-2.5938 1.0312-0.58203 2.2188-0.875 3.5625-0.875 2.2266 0 3.9102 0.6875 5.0469 2.0625 1.1445 1.375 1.7188 3.4023 1.7188 6.0781z"/>
</symbol>
<symbol id="ae" overflow="visible">
<path d="m12.141-9.7188c-2.5742 0-4.3555 0.29297-5.3438 0.875-0.99219 0.58594-1.4844 1.5859-1.4844 3 0 1.1367 0.36719 2.0391 1.1094 2.7031 0.73828 0.65625 1.75 0.98438 3.0312 0.98438 1.7695 0 3.1875-0.625 4.25-1.875s1.5938-2.9102 1.5938-4.9844v-0.70312zm6.3438-1.3125v11.031h-3.1875v-2.9375c-0.73047 1.1797-1.6367 2.0469-2.7188 2.6094-1.0859 0.55078-2.4062 0.82812-3.9688 0.82812-1.9805 0-3.5586-0.55078-4.7344-1.6562-1.168-1.1133-1.75-2.6016-1.75-4.4688 0-2.1758 0.72656-3.8164 2.1875-4.9219 1.457-1.1133 3.6328-1.6719 6.5312-1.6719h4.4531v-0.29688c0-1.4688-0.48438-2.6016-1.4531-3.4062-0.96094-0.80078-2.3086-1.2031-4.0469-1.2031-1.1055 0-2.1836 0.13672-3.2344 0.40625-1.043 0.26172-2.0469 0.65625-3.0156 1.1875v-2.9375c1.1641-0.44531 2.2969-0.78125 3.3906-1 1.0938-0.22656 2.1562-0.34375 3.1875-0.34375 2.8008 0 4.8945 0.73047 6.2812 2.1875 1.3828 1.4492 2.0781 3.6484 2.0781 6.5938zm-6.5781-15.781h3.5v3.5h-3.5zm-6.7656 0h3.5v3.5h-3.5z"/>
</symbol>
<symbol id="ad" overflow="visible">
<path d="m16.078-9.8906c0-2.3125-0.48047-4.0977-1.4375-5.3594-0.94922-1.2695-2.2773-1.9062-3.9844-1.9062-1.7109 0-3.043 0.63672-4 1.9062-0.94922 1.2617-1.4219 3.0469-1.4219 5.3594 0 2.293 0.47266 4.0742 1.4219 5.3438 0.95703 1.2617 2.2891 1.8906 4 1.8906 1.707 0 3.0352-0.62891 3.9844-1.8906 0.95703-1.2695 1.4375-3.0508 1.4375-5.3438zm3.1875 7.4844c0 3.3008-0.73438 5.7539-2.2031 7.3594-1.4609 1.6016-3.6992 2.4062-6.7188 2.4062-1.125 0-2.1836-0.085937-3.1719-0.25-0.99219-0.16797-1.9531-0.42188-2.8906-0.76562v-3.0938c0.9375 0.5 1.8594 0.86719 2.7656 1.1094 0.91406 0.25 1.8477 0.375 2.7969 0.375 2.082 0 3.6406-0.54688 4.6719-1.6406 1.0391-1.0859 1.5625-2.7266 1.5625-4.9219v-1.5781c-0.65625 1.1484-1.5 2-2.5312 2.5625-1.0234 0.5625-2.2461 0.84375-3.6719 0.84375-2.375 0-4.293-0.89844-5.75-2.7031-1.4492-1.8125-2.1719-4.207-2.1719-7.1875 0-3 0.72266-5.3984 2.1719-7.2031 1.457-1.8125 3.375-2.7188 5.75-2.7188 1.4258 0 2.6484 0.28125 3.6719 0.84375 1.0312 0.5625 1.875 1.418 2.5312 2.5625v-2.9375h3.1875z"/>
</symbol>
<symbol id="ac" overflow="visible"></symbol>
<symbol id="ab" overflow="visible">
<path d="m3.0469-26.875h7.3281v2.4688h-4.1562v26.594h4.1562v2.4688h-7.3281z"/>
</symbol>
<symbol id="aa" overflow="visible">
<path d="m18.406-15.625c0.80078-1.4375 1.7539-2.4922 2.8594-3.1719 1.1016-0.67578 2.4062-1.0156 3.9062-1.0156 2.0195 0 3.5781 0.71094 4.6719 2.125 1.0938 1.4062 1.6406 3.4141 1.6406 6.0156v11.672h-3.2031v-11.578c0-1.8516-0.32812-3.2266-0.98438-4.125-0.65625-0.89453-1.6562-1.3438-3-1.3438-1.6562 0-2.9648 0.54688-3.9219 1.6406-0.94922 1.0938-1.4219 2.5859-1.4219 4.4688v10.938h-3.2031v-11.578c0-1.8633-0.32812-3.2383-0.98438-4.125-0.65625-0.89453-1.6719-1.3438-3.0469-1.3438-1.625 0-2.918 0.55469-3.875 1.6562-0.96094 1.0938-1.4375 2.5781-1.4375 4.4531v10.938h-3.1875v-19.344h3.1875v3c0.72656-1.1875 1.5977-2.0625 2.6094-2.625 1.0195-0.5625 2.2266-0.84375 3.625-0.84375 1.4062 0 2.5977 0.35938 3.5781 1.0781 0.98828 0.71094 1.7188 1.7461 2.1875 3.1094z"/>
</symbol>
<symbol id="af" overflow="visible">
<path d="m10.766-26.875v31.531h-7.3281v-2.4688h4.1406v-26.594h-4.1406v-2.4688z"/>
</symbol>
<symbol id="z" overflow="visible">
<path d="m-18.766-0.125v-17.297h3.6562v6.2188h15.109v4.8438h-15.109v6.2344z"/>
</symbol>
<symbol id="y" overflow="visible">
<path d="m-10.25-12.609c-0.1875 0.38672-0.32031 0.77734-0.40625 1.1719-0.082031 0.38672-0.125 0.77734-0.125 1.1719 0 1.1562 0.37109 2.0469 1.1094 2.6719 0.74219 0.625 1.8047 0.9375 3.1875 0.9375h6.4844v4.5h-14.078v-4.5h2.3125c-0.92578-0.58203-1.5977-1.25-2.0156-2-0.42578-0.75-0.64062-1.6445-0.64062-2.6875 0-0.15625 0.007813-0.31641 0.015625-0.48438 0.011719-0.17578 0.039062-0.4375 0.078125-0.78125z"/>
</symbol>
<symbol id="x" overflow="visible">
<path d="m-6.3438-8.4688c0 0.9375 0.16406 1.6484 0.48438 2.125 0.32422 0.46875 0.79297 0.70312 1.4062 0.70312 0.57422 0 1.0234-0.1875 1.3438-0.5625 0.32422-0.38281 0.48438-0.91406 0.48438-1.5938 0-0.85156-0.30078-1.5664-0.90625-2.1406-0.61328-0.58203-1.3789-0.875-2.2969-0.875h-0.51562zm-1.6875-6.875h8.0312v4.5312h-2.0938c0.85547 0.60547 1.4805 1.2891 1.875 2.0469 0.38281 0.75 0.57812 1.668 0.57812 2.75 0 1.4609-0.42188 2.6406-1.2656 3.5469-0.85156 0.90625-1.957 1.3594-3.3125 1.3594-1.6562 0-2.8672-0.56641-3.6406-1.7031-0.76953-1.1328-1.1562-2.9141-1.1562-5.3438v-2.6562h-0.34375c-0.71875 0-1.2383 0.28125-1.5625 0.84375-0.33203 0.5625-0.5 1.4375-0.5 2.625 0 0.96875 0.10156 1.8711 0.29688 2.7031 0.1875 0.82422 0.47656 1.5898 0.85938 2.2969h-3.4375c-0.23828-0.95703-0.41406-1.9219-0.53125-2.8906-0.125-0.97656-0.1875-1.9531-0.1875-2.9219 0-2.5391 0.5-4.375 1.5-5.5s2.6328-1.6875 4.8906-1.6875z"/>
</symbol>
<symbol id="i" overflow="visible">
<path d="m-8.5781-16.312h8.5781v4.5312h-6.5625c-1.2188 0-2.0547 0.027344-2.5156 0.078125-0.45703 0.054687-0.79688 0.14844-1.0156 0.28125-0.28906 0.17969-0.51953 0.41797-0.6875 0.71875-0.16406 0.30469-0.25 0.64844-0.25 1.0312 0 0.9375 0.36719 1.6797 1.0938 2.2188 0.71875 0.53125 1.7266 0.79688 3.0156 0.79688h6.9219v4.5h-14.078v-4.5h2.0625c-0.82031-0.67578-1.4258-1.3945-1.8125-2.1562-0.39453-0.76953-0.59375-1.6133-0.59375-2.5312 0-1.625 0.5-2.8594 1.5-3.7031s2.4492-1.2656 4.3438-1.2656z"/>
</symbol>
<symbol id="b" overflow="visible">
<path d="m-13.641-13.156h3.4219c-0.40625 0.96094-0.70703 1.8906-0.90625 2.7969-0.19531 0.89844-0.29688 1.7422-0.29688 2.5312 0 0.85547 0.10938 1.4922 0.32812 1.9062 0.21094 0.41797 0.53125 0.625 0.96875 0.625 0.36719 0 0.64844-0.15625 0.84375-0.46875 0.1875-0.32031 0.32812-0.89062 0.42188-1.7031l0.10938-0.78125c0.29297-2.3125 0.77734-3.8633 1.4531-4.6562 0.66797-0.78906 1.7148-1.1875 3.1406-1.1875 1.5 0 2.6328 0.55469 3.3906 1.6562 0.75 1.1055 1.125 2.7578 1.125 4.9531 0 0.92969-0.074219 1.8906-0.21875 2.8906-0.14453 0.99219-0.36328 2.0078-0.65625 3.0469h-3.4219c0.4375-0.89453 0.76562-1.8125 0.98438-2.75 0.21875-0.94531 0.32812-1.9062 0.32812-2.875 0-0.88281-0.11719-1.5469-0.35938-1.9844-0.25-0.44531-0.61328-0.67188-1.0938-0.67188-0.39453 0-0.69141 0.15625-0.89062 0.46875-0.19531 0.30469-0.35156 0.90625-0.46875 1.8125l-0.09375 0.79688c-0.25 2-0.71094 3.4062-1.3906 4.2188-0.6875 0.80469-1.7188 1.2031-3.0938 1.2031-1.5 0-2.6094-0.50781-3.3281-1.5312-0.71875-1.0195-1.0781-2.5859-1.0781-4.7031 0-0.83203 0.0625-1.7031 0.1875-2.6094 0.125-0.91406 0.32422-1.9102 0.59375-2.9844z"/>
</symbol>
<symbol id="w" overflow="visible">
<path d="m-11.75-15.203c-0.86328-0.57031-1.5234-1.25-1.9844-2.0312-0.45703-0.78125-0.6875-1.6406-0.6875-2.5781 0-1.6133 0.5-2.8438 1.5-3.6875 1-0.85156 2.4492-1.2812 4.3438-1.2812h8.5781v4.5312h-7.3438c-0.10156-0.007812-0.21094-0.015625-0.32812-0.015625-0.125-0.007813-0.29688-0.015625-0.51562-0.015625-1 0-1.7227 0.14844-2.1719 0.4375-0.44531 0.29297-0.67188 0.76562-0.67188 1.4219 0 0.85547 0.35547 1.5156 1.0625 1.9844 0.69922 0.46094 1.7148 0.69922 3.0469 0.71875h6.9219v4.5156h-7.3438c-1.5625 0-2.5664 0.13672-3.0156 0.40625-0.44531 0.27344-0.67188 0.75-0.67188 1.4375 0 0.86719 0.35547 1.5312 1.0625 2 0.71094 0.46875 1.7266 0.70312 3.0469 0.70312h6.9219v4.5156h-14.078v-4.5156h2.0625c-0.80078-0.55078-1.3984-1.1875-1.7969-1.9062-0.40625-0.71875-0.60938-1.5078-0.60938-2.375 0-0.96875 0.23438-1.8203 0.70312-2.5625 0.46875-0.75 1.125-1.3164 1.9688-1.7031z"/>
</symbol>
<symbol id="h" overflow="visible">
<path d="m-14.078-2.1562v-4.5h14.078v4.5zm-5.4844 0v-4.5h3.6719v4.5z"/>
</symbol>
<symbol id="v" overflow="visible">
<path d="m-11.203-8.8594c0 1 0.35938 1.7617 1.0781 2.2812 0.71875 0.52344 1.75 0.78125 3.0938 0.78125 1.3555 0 2.3906-0.25781 3.1094-0.78125 0.71094-0.51953 1.0625-1.2812 1.0625-2.2812 0-0.97656-0.35156-1.7266-1.0625-2.25-0.71875-0.51953-1.7539-0.78125-3.1094-0.78125-1.3438 0-2.375 0.26172-3.0938 0.78125-0.71875 0.52344-1.0781 1.2734-1.0781 2.25zm-3.2188 0c0-2.4141 0.65625-4.3047 1.9688-5.6719 1.3047-1.3633 3.1094-2.0469 5.4219-2.0469s4.125 0.68359 5.4375 2.0469c1.3047 1.3672 1.9531 3.2578 1.9531 5.6719 0 2.4297-0.64844 4.3281-1.9531 5.7031-1.3125 1.3672-3.125 2.0469-5.4375 2.0469s-4.1172-0.67969-5.4219-2.0469c-1.3125-1.375-1.9688-3.2734-1.9688-5.7031z"/>
</symbol>
<symbol id="u" overflow="visible"></symbol>
<symbol id="t" overflow="visible">
<path d="m-19.562-2.2188v-5.3281h1.7969v3.0156h19.359v-3.0156h1.7969v5.3281z"/>
</symbol>
<symbol id="s" overflow="visible">
<path d="m-8.2656-18.703c0 0.73047 0.3125 1.3047 0.9375 1.7188 0.61719 0.40625 1.4805 0.60938 2.5938 0.60938 1.0859 0 1.9375-0.20312 2.5625-0.60938 0.625-0.41406 0.9375-0.98828 0.9375-1.7188 0-0.71875-0.3125-1.2812-0.9375-1.6875-0.625-0.41406-1.4766-0.625-2.5625-0.625-1.1016 0-1.9688 0.21094-2.5938 0.625-0.625 0.40625-0.9375 0.96875-0.9375 1.6875zm-1.5938 0c0-1.332 0.46484-2.3828 1.3906-3.1562 0.91797-0.78125 2.1641-1.1719 3.7344-1.1719 1.5625 0 2.8047 0.39062 3.7188 1.1719 0.91797 0.78125 1.375 1.8359 1.375 3.1562 0 1.3359-0.45703 2.3906-1.375 3.1719-0.91406 0.78125-2.1562 1.1719-3.7188 1.1719-1.582 0-2.832-0.39062-3.75-1.1719-0.91406-0.78906-1.375-1.8477-1.375-3.1719zm-7.6562 12.953c0 0.73047 0.3125 1.3047 0.9375 1.7188 0.625 0.40625 1.4844 0.60938 2.5781 0.60938 1.1055 0 1.9688-0.20312 2.5938-0.60938 0.61719-0.41406 0.92188-0.98828 0.92188-1.7188 0-0.71875-0.30469-1.2852-0.92188-1.7031-0.625-0.41406-1.4883-0.625-2.5938-0.625-1.082 0-1.9375 0.21094-2.5625 0.625-0.63281 0.41797-0.95312 0.98438-0.95312 1.7031zm-1.5938-11.344v-2l19.469 11.734v2zm0 11.344c0-1.3203 0.46094-2.375 1.375-3.1562 0.91797-0.78906 2.1641-1.1875 3.7344-1.1875 1.5859 0 2.8359 0.39844 3.75 1.1875 0.90625 0.78125 1.3594 1.8359 1.3594 3.1562 0 1.3359-0.45703 2.3906-1.375 3.1719-0.91406 0.77344-2.1602 1.1562-3.7344 1.1562-1.5625 0-2.8008-0.38281-3.7188-1.1562-0.92578-0.78125-1.3906-1.8359-1.3906-3.1719z"/>
</symbol>
<symbol id="r" overflow="visible">
<path d="m-19.562-7.8281h22.953v5.3281h-1.7969v-3h-19.359v3h-1.7969z"/>
</symbol>
</defs>
<path transform="matrix(3.2181 0 0 3.2162 32.372 27.842)" d="m27.982 146.38v-144.98h196.46v139.27h-202.08" fill="none" stroke="#000" stroke-width="1.5"/>
<path transform="matrix(3.2181 0 0 3.2162 32.372 27.842)" d="m42.392 1.3924v139.27" fill="none" stroke="#000" stroke-width=".5"/>
<path transform="matrix(3.2181 0 0 3.2162 32.372 27.842)" d="m88.829 1.3924v139.27" fill="none" stroke="#000" stroke-width=".5"/>
<path transform="matrix(3.2181 0 0 3.2162 32.372 27.842)" d="m135.26 1.3924v139.27" fill="none" stroke="#000" stroke-width=".5"/>
<path transform="matrix(3.2181 0 0 3.2162 32.372 27.842)" d="m181.7 1.3924v139.27" fill="none" stroke="#000" stroke-width=".5"/>
<path transform="matrix(3.2181 0 0 3.2162 32.372 27.842)" d="m224.44 105.85h-196.46" fill="none" stroke="#000" stroke-width=".75"/>
<path transform="matrix(3.2181 0 0 3.2162 32.372 27.842)" d="m224.44 71.03h-196.46" fill="none" stroke="#000" stroke-width=".75"/>
<path transform="matrix(3.2181 0 0 3.2162 32.372 27.842)" d="m224.44 36.211h-196.46" fill="none" stroke="#000" stroke-width=".75"/>
<path transform="matrix(3.2181 0 0 3.2162 32.372 27.842)" d="m224.44 1.3924h-196.46" fill="none" stroke="#000" stroke-width=".75"/>
<g>
<use x="144.886719" y="518.312633" xlink:href="#q"/>
<use x="160.977182" y="518.312633" xlink:href="#a"/>
<use x="177.067646" y="518.312633" xlink:href="#a"/>
</g>
<g>
<use x="293.957031" y="518.312633" xlink:href="#am"/>
<use x="310.047495" y="518.312633" xlink:href="#a"/>
<use x="326.137959" y="518.312633" xlink:href="#a"/>
</g>
<g>
<use x="443.484375" y="518.312633" xlink:href="#l"/>
<use x="459.574839" y="518.312633" xlink:href="#a"/>
<use x="475.665302" y="518.312633" xlink:href="#a"/>
</g>
<g>
<use x="592.761719" y="518.312633" xlink:href="#k"/>
<use x="608.852182" y="518.312633" xlink:href="#a"/>
<use x="624.942646" y="518.312633" xlink:href="#a"/>
</g>
<g>
<use x="730.476562" y="518.312633" xlink:href="#j"/>
<use x="746.567026" y="518.312633" xlink:href="#a"/>
<use x="762.65749" y="518.312633" xlink:href="#a"/>
</g>
<g>
<use x="216.160156" y="558.222789" xlink:href="#al"/>
<use x="232.25062" y="558.222789" xlink:href="#ak"/>
<use x="238.686805" y="558.222789" xlink:href="#f"/>
<use x="254.777269" y="558.222789" xlink:href="#au"/>
</g>
<g>
<use x="364.367188" y="554.418101" xlink:href="#at"/>
<use x="380.457651" y="554.418101" xlink:href="#g"/>
<use x="390.111929" y="554.418101" xlink:href="#as"/>
<use x="406.202393" y="554.418101" xlink:href="#ar"/>
</g>
<g>
<use x="520.496094" y="560.545665" xlink:href="#aj"/>
<use x="530.150372" y="560.545665" xlink:href="#ai"/>
<use x="549.458928" y="560.545665" xlink:href="#ah"/>
</g>
<g>
<use x="283.382812" y="605.051557" xlink:href="#ag"/>
<use x="315.56374" y="605.051557" xlink:href="#e"/>
<use x="338.090389" y="605.051557" xlink:href="#d"/>
<use x="347.744667" y="605.051557" xlink:href="#d"/>
<use x="357.398945" y="605.051557" xlink:href="#e"/>
<use x="379.925595" y="605.051557" xlink:href="#c"/>
<use x="402.452244" y="605.051557" xlink:href="#d"/>
<use x="412.106522" y="605.051557" xlink:href="#ae"/>
<use x="434.633171" y="605.051557" xlink:href="#c"/>
<use x="457.15982" y="605.051557" xlink:href="#ad"/>
<use x="479.686469" y="605.051557" xlink:href="#e"/>
<use x="502.213119" y="605.051557" xlink:href="#ac"/>
<use x="511.867397" y="605.051557" xlink:href="#ab"/>
<use x="524.739768" y="605.051557" xlink:href="#c"/>
<use x="547.266417" y="605.051557" xlink:href="#aa"/>
<use x="582.665437" y="605.051557" xlink:href="#af"/>
</g>
<g>
<use x="42.088259" y="379.070312" xlink:href="#z"/>
<use x="42.088259" y="362.989213" xlink:href="#y"/>
<use x="42.088259" y="350.124334" xlink:href="#x"/>
<use x="42.088259" y="334.043234" xlink:href="#i"/>
<use x="42.088259" y="314.745915" xlink:href="#b"/>
<use x="42.088259" y="298.664816" xlink:href="#w"/>
<use x="42.088259" y="272.935057" xlink:href="#h"/>
<use x="42.088259" y="263.286398" xlink:href="#b"/>
<use x="42.088259" y="247.205298" xlink:href="#b"/>
<use x="42.088259" y="231.124199" xlink:href="#h"/>
<use x="42.088259" y="221.475539" xlink:href="#v"/>
<use x="42.088259" y="205.39444" xlink:href="#i"/>
</g>
<g>
<use x="42.088259" y="186.097656" xlink:href="#u"/>
<use x="42.088259" y="176.448997" xlink:href="#t"/>
<use x="42.088259" y="166.800337" xlink:href="#s"/>
<use x="42.088259" y="141.070578" xlink:href="#r"/>
</g>
<g>
<use x="79.570312" y="377.640758" xlink:href="#aq"/>
<use x="95.660776" y="377.640758" xlink:href="#a"/>
</g>
<g>
<use x="79.570312" y="265.656383" xlink:href="#q"/>
<use x="95.660776" y="265.656383" xlink:href="#a"/>
</g>
<g>
<use x="79.570312" y="153.672008" xlink:href="#l"/>
<use x="95.660776" y="153.672008" xlink:href="#a"/>
</g>
<g>
<use x="79.570312" y="41.687633" xlink:href="#j"/>
<use x="95.660776" y="41.687633" xlink:href="#a"/>
</g>
<g>
<use x="329.605469" y="290.312633" xlink:href="#ap"/>
<use x="352.132118" y="290.312633" xlink:href="#k"/>
<use x="368.222582" y="290.312633" xlink:href="#a"/>
<use x="384.313045" y="290.312633" xlink:href="#p"/>
<use x="393.967323" y="290.312633" xlink:href="#o"/>
<use x="400.403509" y="290.312633" xlink:href="#f"/>
<use x="416.493973" y="290.312633" xlink:href="#n"/>
<use x="432.584436" y="290.312633" xlink:href="#g"/>
<use x="442.238715" y="290.312633" xlink:href="#m"/>
</g>
<g>
<use x="329.605469" y="87.613414" xlink:href="#ao"/>
<use x="352.132118" y="87.613414" xlink:href="#an"/>
<use x="368.222582" y="87.613414" xlink:href="#a"/>
<use x="384.313045" y="87.613414" xlink:href="#p"/>
<use x="393.967323" y="87.613414" xlink:href="#o"/>
<use x="400.403509" y="87.613414" xlink:href="#f"/>
<use x="416.493973" y="87.613414" xlink:href="#n"/>
<use x="432.584436" y="87.613414" xlink:href="#g"/>
<use x="442.238715" y="87.613414" xlink:href="#m"/>
</g>
<path transform="matrix(3.2181 0 0 3.2162 32.372 27.842)" d="m36.086 140.67c19.187-36.547 16.823-57.274 19.069-82.332 1.175-13.11 2.3209-24.752 6.6676-31.538 5.8859-9.1893 13.181-14.434 18.144-16.619 1.8754-0.82589 3.7848-1.2449 4.4257-1.2158h113.05" fill="none" stroke="#000" stroke-width="1.2"/>
<path transform="matrix(3.2181 0 0 3.2162 32.372 27.842)" d="m51.846 140.67c6.8461-20.5 16.573-39.219 36.982-65.188 26.427-33.626 42.302-56.742 105.4-55.11" fill="none" stroke="#000" stroke-width="1.2"/>
</svg>
