<?xml version="1.0" encoding="UTF-8"?>
<svg width="600px" height="477px" version="1.1" viewBox="0 0 600 477" xmlns="http://www.w3.org/2000/svg" xmlns:xlink="http://www.w3.org/1999/xlink">
<defs>
<symbol id="q" overflow="visible">
<path d="m7.2969-12.422-4.8125 7.5156h4.8125zm-0.5-1.6719h2.3906v9.1875h2.0156v1.5781h-2.0156v3.3281h-1.8906v-3.3281h-6.3594v-1.8281z"/>
</symbol>
<symbol id="a" overflow="visible">
<path d="m6.1406-12.828c-0.98047 0-1.7188 0.48438-2.2188 1.4531-0.49219 0.96094-0.73438 2.4062-0.73438 4.3438 0 1.9297 0.24219 3.375 0.73438 4.3438 0.5 0.96875 1.2383 1.4531 2.2188 1.4531 0.98828 0 1.7266-0.48438 2.2188-1.4531 0.48828-0.96875 0.73438-2.4141 0.73438-4.3438 0-1.9375-0.24609-3.3828-0.73438-4.3438-0.49219-0.96875-1.2305-1.4531-2.2188-1.4531zm0-1.5156c1.5703 0 2.7734 0.625 3.6094 1.875 0.83203 1.25 1.25 3.0625 1.25 5.4375s-0.41797 4.1875-1.25 5.4375c-0.83594 1.25-2.0391 1.875-3.6094 1.875-1.5859 0-2.793-0.625-3.625-1.875-0.83594-1.25-1.25-3.0625-1.25-5.4375s0.41406-4.1875 1.25-5.4375c0.83203-1.25 2.0391-1.875 3.625-1.875z"/>
</symbol>
<symbol id="am" overflow="visible">
<path d="m2.0781-14.094h7.4844v1.6094h-5.7344v3.4531c0.28125-0.09375 0.55469-0.16016 0.82812-0.20312 0.28125-0.050781 0.55469-0.078125 0.82812-0.078125 1.5703 0 2.8164 0.43359 3.7344 1.2969 0.91406 0.85547 1.375 2.0234 1.375 3.5 0 1.5117-0.47656 2.6875-1.4219 3.5312-0.9375 0.84375-2.2617 1.2656-3.9688 1.2656-0.59375 0-1.1992-0.054688-1.8125-0.15625-0.61719-0.10547-1.25-0.25391-1.9062-0.45312v-1.9219c0.57031 0.3125 1.1602 0.54688 1.7656 0.70312 0.60156 0.14844 1.2383 0.21875 1.9062 0.21875 1.0938 0 1.9531-0.28516 2.5781-0.85938 0.63281-0.57031 0.95312-1.3477 0.95312-2.3281 0-0.98828-0.32031-1.7656-0.95312-2.3281-0.625-0.57031-1.4844-0.85938-2.5781-0.85938-0.51172 0-1.0234 0.058594-1.5312 0.17188-0.5 0.10547-1.0156 0.27734-1.5469 0.51562z"/>
</symbol>
<symbol id="l" overflow="visible">
<path d="m6.375-7.8125c-0.85547 0-1.5312 0.29688-2.0312 0.89062-0.5 0.58594-0.75 1.3867-0.75 2.4062 0 1.0117 0.25 1.8125 0.75 2.4062 0.5 0.58594 1.1758 0.875 2.0312 0.875 0.85156 0 1.5312-0.28906 2.0312-0.875 0.5-0.59375 0.75-1.3945 0.75-2.4062 0-1.0195-0.25-1.8203-0.75-2.4062-0.5-0.59375-1.1797-0.89062-2.0312-0.89062zm3.7812-5.9688v1.7344c-0.48047-0.21875-0.96484-0.38281-1.4531-0.5-0.48047-0.125-0.96094-0.1875-1.4375-0.1875-1.2617 0-2.2266 0.42969-2.8906 1.2812-0.65625 0.84375-1.0312 2.125-1.125 3.8438 0.36328-0.55078 0.82812-0.97266 1.3906-1.2656 0.5625-0.28906 1.1758-0.4375 1.8438-0.4375 1.4141 0 2.5352 0.43359 3.3594 1.2969 0.82031 0.85547 1.2344 2.0234 1.2344 3.5 0 1.4492-0.43359 2.6094-1.2969 3.4844-0.85547 0.875-1.9922 1.3125-3.4062 1.3125-1.625 0-2.8711-0.625-3.7344-1.875-0.86719-1.25-1.2969-3.0625-1.2969-5.4375 0-2.2266 0.52344-4.0039 1.5781-5.3281 1.0625-1.3203 2.4844-1.9844 4.2656-1.9844 0.47656 0 0.95703 0.046875 1.4375 0.14062 0.48828 0.09375 1 0.23438 1.5312 0.42188z"/>
</symbol>
<symbol id="k" overflow="visible">
<path d="m1.5781-14.094h9.0625v0.8125l-5.1094 13.281h-2l4.8125-12.484h-6.7656z"/>
</symbol>
<symbol id="j" overflow="visible">
<path d="m6.1406-6.6875c-0.90625 0-1.6211 0.24609-2.1406 0.73438-0.52344 0.48047-0.78125 1.1406-0.78125 1.9844 0 0.85547 0.25781 1.5273 0.78125 2.0156 0.51953 0.48047 1.2344 0.71875 2.1406 0.71875s1.6172-0.24219 2.1406-0.73438c0.51953-0.48828 0.78125-1.1562 0.78125-2s-0.26172-1.5039-0.78125-1.9844c-0.52344-0.48828-1.2344-0.73438-2.1406-0.73438zm-1.9062-0.8125c-0.8125-0.20703-1.4492-0.58594-1.9062-1.1406-0.46094-0.5625-0.6875-1.2422-0.6875-2.0469 0-1.125 0.39844-2.0156 1.2031-2.6719 0.80078-0.65625 1.8984-0.98438 3.2969-0.98438 1.3945 0 2.4922 0.32812 3.2969 0.98438 0.80078 0.65625 1.2031 1.5469 1.2031 2.6719 0 0.80469-0.23047 1.4844-0.6875 2.0469-0.46094 0.55469-1.0938 0.93359-1.9062 1.1406 0.92578 0.21094 1.6445 0.625 2.1562 1.25 0.50781 0.625 0.76562 1.3867 0.76562 2.2812 0 1.3672-0.41797 2.418-1.25 3.1562-0.83594 0.73047-2.0273 1.0938-3.5781 1.0938-1.5547 0-2.7461-0.36328-3.5781-1.0938-0.83594-0.73828-1.25-1.7891-1.25-3.1562 0-0.89453 0.25391-1.6562 0.76562-2.2812 0.51953-0.625 1.2383-1.0391 2.1562-1.25zm-0.70312-3.0156c0 0.73047 0.22656 1.3047 0.6875 1.7188 0.45703 0.40625 1.0977 0.60938 1.9219 0.60938 0.8125 0 1.4453-0.20312 1.9062-0.60938 0.46875-0.41406 0.70312-0.98828 0.70312-1.7188 0-0.72656-0.23438-1.2969-0.70312-1.7031-0.46094-0.40625-1.0938-0.60938-1.9062-0.60938-0.82422 0-1.4648 0.20312-1.9219 0.60938-0.46094 0.40625-0.6875 0.97656-0.6875 1.7031z"/>
</symbol>
<symbol id="al" overflow="visible">
<path d="m9.4062-5.2812c0-1.2695-0.26562-2.2695-0.79688-3-0.52344-0.72656-1.2422-1.0938-2.1562-1.0938-0.91797 0-1.6406 0.36719-2.1719 1.0938-0.52344 0.73047-0.78125 1.7305-0.78125 3 0 1.2812 0.25781 2.2891 0.78125 3.0156 0.53125 0.71875 1.2539 1.0781 2.1719 1.0781 0.91406 0 1.6328-0.35938 2.1562-1.0781 0.53125-0.72656 0.79688-1.7344 0.79688-3.0156zm-5.9062-3.6875c0.36328-0.625 0.82031-1.0859 1.375-1.3906 0.5625-0.3125 1.2266-0.46875 2-0.46875 1.2812 0 2.3203 0.51172 3.125 1.5312 0.80078 1.0234 1.2031 2.3594 1.2031 4.0156 0 1.668-0.40234 3.0117-1.2031 4.0312-0.80469 1.0234-1.8438 1.5312-3.125 1.5312-0.77344 0-1.4375-0.15234-2-0.45312-0.55469-0.3125-1.0117-0.78125-1.375-1.4062v1.5781h-1.75v-14.688h1.75z"/>
</symbol>
<symbol id="ak" overflow="visible">
<path d="m1.8125-14.688h1.75v14.688h-1.75z"/>
</symbol>
<symbol id="f" overflow="visible">
<path d="m6.625-5.3125c-1.4062 0-2.3828 0.16406-2.9219 0.48438-0.54297 0.32422-0.8125 0.87109-0.8125 1.6406 0 0.61719 0.20312 1.1055 0.60938 1.4688 0.40625 0.35547 0.95703 0.53125 1.6562 0.53125 0.95703 0 1.7266-0.33594 2.3125-1.0156 0.58203-0.6875 0.875-1.5938 0.875-2.7188v-0.39062zm3.4531-0.71875v6.0312h-1.7344v-1.6094c-0.39844 0.64844-0.89062 1.125-1.4844 1.4375-0.58594 0.30078-1.3047 0.45312-2.1562 0.45312-1.0859 0-1.9492-0.30078-2.5938-0.90625-0.63672-0.61328-0.95312-1.4297-0.95312-2.4531 0-1.1875 0.39453-2.082 1.1875-2.6875 0.80078-0.60156 1.9883-0.90625 3.5625-0.90625h2.4375v-0.17188c0-0.80078-0.26562-1.4219-0.79688-1.8594-0.52344-0.4375-1.2578-0.65625-2.2031-0.65625-0.60547 0-1.1953 0.074219-1.7656 0.21875-0.57422 0.14844-1.1211 0.36719-1.6406 0.65625v-1.6094c0.63281-0.23828 1.25-0.42188 1.8438-0.54688s1.1758-0.1875 1.75-0.1875c1.5195 0 2.6562 0.39844 3.4062 1.1875 0.75781 0.79297 1.1406 1.9961 1.1406 3.6094z"/>
</symbol>
<symbol id="au" overflow="visible">
<path d="m1.6406-4.1719v-6.3906h1.7344v6.3281c0 1 0.19141 1.75 0.57812 2.25 0.39453 0.5 0.98438 0.75 1.7656 0.75 0.9375 0 1.6758-0.29688 2.2188-0.89062 0.53906-0.60156 0.8125-1.4219 0.8125-2.4531v-5.9844h1.7344v10.562h-1.7344v-1.625c-0.41797 0.64844-0.90625 1.125-1.4688 1.4375-0.55469 0.3125-1.1992 0.46875-1.9375 0.46875-1.2109 0-2.1328-0.375-2.7656-1.125-0.625-0.75781-0.9375-1.8672-0.9375-3.3281z"/>
</symbol>
<symbol id="at" overflow="visible">
<path d="m8.7656-5.4062c0-1.2578-0.26172-2.2344-0.78125-2.9219-0.51172-0.69531-1.2344-1.0469-2.1719-1.0469s-1.668 0.35156-2.1875 1.0469c-0.51172 0.6875-0.76562 1.6641-0.76562 2.9219 0 1.25 0.25391 2.2266 0.76562 2.9219 0.51953 0.6875 1.25 1.0312 2.1875 1.0312s1.6602-0.34375 2.1719-1.0312c0.51953-0.69531 0.78125-1.6719 0.78125-2.9219zm1.7344 4.0938c0 1.8008-0.40234 3.1406-1.2031 4.0156-0.79297 0.875-2.0117 1.3125-3.6562 1.3125-0.61719 0-1.1953-0.046875-1.7344-0.14062-0.53125-0.085938-1.0547-0.21875-1.5625-0.40625v-1.6875c0.50781 0.26953 1.0078 0.46875 1.5 0.59375 0.5 0.13281 1.0039 0.20312 1.5156 0.20312 1.1445 0 2-0.29688 2.5625-0.89062s0.84375-1.4922 0.84375-2.6875v-0.85938c-0.35547 0.625-0.8125 1.0938-1.375 1.4062-0.5625 0.30469-1.2305 0.45312-2 0.45312-1.3047 0-2.3516-0.49219-3.1406-1.4844-0.79297-0.98828-1.1875-2.2969-1.1875-3.9219 0-1.6328 0.39453-2.9453 1.1875-3.9375 0.78906-0.98828 1.8359-1.4844 3.1406-1.4844 0.76953 0 1.4375 0.15625 2 0.46875 0.5625 0.30469 1.0195 0.76562 1.375 1.3906v-1.5938h1.7344z"/>
</symbol>
<symbol id="g" overflow="visible">
<path d="m7.9375-8.9531c-0.19922-0.10156-0.41406-0.17969-0.64062-0.23438-0.23047-0.0625-0.48047-0.09375-0.75-0.09375-0.98047 0-1.7344 0.32422-2.2656 0.96875-0.52344 0.63672-0.78125 1.5547-0.78125 2.75v5.5625h-1.75v-10.562h1.75v1.6406c0.36328-0.64453 0.83594-1.125 1.4219-1.4375 0.58203-0.3125 1.2891-0.46875 2.125-0.46875 0.125 0 0.25781 0.011719 0.40625 0.03125 0.14453 0.011719 0.30469 0.03125 0.48438 0.0625z"/>
</symbol>
<symbol id="as" overflow="visible">
<path d="m1.6406-4.1719v-6.3906h1.7344v6.3281c0 1 0.19141 1.75 0.57812 2.25 0.39453 0.5 0.98438 0.75 1.7656 0.75 0.9375 0 1.6758-0.29688 2.2188-0.89062 0.53906-0.60156 0.8125-1.4219 0.8125-2.4531v-5.9844h1.7344v10.562h-1.7344v-1.625c-0.41797 0.64844-0.90625 1.125-1.4688 1.4375-0.55469 0.3125-1.1992 0.46875-1.9375 0.46875-1.2109 0-2.1328-0.375-2.7656-1.125-0.625-0.75781-0.9375-1.8672-0.9375-3.3281zm4.3594-6.6562m0.875-3.8125h1.9062v1.9062h-1.9062zm-3.6875 0h1.9062v1.9062h-1.9062z"/>
</symbol>
<symbol id="ar" overflow="visible">
<path d="m10.594-6.375v6.375h-1.7344v-6.3281c0-1-0.19922-1.7422-0.59375-2.2344-0.38672-0.5-0.96484-0.75-1.7344-0.75-0.9375 0-1.6797 0.30469-2.2188 0.90625-0.54297 0.59375-0.8125 1.4062-0.8125 2.4375v5.9688h-1.75v-10.562h1.75v1.6406c0.41406-0.63281 0.90625-1.1094 1.4688-1.4219 0.5625-0.32031 1.207-0.48438 1.9375-0.48438 1.2188 0 2.1328 0.38281 2.75 1.1406 0.625 0.75 0.9375 1.8555 0.9375 3.3125z"/>
</symbol>
<symbol id="aq" overflow="visible">
<path d="m3.7031-1.6094h6.6562v1.6094h-8.9375v-1.6094c0.71875-0.75 1.7031-1.7539 2.9531-3.0156 1.25-1.2578 2.0312-2.0703 2.3438-2.4375 0.61328-0.6875 1.0391-1.2656 1.2812-1.7344 0.23828-0.47656 0.35938-0.94531 0.35938-1.4062 0-0.75-0.26172-1.3594-0.78125-1.8281-0.52344-0.46875-1.2031-0.70312-2.0469-0.70312-0.60547 0-1.2422 0.10547-1.9062 0.3125-0.65625 0.19922-1.3594 0.51172-2.1094 0.9375v-1.9219c0.75781-0.3125 1.4727-0.54688 2.1406-0.70312 0.66406-0.15625 1.2734-0.23438 1.8281-0.23438 1.457 0 2.6172 0.36719 3.4844 1.0938 0.875 0.73047 1.3125 1.7031 1.3125 2.9219 0 0.58594-0.10938 1.1367-0.32812 1.6562-0.21875 0.51172-0.61719 1.1211-1.1875 1.8281-0.15625 0.1875-0.65625 0.71875-1.5 1.5938-0.84375 0.86719-2.0312 2.0781-3.5625 3.6406z"/>
</symbol>
<symbol id="ap" overflow="visible">
<path d="m2.0469-9.5156v-1.7188l12.094 4.3906v1.5625l-12.094 4.3906v-1.7188l9.7188-3.4375z"/>
</symbol>
<symbol id="p" overflow="visible"></symbol>
<symbol id="o" overflow="visible">
<path d="m1.8906-14.094h1.9062v13.109c0 1.6953-0.32422 2.9297-0.96875 3.7031-0.64844 0.76953-1.6836 1.1562-3.1094 1.1562h-0.71875v-1.6094h0.59375c0.84375 0 1.4375-0.24219 1.7812-0.71875 0.34375-0.46875 0.51562-1.3125 0.51562-2.5312z"/>
</symbol>
<symbol id="n" overflow="visible">
<path d="m10.594-6.375v6.375h-1.7344v-6.3281c0-1-0.19922-1.7422-0.59375-2.2344-0.38672-0.5-0.96484-0.75-1.7344-0.75-0.9375 0-1.6797 0.30469-2.2188 0.90625-0.54297 0.59375-0.8125 1.4062-0.8125 2.4375v5.9688h-1.75v-14.688h1.75v5.7656c0.41406-0.63281 0.90625-1.1094 1.4688-1.4219 0.5625-0.32031 1.207-0.48438 1.9375-0.48438 1.2188 0 2.1328 0.38281 2.75 1.1406 0.625 0.75 0.9375 1.8555 0.9375 3.3125z"/>
</symbol>
<symbol id="m" overflow="visible">
<path d="m10.859-5.7188v0.84375h-7.9844c0.070312 1.1992 0.42969 2.1094 1.0781 2.7344 0.64453 0.625 1.5391 0.9375 2.6875 0.9375 0.66406 0 1.3125-0.078125 1.9375-0.23438 0.63281-0.16406 1.2578-0.41406 1.875-0.75v1.6562c-0.625 0.26172-1.2656 0.46094-1.9219 0.59375-0.65625 0.14453-1.3203 0.21875-1.9844 0.21875-1.6875 0-3.0273-0.48828-4.0156-1.4688-0.98047-0.98828-1.4688-2.3203-1.4688-4 0-1.7266 0.46094-3.0977 1.3906-4.1094 0.9375-1.0195 2.2031-1.5312 3.7969-1.5312 1.4141 0 2.5352 0.46094 3.3594 1.375 0.83203 0.91797 1.25 2.1641 1.25 3.7344zm-1.7344-0.51562c-0.023438-0.94531-0.29297-1.7031-0.8125-2.2656-0.51172-0.57031-1.1953-0.85938-2.0469-0.85938-0.96875 0-1.7461 0.27734-2.3281 0.82812-0.58594 0.55469-0.91797 1.3242-1 2.3125z"/>
</symbol>
<symbol id="ao" overflow="visible">
<path d="m14.141-9.5156-9.7344 3.4688 9.7344 3.4375v1.7188l-12.094-4.3906v-1.5625l12.094-4.3906z"/>
</symbol>
<symbol id="an" overflow="visible">
<path d="m7.8438-7.5938c0.90625 0.19922 1.6133 0.60547 2.125 1.2188 0.50781 0.61719 0.76562 1.375 0.76562 2.2812 0 1.3867-0.48047 2.4648-1.4375 3.2344-0.94922 0.76172-2.3047 1.1406-4.0625 1.1406-0.59375 0-1.2031-0.0625-1.8281-0.1875-0.625-0.11328-1.2734-0.28516-1.9375-0.51562v-1.8438c0.53125 0.3125 1.1094 0.54688 1.7344 0.70312 0.63281 0.15625 1.2891 0.23438 1.9688 0.23438 1.1953 0 2.1094-0.23438 2.7344-0.70312 0.625-0.47656 0.9375-1.1641 0.9375-2.0625 0-0.83203-0.29297-1.4844-0.875-1.9531-0.58594-0.46875-1.3906-0.70312-2.4219-0.70312h-1.6406v-1.5625h1.7188c0.9375 0 1.6484-0.1875 2.1406-0.5625 0.5-0.375 0.75-0.91406 0.75-1.625 0-0.71875-0.25781-1.2695-0.76562-1.6562-0.51172-0.38281-1.2461-0.57812-2.2031-0.57812-0.52344 0-1.0859 0.058594-1.6875 0.17188-0.59375 0.10547-1.25 0.27734-1.9688 0.51562v-1.6875c0.72656-0.20703 1.4062-0.35938 2.0312-0.45312 0.63281-0.10156 1.2344-0.15625 1.7969-0.15625 1.4453 0 2.5859 0.32812 3.4219 0.98438 0.84375 0.65625 1.2656 1.5469 1.2656 2.6719 0 0.78125-0.22656 1.4453-0.67188 1.9844-0.4375 0.53125-1.0703 0.90234-1.8906 1.1094z"/>
</symbol>
<symbol id="aj" overflow="visible">
<path d="m8.9219-10.062c-0.21875-0.13281-0.46094-0.22656-0.71875-0.28125-0.25-0.0625-0.53125-0.09375-0.84375-0.09375-1.1055 0-1.9531 0.35938-2.5469 1.0781-0.58594 0.71875-0.875 1.75-0.875 3.0938v6.2656h-1.9688v-11.891h1.9688v1.8438c0.40625-0.71875 0.9375-1.2539 1.5938-1.6094 0.65625-0.35156 1.457-0.53125 2.4062-0.53125 0.13281 0 0.28125 0.011719 0.4375 0.03125 0.16406 0.023438 0.34766 0.046875 0.54688 0.078125z"/>
</symbol>
<symbol id="ai" overflow="visible">
<path d="m6.6562-10.531c-1.0547 0-1.8867 0.41406-2.5 1.2344-0.60547 0.8125-0.90625 1.9336-0.90625 3.3594 0 1.4297 0.30078 2.5547 0.90625 3.375 0.60156 0.8125 1.4375 1.2188 2.5 1.2188 1.0312 0 1.8477-0.41016 2.4531-1.2344 0.61328-0.82031 0.92188-1.9414 0.92188-3.3594 0-1.4062-0.30859-2.5195-0.92188-3.3438-0.60547-0.83203-1.4219-1.25-2.4531-1.25zm0-1.6562c1.6875 0 3.0156 0.55469 3.9844 1.6562 0.96875 1.1055 1.4531 2.6367 1.4531 4.5938 0 1.9492-0.48438 3.4805-1.4531 4.5938-0.96875 1.1055-2.2969 1.6562-3.9844 1.6562-1.7109 0-3.0469-0.55078-4.0156-1.6562-0.96094-1.1133-1.4375-2.6445-1.4375-4.5938 0-1.957 0.47656-3.4883 1.4375-4.5938 0.96875-1.1016 2.3047-1.6562 4.0156-1.6562z"/>
</symbol>
<symbol id="ah" overflow="visible">
<path d="m3.9844-15.266v3.375h4.0156v1.5156h-4.0156v6.4531c0 0.96875 0.12891 1.5938 0.39062 1.875 0.25781 0.27344 0.79688 0.40625 1.6094 0.40625h2.0156v1.6406h-2.0156c-1.5 0-2.5391-0.28125-3.1094-0.84375-0.57422-0.5625-0.85938-1.5859-0.85938-3.0781v-6.4531h-1.4375v-1.5156h1.4375v-3.375z"/>
</symbol>
<symbol id="ag" overflow="visible">
<path d="m0.875-19.375h2.6562l4.0625 16.375 4.0625-16.375h2.9375l4.0781 16.375 4.0469-16.375h2.6562l-4.8594 19.375h-3.2812l-4.0938-16.812-4.125 16.812h-3.2812z"/>
</symbol>
<symbol id="e" overflow="visible">
<path d="m14.922-7.8594v1.1562h-10.969c0.10156 1.6484 0.59766 2.9023 1.4844 3.7656 0.88281 0.86719 2.1172 1.2969 3.7031 1.2969 0.91406 0 1.8008-0.11328 2.6562-0.34375 0.86328-0.22656 1.7188-0.56641 2.5625-1.0156v2.2656c-0.85547 0.36719-1.7305 0.64062-2.625 0.82812-0.89844 0.1875-1.8086 0.28125-2.7344 0.28125-2.3242 0-4.1641-0.67188-5.5156-2.0156-1.3438-1.3516-2.0156-3.1797-2.0156-5.4844 0-2.375 0.64062-4.2578 1.9219-5.6562 1.2812-1.4062 3.0078-2.1094 5.1875-2.1094 1.957 0 3.5039 0.63281 4.6406 1.8906 1.1328 1.2617 1.7031 2.9766 1.7031 5.1406zm-2.3906-0.70312c-0.011719-1.3125-0.375-2.3516-1.0938-3.125-0.71094-0.78125-1.6523-1.1719-2.8281-1.1719-1.3359 0-2.4023 0.375-3.2031 1.125-0.79297 0.75-1.25 1.8125-1.375 3.1875z"/>
</symbol>
<symbol id="d" overflow="visible">
<path d="m2.5-20.188h2.3906v20.188h-2.3906z"/>
</symbol>
<symbol id="c" overflow="visible">
<path d="m14.562-8.7656v8.7656h-2.375v-8.6875c0-1.3828-0.27344-2.4141-0.8125-3.0938-0.53125-0.6875-1.3359-1.0312-2.4062-1.0312-1.293 0-2.3086 0.41406-3.0469 1.2344-0.74219 0.82422-1.1094 1.9453-1.1094 3.3594v8.2188h-2.4062v-14.531h2.4062v2.25c0.57031-0.875 1.2422-1.5234 2.0156-1.9531 0.76953-0.4375 1.6602-0.65625 2.6719-0.65625 1.6641 0 2.9258 0.52344 3.7812 1.5625 0.85156 1.0312 1.2812 2.5547 1.2812 4.5625z"/>
</symbol>
<symbol id="ae" overflow="visible">
<path d="m9.0938-7.3125c-1.9297 0-3.2617 0.22656-4 0.67188-0.74219 0.4375-1.1094 1.1875-1.1094 2.25 0 0.85547 0.27344 1.5312 0.82812 2.0312 0.5625 0.49219 1.3203 0.73438 2.2812 0.73438 1.3203 0 2.3789-0.46875 3.1719-1.4062 0.80078-0.9375 1.2031-2.1875 1.2031-3.75v-0.53125zm4.7656-0.98438v8.2969h-2.3906v-2.2031c-0.54297 0.88672-1.2188 1.5391-2.0312 1.9531s-1.8086 0.625-2.9844 0.625c-1.4922 0-2.6719-0.41406-3.5469-1.25-0.875-0.83203-1.3125-1.9531-1.3125-3.3594 0-1.6328 0.54688-2.8633 1.6406-3.6875 1.0938-0.83203 2.7227-1.25 4.8906-1.25h3.3438v-0.23438c0-1.1016-0.35938-1.9531-1.0781-2.5469-0.71875-0.60156-1.7344-0.90625-3.0469-0.90625-0.82422 0-1.6328 0.10156-2.4219 0.29688-0.78125 0.19922-1.5391 0.49609-2.2656 0.89062v-2.2031c0.875-0.33203 1.7188-0.58203 2.5312-0.75 0.82031-0.17578 1.625-0.26562 2.4062-0.26562 2.1016 0 3.6719 0.54688 4.7031 1.6406 1.0391 1.0938 1.5625 2.7461 1.5625 4.9531zm-4.9375-11.844h2.625v2.625h-2.625zm-5.0781 0h2.6406v2.625h-2.6406z"/>
</symbol>
<symbol id="ad" overflow="visible">
<path d="m12.062-7.4375c0-1.7266-0.35938-3.0664-1.0781-4.0156-0.71094-0.95703-1.7109-1.4375-3-1.4375-1.2812 0-2.2812 0.48047-3 1.4375-0.71094 0.94922-1.0625 2.2891-1.0625 4.0156 0 1.7188 0.35156 3.0586 1.0625 4.0156 0.71875 0.94922 1.7188 1.4219 3 1.4219 1.2891 0 2.2891-0.47266 3-1.4219 0.71875-0.95703 1.0781-2.2969 1.0781-4.0156zm2.375 5.6406c0 2.4688-0.55469 4.3047-1.6562 5.5156-1.0938 1.207-2.7734 1.8125-5.0312 1.8125-0.83594 0-1.625-0.0625-2.375-0.1875-0.74219-0.125-1.4609-0.32031-2.1562-0.57812v-2.3281c0.69531 0.38281 1.3828 0.66406 2.0625 0.84375 0.6875 0.1875 1.3828 0.28125 2.0938 0.28125 1.5625 0 2.7344-0.41406 3.5156-1.2344 0.78125-0.8125 1.1719-2.0469 1.1719-3.7031v-1.1875c-0.5 0.86719-1.1367 1.5117-1.9062 1.9375-0.76172 0.41797-1.6797 0.625-2.75 0.625-1.7812 0-3.2188-0.67578-4.3125-2.0312-1.0859-1.3633-1.625-3.1641-1.625-5.4062 0-2.25 0.53906-4.0508 1.625-5.4062 1.0938-1.3633 2.5312-2.0469 4.3125-2.0469 1.0703 0 1.9883 0.21484 2.75 0.64062 0.76953 0.42969 1.4062 1.0703 1.9062 1.9219v-2.2031h2.375z"/>
</symbol>
<symbol id="ac" overflow="visible"></symbol>
<symbol id="ab" overflow="visible">
<path d="m2.2812-20.188h5.5v1.8438h-3.1094v19.984h3.1094v1.8594h-5.5z"/>
</symbol>
<symbol id="aa" overflow="visible">
<path d="m13.812-11.75c0.59375-1.0703 1.3008-1.8633 2.125-2.375 0.83203-0.50781 1.8125-0.76562 2.9375-0.76562 1.5078 0 2.6758 0.53125 3.5 1.5938 0.82031 1.0625 1.2344 2.5742 1.2344 4.5312v8.7656h-2.4062v-8.6875c0-1.3945-0.24609-2.4297-0.73438-3.1094-0.49219-0.67578-1.2422-1.0156-2.25-1.0156-1.2422 0-2.2188 0.41406-2.9375 1.2344-0.71875 0.82422-1.0781 1.9453-1.0781 3.3594v8.2188h-2.3906v-8.6875c0-1.4062-0.25-2.4414-0.75-3.1094-0.49219-0.67578-1.25-1.0156-2.2812-1.0156-1.2188 0-2.1875 0.41797-2.9062 1.25-0.71094 0.82422-1.0625 1.9375-1.0625 3.3438v8.2188h-2.4062v-14.531h2.4062v2.25c0.53906-0.88281 1.1914-1.5391 1.9531-1.9688 0.75781-0.42578 1.6602-0.64062 2.7031-0.64062 1.0625 0 1.9609 0.27344 2.7031 0.8125 0.73828 0.53125 1.2852 1.3086 1.6406 2.3281z"/>
</symbol>
<symbol id="af" overflow="visible">
<path d="m8.0781-20.188v23.688h-5.5v-1.8594h3.0938v-19.984h-3.0938v-1.8438z"/>
</symbol>
<symbol id="z" overflow="visible">
<path d="m-14.078-0.09375v-12.984h2.75v4.6719h11.328v3.625h-11.328v4.6875z"/>
</symbol>
<symbol id="y" overflow="visible">
<path d="m-7.6875-9.4688c-0.13281 0.29297-0.23438 0.58594-0.29688 0.875-0.070313 0.29297-0.10938 0.58984-0.10938 0.89062 0 0.86719 0.28125 1.5312 0.84375 2 0.55469 0.46875 1.3516 0.70312 2.3906 0.70312h4.8594v3.375h-10.562v-3.375h1.7344c-0.6875-0.4375-1.1875-0.9375-1.5-1.5-0.32031-0.5625-0.48438-1.2344-0.48438-2.0156 0-0.11328 0.007812-0.23828 0.015625-0.375 0.011719-0.13281 0.03125-0.32812 0.0625-0.57812z"/>
</symbol>
<symbol id="x" overflow="visible">
<path d="m-4.75-6.3594c0 0.71094 0.12109 1.2422 0.35938 1.5938 0.24219 0.35547 0.58984 0.53125 1.0469 0.53125 0.42969 0 0.76562-0.14062 1.0156-0.42188 0.24219-0.28906 0.35938-0.69141 0.35938-1.2031 0-0.63281-0.22656-1.1641-0.6875-1.5938-0.45703-0.4375-1.0234-0.65625-1.7031-0.65625h-0.39062zm-1.2812-5.1562h6.0312v3.4062h-1.5625c0.63672 0.44922 1.1055 0.96094 1.4062 1.5312 0.28906 0.5625 0.4375 1.25 0.4375 2.0625 0 1.0938-0.31641 1.9844-0.95312 2.6719-0.64453 0.67969-1.4766 1.0156-2.5 1.0156-1.2383 0-2.1445-0.42578-2.7188-1.2812-0.58203-0.85156-0.875-2.1914-0.875-4.0156v-1.9844h-0.26562c-0.53125 0-0.92188 0.21094-1.1719 0.625-0.25 0.41797-0.375 1.0742-0.375 1.9688 0 0.73047 0.074219 1.4062 0.21875 2.0312 0.14844 0.61719 0.36719 1.1953 0.65625 1.7344h-2.5781c-0.17578-0.72656-0.30469-1.457-0.39062-2.1875-0.09375-0.72656-0.14062-1.457-0.14062-2.1875 0-1.9062 0.375-3.2812 1.125-4.125s1.9688-1.2656 3.6562-1.2656z"/>
</symbol>
<symbol id="i" overflow="visible">
<path d="m-6.4375-12.25h6.4375v3.3906h-4.9219c-0.91406 0-1.5469 0.023437-1.8906 0.0625-0.34375 0.042969-0.59766 0.11719-0.76562 0.21875-0.21875 0.13672-0.38281 0.32031-0.5 0.54688-0.125 0.21875-0.1875 0.47656-0.1875 0.76562 0 0.71094 0.27344 1.2656 0.8125 1.6719 0.54297 0.39844 1.293 0.59375 2.25 0.59375h5.2031v3.375h-10.562v-3.375h1.5469c-0.61328-0.50781-1.0664-1.0508-1.3594-1.625-0.28906-0.57031-0.4375-1.2031-0.4375-1.8906 0-1.2266 0.375-2.1562 1.125-2.7812 0.74219-0.63281 1.8242-0.95312 3.25-0.95312z"/>
</symbol>
<symbol id="b" overflow="visible">
<path d="m-10.234-9.875h2.5625c-0.30078 0.71875-0.52344 1.418-0.67188 2.0938-0.15625 0.66797-0.23438 1.3047-0.23438 1.9062 0 0.63672 0.085937 1.1094 0.25 1.4219 0.15625 0.3125 0.40234 0.46875 0.73438 0.46875 0.27344 0 0.48047-0.11328 0.625-0.34375 0.14844-0.23828 0.25781-0.66406 0.32812-1.2812l0.078125-0.59375c0.21875-1.7266 0.58594-2.8906 1.0938-3.4844 0.5-0.60156 1.2891-0.90625 2.3594-0.90625 1.125 0 1.9766 0.41797 2.5469 1.25 0.5625 0.83594 0.84375 2.0742 0.84375 3.7188 0 0.69922-0.058594 1.4219-0.17188 2.1719-0.11328 0.74219-0.28125 1.5078-0.5 2.2969h-2.5625c0.32422-0.67578 0.57031-1.3672 0.73438-2.0781 0.16797-0.70703 0.25-1.4258 0.25-2.1562 0-0.65625-0.085938-1.1484-0.26562-1.4844-0.1875-0.33203-0.46094-0.5-0.82812-0.5-0.30078 0-0.52344 0.11719-0.67188 0.34375-0.14453 0.23047-0.25781 0.6875-0.34375 1.375l-0.078125 0.59375c-0.1875 1.5-0.53125 2.5547-1.0312 3.1562-0.50781 0.60547-1.2852 0.90625-2.3281 0.90625-1.1133 0-1.9414-0.37891-2.4844-1.1406-0.53906-0.76953-0.8125-1.9531-0.8125-3.5469 0-0.61328 0.046875-1.2656 0.14062-1.9531s0.24219-1.4297 0.4375-2.2344z"/>
</symbol>
<symbol id="w" overflow="visible">
<path d="m-8.8125-11.422c-0.64453-0.42578-1.1406-0.92969-1.4844-1.5156-0.34375-0.59375-0.51562-1.2422-0.51562-1.9531 0-1.207 0.375-2.1289 1.125-2.7656 0.74219-0.63281 1.8242-0.95312 3.25-0.95312h6.4375v3.3906h-5.5-0.25c-0.09375-0.007812-0.22266-0.015625-0.39062-0.015625-0.75 0-1.2891 0.10938-1.625 0.32812-0.33203 0.21875-0.5 0.57812-0.5 1.0781 0 0.63672 0.26562 1.1328 0.79688 1.4844 0.52344 0.34375 1.2812 0.52344 2.2812 0.53125h5.1875v3.4062h-5.5c-1.1758 0-1.9297 0.10156-2.2656 0.29688-0.33203 0.19922-0.5 0.55859-0.5 1.0781 0 0.64844 0.26562 1.1484 0.79688 1.5 0.53125 0.35547 1.2891 0.53125 2.2656 0.53125h5.2031v3.3906h-10.562v-3.3906h1.5469c-0.59375-0.41406-1.0391-0.89062-1.3438-1.4219-0.30078-0.53906-0.45312-1.1328-0.45312-1.7812 0-0.73828 0.17969-1.3828 0.53125-1.9375 0.34375-0.5625 0.83594-0.98828 1.4688-1.2812z"/>
</symbol>
<symbol id="h" overflow="visible">
<path d="m-10.562-1.625v-3.375h10.562v3.375zm-4.1094 0v-3.375h2.75v3.375z"/>
</symbol>
<symbol id="v" overflow="visible">
<path d="m-8.4062-6.6562c0 0.75 0.27344 1.3242 0.8125 1.7188 0.53125 0.39844 1.3086 0.59375 2.3281 0.59375 1.0117 0 1.7891-0.19531 2.3281-0.59375 0.53125-0.39453 0.79688-0.96875 0.79688-1.7188 0-0.72656-0.26562-1.2852-0.79688-1.6719-0.53906-0.39453-1.3164-0.59375-2.3281-0.59375-1.0195 0-1.7969 0.19922-2.3281 0.59375-0.53906 0.38672-0.8125 0.94531-0.8125 1.6719zm-2.4062 0c0-1.8125 0.49219-3.2266 1.4688-4.25 0.98047-1.0312 2.3398-1.5469 4.0781-1.5469 1.7305 0 3.0898 0.51562 4.0781 1.5469 0.98047 1.0234 1.4688 2.4375 1.4688 4.25 0 1.8242-0.48828 3.25-1.4688 4.2812-0.98828 1.0312-2.3477 1.5469-4.0781 1.5469-1.7383 0-3.0977-0.51562-4.0781-1.5469-0.97656-1.0312-1.4688-2.457-1.4688-4.2812z"/>
</symbol>
<symbol id="u" overflow="visible"></symbol>
<symbol id="t" overflow="visible">
<path d="m-14.672-1.6562v-4h1.3438v2.2656h14.531v-2.2656h1.3438v4z"/>
</symbol>
<symbol id="s" overflow="visible">
<path d="m-6.2031-14.047c0 0.54297 0.23438 0.96875 0.70312 1.2812s1.1172 0.46875 1.9375 0.46875c0.82422 0 1.4688-0.15625 1.9375-0.46875s0.70312-0.73828 0.70312-1.2812c0-0.53906-0.23438-0.96094-0.70312-1.2656-0.46875-0.3125-1.1133-0.46875-1.9375-0.46875-0.82031 0-1.4688 0.15625-1.9375 0.46875-0.46875 0.30469-0.70312 0.72656-0.70312 1.2656zm-1.1875 0c0-1 0.35156-1.7891 1.0469-2.375 0.6875-0.58203 1.6172-0.875 2.7812-0.875 1.1797 0 2.1172 0.29688 2.8125 0.89062 0.6875 0.58594 1.0312 1.3711 1.0312 2.3594 0 1-0.34375 1.7969-1.0312 2.3906-0.69531 0.58594-1.6328 0.875-2.8125 0.875-1.1758 0-2.1094-0.28906-2.7969-0.875-0.6875-0.59375-1.0312-1.3906-1.0312-2.3906zm-5.75 9.7344c0 0.54297 0.23438 0.96875 0.70312 1.2812s1.1172 0.46875 1.9375 0.46875c0.82422 0 1.4688-0.14844 1.9375-0.45312 0.46875-0.3125 0.70312-0.74219 0.70312-1.2969 0-0.55078-0.23438-0.97656-0.70312-1.2812-0.46875-0.3125-1.1133-0.46875-1.9375-0.46875-0.8125 0-1.4531 0.15625-1.9219 0.46875-0.47656 0.3125-0.71875 0.74219-0.71875 1.2812zm-1.1875-8.5156v-1.5156l14.609 8.8125v1.5156zm0 8.5156c0-0.98828 0.34375-1.7812 1.0312-2.375s1.6211-0.89062 2.7969-0.89062c1.1875 0 2.125 0.29688 2.8125 0.89062 0.67969 0.58594 1.0156 1.375 1.0156 2.375s-0.34375 1.793-1.0312 2.375c-0.6875 0.58594-1.6172 0.875-2.7969 0.875-1.1758 0-2.1094-0.28906-2.7969-0.875-0.6875-0.59375-1.0312-1.3828-1.0312-2.375z"/>
</symbol>
<symbol id="r" overflow="visible">
<path d="m-14.672-5.875h17.219v4h-1.3438v-2.2656h-14.531v2.2656h-1.3438z"/>
</symbol>
</defs>
<path transform="matrix(2.4136 0 0 2.416 24.279 20.914)" d="m27.982 146.38v-144.98h196.45v139.28h-202.08" fill="none" stroke="#000" stroke-width="1.5"/>
<path transform="matrix(2.4136 0 0 2.416 24.279 20.914)" d="m42.393 1.392v139.28" fill="none" stroke="#000" stroke-width=".5"/>
<path transform="matrix(2.4136 0 0 2.416 24.279 20.914)" d="m88.828 1.392v139.28" fill="none" stroke="#000" stroke-width=".5"/>
<path transform="matrix(2.4136 0 0 2.416 24.279 20.914)" d="m135.26 1.392v139.28" fill="none" stroke="#000" stroke-width=".5"/>
<path transform="matrix(2.4136 0 0 2.416 24.279 20.914)" d="m181.7 1.392v139.28" fill="none" stroke="#000" stroke-width=".5"/>
<path transform="matrix(2.4136 0 0 2.416 24.279 20.914)" d="m224.44 105.85h-196.45" fill="none" stroke="#000" stroke-width=".75"/>
<path transform="matrix(2.4136 0 0 2.416 24.279 20.914)" d="m224.44 71.03h-196.45" fill="none" stroke="#000" stroke-width=".75"/>
<path transform="matrix(2.4136 0 0 2.416 24.279 20.914)" d="m224.44 36.211h-196.45" fill="none" stroke="#000" stroke-width=".75"/>
<path transform="matrix(2.4136 0 0 2.416 24.279 20.914)" d="m224.44 1.392h-196.45" fill="none" stroke="#000" stroke-width=".75"/>
<g>
<use x="108.664062" y="389.346667" xlink:href="#q"/>
<use x="120.73191" y="389.346667" xlink:href="#a"/>
<use x="132.799758" y="389.346667" xlink:href="#a"/>
</g>
<g>
<use x="220.46875" y="389.346667" xlink:href="#am"/>
<use x="232.536598" y="389.346667" xlink:href="#a"/>
<use x="244.604446" y="389.346667" xlink:href="#a"/>
</g>
<g>
<use x="332.613281" y="389.346667" xlink:href="#l"/>
<use x="344.681129" y="389.346667" xlink:href="#a"/>
<use x="356.748977" y="389.346667" xlink:href="#a"/>
</g>
<g>
<use x="444.574219" y="389.346667" xlink:href="#k"/>
<use x="456.642067" y="389.346667" xlink:href="#a"/>
<use x="468.709914" y="389.346667" xlink:href="#a"/>
</g>
<g>
<use x="547.859375" y="389.346667" xlink:href="#j"/>
<use x="559.927223" y="389.346667" xlink:href="#a"/>
<use x="571.995071" y="389.346667" xlink:href="#a"/>
</g>
<g>
<use x="162.117188" y="419.327136" xlink:href="#al"/>
<use x="174.185035" y="419.327136" xlink:href="#ak"/>
<use x="179.012174" y="419.327136" xlink:href="#f"/>
<use x="191.080022" y="419.327136" xlink:href="#au"/>
</g>
<g>
<use x="273.277344" y="416.467761" xlink:href="#at"/>
<use x="285.345192" y="416.467761" xlink:href="#g"/>
<use x="292.5859" y="416.467761" xlink:href="#as"/>
<use x="304.653748" y="416.467761" xlink:href="#ar"/>
</g>
<g>
<use x="389.164062" y="421.070868" xlink:href="#aj"/>
<use x="398.818341" y="421.070868" xlink:href="#ai"/>
<use x="413.299758" y="421.070868" xlink:href="#ah"/>
</g>
<g>
<use x="212.535156" y="454.502831" xlink:href="#ag"/>
<use x="236.670852" y="454.502831" xlink:href="#e"/>
<use x="253.565839" y="454.502831" xlink:href="#d"/>
<use x="260.806547" y="454.502831" xlink:href="#d"/>
<use x="268.047256" y="454.502831" xlink:href="#e"/>
<use x="284.942243" y="454.502831" xlink:href="#c"/>
<use x="301.83723" y="454.502831" xlink:href="#d"/>
<use x="309.077938" y="454.502831" xlink:href="#ae"/>
<use x="325.972925" y="454.502831" xlink:href="#c"/>
<use x="342.867912" y="454.502831" xlink:href="#ad"/>
<use x="359.762899" y="454.502831" xlink:href="#e"/>
<use x="376.657886" y="454.502831" xlink:href="#ac"/>
<use x="383.898594" y="454.502831" xlink:href="#ab"/>
<use x="393.552873" y="454.502831" xlink:href="#c"/>
<use x="410.44786" y="454.502831" xlink:href="#aa"/>
<use x="436.997125" y="454.502831" xlink:href="#af"/>
</g>
<g>
<use x="31.563265" y="284.75" xlink:href="#z"/>
<use x="31.563265" y="272.670182" xlink:href="#y"/>
<use x="31.563265" y="263.006328" xlink:href="#x"/>
<use x="31.563265" y="250.92651" xlink:href="#i"/>
<use x="31.563265" y="236.430728" xlink:href="#b"/>
<use x="31.563265" y="224.350911" xlink:href="#w"/>
<use x="31.563265" y="205.023202" xlink:href="#h"/>
<use x="31.563265" y="197.775311" xlink:href="#b"/>
<use x="31.563265" y="185.695493" xlink:href="#b"/>
<use x="31.563265" y="173.615675" xlink:href="#h"/>
<use x="31.563265" y="166.367785" xlink:href="#v"/>
<use x="31.563265" y="154.287967" xlink:href="#i"/>
</g>
<g>
<use x="31.563265" y="139.792969" xlink:href="#u"/>
<use x="31.563265" y="132.545078" xlink:href="#t"/>
<use x="31.563265" y="125.297187" xlink:href="#s"/>
<use x="31.563265" y="105.969479" xlink:href="#r"/>
</g>
<g>
<use x="59.675781" y="283.674792" xlink:href="#aq"/>
<use x="71.743629" y="283.674792" xlink:href="#a"/>
</g>
<g>
<use x="59.675781" y="199.553698" xlink:href="#q"/>
<use x="71.743629" y="199.553698" xlink:href="#a"/>
</g>
<g>
<use x="59.675781" y="115.436511" xlink:href="#l"/>
<use x="71.743629" y="115.436511" xlink:href="#a"/>
</g>
<g>
<use x="59.675781" y="31.315417" xlink:href="#j"/>
<use x="71.743629" y="31.315417" xlink:href="#a"/>
</g>
<g>
<use x="247.203125" y="218.077136" xlink:href="#ap"/>
<use x="264.098112" y="218.077136" xlink:href="#k"/>
<use x="276.16596" y="218.077136" xlink:href="#a"/>
<use x="288.233807" y="218.077136" xlink:href="#p"/>
<use x="295.474516" y="218.077136" xlink:href="#o"/>
<use x="300.301655" y="218.077136" xlink:href="#f"/>
<use x="312.369503" y="218.077136" xlink:href="#n"/>
<use x="324.437351" y="218.077136" xlink:href="#g"/>
<use x="331.678059" y="218.077136" xlink:href="#m"/>
</g>
<g>
<use x="247.203125" y="65.811511" xlink:href="#ao"/>
<use x="264.098112" y="65.811511" xlink:href="#an"/>
<use x="276.16596" y="65.811511" xlink:href="#a"/>
<use x="288.233807" y="65.811511" xlink:href="#p"/>
<use x="295.474516" y="65.811511" xlink:href="#o"/>
<use x="300.301655" y="65.811511" xlink:href="#f"/>
<use x="312.369503" y="65.811511" xlink:href="#n"/>
<use x="324.437351" y="65.811511" xlink:href="#g"/>
<use x="331.678059" y="65.811511" xlink:href="#m"/>
</g>
<path transform="matrix(2.4136 0 0 2.416 24.279 20.914)" d="m36.086 140.67c19.187-36.547 16.822-57.275 19.069-82.333 1.1766-13.108 2.3225-24.751 6.668-31.537 5.8863-9.1902 13.182-14.434 18.144-16.62 1.8758-0.82621 3.7856-1.245 4.4265-1.2143h113.05" fill="none" stroke="#000" stroke-width="1.2"/>
<path transform="matrix(2.4136 0 0 2.416 24.279 20.914)" d="m51.846 140.67c6.8461-20.5 16.573-39.22 36.982-65.188 26.426-33.627 42.302-56.743 105.4-55.112" fill="none" stroke="#000" stroke-width="1.2"/>
</svg>
