<?xml version="1.0" encoding="UTF-8"?>
<svg width="600px" height="367px" version="1.1" viewBox="0 0 600 367" xmlns="http://www.w3.org/2000/svg" xmlns:xlink="http://www.w3.org/1999/xlink">
<defs>
<symbol id="al" overflow="visible">
<path d="m10.734-2.6719h-5.9062l-0.9375 2.6719h-3.7969l5.4375-14.641h4.5l5.4375 14.641h-3.7969zm-4.9531-2.7188h4.0156l-2.0156-5.8281z"/>
</symbol>
<symbol id="ai" overflow="visible">
<path d="m1.6875-15.266h3.5156v15.266h-3.5156z"/>
</symbol>
<symbol id="ah" overflow="visible">
<path d="m5.5312-14.109v3.125h3.625v2.5h-3.625v4.6719c0 0.51172 0.097656 0.85547 0.29688 1.0312 0.20703 0.17969 0.61328 0.26562 1.2188 0.26562h1.7969v2.5156h-3.0156c-1.3867 0-2.3711-0.28516-2.9531-0.85938-0.57422-0.58203-0.85938-1.5664-0.85938-2.9531v-4.6719h-1.75v-2.5h1.75v-3.125z"/>
</symbol>
<symbol id="q" overflow="visible">
<path d="m12.672-5.5312v1.0156h-8.2188c0.082031 0.82422 0.37891 1.4453 0.89062 1.8594 0.50781 0.40625 1.2227 0.60938 2.1406 0.60938 0.73828 0 1.4922-0.10938 2.2656-0.32812 0.78125-0.21875 1.5781-0.55078 2.3906-1v2.7031c-0.82422 0.3125-1.6523 0.54688-2.4844 0.70312-0.83594 0.16406-1.668 0.25-2.5 0.25-1.9922 0-3.5391-0.50391-4.6406-1.5156-1.1055-1.0078-1.6562-2.4258-1.6562-4.25 0-1.7891 0.53906-3.1953 1.625-4.2188 1.082-1.0312 2.5781-1.5469 4.4844-1.5469 1.7188 0 3.0977 0.52344 4.1406 1.5625 1.0391 1.0312 1.5625 2.418 1.5625 4.1562zm-3.625-1.1562c0-0.66406-0.19531-1.2031-0.57812-1.6094-0.38672-0.41406-0.89844-0.625-1.5312-0.625-0.67969 0-1.2305 0.19531-1.6562 0.57812-0.42969 0.38672-0.69531 0.9375-0.79688 1.6562z"/>
</symbol>
<symbol id="p" overflow="visible">
<path d="m9.8594-8c-0.3125-0.14453-0.62109-0.25-0.92188-0.3125-0.30469-0.070312-0.60938-0.10938-0.92188-0.10938-0.89844 0-1.5898 0.29297-2.0781 0.875-0.49219 0.57422-0.73438 1.4023-0.73438 2.4844v5.0625h-3.5156v-10.984h3.5156v1.7969c0.44531-0.71875 0.96094-1.2383 1.5469-1.5625 0.59375-0.33203 1.2969-0.5 2.1094-0.5 0.125 0 0.25391 0.007812 0.39062 0.015625 0.13281 0.011719 0.33203 0.03125 0.59375 0.0625z"/>
</symbol>
<symbol id="o" overflow="visible"></symbol>
<symbol id="ag" overflow="visible">
<path d="m1.6875-10.984h3.5156v10.984h-3.5156zm0-4.2812h3.5156v2.8594h-3.5156z"/>
</symbol>
<symbol id="n" overflow="visible">
<path d="m12.75-6.6875v6.6875h-3.5469v-5.125c0-0.94531-0.023437-1.5977-0.0625-1.9531-0.042969-0.36328-0.11719-0.62891-0.21875-0.79688-0.13672-0.22656-0.32422-0.40625-0.5625-0.53125-0.23047-0.13281-0.49609-0.20312-0.79688-0.20312-0.74219 0-1.3203 0.28906-1.7344 0.85938-0.41797 0.5625-0.625 1.3438-0.625 2.3438v5.4062h-3.5156v-10.984h3.5156v1.6094c0.53125-0.64453 1.0938-1.1172 1.6875-1.4219 0.59375-0.30078 1.25-0.45312 1.9688-0.45312 1.2695 0 2.2344 0.39062 2.8906 1.1719 0.66406 0.77344 1 1.9023 1 3.3906z"/>
</symbol>
<symbol id="af" overflow="visible">
<path d="m1.8438-14.641h3.7812v13.219c0 1.8203-0.49609 3.1797-1.4844 4.0781-0.99219 0.90625-2.4922 1.3594-4.5 1.3594h-0.76562v-2.8438h0.57812c0.78906 0 1.3828-0.21875 1.7812-0.65625 0.40625-0.4375 0.60938-1.082 0.60938-1.9375z"/>
</symbol>
<symbol id="ak" overflow="visible">
<path d="m6.625-4.9375c-0.74219 0-1.2969 0.125-1.6719 0.375-0.36719 0.24219-0.54688 0.60547-0.54688 1.0938 0 0.4375 0.14453 0.78906 0.4375 1.0469 0.30078 0.25 0.71875 0.375 1.25 0.375 0.66406 0 1.2227-0.23438 1.6719-0.70312 0.44531-0.47656 0.67188-1.0781 0.67188-1.7969v-0.39062zm5.3594-1.3281v6.2656h-3.5469v-1.625c-0.46875 0.66797-1 1.1523-1.5938 1.4531-0.58594 0.30078-1.2969 0.45312-2.1406 0.45312-1.1367 0-2.0625-0.32812-2.7812-0.98438-0.71094-0.66406-1.0625-1.5312-1.0625-2.5938 0-1.2891 0.44141-2.2344 1.3281-2.8281 0.89453-0.60156 2.2891-0.90625 4.1875-0.90625h2.0625v-0.28125c0-0.55078-0.21875-0.95703-0.65625-1.2188-0.4375-0.25781-1.1211-0.39062-2.0469-0.39062-0.75 0-1.4531 0.078125-2.1094 0.23438-0.64844 0.14844-1.2461 0.37109-1.7969 0.67188v-2.6719c0.75-0.1875 1.5039-0.32812 2.2656-0.42188 0.75781-0.09375 1.5195-0.14062 2.2812-0.14062 1.9766 0 3.4062 0.39062 4.2812 1.1719 0.88281 0.78125 1.3281 2.0547 1.3281 3.8125z"/>
</symbol>
<symbol id="aj" overflow="visible">
<path d="m12.75-6.6875v6.6875h-3.5469v-5.1094c0-0.95703-0.023437-1.6133-0.0625-1.9688-0.042969-0.36328-0.11719-0.62891-0.21875-0.79688-0.13672-0.22656-0.32422-0.40625-0.5625-0.53125-0.23047-0.13281-0.49609-0.20312-0.79688-0.20312-0.74219 0-1.3203 0.28906-1.7344 0.85938-0.41797 0.5625-0.625 1.3438-0.625 2.3438v5.4062h-3.5156v-15.266h3.5156v5.8906c0.53125-0.64453 1.0938-1.1172 1.6875-1.4219 0.59375-0.30078 1.25-0.45312 1.9688-0.45312 1.2695 0 2.2344 0.39062 2.8906 1.1719 0.66406 0.77344 1 1.9023 1 3.3906z"/>
</symbol>
<symbol id="e" overflow="visible">
<path d="m1.8125-1.2188h2.3594v-8.125l-2.5625 0.51562v-1.3125l2.5469-0.51562h1.4375v9.4375h2.3594v1.2188h-6.1406z"/>
</symbol>
<symbol id="ae" overflow="visible">
<path d="m4.6562-5.0625c-0.6875 0-1.2305 0.1875-1.625 0.5625-0.39844 0.36719-0.59375 0.86719-0.59375 1.5 0 0.64844 0.19531 1.1523 0.59375 1.5156 0.39453 0.36719 0.9375 0.54688 1.625 0.54688 0.67578 0 1.2109-0.17969 1.6094-0.54688 0.39453-0.375 0.59375-0.87891 0.59375-1.5156 0-0.63281-0.19922-1.1328-0.59375-1.5-0.38672-0.375-0.92188-0.5625-1.6094-0.5625zm-1.4531-0.60938c-0.61719-0.15625-1.0938-0.44141-1.4375-0.85938-0.34375-0.42578-0.51562-0.94141-0.51562-1.5469 0-0.85156 0.30078-1.5234 0.90625-2.0156 0.60156-0.5 1.4375-0.75 2.5-0.75 1.0508 0 1.8789 0.25 2.4844 0.75 0.61328 0.49219 0.92188 1.1641 0.92188 2.0156 0 0.60547-0.17969 1.1211-0.53125 1.5469-0.34375 0.41797-0.82422 0.70312-1.4375 0.85938 0.69531 0.16797 1.2383 0.48438 1.625 0.95312 0.39453 0.46875 0.59375 1.043 0.59375 1.7188 0 1.0312-0.32031 1.8242-0.95312 2.375-0.63672 0.55469-1.5391 0.82812-2.7031 0.82812-1.1797 0-2.0859-0.27344-2.7188-0.82812-0.625-0.55078-0.9375-1.3438-0.9375-2.375 0-0.67578 0.19141-1.25 0.57812-1.7188 0.38281-0.46875 0.92578-0.78516 1.625-0.95312zm-0.53125-2.2812c0 0.55469 0.17188 0.98438 0.51562 1.2969 0.35156 0.3125 0.84375 0.46875 1.4688 0.46875 0.61328 0 1.0938-0.15625 1.4375-0.46875 0.35156-0.3125 0.53125-0.74219 0.53125-1.2969 0-0.55078-0.17969-0.97656-0.53125-1.2812-0.34375-0.3125-0.82422-0.46875-1.4375-0.46875-0.625 0-1.1172 0.15625-1.4688 0.46875-0.34375 0.30469-0.51562 0.73047-0.51562 1.2812z"/>
</symbol>
<symbol id="a" overflow="visible">
<path d="m0.71875-4.5938h3.8438v1.1719h-3.8438z"/>
</symbol>
<symbol id="h" overflow="visible">
<path d="m2.8125-1.2188h5.0312v1.2188h-6.7656v-1.2188c0.53906-0.5625 1.2852-1.3164 2.2344-2.2656 0.94531-0.95703 1.5391-1.5703 1.7812-1.8438 0.45703-0.51953 0.77344-0.95703 0.95312-1.3125 0.1875-0.36328 0.28125-0.72266 0.28125-1.0781 0-0.5625-0.19922-1.0195-0.59375-1.375-0.39844-0.35156-0.91406-0.53125-1.5469-0.53125-0.46094 0-0.9375 0.078125-1.4375 0.23438s-1.0391 0.39062-1.6094 0.70312v-1.4531c0.58203-0.22656 1.125-0.39844 1.625-0.51562 0.50781-0.125 0.97266-0.1875 1.3906-0.1875 1.1016 0 1.9844 0.27734 2.6406 0.82812 0.65625 0.55469 0.98438 1.293 0.98438 2.2188 0 0.4375-0.085938 0.85547-0.25 1.25-0.15625 0.38672-0.45312 0.84375-0.89062 1.375-0.11719 0.13672-0.49609 0.53906-1.1406 1.2031-0.63672 0.65625-1.5312 1.5742-2.6875 2.75z"/>
</symbol>
<symbol id="d" overflow="visible">
<path d="m5.5312-9.3906-3.6406 5.6875h3.6406zm-0.375-1.2656h1.8125v6.9531h1.5156v1.1875h-1.5156v2.5156h-1.4375v-2.5156h-4.8125v-1.3906z"/>
</symbol>
<symbol id="c" overflow="visible">
<path d="m1.5781-10.656h5.6562v1.2188h-4.3281v2.6094c0.20703-0.070313 0.41406-0.125 0.625-0.15625 0.20703-0.039063 0.41406-0.0625 0.625-0.0625 1.1875 0 2.1289 0.32812 2.8281 0.98438 0.69531 0.64844 1.0469 1.5273 1.0469 2.6406 0 1.1484-0.35938 2.0391-1.0781 2.6719-0.71094 0.63672-1.7148 0.95312-3.0156 0.95312-0.44922 0-0.90625-0.039063-1.375-0.10938-0.46094-0.074219-0.9375-0.1875-1.4375-0.34375v-1.4531c0.42578 0.24219 0.86719 0.41797 1.3281 0.53125 0.45703 0.11719 0.94141 0.17188 1.4531 0.17188 0.82031 0 1.4727-0.21094 1.9531-0.64062 0.47656-0.4375 0.71875-1.0312 0.71875-1.7812 0-0.73828-0.24219-1.3203-0.71875-1.75-0.48047-0.4375-1.1328-0.65625-1.9531-0.65625-0.38672 0-0.77344 0.042969-1.1562 0.125-0.38672 0.085937-0.77734 0.21875-1.1719 0.40625z"/>
</symbol>
<symbol id="g" overflow="visible">
<path d="m5.9375-5.75c0.6875 0.15625 1.2227 0.46875 1.6094 0.9375 0.39453 0.46094 0.59375 1.0312 0.59375 1.7188 0 1.0547-0.36719 1.8672-1.0938 2.4375-0.71875 0.57422-1.7461 0.85938-3.0781 0.85938-0.44922 0-0.91406-0.046875-1.3906-0.14062-0.46875-0.082031-0.96094-0.21094-1.4688-0.39062v-1.3906c0.40625 0.24219 0.84375 0.42188 1.3125 0.54688 0.47656 0.11719 0.97656 0.17188 1.5 0.17188 0.90625 0 1.5938-0.17578 2.0625-0.53125 0.47656-0.36328 0.71875-0.88281 0.71875-1.5625 0-0.625-0.22656-1.1133-0.67188-1.4688-0.4375-0.35156-1.0469-0.53125-1.8281-0.53125h-1.25v-1.1875h1.2969c0.70703 0 1.25-0.14062 1.625-0.42188 0.38281-0.28906 0.57812-0.70312 0.57812-1.2344 0-0.53906-0.19922-0.95703-0.59375-1.25-0.38672-0.28906-0.9375-0.4375-1.6562-0.4375-0.39844 0-0.82422 0.042969-1.2812 0.125-0.44922 0.085938-0.94531 0.21484-1.4844 0.39062v-1.2812c0.53906-0.14453 1.0508-0.25391 1.5312-0.32812 0.47656-0.082031 0.92969-0.125 1.3594-0.125 1.0938 0 1.957 0.25 2.5938 0.75 0.64453 0.49219 0.96875 1.1641 0.96875 2.0156 0 0.58594-0.17188 1.0781-0.51562 1.4844-0.33594 0.40625-0.8125 0.6875-1.4375 0.84375z"/>
</symbol>
<symbol id="f" overflow="visible">
<path d="m4.8281-5.9062c-0.64844 0-1.1641 0.22656-1.5469 0.67188-0.375 0.4375-0.5625 1.043-0.5625 1.8125 0 0.77344 0.1875 1.3828 0.5625 1.8281 0.38281 0.4375 0.89844 0.65625 1.5469 0.65625 0.64453 0 1.1562-0.21875 1.5312-0.65625 0.38281-0.44531 0.57812-1.0547 0.57812-1.8281 0-0.76953-0.19531-1.375-0.57812-1.8125-0.375-0.44531-0.88672-0.67188-1.5312-0.67188zm2.8594-4.5156v1.3125c-0.36719-0.16406-0.73047-0.28906-1.0938-0.375-0.36719-0.09375-0.73047-0.14062-1.0938-0.14062-0.94922 0-1.6797 0.32422-2.1875 0.96875-0.5 0.63672-0.78906 1.6055-0.85938 2.9062 0.28125-0.41406 0.63281-0.73438 1.0625-0.95312 0.42578-0.22656 0.89062-0.34375 1.3906-0.34375 1.0703 0 1.9219 0.32812 2.5469 0.98438 0.625 0.64844 0.9375 1.5273 0.9375 2.6406 0 1.0938-0.32812 1.9766-0.98438 2.6406-0.64844 0.65625-1.5078 0.98438-2.5781 0.98438-1.2305 0-2.1719-0.46875-2.8281-1.4062-0.65625-0.94531-0.98438-2.3164-0.98438-4.1094 0-1.6875 0.39844-3.0312 1.2031-4.0312 0.80078-1 1.875-1.5 3.2188-1.5 0.36328 0 0.72656 0.039062 1.0938 0.10938 0.375 0.074219 0.75781 0.17969 1.1562 0.3125z"/>
</symbol>
<symbol id="m" overflow="visible">
<path d="m1.2031-10.656h6.8594v0.625l-3.875 10.031h-1.5156l3.6406-9.4375h-5.1094z"/>
</symbol>
<symbol id="k" overflow="visible">
<path d="m1.3281-11.094h1.3281v6.5469l3.9062-3.4375h1.6875l-4.25 3.7344 4.4219 4.25h-1.7031l-4.0625-3.9062v3.9062h-1.3281z"/>
</symbol>
<symbol id="j" overflow="visible">
<path d="m1.4375-10.656h1.4375v4.375h5.25v-4.375h1.4375v10.656h-1.4375v-5.0781h-5.25v5.0781h-1.4375z"/>
</symbol>
<symbol id="i" overflow="visible">
<path d="m0.8125-7.9844h6.2344v1.1875l-4.9375 5.75h4.9375v1.0469h-6.4219v-1.2031l4.9375-5.7344h-4.75z"/>
</symbol>
<symbol id="b" overflow="visible">
<path d="m4.6562-9.7031c-0.75 0-1.3125 0.36719-1.6875 1.0938-0.375 0.73047-0.5625 1.8281-0.5625 3.2969 0 1.4609 0.1875 2.5547 0.5625 3.2812 0.375 0.73047 0.9375 1.0938 1.6875 1.0938 0.73828 0 1.2969-0.36328 1.6719-1.0938 0.375-0.72656 0.5625-1.8203 0.5625-3.2812 0-1.4688-0.1875-2.5664-0.5625-3.2969-0.375-0.72656-0.93359-1.0938-1.6719-1.0938zm0-1.1406c1.1875 0 2.0938 0.47656 2.7188 1.4219 0.63281 0.9375 0.95312 2.3086 0.95312 4.1094 0 1.793-0.32031 3.1641-0.95312 4.1094-0.625 0.9375-1.5312 1.4062-2.7188 1.4062-1.1992 0-2.1172-0.46875-2.75-1.4062-0.625-0.94531-0.9375-2.3164-0.9375-4.1094 0-1.8008 0.3125-3.1719 0.9375-4.1094 0.63281-0.94531 1.5508-1.4219 2.75-1.4219z"/>
</symbol>
<symbol id="ad" overflow="visible">
<path d="m-10.656-1.3438v-2.75h4.0625v-4.0469h-4.0625v-2.75h10.656v2.75h-4.5156v4.0469h4.5156v2.75z"/>
</symbol>
<symbol id="ac" overflow="visible">
<path d="m-6.3594-5.0312c0 0.5625 0.20312 0.99609 0.60938 1.2969 0.40625 0.30469 0.99609 0.45312 1.7656 0.45312 0.76172 0 1.3438-0.14844 1.75-0.45312 0.40625-0.30078 0.60938-0.73438 0.60938-1.2969 0-0.55078-0.20312-0.97266-0.60938-1.2656-0.40625-0.30078-0.98828-0.45312-1.75-0.45312-0.76953 0-1.3594 0.15234-1.7656 0.45312-0.40625 0.29297-0.60938 0.71484-0.60938 1.2656zm-1.8281 0c0-1.375 0.37109-2.4453 1.1094-3.2188 0.74219-0.76953 1.7734-1.1562 3.0938-1.1562 1.3125 0 2.3398 0.38672 3.0781 1.1562 0.74219 0.77344 1.1094 1.8438 1.1094 3.2188 0 1.3867-0.36719 2.4688-1.1094 3.25-0.73828 0.77344-1.7656 1.1562-3.0781 1.1562-1.3203 0-2.3516-0.38281-3.0938-1.1562-0.73828-0.78125-1.1094-1.8633-1.1094-3.25zm-3.125 2.2656v-1.6719h1.75v1.6719zm0-2.8125v-1.6875h1.75v1.6875z"/>
</symbol>
<symbol id="l" overflow="visible">
<path d="m-5.8125-7.1562c-0.11328 0.21875-0.19141 0.44531-0.23438 0.67188-0.050781 0.21875-0.078125 0.4375-0.078125 0.65625 0 0.65625 0.21484 1.1641 0.64062 1.5156 0.41797 0.35547 1.0156 0.53125 1.7969 0.53125h3.6875v2.5469h-8v-2.5469h1.3125c-0.51953-0.32031-0.89844-0.69531-1.1406-1.125-0.23828-0.42578-0.35938-0.9375-0.35938-1.5312 0-0.082031 0.007812-0.17578 0.015625-0.28125 0-0.10156 0.011719-0.25 0.03125-0.4375z"/>
</symbol>
<symbol id="ab" overflow="visible">
<path d="m-8-0.21875v-2.5625l5.5312-1.9844-5.5312-1.9844v-2.5625l8 3.1562v2.7969z"/>
</symbol>
<symbol id="aa" overflow="visible">
<path d="m-4.0156-9.2031h0.71875v5.9688c0.60547-0.0625 1.0586-0.27344 1.3594-0.64062 0.29297-0.375 0.4375-0.89453 0.4375-1.5625 0-0.53125-0.078125-1.0781-0.23438-1.6406-0.15625-0.57031-0.39453-1.1562-0.71875-1.75h1.9688c0.23047 0.60547 0.40234 1.2109 0.51562 1.8125 0.11328 0.60547 0.17188 1.2109 0.17188 1.8125 0 1.4492-0.36328 2.5742-1.0938 3.375-0.73828 0.80469-1.7695 1.2031-3.0938 1.2031-1.3125 0-2.3359-0.39062-3.0781-1.1719-0.75-0.78906-1.125-1.8789-1.125-3.2656 0-1.25 0.38281-2.25 1.1406-3 0.75-0.75781 1.7617-1.1406 3.0312-1.1406zm-0.85938 2.625c-0.47656 0-0.86328 0.14062-1.1562 0.42188-0.30078 0.28125-0.45312 0.65234-0.45312 1.1094 0 0.5 0.14062 0.90625 0.42188 1.2188 0.27344 0.30469 0.66797 0.49219 1.1875 0.5625z"/>
</symbol>
<symbol id="z" overflow="visible">
<path d="m-11.109-1.2344v-2.5469h11.109v2.5469z"/>
</symbol>
<symbol id="y" overflow="visible">
<path d="m-3.1094-1.1406h-4.8906v-2.5625h0.79688c0.4375 0 0.98438 0.007813 1.6406 0.015625h1.3125c0.63672 0 1.1016-0.015625 1.3906-0.046875 0.28125-0.039063 0.48438-0.10156 0.60938-0.1875 0.16797-0.10156 0.29688-0.23828 0.39062-0.40625 0.085937-0.16406 0.125-0.35938 0.125-0.57812 0-0.53125-0.20312-0.94531-0.60938-1.25-0.40625-0.3125-0.97266-0.46875-1.7031-0.46875h-3.9531v-2.5469h8v2.5469h-1.1562c0.46875 0.38672 0.8125 0.79688 1.0312 1.2344 0.21875 0.42969 0.32812 0.90234 0.32812 1.4219 0 0.91797-0.28125 1.6211-0.84375 2.1094-0.57031 0.48047-1.3945 0.71875-2.4688 0.71875z"/>
</symbol>
<symbol id="x" overflow="visible">
<path d="m-7.75-7.4688h1.9375c-0.22656 0.55469-0.39453 1.0859-0.5 1.5938-0.11328 0.5-0.17188 0.98047-0.17188 1.4375 0 0.48047 0.0625 0.83984 0.1875 1.0781 0.11719 0.23047 0.29688 0.34375 0.54688 0.34375 0.21094 0 0.37109-0.085937 0.48438-0.26562 0.10547-0.17578 0.18359-0.49219 0.23438-0.95312l0.0625-0.45312c0.16797-1.3008 0.44531-2.1758 0.82812-2.625 0.375-0.45703 0.96875-0.6875 1.7812-0.6875 0.85547 0 1.4961 0.3125 1.9219 0.9375 0.42969 0.625 0.64062 1.5625 0.64062 2.8125 0 0.53125-0.042969 1.0781-0.125 1.6406-0.082031 0.5625-0.20703 1.1406-0.375 1.7344h-1.9375c0.25-0.50781 0.4375-1.0312 0.5625-1.5625 0.11719-0.53906 0.17188-1.0859 0.17188-1.6406 0-0.5-0.066406-0.875-0.20312-1.125-0.13281-0.25-0.33594-0.375-0.60938-0.375-0.22656 0-0.39453 0.089844-0.5 0.26562-0.11328 0.16797-0.20312 0.51172-0.26562 1.0312l-0.0625 0.45312c-0.14453 1.1367-0.41016 1.9336-0.79688 2.3906-0.38281 0.46094-0.96875 0.6875-1.75 0.6875-0.85156 0-1.4844-0.28906-1.8906-0.875-0.40625-0.58203-0.60938-1.4727-0.60938-2.6719 0-0.46875 0.039062-0.96094 0.10938-1.4844 0.0625-0.51953 0.17188-1.082 0.32812-1.6875z"/>
</symbol>
<symbol id="w" overflow="visible">
<path d="m-10.266-4.0156h2.2656v-2.625h1.8281v2.625h3.3906c0.375 0 0.63281-0.070313 0.76562-0.21875 0.125-0.14453 0.1875-0.4375 0.1875-0.875v-1.3125h1.8281v2.1875c0 1.0117-0.20703 1.7266-0.625 2.1406-0.42578 0.41797-1.1445 0.625-2.1562 0.625h-3.3906v1.2812h-1.8281v-1.2812h-2.2656z"/>
</symbol>
<symbol id="v" overflow="visible"></symbol>
<symbol id="u" overflow="visible">
<path d="m-11.109-1.25v-3.0312h1.0156v1.7188h11v-1.7188h1.0156v3.0312z"/>
</symbol>
<symbol id="t" overflow="visible">
<path d="m-6.7812-6.6406h-4.3281v-1.3125h11.109v1.3125h-1.2031c0.48047 0.28125 0.83594 0.63672 1.0625 1.0625 0.22656 0.41797 0.34375 0.91797 0.34375 1.5 0 0.96875-0.38281 1.7578-1.1562 2.3594-0.76953 0.60547-1.7812 0.90625-3.0312 0.90625-1.2578 0-2.2734-0.30078-3.0469-0.90625-0.76953-0.60156-1.1562-1.3906-1.1562-2.3594 0-0.58203 0.11719-1.082 0.34375-1.5 0.23047-0.42578 0.58594-0.78125 1.0625-1.0625zm2.7969 4.4844c0.96094 0 1.7148-0.19531 2.2656-0.59375 0.55469-0.40625 0.82812-0.95312 0.82812-1.6406 0-0.69531-0.27344-1.2422-0.82812-1.6406-0.55078-0.40625-1.3047-0.60938-2.2656-0.60938-0.96875 0-1.7266 0.20312-2.2812 0.60938-0.55078 0.39844-0.82812 0.94531-0.82812 1.6406 0 0.6875 0.27734 1.2344 0.82812 1.6406 0.55469 0.39844 1.3125 0.59375 2.2812 0.59375z"/>
</symbol>
<symbol id="s" overflow="visible">
<path d="m-5.0938-2.875h3.9062v-2.3125c0-0.76953-0.16016-1.3438-0.48438-1.7188-0.32031-0.375-0.8125-0.5625-1.4688-0.5625-0.66406 0-1.1562 0.1875-1.4688 0.5625-0.32031 0.375-0.48438 0.94922-0.48438 1.7188zm-4.375 0h3.2031v-2.125c0-0.70703-0.12891-1.2344-0.39062-1.5781-0.26953-0.34375-0.67578-0.51562-1.2188-0.51562-0.53125 0-0.92578 0.17188-1.1875 0.51562-0.26953 0.34375-0.40625 0.87109-0.40625 1.5781zm-1.1875 1.4375v-3.6719c0-1.1016 0.23047-1.9531 0.6875-2.5469 0.44922-0.59375 1.0938-0.89062 1.9375-0.89062 0.65625 0 1.1797 0.15234 1.5625 0.45312 0.38672 0.30469 0.625 0.75 0.71875 1.3438 0.15625-0.70703 0.47656-1.2539 0.95312-1.6406 0.48047-0.39453 1.0859-0.59375 1.8125-0.59375 0.94922 0 1.6836 0.32422 2.2031 0.96875 0.52344 0.64844 0.78125 1.5703 0.78125 2.7656v3.8125z"/>
</symbol>
<symbol id="r" overflow="visible">
<path d="m-11.109-4.4375h13.031v3.0156h-1.0156v-1.7031h-11v1.7031h-1.0156z"/>
</symbol>
</defs>
<path transform="matrix(1.828 0 0 1.8264 31.484 103.3)" d="m245.26 101.58h-222.58" fill="none" stroke="#000" stroke-width=".75"/>
<path transform="matrix(1.828 0 0 1.8264 31.484 103.3)" d="m25.826-46.531h219.43v148.11h-219.43z" fill="none" stroke="#000" stroke-width="1.5"/>
<path transform="matrix(1.828 0 0 1.8264 31.484 103.3)" d="m250.29 33.947h53.022v67.631h-53.022z" fill="none" stroke="#000"/>
<path transform="matrix(1.828 0 0 1.8264 31.484 103.3)" d="m25.826-46.531v151.29" fill="none" stroke="#000" stroke-width=".75"/>
<path transform="matrix(1.828 0 0 1.8264 31.484 103.3)" d="m57.174-46.531v151.14" fill="none" stroke="#000" stroke-width=".75"/>
<path transform="matrix(1.828 0 0 1.8264 31.484 103.3)" d="m88.52-46.531v151.14" fill="none" stroke="#000" stroke-width=".75"/>
<path transform="matrix(1.828 0 0 1.8264 31.484 103.3)" d="m119.87-46.531v151.14" fill="none" stroke="#000" stroke-width=".75"/>
<path transform="matrix(1.828 0 0 1.8264 31.484 103.3)" d="m151.21-46.531v151.14" fill="none" stroke="#000" stroke-width=".75"/>
<path transform="matrix(1.828 0 0 1.8264 31.484 103.3)" d="m182.56-46.531v151.14" fill="none" stroke="#000" stroke-width=".75"/>
<path transform="matrix(1.828 0 0 1.8264 31.484 103.3)" d="m213.91-46.531v151.14" fill="none" stroke="#000" stroke-width=".75"/>
<path transform="matrix(1.828 0 0 1.8264 31.484 103.3)" d="m245.26-46.531v151.14" fill="none" stroke="#000" stroke-width=".75"/>
<path transform="matrix(1.828 0 0 1.8264 31.484 103.3)" d="m245.26 83.065h-222.58" fill="none" stroke="#000" stroke-width=".75"/>
<path transform="matrix(1.828 0 0 1.8264 31.484 103.3)" d="m245.26 64.55h-222.58" fill="none" stroke="#000" stroke-width=".75"/>
<path transform="matrix(1.828 0 0 1.8264 31.484 103.3)" d="m245.26 46.038h-222.58" fill="none" stroke="#000" stroke-width=".75"/>
<path transform="matrix(1.828 0 0 1.8264 31.484 103.3)" d="m245.26 27.523h-222.58" fill="none" stroke="#000" stroke-width=".75"/>
<path transform="matrix(1.828 0 0 1.8264 31.484 103.3)" d="m245.26 9.01h-222.58" fill="none" stroke="#000" stroke-width=".75"/>
<path transform="matrix(1.828 0 0 1.8264 31.484 103.3)" d="m245.26-9.505h-222.58" fill="none" stroke="#000" stroke-width=".75"/>
<path transform="matrix(1.828 0 0 1.8264 31.484 103.3)" d="m245.26-28.018h-222.58" fill="none" stroke="#000" stroke-width=".75"/>
<path transform="matrix(1.828 0 0 1.8264 31.484 103.3)" d="m245.26-46.531h-222.58" fill="none" stroke="#000" stroke-width=".75"/>
<g>
<use x="197.960938" y="350.194756" xlink:href="#al"/>
<use x="214.413099" y="350.194756" xlink:href="#ai"/>
<use x="221.725171" y="350.194756" xlink:href="#ah"/>
<use x="230.86526" y="350.194756" xlink:href="#q"/>
<use x="243.661386" y="350.194756" xlink:href="#p"/>
<use x="252.801475" y="350.194756" xlink:href="#o"/>
<use x="260.113547" y="350.194756" xlink:href="#ag"/>
<use x="267.425619" y="350.194756" xlink:href="#n"/>
<use x="282.049762" y="350.194756" xlink:href="#o"/>
<use x="289.361834" y="350.194756" xlink:href="#af"/>
<use x="296.673906" y="350.194756" xlink:href="#ak"/>
<use x="309.470031" y="350.194756" xlink:href="#aj"/>
<use x="324.094174" y="350.194756" xlink:href="#p"/>
<use x="333.234264" y="350.194756" xlink:href="#q"/>
<use x="346.03039" y="350.194756" xlink:href="#n"/>
</g>
<g>
<use x="114.359375" y="319.051025" xlink:href="#e"/>
<use x="123.499465" y="319.051025" xlink:href="#ae"/>
<use x="132.639554" y="319.051025" xlink:href="#a"/>
<use x="138.123608" y="319.051025" xlink:href="#h"/>
<use x="147.263698" y="319.051025" xlink:href="#d"/>
</g>
<g>
<use x="171.929688" y="319.051025" xlink:href="#h"/>
<use x="181.069777" y="319.051025" xlink:href="#c"/>
<use x="190.209867" y="319.051025" xlink:href="#a"/>
<use x="195.693921" y="319.051025" xlink:href="#g"/>
<use x="204.83401" y="319.051025" xlink:href="#d"/>
</g>
<g>
<use x="229.210938" y="319.051025" xlink:href="#g"/>
<use x="238.351027" y="319.051025" xlink:href="#c"/>
<use x="247.491117" y="319.051025" xlink:href="#a"/>
<use x="252.975171" y="319.051025" xlink:href="#d"/>
<use x="262.11526" y="319.051025" xlink:href="#d"/>
</g>
<g>
<use x="286.714844" y="319.051025" xlink:href="#d"/>
<use x="295.854933" y="319.051025" xlink:href="#c"/>
<use x="304.995023" y="319.051025" xlink:href="#a"/>
<use x="310.479077" y="319.051025" xlink:href="#c"/>
<use x="319.619166" y="319.051025" xlink:href="#d"/>
</g>
<g>
<use x="343.808594" y="319.051025" xlink:href="#c"/>
<use x="352.948683" y="319.051025" xlink:href="#c"/>
<use x="362.088773" y="319.051025" xlink:href="#a"/>
<use x="367.572827" y="319.051025" xlink:href="#f"/>
<use x="376.712916" y="319.051025" xlink:href="#d"/>
</g>
<g>
<use x="401.167969" y="319.051025" xlink:href="#f"/>
<use x="410.308058" y="319.051025" xlink:href="#c"/>
<use x="419.448148" y="319.051025" xlink:href="#a"/>
<use x="424.932202" y="319.051025" xlink:href="#m"/>
<use x="434.072291" y="319.051025" xlink:href="#d"/>
</g>
<g>
<use x="524.273438" y="203.1604" xlink:href="#e"/>
<use x="533.413527" y="203.1604" xlink:href="#k"/>
<use x="542.553617" y="203.1604" xlink:href="#j"/>
<use x="553.521724" y="203.1604" xlink:href="#i"/>
</g>
<g>
<use x="524.273438" y="230.074462" xlink:href="#c"/>
<use x="533.413527" y="230.074462" xlink:href="#k"/>
<use x="542.553617" y="230.074462" xlink:href="#j"/>
<use x="553.521724" y="230.074462" xlink:href="#i"/>
</g>
<g>
<use x="524.273438" y="256.988525" xlink:href="#e"/>
<use x="533.413527" y="256.988525" xlink:href="#b"/>
<use x="542.553617" y="256.988525" xlink:href="#k"/>
<use x="551.693706" y="256.988525" xlink:href="#j"/>
<use x="562.661814" y="256.988525" xlink:href="#i"/>
</g>
<g>
<use x="39.941406" y="294.144775" xlink:href="#a"/>
<use x="45.42546" y="294.144775" xlink:href="#m"/>
<use x="54.56555" y="294.144775" xlink:href="#b"/>
</g>
<g>
<use x="39.941406" y="260.328369" xlink:href="#a"/>
<use x="45.42546" y="260.328369" xlink:href="#f"/>
<use x="54.56555" y="260.328369" xlink:href="#b"/>
</g>
<g>
<use x="39.941406" y="226.515869" xlink:href="#a"/>
<use x="45.42546" y="226.515869" xlink:href="#c"/>
<use x="54.56555" y="226.515869" xlink:href="#b"/>
</g>
<g>
<use x="39.941406" y="158.886962" xlink:href="#a"/>
<use x="45.42546" y="158.886962" xlink:href="#g"/>
<use x="54.56555" y="158.886962" xlink:href="#b"/>
</g>
<g>
<use x="39.941406" y="125.070556" xlink:href="#a"/>
<use x="45.42546" y="125.070556" xlink:href="#h"/>
<use x="54.56555" y="125.070556" xlink:href="#b"/>
</g>
<g>
<use x="39.941406" y="91.258056" xlink:href="#a"/>
<use x="45.42546" y="91.258056" xlink:href="#e"/>
<use x="54.56555" y="91.258056" xlink:href="#b"/>
</g>
<g>
<use x="54.523438" y="57.445556" xlink:href="#b"/>
</g>
<g>
<use x="45.21875" y="23.62915" xlink:href="#e"/>
<use x="54.35884" y="23.62915" xlink:href="#b"/>
</g>
<g>
<use x="39.941406" y="192.699462" xlink:href="#a"/>
<use x="45.42546" y="192.699462" xlink:href="#d"/>
<use x="54.56555" y="192.699462" xlink:href="#b"/>
</g>
<g>
<use x="24.449461" y="215.710938" xlink:href="#ad"/>
<use x="24.449461" y="202.925858" xlink:href="#ac"/>
<use x="24.449461" y="191.967218" xlink:href="#l"/>
<use x="24.449461" y="184.661458" xlink:href="#ab"/>
<use x="24.449461" y="175.529258" xlink:href="#aa"/>
<use x="24.449461" y="166.397059" xlink:href="#l"/>
<use x="24.449461" y="159.091299" xlink:href="#z"/>
<use x="24.449461" y="153.611979" xlink:href="#y"/>
<use x="24.449461" y="142.653339" xlink:href="#x"/>
<use x="24.449461" y="133.521139" xlink:href="#w"/>
</g>
<g>
<use x="24.449461" y="126.214844" xlink:href="#v"/>
<use x="24.449461" y="120.735524" xlink:href="#u"/>
<use x="24.449461" y="115.256204" xlink:href="#t"/>
<use x="24.449461" y="106.124004" xlink:href="#s"/>
<use x="24.449461" y="96.991804" xlink:href="#r"/>
</g>
<path transform="matrix(1.828 0 0 1.8264 31.484 103.3)" d="m252.88 81.485h11.909" fill="none" stroke="#d40000" stroke-width=".75"/>
<path transform="matrix(1.828 0 0 1.8264 31.484 103.3)" d="m252.88 66.486h11.909" fill="none" stroke="#338000" stroke-width=".75"/>
<path transform="matrix(1.828 0 0 1.8264 31.484 103.3)" d="m252.88 52.984h11.909" fill="none" stroke="#00a" stroke-width=".75"/>
<path transform="matrix(1.828 0 0 1.8264 31.484 103.3)" d="m57.174-28.018 31.346 0.25451c10.755 0.085549 20.961 2.3483 31.348 3.6358l31.346 3.8903c10.932 1.3581 24.679-0.71006 31.348 1.3453 8.3915 2.5836 17.45 6.506 31.348 13.613" fill="none" stroke="#00a" stroke-width=".75"/>
<path d="m131.89 48.016h8.2266v8.2188h-8.2266z" fill="#00a"/>
<path d="m417.6 259.12h9.832l-4.9141-8.2188z" fill="#d40000"/>
<path transform="matrix(1.828 0 0 1.8264 31.484 103.3)" d="m57.174-27.338c11.34 1.3068 22.822 2.6435 31.346 4.9683 11.697 3.1888 23.463 6.1745 31.348 12.864 13.407 11.374 21.253 24.396 31.346 37.028 10.199 12.766 20.01 25.84 31.348 37.028 8.7291 8.6126 20.73 13.145 31.348 18.515" fill="none" stroke="#d40000" stroke-width=".75"/>
<path transform="matrix(1.828 0 0 1.8264 31.484 103.3)" d="m57.174-23.757s20.95 3.3214 31.346 5.4003c10.509 2.1002 21.296 3.4262 31.348 7.1412 11.073 4.0935 21.572 9.8681 31.346 16.49 11.375 7.7037 19.39 19.989 31.348 26.749 9.5903 5.4238 31.348 10.49 31.348 10.49" fill="none" stroke="#338000" stroke-width=".75"/>
<path d="m500.53 195.96h8.2266v8.2188h-8.2266z" fill="#00a"/>
<path d="m508.76 224.73c0 2.2695-1.8398 4.1094-4.1133 4.1094-2.2695 0-4.1133-1.8398-4.1133-4.1094s1.8438-4.1094 4.1133-4.1094c2.2734 0 4.1133 1.8398 4.1133 4.1094z" fill="#338000"/>
<path d="m189.19 48.016h8.2266v8.2188h-8.2266z" fill="#00a"/>
<path d="m130.98 57.777h9.832l-4.918-8.2188z" fill="#d40000"/>
<path d="m140.11 59.906c0 2.2695-1.8438 4.1094-4.1133 4.1094-2.2734 0-4.1133-1.8398-4.1133-4.1094s1.8398-4.1094 4.1133-4.1094c2.2695 0 4.1133 1.8398 4.1133 4.1094z" fill="#338000"/>
<path d="m189.19 48.016h8.2266v8.2188h-8.2266z" fill="#00a"/>
<path d="m246.49 55.121h8.2266v8.2188h-8.2266z" fill="#00a"/>
<path d="m303.8 62.227h8.2227v8.2188h-8.2227z" fill="#00a"/>
<path d="m361.1 64.684h8.2266v8.2188h-8.2266z" fill="#00a"/>
<path d="m418.4 89.547h8.2266v8.2188h-8.2266z" fill="#00a"/>
<path d="m197.41 69.77c0 2.2695-1.8398 4.1094-4.1133 4.1094-2.2695 0-4.1133-1.8398-4.1133-4.1094s1.8438-4.1094 4.1133-4.1094c2.2734 0 4.1133 1.8398 4.1133 4.1094z" fill="#338000"/>
<path d="m246.49 90.051s8.2344-0.003906 8.2266 0l-4.1133-8.2227z" fill="#d40000"/>
<path d="m255.04 82.812c0 2.2695-1.8398 4.1094-4.1133 4.1094-2.2695 0-4.1133-1.8398-4.1133-4.1094s1.8438-4.1094 4.1133-4.1094c2.2734 0 4.1133 1.8398 4.1133 4.1094z" fill="#338000"/>
<path d="m312.02 112.93c0 2.2695-1.8398 4.1094-4.1133 4.1094-2.2695 0-4.1094-1.8398-4.1094-4.1094 0-2.2695 1.8398-4.1094 4.1094-4.1094 2.2734 0 4.1133 1.8398 4.1133 4.1094z" fill="#338000"/>
<path d="m369.32 161.79c0 2.2695-1.8398 4.1094-4.1133 4.1094-2.2695 0-4.1133-1.8398-4.1133-4.1094 0-2.2695 1.8438-4.1094 4.1133-4.1094 2.2734 0 4.1133 1.8398 4.1133 4.1094z" fill="#338000"/>
<path d="m426.63 180.95c0 2.2695-1.8438 4.1094-4.1133 4.1094-2.2734 0-4.1133-1.8398-4.1133-4.1094 0-2.2734 1.8398-4.1133 4.1133-4.1133 2.2695 0 4.1133 1.8398 4.1133 4.1133z" fill="#338000"/>
<path d="m188.39 65.66h9.832l-4.918-8.2188z" fill="#d40000"/>
<path d="m302.99 157.68h9.832l-4.918-8.2188z" fill="#d40000"/>
<path d="m361.1 225.3h8.2266l-4.1133-8.2188z" fill="#d40000"/>
<path d="m245.69 90.051s9.8438-0.003906 9.8359 0l-4.918-8.2227z" fill="#d40000"/>
<path d="m499.73 255.55h9.8359l-4.918-8.2188z" fill="#d40000"/>
</svg>
