<?xml version="1.0" encoding="UTF-8"?>
<svg width="800px" height="490px" version="1.1" viewBox="0 0 800 490" xmlns="http://www.w3.org/2000/svg" xmlns:xlink="http://www.w3.org/1999/xlink">
<defs>
<symbol id="al" overflow="visible">
<path d="m14.328-3.5625h-7.8906l-1.2344 3.5625h-5.0781l7.25-19.562h6l7.25 19.562h-5.0781zm-6.625-3.625h5.3438l-2.6719-7.7812z"/>
</symbol>
<symbol id="ai" overflow="visible">
<path d="m2.25-20.391h4.6875v20.391h-4.6875z"/>
</symbol>
<symbol id="ah" overflow="visible">
<path d="m7.375-18.844v4.1719h4.8281v3.3594h-4.8281v6.2188c0 0.67969 0.13281 1.1367 0.40625 1.375 0.26953 0.24219 0.80469 0.35938 1.6094 0.35938h2.4062v3.3594h-4.0156c-1.8555 0-3.168-0.38281-3.9375-1.1562-0.77344-0.76953-1.1562-2.082-1.1562-3.9375v-6.2188h-2.3281v-3.3594h2.3281v-4.1719z"/>
</symbol>
<symbol id="q" overflow="visible">
<path d="m16.891-7.375v1.3438h-10.953c0.10156 1.0938 0.49219 1.918 1.1719 2.4688 0.6875 0.55469 1.6406 0.82812 2.8594 0.82812 0.98828 0 2-0.14453 3.0312-0.4375 1.0391-0.28906 2.1016-0.73438 3.1875-1.3281v3.6094c-1.1055 0.41797-2.2148 0.73047-3.3281 0.9375-1.1055 0.21875-2.2109 0.32812-3.3125 0.32812-2.6562 0-4.7188-0.67188-6.1875-2.0156-1.4688-1.3516-2.2031-3.25-2.2031-5.6875 0-2.3828 0.71875-4.2656 2.1562-5.6406 1.4453-1.375 3.4375-2.0625 5.9688-2.0625 2.3008 0 4.1445 0.69922 5.5312 2.0938 1.3828 1.3867 2.0781 3.2422 2.0781 5.5625zm-4.8125-1.5625c0-0.88281-0.26172-1.5977-0.78125-2.1406-0.52344-0.55078-1.2031-0.82812-2.0469-0.82812-0.90625 0-1.6484 0.25781-2.2188 0.76562-0.5625 0.51172-0.91406 1.2461-1.0469 2.2031z"/>
</symbol>
<symbol id="p" overflow="visible">
<path d="m13.141-10.672c-0.40625-0.19531-0.8125-0.33594-1.2188-0.42188-0.40625-0.09375-0.8125-0.14062-1.2188-0.14062-1.2109 0-2.1406 0.38672-2.7969 1.1562-0.64844 0.77344-0.96875 1.875-0.96875 3.3125v6.7656h-4.6875v-14.672h4.6875v2.4062c0.60156-0.95703 1.2969-1.6562 2.0781-2.0938 0.78125-0.44531 1.7188-0.67188 2.8125-0.67188 0.15625 0 0.32031 0.011719 0.5 0.03125 0.1875 0.011719 0.45312 0.039062 0.79688 0.078125z"/>
</symbol>
<symbol id="o" overflow="visible"></symbol>
<symbol id="ag" overflow="visible">
<path d="m2.25-14.672h4.6875v14.672h-4.6875zm0-5.7188h4.6875v3.8281h-4.6875z"/>
</symbol>
<symbol id="n" overflow="visible">
<path d="m17-8.9375v8.9375h-4.7188v-6.8438c0-1.2578-0.03125-2.1289-0.09375-2.6094-0.054688-0.47656-0.14844-0.83203-0.28125-1.0625-0.1875-0.3125-0.4375-0.55078-0.75-0.71875-0.3125-0.16406-0.67188-0.25-1.0781-0.25-0.98047 0-1.75 0.38281-2.3125 1.1406-0.55469 0.75-0.82812 1.793-0.82812 3.125v7.2188h-4.6875v-14.672h4.6875v2.1562c0.70703-0.86328 1.457-1.5 2.25-1.9062 0.78906-0.40625 1.6719-0.60938 2.6406-0.60938 1.6875 0 2.9688 0.52344 3.8438 1.5625 0.88281 1.043 1.3281 2.5547 1.3281 4.5312z"/>
</symbol>
<symbol id="af" overflow="visible">
<path d="m2.4688-19.562h5.0312v17.656c0 2.4375-0.66406 4.2578-1.9844 5.4688-1.3242 1.207-3.3242 1.8125-6 1.8125h-1.0156v-3.8125h0.78125c1.0391 0 1.832-0.29688 2.375-0.89062 0.53906-0.58594 0.8125-1.4414 0.8125-2.5781z"/>
</symbol>
<symbol id="ak" overflow="visible">
<path d="m8.8281-6.6094c-0.98047 0-1.7188 0.16797-2.2188 0.5-0.49219 0.33594-0.73438 0.82422-0.73438 1.4688 0 0.59375 0.19531 1.0625 0.59375 1.4062 0.39453 0.33594 0.94531 0.5 1.6562 0.5 0.88281 0 1.6289-0.31641 2.2344-0.95312 0.60156-0.63281 0.90625-1.4258 0.90625-2.375v-0.54688zm7.1562-1.7656v8.375h-4.7188v-2.1719c-0.63672 0.88672-1.3516 1.5312-2.1406 1.9375-0.78125 0.40625-1.7344 0.60938-2.8594 0.60938-1.5117 0-2.7422-0.44141-3.6875-1.3281-0.94922-0.88281-1.4219-2.0352-1.4219-3.4531 0-1.7188 0.58594-2.9766 1.7656-3.7812 1.1875-0.80078 3.0469-1.2031 5.5781-1.2031h2.7656v-0.375c0-0.73828-0.29688-1.2812-0.89062-1.625-0.58594-0.34375-1.4961-0.51562-2.7344-0.51562-1 0-1.9336 0.10156-2.7969 0.29688-0.86719 0.19922-1.668 0.5-2.4062 0.90625v-3.5781c1-0.23828 2.0039-0.42188 3.0156-0.54688 1.0195-0.13281 2.0352-0.20312 3.0469-0.20312 2.6445 0 4.5508 0.52734 5.7188 1.5781 1.1758 1.043 1.7656 2.7344 1.7656 5.0781z"/>
</symbol>
<symbol id="aj" overflow="visible">
<path d="m17-8.9375v8.9375h-4.7188v-6.8125c0-1.2812-0.03125-2.1602-0.09375-2.6406-0.054688-0.47656-0.14844-0.83203-0.28125-1.0625-0.1875-0.3125-0.4375-0.55078-0.75-0.71875-0.3125-0.16406-0.67188-0.25-1.0781-0.25-0.98047 0-1.75 0.38281-2.3125 1.1406-0.55469 0.75-0.82812 1.793-0.82812 3.125v7.2188h-4.6875v-20.391h4.6875v7.875c0.70703-0.86328 1.457-1.5 2.25-1.9062 0.78906-0.40625 1.6719-0.60938 2.6406-0.60938 1.6875 0 2.9688 0.52344 3.8438 1.5625 0.88281 1.043 1.3281 2.5547 1.3281 4.5312z"/>
</symbol>
<symbol id="e" overflow="visible">
<path d="m2.4219-1.625h3.1406v-10.844l-3.4219 0.6875v-1.7656l3.4062-0.6875h1.9219v12.609h3.1406v1.625h-8.1875z"/>
</symbol>
<symbol id="ae" overflow="visible">
<path d="m6.2031-6.75c-0.91797 0-1.6406 0.24609-2.1719 0.73438-0.52344 0.49219-0.78125 1.1641-0.78125 2.0156 0 0.85547 0.25781 1.5273 0.78125 2.0156 0.53125 0.49219 1.2539 0.73438 2.1719 0.73438 0.90625 0 1.625-0.24219 2.1562-0.73438 0.53125-0.48828 0.79688-1.1602 0.79688-2.0156 0-0.85156-0.26562-1.5234-0.79688-2.0156-0.52344-0.48828-1.2422-0.73438-2.1562-0.73438zm-1.9219-0.82812c-0.83594-0.19531-1.4805-0.57812-1.9375-1.1406-0.46094-0.57031-0.6875-1.2656-0.6875-2.0781 0-1.1328 0.39844-2.0312 1.2031-2.6875 0.8125-0.66406 1.9258-1 3.3438-1 1.4141 0 2.5234 0.33594 3.3281 1 0.80078 0.65625 1.2031 1.5547 1.2031 2.6875 0 0.8125-0.23047 1.5078-0.6875 2.0781-0.46094 0.5625-1.1016 0.94531-1.9219 1.1406 0.92578 0.21875 1.6484 0.64844 2.1719 1.2812 0.51953 0.625 0.78125 1.3906 0.78125 2.2969 0 1.375-0.42188 2.4336-1.2656 3.1719-0.84375 0.74219-2.0469 1.1094-3.6094 1.1094-1.5742 0-2.7812-0.36719-3.625-1.1094-0.83594-0.73828-1.25-1.7969-1.25-3.1719 0-0.90625 0.25781-1.6719 0.78125-2.2969 0.51953-0.63281 1.2422-1.0625 2.1719-1.2812zm-0.70312-3.0312c0 0.73047 0.22656 1.3047 0.6875 1.7188 0.45703 0.41797 1.1016 0.625 1.9375 0.625 0.82031 0 1.4688-0.20703 1.9375-0.625 0.46875-0.41406 0.70312-0.98828 0.70312-1.7188 0-0.73828-0.23438-1.3125-0.70312-1.7188-0.46875-0.41406-1.1172-0.625-1.9375-0.625-0.83594 0-1.4805 0.21094-1.9375 0.625-0.46094 0.40625-0.6875 0.98047-0.6875 1.7188z"/>
</symbol>
<symbol id="a" overflow="visible">
<path d="m0.95312-6.125h5.125v1.5625h-5.125z"/>
</symbol>
<symbol id="h" overflow="visible">
<path d="m3.7344-1.625h6.7188v1.625h-9.0312v-1.625c0.72656-0.75 1.7227-1.7578 2.9844-3.0312 1.2578-1.2812 2.0508-2.1016 2.375-2.4688 0.625-0.69531 1.0547-1.2852 1.2969-1.7656 0.25-0.47656 0.375-0.94531 0.375-1.4062 0-0.75781-0.26562-1.375-0.79688-1.8438-0.53125-0.47656-1.2266-0.71875-2.0781-0.71875-0.60547 0-1.2422 0.10547-1.9062 0.3125-0.66797 0.21094-1.3828 0.52734-2.1406 0.95312v-1.9531c0.76953-0.30078 1.4883-0.53125 2.1562-0.6875 0.67578-0.16406 1.2969-0.25 1.8594-0.25 1.4688 0 2.6406 0.37109 3.5156 1.1094 0.875 0.73047 1.3125 1.7148 1.3125 2.9531 0 0.58594-0.10938 1.1406-0.32812 1.6719-0.21875 0.52344-0.61719 1.1367-1.1875 1.8438-0.16797 0.1875-0.67969 0.71875-1.5312 1.5938-0.84375 0.875-2.043 2.1055-3.5938 3.6875z"/>
</symbol>
<symbol id="d" overflow="visible">
<path d="m7.375-12.547-4.8594 7.5938h4.8594zm-0.51562-1.6875h2.4219v9.2812h2.0312v1.5938h-2.0312v3.3594h-1.9062v-3.3594h-6.4219v-1.8594z"/>
</symbol>
<symbol id="c" overflow="visible">
<path d="m2.1094-14.234h7.5469v1.625h-5.7969v3.4844c0.28125-0.09375 0.5625-0.16016 0.84375-0.20312 0.28125-0.050781 0.5625-0.078125 0.84375-0.078125 1.582 0 2.8359 0.4375 3.7656 1.3125 0.92578 0.86719 1.3906 2.043 1.3906 3.5312 0 1.5312-0.48047 2.7266-1.4375 3.5781-0.94922 0.84375-2.2891 1.2656-4.0156 1.2656-0.60547 0-1.2148-0.054688-1.8281-0.15625-0.61719-0.10547-1.2578-0.25391-1.9219-0.45312v-1.9375c0.57031 0.3125 1.1602 0.54688 1.7656 0.70312 0.61328 0.14844 1.2578 0.21875 1.9375 0.21875 1.1016 0 1.9727-0.28516 2.6094-0.85938 0.64453-0.58203 0.96875-1.3672 0.96875-2.3594 0-0.98828-0.32422-1.7695-0.96875-2.3438-0.63672-0.58203-1.5078-0.875-2.6094-0.875-0.51172 0-1.0234 0.058594-1.5312 0.17188-0.51172 0.11719-1.0312 0.29297-1.5625 0.53125z"/>
</symbol>
<symbol id="g" overflow="visible">
<path d="m7.9062-7.6719c0.92578 0.19922 1.6445 0.60938 2.1562 1.2344 0.51953 0.61719 0.78125 1.3828 0.78125 2.2969 0 1.4062-0.48438 2.4961-1.4531 3.2656-0.96094 0.77344-2.3281 1.1562-4.1094 1.1562-0.59375 0-1.2109-0.0625-1.8438-0.1875-0.625-0.11328-1.2773-0.28516-1.9531-0.51562v-1.8594c0.53125 0.3125 1.1133 0.54688 1.75 0.70312 0.63281 0.15625 1.3008 0.23438 2 0.23438 1.1953 0 2.1133-0.23438 2.75-0.70312 0.63281-0.47656 0.95312-1.1758 0.95312-2.0938 0-0.83203-0.29688-1.4844-0.89062-1.9531-0.58594-0.47656-1.4023-0.71875-2.4531-0.71875h-1.6562v-1.5781h1.7344c0.94531 0 1.6719-0.1875 2.1719-0.5625 0.5-0.38281 0.75-0.92969 0.75-1.6406 0-0.72656-0.26172-1.2852-0.78125-1.6719-0.51172-0.39453-1.25-0.59375-2.2188-0.59375-0.52344 0-1.0859 0.058594-1.6875 0.17188-0.60547 0.11719-1.2734 0.29297-2 0.53125v-1.7188c0.73828-0.19531 1.4258-0.34766 2.0625-0.45312 0.63281-0.10156 1.2344-0.15625 1.7969-0.15625 1.457 0 2.6133 0.33594 3.4688 1 0.85156 0.65625 1.2812 1.5547 1.2812 2.6875 0 0.79297-0.23047 1.4609-0.6875 2-0.44922 0.54297-1.0898 0.91797-1.9219 1.125z"/>
</symbol>
<symbol id="f" overflow="visible">
<path d="m6.4375-7.875c-0.86719 0-1.5547 0.29688-2.0625 0.89062-0.5 0.58594-0.75 1.3906-0.75 2.4219 0 1.0234 0.25 1.8281 0.75 2.4219 0.50781 0.59375 1.1953 0.89062 2.0625 0.89062 0.86328 0 1.5469-0.29688 2.0469-0.89062 0.50781-0.59375 0.76562-1.3984 0.76562-2.4219 0-1.0312-0.25781-1.8359-0.76562-2.4219-0.5-0.59375-1.1836-0.89062-2.0469-0.89062zm3.8125-6.0312v1.75c-0.48047-0.22656-0.96484-0.39844-1.4531-0.51562-0.49219-0.125-0.98047-0.1875-1.4688-0.1875-1.2734 0-2.2422 0.42969-2.9062 1.2812-0.66797 0.85547-1.0469 2.1523-1.1406 3.8906 0.375-0.55078 0.84375-0.97266 1.4062-1.2656 0.5625-0.30078 1.1797-0.45312 1.8594-0.45312 1.4258 0 2.5508 0.4375 3.375 1.3125 0.83203 0.86719 1.25 2.043 1.25 3.5312 0 1.4609-0.43359 2.6328-1.2969 3.5156-0.85547 0.88672-2 1.3281-3.4375 1.3281-1.6484 0-2.9062-0.62891-3.7812-1.8906-0.86719-1.2578-1.2969-3.0859-1.2969-5.4844 0-2.25 0.53125-4.0391 1.5938-5.375 1.0703-1.3438 2.5039-2.0156 4.2969-2.0156 0.48828 0 0.97656 0.046875 1.4688 0.14062 0.48828 0.09375 1 0.24219 1.5312 0.4375z"/>
</symbol>
<symbol id="m" overflow="visible">
<path d="m1.5938-14.234h9.1406v0.82812l-5.1562 13.406h-2l4.8438-12.609h-6.8281z"/>
</symbol>
<symbol id="k" overflow="visible">
<path d="m1.7656-14.828h1.7656v8.7656l5.2344-4.6094h2.2344l-5.6562 5 5.8906 5.6719h-2.2812l-5.4219-5.2188v5.2188h-1.7656z"/>
</symbol>
<symbol id="j" overflow="visible">
<path d="m1.9062-14.234h1.9375v5.8438h6.9844v-5.8438h1.9219v14.234h-1.9219v-6.7812h-6.9844v6.7812h-1.9375z"/>
</symbol>
<symbol id="i" overflow="visible">
<path d="m1.0781-10.672h8.3125v1.5938l-6.5781 7.6719h6.5781v1.4062h-8.5469v-1.5938l6.5781-7.6719h-6.3438z"/>
</symbol>
<symbol id="b" overflow="visible">
<path d="m6.2031-12.953c-0.99219 0-1.7344 0.49219-2.2344 1.4688-0.5 0.96875-0.75 2.4336-0.75 4.3906 0 1.9492 0.25 3.4141 0.75 4.3906 0.5 0.96875 1.2422 1.4531 2.2344 1.4531 0.98828 0 1.7344-0.48438 2.2344-1.4531 0.5-0.97656 0.75-2.4414 0.75-4.3906 0-1.957-0.25-3.4219-0.75-4.3906-0.5-0.97656-1.2461-1.4688-2.2344-1.4688zm0-1.5312c1.5938 0 2.8047 0.63281 3.6406 1.8906 0.84375 1.2617 1.2656 3.0938 1.2656 5.5 0 2.3984-0.42188 4.2266-1.2656 5.4844-0.83594 1.2617-2.0469 1.8906-3.6406 1.8906s-2.8125-0.62891-3.6562-1.8906c-0.84375-1.2578-1.2656-3.0859-1.2656-5.4844 0-2.4062 0.42188-4.2383 1.2656-5.5 0.84375-1.2578 2.0625-1.8906 3.6562-1.8906z"/>
</symbol>
<symbol id="ad" overflow="visible">
<path d="m-14.219-1.7969v-3.6562h5.4219v-5.4219h-5.4219v-3.6719h14.219v3.6719h-6.0312v5.4219h6.0312v3.6562z"/>
</symbol>
<symbol id="ac" overflow="visible">
<path d="m-8.4844-6.7188c0 0.76172 0.27344 1.3398 0.8125 1.7344 0.54297 0.39844 1.3242 0.59375 2.3438 0.59375 1.0234 0 1.8086-0.19531 2.3594-0.59375 0.54297-0.39453 0.8125-0.97266 0.8125-1.7344 0-0.73828-0.26953-1.3047-0.8125-1.7031-0.55078-0.39453-1.3359-0.59375-2.3594-0.59375-1.0195 0-1.8008 0.19922-2.3438 0.59375-0.53906 0.39844-0.8125 0.96484-0.8125 1.7031zm-2.4375 0c0-1.832 0.49609-3.2656 1.4844-4.2969 0.99219-1.0312 2.3594-1.5469 4.1094-1.5469 1.7617 0 3.1367 0.51562 4.125 1.5469 0.99219 1.0312 1.4844 2.4648 1.4844 4.2969 0 1.8438-0.49219 3.2891-1.4844 4.3281-0.98828 1.0312-2.3633 1.5469-4.125 1.5469-1.75 0-3.1172-0.51562-4.1094-1.5469-0.98828-1.0391-1.4844-2.4844-1.4844-4.3281zm-4.1719 3.0312v-2.2344h2.3438v2.2344zm0-3.7656v-2.2344h2.3438v2.2344z"/>
</symbol>
<symbol id="l" overflow="visible">
<path d="m-7.7656-9.5625c-0.13281 0.29297-0.23438 0.58984-0.29688 0.89062-0.070312 0.29297-0.10938 0.58984-0.10938 0.89062 0 0.875 0.28125 1.5547 0.84375 2.0312 0.5625 0.46875 1.3711 0.70312 2.4219 0.70312h4.9062v3.4062h-10.672v-3.4062h1.7656c-0.69531-0.4375-1.207-0.9375-1.5312-1.5-0.32031-0.57031-0.48438-1.2578-0.48438-2.0625 0-0.11328 0.007813-0.23438 0.015625-0.35938 0.011719-0.13281 0.03125-0.33203 0.0625-0.59375z"/>
</symbol>
<symbol id="ab" overflow="visible">
<path d="m-10.672-0.29688v-3.4062l7.375-2.6562-7.375-2.6562v-3.4219l10.672 4.2031v3.75z"/>
</symbol>
<symbol id="aa" overflow="visible">
<path d="m-5.3594-12.297h0.96875v7.9844c0.80469-0.082031 1.4062-0.36719 1.8125-0.85938 0.39844-0.5 0.59375-1.1953 0.59375-2.0938 0-0.71875-0.10156-1.4531-0.3125-2.2031-0.21875-0.75-0.54688-1.5195-0.98438-2.3125h2.6406c0.30469 0.80469 0.53125 1.6094 0.6875 2.4219 0.15625 0.80469 0.23438 1.6055 0.23438 2.4062 0 1.9375-0.48828 3.4453-1.4688 4.5156-0.98828 1.0625-2.3672 1.5938-4.1406 1.5938-1.7383 0-3.1016-0.52344-4.0938-1.5781-1-1.0508-1.5-2.4922-1.5-4.3281 0-1.6758 0.50781-3.0195 1.5156-4.0312 1.0117-1.0078 2.3594-1.5156 4.0469-1.5156zm-1.1406 3.5156c-0.64453 0-1.1641 0.1875-1.5625 0.5625-0.39453 0.375-0.59375 0.87109-0.59375 1.4844 0 0.65625 0.1875 1.1953 0.5625 1.6094 0.36719 0.41797 0.89844 0.67188 1.5938 0.76562z"/>
</symbol>
<symbol id="z" overflow="visible">
<path d="m-14.812-1.6406v-3.4062h14.812v3.4062z"/>
</symbol>
<symbol id="y" overflow="visible">
<path d="m-4.1562-1.5312h-6.5156v-3.4219h1.0781c0.57422 0 1.2969 0.007813 2.1719 0.015625h1.75c0.85547 0 1.4766-0.019531 1.8594-0.0625 0.375-0.039062 0.64844-0.11719 0.8125-0.23438 0.21875-0.13281 0.39062-0.31641 0.51562-0.54688 0.125-0.22656 0.1875-0.48828 0.1875-0.78125 0-0.70703-0.26953-1.2656-0.8125-1.6719-0.55078-0.40625-1.3164-0.60938-2.2969-0.60938h-5.2656v-3.4062h10.672v3.4062h-1.5469c0.625 0.51172 1.0898 1.0586 1.3906 1.6406 0.28906 0.57422 0.4375 1.2031 0.4375 1.8906 0 1.2422-0.375 2.1836-1.125 2.8281-0.75781 0.63672-1.8633 0.95312-3.3125 0.95312z"/>
</symbol>
<symbol id="x" overflow="visible">
<path d="m-10.328-9.9844h2.5938c-0.3125 0.74219-0.53906 1.4492-0.6875 2.125-0.15625 0.67969-0.23438 1.3203-0.23438 1.9219 0 0.64844 0.085938 1.1328 0.25 1.4531 0.15625 0.3125 0.40234 0.46875 0.73438 0.46875 0.28125 0 0.49609-0.11719 0.64062-0.35938 0.14844-0.23828 0.25-0.66406 0.3125-1.2812l0.09375-0.60938c0.21875-1.7383 0.58594-2.9102 1.0938-3.5156 0.51172-0.60156 1.3086-0.90625 2.3906-0.90625 1.1367 0 1.9922 0.42188 2.5625 1.2656 0.57422 0.83594 0.85938 2.0859 0.85938 3.75 0 0.69922-0.058594 1.4297-0.17188 2.1875-0.11328 0.75-0.28125 1.5234-0.5 2.3125h-2.5938c0.33594-0.67578 0.58594-1.3672 0.75-2.0781 0.16797-0.71875 0.25-1.4453 0.25-2.1875 0-0.66406-0.09375-1.1641-0.28125-1.5-0.1875-0.34375-0.45703-0.51562-0.8125-0.51562-0.3125 0-0.53906 0.12109-0.6875 0.35938-0.14453 0.23047-0.25781 0.6875-0.34375 1.375l-0.078125 0.60938c-0.1875 1.5117-0.53516 2.5742-1.0469 3.1875-0.51953 0.60547-1.3047 0.90625-2.3594 0.90625-1.125 0-1.957-0.38281-2.5-1.1562-0.55078-0.76953-0.82812-1.957-0.82812-3.5625 0-0.63281 0.046875-1.2969 0.14062-1.9844s0.24609-1.4414 0.45312-2.2656z"/>
</symbol>
<symbol id="w" overflow="visible">
<path d="m-13.688-5.3594h3.0156v-3.5156h2.4375v3.5156h4.5312c0.49219 0 0.82422-0.097656 1-0.29688 0.17969-0.19531 0.26562-0.58594 0.26562-1.1719v-1.75h2.4375v2.9219c0 1.3438-0.28125 2.2969-0.84375 2.8594s-1.5156 0.84375-2.8594 0.84375h-4.5312v1.7031h-2.4375v-1.7031h-3.0156z"/>
</symbol>
<symbol id="v" overflow="visible"></symbol>
<symbol id="u" overflow="visible">
<path d="m-14.812-1.6719v-4.0469h1.3594v2.2812h14.656v-2.2812h1.375v4.0469z"/>
</symbol>
<symbol id="t" overflow="visible">
<path d="m-9.0469-8.8594h-5.7656v-1.75h14.812v1.75h-1.5938c0.63672 0.36719 1.1094 0.82812 1.4219 1.3906 0.30078 0.5625 0.45312 1.2422 0.45312 2.0312 0 1.293-0.51562 2.3438-1.5469 3.1562-1.0312 0.80469-2.3828 1.2031-4.0625 1.2031-1.6758 0-3.0234-0.39844-4.0469-1.2031-1.0312-0.8125-1.5469-1.8633-1.5469-3.1562 0-0.78906 0.15625-1.4688 0.46875-2.0312 0.30469-0.5625 0.77344-1.0234 1.4062-1.3906zm3.7188 5.9688c1.293 0 2.3086-0.26562 3.0469-0.79688 0.73047-0.53125 1.0938-1.2578 1.0938-2.1875 0-0.92578-0.36328-1.6562-1.0938-2.1875-0.73828-0.53125-1.7539-0.79688-3.0469-0.79688-1.2812 0-2.2852 0.26562-3.0156 0.79688-0.73828 0.53125-1.1094 1.2617-1.1094 2.1875 0 0.92969 0.37109 1.6562 1.1094 2.1875 0.73047 0.53125 1.7344 0.79688 3.0156 0.79688z"/>
</symbol>
<symbol id="s" overflow="visible">
<path d="m-6.7812-3.8438h5.2031v-3.0781c0-1.0391-0.21094-1.8125-0.64062-2.3125-0.42578-0.5-1.082-0.75-1.9688-0.75-0.88281 0-1.5352 0.25-1.9531 0.75-0.42578 0.5-0.64062 1.2734-0.64062 2.3125zm-5.8594 0h4.2969v-2.8438c0-0.9375-0.17578-1.6328-0.53125-2.0938-0.35156-0.46875-0.89453-0.70312-1.625-0.70312-0.70703 0-1.2383 0.23438-1.5938 0.70312-0.36328 0.46094-0.54688 1.1562-0.54688 2.0938zm-1.5781 1.9219v-4.9062c0-1.4688 0.30859-2.5977 0.92188-3.3906 0.60547-0.80078 1.4688-1.2031 2.5938-1.2031 0.875 0 1.5703 0.20312 2.0781 0.60938 0.51172 0.40625 0.82812 1.0078 0.95312 1.7969 0.21094-0.94531 0.63672-1.6797 1.2812-2.2031 0.64844-0.51953 1.4492-0.78125 2.4062-0.78125 1.2734 0 2.2578 0.43359 2.9531 1.2969 0.6875 0.85547 1.0312 2.0859 1.0312 3.6875v5.0938z"/>
</symbol>
<symbol id="r" overflow="visible">
<path d="m-14.812-5.9375h17.391v4.0469h-1.375v-2.2812h-14.656v2.2812h-1.3594z"/>
</symbol>
</defs>
<path transform="matrix(2.4374 0 0 2.4386 41.979 137.92)" d="m245.26 101.58h-222.58" fill="none" stroke="#000" stroke-width=".75"/>
<path transform="matrix(2.4374 0 0 2.4386 41.979 137.92)" d="m25.827-46.531h219.43v148.11h-219.43z" fill="none" stroke="#000" stroke-width="1.5"/>
<path transform="matrix(2.4374 0 0 2.4386 41.979 137.92)" d="m250.29 33.948h53.022v67.631h-53.022z" fill="none" stroke="#000"/>
<path transform="matrix(2.4374 0 0 2.4386 41.979 137.92)" d="m25.827-46.531v151.29" fill="none" stroke="#000" stroke-width=".75"/>
<path transform="matrix(2.4374 0 0 2.4386 41.979 137.92)" d="m57.174-46.531v151.14" fill="none" stroke="#000" stroke-width=".75"/>
<path transform="matrix(2.4374 0 0 2.4386 41.979 137.92)" d="m88.522-46.531v151.14" fill="none" stroke="#000" stroke-width=".75"/>
<path transform="matrix(2.4374 0 0 2.4386 41.979 137.92)" d="m119.87-46.531v151.14" fill="none" stroke="#000" stroke-width=".75"/>
<path transform="matrix(2.4374 0 0 2.4386 41.979 137.92)" d="m151.21-46.531v151.14" fill="none" stroke="#000" stroke-width=".75"/>
<path transform="matrix(2.4374 0 0 2.4386 41.979 137.92)" d="m182.56-46.531v151.14" fill="none" stroke="#000" stroke-width=".75"/>
<path transform="matrix(2.4374 0 0 2.4386 41.979 137.92)" d="m213.91-46.531v151.14" fill="none" stroke="#000" stroke-width=".75"/>
<path transform="matrix(2.4374 0 0 2.4386 41.979 137.92)" d="m245.26-46.531v151.14" fill="none" stroke="#000" stroke-width=".75"/>
<path transform="matrix(2.4374 0 0 2.4386 41.979 137.92)" d="m245.26 83.064h-222.58" fill="none" stroke="#000" stroke-width=".75"/>
<path transform="matrix(2.4374 0 0 2.4386 41.979 137.92)" d="m245.26 64.552h-222.58" fill="none" stroke="#000" stroke-width=".75"/>
<path transform="matrix(2.4374 0 0 2.4386 41.979 137.92)" d="m245.26 46.037h-222.58" fill="none" stroke="#000" stroke-width=".75"/>
<path transform="matrix(2.4374 0 0 2.4386 41.979 137.92)" d="m245.26 27.523h-222.58" fill="none" stroke="#000" stroke-width=".75"/>
<path transform="matrix(2.4374 0 0 2.4386 41.979 137.92)" d="m245.26 9.0105h-222.58" fill="none" stroke="#000" stroke-width=".75"/>
<path transform="matrix(2.4374 0 0 2.4386 41.979 137.92)" d="m245.26-9.5038h-222.58" fill="none" stroke="#000" stroke-width=".75"/>
<path transform="matrix(2.4374 0 0 2.4386 41.979 137.92)" d="m245.26-28.018h-222.58" fill="none" stroke="#000" stroke-width=".75"/>
<path transform="matrix(2.4374 0 0 2.4386 41.979 137.92)" d="m245.26-46.531h-222.58" fill="none" stroke="#000" stroke-width=".75"/>
<g>
<use x="263.945312" y="467.561778" xlink:href="#al"/>
<use x="285.881528" y="467.561778" xlink:href="#ai"/>
<use x="295.630957" y="467.561778" xlink:href="#ah"/>
<use x="307.817743" y="467.561778" xlink:href="#q"/>
<use x="324.879243" y="467.561778" xlink:href="#p"/>
<use x="337.06603" y="467.561778" xlink:href="#o"/>
<use x="346.815459" y="467.561778" xlink:href="#ag"/>
<use x="356.564887" y="467.561778" xlink:href="#n"/>
<use x="376.063745" y="467.561778" xlink:href="#o"/>
<use x="385.813174" y="467.561778" xlink:href="#af"/>
<use x="395.562603" y="467.561778" xlink:href="#ak"/>
<use x="412.624104" y="467.561778" xlink:href="#aj"/>
<use x="432.122962" y="467.561778" xlink:href="#p"/>
<use x="444.309748" y="467.561778" xlink:href="#q"/>
<use x="461.371249" y="467.561778" xlink:href="#n"/>
</g>
<g>
<use x="152.480469" y="425.983295" xlink:href="#e"/>
<use x="164.667255" y="425.983295" xlink:href="#ae"/>
<use x="176.854041" y="425.983295" xlink:href="#a"/>
<use x="184.166113" y="425.983295" xlink:href="#h"/>
<use x="196.352899" y="425.983295" xlink:href="#d"/>
</g>
<g>
<use x="229.242188" y="425.983295" xlink:href="#h"/>
<use x="241.428974" y="425.983295" xlink:href="#c"/>
<use x="253.61576" y="425.983295" xlink:href="#a"/>
<use x="260.927832" y="425.983295" xlink:href="#g"/>
<use x="273.114618" y="425.983295" xlink:href="#d"/>
</g>
<g>
<use x="305.617188" y="425.983295" xlink:href="#g"/>
<use x="317.803974" y="425.983295" xlink:href="#c"/>
<use x="329.99076" y="425.983295" xlink:href="#a"/>
<use x="337.302832" y="425.983295" xlink:href="#d"/>
<use x="349.489618" y="425.983295" xlink:href="#d"/>
</g>
<g>
<use x="382.285156" y="425.983295" xlink:href="#d"/>
<use x="394.471942" y="425.983295" xlink:href="#c"/>
<use x="406.658729" y="425.983295" xlink:href="#a"/>
<use x="413.9708" y="425.983295" xlink:href="#c"/>
<use x="426.157586" y="425.983295" xlink:href="#d"/>
</g>
<g>
<use x="458.414062" y="425.983295" xlink:href="#c"/>
<use x="470.600849" y="425.983295" xlink:href="#c"/>
<use x="482.787635" y="425.983295" xlink:href="#a"/>
<use x="490.099707" y="425.983295" xlink:href="#f"/>
<use x="502.286493" y="425.983295" xlink:href="#d"/>
</g>
<g>
<use x="534.890625" y="425.983295" xlink:href="#f"/>
<use x="547.077411" y="425.983295" xlink:href="#c"/>
<use x="559.264197" y="425.983295" xlink:href="#a"/>
<use x="566.576269" y="425.983295" xlink:href="#m"/>
<use x="578.763055" y="425.983295" xlink:href="#d"/>
</g>
<g>
<use x="699.03125" y="271.24892" xlink:href="#e"/>
<use x="711.218036" y="271.24892" xlink:href="#k"/>
<use x="723.404822" y="271.24892" xlink:href="#j"/>
<use x="738.028966" y="271.24892" xlink:href="#i"/>
</g>
<g>
<use x="699.03125" y="307.182514" xlink:href="#c"/>
<use x="711.218036" y="307.182514" xlink:href="#k"/>
<use x="723.404822" y="307.182514" xlink:href="#j"/>
<use x="738.028966" y="307.182514" xlink:href="#i"/>
</g>
<g>
<use x="699.03125" y="343.116108" xlink:href="#e"/>
<use x="711.218036" y="343.116108" xlink:href="#b"/>
<use x="723.404822" y="343.116108" xlink:href="#k"/>
<use x="735.591609" y="343.116108" xlink:href="#j"/>
<use x="750.215752" y="343.116108" xlink:href="#i"/>
</g>
<g>
<use x="53.253906" y="392.725483" xlink:href="#a"/>
<use x="60.565978" y="392.725483" xlink:href="#m"/>
<use x="72.752764" y="392.725483" xlink:href="#b"/>
</g>
<g>
<use x="53.253906" y="347.580951" xlink:href="#a"/>
<use x="60.565978" y="347.580951" xlink:href="#f"/>
<use x="72.752764" y="347.580951" xlink:href="#b"/>
</g>
<g>
<use x="53.253906" y="302.432514" xlink:href="#a"/>
<use x="60.565978" y="302.432514" xlink:href="#c"/>
<use x="72.752764" y="302.432514" xlink:href="#b"/>
</g>
<g>
<use x="53.253906" y="212.139545" xlink:href="#a"/>
<use x="60.565978" y="212.139545" xlink:href="#g"/>
<use x="72.752764" y="212.139545" xlink:href="#b"/>
</g>
<g>
<use x="53.253906" y="166.991108" xlink:href="#a"/>
<use x="60.565978" y="166.991108" xlink:href="#h"/>
<use x="72.752764" y="166.991108" xlink:href="#b"/>
</g>
<g>
<use x="53.253906" y="121.84267" xlink:href="#a"/>
<use x="60.565978" y="121.84267" xlink:href="#e"/>
<use x="72.752764" y="121.84267" xlink:href="#b"/>
</g>
<g>
<use x="72.695312" y="76.694233" xlink:href="#b"/>
</g>
<g>
<use x="60.289062" y="31.549701" xlink:href="#e"/>
<use x="72.475849" y="31.549701" xlink:href="#b"/>
</g>
<g>
<use x="53.253906" y="257.284076" xlink:href="#a"/>
<use x="60.565978" y="257.284076" xlink:href="#d"/>
<use x="72.752764" y="257.284076" xlink:href="#b"/>
</g>
<g>
<use x="32.599282" y="286.785156" xlink:href="#ad"/>
<use x="32.599282" y="269.715159" xlink:href="#ac"/>
<use x="32.599282" y="257.522304" xlink:href="#l"/>
<use x="32.599282" y="247.768019" xlink:href="#ab"/>
<use x="32.599282" y="235.575164" xlink:href="#aa"/>
<use x="32.599282" y="223.382309" xlink:href="#l"/>
<use x="32.599282" y="213.628024" xlink:href="#z"/>
<use x="32.599282" y="206.312311" xlink:href="#y"/>
<use x="32.599282" y="191.680885" xlink:href="#x"/>
<use x="32.599282" y="179.48803" xlink:href="#w"/>
</g>
<g>
<use x="32.599282" y="169.734375" xlink:href="#v"/>
<use x="32.599282" y="162.418662" xlink:href="#u"/>
<use x="32.599282" y="155.102949" xlink:href="#t"/>
<use x="32.599282" y="142.910093" xlink:href="#s"/>
<use x="32.599282" y="130.717238" xlink:href="#r"/>
</g>
<path transform="matrix(2.4374 0 0 2.4386 41.979 137.92)" d="m252.88 81.485h11.909" fill="none" stroke="#d40000" stroke-width=".75"/>
<path transform="matrix(2.4374 0 0 2.4386 41.979 137.92)" d="m252.88 66.485h11.909" fill="none" stroke="#338000" stroke-width=".75"/>
<path transform="matrix(2.4374 0 0 2.4386 41.979 137.92)" d="m252.88 52.985h11.909" fill="none" stroke="#00a" stroke-width=".75"/>
<path transform="matrix(2.4374 0 0 2.4386 41.979 137.92)" d="m57.174-28.018 31.348 0.2547c10.752 0.0865 20.96 2.3483 31.346 3.6362l31.346 3.8909c10.93 1.3568 24.678-0.71123 31.348 1.344 8.3915 2.5854 17.448 6.5068 31.346 13.614" fill="none" stroke="#00a" stroke-width=".75"/>
<path d="m175.85 64.109h10.969v10.973h-10.969z" fill="#00a"/>
<path d="m556.8 345.96h13.113l-6.5586-10.973z" fill="#d40000"/>
<path transform="matrix(2.4374 0 0 2.4386 41.979 137.92)" d="m57.174-27.337c11.342 1.3071 22.823 2.6431 31.348 4.9674 11.696 3.1893 23.46 6.1752 31.346 12.866 13.406 11.373 21.254 24.395 31.346 37.027 10.199 12.767 20.009 25.84 31.348 37.029 8.7281 8.6116 20.729 13.143 31.346 18.513" fill="none" stroke="#d40000" stroke-width=".75"/>
<path transform="matrix(2.4374 0 0 2.4386 41.979 137.92)" d="m57.174-23.757s20.95 3.3207 31.348 5.3999c10.509 2.1 21.295 3.4248 31.346 7.1411 11.074 4.0944 21.572 9.8691 31.346 16.49 11.374 7.7033 19.391 19.988 31.348 26.749 9.5903 5.4239 31.346 10.489 31.346 10.489" fill="none" stroke="#338000" stroke-width=".75"/>
<path d="m667.38 261.64h10.969v10.973h-10.969z" fill="#00a"/>
<path d="m678.34 300.05c0 3.0312-2.4531 5.4883-5.4844 5.4883-3.0273 0-5.4844-2.457-5.4844-5.4883s2.457-5.4883 5.4844-5.4883c3.0312 0 5.4844 2.457 5.4844 5.4883z" fill="#338000"/>
<path d="m252.25 64.109h10.965v10.973h-10.965z" fill="#00a"/>
<path d="m174.63 77.141h13.113l-6.5547-10.977z" fill="#d40000"/>
<path d="m186.82 79.984c0 3.0312-2.4531 5.4883-5.4844 5.4883-3.0273 0-5.4844-2.457-5.4844-5.4883 0-3.0273 2.457-5.4844 5.4844-5.4844 3.0312 0 5.4844 2.457 5.4844 5.4844z" fill="#338000"/>
<path d="m252.25 64.109h10.965v10.973h-10.965z" fill="#00a"/>
<path d="m328.66 73.598h10.969v10.973h-10.969z" fill="#00a"/>
<path d="m405.06 83.086h10.969v10.973h-10.969z" fill="#00a"/>
<path d="m481.46 86.359h10.969v10.977h-10.969z" fill="#00a"/>
<path d="m557.87 119.56h10.969v10.977h-10.969z" fill="#00a"/>
<path d="m263.22 93.152c0 3.0273-2.4531 5.4844-5.4805 5.4844-3.0312 0-5.4844-2.457-5.4844-5.4844 0-3.0312 2.4531-5.4883 5.4844-5.4883 3.0273 0 5.4805 2.457 5.4805 5.4883z" fill="#338000"/>
<path d="m328.66 120.23s10.98-0.003907 10.969 0l-5.4844-10.977z" fill="#d40000"/>
<path d="m340.05 110.57c0 3.0312-2.4531 5.4883-5.4844 5.4883-3.0273 0-5.4844-2.457-5.4844-5.4883 0-3.0273 2.457-5.4844 5.4844-5.4844 3.0312 0 5.4844 2.457 5.4844 5.4844z" fill="#338000"/>
<path d="m416.03 150.78c0 3.0312-2.4531 5.4844-5.4844 5.4844-3.0273 0-5.4844-2.4531-5.4844-5.4844s2.457-5.4883 5.4844-5.4883c3.0312 0 5.4844 2.457 5.4844 5.4883z" fill="#338000"/>
<path d="m492.43 216.01c0 3.0312-2.457 5.4883-5.4844 5.4883-3.0312 0-5.4844-2.457-5.4844-5.4883 0-3.0273 2.4531-5.4844 5.4844-5.4844 3.0273 0 5.4844 2.457 5.4844 5.4844z" fill="#338000"/>
<path d="m568.84 241.59c0 3.0312-2.457 5.4883-5.4844 5.4883-3.0273 0-5.4844-2.457-5.4844-5.4883s2.457-5.4844 5.4844-5.4844c3.0273 0 5.4844 2.4531 5.4844 5.4844z" fill="#338000"/>
<path d="m251.18 87.664h13.113l-6.5547-10.973z" fill="#d40000"/>
<path d="m403.99 210.52h13.113l-6.5586-10.973z" fill="#d40000"/>
<path d="m481.46 300.82h10.969l-5.4844-10.973z" fill="#d40000"/>
<path d="m327.58 120.23s13.129-0.003907 13.113 0l-6.5547-10.977z" fill="#d40000"/>
<path d="m666.3 341.2s13.125-0.003907 13.113 0l-6.5586-10.977z" fill="#d40000"/>
</svg>
