<?xml version="1.0" encoding="UTF-8"?>
<svg width="800px" height="783px" version="1.1" viewBox="0 0 800 783" xmlns="http://www.w3.org/2000/svg" xmlns:xlink="http://www.w3.org/1999/xlink">
<defs>
<symbol id="au" overflow="visible">
<path d="m20.594-5.125h-11.328l-1.7969 5.125h-7.2812l10.406-28.094h8.6406l10.406 28.094h-7.2812zm-9.5312-5.2031h7.7031l-3.8438-11.188z"/>
</symbol>
<symbol id="ar" overflow="visible">
<path d="m3.2344-29.281h6.7344v29.281h-6.7344z"/>
</symbol>
<symbol id="aq" overflow="visible">
<path d="m10.594-27.062v5.9844h6.9531v4.8125h-6.9531v8.9375c0 0.98047 0.19141 1.6484 0.57812 2 0.39453 0.34375 1.1719 0.51562 2.3281 0.51562h3.4531v4.8125h-5.7656c-2.668 0-4.5586-0.55078-5.6719-1.6562-1.1055-1.1133-1.6562-3.0039-1.6562-5.6719v-8.9375h-3.3438v-4.8125h3.3438v-5.9844z"/>
</symbol>
<symbol id="q" overflow="visible">
<path d="m24.281-10.594v1.9219h-15.75c0.15625 1.5742 0.72266 2.7578 1.7031 3.5469 0.97656 0.79297 2.3477 1.1875 4.1094 1.1875 1.4141 0 2.8672-0.20703 4.3594-0.625 1.4883-0.41406 3.0156-1.0508 4.5781-1.9062v5.1875c-1.5938 0.60547-3.1875 1.0586-4.7812 1.3594-1.5938 0.3125-3.1875 0.46875-4.7812 0.46875-3.8125 0-6.7773-0.96875-8.8906-2.9062-2.1172-1.9375-3.1719-4.6562-3.1719-8.1562 0-3.4375 1.0352-6.1406 3.1094-8.1094 2.082-1.9766 4.9414-2.9688 8.5781-2.9688 3.3125 0 5.9609 1 7.9531 3 1.9883 1.9922 2.9844 4.6562 2.9844 8zm-6.9219-2.25c0-1.2695-0.375-2.2969-1.125-3.0781-0.75-0.78906-1.7266-1.1875-2.9219-1.1875-1.3125 0-2.375 0.37109-3.1875 1.1094-0.8125 0.73047-1.3242 1.7812-1.5312 3.1562z"/>
</symbol>
<symbol id="p" overflow="visible">
<path d="m18.891-15.344c-0.58594-0.26953-1.168-0.47266-1.75-0.60938-0.58594-0.13281-1.1719-0.20312-1.7656-0.20312-1.7305 0-3.0625 0.55859-4 1.6719-0.9375 1.1172-1.4062 2.7031-1.4062 4.7656v9.7188h-6.7344v-21.078h6.7344v3.4688c0.875-1.3828 1.8672-2.3945 2.9844-3.0312 1.125-0.63281 2.4727-0.95312 4.0469-0.95312 0.21875 0 0.45703 0.011719 0.71875 0.03125 0.26953 0.023438 0.65625 0.0625 1.1562 0.125z"/>
</symbol>
<symbol id="o" overflow="visible"></symbol>
<symbol id="ap" overflow="visible">
<path d="m3.2344-21.078h6.7344v21.078h-6.7344zm0-8.2031h6.7344v5.4844h-6.7344z"/>
</symbol>
<symbol id="n" overflow="visible">
<path d="m24.438-12.844v12.844h-6.7812v-9.8281c0-1.8125-0.042969-3.0625-0.125-3.75-0.085938-0.69531-0.22656-1.207-0.42188-1.5312-0.26172-0.4375-0.62109-0.77344-1.0781-1.0156-0.44922-0.25-0.96094-0.375-1.5312-0.375-1.4062 0-2.5156 0.54297-3.3281 1.625-0.80469 1.0859-1.2031 2.5859-1.2031 4.5v10.375h-6.7344v-21.078h6.7344v3.0781c1.0195-1.2266 2.0977-2.1328 3.2344-2.7188 1.1445-0.58203 2.4102-0.875 3.7969-0.875 2.4258 0 4.2695 0.75 5.5312 2.25 1.2695 1.4922 1.9062 3.6562 1.9062 6.5z"/>
</symbol>
<symbol id="ao" overflow="visible">
<path d="m3.5312-28.094h7.25v25.359c0 3.5-0.95312 6.1133-2.8594 7.8438-1.8984 1.7383-4.7734 2.6094-8.625 2.6094h-1.4688v-5.4844h1.1406c1.5 0 2.6328-0.42188 3.4062-1.2656 0.76953-0.83594 1.1562-2.0664 1.1562-3.7031z"/>
</symbol>
<symbol id="at" overflow="visible">
<path d="m12.688-9.4844c-1.4062 0-2.4648 0.24219-3.1719 0.71875-0.71094 0.46875-1.0625 1.1719-1.0625 2.1094 0 0.84375 0.28125 1.5117 0.84375 2 0.57031 0.48047 1.3672 0.71875 2.3906 0.71875 1.2695 0 2.3359-0.45312 3.2031-1.3594 0.86328-0.90625 1.2969-2.0469 1.2969-3.4219v-0.76562zm10.297-2.5469v12.031h-6.7969v-3.125c-0.90625 1.2812-1.9297 2.2148-3.0625 2.7969-1.125 0.58203-2.4961 0.875-4.1094 0.875-2.1875 0-3.9648-0.63281-5.3281-1.9062-1.3555-1.2812-2.0312-2.9375-2.0312-4.9688 0-2.4688 0.84766-4.2812 2.5469-5.4375 1.6953-1.1562 4.3672-1.7344 8.0156-1.7344h3.9688v-0.51562c0-1.0703-0.42188-1.8516-1.2656-2.3438-0.83594-0.5-2.1484-0.75-3.9375-0.75-1.4375 0-2.7812 0.14844-4.0312 0.4375-1.2422 0.28125-2.3906 0.71484-3.4531 1.2969v-5.1406c1.4453-0.35156 2.8945-0.61719 4.3438-0.79688 1.457-0.1875 2.9141-0.28125 4.375-0.28125 3.8008 0 6.5469 0.75 8.2344 2.25s2.5312 3.9375 2.5312 7.3125z"/>
</symbol>
<symbol id="as" overflow="visible">
<path d="m24.438-12.844v12.844h-6.7812v-9.7812c0-1.8438-0.042969-3.1094-0.125-3.7969-0.085938-0.69531-0.22656-1.207-0.42188-1.5312-0.26172-0.4375-0.62109-0.77344-1.0781-1.0156-0.44922-0.25-0.96094-0.375-1.5312-0.375-1.4062 0-2.5156 0.54297-3.3281 1.625-0.80469 1.0859-1.2031 2.5859-1.2031 4.5v10.375h-6.7344v-29.281h6.7344v11.281c1.0195-1.2266 2.0977-2.1328 3.2344-2.7188 1.1445-0.58203 2.4102-0.875 3.7969-0.875 2.4258 0 4.2695 0.75 5.5312 2.25 1.2695 1.4922 1.9062 3.6562 1.9062 6.5z"/>
</symbol>
<symbol id="an" overflow="visible">
<path d="m-20.438-2.5781v-6.7031l10.938-4.6562-10.938-4.6719v-6.7031h20.438v4.9844h-14.953l11.031 4.7188v3.3281l-11.031 4.7188h14.953v4.9844z"/>
</symbol>
<symbol id="g" overflow="visible">
<path d="m-6.8906-9.2188c0 1.0234 0.17188 1.793 0.51562 2.3125 0.34375 0.51172 0.85547 0.76562 1.5312 0.76562 0.61719 0 1.1016-0.20703 1.4531-0.625 0.35547-0.41406 0.53125-0.99219 0.53125-1.7344 0-0.91406-0.32812-1.6875-0.98438-2.3125-0.66406-0.63281-1.5-0.95312-2.5-0.95312h-0.54688zm-1.8594-7.5h8.75v4.9531h-2.2656c0.92969 0.65625 1.6055 1.3984 2.0312 2.2188 0.41406 0.8125 0.625 1.8086 0.625 2.9844 0 1.5938-0.45703 2.8867-1.375 3.875-0.92578 0.99219-2.1289 1.4844-3.6094 1.4844-1.8008 0-3.1172-0.61328-3.9531-1.8438-0.84375-1.2383-1.2656-3.1875-1.2656-5.8438v-2.875h-0.39062c-0.76953 0-1.332 0.30859-1.6875 0.92188-0.36328 0.60547-0.54688 1.5547-0.54688 2.8438 0 1.0547 0.10547 2.0312 0.3125 2.9375 0.21094 0.90625 0.52344 1.7461 0.9375 2.5156h-3.7344c-0.25-1.0508-0.44141-2.1016-0.57812-3.1562-0.13281-1.0625-0.20312-2.125-0.20312-3.1875 0-2.7578 0.54688-4.7539 1.6406-5.9844 1.0938-1.2266 2.8672-1.8438 5.3125-1.8438z"/>
</symbol>
<symbol id="af" overflow="visible">
<path d="m-7.8438-6.2344-7.4844 5.5312v-5.1875l4.5469-3.125-4.5469-3.1719v-5.1875l7.4531 5.5156 7.875-5.7969v5.1875l-4.8438 3.4531 4.8438 3.4062v5.1875z"/>
</symbol>
<symbol id="l" overflow="visible">
<path d="m-15.328-2.3594v-4.8906h15.328v4.8906zm-5.9688 0v-4.8906h4v4.8906z"/>
</symbol>
<symbol id="f" overflow="visible">
<path d="m-12.781-16.562c-0.94531-0.61328-1.6719-1.3477-2.1719-2.2031-0.5-0.85156-0.75-1.7891-0.75-2.8125 0-1.7578 0.54688-3.0977 1.6406-4.0156 1.0859-0.92578 2.6641-1.3906 4.7344-1.3906h9.3281v4.9219h-8c-0.11328-0.007812-0.23438-0.015625-0.35938-0.015625-0.125-0.007813-0.30469-0.015625-0.54688-0.015625-1.0938 0-1.8789 0.16406-2.3594 0.48438-0.48828 0.3125-0.73438 0.82812-0.73438 1.5469 0 0.92969 0.38672 1.6484 1.1562 2.1562 0.76172 0.5 1.8672 0.76172 3.3125 0.78125h7.5312v4.9375h-8c-1.6953 0-2.7852 0.14844-3.2656 0.4375-0.48828 0.29297-0.73438 0.80859-0.73438 1.5469 0 0.94922 0.38672 1.6797 1.1562 2.1875 0.77344 0.51172 1.8711 0.76562 3.2969 0.76562h7.5469v4.9219h-15.328v-4.9219h2.25c-0.875-0.60156-1.5312-1.2969-1.9688-2.0781s-0.65625-1.6406-0.65625-2.5781c0-1.0625 0.25781-2 0.76562-2.8125 0.51172-0.8125 1.2305-1.4258 2.1562-1.8438z"/>
</symbol>
<symbol id="k" overflow="visible">
<path d="m-21.297-2.3594v-4.8906h21.297v4.8906z"/>
</symbol>
<symbol id="j" overflow="visible">
<path d="m-7.7031-17.656h1.3906v11.453c1.1562-0.11328 2.0234-0.52344 2.5938-1.2344 0.57422-0.71875 0.85938-1.7109 0.85938-2.9844 0-1.0312-0.14844-2.0859-0.45312-3.1719-0.3125-1.082-0.77344-2.1953-1.3906-3.3438h3.7656c0.4375 1.168 0.76562 2.3281 0.98438 3.4844 0.22656 1.1562 0.34375 2.3125 0.34375 3.4688 0 2.7812-0.70312 4.9453-2.1094 6.4844-1.4062 1.5312-3.3828 2.2969-5.9375 2.2969-2.5 0-4.4609-0.75391-5.8906-2.2656-1.4375-1.5078-2.1562-3.5859-2.1562-6.2344 0-2.4062 0.73047-4.332 2.1875-5.7812 1.4492-1.4453 3.3867-2.1719 5.8125-2.1719zm-1.625 5.0312c-0.9375 0-1.6875 0.27734-2.25 0.82812-0.57031 0.54297-0.85938 1.25-0.85938 2.125 0 0.94922 0.26562 1.7188 0.79688 2.3125s1.3047 0.96484 2.3125 1.1094z"/>
</symbol>
<symbol id="i" overflow="visible">
<path d="m-11.156-13.734c-0.19531 0.42969-0.34375 0.85547-0.4375 1.2812-0.10156 0.41797-0.15625 0.83984-0.15625 1.2656 0 1.2617 0.40625 2.2344 1.2188 2.9219 0.80469 0.67969 1.9609 1.0156 3.4688 1.0156h7.0625v4.8906h-15.328v-4.8906h2.5156c-1-0.63281-1.7266-1.3594-2.1875-2.1719-0.46875-0.82031-0.70312-1.8008-0.70312-2.9375 0-0.16406 0.011719-0.34375 0.03125-0.53125 0.011719-0.19531 0.039063-0.47656 0.078125-0.84375z"/>
</symbol>
<symbol id="ae" overflow="visible"></symbol>
<symbol id="am" overflow="visible">
<path d="m-3.7188-14.969v8.2344l3.7188 1.2969v5.2969l-20.438-7.5625v-6.2812l20.438-7.5781v5.2969zm-3.7969 6.9219v-5.5938l-8.125 2.7812z"/>
</symbol>
<symbol id="m" overflow="visible">
<path d="m-21.297-2.3594v-4.8906h11.594l-5.625-5.6406v-5.7031l7.0312 7.5 8.2969-8.0781v5.9375l-6.3906 5.9844h6.3906v4.8906z"/>
</symbol>
<symbol id="c" overflow="visible">
<path d="m-12.188-9.6562c0 1.0938 0.39062 1.9297 1.1719 2.5 0.77344 0.5625 1.8906 0.84375 3.3594 0.84375s2.5938-0.28125 3.375-0.84375c0.78125-0.57031 1.1719-1.4062 1.1719-2.5 0-1.0625-0.39062-1.875-1.1719-2.4375-0.78125-0.57031-1.9062-0.85938-3.375-0.85938s-2.5859 0.28906-3.3594 0.85938c-0.78125 0.5625-1.1719 1.375-1.1719 2.4375zm-3.5156 0c0-2.6328 0.71484-4.6914 2.1406-6.1719 1.4297-1.4766 3.3984-2.2188 5.9062-2.2188 2.5234 0 4.4961 0.74219 5.9219 2.2188 1.418 1.4805 2.125 3.5391 2.125 6.1719 0 2.6484-0.70703 4.7188-2.125 6.2188-1.4258 1.4922-3.3984 2.2344-5.9219 2.2344-2.5078 0-4.4766-0.74219-5.9062-2.2344-1.4258-1.5-2.1406-3.5703-2.1406-6.2188z"/>
</symbol>
<symbol id="al" overflow="visible">
<path d="m-13.078-12.781h-8.2188v-4.9375h21.297v4.9375h-2.2188c0.90625 0.67969 1.5703 1.4219 1.9844 2.2344s0.625 1.75 0.625 2.8125c0 1.8867-0.75 3.4375-2.25 4.6562-1.5 1.2109-3.4297 1.8125-5.7969 1.8125-2.3633 0-4.2969-0.60156-5.7969-1.8125-1.5-1.2188-2.25-2.7695-2.25-4.6562 0-1.0625 0.21484-2 0.64062-2.8125 0.42969-0.8125 1.0898-1.5547 1.9844-2.2344zm9.9219 3.2344c0-1.0508-0.38281-1.8516-1.1562-2.4062-0.76953-0.55078-1.8828-0.82812-3.3438-0.82812-1.457 0-2.5664 0.27734-3.3281 0.82812-0.76953 0.55469-1.1562 1.3555-1.1562 2.4062 0 1.0312 0.38672 1.8242 1.1562 2.375 0.76172 0.55469 1.8711 0.82812 3.3281 0.82812 1.4609 0 2.5742-0.27344 3.3438-0.82812 0.77344-0.55078 1.1562-1.3438 1.1562-2.375z"/>
</symbol>
<symbol id="ak" overflow="visible">
<path d="m-19.688-7.7031h4.3594v-5.0469h3.5v5.0469h6.5c0.71875 0 1.2031-0.14062 1.4531-0.42188s0.375-0.84375 0.375-1.6875v-2.5156h3.5v4.2031c0 1.9297-0.39844 3.2969-1.2031 4.1094-0.8125 0.80469-2.1875 1.2031-4.125 1.2031h-6.5v2.4375h-3.5v-2.4375h-4.3594z"/>
</symbol>
<symbol id="aj" overflow="visible">
<path d="m-9.3281-17.766h9.3281v4.9219h-7.1406c-1.3203 0-2.2344 0.03125-2.7344 0.09375-0.50781 0.0625-0.87891 0.16797-1.1094 0.3125-0.32031 0.1875-0.57031 0.44922-0.75 0.78125-0.17578 0.32422-0.26562 0.69531-0.26562 1.1094 0 1.0312 0.39844 1.8398 1.1875 2.4219 0.78125 0.58594 1.8711 0.875 3.2656 0.875h7.5469v4.8906h-15.328v-4.8906h2.25c-0.89453-0.73828-1.5547-1.5234-1.9844-2.3594-0.42578-0.83203-0.64062-1.75-0.64062-2.75 0-1.7695 0.54688-3.1133 1.6406-4.0312 1.0859-0.91406 2.6641-1.375 4.7344-1.375z"/>
</symbol>
<symbol id="ai" overflow="visible">
<path d="m-14.844-14.328h3.7188c-0.4375 1.0547-0.76562 2.0703-0.98438 3.0469-0.21875 0.96875-0.32812 1.8867-0.32812 2.75 0 0.9375 0.11719 1.6328 0.34375 2.0781 0.23047 0.44922 0.58984 0.67188 1.0781 0.67188 0.39844 0 0.69922-0.16406 0.90625-0.5 0.21094-0.34375 0.35938-0.95703 0.45312-1.8438l0.125-0.875c0.32422-2.5 0.85156-4.1797 1.5781-5.0469 0.73047-0.875 1.875-1.3125 3.4375-1.3125 1.6367 0 2.8672 0.60547 3.6875 1.8125 0.8125 1.1992 1.2188 2.9961 1.2188 5.3906 0 1.0117-0.078125 2.0586-0.23438 3.1406-0.15625 1.0859-0.39453 2.1953-0.71875 3.3281h-3.7188c0.46875-0.96875 0.82422-1.9688 1.0625-3 0.24219-1.0312 0.35938-2.0703 0.35938-3.125 0-0.95703-0.12891-1.6758-0.39062-2.1562-0.26953-0.48828-0.66406-0.73438-1.1875-0.73438-0.4375 0-0.75781 0.16797-0.96875 0.5-0.21875 0.33594-0.38281 0.99609-0.5 1.9844l-0.10938 0.875c-0.28125 2.1797-0.78906 3.7031-1.5312 4.5781-0.73828 0.875-1.8594 1.3125-3.3594 1.3125-1.625 0-2.8281-0.55469-3.6094-1.6719-0.78906-1.1133-1.1875-2.8164-1.1875-5.1094 0-0.90625 0.074219-1.8516 0.21875-2.8438 0.13672-1 0.35156-2.082 0.64062-3.25z"/>
</symbol>
<symbol id="ah" overflow="visible">
<path d="m-21.297-12.438h3.2188v2.7031c0 0.69922 0.125 1.1836 0.375 1.4531 0.25 0.27344 0.6875 0.40625 1.3125 0.40625h1.0625v-4.1875h3.5v4.1875h11.828v4.9062h-11.828v2.4375h-3.5v-2.4375h-1.0625c-1.6758 0-2.9102-0.46094-3.7031-1.3906-0.80078-0.9375-1.2031-2.3789-1.2031-4.3281z"/>
</symbol>
<symbol id="ag" overflow="visible">
<path d="m-2.5938-12.781c0.88672 0.67969 1.543 1.4219 1.9688 2.2344 0.41797 0.8125 0.625 1.75 0.625 2.8125 0 1.875-0.73438 3.4219-2.2031 4.6406-1.4766 1.2188-3.3594 1.8281-5.6406 1.8281-2.2891 0-4.1641-0.60938-5.625-1.8281-1.4688-1.2188-2.2031-2.7656-2.2031-4.6406 0-1.0625 0.21484-2 0.64062-2.8125 0.41797-0.8125 1.0742-1.5547 1.9688-2.2344h-2.2656v-4.9375h13.781c2.4688 0 4.3477 0.78125 5.6406 2.3438 1.3008 1.5547 1.9531 3.8086 1.9531 6.7656 0 0.96094-0.074219 1.8867-0.21875 2.7812-0.14844 0.89844-0.37109 1.793-0.67188 2.6875h-3.8125c0.48828-0.85156 0.85156-1.6914 1.0938-2.5156 0.25-0.82031 0.375-1.6445 0.375-2.4688 0-1.6133-0.35547-2.7891-1.0625-3.5312-0.69922-0.75-1.7969-1.125-3.2969-1.125zm-9.5469 3.2344c0 1.0117 0.375 1.7969 1.125 2.3594s1.8086 0.84375 3.1719 0.84375c1.4062 0 2.4766-0.26953 3.2031-0.8125 0.71875-0.55078 1.0781-1.3477 1.0781-2.3906 0-1.0312-0.36719-1.8281-1.1094-2.3906-0.75-0.5625-1.8047-0.84375-3.1719-0.84375-1.3633 0-2.4219 0.28125-3.1719 0.84375s-1.125 1.3594-1.125 2.3906z"/>
</symbol>
<symbol id="ad" overflow="visible"></symbol>
<symbol id="ac" overflow="visible">
<path d="m-21.297-2.4062v-5.8125h1.9531v3.2969h21.078v-3.2969h1.9688v5.8125z"/>
</symbol>
<symbol id="ab" overflow="visible">
<path d="m-13-12.734h-8.2969v-2.5156h21.297v2.5156h-2.2969c0.90625 0.53125 1.5859 1.2031 2.0312 2.0156 0.4375 0.80469 0.65625 1.7734 0.65625 2.9062 0 1.8555-0.73438 3.3672-2.2031 4.5312-1.4766 1.1562-3.4258 1.7344-5.8438 1.7344-2.4062 0-4.3477-0.57812-5.8281-1.7344-1.4766-1.1641-2.2188-2.6758-2.2188-4.5312 0-1.1328 0.22656-2.1016 0.67188-2.9062 0.4375-0.8125 1.1172-1.4844 2.0312-2.0156zm5.3438 8.5938c1.8555 0 3.3125-0.37891 4.375-1.1406 1.0547-0.76953 1.5781-1.8203 1.5781-3.1562 0-1.3203-0.52344-2.3672-1.5781-3.1406-1.0625-0.76953-2.5195-1.1562-4.375-1.1562-1.8438 0-3.2891 0.38672-4.3438 1.1562-1.0625 0.77344-1.5938 1.8203-1.5938 3.1406 0 1.3359 0.53125 2.3867 1.5938 3.1562 1.0547 0.76172 2.5 1.1406 4.3438 1.1406z"/>
</symbol>
<symbol id="aa" overflow="visible">
<path d="m-2.2969-5.0781h8.125v2.5312h-21.156v-2.5312h2.3281c-0.91406-0.53125-1.5938-1.1953-2.0312-2-0.44531-0.8125-0.67188-1.7812-0.67188-2.9062 0-1.8516 0.74219-3.3633 2.2188-4.5312 1.4805-1.1641 3.4219-1.75 5.8281-1.75 2.418 0 4.3672 0.58594 5.8438 1.75 1.4688 1.168 2.2031 2.6797 2.2031 4.5312 0 1.125-0.21875 2.0938-0.65625 2.9062-0.44531 0.80469-1.125 1.4688-2.0312 2zm-5.3594-8.5625c-1.8438 0-3.2891 0.38281-4.3438 1.1406-1.0625 0.76172-1.5938 1.8086-1.5938 3.1406 0 1.3359 0.53125 2.3828 1.5938 3.1406 1.0547 0.76172 2.5 1.1406 4.3438 1.1406 1.8555 0 3.3125-0.37891 4.375-1.1406 1.0547-0.75781 1.5781-1.8047 1.5781-3.1406 0-1.332-0.52344-2.3789-1.5781-3.1406-1.0625-0.75781-2.5195-1.1406-4.375-1.1406z"/>
</symbol>
<symbol id="z" overflow="visible">
<path d="m-19.688-5.125h4.3594v-5.1875h1.9531v5.1875h8.3281c1.25 0 2.0547-0.17188 2.4062-0.51562 0.35547-0.34375 0.53125-1.0391 0.53125-2.0938v-2.5781h2.1094v2.5781c0 1.9492-0.35938 3.293-1.0781 4.0312-0.72656 0.74219-2.0508 1.1094-3.9688 1.1094h-8.3281v1.8438h-1.9531v-1.8438h-4.3594z"/>
</symbol>
<symbol id="y" overflow="visible">
<path d="m-21.297-8.5312h25v5.8125h-1.9688v-3.2812h-21.078v3.2812h-1.9531z"/>
</symbol>
<symbol id="b" overflow="visible">
<path d="m3.4688-2.3281h4.5312v-15.594l-4.9219 0.98438v-2.5156l4.8906-0.98438h2.7656v18.109h4.5156v2.3281h-11.781z"/>
</symbol>
<symbol id="a" overflow="visible">
<path d="m8.9062-18.609c-1.418 0-2.4844 0.70312-3.2031 2.1094-0.71875 1.3984-1.0781 3.4961-1.0781 6.2969 0 2.8047 0.35938 4.9062 1.0781 6.3125 0.71875 1.3984 1.7852 2.0938 3.2031 2.0938 1.4375 0 2.5078-0.69531 3.2188-2.0938 0.71875-1.4062 1.0781-3.5078 1.0781-6.3125 0-2.8008-0.35938-4.8984-1.0781-6.2969-0.71094-1.4062-1.7812-2.1094-3.2188-2.1094zm0-2.1875c2.2891 0 4.0391 0.90625 5.25 2.7188 1.207 1.8047 1.8125 4.4297 1.8125 7.875 0 3.4492-0.60547 6.0781-1.8125 7.8906-1.2109 1.8047-2.9609 2.7031-5.25 2.7031-2.293 0-4.043-0.89844-5.25-2.7031-1.2109-1.8125-1.8125-4.4414-1.8125-7.8906 0-3.4453 0.60156-6.0703 1.8125-7.875 1.207-1.8125 2.957-2.7188 5.25-2.7188z"/>
</symbol>
<symbol id="e" overflow="visible">
<path d="m5.375-2.3281h9.6562v2.3281h-12.984v-2.3281c1.0508-1.082 2.4844-2.5352 4.2969-4.3594 1.8125-1.832 2.9531-3.0156 3.4219-3.5469 0.88281-1 1.5-1.8438 1.8438-2.5312 0.35156-0.6875 0.53125-1.3633 0.53125-2.0312 0-1.082-0.38281-1.9688-1.1406-2.6562-0.76172-0.6875-1.7578-1.0312-2.9844-1.0312-0.86719 0-1.7812 0.15234-2.75 0.45312-0.96094 0.30469-1.9844 0.76172-3.0781 1.375v-2.7969c1.1133-0.44531 2.1562-0.78125 3.125-1 0.96875-0.22656 1.8516-0.34375 2.6562-0.34375 2.1133 0 3.8008 0.53125 5.0625 1.5938 1.2578 1.0547 1.8906 2.4648 1.8906 4.2344 0 0.83594-0.16406 1.6328-0.48438 2.3906-0.3125 0.75-0.88281 1.6367-1.7031 2.6562-0.23047 0.26172-0.96094 1.0273-2.1875 2.2969-1.2188 1.2617-2.9453 3.0273-5.1719 5.2969z"/>
</symbol>
<symbol id="u" overflow="visible">
<path d="m11.375-11.016c1.3203 0.28125 2.3516 0.87109 3.0938 1.7656 0.75 0.89844 1.125 2 1.125 3.3125 0 2.0117-0.69922 3.5703-2.0938 4.6719-1.3867 1.1055-3.3555 1.6562-5.9062 1.6562-0.85547 0-1.7344-0.085937-2.6406-0.25-0.90625-0.16406-1.8438-0.41406-2.8125-0.75v-2.6719c0.75781 0.44922 1.5938 0.78906 2.5 1.0156 0.91406 0.21875 1.875 0.32812 2.875 0.32812 1.7266 0 3.0469-0.33594 3.9531-1.0156 0.91406-0.6875 1.375-1.6797 1.375-2.9844 0-1.207-0.42188-2.1484-1.2656-2.8281-0.84375-0.67578-2.0234-1.0156-3.5312-1.0156h-2.375v-2.2812h2.4844c1.3633 0 2.4062-0.26953 3.125-0.8125 0.71875-0.53906 1.0781-1.3203 1.0781-2.3438 0-1.0508-0.375-1.8594-1.125-2.4219-0.74219-0.5625-1.8047-0.84375-3.1875-0.84375-0.76172 0-1.5742 0.085937-2.4375 0.25-0.86719 0.16797-1.8203 0.42188-2.8594 0.76562v-2.4531c1.0508-0.28906 2.0352-0.50781 2.9531-0.65625 0.91406-0.14453 1.7812-0.21875 2.5938-0.21875 2.0938 0 3.75 0.48047 4.9688 1.4375 1.2266 0.94922 1.8438 2.2344 1.8438 3.8594 0 1.125-0.32422 2.0781-0.96875 2.8594-0.64844 0.78125-1.5703 1.3242-2.7656 1.625z"/>
</symbol>
<symbol id="d" overflow="visible">
<path d="m10.594-18.031-6.9844 10.906h6.9844zm-0.71875-2.4062h3.4688v13.312h2.9219v2.3125h-2.9219v4.8125h-2.75v-4.8125h-9.2188v-2.6719z"/>
</symbol>
<symbol id="t" overflow="visible">
<path d="m3.0312-20.438h10.844v2.3281h-8.3125v5.0156c0.39453-0.13281 0.78906-0.23828 1.1875-0.3125 0.40625-0.070312 0.8125-0.10938 1.2188-0.10938 2.2812 0 4.0859 0.625 5.4219 1.875 1.332 1.25 2 2.9453 2 5.0781 0 2.2109-0.6875 3.9219-2.0625 5.1406-1.3672 1.2109-3.293 1.8125-5.7812 1.8125-0.86719 0-1.7422-0.074219-2.625-0.21875-0.88672-0.14844-1.8086-0.36328-2.7656-0.65625v-2.7656c0.82031 0.4375 1.6719 0.76562 2.5469 0.98438s1.8008 0.32812 2.7812 0.32812c1.582 0 2.832-0.41016 3.75-1.2344 0.92578-0.83203 1.3906-1.9609 1.3906-3.3906 0-1.4141-0.46484-2.5391-1.3906-3.375-0.91797-0.83203-2.168-1.25-3.75-1.25-0.74219 0-1.4805 0.085938-2.2188 0.25-0.73047 0.16797-1.4766 0.42188-2.2344 0.76562z"/>
</symbol>
<symbol id="h" overflow="visible">
<path d="m9.25-11.312c-1.2422 0-2.2266 0.42188-2.9531 1.2656-0.71875 0.84375-1.0781 2.0078-1.0781 3.4844 0 1.4688 0.35938 2.6328 1.0781 3.4844 0.72656 0.85547 1.7109 1.2812 2.9531 1.2812 1.2383 0 2.2227-0.42578 2.9531-1.2812 0.72656-0.85156 1.0938-2.0156 1.0938-3.4844 0-1.4766-0.36719-2.6406-1.0938-3.4844-0.73047-0.84375-1.7148-1.2656-2.9531-1.2656zm5.4844-8.6719v2.5156c-0.6875-0.32031-1.3867-0.57031-2.0938-0.75-0.71094-0.17578-1.4062-0.26562-2.0938-0.26562-1.8359 0-3.2344 0.62109-4.2031 1.8594-0.96094 1.2305-1.5078 3.0898-1.6406 5.5781 0.53906-0.78906 1.2188-1.3984 2.0312-1.8281 0.8125-0.42578 1.707-0.64062 2.6875-0.64062 2.0508 0 3.6719 0.625 4.8594 1.875s1.7812 2.9453 1.7812 5.0781c0 2.1055-0.62109 3.793-1.8594 5.0625-1.2422 1.2617-2.8906 1.8906-4.9531 1.8906-2.3672 0-4.1719-0.89844-5.4219-2.7031-1.25-1.8125-1.875-4.4414-1.875-7.8906 0-3.2266 0.76562-5.8008 2.2969-7.7188 1.5391-1.9141 3.5977-2.875 6.1719-2.875 0.69531 0 1.3984 0.070313 2.1094 0.20312 0.70703 0.13672 1.4414 0.33984 2.2031 0.60938z"/>
</symbol>
<symbol id="s" overflow="visible">
<path d="m2.2969-20.438h13.141v1.1875l-7.4219 19.25h-2.8906l6.9844-18.109h-9.8125z"/>
</symbol>
<symbol id="r" overflow="visible">
<path d="m8.9062-9.7031c-1.3125 0-2.3438 0.35547-3.0938 1.0625-0.75 0.69922-1.125 1.6641-1.125 2.8906 0 1.2305 0.375 2.1992 1.125 2.9062 0.75 0.69922 1.7812 1.0469 3.0938 1.0469s2.3477-0.35156 3.1094-1.0625c0.75781-0.70703 1.1406-1.6719 1.1406-2.8906 0-1.2266-0.38281-2.1914-1.1406-2.8906-0.75-0.70703-1.7891-1.0625-3.1094-1.0625zm-2.7656-1.1719c-1.1875-0.28906-2.1172-0.84375-2.7812-1.6562-0.65625-0.8125-0.98438-1.8008-0.98438-2.9688 0-1.6328 0.58203-2.9258 1.75-3.875 1.1641-0.94531 2.7578-1.4219 4.7812-1.4219 2.0391 0 3.6406 0.47656 4.7969 1.4219 1.1562 0.94922 1.7344 2.2422 1.7344 3.875 0 1.168-0.33594 2.1562-1 2.9688-0.65625 0.8125-1.5742 1.3672-2.75 1.6562 1.332 0.30469 2.3672 0.90625 3.1094 1.8125 0.75 0.90625 1.125 2.0117 1.125 3.3125 0 1.9805-0.60547 3.5-1.8125 4.5625-1.2109 1.0547-2.9453 1.5781-5.2031 1.5781-2.25 0-3.9805-0.52344-5.1875-1.5781-1.2109-1.0625-1.8125-2.582-1.8125-4.5625 0-1.3008 0.36719-2.4062 1.1094-3.3125 0.75-0.90625 1.7891-1.5078 3.125-1.8125zm-1.0156-4.375c0 1.0625 0.33203 1.8906 1 2.4844 0.66406 0.59375 1.5938 0.89062 2.7812 0.89062s2.1133-0.29688 2.7812-0.89062c0.67578-0.59375 1.0156-1.4219 1.0156-2.4844 0-1.0508-0.33984-1.875-1.0156-2.4688-0.66797-0.59375-1.5938-0.89062-2.7812-0.89062s-2.1172 0.29688-2.7812 0.89062c-0.66797 0.59375-1 1.418-1 2.4688z"/>
</symbol>
<symbol id="x" overflow="visible">
<path d="m8.5781-13.562c-1.3438 0-2.4141 0.52734-3.2031 1.5781-0.78125 1.0547-1.1719 2.4961-1.1719 4.3281 0 1.8359 0.39062 3.2812 1.1719 4.3438 0.78125 1.0547 1.8477 1.5781 3.2031 1.5781 1.3438 0 2.4062-0.52344 3.1875-1.5781 0.78906-1.0625 1.1875-2.5078 1.1875-4.3438 0-1.8125-0.39844-3.25-1.1875-4.3125-0.78125-1.0625-1.8438-1.5938-3.1875-1.5938zm0-2.1406c2.1875 0 3.9062 0.71484 5.1562 2.1406 1.25 1.4297 1.875 3.3984 1.875 5.9062 0 2.5117-0.625 4.4805-1.875 5.9062-1.25 1.4297-2.9688 2.1406-5.1562 2.1406-2.1992 0-3.9219-0.71094-5.1719-2.1406-1.2422-1.4258-1.8594-3.3945-1.8594-5.9062 0-2.5078 0.61719-4.4766 1.8594-5.9062 1.25-1.4258 2.9727-2.1406 5.1719-2.1406z"/>
</symbol>
<symbol id="w" overflow="visible">
<path d="m14.578-12.391c0.625-1.125 1.375-1.957 2.25-2.5 0.88281-0.53906 1.9141-0.8125 3.0938-0.8125 1.6016 0 2.8359 0.5625 3.7031 1.6875 0.86328 1.1172 1.2969 2.7031 1.2969 4.7656v9.25h-2.5312v-9.1719c0-1.4688-0.26172-2.5547-0.78125-3.2656-0.52344-0.71875-1.3125-1.0781-2.375-1.0781-1.3125 0-2.3516 0.4375-3.1094 1.3125-0.75 0.86719-1.125 2.0469-1.125 3.5469v8.6562h-2.5312v-9.1719c0-1.4766-0.26172-2.5703-0.78125-3.2812-0.52344-0.70703-1.3242-1.0625-2.4062-1.0625-1.293 0-2.3203 0.4375-3.0781 1.3125-0.75 0.875-1.125 2.0586-1.125 3.5469v8.6562h-2.5312v-15.328h2.5312v2.375c0.57031-0.9375 1.2578-1.6289 2.0625-2.0781 0.80078-0.44531 1.7539-0.67188 2.8594-0.67188 1.1133 0 2.0625 0.28906 2.8438 0.85938 0.78125 0.5625 1.3594 1.3828 1.7344 2.4531z"/>
</symbol>
<symbol id="v" overflow="visible">
<path d="m2.375-6.0469v-9.2812h2.5312v9.1875c0 1.4492 0.28125 2.5391 0.84375 3.2656 0.5625 0.71875 1.4102 1.0781 2.5469 1.0781 1.3516 0 2.4258-0.42969 3.2188-1.2969 0.78906-0.86328 1.1875-2.0469 1.1875-3.5469v-8.6875h2.5156v15.328h-2.5156v-2.3594c-0.61719 0.9375-1.3281 1.6328-2.1406 2.0781-0.80469 0.44531-1.7344 0.67188-2.7969 0.67188-1.7617 0-3.1016-0.54688-4.0156-1.6406-0.91797-1.0938-1.375-2.6914-1.375-4.7969z"/>
</symbol>
</defs>
<g>
<use x="250.015625" y="750.357029" xlink:href="#au"/>
<use x="281.557789" y="750.357029" xlink:href="#ar"/>
<use x="295.576529" y="750.357029" xlink:href="#aq"/>
<use x="313.099953" y="750.357029" xlink:href="#q"/>
<use x="337.632748" y="750.357029" xlink:href="#p"/>
<use x="355.156172" y="750.357029" xlink:href="#o"/>
<use x="369.174912" y="750.357029" xlink:href="#ap"/>
<use x="383.193651" y="750.357029" xlink:href="#n"/>
<use x="411.231131" y="750.357029" xlink:href="#o"/>
<use x="425.24987" y="750.357029" xlink:href="#ao"/>
<use x="439.26861" y="750.357029" xlink:href="#at"/>
<use x="463.801404" y="750.357029" xlink:href="#as"/>
<use x="491.838884" y="750.357029" xlink:href="#p"/>
<use x="509.362308" y="750.357029" xlink:href="#q"/>
<use x="533.895103" y="750.357029" xlink:href="#n"/>
</g>
<g>
<use x="45.833617" y="642.871094" xlink:href="#an"/>
<use x="45.833617" y="614.839267" xlink:href="#g"/>
<use x="45.833617" y="597.319376" xlink:href="#af"/>
<use x="45.833617" y="579.799484" xlink:href="#l"/>
<use x="45.833617" y="569.287549" xlink:href="#f"/>
<use x="45.833617" y="541.255723" xlink:href="#g"/>
<use x="45.833617" y="523.735831" xlink:href="#k"/>
<use x="45.833617" y="513.223896" xlink:href="#j"/>
<use x="45.833617" y="495.704004" xlink:href="#i"/>
<use x="45.833617" y="481.688091" xlink:href="#ae"/>
<use x="45.833617" y="471.176156" xlink:href="#am"/>
<use x="45.833617" y="450.152286" xlink:href="#m"/>
<use x="45.833617" y="432.632395" xlink:href="#m"/>
<use x="45.833617" y="415.112503" xlink:href="#c"/>
<use x="45.833617" y="397.592611" xlink:href="#f"/>
<use x="45.833617" y="369.560785" xlink:href="#f"/>
<use x="45.833617" y="341.528958" xlink:href="#c"/>
<use x="45.833617" y="324.009067" xlink:href="#al"/>
<use x="45.833617" y="302.985197" xlink:href="#g"/>
<use x="45.833617" y="285.465305" xlink:href="#ak"/>
<use x="45.833617" y="271.449392" xlink:href="#l"/>
<use x="45.833617" y="260.937457" xlink:href="#c"/>
<use x="45.833617" y="243.417565" xlink:href="#aj"/>
<use x="45.833617" y="222.393696" xlink:href="#ai"/>
<use x="45.833617" y="204.873804" xlink:href="#j"/>
<use x="45.833617" y="187.353912" xlink:href="#i"/>
<use x="45.833617" y="173.337999" xlink:href="#ah"/>
<use x="45.833617" y="162.826064" xlink:href="#c"/>
<use x="45.833617" y="145.306173" xlink:href="#k"/>
<use x="45.833617" y="134.794238" xlink:href="#ag"/>
</g>
<g>
<use x="45.833617" y="113.769531" xlink:href="#ad"/>
<use x="45.833617" y="103.257596" xlink:href="#ac"/>
<use x="45.833617" y="92.745661" xlink:href="#ab"/>
<use x="45.833617" y="75.22577" xlink:href="#aa"/>
<use x="45.833617" y="57.705878" xlink:href="#z"/>
<use x="45.833617" y="47.193943" xlink:href="#y"/>
</g>
<path transform="matrix(3.5047 0 0 3.504 35.785 24.239)" d="m32.409 3.1168h174.15v173.82h-174.15z" fill="none" stroke="#000" stroke-width="1.5"/>
<path transform="matrix(3.5047 0 0 3.504 35.785 24.239)" d="m32.409 3.1168v180.67" fill="none" stroke="#000" stroke-width=".75"/>
<path transform="matrix(3.5047 0 0 3.504 35.785 24.239)" d="m206.56 3.1168v180.67" fill="none" stroke="#000" stroke-width=".75"/>
<path transform="matrix(3.5047 0 0 3.504 35.785 24.239)" d="m206.56 176.94h-180.67" fill="none" stroke="#000" stroke-width=".75"/>
<path transform="matrix(3.5047 0 0 3.504 35.785 24.239)" d="m206.56 3.1168h-180.67" fill="none" stroke="#000" stroke-width=".75"/>
<path transform="matrix(3.5047 0 0 3.504 35.785 24.239)" d="m206.56 27.948h-180.67" fill="none" stroke="#000" stroke-width=".75"/>
<path transform="matrix(3.5047 0 0 3.504 35.785 24.239)" d="m206.56 52.78h-180.67" fill="none" stroke="#000" stroke-width=".75"/>
<path transform="matrix(3.5047 0 0 3.504 35.785 24.239)" d="m206.56 77.612h-180.67" fill="none" stroke="#000" stroke-width=".75"/>
<path transform="matrix(3.5047 0 0 3.504 35.785 24.239)" d="m206.56 102.44h-180.67" fill="none" stroke="#000" stroke-width=".75"/>
<path transform="matrix(3.5047 0 0 3.504 35.785 24.239)" d="m206.56 127.28h-180.67" fill="none" stroke="#000" stroke-width=".75"/>
<path transform="matrix(3.5047 0 0 3.504 35.785 24.239)" d="m206.56 152.11h-180.67" fill="none" stroke="#000" stroke-width=".75"/>
<path transform="matrix(3.5047 0 0 3.504 35.785 24.239)" d="m57.287 3.1168v180.67" fill="none" stroke="#000" stroke-width=".75"/>
<path transform="matrix(3.5047 0 0 3.504 35.785 24.239)" d="m82.166 3.1168v180.67" fill="none" stroke="#000" stroke-width=".75"/>
<path transform="matrix(3.5047 0 0 3.504 35.785 24.239)" d="m107.04 3.1168v180.67" fill="none" stroke="#000" stroke-width=".75"/>
<path transform="matrix(3.5047 0 0 3.504 35.785 24.239)" d="m131.92 3.1168v180.67" fill="none" stroke="#000" stroke-width=".75"/>
<path transform="matrix(3.5047 0 0 3.504 35.785 24.239)" d="m156.8 3.1168v180.67" fill="none" stroke="#000" stroke-width=".75"/>
<path transform="matrix(3.5047 0 0 3.504 35.785 24.239)" d="m181.68 3.1168v180.67" fill="none" stroke="#000" stroke-width=".75"/>
<g>
<use x="218.425781" y="698.04712" xlink:href="#b"/>
<use x="235.949206" y="698.04712" xlink:href="#a"/>
</g>
<g>
<use x="306.132812" y="698.04712" xlink:href="#e"/>
<use x="323.656237" y="698.04712" xlink:href="#a"/>
</g>
<g>
<use x="393.28125" y="698.04712" xlink:href="#u"/>
<use x="410.804675" y="698.04712" xlink:href="#a"/>
</g>
<g>
<use x="480.855469" y="698.04712" xlink:href="#d"/>
<use x="498.378893" y="698.04712" xlink:href="#a"/>
</g>
<g>
<use x="567.652344" y="698.04712" xlink:href="#t"/>
<use x="585.175768" y="698.04712" xlink:href="#a"/>
</g>
<g>
<use x="654.945312" y="698.04712" xlink:href="#h"/>
<use x="672.468737" y="698.04712" xlink:href="#a"/>
</g>
<g>
<use x="741.96875" y="698.04712" xlink:href="#s"/>
<use x="759.492175" y="698.04712" xlink:href="#a"/>
</g>
<g>
<use x="100.488281" y="567.426026" xlink:href="#e"/>
</g>
<g>
<use x="99.257812" y="480.414308" xlink:href="#d"/>
</g>
<g>
<use x="99.449219" y="393.402589" xlink:href="#h"/>
</g>
<g>
<use x="99.597656" y="306.394776" xlink:href="#r"/>
</g>
<g>
<use x="81.863281" y="219.383058" xlink:href="#b"/>
<use x="99.386706" y="219.383058" xlink:href="#a"/>
</g>
<g>
<use x="82.808594" y="132.375245" xlink:href="#b"/>
<use x="100.332018" y="132.375245" xlink:href="#e"/>
</g>
<g>
<use x="81.574219" y="45.363526" xlink:href="#b"/>
<use x="99.097643" y="45.363526" xlink:href="#d"/>
</g>
<g>
<use x="186.902344" y="58.414308" xlink:href="#x"/>
</g>
<g>
<use x="181.570312" y="118.543214" xlink:href="#w"/>
</g>
<g>
<use x="186.992188" y="177.402589" xlink:href="#v"/>
</g>
<path transform="matrix(3.5047 0 0 3.504 35.785 24.239)" d="m52.838 3.1168c34.255 28.904 93.85 76.796 101.88 124.16 2.8288 16.683 14.701 22.822 26.962 24.832l24.879 4.078" fill="none" stroke="#000"/>
<path transform="matrix(3.5047 0 0 3.504 35.785 24.239)" d="m52.652 24.808c62.966 50.611 83.539 68.989 92.169 109.2 2.7775 12.941 22.895 22.559 36.86 25.172l24.879 4.6543" fill="none" stroke="#000"/>
<path transform="matrix(3.5047 0 0 3.504 35.785 24.239)" d="m52.435 43.34c38.967 30.672 63.998 47.286 82.2 98.96 6.644 18.861 28.936 22.536 47.045 22.299 11.158-0.14492 25.245 3.4191 24.879 3.4971" fill="none" stroke="#000"/>
</svg>
