<?xml version="1.0" encoding="UTF-8"?>
<svg width="800px" height="601px" version="1.1" viewBox="0 0 800 601" xmlns="http://www.w3.org/2000/svg" xmlns:xlink="http://www.w3.org/1999/xlink">
<defs>
<symbol id="q" overflow="visible">
<path d="m12.438-4.6562c-0.28125-0.32031-0.63672-0.85156-1.0625-1.5938-0.60547 1.0625-1.168 1.8281-1.6875 2.2969-0.65625 0.57422-1.4961 0.85938-2.5156 0.85938-1.1992 0-2.1953-0.44531-2.9844-1.3438-0.83594-0.94531-1.25-2.1953-1.25-3.75 0-1.4883 0.41406-2.7422 1.25-3.7656 0.75-0.89453 1.7539-1.3438 3.0156-1.3438 0.64453 0 1.207 0.13672 1.6875 0.40625 0.5625 0.29297 1.0312 0.6875 1.4062 1.1875 0.36328 0.46094 0.72266 0.99609 1.0781 1.6094 0.59375-1.0703 1.1484-1.8438 1.6719-2.3125 0.65625-0.5625 1.4922-0.84375 2.5156-0.84375 1.1953 0 2.1914 0.44922 2.9844 1.3438 0.84375 0.9375 1.2656 2.1875 1.2656 3.75 0 1.4922-0.42188 2.7422-1.2656 3.75-0.74219 0.90625-1.7422 1.3594-3 1.3594-0.65625 0-1.2266-0.13281-1.7031-0.40625-0.48047-0.23828-0.94922-0.64062-1.4062-1.2031zm-5.4062-0.1875c1.457 0 2.6289-1.0664 3.5156-3.2031-1.1367-2.3203-2.3086-3.4844-3.5156-3.4844-0.89844 0-1.5703 0.32031-2.0156 0.95312-0.49219 0.6875-0.73438 1.4844-0.73438 2.3906 0 1 0.24219 1.8047 0.73438 2.4062 0.5 0.625 1.1719 0.9375 2.0156 0.9375zm8.6875-6.6719c-1.3242 0-2.4961 1.0703-3.5156 3.2031 1.1133 2.3359 2.2852 3.5 3.5156 3.5 0.88281 0 1.5547-0.32031 2.0156-0.96875 0.47656-0.67578 0.71875-1.4688 0.71875-2.375 0-1-0.24219-1.8047-0.71875-2.4219-0.5-0.625-1.1719-0.9375-2.0156-0.9375z"/>
</symbol>
<symbol id="p" overflow="visible">
<path d="m21.531-9.1562v1.1875l-5.2344 5.25-1.5938-1.6094 3.1094-3.0938h-16.25v-2.2812h16.25l-3.1094-3.0938 1.5938-1.6094z"/>
</symbol>
<symbol id="o" overflow="visible">
<path d="m2.2344-19.906h12.797v1.1406l-7.2188 18.766h-2.8125l6.7969-17.641h-9.5625z"/>
</symbol>
<symbol id="d" overflow="visible">
<path d="m2.9531-19.906h10.562v2.2656h-8.1094v4.875c0.39453-0.13281 0.78516-0.23438 1.1719-0.29688 0.39453-0.0625 0.78516-0.09375 1.1719-0.09375 2.2266 0 3.9883 0.60938 5.2812 1.8281 1.3008 1.2109 1.9531 2.8555 1.9531 4.9375 0 2.1484-0.66797 3.8125-2 5-1.3359 1.1875-3.2148 1.7812-5.6406 1.7812-0.83594 0-1.6875-0.074219-2.5625-0.21875-0.86719-0.14844-1.7578-0.35938-2.6719-0.64062v-2.7031c0.80078 0.4375 1.625 0.76562 2.4688 0.98438 0.85156 0.21094 1.7578 0.3125 2.7188 0.3125 1.5312 0 2.7422-0.40625 3.6406-1.2188 0.89453-0.8125 1.3438-1.9102 1.3438-3.2969 0-1.3828-0.44922-2.4766-1.3438-3.2812-0.89844-0.8125-2.1094-1.2188-3.6406-1.2188-0.71875 0-1.4375 0.078125-2.1562 0.23438s-1.4492 0.40625-2.1875 0.75z"/>
</symbol>
<symbol id="n" overflow="visible">
<path d="m13.312-14.359v2.2969c-0.6875-0.38281-1.3828-0.67188-2.0781-0.85938-0.69922-0.19531-1.4062-0.29688-2.125-0.29688-1.5859 0-2.8203 0.50781-3.7031 1.5156-0.875 1.0117-1.3125 2.4297-1.3125 4.25 0 1.8242 0.4375 3.2422 1.3125 4.25 0.88281 1.0117 2.1172 1.5156 3.7031 1.5156 0.71875 0 1.4258-0.09375 2.125-0.28125 0.69531-0.19531 1.3906-0.48828 2.0781-0.875v2.2656c-0.6875 0.32422-1.3984 0.5625-2.125 0.71875-0.73047 0.16406-1.5117 0.25-2.3438 0.25-2.2422 0-4.0273-0.70703-5.3594-2.125-1.3242-1.4141-1.9844-3.3203-1.9844-5.7188 0-2.4375 0.66406-4.3516 2-5.75 1.3438-1.3945 3.1797-2.0938 5.5156-2.0938 0.75 0 1.4844 0.078125 2.2031 0.23438s1.4141 0.39062 2.0938 0.70312z"/>
</symbol>
<symbol id="m" overflow="visible">
<path d="m14.188-12.062c0.61328-1.1016 1.3477-1.9141 2.2031-2.4375 0.85156-0.53125 1.8594-0.79688 3.0156-0.79688 1.5508 0 2.75 0.54688 3.5938 1.6406 0.84375 1.0859 1.2656 2.6328 1.2656 4.6406v9.0156h-2.4531v-8.9375c0-1.4258-0.25781-2.4844-0.76562-3.1719-0.51172-0.69531-1.2812-1.0469-2.3125-1.0469-1.2734 0-2.2773 0.42188-3.0156 1.2656-0.74219 0.84375-1.1094 1.9961-1.1094 3.4531v8.4375h-2.4688v-8.9375c0-1.4375-0.25781-2.5-0.76562-3.1875-0.5-0.6875-1.2812-1.0312-2.3438-1.0312-1.25 0-2.2461 0.42969-2.9844 1.2812-0.74219 0.84375-1.1094 1.9922-1.1094 3.4375v8.4375h-2.4531v-14.938h2.4531v2.3281c0.5625-0.91406 1.2344-1.5938 2.0156-2.0312s1.7109-0.65625 2.7969-0.65625c1.082 0 2.0039 0.27734 2.7656 0.82812 0.75781 0.55469 1.3164 1.3555 1.6719 2.4062z"/>
</symbol>
<symbol id="ak" overflow="visible">
<path d="m10.312-17.562-6.7969 10.625h6.7969zm-0.70312-2.3438h3.3906v12.969h2.8281v2.25h-2.8281v4.6875h-2.6875v-4.6875h-8.9844v-2.6094z"/>
</symbol>
<symbol id="a" overflow="visible">
<path d="m8.6719-18.141c-1.3867 0-2.4297 0.68359-3.125 2.0469-0.69922 1.3672-1.0469 3.418-1.0469 6.1562 0 2.7305 0.34766 4.7773 1.0469 6.1406 0.69531 1.3672 1.7383 2.0469 3.125 2.0469 1.3945 0 2.4414-0.67969 3.1406-2.0469 0.69531-1.3633 1.0469-3.4102 1.0469-6.1406 0-2.7383-0.35156-4.7891-1.0469-6.1562-0.69922-1.3633-1.7461-2.0469-3.1406-2.0469zm0-2.125c2.2266 0 3.9297 0.88672 5.1094 2.6562 1.1758 1.7617 1.7656 4.3203 1.7656 7.6719 0 3.3555-0.58984 5.918-1.7656 7.6875-1.1797 1.7617-2.8828 2.6406-5.1094 2.6406-2.2305 0-3.9336-0.87891-5.1094-2.6406-1.1797-1.7695-1.7656-4.332-1.7656-7.6875 0-3.3516 0.58594-5.9102 1.7656-7.6719 1.1758-1.7695 2.8789-2.6562 5.1094-2.6562z"/>
</symbol>
<symbol id="aj" overflow="visible">
<path d="m9.0156-11.031c-1.2109 0-2.168 0.41797-2.875 1.25-0.71094 0.82422-1.0625 1.9531-1.0625 3.3906s0.35156 2.5742 1.0625 3.4062c0.70703 0.82422 1.6641 1.2344 2.875 1.2344 1.207 0 2.1602-0.41016 2.8594-1.2344 0.70703-0.83203 1.0625-1.9688 1.0625-3.4062s-0.35547-2.5664-1.0625-3.3906c-0.69922-0.83203-1.6523-1.25-2.8594-1.25zm5.3438-8.4375v2.4531c-0.67969-0.32031-1.3594-0.56641-2.0469-0.73438-0.6875-0.16406-1.3711-0.25-2.0469-0.25-1.7812 0-3.1406 0.60156-4.0781 1.7969-0.9375 1.1992-1.4766 3.0117-1.6094 5.4375 0.53125-0.76953 1.1914-1.3594 1.9844-1.7656 0.78906-0.41406 1.6602-0.625 2.6094-0.625 2 0 3.5781 0.60938 4.7344 1.8281 1.1562 1.2109 1.7344 2.8555 1.7344 4.9375 0 2.043-0.60547 3.6836-1.8125 4.9219-1.2109 1.2422-2.8125 1.8594-4.8125 1.8594-2.3047 0-4.0625-0.87891-5.2812-2.6406-1.2188-1.7695-1.8281-4.332-1.8281-7.6875 0-3.1445 0.74219-5.6484 2.2344-7.5156 1.5-1.875 3.5039-2.8125 6.0156-2.8125 0.67578 0 1.3594 0.070313 2.0469 0.20312 0.6875 0.125 1.4062 0.32422 2.1562 0.59375z"/>
</symbol>
<symbol id="b" overflow="visible">
<path d="m3.2031-3.3906h2.8125v2.2969l-2.1875 4.2656h-1.7188l1.0938-4.2656z"/>
</symbol>
<symbol id="ao" overflow="visible">
<path d="m3.3906-2.2656h4.3906v-15.188l-4.7812 0.95312v-2.4531l4.75-0.95312h2.7031v17.641h4.3906v2.2656h-11.453z"/>
</symbol>
<symbol id="an" overflow="visible">
<path d="m11.078-10.734c1.2891 0.27344 2.2969 0.84375 3.0156 1.7188 0.72656 0.875 1.0938 1.9531 1.0938 3.2344 0 1.9609-0.67969 3.4805-2.0312 4.5625-1.3555 1.0742-3.2773 1.6094-5.7656 1.6094-0.83594 0-1.6953-0.085937-2.5781-0.25-0.88672-0.16406-1.7969-0.41016-2.7344-0.73438v-2.6094c0.75 0.4375 1.5664 0.77344 2.4531 1 0.88281 0.21875 1.8125 0.32812 2.7812 0.32812 1.6875 0 2.9727-0.33203 3.8594-1 0.88281-0.66406 1.3281-1.6328 1.3281-2.9062 0-1.1758-0.41406-2.0938-1.2344-2.75-0.82422-0.66406-1.9648-1-3.4219-1h-2.3281v-2.2188h2.4219c1.332 0 2.3477-0.26562 3.0469-0.79688 0.69531-0.53125 1.0469-1.2891 1.0469-2.2812 0-1.0195-0.36719-1.8008-1.0938-2.3438-0.71875-0.55078-1.75-0.82812-3.0938-0.82812-0.74219 0-1.5312 0.078125-2.375 0.23438s-1.7773 0.40625-2.7969 0.75v-2.4062c1.0312-0.28125 1.9883-0.48828 2.875-0.625 0.89453-0.14453 1.7383-0.21875 2.5312-0.21875 2.0391 0 3.6562 0.46484 4.8438 1.3906 1.1953 0.92969 1.7969 2.1836 1.7969 3.7656 0 1.1055-0.32031 2.0391-0.95312 2.7969-0.625 0.76172-1.5234 1.2891-2.6875 1.5781z"/>
</symbol>
<symbol id="am" overflow="visible">
<path d="m3-0.40625v-2.4688c0.67578 0.32422 1.3594 0.57422 2.0469 0.75 0.69531 0.16797 1.3789 0.25 2.0469 0.25 1.7695 0 3.125-0.59766 4.0625-1.7969 0.9375-1.1953 1.4727-3.0156 1.6094-5.4531-0.51172 0.77344-1.1641 1.3594-1.9531 1.7656-0.79297 0.40625-1.668 0.60938-2.625 0.60938-1.9922 0-3.5703-0.59766-4.7344-1.7969-1.1562-1.207-1.7344-2.8594-1.7344-4.9531 0-2.0391 0.60156-3.6758 1.8125-4.9062 1.207-1.2383 2.8164-1.8594 4.8281-1.8594 2.3008 0 4.0547 0.88672 5.2656 2.6562 1.2188 1.7617 1.8281 4.3203 1.8281 7.6719 0 3.1367-0.74609 5.6406-2.2344 7.5156-1.4922 1.875-3.4961 2.8125-6.0156 2.8125-0.66797 0-1.3516-0.070313-2.0469-0.20312-0.6875-0.13672-1.4062-0.33203-2.1562-0.59375zm5.3594-8.4531c1.207 0 2.1602-0.41016 2.8594-1.2344 0.70703-0.82031 1.0625-1.957 1.0625-3.4062 0-1.4258-0.35547-2.5547-1.0625-3.3906-0.69922-0.83203-1.6523-1.25-2.8594-1.25-1.2109 0-2.168 0.41797-2.875 1.25-0.71094 0.83594-1.0625 1.9648-1.0625 3.3906 0 1.4492 0.35156 2.5859 1.0625 3.4062 0.70703 0.82422 1.6641 1.2344 2.875 1.2344z"/>
</symbol>
<symbol id="al" overflow="visible">
<path d="m5.2344-2.2656h9.4062v2.2656h-12.641v-2.2656c1.0195-1.0625 2.4102-2.4844 4.1719-4.2656 1.7695-1.7812 2.8789-2.9258 3.3281-3.4375 0.86328-0.96875 1.4688-1.7852 1.8125-2.4531 0.34375-0.67578 0.51562-1.3438 0.51562-2 0-1.0508-0.375-1.9102-1.125-2.5781-0.74219-0.66406-1.7031-1-2.8906-1-0.84375 0-1.7344 0.14844-2.6719 0.4375-0.9375 0.29297-1.9453 0.73438-3.0156 1.3281v-2.7188c1.0938-0.4375 2.1094-0.76562 3.0469-0.98438s1.7969-0.32812 2.5781-0.32812c2.0625 0 3.707 0.51562 4.9375 1.5469 1.2266 1.0312 1.8438 2.4062 1.8438 4.125 0 0.82422-0.15625 1.6055-0.46875 2.3438-0.30469 0.73047-0.85938 1.5898-1.6719 2.5781-0.21875 0.26172-0.92969 1.0078-2.125 2.2344-1.1875 1.2305-2.8672 2.9531-5.0312 5.1719z"/>
</symbol>
<symbol id="ai" overflow="visible">
<path d="m20.062-4.9844h-11.047l-1.7344 4.9844h-7.0938l10.141-27.391h8.4062l10.141 27.391h-7.0938zm-9.2812-5.0781h7.5l-3.75-10.906z"/>
</symbol>
<symbol id="af" overflow="visible">
<path d="m3.1562-28.531h6.5625v28.531h-6.5625z"/>
</symbol>
<symbol id="ae" overflow="visible">
<path d="m10.328-26.375v5.8281h6.7656v4.7031h-6.7656v8.7031c0 0.96094 0.1875 1.6055 0.5625 1.9375 0.375 0.33594 1.125 0.5 2.25 0.5h3.375v4.7031h-5.625c-2.5938 0-4.4336-0.53906-5.5156-1.625-1.0742-1.082-1.6094-2.9219-1.6094-5.5156v-8.7031h-3.2656v-4.7031h3.2656v-5.8281z"/>
</symbol>
<symbol id="l" overflow="visible">
<path d="m23.656-10.328v1.875h-15.344c0.15625 1.543 0.70703 2.6992 1.6562 3.4688 0.95703 0.77344 2.2891 1.1562 4 1.1562 1.3828 0 2.8008-0.20312 4.25-0.60938 1.4453-0.41406 2.9297-1.0391 4.4531-1.875v5.0625c-1.5547 0.59375-3.1055 1.0391-4.6562 1.3281-1.5547 0.30078-3.1055 0.45312-4.6562 0.45312-3.7109 0-6.5938-0.94141-8.6562-2.8281-2.0625-1.8945-3.0938-4.5469-3.0938-7.9531 0-3.3516 1.0078-5.9883 3.0312-7.9062 2.0312-1.9141 4.8164-2.875 8.3594-2.875 3.2266 0 5.8125 0.97656 7.75 2.9219 1.9375 1.9375 2.9062 4.5312 2.9062 7.7812zm-6.75-2.1875c0-1.2383-0.36719-2.2383-1.0938-3-0.73047-0.76953-1.6797-1.1562-2.8438-1.1562-1.2734 0-2.3086 0.35938-3.1094 1.0781-0.79297 0.71094-1.2891 1.7344-1.4844 3.0781z"/>
</symbol>
<symbol id="k" overflow="visible">
<path d="m18.406-14.953c-0.57422-0.25781-1.1484-0.45312-1.7188-0.57812-0.5625-0.13281-1.1328-0.20312-1.7031-0.20312-1.6875 0-2.9922 0.54297-3.9062 1.625-0.90625 1.0859-1.3594 2.6328-1.3594 4.6406v9.4688h-6.5625v-20.547h6.5625v3.375c0.84375-1.3438 1.8125-2.3203 2.9062-2.9375 1.0938-0.61328 2.4062-0.92188 3.9375-0.92188 0.21875 0 0.45312 0.011719 0.70312 0.03125 0.25781 0.011719 0.63281 0.046875 1.125 0.10938z"/>
</symbol>
<symbol id="j" overflow="visible"></symbol>
<symbol id="ad" overflow="visible">
<path d="m3.1562-20.547h6.5625v20.547h-6.5625zm0-7.9844h6.5625v5.3438h-6.5625z"/>
</symbol>
<symbol id="i" overflow="visible">
<path d="m23.797-12.516v12.516h-6.5938v-9.5781c0-1.7695-0.042969-2.9883-0.125-3.6562-0.085937-0.67578-0.21875-1.1758-0.40625-1.5-0.26172-0.42578-0.61719-0.75391-1.0625-0.98438-0.4375-0.23828-0.9375-0.35938-1.5-0.35938-1.3672 0-2.4375 0.53125-3.2188 1.5938-0.78125 1.0547-1.1719 2.5117-1.1719 4.375v10.109h-6.5625v-20.547h6.5625v3.0156c0.98828-1.1953 2.0352-2.0781 3.1406-2.6406 1.1133-0.57031 2.3477-0.85938 3.7031-0.85938 2.3633 0 4.1602 0.73047 5.3906 2.1875 1.2266 1.4492 1.8438 3.5586 1.8438 6.3281z"/>
</symbol>
<symbol id="ac" overflow="visible">
<path d="m3.4531-27.391h7.0469v24.734c0 3.4062-0.92969 5.9531-2.7812 7.6406-1.8438 1.6875-4.6406 2.5312-8.3906 2.5312h-1.4375v-5.3281h1.0938c1.4688 0 2.5781-0.41406 3.3281-1.2344 0.75781-0.82422 1.1406-2.0234 1.1406-3.6094z"/>
</symbol>
<symbol id="ah" overflow="visible">
<path d="m12.359-9.25c-1.375 0-2.4062 0.23438-3.0938 0.70312s-1.0312 1.1523-1.0312 2.0469c0 0.83594 0.27344 1.4922 0.82812 1.9688 0.5625 0.46875 1.3359 0.70312 2.3281 0.70312 1.2266 0 2.2656-0.44141 3.1094-1.3281 0.84375-0.89453 1.2656-2.0039 1.2656-3.3281v-0.76562zm10.031-2.4688v11.719h-6.625v-3.0469c-0.875 1.25-1.8672 2.1641-2.9688 2.7344-1.1055 0.5625-2.4453 0.84375-4.0156 0.84375-2.125 0-3.8555-0.61719-5.1875-1.8594-1.3242-1.2383-1.9844-2.8477-1.9844-4.8281 0-2.4141 0.82812-4.1875 2.4844-5.3125s4.2539-1.6875 7.7969-1.6875h3.875v-0.51562c0-1.0312-0.41406-1.7852-1.2344-2.2656-0.8125-0.48828-2.0898-0.73438-3.8281-0.73438-1.4062 0-2.7148 0.14062-3.9219 0.42188-1.2109 0.28125-2.3359 0.70312-3.375 1.2656v-5c1.4062-0.34375 2.8164-0.60156 4.2344-0.78125 1.4141-0.17578 2.832-0.26562 4.25-0.26562 3.707 0 6.3828 0.73047 8.0312 2.1875 1.6445 1.4609 2.4688 3.8359 2.4688 7.125z"/>
</symbol>
<symbol id="ag" overflow="visible">
<path d="m23.797-12.516v12.516h-6.5938v-9.5312c0-1.8008-0.042969-3.0352-0.125-3.7031-0.085937-0.67578-0.21875-1.1758-0.40625-1.5-0.26172-0.42578-0.61719-0.75391-1.0625-0.98438-0.4375-0.23828-0.9375-0.35938-1.5-0.35938-1.3672 0-2.4375 0.53125-3.2188 1.5938-0.78125 1.0547-1.1719 2.5117-1.1719 4.375v10.109h-6.5625v-28.531h6.5625v11c0.98828-1.1953 2.0352-2.0781 3.1406-2.6406 1.1133-0.57031 2.3477-0.85938 3.7031-0.85938 2.3633 0 4.1602 0.73047 5.3906 2.1875 1.2266 1.4492 1.8438 3.5586 1.8438 6.3281z"/>
</symbol>
<symbol id="ab" overflow="visible">
<path d="m-3.625-14.594v8.0312l3.625 1.2656v5.1562l-19.906-7.375v-6.1094l19.906-7.375v5.1562zm-3.6875 6.75v-5.4531l-7.9219 2.7188z"/>
</symbol>
<symbol id="h" overflow="visible">
<path d="m-20.734-2.2969v-4.7656h11.281l-5.4688-5.5v-5.5469l6.8438 7.2969 8.0781-7.875v5.7969l-6.2188 5.8281h6.2188v4.7656z"/>
</symbol>
<symbol id="c" overflow="visible">
<path d="m-11.875-9.4062c0 1.0625 0.38281 1.875 1.1406 2.4375 0.76172 0.55469 1.8555 0.82812 3.2812 0.82812 1.4297 0 2.5234-0.27344 3.2812-0.82812 0.76172-0.5625 1.1406-1.375 1.1406-2.4375 0-1.0391-0.37891-1.832-1.1406-2.375-0.75781-0.55078-1.8516-0.82812-3.2812-0.82812-1.4258 0-2.5195 0.27734-3.2812 0.82812-0.75781 0.54297-1.1406 1.3359-1.1406 2.375zm-3.4062 0c0-2.5625 0.69531-4.5664 2.0781-6.0156 1.3867-1.4453 3.3047-2.1719 5.75-2.1719 2.4609 0 4.3828 0.72656 5.7656 2.1719 1.3867 1.4492 2.0781 3.4531 2.0781 6.0156 0 2.5859-0.69141 4.6055-2.0781 6.0625-1.3828 1.4492-3.3047 2.1719-5.7656 2.1719-2.4453 0-4.3633-0.72266-5.75-2.1719-1.3828-1.457-2.0781-3.4766-2.0781-6.0625z"/>
</symbol>
<symbol id="g" overflow="visible">
<path d="m-12.453-16.141c-0.91406-0.60156-1.6133-1.3164-2.0938-2.1406-0.48828-0.83203-0.73438-1.75-0.73438-2.75 0-1.7188 0.53125-3.0234 1.5938-3.9219 1.0547-0.89453 2.5859-1.3438 4.5938-1.3438h9.0938v4.7969h-7.7812c-0.11328-0.007812-0.23438-0.015625-0.35938-0.015625-0.125-0.007813-0.30078-0.015625-0.53125-0.015625-1.0625 0-1.8281 0.15625-2.2969 0.46875-0.47656 0.3125-0.71875 0.82031-0.71875 1.5156 0 0.90625 0.375 1.6094 1.125 2.1094 0.74219 0.49219 1.8203 0.74219 3.2344 0.75h7.3281v4.8125h-7.7812c-1.6562 0-2.7188 0.14062-3.1875 0.42188-0.47656 0.28125-0.71875 0.78906-0.71875 1.5156 0 0.91797 0.375 1.625 1.125 2.125s1.8242 0.75 3.2188 0.75h7.3438v4.7969h-14.922v-4.7969h2.1875c-0.85156-0.59375-1.4883-1.2695-1.9062-2.0312-0.42578-0.75781-0.64062-1.5977-0.64062-2.5156 0-1.0312 0.25-1.9375 0.75-2.7188 0.49219-0.78906 1.1836-1.3945 2.0781-1.8125z"/>
</symbol>
<symbol id="x" overflow="visible">
<path d="m-12.734-12.453h-8v-4.7969h20.734v4.7969h-2.1562c0.875 0.65625 1.5234 1.3828 1.9375 2.1719 0.40625 0.79297 0.60938 1.7109 0.60938 2.75 0 1.8359-0.72656 3.3438-2.1875 4.5312-1.4688 1.1797-3.3516 1.7656-5.6562 1.7656-2.3008 0-4.1797-0.58594-5.6406-1.7656-1.457-1.1875-2.1875-2.6953-2.1875-4.5312 0-1.0312 0.21094-1.9414 0.625-2.7344 0.40625-0.80078 1.0469-1.5312 1.9219-2.1875zm9.6562 3.1406c0-1.0195-0.36719-1.7969-1.1094-2.3281-0.75-0.53906-1.8359-0.8125-3.2656-0.8125-1.4141 0-2.5 0.27344-3.25 0.8125-0.75 0.53125-1.125 1.3086-1.125 2.3281 0 1.0234 0.375 1.8047 1.125 2.3438 0.75 0.53125 1.8359 0.79688 3.25 0.79688 1.4297 0 2.5156-0.26562 3.2656-0.79688 0.74219-0.53906 1.1094-1.3203 1.1094-2.3438z"/>
</symbol>
<symbol id="w" overflow="visible">
<path d="m-6.7188-8.9844c0 0.99219 0.17188 1.7422 0.51562 2.25 0.33594 0.5 0.82812 0.75 1.4844 0.75 0.60547 0 1.0781-0.20312 1.4219-0.60938s0.51562-0.96875 0.51562-1.6875c0-0.89453-0.32031-1.6484-0.96875-2.2656-0.64453-0.61328-1.4531-0.92188-2.4219-0.92188h-0.54688zm-1.7969-7.2969h8.5156v4.8125h-2.2188c0.90625 0.63672 1.5703 1.3555 1.9844 2.1562 0.41406 0.80469 0.625 1.7773 0.625 2.9219 0 1.5547-0.44531 2.8125-1.3438 3.7812-0.90625 0.96094-2.082 1.4375-3.5312 1.4375-1.75 0-3.0312-0.59766-3.8438-1.7969-0.82031-1.207-1.2344-3.1016-1.2344-5.6875v-2.8125h-0.375c-0.75 0-1.2969 0.29688-1.6406 0.89062-0.35156 0.59375-0.53125 1.5273-0.53125 2.7969 0 1.0234 0.10547 1.9766 0.3125 2.8594 0.19922 0.875 0.5 1.6875 0.90625 2.4375h-3.6406c-0.25-1.0195-0.4375-2.0469-0.5625-3.0781s-0.1875-2.0625-0.1875-3.0938c0-2.6953 0.53125-4.6406 1.5938-5.8281 1.0547-1.1953 2.7773-1.7969 5.1719-1.7969z"/>
</symbol>
<symbol id="f" overflow="visible">
<path d="m-19.172-7.5156h4.25v-4.9062h3.4062v4.9062h6.3281c0.69922 0 1.1719-0.13281 1.4219-0.40625 0.24219-0.26953 0.35938-0.81641 0.35938-1.6406v-2.4531h3.4062v4.0938c0 1.8867-0.39062 3.2266-1.1719 4.0156-0.78906 0.78125-2.1289 1.1719-4.0156 1.1719h-6.3281v2.375h-3.4062v-2.375h-4.25z"/>
</symbol>
<symbol id="e" overflow="visible">
<path d="m-14.922-2.2969v-4.7656h14.922v4.7656zm-5.8125 0v-4.7656h3.8906v4.7656z"/>
</symbol>
<symbol id="v" overflow="visible">
<path d="m-9.0938-17.312h9.0938v4.7969h-6.9531c-1.2891 0-2.1797 0.03125-2.6719 0.09375-0.48828 0.054687-0.84766 0.15234-1.0781 0.29688-0.3125 0.1875-0.55078 0.44531-0.71875 0.76562-0.17578 0.32422-0.26562 0.6875-0.26562 1.0938 0 0.99219 0.38672 1.7734 1.1562 2.3438 0.76172 0.57422 1.8242 0.85938 3.1875 0.85938h7.3438v4.7656h-14.922v-4.7656h2.1875c-0.875-0.71875-1.5156-1.4844-1.9219-2.2969-0.41406-0.8125-0.625-1.707-0.625-2.6875 0-1.7188 0.53125-3.0234 1.5938-3.9219 1.0547-0.89453 2.5859-1.3438 4.5938-1.3438z"/>
</symbol>
<symbol id="aa" overflow="visible">
<path d="m-14.469-13.969h3.625c-0.41406 1.0312-0.72656 2.0234-0.9375 2.9688-0.21875 0.94922-0.32812 1.8438-0.32812 2.6875 0 0.90625 0.11719 1.5859 0.34375 2.0312 0.21875 0.4375 0.5625 0.65625 1.0312 0.65625 0.38672 0 0.68359-0.16406 0.89062-0.5 0.19922-0.33203 0.35156-0.92969 0.45312-1.7969l0.10938-0.84375c0.3125-2.4375 0.82812-4.0781 1.5469-4.9219 0.71094-0.85156 1.8242-1.2812 3.3438-1.2812 1.5859 0 2.7773 0.58984 3.5781 1.7656 0.80469 1.1797 1.2031 2.9297 1.2031 5.25 0 0.99219-0.078125 2.0117-0.23438 3.0625-0.15625 1.0547-0.39062 2.1367-0.70312 3.25h-3.625c0.46094-0.94531 0.80859-1.9219 1.0469-2.9219 0.23047-1 0.34375-2.0156 0.34375-3.0469 0-0.9375-0.12891-1.6406-0.39062-2.1094-0.25781-0.46875-0.64062-0.70312-1.1406-0.70312-0.42578 0-0.74219 0.16406-0.95312 0.48438-0.20703 0.32422-0.375 0.96875-0.5 1.9375l-0.09375 0.84375c-0.26953 2.125-0.76562 3.6172-1.4844 4.4688-0.71875 0.85547-1.8125 1.2812-3.2812 1.2812-1.582 0-2.7539-0.53906-3.5156-1.625-0.75781-1.0938-1.1406-2.7578-1.1406-5 0-0.875 0.070312-1.7969 0.20312-2.7656 0.125-0.96875 0.32812-2.0234 0.60938-3.1719z"/>
</symbol>
<symbol id="z" overflow="visible">
<path d="m-14.922-1.5625v-13.031h3.3281l8.1875 7.875v-7.875h3.4062v13.359h-3.3281l-8.1875-7.8594v7.5312z"/>
</symbol>
<symbol id="y" overflow="visible">
<path d="m-7.5-17.203h1.3594v11.156c1.1172-0.11328 1.9531-0.51562 2.5156-1.2031 0.5625-0.69531 0.84375-1.6641 0.84375-2.9062 0-1.0078-0.14453-2.0391-0.4375-3.0938-0.30078-1.0508-0.75391-2.1328-1.3594-3.25h3.6719c0.42969 1.1367 0.75 2.2656 0.96875 3.3906s0.32812 2.2578 0.32812 3.3906c0 2.6992-0.6875 4.7969-2.0625 6.2969s-3.3008 2.25-5.7812 2.25c-2.4375 0-4.3477-0.73438-5.7344-2.2031-1.3945-1.4766-2.0938-3.5039-2.0938-6.0781 0-2.3438 0.71094-4.2188 2.125-5.625 1.4062-1.4141 3.293-2.125 5.6562-2.125zm-1.5938 4.9062c-0.90625 0-1.6328 0.26562-2.1875 0.79688-0.55078 0.53125-0.82812 1.2266-0.82812 2.0781 0 0.91797 0.26172 1.668 0.78125 2.25 0.51172 0.57422 1.2578 0.93359 2.2344 1.0781z"/>
</symbol>
<symbol id="u" overflow="visible"></symbol>
<symbol id="t" overflow="visible">
<path d="m-20.734-2.3438v-5.6562h1.9062v3.2031h20.516v-3.2031h1.9062v5.6562z"/>
</symbol>
<symbol id="s" overflow="visible">
<path d="m-14.484-12.094h2.3125c-0.35156 0.6875-0.61719 1.4062-0.79688 2.1562-0.17578 0.75-0.26562 1.5273-0.26562 2.3281 0 1.2188 0.1875 2.1367 0.5625 2.75 0.375 0.60547 0.93359 0.90625 1.6719 0.90625 0.57422 0 1.0234-0.21875 1.3438-0.65625 0.32422-0.4375 0.63281-1.3125 0.92188-2.625l0.1875-0.84375c0.375-1.75 0.90625-2.9883 1.5938-3.7188 0.67969-0.72656 1.6211-1.0938 2.8281-1.0938 1.3867 0 2.4844 0.54688 3.2969 1.6406s1.2188 2.6055 1.2188 4.5312c0 0.80469-0.078125 1.6367-0.23438 2.5-0.15625 0.86719-0.39062 1.7773-0.70312 2.7344h-2.5312c0.46875-0.90625 0.82422-1.7969 1.0625-2.6719 0.23047-0.88281 0.34375-1.7578 0.34375-2.625 0-1.1562-0.19531-2.0391-0.59375-2.6562-0.39453-0.625-0.95312-0.9375-1.6719-0.9375-0.66406 0-1.1758 0.22656-1.5312 0.67188-0.35156 0.44922-0.69141 1.4336-1.0156 2.9531l-0.20312 0.85938c-0.32031 1.5234-0.8125 2.6211-1.4688 3.2969-0.66406 0.66797-1.5781 1-2.7344 1-1.4062 0-2.4883-0.49219-3.25-1.4844-0.75781-1-1.1406-2.4141-1.1406-4.25 0-0.90625 0.070312-1.7539 0.20312-2.5469 0.125-0.80078 0.32422-1.5391 0.59375-2.2188z"/>
</symbol>
<symbol id="r" overflow="visible">
<path d="m-20.734-8.3125h24.328v5.6562h-1.9062v-3.1875h-20.516v3.1875h-1.9062z"/>
</symbol>
</defs>
<path transform="matrix(3.4129 0 0 3.4147 45.927 25.375)" d="m32.634 0.31915h180.54v130.06h-180.54z" fill="none" stroke="#000" stroke-width="1.5"/>
<path transform="matrix(3.4129 0 0 3.4147 45.927 25.375)" d="m213.17 130.38h-187.39" fill="none" stroke="#000" stroke-width=".75"/>
<path transform="matrix(3.4129 0 0 3.4147 45.927 25.375)" d="m32.634 0.31915v136.93" fill="none" stroke="#000" stroke-width=".75"/>
<path transform="matrix(3.4129 0 0 3.4147 45.927 25.375)" d="m84.216 0.31915v28.342m0 9.1574v99.429" fill="none" stroke="#000" stroke-width=".5"/>
<path transform="matrix(3.4129 0 0 3.4147 45.927 25.375)" d="m135.8 0.31915v136.93" fill="none" stroke="#000" stroke-width=".5"/>
<path transform="matrix(3.4129 0 0 3.4147 45.927 25.375)" d="m187.38 0.31915v67.115m0 9.003v60.81" fill="none" stroke="#000" stroke-width=".5"/>
<path transform="matrix(3.4129 0 0 3.4147 45.927 25.375)" d="m213.17 117.37h-187.39" fill="none" stroke="#000" stroke-width=".5"/>
<path transform="matrix(3.4129 0 0 3.4147 45.927 25.375)" d="m213.17 91.365h-187.39" fill="none" stroke="#000" stroke-width=".5"/>
<path transform="matrix(3.4129 0 0 3.4147 45.927 25.375)" d="m213.17 65.358h-187.39" fill="none" stroke="#000" stroke-width=".5"/>
<path transform="matrix(3.4129 0 0 3.4147 45.927 25.375)" d="m213.17 39.35h-187.39" fill="none" stroke="#000" stroke-width=".5"/>
<path transform="matrix(3.4129 0 0 3.4147 45.927 25.375)" d="m213.17 13.342h-187.39" fill="none" stroke="#000" stroke-width=".5"/>
<path transform="matrix(3.4129 0 0 3.4147 45.927 25.375)" d="m213.17 104.37h-180.54" fill="none" stroke="#000" stroke-width=".5"/>
<path transform="matrix(3.4129 0 0 3.4147 45.927 25.375)" d="m213.17 78.362h-180.54" fill="none" stroke="#000" stroke-width=".5"/>
<path transform="matrix(3.4129 0 0 3.4147 45.927 25.375)" d="m213.17 52.354h-180.54" fill="none" stroke="#000" stroke-width=".5"/>
<path transform="matrix(3.4129 0 0 3.4147 45.927 25.375)" d="m58.425 0.31915v130.06" fill="none" stroke="#000" stroke-width=".5"/>
<path transform="matrix(3.4129 0 0 3.4147 45.927 25.375)" d="m110.01 0.31915v28.342m0 9.1574v92.558" fill="none" stroke="#000" stroke-width=".5"/>
<path transform="matrix(3.4129 0 0 3.4147 45.927 25.375)" d="m161.59 0.31915v67.115m0 9.003v53.939" fill="none" stroke="#000" stroke-width=".5"/>
<path transform="matrix(3.4129 0 0 3.4147 45.927 25.375)" d="m213.17 0.31915v136.93" fill="none" stroke="#000" stroke-width=".75"/>
<path transform="matrix(3.4129 0 0 3.4147 45.927 25.375)" d="m213.17 26.347h-180.54" fill="none" stroke="#000" stroke-width=".5"/>
<g>
<use x="305.457031" y="148.231496" xlink:href="#q"/>
</g>
<g>
<use x="329.347006" y="148.231496" xlink:href="#p"/>
<use x="353.236982" y="148.231496" xlink:href="#o"/>
<use x="370.301249" y="148.231496" xlink:href="#d"/>
<use x="387.365517" y="148.231496" xlink:href="#n"/>
<use x="401.016932" y="148.231496" xlink:href="#m"/>
</g>
<g>
<use x="492.261719" y="519.950246" xlink:href="#ak"/>
<use x="509.325987" y="519.950246" xlink:href="#a"/>
</g>
<g>
<use x="668.019531" y="519.950246" xlink:href="#aj"/>
<use x="685.083799" y="519.950246" xlink:href="#a"/>
</g>
<g>
<use x="80.085938" y="436.106496" xlink:href="#a"/>
<use x="97.150205" y="436.106496" xlink:href="#b"/>
<use x="107.388766" y="436.106496" xlink:href="#ao"/>
</g>
<g>
<use x="79.753906" y="347.301808" xlink:href="#a"/>
<use x="96.818174" y="347.301808" xlink:href="#b"/>
<use x="107.056735" y="347.301808" xlink:href="#an"/>
</g>
<g>
<use x="79.953125" y="258.493214" xlink:href="#a"/>
<use x="97.017393" y="258.493214" xlink:href="#b"/>
<use x="107.255954" y="258.493214" xlink:href="#d"/>
</g>
<g>
<use x="79.898438" y="169.684621" xlink:href="#a"/>
<use x="96.962705" y="169.684621" xlink:href="#b"/>
<use x="107.201266" y="169.684621" xlink:href="#o"/>
</g>
<g>
<use x="79.484375" y="80.879933" xlink:href="#a"/>
<use x="96.548643" y="80.879933" xlink:href="#b"/>
<use x="106.787204" y="80.879933" xlink:href="#am"/>
</g>
<g>
<use x="561.421875" y="281.403371" xlink:href="#q"/>
</g>
<g>
<use x="585.31185" y="281.403371" xlink:href="#p"/>
<use x="609.201825" y="281.403371" xlink:href="#d"/>
<use x="626.266093" y="281.403371" xlink:href="#a"/>
<use x="643.330361" y="281.403371" xlink:href="#n"/>
<use x="656.981776" y="281.403371" xlink:href="#m"/>
</g>
<g>
<use x="315.882812" y="519.950246" xlink:href="#al"/>
<use x="332.94708" y="519.950246" xlink:href="#a"/>
</g>
<g>
<use x="313.601563" y="569.577786" xlink:href="#ai"/>
<use x="344.317245" y="569.577786" xlink:href="#af"/>
<use x="357.968659" y="569.577786" xlink:href="#ae"/>
<use x="375.032927" y="569.577786" xlink:href="#l"/>
<use x="398.922902" y="569.577786" xlink:href="#k"/>
<use x="415.98717" y="569.577786" xlink:href="#j"/>
<use x="429.638585" y="569.577786" xlink:href="#ad"/>
<use x="443.289999" y="569.577786" xlink:href="#i"/>
<use x="470.592828" y="569.577786" xlink:href="#j"/>
<use x="484.244242" y="569.577786" xlink:href="#ac"/>
<use x="497.895656" y="569.577786" xlink:href="#ah"/>
<use x="521.785632" y="569.577786" xlink:href="#ag"/>
<use x="549.08846" y="569.577786" xlink:href="#k"/>
<use x="566.152728" y="569.577786" xlink:href="#l"/>
<use x="590.042703" y="569.577786" xlink:href="#i"/>
</g>
<g>
<use x="44.725917" y="428.386719" xlink:href="#ab"/>
<use x="44.725917" y="407.898777" xlink:href="#h"/>
<use x="44.725917" y="390.825492" xlink:href="#h"/>
<use x="44.725917" y="373.752207" xlink:href="#c"/>
<use x="44.725917" y="356.678922" xlink:href="#g"/>
<use x="44.725917" y="329.361666" xlink:href="#g"/>
<use x="44.725917" y="302.044411" xlink:href="#c"/>
<use x="44.725917" y="284.971126" xlink:href="#x"/>
<use x="44.725917" y="264.483184" xlink:href="#w"/>
<use x="44.725917" y="247.409899" xlink:href="#f"/>
<use x="44.725917" y="233.751271" xlink:href="#e"/>
<use x="44.725917" y="223.5073" xlink:href="#c"/>
<use x="44.725917" y="206.434015" xlink:href="#v"/>
<use x="44.725917" y="185.946074" xlink:href="#aa"/>
<use x="44.725917" y="168.872789" xlink:href="#z"/>
<use x="44.725917" y="151.799504" xlink:href="#y"/>
<use x="44.725917" y="134.726219" xlink:href="#e"/>
<use x="44.725917" y="124.482248" xlink:href="#f"/>
</g>
<g>
<use x="44.725917" y="110.820313" xlink:href="#u"/>
<use x="44.725917" y="100.576342" xlink:href="#t"/>
<use x="44.725917" y="90.332371" xlink:href="#s"/>
<use x="44.725917" y="76.673743" xlink:href="#r"/>
</g>
<path transform="matrix(3.4129 0 0 3.4147 45.927 25.375)" d="m71.212 92.421c31.923-17.372 60.385-38.878 74.364-77.683" fill="none" stroke="#000" stroke-width="1.25"/>
<path transform="matrix(3.4129 0 0 3.4147 45.927 25.375)" d="m72.961 98.626c27.9-13.497 54.928-25.906 95.509-55.197" fill="none" stroke="#000" stroke-width="1.25"/>
</svg>
