<?xml version="1.0" encoding="UTF-8"?>
<svg width="600px" height="451px" version="1.1" viewBox="0 0 600 451" xmlns="http://www.w3.org/2000/svg" xmlns:xlink="http://www.w3.org/1999/xlink">
<defs>
<symbol id="q" overflow="visible">
<path d="m9.3281-3.5c-0.21094-0.23828-0.47656-0.63281-0.79688-1.1875-0.44922 0.79297-0.87109 1.3672-1.2656 1.7188-0.49219 0.42969-1.1211 0.64062-1.8906 0.64062-0.89844 0-1.6406-0.33203-2.2344-1-0.625-0.70703-0.9375-1.6445-0.9375-2.8125 0-1.125 0.3125-2.0664 0.9375-2.8281 0.5625-0.67578 1.3164-1.0156 2.2656-1.0156 0.47656 0 0.89844 0.10547 1.2656 0.3125 0.41406 0.21875 0.76953 0.51562 1.0625 0.89062 0.25781 0.34375 0.52344 0.74609 0.79688 1.2031 0.44531-0.80078 0.86719-1.3789 1.2656-1.7344 0.48828-0.42578 1.1172-0.64062 1.8906-0.64062 0.89453 0 1.6406 0.33984 2.2344 1.0156 0.625 0.71094 0.9375 1.6484 0.9375 2.8125 0 1.125-0.3125 2.0703-0.9375 2.8281-0.5625 0.66797-1.3203 1-2.2656 1-0.48047 0-0.90234-0.097656-1.2656-0.29688-0.35547-0.17578-0.71094-0.47656-1.0625-0.90625zm-4.0625-0.14062c1.1016 0 1.9844-0.79688 2.6406-2.3906-0.84375-1.75-1.7266-2.625-2.6406-2.625-0.66797 0-1.168 0.24219-1.5 0.71875-0.375 0.51172-0.5625 1.1094-0.5625 1.7969 0 0.74219 0.1875 1.3438 0.5625 1.8125 0.375 0.46094 0.875 0.6875 1.5 0.6875zm6.5312-5c-1 0-1.8828 0.80469-2.6406 2.4062 0.83203 1.75 1.7109 2.625 2.6406 2.625 0.66406 0 1.1641-0.23828 1.5-0.71875 0.375-0.51953 0.5625-1.1172 0.5625-1.7969 0-0.75-0.1875-1.3516-0.5625-1.8125-0.36719-0.46875-0.86719-0.70312-1.5-0.70312z"/>
</symbol>
<symbol id="p" overflow="visible">
<path d="m16.156-6.875v0.90625l-3.9219 3.9219-1.2031-1.2031 2.3281-2.3281h-12.188v-1.7031h12.188l-2.3281-2.3281 1.2031-1.2031z"/>
</symbol>
<symbol id="o" overflow="visible">
<path d="m1.6875-14.938h9.5938v0.85938l-5.4219 14.078h-2.1094l5.1094-13.25h-7.1719z"/>
</symbol>
<symbol id="d" overflow="visible">
<path d="m2.2031-14.938h7.9375v1.6875h-6.0781v3.6719c0.28906-0.10156 0.58203-0.17578 0.875-0.21875 0.28906-0.050781 0.58594-0.078125 0.89062-0.078125 1.6641 0 2.9844 0.46094 3.9531 1.375 0.97656 0.90625 1.4688 2.1406 1.4688 3.7031 0 1.6172-0.50781 2.8711-1.5156 3.7656-1 0.88672-2.4062 1.3281-4.2188 1.3281-0.625 0-1.2656-0.058594-1.9219-0.17188-0.64844-0.10547-1.3203-0.25781-2.0156-0.46875v-2.0312c0.60156 0.32422 1.2227 0.57031 1.8594 0.73438 0.64453 0.15625 1.3203 0.23438 2.0312 0.23438 1.1562 0 2.0664-0.30078 2.7344-0.90625 0.67578-0.61328 1.0156-1.4414 1.0156-2.4844 0-1.0391-0.33984-1.8633-1.0156-2.4688-0.66797-0.60156-1.5781-0.90625-2.7344-0.90625-0.54297 0-1.0859 0.0625-1.625 0.1875-0.53125 0.11719-1.0781 0.29688-1.6406 0.54688z"/>
</symbol>
<symbol id="n" overflow="visible">
<path d="m9.9844-10.781v1.7188c-0.51172-0.28125-1.0312-0.49219-1.5625-0.64062-0.52344-0.14453-1.0469-0.21875-1.5781-0.21875-1.1992 0-2.125 0.38281-2.7812 1.1406-0.65625 0.76172-0.98438 1.8242-0.98438 3.1875 0 1.3672 0.32812 2.4297 0.98438 3.1875 0.65625 0.76172 1.582 1.1406 2.7812 1.1406 0.53125 0 1.0547-0.070313 1.5781-0.21875 0.53125-0.14453 1.0508-0.35938 1.5625-0.64062v1.6875c-0.51172 0.25-1.043 0.43359-1.5938 0.54688-0.54297 0.125-1.125 0.1875-1.75 0.1875-1.6875 0-3.0312-0.53125-4.0312-1.5938-0.99219-1.0625-1.4844-2.4922-1.4844-4.2969 0-1.832 0.5-3.2695 1.5-4.3125 1.0078-1.0508 2.3906-1.5781 4.1406-1.5781 0.5625 0 1.1133 0.0625 1.6562 0.1875 0.53906 0.11719 1.0625 0.28906 1.5625 0.51562z"/>
</symbol>
<symbol id="m" overflow="visible">
<path d="m10.656-9.0625c0.45703-0.82031 1.0039-1.4297 1.6406-1.8281 0.64453-0.39453 1.3984-0.59375 2.2656-0.59375 1.1641 0 2.0664 0.41406 2.7031 1.2344 0.63281 0.8125 0.95312 1.9766 0.95312 3.4844v6.7656h-1.8594v-6.7031c0-1.0703-0.19531-1.8672-0.57812-2.3906-0.375-0.51953-0.95312-0.78125-1.7344-0.78125-0.94922 0-1.6992 0.32031-2.25 0.95312-0.55469 0.625-0.82812 1.4844-0.82812 2.5781v6.3438h-1.8594v-6.7031c0-1.082-0.19531-1.8789-0.57812-2.3906-0.375-0.51953-0.96094-0.78125-1.75-0.78125-0.9375 0-1.6875 0.32031-2.25 0.95312-0.55469 0.63672-0.82812 1.4961-0.82812 2.5781v6.3438h-1.8438v-11.219h1.8438v1.75c0.42578-0.6875 0.92969-1.1914 1.5156-1.5156 0.58203-0.33203 1.2812-0.5 2.0938-0.5s1.5039 0.21094 2.0781 0.625c0.57031 0.41797 0.99219 1.0156 1.2656 1.7969z"/>
</symbol>
<symbol id="ak" overflow="visible">
<path d="m7.7344-13.188-5.0938 7.9844h5.0938zm-0.51562-1.75h2.5312v9.7344h2.125v1.6719h-2.125v3.5312h-2.0156v-3.5312h-6.7344v-1.9375z"/>
</symbol>
<symbol id="a" overflow="visible">
<path d="m6.5156-13.609c-1.043 0-1.8281 0.51172-2.3594 1.5312-0.52344 1.0234-0.78125 2.5625-0.78125 4.625 0 2.043 0.25781 3.5781 0.78125 4.6094 0.53125 1.0234 1.3164 1.5312 2.3594 1.5312 1.0391 0 1.8203-0.50781 2.3438-1.5312 0.53125-1.0312 0.79688-2.5664 0.79688-4.6094 0-2.0625-0.26562-3.6016-0.79688-4.625-0.52344-1.0195-1.3047-1.5312-2.3438-1.5312zm0-1.6094c1.6641 0 2.9414 0.66797 3.8281 2 0.88281 1.3242 1.3281 3.2461 1.3281 5.7656 0 2.5117-0.44531 4.4336-1.3281 5.7656-0.88672 1.3242-2.1641 1.9844-3.8281 1.9844-1.6797 0-2.9609-0.66016-3.8438-1.9844-0.88672-1.332-1.3281-3.2539-1.3281-5.7656 0-2.5195 0.44141-4.4414 1.3281-5.7656 0.88281-1.332 2.1641-2 3.8438-2z"/>
</symbol>
<symbol id="aj" overflow="visible">
<path d="m6.7656-8.2812c-0.90625 0-1.625 0.3125-2.1562 0.9375-0.53125 0.61719-0.79688 1.4648-0.79688 2.5469 0 1.0742 0.26562 1.9219 0.79688 2.5469s1.25 0.9375 2.1562 0.9375 1.625-0.3125 2.1562-0.9375 0.79688-1.4727 0.79688-2.5469c0-1.082-0.26562-1.9297-0.79688-2.5469-0.53125-0.625-1.25-0.9375-2.1562-0.9375zm4-6.3281v1.8438c-0.5-0.25-1.0117-0.4375-1.5312-0.5625-0.51172-0.125-1.0234-0.1875-1.5312-0.1875-1.3359 0-2.3555 0.45312-3.0625 1.3594-0.69922 0.89844-1.1016 2.2578-1.2031 4.0781 0.39453-0.58203 0.89062-1.0234 1.4844-1.3281 0.59375-0.3125 1.2422-0.46875 1.9531-0.46875 1.5 0 2.6875 0.46094 3.5625 1.375 0.875 0.90625 1.3125 2.1406 1.3125 3.7031 0 1.5312-0.46094 2.7656-1.375 3.7031-0.90625 0.92969-2.1094 1.3906-3.6094 1.3906-1.7305 0-3.0547-0.66016-3.9688-1.9844-0.90625-1.332-1.3594-3.2539-1.3594-5.7656 0-2.3633 0.55469-4.25 1.6719-5.6562 1.125-1.4062 2.6289-2.1094 4.5156-2.1094 0.5 0 1.0078 0.054688 1.5312 0.15625 0.51953 0.09375 1.0547 0.24609 1.6094 0.45312z"/>
</symbol>
<symbol id="b" overflow="visible">
<path d="m2.4062-2.5469h2.1094v1.7188l-1.6406 3.2031h-1.2969l0.82812-3.2031z"/>
</symbol>
<symbol id="ao" overflow="visible">
<path d="m2.5469-1.7031h3.2969v-11.406l-3.5938 0.73438v-1.8438l3.5781-0.71875h2.0156v13.234h3.2969v1.7031h-8.5938z"/>
</symbol>
<symbol id="an" overflow="visible">
<path d="m8.3125-8.0625c0.96875 0.21094 1.7227 0.64062 2.2656 1.2969 0.53906 0.65625 0.8125 1.4648 0.8125 2.4219 0 1.4805-0.50781 2.625-1.5156 3.4375-1.0117 0.80469-2.4531 1.2031-4.3281 1.2031-0.625 0-1.2734-0.0625-1.9375-0.1875-0.65625-0.125-1.3398-0.3125-2.0469-0.5625v-1.9531c0.5625 0.33594 1.1758 0.58594 1.8438 0.75 0.66406 0.16797 1.3594 0.25 2.0781 0.25 1.2695 0 2.2344-0.25 2.8906-0.75 0.66406-0.5 1-1.2266 1-2.1875 0-0.88281-0.30859-1.5703-0.92188-2.0625-0.61719-0.5-1.4766-0.75-2.5781-0.75h-1.7344v-1.6562h1.8281c0.98828 0 1.7422-0.19531 2.2656-0.59375 0.53125-0.40625 0.79688-0.97656 0.79688-1.7188 0-0.76953-0.27344-1.3594-0.8125-1.7656-0.54297-0.41406-1.3242-0.625-2.3438-0.625-0.55469 0-1.1484 0.0625-1.7812 0.1875-0.625 0.11719-1.3203 0.30469-2.0781 0.5625v-1.8125c0.75781-0.20703 1.4727-0.36328 2.1406-0.46875 0.67578-0.11328 1.3125-0.17188 1.9062-0.17188 1.5312 0 2.7422 0.35156 3.6406 1.0469 0.89453 0.69922 1.3438 1.6406 1.3438 2.8281 0 0.83594-0.24219 1.5391-0.71875 2.1094-0.46875 0.5625-1.1406 0.95312-2.0156 1.1719z"/>
</symbol>
<symbol id="am" overflow="visible">
<path d="m2.25-0.3125v-1.8438c0.50781 0.24219 1.0234 0.42969 1.5469 0.5625 0.51953 0.125 1.0312 0.1875 1.5312 0.1875 1.332 0 2.3477-0.44531 3.0469-1.3438 0.70703-0.90625 1.1094-2.2695 1.2031-4.0938-0.38672 0.57422-0.875 1.0156-1.4688 1.3281-0.59375 0.30469-1.25 0.45312-1.9688 0.45312-1.4922 0-2.6719-0.45312-3.5469-1.3594-0.86719-0.90625-1.2969-2.1406-1.2969-3.7031 0-1.5391 0.45312-2.7734 1.3594-3.7031 0.90625-0.92578 2.1094-1.3906 3.6094-1.3906 1.7266 0 3.0469 0.66797 3.9531 2 0.91406 1.3242 1.375 3.2461 1.375 5.7656 0 2.3555-0.5625 4.2344-1.6875 5.6406-1.1172 1.4062-2.6172 2.1094-4.5 2.1094-0.5 0-1.0117-0.054687-1.5312-0.15625-0.52344-0.10547-1.0625-0.25391-1.625-0.45312zm4.0156-6.3281c0.90625 0 1.625-0.3125 2.1562-0.9375s0.79688-1.4727 0.79688-2.5469c0-1.0703-0.26562-1.9219-0.79688-2.5469s-1.25-0.9375-2.1562-0.9375-1.625 0.3125-2.1562 0.9375c-0.52344 0.625-0.78125 1.4766-0.78125 2.5469 0 1.0742 0.25781 1.9219 0.78125 2.5469 0.53125 0.625 1.25 0.9375 2.1562 0.9375z"/>
</symbol>
<symbol id="al" overflow="visible">
<path d="m3.9375-1.7031h7.0469v1.7031h-9.4844v-1.7031c0.76953-0.78906 1.8164-1.8516 3.1406-3.1875 1.3203-1.3438 2.1484-2.207 2.4844-2.5938 0.65625-0.72656 1.1094-1.3438 1.3594-1.8438 0.25781-0.50781 0.39062-1.0078 0.39062-1.5 0-0.78906-0.28125-1.4375-0.84375-1.9375-0.55469-0.5-1.2773-0.75-2.1719-0.75-0.63672 0-1.3086 0.10938-2.0156 0.32812-0.69922 0.21875-1.4492 0.55469-2.25 1v-2.0312c0.82031-0.33203 1.582-0.58203 2.2812-0.75 0.70703-0.16406 1.3594-0.25 1.9531-0.25 1.5391 0 2.7695 0.39062 3.6875 1.1719 0.92578 0.77344 1.3906 1.8047 1.3906 3.0938 0 0.61719-0.11719 1.1992-0.34375 1.75-0.23047 0.55469-0.65234 1.2031-1.2656 1.9531-0.16797 0.1875-0.69922 0.74609-1.5938 1.6719-0.88672 0.92969-2.1406 2.2188-3.7656 3.875z"/>
</symbol>
<symbol id="ai" overflow="visible">
<path d="m15.047-3.75h-8.2812l-1.3125 3.75h-5.3125l7.5938-20.547h6.3125l7.6094 20.547h-5.3281zm-6.9688-3.8125h5.625l-2.7969-8.1719z"/>
</symbol>
<symbol id="af" overflow="visible">
<path d="m2.3594-21.422h4.9219v21.422h-4.9219z"/>
</symbol>
<symbol id="ae" overflow="visible">
<path d="m7.7344-19.797v4.375h5.0781v3.5312h-5.0781v6.5312c0 0.71875 0.14062 1.2031 0.42188 1.4531 0.28906 0.25 0.85938 0.375 1.7031 0.375h2.5312v3.5312h-4.2188c-1.9492 0-3.3281-0.40625-4.1406-1.2188s-1.2188-2.1914-1.2188-4.1406v-6.5312h-2.4375v-3.5312h2.4375v-4.375z"/>
</symbol>
<symbol id="l" overflow="visible">
<path d="m17.734-7.75v1.4062h-11.5c0.11328 1.1562 0.52344 2.0273 1.2344 2.6094 0.71875 0.57422 1.7188 0.85938 3 0.85938 1.0391 0 2.1016-0.14844 3.1875-0.45312 1.082-0.3125 2.1953-0.78125 3.3438-1.4062v3.7969c-1.1562 0.4375-2.3203 0.77344-3.4844 1-1.168 0.22656-2.3359 0.34375-3.5 0.34375-2.7812 0-4.9492-0.70703-6.5-2.125-1.543-1.4258-2.3125-3.4141-2.3125-5.9688 0-2.5195 0.75781-4.5 2.2812-5.9375 1.5195-1.4375 3.6094-2.1562 6.2656-2.1562 2.4141 0 4.3477 0.73047 5.7969 2.1875 1.457 1.4609 2.1875 3.4062 2.1875 5.8438zm-5.0625-1.6406c0-0.9375-0.27344-1.6914-0.8125-2.2656-0.54297-0.57031-1.2578-0.85938-2.1406-0.85938-0.94922 0-1.7266 0.27344-2.3281 0.8125-0.59375 0.53125-0.96484 1.3047-1.1094 2.3125z"/>
</symbol>
<symbol id="k" overflow="visible">
<path d="m13.797-11.219c-0.42969-0.19531-0.85547-0.34375-1.2812-0.4375-0.42969-0.10156-0.85547-0.15625-1.2812-0.15625-1.2734 0-2.25 0.40625-2.9375 1.2188-0.67969 0.8125-1.0156 1.9766-1.0156 3.4844v7.1094h-4.9219v-15.422h4.9219v2.5469c0.63281-1.0078 1.3633-1.7422 2.1875-2.2031 0.82031-0.46875 1.8047-0.70312 2.9531-0.70312 0.15625 0 0.32812 0.007812 0.51562 0.015625 0.19531 0.011719 0.48438 0.042969 0.85938 0.09375z"/>
</symbol>
<symbol id="j" overflow="visible"></symbol>
<symbol id="ad" overflow="visible">
<path d="m2.3594-15.422h4.9219v15.422h-4.9219zm0-6h4.9219v4.0312h-4.9219z"/>
</symbol>
<symbol id="i" overflow="visible">
<path d="m17.844-9.3906v9.3906h-4.9531v-7.1875c0-1.332-0.03125-2.25-0.09375-2.75-0.054687-0.5-0.15234-0.86719-0.29688-1.1094-0.19922-0.32031-0.46484-0.57031-0.79688-0.75-0.32422-0.1875-0.69531-0.28125-1.1094-0.28125-1.0312 0-1.8438 0.40234-2.4375 1.2031-0.58594 0.79297-0.875 1.8906-0.875 3.2969v7.5781h-4.9219v-15.422h4.9219v2.2656c0.75-0.89453 1.5391-1.5547 2.375-1.9844 0.83203-0.42578 1.7539-0.64062 2.7656-0.64062 1.7695 0 3.1133 0.54688 4.0312 1.6406 0.92578 1.0859 1.3906 2.668 1.3906 4.75z"/>
</symbol>
<symbol id="ac" overflow="visible">
<path d="m2.5781-20.547h5.2969v18.547c0 2.5625-0.69531 4.4727-2.0781 5.7344-1.3867 1.2695-3.4922 1.9062-6.3125 1.9062h-1.0625v-4h0.82812c1.0938 0 1.9219-0.30859 2.4844-0.92188 0.5625-0.61719 0.84375-1.5195 0.84375-2.7188z"/>
</symbol>
<symbol id="ah" overflow="visible">
<path d="m9.2656-6.9375c-1.0312 0-1.8086 0.17969-2.3281 0.53125-0.51172 0.34375-0.76562 0.85547-0.76562 1.5312 0 0.625 0.20703 1.1172 0.625 1.4688 0.41406 0.35547 0.99219 0.53125 1.7344 0.53125 0.92578 0 1.707-0.33203 2.3438-1 0.63281-0.66406 0.95312-1.5 0.95312-2.5v-0.5625zm7.5156-1.8594v8.7969h-4.9531v-2.2812c-0.66797 0.9375-1.4141 1.6211-2.2344 2.0469-0.82422 0.42578-1.8281 0.64062-3.0156 0.64062-1.5938 0-2.8906-0.46094-3.8906-1.3906-0.99219-0.9375-1.4844-2.1484-1.4844-3.6406 0-1.8008 0.61719-3.125 1.8594-3.9688 1.25-0.85156 3.2031-1.2812 5.8594-1.2812h2.9062v-0.375c0-0.78125-0.30859-1.3516-0.92188-1.7188-0.61719-0.36328-1.5742-0.54688-2.875-0.54688-1.0547 0-2.0391 0.10938-2.9531 0.32812-0.90625 0.21094-1.7461 0.52344-2.5156 0.9375v-3.75c1.0508-0.25781 2.1094-0.45312 3.1719-0.57812 1.0625-0.13281 2.125-0.20312 3.1875-0.20312 2.7812 0 4.7852 0.54688 6.0156 1.6406 1.2266 1.0938 1.8438 2.875 1.8438 5.3438z"/>
</symbol>
<symbol id="ag" overflow="visible">
<path d="m17.844-9.3906v9.3906h-4.9531v-7.1562c0-1.3516-0.03125-2.2812-0.09375-2.7812-0.054687-0.5-0.15234-0.86719-0.29688-1.1094-0.19922-0.32031-0.46484-0.57031-0.79688-0.75-0.32422-0.1875-0.69531-0.28125-1.1094-0.28125-1.0312 0-1.8438 0.40234-2.4375 1.2031-0.58594 0.79297-0.875 1.8906-0.875 3.2969v7.5781h-4.9219v-21.422h4.9219v8.2656c0.75-0.89453 1.5391-1.5547 2.375-1.9844 0.83203-0.42578 1.7539-0.64062 2.7656-0.64062 1.7695 0 3.1133 0.54688 4.0312 1.6406 0.92578 1.0859 1.3906 2.668 1.3906 4.75z"/>
</symbol>
<symbol id="ab" overflow="visible">
<path d="m-2.7188-10.953v6.0312l2.7188 0.95312v3.875l-14.938-5.5469v-4.5938l14.938-5.5312v3.875zm-2.7656 5.0625v-4.0938l-5.9531 2.0469z"/>
</symbol>
<symbol id="h" overflow="visible">
<path d="m-15.562-1.7188v-3.5938h8.4688l-4.1094-4.1094v-4.1719l5.1406 5.4688 6.0625-5.9062v4.3594l-4.6719 4.3594h4.6719v3.5938z"/>
</symbol>
<symbol id="c" overflow="visible">
<path d="m-8.9062-7.0625c0 0.80469 0.28906 1.4141 0.85938 1.8281 0.5625 0.41797 1.3828 0.625 2.4531 0.625 1.0742 0 1.8984-0.20703 2.4688-0.625 0.57422-0.41406 0.85938-1.0234 0.85938-1.8281 0-0.78125-0.28516-1.375-0.85938-1.7812-0.57031-0.41406-1.3945-0.625-2.4688-0.625-1.0703 0-1.8906 0.21094-2.4531 0.625-0.57031 0.40625-0.85938 1-0.85938 1.7812zm-2.5625 0c0-1.9258 0.52344-3.4297 1.5625-4.5156 1.0312-1.082 2.4688-1.625 4.3125-1.625s3.2891 0.54297 4.3281 1.625c1.043 1.0859 1.5625 2.5898 1.5625 4.5156 0 1.9375-0.51953 3.4531-1.5625 4.5469-1.0391 1.0938-2.4844 1.6406-4.3281 1.6406s-3.2812-0.54688-4.3125-1.6406c-1.0391-1.0938-1.5625-2.6094-1.5625-4.5469z"/>
</symbol>
<symbol id="g" overflow="visible">
<path d="m-9.3438-12.109c-0.6875-0.45703-1.2109-1-1.5781-1.625-0.36328-0.625-0.54688-1.3047-0.54688-2.0469 0-1.2891 0.39844-2.2695 1.1875-2.9375 0.79297-0.67578 1.9453-1.0156 3.4531-1.0156h6.8281v3.5938h-5.8438-0.26562c-0.09375-0.007813-0.22656-0.015625-0.40625-0.015625-0.78906 0-1.3633 0.12109-1.7188 0.35938-0.35156 0.23047-0.53125 0.60547-0.53125 1.125 0 0.67969 0.28125 1.2031 0.84375 1.5781 0.55469 0.36719 1.3594 0.55859 2.4219 0.57812h5.5v3.5938h-5.8438c-1.2383 0-2.0352 0.10938-2.3906 0.32812-0.35156 0.21094-0.53125 0.58984-0.53125 1.1406 0 0.6875 0.28125 1.2188 0.84375 1.5938 0.5625 0.36719 1.3672 0.54688 2.4062 0.54688h5.5156v3.6094h-11.203v-3.6094h1.6406c-0.63281-0.4375-1.1094-0.9375-1.4219-1.5-0.32031-0.57031-0.48438-1.2031-0.48438-1.8906 0-0.78125 0.1875-1.4688 0.5625-2.0625 0.36719-0.59375 0.88672-1.0391 1.5625-1.3438z"/>
</symbol>
<symbol id="x" overflow="visible">
<path d="m-9.5625-9.3438h-6v-3.6094h15.562v3.6094h-1.625c0.66797 0.49219 1.1562 1.0312 1.4688 1.625 0.30078 0.59375 0.45312 1.2812 0.45312 2.0625 0 1.3867-0.54688 2.5234-1.6406 3.4062-1.1016 0.88672-2.5195 1.3281-4.25 1.3281-1.7266 0-3.1406-0.44141-4.2344-1.3281-1.0938-0.88281-1.6406-2.0195-1.6406-3.4062 0-0.76953 0.15625-1.4531 0.46875-2.0469 0.30469-0.60156 0.78125-1.1484 1.4375-1.6406zm7.25 2.3594c0-0.76953-0.27344-1.3516-0.82812-1.75-0.5625-0.40625-1.3789-0.60938-2.4531-0.60938-1.0625 0-1.875 0.20312-2.4375 0.60938-0.5625 0.39844-0.84375 0.98047-0.84375 1.75 0 0.76172 0.28125 1.3438 0.84375 1.75 0.5625 0.39844 1.375 0.59375 2.4375 0.59375 1.0742 0 1.8906-0.19531 2.4531-0.59375 0.55469-0.40625 0.82812-0.98828 0.82812-1.75z"/>
</symbol>
<symbol id="w" overflow="visible">
<path d="m-5.0469-6.75c0 0.75 0.13281 1.3125 0.39062 1.6875 0.25 0.375 0.62109 0.5625 1.1094 0.5625 0.46094 0 0.82031-0.14844 1.0781-0.45312 0.25-0.30078 0.375-0.72266 0.375-1.2656 0-0.67578-0.23828-1.2422-0.71875-1.7031-0.48828-0.45703-1.0938-0.6875-1.8125-0.6875h-0.42188zm-1.3438-5.4688h6.3906v3.6094h-1.6562c0.67969 0.48047 1.1719 1.0234 1.4844 1.625 0.3125 0.59375 0.46875 1.3242 0.46875 2.1875 0 1.168-0.33594 2.1172-1.0156 2.8438-0.67578 0.71875-1.5547 1.0781-2.6406 1.0781-1.3125 0-2.2734-0.45312-2.8906-1.3594-0.61328-0.90625-0.92188-2.3281-0.92188-4.2656v-2.1094h-0.28125c-0.5625 0-0.97266 0.22656-1.2344 0.67188-0.26953 0.44922-0.40625 1.1484-0.40625 2.0938 0 0.77344 0.078125 1.4844 0.23438 2.1406s0.38672 1.2734 0.6875 1.8438h-2.7344c-0.1875-0.76953-0.32812-1.5391-0.42188-2.3125-0.09375-0.76953-0.14062-1.5469-0.14062-2.3281 0-2.0195 0.40234-3.4766 1.2031-4.375 0.79297-0.89453 2.0859-1.3438 3.875-1.3438z"/>
</symbol>
<symbol id="f" overflow="visible">
<path d="m-14.391-5.6406h3.1875v-3.6875h2.5625v3.6875h4.75c0.52344 0 0.875-0.097656 1.0625-0.29688 0.17969-0.20703 0.26562-0.61719 0.26562-1.2344v-1.8438h2.5625v3.0625c0 1.418-0.28906 2.4219-0.875 3.0156-0.59375 0.59375-1.5977 0.89062-3.0156 0.89062h-4.75v1.7812h-2.5625v-1.7812h-3.1875z"/>
</symbol>
<symbol id="e" overflow="visible">
<path d="m-11.203-1.7188v-3.5938h11.203v3.5938zm-4.3594 0v-3.5938h2.9219v3.5938z"/>
</symbol>
<symbol id="v" overflow="visible">
<path d="m-6.8281-13h6.8281v3.6094h-5.2188c-0.96875 0-1.6328 0.023437-2 0.0625-0.36328 0.042969-0.63281 0.12109-0.8125 0.23438-0.22656 0.13672-0.40625 0.32422-0.53125 0.5625-0.13281 0.24219-0.20312 0.51562-0.20312 0.82812 0 0.74219 0.28906 1.3242 0.85938 1.75 0.57422 0.42969 1.3711 0.64062 2.3906 0.64062h5.5156v3.5938h-11.203v-3.5938h1.6406c-0.65625-0.53125-1.1328-1.0977-1.4375-1.7031-0.3125-0.61328-0.46875-1.2852-0.46875-2.0156 0-1.3008 0.39844-2.2852 1.1875-2.9531 0.79297-0.67578 1.9453-1.0156 3.4531-1.0156z"/>
</symbol>
<symbol id="aa" overflow="visible">
<path d="m-10.859-10.484h2.7344c-0.32031 0.77344-0.5625 1.5156-0.71875 2.2344-0.16406 0.71094-0.25 1.3828-0.25 2.0156 0 0.67969 0.089844 1.1836 0.26562 1.5156 0.16797 0.33594 0.42969 0.5 0.78125 0.5 0.28125 0 0.5-0.125 0.65625-0.375s0.27344-0.70312 0.34375-1.3594l0.078125-0.625c0.24219-1.832 0.625-3.0664 1.1562-3.7031 0.53125-0.63281 1.3711-0.95312 2.5156-0.95312 1.1875 0 2.0859 0.44531 2.6875 1.3281 0.60547 0.875 0.90625 2.1875 0.90625 3.9375 0 0.74219-0.0625 1.5078-0.1875 2.2969-0.11328 0.79297-0.28516 1.6055-0.51562 2.4375h-2.7188c0.34375-0.70703 0.60547-1.4375 0.78125-2.1875 0.16797-0.75 0.25-1.5156 0.25-2.2969 0-0.69531-0.09375-1.2227-0.28125-1.5781-0.19531-0.35156-0.48438-0.53125-0.85938-0.53125-0.32031 0-0.5625 0.125-0.71875 0.375-0.15625 0.24219-0.28125 0.72656-0.375 1.4531l-0.078125 0.625c-0.19531 1.5938-0.56641 2.7148-1.1094 3.3594-0.53906 0.63672-1.3594 0.95312-2.4531 0.95312-1.1875 0-2.0664-0.40625-2.6406-1.2188-0.57031-0.8125-0.85938-2.0625-0.85938-3.75 0-0.65625 0.054688-1.3477 0.15625-2.0781 0.09375-0.72656 0.24609-1.5195 0.45312-2.375z"/>
</symbol>
<symbol id="z" overflow="visible">
<path d="m-11.203-1.1719v-9.7812h2.5l6.1406 5.9062v-5.9062h2.5625v10.031h-2.5l-6.1406-5.9062v5.6562z"/>
</symbol>
<symbol id="y" overflow="visible">
<path d="m-5.625-12.906h1.0156v8.375c0.84375-0.09375 1.4766-0.39453 1.8906-0.90625 0.41797-0.51953 0.625-1.25 0.625-2.1875 0-0.75781-0.10938-1.5312-0.32812-2.3125-0.22656-0.78906-0.56641-1.6016-1.0156-2.4375h2.75c0.32422 0.84375 0.57031 1.6953 0.73438 2.5469 0.16406 0.84375 0.25 1.6875 0.25 2.5312 0 2.0312-0.51562 3.6094-1.5469 4.7344s-2.4766 1.6875-4.3438 1.6875c-1.8203 0-3.2539-0.55078-4.2969-1.6562-1.0508-1.1016-1.5781-2.625-1.5781-4.5625 0-1.7578 0.53125-3.1641 1.5938-4.2188 1.0547-1.0625 2.4688-1.5938 4.25-1.5938zm-1.2031 3.6719c-0.67578 0-1.2227 0.20312-1.6406 0.60938-0.41406 0.39844-0.625 0.91406-0.625 1.5469 0 0.69922 0.19922 1.2656 0.59375 1.7031 0.38672 0.42969 0.94531 0.69531 1.6719 0.79688z"/>
</symbol>
<symbol id="u" overflow="visible"></symbol>
<symbol id="t" overflow="visible">
<path d="m-15.562-1.7656v-4.2344h1.4219v2.3906h15.406v-2.3906h1.4375v4.2344z"/>
</symbol>
<symbol id="s" overflow="visible">
<path d="m-10.875-9.0781h1.75c-0.26953 0.52344-0.47266 1.0625-0.60938 1.625-0.13281 0.5625-0.20312 1.1406-0.20312 1.7344 0 0.91797 0.14062 1.6055 0.42188 2.0625 0.28125 0.46094 0.70312 0.6875 1.2656 0.6875 0.42969 0 0.76562-0.16016 1.0156-0.48438 0.24219-0.33203 0.46875-0.99219 0.6875-1.9844l0.14062-0.625c0.28125-1.3125 0.67969-2.2383 1.1875-2.7812 0.5-0.55078 1.2109-0.82812 2.125-0.82812 1.043 0 1.8711 0.41406 2.4844 1.2344 0.60547 0.82422 0.90625 1.9531 0.90625 3.3906 0 0.60547-0.0625 1.2344-0.1875 1.8906-0.11328 0.64844-0.28516 1.3281-0.51562 2.0469h-1.9062c0.35547-0.67578 0.62109-1.3438 0.79688-2 0.17969-0.66406 0.26562-1.3203 0.26562-1.9688 0-0.875-0.14453-1.5391-0.4375-2-0.30078-0.46875-0.72266-0.70312-1.2656-0.70312-0.5 0-0.87891 0.16797-1.1406 0.5-0.26953 0.33594-0.53125 1.0742-0.78125 2.2188l-0.14062 0.64062c-0.23828 1.1367-0.60938 1.9609-1.1094 2.4688-0.5 0.51172-1.1797 0.76562-2.0469 0.76562-1.0508 0-1.8633-0.375-2.4375-1.125-0.57031-0.75-0.85938-1.8125-0.85938-3.1875 0-0.67578 0.054688-1.3125 0.15625-1.9062 0.09375-0.60156 0.24219-1.1602 0.4375-1.6719z"/>
</symbol>
<symbol id="r" overflow="visible">
<path d="m-15.562-6.2344h18.266v4.25h-1.4375v-2.4062h-15.406v2.4062h-1.4219z"/>
</symbol>
</defs>
<path transform="matrix(2.5596 0 0 2.5624 34.445 19.042)" d="m32.634 0.31905h180.54v130.06h-180.54z" fill="none" stroke="#000" stroke-width="1.5"/>
<path transform="matrix(2.5596 0 0 2.5624 34.445 19.042)" d="m213.17 130.38h-187.39" fill="none" stroke="#000" stroke-width=".75"/>
<path transform="matrix(2.5596 0 0 2.5624 34.445 19.042)" d="m32.634 0.31905v136.93" fill="none" stroke="#000" stroke-width=".75"/>
<path transform="matrix(2.5596 0 0 2.5624 34.445 19.042)" d="m84.216 0.31905v28.341m0 9.1588v99.429" fill="none" stroke="#000" stroke-width=".5"/>
<path transform="matrix(2.5596 0 0 2.5624 34.445 19.042)" d="m135.8 0.31905v136.93" fill="none" stroke="#000" stroke-width=".5"/>
<path transform="matrix(2.5596 0 0 2.5624 34.445 19.042)" d="m187.38 0.31905v67.117m0 9.0018v60.81" fill="none" stroke="#000" stroke-width=".5"/>
<path transform="matrix(2.5596 0 0 2.5624 34.445 19.042)" d="m213.17 117.37h-187.39" fill="none" stroke="#000" stroke-width=".5"/>
<path transform="matrix(2.5596 0 0 2.5624 34.445 19.042)" d="m213.17 91.365h-187.39" fill="none" stroke="#000" stroke-width=".5"/>
<path transform="matrix(2.5596 0 0 2.5624 34.445 19.042)" d="m213.17 65.358h-187.39" fill="none" stroke="#000" stroke-width=".5"/>
<path transform="matrix(2.5596 0 0 2.5624 34.445 19.042)" d="m213.17 39.351h-187.39" fill="none" stroke="#000" stroke-width=".5"/>
<path transform="matrix(2.5596 0 0 2.5624 34.445 19.042)" d="m213.17 13.342h-187.39" fill="none" stroke="#000" stroke-width=".5"/>
<path transform="matrix(2.5596 0 0 2.5624 34.445 19.042)" d="m213.17 104.37h-180.54" fill="none" stroke="#000" stroke-width=".5"/>
<path transform="matrix(2.5596 0 0 2.5624 34.445 19.042)" d="m213.17 78.361h-180.54" fill="none" stroke="#000" stroke-width=".5"/>
<path transform="matrix(2.5596 0 0 2.5624 34.445 19.042)" d="m213.17 52.354h-180.54" fill="none" stroke="#000" stroke-width=".5"/>
<path transform="matrix(2.5596 0 0 2.5624 34.445 19.042)" d="m58.425 0.31905v130.06" fill="none" stroke="#000" stroke-width=".5"/>
<path transform="matrix(2.5596 0 0 2.5624 34.445 19.042)" d="m110.01 0.31905v28.341m0 9.1588v92.558" fill="none" stroke="#000" stroke-width=".5"/>
<path transform="matrix(2.5596 0 0 2.5624 34.445 19.042)" d="m161.59 0.31905v67.117m0 9.0018v53.939" fill="none" stroke="#000" stroke-width=".5"/>
<path transform="matrix(2.5596 0 0 2.5624 34.445 19.042)" d="m213.17 0.31905v136.93" fill="none" stroke="#000" stroke-width=".75"/>
<path transform="matrix(2.5596 0 0 2.5624 34.445 19.042)" d="m213.17 26.346h-180.54" fill="none" stroke="#000" stroke-width=".5"/>
<g>
<use x="229.09375" y="111.234951" xlink:href="#q"/>
</g>
<g>
<use x="247.011231" y="111.234951" xlink:href="#p"/>
<use x="264.928713" y="111.234951" xlink:href="#o"/>
<use x="277.726914" y="111.234951" xlink:href="#d"/>
<use x="290.525115" y="111.234951" xlink:href="#n"/>
<use x="300.763675" y="111.234951" xlink:href="#m"/>
</g>
<g>
<use x="369.195312" y="390.176357" xlink:href="#ak"/>
<use x="381.993513" y="390.176357" xlink:href="#a"/>
</g>
<g>
<use x="501.015625" y="390.176357" xlink:href="#aj"/>
<use x="513.813826" y="390.176357" xlink:href="#a"/>
</g>
<g>
<use x="60.0625" y="327.262294" xlink:href="#a"/>
<use x="72.860701" y="327.262294" xlink:href="#b"/>
<use x="80.539622" y="327.262294" xlink:href="#ao"/>
</g>
<g>
<use x="59.8125" y="260.621669" xlink:href="#a"/>
<use x="72.610701" y="260.621669" xlink:href="#b"/>
<use x="80.289622" y="260.621669" xlink:href="#an"/>
</g>
<g>
<use x="59.964844" y="193.977138" xlink:href="#a"/>
<use x="72.763045" y="193.977138" xlink:href="#b"/>
<use x="80.441965" y="193.977138" xlink:href="#d"/>
</g>
<g>
<use x="59.925781" y="127.336513" xlink:href="#a"/>
<use x="72.723982" y="127.336513" xlink:href="#b"/>
<use x="80.402903" y="127.336513" xlink:href="#o"/>
</g>
<g>
<use x="59.613281" y="60.691982" xlink:href="#a"/>
<use x="72.411482" y="60.691982" xlink:href="#b"/>
<use x="80.090403" y="60.691982" xlink:href="#am"/>
</g>
<g>
<use x="421.066406" y="211.168544" xlink:href="#q"/>
</g>
<g>
<use x="438.983888" y="211.168544" xlink:href="#p"/>
<use x="456.901369" y="211.168544" xlink:href="#d"/>
<use x="469.69957" y="211.168544" xlink:href="#a"/>
<use x="482.497771" y="211.168544" xlink:href="#n"/>
<use x="492.736332" y="211.168544" xlink:href="#m"/>
</g>
<g>
<use x="236.910156" y="390.176357" xlink:href="#al"/>
<use x="249.708357" y="390.176357" xlink:href="#a"/>
</g>
<g>
<use x="235.199219" y="427.419951" xlink:href="#ai"/>
<use x="258.23598" y="427.419951" xlink:href="#af"/>
<use x="268.474541" y="427.419951" xlink:href="#ae"/>
<use x="281.272742" y="427.419951" xlink:href="#l"/>
<use x="299.190224" y="427.419951" xlink:href="#k"/>
<use x="311.988425" y="427.419951" xlink:href="#j"/>
<use x="322.226985" y="427.419951" xlink:href="#ad"/>
<use x="332.465546" y="427.419951" xlink:href="#i"/>
<use x="352.942668" y="427.419951" xlink:href="#j"/>
<use x="363.181228" y="427.419951" xlink:href="#ac"/>
<use x="373.419789" y="427.419951" xlink:href="#ah"/>
<use x="391.337271" y="427.419951" xlink:href="#ag"/>
<use x="411.814392" y="427.419951" xlink:href="#k"/>
<use x="424.612593" y="427.419951" xlink:href="#l"/>
<use x="442.530074" y="427.419951" xlink:href="#i"/>
</g>
<g>
<use x="33.542484" y="321.46875" xlink:href="#ab"/>
<use x="33.542484" y="306.094271" xlink:href="#h"/>
<use x="33.542484" y="293.282205" xlink:href="#h"/>
<use x="33.542484" y="280.47014" xlink:href="#c"/>
<use x="33.542484" y="267.658074" xlink:href="#g"/>
<use x="33.542484" y="247.158769" xlink:href="#g"/>
<use x="33.542484" y="226.659464" xlink:href="#c"/>
<use x="33.542484" y="213.847398" xlink:href="#x"/>
<use x="33.542484" y="198.472919" xlink:href="#w"/>
<use x="33.542484" y="185.660854" xlink:href="#f"/>
<use x="33.542484" y="175.411201" xlink:href="#e"/>
<use x="33.542484" y="167.723962" xlink:href="#c"/>
<use x="33.542484" y="154.911896" xlink:href="#v"/>
<use x="33.542484" y="139.537417" xlink:href="#aa"/>
<use x="33.542484" y="126.725352" xlink:href="#z"/>
<use x="33.542484" y="113.913286" xlink:href="#y"/>
<use x="33.542484" y="101.10122" xlink:href="#e"/>
<use x="33.542484" y="93.413981" xlink:href="#f"/>
</g>
<g>
<use x="33.542484" y="83.164062" xlink:href="#u"/>
<use x="33.542484" y="75.476823" xlink:href="#t"/>
<use x="33.542484" y="67.789584" xlink:href="#s"/>
<use x="33.542484" y="57.539931" xlink:href="#r"/>
</g>
<path transform="matrix(2.5596 0 0 2.5624 34.445 19.042)" d="m71.214 92.421c31.921-17.373 60.384-38.878 74.363-77.684" fill="none" stroke="#000" stroke-width="1.25"/>
<path transform="matrix(2.5596 0 0 2.5624 34.445 19.042)" d="m72.961 98.626c27.9-13.497 54.929-25.906 95.509-55.197" fill="none" stroke="#000" stroke-width="1.25"/>
</svg>
