<?xml version="1.0" encoding="UTF-8"?>
<svg width="800px" height="597px" version="1.1" viewBox="0 0 800 597" xmlns="http://www.w3.org/2000/svg" xmlns:xlink="http://www.w3.org/1999/xlink">
<defs>
<symbol id="av" overflow="visible">
<path d="m17.188-4.2656h-9.4531l-1.5 4.2656h-6.0781l8.6875-23.438h7.2031l8.6875 23.438h-6.0781zm-7.9531-4.3594h6.4219l-3.2031-9.3281z"/>
</symbol>
<symbol id="as" overflow="visible">
<path d="m2.7031-24.438h5.625v24.438h-5.625z"/>
</symbol>
<symbol id="ar" overflow="visible">
<path d="m8.8438-22.578v5h5.7969v4.0156h-5.7969v7.4531c0 0.8125 0.16016 1.3672 0.48438 1.6562 0.32031 0.29297 0.96875 0.4375 1.9375 0.4375h2.8906v4.0156h-4.8281c-2.2188 0-3.793-0.46094-4.7188-1.3906-0.92969-0.92578-1.3906-2.5-1.3906-4.7188v-7.4531h-2.7969v-4.0156h2.7969v-5z"/>
</symbol>
<symbol id="s" overflow="visible">
<path d="m20.266-8.8438v1.6094h-13.156c0.14453 1.3125 0.625 2.3047 1.4375 2.9688 0.8125 0.65625 1.9531 0.98438 3.4219 0.98438 1.1875 0 2.3984-0.17188 3.6406-0.51562 1.2383-0.35156 2.5156-0.89062 3.8281-1.6094v4.3438c-1.3359 0.5-2.668 0.875-4 1.125-1.3242 0.25781-2.6523 0.39062-3.9844 0.39062-3.1875 0-5.668-0.80469-7.4375-2.4219-1.7617-1.6133-2.6406-3.8828-2.6406-6.8125 0-2.8633 0.86328-5.1172 2.5938-6.7656 1.7383-1.6445 4.1289-2.4688 7.1719-2.4688 2.7578 0 4.9688 0.83594 6.625 2.5 1.6641 1.668 2.5 3.8906 2.5 6.6719zm-5.7812-1.8594c0-1.0703-0.3125-1.9297-0.9375-2.5781-0.625-0.65625-1.4375-0.98438-2.4375-0.98438-1.0938 0-1.9805 0.30859-2.6562 0.92188-0.67969 0.60547-1.1055 1.4844-1.2812 2.6406z"/>
</symbol>
<symbol id="r" overflow="visible">
<path d="m15.766-12.797c-0.49219-0.22656-0.98047-0.39453-1.4688-0.5-0.48047-0.11328-0.96875-0.17188-1.4688-0.17188-1.4375 0-2.5469 0.46484-3.3281 1.3906-0.78125 0.92969-1.1719 2.25-1.1719 3.9688v8.1094h-5.625v-17.578h5.625v2.875c0.71875-1.1445 1.5469-1.9844 2.4844-2.5156s2.0625-0.79688 3.375-0.79688c0.1875 0 0.39062 0.011719 0.60938 0.03125 0.21875 0.011719 0.53516 0.042969 0.95312 0.09375z"/>
</symbol>
<symbol id="q" overflow="visible"></symbol>
<symbol id="aq" overflow="visible">
<path d="m2.7031-17.578h5.625v17.578h-5.625zm0-6.8594h5.625v4.5938h-5.625z"/>
</symbol>
<symbol id="p" overflow="visible">
<path d="m20.391-10.703v10.703h-5.6562v-8.2031c0-1.5078-0.039063-2.5508-0.10938-3.125-0.0625-0.58203-0.17969-1.0078-0.34375-1.2812-0.21875-0.36328-0.52344-0.64453-0.90625-0.84375-0.375-0.20703-0.80469-0.3125-1.2812-0.3125-1.168 0-2.0898 0.45312-2.7656 1.3594-0.66797 0.90625-1 2.1562-1 3.75v8.6562h-5.625v-17.578h5.625v2.5625c0.84375-1.0195 1.7383-1.7734 2.6875-2.2656 0.95703-0.48828 2.0156-0.73438 3.1719-0.73438 2.0312 0 3.5703 0.625 4.625 1.875 1.0508 1.25 1.5781 3.0625 1.5781 5.4375z"/>
</symbol>
<symbol id="ap" overflow="visible">
<path d="m2.9531-23.438h6.0469v21.156c0 2.9258-0.79688 5.1094-2.3906 6.5469-1.5859 1.4453-3.9805 2.1719-7.1875 2.1719h-1.2344v-4.5625h0.95312c1.25 0 2.1953-0.35547 2.8438-1.0625 0.64453-0.69922 0.96875-1.7266 0.96875-3.0938z"/>
</symbol>
<symbol id="au" overflow="visible">
<path d="m10.594-7.9062c-1.1797 0-2.0625 0.19922-2.6562 0.59375-0.59375 0.39844-0.89062 0.98047-0.89062 1.75 0 0.71875 0.23828 1.2812 0.71875 1.6875 0.47656 0.39844 1.1406 0.59375 1.9844 0.59375 1.0625 0 1.9531-0.37891 2.6719-1.1406 0.72656-0.75781 1.0938-1.707 1.0938-2.8438v-0.64062zm8.5938-2.125v10.031h-5.6719v-2.6094c-0.76172 1.0742-1.6172 1.8555-2.5625 2.3438-0.9375 0.47656-2.0781 0.71875-3.4219 0.71875-1.8242 0-3.3086-0.53125-4.4531-1.5938-1.1367-1.0625-1.7031-2.4414-1.7031-4.1406 0-2.0625 0.70703-3.5703 2.125-4.5312 1.4258-0.96875 3.6562-1.4531 6.6875-1.4531h3.3281v-0.4375c0-0.88281-0.35547-1.5312-1.0625-1.9375-0.69922-0.41406-1.793-0.625-3.2812-0.625-1.1992 0-2.3203 0.12109-3.3594 0.35938-1.043 0.24219-2.0078 0.60156-2.8906 1.0781v-4.2812c1.207-0.28906 2.4141-0.51562 3.625-0.67188 1.2188-0.15625 2.4297-0.23438 3.6406-0.23438 3.1758 0 5.4688 0.63281 6.875 1.8906 1.4141 1.25 2.125 3.2812 2.125 6.0938z"/>
</symbol>
<symbol id="at" overflow="visible">
<path d="m20.391-10.703v10.703h-5.6562v-8.1719c0-1.5312-0.039063-2.582-0.10938-3.1562-0.0625-0.58203-0.17969-1.0078-0.34375-1.2812-0.21875-0.36328-0.52344-0.64453-0.90625-0.84375-0.375-0.20703-0.80469-0.3125-1.2812-0.3125-1.168 0-2.0898 0.45312-2.7656 1.3594-0.66797 0.90625-1 2.1562-1 3.75v8.6562h-5.625v-24.438h5.625v9.4219c0.84375-1.0195 1.7383-1.7734 2.6875-2.2656 0.95703-0.48828 2.0156-0.73438 3.1719-0.73438 2.0312 0 3.5703 0.625 4.625 1.875 1.0508 1.25 1.5781 3.0625 1.5781 5.4375z"/>
</symbol>
<symbol id="c" overflow="visible">
<path d="m8.1094-13.781-5.3438 8.3438h5.3438zm-0.5625-1.8438h2.6719v10.188h2.2188v1.75h-2.2188v3.6875h-2.1094v-3.6875h-7.0625v-2.0312z"/>
</symbol>
<symbol id="a" overflow="visible">
<path d="m2.3125-15.625h8.3125v1.7812h-6.375v3.8281c0.3125-0.10156 0.61719-0.17969 0.92188-0.23438 0.3125-0.050781 0.61719-0.078125 0.92188-0.078125 1.75 0 3.1328 0.48047 4.1562 1.4375 1.0195 0.94922 1.5312 2.2422 1.5312 3.875 0 1.6875-0.52734 2.9961-1.5781 3.9219-1.0547 0.92969-2.5312 1.3906-4.4375 1.3906-0.65625 0-1.3242-0.058594-2-0.17188-0.67969-0.10547-1.3828-0.26562-2.1094-0.48438v-2.125c0.625 0.33594 1.2695 0.58984 1.9375 0.76562 0.67578 0.16797 1.3906 0.25 2.1406 0.25 1.207 0 2.1602-0.31641 2.8594-0.95312 0.70703-0.63281 1.0625-1.5 1.0625-2.5938 0-1.082-0.35547-1.9414-1.0625-2.5781-0.69922-0.63281-1.6523-0.95312-2.8594-0.95312-0.57422 0-1.1406 0.0625-1.7031 0.1875s-1.1367 0.32031-1.7188 0.57812z"/>
</symbol>
<symbol id="d" overflow="visible">
<path d="m1.0469-6.7344h5.6406v1.7188h-5.6406z"/>
</symbol>
<symbol id="i" overflow="visible">
<path d="m7.0781-8.6562c-0.94922 0-1.7031 0.32812-2.2656 0.98438-0.55469 0.64844-0.82812 1.5312-0.82812 2.6562s0.27344 2.0156 0.82812 2.6719c0.5625 0.64844 1.3164 0.96875 2.2656 0.96875 0.94531 0 1.6953-0.32031 2.25-0.96875 0.5625-0.65625 0.84375-1.5469 0.84375-2.6719s-0.28125-2.0078-0.84375-2.6562c-0.55469-0.65625-1.3047-0.98438-2.25-0.98438zm4.2031-6.625v1.9219c-0.53125-0.25-1.0703-0.4375-1.6094-0.5625-0.54297-0.13281-1.0781-0.20312-1.6094-0.20312-1.3984 0-2.4648 0.46875-3.2031 1.4062-0.73047 0.9375-1.1484 2.3594-1.25 4.2656 0.40625-0.60156 0.92188-1.0664 1.5469-1.3906 0.625-0.32031 1.3047-0.48438 2.0469-0.48438 1.5703 0 2.8125 0.48047 3.7188 1.4375 0.91406 0.94922 1.375 2.2422 1.375 3.875 0 1.6055-0.47656 2.8906-1.4219 3.8594-0.94922 0.96875-2.2148 1.4531-3.7969 1.4531-1.8047 0-3.1836-0.69141-4.1406-2.0781-0.96094-1.3828-1.4375-3.3906-1.4375-6.0156 0-2.4688 0.58203-4.4375 1.75-5.9062 1.1758-1.4688 2.7539-2.2031 4.7344-2.2031 0.53125 0 1.0664 0.054688 1.6094 0.15625 0.53906 0.10547 1.1016 0.26172 1.6875 0.46875z"/>
</symbol>
<symbol id="am" overflow="visible">
<path d="m8.7031-8.4219c1.0078 0.21094 1.8008 0.65625 2.375 1.3438 0.57031 0.6875 0.85938 1.5312 0.85938 2.5312 0 1.543-0.53125 2.7344-1.5938 3.5781s-2.5742 1.2656-4.5312 1.2656c-0.65625 0-1.3359-0.0625-2.0312-0.1875-0.6875-0.125-1.4023-0.31641-2.1406-0.57812v-2.0469c0.58203 0.34375 1.2227 0.60547 1.9219 0.78125 0.69531 0.17969 1.4258 0.26562 2.1875 0.26562 1.3203 0 2.332-0.25781 3.0312-0.78125 0.69531-0.53125 1.0469-1.2969 1.0469-2.2969 0-0.91406-0.32422-1.6328-0.96875-2.1562-0.64844-0.51953-1.5469-0.78125-2.7031-0.78125h-1.8125v-1.7344h1.9062c1.0312 0 1.8203-0.20703 2.375-0.625 0.55078-0.41406 0.82812-1.0156 0.82812-1.7969 0-0.80078-0.28906-1.4141-0.85938-1.8438-0.5625-0.42578-1.375-0.64062-2.4375-0.64062-0.57422 0-1.1953 0.0625-1.8594 0.1875-0.66797 0.125-1.3984 0.32031-2.1875 0.57812v-1.875c0.80078-0.22656 1.5508-0.39453 2.25-0.5 0.70703-0.11328 1.3672-0.17188 1.9844-0.17188 1.6016 0 2.875 0.36719 3.8125 1.0938 0.9375 0.73047 1.4062 1.7148 1.4062 2.9531 0 0.86719-0.25 1.6016-0.75 2.2031-0.49219 0.59375-1.1953 1.0078-2.1094 1.2344z"/>
</symbol>
<symbol id="b" overflow="visible">
<path d="m6.8125-14.234c-1.0859 0-1.9023 0.53906-2.4531 1.6094-0.54297 1.0742-0.8125 2.6836-0.8125 4.8281 0 2.1484 0.26953 3.7578 0.8125 4.8281 0.55078 1.0625 1.3672 1.5938 2.4531 1.5938 1.1016 0 1.9258-0.53125 2.4688-1.5938 0.55078-1.0703 0.82812-2.6797 0.82812-4.8281 0-2.1445-0.27734-3.7539-0.82812-4.8281-0.54297-1.0703-1.3672-1.6094-2.4688-1.6094zm0-1.6719c1.7578 0 3.0977 0.69531 4.0156 2.0781 0.92578 1.3867 1.3906 3.3984 1.3906 6.0312 0 2.625-0.46484 4.6328-1.3906 6.0156-0.91797 1.3867-2.2578 2.0781-4.0156 2.0781-1.75 0-3.0898-0.69141-4.0156-2.0781-0.91797-1.3828-1.375-3.3906-1.375-6.0156 0-2.6328 0.45703-4.6445 1.375-6.0312 0.92578-1.3828 2.2656-2.0781 4.0156-2.0781z"/>
</symbol>
<symbol id="o" overflow="visible">
<path d="m1.7656-15.625h10.047v0.89062l-5.6719 14.734h-2.2188l5.3438-13.844h-7.5z"/>
</symbol>
<symbol id="n" overflow="visible">
<path d="m6.8125-7.4219c-1 0-1.793 0.27344-2.375 0.8125-0.57422 0.53125-0.85938 1.2734-0.85938 2.2188 0 0.9375 0.28516 1.6797 0.85938 2.2188 0.58203 0.53125 1.375 0.79688 2.375 0.79688 1.0078 0 1.8008-0.26953 2.375-0.8125 0.58203-0.53906 0.875-1.2734 0.875-2.2031 0-0.94531-0.28906-1.6875-0.85938-2.2188-0.57422-0.53906-1.3711-0.8125-2.3906-0.8125zm-2.1094-0.90625c-0.90625-0.21875-1.6172-0.63281-2.125-1.25-0.5-0.625-0.75-1.3828-0.75-2.2812 0-1.25 0.44141-2.2344 1.3281-2.9531 0.89453-0.72656 2.1133-1.0938 3.6562-1.0938 1.5625 0 2.7852 0.36719 3.6719 1.0938 0.88281 0.71875 1.3281 1.7031 1.3281 2.9531 0 0.89844-0.25781 1.6562-0.76562 2.2812-0.5 0.61719-1.1992 1.0312-2.0938 1.25 1.0078 0.24219 1.8008 0.71094 2.375 1.4062 0.57031 0.6875 0.85938 1.5312 0.85938 2.5312 0 1.5117-0.46484 2.6719-1.3906 3.4844-0.92969 0.80469-2.2578 1.2031-3.9844 1.2031-1.7188 0-3.043-0.39844-3.9688-1.2031-0.92969-0.8125-1.3906-1.9727-1.3906-3.4844 0-1 0.28516-1.8438 0.85938-2.5312 0.57031-0.69531 1.3672-1.1641 2.3906-1.4062zm-0.78125-3.3281c0 0.80469 0.25391 1.4336 0.76562 1.8906 0.50781 0.46094 1.2188 0.6875 2.125 0.6875 0.91406 0 1.6289-0.22656 2.1406-0.6875 0.50781-0.45703 0.76562-1.0859 0.76562-1.8906 0-0.8125-0.25781-1.4414-0.76562-1.8906-0.51172-0.45703-1.2266-0.6875-2.1406-0.6875-0.90625 0-1.6172 0.23047-2.125 0.6875-0.51172 0.44922-0.76562 1.0781-0.76562 1.8906z"/>
</symbol>
<symbol id="al" overflow="visible">
<path d="m9.875-13.438v5.8281h5.8281v1.7812h-5.8281v5.8281h-1.7656v-5.8281h-5.8438v-1.7812h5.8438v-5.8281z"/>
</symbol>
<symbol id="ao" overflow="visible">
<path d="m4.1094-1.7812h7.3906v1.7812h-9.9219v-1.7812c0.80078-0.83203 1.8945-1.9453 3.2812-3.3438 1.3828-1.3945 2.2539-2.2969 2.6094-2.7031 0.67578-0.75781 1.1484-1.3984 1.4219-1.9219 0.26953-0.53125 0.40625-1.0508 0.40625-1.5625 0-0.83203-0.29297-1.5078-0.875-2.0312-0.58594-0.51953-1.3438-0.78125-2.2812-0.78125-0.66797 0-1.3711 0.11719-2.1094 0.34375-0.73047 0.23047-1.5156 0.57812-2.3594 1.0469v-2.1406c0.85156-0.34375 1.6484-0.59766 2.3906-0.76562 0.73828-0.17578 1.4141-0.26562 2.0312-0.26562 1.625 0 2.9141 0.40625 3.875 1.2188 0.96875 0.80469 1.4531 1.8828 1.4531 3.2344 0 0.64844-0.125 1.2578-0.375 1.8281-0.24219 0.57422-0.67969 1.25-1.3125 2.0312-0.16797 0.21094-0.71875 0.79688-1.6562 1.7656-0.9375 0.96094-2.2617 2.3086-3.9688 4.0469z"/>
</symbol>
<symbol id="an" overflow="visible">
<path d="m2.6562-1.7812h3.4688v-11.922l-3.7656 0.75v-1.9219l3.7344-0.75h2.125v13.844h3.4531v1.7812h-9.0156z"/>
</symbol>
<symbol id="ak" overflow="visible">
<path d="m-15.641-1.9688v-4.0312h5.9688v-5.9375h-5.9688v-4.0312h15.641v4.0312h-6.625v5.9375h6.625v4.0312z"/>
</symbol>
<symbol id="ah" overflow="visible">
<path d="m-9.3281-7.375c0 0.82422 0.29688 1.4531 0.89062 1.8906s1.4531 0.65625 2.5781 0.65625 1.9922-0.21875 2.5938-0.65625c0.59375-0.4375 0.89062-1.0664 0.89062-1.8906 0-0.82031-0.29688-1.4453-0.89062-1.875-0.60156-0.4375-1.4688-0.65625-2.5938-0.65625s-1.9844 0.21875-2.5781 0.65625c-0.59375 0.42969-0.89062 1.0547-0.89062 1.875zm-2.6875 0c0-2.0195 0.54688-3.5977 1.6406-4.7344 1.0859-1.1328 2.5898-1.7031 4.5156-1.7031 1.9297 0 3.4375 0.57031 4.5312 1.7031 1.0859 1.1367 1.625 2.7148 1.625 4.7344 0 2.0234-0.53906 3.6055-1.625 4.75-1.0938 1.1367-2.6016 1.7031-4.5312 1.7031-1.9258 0-3.4297-0.56641-4.5156-1.7031-1.0938-1.1445-1.6406-2.7266-1.6406-4.75zm-4.5938 3.3281v-2.4531h2.5781v2.4531zm0-4.1406v-2.4531h2.5781v2.4531z"/>
</symbol>
<symbol id="m" overflow="visible">
<path d="m-8.5312-10.516c-0.15625 0.33594-0.26953 0.66406-0.34375 0.98438-0.070312 0.32422-0.10938 0.65234-0.10938 0.98438 0 0.96094 0.30859 1.6992 0.92188 2.2188 0.61719 0.52344 1.5 0.78125 2.6562 0.78125h5.4062v3.75h-11.734v-3.75h1.9219c-0.75781-0.47656-1.3164-1.0312-1.6719-1.6562-0.35156-0.625-0.53125-1.375-0.53125-2.25 0-0.125 0.007813-0.25781 0.015625-0.40625 0.011719-0.14453 0.03125-0.35938 0.0625-0.64062z"/>
</symbol>
<symbol id="ag" overflow="visible">
<path d="m-2.4219-8.0469c0-0.80078-0.28906-1.4102-0.875-1.8281-0.58203-0.42578-1.4375-0.64062-2.5625-0.64062-1.1133 0-1.9609 0.21484-2.5469 0.64062-0.59375 0.41797-0.89062 1.0273-0.89062 1.8281 0 0.8125 0.29688 1.4336 0.89062 1.8594 0.59375 0.42969 1.4453 0.64062 2.5469 0.64062 1.1172 0 1.9688-0.21094 2.5625-0.64062 0.58594-0.42578 0.875-1.0469 0.875-1.8594zm-7.5938 2.5c-0.6875-0.51953-1.1914-1.0938-1.5156-1.7188-0.32031-0.625-0.48438-1.3477-0.48438-2.1719 0-1.4375 0.57812-2.6172 1.7344-3.5469 1.1484-0.92578 2.6211-1.3906 4.4219-1.3906 1.8125 0 3.293 0.46484 4.4375 1.3906 1.1484 0.92969 1.7188 2.1094 1.7188 3.5469 0 0.82422-0.16406 1.5469-0.48438 2.1719s-0.82812 1.1992-1.5156 1.7188h1.7031v3.75h-16.297v-3.75z"/>
</symbol>
<symbol id="h" overflow="visible">
<path d="m-5.8906-13.5h1.0625v8.7656c0.875-0.09375 1.5391-0.41016 1.9844-0.95312 0.4375-0.55078 0.65625-1.3125 0.65625-2.2812 0-0.78906-0.11328-1.5977-0.34375-2.4219-0.23828-0.83203-0.59766-1.6875-1.0781-2.5625h2.8906c0.34375 0.88672 0.60156 1.7773 0.76562 2.6719 0.16406 0.88672 0.25 1.7734 0.25 2.6562 0 2.1172-0.53516 3.7617-1.6094 4.9375-1.082 1.1797-2.5977 1.7656-4.5469 1.7656-1.9062 0-3.4062-0.57812-4.5-1.7344-1.1016-1.1562-1.6562-2.7422-1.6562-4.7656 0-1.8438 0.55859-3.3164 1.6719-4.4219 1.1055-1.1016 2.5898-1.6562 4.4531-1.6562zm-1.25 3.8438c-0.71875 0-1.2891 0.21094-1.7188 0.625-0.4375 0.41797-0.65625 0.96094-0.65625 1.625 0 0.73047 0.20312 1.3242 0.60938 1.7812 0.40625 0.44922 0.99609 0.73047 1.7656 0.84375z"/>
</symbol>
<symbol id="af" overflow="visible">
<path d="m-7.1406-13.594h7.1406v3.7812h-5.4531c-1.0195 0-1.7227 0.023438-2.1094 0.0625-0.38281 0.042969-0.66406 0.12109-0.84375 0.23438-0.25 0.14844-0.44141 0.34375-0.57812 0.59375-0.13281 0.25-0.20312 0.53906-0.20312 0.85938 0 0.78125 0.30469 1.3984 0.90625 1.8438 0.60547 0.44922 1.4453 0.67188 2.5156 0.67188h5.7656v3.75h-16.297v-3.75h6.2812c-0.6875-0.5625-1.1914-1.1602-1.5156-1.7969-0.32031-0.63281-0.48438-1.3359-0.48438-2.1094 0-1.3516 0.41797-2.3789 1.25-3.0781 0.83594-0.70703 2.043-1.0625 3.625-1.0625z"/>
</symbol>
<symbol id="ae" overflow="visible">
<path d="m-11.734-1.7969v-3.75h11.734v3.75zm-4.5625 0v-3.75h3.0625v3.75z"/>
</symbol>
<symbol id="g" overflow="visible">
<path d="m-7.1406-13.594h7.1406v3.7812h-5.4688c-1.0078 0-1.707 0.023438-2.0938 0.0625-0.38281 0.042969-0.66406 0.12109-0.84375 0.23438-0.25 0.14844-0.44141 0.34375-0.57812 0.59375-0.13281 0.25-0.20312 0.53906-0.20312 0.85938 0 0.78125 0.30469 1.3984 0.90625 1.8438 0.60547 0.44922 1.4453 0.67188 2.5156 0.67188h5.7656v3.75h-11.734v-3.75h1.7188c-0.6875-0.5625-1.1914-1.1602-1.5156-1.7969-0.32031-0.63281-0.48438-1.3359-0.48438-2.1094 0-1.3516 0.41797-2.3789 1.25-3.0781 0.83594-0.70703 2.043-1.0625 3.625-1.0625z"/>
</symbol>
<symbol id="ad" overflow="visible">
<path d="m-10.016-9.7812h-6.2812v-3.7656h16.297v3.7656h-1.7031c0.69922 0.52344 1.2109 1.0938 1.5312 1.7188 0.3125 0.61719 0.46875 1.3281 0.46875 2.1406 0 1.4492-0.57031 2.6367-1.7188 3.5625-1.1445 0.92969-2.625 1.3906-4.4375 1.3906-1.8008 0-3.2734-0.46094-4.4219-1.3906-1.1562-0.92578-1.7344-2.1133-1.7344-3.5625 0-0.80078 0.16406-1.5156 0.48438-2.1406 0.32422-0.625 0.82812-1.1953 1.5156-1.7188zm7.5938 2.4688c0-0.80078-0.28906-1.4102-0.875-1.8281-0.58203-0.42578-1.4375-0.64062-2.5625-0.64062-1.1133 0-1.9609 0.21484-2.5469 0.64062-0.59375 0.41797-0.89062 1.0273-0.89062 1.8281 0 0.80469 0.29688 1.418 0.89062 1.8438 0.58594 0.41797 1.4336 0.625 2.5469 0.625 1.125 0 1.9805-0.20703 2.5625-0.625 0.58594-0.42578 0.875-1.0391 0.875-1.8438z"/>
</symbol>
<symbol id="aj" overflow="visible">
<path d="m-4.5625-1.6719h-7.1719v-3.7656h1.1719c0.63672 0 1.4375 0.007812 2.4062 0.015625h1.9062c0.94922 0 1.6328-0.019531 2.0469-0.0625 0.41797-0.050781 0.71875-0.14062 0.90625-0.26562 0.24219-0.15625 0.42969-0.35156 0.5625-0.59375 0.13672-0.25 0.20312-0.53516 0.20312-0.85938 0-0.78125-0.30078-1.3945-0.90625-1.8438-0.60156-0.44531-1.4375-0.67188-2.5-0.67188h-5.7969v-3.75h11.734v3.75h-1.7031c0.6875 0.57422 1.1953 1.1797 1.5156 1.8125 0.32031 0.625 0.48438 1.3203 0.48438 2.0781 0 1.3555-0.41016 2.3867-1.2344 3.0938-0.83203 0.71094-2.0391 1.0625-3.625 1.0625z"/>
</symbol>
<symbol id="ai" overflow="visible">
<path d="m-1.9844-9.7812c0.67969 0.52344 1.1797 1.0938 1.5 1.7188 0.32422 0.61719 0.48438 1.3281 0.48438 2.1406 0 1.4375-0.5625 2.625-1.6875 3.5625-1.1328 0.92969-2.5703 1.3906-4.3125 1.3906-1.75 0-3.1875-0.46094-4.3125-1.3906-1.125-0.9375-1.6875-2.125-1.6875-3.5625 0-0.8125 0.16406-1.5234 0.48438-2.1406 0.32422-0.625 0.82812-1.1953 1.5156-1.7188h-1.7344v-3.7656h10.547c1.8828 0 3.3203 0.60156 4.3125 1.7969 1 1.1875 1.5 2.9141 1.5 5.1719 0 0.73047-0.058594 1.4375-0.17188 2.125-0.10547 0.67969-0.27344 1.3672-0.5 2.0625h-2.9219c0.375-0.65625 0.64844-1.2969 0.82812-1.9219 0.1875-0.63281 0.28125-1.2695 0.28125-1.9062 0-1.2266-0.27344-2.1289-0.8125-2.7031-0.53125-0.57031-1.3672-0.85938-2.5156-0.85938zm-7.3125 2.4688c0 0.78125 0.28906 1.3906 0.85938 1.8281 0.57422 0.42969 1.3867 0.64062 2.4375 0.64062 1.0742 0 1.8906-0.20703 2.4531-0.625 0.55469-0.42578 0.82812-1.0391 0.82812-1.8438 0-0.78125-0.28516-1.3828-0.85938-1.8125-0.57031-0.4375-1.3789-0.65625-2.4219-0.65625-1.0508 0-1.8633 0.21875-2.4375 0.65625-0.57031 0.42969-0.85938 1.0312-0.85938 1.8125z"/>
</symbol>
<symbol id="ac" overflow="visible">
<path d="m-16.297-1.8438v-4.4375h1.5v2.5156h16.125v-2.5156h1.5v4.4375z"/>
</symbol>
<symbol id="x" overflow="visible">
<path d="m-6.875-15.594c0 0.61719 0.26172 1.0938 0.78125 1.4375 0.51172 0.34375 1.2266 0.51562 2.1406 0.51562 0.90625 0 1.6211-0.17188 2.1406-0.51562 0.52344-0.34375 0.78125-0.82031 0.78125-1.4375 0-0.58203-0.25781-1.0469-0.78125-1.3906-0.51953-0.35156-1.2344-0.53125-2.1406-0.53125-0.91406 0-1.6289 0.17969-2.1406 0.53125-0.51953 0.34375-0.78125 0.80859-0.78125 1.3906zm-1.3438 0c0-1.0938 0.38672-1.9609 1.1562-2.6094 0.77344-0.65625 1.8086-0.98438 3.1094-0.98438 1.3125 0 2.3516 0.32812 3.1094 0.98438 0.76172 0.64844 1.1406 1.5156 1.1406 2.6094 0 1.125-0.37891 2.0117-1.1406 2.6562-0.75781 0.64844-1.7969 0.96875-3.1094 0.96875s-2.3477-0.32031-3.1094-0.96875c-0.76953-0.65625-1.1562-1.5391-1.1562-2.6562zm-6.375 10.812c0 0.59375 0.26172 1.0703 0.78125 1.4219 0.52344 0.34375 1.2344 0.51562 2.1406 0.51562 0.92969 0 1.6523-0.17188 2.1719-0.51562 0.51172-0.34375 0.76562-0.81641 0.76562-1.4219 0-0.60156-0.25391-1.0781-0.76562-1.4219-0.51953-0.35156-1.2422-0.53125-2.1719-0.53125-0.89453 0-1.6016 0.17969-2.125 0.53125-0.53125 0.34375-0.79688 0.82031-0.79688 1.4219zm-1.3281-9.4531v-1.6719l16.219 9.7656v1.6875zm0 9.4531c0-1.1016 0.38672-1.9844 1.1562-2.6406 0.76172-0.65625 1.793-0.98438 3.0938-0.98438 1.3242 0 2.3672 0.32812 3.125 0.98438 0.76172 0.64844 1.1406 1.5273 1.1406 2.6406 0 1.1055-0.37891 1.9805-1.1406 2.625-0.76953 0.64844-1.8125 0.96875-3.125 0.96875-1.3008 0-2.332-0.32031-3.0938-0.96875-0.76953-0.64453-1.1562-1.5195-1.1562-2.625z"/>
</symbol>
<symbol id="f" overflow="visible"></symbol>
<symbol id="w" overflow="visible">
<path d="m-11.734-2.0156v-1.9375h11.734v1.9375zm-4.5625 0v-1.9375h2.4375v1.9375z"/>
</symbol>
<symbol id="v" overflow="visible">
<path d="m-7.0781-11.766h7.0781v1.9219h-7.0156c-1.1133 0-1.9453 0.21875-2.5 0.65625-0.55078 0.42969-0.82812 1.0742-0.82812 1.9375 0 1.043 0.33594 1.8672 1 2.4688 0.66797 0.59375 1.5742 0.89062 2.7188 0.89062h6.625v1.9375h-11.734v-1.9375h1.8281c-0.70703-0.45703-1.2344-1-1.5781-1.625-0.35156-0.625-0.53125-1.3438-0.53125-2.1562 0-1.3438 0.41797-2.3594 1.25-3.0469 0.83594-0.69531 2.0625-1.0469 3.6875-1.0469z"/>
</symbol>
<symbol id="u" overflow="visible">
<path d="m-9.9531-9.7344h-6.3438v-1.9219h16.297v1.9219h-1.7656c0.69922 0.40625 1.2188 0.91797 1.5625 1.5312 0.33203 0.61719 0.5 1.3555 0.5 2.2188 0 1.418-0.5625 2.5742-1.6875 3.4688-1.1328 0.88672-2.625 1.3281-4.4688 1.3281s-3.3281-0.44141-4.4531-1.3281c-1.1328-0.89453-1.7031-2.0508-1.7031-3.4688 0-0.86328 0.17188-1.6016 0.51562-2.2188 0.33594-0.61328 0.85156-1.125 1.5469-1.5312zm4.0938 6.5625c1.418 0 2.5312-0.28906 3.3438-0.875 0.80469-0.58203 1.2031-1.3828 1.2031-2.4062 0-1.0078-0.39844-1.8047-1.2031-2.3906-0.8125-0.59375-1.9258-0.89062-3.3438-0.89062-1.4141 0-2.5234 0.29688-3.3281 0.89062-0.8125 0.58594-1.2188 1.3828-1.2188 2.3906 0 1.0234 0.40625 1.8242 1.2188 2.4062 0.80469 0.58594 1.9141 0.875 3.3281 0.875z"/>
</symbol>
<symbol id="e" overflow="visible">
<path d="m-6.3438-12.047h0.9375v8.8594c1.3242-0.082031 2.3359-0.48438 3.0312-1.2031 0.69922-0.71875 1.0469-1.7109 1.0469-2.9844 0-0.73828-0.085937-1.457-0.26562-2.1562-0.1875-0.69531-0.46094-1.3828-0.82812-2.0625h1.8281c0.29297 0.6875 0.51172 1.3984 0.65625 2.125 0.15625 0.71875 0.23438 1.4531 0.23438 2.2031 0 1.875-0.53906 3.3594-1.625 4.4531-1.0938 1.0859-2.5664 1.625-4.4219 1.625-1.9141 0-3.4375-0.51562-4.5625-1.5469-1.1328-1.0391-1.7031-2.4375-1.7031-4.1875 0-1.582 0.51172-2.832 1.5312-3.75 1.0117-0.91406 2.3906-1.375 4.1406-1.375zm-0.5625 1.9219c-1.0625 0.023438-1.9062 0.32031-2.5312 0.89062-0.625 0.57422-0.9375 1.3359-0.9375 2.2812 0 1.0742 0.30469 1.9336 0.90625 2.5781 0.60547 0.64844 1.4609 1.0234 2.5625 1.125z"/>
</symbol>
<symbol id="j" overflow="visible">
<path d="m-9.9375-8.8125c-0.125 0.21875-0.21094 0.46094-0.26562 0.71875-0.0625 0.25-0.09375 0.52734-0.09375 0.82812 0 1.0938 0.35547 1.9336 1.0625 2.5156 0.71094 0.57422 1.7266 0.85938 3.0469 0.85938h6.1875v1.9375h-11.734v-1.9375h1.8281c-0.71875-0.39453-1.25-0.91406-1.5938-1.5625-0.34375-0.65625-0.51562-1.4453-0.51562-2.375 0-0.13281 0.011719-0.28125 0.03125-0.4375 0.011719-0.16406 0.039063-0.34375 0.078125-0.53125z"/>
</symbol>
<symbol id="t" overflow="visible">
<path d="m-13.562-7.3281 7.7969 2.875v-5.75zm-2.0781 1.1875v-2.3906l15.641-5.9531v2.2031l-4.0156 1.4219v7.0312l4.0156 1.4375v2.2188z"/>
</symbol>
<symbol id="ab" overflow="visible">
<path d="m-16.297-2.0156v-1.9375h16.297v1.9375z"/>
</symbol>
<symbol id="l" overflow="visible">
<path d="m-15.062-3.9219h3.3281v-3.9688h1.5v3.9688h6.375c0.94922 0 1.5625-0.12891 1.8438-0.39062 0.27344-0.25781 0.40625-0.79688 0.40625-1.6094v-1.9688h1.6094v1.9688c0 1.4922-0.27344 2.5234-0.82812 3.0938-0.5625 0.5625-1.5703 0.84375-3.0312 0.84375h-6.375v1.4062h-1.5v-1.4062h-3.3281z"/>
</symbol>
<symbol id="k" overflow="visible">
<path d="m-11.391-9.5h1.8281c-0.28125 0.55469-0.48828 1.1211-0.625 1.7031-0.14453 0.58594-0.21875 1.1875-0.21875 1.8125 0 0.96094 0.15234 1.6797 0.45312 2.1562 0.29297 0.48047 0.73047 0.71875 1.3125 0.71875 0.44922 0 0.80469-0.17188 1.0625-0.51562 0.25-0.34375 0.49219-1.0312 0.71875-2.0625l0.14062-0.65625c0.29297-1.3633 0.71094-2.332 1.25-2.9062 0.53125-0.58203 1.2773-0.875 2.2344-0.875 1.0859 0 1.9453 0.43359 2.5781 1.2969 0.63672 0.86719 0.95312 2.0469 0.95312 3.5469 0 0.63672-0.0625 1.293-0.1875 1.9688-0.11328 0.67969-0.28906 1.3984-0.53125 2.1562h-2c0.375-0.71875 0.65625-1.4219 0.84375-2.1094 0.17969-0.6875 0.26562-1.3672 0.26562-2.0469 0-0.90625-0.14844-1.6016-0.45312-2.0938-0.3125-0.48828-0.75391-0.73438-1.3281-0.73438-0.51953 0-0.92188 0.17969-1.2031 0.53125-0.28125 0.34375-0.54688 1.1172-0.79688 2.3125l-0.17188 0.67188c-0.25 1.1875-0.63281 2.0469-1.1562 2.5781-0.51953 0.53125-1.2344 0.79688-2.1406 0.79688-1.1016 0-1.9531-0.39062-2.5469-1.1719-0.60156-0.78125-0.90625-1.8906-0.90625-3.3281 0-0.70703 0.054687-1.375 0.15625-2 0.10547-0.63281 0.26172-1.2188 0.46875-1.75z"/>
</symbol>
<symbol id="aa" overflow="visible">
<path d="m-4.625-1.8281h-7.1094v-1.9219h7.0312c1.1172 0 1.9492-0.21094 2.5-0.64062 0.55469-0.4375 0.82812-1.0859 0.82812-1.9531 0-1.0391-0.32812-1.8633-0.98438-2.4688-0.66406-0.60156-1.5703-0.90625-2.7188-0.90625h-6.6562v-1.9219h11.734v1.9219h-1.7969c0.71094 0.46875 1.2344 1.0156 1.5781 1.6406 0.34375 0.61719 0.51562 1.3281 0.51562 2.1406 0 1.3438-0.41406 2.3672-1.25 3.0625-0.83203 0.69922-2.0547 1.0469-3.6719 1.0469z"/>
</symbol>
<symbol id="z" overflow="visible">
<path d="m-16.297-7.9531h1.5938v1.8438c0 0.6875 0.14062 1.168 0.42188 1.4375 0.28125 0.27344 0.78906 0.40625 1.5156 0.40625h1.0312v-3.1719h1.5v3.1719h10.234v1.9375h-10.234v1.8438h-1.5v-1.8438h-0.8125c-1.3125 0-2.2656-0.30078-2.8594-0.90625-0.59375-0.61328-0.89062-1.582-0.89062-2.9062z"/>
</symbol>
<symbol id="y" overflow="visible">
<path d="m-16.297-6.5156h19.125v4.4375h-1.5v-2.5h-16.125v2.5h-1.5z"/>
</symbol>
</defs>
<path transform="matrix(3.5742 0 0 3.5734 -20.182 3.1939)" d="m216.66 125.42h-167.21" fill="none" stroke="#000" stroke-width=".5"/>
<path transform="matrix(3.5742 0 0 3.5734 -20.182 3.1939)" d="m52.527 8.4407v120.03" fill="none" stroke="#000" stroke-width=".5"/>
<path transform="matrix(3.5742 0 0 3.5734 -20.182 3.1939)" d="m52.527 8.4407h164.13v116.98h-164.13z" fill="none" stroke="#000" stroke-width="1.5"/>
<path transform="matrix(3.5742 0 0 3.5734 -20.182 3.1939)" d="m93.56 8.4407v120.03" fill="none" stroke="#000" stroke-width=".5"/>
<path transform="matrix(3.5742 0 0 3.5734 -20.182 3.1939)" d="m134.59 8.4407v120.03" fill="none" stroke="#000" stroke-width=".5"/>
<path transform="matrix(3.5742 0 0 3.5734 -20.182 3.1939)" d="m175.63 8.4407v120.03" fill="none" stroke="#000" stroke-width=".5"/>
<path transform="matrix(3.5742 0 0 3.5734 -20.182 3.1939)" d="m216.66 8.4407v120.03" fill="none" stroke="#000" stroke-width=".5"/>
<path transform="matrix(3.5742 0 0 3.5734 -20.182 3.1939)" d="m216.66 105.93h-167.21" fill="none" stroke="#000" stroke-width=".5"/>
<path transform="matrix(3.5742 0 0 3.5734 -20.182 3.1939)" d="m216.66 86.428h-167.21" fill="none" stroke="#000" stroke-width=".5"/>
<path transform="matrix(3.5742 0 0 3.5734 -20.182 3.1939)" d="m216.66 66.931h-167.21" fill="none" stroke="#000" stroke-width=".5"/>
<path transform="matrix(3.5742 0 0 3.5734 -20.182 3.1939)" d="m216.66 47.435h-167.21" fill="none" stroke="#000" stroke-width=".5"/>
<path transform="matrix(3.5742 0 0 3.5734 -20.182 3.1939)" d="m216.66 27.937h-167.21" fill="none" stroke="#000" stroke-width=".5"/>
<path transform="matrix(3.5742 0 0 3.5734 -20.182 3.1939)" d="m216.66 8.4407h-167.21" fill="none" stroke="#000" stroke-width=".5"/>
<g>
<use x="330.835938" y="565.315034" xlink:href="#av"/>
<use x="355.855503" y="565.315034" xlink:href="#as"/>
<use x="366.578174" y="565.315034" xlink:href="#ar"/>
<use x="380.875069" y="565.315034" xlink:href="#s"/>
<use x="402.320411" y="565.315034" xlink:href="#r"/>
<use x="416.617305" y="565.315034" xlink:href="#q"/>
<use x="427.339976" y="565.315034" xlink:href="#aq"/>
<use x="438.062647" y="565.315034" xlink:href="#p"/>
<use x="459.507989" y="565.315034" xlink:href="#q"/>
<use x="470.23066" y="565.315034" xlink:href="#ap"/>
<use x="480.953331" y="565.315034" xlink:href="#au"/>
<use x="502.398673" y="565.315034" xlink:href="#at"/>
<use x="523.844015" y="565.315034" xlink:href="#r"/>
<use x="538.14091" y="565.315034" xlink:href="#s"/>
<use x="559.586252" y="565.315034" xlink:href="#p"/>
</g>
<g>
<use x="136.480469" y="512.827071" xlink:href="#c"/>
<use x="150.777363" y="512.827071" xlink:href="#a"/>
<use x="165.074258" y="512.827071" xlink:href="#d"/>
<use x="172.222705" y="512.827071" xlink:href="#a"/>
<use x="186.5196" y="512.827071" xlink:href="#c"/>
</g>
<g>
<use x="282.84375" y="512.827071" xlink:href="#a"/>
<use x="297.140645" y="512.827071" xlink:href="#a"/>
<use x="311.437539" y="512.827071" xlink:href="#d"/>
<use x="318.585987" y="512.827071" xlink:href="#i"/>
<use x="332.882881" y="512.827071" xlink:href="#c"/>
</g>
<g>
<use x="105.203125" y="250.166915" xlink:href="#am"/>
<use x="119.50002" y="250.166915" xlink:href="#b"/>
</g>
<g>
<use x="105.203125" y="41.159103" xlink:href="#i"/>
<use x="119.50002" y="41.159103" xlink:href="#b"/>
</g>
<g>
<use x="429.585937" y="512.827071" xlink:href="#i"/>
<use x="443.882832" y="512.827071" xlink:href="#a"/>
<use x="458.179727" y="512.827071" xlink:href="#d"/>
<use x="465.328174" y="512.827071" xlink:href="#o"/>
<use x="479.625069" y="512.827071" xlink:href="#c"/>
</g>
<g>
<use x="576.117187" y="512.827071" xlink:href="#o"/>
<use x="590.414082" y="512.827071" xlink:href="#a"/>
<use x="604.710977" y="512.827071" xlink:href="#d"/>
<use x="611.859424" y="512.827071" xlink:href="#n"/>
<use x="626.156319" y="512.827071" xlink:href="#c"/>
</g>
<g>
<use x="731.996094" y="512.827071" xlink:href="#n"/>
<use x="746.292988" y="512.827071" xlink:href="#a"/>
<use x="760.589883" y="512.827071" xlink:href="#al"/>
</g>
<g>
<use x="105.203125" y="319.83879" xlink:href="#ao"/>
<use x="119.50002" y="319.83879" xlink:href="#b"/>
</g>
<g>
<use x="105.203125" y="389.506759" xlink:href="#an"/>
<use x="119.50002" y="389.506759" xlink:href="#b"/>
</g>
<g>
<use x="118.847656" y="459.174728" xlink:href="#b"/>
</g>
<g>
<use x="105.203125" y="180.498946" xlink:href="#c"/>
<use x="119.50002" y="180.498946" xlink:href="#b"/>
</g>
<g>
<use x="105.203125" y="110.830978" xlink:href="#a"/>
<use x="119.50002" y="110.830978" xlink:href="#b"/>
</g>
<g>
<use x="41.61699" y="351.351562" xlink:href="#ak"/>
<use x="41.61699" y="333.48472" xlink:href="#ah"/>
<use x="41.61699" y="319.191245" xlink:href="#m"/>
<use x="41.61699" y="308.47114" xlink:href="#ag"/>
<use x="41.61699" y="294.177665" xlink:href="#h"/>
<use x="41.61699" y="279.884191" xlink:href="#af"/>
<use x="41.61699" y="265.590717" xlink:href="#ae"/>
<use x="41.61699" y="258.443979" xlink:href="#g"/>
<use x="41.61699" y="244.150505" xlink:href="#ad"/>
<use x="41.61699" y="229.857031" xlink:href="#h"/>
<use x="41.61699" y="215.563556" xlink:href="#m"/>
<use x="41.61699" y="204.843451" xlink:href="#aj"/>
<use x="41.61699" y="190.549976" xlink:href="#g"/>
<use x="41.61699" y="176.256502" xlink:href="#ai"/>
<use x="41.61699" y="161.963028" xlink:href="#h"/>
<use x="41.61699" y="147.669553" xlink:href="#g"/>
</g>
<g>
<use x="68.421677" y="356.710938" xlink:href="#ac"/>
<use x="68.421677" y="349.5642" xlink:href="#x"/>
<use x="68.421677" y="328.123989" xlink:href="#f"/>
<use x="68.421677" y="320.977252" xlink:href="#w"/>
<use x="68.421677" y="313.830515" xlink:href="#v"/>
<use x="68.421677" y="299.53704" xlink:href="#f"/>
<use x="68.421677" y="292.390303" xlink:href="#u"/>
<use x="68.421677" y="278.096829" xlink:href="#e"/>
<use x="68.421677" y="263.803354" xlink:href="#j"/>
<use x="68.421677" y="256.656617" xlink:href="#f"/>
<use x="68.421677" y="249.50988" xlink:href="#t"/>
<use x="68.421677" y="235.216406" xlink:href="#ab"/>
<use x="68.421677" y="228.069669" xlink:href="#l"/>
<use x="68.421677" y="220.922931" xlink:href="#e"/>
<use x="68.421677" y="206.629457" xlink:href="#j"/>
<use x="68.421677" y="199.48272" xlink:href="#k"/>
<use x="68.421677" y="188.762614" xlink:href="#k"/>
<use x="68.421677" y="178.042508" xlink:href="#l"/>
<use x="68.421677" y="170.895771" xlink:href="#aa"/>
<use x="68.421677" y="156.602297" xlink:href="#z"/>
<use x="68.421677" y="149.45556" xlink:href="#e"/>
<use x="68.421677" y="135.162085" xlink:href="#y"/>
</g>
<path transform="matrix(3.5742 0 0 3.5734 -20.182 3.1939)" d="m52.527 112.01c13.68-1.7961 27.684-2.2989 41.033-5.0373 14.069-2.887 30.483-6.3808 41.034-11.322 27.882-13.057 31.505-19.097 41.034-26.443 16.491-12.713 41.034-47.098 41.034-47.098" fill="none" stroke="#00a" stroke-width=".75"/>
<path d="m159.52 395.41h16.082v16.082h-16.082z" fill="#00a"/>
<path d="m306.18 377.41h16.082v16.082h-16.082z" fill="#00a"/>
<path d="m452.85 336.96h16.082v16.078h-16.082z" fill="#00a"/>
<path d="m599.51 240.56h16.082v16.082h-16.082z" fill="#00a"/>
<path d="m745.86 74.602h16.086v16.082h-16.086z" fill="#00a"/>
</svg>
