<?xml version="1.0" encoding="UTF-8"?>
<svg width="600px" height="448px" version="1.1" viewBox="0 0 600 448" xmlns="http://www.w3.org/2000/svg" xmlns:xlink="http://www.w3.org/1999/xlink">
<defs>
<symbol id="at" overflow="visible">
<path d="m12.891-3.2031h-7.0938l-1.125 3.2031h-4.5469l6.5-17.594h5.4062l6.5156 17.594h-4.5469zm-5.9688-3.2656h4.8281l-2.4062-7z"/>
</symbol>
<symbol id="ar" overflow="visible">
<path d="m11-2.2344c-0.58594 0.77344-1.2266 1.3398-1.9219 1.7031-0.69922 0.35547-1.5078 0.53125-2.4219 0.53125-1.6172 0-2.9492-0.63281-4-1.9062-1.0547-1.2695-1.5781-2.8828-1.5781-4.8438 0-1.9766 0.52344-3.5977 1.5781-4.8594 1.0508-1.2578 2.3828-1.8906 4-1.8906 0.91406 0 1.7227 0.18359 2.4219 0.54688 0.69531 0.36719 1.3359 0.93359 1.9219 1.7031v-1.9531h4.25v11.875c0 2.1133-0.67188 3.7266-2.0156 4.8438-1.3438 1.125-3.2891 1.6875-5.8281 1.6875-0.82422 0-1.6211-0.0625-2.3906-0.1875-0.77344-0.125-1.543-0.32031-2.3125-0.57812v-3.2812c0.73828 0.42578 1.457 0.74219 2.1562 0.95312 0.70703 0.20703 1.4219 0.3125 2.1406 0.3125 1.3828 0 2.3945-0.30859 3.0312-0.92188 0.64453-0.60547 0.96875-1.5469 0.96875-2.8281zm-2.7812-8.2188c-0.86719 0-1.543 0.32422-2.0312 0.96875-0.49219 0.64844-0.73438 1.5586-0.73438 2.7344 0 1.2109 0.23438 2.125 0.70312 2.75 0.47656 0.625 1.1641 0.9375 2.0625 0.9375 0.88281 0 1.5664-0.32031 2.0469-0.96875 0.48828-0.64453 0.73438-1.5508 0.73438-2.7188 0-1.1758-0.24609-2.0859-0.73438-2.7344-0.48047-0.64453-1.1641-0.96875-2.0469-0.96875z"/>
</symbol>
<symbol id="q" overflow="visible">
<path d="m15.203-6.6406v1.2031h-9.8594c0.09375 0.99219 0.44531 1.7344 1.0625 2.2344 0.61328 0.49219 1.4688 0.73438 2.5625 0.73438 0.89453 0 1.8047-0.12891 2.7344-0.39062 0.92578-0.25781 1.8828-0.66016 2.875-1.2031v3.2656c-1 0.375-2 0.65625-3 0.84375-1 0.19531-1.9961 0.29688-2.9844 0.29688-2.3984 0-4.2578-0.60156-5.5781-1.8125-1.3242-1.2188-1.9844-2.9258-1.9844-5.125 0-2.1445 0.64844-3.832 1.9531-5.0625 1.3008-1.2383 3.0938-1.8594 5.375-1.8594 2.0703 0 3.7266 0.625 4.9688 1.875 1.25 1.25 1.875 2.918 1.875 5zm-4.3438-1.3906c0-0.80078-0.23438-1.4453-0.70312-1.9375-0.46875-0.5-1.0781-0.75-1.8281-0.75-0.8125 0-1.4766 0.23438-1.9844 0.70312-0.51172 0.46094-0.82812 1.1211-0.95312 1.9844z"/>
</symbol>
<symbol id="p" overflow="visible"></symbol>
<symbol id="aq" overflow="visible">
<path d="m2.0312-13.203h4.2188v13.203h-4.2188zm0-5.1406h4.2188v3.4375h-4.2188z"/>
</symbol>
<symbol id="ap" overflow="visible">
<path d="m15.297-8.0312v8.0312h-4.25v-6.1562c0-1.1328-0.027344-1.9141-0.078125-2.3438-0.054688-0.4375-0.14062-0.75781-0.26562-0.96875-0.16797-0.26953-0.39062-0.48438-0.67188-0.64062s-0.60156-0.23438-0.95312-0.23438c-0.88672 0-1.5781 0.34375-2.0781 1.0312-0.5 0.67969-0.75 1.6172-0.75 2.8125v6.5h-4.2188v-13.203h4.2188v1.9375c0.63281-0.76953 1.3047-1.3359 2.0156-1.7031 0.71875-0.36328 1.5078-0.54688 2.375-0.54688 1.5195 0 2.6758 0.46875 3.4688 1.4062 0.78906 0.92969 1.1875 2.2891 1.1875 4.0781z"/>
</symbol>
<symbol id="ao" overflow="visible">
<path d="m0.29688-13.203h4.2188l3.5469 8.9531 3.0156-8.9531h4.2188l-5.5625 14.453c-0.55469 1.4688-1.2031 2.4922-1.9531 3.0781-0.74219 0.58203-1.7148 0.875-2.9219 0.875h-2.4375v-2.7656h1.3125c0.71875 0 1.2383-0.11719 1.5625-0.34375 0.32031-0.23047 0.57812-0.63672 0.76562-1.2188l0.10938-0.375z"/>
</symbol>
<symbol id="an" overflow="visible">
<path d="m7.9375-5.9375c-0.875 0-1.5391 0.15234-1.9844 0.45312-0.4375 0.29297-0.65625 0.73047-0.65625 1.3125 0 0.53125 0.17578 0.94922 0.53125 1.25 0.35156 0.30469 0.84766 0.45312 1.4844 0.45312 0.78906 0 1.457-0.28125 2-0.84375 0.53906-0.57031 0.8125-1.2852 0.8125-2.1406v-0.48438zm6.4531-1.5938v7.5312h-4.2656v-1.9531c-0.5625 0.80469-1.1992 1.3867-1.9062 1.75-0.71094 0.36328-1.5703 0.54688-2.5781 0.54688-1.3672 0-2.4766-0.39453-3.3281-1.1875-0.85547-0.80078-1.2812-1.8359-1.2812-3.1094 0-1.5508 0.53125-2.6875 1.5938-3.4062 1.0703-0.72656 2.7422-1.0938 5.0156-1.0938h2.4844v-0.32812c0-0.66406-0.26562-1.1562-0.79688-1.4688-0.52344-0.3125-1.3398-0.46875-2.4531-0.46875-0.89844 0-1.7344 0.09375-2.5156 0.28125-0.78125 0.17969-1.5078 0.44922-2.1719 0.8125v-3.2188c0.90625-0.21875 1.8125-0.38281 2.7188-0.5 0.91406-0.11328 1.8281-0.17188 2.7344-0.17188 2.3828 0 4.1016 0.46875 5.1562 1.4062 1.0625 0.9375 1.5938 2.4648 1.5938 4.5781z"/>
</symbol>
<symbol id="am" overflow="visible">
<path d="m11.828-9.6094c-0.375-0.16406-0.74609-0.28906-1.1094-0.375-0.36719-0.082031-0.73047-0.125-1.0938-0.125-1.0859 0-1.918 0.35156-2.5 1.0469-0.58594 0.6875-0.875 1.6836-0.875 2.9844v6.0781h-4.2188v-13.203h4.2188v2.1719c0.53906-0.86328 1.1602-1.4922 1.8594-1.8906 0.70703-0.39453 1.5508-0.59375 2.5312-0.59375 0.13281 0 0.28516 0.007813 0.45312 0.015625 0.16406 0.011719 0.40625 0.039062 0.71875 0.078125z"/>
</symbol>
<symbol id="as" overflow="visible">
<path d="m12.328-12.797v3.2188c-0.89844-0.38281-1.7656-0.67188-2.6094-0.85938s-1.6367-0.28125-2.375-0.28125c-0.80469 0-1.4023 0.10547-1.7969 0.3125-0.38672 0.19922-0.57812 0.50781-0.57812 0.92188 0 0.33594 0.14453 0.59375 0.4375 0.78125 0.30078 0.17969 0.83203 0.30859 1.5938 0.39062l0.73438 0.10938c2.1641 0.27344 3.6172 0.72656 4.3594 1.3594 0.75 0.625 1.125 1.6094 1.125 2.9531 0 1.4062-0.52344 2.4648-1.5625 3.1719-1.0312 0.71094-2.5781 1.0625-4.6406 1.0625-0.86719 0-1.7656-0.074219-2.7031-0.21875-0.92969-0.13281-1.8828-0.33594-2.8594-0.60938v-3.2031c0.83203 0.40625 1.6914 0.71484 2.5781 0.92188 0.88281 0.19922 1.7812 0.29688 2.6875 0.29688 0.83203 0 1.457-0.10938 1.875-0.32812 0.41406-0.22656 0.625-0.56641 0.625-1.0156 0-0.38281-0.14844-0.66406-0.4375-0.84375-0.28125-0.1875-0.85547-0.33203-1.7188-0.4375l-0.73438-0.09375c-1.875-0.23828-3.1953-0.67578-3.9531-1.3125-0.75-0.63281-1.125-1.5977-1.125-2.8906 0-1.4062 0.47656-2.4414 1.4375-3.1094 0.95703-0.67578 2.4258-1.0156 4.4062-1.0156 0.76953 0 1.582 0.058594 2.4375 0.17188 0.86328 0.11719 1.7969 0.29688 2.7969 0.54688z"/>
</symbol>
<symbol id="c" overflow="visible">
<path d="m6.0781-10.344-4 6.25h4zm-0.42188-1.3906h2v7.6406h1.6719v1.3281h-1.6719v2.7656h-1.5781v-2.7656h-5.2969v-1.5312z"/>
</symbol>
<symbol id="a" overflow="visible">
<path d="m1.7344-11.734h6.2188v1.3438h-4.7656v2.875c0.22656-0.082031 0.45703-0.14062 0.6875-0.17188 0.22656-0.039062 0.45703-0.0625 0.6875-0.0625 1.3125 0 2.3477 0.35938 3.1094 1.0781 0.76953 0.71094 1.1562 1.6797 1.1562 2.9062 0 1.2617-0.39844 2.2461-1.1875 2.9531-0.78125 0.69922-1.8867 1.0469-3.3125 1.0469-0.49219 0-0.99219-0.046875-1.5-0.14062-0.51172-0.085938-1.043-0.20703-1.5938-0.375v-1.5938c0.47656 0.26172 0.96875 0.45312 1.4688 0.57812s1.0312 0.1875 1.5938 0.1875c0.90625 0 1.6172-0.23438 2.1406-0.70312 0.53125-0.47656 0.79688-1.1289 0.79688-1.9531 0-0.8125-0.26562-1.457-0.79688-1.9375-0.52344-0.47656-1.2344-0.71875-2.1406-0.71875-0.42969 0-0.85547 0.046875-1.2812 0.14062-0.41797 0.09375-0.84375 0.24219-1.2812 0.4375z"/>
</symbol>
<symbol id="d" overflow="visible">
<path d="m0.78125-5.0469h4.2344v1.2812h-4.2344z"/>
</symbol>
<symbol id="g" overflow="visible">
<path d="m5.3125-6.5c-0.71875 0-1.2891 0.24609-1.7031 0.73438-0.41797 0.49219-0.625 1.1562-0.625 2s0.20703 1.5117 0.625 2c0.41406 0.49219 0.98438 0.73438 1.7031 0.73438 0.70703 0 1.2695-0.24219 1.6875-0.73438 0.41406-0.48828 0.625-1.1562 0.625-2s-0.21094-1.5078-0.625-2c-0.41797-0.48828-0.98047-0.73438-1.6875-0.73438zm3.1406-4.9688v1.4375c-0.39844-0.1875-0.79688-0.32812-1.2031-0.42188-0.40625-0.10156-0.80859-0.15625-1.2031-0.15625-1.0547 0-1.8555 0.35547-2.4062 1.0625-0.55469 0.71094-0.86719 1.7773-0.9375 3.2031 0.30078-0.45703 0.6875-0.80469 1.1562-1.0469 0.46875-0.23828 0.98438-0.35938 1.5469-0.35938 1.1758 0 2.1016 0.35938 2.7812 1.0781 0.6875 0.71094 1.0312 1.6797 1.0312 2.9062 0 1.2109-0.35938 2.1797-1.0781 2.9062-0.71094 0.73047-1.6523 1.0938-2.8281 1.0938-1.3555 0-2.3906-0.51953-3.1094-1.5625-0.71875-1.0391-1.0781-2.5508-1.0781-4.5312 0-1.8516 0.4375-3.3281 1.3125-4.4219 0.88281-1.1016 2.0664-1.6562 3.5469-1.6562 0.39453 0 0.79688 0.042969 1.2031 0.125 0.40625 0.074219 0.82812 0.1875 1.2656 0.34375z"/>
</symbol>
<symbol id="aj" overflow="visible">
<path d="m6.5312-6.3281c0.75 0.16797 1.3359 0.50781 1.7656 1.0156 0.42578 0.51172 0.64062 1.1484 0.64062 1.9062 0 1.1562-0.39844 2.0547-1.1875 2.6875-0.79297 0.63672-1.9219 0.95312-3.3906 0.95312-0.49219 0-0.99609-0.054687-1.5156-0.15625-0.52344-0.09375-1.0625-0.23828-1.625-0.4375v-1.5312c0.44531 0.26172 0.92969 0.46094 1.4531 0.59375 0.51953 0.125 1.0664 0.1875 1.6406 0.1875 0.98828 0 1.7422-0.19141 2.2656-0.57812 0.51953-0.39453 0.78125-0.96875 0.78125-1.7188 0-0.69531-0.24609-1.2383-0.73438-1.625-0.48047-0.39453-1.1523-0.59375-2.0156-0.59375h-1.3594v-1.2969h1.4219c0.78125 0 1.3789-0.15625 1.7969-0.46875 0.41406-0.3125 0.625-0.75781 0.625-1.3438 0-0.60156-0.21484-1.0664-0.64062-1.3906-0.42969-0.32031-1.043-0.48438-1.8438-0.48438-0.42969 0-0.89062 0.046875-1.3906 0.14062s-1.0469 0.24219-1.6406 0.4375v-1.4062c0.60156-0.16406 1.1641-0.28906 1.6875-0.375 0.53125-0.082031 1.0234-0.125 1.4844-0.125 1.207 0 2.1602 0.27734 2.8594 0.82812 0.70703 0.54297 1.0625 1.2773 1.0625 2.2031 0 0.65625-0.1875 1.2109-0.5625 1.6562-0.375 0.44922-0.90234 0.75781-1.5781 0.92188z"/>
</symbol>
<symbol id="b" overflow="visible">
<path d="m5.1094-10.688c-0.8125 0-1.4297 0.40234-1.8438 1.2031-0.40625 0.80469-0.60938 2.0117-0.60938 3.625 0 1.6172 0.20312 2.8242 0.60938 3.625 0.41406 0.80469 1.0312 1.2031 1.8438 1.2031 0.82031 0 1.4375-0.39844 1.8438-1.2031 0.41406-0.80078 0.625-2.0078 0.625-3.625 0-1.6133-0.21094-2.8203-0.625-3.625-0.40625-0.80078-1.0234-1.2031-1.8438-1.2031zm0-1.25c1.3125 0 2.3125 0.52344 3 1.5625 0.69531 1.0312 1.0469 2.5391 1.0469 4.5156 0 1.9805-0.35156 3.4922-1.0469 4.5312-0.6875 1.043-1.6875 1.5625-3 1.5625s-2.3203-0.51953-3.0156-1.5625c-0.6875-1.0391-1.0312-2.5508-1.0312-4.5312 0-1.9766 0.34375-3.4844 1.0312-4.5156 0.69531-1.0391 1.7031-1.5625 3.0156-1.5625z"/>
</symbol>
<symbol id="o" overflow="visible">
<path d="m1.3125-11.734h7.5469v0.67188l-4.2656 11.062h-1.6562l4.0156-10.391h-5.6406z"/>
</symbol>
<symbol id="n" overflow="visible">
<path d="m5.1094-5.5781c-0.75 0-1.3438 0.20312-1.7812 0.60938-0.42969 0.40625-0.64062 0.96484-0.64062 1.6719 0 0.71094 0.21094 1.2656 0.64062 1.6719 0.4375 0.39844 1.0312 0.59375 1.7812 0.59375s1.3438-0.20312 1.7812-0.60938 0.65625-0.95703 0.65625-1.6562c0-0.70703-0.21875-1.2656-0.65625-1.6719-0.42969-0.40625-1.0234-0.60938-1.7812-0.60938zm-1.5781-0.67188c-0.6875-0.16406-1.2266-0.47656-1.6094-0.9375-0.375-0.46875-0.5625-1.0391-0.5625-1.7188 0-0.9375 0.33203-1.6758 1-2.2188 0.67578-0.53906 1.5938-0.8125 2.75-0.8125 1.1641 0 2.082 0.27344 2.75 0.8125 0.66406 0.54297 1 1.2812 1 2.2188 0 0.67969-0.19531 1.25-0.57812 1.7188-0.375 0.46094-0.90234 0.77344-1.5781 0.9375 0.75781 0.17969 1.3516 0.52734 1.7812 1.0469 0.42578 0.52344 0.64062 1.1562 0.64062 1.9062 0 1.1367-0.35156 2.0117-1.0469 2.625-0.6875 0.60547-1.6797 0.90625-2.9688 0.90625-1.293 0-2.2891-0.30078-2.9844-0.90625-0.6875-0.61328-1.0312-1.4883-1.0312-2.625 0-0.75 0.21094-1.3828 0.64062-1.9062 0.42578-0.51953 1.0234-0.86719 1.7969-1.0469zm-0.59375-2.5c0 0.60547 0.1875 1.0781 0.5625 1.4219 0.38281 0.33594 0.92188 0.5 1.6094 0.5 0.67578 0 1.207-0.16406 1.5938-0.5 0.38281-0.34375 0.57812-0.81641 0.57812-1.4219 0-0.61328-0.19531-1.0859-0.57812-1.4219-0.38672-0.34375-0.91797-0.51562-1.5938-0.51562-0.6875 0-1.2266 0.17188-1.6094 0.51562-0.375 0.33594-0.5625 0.80859-0.5625 1.4219z"/>
</symbol>
<symbol id="ai" overflow="visible">
<path d="m7.3906-10.094v4.375h4.375v1.3438h-4.375v4.375h-1.3125v-4.375h-4.375v-1.3438h4.375v-4.375z"/>
</symbol>
<symbol id="al" overflow="visible">
<path d="m3.0781-1.3281h5.5469v1.3281h-7.4531v-1.3281c0.60156-0.625 1.4258-1.4609 2.4688-2.5156 1.0391-1.0508 1.6914-1.7266 1.9531-2.0312 0.50781-0.57031 0.86328-1.0547 1.0625-1.4531 0.20703-0.39453 0.3125-0.78516 0.3125-1.1719 0-0.625-0.21875-1.1289-0.65625-1.5156-0.4375-0.39453-1.0117-0.59375-1.7188-0.59375-0.49219 0-1.0117 0.089844-1.5625 0.26562-0.55469 0.16797-1.1484 0.42969-1.7812 0.78125v-1.6094c0.64453-0.25 1.2422-0.4375 1.7969-0.5625 0.55078-0.13281 1.0547-0.20312 1.5156-0.20312 1.2188 0 2.1875 0.30469 2.9062 0.90625 0.72656 0.60547 1.0938 1.418 1.0938 2.4375 0 0.48047-0.09375 0.9375-0.28125 1.375-0.17969 0.42969-0.50781 0.93359-0.98438 1.5156-0.125 0.15625-0.54297 0.60156-1.25 1.3281-0.69922 0.71875-1.6875 1.7344-2.9688 3.0469z"/>
</symbol>
<symbol id="ak" overflow="visible">
<path d="m2-1.3281h2.5781v-8.9531l-2.8125 0.5625v-1.4531l2.7969-0.5625h1.5938v10.406h2.5938v1.3281h-6.75z"/>
</symbol>
<symbol id="ah" overflow="visible">
<path d="m-11.719-1.4844v-3.0156h4.4688v-4.4688h-4.4688v-3.0156h11.719v3.0156h-4.9688v4.4688h4.9688v3.0156z"/>
</symbol>
<symbol id="m" overflow="visible">
<path d="m-4.4219-10.141h0.79688v6.5781c0.66797-0.0625 1.168-0.29688 1.5-0.70312 0.32422-0.41406 0.48438-0.98828 0.48438-1.7188 0-0.59375-0.085937-1.1953-0.26562-1.8125-0.17578-0.625-0.44141-1.2656-0.79688-1.9219h2.1719c0.25 0.66797 0.4375 1.3359 0.5625 2 0.13281 0.65625 0.20312 1.3203 0.20312 1.9844 0 1.5938-0.40625 2.8359-1.2188 3.7188-0.8125 0.88672-1.9453 1.3281-3.4062 1.3281-1.4375 0-2.5625-0.42969-3.375-1.2969-0.82031-0.875-1.2344-2.0703-1.2344-3.5938 0-1.375 0.41797-2.4766 1.25-3.3125 0.82422-0.83203 1.9336-1.25 3.3281-1.25zm-0.9375 2.8906c-0.53125 0-0.95703 0.15625-1.2812 0.46875-0.33203 0.3125-0.5 0.71875-0.5 1.2188 0 0.55469 0.15625 1 0.46875 1.3438 0.30469 0.33594 0.74219 0.54297 1.3125 0.625z"/>
</symbol>
<symbol id="l" overflow="visible">
<path d="m-3.9531-5.2969c0 0.58594 0.10156 1.0273 0.29688 1.3281 0.19922 0.29297 0.49219 0.4375 0.875 0.4375 0.35547 0 0.63672-0.11719 0.84375-0.35938 0.19922-0.23828 0.29688-0.56641 0.29688-0.98438 0-0.53125-0.1875-0.97656-0.5625-1.3438-0.38281-0.36328-0.86328-0.54688-1.4375-0.54688h-0.3125zm-1.0625-4.2969h5.0156v2.8281h-1.2969c0.53125 0.38672 0.92188 0.8125 1.1719 1.2812 0.23828 0.46875 0.35938 1.043 0.35938 1.7188 0 0.91797-0.26562 1.6641-0.79688 2.2344-0.53125 0.5625-1.2227 0.84375-2.0781 0.84375-1.0312 0-1.7852-0.35156-2.2656-1.0625-0.47656-0.71875-0.71875-1.832-0.71875-3.3438v-1.6719h-0.21875c-0.44531 0-0.77344 0.17969-0.98438 0.53125-0.20703 0.35547-0.3125 0.90234-0.3125 1.6406 0 0.60547 0.0625 1.168 0.1875 1.6875 0.11719 0.52344 0.29688 1 0.54688 1.4375h-2.1562c-0.14453-0.59375-0.25391-1.1914-0.32812-1.7969-0.070313-0.61328-0.10938-1.2227-0.10938-1.8281 0-1.5938 0.3125-2.7383 0.9375-3.4375 0.625-0.70703 1.6406-1.0625 3.0469-1.0625z"/>
</symbol>
<symbol id="k" overflow="visible">
<path d="m-6.3906-7.8906c-0.125 0.25-0.21094 0.49609-0.26562 0.73438-0.050781 0.24219-0.078125 0.48438-0.078125 0.73438 0 0.73047 0.23438 1.2891 0.70312 1.6719 0.46094 0.38672 1.1211 0.57812 1.9844 0.57812h4.0469v2.8125h-8.7969v-2.8125h1.4531c-0.58203-0.35156-1.0039-0.76562-1.2656-1.2344-0.25781-0.46875-0.39062-1.0312-0.39062-1.6875 0-0.09375 0.007812-0.19141 0.015625-0.29688 0-0.11328 0.015625-0.27344 0.046875-0.48438z"/>
</symbol>
<symbol id="f" overflow="visible">
<path d="m-8.7969-1.3594v-2.8125h8.7969v2.8125zm-3.4219 0v-2.8125h2.2969v2.8125z"/>
</symbol>
<symbol id="j" overflow="visible">
<path d="m-5.3594-10.203h5.3594v2.8281h-4.0938c-0.75781 0-1.2812 0.023438-1.5625 0.0625-0.28906 0.03125-0.50391 0.089844-0.64062 0.17188-0.1875 0.10547-0.33203 0.25781-0.4375 0.45312-0.10156 0.1875-0.15625 0.40234-0.15625 0.64062 0 0.58594 0.23047 1.043 0.6875 1.375 0.44922 0.33594 1.0742 0.5 1.875 0.5h4.3281v2.8125h-8.7969v-2.8125h1.2969c-0.51953-0.41406-0.89844-0.86328-1.1406-1.3438-0.23828-0.47656-0.35938-1.0039-0.35938-1.5781 0-1.0195 0.3125-1.7891 0.9375-2.3125 0.61719-0.53125 1.5156-0.79688 2.7031-0.79688z"/>
</symbol>
<symbol id="ad" overflow="visible">
<path d="m-1.4844-7.3438c0.51172 0.38672 0.88672 0.8125 1.125 1.2812 0.24219 0.46875 0.35938 1.0117 0.35938 1.625 0 1.0742-0.42188 1.9648-1.2656 2.6719-0.84375 0.69922-1.9219 1.0469-3.2344 1.0469s-2.3828-0.34766-3.2188-1.0469c-0.84375-0.70703-1.2656-1.5977-1.2656-2.6719 0-0.61328 0.12109-1.1562 0.35938-1.625 0.24219-0.46875 0.62109-0.89453 1.1406-1.2812h-1.3125v-2.8281h7.9062c1.4141 0 2.4922 0.44922 3.2344 1.3438 0.75 0.89844 1.125 2.1953 1.125 3.8906 0 0.54297-0.042969 1.0742-0.125 1.5938-0.085938 0.51172-0.21484 1.0273-0.39062 1.5469h-2.1875c0.28125-0.48828 0.48828-0.96875 0.625-1.4375 0.14453-0.47656 0.21875-0.95703 0.21875-1.4375 0-0.91406-0.20312-1.5859-0.60938-2.0156-0.39844-0.4375-1.0234-0.65625-1.8906-0.65625zm-5.4844 1.8594c0 0.58594 0.21875 1.0391 0.65625 1.3594 0.42969 0.32422 1.0312 0.48438 1.8125 0.48438 0.80469 0 1.4141-0.15625 1.8281-0.46875 0.41797-0.3125 0.625-0.76953 0.625-1.375 0-0.58203-0.21094-1.0352-0.64062-1.3594-0.42578-0.33203-1.0312-0.5-1.8125-0.5s-1.3828 0.16797-1.8125 0.5c-0.4375 0.32422-0.65625 0.77734-0.65625 1.3594z"/>
</symbol>
<symbol id="ac" overflow="visible"></symbol>
<symbol id="i" overflow="visible">
<path d="m-7.3281-9.5156c-0.55078-0.35156-0.96875-0.77344-1.25-1.2656-0.28125-0.48828-0.42188-1.0234-0.42188-1.6094 0-1.0078 0.3125-1.7812 0.9375-2.3125 0.61719-0.53125 1.5156-0.79688 2.7031-0.79688h5.3594v2.8281h-4.5781-0.21875c-0.070313-0.007813-0.17578-0.015625-0.3125-0.015625-0.625 0-1.0781 0.09375-1.3594 0.28125-0.28125 0.17969-0.42188 0.47656-0.42188 0.89062 0 0.53125 0.22656 0.94531 0.67188 1.2344 0.4375 0.29297 1.0742 0.44531 1.9062 0.45312h4.3125v2.8281h-4.5781c-0.97656 0-1.6094 0.085938-1.8906 0.25-0.28125 0.16797-0.42188 0.46484-0.42188 0.89062 0 0.54297 0.22656 0.96094 0.67188 1.25 0.4375 0.29297 1.0703 0.4375 1.8906 0.4375h4.3281v2.8438h-8.7969v-2.8438h1.2969c-0.5-0.34375-0.875-0.73828-1.125-1.1875-0.25-0.44531-0.375-0.94141-0.375-1.4844 0-0.60156 0.14844-1.1328 0.4375-1.5938 0.29297-0.46875 0.70312-0.82812 1.2344-1.0781z"/>
</symbol>
<symbol id="ag" overflow="visible">
<path d="m-1.2656-4.1719h4.6094v2.8125h-12.141v-2.8125h1.2969c-0.51953-0.38281-0.89844-0.8125-1.1406-1.2812-0.23828-0.46875-0.35938-1.0078-0.35938-1.625 0-1.082 0.43359-1.9727 1.2969-2.6719 0.85547-0.69531 1.9609-1.0469 3.3125-1.0469 1.3555 0 2.4648 0.35156 3.3281 1.0469 0.86719 0.69922 1.2969 1.5898 1.2969 2.6719 0 0.61719-0.12109 1.1562-0.35938 1.625-0.25 0.46875-0.62891 0.89844-1.1406 1.2812zm-5.7031-1.8594c0 0.60547 0.22656 1.0703 0.67188 1.3906 0.4375 0.3125 1.0742 0.46875 1.9062 0.46875 0.83594 0 1.4766-0.15625 1.9219-0.46875 0.4375-0.32031 0.65625-0.78516 0.65625-1.3906 0-0.60156-0.21875-1.0625-0.65625-1.375-0.4375-0.32031-1.0781-0.48438-1.9219-0.48438-0.83203 0-1.4688 0.16406-1.9062 0.48438-0.44531 0.3125-0.67188 0.77344-0.67188 1.375z"/>
</symbol>
<symbol id="af" overflow="visible">
<path d="m-11.297-4.4219h2.5v-2.9062h2.0156v2.9062h3.7344c0.40625 0 0.68359-0.078125 0.82812-0.23438 0.13672-0.16406 0.20312-0.49219 0.20312-0.98438v-1.4375h2.0156v2.4062c0 1.1172-0.22656 1.9062-0.6875 2.375-0.46875 0.46094-1.2539 0.6875-2.3594 0.6875h-3.7344v1.3906h-2.0156v-1.3906h-2.5z"/>
</symbol>
<symbol id="ae" overflow="visible">
<path d="m-8.5156-8.2344h2.1406c-0.25781 0.60547-0.45312 1.1875-0.57812 1.75s-0.1875 1.0938-0.1875 1.5938c0 0.53125 0.070313 0.92969 0.20312 1.1875 0.13672 0.26172 0.34375 0.39062 0.625 0.39062 0.21875 0 0.39062-0.097656 0.51562-0.29688 0.11719-0.19531 0.20312-0.55078 0.26562-1.0625l0.0625-0.48438c0.1875-1.4453 0.49219-2.4141 0.90625-2.9062 0.41797-0.5 1.0742-0.75 1.9688-0.75 0.9375 0 1.6484 0.34375 2.125 1.0312 0.46875 0.6875 0.70312 1.7188 0.70312 3.0938 0 0.58594-0.046875 1.1875-0.14062 1.8125-0.09375 0.61719-0.23438 1.25-0.42188 1.9062h-2.125c0.27344-0.5625 0.47656-1.1328 0.60938-1.7188 0.13672-0.59375 0.20312-1.1914 0.20312-1.7969 0-0.55078-0.070313-0.96094-0.21875-1.2344-0.15625-0.28125-0.38281-0.42188-0.6875-0.42188-0.25 0-0.4375 0.09375-0.5625 0.28125s-0.21875 0.57031-0.28125 1.1406l-0.0625 0.5c-0.15625 1.25-0.44531 2.1328-0.875 2.6406-0.42578 0.5-1.0664 0.75-1.9219 0.75-0.9375 0-1.6289-0.31641-2.0781-0.95312-0.44531-0.64453-0.67188-1.6289-0.67188-2.9531 0-0.51953 0.042969-1.0625 0.125-1.625 0.074219-0.57031 0.19531-1.1953 0.35938-1.875z"/>
</symbol>
<symbol id="ab" overflow="visible">
<path d="m-12.219-1.3906v-3.3281h1.125v1.8906h12.094v-1.8906h1.125v3.3281z"/>
</symbol>
<symbol id="w" overflow="visible">
<path d="m-5.1562-11.703c0 0.46094 0.19531 0.82031 0.57812 1.0781 0.38672 0.26172 0.92969 0.39062 1.625 0.39062 0.67969 0 1.2148-0.12891 1.6094-0.39062 0.38672-0.25781 0.57812-0.61719 0.57812-1.0781 0-0.44531-0.19141-0.79688-0.57812-1.0469-0.39453-0.25781-0.92969-0.39062-1.6094-0.39062-0.6875 0-1.2227 0.13281-1.6094 0.39062-0.39453 0.25-0.59375 0.60156-0.59375 1.0469zm-1 0c0-0.82031 0.29297-1.4766 0.875-1.9688 0.57422-0.48828 1.3516-0.73438 2.3281-0.73438 0.98047 0 1.7578 0.24609 2.3281 0.73438 0.57422 0.49219 0.85938 1.1484 0.85938 1.9688 0 0.84375-0.28516 1.5117-0.85938 2-0.57031 0.48047-1.3477 0.71875-2.3281 0.71875-0.98828 0-1.7695-0.24219-2.3438-0.73438-0.57031-0.48828-0.85938-1.1484-0.85938-1.9844zm-4.7812 8.1094c0 0.44922 0.19922 0.80469 0.59375 1.0625 0.38672 0.26172 0.91797 0.39062 1.5938 0.39062 0.69922 0 1.2422-0.125 1.625-0.375 0.38672-0.25781 0.57812-0.61719 0.57812-1.0781 0-0.45703-0.19141-0.8125-0.57812-1.0625-0.38281-0.25781-0.92578-0.39062-1.625-0.39062-0.67578 0-1.207 0.13281-1.5938 0.39062-0.39453 0.26172-0.59375 0.61719-0.59375 1.0625zm-1-7.0938v-1.25l12.172 7.3281v1.2656zm0 7.0938c0-0.82031 0.28906-1.4766 0.85938-1.9688 0.57422-0.5 1.3516-0.75 2.3281-0.75 0.99219 0 1.7734 0.24609 2.3438 0.73438 0.57422 0.49219 0.85938 1.1523 0.85938 1.9844 0 0.83594-0.28516 1.4961-0.85938 1.9844-0.57031 0.48047-1.3516 0.71875-2.3438 0.71875-0.96875 0-1.7383-0.23828-2.3125-0.71875-0.58203-0.48828-0.875-1.1484-0.875-1.9844z"/>
</symbol>
<symbol id="e" overflow="visible"></symbol>
<symbol id="v" overflow="visible">
<path d="m-8.7969-1.5156v-1.4531h8.7969v1.4531zm-3.4219 0v-1.4531h1.8281v1.4531z"/>
</symbol>
<symbol id="u" overflow="visible">
<path d="m-5.3125-8.8281h5.3125v1.4375h-5.2656c-0.83203 0-1.4531 0.16797-1.8594 0.5-0.41406 0.32422-0.625 0.80859-0.625 1.4531 0 0.78125 0.25 1.3984 0.75 1.8438 0.5 0.44922 1.1797 0.67188 2.0312 0.67188h4.9688v1.4531h-8.7969v-1.4531h1.375c-0.53125-0.34375-0.92578-0.75-1.1875-1.2188-0.25781-0.46875-0.39062-1.0078-0.39062-1.625 0-1.0078 0.3125-1.7695 0.9375-2.2812 0.625-0.51953 1.543-0.78125 2.75-0.78125z"/>
</symbol>
<symbol id="t" overflow="visible">
<path d="m-4.4219-5.5156c0 1.168 0.13672 1.9805 0.40625 2.4375 0.26172 0.44922 0.71484 0.67188 1.3594 0.67188 0.51172 0 0.91797-0.16406 1.2188-0.5 0.30469-0.34375 0.45312-0.80469 0.45312-1.3906 0-0.80078-0.28125-1.4414-0.84375-1.9219-0.57031-0.48828-1.3281-0.73438-2.2656-0.73438h-0.32812zm-0.59375-2.8906h5.0156v1.4531h-1.3281c0.53125 0.33594 0.92969 0.74609 1.1875 1.2344 0.25 0.49219 0.375 1.0938 0.375 1.8125 0 0.89844-0.25 1.6094-0.75 2.1406-0.50781 0.53125-1.1914 0.79688-2.0469 0.79688-0.98828 0-1.7344-0.32812-2.2344-0.98438-0.5-0.66406-0.75-1.6562-0.75-2.9688v-2.0312h-0.14062c-0.66406 0-1.1797 0.21875-1.5469 0.65625-0.36328 0.4375-0.54688 1.0547-0.54688 1.8438 0 0.5 0.0625 0.99219 0.1875 1.4688 0.11719 0.48047 0.29297 0.9375 0.53125 1.375h-1.3281c-0.20703-0.53125-0.35938-1.0391-0.45312-1.5312-0.10156-0.5-0.15625-0.98828-0.15625-1.4688 0-1.2695 0.32812-2.2188 0.98438-2.8438 0.65625-0.63281 1.6562-0.95312 3-0.95312z"/>
</symbol>
<symbol id="h" overflow="visible">
<path d="m-4.5-7.3125c-1.0391 0-1.8477 0.21875-2.4219 0.65625-0.58203 0.42969-0.875 1.0312-0.875 1.8125s0.29297 1.3906 0.875 1.8281c0.57422 0.42969 1.3828 0.64062 2.4219 0.64062 1.043 0 1.8555-0.21094 2.4375-0.64062 0.57422-0.4375 0.85938-1.0469 0.85938-1.8281s-0.28516-1.3828-0.85938-1.8125c-0.58203-0.4375-1.3945-0.65625-2.4375-0.65625zm3.4062-1.4375c1.5 0 2.6133 0.33594 3.3438 1 0.72656 0.65625 1.0938 1.6719 1.0938 3.0469 0 0.51172-0.042969 0.99609-0.125 1.4531-0.074219 0.44922-0.1875 0.88281-0.34375 1.2969h-1.4062c0.23828-0.41406 0.41016-0.83203 0.51562-1.25 0.11328-0.41406 0.17188-0.83594 0.17188-1.2656 0-0.94531-0.25-1.6562-0.75-2.125-0.49219-0.47656-1.2344-0.71875-2.2344-0.71875h-0.71875c0.52344 0.30469 0.91406 0.6875 1.1719 1.1562 0.25 0.46094 0.375 1.0156 0.375 1.6719 0 1.0742-0.41016 1.9453-1.2344 2.6094-0.82031 0.65625-1.9102 0.98438-3.2656 0.98438-1.3633 0-2.4531-0.32812-3.2656-0.98438-0.82031-0.66406-1.2344-1.5352-1.2344-2.6094 0-0.65625 0.13281-1.2109 0.39062-1.6719 0.25-0.46875 0.63672-0.85156 1.1562-1.1562h-1.3438v-1.4375z"/>
</symbol>
<symbol id="s" overflow="visible">
<path d="m-4.75-9.0469h0.70312v6.6562c0.99219-0.0625 1.7461-0.36328 2.2656-0.90625 0.52344-0.53906 0.78125-1.2891 0.78125-2.25 0-0.55078-0.066406-1.0859-0.20312-1.6094-0.13281-0.51953-0.33594-1.0352-0.60938-1.5469h1.3594c0.21875 0.52344 0.38672 1.0547 0.5 1.5938 0.125 0.54297 0.1875 1.0938 0.1875 1.6562 0 1.4062-0.40625 2.5234-1.2188 3.3438-0.82031 0.8125-1.9297 1.2188-3.3281 1.2188-1.4375 0-2.5781-0.38281-3.4219-1.1562-0.84375-0.78125-1.2656-1.832-1.2656-3.1562 0-1.1875 0.38281-2.125 1.1406-2.8125 0.76172-0.6875 1.7969-1.0312 3.1094-1.0312zm-0.4375 1.4531c-0.78125 0.011719-1.4062 0.23438-1.875 0.67188-0.47656 0.42969-0.71875 0.99609-0.71875 1.7031 0 0.8125 0.23047 1.4648 0.6875 1.9531 0.46094 0.48047 1.1016 0.75781 1.9219 0.82812z"/>
</symbol>
<symbol id="r" overflow="visible">
<path d="m-7.4375-6.6094c-0.09375 0.15625-0.16016 0.33594-0.20312 0.53125-0.050781 0.1875-0.078125 0.39844-0.078125 0.625 0 0.8125 0.26562 1.4375 0.79688 1.875s1.2969 0.65625 2.2969 0.65625h4.625v1.4531h-8.7969v-1.4531h1.375c-0.53906-0.30078-0.9375-0.69141-1.1875-1.1719-0.25781-0.48828-0.39062-1.082-0.39062-1.7812 0-0.10156 0.007812-0.21094 0.015625-0.32812 0.011719-0.125 0.03125-0.25781 0.0625-0.40625z"/>
</symbol>
<symbol id="aa" overflow="visible">
<path d="m-7.7812-4.9219c0 0.77344 0.30469 1.3867 0.90625 1.8438 0.60547 0.44922 1.4336 0.67188 2.4844 0.67188 1.0547 0 1.8828-0.22266 2.4844-0.67188 0.60547-0.44531 0.90625-1.0625 0.90625-1.8438 0-0.76953-0.30078-1.3789-0.90625-1.8281-0.60156-0.45703-1.4297-0.6875-2.4844-0.6875-1.0391 0-1.8633 0.23047-2.4688 0.6875-0.61328 0.44922-0.92188 1.0586-0.92188 1.8281zm-1.2188 0c0-1.2578 0.40625-2.25 1.2188-2.9688s1.9453-1.0781 3.3906-1.0781c1.4375 0 2.5703 0.35938 3.3906 1.0781 0.82422 0.71875 1.2344 1.7109 1.2344 2.9688 0 1.2617-0.41016 2.25-1.2344 2.9688-0.82031 0.71094-1.9531 1.0625-3.3906 1.0625-1.4453 0-2.5781-0.35156-3.3906-1.0625-0.8125-0.71875-1.2188-1.707-1.2188-2.9688z"/>
</symbol>
<symbol id="z" overflow="visible">
<path d="m-3.4688-1.375h-5.3281v-1.4375h5.2656c0.83594 0 1.4609-0.16016 1.875-0.48438 0.41797-0.32031 0.625-0.8125 0.625-1.4688 0-0.78125-0.24219-1.3945-0.73438-1.8438-0.5-0.45703-1.1797-0.6875-2.0469-0.6875h-4.9844v-1.4375h8.7969v1.4375h-1.3438c0.53125 0.35547 0.92969 0.76562 1.1875 1.2344 0.25781 0.46094 0.39062 0.99609 0.39062 1.6094 0 1.0117-0.3125 1.7773-0.9375 2.2969-0.63281 0.52344-1.5547 0.78125-2.7656 0.78125z"/>
</symbol>
<symbol id="y" overflow="visible">
<path d="m-1.3125-2.9219h4.6562v1.4531h-12.141v-1.4531h1.3438c-0.53125-0.30078-0.92188-0.67969-1.1719-1.1406-0.25-0.46875-0.375-1.0234-0.375-1.6719 0-1.0625 0.42188-1.9258 1.2656-2.5938 0.84375-0.66406 1.9609-1 3.3438-1 1.3867 0 2.5078 0.33594 3.3594 1 0.84375 0.66797 1.2656 1.5312 1.2656 2.5938 0 0.64844-0.125 1.2031-0.375 1.6719-0.25781 0.46094-0.64844 0.83984-1.1719 1.1406zm-3.0781-4.9062c-1.0625 0-1.8945 0.21875-2.5 0.65625-0.60156 0.4375-0.90625 1.0391-0.90625 1.7969 0 0.76172 0.30469 1.3594 0.90625 1.7969 0.60547 0.4375 1.4375 0.65625 2.5 0.65625s1.8984-0.21875 2.5-0.65625c0.60547-0.4375 0.90625-1.0352 0.90625-1.7969 0-0.75781-0.30078-1.3594-0.90625-1.7969-0.60156-0.4375-1.4375-0.65625-2.5-0.65625z"/>
</symbol>
<symbol id="x" overflow="visible">
<path d="m-12.219-4.8906h14.344v3.3281h-1.125v-1.875h-12.094v1.875h-1.125z"/>
</symbol>
</defs>
<path d="m125.67 25.031h439.99v313.69h-439.99z" fill="#fff"/>
<path transform="matrix(2.6807 0 0 2.6815 -15.137 2.3967)" d="m216.66 125.42h-167.21" fill="none" stroke="#000" stroke-width=".5"/>
<path transform="matrix(2.6807 0 0 2.6815 -15.137 2.3967)" d="m52.527 8.4409v120.03" fill="none" stroke="#000" stroke-width=".5"/>
<path transform="matrix(2.6807 0 0 2.6815 -15.137 2.3967)" d="m52.527 8.4409h164.13v116.98h-164.13z" fill="none" stroke="#000" stroke-width="1.5"/>
<path transform="matrix(2.6807 0 0 2.6815 -15.137 2.3967)" d="m93.56 8.4409v120.03" fill="none" stroke="#000" stroke-width=".5"/>
<path transform="matrix(2.6807 0 0 2.6815 -15.137 2.3967)" d="m134.6 8.4409v120.03" fill="none" stroke="#000" stroke-width=".5"/>
<path transform="matrix(2.6807 0 0 2.6815 -15.137 2.3967)" d="m175.63 8.4409v120.03" fill="none" stroke="#000" stroke-width=".5"/>
<path transform="matrix(2.6807 0 0 2.6815 -15.137 2.3967)" d="m216.66 8.4409v120.03" fill="none" stroke="#000" stroke-width=".5"/>
<path transform="matrix(2.6807 0 0 2.6815 -15.137 2.3967)" d="m216.66 105.93h-167.21" fill="none" stroke="#000" stroke-width=".5"/>
<path transform="matrix(2.6807 0 0 2.6815 -15.137 2.3967)" d="m216.66 86.428h-167.21" fill="none" stroke="#000" stroke-width=".5"/>
<path transform="matrix(2.6807 0 0 2.6815 -15.137 2.3967)" d="m216.66 66.931h-167.21" fill="none" stroke="#000" stroke-width=".5"/>
<path transform="matrix(2.6807 0 0 2.6815 -15.137 2.3967)" d="m216.66 47.435h-167.21" fill="none" stroke="#000" stroke-width=".5"/>
<path transform="matrix(2.6807 0 0 2.6815 -15.137 2.3967)" d="m216.66 27.938h-167.21" fill="none" stroke="#000" stroke-width=".5"/>
<path transform="matrix(2.6807 0 0 2.6815 -15.137 2.3967)" d="m216.66 8.4409h-167.21" fill="none" stroke="#000" stroke-width=".5"/>
<g>
<use x="261.589844" y="424.223074" xlink:href="#at"/>
<use x="280.354518" y="424.223074" xlink:href="#ar"/>
<use x="296.438524" y="424.223074" xlink:href="#q"/>
<use x="312.522531" y="424.223074" xlink:href="#p"/>
<use x="320.564534" y="424.223074" xlink:href="#aq"/>
<use x="328.606537" y="424.223074" xlink:href="#ap"/>
<use x="344.690544" y="424.223074" xlink:href="#p"/>
<use x="352.732547" y="424.223074" xlink:href="#ao"/>
<use x="368.816554" y="424.223074" xlink:href="#q"/>
<use x="384.90056" y="424.223074" xlink:href="#an"/>
<use x="400.984567" y="424.223074" xlink:href="#am"/>
<use x="411.707237" y="424.223074" xlink:href="#as"/>
</g>
<g>
<use x="102.363281" y="384.836645" xlink:href="#c"/>
<use x="113.085952" y="384.836645" xlink:href="#a"/>
<use x="123.808623" y="384.836645" xlink:href="#d"/>
<use x="129.169959" y="384.836645" xlink:href="#a"/>
<use x="139.89263" y="384.836645" xlink:href="#c"/>
</g>
<g>
<use x="212.132812" y="384.836645" xlink:href="#a"/>
<use x="222.855483" y="384.836645" xlink:href="#a"/>
<use x="233.578154" y="384.836645" xlink:href="#d"/>
<use x="238.93949" y="384.836645" xlink:href="#g"/>
<use x="249.662161" y="384.836645" xlink:href="#c"/>
</g>
<g>
<use x="78.902344" y="187.731176" xlink:href="#aj"/>
<use x="89.625015" y="187.731176" xlink:href="#b"/>
</g>
<g>
<use x="78.902344" y="30.887426" xlink:href="#g"/>
<use x="89.625015" y="30.887426" xlink:href="#b"/>
</g>
<g>
<use x="322.1875" y="384.836645" xlink:href="#g"/>
<use x="332.910171" y="384.836645" xlink:href="#a"/>
<use x="343.632842" y="384.836645" xlink:href="#d"/>
<use x="348.994177" y="384.836645" xlink:href="#o"/>
<use x="359.716848" y="384.836645" xlink:href="#c"/>
</g>
<g>
<use x="432.085938" y="384.836645" xlink:href="#o"/>
<use x="442.808608" y="384.836645" xlink:href="#a"/>
<use x="453.531279" y="384.836645" xlink:href="#d"/>
<use x="458.892615" y="384.836645" xlink:href="#n"/>
<use x="469.615286" y="384.836645" xlink:href="#c"/>
</g>
<g>
<use x="548.996094" y="384.836645" xlink:href="#n"/>
<use x="559.718765" y="384.836645" xlink:href="#a"/>
<use x="570.441436" y="384.836645" xlink:href="#ai"/>
</g>
<g>
<use x="78.902344" y="240.012426" xlink:href="#al"/>
<use x="89.625015" y="240.012426" xlink:href="#b"/>
</g>
<g>
<use x="78.902344" y="292.293676" xlink:href="#ak"/>
<use x="89.625015" y="292.293676" xlink:href="#b"/>
</g>
<g>
<use x="89.136719" y="344.574926" xlink:href="#b"/>
</g>
<g>
<use x="78.902344" y="135.449926" xlink:href="#c"/>
<use x="89.625015" y="135.449926" xlink:href="#b"/>
</g>
<g>
<use x="78.902344" y="83.168676" xlink:href="#a"/>
<use x="89.625015" y="83.168676" xlink:href="#b"/>
</g>
<g>
<use x="31.210789" y="276.085938" xlink:href="#ah"/>
<use x="31.210789" y="262.678323" xlink:href="#m"/>
<use x="31.210789" y="251.952232" xlink:href="#l"/>
<use x="31.210789" y="241.226141" xlink:href="#k"/>
<use x="31.210789" y="233.181572" xlink:href="#f"/>
<use x="31.210789" y="227.818527" xlink:href="#j"/>
<use x="31.210789" y="217.092435" xlink:href="#ad"/>
<use x="31.210789" y="206.366344" xlink:href="#ac"/>
<use x="31.210789" y="201.003298" xlink:href="#f"/>
<use x="31.210789" y="195.640253" xlink:href="#i"/>
<use x="31.210789" y="179.551116" xlink:href="#ag"/>
<use x="31.210789" y="168.825025" xlink:href="#l"/>
<use x="31.210789" y="158.098933" xlink:href="#f"/>
<use x="31.210789" y="152.735888" xlink:href="#k"/>
<use x="31.210789" y="144.691319" xlink:href="#i"/>
<use x="31.210789" y="128.602182" xlink:href="#m"/>
<use x="31.210789" y="117.876091" xlink:href="#j"/>
<use x="31.210789" y="107.15" xlink:href="#af"/>
<use x="31.210789" y="99.105431" xlink:href="#ae"/>
</g>
<g>
<use x="51.316258" y="251.949219" xlink:href="#ab"/>
<use x="51.316258" y="246.586173" xlink:href="#w"/>
<use x="51.316258" y="230.497036" xlink:href="#e"/>
<use x="51.316258" y="225.133991" xlink:href="#v"/>
<use x="51.316258" y="219.770945" xlink:href="#u"/>
<use x="51.316258" y="209.044854" xlink:href="#e"/>
<use x="51.316258" y="203.681808" xlink:href="#t"/>
<use x="51.316258" y="192.955717" xlink:href="#h"/>
<use x="51.316258" y="182.229625" xlink:href="#s"/>
<use x="51.316258" y="171.503534" xlink:href="#e"/>
<use x="51.316258" y="166.140488" xlink:href="#h"/>
<use x="51.316258" y="155.414397" xlink:href="#r"/>
<use x="51.316258" y="150.051351" xlink:href="#aa"/>
<use x="51.316258" y="139.32526" xlink:href="#z"/>
<use x="51.316258" y="128.599169" xlink:href="#y"/>
<use x="51.316258" y="117.873078" xlink:href="#x"/>
</g>
<path transform="matrix(2.6807 0 0 2.6815 -15.137 2.3967)" d="m52.527 112.01c13.68-1.7961 27.685-2.2987 41.033-5.0374 14.068-2.8872 30.483-6.3805 41.035-11.322 27.88-13.057 31.505-19.098 41.033-26.444 16.49-12.713 41.033-47.097 41.033-47.097" fill="none" stroke="#00a" stroke-width=".75"/>
<path d="m119.64 296.73h12.062v12.066h-12.062z" fill="#00a"/>
<path d="m229.64 283.22h12.062v12.066h-12.062z" fill="#00a"/>
<path d="m339.63 252.86h12.066v12.066h-12.066z" fill="#00a"/>
<path d="m449.63 180.52h12.062v12.066h-12.062z" fill="#00a"/>
<path d="m559.4 55.98h12.062v12.07h-12.062z" fill="#00a"/>
</svg>
