<?xml version="1.0" encoding="UTF-8"?>
<svg width="800px" height="430px" version="1.1" viewBox="0 0 800 430" xmlns="http://www.w3.org/2000/svg" xmlns:xlink="http://www.w3.org/1999/xlink">
<defs>
<symbol id="aw" overflow="visible">
<path d="m11.156-2.7812h-6.1406l-0.96875 2.7812h-3.9375l5.6406-15.234h4.6719l5.6406 15.234h-3.9375zm-5.1562-2.8281h4.1719l-2.0781-6.0625z"/>
</symbol>
<symbol id="at" overflow="visible">
<path d="m1.75-15.891h3.6562v15.891h-3.6562z"/>
</symbol>
<symbol id="as" overflow="visible">
<path d="m5.75-14.672v3.2344h3.75v2.625h-3.75v4.8438c0 0.53125 0.10156 0.89062 0.3125 1.0781 0.20703 0.1875 0.625 0.28125 1.25 0.28125h1.875v2.6094h-3.125c-1.4492 0-2.4766-0.30078-3.0781-0.90625-0.59375-0.60156-0.89062-1.625-0.89062-3.0625v-4.8438h-1.8125v-2.625h1.8125v-3.2344z"/>
</symbol>
<symbol id="x" overflow="visible">
<path d="m13.156-5.75v1.0469h-8.5312c0.082031 0.85547 0.39062 1.4961 0.92188 1.9219 0.53125 0.42969 1.2695 0.64062 2.2188 0.64062 0.76953 0 1.5547-0.10938 2.3594-0.32812 0.8125-0.22656 1.6445-0.57812 2.5-1.0469v2.8281c-0.86719 0.32422-1.7305 0.57031-2.5938 0.73438-0.86719 0.16406-1.7305 0.25-2.5938 0.25-2.0742 0-3.6836-0.52344-4.8281-1.5781-1.1484-1.0508-1.7188-2.5234-1.7188-4.4219 0-1.8633 0.5625-3.3281 1.6875-4.3906 1.1328-1.0703 2.6875-1.6094 4.6562-1.6094 1.7891 0 3.2227 0.54297 4.2969 1.625 1.082 1.0742 1.625 2.5156 1.625 4.3281zm-3.75-1.2188c0-0.6875-0.20312-1.2422-0.60938-1.6719-0.40625-0.42578-0.93359-0.64062-1.5781-0.64062-0.71094 0-1.2891 0.20312-1.7344 0.60938-0.4375 0.39844-0.71484 0.96484-0.82812 1.7031z"/>
</symbol>
<symbol id="w" overflow="visible">
<path d="m10.234-8.3125c-0.3125-0.15625-0.63281-0.26953-0.95312-0.34375-0.3125-0.070312-0.63281-0.10938-0.95312-0.10938-0.9375 0-1.6641 0.30469-2.1719 0.90625-0.5 0.60547-0.75 1.4688-0.75 2.5938v5.2656h-3.6562v-11.438h3.6562v1.875c0.46875-0.73828 1.0039-1.2812 1.6094-1.625 0.61328-0.34375 1.3477-0.51562 2.2031-0.51562 0.11328 0 0.24219 0.007813 0.39062 0.015625 0.14453 0.011719 0.35156 0.03125 0.625 0.0625z"/>
</symbol>
<symbol id="v" overflow="visible"></symbol>
<symbol id="ar" overflow="visible">
<path d="m1.75-11.438h3.6562v11.438h-3.6562zm0-4.4531h3.6562v2.9844h-3.6562z"/>
</symbol>
<symbol id="u" overflow="visible">
<path d="m13.234-6.9688v6.9688h-3.6719v-5.3281c0-0.98828-0.023438-1.6719-0.0625-2.0469-0.042969-0.375-0.12109-0.64844-0.23438-0.82812-0.13672-0.22656-0.32812-0.41016-0.57812-0.54688-0.24219-0.13281-0.51562-0.20312-0.82812-0.20312-0.76172 0-1.3594 0.29688-1.7969 0.89062-0.4375 0.58594-0.65625 1.3984-0.65625 2.4375v5.625h-3.6562v-11.438h3.6562v1.6719c0.55078-0.66406 1.1328-1.1562 1.75-1.4688 0.625-0.3125 1.3125-0.46875 2.0625-0.46875 1.3125 0 2.3047 0.40625 2.9844 1.2188 0.6875 0.80469 1.0312 1.9766 1.0312 3.5156z"/>
</symbol>
<symbol id="aq" overflow="visible">
<path d="m1.9219-15.234h3.9219v13.75c0 1.9062-0.51562 3.3281-1.5469 4.2656s-2.5898 1.4062-4.6719 1.4062h-0.79688v-2.9688h0.60938c0.8125 0 1.4258-0.23047 1.8438-0.6875 0.42578-0.46094 0.64062-1.1289 0.64062-2.0156z"/>
</symbol>
<symbol id="av" overflow="visible">
<path d="m6.875-5.1406c-0.76172 0-1.3359 0.13281-1.7188 0.39062-0.38672 0.25-0.57812 0.63281-0.57812 1.1406 0 0.46094 0.15625 0.82031 0.46875 1.0781 0.3125 0.26172 0.73828 0.39062 1.2812 0.39062 0.6875 0 1.2656-0.24219 1.7344-0.73438 0.46875-0.48828 0.70312-1.1016 0.70312-1.8438v-0.42188zm5.5781-1.375v6.5156h-3.6875v-1.6875c-0.49219 0.6875-1.043 1.1953-1.6562 1.5156-0.60547 0.3125-1.3438 0.46875-2.2188 0.46875-1.1875 0-2.1523-0.34375-2.8906-1.0312-0.74219-0.69531-1.1094-1.5977-1.1094-2.7031 0-1.332 0.45703-2.3125 1.375-2.9375 0.92578-0.625 2.3789-0.9375 4.3594-0.9375h2.1406v-0.29688c0-0.57031-0.23047-0.99219-0.6875-1.2656-0.44922-0.26953-1.1562-0.40625-2.125-0.40625-0.78125 0-1.5117 0.078125-2.1875 0.23438-0.66797 0.15625-1.293 0.39062-1.875 0.70312v-2.7812c0.78906-0.1875 1.5781-0.32812 2.3594-0.42188 0.78906-0.10156 1.582-0.15625 2.375-0.15625 2.0508 0 3.5352 0.40625 4.4531 1.2188 0.91406 0.8125 1.375 2.1367 1.375 3.9688z"/>
</symbol>
<symbol id="au" overflow="visible">
<path d="m13.234-6.9688v6.9688h-3.6719v-5.3125c0-1-0.023438-1.6875-0.0625-2.0625-0.042969-0.375-0.12109-0.64844-0.23438-0.82812-0.13672-0.22656-0.32812-0.41016-0.57812-0.54688-0.24219-0.13281-0.51562-0.20312-0.82812-0.20312-0.76172 0-1.3594 0.29688-1.7969 0.89062-0.4375 0.58594-0.65625 1.3984-0.65625 2.4375v5.625h-3.6562v-15.891h3.6562v6.125c0.55078-0.66406 1.1328-1.1562 1.75-1.4688 0.625-0.3125 1.3125-0.46875 2.0625-0.46875 1.3125 0 2.3047 0.40625 2.9844 1.2188 0.6875 0.80469 1.0312 1.9766 1.0312 3.5156z"/>
</symbol>
<symbol id="ap" overflow="visible">
<path d="m-10.156-1.2812v-3.3281l5.4375-2.3125-5.4375-2.3281v-3.3281h10.156v2.4688h-7.4375l5.4844 2.3438v1.6562l-5.4844 2.3438h7.4375v2.4844z"/>
</symbol>
<symbol id="r" overflow="visible">
<path d="m-7.625-1.1719v-2.4375h7.625v2.4375zm-2.9688 0v-2.4375h1.9844v2.4375z"/>
</symbol>
<symbol id="q" overflow="visible">
<path d="m-4.6406-8.8281h4.6406v2.4375h-3.5469c-0.66406 0-1.1172 0.015625-1.3594 0.046875-0.25 0.03125-0.4375 0.085938-0.5625 0.15625-0.15625 0.09375-0.27344 0.22656-0.35938 0.39062-0.09375 0.16797-0.14062 0.35547-0.14062 0.5625 0 0.5 0.19922 0.89844 0.59375 1.1875 0.38672 0.29297 0.92969 0.4375 1.625 0.4375h3.75v2.4375h-7.625v-2.4375h1.125c-0.44531-0.36328-0.77344-0.75-0.98438-1.1562-0.21875-0.41406-0.32812-0.875-0.32812-1.375 0-0.88281 0.27344-1.5508 0.8125-2 0.54297-0.45703 1.3281-0.6875 2.3594-0.6875z"/>
</symbol>
<symbol id="ag" overflow="visible">
<path d="m-6.3594-8.2344c-0.46875-0.3125-0.82812-0.67578-1.0781-1.0938-0.25-0.42578-0.375-0.89453-0.375-1.4062 0-0.875 0.27344-1.5391 0.8125-2 0.54297-0.45703 1.3281-0.6875 2.3594-0.6875h4.6406v2.4531h-3.9688c-0.0625-0.007812-0.125-0.015625-0.1875-0.015625h-0.28125c-0.53125 0-0.91406 0.085937-1.1562 0.25-0.25 0.15625-0.375 0.40625-0.375 0.75 0 0.46875 0.19531 0.82812 0.57812 1.0781 0.375 0.25 0.92188 0.38281 1.6406 0.39062h3.75v2.4531h-3.9688c-0.84375 0-1.3828 0.074219-1.625 0.21875-0.25 0.14844-0.375 0.40625-0.375 0.78125 0 0.46094 0.19531 0.82031 0.57812 1.0781 0.38672 0.25 0.93359 0.375 1.6406 0.375h3.75v2.4531h-7.625v-2.4531h1.125c-0.4375-0.30078-0.76562-0.64453-0.98438-1.0312-0.21875-0.38281-0.32812-0.8125-0.32812-1.2812 0-0.51953 0.13281-0.98438 0.39062-1.3906 0.25-0.40625 0.60547-0.71094 1.0625-0.92188z"/>
</symbol>
<symbol id="j" overflow="visible">
<path d="m-3.4375-4.5938c0 0.51172 0.089844 0.89844 0.26562 1.1562 0.17969 0.25 0.43359 0.375 0.76562 0.375 0.30469 0 0.54297-0.097656 0.71875-0.29688 0.17969-0.20703 0.26562-0.49219 0.26562-0.85938 0-0.45703-0.16016-0.84375-0.48438-1.1562-0.33203-0.32031-0.75-0.48438-1.25-0.48438h-0.28125zm-0.90625-3.7188h4.3438v2.4531h-1.125c0.46094 0.33594 0.79688 0.70312 1.0156 1.1094 0.20703 0.40625 0.3125 0.90234 0.3125 1.4844 0 0.79297-0.22656 1.4375-0.6875 1.9375-0.46875 0.49219-1.0664 0.73438-1.7969 0.73438-0.89453 0-1.5508-0.30469-1.9688-0.92188-0.41406-0.61328-0.625-1.582-0.625-2.9062v-1.4375h-0.1875c-0.39453 0-0.67969 0.15625-0.85938 0.46875-0.17578 0.30469-0.26562 0.77734-0.26562 1.4219 0 0.52344 0.054688 1.0078 0.15625 1.4531 0.10547 0.44922 0.26172 0.86719 0.46875 1.25h-1.8594c-0.125-0.51953-0.21875-1.0391-0.28125-1.5625-0.070313-0.53125-0.10938-1.0625-0.10938-1.5938 0-1.375 0.27734-2.3633 0.82812-2.9688 0.54297-0.61328 1.4219-0.92188 2.6406-0.92188z"/>
</symbol>
<symbol id="p" overflow="visible">
<path d="m-10.594-1.1719v-2.4375h10.594v2.4375z"/>
</symbol>
<symbol id="c" overflow="visible">
<path d="m-3.8281-8.7812h0.6875v5.7031c0.57422-0.0625 1.0078-0.26953 1.2969-0.625 0.28125-0.35156 0.42188-0.84766 0.42188-1.4844 0-0.50781-0.070313-1.0312-0.21875-1.5625-0.15625-0.53906-0.39062-1.0977-0.70312-1.6719h1.875c0.21875 0.58594 0.38672 1.1641 0.5 1.7344 0.11328 0.57422 0.17188 1.1484 0.17188 1.7188 0 1.3867-0.34766 2.4648-1.0469 3.2344-0.70703 0.76172-1.6914 1.1406-2.9531 1.1406-1.25 0-2.2266-0.375-2.9375-1.125-0.71875-0.75-1.0781-1.7852-1.0781-3.1094 0-1.1953 0.36719-2.1562 1.0938-2.875 0.71875-0.71875 1.6836-1.0781 2.8906-1.0781zm-0.8125 2.5c-0.45703 0-0.82812 0.13672-1.1094 0.40625-0.28906 0.27344-0.4375 0.625-0.4375 1.0625 0 0.46875 0.13672 0.85547 0.40625 1.1562 0.26172 0.29297 0.64062 0.47656 1.1406 0.54688z"/>
</symbol>
<symbol id="o" overflow="visible"></symbol>
<symbol id="n" overflow="visible">
<path d="m-7.3906-7.125h1.8594c-0.21875 0.52344-0.37891 1.0273-0.48438 1.5156-0.11328 0.48047-0.17188 0.9375-0.17188 1.375 0 0.46094 0.058594 0.80469 0.17188 1.0312 0.11719 0.21875 0.29297 0.32812 0.53125 0.32812 0.19922 0 0.35156-0.082031 0.45312-0.25 0.10547-0.16406 0.18359-0.47266 0.23438-0.92188l0.0625-0.42188c0.15625-1.25 0.41797-2.0859 0.78125-2.5156 0.36719-0.4375 0.93359-0.65625 1.7031-0.65625 0.8125 0 1.4297 0.30469 1.8438 0.90625 0.40625 0.59375 0.60938 1.4844 0.60938 2.6719 0 0.51172-0.042969 1.0391-0.125 1.5781-0.082031 0.53125-0.20312 1.0781-0.35938 1.6406h-1.8438c0.23047-0.47656 0.40625-0.97266 0.53125-1.4844 0.11719-0.50781 0.17188-1.0312 0.17188-1.5625 0-0.46875-0.0625-0.82031-0.1875-1.0625-0.13281-0.25-0.33203-0.375-0.59375-0.375-0.21875 0-0.37891 0.085937-0.48438 0.25-0.10156 0.16797-0.1875 0.5-0.25 1l-0.0625 0.42188c-0.13281 1.0859-0.38281 1.8438-0.75 2.2812-0.36328 0.4375-0.92188 0.65625-1.6719 0.65625-0.8125 0-1.4102-0.27344-1.7969-0.82812-0.39453-0.55078-0.59375-1.3984-0.59375-2.5469 0-0.44531 0.039062-0.91406 0.10938-1.4062 0.0625-0.5 0.16797-1.0391 0.3125-1.625z"/>
</symbol>
<symbol id="t" overflow="visible">
<path d="m-1.5781-5.2344c0-0.51953-0.1875-0.91406-0.5625-1.1875-0.38281-0.26953-0.9375-0.40625-1.6562-0.40625-0.72656 0-1.2812 0.13672-1.6562 0.40625-0.38281 0.27344-0.57812 0.66797-0.57812 1.1875 0 0.53125 0.19531 0.9375 0.57812 1.2188 0.375 0.27344 0.92969 0.40625 1.6562 0.40625 0.71875 0 1.2734-0.13281 1.6562-0.40625 0.375-0.28125 0.5625-0.6875 0.5625-1.2188zm-4.9219 1.625c-0.44531-0.33203-0.77344-0.70312-0.98438-1.1094-0.21875-0.40625-0.32812-0.875-0.32812-1.4062 0-0.94531 0.375-1.7188 1.125-2.3125 0.75-0.60156 1.7148-0.90625 2.8906-0.90625 1.168 0 2.125 0.30469 2.875 0.90625 0.75 0.59375 1.125 1.3672 1.125 2.3125 0 0.53125-0.10547 1-0.3125 1.4062-0.21875 0.40625-0.55078 0.77734-1 1.1094h1.1094v2.4375h-10.594v-2.4375z"/>
</symbol>
<symbol id="s" overflow="visible">
<path d="m-5.5469-6.8281c-0.10156 0.21094-0.17578 0.42188-0.21875 0.64062-0.050781 0.21094-0.078125 0.41797-0.078125 0.625 0 0.625 0.20312 1.1094 0.60938 1.4531 0.39844 0.33594 0.96875 0.5 1.7188 0.5h3.5156v2.4375h-7.625v-2.4375h1.25c-0.5-0.3125-0.86328-0.67188-1.0938-1.0781-0.22656-0.40625-0.34375-0.89062-0.34375-1.4531 0-0.082031 0.007812-0.17188 0.015625-0.26562 0.011719-0.09375 0.027344-0.23438 0.046875-0.42188z"/>
</symbol>
<symbol id="ao" overflow="visible">
<path d="m-6.2344-5.3438c0-0.41406-0.085937-0.72656-0.26562-0.9375-0.17578-0.21875-0.44141-0.32812-0.79688-0.32812-0.35156 0-0.61719 0.10938-0.79688 0.32812-0.1875 0.21094-0.28125 0.52344-0.28125 0.9375v1.4375h2.1406zm4.4531-0.09375c0-0.53125-0.10938-0.92578-0.32812-1.1875-0.22656-0.25781-0.56641-0.39062-1.0156-0.39062-0.4375 0-0.76562 0.13281-0.98438 0.39062-0.21875 0.26172-0.32812 0.65625-0.32812 1.1875v1.5312h2.6562zm-3.6562-2.4375c0.16797-0.5625 0.46875-0.99219 0.90625-1.2969 0.4375-0.3125 0.98047-0.46875 1.625-0.46875 0.98047 0 1.7109 0.33594 2.1875 1 0.48047 0.65625 0.71875 1.6641 0.71875 3.0156v4.3438h-10.156v-3.9375c0-1.4062 0.21484-2.4258 0.64062-3.0625 0.42969-0.63281 1.1094-0.95312 2.0469-0.95312 0.49219 0 0.91406 0.12109 1.2656 0.35938 0.34375 0.23047 0.60156 0.5625 0.76562 1z"/>
</symbol>
<symbol id="an" overflow="visible">
<path d="m-2.9688-1.0938h-4.6562v-2.4375h0.76562 1.5625 1.2344c0.61719 0 1.0586-0.015625 1.3281-0.046875 0.27344-0.03125 0.46875-0.082031 0.59375-0.15625 0.15625-0.10156 0.28125-0.23438 0.375-0.39062 0.085937-0.16406 0.125-0.35156 0.125-0.5625 0-0.5-0.19141-0.89453-0.57812-1.1875-0.39453-0.28906-0.94141-0.4375-1.6406-0.4375h-3.7656v-2.4375h7.625v2.4375h-1.1094c0.44922 0.36719 0.78125 0.75781 1 1.1719 0.20703 0.40625 0.3125 0.85547 0.3125 1.3438 0 0.88672-0.26953 1.5586-0.8125 2.0156-0.53906 0.46094-1.3281 0.6875-2.3594 0.6875z"/>
</symbol>
<symbol id="am" overflow="visible">
<path d="m-7.3906-7.3281h2c-0.22656 0.33594-0.39453 0.66797-0.5 1-0.11328 0.33594-0.17188 0.67969-0.17188 1.0312 0 0.67969 0.19922 1.2109 0.59375 1.5938 0.39844 0.375 0.95312 0.5625 1.6719 0.5625 0.71094 0 1.2617-0.1875 1.6562-0.5625 0.39844-0.38281 0.59375-0.91406 0.59375-1.5938 0-0.375-0.054687-0.73438-0.17188-1.0781-0.11328-0.34375-0.28125-0.66016-0.5-0.95312h2c0.13672 0.38672 0.23828 0.77734 0.3125 1.1719 0.070312 0.38672 0.10938 0.77734 0.10938 1.1719 0 1.375-0.35156 2.4531-1.0625 3.2344-0.70703 0.77344-1.6875 1.1562-2.9375 1.1562-1.2578 0-2.2422-0.38281-2.9531-1.1562-0.70703-0.78125-1.0625-1.8594-1.0625-3.2344 0-0.40625 0.039062-0.80078 0.10938-1.1875 0.074219-0.38281 0.17969-0.76953 0.3125-1.1562z"/>
</symbol>
<symbol id="al" overflow="visible">
<path d="m-4.6406-8.8281h4.6406v2.4375h-3.5312c-0.67578 0-1.1328 0.015625-1.375 0.046875-0.25 0.03125-0.4375 0.085938-0.5625 0.15625-0.15625 0.09375-0.27344 0.22656-0.35938 0.39062-0.09375 0.16797-0.14062 0.35547-0.14062 0.5625 0 0.5 0.19922 0.89844 0.59375 1.1875 0.38672 0.29297 0.92969 0.4375 1.625 0.4375h3.75v2.4375h-10.594v-2.4375h4.0938c-0.44531-0.36328-0.77344-0.75-0.98438-1.1562-0.21875-0.41406-0.32812-0.875-0.32812-1.375 0-0.88281 0.27344-1.5508 0.8125-2 0.54297-0.45703 1.3281-0.6875 2.3594-0.6875z"/>
</symbol>
<symbol id="ak" overflow="visible">
<path d="m-9.7812-3.8281h2.1562v-2.5156h1.75v2.5156h3.2344c0.35547 0 0.59375-0.066406 0.71875-0.20312 0.11719-0.14453 0.17188-0.42578 0.17188-0.84375v-1.25h1.75v2.0781c0 0.96875-0.19531 1.6562-0.59375 2.0625-0.40625 0.39844-1.0859 0.59375-2.0469 0.59375h-3.2344v1.2031h-1.75v-1.2031h-2.1562z"/>
</symbol>
<symbol id="aj" overflow="visible">
<path d="m-1.2969-6.3594c0.44922 0.33594 0.77734 0.70312 0.98438 1.1094 0.21094 0.40625 0.3125 0.875 0.3125 1.4062 0 0.92969-0.36328 1.6992-1.0938 2.3125-0.73828 0.60547-1.6758 0.90625-2.8125 0.90625-1.1328 0-2.0664-0.30078-2.7969-0.90625-0.72656-0.61328-1.0938-1.3828-1.0938-2.3125 0-0.53125 0.10547-1 0.3125-1.4062 0.21094-0.40625 0.53906-0.77344 0.98438-1.1094h-1.125v-2.4531h6.8594c1.2188 0 2.1484 0.39062 2.7969 1.1719 0.65625 0.77344 0.98438 1.8906 0.98438 3.3594 0 0.48047-0.039063 0.94531-0.10938 1.3906-0.074219 0.4375-0.1875 0.88281-0.34375 1.3281h-1.8906c0.23828-0.42578 0.41406-0.84375 0.53125-1.25 0.125-0.40625 0.1875-0.81641 0.1875-1.2344 0-0.78906-0.17969-1.375-0.53125-1.75-0.34375-0.375-0.88281-0.5625-1.625-0.5625zm-4.7344 1.6094c0 0.5 0.1875 0.89062 0.5625 1.1719 0.36719 0.28125 0.88672 0.42188 1.5625 0.42188 0.71094 0 1.2461-0.13281 1.6094-0.40625 0.35547-0.26953 0.53125-0.66406 0.53125-1.1875 0-0.50781-0.1875-0.90625-0.5625-1.1875s-0.89844-0.42188-1.5781-0.42188c-0.67578 0-1.1953 0.14062-1.5625 0.42188-0.375 0.28125-0.5625 0.67969-0.5625 1.1875z"/>
</symbol>
<symbol id="ai" overflow="visible">
<path d="m-6.0625-4.7969c0 0.54297 0.19531 0.95312 0.57812 1.2344 0.38672 0.28125 0.94922 0.42188 1.6875 0.42188 0.73047 0 1.2891-0.14062 1.6719-0.42188 0.38672-0.28125 0.57812-0.69141 0.57812-1.2344 0-0.53125-0.19141-0.9375-0.57812-1.2188-0.38281-0.28125-0.94141-0.42188-1.6719-0.42188-0.73828 0-1.3008 0.14062-1.6875 0.42188-0.38281 0.28125-0.57812 0.6875-0.57812 1.2188zm-1.75 0c0-1.3125 0.35547-2.332 1.0625-3.0625 0.71094-0.73828 1.6953-1.1094 2.9531-1.1094 1.25 0 2.2305 0.37109 2.9375 1.1094 0.71094 0.73047 1.0625 1.75 1.0625 3.0625s-0.35156 2.3438-1.0625 3.0938c-0.70703 0.74219-1.6875 1.1094-2.9375 1.1094-1.2578 0-2.2422-0.36719-2.9531-1.1094-0.70703-0.75-1.0625-1.7812-1.0625-3.0938zm-2.9688 2.1562v-1.5938h1.6719v1.5938zm0-2.6875v-1.5938h1.6719v1.5938z"/>
</symbol>
<symbol id="ah" overflow="visible">
<path d="m-7.5781-1.1719c-1.0078 0-1.7656-0.30469-2.2656-0.92188-0.5-0.61328-0.75-1.5352-0.75-2.7656 0-1.1953 0.25781-2.0977 0.76562-2.7031 0.51172-0.60156 1.2617-0.90625 2.25-0.90625h0.48438c0.042969 0.6875 0.15234 1.1953 0.32812 1.5156 0.17969 0.32422 0.43359 0.48438 0.76562 0.48438 0.16797 0 0.32031-0.050781 0.45312-0.15625 0.125-0.11328 0.30859-0.38281 0.54688-0.8125l0.25-0.46875c0.29297-0.51953 0.63281-0.89844 1.0156-1.1406 0.375-0.25 0.82812-0.375 1.3594-0.375 0.86719 0 1.5117 0.26172 1.9375 0.78125 0.42969 0.52344 0.64062 1.3086 0.64062 2.3594 0 0.29297-0.03125 0.59375-0.09375 0.90625-0.054688 0.3125-0.13281 0.63672-0.25 0.96875h-1.6562c0.125-0.25 0.21875-0.50391 0.28125-0.76562 0.0625-0.25781 0.09375-0.51562 0.09375-0.76562 0-0.32031-0.078125-0.58203-0.23438-0.78125-0.16406-0.19531-0.37891-0.29688-0.64062-0.29688-0.21875 0-0.39844 0.0625-0.54688 0.1875-0.15625 0.11719-0.35938 0.39844-0.60938 0.84375l-0.26562 0.48438c-0.22656 0.39844-0.49219 0.69531-0.79688 0.89062-0.30078 0.1875-0.66016 0.28125-1.0781 0.28125-0.51953 0-0.95703-0.15625-1.3125-0.46875-0.36328-0.32031-0.66016-0.8125-0.89062-1.4688-0.38281 0-0.67578 0.10938-0.875 0.32812-0.19531 0.21875-0.29688 0.53906-0.29688 0.95312 0 0.46094 0.125 0.80469 0.375 1.0312 0.24219 0.23047 0.60938 0.34375 1.1094 0.34375h7.4844v2.4375z"/>
</symbol>
<symbol id="af" overflow="visible"></symbol>
<symbol id="ae" overflow="visible">
<path d="m-10.594-1.2031v-2.875h0.98438v1.625h10.469v-1.625h0.98438v2.875z"/>
</symbol>
<symbol id="ad" overflow="visible">
<path d="m-1.1406-2.5312h4.0469v1.2656h-10.531v-1.2656h1.1562c-0.44531-0.25781-0.78125-0.58594-1-0.98438-0.22656-0.40625-0.34375-0.89062-0.34375-1.4531 0-0.91406 0.37109-1.6602 1.1094-2.2344 0.74219-0.58203 1.7109-0.875 2.9062-0.875 1.1992 0 2.168 0.29297 2.9062 0.875 0.73047 0.57422 1.0938 1.3203 1.0938 2.2344 0 0.5625-0.10938 1.0469-0.32812 1.4531-0.22656 0.39844-0.56641 0.72656-1.0156 0.98438zm-2.6562-4.25c-0.92578 0-1.6484 0.1875-2.1719 0.5625-0.51953 0.375-0.78125 0.89844-0.78125 1.5625 0 0.66797 0.26172 1.1875 0.78125 1.5625 0.52344 0.375 1.2461 0.5625 2.1719 0.5625 0.91797 0 1.6406-0.1875 2.1719-0.5625 0.52344-0.375 0.78125-0.89453 0.78125-1.5625 0-0.66406-0.25781-1.1875-0.78125-1.5625-0.53125-0.375-1.2539-0.5625-2.1719-0.5625z"/>
</symbol>
<symbol id="ac" overflow="visible">
<path d="m-9.7812-2.5469h2.1562v-2.5781h0.96875v2.5781h4.1406c0.625 0 1.0273-0.082031 1.2031-0.25 0.17969-0.17578 0.26562-0.52344 0.26562-1.0469v-1.2812h1.0469v1.2812c0 0.96875-0.17578 1.6367-0.53125 2-0.36328 0.36719-1.0234 0.54688-1.9844 0.54688h-4.1406v0.92188h-0.96875v-0.92188h-2.1562z"/>
</symbol>
<symbol id="ab" overflow="visible">
<path d="m-10.594-4.2344h12.438v2.875h-0.98438v-1.625h-10.469v1.625h-0.98438z"/>
</symbol>
<symbol id="m" overflow="visible">
<path d="m2.6719-1.1562h4.7969v1.1562h-6.4531v-1.1562c0.51953-0.53906 1.2266-1.2656 2.125-2.1719 0.90625-0.91406 1.4766-1.5039 1.7188-1.7656 0.4375-0.48828 0.73828-0.90625 0.90625-1.25 0.17578-0.34375 0.26562-0.67969 0.26562-1.0156 0-0.53906-0.1875-0.97656-0.5625-1.3125-0.375-0.34375-0.87109-0.51562-1.4844-0.51562-0.42969 0-0.88281 0.078125-1.3594 0.23438-0.48047 0.14844-0.99219 0.37109-1.5312 0.67188v-1.3906c0.55078-0.21875 1.0664-0.38281 1.5469-0.5 0.47656-0.11328 0.91406-0.17188 1.3125-0.17188 1.0625 0 1.9062 0.26562 2.5312 0.79688 0.625 0.52344 0.9375 1.2266 0.9375 2.1094 0 0.41797-0.078125 0.8125-0.23438 1.1875-0.15625 0.36719-0.44531 0.80469-0.85938 1.3125-0.11719 0.13672-0.48047 0.52344-1.0938 1.1562-0.60547 0.625-1.4609 1.5-2.5625 2.625z"/>
</symbol>
<symbol id="a" overflow="visible">
<path d="m4.4375-9.25c-0.71094 0-1.2461 0.35156-1.6094 1.0469-0.35547 0.6875-0.53125 1.7344-0.53125 3.1406 0 1.3867 0.17578 2.4297 0.53125 3.125 0.36328 0.69922 0.89844 1.0469 1.6094 1.0469 0.70703 0 1.2383-0.34766 1.5938-1.0469 0.35156-0.69531 0.53125-1.7383 0.53125-3.125 0-1.4062-0.17969-2.4531-0.53125-3.1406-0.35547-0.69531-0.88672-1.0469-1.5938-1.0469zm0-1.0938c1.1328 0 2 0.45312 2.5938 1.3594 0.60156 0.89844 0.90625 2.2031 0.90625 3.9219 0 1.7109-0.30469 3.0156-0.90625 3.9219-0.59375 0.89844-1.4609 1.3438-2.5938 1.3438-1.1484 0-2.0234-0.44531-2.625-1.3438-0.59375-0.90625-0.89062-2.2109-0.89062-3.9219 0-1.7188 0.29688-3.0234 0.89062-3.9219 0.60156-0.90625 1.4766-1.3594 2.625-1.3594z"/>
</symbol>
<symbol id="d" overflow="visible">
<path d="m0.6875-4.375h3.6562v1.1094h-3.6562z"/>
</symbol>
<symbol id="l" overflow="visible">
<path d="m5.6562-5.4844c0.65625 0.14844 1.1641 0.44531 1.5312 0.89062 0.375 0.4375 0.5625 0.98438 0.5625 1.6406 0 1-0.34375 1.7773-1.0312 2.3281-0.6875 0.55469-1.668 0.82812-2.9375 0.82812-0.42969 0-0.87109-0.042969-1.3281-0.125-0.44922-0.082031-0.91406-0.21094-1.3906-0.39062v-1.3281c0.38281 0.23047 0.80078 0.40234 1.25 0.51562 0.45703 0.11719 0.92969 0.17188 1.4219 0.17188 0.86328 0 1.5195-0.17188 1.9688-0.51562 0.45703-0.34375 0.6875-0.83594 0.6875-1.4844 0-0.60156-0.21484-1.0703-0.64062-1.4062-0.41797-0.33203-1-0.5-1.75-0.5h-1.1875v-1.1406h1.25c0.66406 0 1.1758-0.13281 1.5312-0.40625 0.36328-0.26953 0.54688-0.65625 0.54688-1.1562 0-0.51953-0.1875-0.92188-0.5625-1.2031-0.36719-0.28125-0.89062-0.42188-1.5781-0.42188-0.375 0-0.78125 0.042969-1.2188 0.125-0.42969 0.085938-0.89844 0.21094-1.4062 0.375v-1.2188c0.51953-0.14453 1.0039-0.25391 1.4531-0.32812 0.45703-0.070313 0.89062-0.10938 1.2969-0.10938 1.0391 0 1.8633 0.24219 2.4688 0.71875 0.61328 0.46875 0.92188 1.1094 0.92188 1.9219 0 0.5625-0.16406 1.0391-0.48438 1.4219-0.32422 0.38672-0.78125 0.65234-1.375 0.79688z"/>
</symbol>
<symbol id="k" overflow="visible">
<path d="m1.5-10.156h5.4062v1.1562h-4.1406v2.4844c0.19531-0.0625 0.39453-0.10938 0.59375-0.14062 0.19531-0.039062 0.39453-0.0625 0.59375-0.0625 1.1328 0 2.0352 0.3125 2.7031 0.9375 0.66406 0.61719 1 1.4531 1 2.5156 0 1.0938-0.34375 1.9492-1.0312 2.5625-0.67969 0.60547-1.6367 0.90625-2.875 0.90625-0.42969 0-0.86719-0.039063-1.3125-0.10938-0.4375-0.074219-0.89062-0.17969-1.3594-0.32812v-1.3906c0.40625 0.23047 0.82812 0.40234 1.2656 0.51562 0.4375 0.10547 0.89453 0.15625 1.375 0.15625 0.78906 0 1.4141-0.20703 1.875-0.625 0.45703-0.41406 0.6875-0.97656 0.6875-1.6875 0-0.70703-0.23047-1.2656-0.6875-1.6719-0.46094-0.41406-1.0859-0.625-1.875-0.625-0.36719 0-0.73047 0.042969-1.0938 0.125-0.36719 0.085938-0.74219 0.21094-1.125 0.375z"/>
</symbol>
<symbol id="g" overflow="visible">
<path d="m4.5938-5.625c-0.61719 0-1.1055 0.21484-1.4688 0.64062-0.35547 0.41797-0.53125 0.99219-0.53125 1.7188 0 0.73047 0.17578 1.3086 0.53125 1.7344 0.36328 0.42969 0.85156 0.64062 1.4688 0.64062 0.625 0 1.1133-0.21094 1.4688-0.64062 0.36328-0.42578 0.54688-1.0039 0.54688-1.7344 0-0.72656-0.18359-1.3008-0.54688-1.7188-0.35547-0.42578-0.84375-0.64062-1.4688-0.64062zm2.7344-4.3125v1.25c-0.34375-0.15625-0.69531-0.27344-1.0469-0.35938-0.35547-0.09375-0.70312-0.14062-1.0469-0.14062-0.90625 0-1.6016 0.30859-2.0781 0.92188-0.48047 0.61719-0.75 1.543-0.8125 2.7812 0.26953-0.39453 0.60156-0.69531 1-0.90625 0.40625-0.21875 0.85156-0.32812 1.3438-0.32812 1.0195 0 1.8203 0.3125 2.4062 0.9375 0.59375 0.61719 0.89062 1.4531 0.89062 2.5156 0 1.0547-0.30859 1.8984-0.92188 2.5312-0.61719 0.625-1.4375 0.9375-2.4688 0.9375-1.168 0-2.0625-0.44531-2.6875-1.3438-0.625-0.90625-0.9375-2.2109-0.9375-3.9219 0-1.6133 0.37891-2.8945 1.1406-3.8438 0.76953-0.95703 1.7969-1.4375 3.0781-1.4375 0.34375 0 0.6875 0.039062 1.0312 0.10938 0.35156 0.0625 0.72266 0.16406 1.1094 0.29688z"/>
</symbol>
<symbol id="b" overflow="visible">
<path d="m1.7344-1.1562h2.2344v-7.75l-2.4375 0.48438v-1.25l2.4219-0.48438h1.375v9h2.25v1.1562h-5.8438z"/>
</symbol>
<symbol id="f" overflow="visible">
<path d="m1.3125-10.594h1.25v10.594h-1.25z"/>
</symbol>
<symbol id="e" overflow="visible">
<path d="m7.6562-7.625-2.7656 3.7188 2.9062 3.9062h-1.4844l-2.2188-3-2.2188 3h-1.4688l2.9531-3.9844-2.7031-3.6406h1.4688l2.0312 2.7188 2.0156-2.7188z"/>
</symbol>
<symbol id="i" overflow="visible">
<path d="m1.1406-10.156h6.5312v0.57812l-3.6875 9.5781h-1.4375l3.4688-9h-4.875z"/>
</symbol>
<symbol id="h" overflow="visible">
<path d="m4.4375-4.8281c-0.65625 0-1.1719 0.17969-1.5469 0.53125-0.375 0.34375-0.5625 0.82422-0.5625 1.4375 0 0.61719 0.1875 1.1016 0.5625 1.4531 0.375 0.34375 0.89062 0.51562 1.5469 0.51562 0.64453 0 1.1562-0.17578 1.5312-0.53125 0.38281-0.35156 0.57812-0.83203 0.57812-1.4375 0-0.61328-0.1875-1.0938-0.5625-1.4375-0.375-0.35156-0.89062-0.53125-1.5469-0.53125zm-1.375-0.57812c-0.59375-0.14453-1.0586-0.42188-1.3906-0.82812-0.32422-0.40625-0.48438-0.89453-0.48438-1.4688 0-0.8125 0.28516-1.4531 0.85938-1.9219 0.58203-0.47656 1.3789-0.71875 2.3906-0.71875 1.0078 0 1.8008 0.24219 2.375 0.71875 0.57031 0.46875 0.85938 1.1094 0.85938 1.9219 0 0.57422-0.16797 1.0625-0.5 1.4688-0.32422 0.40625-0.77734 0.68359-1.3594 0.82812 0.66406 0.15625 1.1797 0.46094 1.5469 0.90625 0.375 0.44922 0.5625 0.99609 0.5625 1.6406 0 0.99219-0.30469 1.75-0.90625 2.2812-0.60547 0.52344-1.4648 0.78125-2.5781 0.78125-1.125 0-1.9922-0.25781-2.5938-0.78125-0.59375-0.53125-0.89062-1.2891-0.89062-2.2812 0-0.64453 0.17969-1.1914 0.54688-1.6406 0.375-0.44531 0.89453-0.75 1.5625-0.90625zm-0.51562-2.1719c0 0.52344 0.16016 0.93359 0.48438 1.2344 0.33203 0.29297 0.80078 0.4375 1.4062 0.4375 0.58203 0 1.0391-0.14453 1.375-0.4375 0.33203-0.30078 0.5-0.71094 0.5-1.2344 0-0.53125-0.16797-0.94141-0.5-1.2344-0.33594-0.28906-0.79297-0.4375-1.375-0.4375-0.60547 0-1.0742 0.14844-1.4062 0.4375-0.32422 0.29297-0.48438 0.70312-0.48438 1.2344z"/>
</symbol>
<symbol id="aa" overflow="visible">
<path d="m6.4062-8.7344v3.7812h3.7969v1.1562h-3.7969v3.7969h-1.1406v-3.7969h-3.7812v-1.1562h3.7812v-3.7812z"/>
</symbol>
<symbol id="z" overflow="visible">
<path d="m5.2656-8.9688-3.4688 5.4375h3.4688zm-0.35938-1.1875h1.7344v6.625h1.4375v1.1406h-1.4375v2.3906h-1.375v-2.3906h-4.5781v-1.3281z"/>
</symbol>
<symbol id="y" overflow="visible">
<path d="m1.5312-0.21875v-1.25c0.34375 0.16797 0.69141 0.29688 1.0469 0.39062 0.35156 0.085937 0.70312 0.125 1.0469 0.125 0.90625 0 1.5977-0.30469 2.0781-0.92188 0.47656-0.61328 0.75-1.5391 0.8125-2.7812-0.26172 0.39844-0.59375 0.69922-1 0.90625-0.40625 0.21094-0.85547 0.3125-1.3438 0.3125-1.0117 0-1.8125-0.30469-2.4062-0.92188-0.59375-0.61328-0.89062-1.457-0.89062-2.5312 0-1.0391 0.30469-1.875 0.92188-2.5 0.625-0.63281 1.4453-0.95312 2.4688-0.95312 1.1758 0 2.0703 0.45312 2.6875 1.3594 0.625 0.89844 0.9375 2.2031 0.9375 3.9219 0 1.5938-0.38281 2.8711-1.1406 3.8281-0.76172 0.96094-1.7812 1.4375-3.0625 1.4375-0.34375 0-0.69531-0.039063-1.0469-0.10938-0.35547-0.0625-0.72656-0.16406-1.1094-0.3125zm2.7344-4.2969c0.61328 0 1.1016-0.20703 1.4688-0.625 0.36328-0.42578 0.54688-1.0078 0.54688-1.75 0-0.72656-0.18359-1.3008-0.54688-1.7188-0.36719-0.42578-0.85547-0.64062-1.4688-0.64062-0.61719 0-1.1055 0.21484-1.4688 0.64062-0.35547 0.41797-0.53125 0.99219-0.53125 1.7188 0 0.74219 0.17578 1.3242 0.53125 1.75 0.36328 0.41797 0.85156 0.625 1.4688 0.625z"/>
</symbol>
</defs>
<path transform="matrix(2.3218 0 0 2.323 .6917 -2.6453e-14)" d="m225.92 76.564h110.55v67.632h-110.55z" fill="#fff" stroke="#000" stroke-width=".75"/>
<path transform="matrix(2.3218 0 0 2.323 .6917 -2.6453e-14)" d="m39.884 9.2687h181.58v135.15h-181.58z" fill="#fff" stroke="#000" stroke-width=".75"/>
<path transform="matrix(2.3218 0 0 2.323 25.164 10.263)" d="m29.344 4.8507v137.57" fill="none" stroke="#000" stroke-width=".5"/>
<path transform="matrix(2.3218 0 0 2.323 25.164 10.263)" d="m29.344 4.8507h181.58v135.15h-181.58z" fill="none" stroke="#000" stroke-width="1.5"/>
<path transform="matrix(2.3218 0 0 2.323 25.164 10.263)" d="m215.38 72.146h110.55v67.632h-110.55z" fill="none" stroke="#000"/>
<path transform="matrix(2.3218 0 0 2.323 25.164 10.263)" d="m210.92 4.8507v137.57" fill="none" stroke="#000" stroke-width=".5"/>
<path transform="matrix(2.3218 0 0 2.323 25.164 10.263)" d="m174.61 140v2.4214" fill="none" stroke="#000" stroke-width=".5"/>
<path transform="matrix(2.3218 0 0 2.323 25.164 10.263)" d="m138.29 140v2.4214" fill="none" stroke="#000" stroke-width=".5"/>
<path transform="matrix(2.3218 0 0 2.323 25.164 10.263)" d="m101.98 140v2.4214" fill="none" stroke="#000" stroke-width=".5"/>
<path transform="matrix(2.3218 0 0 2.323 25.164 10.263)" d="m65.66 140v2.4214" fill="none" stroke="#000" stroke-width=".5"/>
<path transform="matrix(2.3218 0 0 2.323 25.164 10.263)" d="m210.92 140h-184.06" fill="none" stroke="#000" stroke-width=".5"/>
<path transform="matrix(2.3218 0 0 2.323 25.164 10.263)" d="m210.92 126.48h-184.06" fill="none" stroke="#000" stroke-width=".5"/>
<path transform="matrix(2.3218 0 0 2.323 25.164 10.263)" d="m210.92 112.97h-184.06" fill="none" stroke="#000" stroke-width=".5"/>
<path transform="matrix(2.3218 0 0 2.323 25.164 10.263)" d="m210.92 99.454h-184.06" fill="none" stroke="#000" stroke-width=".5"/>
<path transform="matrix(2.3218 0 0 2.323 25.164 10.263)" d="m210.92 85.94h-184.06" fill="none" stroke="#000" stroke-width=".5"/>
<path transform="matrix(2.3218 0 0 2.323 25.164 10.263)" d="m210.92 72.425h-184.06" fill="none" stroke="#000" stroke-width=".5"/>
<path transform="matrix(2.3218 0 0 2.323 25.164 10.263)" d="m210.92 58.909h-184.06" fill="none" stroke="#000" stroke-width=".5"/>
<path transform="matrix(2.3218 0 0 2.323 25.164 10.263)" d="m210.92 45.394h-184.06" fill="none" stroke="#000" stroke-width=".5"/>
<path transform="matrix(2.3218 0 0 2.323 25.164 10.263)" d="m210.92 31.88h-184.06" fill="none" stroke="#000" stroke-width=".5"/>
<path transform="matrix(2.3218 0 0 2.323 25.164 10.263)" d="m210.92 18.365h-184.06" fill="none" stroke="#000" stroke-width=".5"/>
<path transform="matrix(2.3218 0 0 2.323 25.164 10.263)" d="m210.92 4.8507h-184.06" fill="none" stroke="#000" stroke-width=".5"/>
<g>
<use x="219.601562" y="409.552151" xlink:href="#aw"/>
<use x="235.85388" y="409.552151" xlink:href="#at"/>
<use x="242.81916" y="409.552151" xlink:href="#as"/>
<use x="252.106198" y="409.552151" xlink:href="#x"/>
<use x="266.036757" y="409.552151" xlink:href="#w"/>
<use x="275.323795" y="409.552151" xlink:href="#v"/>
<use x="282.289074" y="409.552151" xlink:href="#ar"/>
<use x="289.254354" y="409.552151" xlink:href="#u"/>
<use x="303.184912" y="409.552151" xlink:href="#v"/>
<use x="310.150191" y="409.552151" xlink:href="#aq"/>
<use x="317.11547" y="409.552151" xlink:href="#av"/>
<use x="331.046028" y="409.552151" xlink:href="#au"/>
<use x="344.976586" y="409.552151" xlink:href="#w"/>
<use x="354.263625" y="409.552151" xlink:href="#x"/>
<use x="368.194183" y="409.552151" xlink:href="#u"/>
</g>
<g>
<use x="27.723628" y="329.542969" xlink:href="#ap"/>
<use x="27.723628" y="315.604872" xlink:href="#r"/>
<use x="27.723628" y="310.95884" xlink:href="#q"/>
<use x="27.723628" y="301.666776" xlink:href="#r"/>
<use x="27.723628" y="297.020744" xlink:href="#ag"/>
<use x="27.723628" y="283.082647" xlink:href="#j"/>
<use x="27.723628" y="273.790583" xlink:href="#p"/>
<use x="27.723628" y="269.144551" xlink:href="#c"/>
<use x="27.723628" y="259.852487" xlink:href="#o"/>
<use x="27.723628" y="255.206455" xlink:href="#p"/>
<use x="27.723628" y="250.560423" xlink:href="#c"/>
<use x="27.723628" y="241.268358" xlink:href="#n"/>
<use x="27.723628" y="231.976294" xlink:href="#t"/>
<use x="27.723628" y="222.68423" xlink:href="#j"/>
<use x="27.723628" y="213.392166" xlink:href="#s"/>
<use x="27.723628" y="206.423117" xlink:href="#c"/>
<use x="27.723628" y="197.131053" xlink:href="#o"/>
<use x="27.723628" y="192.485021" xlink:href="#ao"/>
<use x="27.723628" y="180.869941" xlink:href="#an"/>
<use x="27.723628" y="171.577876" xlink:href="#am"/>
<use x="27.723628" y="162.285812" xlink:href="#al"/>
<use x="27.723628" y="152.993748" xlink:href="#n"/>
<use x="27.723628" y="143.701684" xlink:href="#ak"/>
<use x="27.723628" y="136.732635" xlink:href="#j"/>
<use x="27.723628" y="127.440571" xlink:href="#t"/>
<use x="27.723628" y="118.148507" xlink:href="#c"/>
<use x="27.723628" y="108.856443" xlink:href="#q"/>
<use x="27.723628" y="99.564378" xlink:href="#aj"/>
<use x="27.723628" y="90.272314" xlink:href="#s"/>
<use x="27.723628" y="83.303266" xlink:href="#ai"/>
<use x="27.723628" y="74.011202" xlink:href="#ah"/>
<use x="27.723628" y="64.719137" xlink:href="#c"/>
</g>
<g>
<use x="27.723628" y="55.425781" xlink:href="#af"/>
<use x="27.723628" y="50.779749" xlink:href="#ae"/>
<use x="27.723628" y="46.133717" xlink:href="#ad"/>
<use x="27.723628" y="36.841653" xlink:href="#ac"/>
<use x="27.723628" y="32.195621" xlink:href="#ab"/>
</g>
<g>
<use x="115.164062" y="375.433751" xlink:href="#m"/>
<use x="124.451101" y="375.433751" xlink:href="#a"/>
<use x="133.73814" y="375.433751" xlink:href="#d"/>
<use x="138.38166" y="375.433751" xlink:href="#l"/>
<use x="147.668698" y="375.433751" xlink:href="#a"/>
</g>
<g>
<use x="199.453125" y="375.433751" xlink:href="#k"/>
<use x="208.740164" y="375.433751" xlink:href="#a"/>
<use x="218.027203" y="375.433751" xlink:href="#d"/>
<use x="222.670722" y="375.433751" xlink:href="#g"/>
<use x="231.957761" y="375.433751" xlink:href="#a"/>
</g>
<g>
<use x="61.839844" y="246.367344" xlink:href="#l"/>
</g>
<g>
<use x="61.601562" y="152.183751" xlink:href="#g"/>
</g>
<g>
<use x="569.992188" y="226.007969" xlink:href="#b"/>
<use x="579.279226" y="226.007969" xlink:href="#a"/>
<use x="588.566265" y="226.007969" xlink:href="#f"/>
<use x="593.209785" y="226.007969" xlink:href="#e"/>
</g>
<g>
<use x="569.992188" y="260.242344" xlink:href="#b"/>
<use x="579.279226" y="260.242344" xlink:href="#a"/>
<use x="588.566265" y="260.242344" xlink:href="#a"/>
<use x="597.853304" y="260.242344" xlink:href="#f"/>
<use x="602.496823" y="260.242344" xlink:href="#e"/>
</g>
<g>
<use x="569.992188" y="294.472813" xlink:href="#b"/>
<use x="579.279226" y="294.472813" xlink:href="#a"/>
<use x="588.566265" y="294.472813" xlink:href="#a"/>
<use x="597.853304" y="294.472813" xlink:href="#a"/>
<use x="607.140343" y="294.472813" xlink:href="#f"/>
<use x="611.783862" y="294.472813" xlink:href="#e"/>
</g>
<g>
<use x="283.820312" y="375.433751" xlink:href="#g"/>
<use x="293.107351" y="375.433751" xlink:href="#a"/>
<use x="302.39439" y="375.433751" xlink:href="#d"/>
<use x="307.03791" y="375.433751" xlink:href="#i"/>
<use x="316.324948" y="375.433751" xlink:href="#a"/>
</g>
<g>
<use x="368.050781" y="375.433751" xlink:href="#i"/>
<use x="377.33782" y="375.433751" xlink:href="#a"/>
<use x="386.624859" y="375.433751" xlink:href="#d"/>
<use x="391.268378" y="375.433751" xlink:href="#h"/>
<use x="400.555417" y="375.433751" xlink:href="#a"/>
</g>
<g>
<use x="458.28125" y="375.433751" xlink:href="#h"/>
<use x="467.568289" y="375.433751" xlink:href="#a"/>
<use x="476.855328" y="375.433751" xlink:href="#aa"/>
</g>
<g>
<use x="62.117188" y="277.863438" xlink:href="#m"/>
</g>
<g>
<use x="62.011719" y="309.164219" xlink:href="#b"/>
</g>
<g>
<use x="61.648438" y="340.554844" xlink:href="#a"/>
</g>
<g>
<use x="61.507812" y="214.980626" xlink:href="#z"/>
</g>
<g>
<use x="61.941406" y="183.488438" xlink:href="#k"/>
</g>
<g>
<use x="61.914062" y="120.797032" xlink:href="#i"/>
</g>
<g>
<use x="61.675781" y="89.394688" xlink:href="#h"/>
</g>
<g>
<use x="61.703125" y="58.000157" xlink:href="#y"/>
</g>
<g>
<use x="52.785156" y="26.605626" xlink:href="#b"/>
<use x="62.072195" y="26.605626" xlink:href="#a"/>
</g>
<path transform="matrix(2.3218 0 0 2.323 25.164 10.263)" d="m220.94 86.903h5.9744v5.9745h-5.9744z" fill="#39a675" stroke="#000" stroke-width=".75"/>
<path transform="matrix(2.3218 0 0 2.323 25.164 10.263)" d="m220.94 101.64h5.9744v5.9745h-5.9744z" fill="#59f1ac" stroke="#000" stroke-width=".75"/>
<path transform="matrix(2.3218 0 0 2.323 25.164 10.263)" d="m220.94 116.38h5.9744v5.9745h-5.9744z" fill="#c9fade" stroke="#000" stroke-width=".75"/>
<path transform="matrix(2.3218 0 0 2.323 25.164 10.263)" d="m35.566 93.631h7.921v46.367h-7.921z" fill="#39a675" stroke="#000" stroke-width=".75"/>
<path transform="matrix(2.3218 0 0 2.323 25.164 10.263)" d="m43.487 96.924h8.2205v43.074h-8.2205z" fill="#59f1ac" stroke="#000" stroke-width=".75"/>
<path transform="matrix(2.3218 0 0 2.323 25.164 10.263)" d="m51.707 96.924h7.7309v43.074h-7.7309z" fill="#c9fade" stroke="#000" stroke-width=".75"/>
<path transform="matrix(2.3218 0 0 2.323 25.164 10.263)" d="m71.881 50.575h7.921v89.423h-7.921z" fill="#39a675" stroke="#000" stroke-width=".75"/>
<path transform="matrix(2.3218 0 0 2.323 25.164 10.263)" d="m79.802 73.863h8.2205v66.135h-8.2205z" fill="#59f1ac" stroke="#000" stroke-width=".75"/>
<path transform="matrix(2.3218 0 0 2.323 25.164 10.263)" d="m88.023 84.473h7.7309v55.525h-7.7309z" fill="#c9fade" stroke="#000" stroke-width=".75"/>
<path transform="matrix(2.3218 0 0 2.323 25.164 10.263)" d="m108.2 50.713h7.9193v89.285h-7.9193z" fill="#39a675" stroke="#000" stroke-width=".75"/>
<path transform="matrix(2.3218 0 0 2.323 25.164 10.263)" d="m116.12 72.425h8.2221v67.573h-8.2221z" fill="#59f1ac" stroke="#000" stroke-width=".75"/>
<path transform="matrix(2.3218 0 0 2.323 25.164 10.263)" d="m124.34 84.188h7.7292v55.81h-7.7292z" fill="#c9fade" stroke="#000" stroke-width=".75"/>
<path transform="matrix(2.3218 0 0 2.323 25.164 10.263)" d="m144.51 42.692h7.9193v97.306h-7.9193z" fill="#39a675" stroke="#000" stroke-width=".75"/>
<path transform="matrix(2.3218 0 0 2.323 25.164 10.263)" d="m152.43 68.393h8.2205v71.605h-8.2205z" fill="#59f1ac" stroke="#000" stroke-width=".75"/>
<path transform="matrix(2.3218 0 0 2.323 25.164 10.263)" d="m160.65 81.822h7.7309v58.176h-7.7309z" fill="#c9fade" stroke="#000" stroke-width=".75"/>
<path transform="matrix(2.3218 0 0 2.323 25.164 10.263)" d="m180.83 16.966h7.9193v123.03h-7.9193z" fill="#39a675" stroke="#000" stroke-width=".75"/>
<path transform="matrix(2.3218 0 0 2.323 25.164 10.263)" d="m188.75 46.474h8.2205v93.524h-8.2205z" fill="#59f1ac" stroke="#000" stroke-width=".75"/>
<path transform="matrix(2.3218 0 0 2.323 25.164 10.263)" d="m196.97 68.174h7.7309v71.824h-7.7309z" fill="#c9fade" stroke="#000" stroke-width=".75"/>
</svg>
