<?xml version="1.0" encoding="UTF-8"?>
<svg width="400px" height="330px" version="1.1" viewBox="0 0 400 330" xmlns="http://www.w3.org/2000/svg" xmlns:xlink="http://www.w3.org/1999/xlink">
<defs>
<symbol id="q" overflow="visible">
<path d="m3.9375-1.7031h7.0469v1.7031h-9.4844v-1.7031c0.76953-0.78906 1.8164-1.8516 3.1406-3.1875 1.3203-1.3438 2.1562-2.207 2.5-2.5938 0.64453-0.72656 1.0938-1.3438 1.3438-1.8438 0.25781-0.50781 0.39062-1.0078 0.39062-1.5 0-0.78906-0.28125-1.4375-0.84375-1.9375-0.55469-0.5-1.2773-0.75-2.1719-0.75-0.625 0-1.293 0.10938-2 0.32812-0.71094 0.21875-1.4609 0.55469-2.25 1v-2.0312c0.8125-0.33203 1.5664-0.58203 2.2656-0.75 0.70703-0.16406 1.3594-0.25 1.9531-0.25 1.5391 0 2.7695 0.39062 3.6875 1.1719 0.92578 0.77344 1.3906 1.8047 1.3906 3.0938 0 0.61719-0.11719 1.1992-0.34375 1.75-0.23047 0.55469-0.64844 1.2031-1.25 1.9531-0.16797 0.1875-0.69922 0.74609-1.5938 1.6719-0.89844 0.92969-2.1562 2.2188-3.7812 3.875z"/>
</symbol>
<symbol id="z" overflow="visible">
<path d="m8.3125-8.0625c0.96875 0.21094 1.7227 0.64062 2.2656 1.2969 0.55078 0.65625 0.82812 1.4648 0.82812 2.4219 0 1.4805-0.51172 2.625-1.5312 3.4375-1.0117 0.80469-2.4492 1.2031-4.3125 1.2031-0.63672 0-1.2891-0.0625-1.9531-0.1875-0.65625-0.125-1.3398-0.3125-2.0469-0.5625v-1.9531c0.5625 0.33594 1.1758 0.58594 1.8438 0.75 0.66406 0.16797 1.3633 0.25 2.0938 0.25 1.2578 0 2.2227-0.25 2.8906-0.75 0.66406-0.5 1-1.2266 1-2.1875 0-0.88281-0.3125-1.5703-0.9375-2.0625-0.61719-0.5-1.4688-0.75-2.5625-0.75h-1.75v-1.6562h1.8281c0.98828 0 1.7422-0.19531 2.2656-0.59375 0.53125-0.40625 0.79688-0.97656 0.79688-1.7188 0-0.76953-0.27344-1.3594-0.8125-1.7656-0.54297-0.41406-1.3203-0.625-2.3281-0.625-0.55469 0-1.1484 0.0625-1.7812 0.1875-0.63672 0.11719-1.3359 0.30469-2.0938 0.5625v-1.8125c0.75781-0.20703 1.4727-0.36328 2.1406-0.46875 0.67578-0.11328 1.3125-0.17188 1.9062-0.17188 1.5391 0 2.7539 0.35156 3.6406 1.0469 0.89453 0.69922 1.3438 1.6406 1.3438 2.8281 0 0.83594-0.24219 1.5391-0.71875 2.1094-0.46875 0.5625-1.1406 0.95312-2.0156 1.1719z"/>
</symbol>
<symbol id="c" overflow="visible">
<path d="m7.75-13.188-5.1094 7.9844h5.1094zm-0.53125-1.75h2.5469v9.7344h2.125v1.6719h-2.125v3.5312h-2.0156v-3.5312h-6.75v-1.9375z"/>
</symbol>
<symbol id="d" overflow="visible">
<path d="m1.6875-14.938h9.6094v0.85938l-5.4375 14.078h-2.1094l5.1094-13.25h-7.1719z"/>
</symbol>
<symbol id="p" overflow="visible">
<path d="m1.4688-10.875h6.8594v1.2344h-5.3906v3.2188h5.1719v1.2344h-5.1719v3.9531h5.5312v1.2344h-7z"/>
</symbol>
<symbol id="g" overflow="visible">
<path d="m1.4062-8.1562h1.3438v8.1562h-1.3438zm0-3.1875h1.3438v1.7031h-1.3438z"/>
</symbol>
<symbol id="j" overflow="visible">
<path d="m0.82812-8.1562h6.3594v1.2188l-5.0469 5.8594h5.0469v1.0781h-6.5469v-1.2188l5.0312-5.875h-4.8438z"/>
</symbol>
<symbol id="a" overflow="visible">
<path d="m8.375-4.4219v0.65625h-6.1562c0.0625 0.92969 0.33594 1.6367 0.82812 2.125 0.5 0.48047 1.1914 0.71875 2.0781 0.71875 0.51953 0 1.0195-0.0625 1.5-0.1875 0.47656-0.125 0.95703-0.31641 1.4375-0.57812v1.2656c-0.48047 0.21094-0.97656 0.36719-1.4844 0.46875-0.5 0.11328-1.0117 0.17188-1.5312 0.17188-1.3047 0-2.3359-0.37891-3.0938-1.1406-0.75-0.75781-1.125-1.7852-1.125-3.0781 0-1.332 0.35938-2.3906 1.0781-3.1719 0.71875-0.78906 1.6875-1.1875 2.9062-1.1875 1.1016 0 1.9727 0.35547 2.6094 1.0625 0.63281 0.71094 0.95312 1.668 0.95312 2.875zm-1.3438-0.39062c0-0.72656-0.20312-1.3125-0.60938-1.75-0.39844-0.4375-0.92969-0.65625-1.5938-0.65625-0.74219 0-1.3398 0.21484-1.7969 0.64062-0.44922 0.41797-0.70312 1.0117-0.76562 1.7812z"/>
</symbol>
<symbol id="b" overflow="visible">
<path d="m1.4062-11.344h1.3438v11.344h-1.3438z"/>
</symbol>
<symbol id="r" overflow="visible"></symbol>
<symbol id="e" overflow="visible">
<path d="m1.2656-3.2188v-4.9375h1.3438v4.8906c0 0.77344 0.14844 1.3516 0.45312 1.7344 0.30078 0.38672 0.75 0.57812 1.3438 0.57812 0.72656 0 1.3008-0.22656 1.7188-0.6875 0.41406-0.46875 0.625-1.0977 0.625-1.8906v-4.625h1.3438v8.1562h-1.3438v-1.25c-0.32422 0.49219-0.69922 0.85938-1.125 1.1094-0.42969 0.23828-0.92969 0.35938-1.5 0.35938-0.9375 0-1.6523-0.28906-2.1406-0.875-0.48047-0.58203-0.71875-1.4375-0.71875-2.5625z"/>
</symbol>
<symbol id="n" overflow="visible">
<path d="m8.1875-4.9219v4.9219h-1.3438v-4.875c0-0.78125-0.15234-1.3594-0.45312-1.7344-0.30469-0.38281-0.75781-0.57812-1.3594-0.57812-0.71875 0-1.2891 0.23047-1.7031 0.6875-0.41797 0.46094-0.625 1.0898-0.625 1.8906v4.6094h-1.3438v-8.1562h1.3438v1.2656c0.32031-0.48828 0.69531-0.85156 1.125-1.0938 0.4375-0.25 0.9375-0.375 1.5-0.375 0.9375 0 1.6445 0.29297 2.125 0.875 0.48828 0.58594 0.73438 1.4375 0.73438 2.5625z"/>
</symbol>
<symbol id="i" overflow="visible">
<path d="m6.7656-6.9219v-4.4219h1.3438v11.344h-1.3438v-1.2188c-0.28125 0.48047-0.63672 0.83984-1.0625 1.0781-0.42969 0.23828-0.94531 0.35938-1.5469 0.35938-0.99219 0-1.793-0.39453-2.4062-1.1875-0.61719-0.78906-0.92188-1.8281-0.92188-3.1094s0.30469-2.3125 0.92188-3.0938c0.61328-0.78906 1.4141-1.1875 2.4062-1.1875 0.60156 0 1.1172 0.12109 1.5469 0.35938 0.42578 0.23047 0.78125 0.58984 1.0625 1.0781zm-4.5625 2.8438c0 0.99219 0.20312 1.7656 0.60938 2.3281s0.96094 0.84375 1.6719 0.84375c0.70703 0 1.2656-0.28125 1.6719-0.84375s0.60938-1.3359 0.60938-2.3281c0-0.97656-0.20312-1.75-0.60938-2.3125s-0.96484-0.84375-1.6719-0.84375c-0.71094 0-1.2656 0.28125-1.6719 0.84375s-0.60938 1.3359-0.60938 2.3125z"/>
</symbol>
<symbol id="m" overflow="visible">
<path d="m7.9844-10.516v1.4375c-0.5625-0.26953-1.0938-0.46875-1.5938-0.59375-0.49219-0.13281-0.96484-0.20312-1.4219-0.20312-0.80469 0-1.4219 0.15625-1.8594 0.46875-0.4375 0.30469-0.65625 0.74219-0.65625 1.3125 0 0.49219 0.14453 0.85938 0.4375 1.1094 0.28906 0.24219 0.83594 0.43359 1.6406 0.57812l0.89062 0.1875c1.0938 0.21094 1.8984 0.57812 2.4219 1.1094 0.51953 0.52344 0.78125 1.2266 0.78125 2.1094 0 1.0547-0.35547 1.8555-1.0625 2.4062-0.69922 0.54297-1.7305 0.8125-3.0938 0.8125-0.51172 0-1.0586-0.0625-1.6406-0.1875-0.58594-0.11328-1.1836-0.28516-1.7969-0.51562v-1.5156c0.59375 0.33594 1.1758 0.58984 1.75 0.76562 0.57031 0.16797 1.1328 0.25 1.6875 0.25 0.84375 0 1.4883-0.16016 1.9375-0.48438 0.45703-0.33203 0.6875-0.80469 0.6875-1.4219 0-0.53125-0.16797-0.94531-0.5-1.25-0.32422-0.30078-0.85547-0.53125-1.5938-0.6875l-0.90625-0.17188c-1.0938-0.21875-1.8867-0.55469-2.375-1.0156-0.49219-0.46875-0.73438-1.1172-0.73438-1.9531 0-0.95703 0.33594-1.7109 1.0156-2.2656 0.67578-0.5625 1.6094-0.84375 2.7969-0.84375 0.50781 0 1.0234 0.046875 1.5469 0.14062 0.53125 0.09375 1.0781 0.23438 1.6406 0.42188z"/>
</symbol>
<symbol id="l" overflow="visible">
<path d="m5.1094-4.1094c-1.0859 0-1.8359 0.125-2.25 0.375-0.41797 0.25-0.625 0.67188-0.625 1.2656 0 0.48047 0.15625 0.85938 0.46875 1.1406s0.73828 0.42188 1.2812 0.42188c0.73828 0 1.332-0.25781 1.7812-0.78125 0.44531-0.53125 0.67188-1.2344 0.67188-2.1094v-0.3125zm2.6719-0.54688v4.6562h-1.3438v-1.2344c-0.30469 0.49219-0.68359 0.85547-1.1406 1.0938-0.46094 0.23828-1.0156 0.35938-1.6719 0.35938-0.83594 0-1.5-0.23438-2-0.70312-0.49219-0.46875-0.73438-1.0977-0.73438-1.8906 0-0.91406 0.30469-1.6094 0.92188-2.0781 0.61328-0.46875 1.5312-0.70312 2.75-0.70312h1.875v-0.125c0-0.61328-0.20312-1.0859-0.60938-1.4219-0.40625-0.34375-0.97656-0.51562-1.7031-0.51562-0.46875 0-0.92188 0.058594-1.3594 0.17188-0.4375 0.10547-0.86719 0.27344-1.2812 0.5v-1.2344c0.5-0.19531 0.97656-0.34375 1.4375-0.4375 0.45703-0.09375 0.90625-0.14062 1.3438-0.14062 1.1758 0 2.0547 0.30859 2.6406 0.92188 0.58203 0.61719 0.875 1.543 0.875 2.7812z"/>
</symbol>
<symbol id="k" overflow="visible">
<path d="m7.75-6.5938c0.33203-0.60156 0.73438-1.0469 1.2031-1.3281 0.46875-0.28906 1.0156-0.4375 1.6406-0.4375 0.85156 0 1.5078 0.29688 1.9688 0.89062 0.45703 0.59375 0.6875 1.4453 0.6875 2.5469v4.9219h-1.3438v-4.875c0-0.78906-0.14062-1.375-0.42188-1.75-0.27344-0.375-0.69531-0.5625-1.2656-0.5625-0.6875 0-1.2344 0.23047-1.6406 0.6875-0.39844 0.46094-0.59375 1.0898-0.59375 1.8906v4.6094h-1.3594v-4.875c0-0.78906-0.14062-1.375-0.42188-1.75-0.27344-0.375-0.69531-0.5625-1.2656-0.5625-0.6875 0-1.2344 0.23438-1.6406 0.70312-0.39844 0.46094-0.59375 1.0859-0.59375 1.875v4.6094h-1.3438v-8.1562h1.3438v1.2656c0.30078-0.5 0.66406-0.86719 1.0938-1.1094 0.42578-0.23828 0.9375-0.35938 1.5312-0.35938 0.58203 0 1.082 0.15234 1.5 0.45312 0.41406 0.30469 0.72266 0.74219 0.92188 1.3125z"/>
</symbol>
<symbol id="y" overflow="visible">
<path d="m7.25-4.0781c0-0.97656-0.20312-1.75-0.60938-2.3125-0.39844-0.5625-0.94922-0.84375-1.6562-0.84375-0.71094 0-1.2656 0.28125-1.6719 0.84375s-0.60938 1.3359-0.60938 2.3125c0 0.99219 0.20312 1.7656 0.60938 2.3281s0.96094 0.84375 1.6719 0.84375c0.70703 0 1.2578-0.28125 1.6562-0.84375 0.40625-0.5625 0.60938-1.3359 0.60938-2.3281zm-4.5469-2.8438c0.28125-0.48828 0.63281-0.84766 1.0625-1.0781 0.42578-0.23828 0.94141-0.35938 1.5469-0.35938 0.98828 0 1.7891 0.39844 2.4062 1.1875 0.61328 0.78125 0.92188 1.8125 0.92188 3.0938s-0.30859 2.3203-0.92188 3.1094c-0.61719 0.79297-1.418 1.1875-2.4062 1.1875-0.60547 0-1.1211-0.12109-1.5469-0.35938-0.42969-0.23828-0.78125-0.59766-1.0625-1.0781v1.2188h-1.3438v-11.344h1.3438z"/>
</symbol>
<symbol id="x" overflow="visible">
<path d="m5.5312-11.344v1.125h-1.2812c-0.48047 0-0.8125 0.10156-1 0.29688-0.1875 0.1875-0.28125 0.53906-0.28125 1.0469v0.71875h2.2031v1.0312h-2.2031v7.125h-1.3438v-7.125h-1.2812v-1.0312h1.2812v-0.57812c0-0.90625 0.20703-1.5664 0.625-1.9844 0.42578-0.41406 1.0977-0.625 2.0156-0.625z"/>
</symbol>
<symbol id="w" overflow="visible">
<path d="m6.125-6.9062c-0.14844-0.082031-0.30859-0.14453-0.48438-0.1875-0.17969-0.039062-0.375-0.0625-0.59375-0.0625-0.75 0-1.3281 0.24609-1.7344 0.73438-0.40625 0.49219-0.60938 1.1992-0.60938 2.125v4.2969h-1.3438v-8.1562h1.3438v1.2656c0.28125-0.5 0.64453-0.86719 1.0938-1.1094 0.44531-0.23828 0.99219-0.35938 1.6406-0.35938 0.09375 0 0.19531 0.007813 0.3125 0.015625 0.11328 0.011719 0.23828 0.03125 0.375 0.0625z"/>
</symbol>
<symbol id="v" overflow="visible">
<path d="m7.2656-7.8438v1.25c-0.375-0.20703-0.75781-0.36328-1.1406-0.46875-0.375-0.10156-0.75781-0.15625-1.1406-0.15625-0.875 0-1.5547 0.27734-2.0312 0.82812-0.48047 0.55469-0.71875 1.3242-0.71875 2.3125 0 1 0.23828 1.7773 0.71875 2.3281 0.47656 0.55469 1.1562 0.82812 2.0312 0.82812 0.38281 0 0.76562-0.050781 1.1406-0.15625 0.38281-0.10156 0.76562-0.25781 1.1406-0.46875v1.2344c-0.375 0.17969-0.76172 0.30859-1.1562 0.39062-0.39844 0.09375-0.82422 0.14062-1.2812 0.14062-1.2305 0-2.2031-0.38281-2.9219-1.1562-0.71875-0.78125-1.0781-1.8281-1.0781-3.1406 0-1.3203 0.36328-2.3633 1.0938-3.125 0.72656-0.76953 1.7266-1.1562 3-1.1562 0.40625 0 0.80469 0.042969 1.2031 0.125 0.39453 0.085937 0.77344 0.21484 1.1406 0.39062z"/>
</symbol>
<symbol id="u" overflow="visible">
<path d="m8.1875-4.9219v4.9219h-1.3438v-4.875c0-0.78125-0.15234-1.3594-0.45312-1.7344-0.30469-0.38281-0.75781-0.57812-1.3594-0.57812-0.71875 0-1.2891 0.23047-1.7031 0.6875-0.41797 0.46094-0.625 1.0898-0.625 1.8906v4.6094h-1.3438v-11.344h1.3438v4.4531c0.32031-0.48828 0.69531-0.85156 1.125-1.0938 0.4375-0.25 0.9375-0.375 1.5-0.375 0.9375 0 1.6445 0.29297 2.125 0.875 0.48828 0.58594 0.73438 1.4375 0.73438 2.5625z"/>
</symbol>
<symbol id="h" overflow="visible">
<path d="m2.7344-10.484v2.3281h2.75v1.0312h-2.75v4.4375c0 0.66797 0.085937 1.0938 0.26562 1.2812 0.1875 0.1875 0.55469 0.28125 1.1094 0.28125h1.375v1.125h-1.375c-1.0312 0-1.7461-0.19141-2.1406-0.57812-0.38672-0.38281-0.57812-1.0859-0.57812-2.1094v-4.4375h-0.98438v-1.0312h0.98438v-2.3281z"/>
</symbol>
<symbol id="t" overflow="visible">
<path d="m2.8594-1.2344h5.125v1.2344h-6.8906v-1.2344c0.55078-0.58203 1.3047-1.3594 2.2656-2.3281 0.96875-0.97656 1.5781-1.6094 1.8281-1.8906 0.46875-0.53125 0.79688-0.97656 0.98438-1.3438 0.1875-0.36328 0.28125-0.72266 0.28125-1.0781 0-0.58203-0.20312-1.0547-0.60938-1.4219-0.40625-0.36328-0.93359-0.54688-1.5781-0.54688-0.46094 0-0.94922 0.085938-1.4688 0.25-0.51172 0.15625-1.0547 0.40234-1.625 0.73438v-1.5c0.58203-0.22656 1.1289-0.40625 1.6406-0.53125 0.51953-0.125 0.99219-0.1875 1.4219-0.1875 1.125 0 2.0195 0.28125 2.6875 0.84375 0.67578 0.5625 1.0156 1.3203 1.0156 2.2656 0 0.44922-0.085938 0.875-0.25 1.2812-0.16797 0.39844-0.47656 0.86719-0.92188 1.4062-0.11719 0.13672-0.5 0.54297-1.1562 1.2188-0.64844 0.67969-1.5625 1.6211-2.75 2.8281z"/>
</symbol>
<symbol id="f" overflow="visible">
<path d="m0.73438-4.6875h3.9219v1.2031h-3.9219z"/>
</symbol>
<symbol id="o" overflow="visible">
<path d="m0.84375-10.875h8.5312v1.125l-6.875 8.5156h7.0469v1.2344h-8.875v-1.125l6.875-8.5156h-6.7031z"/>
</symbol>
<symbol id="s" overflow="visible">
<path d="m5.6406-9.5938-3.7188 5.8125h3.7188zm-0.39062-1.2812h1.8438v7.0938h1.5469v1.2188h-1.5469v2.5625h-1.4531v-2.5625h-4.9062v-1.4219z"/>
</symbol>
</defs>
<path transform="matrix(1.8634 0 0 1.8643 7.4449 9.7816)" d="m35.656 52.121c0 6.6275-5.3727 12-12.001 12-6.6263 0-11.999-5.3724-11.999-12s5.3727-12 11.999-12c6.6284 0 12.001 5.3724 12.001 12z" fill="#39a675" stroke="#000"/>
<path transform="matrix(1.8634 0 0 1.8643 7.4449 9.7816)" d="m35.656 91.932c0 6.6275-5.3727 12-12.001 12-6.6263 0-11.999-5.3724-11.999-12s5.3727-12 11.999-12c6.6284 0 12.001 5.3724 12.001 12z" fill="#206043" stroke="#000"/>
<path transform="matrix(1.8634 0 0 1.8643 7.4449 9.7816)" d="m90.831 72.026c0 6.6275-5.3727 12-11.999 12-6.6284 0-12.001-5.3724-12.001-12s5.3727-12 12.001-12c6.6263 0 11.999 5.3724 11.999 12z" fill="#206043" stroke="#000"/>
<path transform="matrix(1.8634 0 0 1.8643 7.4449 9.7816)" d="m146.14 32.349c0 6.6275-5.3727 12-11.999 12-6.6284 0-12.001-5.3724-12.001-12s5.3727-12 12.001-12c6.6263 0 11.999 5.3724 11.999 12z" fill="#206043" stroke="#000"/>
<path transform="matrix(1.8634 0 0 1.8643 7.4449 9.7816)" d="m146.14 111.7c0 6.6275-5.3727 12-11.999 12-6.6284 0-12.001-5.3724-12.001-12 0-6.6275 5.3727-12 12.001-12 6.6263 0 11.999 5.3724 11.999 12z" fill="#206043" stroke="#000"/>
<path transform="matrix(1.8634 0 0 1.8643 7.4449 9.7816)" d="m201.63 131.74c0 6.6275-5.3727 12-12.001 12-6.6263 0-11.999-5.3724-11.999-12s5.3727-12 11.999-12c6.6284 0 12.001 5.3724 12.001 12z" fill="#206043" stroke="#000"/>
<path transform="matrix(1.8634 0 0 1.8643 7.4449 9.7816)" d="m201.63 91.932c0 6.6275-5.3727 12-12.001 12-6.6263 0-11.999-5.3724-11.999-12s5.3727-12 11.999-12c6.6284 0 12.001 5.3724 12.001 12z" fill="#206043" stroke="#000"/>
<path transform="matrix(1.8634 0 0 1.8643 7.4449 9.7816)" d="m201.63 52.121c0 6.6275-5.3727 12-12.001 12-6.6263 0-11.999-5.3724-11.999-12s5.3727-12 11.999-12c6.6284 0 12.001 5.3724 12.001 12z" fill="#206043" stroke="#000"/>
<path transform="matrix(1.8634 0 0 1.8643 7.4449 9.7816)" d="m201.63 12.308c0 6.6275-5.3727 12-12.001 12-6.6263 0-11.999-5.3724-11.999-12s5.3727-12 11.999-12c6.6284 0 12.001 5.3724 12.001 12z" fill="#206043" stroke="#000"/>
<g fill="#fff">
<use x="38.554688" y="114.413091" xlink:href="#q"/>
<use x="51.598717" y="114.413091" xlink:href="#z"/>
</g>
<g fill="#fff">
<use x="38.308594" y="188.780279" xlink:href="#q"/>
<use x="51.352623" y="188.780279" xlink:href="#c"/>
</g>
<g fill="#fff">
<use x="141.675781" y="151.534185" xlink:href="#c"/>
<use x="154.719811" y="151.534185" xlink:href="#d"/>
</g>
<g fill="#fff">
<use x="244.730469" y="77.565435" xlink:href="#c"/>
<use x="257.774498" y="77.565435" xlink:href="#d"/>
</g>
<g fill="#fff">
<use x="348.132812" y="40.202154" xlink:href="#c"/>
<use x="361.176842" y="40.202154" xlink:href="#d"/>
</g>
<g fill="#fff">
<use x="348.132812" y="114.420904" xlink:href="#c"/>
<use x="361.176842" y="114.420904" xlink:href="#d"/>
</g>
<g fill="#fff">
<use x="348.132812" y="188.64356" xlink:href="#c"/>
<use x="361.176842" y="188.64356" xlink:href="#d"/>
</g>
<g fill="#fff">
<use x="348.132812" y="262.866216" xlink:href="#c"/>
<use x="361.176842" y="262.866216" xlink:href="#d"/>
</g>
<g fill="#fff">
<use x="244.730469" y="225.502935" xlink:href="#c"/>
<use x="257.774498" y="225.502935" xlink:href="#d"/>
</g>
<g>
<use x="11.367188" y="301.722612" xlink:href="#p"/>
<use x="20.684352" y="301.722612" xlink:href="#g"/>
<use x="24.411217" y="301.722612" xlink:href="#j"/>
<use x="31.864948" y="301.722612" xlink:href="#a"/>
<use x="41.182112" y="301.722612" xlink:href="#b"/>
<use x="44.908978" y="301.722612" xlink:href="#b"/>
<use x="48.635844" y="301.722612" xlink:href="#a"/>
<use x="57.953008" y="301.722612" xlink:href="#r"/>
<use x="63.543306" y="301.722612" xlink:href="#e"/>
<use x="72.86047" y="301.722612" xlink:href="#n"/>
<use x="82.177634" y="301.722612" xlink:href="#i"/>
</g>
<g>
<use x="8.570312" y="320.367143" xlink:href="#m"/>
<use x="17.887477" y="320.367143" xlink:href="#l"/>
<use x="27.204641" y="320.367143" xlink:href="#k"/>
<use x="42.112103" y="320.367143" xlink:href="#a"/>
<use x="51.429267" y="320.367143" xlink:href="#n"/>
<use x="60.746431" y="320.367143" xlink:href="#j"/>
<use x="68.200162" y="320.367143" xlink:href="#a"/>
<use x="77.517326" y="320.367143" xlink:href="#b"/>
<use x="81.244192" y="320.367143" xlink:href="#b"/>
<use x="84.971057" y="320.367143" xlink:href="#a"/>
</g>
<g>
<use x="111.203125" y="301.722612" xlink:href="#y"/>
<use x="120.520289" y="301.722612" xlink:href="#a"/>
<use x="129.837453" y="301.722612" xlink:href="#x"/>
<use x="135.427751" y="301.722612" xlink:href="#w"/>
<use x="141.01805" y="301.722612" xlink:href="#e"/>
<use x="150.335214" y="301.722612" xlink:href="#v"/>
<use x="157.788945" y="301.722612" xlink:href="#u"/>
<use x="167.106109" y="301.722612" xlink:href="#h"/>
<use x="172.696408" y="301.722612" xlink:href="#a"/>
<use x="182.013572" y="301.722612" xlink:href="#h"/>
<use x="187.60387" y="301.722612" xlink:href="#a"/>
</g>
<g>
<use x="130.769531" y="320.367143" xlink:href="#p"/>
<use x="140.086695" y="320.367143" xlink:href="#g"/>
<use x="143.813561" y="320.367143" xlink:href="#j"/>
<use x="151.267292" y="320.367143" xlink:href="#a"/>
<use x="160.584456" y="320.367143" xlink:href="#b"/>
<use x="164.311322" y="320.367143" xlink:href="#b"/>
<use x="168.038187" y="320.367143" xlink:href="#a"/>
</g>
<g>
<use x="234.246094" y="301.722612" xlink:href="#t"/>
<use x="243.563258" y="301.722612" xlink:href="#f"/>
<use x="249.153556" y="301.722612" xlink:href="#o"/>
<use x="258.47072" y="301.722612" xlink:href="#a"/>
<use x="267.787884" y="301.722612" xlink:href="#b"/>
<use x="271.51475" y="301.722612" xlink:href="#b"/>
<use x="275.241615" y="301.722612" xlink:href="#f"/>
</g>
<g>
<use x="226.792969" y="320.367143" xlink:href="#m"/>
<use x="236.110133" y="320.367143" xlink:href="#h"/>
<use x="241.700431" y="320.367143" xlink:href="#l"/>
<use x="251.017595" y="320.367143" xlink:href="#i"/>
<use x="260.334759" y="320.367143" xlink:href="#g"/>
<use x="264.061625" y="320.367143" xlink:href="#e"/>
<use x="273.378789" y="320.367143" xlink:href="#k"/>
</g>
<g>
<use x="337.648438" y="301.722612" xlink:href="#s"/>
<use x="346.965602" y="301.722612" xlink:href="#f"/>
<use x="352.5559" y="301.722612" xlink:href="#o"/>
<use x="361.873064" y="301.722612" xlink:href="#a"/>
<use x="371.190228" y="301.722612" xlink:href="#b"/>
<use x="374.917094" y="301.722612" xlink:href="#b"/>
<use x="378.643959" y="301.722612" xlink:href="#f"/>
</g>
<g>
<use x="330.195312" y="320.367143" xlink:href="#m"/>
<use x="339.512477" y="320.367143" xlink:href="#h"/>
<use x="345.102775" y="320.367143" xlink:href="#l"/>
<use x="354.419939" y="320.367143" xlink:href="#i"/>
<use x="363.737103" y="320.367143" xlink:href="#g"/>
<use x="367.463969" y="320.367143" xlink:href="#e"/>
<use x="376.781133" y="320.367143" xlink:href="#k"/>
</g>
<path transform="matrix(1.8634 0 0 1.8643 7.4449 9.7816)" d="m35.033 55.934 34.033 9.1188" fill="none" stroke="#000"/>
<path d="m128.95 129.13-4.5664 2.6367 13.566-0.22266-11.637-6.9805z" fill-rule="evenodd"/>
<path transform="matrix(1.8634 0 0 1.8643 7.4449 9.7816)" d="m35.358 89.281 34.532-9.2529" fill="none" stroke="#000"/>
<path d="m130.48 160.91-2.6328 4.5664 11.633-6.9805-13.562-0.22266z" fill-rule="evenodd"/>
<path transform="matrix(1.8634 0 0 1.8643 7.4449 9.7816)" d="m88.58 65.028 33.591-33.59" fill="none" stroke="#000"/>
<path d="m229.83 73.664v5.2695l6.5898-11.863-11.859 6.5938z" fill-rule="evenodd"/>
<path transform="matrix(1.8634 0 0 1.8643 7.4449 9.7816)" d="m87.687 80.125 34.924 34.925" fill="none" stroke="#000"/>
<path d="m230.65 218.99h-5.2695l11.855 6.5898-6.5859-11.863z" fill-rule="evenodd"/>
<path transform="matrix(1.8634 0 0 1.8643 7.4449 9.7816)" d="m145.34 107.41 34.098-9.1377" fill="none" stroke="#000"/>
<path d="m334.62 194.92-2.6367 4.5664 11.637-6.9766-13.566-0.22656z" fill-rule="evenodd"/>
<path transform="matrix(1.8634 0 0 1.8643 7.4449 9.7816)" d="m145.02 116.75 34.125 9.144" fill="none" stroke="#000"/>
<path d="m334.07 242.56-4.5664 2.6367 13.566-0.22656-11.637-6.9766z" fill-rule="evenodd"/>
<path transform="matrix(1.8634 0 0 1.8643 7.4449 9.7816)" d="m145.06 37.305 34.004 9.1104" fill="none" stroke="#000"/>
<path d="m333.93 94.383-4.5664 2.6367 13.566-0.22266-11.637-6.9805z" fill-rule="evenodd"/>
<path transform="matrix(1.8634 0 0 1.8643 7.4449 9.7816)" d="m145.07 27.404 34.136-9.1482" fill="none" stroke="#000"/>
<path d="m334.18 45.746-2.6367 4.5664 11.637-6.9766-13.566-0.22656z" fill-rule="evenodd"/>
</svg>
