<?xml version="1.0" encoding="UTF-8"?>
<svg width="800px" height="115px" version="1.1" viewBox="0 0 800 115" xmlns="http://www.w3.org/2000/svg" xmlns:xlink="http://www.w3.org/1999/xlink">
<defs>
<symbol id="at" overflow="visible">
<path d="m6.6719-9.5312c-0.89844 0-1.5938 0.33594-2.0938 1-0.5 0.66797-0.75 1.6055-0.75 2.8125 0 1.1992 0.25 2.1328 0.75 2.7969 0.5 0.66797 1.1953 1 2.0938 1 0.90625 0 1.6016-0.33203 2.0938-1 0.5-0.66406 0.75-1.5977 0.75-2.7969 0-1.207-0.25-2.1445-0.75-2.8125-0.49219-0.66406-1.1875-1-2.0938-1zm0-2.1406c1.8438 0 3.2852 0.52734 4.3281 1.5781 1.0391 1.0547 1.5625 2.5117 1.5625 4.375 0 1.8555-0.52344 3.3086-1.5625 4.3594-1.043 1.0547-2.4844 1.5781-4.3281 1.5781-1.8359 0-3.2773-0.52344-4.3281-1.5781-1.043-1.0508-1.5625-2.5039-1.5625-4.3594 0-1.8633 0.51953-3.3203 1.5625-4.375 1.0508-1.0508 2.4922-1.5781 4.3281-1.5781z"/>
</symbol>
<symbol id="x" overflow="visible">
<path d="m1.3125-11.953h2.75v6.5l3.1562-3.1562h3.1875l-4.1875 3.9531 4.5312 4.6562h-3.3281l-3.3594-3.5938v3.5938h-2.75z"/>
</symbol>
<symbol id="ak" overflow="visible">
<path d="m0.89062-8.6094h7.5v1.9219l-4.5312 4.7188h4.5312v1.9688h-7.6875v-1.9219l4.5312-4.7188h-4.3438z"/>
</symbol>
<symbol id="l" overflow="visible">
<path d="m1.3125-8.6094h2.75v8.6094h-2.75zm0-3.3438h2.75v2.2344h-2.75z"/>
</symbol>
<symbol id="s" overflow="visible">
<path d="m4.0625-1.25v4.5156h-2.75v-11.875h2.75v1.2656c0.375-0.5 0.78906-0.86719 1.25-1.1094 0.46875-0.23828 1-0.35938 1.5938-0.35938 1.0625 0 1.9297 0.42188 2.6094 1.2656 0.67578 0.84375 1.0156 1.9297 1.0156 3.25 0 1.3242-0.33984 2.4062-1.0156 3.25-0.67969 0.84375-1.5469 1.2656-2.6094 1.2656-0.59375 0-1.125-0.11719-1.5938-0.34375-0.46094-0.23828-0.875-0.61328-1.25-1.125zm1.8281-5.5625c-0.59375 0-1.0469 0.21875-1.3594 0.65625-0.3125 0.42969-0.46875 1.0469-0.46875 1.8594s0.15625 1.4375 0.46875 1.875c0.3125 0.42969 0.76562 0.64062 1.3594 0.64062 0.58203 0 1.0312-0.21094 1.3438-0.64062 0.3125-0.42578 0.46875-1.0508 0.46875-1.875 0-0.82031-0.15625-1.4453-0.46875-1.875-0.3125-0.42578-0.76172-0.64062-1.3438-0.64062z"/>
</symbol>
<symbol id="r" overflow="visible">
<path d="m4.3125-11.047v2.4375h2.8281v1.9688h-2.8281v3.6562c0 0.39844 0.078125 0.66797 0.23438 0.8125 0.16406 0.13672 0.48438 0.20312 0.95312 0.20312h1.4062v1.9688h-2.3594c-1.0859 0-1.8516-0.22266-2.2969-0.67188-0.44922-0.45703-0.67188-1.2266-0.67188-2.3125v-3.6562h-1.375v-1.9688h1.375v-2.4375z"/>
</symbol>
<symbol id="f" overflow="visible">
<path d="m5.1719-3.875c-0.57422 0-1.0078 0.10156-1.2969 0.29688-0.29297 0.19922-0.4375 0.48438-0.4375 0.85938 0 0.34375 0.11328 0.61719 0.34375 0.8125 0.23828 0.19922 0.56641 0.29688 0.98438 0.29688 0.50781 0 0.94141-0.17969 1.2969-0.54688 0.35156-0.375 0.53125-0.84375 0.53125-1.4062v-0.3125zm4.1875-1.0312v4.9062h-2.7656v-1.2812c-0.36719 0.53125-0.78125 0.91797-1.25 1.1562-0.46094 0.22656-1.0156 0.34375-1.6719 0.34375-0.88672 0-1.6094-0.25781-2.1719-0.78125-0.55469-0.51953-0.82812-1.1914-0.82812-2.0156 0-1.0078 0.34375-1.75 1.0312-2.2188 0.69531-0.47656 1.7852-0.71875 3.2656-0.71875h1.625v-0.20312c0-0.4375-0.17188-0.75391-0.51562-0.95312-0.34375-0.20703-0.875-0.3125-1.5938-0.3125-0.59375 0-1.1484 0.0625-1.6562 0.1875-0.5 0.11719-0.96875 0.28906-1.4062 0.51562v-2.0938c0.59375-0.14453 1.1875-0.25391 1.7812-0.32812 0.59375-0.070313 1.1797-0.10938 1.7656-0.10938 1.5508 0 2.6719 0.30859 3.3594 0.92188 0.6875 0.61719 1.0312 1.6094 1.0312 2.9844z"/>
</symbol>
<symbol id="k" overflow="visible">
<path d="m1.3125-11.953h2.75v11.953h-2.75z"/>
</symbol>
<symbol id="b" overflow="visible">
<path d="m9.8906-4.3281v0.78125h-6.4219c0.070312 0.64844 0.30469 1.1328 0.70312 1.4531 0.39453 0.32422 0.95312 0.48438 1.6719 0.48438 0.57031 0 1.1602-0.082031 1.7656-0.25 0.61328-0.17578 1.2383-0.4375 1.875-0.78125v2.125c-0.64844 0.24219-1.2969 0.42188-1.9531 0.54688-0.64844 0.125-1.293 0.1875-1.9375 0.1875-1.5547 0-2.7617-0.39453-3.625-1.1875-0.86719-0.78906-1.2969-1.8984-1.2969-3.3281 0-1.4062 0.42188-2.5078 1.2656-3.3125 0.85156-0.80078 2.0195-1.2031 3.5-1.2031 1.3438 0 2.4219 0.40625 3.2344 1.2188s1.2188 1.9023 1.2188 3.2656zm-2.8281-0.90625c0-0.51953-0.15234-0.94141-0.45312-1.2656-0.30469-0.32031-0.69922-0.48438-1.1875-0.48438-0.53125 0-0.96484 0.15234-1.2969 0.45312-0.33594 0.30469-0.54297 0.73438-0.625 1.2969z"/>
</symbol>
<symbol id="aa" overflow="visible">
<path d="m9.9531-5.2344v5.2344h-2.7656v-4.0156c0-0.73828-0.015625-1.25-0.046875-1.5312s-0.089844-0.48828-0.17188-0.625c-0.10547-0.17578-0.25-0.3125-0.4375-0.40625-0.1875-0.10156-0.39844-0.15625-0.625-0.15625-0.57422 0-1.0273 0.22656-1.3594 0.67188-0.32422 0.4375-0.48438 1.0469-0.48438 1.8281v4.2344h-2.75v-8.6094h2.75v1.2656c0.41406-0.5 0.85156-0.86719 1.3125-1.1094 0.46875-0.23828 0.98438-0.35938 1.5469-0.35938 0.98828 0 1.7383 0.30859 2.25 0.92188 0.51953 0.60547 0.78125 1.4922 0.78125 2.6562z"/>
</symbol>
<symbol id="as" overflow="visible">
<path d="m0.46875-11.469h2.8281l1.9844 8.3281 1.9531-8.3281h2.8438l1.9688 8.3281 1.9844-8.3281h2.7969l-2.7031 11.469h-3.3906l-2.0781-8.7188-2.0625 8.7188h-3.4062z"/>
</symbol>
<symbol id="c" overflow="visible">
<path d="m7.7031-6.2656c-0.24219-0.11328-0.48047-0.19531-0.71875-0.25-0.24219-0.050781-0.48047-0.078125-0.71875-0.078125-0.71094 0-1.2578 0.23047-1.6406 0.6875-0.375 0.44922-0.5625 1.0938-0.5625 1.9375v3.9688h-2.75v-8.6094h2.75v1.4219c0.35156-0.5625 0.75781-0.97266 1.2188-1.2344 0.45703-0.25781 1.0039-0.39062 1.6406-0.39062 0.09375 0 0.19141 0.007812 0.29688 0.015625 0.11328 0 0.26953 0.015625 0.46875 0.046875z"/>
</symbol>
<symbol id="t" overflow="visible">
<path d="m8.2656-8.3281v2.2344c-0.375-0.25781-0.75-0.44531-1.125-0.5625-0.375-0.125-0.76562-0.1875-1.1719-0.1875-0.77344 0-1.3711 0.22656-1.7969 0.67188-0.42969 0.44922-0.64062 1.0742-0.64062 1.875 0 0.80469 0.21094 1.4297 0.64062 1.875 0.42578 0.44922 1.0234 0.67188 1.7969 0.67188 0.42578 0 0.83203-0.0625 1.2188-0.1875 0.38281-0.125 0.74219-0.3125 1.0781-0.5625v2.25c-0.4375 0.15625-0.88281 0.26953-1.3281 0.34375-0.4375 0.082031-0.875 0.125-1.3125 0.125-1.5547 0-2.7656-0.39453-3.6406-1.1875-0.875-0.80078-1.3125-1.9102-1.3125-3.3281 0-1.4141 0.4375-2.5195 1.3125-3.3125 0.875-0.80078 2.0859-1.2031 3.6406-1.2031 0.44531 0 0.89062 0.042969 1.3281 0.125 0.4375 0.074219 0.875 0.19531 1.3125 0.35938z"/>
</symbol>
<symbol id="z" overflow="visible">
<path d="m0.84375-5.6406h4.8281v2.2344h-4.8281z"/>
</symbol>
<symbol id="y" overflow="visible">
<path d="m8.3906-2.0938h-4.625l-0.71875 2.0938h-2.9688l4.2344-11.469h3.5312l4.2344 11.469h-2.9688zm-3.875-2.125h3.125l-1.5625-4.5625z"/>
</symbol>
<symbol id="ar" overflow="visible">
<path d="m6.0312-7.0312c0.45703 0 0.80469-0.097656 1.0469-0.29688 0.23828-0.20703 0.35938-0.51562 0.35938-0.92188 0-0.38281-0.12109-0.67969-0.35938-0.89062-0.24219-0.20703-0.58984-0.3125-1.0469-0.3125h-1.6406v2.4219zm0.09375 5.0156c0.59375 0 1.0352-0.125 1.3281-0.375 0.30078-0.25 0.45312-0.62891 0.45312-1.1406 0-0.48828-0.14844-0.85938-0.4375-1.1094-0.29297-0.25-0.74219-0.375-1.3438-0.375h-1.7344v3zm2.75-4.125c0.63281 0.1875 1.125 0.53125 1.4688 1.0312 0.34375 0.49219 0.51562 1.1016 0.51562 1.8281 0 1.1055-0.375 1.9297-1.125 2.4688-0.74219 0.54297-1.8711 0.8125-3.3906 0.8125h-4.9062v-11.469h4.4375c1.5938 0 2.7422 0.24219 3.4531 0.71875 0.70703 0.48047 1.0625 1.25 1.0625 2.3125 0 0.5625-0.13281 1.043-0.39062 1.4375-0.26172 0.38672-0.63672 0.67188-1.125 0.85938z"/>
</symbol>
<symbol id="m" overflow="visible">
<path d="m5.4062-6.8438c-0.60547 0-1.0703 0.21875-1.3906 0.65625-0.32422 0.4375-0.48438 1.0703-0.48438 1.8906 0 0.82422 0.16016 1.4531 0.48438 1.8906 0.32031 0.4375 0.78516 0.65625 1.3906 0.65625 0.59375 0 1.0469-0.21875 1.3594-0.65625 0.32031-0.4375 0.48438-1.0664 0.48438-1.8906 0-0.82031-0.16406-1.4531-0.48438-1.8906-0.3125-0.4375-0.76562-0.65625-1.3594-0.65625zm0-1.9688c1.4766 0 2.6289 0.40234 3.4531 1.2031 0.83203 0.79297 1.25 1.8984 1.25 3.3125 0 1.418-0.41797 2.5273-1.25 3.3281-0.82422 0.79297-1.9766 1.1875-3.4531 1.1875-1.4805 0-2.6406-0.39453-3.4844-1.1875-0.83594-0.80078-1.25-1.9102-1.25-3.3281 0-1.4141 0.41406-2.5195 1.25-3.3125 0.84375-0.80078 2.0039-1.2031 3.4844-1.2031z"/>
</symbol>
<symbol id="aq" overflow="visible">
<path d="m1.4375-11.469h3.7656l2.6094 6.1406 2.6094-6.1406h3.75v11.469h-2.7812v-8.3906l-2.6406 6.1875h-1.875l-2.6406-6.1875v8.3906h-2.7969z"/>
</symbol>
<symbol id="ap" overflow="visible">
<path d="m8.0312-8.3281v2.0781c-0.59375-0.23828-1.168-0.42188-1.7188-0.54688-0.54297-0.125-1.0547-0.1875-1.5312-0.1875-0.52344 0-0.91406 0.070313-1.1719 0.20312-0.25 0.125-0.375 0.32422-0.375 0.59375 0 0.21875 0.09375 0.39062 0.28125 0.51562 0.19531 0.11719 0.53906 0.19922 1.0312 0.25l0.48438 0.078125c1.4062 0.17969 2.3516 0.47656 2.8438 0.89062 0.48828 0.40625 0.73438 1.0469 0.73438 1.9219 0 0.91797-0.33984 1.6055-1.0156 2.0625-0.67969 0.46094-1.6875 0.6875-3.0312 0.6875-0.5625 0-1.1484-0.046875-1.75-0.14062-0.60547-0.082031-1.2305-0.21094-1.875-0.39062v-2.0938c0.55078 0.27344 1.1133 0.47656 1.6875 0.60938 0.57031 0.125 1.1562 0.1875 1.75 0.1875 0.53906 0 0.94531-0.070313 1.2188-0.21875 0.26953-0.14453 0.40625-0.36328 0.40625-0.65625 0-0.25-0.09375-0.42969-0.28125-0.54688-0.1875-0.125-0.5625-0.21875-1.125-0.28125l-0.46875-0.0625c-1.2305-0.15625-2.0898-0.44141-2.5781-0.85938-0.49219-0.41406-0.73438-1.0469-0.73438-1.8906 0-0.90625 0.3125-1.5781 0.9375-2.0156 0.625-0.44531 1.5781-0.67188 2.8594-0.67188 0.50781 0 1.0391 0.042969 1.5938 0.125 0.5625 0.074219 1.1719 0.19531 1.8281 0.35938z"/>
</symbol>
<symbol id="ao" overflow="visible">
<path d="m9.9531-5.2344v5.2344h-2.7656v-4c0-0.75-0.015625-1.2656-0.046875-1.5469s-0.089844-0.48828-0.17188-0.625c-0.10547-0.17578-0.25-0.3125-0.4375-0.40625-0.1875-0.10156-0.39844-0.15625-0.625-0.15625-0.57422 0-1.0273 0.22656-1.3594 0.67188-0.32422 0.4375-0.48438 1.0469-0.48438 1.8281v4.2344h-2.75v-11.953h2.75v4.6094c0.41406-0.5 0.85156-0.86719 1.3125-1.1094 0.46875-0.23828 0.98438-0.35938 1.5469-0.35938 0.98828 0 1.7383 0.30859 2.25 0.92188 0.51953 0.60547 0.78125 1.4922 0.78125 2.6562z"/>
</symbol>
<symbol id="an" overflow="visible"></symbol>
<symbol id="am" overflow="visible">
<path d="m10.516-0.625c-0.54297 0.28125-1.1094 0.49219-1.7031 0.625-0.58594 0.14453-1.1953 0.21875-1.8281 0.21875-1.9062 0-3.418-0.53125-4.5312-1.5938-1.1172-1.0703-1.6719-2.5195-1.6719-4.3438 0-1.832 0.55469-3.2812 1.6719-4.3438 1.1133-1.0703 2.625-1.6094 4.5312-1.6094 0.63281 0 1.2422 0.074219 1.8281 0.21875 0.59375 0.13672 1.1602 0.34375 1.7031 0.625v2.375c-0.54297-0.375-1.0781-0.64453-1.6094-0.8125-0.53125-0.17578-1.0938-0.26562-1.6875-0.26562-1.0547 0-1.8828 0.33984-2.4844 1.0156-0.60547 0.67969-0.90625 1.6094-0.90625 2.7969 0 1.1797 0.30078 2.1055 0.90625 2.7812 0.60156 0.67969 1.4297 1.0156 2.4844 1.0156 0.59375 0 1.1562-0.082031 1.6875-0.25 0.53125-0.17578 1.0664-0.45312 1.6094-0.82812z"/>
</symbol>
<symbol id="al" overflow="visible">
<path d="m3.4844-4.4062-3.0938-4.2031h2.9062l1.75 2.5625 1.7812-2.5625h2.9062l-3.0938 4.1875 3.25 4.4219h-2.9062l-1.9375-2.7188-1.9062 2.7188h-2.9062z"/>
</symbol>
<symbol id="aj" overflow="visible">
<path d="m1.5469-11.469h7.2344v1.2969h-5.6875v3.4062h5.4531v1.2969h-5.4531v4.1562h5.8281v1.3125h-7.375z"/>
</symbol>
<symbol id="i" overflow="visible">
<path d="m6.4531-7.2812c-0.15625-0.09375-0.32812-0.16016-0.51562-0.20312-0.1875-0.039063-0.39062-0.0625-0.60938-0.0625-0.80469 0-1.418 0.26172-1.8438 0.78125-0.42969 0.51172-0.64062 1.2578-0.64062 2.2344v4.5312h-1.4219v-8.6094h1.4219v1.3438c0.30078-0.51953 0.6875-0.90625 1.1562-1.1562 0.47656-0.25781 1.0547-0.39062 1.7344-0.39062 0.09375 0 0.19531 0.007812 0.3125 0.015625 0.125 0.011719 0.25781 0.03125 0.40625 0.0625z"/>
</symbol>
<symbol id="d" overflow="visible">
<path d="m1.4844-8.6094h1.4062v8.6094h-1.4062zm0-3.3438h1.4062v1.7812h-1.4062z"/>
</symbol>
<symbol id="a" overflow="visible">
<path d="m8.625-5.1875v5.1875h-1.4219v-5.1406c0-0.82031-0.16406-1.4297-0.48438-1.8281-0.3125-0.40625-0.78125-0.60938-1.4062-0.60938-0.77344 0-1.375 0.24609-1.8125 0.73438-0.4375 0.48047-0.65625 1.1406-0.65625 1.9844v4.8594h-1.4219v-8.6094h1.4219v1.3438c0.33203-0.51953 0.72656-0.90625 1.1875-1.1562 0.45703-0.25781 0.98828-0.39062 1.5938-0.39062 0.97656 0 1.7227 0.30859 2.2344 0.92188 0.50781 0.61719 0.76562 1.5156 0.76562 2.7031z"/>
</symbol>
<symbol id="h" overflow="visible">
<path d="m8.8281-4.6562v0.6875h-6.4844c0.0625 0.98047 0.35156 1.7266 0.875 2.2344 0.51953 0.51172 1.25 0.76562 2.1875 0.76562 0.53906 0 1.0664-0.066406 1.5781-0.20312 0.50781-0.13281 1.0156-0.33594 1.5156-0.60938v1.3438c-0.51172 0.21875-1.0312 0.38281-1.5625 0.48438-0.53125 0.11328-1.0703 0.17188-1.6094 0.17188-1.375 0-2.4648-0.39453-3.2656-1.1875-0.80469-0.80078-1.2031-1.8828-1.2031-3.25 0-1.4062 0.37891-2.5195 1.1406-3.3438 0.75781-0.83203 1.7852-1.25 3.0781-1.25 1.1562 0 2.0664 0.375 2.7344 1.125 0.67578 0.74219 1.0156 1.75 1.0156 3.0312zm-1.4062-0.42188c-0.011719-0.76953-0.23047-1.3828-0.65625-1.8438-0.41797-0.45703-0.97656-0.6875-1.6719-0.6875-0.79297 0-1.4297 0.22656-1.9062 0.67188-0.46875 0.4375-0.73438 1.0625-0.79688 1.875z"/>
</symbol>
<symbol id="g" overflow="visible">
<path d="m1.3281-3.3906v-5.2188h1.4219v5.1562c0 0.8125 0.15625 1.4297 0.46875 1.8438 0.32031 0.40625 0.79688 0.60938 1.4219 0.60938 0.75781 0 1.3594-0.24219 1.7969-0.73438 0.44531-0.48828 0.67188-1.1484 0.67188-1.9844v-4.8906h1.4219v8.6094h-1.4219v-1.3281c-0.33594 0.53125-0.73047 0.92188-1.1875 1.1719-0.44922 0.25-0.97656 0.375-1.5781 0.375-0.98047 0-1.7305-0.30469-2.25-0.92188-0.51172-0.61328-0.76562-1.5078-0.76562-2.6875z"/>
</symbol>
<symbol id="o" overflow="visible">
<path d="m7.125-4.4062c0-1.0195-0.21484-1.8125-0.64062-2.375-0.41797-0.5625-1.0078-0.84375-1.7656-0.84375-0.75 0-1.3398 0.28125-1.7656 0.84375-0.41797 0.5625-0.625 1.3555-0.625 2.375 0 1.0234 0.20703 1.8125 0.625 2.375 0.42578 0.5625 1.0156 0.84375 1.7656 0.84375 0.75781 0 1.3477-0.28125 1.7656-0.84375 0.42578-0.5625 0.64062-1.3516 0.64062-2.375zm1.4219 3.3438c0 1.457-0.32812 2.5391-0.98438 3.25-0.64844 0.71875-1.6406 1.0781-2.9844 1.0781-0.49219 0-0.96094-0.039063-1.4062-0.10938-0.4375-0.074219-0.85938-0.1875-1.2656-0.34375v-1.375c0.40625 0.22656 0.8125 0.39453 1.2188 0.5 0.40625 0.11328 0.81641 0.17188 1.2344 0.17188 0.92578 0 1.6172-0.24609 2.0781-0.73438 0.45703-0.48047 0.6875-1.2109 0.6875-2.1875v-0.70312c-0.29297 0.51172-0.66797 0.89062-1.125 1.1406-0.44922 0.25-0.99219 0.375-1.625 0.375-1.0547 0-1.9023-0.39844-2.5469-1.2031-0.64844-0.80078-0.96875-1.8672-0.96875-3.2031 0-1.332 0.32031-2.3984 0.96875-3.2031 0.64453-0.80078 1.4922-1.2031 2.5469-1.2031 0.63281 0 1.1758 0.125 1.625 0.375 0.45703 0.25 0.83203 0.63281 1.125 1.1406v-1.3125h1.4219z"/>
</symbol>
<symbol id="n" overflow="visible"></symbol>
<symbol id="ab" overflow="visible">
<path d="m0.875-11.469h9v1.1875l-7.2344 8.9688h7.4062v1.3125h-9.3438v-1.1875l7.2344-8.9844h-7.0625z"/>
</symbol>
<symbol id="e" overflow="visible">
<path d="m4.8125-7.6094c-0.76172 0-1.3594 0.29688-1.7969 0.89062-0.4375 0.58594-0.65625 1.3906-0.65625 2.4219s0.21875 1.8438 0.65625 2.4375 1.0352 0.89062 1.7969 0.89062c0.75 0 1.3438-0.29688 1.7812-0.89062 0.4375-0.60156 0.65625-1.4141 0.65625-2.4375 0-1.0195-0.21875-1.8281-0.65625-2.4219s-1.0312-0.89062-1.7812-0.89062zm0-1.2031c1.2188 0 2.1758 0.40234 2.875 1.2031 0.70703 0.79297 1.0625 1.8984 1.0625 3.3125 0 1.4062-0.35547 2.5117-1.0625 3.3125-0.69922 0.80469-1.6562 1.2031-2.875 1.2031-1.2422 0-2.2109-0.39844-2.9062-1.2031-0.69922-0.80078-1.0469-1.9062-1.0469-3.3125 0-1.4141 0.34766-2.5195 1.0469-3.3125 0.69531-0.80078 1.6641-1.2031 2.9062-1.2031z"/>
</symbol>
<symbol id="ai" overflow="visible">
<path d="m7.125-7.2969v-4.6562h1.4219v11.953h-1.4219v-1.2969c-0.29297 0.52344-0.66797 0.90625-1.125 1.1562-0.44922 0.23828-0.99219 0.35938-1.625 0.35938-1.0312 0-1.875-0.41016-2.5312-1.2344-0.65625-0.83203-0.98438-1.9258-0.98438-3.2812 0-1.3516 0.32812-2.4414 0.98438-3.2656 0.65625-0.83203 1.5-1.25 2.5312-1.25 0.63281 0 1.1758 0.125 1.625 0.375 0.45703 0.25 0.83203 0.63281 1.125 1.1406zm-4.7969 3c0 1.043 0.21094 1.8594 0.64062 2.4531 0.42578 0.59375 1.0078 0.89062 1.75 0.89062 0.75 0 1.3359-0.29688 1.7656-0.89062 0.42578-0.59375 0.64062-1.4102 0.64062-2.4531 0-1.0391-0.21484-1.8516-0.64062-2.4375-0.42969-0.59375-1.0156-0.89062-1.7656-0.89062-0.74219 0-1.3242 0.29688-1.75 0.89062-0.42969 0.58594-0.64062 1.3984-0.64062 2.4375z"/>
</symbol>
<symbol id="ah" overflow="visible">
<path d="m1.5469-11.469h1.5469v10.156h5.5781v1.3125h-7.125z"/>
</symbol>
<symbol id="w" overflow="visible">
<path d="m8.625-8.6094-3.1094 4.1875 3.2656 4.4219h-1.6719l-2.5-3.375-2.5 3.375h-1.6562l3.3281-4.5-3.0469-4.1094h1.6719l2.2656 3.0625 2.2812-3.0625z"/>
</symbol>
<symbol id="q" overflow="visible">
<path d="m1.4219-11.953h1.4219v7.0625l4.2031-3.7188h1.8125l-4.5625 4.0312 4.75 4.5781h-1.8438l-4.3594-4.2031v4.2031h-1.4219z"/>
</symbol>
<symbol id="v" overflow="visible">
<path d="m8.4062-11.094v1.5156c-0.59375-0.28125-1.1523-0.48828-1.6719-0.625-0.52344-0.14453-1.0234-0.21875-1.5-0.21875-0.84375 0-1.4961 0.16797-1.9531 0.5-0.46094 0.32422-0.6875 0.78906-0.6875 1.3906 0 0.51172 0.14844 0.89844 0.45312 1.1562 0.30078 0.26172 0.87891 0.46875 1.7344 0.625l0.9375 0.1875c1.1445 0.21875 1.9922 0.60938 2.5469 1.1719 0.55078 0.55469 0.82812 1.293 0.82812 2.2188 0 1.1172-0.375 1.9609-1.125 2.5312-0.74219 0.57422-1.8281 0.85938-3.2656 0.85938-0.54297 0-1.1211-0.0625-1.7344-0.1875-0.60547-0.11328-1.2344-0.28906-1.8906-0.53125v-1.6094c0.63281 0.35547 1.25 0.625 1.8438 0.8125 0.60156 0.17969 1.1953 0.26562 1.7812 0.26562 0.88281 0 1.5664-0.17188 2.0469-0.51562 0.47656-0.35156 0.71875-0.85156 0.71875-1.5 0-0.5625-0.17188-1-0.51562-1.3125-0.34375-0.32031-0.90625-0.56641-1.6875-0.73438l-0.95312-0.17188c-1.1562-0.22656-1.9961-0.58594-2.5156-1.0781-0.51172-0.5-0.76562-1.1875-0.76562-2.0625 0-1.0078 0.35156-1.8047 1.0625-2.3906 0.71875-0.58203 1.7031-0.875 2.9531-0.875 0.53906 0 1.0859 0.046875 1.6406 0.14062 0.5625 0.09375 1.1328 0.24219 1.7188 0.4375z"/>
</symbol>
<symbol id="ag" overflow="visible">
<path d="m8.1719-6.9531c0.34375-0.63281 0.75781-1.1016 1.25-1.4062 0.5-0.30078 1.0781-0.45312 1.7344-0.45312 0.89453 0 1.5859 0.3125 2.0781 0.9375 0.48828 0.625 0.73438 1.5234 0.73438 2.6875v5.1875h-1.4219v-5.1406c0-0.83203-0.14844-1.4453-0.4375-1.8438-0.29297-0.39453-0.74219-0.59375-1.3438-0.59375-0.73047 0-1.3086 0.24609-1.7344 0.73438-0.41797 0.48047-0.625 1.1406-0.625 1.9844v4.8594h-1.4219v-5.1406c0-0.83203-0.14844-1.4453-0.4375-1.8438-0.29297-0.39453-0.74219-0.59375-1.3438-0.59375-0.71875 0-1.293 0.24609-1.7188 0.73438-0.42969 0.49219-0.64062 1.1523-0.64062 1.9844v4.8594h-1.4219v-8.6094h1.4219v1.3438c0.32031-0.53125 0.70703-0.92188 1.1562-1.1719 0.44531-0.25 0.98438-0.375 1.6094-0.375s1.1562 0.16406 1.5938 0.48438c0.4375 0.3125 0.75781 0.77344 0.96875 1.375z"/>
</symbol>
<symbol id="p" overflow="visible">
<path d="m5.375-4.3281c-1.1367 0-1.9219 0.13281-2.3594 0.39062-0.4375 0.26172-0.65625 0.71094-0.65625 1.3438 0 0.5 0.16016 0.90234 0.48438 1.2031 0.33203 0.29297 0.78125 0.4375 1.3438 0.4375 0.78906 0 1.4219-0.27344 1.8906-0.82812 0.46875-0.5625 0.70312-1.3047 0.70312-2.2344v-0.3125zm2.8281-0.57812v4.9062h-1.4219v-1.3125c-0.32422 0.53125-0.72656 0.92188-1.2031 1.1719-0.48047 0.23828-1.0703 0.35938-1.7656 0.35938-0.875 0-1.5742-0.24219-2.0938-0.73438-0.52344-0.5-0.78125-1.1602-0.78125-1.9844 0-0.96875 0.32031-1.6953 0.96875-2.1875 0.65625-0.5 1.625-0.75 2.9062-0.75h1.9688v-0.125c0-0.65625-0.21484-1.1602-0.64062-1.5156-0.42969-0.35156-1.0273-0.53125-1.7969-0.53125-0.49219 0-0.96875 0.058594-1.4375 0.17188-0.46094 0.11719-0.90234 0.29297-1.3281 0.53125v-1.3125c0.50781-0.19531 1.0039-0.34375 1.4844-0.4375 0.48828-0.10156 0.96875-0.15625 1.4375-0.15625 1.2383 0 2.1641 0.32422 2.7812 0.96875 0.61328 0.64844 0.92188 1.625 0.92188 2.9375z"/>
</symbol>
<symbol id="j" overflow="visible">
<path d="m2.875-11.047v2.4375h2.9062v1.1094h-2.9062v4.6719c0 0.69922 0.09375 1.1484 0.28125 1.3438 0.19531 0.19922 0.58594 0.29688 1.1719 0.29688h1.4531v1.1875h-1.4531c-1.0859 0-1.8359-0.20312-2.25-0.60938-0.41797-0.40625-0.625-1.1445-0.625-2.2188v-4.6719h-1.0312v-1.1094h1.0312v-2.4375z"/>
</symbol>
<symbol id="af" overflow="visible">
<path d="m5.0469 0.79688c-0.39844 1.0195-0.78906 1.6875-1.1719 2-0.375 0.3125-0.875 0.46875-1.5 0.46875h-1.1406v-1.1719h0.82812c0.39453 0 0.69531-0.09375 0.90625-0.28125 0.21875-0.1875 0.45703-0.625 0.71875-1.3125l0.25-0.64062-3.4688-8.4688h1.5l2.6719 6.7344 2.6875-6.7344h1.5z"/>
</symbol>
<symbol id="ae" overflow="visible">
<path d="m3.0938-10.188v4.2969h1.9375c0.72656 0 1.2852-0.17969 1.6719-0.54688 0.39453-0.375 0.59375-0.91016 0.59375-1.6094 0-0.6875-0.19922-1.2109-0.59375-1.5781-0.38672-0.375-0.94531-0.5625-1.6719-0.5625zm-1.5469-1.2812h3.4844c1.2891 0 2.2656 0.29297 2.9219 0.875 0.65625 0.58594 0.98438 1.4336 0.98438 2.5469 0 1.1367-0.32812 1.9961-0.98438 2.5781-0.65625 0.57422-1.6328 0.85938-2.9219 0.85938h-1.9375v4.6094h-1.5469z"/>
</symbol>
<symbol id="ad" overflow="visible">
<path d="m8.625-5.1875v5.1875h-1.4219v-5.1406c0-0.82031-0.16406-1.4297-0.48438-1.8281-0.3125-0.40625-0.78125-0.60938-1.4062-0.60938-0.77344 0-1.375 0.24609-1.8125 0.73438-0.4375 0.48047-0.65625 1.1406-0.65625 1.9844v4.8594h-1.4219v-11.953h1.4219v4.6875c0.33203-0.51953 0.72656-0.90625 1.1875-1.1562 0.45703-0.25781 0.98828-0.39062 1.5938-0.39062 0.97656 0 1.7227 0.30859 2.2344 0.92188 0.50781 0.61719 0.76562 1.5156 0.76562 2.7031z"/>
</symbol>
<symbol id="u" overflow="visible">
<path d="m1.4844-11.953h1.4062v11.953h-1.4062z"/>
</symbol>
<symbol id="ac" overflow="visible">
<path d="m5.375-9.9375-2.1094 5.7031h4.2031zm-0.875-1.5312h1.75l4.3594 11.469h-1.6094l-1.0469-2.9375h-5.1562l-1.0469 2.9375h-1.625z"/>
</symbol>
</defs>
<path transform="matrix(2.2439 0 0 2.2479 0 .17956)" d="m1.2499 1.7639h70.876v47.472h-70.876z" fill="#fff" stroke="#000" stroke-width="2.5"/>
<path transform="matrix(2.2439 0 0 2.2479 0 .17956)" d="m95.632 1.7639h70.876v47.472h-70.876z" fill="#fff" stroke="#000" stroke-width="2.5"/>
<path transform="matrix(2.2439 0 0 2.2479 0 .17956)" d="m190.01 1.7639h70.876v47.472h-70.876z" fill="#fff" stroke="#000" stroke-width="2.5"/>
<path transform="matrix(2.2439 0 0 2.2479 0 .17956)" d="m284.39 1.7639h70.876v47.472h-70.876z" fill="#fff" stroke="#000" stroke-width="2.5"/>
<path transform="matrix(2.2439 0 0 2.2479 0 .17956)" d="m72.126 25.766h18.313" fill="none" stroke="#000" stroke-width="2"/>
<path d="m184.99 58.098-8.9766 8.9922 31.414-8.9922-31.414-8.9922z" fill-rule="evenodd"/>
<path transform="matrix(2.2439 0 0 2.2479 0 .17956)" d="m166.51 25.724h18.313" fill="none" stroke="#000" stroke-width="2"/>
<path d="m396.77 58.004-8.9727 8.9922 31.414-8.9922-31.414-8.9922z" fill-rule="evenodd"/>
<path transform="matrix(2.2439 0 0 2.2479 0 .17956)" d="m260.89 25.636h18.313" fill="none" stroke="#000" stroke-width="2"/>
<path d="m608.55 57.805-8.9766 8.9883 31.414-8.9883-31.414-8.9922z" fill-rule="evenodd"/>
<g>
<use x="13.171875" y="32.339432" xlink:href="#at"/>
<use x="26.635372" y="32.339432" xlink:href="#x"/>
<use x="36.732995" y="32.339432" xlink:href="#ak"/>
<use x="45.14768" y="32.339432" xlink:href="#l"/>
<use x="50.196491" y="32.339432" xlink:href="#s"/>
<use x="61.977051" y="32.339432" xlink:href="#l"/>
<use x="67.025862" y="32.339432" xlink:href="#r"/>
<use x="73.757611" y="32.339432" xlink:href="#f"/>
<use x="83.855234" y="32.339432" xlink:href="#k"/>
<use x="88.904045" y="32.339432" xlink:href="#k"/>
<use x="93.952856" y="32.339432" xlink:href="#f"/>
<use x="104.050479" y="32.339432" xlink:href="#s"/>
<use x="115.831039" y="32.339432" xlink:href="#s"/>
<use x="127.611598" y="32.339432" xlink:href="#b"/>
<use x="137.709221" y="32.339432" xlink:href="#aa"/>
</g>
<g>
<use x="39.21875" y="71.675369" xlink:href="#aj"/>
<use x="49.316373" y="71.675369" xlink:href="#i"/>
<use x="56.048121" y="71.675369" xlink:href="#d"/>
<use x="61.096932" y="71.675369" xlink:href="#a"/>
<use x="71.194555" y="71.675369" xlink:href="#a"/>
<use x="81.292178" y="71.675369" xlink:href="#h"/>
<use x="91.3898" y="71.675369" xlink:href="#i"/>
<use x="98.121549" y="71.675369" xlink:href="#g"/>
<use x="108.219171" y="71.675369" xlink:href="#a"/>
<use x="118.316794" y="71.675369" xlink:href="#o"/>
<use x="128.414417" y="71.675369" xlink:href="#n"/>
</g>
<g>
<use x="39.390625" y="91.343338" xlink:href="#ab"/>
<use x="49.488248" y="91.343338" xlink:href="#g"/>
<use x="59.58587" y="91.343338" xlink:href="#e"/>
<use x="69.683493" y="91.343338" xlink:href="#i"/>
<use x="76.415241" y="91.343338" xlink:href="#ai"/>
<use x="86.512864" y="91.343338" xlink:href="#a"/>
<use x="96.610487" y="91.343338" xlink:href="#g"/>
<use x="106.708109" y="91.343338" xlink:href="#a"/>
<use x="116.805732" y="91.343338" xlink:href="#o"/>
</g>
<g>
<use x="227.144531" y="33.862869" xlink:href="#as"/>
<use x="243.973902" y="33.862869" xlink:href="#b"/>
<use x="254.071525" y="33.862869" xlink:href="#c"/>
<use x="262.486211" y="33.862869" xlink:href="#aa"/>
<use x="274.26677" y="33.862869" xlink:href="#l"/>
<use x="279.315582" y="33.862869" xlink:href="#t"/>
<use x="289.413204" y="33.862869" xlink:href="#x"/>
<use x="299.510827" y="33.862869" xlink:href="#b"/>
<use x="309.60845" y="33.862869" xlink:href="#z"/>
<use x="316.340198" y="33.862869" xlink:href="#y"/>
<use x="328.120758" y="33.862869" xlink:href="#c"/>
<use x="336.535443" y="33.862869" xlink:href="#b"/>
<use x="346.633066" y="33.862869" xlink:href="#f"/>
<use x="356.730689" y="33.862869" xlink:href="#k"/>
</g>
<g>
<use x="264.722656" y="73.198807" xlink:href="#ah"/>
<use x="273.137342" y="73.198807" xlink:href="#h"/>
<use x="283.234964" y="73.198807" xlink:href="#w"/>
<use x="293.332587" y="73.198807" xlink:href="#d"/>
<use x="298.381398" y="73.198807" xlink:href="#q"/>
<use x="306.796084" y="73.198807" xlink:href="#e"/>
<use x="316.893707" y="73.198807" xlink:href="#a"/>
<use x="326.991329" y="73.198807" xlink:href="#n"/>
</g>
<g>
<use x="257.464844" y="92.870682" xlink:href="#v"/>
<use x="267.562466" y="92.870682" xlink:href="#h"/>
<use x="277.660089" y="92.870682" xlink:href="#ag"/>
<use x="292.806523" y="92.870682" xlink:href="#p"/>
<use x="302.904146" y="92.870682" xlink:href="#a"/>
<use x="313.001768" y="92.870682" xlink:href="#j"/>
<use x="319.733517" y="92.870682" xlink:href="#d"/>
<use x="324.782328" y="92.870682" xlink:href="#q"/>
</g>
<g>
<use x="454.089844" y="32.339432" xlink:href="#ar"/>
<use x="465.870404" y="32.339432" xlink:href="#c"/>
<use x="474.285089" y="32.339432" xlink:href="#m"/>
<use x="484.382712" y="32.339432" xlink:href="#t"/>
<use x="494.480334" y="32.339432" xlink:href="#f"/>
<use x="504.577957" y="32.339432" xlink:href="#z"/>
<use x="511.309705" y="32.339432" xlink:href="#y"/>
<use x="523.090265" y="32.339432" xlink:href="#c"/>
<use x="531.504951" y="32.339432" xlink:href="#b"/>
<use x="541.602573" y="32.339432" xlink:href="#f"/>
<use x="551.700196" y="32.339432" xlink:href="#k"/>
</g>
<g>
<use x="478.679688" y="71.675369" xlink:href="#v"/>
<use x="488.77731" y="71.675369" xlink:href="#af"/>
<use x="498.874933" y="71.675369" xlink:href="#a"/>
<use x="508.972555" y="71.675369" xlink:href="#j"/>
<use x="515.704304" y="71.675369" xlink:href="#p"/>
<use x="525.801927" y="71.675369" xlink:href="#w"/>
<use x="535.899549" y="71.675369" xlink:href="#n"/>
</g>
<g>
<use x="462.542969" y="91.343338" xlink:href="#ae"/>
<use x="472.640591" y="91.343338" xlink:href="#ad"/>
<use x="482.738214" y="91.343338" xlink:href="#e"/>
<use x="492.835837" y="91.343338" xlink:href="#a"/>
<use x="502.933459" y="91.343338" xlink:href="#e"/>
<use x="513.031082" y="91.343338" xlink:href="#u"/>
<use x="518.079893" y="91.343338" xlink:href="#e"/>
<use x="528.177516" y="91.343338" xlink:href="#o"/>
<use x="538.275139" y="91.343338" xlink:href="#d"/>
<use x="543.32395" y="91.343338" xlink:href="#h"/>
</g>
<g>
<use x="663.929688" y="33.862869" xlink:href="#aq"/>
<use x="679.076121" y="33.862869" xlink:href="#m"/>
<use x="689.173744" y="33.862869" xlink:href="#r"/>
<use x="695.905493" y="33.862869" xlink:href="#m"/>
<use x="706.003115" y="33.862869" xlink:href="#c"/>
<use x="714.417801" y="33.862869" xlink:href="#l"/>
<use x="719.466612" y="33.862869" xlink:href="#ap"/>
<use x="729.564235" y="33.862869" xlink:href="#t"/>
<use x="739.661857" y="33.862869" xlink:href="#ao"/>
<use x="751.442417" y="33.862869" xlink:href="#b"/>
<use x="761.54004" y="33.862869" xlink:href="#c"/>
<use x="769.954725" y="33.862869" xlink:href="#an"/>
</g>
<g>
<use x="687.796875" y="53.530838" xlink:href="#am"/>
<use x="699.577435" y="53.530838" xlink:href="#m"/>
<use x="709.675057" y="53.530838" xlink:href="#c"/>
<use x="718.089743" y="53.530838" xlink:href="#r"/>
<use x="724.821491" y="53.530838" xlink:href="#b"/>
<use x="734.919114" y="53.530838" xlink:href="#al"/>
</g>
<g>
<use x="671.792969" y="92.870682" xlink:href="#ac"/>
<use x="681.890591" y="92.870682" xlink:href="#i"/>
<use x="688.62234" y="92.870682" xlink:href="#j"/>
<use x="695.354088" y="92.870682" xlink:href="#d"/>
<use x="700.4029" y="92.870682" xlink:href="#q"/>
<use x="708.817585" y="92.870682" xlink:href="#g"/>
<use x="718.915208" y="92.870682" xlink:href="#u"/>
<use x="723.964019" y="92.870682" xlink:href="#p"/>
<use x="734.061642" y="92.870682" xlink:href="#j"/>
<use x="740.79339" y="92.870682" xlink:href="#d"/>
<use x="745.842201" y="92.870682" xlink:href="#e"/>
<use x="755.939824" y="92.870682" xlink:href="#a"/>
</g>
</svg>
