<?xml version="1.0" encoding="UTF-8"?>
<svg width="800px" height="276px" version="1.1" viewBox="0 0 800 276" xmlns="http://www.w3.org/2000/svg" xmlns:xlink="http://www.w3.org/1999/xlink">
<defs>
<symbol id="i" overflow="visible">
<path d="m2.1094-2.3438h3v-8.5l-3.0781 0.64062v-2.3125l3.0469-0.625h3.2188v10.797h3v2.3438h-9.1875z"/>
</symbol>
<symbol id="h" overflow="visible">
<path d="m5.1875-2.4844h5.7812v2.4844h-9.5469v-2.4844l4.7969-4.2344c0.42578-0.39453 0.74219-0.77344 0.95312-1.1406 0.20703-0.375 0.3125-0.75781 0.3125-1.1562 0-0.61328-0.21094-1.1094-0.625-1.4844-0.41797-0.375-0.96875-0.5625-1.6562-0.5625-0.52344 0-1.1016 0.11719-1.7344 0.34375-0.625 0.21875-1.2969 0.55469-2.0156 1v-2.8906c0.76953-0.25 1.5234-0.4375 2.2656-0.5625 0.75-0.13281 1.4766-0.20312 2.1875-0.20312 1.5703 0 2.7891 0.34375 3.6562 1.0312 0.875 0.6875 1.3125 1.6523 1.3125 2.8906 0 0.71875-0.1875 1.3906-0.5625 2.0156-0.36719 0.61719-1.1367 1.4453-2.3125 2.4844z"/>
</symbol>
<symbol id="g" overflow="visible">
<path d="m8.3906-7.0938c0.88281 0.23047 1.5547 0.63281 2.0156 1.2031 0.45703 0.5625 0.6875 1.2812 0.6875 2.1562 0 1.3047-0.5 2.293-1.5 2.9688-0.99219 0.67969-2.4375 1.0156-4.3438 1.0156-0.67969 0-1.3555-0.058594-2.0312-0.17188-0.67969-0.10156-1.3516-0.25781-2.0156-0.46875v-2.625c0.63281 0.32422 1.2656 0.57031 1.8906 0.73438 0.625 0.15625 1.2383 0.23438 1.8438 0.23438 0.89453 0 1.582-0.15625 2.0625-0.46875 0.47656-0.3125 0.71875-0.75781 0.71875-1.3438 0-0.59375-0.24609-1.0391-0.73438-1.3438-0.49219-0.3125-1.2148-0.46875-2.1719-0.46875h-1.3594v-2.1875h1.4219c0.85156 0 1.4883-0.12891 1.9062-0.39062 0.41406-0.26953 0.625-0.67969 0.625-1.2344 0-0.5-0.20312-0.88281-0.60938-1.1562-0.40625-0.28125-0.98047-0.42188-1.7188-0.42188-0.54297 0-1.0938 0.0625-1.6562 0.1875-0.55469 0.11719-1.1055 0.29297-1.6562 0.53125v-2.4688c0.66406-0.1875 1.3281-0.32812 1.9844-0.42188s1.3008-0.14062 1.9375-0.14062c1.707 0 2.9844 0.28125 3.8281 0.84375 0.85156 0.55469 1.2812 1.3906 1.2812 2.5156 0 0.77344-0.20312 1.4023-0.60938 1.8906-0.40625 0.49219-1.0078 0.83594-1.7969 1.0312z"/>
</symbol>
<symbol id="l" overflow="visible">
<path d="m6.625-10.359-3.7031 5.5156h3.7031zm-0.5625-2.7812h3.7656v8.2969h1.875v2.4531h-1.875v2.3906h-3.2031v-2.3906h-5.8125v-2.9062z"/>
</symbol>
<symbol id="k" overflow="visible">
<path d="m1.9062-13.141h8.4219v2.4844h-5.7188v2.0312c0.25781-0.0625 0.51953-0.11328 0.78125-0.15625 0.25781-0.039062 0.53125-0.0625 0.8125-0.0625 1.6016 0 2.8477 0.40234 3.7344 1.2031 0.89453 0.80469 1.3438 1.9219 1.3438 3.3594 0 1.418-0.49219 2.5273-1.4688 3.3281-0.96875 0.80469-2.3125 1.2031-4.0312 1.2031-0.75 0-1.4922-0.074219-2.2188-0.21875-0.73047-0.13281-1.4531-0.34766-2.1719-0.64062v-2.6719c0.71875 0.40625 1.3945 0.71484 2.0312 0.92188 0.64453 0.21094 1.2539 0.3125 1.8281 0.3125 0.8125 0 1.4531-0.19531 1.9219-0.59375 0.47656-0.40625 0.71875-0.95312 0.71875-1.6406 0-0.69531-0.24219-1.2422-0.71875-1.6406-0.46875-0.40625-1.1094-0.60938-1.9219-0.60938-0.49219 0-1.0117 0.070312-1.5625 0.20312-0.55469 0.125-1.1484 0.32031-1.7812 0.57812z"/>
</symbol>
<symbol id="j" overflow="visible">
<path d="m8.5938-11.312v4.625h4.5938v2.0781h-4.5938v4.6094h-2.0938v-4.6094h-4.5938v-2.0781h4.5938v-4.625z"/>
</symbol>
<symbol id="f" overflow="visible">
<path d="m2.1094-2.3438h3v-8.5l-3.0781 0.64062v-2.3125l3.0469-0.625h3.2188v10.797h3v2.3438h-9.1875z"/>
</symbol>
<symbol id="e" overflow="visible">
<path d="m5.1875-2.4844h5.7812v2.4844h-9.5469v-2.4844l4.7969-4.2344c0.42578-0.39453 0.74219-0.77344 0.95312-1.1406 0.20703-0.375 0.3125-0.75781 0.3125-1.1562 0-0.61328-0.21094-1.1094-0.625-1.4844-0.41797-0.375-0.96875-0.5625-1.6562-0.5625-0.52344 0-1.1016 0.11719-1.7344 0.34375-0.625 0.21875-1.2969 0.55469-2.0156 1v-2.8906c0.76953-0.25 1.5234-0.4375 2.2656-0.5625 0.75-0.13281 1.4766-0.20312 2.1875-0.20312 1.5703 0 2.7891 0.34375 3.6562 1.0312 0.875 0.6875 1.3125 1.6523 1.3125 2.8906 0 0.71875-0.1875 1.3906-0.5625 2.0156-0.36719 0.61719-1.1367 1.4453-2.3125 2.4844z"/>
</symbol>
<symbol id="d" overflow="visible">
<path d="m8.3906-7.0938c0.88281 0.23047 1.5547 0.63281 2.0156 1.2031 0.45703 0.5625 0.6875 1.2812 0.6875 2.1562 0 1.3047-0.5 2.293-1.5 2.9688-0.99219 0.67969-2.4375 1.0156-4.3438 1.0156-0.67969 0-1.3555-0.058594-2.0312-0.17188-0.67969-0.10156-1.3516-0.25781-2.0156-0.46875v-2.625c0.63281 0.32422 1.2656 0.57031 1.8906 0.73438 0.625 0.15625 1.2383 0.23438 1.8438 0.23438 0.89453 0 1.582-0.15625 2.0625-0.46875 0.47656-0.3125 0.71875-0.75781 0.71875-1.3438 0-0.59375-0.24609-1.0391-0.73438-1.3438-0.49219-0.3125-1.2148-0.46875-2.1719-0.46875h-1.3594v-2.1875h1.4219c0.85156 0 1.4883-0.12891 1.9062-0.39062 0.41406-0.26953 0.625-0.67969 0.625-1.2344 0-0.5-0.20312-0.88281-0.60938-1.1562-0.40625-0.28125-0.98047-0.42188-1.7188-0.42188-0.54297 0-1.0938 0.0625-1.6562 0.1875-0.55469 0.11719-1.1055 0.29297-1.6562 0.53125v-2.4688c0.66406-0.1875 1.3281-0.32812 1.9844-0.42188s1.3008-0.14062 1.9375-0.14062c1.707 0 2.9844 0.28125 3.8281 0.84375 0.85156 0.55469 1.2812 1.3906 1.2812 2.5156 0 0.77344-0.20312 1.4023-0.60938 1.8906-0.40625 0.49219-1.0078 0.83594-1.7969 1.0312z"/>
</symbol>
<symbol id="c" overflow="visible">
<path d="m6.625-10.359-3.7031 5.5156h3.7031zm-0.5625-2.7812h3.7656v8.2969h1.875v2.4531h-1.875v2.3906h-3.2031v-2.3906h-5.8125v-2.9062z"/>
</symbol>
<symbol id="b" overflow="visible">
<path d="m1.9062-13.141h8.4219v2.4844h-5.7188v2.0312c0.25781-0.0625 0.51953-0.11328 0.78125-0.15625 0.25781-0.039062 0.53125-0.0625 0.8125-0.0625 1.6016 0 2.8477 0.40234 3.7344 1.2031 0.89453 0.80469 1.3438 1.9219 1.3438 3.3594 0 1.418-0.49219 2.5273-1.4688 3.3281-0.96875 0.80469-2.3125 1.2031-4.0312 1.2031-0.75 0-1.4922-0.074219-2.2188-0.21875-0.73047-0.13281-1.4531-0.34766-2.1719-0.64062v-2.6719c0.71875 0.40625 1.3945 0.71484 2.0312 0.92188 0.64453 0.21094 1.2539 0.3125 1.8281 0.3125 0.8125 0 1.4531-0.19531 1.9219-0.59375 0.47656-0.40625 0.71875-0.95312 0.71875-1.6406 0-0.69531-0.24219-1.2422-0.71875-1.6406-0.46875-0.40625-1.1094-0.60938-1.9219-0.60938-0.49219 0-1.0117 0.070312-1.5625 0.20312-0.55469 0.125-1.1484 0.32031-1.7812 0.57812z"/>
</symbol>
<symbol id="a" overflow="visible">
<path d="m0.96875-6.4688h5.5312v2.5625h-5.5312z"/>
</symbol>
</defs>
<path transform="matrix(2.261 0 0 2.2631 1.5975 0)" d="m39.621 28.799c-5.5286 0.54888-11.131 0.55061-16.66 0.001726l-21.549 86.135c18.669 7.4669 41.074 7.4669 59.745 0z" fill="none" stroke="#000" stroke-linejoin="round" stroke-width="2.8226"/>
<path transform="matrix(2.261 0 0 2.2631 1.5975 0)" d="m5.2004 99.724c16.581 5.6062 35.59 5.6062 52.169 0" fill="none" stroke="#000" stroke-width=".74682"/>
<path transform="matrix(2.261 0 0 2.2631 1.5975 0)" d="m8.7871 85.417c14.487 4.1183 30.504 4.1183 44.991 0" fill="none" stroke="#000" stroke-width=".74682"/>
<path transform="matrix(2.261 0 0 2.2631 1.5975 0)" d="m12.669 69.901c12.127 2.7893 25.107 2.7893 37.233-0.001726" fill="none" stroke="#000" stroke-width=".74682"/>
<path transform="matrix(2.261 0 0 2.2631 1.5975 0)" d="m16.221 55.698c9.8927 1.8123 20.233 1.8123 30.126 0" fill="none" stroke="#000" stroke-width=".74682"/>
<path transform="matrix(2.261 0 0 2.2631 1.5975 0)" d="m20.076 40.284c7.4101 0.99593 15.003 0.9942 22.413-0.005178" fill="none" stroke="#000" stroke-width=".74682"/>
<path transform="matrix(2.261 0 0 2.2631 1.5975 0)" d="m46.228 16.347c0 8.2488-6.6879 14.937-14.938 14.937-8.248 0-14.936-6.6884-14.936-14.937 0-8.2488 6.6879-14.935 14.936-14.935 8.2497 0 14.938 6.6867 14.938 14.935z" fill="#fff" stroke="#000" stroke-width="2.8226"/>
<path transform="matrix(2.261 0 0 2.2631 1.5975 0)" d="m200.72 100.17c15.805 5.0176 33.667 5.0176 49.474 0" fill="none" stroke="#000" stroke-width=".74682"/>
<path transform="matrix(2.261 0 0 2.2631 1.5975 0)" d="m205.61 86.121c12.885 3.1811 26.807 3.1794 39.692-0.001726" fill="none" stroke="#000" stroke-width=".74682"/>
<path transform="matrix(2.261 0 0 2.2631 1.5975 0)" d="m210.97 70.737c9.5265 1.6743 19.449 1.6743 28.975 0.001726" fill="none" stroke="#000" stroke-width=".74682"/>
<path transform="matrix(2.261 0 0 2.2631 1.5975 0)" d="m215.91 56.516-20.323 58.42c18.671 7.4686 41.076 7.4686 59.745 0l-20.33-58.42c-6.3268 0.72148-12.766 0.72148-19.093 0z" fill="none" stroke="#000" stroke-linejoin="round" stroke-width="2.8226"/>
<path transform="matrix(2.261 0 0 2.2631 1.5975 0)" d="m240.39 44.741c0 8.2488-6.6879 14.935-14.938 14.935-8.248 0-14.936-6.6867-14.936-14.935 0-8.2488 6.6879-14.937 14.936-14.937 8.2497 0 14.938 6.6884 14.938 14.937z" fill="#fff" stroke="#000" stroke-width="2.8226"/>
<path d="m89.215 31.941c0 4.668-3.7812 8.4531-8.4414 8.4531-4.6641 0-8.4453-3.7852-8.4453-8.4531 0-4.668 3.7812-8.4492 8.4453-8.4492 4.6602 0 8.4414 3.7812 8.4414 8.4492z"/>
<path transform="matrix(2.261 0 0 2.2631 1.5975 0)" d="m46.221 21.582s-3.7353 7.4686-14.938 0" fill="none" stroke="#000" stroke-width="1.2702"/>
<path d="m528.21 96.199c0 4.668-3.7773 8.4492-8.4414 8.4492-4.6641 0-8.4414-3.7812-8.4414-8.4492s3.7773-8.4492 8.4414-8.4492c4.6641 0 8.4414 3.7812 8.4414 8.4492z"/>
<path transform="matrix(2.261 0 0 2.2631 1.5975 0)" d="m240.38 49.976s-5.964-2.2542-13.433 1.4792" fill="none" stroke="#000" stroke-width="1.2702"/>
<g>
<use x="66.441406" y="258.23255" xlink:href="#i"/>
</g>
<g>
<use x="66.445312" y="223.209112" xlink:href="#h"/>
</g>
<g>
<use x="66.4375" y="188.185675" xlink:href="#g"/>
</g>
<g>
<use x="66.445312" y="153.162237" xlink:href="#l"/>
</g>
<g>
<use x="66.441406" y="118.1388" xlink:href="#k"/>
</g>
<path transform="matrix(2.2514 0 0 2.2535 4.7884 -246.93)" d="m82.5 225v-75h18.751v75z" fill="none" stroke="#000" stroke-width="2.8346"/>
<path transform="matrix(2.2514 0 0 2.2535 4.7884 -246.93)" d="m101.91 225.22 29.999-18.75-0.66452-75.217h-18.749l-30.679 18.551" fill="none" stroke="#000" stroke-width="2.8346"/>
<path transform="matrix(2.2514 0 0 2.2535 4.7884 -246.93)" d="m101.25 210 29.999-18.75" fill="none" stroke="#000" stroke-width="2.8346"/>
<path transform="matrix(2.2514 0 0 2.2535 4.7884 -246.93)" d="m101.25 195 29.999-18.75" fill="none" stroke="#000" stroke-width="2.8346"/>
<path transform="matrix(2.2514 0 0 2.2535 4.7884 -246.93)" d="m101.25 180 29.999-18.75" fill="none" stroke="#000" stroke-width="2.8346"/>
<path transform="matrix(2.2514 0 0 2.2535 4.7884 -246.93)" d="m101.25 165 29.999-18.75" fill="none" stroke="#000" stroke-width="2.8346"/>
<path transform="matrix(2.2514 0 0 2.2535 4.7884 -246.93)" d="m101.25 150 29.999-18.75" fill="none" stroke="#000" stroke-width="2.8346"/>
<path transform="matrix(2.2514 0 0 2.2535 4.7884 -246.93)" d="m101.25 210h-18.751" fill="none" stroke="#000" stroke-width="2.8346"/>
<path transform="matrix(2.2514 0 0 2.2535 4.7884 -246.93)" d="m82.5 195h18.751" fill="none" stroke="#000" stroke-width="2.8346"/>
<path transform="matrix(2.2514 0 0 2.2535 4.7884 -246.93)" d="m101.25 180h-18.751" fill="none" stroke="#000" stroke-width="2.8346"/>
<path transform="matrix(2.2514 0 0 2.2535 4.7884 -246.93)" d="m82.5 165h18.751" fill="none" stroke="#000" stroke-width="2.8346"/>
<path transform="matrix(2.2514 0 0 2.2535 4.7884 -246.93)" d="m112.56 217.93-0.062461-15.067" fill="none" stroke="#000" stroke-width=".75"/>
<path transform="matrix(2.2514 0 0 2.2535 4.7884 -246.93)" d="m123.73 210.95 0.026025-15.015" fill="none" stroke="#000" stroke-width=".75"/>
<path transform="matrix(2.2514 0 0 2.2535 4.7884 -246.93)" d="m118.22 199.39v-14.895" fill="none" stroke="#000" stroke-width=".75"/>
<path transform="matrix(2.2514 0 0 2.2535 4.7884 -246.93)" d="m112.56 187.93v-15.001" fill="none" stroke="#000" stroke-width=".75"/>
<path transform="matrix(2.2514 0 0 2.2535 4.7884 -246.93)" d="m123.75 180.96v-15.025" fill="none" stroke="#000" stroke-width=".75"/>
<path transform="matrix(2.2514 0 0 2.2535 4.7884 -246.93)" d="m117.98 169.54v-15.042" fill="none" stroke="#000" stroke-width=".75"/>
<path transform="matrix(2.2514 0 0 2.2535 4.7884 -246.93)" d="m123.75 150.94v-15.001" fill="none" stroke="#000" stroke-width=".75"/>
<path transform="matrix(2.2514 0 0 2.2535 4.7884 -246.93)" d="m112.54 157.94v-14.999" fill="none" stroke="#000" stroke-width=".75"/>
<path transform="matrix(2.2514 0 0 2.2535 4.7884 -246.93)" d="m112.54 142.95h-18.789" fill="none" stroke="#000" stroke-width=".75"/>
<path transform="matrix(2.2514 0 0 2.2535 4.7884 -246.93)" d="m123.75 135.94h-18.747" fill="none" stroke="#000" stroke-width=".75"/>
<g>
<use x="205.972656" y="249.781131" xlink:href="#f"/>
</g>
<g>
<use x="205.972656" y="215.9491" xlink:href="#e"/>
</g>
<g>
<use x="205.972656" y="182.113162" xlink:href="#d"/>
</g>
<g>
<use x="205.972656" y="148.277225" xlink:href="#c"/>
</g>
<g>
<use x="205.972656" y="114.441287" xlink:href="#b"/>
</g>
<g>
<use x="504.6875" y="258.23255" xlink:href="#i"/>
</g>
<g>
<use x="504.691406" y="223.209112" xlink:href="#h"/>
</g>
<g>
<use x="504.683594" y="188.185675" xlink:href="#g"/>
</g>
<path transform="matrix(2.2514 0 0 2.2535 448.03 -246.93)" d="m82.5 225v-75h18.751v75z" fill="none" stroke="#000" stroke-width="2.8346"/>
<path transform="matrix(2.2514 0 0 2.2535 448.03 -246.93)" d="m101.92 225.22 29.999-18.75-0.66452-75.217h-18.749l-30.679 18.551" fill="none" stroke="#000" stroke-width="2.8346"/>
<path transform="matrix(2.2514 0 0 2.2535 448.03 -246.93)" d="m101.25 210 29.999-18.75" fill="none" stroke="#000" stroke-width="2.8346"/>
<path transform="matrix(2.2514 0 0 2.2535 448.03 -246.93)" d="m101.25 195 29.999-18.75" fill="none" stroke="#000" stroke-width="2.8346"/>
<path transform="matrix(2.2514 0 0 2.2535 448.03 -246.93)" d="m101.25 180 29.999-18.75" fill="none" stroke="#000" stroke-width="2.8346"/>
<path transform="matrix(2.2514 0 0 2.2535 448.03 -246.93)" d="m101.25 165 29.999-18.75" fill="none" stroke="#000" stroke-width="2.8346"/>
<path transform="matrix(2.2514 0 0 2.2535 448.03 -246.93)" d="m101.25 150 29.999-18.75" fill="none" stroke="#000" stroke-width="2.8346"/>
<path transform="matrix(2.2514 0 0 2.2535 448.03 -246.93)" d="m101.25 210h-18.751" fill="none" stroke="#000" stroke-width="2.8346"/>
<path transform="matrix(2.2514 0 0 2.2535 448.03 -246.93)" d="m82.5 195h18.751" fill="none" stroke="#000" stroke-width="2.8346"/>
<path transform="matrix(2.2514 0 0 2.2535 448.03 -246.93)" d="m101.25 180h-18.751" fill="none" stroke="#000" stroke-width="2.8346"/>
<path transform="matrix(2.2514 0 0 2.2535 448.03 -246.93)" d="m82.5 165h18.751" fill="none" stroke="#000" stroke-width="2.8346"/>
<path transform="matrix(2.2514 0 0 2.2535 448.03 -246.93)" d="m112.56 217.93-0.062462-15.067" fill="none" stroke="#000" stroke-width=".75"/>
<path transform="matrix(2.2514 0 0 2.2535 448.03 -246.93)" d="m123.73 210.95 0.024291-15.015" fill="none" stroke="#000" stroke-width=".75"/>
<path transform="matrix(2.2514 0 0 2.2535 448.03 -246.93)" d="m118.22 199.39v-14.895" fill="none" stroke="#000" stroke-width=".75"/>
<path transform="matrix(2.2514 0 0 2.2535 448.03 -246.93)" d="m112.56 187.93v-15.001" fill="none" stroke="#000" stroke-width=".75"/>
<path transform="matrix(2.2514 0 0 2.2535 448.03 -246.93)" d="m123.75 180.96v-15.025" fill="none" stroke="#000" stroke-width=".75"/>
<path transform="matrix(2.2514 0 0 2.2535 448.03 -246.93)" d="m117.98 169.54v-15.042" fill="none" stroke="#000" stroke-width=".75"/>
<path transform="matrix(2.2514 0 0 2.2535 448.03 -246.93)" d="m123.75 150.94v-15.001" fill="none" stroke="#000" stroke-width=".75"/>
<path transform="matrix(2.2514 0 0 2.2535 448.03 -246.93)" d="m112.54 157.94v-14.999" fill="none" stroke="#000" stroke-width=".75"/>
<path transform="matrix(2.2514 0 0 2.2535 448.03 -246.93)" d="m112.54 142.95h-18.789" fill="none" stroke="#000" stroke-width=".75"/>
<path transform="matrix(2.2514 0 0 2.2535 448.03 -246.93)" d="m123.75 135.94h-18.747" fill="none" stroke="#000" stroke-width=".75"/>
<g>
<use x="649.210938" y="249.781131" xlink:href="#f"/>
</g>
<g>
<use x="649.210938" y="215.9491" xlink:href="#e"/>
</g>
<g>
<use x="649.210938" y="182.113162" xlink:href="#d"/>
</g>
<g>
<use x="649.210938" y="148.277225" xlink:href="#c"/>
</g>
<g>
<use x="649.210938" y="114.441287" xlink:href="#b"/>
</g>
<path transform="matrix(2.261 0 0 2.2631 1.5975 0)" d="m49.954 14.114h126.96" fill="none" stroke="#000" stroke-width="2.8226"/>
<path transform="matrix(2.5528 0 0 2.5552 401.6 31.943)" d="m5.7698-4.3835e-4 -8.6503 5.0006v-9.9996z" fill-rule="evenodd" stroke="#000" stroke-width="1.25"/>
<path transform="matrix(2.261 0 0 2.2631 1.5975 0)" d="m244.13 43.241h22.405" fill="none" stroke="#000" stroke-width="2.8226"/>
<path transform="matrix(2.5528 0 0 2.5552 604.22 97.858)" d="m5.7698 3.656e-4 -8.6503 4.999v-9.9995z" fill-rule="evenodd" stroke="#000" stroke-width="1.25"/>
<path transform="matrix(2.261 0 0 2.2631 1.5975 0)" d="m277.73 43.241h74.683" fill="none" stroke="#000" stroke-dasharray="1.97584,3.95168" stroke-width="1.9758"/>
<path transform="matrix(2.261 0 0 2.2631 1.5975 0)" d="m117.17 30.919h37.341" fill="none" stroke="#000" stroke-width=".74682"/>
<path transform="matrix(2.261 0 0 2.2631 1.5975 0)" d="m313.21 30.919h39.208" fill="none" stroke="#000" stroke-width=".74682"/>
<path transform="matrix(2.261 0 0 2.2631 1.5975 0)" d="m147.48 30.919v-13.346" fill="none" stroke="#000" stroke-width=".74682"/>
<path transform="matrix(-1.24e-16 -.67606 .67542 -1.24e-16 335.05 39.77)" d="m5.7678-0.0013817-8.6496 5.0027v-9.9996z" fill-rule="evenodd" stroke="#000" stroke-width="1.25"/>
<path transform="matrix(2.261 0 0 2.2631 1.5975 0)" d="m342.41 30.919v9.3344" fill="none" stroke="#000" stroke-width=".74682"/>
<path transform="matrix(4.1e-17 .67606 -.67542 4.1e-17 775.79 91.098)" d="m5.7719 0.0024858-8.6496 4.9969v-9.9996z" fill-rule="evenodd" stroke="#000" stroke-width="1.25"/>
<g>
<use x="343.394531" y="58.123175" xlink:href="#j"/>
</g>
<g>
<use x="786" y="88.124881" xlink:href="#a"/>
</g>
<g>
<use x="788.761719" y="88.124881" xlink:href="#a"/>
</g>
</svg>
