<?xml version="1.0" encoding="UTF-8"?>
<svg width="600px" height="207px" version="1.1" viewBox="0 0 600 207" xmlns="http://www.w3.org/2000/svg" xmlns:xlink="http://www.w3.org/1999/xlink">
<defs>
<symbol id="i" overflow="visible">
<path d="m1.5781-1.75h2.25v-6.375l-2.3125 0.46875v-1.7188l2.2969-0.48438h2.4062v8.1094h2.25v1.75h-6.8906z"/>
</symbol>
<symbol id="h" overflow="visible">
<path d="m3.8906-1.875h4.3281v1.875h-7.1562v-1.875l3.5938-3.1719c0.32031-0.28906 0.5625-0.57031 0.71875-0.84375 0.15625-0.28125 0.23438-0.57031 0.23438-0.875 0-0.45703-0.15625-0.82812-0.46875-1.1094s-0.72656-0.42188-1.2344-0.42188c-0.39844 0-0.82812 0.089844-1.2969 0.26562-0.46875 0.16797-0.97656 0.41797-1.5156 0.75v-2.1719c0.57031-0.1875 1.1328-0.32812 1.6875-0.42188 0.5625-0.10156 1.1133-0.15625 1.6562-0.15625 1.1758 0 2.0859 0.26172 2.7344 0.78125 0.65625 0.52344 0.98438 1.2461 0.98438 2.1719 0 0.53125-0.14062 1.0312-0.42188 1.5-0.27344 0.46094-0.85547 1.0781-1.75 1.8594z"/>
</symbol>
<symbol id="g" overflow="visible">
<path d="m6.2812-5.3125c0.66406 0.16797 1.1719 0.46484 1.5156 0.89062 0.34375 0.42969 0.51562 0.96875 0.51562 1.625 0 0.98047-0.375 1.7266-1.125 2.2344-0.74219 0.5-1.8281 0.75-3.2656 0.75-0.5 0-1.0078-0.042969-1.5156-0.125-0.51172-0.070312-1.0117-0.19141-1.5-0.35938v-1.9531c0.46875 0.23047 0.9375 0.40625 1.4062 0.53125s0.92969 0.1875 1.3906 0.1875c0.66406 0 1.1758-0.11328 1.5312-0.34375 0.36328-0.23828 0.54688-0.57812 0.54688-1.0156 0-0.44531-0.18359-0.78516-0.54688-1.0156-0.36719-0.22656-0.90625-0.34375-1.625-0.34375h-1.0156v-1.6406h1.0625c0.63281 0 1.1094-0.097656 1.4219-0.29688 0.3125-0.20703 0.46875-0.51562 0.46875-0.92188 0-0.375-0.15234-0.66406-0.45312-0.875-0.30469-0.20703-0.73047-0.3125-1.2812-0.3125-0.40625 0-0.82422 0.046875-1.25 0.14062-0.41797 0.09375-0.82812 0.23047-1.2344 0.40625v-1.8594c0.5-0.13281 0.99219-0.23828 1.4844-0.3125 0.48828-0.070313 0.97266-0.10938 1.4531-0.10938 1.2812 0 2.2383 0.21484 2.875 0.64062 0.63281 0.41797 0.95312 1.0469 0.95312 1.8906 0 0.57422-0.15625 1.0469-0.46875 1.4219-0.30469 0.36719-0.75 0.62109-1.3438 0.76562z"/>
</symbol>
<symbol id="l" overflow="visible">
<path d="m4.9688-7.7656-2.7812 4.125h2.7812zm-0.42188-2.0938h2.8281v6.2188h1.4062v1.8438h-1.4062v1.7969h-2.4062v-1.7969h-4.3594v-2.1719z"/>
</symbol>
<symbol id="k" overflow="visible">
<path d="m1.4375-9.8594h6.2969v1.875h-4.2812v1.5312c0.19531-0.0625 0.39062-0.10156 0.57812-0.125 0.19531-0.03125 0.39844-0.046875 0.60938-0.046875 1.207 0 2.1445 0.30469 2.8125 0.90625 0.66406 0.59375 1 1.4297 1 2.5 0 1.0742-0.36719 1.9141-1.0938 2.5156-0.73047 0.59375-1.7422 0.89062-3.0312 0.89062-0.55469 0-1.1055-0.054688-1.6562-0.15625-0.54297-0.10156-1.0859-0.26953-1.625-0.5v-2c0.53125 0.3125 1.0352 0.54688 1.5156 0.70312 0.48828 0.15625 0.94141 0.23438 1.3594 0.23438 0.625 0 1.1094-0.14844 1.4531-0.45312 0.35156-0.30078 0.53125-0.71094 0.53125-1.2344 0-0.51953-0.17969-0.92578-0.53125-1.2188-0.34375-0.30078-0.82812-0.45312-1.4531-0.45312-0.36719 0-0.75781 0.046875-1.1719 0.14062-0.40625 0.09375-0.84375 0.24219-1.3125 0.4375z"/>
</symbol>
<symbol id="j" overflow="visible">
<path d="m6.4375-8.4688v3.4531h3.4375v1.5625h-3.4375v3.4531h-1.5625v-3.4531h-3.4375v-1.5625h3.4375v-3.4531z"/>
</symbol>
<symbol id="f" overflow="visible">
<path d="m1.5781-1.75h2.25v-6.375l-2.2969 0.46875v-1.7188l2.2812-0.48438h2.4219v8.1094h2.2344v1.75h-6.8906z"/>
</symbol>
<symbol id="e" overflow="visible">
<path d="m3.8906-1.875h4.3438v1.875h-7.1719v-1.875l3.6094-3.1719c0.3125-0.28906 0.54688-0.57031 0.70312-0.84375 0.15625-0.28125 0.23438-0.57031 0.23438-0.875 0-0.45703-0.15625-0.82812-0.46875-1.1094s-0.72656-0.42188-1.2344-0.42188c-0.39844 0-0.82812 0.089844-1.2969 0.26562-0.46875 0.16797-0.97656 0.41797-1.5156 0.75v-2.1719c0.57031-0.1875 1.1328-0.32812 1.6875-0.42188 0.5625-0.10156 1.1133-0.15625 1.6562-0.15625 1.1758 0 2.0859 0.26172 2.7344 0.78125 0.65625 0.52344 0.98438 1.2461 0.98438 2.1719 0 0.53125-0.14062 1.0312-0.42188 1.5-0.27344 0.46094-0.85156 1.0781-1.7344 1.8594z"/>
</symbol>
<symbol id="d" overflow="visible">
<path d="m6.2969-5.3125c0.66406 0.16797 1.1719 0.46484 1.5156 0.89062 0.34375 0.42969 0.51562 0.96875 0.51562 1.625 0 0.98047-0.375 1.7266-1.125 2.2344-0.75 0.5-1.8398 0.75-3.2656 0.75-0.51172 0-1.0234-0.042969-1.5312-0.125-0.5-0.070312-1-0.19141-1.5-0.35938v-1.9531c0.46875 0.23047 0.9375 0.40625 1.4062 0.53125s0.92969 0.1875 1.3906 0.1875c0.67578 0 1.1914-0.11328 1.5469-0.34375 0.35156-0.23828 0.53125-0.57812 0.53125-1.0156 0-0.44531-0.18359-0.78516-0.54688-1.0156-0.36719-0.22656-0.90625-0.34375-1.625-0.34375h-1.0156v-1.6406h1.0625c0.64453 0 1.125-0.097656 1.4375-0.29688 0.3125-0.20703 0.46875-0.51562 0.46875-0.92188 0-0.375-0.15625-0.66406-0.46875-0.875-0.30469-0.20703-0.73047-0.3125-1.2812-0.3125-0.40625 0-0.82031 0.046875-1.2344 0.14062-0.41797 0.09375-0.83594 0.23047-1.25 0.40625v-1.8594c0.5-0.13281 0.99219-0.23828 1.4844-0.3125 0.5-0.070313 0.98438-0.10938 1.4531-0.10938 1.2812 0 2.2383 0.21484 2.875 0.64062 0.63281 0.41797 0.95312 1.0469 0.95312 1.8906 0 0.57422-0.15234 1.0469-0.45312 1.4219-0.30469 0.36719-0.75 0.62109-1.3438 0.76562z"/>
</symbol>
<symbol id="c" overflow="visible">
<path d="m4.9688-7.7656-2.7812 4.125h2.7812zm-0.42188-2.0938h2.8281v6.2188h1.4062v1.8438h-1.4062v1.7969h-2.4062v-1.7969h-4.3594v-2.1719z"/>
</symbol>
<symbol id="b" overflow="visible">
<path d="m1.4375-9.8594h6.3125v1.875h-4.2969v1.5312c0.19531-0.0625 0.39062-0.10156 0.57812-0.125 0.19531-0.03125 0.40625-0.046875 0.625-0.046875 1.1953 0 2.1289 0.30469 2.7969 0.90625 0.66406 0.59375 1 1.4297 1 2.5 0 1.0742-0.36719 1.9141-1.0938 2.5156-0.71875 0.59375-1.7305 0.89062-3.0312 0.89062-0.55469 0-1.1055-0.054688-1.6562-0.15625-0.54297-0.10156-1.0859-0.26953-1.625-0.5v-2c0.53125 0.3125 1.0352 0.54688 1.5156 0.70312 0.48828 0.15625 0.94531 0.23438 1.375 0.23438 0.61328 0 1.0977-0.14844 1.4531-0.45312 0.35156-0.30078 0.53125-0.71094 0.53125-1.2344 0-0.51953-0.17969-0.92578-0.53125-1.2188-0.35547-0.30078-0.83984-0.45312-1.4531-0.45312-0.36719 0-0.75781 0.046875-1.1719 0.14062-0.41797 0.09375-0.85938 0.24219-1.3281 0.4375z"/>
</symbol>
<symbol id="a" overflow="visible">
<path d="m0.73438-4.8438h4.1406v1.9062h-4.1406z"/>
</symbol>
</defs>
<path transform="matrix(1.6957 0 0 1.6973 1.1982 0)" d="m39.62 28.8c-5.5286 0.55003-11.131 0.55003-16.66 0l-21.55 86.134c18.671 7.4703 41.075 7.4703 59.746 0z" fill="none" stroke="#000" stroke-linejoin="round" stroke-width="2.8226"/>
<path transform="matrix(1.6957 0 0 1.6973 1.1982 0)" d="m5.1998 99.724c16.581 5.6062 35.59 5.6062 52.172 0" fill="none" stroke="#000" stroke-width=".74682"/>
<path transform="matrix(1.6957 0 0 1.6973 1.1982 0)" d="m8.7865 85.416c14.487 4.1195 30.504 4.1195 44.991 0.002301" fill="none" stroke="#000" stroke-width=".74682"/>
<path transform="matrix(1.6957 0 0 1.6973 1.1982 0)" d="m12.668 69.9c12.128 2.7916 25.107 2.7893 37.235 0" fill="none" stroke="#000" stroke-width=".74682"/>
<path transform="matrix(1.6957 0 0 1.6973 1.1982 0)" d="m16.22 55.698c9.8939 1.8112 20.232 1.8112 30.126 0" fill="none" stroke="#000" stroke-width=".74682"/>
<path transform="matrix(1.6957 0 0 1.6973 1.1982 0)" d="m20.076 40.284c7.4106 0.9965 15.003 0.9942 22.412-0.004603" fill="none" stroke="#000" stroke-width=".74682"/>
<path transform="matrix(1.6957 0 0 1.6973 1.1982 0)" d="m46.227 16.347c0 8.2505-6.6873 14.938-14.936 14.938s-14.936-6.6878-14.936-14.938c0-8.2482 6.6873-14.936 14.936-14.936s14.936 6.6878 14.936 14.936z" fill="#fff" stroke="#000" stroke-width="2.8226"/>
<path transform="matrix(1.6957 0 0 1.6973 1.1982 0)" d="m200.72 100.17c15.805 5.017 33.667 5.017 49.474 0" fill="none" stroke="#000" stroke-width=".74682"/>
<path transform="matrix(1.6957 0 0 1.6973 1.1982 0)" d="m205.61 86.12c12.884 3.1805 26.807 3.1805 39.693 0" fill="none" stroke="#000" stroke-width=".74682"/>
<path transform="matrix(1.6957 0 0 1.6973 1.1982 0)" d="m210.97 70.738c9.5253 1.6731 19.447 1.6731 28.974 0" fill="none" stroke="#000" stroke-width=".74682"/>
<path transform="matrix(1.6957 0 0 1.6973 1.1982 0)" d="m215.91 56.515-20.325 58.421c18.671 7.468 41.075 7.468 59.746 0l-20.329-58.421c-6.3279 0.72264-12.766 0.72264-19.092 0z" fill="none" stroke="#000" stroke-linejoin="round" stroke-width="2.8226"/>
<path transform="matrix(1.6957 0 0 1.6973 1.1982 0)" d="m240.39 44.741c0 8.2482-6.6873 14.936-14.936 14.936s-14.936-6.6878-14.936-14.936c0-8.2505 6.6873-14.938 14.936-14.938s14.936 6.6878 14.936 14.938z" fill="#fff" stroke="#000" stroke-width="2.8226"/>
<path d="m66.91 23.957c0 3.5-2.832 6.3398-6.332 6.3398-3.4961 0-6.332-2.8398-6.332-6.3398s2.8359-6.3398 6.332-6.3398c3.5 0 6.332 2.8398 6.332 6.3398z"/>
<path transform="matrix(1.6957 0 0 1.6973 1.1982 0)" d="m46.22 21.582s-3.7341 7.468-14.936 0" fill="none" stroke="#000" stroke-width="1.2702"/>
<path d="m396.16 72.148c0 3.5-2.8359 6.3398-6.332 6.3398s-6.332-2.8398-6.332-6.3398 2.8359-6.3359 6.332-6.3359 6.332 2.8359 6.332 6.3359z"/>
<path transform="matrix(1.6957 0 0 1.6973 1.1982 0)" d="m240.38 49.975s-5.964-2.2531-13.432 1.4798" fill="none" stroke="#000" stroke-width="1.2702"/>
<g>
<use x="49.832031" y="193.674412" xlink:href="#i"/>
</g>
<g>
<use x="49.832031" y="167.408787" xlink:href="#h"/>
</g>
<g>
<use x="49.828125" y="141.139256" xlink:href="#g"/>
</g>
<g>
<use x="49.835938" y="114.873631" xlink:href="#l"/>
</g>
<g>
<use x="49.832031" y="88.6041" xlink:href="#k"/>
</g>
<path transform="matrix(1.6885 0 0 1.6902 3.5913 -185.2)" d="m82.499 225v-75h18.75v75z" fill="none" stroke="#000" stroke-width="2.8346"/>
<path transform="matrix(1.6885 0 0 1.6902 3.5913 -185.2)" d="m101.92 225.22 30-18.748-0.66626-75.217h-18.75l-30.678 18.552" fill="none" stroke="#000" stroke-width="2.8346"/>
<path transform="matrix(1.6885 0 0 1.6902 3.5913 -185.2)" d="m101.25 210 30-18.751" fill="none" stroke="#000" stroke-width="2.8346"/>
<path transform="matrix(1.6885 0 0 1.6902 3.5913 -185.2)" d="m101.25 195 30-18.748" fill="none" stroke="#000" stroke-width="2.8346"/>
<path transform="matrix(1.6885 0 0 1.6902 3.5913 -185.2)" d="m101.25 180 30-18.751" fill="none" stroke="#000" stroke-width="2.8346"/>
<path transform="matrix(1.6885 0 0 1.6902 3.5913 -185.2)" d="m101.25 165 30-18.751" fill="none" stroke="#000" stroke-width="2.8346"/>
<path transform="matrix(1.6885 0 0 1.6902 3.5913 -185.2)" d="m101.25 150 30-18.751" fill="none" stroke="#000" stroke-width="2.8346"/>
<path transform="matrix(1.6885 0 0 1.6902 3.5913 -185.2)" d="m101.25 210h-18.75" fill="none" stroke="#000" stroke-width="2.8346"/>
<path transform="matrix(1.6885 0 0 1.6902 3.5913 -185.2)" d="m82.499 195h18.75" fill="none" stroke="#000" stroke-width="2.8346"/>
<path transform="matrix(1.6885 0 0 1.6902 3.5913 -185.2)" d="m101.25 180h-18.75" fill="none" stroke="#000" stroke-width="2.8346"/>
<path transform="matrix(1.6885 0 0 1.6902 3.5913 -185.2)" d="m82.499 165h18.75" fill="none" stroke="#000" stroke-width="2.8346"/>
<path transform="matrix(1.6885 0 0 1.6902 3.5913 -185.2)" d="m112.56 217.93-0.062461-15.069" fill="none" stroke="#000" stroke-width=".75"/>
<path transform="matrix(1.6885 0 0 1.6902 3.5913 -185.2)" d="m123.73 210.95 0.025447-15.016" fill="none" stroke="#000" stroke-width=".75"/>
<path transform="matrix(1.6885 0 0 1.6902 3.5913 -185.2)" d="m118.22 199.4v-14.896" fill="none" stroke="#000" stroke-width=".75"/>
<path transform="matrix(1.6885 0 0 1.6902 3.5913 -185.2)" d="m112.56 187.93v-15" fill="none" stroke="#000" stroke-width=".75"/>
<path transform="matrix(1.6885 0 0 1.6902 3.5913 -185.2)" d="m123.75 180.96v-15.023" fill="none" stroke="#000" stroke-width=".75"/>
<path transform="matrix(1.6885 0 0 1.6902 3.5913 -185.2)" d="m117.98 169.54v-15.041" fill="none" stroke="#000" stroke-width=".75"/>
<path transform="matrix(1.6885 0 0 1.6902 3.5913 -185.2)" d="m123.75 150.94v-15" fill="none" stroke="#000" stroke-width=".75"/>
<path transform="matrix(1.6885 0 0 1.6902 3.5913 -185.2)" d="m112.54 157.94v-15" fill="none" stroke="#000" stroke-width=".75"/>
<path transform="matrix(1.6885 0 0 1.6902 3.5913 -185.2)" d="m112.54 142.94h-18.789" fill="none" stroke="#000" stroke-width=".75"/>
<path transform="matrix(1.6885 0 0 1.6902 3.5913 -185.2)" d="m123.75 135.94h-18.748" fill="none" stroke="#000" stroke-width=".75"/>
<g>
<use x="154.476562" y="187.335848" xlink:href="#f"/>
</g>
<g>
<use x="154.476562" y="161.960848" xlink:href="#e"/>
</g>
<g>
<use x="154.476562" y="136.585848" xlink:href="#d"/>
</g>
<g>
<use x="154.476562" y="111.206942" xlink:href="#c"/>
</g>
<g>
<use x="154.476562" y="85.831942" xlink:href="#b"/>
</g>
<g>
<use x="378.515625" y="193.674412" xlink:href="#i"/>
</g>
<g>
<use x="378.519531" y="167.408787" xlink:href="#h"/>
</g>
<g>
<use x="378.511719" y="141.139256" xlink:href="#g"/>
</g>
<path transform="matrix(1.6885 0 0 1.6902 336.02 -185.2)" d="m82.5 225v-75h18.75v75z" fill="none" stroke="#000" stroke-width="2.8346"/>
<path transform="matrix(1.6885 0 0 1.6902 336.02 -185.2)" d="m101.91 225.22 30-18.748-0.66394-75.217h-18.75l-30.68 18.552" fill="none" stroke="#000" stroke-width="2.8346"/>
<path transform="matrix(1.6885 0 0 1.6902 336.02 -185.2)" d="m101.25 210 30-18.751" fill="none" stroke="#000" stroke-width="2.8346"/>
<path transform="matrix(1.6885 0 0 1.6902 336.02 -185.2)" d="m101.25 195 30-18.748" fill="none" stroke="#000" stroke-width="2.8346"/>
<path transform="matrix(1.6885 0 0 1.6902 336.02 -185.2)" d="m101.25 180 30-18.751" fill="none" stroke="#000" stroke-width="2.8346"/>
<path transform="matrix(1.6885 0 0 1.6902 336.02 -185.2)" d="m101.25 165 30-18.751" fill="none" stroke="#000" stroke-width="2.8346"/>
<path transform="matrix(1.6885 0 0 1.6902 336.02 -185.2)" d="m101.25 150 30-18.751" fill="none" stroke="#000" stroke-width="2.8346"/>
<path transform="matrix(1.6885 0 0 1.6902 336.02 -185.2)" d="m101.25 210h-18.75" fill="none" stroke="#000" stroke-width="2.8346"/>
<path transform="matrix(1.6885 0 0 1.6902 336.02 -185.2)" d="m82.5 195h18.75" fill="none" stroke="#000" stroke-width="2.8346"/>
<path transform="matrix(1.6885 0 0 1.6902 336.02 -185.2)" d="m101.25 180h-18.75" fill="none" stroke="#000" stroke-width="2.8346"/>
<path transform="matrix(1.6885 0 0 1.6902 336.02 -185.2)" d="m82.5 165h18.75" fill="none" stroke="#000" stroke-width="2.8346"/>
<path transform="matrix(1.6885 0 0 1.6902 336.02 -185.2)" d="m112.56 217.93-0.062462-15.069" fill="none" stroke="#000" stroke-width=".75"/>
<path transform="matrix(1.6885 0 0 1.6902 336.02 -185.2)" d="m123.73 210.95 0.023134-15.016" fill="none" stroke="#000" stroke-width=".75"/>
<path transform="matrix(1.6885 0 0 1.6902 336.02 -185.2)" d="m118.22 199.4v-14.896" fill="none" stroke="#000" stroke-width=".75"/>
<path transform="matrix(1.6885 0 0 1.6902 336.02 -185.2)" d="m112.56 187.93v-15" fill="none" stroke="#000" stroke-width=".75"/>
<path transform="matrix(1.6885 0 0 1.6902 336.02 -185.2)" d="m123.75 180.96v-15.023" fill="none" stroke="#000" stroke-width=".75"/>
<path transform="matrix(1.6885 0 0 1.6902 336.02 -185.2)" d="m117.98 169.54v-15.041" fill="none" stroke="#000" stroke-width=".75"/>
<path transform="matrix(1.6885 0 0 1.6902 336.02 -185.2)" d="m123.75 150.94v-15" fill="none" stroke="#000" stroke-width=".75"/>
<path transform="matrix(1.6885 0 0 1.6902 336.02 -185.2)" d="m112.54 157.94v-15" fill="none" stroke="#000" stroke-width=".75"/>
<path transform="matrix(1.6885 0 0 1.6902 336.02 -185.2)" d="m112.54 142.94h-18.787" fill="none" stroke="#000" stroke-width=".75"/>
<path transform="matrix(1.6885 0 0 1.6902 336.02 -185.2)" d="m123.75 135.94h-18.748" fill="none" stroke="#000" stroke-width=".75"/>
<g>
<use x="486.910156" y="187.335848" xlink:href="#f"/>
</g>
<g>
<use x="486.910156" y="161.960848" xlink:href="#e"/>
</g>
<g>
<use x="486.910156" y="136.585848" xlink:href="#d"/>
</g>
<g>
<use x="486.910156" y="111.206942" xlink:href="#c"/>
</g>
<g>
<use x="486.910156" y="85.831942" xlink:href="#b"/>
</g>
<path transform="matrix(1.6957 0 0 1.6973 1.1982 0)" d="m49.954 14.114h126.96" fill="none" stroke="#000" stroke-width="2.8226"/>
<path transform="matrix(1.9146 0 0 1.9164 301.2 23.957)" d="m5.7693 7.1236e-5 -8.6488 5v-10z" fill-rule="evenodd" stroke="#000" stroke-width="1.25"/>
<path transform="matrix(1.6957 0 0 1.6973 1.1982 0)" d="m244.13 43.241h22.405" fill="none" stroke="#000" stroke-width="2.8226"/>
<path transform="matrix(1.9146 0 0 1.9164 453.17 73.394)" d="m5.7693 3.656e-4 -8.6487 5v-10z" fill-rule="evenodd" stroke="#000" stroke-width="1.25"/>
<path transform="matrix(1.6957 0 0 1.6973 1.1982 0)" d="m277.73 43.241h74.682" fill="none" stroke="#000" stroke-dasharray="1.97584,3.95168" stroke-width="1.9758"/>
<path transform="matrix(1.6957 0 0 1.6973 1.1982 0)" d="m117.17 30.917h37.341" fill="none" stroke="#000" stroke-width=".74682"/>
<path transform="matrix(1.6957 0 0 1.6973 1.1982 0)" d="m313.21 30.917h39.207" fill="none" stroke="#000" stroke-width=".74682"/>
<path transform="matrix(1.6957 0 0 1.6973 1.1982 0)" d="m147.48 30.917v-13.343" fill="none" stroke="#000" stroke-width=".74682"/>
<path transform="matrix(-9.3e-17 -.50704 .50656 -9.3e-17 251.29 29.828)" d="m5.7698 5.4616e-4 -8.6515 4.9969v-9.9938z" fill-rule="evenodd" stroke="#000" stroke-width="1.25"/>
<path transform="matrix(1.6957 0 0 1.6973 1.1982 0)" d="m342.41 30.917v9.3367" fill="none" stroke="#000" stroke-width=".74682"/>
<path transform="matrix(3.1e-17 .50704 -.50656 3.1e-17 581.84 68.323)" d="m5.7719 5.5796e-4 -8.6515 4.9969v-9.9938z" fill-rule="evenodd" stroke="#000" stroke-width="1.25"/>
<g>
<use x="257.546875" y="43.592381" xlink:href="#j"/>
</g>
<g>
<use x="589.5" y="66.093661" xlink:href="#a"/>
</g>
<g>
<use x="591.570312" y="66.093661" xlink:href="#a"/>
</g>
</svg>
