<?xml version="1.0" encoding="UTF-8"?>
<svg width="700px" height="225px" version="1.1" viewBox="0 0 700 225" xmlns="http://www.w3.org/2000/svg" xmlns:xlink="http://www.w3.org/1999/xlink">
<defs>
<symbol id="a" overflow="visible">
<path d="m4.4219-35.109h9.0312v13.375h13.344v-13.375h9.0469v35.109h-9.0469v-14.891h-13.344v14.891h-9.0312z"/>
</symbol>
</defs>
<path transform="matrix(2.0043 0 0 2.0063 .19074 0)" d="m84.492 41.706-20.324 58.419c18.671 7.4686 41.076 7.4686 59.745 0l-20.33-58.419c-6.3263 0.72233-12.766 0.72038-19.092 0z" fill="#fff" stroke="#000" stroke-linejoin="round" stroke-width="2.8226"/>
<path transform="matrix(2.0043 0 0 2.0063 .19074 0)" d="m108.97 29.931c0 8.2493-6.6888 14.937-14.937 14.937-8.25 0-14.937-6.6879-14.937-14.937s6.6869-14.937 14.937-14.937c8.248 0 14.937 6.6879 14.937 14.937z" fill="#fff" stroke="#000" stroke-width="2.8226"/>
<path d="m181.84 55.57c0 4.1367-3.3516 7.4922-7.4844 7.4922-4.1367 0-7.4844-3.3555-7.4844-7.4922 0-4.1367 3.3477-7.4922 7.4844-7.4922 4.1328 0 7.4844 3.3555 7.4844 7.4922z"/>
<path transform="matrix(2.0043 0 0 2.0063 .19074 0)" d="m303.23 41.706-20.324 58.419c18.671 7.4686 41.076 7.4686 59.747 0l-20.332-58.419c-6.3263 0.72233-12.766 0.72038-19.092 0z" fill="#fff" stroke="#000" stroke-linejoin="round" stroke-width="2.8226"/>
<path transform="matrix(2.0043 0 0 2.0063 .19074 0)" d="m327.71 29.931c0 8.2493-6.6869 14.937-14.937 14.937s-14.937-6.6879-14.937-14.937 6.6869-14.937 14.937-14.937 14.937 6.6879 14.937 14.937z" fill="#fff" stroke="#000" stroke-width="2.8226"/>
<path d="m620.25 55.57c0 4.1367-3.3516 7.4922-7.4844 7.4922s-7.4844-3.3555-7.4844-7.4922c0-4.1367 3.3516-7.4922 7.4844-7.4922s7.4844 3.3555 7.4844 7.4922z"/>
<path transform="matrix(2.0043 0 0 2.0063 .19074 0)" d="m42.433 5.7085h9.7506v45h-9.7506z" fill="#ccc" stroke="#000" stroke-width="1.4173"/>
<path transform="matrix(2.0043 0 0 2.0063 .19074 0)" d="m4.9994 28.208h29.006" fill="none" stroke="#000" stroke-width="2.8346"/>
<path transform="matrix(2.2726 0 0 2.2749 68.346 56.596)" d="m5.7693-8.0572e-4 -8.6494 5.0003v-9.9988z" fill-rule="evenodd" stroke="#000" stroke-width="1.25"/>
<path transform="matrix(2.0043 0 0 2.0063 .19074 0)" d="m52.184 28.208h14.999" fill="none" stroke="#000" stroke-width="1.4173"/>
<path transform="matrix(1.1363 0 0 1.1374 134.84 56.596)" d="m5.7712-0.0016114-8.6528 5.0003v-9.9971z" fill-rule="evenodd" stroke="#000" stroke-width="1.25"/>
<path transform="matrix(2.0043 0 0 2.0063 .19074 0)" d="m256.18 5.7085h9.7506v45h-9.7506z" fill="#ccc" stroke="#000" stroke-width="1.4173"/>
<path transform="matrix(2.0043 0 0 2.0063 .19074 0)" d="m150.73 28.208h29.004" fill="none" stroke="#000" stroke-width="2.8346"/>
<path transform="matrix(2.2726 0 0 2.2749 360.42 56.596)" d="m5.7702-8.0572e-4 -8.6494 5.0003v-9.9988z" fill-rule="evenodd" stroke="#000" stroke-width="1.25"/>
<path transform="matrix(2.0043 0 0 2.0063 .19074 0)" d="m266.64 28.208h15.001" fill="none" stroke="#000" stroke-width="1.4173"/>
<path transform="matrix(1.1363 0 0 1.1374 564.68 56.596)" d="m5.7697-0.0016114-8.6494 5.0003v-9.9971z" fill-rule="evenodd" stroke="#000" stroke-width="1.25"/>
<path transform="matrix(2.0043 0 0 2.0063 .19074 0)" d="m189.2 13.208h30v30.001h-30z" fill="#fff" stroke="#000" stroke-width="2.8346"/>
<path transform="matrix(2.0043 0 0 2.0063 .19074 0)" d="m220.62 28.208h18.751" fill="none" stroke="#000" stroke-width="5.6693"/>
<path transform="matrix(4.5451 0 0 4.5498 479.95 56.596)" d="m5.7697-4.0286e-4 -8.6494 5.0003v-9.9997z" fill-rule="evenodd" stroke="#000" stroke-width="1.25"/>
<g>
<use x="389.339844" y="74.148577" xlink:href="#a"/>
</g>
</svg>
