<?xml version="1.0" encoding="UTF-8"?>
<svg width="600px" height="258px" version="1.1" viewBox="0 0 600 258" xmlns="http://www.w3.org/2000/svg" xmlns:xlink="http://www.w3.org/1999/xlink">
<defs>
<symbol id="f" overflow="visible">
<path d="m4.7344-37.672h9.7188v14.359h14.312v-14.359h9.7188v37.672h-9.7188v-15.969h-14.312v15.969h-9.7188z"/>
</symbol>
<symbol id="e" overflow="visible">
<path d="m16.531-9.9531v9.9531h-2.7031v-9.8594c0-1.5625-0.30859-2.7266-0.92188-3.5-0.60547-0.78125-1.5156-1.1719-2.7344-1.1719-1.4609 0-2.6094 0.46875-3.4531 1.4062-0.84375 0.92969-1.2656 2.1992-1.2656 3.8125v9.3125h-2.7188v-22.906h2.7188v8.9844c0.64453-0.98828 1.4062-1.7266 2.2812-2.2188 0.88281-0.48828 1.8984-0.73438 3.0469-0.73438 1.8945 0 3.3281 0.58984 4.2969 1.7656 0.96875 1.168 1.4531 2.8867 1.4531 5.1562z"/>
</symbol>
<symbol id="a" overflow="visible">
<path d="m16.938-8.9219v1.3281h-12.453c0.11328 1.8672 0.67188 3.2891 1.6719 4.2656 1.0078 0.96875 2.4141 1.4531 4.2188 1.4531 1.0312 0 2.0352-0.125 3.0156-0.375 0.97656-0.25781 1.9453-0.64453 2.9062-1.1562v2.5625c-0.96875 0.41797-1.9648 0.73047-2.9844 0.9375-1.0234 0.21875-2.0586 0.32812-3.1094 0.32812-2.625 0-4.7109-0.76562-6.25-2.2969-1.5312-1.5312-2.2969-3.5977-2.2969-6.2031 0-2.6953 0.72656-4.8359 2.1875-6.4219 1.457-1.582 3.4219-2.375 5.8906-2.375 2.2188 0 3.9727 0.71484 5.2656 2.1406 1.2891 1.4297 1.9375 3.3672 1.9375 5.8125zm-2.7188-0.79688c-0.023438-1.4766-0.4375-2.6562-1.25-3.5312-0.80469-0.88281-1.8711-1.3281-3.2031-1.3281-1.5117 0-2.7188 0.42969-3.625 1.2812-0.90625 0.84375-1.4297 2.043-1.5625 3.5938z"/>
</symbol>
<symbol id="d" overflow="visible">
<path d="m14.672-8.2344c0-1.9883-0.41406-3.5469-1.2344-4.6719-0.82422-1.1328-1.9492-1.7031-3.375-1.7031-1.4375 0-2.5703 0.57031-3.3906 1.7031-0.8125 1.125-1.2188 2.6836-1.2188 4.6719 0 2 0.40625 3.5703 1.2188 4.7031 0.82031 1.125 1.9531 1.6875 3.3906 1.6875 1.4258 0 2.5508-0.5625 3.375-1.6875 0.82031-1.1328 1.2344-2.7031 1.2344-4.7031zm-9.2188-5.75c0.57031-0.97656 1.2891-1.7031 2.1562-2.1719 0.86328-0.47656 1.8984-0.71875 3.1094-0.71875 2 0 3.625 0.79688 4.875 2.3906 1.25 1.5859 1.875 3.668 1.875 6.25 0 2.5938-0.625 4.6875-1.875 6.2812-1.25 1.5859-2.875 2.375-4.875 2.375-1.2109 0-2.2461-0.23438-3.1094-0.70312-0.86719-0.47656-1.5859-1.207-2.1562-2.1875v2.4688h-2.7188v-22.906h2.7188z"/>
</symbol>
<symbol id="c" overflow="visible">
<path d="m16.531-9.9531v9.9531h-2.7031v-9.8594c0-1.5625-0.30859-2.7266-0.92188-3.5-0.60547-0.78125-1.5156-1.1719-2.7344-1.1719-1.4609 0-2.6094 0.46875-3.4531 1.4062-0.84375 0.92969-1.2656 2.1992-1.2656 3.8125v9.3125h-2.7188v-16.484h2.7188v2.5625c0.64453-0.98828 1.4062-1.7266 2.2812-2.2188 0.88281-0.48828 1.8984-0.73438 3.0469-0.73438 1.8945 0 3.3281 0.58984 4.2969 1.7656 0.96875 1.168 1.4531 2.8867 1.4531 5.1562z"/>
</symbol>
<symbol id="b" overflow="visible">
<path d="m4.5469-3.7344h2.9844v3.7344h-2.9844zm0-18.234h2.9844v9.6406l-0.29688 5.25h-2.375l-0.3125-5.25z"/>
</symbol>
</defs>
<path transform="matrix(2.1519 0 0 2.1529 0 .032458)" d="m245.35 17.668c0-6.2143-15.949-11.251-35.624-11.251-19.675 0-48.119 4.8626-31.691 14.287l-0.24143 14.996-11.496 7.5751 15.39-5.2545 5.64-11.603c32.743 7.1814 58.023-2.5365 58.023-8.749z" fill="#e6e6e6" stroke="#000" stroke-width="2.8346"/>
<path transform="matrix(2.1519 0 0 2.1529 0 .032458)" d="m26.735 49.367-20.324 58.42c18.67 7.4681 41.075 7.4681 59.745 0l-20.331-58.42c-6.3261 0.72213-12.765 0.72213-19.091 0z" fill="#fff" stroke="#000" stroke-linejoin="round" stroke-width="2.8226"/>
<path transform="matrix(2.1519 0 0 2.1529 0 .032458)" d="m51.217 37.592c0 8.2501-6.6874 14.938-14.938 14.938-8.2485 0-14.936-6.6879-14.936-14.938 0-8.2483 6.6874-14.936 14.936-14.936 8.2503 0 14.938 6.6879 14.938 14.936z" fill="#fff" stroke="#000" stroke-width="2.8226"/>
<path d="m99.344 76.156c0 4.4414-3.5977 8.0391-8.0352 8.0391s-8.0352-3.5977-8.0352-8.0391c0-4.4375 3.5977-8.0391 8.0352-8.0391s8.0352 3.6016 8.0352 8.0391z"/>
<path transform="matrix(2.1519 0 0 2.1529 0 .032458)" d="m143.46 49.367-20.324 58.42c18.672 7.4681 41.075 7.4681 59.747 0l-20.331-58.42c-6.328 0.72213-12.767 0.72213-19.093 0z" fill="#fff" stroke="#000" stroke-linejoin="round" stroke-width="2.8226"/>
<path transform="matrix(2.1519 0 0 2.1529 0 .032458)" d="m167.94 37.592c0 8.2501-6.6874 14.938-14.936 14.938-8.2485 0-14.936-6.6879-14.936-14.938 0-8.2483 6.6874-14.936 14.936-14.936 8.2485 0 14.936 6.6879 14.936 14.936z" fill="#fff" stroke="#000" stroke-width="2.8226"/>
<path d="m350.54 76.156c0 4.4414-3.5977 8.0391-8.0352 8.0391s-8.0352-3.5977-8.0352-8.0391c0-4.4375 3.5977-8.0391 8.0352-8.0391s8.0352 3.6016 8.0352 8.0391z"/>
<path transform="matrix(2.1519 0 0 2.1529 0 .032458)" d="m194.26 74.519h30.001v30.001h-30.001z" fill="#fff" stroke="#000" stroke-width="2.8346"/>
<g>
<use x="428.703125" y="211.594057" xlink:href="#f"/>
</g>
<path transform="matrix(2.1519 0 0 2.1529 0 .032458)" d="m39.463 66.51 35.572-18.356" fill="none" stroke="#000" stroke-width="2.8346"/>
<path d="m179.01 109.06c0 4.4609-7.2266 8.0742-16.141 8.0742-8.9141 0-16.141-3.6133-16.141-8.0742 0-4.457 7.2266-8.0703 16.141-8.0703 8.9141 0 16.141 3.6133 16.141 8.0703z"/>
<path d="m151.7 124.91h22.34c1.7852 0 3.2305 1.4492 3.2305 3.2305v54.352c0 1.7812-1.4453 3.2266-3.2305 3.2266h-22.34c-1.7812 0-3.2266-1.4453-3.2266-3.2266v-54.352c0-1.7812 1.4453-3.2305 3.2266-3.2305z"/>
<path transform="matrix(2.1519 0 0 2.1529 33.897 -365.67)" d="m59.933 220.65v7.2213" fill="none" stroke="#000" stroke-width="2.8346"/>
<path transform="matrix(2.1519 0 0 2.1529 0 .032458)" d="m224.26 74.519 45-48.749" fill="none" stroke="#000" stroke-width="2.8346"/>
<path d="m589.24 109.06c0 4.4609-7.2266 8.0742-16.141 8.0742-8.9141 0-16.141-3.6133-16.141-8.0742 0-4.457 7.2266-8.0703 16.141-8.0703 8.9141 0 16.141 3.6133 16.141 8.0703z"/>
<path d="m561.93 124.91h22.34c1.7852 0 3.2305 1.4492 3.2305 3.2305v54.352c0 1.7812-1.4453 3.2266-3.2305 3.2266h-22.34c-1.7812 0-3.2266-1.4453-3.2266-3.2266v-54.352c0-1.7812 1.4453-3.2305 3.2266-3.2305z"/>
<path transform="matrix(2.1519 0 0 2.1529 444.13 -365.67)" d="m59.933 220.65v7.2213" fill="none" stroke="#000" stroke-width="2.8346"/>
<path transform="matrix(2.1519 0 0 2.1529 0 .032458)" d="m266.32 50.783v-21.263" fill="none" stroke="#000" stroke-width=".75"/>
<g>
<use x="396.808594" y="48.297705" xlink:href="#e"/>
<use x="416.175798" y="48.297705" xlink:href="#a"/>
<use x="435.543002" y="48.297705" xlink:href="#d"/>
<use x="454.910206" y="48.297705" xlink:href="#a"/>
<use x="474.27741" y="48.297705" xlink:href="#c"/>
<use x="493.644613" y="48.297705" xlink:href="#b"/>
</g>
</svg>
