<?xml version="1.0" encoding="UTF-8"?>
<svg width="800px" height="435px" version="1.1" viewBox="0 0 800 435" xmlns="http://www.w3.org/2000/svg" xmlns:xlink="http://www.w3.org/1999/xlink">
<defs>
<symbol id="y" overflow="visible">
<path d="m2.5781-19.141h3.4844l8.4688 16.016v-16.016h2.5156v19.141h-3.4844l-8.4844-16.016v16.016h-2.5z"/>
</symbol>
<symbol id="m" overflow="visible">
<path d="m8.0312-12.703c-1.2734 0-2.2734 0.49609-3 1.4844-0.73047 0.99219-1.0938 2.3398-1.0938 4.0469 0 1.7188 0.36328 3.0742 1.0938 4.0625 0.72656 0.99219 1.7266 1.4844 3 1.4844 1.25 0 2.2383-0.49219 2.9688-1.4844 0.73828-0.98828 1.1094-2.3438 1.1094-4.0625 0-1.6953-0.37109-3.0391-1.1094-4.0312-0.73047-1-1.7188-1.5-2.9688-1.5zm0-2c2.0391 0 3.6445 0.66797 4.8125 2 1.1758 1.3359 1.7656 3.1797 1.7656 5.5312 0 2.3555-0.58984 4.2031-1.7656 5.5469-1.168 1.3359-2.7734 2-4.8125 2-2.0625 0-3.6797-0.66406-4.8438-2-1.1562-1.3438-1.7344-3.1914-1.7344-5.5469 0-2.3516 0.57812-4.1953 1.7344-5.5312 1.1641-1.332 2.7812-2 4.8438-2z"/>
</symbol>
<symbol id="e" overflow="visible">
<path d="m10.781-12.156c-0.27344-0.14453-0.5625-0.25391-0.875-0.32812-0.30469-0.070313-0.64062-0.10938-1.0156-0.10938-1.3359 0-2.3594 0.43359-3.0781 1.2969-0.71094 0.86719-1.0625 2.1094-1.0625 3.7344v7.5625h-2.375v-14.359h2.375v2.2344c0.48828-0.875 1.1289-1.5195 1.9219-1.9375 0.80078-0.42578 1.7695-0.64062 2.9062-0.64062 0.15625 0 0.33203 0.011719 0.53125 0.03125 0.19531 0.023437 0.41406 0.054687 0.65625 0.09375z"/>
</symbol>
<symbol id="l" overflow="visible">
<path d="m13.641-11.594c0.58203-1.0625 1.2812-1.8438 2.0938-2.3438 0.82031-0.50781 1.7891-0.76562 2.9062-0.76562 1.4883 0 2.6406 0.52734 3.4531 1.5781 0.8125 1.043 1.2188 2.5273 1.2188 4.4531v8.6719h-2.375v-8.5938c0-1.375-0.24609-2.3945-0.73438-3.0625-0.48047-0.66406-1.2188-1-2.2188-1-1.2188 0-2.1836 0.40625-2.8906 1.2188-0.71094 0.8125-1.0625 1.9219-1.0625 3.3281v8.1094h-2.375v-8.5938c0-1.3828-0.24609-2.4062-0.73438-3.0625-0.48047-0.66406-1.2266-1-2.2344-1-1.2109 0-2.168 0.41406-2.875 1.2344-0.71094 0.8125-1.0625 1.918-1.0625 3.3125v8.1094h-2.375v-14.359h2.375v2.2344c0.53906-0.88281 1.1875-1.5352 1.9375-1.9531 0.75-0.41406 1.6406-0.625 2.6719-0.625 1.0391 0 1.9258 0.26562 2.6562 0.79688 0.72656 0.53125 1.2695 1.3047 1.625 2.3125z"/>
</symbol>
<symbol id="k" overflow="visible">
<path d="m8.9844-7.2188c-1.9062 0-3.2266 0.21875-3.9531 0.65625-0.73047 0.4375-1.0938 1.1836-1.0938 2.2344 0 0.83594 0.26953 1.4961 0.8125 1.9844 0.55078 0.49219 1.3008 0.73438 2.25 0.73438 1.3125 0 2.3594-0.46094 3.1406-1.3906 0.78906-0.92578 1.1875-2.1562 1.1875-3.6875v-0.53125zm4.7031-0.96875v8.1875h-2.3594v-2.1719c-0.54297 0.86719-1.2148 1.5078-2.0156 1.9219-0.80469 0.41406-1.7812 0.625-2.9375 0.625-1.4688 0-2.6367-0.41016-3.5-1.2344-0.86719-0.83203-1.2969-1.9375-1.2969-3.3125 0-1.6133 0.53516-2.832 1.6094-3.6562 1.082-0.82031 2.6953-1.2344 4.8438-1.2344h3.2969v-0.23438c0-1.082-0.35938-1.9219-1.0781-2.5156-0.71094-0.59375-1.7031-0.89062-2.9844-0.89062-0.82422 0-1.625 0.10156-2.4062 0.29688-0.77344 0.19922-1.5156 0.49609-2.2344 0.89062v-2.1875c0.86328-0.33203 1.6953-0.58203 2.5-0.75 0.8125-0.16406 1.6016-0.25 2.375-0.25 2.0703 0 3.6172 0.54297 4.6406 1.625 1.0312 1.0742 1.5469 2.7031 1.5469 4.8906z"/>
</symbol>
<symbol id="h" overflow="visible">
<path d="m2.4688-19.938h2.3594v19.938h-2.3594z"/>
</symbol>
<symbol id="b" overflow="visible">
<path d="m2.4688-14.359h2.3594v14.359h-2.3594zm0-5.5781h2.3594v2.9844h-2.3594z"/>
</symbol>
<symbol id="d" overflow="visible">
<path d="m4.7969-18.438v4.0781h4.8594v1.8438h-4.8594v7.7812c0 1.1797 0.16016 1.9336 0.48438 2.2656 0.32031 0.33594 0.97266 0.5 1.9531 0.5h2.4219v1.9688h-2.4219c-1.8242 0-3.0781-0.33594-3.7656-1.0156-0.6875-0.67578-1.0312-1.9141-1.0312-3.7188v-7.7812h-1.7344v-1.8438h1.7344v-4.0781z"/>
</symbol>
<symbol id="o" overflow="visible">
<path d="m8.9844-7.2188c-1.9062 0-3.2266 0.21875-3.9531 0.65625-0.73047 0.4375-1.0938 1.1836-1.0938 2.2344 0 0.83594 0.26953 1.4961 0.8125 1.9844 0.55078 0.49219 1.3008 0.73438 2.25 0.73438 1.3125 0 2.3594-0.46094 3.1406-1.3906 0.78906-0.92578 1.1875-2.1562 1.1875-3.6875v-0.53125zm4.7031-0.96875v8.1875h-2.3594v-2.1719c-0.54297 0.86719-1.2148 1.5078-2.0156 1.9219-0.80469 0.41406-1.7812 0.625-2.9375 0.625-1.4688 0-2.6367-0.41016-3.5-1.2344-0.86719-0.83203-1.2969-1.9375-1.2969-3.3125 0-1.6133 0.53516-2.832 1.6094-3.6562 1.082-0.82031 2.6953-1.2344 4.8438-1.2344h3.2969v-0.23438c0-1.082-0.35938-1.9219-1.0781-2.5156-0.71094-0.59375-1.7031-0.89062-2.9844-0.89062-0.82422 0-1.625 0.10156-2.4062 0.29688-0.77344 0.19922-1.5156 0.49609-2.2344 0.89062v-2.1875c0.86328-0.33203 1.6953-0.58203 2.5-0.75 0.8125-0.16406 1.6016-0.25 2.375-0.25 2.0703 0 3.6172 0.54297 4.6406 1.625 1.0312 1.0742 1.5469 2.7031 1.5469 4.8906zm-4.875-11.703h2.5938v2.5938h-2.5938zm-5.0156 0h2.5938v2.5938h-2.5938z"/>
</symbol>
<symbol id="g" overflow="visible">
<path d="m11.609-13.938v2.2344c-0.66797-0.34375-1.3594-0.59766-2.0781-0.76562-0.71094-0.17578-1.4492-0.26562-2.2188-0.26562-1.168 0-2.0469 0.18359-2.6406 0.54688-0.58594 0.35547-0.875 0.89062-0.875 1.6094 0 0.55469 0.20703 0.98438 0.625 1.2969 0.42578 0.3125 1.2695 0.60938 2.5312 0.89062l0.8125 0.17188c1.6641 0.36719 2.8477 0.875 3.5469 1.5312 0.70703 0.64844 1.0625 1.5586 1.0625 2.7344 0 1.3242-0.52734 2.375-1.5781 3.1562-1.0547 0.78125-2.5 1.1719-4.3438 1.1719-0.77344 0-1.5742-0.078125-2.4062-0.23438-0.83594-0.14453-1.7109-0.36719-2.625-0.67188v-2.4219c0.875 0.44922 1.7344 0.78906 2.5781 1.0156 0.84375 0.21875 1.6758 0.32812 2.5 0.32812 1.1133 0 1.9688-0.1875 2.5625-0.5625 0.59375-0.38281 0.89062-0.92188 0.89062-1.6094 0-0.64453-0.21484-1.1328-0.64062-1.4688-0.42969-0.34375-1.3711-0.67188-2.8281-0.98438l-0.82812-0.20312c-1.4609-0.30078-2.5117-0.76953-3.1562-1.4062-0.64844-0.64453-0.96875-1.5195-0.96875-2.625 0-1.3516 0.47266-2.3945 1.4219-3.125 0.95703-0.73828 2.3164-1.1094 4.0781-1.1094 0.86328 0 1.6797 0.070313 2.4531 0.20312 0.76953 0.125 1.4766 0.3125 2.125 0.5625z"/>
</symbol>
<symbol id="n" overflow="visible">
<path d="m11.906-7.3438c0-1.707-0.35547-3.0312-1.0625-3.9688-0.69922-0.94531-1.6836-1.4219-2.9531-1.4219-1.2734 0-2.2617 0.47656-2.9688 1.4219-0.69922 0.9375-1.0469 2.2617-1.0469 3.9688 0 1.6992 0.34766 3.0234 1.0469 3.9688 0.70703 0.9375 1.6953 1.4062 2.9688 1.4062 1.2695 0 2.2539-0.46875 2.9531-1.4062 0.70703-0.94531 1.0625-2.2695 1.0625-3.9688zm2.3594 5.5625c0 2.4453-0.54297 4.2656-1.625 5.4531-1.0859 1.1875-2.7461 1.7812-4.9844 1.7812-0.83594 0-1.6172-0.0625-2.3438-0.1875-0.73047-0.11719-1.4453-0.30469-2.1406-0.5625v-2.2969c0.69531 0.375 1.3789 0.64844 2.0469 0.82812 0.67578 0.1875 1.3633 0.28125 2.0625 0.28125 1.5508 0 2.707-0.40625 3.4688-1.2188 0.76953-0.80469 1.1562-2.0234 1.1562-3.6562v-1.1719c-0.49219 0.85547-1.1172 1.4922-1.875 1.9062-0.76172 0.41797-1.668 0.625-2.7188 0.625-1.7617 0-3.1797-0.67188-4.25-2.0156-1.0742-1.3438-1.6094-3.1172-1.6094-5.3281 0-2.2188 0.53516-4 1.6094-5.3438 1.0703-1.3438 2.4883-2.0156 4.25-2.0156 1.0508 0 1.957 0.21094 2.7188 0.625 0.75781 0.41797 1.3828 1.0547 1.875 1.9062v-2.1875h2.3594z"/>
</symbol>
<symbol id="a" overflow="visible">
<path d="m14.734-7.7656v1.1562h-10.828c0.10156 1.625 0.59375 2.8672 1.4688 3.7188 0.875 0.84375 2.0938 1.2656 3.6562 1.2656 0.89453 0 1.7695-0.10938 2.625-0.32812 0.85156-0.22656 1.6953-0.5625 2.5312-1v2.2188c-0.84375 0.36719-1.7148 0.64062-2.6094 0.82812-0.88672 0.1875-1.7812 0.28125-2.6875 0.28125-2.293 0-4.1055-0.66406-5.4375-2-1.3359-1.332-2-3.1328-2-5.4062 0-2.3516 0.62891-4.2188 1.8906-5.5938 1.2695-1.3828 2.9766-2.0781 5.125-2.0781 1.9375 0 3.4609 0.625 4.5781 1.875 1.125 1.2422 1.6875 2.9297 1.6875 5.0625zm-2.3594-0.6875c-0.011719-1.2891-0.37109-2.3203-1.0781-3.0938-0.71094-0.76953-1.6406-1.1562-2.7969-1.1562-1.3125 0-2.3672 0.375-3.1562 1.125-0.79297 0.74219-1.2461 1.7812-1.3594 3.125z"/>
</symbol>
<symbol id="c" overflow="visible">
<path d="m14.391-8.6719v8.6719h-2.3594v-8.5938c0-1.3516-0.26562-2.3672-0.79688-3.0469-0.52344-0.67578-1.3125-1.0156-2.375-1.0156-1.2734 0-2.2773 0.40625-3.0156 1.2188-0.73047 0.8125-1.0938 1.9219-1.0938 3.3281v8.1094h-2.375v-14.359h2.375v2.2344c0.5625-0.86328 1.2227-1.5078 1.9844-1.9375 0.76953-0.42578 1.6562-0.64062 2.6562-0.64062 1.6445 0 2.8906 0.51172 3.7344 1.5312 0.84375 1.0234 1.2656 2.5234 1.2656 4.5z"/>
</symbol>
<symbol id="x" overflow="visible">
<path d="m1.4531-14.359h11.188v2.1562l-8.8594 10.312h8.8594v1.8906h-11.516v-2.1562l8.8594-10.312h-8.5312z"/>
</symbol>
<symbol id="j" overflow="visible">
<path d="m11.906-12.172v-7.7656h2.3594v19.938h-2.3594v-2.1562c-0.5 0.85547-1.1328 1.4922-1.8906 1.9062-0.75 0.41406-1.6523 0.625-2.7031 0.625-1.7305 0-3.1406-0.69141-4.2344-2.0781-1.0859-1.3828-1.625-3.207-1.625-5.4688 0-2.25 0.53906-4.0664 1.625-5.4531 1.0938-1.3828 2.5039-2.0781 4.2344-2.0781 1.0508 0 1.9531 0.21094 2.7031 0.625 0.75781 0.41797 1.3906 1.0547 1.8906 1.9062zm-8.0312 5c0 1.7422 0.35156 3.1055 1.0625 4.0938 0.71875 0.98047 1.7031 1.4688 2.9531 1.4688 1.2383 0 2.2188-0.48828 2.9375-1.4688 0.71875-0.98828 1.0781-2.3516 1.0781-4.0938 0-1.7266-0.35938-3.0859-1.0781-4.0781-0.71875-0.98828-1.6992-1.4844-2.9375-1.4844-1.25 0-2.2344 0.49609-2.9531 1.4844-0.71094 0.99219-1.0625 2.3516-1.0625 4.0781z"/>
</symbol>
<symbol id="t" overflow="visible">
<path d="m14.031-18.516v2.5312c-0.98047-0.46875-1.9062-0.81641-2.7812-1.0469-0.86719-0.22656-1.7031-0.34375-2.5156-0.34375-1.4062 0-2.4961 0.27734-3.2656 0.82812-0.76172 0.54297-1.1406 1.3125-1.1406 2.3125 0 0.85547 0.25 1.5 0.75 1.9375 0.50781 0.42969 1.4727 0.77344 2.8906 1.0312l1.5625 0.3125c1.9375 0.375 3.3633 1.0273 4.2812 1.9531 0.91406 0.92969 1.375 2.168 1.375 3.7188 0 1.8555-0.625 3.2617-1.875 4.2188-1.2422 0.96094-3.0586 1.4375-5.4531 1.4375-0.90625 0-1.8711-0.10547-2.8906-0.3125-1.0234-0.20703-2.0742-0.50781-3.1562-0.90625v-2.6719c1.0391 0.59375 2.0664 1.043 3.0781 1.3438 1.0078 0.29297 2 0.4375 2.9688 0.4375 1.4766 0 2.6172-0.28516 3.4219-0.85938 0.80078-0.58203 1.2031-1.4141 1.2031-2.5 0-0.9375-0.29297-1.6719-0.875-2.2031-0.57422-0.53125-1.5156-0.92578-2.8281-1.1875l-1.5781-0.3125c-1.9297-0.38281-3.3242-0.98438-4.1875-1.7969-0.85547-0.82031-1.2812-1.9609-1.2812-3.4219 0-1.6953 0.59375-3.0312 1.7812-4 1.1875-0.97656 2.8281-1.4688 4.9219-1.4688 0.89453 0 1.8047 0.085937 2.7344 0.25 0.9375 0.15625 1.8906 0.39844 2.8594 0.71875z"/>
</symbol>
<symbol id="i" overflow="visible">
<path d="m12.797-13.797v2.2031c-0.66797-0.375-1.3398-0.64844-2.0156-0.82812-0.66797-0.1875-1.3438-0.28125-2.0312-0.28125-1.5234 0-2.7031 0.48438-3.5469 1.4531s-1.2656 2.3281-1.2656 4.0781c0 1.7617 0.42188 3.125 1.2656 4.0938s2.0234 1.4531 3.5469 1.4531c0.6875 0 1.3633-0.085938 2.0312-0.26562 0.67578-0.1875 1.3477-0.46875 2.0156-0.84375v2.1875c-0.66797 0.30469-1.3555 0.53125-2.0625 0.6875-0.69922 0.15625-1.4453 0.23438-2.2344 0.23438-2.1562 0-3.8711-0.67578-5.1406-2.0312-1.2734-1.3633-1.9062-3.2031-1.9062-5.5156 0-2.332 0.64062-4.1719 1.9219-5.5156s3.0391-2.0156 5.2812-2.0156c0.72656 0 1.4375 0.078125 2.125 0.23438 0.6875 0.14844 1.3594 0.37109 2.0156 0.67188z"/>
</symbol>
<symbol id="f" overflow="visible">
<path d="m14.391-8.6719v8.6719h-2.3594v-8.5938c0-1.3516-0.26562-2.3672-0.79688-3.0469-0.52344-0.67578-1.3125-1.0156-2.375-1.0156-1.2734 0-2.2773 0.40625-3.0156 1.2188-0.73047 0.8125-1.0938 1.9219-1.0938 3.3281v8.1094h-2.375v-19.938h2.375v7.8125c0.5625-0.86328 1.2227-1.5078 1.9844-1.9375 0.76953-0.42578 1.6562-0.64062 2.6562-0.64062 1.6445 0 2.8906 0.51172 3.7344 1.5312 0.84375 1.0234 1.2656 2.5234 1.2656 4.5z"/>
</symbol>
<symbol id="s" overflow="visible">
<path d="m1.0938-14.359h2.3594l2.9531 11.203 2.9219-11.203h2.7812l2.9531 11.203 2.9219-11.203h2.3594l-3.75 14.359h-2.7812l-3.0781-11.766-3.1094 11.766h-2.7656z"/>
</symbol>
<symbol id="r" overflow="visible"></symbol>
<symbol id="q" overflow="visible">
<path d="m4.7031-19.141v7.125h-2.1875v-7.125zm4.8281 0v7.125h-2.1719v-7.125z"/>
</symbol>
<symbol id="p" overflow="visible">
<path d="m2.2344-5.6719v-8.6875h2.3438v8.6094c0 1.3555 0.26562 2.375 0.79688 3.0625 0.53125 0.67969 1.3281 1.0156 2.3906 1.0156 1.2695 0 2.2695-0.40625 3-1.2188 0.73828-0.8125 1.1094-1.9219 1.1094-3.3281v-8.1406h2.3594v14.359h-2.3594v-2.2031c-0.57422 0.875-1.2422 1.5273-2 1.9531-0.75 0.41406-1.6211 0.625-2.6094 0.625-1.6562 0-2.9141-0.50781-3.7656-1.5312-0.84375-1.0312-1.2656-2.5352-1.2656-4.5156z"/>
</symbol>
<symbol id="w" overflow="visible">
<path d="m5.1562-9.1406v7.0156h4.1562c1.3828 0 2.4102-0.28516 3.0781-0.85938 0.67578-0.58203 1.0156-1.4688 1.0156-2.6562 0-1.1953-0.33984-2.0781-1.0156-2.6406-0.66797-0.57031-1.6953-0.85938-3.0781-0.85938zm0-7.875v5.7812h3.8281c1.2578 0 2.1953-0.23438 2.8125-0.70312 0.625-0.47656 0.9375-1.207 0.9375-2.1875 0-0.96875-0.3125-1.6914-0.9375-2.1719-0.61719-0.47656-1.5547-0.71875-2.8125-0.71875zm-2.5781-2.125h6.5938c1.9766 0 3.5 0.41406 4.5625 1.2344 1.0703 0.82422 1.6094 1.9922 1.6094 3.5 0 1.168-0.27734 2.1016-0.82812 2.7969-0.54297 0.6875-1.3438 1.1211-2.4062 1.2969 1.2695 0.27344 2.2539 0.83984 2.9531 1.7031 0.70703 0.86719 1.0625 1.9492 1.0625 3.25 0 1.7109-0.57812 3.0312-1.7344 3.9688-1.1562 0.92969-2.8086 1.3906-4.9531 1.3906h-6.8594z"/>
</symbol>
<symbol id="v" overflow="visible">
<path d="m9.7344-19.938v1.9531h-2.2656c-0.84375 0-1.4336 0.17188-1.7656 0.51562-0.32422 0.34375-0.48438 0.96094-0.48438 1.8438v1.2656h3.8906v1.8438h-3.8906v12.516h-2.3594v-12.516h-2.25v-1.8438h2.25v-1c0-1.5938 0.36719-2.7539 1.1094-3.4844 0.73828-0.72656 1.9141-1.0938 3.5312-1.0938z"/>
</symbol>
<symbol id="u" overflow="visible">
<path d="m12.766-7.1719c0-1.7266-0.35938-3.0859-1.0781-4.0781-0.71094-0.98828-1.6875-1.4844-2.9375-1.4844-1.2422 0-2.2188 0.49609-2.9375 1.4844-0.71094 0.99219-1.0625 2.3516-1.0625 4.0781 0 1.7422 0.35156 3.1055 1.0625 4.0938 0.71875 0.98047 1.6953 1.4688 2.9375 1.4688 1.25 0 2.2266-0.48828 2.9375-1.4688 0.71875-0.98828 1.0781-2.3516 1.0781-4.0938zm-8.0156-5c0.48828-0.85156 1.1133-1.4883 1.875-1.9062 0.75781-0.41406 1.6602-0.625 2.7031-0.625 1.7383 0 3.1484 0.69531 4.2344 2.0781 1.0938 1.3867 1.6406 3.2031 1.6406 5.4531 0 2.2617-0.54688 4.0859-1.6406 5.4688-1.0859 1.3867-2.4961 2.0781-4.2344 2.0781-1.043 0-1.9453-0.21094-2.7031-0.625-0.76172-0.41406-1.3867-1.0508-1.875-1.9062v2.1562h-2.375v-19.938h2.375z"/>
</symbol>
</defs>
<path transform="matrix(2.6221 0 0 2.6242 0 .29138)" d="m25.521 48.755h29.999" fill="none" stroke="#000" stroke-width="2.8346"/>
<path transform="matrix(2.6221 0 0 2.6242 0 .29138)" d="m40.521 138.75v-135" fill="none" stroke="#000" stroke-width="2.8346"/>
<path d="m88.258 49.055 17.918-48.762 17.918 48.762c-10.578-7.7891-25.051-7.7422-35.836 0z" fill-rule="evenodd"/>
<path transform="matrix(2.6221 0 0 2.6242 0 .29138)" d="m168.02 60.003h105" fill="none" stroke="#000" stroke-width="2.8346"/>
<path transform="matrix(2.6221 0 0 2.6242 0 .29138)" d="m220.52 112.5v-105" fill="none" stroke="#000" stroke-width="2.8346"/>
<path transform="matrix(2.6221 0 0 2.6242 0 .29138)" d="m224.27 60.003c0 2.072-1.6789 3.7511-3.7497 3.7511s-3.7497-1.6791-3.7497-3.7511c0-2.0706 1.6789-3.7496 3.7497-3.7496s3.7497 1.6791 3.7497 3.7496z" fill="none" stroke="#000" stroke-width="1.4173"/>
<path transform="matrix(2.6221 0 0 2.6242 725.72 49.506)" d="m-75 30c0 2.0706-1.6789 3.7496-3.7497 3.7496s-3.7497-1.6791-3.7497-3.7496c0-2.072 1.6789-3.7511 3.7497-3.7511s3.7497 1.6791 3.7497 3.7511z" fill="none" stroke="#000" stroke-width="1.4173"/>
<path d="m525.12 128.23c0 3.2578-2.6406 5.9023-5.8984 5.9023-3.2578 0-5.8984-2.6445-5.8984-5.9023 0-3.2617 2.6406-5.9062 5.8984-5.9062 3.2578 0 5.8984 2.6445 5.8984 5.9062z"/>
<path transform="matrix(2.6221 0 0 2.6242 312.74 -9.5386)" d="m-75 30c0 2.0706-1.6789 3.7496-3.7497 3.7496-2.0722 0-3.7512-1.6791-3.7512-3.7496s1.6789-3.7496 3.7512-3.7496c2.0708 0 3.7497 1.6791 3.7497 3.7496z" fill="none" stroke="#000" stroke-width="1.4173"/>
<path d="m112.15 69.188c0 3.2617-2.6406 5.9062-5.8984 5.9062-3.2617 0-5.9023-2.6445-5.9023-5.9062s2.6406-5.9023 5.9023-5.9023c3.2578 0 5.8984 2.6406 5.8984 5.9023z"/>
<path transform="matrix(2.6221 0 0 2.6242 312.74 108.55)" d="m-75 30c0 2.072-1.6789 3.7496-3.7497 3.7496-2.0722 0-3.7512-1.6776-3.7512-3.7496 0-2.0706 1.6789-3.7496 3.7512-3.7496 2.0708 0 3.7497 1.6791 3.7497 3.7496z" fill="none" stroke="#000" stroke-width="1.4173"/>
<path d="m112.15 187.28c0 3.2617-2.6406 5.9062-5.8984 5.9062-3.2617 0-5.9023-2.6445-5.9023-5.9062 0-3.2617 2.6406-5.9023 5.9023-5.9023 3.2578 0 5.8984 2.6406 5.8984 5.9023z"/>
<path transform="matrix(2.6221 0 0 2.6242 883.04 -29.22)" d="m-74.999 30.001c0 2.0706-1.6789 3.7496-3.7512 3.7496-2.0708 0-3.7497-1.6791-3.7497-3.7496 0-2.072 1.6789-3.7511 3.7497-3.7511 2.0722 0 3.7512 1.6791 3.7512 3.7511z" fill="none" stroke="#000" stroke-width="1.4173"/>
<path d="m682.45 49.508c0 3.2578-2.6445 5.9023-5.9023 5.9023-3.2578 0-5.8984-2.6445-5.8984-5.9023 0-3.2617 2.6406-5.9062 5.8984-5.9062 3.2578 0 5.9023 2.6445 5.9023 5.9062z"/>
<path transform="matrix(2.6221 0 0 2.6242 843.71 108.55)" d="m-75 30c0 2.072-1.6789 3.7496-3.7512 3.7496-2.0708 0-3.7497-1.6776-3.7497-3.7496 0-2.0706 1.6789-3.7496 3.7497-3.7496 2.0722 0 3.7512 1.6791 3.7512 3.7496z" fill="none" stroke="#000" stroke-width="1.4173"/>
<path d="m643.12 187.28c0 3.2617-2.6406 5.9062-5.9023 5.9062-3.2578 0-5.8984-2.6445-5.8984-5.9062 0-3.2617 2.6406-5.9023 5.8984-5.9023 3.2617 0 5.9023 2.6406 5.9023 5.9023z"/>
<g>
<use x="163.1875" y="134.026607" xlink:href="#y"/>
<use x="181.542103" y="134.026607" xlink:href="#m"/>
<use x="197.274619" y="134.026607" xlink:href="#e"/>
<use x="207.762963" y="134.026607" xlink:href="#l"/>
<use x="233.983824" y="134.026607" xlink:href="#k"/>
<use x="249.716341" y="134.026607" xlink:href="#h"/>
<use x="257.582599" y="134.026607" xlink:href="#b"/>
<use x="265.448857" y="134.026607" xlink:href="#d"/>
<use x="275.937202" y="134.026607" xlink:href="#o"/>
<use x="291.669718" y="134.026607" xlink:href="#d"/>
<use x="302.158062" y="134.026607" xlink:href="#g"/>
<use x="315.268493" y="134.026607" xlink:href="#n"/>
<use x="331.001009" y="134.026607" xlink:href="#e"/>
<use x="341.489354" y="134.026607" xlink:href="#a"/>
<use x="357.22187" y="134.026607" xlink:href="#c"/>
<use x="372.954387" y="134.026607" xlink:href="#x"/>
<use x="386.064817" y="134.026607" xlink:href="#a"/>
</g>
<g>
<use x="0.0351562" y="398.483638" xlink:href="#a"/>
<use x="15.767673" y="398.483638" xlink:href="#b"/>
<use x="23.633931" y="398.483638" xlink:href="#c"/>
<use x="39.366447" y="398.483638" xlink:href="#j"/>
<use x="55.098964" y="398.483638" xlink:href="#b"/>
<use x="62.965222" y="398.483638" xlink:href="#l"/>
<use x="89.186083" y="398.483638" xlink:href="#a"/>
<use x="104.9186" y="398.483638" xlink:href="#c"/>
<use x="120.651116" y="398.483638" xlink:href="#g"/>
<use x="133.761546" y="398.483638" xlink:href="#b"/>
<use x="141.627805" y="398.483638" xlink:href="#m"/>
<use x="157.360321" y="398.483638" xlink:href="#c"/>
<use x="173.092838" y="398.483638" xlink:href="#k"/>
<use x="188.825354" y="398.483638" xlink:href="#h"/>
<use x="196.691612" y="398.483638" xlink:href="#a"/>
</g>
<g>
<use x="36.742188" y="431.28442" xlink:href="#t"/>
<use x="52.474704" y="431.28442" xlink:href="#b"/>
<use x="60.340962" y="431.28442" xlink:href="#i"/>
<use x="76.073479" y="431.28442" xlink:href="#f"/>
<use x="91.805995" y="431.28442" xlink:href="#d"/>
<use x="102.29434" y="431.28442" xlink:href="#s"/>
<use x="123.271028" y="431.28442" xlink:href="#a"/>
<use x="139.003545" y="431.28442" xlink:href="#b"/>
<use x="146.869803" y="431.28442" xlink:href="#g"/>
<use x="159.980233" y="431.28442" xlink:href="#a"/>
</g>
<g>
<use x="483.828125" y="396.448482" xlink:href="#t"/>
<use x="499.560641" y="396.448482" xlink:href="#b"/>
<use x="507.4269" y="396.448482" xlink:href="#i"/>
<use x="523.159416" y="396.448482" xlink:href="#f"/>
<use x="538.891933" y="396.448482" xlink:href="#d"/>
<use x="549.380277" y="396.448482" xlink:href="#s"/>
<use x="570.356966" y="396.448482" xlink:href="#a"/>
<use x="586.089482" y="396.448482" xlink:href="#b"/>
<use x="593.95574" y="396.448482" xlink:href="#g"/>
<use x="607.066171" y="396.448482" xlink:href="#a"/>
<use x="622.798687" y="396.448482" xlink:href="#r"/>
<use x="630.664946" y="396.448482" xlink:href="#j"/>
<use x="646.397462" y="396.448482" xlink:href="#a"/>
<use x="662.129979" y="396.448482" xlink:href="#e"/>
</g>
<g>
<use x="356.65625" y="429.249263" xlink:href="#q"/>
<use x="369.76668" y="429.249263" xlink:href="#p"/>
<use x="385.499197" y="429.249263" xlink:href="#c"/>
<use x="401.231713" y="429.249263" xlink:href="#d"/>
<use x="411.720058" y="429.249263" xlink:href="#a"/>
<use x="427.452574" y="429.249263" xlink:href="#e"/>
<use x="437.940919" y="429.249263" xlink:href="#g"/>
<use x="451.051349" y="429.249263" xlink:href="#i"/>
<use x="466.783865" y="429.249263" xlink:href="#f"/>
<use x="482.516382" y="429.249263" xlink:href="#b"/>
<use x="490.38264" y="429.249263" xlink:href="#a"/>
<use x="506.115157" y="429.249263" xlink:href="#j"/>
<use x="521.847673" y="429.249263" xlink:href="#h"/>
<use x="529.713931" y="429.249263" xlink:href="#b"/>
<use x="537.58019" y="429.249263" xlink:href="#i"/>
<use x="553.312706" y="429.249263" xlink:href="#f"/>
<use x="569.045223" y="429.249263" xlink:href="#a"/>
<use x="584.777739" y="429.249263" xlink:href="#c"/>
<use x="600.510256" y="429.249263" xlink:href="#r"/>
<use x="608.376514" y="429.249263" xlink:href="#w"/>
<use x="626.731116" y="429.249263" xlink:href="#a"/>
<use x="642.463633" y="429.249263" xlink:href="#v"/>
<use x="652.951977" y="429.249263" xlink:href="#o"/>
<use x="668.684494" y="429.249263" xlink:href="#f"/>
<use x="684.41701" y="429.249263" xlink:href="#b"/>
<use x="692.283268" y="429.249263" xlink:href="#n"/>
<use x="708.015785" y="429.249263" xlink:href="#p"/>
<use x="723.748301" y="429.249263" xlink:href="#c"/>
<use x="739.480818" y="429.249263" xlink:href="#n"/>
<use x="755.213334" y="429.249263" xlink:href="#a"/>
<use x="770.945851" y="429.249263" xlink:href="#c"/>
<use x="786.678367" y="429.249263" xlink:href="#q"/>
</g>
<g>
<use x="143.675781" y="77.014888" xlink:href="#c"/>
<use x="159.408298" y="77.014888" xlink:href="#m"/>
<use x="175.140814" y="77.014888" xlink:href="#e"/>
<use x="185.629159" y="77.014888" xlink:href="#l"/>
<use x="211.850019" y="77.014888" xlink:href="#k"/>
<use x="227.582536" y="77.014888" xlink:href="#h"/>
</g>
<g>
<use x="143.675781" y="195.104732" xlink:href="#u"/>
<use x="159.408298" y="195.104732" xlink:href="#a"/>
<use x="175.140814" y="195.104732" xlink:href="#f"/>
<use x="190.873331" y="195.104732" xlink:href="#b"/>
<use x="198.739589" y="195.104732" xlink:href="#c"/>
<use x="214.472105" y="195.104732" xlink:href="#j"/>
<use x="230.204622" y="195.104732" xlink:href="#a"/>
<use x="245.937138" y="195.104732" xlink:href="#e"/>
<use x="256.425483" y="195.104732" xlink:href="#d"/>
</g>
</svg>
