<?xml version="1.0" encoding="UTF-8"?>
<svg width="200px" height="293px" version="1.1" viewBox="0 0 200 293" xmlns="http://www.w3.org/2000/svg">
<g stroke="#333" stroke-linecap="round" stroke-linejoin="round" stroke-miterlimit="10">
<path transform="matrix(2.6671 0 0 2.6699 -410.4 -199.9)" d="m208.01 127.54c-0.068837-0.50621-0.10252-1.0154-0.23873-1.5903-0.13621-0.57644-0.1699-1.7615-0.20358-2.5398-0.035151-1.3548-0.035151-6.7081-0.8158-8.6378-0.1699-0.60863-0.34126-1.5918-0.30611-2.9802-0.10252-3.8273-0.95201-6.0277-0.88317-7.1806 0.23727-1.7279-0.068838-3.4206-0.40863-4.8763-0.10106-0.40673-0.23727-0.7798-0.44232-1.1529-1.1556-2.2692-3.9091-3.1148-4.9285-3.3518-0.78211-0.20483-2.8883-1.2538-3.5678-1.5581-0.068837-0.03365-0.13621-0.068763-0.20358-0.10241-0.10399-0.0673-0.20651-0.10095-0.30757-0.16825-0.033686-0.035114-0.10252-0.068764-0.1699-0.10241-0.91832-0.71104-1.1219-1.6591-1.0868-2.474 0.033686-0.37161 0.10106-0.71104 0.13621-0.87783v-0.035114c0.20212-0.27213 0.33833-0.54133 0.4057-0.71104 0-0.0673 0.035151-0.1346 0.068838-0.20336 0.033686-0.068763 0.033686-0.13606 0.068838-0.20336v-0.03365c0.033686-0.068763 0.033686-0.13606 0.067373-0.20336v-0.035113c0-0.0673 0.033686-0.1346 0.068837-0.23701 0-0.067301 0.032222-0.16825 0.032222-0.23701 0.035151-0.099487 0.035151-0.16825 0.068838-0.23701 0-0.10095 0-0.16825 0.033686-0.23701v-0.2019l0.033687-0.035113c0.035151-0.032187 0.10252-0.0673 0.1699-0.10095 0-0.03365 0.035151-0.03365 0.068838-0.03365v-0.03365c0.033686 0 0.033686-0.03365 0.067373-0.03365v-0.035114c0.035151 0 0.035151 0 0.035151-0.032187 0.032222 0 0.032222 0 0.032222-0.035113h0.035151c0-0.03365 0.033686-0.0673 0.033686-0.0673 0.13768-0.16971 0.1699-0.33943 0.27242-0.50768 0.13621-0.20483 0.068837-0.33943 0.20358-0.67885 0.10252-0.30431 0.1699-0.81199 0.1699-1.0154 0-0.20336 0.23874-0.74615 0.23874-1.0154 0-0.16971-0.068837-0.30431-0.13768-0.33943-0.032222-0.03365-0.067373-0.03365-0.10106-0.03365-0.033686-0.03365-0.067373 0-0.10252 0l-0.33833 1.0841-0.067373 0.30431c-0.068838 0.27066-0.27389 0.64374-0.27389 0.64374v-0.035114c0.035151-0.10095 0.10252-0.23701 0.1699-0.40526 0-0.03365 0.035151-0.10095 0.068837-0.16971 0-0.03365 0-0.03365 0.035152-0.0673 0-0.068763 0.032221-0.13606 0.067373-0.23701v-0.03365c0.033686-0.0673 0.067373-0.16971 0.10106-0.23701v-0.035113c0.035151-0.10095 0.035151-0.2019 0.067373-0.2692 0-0.035113 0-0.035113 0.035151-0.068763 0-0.10095 0.032222-0.20336 0.032222-0.30578v-0.032187c0.035151-0.10241 0.035151-0.20483 0.035151-0.33943 0.035151-0.035113 0.035151-0.10241 0.035151-0.16971v-0.03365c0.032222-0.54279 0-1.4221-0.37348-2.2692 0-0.0673 0-0.10241-0.035152-0.16971-0.13621-0.54133-0.44232-1.049-1.0194-1.286 0.10106 0.0673 0.20358 0.10095 0.30611 0.1346-0.30611-0.30431-0.85095-0.67739-1.2933-0.74469 0.23874 0 0.47747 0.20336 0.74843 0.20336-0.20358-0.20336-0.57706-0.40673-0.88317-0.44038-0.20358-0.03365-0.50969 0.13606-0.74843 0.13606-0.033686-0.035114-0.067373-0.035114-0.10252-0.035114-0.067373-0.03365-0.13475-0.0673-0.20358-0.10095-0.23727-0.13606-0.47454-0.13606-0.74843-0.20336-0.47454-0.0673-0.91539-0.0673-1.3929-0.03365 0.10252 0 0.20358 0.0673 0.33979 0.10095-0.067373-0.03365-0.13621-0.03365-0.20358-0.03365-0.13621 0.03365-0.23874 0.03365-0.37495 0.0673-0.067373 0-0.10106 0.03365-0.16843 0.03365-0.10252 0.035113-0.23874 0.035113-0.34126 0.035113-0.27096 0.03365-0.57706 0.03365-0.84802 0.10095-0.035152 0-0.10252 0-0.13768 0.03365 0.035151 0.035114 0.068838 0.035114 0.10252 0.035114h0.17136c-0.20505 0.0673-0.37494 0.1346-0.54484 0.2019l-0.30611 0.10241c-0.33979 0.1346-0.57706 0.40673-0.88317 0.60863 0.067373-0.0673 0.1699-0.10095 0.23727-0.1346-0.13475 0.16971-0.37348 0.27066-0.50969 0.44038-0.067373 0.1346-0.10252 0.27066-0.13621 0.40673-0.78211 1.1851-0.61075 2.6071-0.57853 2.9466v0.032187c0.035152 0.035113 0.035152 0.035113 0.035152 0.070226v0.099487c0.067373 0.20483 0.10252 0.54279 0.20358 0.88075 0.033687 0.27213 0.067373 0.50914 0.10252 0.67885-0.068837-0.30578-0.13621-0.61155-0.13621-0.67885v-0.032187s-0.067373-0.20483-0.10252-0.40673c-0.033687-0.0673-0.067373-0.13606-0.067373-0.20483 0-0.0673-0.13621-0.16825-0.13621-0.16825-0.1699-0.10095-0.30611 0.10095-0.30611 0.37308 0 0.2692 0.20358 0.81199 0.20358 1.0154 0 0.20336 0.068837 0.71104 0.20358 1.0154 0.10252 0.33943 0.067373 0.47403 0.1699 0.67739 0.10252 0.16971 0.17136 0.33943 0.27242 0.50914 0 0 0.033686 0.03365 0.033686 0.0673h0.035152c0 0.035113 0.033686 0.035113 0.033686 0.035113 0 0.032187 0.033687 0.032187 0.033687 0.032187 0 0.035114 0.033686 0.035114 0.033686 0.035114 0.035151 0.03365 0.035151 0.03365 0.067373 0.03365v0.03365c0.10399 0.0673 0.17136 0.10241 0.23874 0.1346v0.20483c0.035151 0.032187 0.035151 0.0673 0.035151 0.10095v0.13606c0 0.032187 0 0.0673 0.033687 0.10095v0.16825c0 0.035113 0 0.068763 0.033686 0.10241v0.16971c0.033687 0.03365 0.033687 0.0673 0.033687 0.10241v0.032187c0 0.035113 0.035151 0.0673 0.035151 0.0673v0.068763c0 0.03365 0 0.068763 0.032222 0.068763v0.1346c0.035151 0 0.035151 0.033651 0.035151 0.033651v0.068763c0.033686 0.032187 0.033686 0.032187 0.033686 0.0673v0.032187c0.033687 0.035113 0.033687 0.035113 0.033687 0.070226v0.032187c0.033686 0.035113 0.033686 0.0673 0.068837 0.10241 0.067373 0.10241 0.1699 0.30431 0.33833 0.54133 0 0.23701 0.067373 0.57644 0.067373 0.94805 0.035151 0.47403-0.032222 1.0168-0.20212 1.4908-0.23874 0.57644-0.68105 1.1178-1.4969 1.5567-0.10106 0.035113-0.2358 0.10241-0.37348 0.13753-0.9857 0.40526-2.3097 1.0827-3.1958 1.2524-0.67812 0.10241-4.3148 1.4894-5.0295 4.572-0.30611 0.98317-0.61075 2.2019-0.68105 3.387-0.032222 0.54133-0.032222 1.0505 0.035151 1.5918 0.067373 1.1529-0.78065 3.3533-0.88317 7.1792 0.033686 1.3562-0.10252 2.3043-0.27242 2.9144-0.067373 0.13606-0.10252 0.27066-0.13621 0.40673-0.67959 2.1668-0.67959 7.0109-0.71328 8.2633-0.033687 0.81345-0.068838 1.9649-0.20358 2.5413-0.10252 0.43891-0.068837 0.84564-0.10252 1.2524 0 0.035113 0 0.10241-0.033686 0.1346 0 0.035113 0 0.10241-0.035152 0.13753v0.099487c-0.067373 0.20483-0.13475 0.27213-0.10106 0.54425l0.033686 0.71104c0 0.032187 0 0.067301-0.033686 0.099488 0.033686 0.035113 0.033686 0.61155 0.033686 0.74615h0.035152c0 0.61009 0.032221 1.5581-0.068838 2.0995-0.13621 0.88075-0.033687 1.3899 0 1.9312 0.068838 0.54133 0.61075 1.3548 0.74696 1.9985 0.34126 1.4221 0.74843 1.4557 1.0545 1.8961 0.27242 0.44038 0.95054 0.74469 1.1556 0.9144l0.033687 0.035113h0.035151c0.10106 0.1346 0.37348 0.37161 0.71328 0.40673 0 0.032187 0 0.032187 0.033687 0.032187h0.068837c0.032222-0.032187 0.067373 0 0.067373-0.032187 0.067373 0 0.10106 0 0.13621-0.035113 0.23727-0.10241 0.23727-0.37161 0.23727-0.43891 0.033687 0 0.13621 0.032187 0.27242 0.032187 0.13475 0 0.61222 0.035113 0.84949-0.032187 0.068838 0 0.13621-0.035113 0.13621-0.068763 0.40717-0.37308-0.10252-0.74615-0.13621-0.7798l0.37495-0.03365h0.032222v-0.03365c0.47747-0.27066-0.13475-0.81345-0.13475-0.81345 0-0.03365-0.035152-0.03365-0.13621-0.0673l-0.54484-0.30431c0.30611-0.10241 0.71474-0.20336 0.71474-0.23701-0.033686-0.03365-0.033686-0.03365-0.033686-0.068763h0.033686c-0.033686-0.50768-0.23727-0.60863-0.476-0.60863-0.23874 0.03365-0.476 0.1346-0.6459 0.23701-0.067373 0.033651-0.10252 0.033651-0.13621 0.067301-0.068837 0-0.10106 0.03365-0.13621 0-0.27096-0.37161-0.50969-0.23701-0.67959-0.30431l-0.40717-2.2019v-0.068763c0.20358-0.30431-0.23874-0.9817-0.23874-0.9817s0.30611 0.16971 0.57706 0.47549c0.035151 0.0673 0.068838 0.1346 0.10252 0.2019 0.17136 0.44038 0.57853 1.1529 1.0545 1.3548 0.23873 0.10241 0.47454 0.10241 0.74843-0.0673 0.64444-0.40673 0-1.5245-0.57853-2.2355-0.13621-0.16971-0.30611-0.33796-0.40863-0.44038-0.067373-0.0673-0.10252-0.10095-0.13475-0.1346-0.37495-0.57644-0.44232-1.5245-0.57853-2.1346-0.033687-0.47403-0.30611-0.9817-0.30611-1.1514 0.033686-0.03365 0.033686-0.10241 0.068837-0.16971 0.067373-0.23701 0.1699-0.71104 0.27096-1.1851 0.035151-0.33943 0.61222-2.3716 1.0882-4.2326 0.37348-1.2202 0.67959-2.3379 0.71328-2.6774 0.30611-1.4894 0.6459-2.3365 0.74843-3.2172 0.067373-0.40673 0.067373-0.81345 0-1.3211 0.033687-1.0827 0.44232-3.997 0.54338-4.6393v0.7798c-0.33979 2.0658-0.23727 3.3855-0.1699 4.5033v0.47403c-0.30611 4.3014 0.40717 9.8229 0.37348 11.109-0.10252 0.64374-0.27242 1.5245-0.33979 2.9817-0.033687 0.50768-0.033687 1.3884 0 2.6408 0 3.387 0.30611 8.1974 1.4954 14.26 0.068838 0.40526 0.13621 0.77834 0.20358 1.1851 0.10252 0.54133 0.1699 2.3365 0.37348 3.3182 0.035151 0.23701 0.54484 1.3899 0.57999 2.948 0.067373 2.5047-0.23874 5.7922-0.13768 7.5859 0.10252 2.9129 1.3606 5.6225 1.8366 7.5186 0.44232 1.8976 0.6459 3.387 0.54338 3.76-0.067373 0.33796-0.16843 0.94805 0.13475 1.4908-0.13475 0.33796-0.88317 1.8976-1.3255 2.2019-0.4057 0.33796-0.54191 0.60863-0.88317 0.81199-0.33833 0.20336-0.54191 0.37308-0.67959 0.74469-0.068838 0.20483-0.20358 0.40673-0.27242 0.61009-0.032222 0.16825-0.067373 0.27066 0.068838 0.37308 0.033686 0.032187 0.10252 0.0673 0.10252 0.10095l0.032222-0.03365c-0.032222 0.1346-0.032222 0.2019 0.035151 0.27066 0.13621 0.27066 0.37495 0.30578 0.71328 0.27066l0.035151-0.03365c0 0.10095 0.033687 0.16971 0.10106 0.27066 0.20505 0.30431 0.91832 0.44038 1.1893 0.16971 0.37495 0.20336 1.1219 0.23701 1.3943-0.067301 0.033686 0 0.033686 0.03365 0.033686 0.03365 0.23874 0.50768 1.0545 0.40673 1.5291 0.30431 0.44232-0.0673 0.64737-0.30431 0.88464-0.50768 0.033687 0 0.033687-0.03365 0.033687-0.03365 0.035151-0.03365 0.068838-0.03365 0.10252-0.068763 0.16843-0.1346 0.33979-0.30431 0.37348-0.50768 0.068838-0.13606 0.068838-0.30431 0.033686-0.50768-0.067373-0.54133 0-0.54133 0.067373-1.1851v-0.10241c0.10252-0.2019 0.27389-0.37161 0.34126-0.67593 0.033687-0.10241 0.067373-0.20483 0.067373-0.33943 0.033687-0.50914-0.33979-2.6423-0.30611-2.9129 0.10106-0.67739-0.37348-1.2202-0.50823-2.3028-0.17136-1.1178 0.27096-4.8441 0.27096-5.5201 0-1.2875 0.67959-3.4221 0.50969-6.0292-0.13621-1.5245-0.88317-6.1653-0.88317-7.2143 0-0.20336-0.033687-1.3548 0.033686-1.5581 0.20358-0.67885 0.78065-9.2128 0.78065-9.3152 0.10252-1.0154 0.81726-6.4008 0.81726-6.4008h0.033687c0.068837 0 0.13621 0.03365 0.20358 0.03365h0.10252c0.033686 0.23701 0.8158 5.2845 0.88317 6.2662 0 0.10095 0.476 8.7724 0.71328 9.4835 0.068838 0.20336 0 1.3548 0 1.5581 0 1.0505-0.74696 5.6561-0.84949 7.1792-0.1699 2.6423 0.51116 4.7768 0.51116 6.0292 0 0.71104 0.44085 4.4374 0.27096 5.5215-0.035151 0.27066-0.10252 0.50768-0.1699 0.74469-0.067373 0.30431-0.20358 0.57644-0.27096 0.81345-0.068837 0.23701-0.10252 0.50768-0.068837 0.74469 0.033686 0.30578-0.37348 2.4389-0.34126 2.9466 0.068837 0.60863 0.4101 0.74615 0.44232 1.0841 0.068838 0.67739 0.13768 0.67739 0.035151 1.2187-0.067373 0.50914 0.13621 0.71104 0.40717 0.94805 0.033686 0.035113 0.068837 0.035113 0.10252 0.068763l0.033686 0.03365c0.23727 0.20336 0.44232 0.44038 0.88464 0.50768 0.47454 0.10241 1.2903 0.16971 1.5291-0.30431 0-0.03365 0-0.03365 0.033686-0.068763 0.27242 0.33943 1.0194 0.30578 1.3943 0.10241 0.27096 0.27066 0.9857 0.1346 1.1893-0.16971 0.067373-0.0673 0.067373-0.1346 0.10106-0.16971 0-0.03365 0-0.0673 0.035151-0.10095v0.03365c0.33833 0.035113 0.67959-0.0673 0.74696-0.27066 0 0 0-0.03365 0.033687-0.068763v-0.2019c0.035151 0 0.068837-0.035113 0.10252-0.0673 0.067373-0.035113 0.10252-0.0673 0.10252-0.13606 0.10106-0.23701-0.1699-0.57498-0.27242-0.8471-0.13621-0.37161-0.30464-0.54133-0.67959-0.74469-0.33979-0.20336-0.44085-0.47403-0.88464-0.81199-0.47454-0.33943-1.2903-2.1346-1.3255-2.2706 0.035151-0.0673 0.067373-0.1346 0.10252-0.20336 0.1699-0.47403 0.067373-0.9817 0-1.2524-0.067373-0.40673 0.10252-1.8961 0.57706-3.7937 0.068837-0.20336 0.13621-0.47403 0.20358-0.71104 0.23874-0.77834 0.54484-1.6591 0.8158-2.6071 0.40863-1.2875 0.74843-2.711 0.8158-4.2004 0.070302-1.7952-0.20358-5.046-0.16843-7.5537 0.033686-0.9817 0.23873-1.76 0.40717-2.3028 0.067373-0.27066 0.13621-0.44038 0.1699-0.54133 0-0.068763 0.035151-0.10095 0.035151-0.13606 0.20358-0.98317 0.27096-2.7769 0.37202-3.3182 1.4632-8.4008 1.7341-13.988 1.7341-16.63v-1.4221s-0.10252-0.64374-0.1699-1.3562c-0.067373-0.67593-0.13621-1.3548-0.20358-1.624v-0.94952c0.10252-2.1331 0.44232-6.6042 0.30611-9.5844 0.035151-0.74615 0-1.1851 0-1.2538 0.035151-0.88075-0.033686-2.2355-0.10252-3.3182 0-0.27213 0-0.50914-0.033687-0.81345 0.033687-0.33943 0.033687-0.67739 0-0.98317 0 0.035113 0.033687 0.0673 0.033687 0.10241 0.067373 0.54133 0.51116 3.5567 0.54484 4.6744-0.10252 0.84564 0.033686 1.4572 0.23727 2.2355 0.13621 0.57498 0.33979 1.2187 0.50969 2.0995 0.035151 0.16825 0.13621 0.57498 0.27242 1.0841 0.44085 1.9298 1.4617 5.5537 1.5305 6.0277 0.10106 0.57644 0.27096 1.1851 0.33833 1.3226v0.099487c-0.067373 0.16971-0.1699 0.44184-0.23727 0.71104h-0.033686c-0.035151 0.068763-0.067373 0.13753-0.10252 0.20483-0.3398 0.50768-0.3398 1.7264-0.78065 2.3365 0 0.03365-0.035151 0.0673-0.068837 0.10241-0.10252 0.10095-0.27242 0.27066-0.40863 0.43891-0.57706 0.71104-1.223 1.8288-0.57706 2.2355 0.27096 0.16971 0.50969 0.16971 0.74843 0.0673 0.50969-0.2019 0.88317-0.91294 1.0531-1.3548 0.033687-0.0673 0.068838-0.1346 0.10106-0.16825 0.27389-0.33796 0.57853-0.50768 0.57853-0.50768s-0.033687 0.03365-0.068838 0.10095v0.03365c-0.10106 0.20336-0.30464 0.61009-0.16843 0.8471 0 0.03365 0 0.03365 0.033686 0.0673l-0.44232 2.2019c-0.1699 0.0673-0.40717-0.10241-0.67959 0.30431h-0.10106c-0.068837-0.03365-0.13621-0.03365-0.20505-0.0673-0.1699-0.10241-0.40717-0.23701-0.61075-0.23701-0.23874 0-0.44232 0.10241-0.47747 0.61009h0.035152v0.03365c-0.035152 0.0673 0.37348 0.16971 0.67959 0.27066l-0.54338 0.30431c-0.10252 0.035113-0.13621 0.035113-0.13621 0.068763 0 0-0.61222 0.54133-0.13621 0.81199h0.033686v0.03365l0.37348 0.03365c-0.033686 0.035113-0.54338 0.40673-0.13475 0.78127 0 0.032187 0.067373 0.0673 0.13475 0.0673 0.23874 0.067301 0.71328 0.032187 0.85095 0.032187 0.13621 0 0.23727-0.032187 0.27096-0.032187 0 0.067301 0 0.3365 0.23874 0.43891 0.033687 0.035113 0.067373 0.035113 0.13621 0.035113h0.032222c0.035151 0.032187 0.070302 0.032187 0.13768 0 0.33979-0.035113 0.61075-0.27213 0.71328-0.40673h0.033687l0.033686-0.035114c0.20358-0.16971 0.88464-0.47403 1.1556-0.9144 0.30611-0.44038 0.71474-0.47403 1.0545-1.8961 0.13475-0.64374 0.67959-1.4894 0.74696-1.9985 0.035151-0.54133 0.13621-1.0505 0-1.9312-0.10106-0.60863 0.068837-1.9971 0.17136-2.9129 0 0 0.13475-0.74323 0-1.4221zm-5.4045 9.2479h-0.10252c0.10252-0.035113 0.20358-0.035113 0.30611-0.035113" fill="none" stroke-width=".53356"/>
<path transform="matrix(2.6671 0 0 2.6699 -410.4 -199.9)" d="m208.01 127.54c-0.068837-0.50621-0.10252-1.0154-0.23873-1.5903-0.13621-0.57644-0.1699-1.7615-0.20358-2.5398-0.035151-1.3548-0.035151-6.7081-0.8158-8.6378-0.1699-0.60863-0.34126-1.5918-0.30611-2.9802-0.10252-3.8273-0.95201-6.0277-0.88317-7.1806 0.23727-1.7279-0.068838-3.4206-0.40863-4.8763-0.10106-0.40673-0.23727-0.7798-0.44232-1.1529-1.1556-2.2692-3.9091-3.1148-4.9285-3.3518-0.78211-0.20483-2.8883-1.2538-3.5678-1.5581-0.068837-0.03365-0.13621-0.068763-0.20358-0.10241-0.10399-0.0673-0.20651-0.10095-0.30757-0.16825-0.033686-0.035114-0.10252-0.068764-0.1699-0.10241-0.91832-0.71104-1.1219-1.6591-1.0868-2.474 0.033686-0.37161 0.10106-0.71104 0.13621-0.87783v-0.035114c0.20212-0.27213 0.33833-0.54133 0.4057-0.71104 0-0.0673 0.035151-0.1346 0.068838-0.20336 0.033686-0.068763 0.033686-0.13606 0.068838-0.20336v-0.03365c0.033686-0.068763 0.033686-0.13606 0.067373-0.20336v-0.035113c0-0.0673 0.033686-0.1346 0.068837-0.23701 0-0.067301 0.032222-0.16825 0.032222-0.23701 0.035151-0.099487 0.035151-0.16825 0.068838-0.23701 0-0.10095 0-0.16825 0.033686-0.23701v-0.2019l0.033687-0.035113c0.035151-0.032187 0.10252-0.0673 0.1699-0.10095 0-0.03365 0.035151-0.03365 0.068838-0.03365v-0.03365c0.033686 0 0.033686-0.03365 0.067373-0.03365v-0.035114c0.035151 0 0.035151 0 0.035151-0.032187 0.032222 0 0.032222 0 0.032222-0.035113h0.035151c0-0.03365 0.033686-0.0673 0.033686-0.0673 0.13768-0.16971 0.1699-0.33943 0.27242-0.50768 0.13621-0.20483 0.068837-0.33943 0.20358-0.67885 0.10252-0.30431 0.1699-0.81199 0.1699-1.0154 0-0.20336 0.23874-0.74615 0.23874-1.0154 0-0.16971-0.068837-0.30431-0.13768-0.33943-0.032222-0.03365-0.067373-0.03365-0.10106-0.03365-0.033686-0.03365-0.067373 0-0.10252 0l-0.33833 1.0841-0.067373 0.30431c-0.068838 0.27066-0.27389 0.64374-0.27389 0.64374v-0.035114c0.035151-0.10095 0.10252-0.23701 0.1699-0.40526 0-0.03365 0.035151-0.10095 0.068837-0.16971 0-0.03365 0-0.03365 0.035152-0.0673 0-0.068763 0.032221-0.13606 0.067373-0.23701v-0.03365c0.033686-0.0673 0.067373-0.16971 0.10106-0.23701v-0.035113c0.035151-0.10095 0.035151-0.2019 0.067373-0.2692 0-0.035113 0-0.035113 0.035151-0.068763 0-0.10095 0.032222-0.20336 0.032222-0.30578v-0.032187c0.035151-0.10241 0.035151-0.20483 0.035151-0.33943 0.035151-0.035113 0.035151-0.10241 0.035151-0.16971v-0.03365c0.032222-0.54279 0-1.4221-0.37348-2.2692 0-0.0673 0-0.10241-0.035152-0.16971-0.13621-0.54133-0.44232-1.049-1.0194-1.286 0.10106 0.0673 0.20358 0.10095 0.30611 0.1346-0.30611-0.30431-0.85095-0.67739-1.2933-0.74469 0.23874 0 0.47747 0.20336 0.74843 0.20336-0.20358-0.20336-0.57706-0.40673-0.88317-0.44038-0.20358-0.03365-0.50969 0.13606-0.74843 0.13606-0.033686-0.035114-0.067373-0.035114-0.10252-0.035114-0.067373-0.03365-0.13475-0.0673-0.20358-0.10095-0.23727-0.13606-0.47454-0.13606-0.74843-0.20336-0.47454-0.0673-0.91539-0.0673-1.3929-0.03365 0.10252 0 0.20358 0.0673 0.33979 0.10095-0.067373-0.03365-0.13621-0.03365-0.20358-0.03365-0.13621 0.03365-0.23874 0.03365-0.37495 0.0673-0.067373 0-0.10106 0.03365-0.16843 0.03365-0.10252 0.035113-0.23874 0.035113-0.34126 0.035113-0.27096 0.03365-0.57706 0.03365-0.84802 0.10095-0.035152 0-0.10252 0-0.13768 0.03365 0.035151 0.035114 0.068838 0.035114 0.10252 0.035114h0.17136c-0.20505 0.0673-0.37494 0.1346-0.54484 0.2019l-0.30611 0.10241c-0.33979 0.1346-0.57706 0.40673-0.88317 0.60863 0.067373-0.0673 0.1699-0.10095 0.23727-0.1346-0.13475 0.16971-0.37348 0.27066-0.50969 0.44038-0.067373 0.1346-0.10252 0.27066-0.13621 0.40673-0.78211 1.1851-0.61075 2.6071-0.57853 2.9466v0.032187c0.035152 0.035113 0.035152 0.035113 0.035152 0.070226v0.099487c0.067373 0.20483 0.10252 0.54279 0.20358 0.88075 0.033687 0.27213 0.067373 0.50914 0.10252 0.67885-0.068837-0.30578-0.13621-0.61155-0.13621-0.67885v-0.032187s-0.067373-0.20483-0.10252-0.40673c-0.033687-0.0673-0.067373-0.13606-0.067373-0.20483 0-0.0673-0.13621-0.16825-0.13621-0.16825-0.1699-0.10095-0.30611 0.10095-0.30611 0.37308 0 0.2692 0.20358 0.81199 0.20358 1.0154 0 0.20336 0.068837 0.71104 0.20358 1.0154 0.10252 0.33943 0.067373 0.47403 0.1699 0.67739 0.10252 0.16971 0.17136 0.33943 0.27242 0.50914 0 0 0.033686 0.03365 0.033686 0.0673h0.035152c0 0.035113 0.033686 0.035113 0.033686 0.035113 0 0.032187 0.033687 0.032187 0.033687 0.032187 0 0.035114 0.033686 0.035114 0.033686 0.035114 0.035151 0.03365 0.035151 0.03365 0.067373 0.03365v0.03365c0.10399 0.0673 0.17136 0.10241 0.23874 0.1346v0.20483c0.035151 0.032187 0.035151 0.0673 0.035151 0.10095v0.13606c0 0.032187 0 0.0673 0.033687 0.10095v0.16825c0 0.035113 0 0.068763 0.033686 0.10241v0.16971c0.033687 0.03365 0.033687 0.0673 0.033687 0.10241v0.032187c0 0.035113 0.035151 0.0673 0.035151 0.0673v0.068763c0 0.03365 0 0.068763 0.032222 0.068763v0.1346c0.035151 0 0.035151 0.033651 0.035151 0.033651v0.068763c0.033686 0.032187 0.033686 0.032187 0.033686 0.0673v0.032187c0.033687 0.035113 0.033687 0.035113 0.033687 0.070226v0.032187c0.033686 0.035113 0.033686 0.0673 0.068837 0.10241 0.067373 0.10241 0.1699 0.30431 0.33833 0.54133 0 0.23701 0.067373 0.57644 0.067373 0.94805 0.035151 0.47403-0.032222 1.0168-0.20212 1.4908-0.23874 0.57644-0.68105 1.1178-1.4969 1.5567-0.10106 0.035113-0.2358 0.10241-0.37348 0.13753-0.9857 0.40526-2.3097 1.0827-3.1958 1.2524-0.67812 0.10241-4.3148 1.4894-5.0295 4.572-0.30611 0.98317-0.61075 2.2019-0.68105 3.387-0.032222 0.54133-0.032222 1.0505 0.035151 1.5918 0.067373 1.1529-0.78065 3.3533-0.88317 7.1792 0.033686 1.3562-0.10252 2.3043-0.27242 2.9144-0.067373 0.13606-0.10252 0.27066-0.13621 0.40673-0.67959 2.1668-0.67959 7.0109-0.71328 8.2633-0.033687 0.81345-0.068838 1.9649-0.20358 2.5413-0.10252 0.43891-0.068837 0.84564-0.10252 1.2524 0 0.035113 0 0.10241-0.033686 0.1346 0 0.035113 0 0.10241-0.035152 0.13753v0.099487c-0.067373 0.20483-0.13475 0.27213-0.10106 0.54425l0.033686 0.71104c0 0.032187 0 0.067301-0.033686 0.099488 0.033686 0.035113 0.033686 0.61155 0.033686 0.74615h0.035152c0 0.61009 0.032221 1.5581-0.068838 2.0995-0.13621 0.88075-0.033687 1.3899 0 1.9312 0.068838 0.54133 0.61075 1.3548 0.74696 1.9985 0.34126 1.4221 0.74843 1.4557 1.0545 1.8961 0.27242 0.44038 0.95054 0.74469 1.1556 0.9144l0.033687 0.035113h0.035151c0.10106 0.1346 0.37348 0.37161 0.71328 0.40673 0 0.032187 0 0.032187 0.033687 0.032187h0.068837c0.032222-0.032187 0.067373 0 0.067373-0.032187 0.067373 0 0.10106 0 0.13621-0.035113 0.23727-0.10241 0.23727-0.37161 0.23727-0.43891 0.033687 0 0.13621 0.032187 0.27242 0.032187 0.13475 0 0.61222 0.035113 0.84949-0.032187 0.068838 0 0.13621-0.035113 0.13621-0.068763 0.40717-0.37308-0.10252-0.74615-0.13621-0.7798l0.37495-0.03365h0.032222v-0.03365c0.47747-0.27066-0.13475-0.81345-0.13475-0.81345 0-0.03365-0.035152-0.03365-0.13621-0.0673l-0.54484-0.30431c0.30611-0.10241 0.71474-0.20336 0.71474-0.23701-0.033686-0.03365-0.033686-0.03365-0.033686-0.068763h0.033686c-0.033686-0.50768-0.23727-0.60863-0.476-0.60863-0.23874 0.03365-0.476 0.1346-0.6459 0.23701-0.067373 0.033651-0.10252 0.033651-0.13621 0.067301-0.068837 0-0.10106 0.03365-0.13621 0-0.27096-0.37161-0.50969-0.23701-0.67959-0.30431l-0.40717-2.2019v-0.068763c0.20358-0.30431-0.23874-0.9817-0.23874-0.9817s0.30611 0.16971 0.57706 0.47549c0.035151 0.0673 0.068838 0.1346 0.10252 0.2019 0.17136 0.44038 0.57853 1.1529 1.0545 1.3548 0.23873 0.10241 0.47454 0.10241 0.74843-0.0673 0.64444-0.40673 0-1.5245-0.57853-2.2355-0.13621-0.16971-0.30611-0.33796-0.40863-0.44038-0.067373-0.0673-0.10252-0.10095-0.13475-0.1346-0.37495-0.57644-0.44232-1.5245-0.57853-2.1346-0.033687-0.47403-0.30611-0.9817-0.30611-1.1514 0.033686-0.03365 0.033686-0.10241 0.068837-0.16971 0.067373-0.23701 0.1699-0.71104 0.27096-1.1851 0.035151-0.33943 0.61222-2.3716 1.0882-4.2326 0.37348-1.2202 0.67959-2.3379 0.71328-2.6774 0.30611-1.4894 0.6459-2.3365 0.74843-3.2172 0.067373-0.40673 0.067373-0.81345 0-1.3211 0.033687-1.0827 0.44232-3.997 0.54338-4.6393v0.7798c-0.33979 2.0658-0.23727 3.3855-0.1699 4.5033v0.47403c-0.30611 4.3014 0.40717 9.8229 0.37348 11.109-0.10252 0.64374-0.27242 1.5245-0.33979 2.9817-0.033687 0.50768-0.033687 1.3884 0 2.6408 0 3.387 0.30611 8.1974 1.4954 14.26 0.068838 0.40526 0.13621 0.77834 0.20358 1.1851 0.10252 0.54133 0.1699 2.3365 0.37348 3.3182 0.035151 0.23701 0.54484 1.3899 0.57999 2.948 0.067373 2.5047-0.23874 5.7922-0.13768 7.5859 0.10252 2.9129 1.3606 5.6225 1.8366 7.5186 0.44232 1.8976 0.6459 3.387 0.54338 3.76-0.067373 0.33796-0.16843 0.94805 0.13475 1.4908-0.13475 0.33796-0.88317 1.8976-1.3255 2.2019-0.4057 0.33796-0.54191 0.60863-0.88317 0.81199-0.33833 0.20336-0.54191 0.37308-0.67959 0.74469-0.068838 0.20483-0.20358 0.40673-0.27242 0.61009-0.032222 0.16825-0.067373 0.27066 0.068838 0.37308 0.033686 0.032187 0.10252 0.0673 0.10252 0.10095l0.032222-0.03365c-0.032222 0.1346-0.032222 0.2019 0.035151 0.27066 0.13621 0.27066 0.37495 0.30578 0.71328 0.27066l0.035151-0.03365c0 0.10095 0.033687 0.16971 0.10106 0.27066 0.20505 0.30431 0.91832 0.44038 1.1893 0.16971 0.37495 0.20336 1.1219 0.23701 1.3943-0.067301 0.033686 0 0.033686 0.03365 0.033686 0.03365 0.23874 0.50768 1.0545 0.40673 1.5291 0.30431 0.44232-0.0673 0.64737-0.30431 0.88464-0.50768 0.033687 0 0.033687-0.03365 0.033687-0.03365 0.035151-0.03365 0.068838-0.03365 0.10252-0.068763 0.16843-0.1346 0.33979-0.30431 0.37348-0.50768 0.068838-0.13606 0.068838-0.30431 0.033686-0.50768-0.067373-0.54133 0-0.54133 0.067373-1.1851v-0.10241c0.10252-0.2019 0.27389-0.37161 0.34126-0.67593 0.033687-0.10241 0.067373-0.20483 0.067373-0.33943 0.033687-0.50914-0.33979-2.6423-0.30611-2.9129 0.10106-0.67739-0.37348-1.2202-0.50823-2.3028-0.17136-1.1178 0.27096-4.8441 0.27096-5.5201 0-1.2875 0.67959-3.4221 0.50969-6.0292-0.13621-1.5245-0.88317-6.1653-0.88317-7.2143 0-0.20336-0.033687-1.3548 0.033686-1.5581 0.20358-0.67885 0.78065-9.2128 0.78065-9.3152 0.10252-1.0154 0.81726-6.4008 0.81726-6.4008h0.033687c0.068837 0 0.13621 0.03365 0.20358 0.03365h0.10252c0.033686 0.23701 0.8158 5.2845 0.88317 6.2662 0 0.10095 0.476 8.7724 0.71328 9.4835 0.068838 0.20336 0 1.3548 0 1.5581 0 1.0505-0.74696 5.6561-0.84949 7.1792-0.1699 2.6423 0.51116 4.7768 0.51116 6.0292 0 0.71104 0.44085 4.4374 0.27096 5.5215-0.035151 0.27066-0.10252 0.50768-0.1699 0.74469-0.067373 0.30431-0.20358 0.57644-0.27096 0.81345-0.068837 0.23701-0.10252 0.50768-0.068837 0.74469 0.033686 0.30578-0.37348 2.4389-0.34126 2.9466 0.068837 0.60863 0.4101 0.74615 0.44232 1.0841 0.068838 0.67739 0.13768 0.67739 0.035151 1.2187-0.067373 0.50914 0.13621 0.71104 0.40717 0.94805 0.033686 0.035113 0.068837 0.035113 0.10252 0.068763l0.033686 0.03365c0.23727 0.20336 0.44232 0.44038 0.88464 0.50768 0.47454 0.10241 1.2903 0.16971 1.5291-0.30431 0-0.03365 0-0.03365 0.033686-0.068763 0.27242 0.33943 1.0194 0.30578 1.3943 0.10241 0.27096 0.27066 0.9857 0.1346 1.1893-0.16971 0.067373-0.0673 0.067373-0.1346 0.10106-0.16971 0-0.03365 0-0.0673 0.035151-0.10095v0.03365c0.33833 0.035113 0.67959-0.0673 0.74696-0.27066 0 0 0-0.03365 0.033687-0.068763v-0.2019c0.035151 0 0.068837-0.035113 0.10252-0.0673 0.067373-0.035113 0.10252-0.0673 0.10252-0.13606 0.10106-0.23701-0.1699-0.57498-0.27242-0.8471-0.13621-0.37161-0.30464-0.54133-0.67959-0.74469-0.33979-0.20336-0.44085-0.47403-0.88464-0.81199-0.47454-0.33943-1.2903-2.1346-1.3255-2.2706 0.035151-0.0673 0.067373-0.1346 0.10252-0.20336 0.1699-0.47403 0.067373-0.9817 0-1.2524-0.067373-0.40673 0.10252-1.8961 0.57706-3.7937 0.068837-0.20336 0.13621-0.47403 0.20358-0.71104 0.23874-0.77834 0.54484-1.6591 0.8158-2.6071 0.40863-1.2875 0.74843-2.711 0.8158-4.2004 0.070302-1.7952-0.20358-5.046-0.16843-7.5537 0.033686-0.9817 0.23873-1.76 0.40717-2.3028 0.067373-0.27066 0.13621-0.44038 0.1699-0.54133 0-0.068763 0.035151-0.10095 0.035151-0.13606 0.20358-0.98317 0.27096-2.7769 0.37202-3.3182 1.4632-8.4008 1.7341-13.988 1.7341-16.63v-1.4221s-0.10252-0.64374-0.1699-1.3562c-0.067373-0.67593-0.13621-1.3548-0.20358-1.624v-0.94952c0.10252-2.1331 0.44232-6.6042 0.30611-9.5844 0.035151-0.74615 0-1.1851 0-1.2538 0.035151-0.88075-0.033686-2.2355-0.10252-3.3182 0-0.27213 0-0.50914-0.033687-0.81345 0.033687-0.33943 0.033687-0.67739 0-0.98317 0 0.035113 0.033687 0.0673 0.033687 0.10241 0.067373 0.54133 0.51116 3.5567 0.54484 4.6744-0.10252 0.84564 0.033686 1.4572 0.23727 2.2355 0.13621 0.57498 0.33979 1.2187 0.50969 2.0995 0.035151 0.16825 0.13621 0.57498 0.27242 1.0841 0.44085 1.9298 1.4617 5.5537 1.5305 6.0277 0.10106 0.57644 0.27096 1.1851 0.33833 1.3226v0.099487c-0.067373 0.16971-0.1699 0.44184-0.23727 0.71104h-0.033686c-0.035151 0.068763-0.067373 0.13753-0.10252 0.20483-0.3398 0.50768-0.3398 1.7264-0.78065 2.3365 0 0.03365-0.035151 0.0673-0.068837 0.10241-0.10252 0.10095-0.27242 0.27066-0.40863 0.43891-0.57706 0.71104-1.223 1.8288-0.57706 2.2355 0.27096 0.16971 0.50969 0.16971 0.74843 0.0673 0.50969-0.2019 0.88317-0.91294 1.0531-1.3548 0.033687-0.0673 0.068838-0.1346 0.10106-0.16825 0.27389-0.33796 0.57853-0.50768 0.57853-0.50768s-0.033687 0.03365-0.068838 0.10095v0.03365c-0.10106 0.20336-0.30464 0.61009-0.16843 0.8471 0 0.03365 0 0.03365 0.033686 0.0673l-0.44232 2.2019c-0.1699 0.0673-0.40717-0.10241-0.67959 0.30431h-0.10106c-0.068837-0.03365-0.13621-0.03365-0.20505-0.0673-0.1699-0.10241-0.40717-0.23701-0.61075-0.23701-0.23874 0-0.44232 0.10241-0.47747 0.61009h0.035152v0.03365c-0.035152 0.0673 0.37348 0.16971 0.67959 0.27066l-0.54338 0.30431c-0.10252 0.035113-0.13621 0.035113-0.13621 0.068763 0 0-0.61222 0.54133-0.13621 0.81199h0.033686v0.03365l0.37348 0.03365c-0.033686 0.035113-0.54338 0.40673-0.13475 0.78127 0 0.032187 0.067373 0.0673 0.13475 0.0673 0.23874 0.067301 0.71328 0.032187 0.85095 0.032187 0.13621 0 0.23727-0.032187 0.27096-0.032187 0 0.067301 0 0.3365 0.23874 0.43891 0.033687 0.035113 0.067373 0.035113 0.13621 0.035113h0.032222c0.035151 0.032187 0.070302 0.032187 0.13768 0 0.33979-0.035113 0.61075-0.27213 0.71328-0.40673h0.033687l0.033686-0.035114c0.20358-0.16971 0.88464-0.47403 1.1556-0.9144 0.30611-0.44038 0.71474-0.47403 1.0545-1.8961 0.13475-0.64374 0.67959-1.4894 0.74696-1.9985 0.035151-0.54133 0.13621-1.0505 0-1.9312-0.10106-0.60863 0.068837-1.9971 0.17136-2.9129 0 0 0.13475-0.74323 0-1.4221zm-12.612-40.202m7.2074 49.449h-0.10252c0.10252-0.035113 0.20358-0.035113 0.30611-0.035113" fill="none" stroke-width=".53356"/>
<path transform="matrix(4.5732 0 0 4.5781 .48591 -1.3867e-5)" d="m28.314 36.111h-0.059791c0.059791-0.020478 0.11873-0.020478 0.17852-0.020478" fill="#666" stroke-width=".18147"/>
<path transform="matrix(4.5732 0 0 4.5781 .48591 -1.3867e-5)" d="m23.733 10.203c0.09823 0.19454 0.24515 0.38055 0.45783 0.54522 0.039291 0.019624 0.079437 0.039249 0.099083 0.059727 0.058938 0.039249 0.11873 0.058874 0.17938 0.098123 0.039292 0.019624 0.078583 0.040102 0.11873 0.058873 0.39633 0.17833 1.6246 0.7901 2.0808 0.90956 0.5945 0.13822 2.2003 0.6314 2.8743 1.9548 0.11958 0.21758 0.19902 0.43515 0.25796 0.67236 0.19817 0.84898 0.37669 1.8362 0.23831 2.8439-0.040146 0.67236 0.45527 1.9556 0.51506 4.1869-0.0205 0.81058 0.079438 1.3831 0.17852 1.7389 0.45527 1.1254 0.45527 4.2474 0.47577 5.0375 0.019646 0.45392 0.039291 1.1451 0.11873 1.4812 0.079437 0.33532 0.099083 0.63225 0.13923 0.92747 0.078583 0.3959 0 0.82935 0 0.82935-0.059792 0.53413-0.15888 1.3439-0.099937 1.6988 0.079437 0.51365 0.0205 0.81058 0 1.1263-0.039292 0.29693-0.35704 0.7901-0.43562 1.1655-0.19817 0.82935-0.43648 0.84898-0.615 1.1058-0.15802 0.25683-0.55521 0.4343-0.67394 0.53328l-0.019646 0.020478h-0.019646c-0.059791 0.078498-0.21781 0.21672-0.41598 0.2372-0.040146 0.018771-0.059791 0.018771-0.080291 0h-0.018792c-0.040146 0-0.059792 0-0.079438-0.020478-0.13923-0.059727-0.13923-0.21672-0.13923-0.25597-0.019645 0-0.078583 0.018772-0.15802 0.018772-0.080292 0-0.35704 0.020478-0.49627-0.018772-0.039292 0-0.078584-0.020477-0.078584-0.039249-0.23831-0.21843 0.058938-0.43515 0.078584-0.45563l-0.21781-0.019625v-0.019624h-0.019646c-0.2776-0.15785 0.079438-0.47355 0.079438-0.47355 0-0.019624 0.019646-0.019624 0.079437-0.040102l0.3169-0.17747c-0.17852-0.058874-0.41683-0.1186-0.39633-0.15785v-0.019625h-0.0205c0.0205-0.29608 0.13923-0.3558 0.27846-0.3558 0.11873 0 0.2571 0.078498 0.35619 0.13822 0.040146 0.019625 0.079437 0.019625 0.11958 0.03925h0.058938c0.15887-0.2372 0.29725-0.13823 0.39633-0.17748l0.25796-1.2841c-0.019646-0.019625-0.019646-0.019625-0.019646-0.03925-0.079437-0.13822 0.039292-0.37543 0.098229-0.49403v-0.019624c0.0205-0.03925 0.040146-0.058874 0.040146-0.058874s-0.17767 0.098976-0.3374 0.29608c-0.018791 0.019625-0.039291 0.058874-0.058937 0.098123-0.099083 0.25768-0.3169 0.67236-0.61415 0.7901-0.13923 0.059727-0.27846 0.059727-0.43648-0.039249-0.37669-0.2372 0-0.88908 0.33654-1.3038 0.079437-0.098123 0.17852-0.1971 0.23831-0.25597 0.019646-0.020478 0.040146-0.040102 0.040146-0.059727 0.2571-0.3558 0.2571-1.0666 0.45527-1.3626 0.0205-0.039249 0.039291-0.079351 0.059791-0.11945h0.019646c0.039292-0.157 0.099084-0.3157 0.13838-0.41468v-0.058021c-0.039291-0.080205-0.13838-0.43515-0.19731-0.77133-0.040146-0.27645-0.6355-2.3899-0.8926-3.5162-0.079438-0.29608-0.13838-0.53328-0.15888-0.6314-0.099084-0.51365-0.21781-0.88908-0.29725-1.2244-0.11873-0.45392-0.19817-0.81058-0.13838-1.3038-0.019646-0.65188-0.27846-2.4104-0.31775-2.7261 0-0.020478-0.019646-0.03925-0.019646-0.059727 0.019646 0.17747 0.019646 0.37543 0 0.57338 0.019646 0.17748 0.019646 0.3157 0.019646 0.4744 0.040146 0.6314 0.079437 1.4215 0.059791 1.9352 0 0.040102 0.019646 0.29608 0 0.73123 0.079438 1.7381-0.11873 4.3456-0.17852 5.5896v0.55376c0.039291 0.157 0.079437 0.5529 0.11873 0.9471 0.039291 0.41553 0.099083 0.79096 0.099083 0.79096v0.82935c0 1.541-0.15802 4.7995-1.0113 9.6988-0.058938 0.3157-0.098229 1.3618-0.21696 1.9352 0 0.019624-0.0205 0.039249-0.0205 0.079351-0.019646 0.058874-0.059792 0.15785-0.099084 0.3157-0.099083 0.31655-0.21781 0.77048-0.23746 1.343-0.0205 1.4625 0.13838 3.3584 0.098229 4.4053-0.039292 0.8686-0.23746 1.6988-0.47577 2.4497-0.15802 0.5529-0.33654 1.0666-0.47577 1.5205-0.039291 0.13823-0.078583 0.29608-0.11873 0.41468-0.27675 1.1067-0.37583 1.9753-0.33654 2.2125 0.039291 0.15785 0.099083 0.45392 0 0.73038-0.0205 0.040102-0.039292 0.079351-0.059792 0.1186 0.0205 0.079352 0.49627 1.1263 0.77302 1.3242 0.25796 0.19625 0.31775 0.35495 0.51592 0.47355 0.21781 0.1186 0.3169 0.21758 0.39633 0.4343 0.059791 0.1587 0.21781 0.3558 0.15888 0.49403 0 0.040103-0.0205 0.058874-0.059792 0.079352-0.019646 0.018771-0.039292 0.039249-0.059792 0.039249v0.11775c-0.019645 0.020477-0.019645 0.040102-0.019645 0.040102-0.039292 0.1186-0.23831 0.17833-0.43562 0.15785v-0.019625c-0.0205 0.019625-0.0205 0.039249-0.0205 0.058874-0.019646 0.020478-0.019646 0.059727-0.058938 0.098976-0.11873 0.17747-0.53556 0.25683-0.69358 0.098976-0.21867 0.1186-0.65429 0.13822-0.81317-0.059727-0.019646 0.020478-0.019646 0.020478-0.019646 0.040103-0.13923 0.27645-0.615 0.2372-0.89175 0.17747-0.25796-0.039249-0.37754-0.17747-0.51592-0.29608l-0.019646-0.019625c-0.019646-0.019624-0.040146-0.019624-0.059792-0.040102-0.15802-0.13822-0.27675-0.25597-0.23746-0.5529 0.059792-0.3157 0.019646-0.3157-0.0205-0.71075-0.018792-0.1971-0.21781-0.2773-0.25796-0.63225-0.018792-0.29608 0.21867-1.5401 0.19902-1.7184-0.019645-0.13823 0-0.29608 0.040146-0.4343 0.039292-0.13822 0.11873-0.29693 0.15802-0.4744 0.039292-0.13823 0.078583-0.27645 0.099083-0.4343 0.099084-0.63225-0.15802-2.8055-0.15802-3.2201 0-0.73038-0.39719-1.9753-0.2981-3.5162 0.059792-0.88823 0.49542-3.5742 0.49542-4.1869 0-0.1186 0.040146-0.7901 0-0.9087-0.13838-0.41468-0.41598-5.4718-0.41598-5.5307-0.039292-0.57252-0.49542-3.5162-0.51506-3.6544v-25.512" fill="#666" stroke-width=".18147"/>
</g>
</svg>
