<?xml version="1.0" encoding="UTF-8"?>
<svg width="800px" height="338px" version="1.1" viewBox="0 0 800 338" xmlns="http://www.w3.org/2000/svg" xmlns:xlink="http://www.w3.org/1999/xlink">
<defs>
<symbol id="ag" overflow="visible">
<path d="m0.84375-11.016h8.6719v1.1406l-6.9688 8.625h7.1406v1.25h-9.0156v-1.1406l6.9844-8.625h-6.8125z"/>
</symbol>
<symbol id="e" overflow="visible">
<path d="m4.625-7.3125c-0.73047 0-1.3086 0.28906-1.7344 0.85938-0.41797 0.5625-0.625 1.3398-0.625 2.3281 0 0.99219 0.20703 1.7734 0.625 2.3438 0.42578 0.5625 1.0039 0.84375 1.7344 0.84375 0.72656 0 1.3008-0.28516 1.7188-0.85938 0.42578-0.57031 0.64062-1.3477 0.64062-2.3281 0-0.97656-0.21484-1.7539-0.64062-2.3281-0.41797-0.57031-0.99219-0.85938-1.7188-0.85938zm0-1.1562c1.1875 0 2.1133 0.38672 2.7812 1.1562 0.67578 0.77344 1.0156 1.8359 1.0156 3.1875 0 1.3555-0.33984 2.418-1.0156 3.1875-0.66797 0.77344-1.5938 1.1562-2.7812 1.1562s-2.1211-0.38281-2.7969-1.1562c-0.66797-0.76953-1-1.832-1-3.1875 0-1.3516 0.33203-2.4141 1-3.1875 0.67578-0.76953 1.6094-1.1562 2.7969-1.1562z"/>
</symbol>
<symbol id="g" overflow="visible">
<path d="m8.2969-4.9844v4.9844h-1.3594v-4.9375c0-0.78125-0.15234-1.3633-0.45312-1.75-0.30469-0.39453-0.76172-0.59375-1.375-0.59375-0.73047 0-1.3086 0.23438-1.7344 0.70312-0.42969 0.46875-0.64062 1.1055-0.64062 1.9062v4.6719h-1.3594v-8.2656h1.3594v1.2812c0.33203-0.48828 0.71875-0.85938 1.1562-1.1094s0.94141-0.375 1.5156-0.375c0.95703 0 1.6758 0.29688 2.1562 0.89062 0.48828 0.58594 0.73438 1.4492 0.73438 2.5938z"/>
</symbol>
<symbol id="o" overflow="visible">
<path d="m1.2812-3.2656v-5h1.3594v4.9531c0 0.78125 0.14844 1.3711 0.45312 1.7656 0.3125 0.38672 0.76953 0.57812 1.375 0.57812 0.73828 0 1.3203-0.23438 1.75-0.70312 0.42578-0.46875 0.64062-1.1016 0.64062-1.9062v-4.6875h1.3594v8.2656h-1.3594v-1.2656c-0.33594 0.5-0.71875 0.875-1.1562 1.125-0.4375 0.23828-0.94531 0.35938-1.5156 0.35938-0.94922 0-1.6719-0.29688-2.1719-0.89062-0.49219-0.59375-0.73438-1.457-0.73438-2.5938z"/>
</symbol>
<symbol id="h" overflow="visible">
<path d="m1.4219-11.484h1.3594v11.484h-1.3594z"/>
</symbol>
<symbol id="d" overflow="visible">
<path d="m5.1875-4.1562c-1.1055 0-1.8711 0.125-2.2969 0.375-0.41797 0.25-0.625 0.67969-0.625 1.2812 0 0.49219 0.15625 0.875 0.46875 1.1562 0.32031 0.28125 0.75781 0.42188 1.3125 0.42188 0.75 0 1.3477-0.26562 1.7969-0.79688 0.45703-0.53125 0.6875-1.2383 0.6875-2.125v-0.3125zm2.7031-0.5625v4.7188h-1.3594v-1.25c-0.30469 0.5-0.6875 0.87109-1.1562 1.1094-0.46094 0.23828-1.0273 0.35938-1.7031 0.35938-0.84375 0-1.5156-0.23438-2.0156-0.70312-0.5-0.47656-0.75-1.1172-0.75-1.9219 0-0.92578 0.3125-1.625 0.9375-2.0938 0.625-0.47656 1.5508-0.71875 2.7812-0.71875h1.9062v-0.125c0-0.625-0.21094-1.1094-0.625-1.4531-0.40625-0.34375-0.98047-0.51562-1.7188-0.51562-0.46875 0-0.92969 0.058594-1.375 0.17188-0.44922 0.11719-0.88281 0.28906-1.2969 0.51562v-1.2656c0.5-0.1875 0.97656-0.32812 1.4375-0.42188 0.46875-0.10156 0.92578-0.15625 1.375-0.15625 1.1953 0 2.0859 0.3125 2.6719 0.9375 0.59375 0.61719 0.89062 1.5547 0.89062 2.8125z"/>
</symbol>
<symbol id="f" overflow="visible"></symbol>
<symbol id="u" overflow="visible">
<path d="m5.6094-11.484v1.1406h-1.2969c-0.49219 0-0.82812 0.10156-1.0156 0.29688-0.1875 0.1875-0.28125 0.53906-0.28125 1.0469v0.73438h2.2344v1.0625h-2.2344v7.2031h-1.375v-7.2031h-1.2969v-1.0625h1.2969v-0.57812c0-0.91406 0.21094-1.582 0.64062-2 0.4375-0.42578 1.1172-0.64062 2.0469-0.64062z"/>
</symbol>
<symbol id="c" overflow="visible">
<path d="m1.4219-8.2656h1.3594v8.2656h-1.3594zm0-3.2188h1.3594v1.7188h-1.3594z"/>
</symbol>
<symbol id="l" overflow="visible">
<path d="m7.3594-4.125c0-1-0.21094-1.7812-0.625-2.3438-0.40625-0.57031-0.96875-0.85938-1.6875-0.85938s-1.2891 0.28906-1.7031 0.85938c-0.40625 0.5625-0.60938 1.3438-0.60938 2.3438s0.20312 1.7891 0.60938 2.3594c0.41406 0.5625 0.98438 0.84375 1.7031 0.84375s1.2812-0.28125 1.6875-0.84375c0.41406-0.57031 0.625-1.3594 0.625-2.3594zm-4.625-2.8906c0.28906-0.48828 0.64844-0.85156 1.0781-1.0938 0.4375-0.23828 0.96094-0.35938 1.5781-0.35938 1 0 1.8125 0.40234 2.4375 1.2031 0.63281 0.79297 0.95312 1.8398 0.95312 3.1406 0 1.3047-0.32031 2.3555-0.95312 3.1562-0.625 0.79297-1.4375 1.1875-2.4375 1.1875-0.61719 0-1.1406-0.12109-1.5781-0.35938-0.42969-0.23828-0.78906-0.60156-1.0781-1.0938v1.2344h-1.3594v-11.484h1.3594z"/>
</symbol>
<symbol id="b" overflow="visible">
<path d="m8.5-4.4688v0.65625h-6.25c0.0625 0.9375 0.34375 1.6523 0.84375 2.1406 0.50781 0.49219 1.2109 0.73438 2.1094 0.73438 0.51953 0 1.0234-0.0625 1.5156-0.1875 0.48828-0.13281 0.97656-0.32812 1.4688-0.57812v1.2812c-0.49219 0.21094-0.99219 0.36719-1.5 0.46875-0.51172 0.11328-1.0312 0.17188-1.5625 0.17188-1.3242 0-2.3711-0.38281-3.1406-1.1562-0.77344-0.76953-1.1562-1.8047-1.1562-3.1094 0-1.3516 0.36328-2.4258 1.0938-3.2188 0.73828-0.80078 1.7266-1.2031 2.9688-1.2031 1.1133 0 1.9922 0.35938 2.6406 1.0781 0.64453 0.71875 0.96875 1.6953 0.96875 2.9219zm-1.3594-0.40625c-0.011719-0.73828-0.21875-1.3281-0.625-1.7656-0.40625-0.44531-0.94531-0.67188-1.6094-0.67188-0.76172 0-1.3711 0.21484-1.8281 0.64062-0.44922 0.42969-0.71094 1.0312-0.78125 1.8125z"/>
</symbol>
<symbol id="a" overflow="visible">
<path d="m6.2188-7c-0.15625-0.082031-0.32422-0.14453-0.5-0.1875-0.17969-0.039062-0.375-0.0625-0.59375-0.0625-0.77344 0-1.3672 0.25-1.7812 0.75-0.40625 0.5-0.60938 1.2148-0.60938 2.1406v4.3594h-1.3594v-8.2656h1.3594v1.2812c0.28906-0.5 0.66406-0.86719 1.125-1.1094 0.45703-0.25 1.0156-0.375 1.6719-0.375 0.09375 0 0.19141 0.011719 0.29688 0.03125 0.11328 0.011719 0.24219 0.027344 0.39062 0.046875z"/>
</symbol>
<symbol id="k" overflow="visible">
<path d="m6.7031-8.0156v1.2812c-0.38672-0.19531-0.78906-0.34375-1.2031-0.4375-0.41797-0.10156-0.84375-0.15625-1.2812-0.15625-0.67969 0-1.1875 0.10547-1.5312 0.3125-0.33594 0.21094-0.5 0.51562-0.5 0.92188 0 0.32422 0.11719 0.57422 0.35938 0.75 0.25 0.17969 0.73828 0.35156 1.4688 0.51562l0.45312 0.09375c0.96875 0.21094 1.6562 0.5 2.0625 0.875s0.60938 0.90234 0.60938 1.5781c0 0.77344-0.30859 1.3828-0.92188 1.8281-0.60547 0.44922-1.4375 0.67188-2.5 0.67188-0.4375 0-0.89844-0.046875-1.375-0.14062-0.48047-0.082031-0.99219-0.20703-1.5312-0.375v-1.4062c0.50781 0.26172 1.0039 0.46094 1.4844 0.59375 0.48828 0.125 0.97266 0.1875 1.4531 0.1875 0.64453 0 1.1406-0.10938 1.4844-0.32812s0.51562-0.52344 0.51562-0.92188c0-0.375-0.125-0.65625-0.375-0.84375-0.25-0.19531-0.79688-0.39062-1.6406-0.57812l-0.46875-0.10938c-0.84375-0.17578-1.4531-0.44531-1.8281-0.8125-0.375-0.36328-0.5625-0.86719-0.5625-1.5156 0-0.76953 0.27344-1.3672 0.82812-1.7969 0.55078-0.42578 1.332-0.64062 2.3438-0.64062 0.50781 0 0.98438 0.042969 1.4219 0.125 0.44531 0.074219 0.85938 0.18359 1.2344 0.32812z"/>
</symbol>
<symbol id="n" overflow="visible">
<path d="m9.7344-10.172v1.5781c-0.5-0.46875-1.0391-0.81641-1.6094-1.0469-0.5625-0.22656-1.1641-0.34375-1.7969-0.34375-1.2617 0-2.2305 0.38672-2.9062 1.1562-0.66797 0.76172-1 1.8711-1 3.3281 0 1.4609 0.33203 2.5742 1 3.3438 0.67578 0.76172 1.6445 1.1406 2.9062 1.1406 0.63281 0 1.2344-0.11328 1.7969-0.34375 0.57031-0.22656 1.1094-0.57812 1.6094-1.0469v1.5625c-0.52344 0.35547-1.0742 0.62109-1.6562 0.79688-0.58594 0.17578-1.1992 0.26562-1.8438 0.26562-1.668 0-2.9844-0.50781-3.9531-1.5312-0.96094-1.0195-1.4375-2.4141-1.4375-4.1875 0-1.7695 0.47656-3.1641 1.4375-4.1875 0.96875-1.0195 2.2852-1.5312 3.9531-1.5312 0.65625 0 1.2734 0.089844 1.8594 0.26562 0.58203 0.17969 1.1289 0.4375 1.6406 0.78125z"/>
</symbol>
<symbol id="m" overflow="visible">
<path d="m8.2969-4.9844v4.9844h-1.3594v-4.9375c0-0.78125-0.15234-1.3633-0.45312-1.75-0.30469-0.39453-0.76172-0.59375-1.375-0.59375-0.73047 0-1.3086 0.23438-1.7344 0.70312-0.42969 0.46875-0.64062 1.1055-0.64062 1.9062v4.6719h-1.3594v-11.484h1.3594v4.5c0.33203-0.48828 0.71875-0.85938 1.1562-1.1094s0.94141-0.375 1.5156-0.375c0.95703 0 1.6758 0.29688 2.1562 0.89062 0.48828 0.58594 0.73438 1.4492 0.73438 2.5938z"/>
</symbol>
<symbol id="r" overflow="visible">
<path d="m7.8594-6.6719c0.34375-0.61328 0.75-1.0664 1.2188-1.3594 0.47656-0.28906 1.0352-0.4375 1.6719-0.4375 0.86328 0 1.5312 0.30469 2 0.90625 0.46875 0.60547 0.70312 1.4648 0.70312 2.5781v4.9844h-1.375v-4.9375c0-0.78906-0.14062-1.3789-0.42188-1.7656-0.28125-0.38281-0.71094-0.57812-1.2812-0.57812-0.71094 0-1.2656 0.23438-1.6719 0.70312s-0.60938 1.1055-0.60938 1.9062v4.6719h-1.3594v-4.9375c0-0.80078-0.14062-1.3906-0.42188-1.7656-0.28125-0.38281-0.71875-0.57812-1.3125-0.57812-0.6875 0-1.2422 0.23438-1.6562 0.70312-0.40625 0.46875-0.60938 1.1055-0.60938 1.9062v4.6719h-1.3594v-8.2656h1.3594v1.2812c0.3125-0.5 0.67969-0.86719 1.1094-1.1094 0.4375-0.25 0.95703-0.375 1.5625-0.375 0.59375 0 1.0977 0.15625 1.5156 0.46875 0.42578 0.30469 0.73828 0.74609 0.9375 1.3281z"/>
</symbol>
<symbol id="i" overflow="visible">
<path d="m7.375-7.9531v1.2812c-0.38672-0.21875-0.77344-0.37891-1.1562-0.48438-0.38672-0.10156-0.77734-0.15625-1.1719-0.15625-0.875 0-1.5586 0.28125-2.0469 0.84375-0.49219 0.55469-0.73438 1.3359-0.73438 2.3438 0 1.0117 0.24219 1.7969 0.73438 2.3594 0.48828 0.55469 1.1719 0.82812 2.0469 0.82812 0.39453 0 0.78516-0.050781 1.1719-0.15625 0.38281-0.10156 0.76953-0.26562 1.1562-0.48438v1.2656c-0.375 0.17969-0.76562 0.30859-1.1719 0.39062-0.40625 0.09375-0.83984 0.14062-1.2969 0.14062-1.25 0-2.2461-0.39062-2.9844-1.1719-0.73047-0.78125-1.0938-1.8359-1.0938-3.1719 0-1.3438 0.36719-2.3984 1.1094-3.1719 0.75-0.78125 1.7695-1.1719 3.0625-1.1719 0.41406 0 0.82031 0.046875 1.2188 0.14062 0.39453 0.085937 0.78125 0.21094 1.1562 0.375z"/>
</symbol>
<symbol id="af" overflow="visible">
<path d="m1.4844-11.016h1.4844v9.7656h5.375v1.25h-6.8594z"/>
</symbol>
<symbol id="t" overflow="visible">
<path d="m2.9688-9.7969v4.1406h1.8906c0.6875 0 1.2188-0.17578 1.5938-0.53125 0.38281-0.36328 0.57812-0.875 0.57812-1.5312 0-0.66406-0.19531-1.1758-0.57812-1.5312-0.375-0.36328-0.90625-0.54688-1.5938-0.54688zm-1.4844-1.2188h3.375c1.2266 0 2.1602 0.28125 2.7969 0.84375 0.63281 0.55469 0.95312 1.3711 0.95312 2.4531 0 1.0859-0.32031 1.9062-0.95312 2.4688-0.63672 0.55469-1.5703 0.82812-2.7969 0.82812h-1.8906v4.4219h-1.4844z"/>
</symbol>
<symbol id="q" overflow="visible">
<path d="m2.7344-1.2344v4.375h-1.3594v-11.406h1.3594v1.25c0.28906-0.48828 0.64844-0.85156 1.0781-1.0938 0.4375-0.23828 0.96094-0.35938 1.5781-0.35938 1 0 1.8125 0.40234 2.4375 1.2031 0.63281 0.79297 0.95312 1.8398 0.95312 3.1406 0 1.3047-0.32031 2.3555-0.95312 3.1562-0.625 0.79297-1.4375 1.1875-2.4375 1.1875-0.61719 0-1.1406-0.12109-1.5781-0.35938-0.42969-0.23828-0.78906-0.60156-1.0781-1.0938zm4.625-2.8906c0-1-0.21094-1.7812-0.625-2.3438-0.40625-0.57031-0.96875-0.85938-1.6875-0.85938s-1.2891 0.28906-1.7031 0.85938c-0.40625 0.5625-0.60938 1.3438-0.60938 2.3438s0.20312 1.7891 0.60938 2.3594c0.41406 0.5625 0.98438 0.84375 1.7031 0.84375s1.2812-0.28125 1.6875-0.84375c0.41406-0.57031 0.625-1.3594 0.625-2.3594z"/>
</symbol>
<symbol id="ae" overflow="visible">
<path d="m1.4844-11.016h1.4844v11.016h-1.4844z"/>
</symbol>
<symbol id="ad" overflow="visible">
<path d="m5.1719-9.5469-2.0312 5.4844h4.0625zm-0.84375-1.4688h1.6875l4.2031 11.016h-1.5469l-1-2.8281h-4.9688l-1.0156 2.8281h-1.5625z"/>
</symbol>
<symbol id="j" overflow="visible">
<path d="m2.7656-10.609v2.3438h2.7969v1.0625h-2.7969v4.4844c0 0.66797 0.09375 1.1016 0.28125 1.2969 0.1875 0.1875 0.5625 0.28125 1.125 0.28125h1.3906v1.1406h-1.3906c-1.0547 0-1.7773-0.19141-2.1719-0.57812-0.39844-0.39453-0.59375-1.1094-0.59375-2.1406v-4.4844h-1v-1.0625h1v-2.3438z"/>
</symbol>
<symbol id="s" overflow="visible">
<path d="m4.8594 0.76562c-0.375 0.98828-0.74609 1.6289-1.1094 1.9219-0.36719 0.30078-0.85547 0.45312-1.4688 0.45312h-1.0781v-1.1406h0.79688c0.375 0 0.66016-0.089844 0.85938-0.26562 0.20703-0.17969 0.4375-0.59375 0.6875-1.25l0.25-0.60938-3.3438-8.1406h1.4375l2.5781 6.4688 2.5938-6.4688h1.4375z"/>
</symbol>
<symbol id="p" overflow="visible">
<path d="m6.875-7.0156v-4.4688h1.3594v11.484h-1.3594v-1.2344c-0.29297 0.49219-0.65625 0.85547-1.0938 1.0938-0.4375 0.23828-0.96094 0.35938-1.5625 0.35938-1 0-1.8203-0.39453-2.4531-1.1875-0.625-0.80078-0.9375-1.8516-0.9375-3.1562 0-1.3008 0.3125-2.3477 0.9375-3.1406 0.63281-0.80078 1.4531-1.2031 2.4531-1.2031 0.60156 0 1.125 0.12109 1.5625 0.35938 0.4375 0.24219 0.80078 0.60547 1.0938 1.0938zm-4.6406 2.8906c0 1 0.20312 1.7891 0.60938 2.3594 0.41406 0.5625 0.98438 0.84375 1.7031 0.84375s1.2852-0.28125 1.7031-0.84375c0.41406-0.57031 0.625-1.3594 0.625-2.3594s-0.21094-1.7812-0.625-2.3438c-0.41797-0.57031-0.98438-0.85938-1.7031-0.85938s-1.2891 0.28906-1.7031 0.85938c-0.40625 0.5625-0.60938 1.3438-0.60938 2.3438z"/>
</symbol>
<symbol id="ac" overflow="visible">
<path d="m8.0938-10.656v1.4531c-0.5625-0.26953-1.1016-0.46875-1.6094-0.59375-0.5-0.13281-0.98438-0.20312-1.4531-0.20312-0.8125 0-1.4375 0.15625-1.875 0.46875s-0.65625 0.76172-0.65625 1.3438c0 0.49219 0.14453 0.85938 0.4375 1.1094 0.28906 0.24219 0.84375 0.4375 1.6562 0.59375l0.90625 0.1875c1.1133 0.21094 1.9375 0.58594 2.4688 1.125 0.53125 0.53125 0.79688 1.2422 0.79688 2.125 0 1.0742-0.35938 1.8867-1.0781 2.4375-0.71875 0.55469-1.7734 0.82812-3.1562 0.82812-0.52344 0-1.0781-0.0625-1.6719-0.1875-0.58594-0.11328-1.1875-0.28516-1.8125-0.51562v-1.5312c0.60156 0.33594 1.1914 0.58984 1.7656 0.76562 0.58203 0.16797 1.1562 0.25 1.7188 0.25 0.85156 0 1.5078-0.16406 1.9688-0.5 0.46875-0.33203 0.70312-0.80469 0.70312-1.4219 0-0.53906-0.16797-0.96094-0.5-1.2656-0.33594-0.3125-0.88281-0.54688-1.6406-0.70312l-0.90625-0.17188c-1.1172-0.21875-1.9219-0.5625-2.4219-1.0312-0.49219-0.47656-0.73438-1.1406-0.73438-1.9844 0-0.96875 0.34375-1.7344 1.0312-2.2969s1.6289-0.84375 2.8281-0.84375c0.51953 0 1.0469 0.046875 1.5781 0.14062 0.53906 0.09375 1.0938 0.23438 1.6562 0.42188z"/>
</symbol>
<symbol id="ab" overflow="visible">
<path d="m6.7188-5.1719c0.3125 0.11719 0.61719 0.35156 0.92188 0.70312 0.3125 0.35547 0.61719 0.83984 0.92188 1.4531l1.5156 3.0156h-1.6094l-1.4062-2.8281c-0.36719-0.73828-0.71875-1.2266-1.0625-1.4688-0.34375-0.23828-0.8125-0.35938-1.4062-0.35938h-1.625v4.6562h-1.4844v-11.016h3.375c1.2578 0 2.1953 0.26562 2.8125 0.79688 0.625 0.52344 0.9375 1.3125 0.9375 2.375 0 0.69922-0.16406 1.2773-0.48438 1.7344-0.32422 0.44922-0.79297 0.76172-1.4062 0.9375zm-3.75-4.625v3.9219h1.8906c0.71875 0 1.2578-0.16406 1.625-0.5 0.36328-0.33203 0.54688-0.82031 0.54688-1.4688 0-0.64453-0.18359-1.1289-0.54688-1.4531-0.36719-0.33203-0.90625-0.5-1.625-0.5z"/>
</symbol>
<symbol id="aa" overflow="visible">
<path d="m1.4844-11.016h2.2188l2.8125 7.5 2.8281-7.5h2.2344v11.016h-1.4531v-9.6719l-2.8438 7.5469h-1.5l-2.8438-7.5469v9.6719h-1.4531z"/>
</symbol>
<symbol id="z" overflow="visible">
<path d="m1.4844-11.016h6.3438v1.25h-4.8594v3.25h4.375v1.25h-4.375v5.2656h-1.4844z"/>
</symbol>
<symbol id="y" overflow="visible">
<path d="m1.375-11.484h1.3594v6.7812l4.0625-3.5625h1.7344l-4.3906 3.875 4.5781 4.3906h-1.7812l-4.2031-4.0312v4.0312h-1.3594z"/>
</symbol>
<symbol id="x" overflow="visible">
<path d="m2.9688-5.2656v4.0469h2.4062c0.80078 0 1.3945-0.16406 1.7812-0.5 0.38281-0.33203 0.57812-0.84375 0.57812-1.5312s-0.19531-1.1914-0.57812-1.5156c-0.38672-0.33203-0.98047-0.5-1.7812-0.5zm0-4.5312v3.3281h2.2188c0.72656 0 1.2695-0.13281 1.625-0.40625 0.35156-0.28125 0.53125-0.69531 0.53125-1.25 0-0.5625-0.17969-0.97656-0.53125-1.25-0.35547-0.28125-0.89844-0.42188-1.625-0.42188zm-1.4844-1.2188h3.8125c1.1328 0 2.0078 0.24219 2.625 0.71875 0.61328 0.46875 0.92188 1.1367 0.92188 2 0 0.67969-0.15625 1.2148-0.46875 1.6094-0.3125 0.39844-0.77734 0.64844-1.3906 0.75 0.73828 0.15625 1.3125 0.48438 1.7188 0.98438s0.60938 1.125 0.60938 1.875c0 0.98047-0.33984 1.7422-1.0156 2.2812-0.66797 0.53125-1.6211 0.79688-2.8594 0.79688h-3.9531z"/>
</symbol>
<symbol id="w" overflow="visible">
<path d="m5.9531-10c-1.0859 0-1.9453 0.40625-2.5781 1.2188-0.63672 0.80469-0.95312 1.8984-0.95312 3.2812 0 1.3867 0.31641 2.4844 0.95312 3.2969 0.63281 0.80469 1.4922 1.2031 2.5781 1.2031 1.082 0 1.9414-0.39844 2.5781-1.2031 0.63281-0.8125 0.95312-1.9102 0.95312-3.2969 0-1.3828-0.32031-2.4766-0.95312-3.2812-0.63672-0.8125-1.4961-1.2188-2.5781-1.2188zm0-1.2188c1.5508 0 2.7891 0.52344 3.7188 1.5625 0.92578 1.0312 1.3906 2.418 1.3906 4.1562 0 1.7422-0.46484 3.1328-1.3906 4.1719-0.92969 1.0312-2.168 1.5469-3.7188 1.5469-1.543 0-2.7812-0.51562-3.7188-1.5469-0.92969-1.0391-1.3906-2.4297-1.3906-4.1719 0-1.7383 0.46094-3.125 1.3906-4.1562 0.9375-1.0391 2.1758-1.5625 3.7188-1.5625z"/>
</symbol>
<symbol id="v" overflow="visible">
<path d="m0.45312-8.2656h1.4375l2.5781 6.9375 2.5938-6.9375h1.4375l-3.0938 8.2656h-1.8594z"/>
</symbol>
</defs>
<path d="m288.43 63.266c-6.0312 6.4141-59 28.852-59 103.96 0 74.648 52.109 98.008 54.695 101.21 0 0.45703 0 0.45703 0.42969 0.45703" fill="#f5fafc" fill-rule="evenodd"/>
<path d="m283.55 248.77c-16.734-16.957-38.613-41.246-38.613-81.574 0-40.332 21.449-65.082 38.613-82.496" fill="#efeff8" fill-rule="evenodd"/>
<path d="m507.59 258.3c16.336-25.652 24.938-56.801 24.938-81.992 0-6.8711 0-13.285-0.85938-20.156-0.42969-5.4961 2.5781-12.367 1.7188-17.863-1.2891-5.957-6.0234-10.535-7.7422-16.488-2.1484-7.7891-5.1562-15.578-8.5938-23.359-21.5-41.688-65.785-74.664-108.78-74.664-34.398 0-77.391 15.57-101.47 41.223l-0.42969 0.45703c-3.0078 3.2109-3.4375 5.4961-4.7266 10.535-1.7188 5.957 0 7.332-2.1484 9.1641-2.5781 1.8281-4.7266 0.91797-4.2969 2.7461 0.85938 2.293 2.5781 1.375 0.85938 5.4961-1.2891 4.125-3.0156 4.125-3.875 5.043-1.7188 2.7461 3.4453 5.0352 0 7.3242-3.0078 2.293-2.5781-3.2031-6.875-3.6641-2.5781-0.45703-5.1641 4.1211-5.5859 10.535-0.4375 3.668-0.4375 9.6211-0.4375 11.914 0 2.2852-0.42578 5.4961-0.42578 9.1562-0.43359 4.125-1.293 8.707-2.1523 11.453l0.85938 0.45703c3.4453-17.406 11.18-29.312 19.781-29.312 12.469 0 22.355 22.902 22.355 50.844v-0.45703 0.45703c0 27.941-9.8867 50.84-22.355 50.84-9.0312 0-16.766-12.367-20.211-30.23l-0.42969 0.91797c1.2891 2.75 1.7188 6.8711 2.1523 11.449 0 3.668 0.42578 6.8711 0.42578 9.1641 0 2.293 0 8.2461 0.4375 11.91 0.42188 6.4102 3.0078 10.992 5.5859 10.531 4.2969-0.45703 4.7266-7.3281 7.7344-5.0352 3.4453 2.2891-0.85938 5.9531 1.2969 8.7031 0.85938 0.91797 2.1484 0.45312 3.4375 4.5781 1.2891 4.1211-0.42969 3.207-0.85938 5.4961-0.85938 1.8359 0 1.375 2.5781 3.2109 2.1484 1.8281 0.42969 3.2031 2.1484 9.1602 1.2891 5.0352 1.7188 6.8711 4.2969 10.074 24.941 25.191 69.652 43.516 102.33 43.516 35.254 0 76.531-20.609 99.32-53.133" fill="#efc2a3" fill-rule="evenodd"/>
<path d="m299.06 80.609c-9.4414 9.625-17.16 16.5-21.449 29.789-3.8594 13.293-3 26.582-3.4297 40.328-1.293 23.828-3.0039 47.66 3.4297 71.031 2.1445 7.332 7.293 12.832 9.8633 20.168 1.2852 4.582 2.1445 6.4141 4.7188 9.6211 2.1445 2.75 3.0039 6.8711 6.0078 4.5781 2.1406-1.3711 3-0.45312 3-2.7461 0-5.957-0.42969-15.121 0.85547-21.078 3.0039-11.457 6.4375-25.207 7.2969-37.582 0.85938-16.953-2.1484-32.992-2.1484-49.949 0-5.957 1.2891-12.836-0.42578-18.789-1.7188-6.875-6.0078-8.25-6.4375-15.582-0.42969-5.0391 0.42969-23.371 0.42969-27.953-0.42969-4.5859-3.4297 0.91797-2.5703-3.668" fill="#d4ab9c" fill-rule="evenodd"/>
<path d="m279.27 214.35c0.86328-5.9805 3.8789 0 6.0312 2.2969 3.0156 2.7578 5.5977 5.5156 9.9023 5.9805 5.168 0.91797 10.336-3.6836 11.629-9.6602-2.582-0.92188-6.0312 1.8359-8.6094 1.3828-4.7383-0.46484-9.0469-4.1445-11.633-8.2852-2.1523-2.7578-3.4414-5.5156-5.168-9.1953-0.85938-0.92188-1.2891-1.8398-2.1523-2.7578" fill="#cc9c91" fill-rule="evenodd"/>
<path d="m271.99 139.2c-8.6172 11.453-13.355 45.809 0.86328 54.516 17.223 10.535 11.195-46.27 5.168-54.516" fill="#d4ab9c" fill-rule="evenodd"/>
<path d="m275.52 153.95c-4.7148 2.7422-4.293 5.9453-6.4375 10.977-1.2891-1.832 0.42969-7.7734 0.85938-10.059 0.42969-1.375 0.86328-4.1172 2.1445-5.4922 1.2891-1.375 3.8633-1.375 4.293-3.6602" fill="#cc9c91" fill-rule="evenodd"/>
<path d="m260.04 201.04c0.42188 2.293 2.1328 10.086 3.8359 17.422 0.85156 4.5859 2.1328 8.7109 5.1172 11.922 0.85547 1.375 2.9883 4.1289 4.2734 3.668 4.2656-0.91406-4.2734-15.59-4.6953-16.965" fill="#efeff8" fill-rule="evenodd"/>
<path d="m261.24 114.02c-1.7344 3.6719-1.7344 7.7969-1.7344 11.477 0 5.5-0.86328 10.551 0 15.598 0.87109-6.8828 3.043-15.141 5.207-22.027 1.3047-4.5859 4.7773-8.2578 5.6445-12.848" fill="#efeff8" fill-rule="evenodd"/>
<path d="m616.27 229.39c-2.5781-0.91406-5.5859-2.293-8.1641-3.2031-16.336-7.3398-36.973-11.469-50.297-10.086-11.602 0-21.062 9.168-23.215 18.789-18.91 57.758-69.633 89.848-127.66 89.848-47.715 0-94.141-30.254-121.65-73.801l-0.42969 0.45312c0.42969 2.293-5.5898-0.45312 1.2891 11.461 2.1523 3.668 0.42969 9.168-2.1484 5.5039 27.508 42.172 71.785 69.215 122.07 69.215 65.34 0 119.07-32.086 140.14-96.719 4.2969-15.129 16.758-12.375 30.512-11 10.75 1.375 24.934 6.4141 39.551 13.289z" fill="#eef5fa" fill-rule="evenodd"/>
<path d="m616.27 174.08c-15.473-4.5859-27.93-7.332-34.375-8.2461-14.18-2.75-19.336-12.828-21.055-22.91-15.469-74.668-68.746-141.55-154.68-142.47-47.695-0.91797-90.234 24.277-118.16 63.215 0-0.45703 0.42578-0.45703 0.42578-0.45703 0.85937-0.91797 2.5781 0 1.7188 3.668-0.42969 3.6641-4.293 3.6641-5.1523 8.6992-0.85938 4.125 0.42969 6.4141-0.42969 8.25v0.45703c27.496-43.52 74.332-73.293 122.46-73.293 71.324 0 125.46 64.133 140.07 133.77 0.85938 7.7891 7.3086 20.156 16.328 25.652 2.1484 0.91797 16.758 5.957 25.352 7.7891 5.1562 0.91797 15.039 3.6641 27.5 8.2461z" fill="#eef5fa" fill-rule="evenodd"/>
<path d="m278.52 236.35h-1.2891c2.582 5.0352 5.1602 10.07 8.168 15.109v-0.46094c0.42969 0.46094 0.42969 0.91797 0.85938 1.375 1.2852 1.832 2.5742 4.1211 3.8633 5.9531 0.42969 0.91797 1.2891 1.8281 1.7188 2.2852 0.42969 0.91797 0.85937 1.375 1.2891 1.8359 0.85938 0.91406 1.7188 1.832 2.1484 2.7422 0.85937 0.91797 1.2891 1.375 1.7188 2.293 0.42969 0.45703 0.85937 0.91406 1.2891 1.375 1.2891 1.375 2.5781 3.2031 3.8672 4.5781 0.42969 0.45703 0.85547 0.91406 1.7148 1.3672v0.46484c0.4375 0.45312 0.85938 0.91016 1.7188 1.8281 6.4492 6.8672 13.75 13.273 21.484 19.227 0.42969 0.45703 0.85938 0.45703 0.85938 0.91797 1.7188 0.91406 3.4375 2.2891 5.1562 3.6602 0.43359 0 0.86328 0.45703 1.2852 0.45703 5.1562 3.668 10.746 6.8711 15.902 9.6133 0.85938 0.45703 2.1445 0.91797 3.0039 1.375 1.2891 0.45703 2.5781 0.91797 3.8672 1.832l3.8672 1.3711c1.2891 0.45703 2.1484 0.91797 3.4414 1.375 1.7109 0.45703 3.4297 1.375 4.7188 1.832 0.86328 0 2.1523 0.45703 3.0117 0.91797 2.5781 0.45703 5.1562 1.3672 7.3047 1.8281 0.85938 0.45703 2.1484 0.45703 3.0039 0.45703 1.7188 0.45703 3.4375 0.91797 5.1562 1.375 0.85938 0 2.1484 0 3.0078 0.45703 1.7188 0 3.8711 0.45312 5.5898 0.45312 0.85937 0 1.7188 0 2.5703 0.46484h8.168c58 0 108.7-32.047 127.6-89.734 1.2891-5.9492 5.1602-11.441 10.312-14.648-11.172-5.9492-24.059 32.508-32.227 44.41-24.484 34.793-68.309 53.562-105.69 53.562-36.09 0-71.324-18.316-97.098-46.238l-2.582-2.293c-3.8594-4.1133-3.8594-5.9492-5.582-11.898-1.7188-5.9531 0-7.3281-2.1484-9.1562-2.5781-1.832-3.4375-1.375-2.5781-3.207 0.42969-2.2891 2.1484-1.3711 0.85937-5.4961-1.2891-4.1172-2.5781-3.6602-3.4375-4.5703-2.1484-2.75 2.1484-6.4141-1.2891-8.7031-3.0078-2.2852-3.4375 4.5781-7.7305 5.0352-2.5781 0.46094-5.1562-4.1172-5.5859-10.527-0.43359-3.6641-0.43359-9.6172-0.43359-11.902 0-2.2891-0.42969-5.4922-0.42969-9.1523-0.42969-5.4961-1.7188-11.449-3.4375-12.824-3.4375-1.832-3.0078 1.375-4.2969 7.7812-0.85547 6.8672 1.2891 7.7852 1.7188 9.6133 0.42969 1.832-1.2852 1.832-0.42969 3.6641 0.42969 2.2891 1.7188 2.7461 2.5781 5.0391 0.42969 1.8281-1.7188 1.375-1.2891 4.1172 0.42969 2.293 2.1484 2.293 2.5781 4.5781 0.42969 2.293-0.42969 3.2031 0 5.9531 0.42969 2.7461 2.5781 2.7461 3.4414 5.0352 0.85938 2.293 0.85938 3.2031-1.293 3.2031" fill="#a31e47" fill-rule="evenodd"/>
<path d="m559.09 167.21c-1.2891-1.3711-2.5781-2.7461-3.8672-4.1211 0-0.45703-0.42969-0.45703-0.42969-0.91016-1.2891-1.375-2.1484-3.2109-3.4375-5.043 0-0.45703-0.42969-0.91016-0.85937-1.375 0-0.45312-0.42969-1.3711-0.42969-1.8281-0.42969-0.45703-0.85938-0.91797-0.85938-1.832-0.42969-0.45703-0.42969-0.91797-0.85938-1.3711v-0.45703c-0.86328-1.8359-1.293-3.668-1.293-5.4961-0.42969-1.832-1.2891-4.125-1.7188-5.9531v-0.91797c-16.754-66.852-69.602-126.83-138.35-126.83h-9.0195c-0.85938 0-2.1484 0.46094-3.0078 0.46094-2.1484 0-3.8672 0.45703-6.0156 0.91016-0.85938 0-2.1523 0-3.4414 0.46094-0.85938 0-1.7188 0.45703-2.5781 0.45703s-1.7188 0.45703-2.5781 0.45703c-1.2852 0.45703-2.5742 0.91797-3.8633 0.91797-0.42969 0.45703-0.85938 0.45703-1.2891 0.45703-0.42969 0-0.85938 0-1.2891 0.45703-0.42969 0-1.2891 0.46094-2.1484 0.46094-1.2891 0.45703-2.5781 0.91016-3.8672 1.375-0.42969 0-1.2891 0.45312-2.1484 0.45312-0.42969 0.45703-1.2891 0.45703-1.7188 0.91797h-0.86328c-1.2812 0.45703-2.5703 1.3711-3.8594 1.832h-0.42969c-1.2891 0.91406-3.0117 1.375-4.3008 1.832-1.2891 0.45312-2.5781 1.3711-3.4375 1.8281h-0.42969c-0.42969 0.45703-0.85938 0.45703-1.2891 0.91797-0.42969 0-1.2891 0.45703-1.7188 0.91406-0.42969 0-0.85938 0-1.2891 0.46094-1.2891 0.45703-2.1484 1.375-3.4336 1.8281-1.2891 0.91797-2.5781 1.375-3.4375 2.2891-0.42969 0-0.85938 0-0.85938 0.46094-1.2891 0.45703-2.5781 1.375-3.8672 2.2852-0.42969 0-0.42969 0.46484-0.85938 0.46484-0.42969 0.45313-0.86328 0.45313-1.293 0.91016 0 0-0.42969 0-0.85938 0.45703 0 0-0.42969 0.46094-0.85938 0.91797-1.2891 0.45703-2.5781 1.375-3.8672 2.293-0.85938 0.91016-2.1445 1.8281-3.0039 2.7422h-0.42969l-0.42969 0.46094c-1.2891 0.91406-2.1484 1.832-3.4375 2.75-1.2891 0.91016-2.5781 1.8281-3.8672 3.2031-0.85938 0.91406-2.1484 1.832-3.0078 2.7461l-0.42969 0.45703c-1.2891 0.91406-2.1484 1.832-3.0117 2.75h-0.42188c-0.85938 1.375-2.1484 2.2852-3.0078 3.6602-0.85938 0.91797-2.1484 1.832-3.0117 3.2031h-0.42969c-0.85938 1.375-2.1484 2.293-3.0078 3.668-0.42969 0.91016-1.2891 1.375-1.7188 1.8281-0.42969 0.91406-0.85937 1.375-1.2891 1.832-1.2891 1.375-2.1484 2.293-3.0078 3.668-0.42969 0.91016-0.85938 1.3672-1.2891 1.8281-0.42969 0.91406-1.2852 1.375-1.7188 1.832-0.85938 1.3711-1.7148 2.7461-2.5742 4.1211-1.2891 1.832-2.1484 3.2031-3.4375 5.0352-2.5781 4.1211-5.1602 8.6992-7.3086 13.281h1.2891c2.1523 0 2.1523 0.91016 1.293 3.2031-0.86328 2.293-3.0117 2.7461-3.4414 5.0352-0.42969 2.7461 0.42969 2.293 0 4.1211-0.42969 2.293-2.1484 2.293-2.5781 5.0352-0.42969 2.293 1.7188 3.668 1.2891 5.4961-0.85938 2.293-2.1484 2.75-2.5781 5.0352-0.85938 1.832 0.85938 1.832 0.42969 3.668-0.42969 1.8281-2.5742 2.7422-1.7148 9.6133 1.2852 6.4062 0.85938 10.074 3.8633 8.2383 2.1484-1.3672 3.4375-7.7812 3.8672-13.273 0-3.668 0.42969-6.8711 0.42969-9.1562 0-2.293 0-8.2461 0.43359-11.906 0.42969-6.4102 3.0078-10.988 5.5859-10.531 4.293 0.45312 3.8672 5.9531 6.8711 3.6602 3.4375-2.2891-1.7188-4.5781 0-7.3281 0.85938-0.91016 2.5781-0.91016 3.8672-5.0352 1.7188-4.1211 0-3.2031-0.85937-5.4961-0.42969-1.8281 1.7188-0.91016 4.2969-2.7422 2.1484-1.8359 0.42969-3.2031 2.1484-9.1562 1.7227-5.4961 1.7227-7.3281 5.1602-10.996 0.85156-1.3711 1.7109-2.2852 1.7109-2.2852 26.215-27.477 61.445-45.328 98.395-45.328 45.547 0 92.379 31.133 115.58 76.461 12.887 25.641 18.043 74.637 38.668 75.094-0.42969-0.45703-0.85938-0.91797-1.7188-1.375z" fill="#a31e47" fill-rule="evenodd"/>
<path d="m278.51 236.41c2.1562 0 2.1562-0.91406 1.2969-3.2031-0.86719-2.2891-3.0195-2.2891-3.4492-5.0352-0.4375-2.75 0.42969-3.668 0-5.9531-0.4375-2.293-2.1602-2.293-2.5898-4.5859-0.4375-2.7461 1.7227-2.2852 1.293-4.1172-0.86328-2.2891-2.1602-2.7461-2.5898-5.0391-0.86328-1.832 0.85938-1.832 0.42969-3.6602-0.42969-1.8359-2.5898-2.75-1.7227-9.6211 1.293-5.4961 0.86328-8.6992 3.0195-8.2422-8.1992-4.5781-6.4766-33.43-0.86719-39.383-1.2891-0.91797-1.2891-4.125-2.1523-8.7031-0.86719-6.8711 1.293-7.7812 1.7227-9.6172 0.42969-1.832-1.293-1.832-0.42969-3.6602 0.42969-2.293 1.7266-2.75 2.5898-5.043 0.42969-1.8281-1.7305-3.2031-1.293-5.4961 0.42969-2.7422 2.1523-2.7422 2.5898-5.0352 0.42969-1.8281-0.4375-1.3711 0-4.1211 0.42969-2.293 2.582-2.7461 3.4492-5.0352 0.85938-2.293 0.85938-3.2109-1.2969-3.2109h-1.293c-6.4688 5.9531-21.141 27.48-21.141 70.527 0 49.457 22.434 68.234 22.434 68.234" fill="#7fb5de" fill-rule="evenodd"/>
<path d="m616.27 186.45c-12.461-4.582-22.348-7.3281-27.5-8.2461-8.5938-1.832-23.203-6.8711-25.352-7.7891-1.7188-0.91406-3.0078-2.2852-4.2969-3.2031l0.42969 0.45703c0.85937 0.46094 1.2891 0.91406 1.7188 1.3711-20.625-0.45703-25.781-49.469-38.676-75.113-23.203-45.348-70.039-76.496-115.59-76.496-36.957 0-72.188 17.863-98.398 45.348 0 0-0.42969 0.45703-1.2891 1.375h0.42969c24.492-25.191 66.602-40.309 100.55-40.309 42.969 0 87.227 32.98 108.71 74.66 3.4336 7.7891 6.4414 15.57 8.5898 23.359 1.7188 5.9531 6.4492 10.539 7.7383 16.488 0.85938 5.5-2.1484 12.367-1.7188 17.867 0.85938 6.8672 0.85938 13.281 0.85938 20.152 0 25.191-8.5977 56.34-24.922 81.988-22.773 32.523-64.023 53.133-99.262 53.133-31.367 0-73.906-16.945-99.258-40.305l0.85938 0.91016c25.781 27.945 61.012 46.266 97.109 46.266 37.383 0 81.215-18.781 105.71-53.59 8.1641-11.91 21.055-50.387 32.223-44.43 3.8672-2.7461 8.1641-4.1211 12.895-4.1211 13.316-1.375 33.945 2.7461 50.273 10.074 2.5781 0.91797 5.5859 2.293 8.1641 3.2031z" fill="#ffdf60" fill-rule="evenodd"/>
<path d="m528.23 189.16c-2.1523 22.004-9.8945 46.758-23.23 67.387-22.367 31.625-61.945 51.336-95.926 51.336 29.684-4.582 97.219-25.207 119.16-118.72" fill="#eba87f" fill-rule="evenodd"/>
<path d="m319.7 167.2c0-27.934-9.875-50.832-22.336-50.832-12.023 0-21.895 22.898-21.895 50.832v-0.46094c0 28.395 9.8711 51.289 21.895 51.289 12.461 0 22.336-22.895 22.336-51.289z" fill="#59739c" fill-rule="evenodd"/>
<path d="m319.7 167.2c0-27.934-9.875-50.832-22.336-50.832-12.023 0-21.895 22.898-21.895 50.832v-0.46094c0 28.395 9.8711 51.289 21.895 51.289 12.461 0 22.336-22.895 22.336-51.289z" fill="#e1c2ba" fill-rule="evenodd"/>
<path d="m297.37 134.75c8.1445 0 14.578 14.621 14.578 32.449 0 17.82-6.4336 32.441-14.578 32.441-7.7148 0-14.137-14.621-14.137-32.441 0-17.828 6.4219-32.449 14.137-32.449" fill="#e6ccc5" fill-rule="evenodd"/>
<path d="m297.42 146.54c5.1367 0 8.9922 9.1641 8.9922 20.613 0 11.449-3.8555 20.613-8.9922 20.613-4.7109 0-8.9961-9.1641-8.9961-20.613 0-11.449 4.2852-20.613 8.9961-20.613" fill="#e8d4cf" fill-rule="evenodd"/>
<path d="m297.79 140.52c-6.8984 0-12.5 11.926-12.5 26.613v-0.46094c0 14.68 5.6016 26.613 12.5 26.613-5.6016-0.46484-11.207-9.6367-11.207-25.695 0.42969-15.602 6.8945-25.695 12.066-25.234 5.6094 0.91016 7.7617 6.418 7.7617 6.418-1.7227-3.6719-4.7422-8.2539-8.6211-8.2539" fill="#e1c5bd" fill-rule="evenodd"/>
<path d="m297.39 146.05c-4.7461 0-8.6289 9.625-8.6289 21.09 0 11.461 3.8828 20.629 8.6289 20.629-3.4492 0-7.7695-7.3398-7.7695-20.172 0.43359-12.379 5.1797-20.633 8.6328-20.172 3.8828 0.45312 5.6094 5.5 5.6094 5.5-1.2969-3.2109-3.457-6.875-6.4727-6.875" fill="#e1c5bd" fill-rule="evenodd"/>
<path d="m297.33 152.89c-3.0078 0-6.0195 6.4297-6.0195 14.246v-0.46094c0 7.8086 3.0117 14.246 6.0195 14.246-2.5781 0-4.7266-5.0586-4.7266-13.785 0.42969-8.2734 3.0078-13.328 5.5859-12.871 2.5781 0 3.4375 2.7578 3.4375 2.7578-0.85938-1.8359-2.1484-4.1328-4.2969-4.1328" fill="#e6ccc5" fill-rule="evenodd"/>
<path d="m283.55 167.62c0 12.828 3.4492 24.281 8.1875 29.785-4.3086-5.0391-6.8906-15.121-6.8906-29.328 0-19.707 6.8906-32.535 12.926-32.078 5.6016 0.91797 9.0508 9.168 9.0508 9.168-1.7227-5.0391-5.1719-11-9.4805-11-7.3281 0-13.793 15.121-13.793 33.453" fill="#e1c5bd" fill-rule="evenodd"/>
<path d="m616.27 222.57c-21.043-10.535-45.52-17.406-67.414-8.7031 11.59-2.75 30.914-4.582 67.414 11.91z" fill="#d9a237" fill-rule="evenodd"/>
<path d="m264.79 159.82c-1.2773 2.7539-0.42188 10.094-0.42188 13.309 0.42188 2.7539 1.707 6.8789 2.9922 9.6328 0.85156 1.375 2.5664 6.4258 3.8438 7.3438 1.2852 0.45703 1.7148-2.2969 1.7148-3.6719-0.42969-0.46094-1.7148-0.91797-2.1367-1.3789-0.42969-1.375-1.2852-2.7461-1.7148-3.6641-0.85547-2.7617-1.2773-5.9727-1.2773-8.7227-0.42969-2.293 0-5.5039 0.42188-7.8008 0-1.375-0.42188-3.6719-0.85156-4.5898-0.85547 0.46094-1.2852-1.375-1.7109 0" fill="#008aca" fill-rule="evenodd"/>
<path d="m266 156.66c0.85938-1.3828 0.85938-5.0586 1.2812-6.8945 0.42969-1.8359 0.85938-3.6758 2.1445-5.0508 1.7148-2.2969 2.9961 0.91797 2.5664 2.7539 0 1.3789-1.2812 3.6758-1.7109 5.0508-0.42969 1.3789-0.85547 2.7578-1.2852 4.1406-0.42969 2.75-0.42969 5.9688-1.2852 8.2656-0.42969-1.3789-0.42969-3.2148-0.85156-4.5977-0.42969-1.3711-1.2852-2.2891-1.2852-4.1328" fill="#008aca" fill-rule="evenodd"/>
<path d="m533.39 138.29c-1.2891-5.9531-6.0234-10.535-7.7422-16.488-2.1484-7.7891-5.1602-15.578-8.6016-23.359-21.5-41.688-65.789-74.664-108.79-74.664-34.398 0-77.402 15.57-101.48 41.223l-0.42969 0.45703c-3.0117 3.2109-3.4414 5.4961-4.7305 10.535-0.85938 2.75-0.85938 4.5859-0.85938 5.957v5.5c-0.43359 7.3242-0.86328 19.234-0.43359 22.898 0 1.8359 0.43359 3.207 1.293 4.582v0.45703s0 0.45703 0.42969 0.45703c0 0.91797 0.42969 1.3711 0.85938 1.8359 9.457 5.4961 16.77 25.652 16.77 49.469v-0.45703 0.45703c0 20.609-5.1602 38.02-12.898 46.262-0.42969 1.375-0.85938 2.75-0.85938 3.668-1.293 5.4961-2.582 10.531-3.8711 15.113 0 1.375-0.42969 3.207-0.42969 4.5781-0.43359 0.45703-0.43359 0.45703-0.43359 0.91797v15.574c0 0.91797-0.42578 0.91797-0.42578 1.3711 0 0.91797 0.42578 1.8359 0.85938 3.2109 1.2891 5.0352 1.7188 6.8711 4.3008 10.074 24.938 25.191 69.66 43.516 102.34 43.516 35.258 0 76.539-20.609 99.328-53.133 16.344-25.652 24.945-56.801 24.945-81.992 0-6.8711 0-13.285-0.86328-20.156-0.42578-5.4961 2.582-12.367 1.7227-17.863m-6.0234 18.32c0.42969 6.4141 0.85937 12.828 0.85937 19.699 0 25.652-9.0312 55.422-24.078 79.242-21.5 29.777-60.633 50.844-95.891 50.844-32.25 0-75.68-18.32-98.902-41.68-1.7188-1.8359-2.1484-2.7461-3.0078-6.4141l-0.42969-1.832c-0.42969-2.2891-0.85938-3.207-0.85938-4.582s0-11.91 0.42969-16.035c1.7188-8.2422 2.5781-17.402 5.5859-20.148 7.7422-9.6211 13.332-27.027 13.332-48.555 0-25.191-7.3086-45.348-17.629-52.68-5.5938-9.1562-3.4414-19.238-2.582-27.938 0.86328-1.832 0.86328-3.207 0.86328-4.582 0-1.3711 0.42969-2.2891 0.85938-4.582l0.42969-1.832c1.2891-3.6641 1.2891-4.582 3.4375-6.8672-0.42969 0-0.42969 0-0.42969 0.45312 1.7188-1.8281 1.7188-2.2891 3.4414-3.6641 22.789-21.523 61.062-36.641 95.461-36.641 39.992 0 82.992 29.77 104.49 72.371 3.4375 6.4102 6.4453 14.199 8.6016 21.988 0.85938 3.6602 2.5781 6.4062 4.2969 8.6992 1.2891 2.75 2.5781 5.043 3.0078 7.332v1.375c0 1.832 0 4.1211-0.42969 6.4102-0.42969 2.7461-0.85937 5.0391-0.85937 7.7891z" fill="#eeb38f" fill-rule="evenodd"/>
<path d="m316.69 59.98c-10.746 9.1562-12.895 19.227-13.324 33.418v5.5c0 10.523 1.2891 13.73 6.8789 19.684 7.7344 9.6133 12.461 27.926 12.461 48.527 0 19.23-4.2969 38.004-11.602 47.617 7.7344-10.531 14.617-27.473 14.617-47.617v-0.45703c0-21.059-5.1641-40.289-13.328-50.359-4.7266-5.0352-6.0195-7.3281-6.0195-17.395v-5.5c0.42969-15.559 3.4414-23.344 12.035-30.668 7.7422-6.4102 47.723-34.34 91.57-34.34-44.707 0-85.555 25.18-93.289 31.59" fill="#f8decf" fill-rule="evenodd"/>
<path d="m261.77 87.508c-8.1797 6.8711-31.855 40.773-30.129 77.418 1.2891-11.91 8.1758-49.02 30.129-77.418" fill="#fff" fill-rule="evenodd"/>
<path d="m315.41 71.926c0-2.0508 1.6445-3.7109 3.6719-3.7109 2.0273 0 3.6719 1.6602 3.6719 3.7109s-1.6445 3.707-3.6719 3.707c-2.0273 0-3.6719-1.6562-3.6719-3.707" fill="#fff" fill-rule="evenodd"/>
<path d="m323.66 67.387c0-0.76953 0.64453-1.3984 1.4453-1.3984 0.79688 0 1.4453 0.62891 1.4453 1.3984 0 0.77344-0.64844 1.4023-1.4453 1.4023-0.80078 0-1.4453-0.62891-1.4453-1.4023" fill="#fff" fill-rule="evenodd"/>
<path d="m312.44 77.695c0-1.1406 0.84766-2.0625 1.8984-2.0625 1.0508 0 1.9023 0.92188 1.9023 2.0625 0 1.1367-0.85156 2.0586-1.9023 2.0586-1.0508 0-1.8984-0.92188-1.8984-2.0586" fill="#fff" fill-rule="evenodd"/>
<path transform="matrix(1.3753 0 0 1.3741 44.195 -8.5648)" d="m191.32 161.29c-1.2724 2.3282-5.4022 17.275-5.0812 26.582" fill="none" stroke="#fff" stroke-linecap="round" stroke-linejoin="round" stroke-miterlimit="10" stroke-width=".625"/>
<path transform="matrix(1.3753 0 0 1.3741 44.195 -8.5648)" d="m185.92 164.54c0 2.675-1.4997 15.72-1.4997 15.72" fill="none" stroke="#fff" stroke-linecap="round" stroke-linejoin="round" stroke-miterlimit="10" stroke-width=".625"/>
<path transform="matrix(1.3753 0 0 1.3741 44.195 -8.5648)" d="m182.2 164.9-0.66178 7.0187" fill="none" stroke="#fff" stroke-linecap="round" stroke-linejoin="round" stroke-miterlimit="10" stroke-width=".625"/>
<path transform="matrix(1.3753 0 0 1.3741 44.195 -8.5648)" d="m177.82 161.89c1.2582 2.3396 1.2582 10.021 1.2582 10.021" fill="none" stroke="#fff" stroke-linecap="round" stroke-linejoin="round" stroke-miterlimit="10" stroke-width=".625"/>
<path transform="matrix(1.3753 0 0 1.3741 44.195 -8.5648)" d="m177.82 81.915c1.2582 2.3367 0.94581 10.339 0.94581 11.34" fill="none" stroke="#fff" stroke-linecap="round" stroke-linejoin="round" stroke-miterlimit="10" stroke-width=".625"/>
<path transform="matrix(1.3753 0 0 1.3741 44.195 -8.5648)" d="m181.3 82.273 0.11645 9" fill="none" stroke="#fff" stroke-linecap="round" stroke-linejoin="round" stroke-miterlimit="10" stroke-width=".625"/>
<path transform="matrix(1.3753 0 0 1.3741 44.195 -8.5648)" d="m183.82 72.255v18.66" fill="none" stroke="#fff" stroke-linecap="round" stroke-linejoin="round" stroke-miterlimit="10" stroke-width=".625"/>
<path transform="matrix(1.3753 0 0 1.3741 44.195 -8.5648)" d="m186.87 66.496c-0.63054 3.3487-2.204 20.104 1.5763 25.798" fill="none" stroke="#fff" stroke-linecap="round" stroke-linejoin="round" stroke-miterlimit="10" stroke-width=".625"/>
<path transform="matrix(1.3753 0 0 1.3741 44.195 -8.5648)" d="m145.96 127.88c0-29.331 15.596-47.331 28.076-60.001" fill="none" stroke="#00515e" stroke-miterlimit="8" stroke-width=".625"/>
<path transform="matrix(1.3753 0 0 1.3741 44.195 -8.5648)" d="m174.04 187.27c-12.168-12.349-28.076-30.03-28.076-59.399" fill="none" stroke="#00515e" stroke-miterlimit="8" stroke-width=".625"/>
<path d="m264.27 163.07c-0.42969-3.2148 1.7305-11.031 4.75-12.41 0.43359 4.5938-1.7266 10.574-2.1562 15.168" fill="#008aca" fill-rule="evenodd"/>
<path d="m270.27 112.73c0 2.7383 0.41797 5.0156-0.41797 8.207-0.84375 2.7344 0 5.0156-0.84375 7.7461-0.83984 3.1953-1.2578 4.5625-0.83984 7.75 0 2.7344-0.84375 5.4688-0.41797 8.207-1.2617-2.2812-1.6836-5.9258-1.6836-8.207 0-2.7305 1.2578-4.5547 1.6836-6.8359 0-2.7344-1.2617-3.6445 0-6.8359 0.41797-2.2812 0.83984-5.0156 1.6758-7.293" fill="#b3cfe8" fill-rule="evenodd"/>
<path d="m262.16 135.57c0.43359 3.1836 2.1641 4.5469 3.4648 7.2773 0.43359 1.8203-0.42969 3.6406 0 5.918-2.1641-3.6406-3.8984-9.1016-4.7656-12.738" fill="#b3cfe8" fill-rule="evenodd"/>
<path d="m259.93 146.05c0.85937 2.2969 3.4375 2.7578 4.3008 4.1367 0.43359 1.8438-0.42969 2.7617-0.42969 4.6016-1.7227-1.8398-3.0117-7.3594-5.168-7.8203" fill="#b3cfe8" fill-rule="evenodd"/>
<path d="m259.2 153.96c0.42969 2.7109 3.0078 1.8086 3.4453 3.6133 0.85937 2.2539-1.7266 2.707-0.4375 4.9648-0.85938-1.8086-0.42969-3.6133-1.2891-5.4141-0.42969-1.3555-3.4375-1.3555-2.1484-3.1641" fill="#b3cfe8" fill-rule="evenodd"/>
<path d="m258.31 177.16c2.582-0.45703 3.0117-3.207 4.7305-3.6602 1.2891 1.3711 0 2.7461-1.7188 2.7461 0 0.91406-0.86328 1.375-1.7227 0.91406" fill="#b3cfe8" fill-rule="evenodd"/>
<path d="m257.48 174.08c1.2773-0.45703 0.85156-1.832 1.707-2.7461 0.85547-0.46094 1.7031 0.45703 2.5586-0.46094 0.85156-0.91016 0.42188-5.0273 0-5.9453-1.2812 0.91797 0 2.2852-0.42578 3.6602-0.42969 1.375-2.1328 0.91797-2.1328 3.2031" fill="#b3cfe8" fill-rule="evenodd"/>
<path d="m257.81 163.02c1.2773-0.48047 2.5586 0 2.5586 0.95312-0.85547 0.47656-2.1328 0.47656-2.5586 0.95703" fill="#b3cfe8" fill-rule="evenodd"/>
<path d="m258.63 186.93c1.2969-0.91797 3.4453-10.137 6.0312-5.9922-2.1562 0.92188-2.1562 3.6875-3.0156 5.5352-0.42969 1.8398-0.85938 3.6797-1.2891 5.9883" fill="#b3cfe8" fill-rule="evenodd"/>
<path d="m268.98 189.99c0 2.7578-1.2812 5.5234-1.2812 8.2891 0 2.3008 1.2812 5.0586 0.85156 7.3633 0 3.6797 1.2812 4.1445 1.7109 6.9062 0.42188 2.3047 0 5.0625 0 7.3672-1.7109-1.8438-1.2812-5.0625-2.1328-7.3672-0.85547-2.3008-2.5586-3.6797-2.5586-5.9844 0.42578-2.3008 0.42578-4.6055 0.42578-6.9062 0-3.2266 2.1328-4.6055 2.1328-6.9102" fill="#b3cfe8" fill-rule="evenodd"/>
<path d="m263.82 200.13c-1.7148-5.9531 6.8633-12.824 0.42969-16.492 0.42969 0.91797 1.2891 1.832 1.2891 3.207 0 0.46094-1.2891 1.3711-1.2891 2.2891 0 1.832 0.42969 3.207-0.42969 5.4961" fill="#b3cfe8" fill-rule="evenodd"/>
<path d="m260.04 183.18c0.84766-0.91797 4.6875-6.8711 4.6875-2.293 0.42578 2.293-3.4102 4.582-2.9844 7.7891 0.42188-2.293 1.7031-5.4961 1.2773-7.3281" fill="#3d9cd1" fill-rule="evenodd"/>
<path d="m263.84 189.58c0-0.90625 1.2891-7.2578 3.0039-5.4414 1.2891 1.8125-0.86328 5.8906-1.7148 7.2578 0.85156-1.3672 0.85156-3.1797 0-4.5391" fill="#3d9cd1" fill-rule="evenodd"/>
<path d="m261.25 165.83c0.88281 1.3906 3.0781 6.0156-0.87891 5.5547 1.7617-0.92188 1.3203-2.7734 0.87891-4.1641" fill="#3d9cd1" fill-rule="evenodd"/>
<path d="m261.66 162.2c1.8477-0.91406 1.8477-3.2031-0.46484-4.1211" fill="#3d9cd1" fill-rule="evenodd"/>
<path d="m263.51 155.36c1.1562-1.3789 1.1562-4.1367 0-5.5234" fill="#3d9cd1" fill-rule="evenodd"/>
<path d="m264.77 143.32c0.42578 2.7383 2.1172 4.1055 0.84375 6.8438-1.2656-0.45703-2.1094-2.2812-2.1094-3.6484" fill="#3d9cd1" fill-rule="evenodd"/>
<path d="m265.57 137.87c0 2.2852 0.42969 4.5781 2.1445 5.9531 2.1406-1.832 0.85938-5.4961 0.85938-8.2461 0 1.375 0 3.2031-0.85938 4.5781" fill="#3d9cd1" fill-rule="evenodd"/>
<path d="m257.81 179.55c1.3125-1.375 3.5039-1.832 5.2539-2.75 0.44141 2.293-2.625 2.75-4.3789 4.125" fill="#008aca" fill-rule="evenodd"/>
<path d="m265.57 197.41c1.7461-2.75 0.43359-6.4141 3.0508-8.2461 0 0.45703 0 1.375-0.43359 2.293" fill="#008aca" fill-rule="evenodd"/>
<path d="m258.63 153.43c0.4375 0.92188 2.1758 3.6914 3.4844 3.6914 1.2969 0.46094 3.0391 0 1.7344-1.8477-0.4375-0.46094-2.6055-0.46094-3.4766-0.92188-0.87109-0.92188-1.3047-2.3086-1.7422-3.6914" fill="#008aca" fill-rule="evenodd"/>
<path d="m265.5 132.28c-0.42578 1.8516-0.42578 4.6328-0.42578 6.4844 0.42578 2.3203 2.1445 4.6367 1.7148 6.4922-3.0039 0.46094-3.8633-9.2734-3.8633-11.586" fill="#008aca" fill-rule="evenodd"/>
<path d="m264.33 143.38c0.42969 1.3359 1.2812 2.6719 2.5586 1.7812 0-0.89062-0.42578-2.2266-0.84766-3.5664" fill="#0070ae" fill-rule="evenodd"/>
<path d="m260.86 156.19c0.86719 0.44531 3.4648 2.2266 3.4648 0 0-0.89062-3.0273-1.7852-3.4648-2.2305" fill="#0070ae" fill-rule="evenodd"/>
<path d="m259.54 178.09c1.3203 0 2.6445-0.46484 3.9648 0-0.88281 0.9375-1.7617 1.8711-2.6445 2.3359" fill="#0070ae" fill-rule="evenodd"/>
<path d="m266.39 191.89c1.3398-0.88672 0.89453-2.6562 2.2305-3.5469v2.2148" fill="#0070ae" fill-rule="evenodd"/>
<path d="m270.31 144.64c0.86719 2.7656-0.85938 5.5352-1.293 7.8359-0.85938 3.2344-1.7266 6.4648-2.1562 9.2305 0-2.7656-1.293-16.148 3.4492-16.605" fill="#0070ae" fill-rule="evenodd"/>
<path d="m266.89 180.55c0 1.832 0.84375 4.1211 2.1016 5.4961 0.84375 1.375 2.5234 2.2891 2.1055 0 0-0.91797-2.5273-3.6641-2.9453-5.0391-0.41797-1.832-0.83594-3.2031-0.83594-5.0391" fill="#0070ae" fill-rule="evenodd"/>
<path transform="matrix(1.3753 0 0 1.3741 44.195 -8.5648)" d="m160.92 96.498c0.93445 2.3396-0.30959 4.6791-0.61634 7.0215 0 2.0098 0.61634 4.6848 1.8575 6.3563" fill="none" stroke="#fff" stroke-linecap="round" stroke-linejoin="round" stroke-miterlimit="10" stroke-width=".25"/>
<path transform="matrix(1.3753 0 0 1.3741 44.195 -8.5648)" d="m156.94 110.9c0.30675 0.99779 0.92877 0.99779 1.5451 1.6658 0.31243 0.3326 0.31243 1.0006 0.62202 1.6658 0.30959 0.33544 1.5508 1.6687 1.2412 2.6665" fill="none" stroke="#fff" stroke-linecap="round" stroke-linejoin="round" stroke-miterlimit="10" stroke-width=".25"/>
<path transform="matrix(1.3753 0 0 1.3741 44.195 -8.5648)" d="m155.92 121.27c0.95433 0 6.6604-0.3326 3.4935-3.0019" fill="none" stroke="#fff" stroke-linecap="round" stroke-linejoin="round" stroke-miterlimit="10" stroke-width=".25"/>
<path transform="matrix(1.3753 0 0 1.3741 44.195 -8.5648)" d="m155.32 127.28c2.1671-1.9871 2.7891-0.65951 3.0987 1.3247 0.61918 2.9849-0.61918 2.3197-1.8604 4.3096" fill="none" stroke="#fff" stroke-linecap="round" stroke-linejoin="round" stroke-miterlimit="10" stroke-width=".25"/>
<path transform="matrix(1.3753 0 0 1.3741 44.195 -8.5648)" d="m155.92 138.86c0.94581-0.33544 2.2069-2.3452 3.1527-2.3452 1.8916 0.33544 1.2582 2.3452 0.63054 3.3544-0.63054 2.0155-2.5193 5.7082-1.8916 7.3825" fill="none" stroke="#fff" stroke-linecap="round" stroke-linejoin="round" stroke-miterlimit="10" stroke-width=".25"/>
<path transform="matrix(1.3753 0 0 1.3741 44.195 -8.5648)" d="m160.97 145.94c-0.30959-1.6488 0.62486-2.6409 2.1785-2.6409 0.92877 2.3111 0 2.9706 0 4.952 0 0.98927 0.30959 1.9757 0.30959 2.638 0 1.319 0 2.3111 0.31243 3.633" fill="none" stroke="#fff" stroke-linecap="round" stroke-linejoin="round" stroke-miterlimit="10" stroke-width=".25"/>
<path transform="matrix(1.3753 0 0 1.3741 44.195 -8.5648)" d="m156.58 124.52c0.95149-0.32407 2.2211-0.32407 2.2211-1.6203" fill="none" stroke="#fff" stroke-linecap="round" stroke-linejoin="round" stroke-miterlimit="10" stroke-width=".25"/>
<path transform="matrix(1.3753 0 0 1.3741 44.195 -8.5648)" d="m163.18 101.9c-0.35787 1.3474-0.35787 2.6949-0.35787 4.3778" fill="none" stroke="#fff" stroke-linecap="round" stroke-linejoin="round" stroke-miterlimit="10" stroke-width=".25"/>
<path d="m284.1 100.84c0-0.45312-0.42969-1.3672-0.42969-2.2852-1.2812 1.832-3 2.2852-3.4297 0 0 0.45703 0 1.375-0.42969 2.2852-0.86328 2.2812-3.0117 2.7383-3.4414 5.0195-0.42969 2.7383 0.42969 2.2812 0 4.1055-0.42969 2.2812-2.1484 2.2812-2.5781 5.0195-0.42969 2.2891 1.7188 3.6562 1.2891 5.4805-0.85938 2.2812-2.1484 2.7383-2.5781 5.0195-0.85547 1.8242 0.85938 1.8242 0.42969 3.6484-0.42969 1.8281-2.5742 2.7461-1.7188 9.5898 1.2891 6.3867 0.85937 10.043 3.8672 8.2109 2.1484-1.3672 3.4375-7.7578 3.8672-13.23 0-3.6562 0.42969-6.8516 0.42969-9.1328s0-8.2109 0.43359-11.867c0.42969-5.4727 2.5781-10.035 4.7188-10.492 0-0.45703 0-0.91406 0.42969-1.3711z" fill="#008aca" fill-rule="evenodd"/>
<path d="m272.48 208.44c0.42578 2.2891 1.7031 2.7461 2.5586 5.0391 0.42188 1.832-1.7109 1.375-1.2812 4.1211 0.42578 2.2891 2.1289 2.2891 2.5547 4.5781 0.42969 2.293-0.42578 3.207 0 5.9531 0.42969 2.75 2.5547 2.75 3.4102 5.043 0 0.45703 0.42578 0.91797 0.42578 0.91797s0.42188-0.46094 0.85156-0.91797c0.42578 0.45703 1.2734 1.3711 1.7031 1.8281-0.42969-1.3711 0.42578-2.2852 0.84766-3.2031-1.6992-1.375-3.4023-5.4961-3.8281-10.535-0.42969-3.6641-0.42969-9.6211-0.42969-11.906 0-2.293-0.42578-5.4961-0.42578-9.1641-0.42188-5.4961-1.7031-11.449-3.4062-12.824-3.4062-1.8359-2.9805 1.375-4.2578 7.7852-0.85156 6.8711 1.2773 7.7891 1.7031 9.6172 0.42188 1.8359-1.2812 1.8359-0.42578 3.668" fill="#008aca" fill-rule="evenodd"/>
<path transform="matrix(1.3753 0 0 1.3741 44.195 -8.5648)" d="m184.11 95.292c8.1118 0 14.349 14.666 14.349 32.66v-0.33544c0 17.997-6.2372 32.657-14.349 32.657-7.7965 0-14.034-14.66-14.034-32.657v0.33544c0-17.994 6.2372-32.66 14.034-32.66z" fill="none" stroke="#efdcd9" stroke-miterlimit="8" stroke-width=".25"/>
<path transform="matrix(1.3753 0 0 1.3741 44.195 -8.5648)" d="m184.09 99.497c6.8479 0 12.452 12.679 12.452 28.367v-0.33544c0 15.683-5.6038 28.367-12.452 28.367-6.5383 0-12.145-12.684-12.145-28.367v0.33544c0-15.689 5.6067-28.367 12.145-28.367z" fill="none" stroke="#efdcd9" stroke-miterlimit="8" stroke-width=".25"/>
<path transform="matrix(1.3753 0 0 1.3741 44.195 -8.5648)" d="m184.08 108.5c4.6836 0 8.7395 8.6873 8.7395 19.379s-4.0559 19.379-8.7395 19.379c-4.6779 0-8.4214-8.6873-8.4214-19.379s3.7435-19.379 8.4214-19.379z" fill="none" stroke="#efdcd9" stroke-miterlimit="8" stroke-width=".25"/>
<path transform="matrix(1.3753 0 0 1.3741 44.195 -8.5648)" d="m184.12 112.87c3.7349 0 6.5383 6.669 6.5383 15.001 0 7.9994-2.8033 15.001-6.5383 15.001-3.4254 0-6.5411-7.0016-6.5411-15.001 0-8.332 3.1158-15.001 6.5411-15.001z" fill="none" stroke="#efdcd9" stroke-miterlimit="8" stroke-width=".25"/>
<path transform="matrix(1.3753 0 0 1.3741 44.195 -8.5648)" d="m184.08 117.26c2.8346 0 4.7205 4.6677 4.7205 10.666 0 5.6655-1.8859 10.333-4.7205 10.333-2.5136 0-4.4024-4.6677-4.4024-10.333 0-5.9981 1.8888-10.666 4.4024-10.666z" fill="none" stroke="#efdcd9" stroke-miterlimit="8" stroke-width=".25"/>
<path transform="matrix(1.3753 0 0 1.3741 44.195 -8.5648)" d="m181.54 127.86c0-3.343 1.2724-6.3478 2.542-6.3478 1.5877 0 2.8601 3.0048 2.8601 6.3478 0 3.3402-1.2724 6.0123-2.8601 6.0123-1.2696 0-2.542-2.6722-2.542-6.0123z" fill="none" stroke="#efdcd9" stroke-miterlimit="8" stroke-width=".25"/>
<path transform="matrix(1.3753 0 0 1.3741 44.195 -8.5648)" d="m174.73 201.87c1.5849 1.6601 2.8516-1.6601 1.2696-4.3124-5.0784-8.6276-0.63906-6.6349-0.95433-8.2951l-0.95433-1.9927" fill="none" stroke="#575759" stroke-miterlimit="8" stroke-width=".25"/>
<path transform="matrix(1.3753 0 0 1.3741 44.195 -8.5648)" d="m177.58 52.274c-4.3854 4.6677-42.899 20.996-42.899 75.653 0 54.324 37.889 71.324 39.769 73.655 0 0.3326 0 0.3326 0.31243 0.3326" fill="none" stroke="#575759" stroke-miterlimit="8" stroke-width=".625"/>
<path transform="matrix(1.3753 0 0 1.3741 44.195 -8.5648)" d="m174.04 67.874c1.9087-1.3361 0-3.0076 0.95433-6.6861 0.63622-3.6756 3.4964-3.6756 3.8116-6.3506 0.63906-2.6722-0.63622-3.3402-1.2696-2.6722" fill="none" stroke="#575759" stroke-miterlimit="8" stroke-width=".25"/>
<path transform="matrix(1.3753 0 0 1.3741 44.195 -8.5648)" d="m174.46 201.54c19.993 30.679 52.173 50.35 88.727 50.35 47.489 0 86.54-23.339 101.85-70.354 3.1271-11.004 12.185-9.0057 22.18-8.0051 7.8136 1.0006 18.433 4.6677 28.746 9.6709" fill="none" stroke="#575759" stroke-miterlimit="8" stroke-width=".625"/>
<path transform="matrix(1.3753 0 0 1.3741 44.195 -8.5648)" d="m415.96 132.92c-11.253-3.3345-20.316-5.3329-25.006-6.001-10.313-2.0013-14.065-9.3355-15.315-16.667-11.253-54.344-50.011-103.02-112.52-103.69-34.694-0.66804-65.641 17.667-85.958 46.009" fill="none" stroke="#575759" stroke-miterlimit="8" stroke-width=".625"/>
<path transform="matrix(1.3753 0 0 1.3741 44.195 -8.5648)" d="m170.38 178.23h-0.93729c1.8774 3.6643 3.752 7.3285 5.939 10.996v-0.33544c0.31243 0.33544 0.31243 0.66804 0.62486 1.0006 0.93445 1.3332 1.8717 2.9991 2.809 4.3323 0.31243 0.66804 0.93729 1.3304 1.2497 1.663 0.31243 0.66804 0.62486 1.0006 0.93729 1.3361 0.62486 0.6652 1.2497 1.3332 1.5621 1.9956 0.62486 0.66804 0.93729 1.0006 1.2497 1.6687 0.31243 0.3326 0.62486 0.6652 0.93729 1.0006 0.93729 1.0006 1.8746 2.331 2.8119 3.3317 0.31243 0.3326 0.62202 0.6652 1.2469 0.99495v0.33828c0.31811 0.32976 0.62486 0.66235 1.2497 1.3304 4.6893 4.9975 9.9977 9.6596 15.621 13.992 0.31243 0.3326 0.62486 0.3326 0.62486 0.66804 1.2497 0.6652 2.4994 1.6658 3.7491 2.6636 0.31527 0 0.6277 0.3326 0.93445 0.3326 3.7491 2.6693 7.8136 5.0003 11.563 6.9959 0.62486 0.3326 1.5593 0.66804 2.1842 1.0006 0.93729 0.3326 1.8746 0.66804 2.8119 1.3332l2.8119 0.99779c0.93729 0.3326 1.5621 0.66804 2.5023 1.0006 1.244 0.3326 2.4938 1.0006 3.431 1.3332 0.6277 0 1.565 0.3326 2.1898 0.66804 1.8746 0.3326 3.7491 0.99495 5.3113 1.3304 0.62486 0.3326 1.5621 0.3326 2.1842 0.3326 1.2497 0.3326 2.4994 0.66804 3.7491 1.0006 0.62486 0 1.5621 0 2.187 0.3326 1.2497 0 2.8147 0.32976 4.0644 0.32976 0.62486 0 1.2497 0 1.8689 0.33828h5.939c42.172 0 79.036-23.322 92.78-65.303 0.93729-4.3295 3.752-8.3263 7.4983-10.66-8.1232-4.3295-17.493 23.657-23.432 32.319-17.803 25.32-49.668 38.979-76.846 38.979-26.241 0-51.86-13.33-70.6-33.649l-1.8774-1.6687c-2.8062-2.9934-2.8062-4.3295-4.0587-8.6589-1.2497-4.3323 0-5.3329-1.5621-6.6633-1.8746-1.3332-2.4994-1.0006-1.8746-2.3339 0.31243-1.6658 1.5621-0.99779 0.62486-3.9997-0.93729-2.9962-1.8746-2.6636-2.4994-3.326-1.5621-2.0013 1.5621-4.6677-0.93729-6.3336-2.187-1.663-2.4994 3.3317-5.6209 3.6643-1.8746 0.33544-3.7491-2.9962-4.0616-7.6611-0.31527-2.6665-0.31527-6.9988-0.31527-8.6618 0-1.6658-0.31243-3.9969-0.31243-6.6605-0.31243-3.9997-1.2497-8.332-2.4994-9.3326-2.4994-1.3332-2.187 1.0006-3.1243 5.6627-0.62202 4.9975 0.93729 5.6655 1.2497 6.9959 0.31243 1.3332-0.93445 1.3332-0.31243 2.6665 0.31243 1.6658 1.2497 1.9984 1.8746 3.6671 0.31243 1.3304-1.2497 1.0006-0.93729 2.9962 0.31243 1.6687 1.5621 1.6687 1.8746 3.3317 0.31243 1.6687-0.31243 2.331 0 4.3323 0.31243 1.9984 1.8746 1.9984 2.5023 3.6643 0.62486 1.6687 0.62486 2.331-0.94013 2.331zm0 0" fill="none" stroke="#fff" stroke-linecap="round" stroke-linejoin="round" stroke-miterlimit="10" stroke-width=".625"/>
<path transform="matrix(1.3753 0 0 1.3741 44.195 -8.5648)" d="m170.38 178.27c1.5621 0 1.5621-0.6652 0.93729-2.331-0.62486-1.6658-2.187-1.6658-2.4994-3.6643-0.31243-2.0013 0.31243-2.6693 0-4.3323-0.31243-1.6687-1.5621-1.6687-1.8746-3.3374-0.31243-1.9984 1.2497-1.663 0.93729-2.9962-0.62486-1.6658-1.5621-1.9984-1.8774-3.6671-0.62486-1.3332 0.6277-1.3332 0.31527-2.6636-0.31527-1.3361-1.8774-2.0013-1.2526-7.0016 0.93729-3.9997 0.62486-6.3307 2.1898-5.9981-5.9362-3.3317-4.6836-24.328-0.62486-28.66-0.94013-0.66804-0.94013-3.0019-1.565-6.3336-0.62486-5.0003 0.93729-5.6627 1.2526-6.9988 0.31243-1.3332-0.94013-1.3332-0.31527-2.6636 0.31527-1.6687 1.2526-2.0013 1.8774-3.6699 0.31243-1.3304-1.2497-2.331-0.93729-3.9997 0.31243-1.9956 1.5621-1.9956 1.8746-3.6643 0.31243-1.3304-0.31243-0.99779 0-2.9991 0.31243-1.6687 1.8746-1.9984 2.4994-3.6643 0.62486-1.6687 0.62486-2.3367-0.93729-2.3367h-0.93729" fill="none" stroke="#fff" stroke-linecap="round" stroke-linejoin="round" stroke-miterlimit="10" stroke-width=".625"/>
<path transform="matrix(1.3753 0 0 1.3741 44.195 -8.5648)" d="m374.38 127.92c-0.93729-0.99779-1.8746-1.9984-2.8119-2.9991 0-0.3326-0.31243-0.3326-0.31243-0.66235-0.93729-1.0006-1.5621-2.3367-2.4994-3.6699 0-0.3326-0.31243-0.66235-0.62486-1.0006 0-0.32976-0.31243-0.99779-0.31243-1.3304-0.31243-0.3326-0.62486-0.66804-0.62486-1.3332-0.31243-0.32976-0.31243-0.66804-0.6277-0.99779v-0.3326c-0.62486-1.3361-0.93729-2.6693-0.93729-3.9997-0.31243-1.3332-0.93729-3.0019-1.2497-4.3323v-0.66804c-12.182-48.65-50.608-92.3-100.59-92.3h-6.5582c-0.62486 0-1.5621 0.33544-2.187 0.33544-1.5621 0-2.8119 0.3326-4.374 0.66235-0.62486 0-1.565 0-2.5023 0.33544-0.62486 0-1.2497 0.3326-1.8746 0.3326s-1.2497 0.3326-1.8746 0.3326c-0.93445 0.3326-1.8717 0.66804-2.809 0.66804-0.31243 0.3326-0.62486 0.3326-0.93729 0.3326s-0.62486 0-0.93729 0.3326c-0.31243 0-0.93729 0.33544-1.5621 0.33544-0.93729 0.3326-1.8746 0.66235-2.8119 1.0006-0.31243 0-0.93729 0.32976-1.5621 0.32976-0.31243 0.3326-0.93729 0.3326-1.2497 0.66804h-0.6277c-0.93161 0.3326-1.8689 0.99779-2.8062 1.3332h-0.31243c-0.93729 0.6652-2.1898 1.0006-3.1271 1.3332-0.93729 0.32976-1.8746 0.99779-2.4994 1.3304h-0.31243c-0.31243 0.3326-0.62486 0.3326-0.93729 0.66804-0.31243 0-0.93729 0.3326-1.2497 0.6652-0.31243 0-0.62486 0-0.93729 0.33544-0.93729 0.3326-1.5621 1.0006-2.4966 1.3304-0.93729 0.66804-1.8746 1.0006-2.4994 1.6658-0.31243 0-0.62486 0-0.62486 0.33544-0.93729 0.3326-1.8746 1.0006-2.8119 1.663-0.31243 0-0.31243 0.33828-0.62486 0.33828-0.31243 0.32976-0.6277 0.32976-0.94013 0.66235 0 0-0.31243 0-0.62486 0.3326 0 0-0.31243 0.33544-0.62486 0.66804-0.93729 0.3326-1.8746 1.0006-2.8119 1.6687-0.62486 0.66235-1.5593 1.3304-2.1842 1.9956h-0.31243l-0.31243 0.33544c-0.93729 0.6652-1.5621 1.3332-2.4994 2.0013-0.93729 0.66235-1.8746 1.3304-2.8119 2.331-0.62486 0.6652-1.5621 1.3332-2.187 1.9984l-0.31243 0.3326c-0.93729 0.6652-1.5621 1.3332-2.1898 2.0013h-0.30675c-0.62486 1.0006-1.5621 1.663-2.187 2.6636-0.62486 0.66804-1.5621 1.3332-2.1898 2.331h-0.31243c-0.62486 1.0006-1.5621 1.6687-2.187 2.6693-0.31243 0.66235-0.93729 1.0006-1.2497 1.3304-0.31243 0.6652-0.62486 1.0006-0.93729 1.3332-0.93729 1.0006-1.5621 1.6687-2.187 2.6693-0.31243 0.66235-0.62486 0.99495-0.93729 1.3304-0.31243 0.6652-0.93445 1.0006-1.2497 1.3332-0.62486 0.99779-1.2469 1.9984-1.8717 2.9991-0.93729 1.3332-1.5621 2.331-2.4994 3.6643-1.8746 2.9991-3.752 6.3307-5.3141 9.6652h0.93729c1.565 0 1.565 0.66235 0.94013 2.331-0.6277 1.6687-2.1898 1.9984-2.5023 3.6643-0.31243 1.9984 0.31243 1.6687 0 2.9991-0.31243 1.6687-1.5621 1.6687-1.8746 3.6643-0.31243 1.6687 1.2497 2.6693 0.93729 3.9997-0.62486 1.6687-1.5621 2.0013-1.8746 3.6643-0.62486 1.3332 0.62486 1.3332 0.31243 2.6693-0.31243 1.3304-1.8717 1.9956-1.2469 6.9959 0.93445 4.6621 0.62486 7.3314 2.809 5.9953 1.5621-0.99495 2.4994-5.6627 2.8119-9.6596 0-2.6693 0.31243-5.0003 0.31243-6.6633 0-1.6687 0-6.001 0.31527-8.6646 0.31243-4.6649 2.187-7.9966 4.0616-7.664 3.1215 0.32976 2.8119 4.3323 4.996 2.6636 2.4994-1.6658-1.2497-3.3317 0-5.3329 0.62486-0.66235 1.8746-0.66235 2.8119-3.6643 1.2497-2.9991 0-2.331-0.62486-3.9997-0.31243-1.3304 1.2497-0.66235 3.1243-1.9956 1.5621-1.3361 0.31243-2.331 1.5621-6.6633 1.2526-3.9997 1.2526-5.3329 3.752-8.0023 0.61918-0.99779 1.244-1.663 1.244-1.663 19.061-19.996 44.677-32.987 71.543-32.987 33.117 0 67.169 22.656 84.041 55.643 9.37 18.66 13.119 54.316 28.116 54.648-0.31243-0.3326-0.62486-0.66804-1.2497-1.0006zm0 0" fill="none" stroke="#fff" stroke-linecap="round" stroke-linejoin="round" stroke-miterlimit="10" stroke-width=".625"/>
<path transform="matrix(1.3753 0 0 1.3741 44.195 -8.5648)" d="m169.38 77.292c-4.6921 4.3323-15.323 19.999-15.323 51.325 0 35.992 16.261 49.657 16.261 49.657" fill="none" stroke="#575759" stroke-miterlimit="8" stroke-width=".625"/>
<path transform="matrix(1.3753 0 0 1.3741 44.195 -8.5648)" d="m415.96 141.92c-9.0604-3.3345-16.249-5.3329-19.995-6.001-6.2486-1.3332-16.871-5.0003-18.433-5.6684-1.2497-0.6652-2.187-1.663-3.1243-2.331l0.31243 0.3326c0.62486 0.33544 0.93729 0.6652 1.2497 0.99779-14.997-0.3326-18.746-36-28.121-54.663-16.871-33.001-50.926-55.669-84.043-55.669-26.872 0-52.488 13-71.546 33.001 0 0-0.31243 0.3326-0.93729 1.0006h0.31243c17.808-18.333 48.427-29.334 73.108-29.334 31.243 0 63.423 24.001 79.047 54.333 2.4966 5.6684 4.6836 11.331 6.2457 16.999 1.2497 4.3323 4.6893 7.6697 5.6266 11.999 0.62486 4.0025-1.5621 9-1.2497 13 0.62486 5.0003 0.62486 9.6681 0.62486 14.668 0 18.333-6.2514 41.001-18.121 59.666-16.559 23.668-46.552 38.667-72.174 38.667-22.807 0-53.738-12.332-72.171-29.331l0.62486 0.66235c18.746 20.337 44.362 33.669 70.609 33.669 27.181 0 59.052-13.668 76.86-38.999 5.9362-8.6674 15.309-36.668 23.429-32.333 2.8119-1.9984 5.9362-2.9991 9.3757-2.9991 9.6825-1.0006 24.682 1.9984 36.554 7.3314 1.8746 0.66804 4.0616 1.6687 5.9362 2.331v-31.33" fill="none" stroke="#fff" stroke-linecap="round" stroke-linejoin="round" stroke-miterlimit="10" stroke-width=".625"/>
<path transform="matrix(1.3753 0 0 1.3741 44.195 -8.5648)" d="m415.96 141.91c-9.0604-3.3317-16.249-5.3301-19.998-5.9981-6.2514-1.3332-16.877-4.9975-18.433-5.6655-1.2497-0.6652-2.1898-1.663-3.1271-2.331-0.93729-1.0006-1.8746-1.9956-2.8119-2.9962 0-0.33544-0.31243-0.33544-0.31243-0.66804-0.93729-1.0006-1.5621-2.3339-2.4994-3.6643 0-0.33544-0.31243-0.66804-0.62486-1.0006 0-0.3326-0.31243-1.0006-0.31243-1.3304-0.31243-0.33828-0.62486-0.66804-0.62486-1.3361-0.31243-0.3326-0.31243-0.6652-0.62486-0.99779v-0.33544c-0.62486-1.3332-0.93729-2.6636-0.93729-3.9969-0.31243-1.3361-0.93729-2.9991-1.2497-4.3323v-0.66804c-12.188-48.647-50.622-92.292-100.62-92.292h-6.561c-0.62202 0-1.5621 0.3326-2.187 0.3326-1.5593 0-2.809 0.3326-4.3712 0.66235-0.62486 0-1.565 0-2.5023 0.33544-0.62486 0-1.2497 0.3326-1.8746 0.3326s-1.2497 0.3326-1.8746 0.3326c-0.93729 0.33544-1.8746 0.66804-2.8119 0.66804-0.31243 0.3326-0.62486 0.3326-0.93729 0.3326s-0.62486 0-0.93729 0.3326c-0.31243 0-0.93729 0.33544-1.5621 0.33544-0.93729 0.3326-1.8774 0.66235-2.8147 1.0006-0.31243 0-0.93729 0.32976-1.5621 0.32976-0.31243 0.3326-0.93729 0.3326-1.2497 0.66804h-0.62486c-0.93729 0.3326-1.8746 0.99779-2.8119 1.3332h-0.31243c-0.93729 0.6652-2.187 1.0006-3.1243 1.3332-0.93729 0.32976-1.8774 0.99779-2.5023 1.3304h-0.31243c-0.31243 0.3326-0.62486 0.3326-0.93729 0.66804-0.31243 0-0.93729 0.3326-1.2497 0.6652-0.31243 0-0.62486 0-0.93729 0.32976-0.93729 0.33828-1.5621 1.0006-2.4994 1.3361-0.93729 0.6652-1.8746 1.0006-2.4994 1.6658-0.31243 0-0.62486 0-0.62486 0.3326-0.93729 0.33544-1.8717 0.99779-2.8147 1.6658-0.30675 0-0.30675 0.3326-0.62486 0.3326l-0.93161 0.66804s-0.31811 0-0.62486 0.3326c0 0-0.31811 0.3326-0.62486 0.66804-0.94297 0.3326-1.8774 1.0006-2.8147 1.663-0.62486 0.66804-1.5621 1.3332-2.187 2.0013h-0.31243l-0.31243 0.3326c-0.93729 0.66804-1.5621 1.3361-2.4994 1.9984-0.93729 0.66804-1.8746 1.3332-2.8119 2.3339-0.62486 0.66804-1.5621 1.3304-2.187 1.9984l-0.31243 0.3326c-0.94013 0.66804-1.565 1.3304-2.1898 1.9984h-0.31243c-0.62486 1.0006-1.5621 1.6687-2.187 2.6665-0.62486 0.66804-1.5621 1.3361-2.187 2.3339h-0.31243c-0.62486 0.99779-1.5621 1.6658-2.187 2.6665-0.31243 0.6652-0.93729 0.99779-1.2497 1.3304-0.31243 0.66804-0.62486 1.0006-0.93729 1.3332-0.93729 0.99779-1.5621 1.6658-2.1898 2.6665-0.31243 0.6652-0.62486 1.0006-0.93729 1.3332-0.31243 0.66804-0.93729 1.0006-1.2497 1.3304-0.62486 1.0006-1.2497 2.0013-1.8746 3.0019-0.93729 1.3304-1.5621 2.331-2.4994 3.6643-1.8746 2.9991-3.7491 6.3307-5.3113 9.6624m0.93729 100.96h-0.93729c1.8746 3.6699 3.7491 7.3342 5.9362 10.998v-0.3326c0.31243 0.3326 0.31243 0.66235 0.62486 1.0006 0.93729 1.3304 1.8746 2.9962 2.8119 4.3295 0.31243 0.6652 0.93729 1.3332 1.2497 1.6658 0.31243 0.66804 0.62486 1.0006 0.93729 1.3304 0.62486 0.66804 1.2526 1.3361 1.565 2.0013 0.62486 0.66804 0.93729 1.0006 1.2497 1.6687 0.31243 0.3326 0.62486 0.66235 0.93729 0.99495 0.93729 1.0006 1.8746 2.3367 2.8119 3.3317 0.31243 0.33544 0.62486 0.66804 1.2497 1.0006v0.33544c0.31243 0.3326 0.62486 0.6652 1.2497 1.3332 4.6893 4.9947 10.001 9.6624 15.624 13.992 0.31243 0.33544 0.62486 0.33544 0.62486 0.66804 1.2469 0.66804 2.4966 1.6687 3.7463 2.6636 0.31811 0 0.62486 0.33544 0.94297 0.33544 3.7463 2.6636 7.8079 4.9975 11.557 6.9959 0.62486 0.3326 1.565 0.6652 2.1898 1.0006 0.93729 0.3326 1.8746 0.6652 2.8119 1.3332 0.93729 0.32976 1.8746 0.66235 2.8119 0.99779 0.93729 0.3326 1.5621 0.6652 2.4994 1.0006 1.2497 0.3326 2.4994 1.0006 3.4367 1.3332 0.6277 0 1.565 0.3326 2.1898 0.66235 1.8746 0.33828 3.7491 1.0006 5.3113 1.3361 0.62486 0.3326 1.5621 0.3326 2.187 0.3326 1.2497 0.3326 2.4994 0.66804 3.752 1.0006 0.62486 0 1.5621 0 2.1813 0.3326 1.2497 0 2.8175 0.32976 4.0673 0.32976 0.62486 0 1.2469 0 1.8717 0.33828h5.9362c42.184 0 79.056-23.325 92.806-65.309 0.93729-4.3323 3.7491-8.3292 7.5011-10.66 2.8119-2.0013 5.9362-3.0019 9.3729-3.0019 9.6853-0.99779 24.685 2.0013 36.56 7.3342 1.8746 0.66235 4.0616 1.663 5.9362 2.331" fill="none" stroke="#575759" stroke-miterlimit="8" stroke-width=".625"/>
<path transform="matrix(1.3753 0 0 1.3741 44.195 -8.5648)" d="m309.79 66.524 2.809 6.6832 1.2469 3.6756c0.93729 1.6715 1.8746 3.343 2.4966 5.0174 0.31243 0.33544 0.31243 0.6652 0.62486 1.3332 0.93729 2.0098 1.5621 4.0139 1.8717 6.018 0.31243 1.3361 0.31243 3.0076 0.31243 4.3437 0 1.6715-0.31243 3.343 0.31243 5.0146 0.31243 1.3361 0.62486 2.3396 1.2497 3.6756-4.9932-3.0076-12.168-3.0076-18.723-4.0111" fill="none" stroke="#fff" stroke-linecap="round" stroke-linejoin="round" stroke-miterlimit="10" stroke-width="1.25"/>
<path transform="matrix(1.3753 0 0 1.3741 44.195 -8.5648)" d="m315.31 76.545c0-0.3326 0-0.3326-0.30959-0.3326l-1.849-2.9934-2.4597-4.6507" fill="none" stroke="#fff" stroke-linecap="round" stroke-linejoin="round" stroke-miterlimit="10" stroke-width="1.25"/>
<path transform="matrix(1.3753 0 0 1.3741 44.195 -8.5648)" d="m338.24 92.609c-0.31243 1.6658-1.8746 5.3301-1.5621 7.3285v2.9962c0 3.9969 0.31243 8.9972 2.8119 13.992-1.8746-1.3304-3.4367-2.6636-5.3141-3.9997-3.1243-2.3282-6.2514-4.6592-8.7537-7.3285-0.31243-0.32976-0.62486-0.66235-0.93729-0.99495-1.5621-2.0013-2.8119-3.9997-3.752-6.3336-0.31243-1.3304-0.31243-2.9934 0-4.6621 0-1.3332 0-2.9962-0.31243-4.6621-0.31243-1.9984-1.2526-3.9997-1.8774-5.9953 0-0.33544-0.31243-0.33544-0.31243-0.33544 0-0.6652-2.4994-3.9969-2.4994-4.3295" fill="none" stroke="#fff" stroke-linecap="round" stroke-linejoin="round" stroke-miterlimit="10" stroke-width="1.25"/>
<path transform="matrix(1.3753 0 0 1.3741 44.195 -8.5648)" d="m313.21 197.33c1.8746-2.0013 3.7463-4.0025 4.6864-6.0038 0.93445-1.6658 1.5593-3.3345 2.809-5.0003 1.8746-2.6693 3.4396-6.0038 4.6893-9.0057 1.8746-4.0025 3.7491-8.3348 7.1859-11.672 1.5621-2.0041 3.4396-3.3345 5.3141-5.0032 3.4339-2.6665 6.8706-5.3358 8.7452-10.336 2.187-6.0038 5.3113-10.339 14.997-8.6703 3.4367 1.3304 6.561 1.9984 11.875 2.3339 3.7463 0.3326 8.4327 2.0013 12.807 3.6699 2.8147 1.3304 6.2514 2.6665 9.0604 3.6671 7.4983 1.6687 13.125 2.9991 20.311 6.001v-3.3345c-7.1859-2.6665-12.5-4.0025-19.995-6.0038-2.8119-0.66804-5.6237-1.9984-8.748-2.9991-4.3768-1.6687-8.7509-3.6671-12.81-3.6671-2.8119-0.33544-5.3141-0.66804-7.5011-1.0035-1.2497-0.3326-4.374-1.0006-4.6864-1.0006-5.9333-2.331-9.9977-6.001-14.997-14.342-0.93729-1.3304-1.8746-2.6665-3.1243-3.9997h0.31243c-5.6209-6.3336-5.939-12.337-5.939-18.006l-0.30675-3.0019c-0.31811-1.6658-0.31811-4.3351 0-6.0038" fill="none" stroke="#fff" stroke-linecap="round" stroke-linejoin="round" stroke-miterlimit="10" stroke-width="1.25"/>
<path transform="matrix(1.3753 0 0 1.3741 44.195 -8.5648)" d="m282.61 205.31c4.6836-3.6842 9.992-6.3648 15.61-8.0392l4.6836-1.0035c3.7491-0.66804 7.4955-1.3418 11.554-3.6842 0.62486-0.66804 1.2497-1.0035 1.8717-1.6715-0.93445 2.007-1.2469 4.3522-2.809 6.0266" fill="none" stroke="#fff" stroke-linecap="round" stroke-linejoin="round" stroke-miterlimit="10" stroke-width="1.25"/>
<path transform="matrix(1.3753 0 0 1.3741 44.195 -8.5648)" d="m271.99 201.28c5.2943-1.3304 11.213-2.331 16.502-1.3304-2.1756 1.3304-3.7349 3.6643-5.9134 4.9975" fill="none" stroke="#fff" stroke-linecap="round" stroke-linejoin="round" stroke-miterlimit="10" stroke-width="1.25"/>
<path transform="matrix(1.3753 0 0 1.3741 44.195 -8.5648)" d="m301.91 98.326c8.126 0.99779 16.246 2.9962 21.558 7.6554 2.5023 2.9962 6.2514 5.6599 9.6881 8.3235 4.6864 3.3288 9.6881 6.6576 12.5 11.652 3.7491 6.325 6.8763 10.984 10.938 13.318-8.126 0.32976-10.001 6.6548-11.563 10.316-1.5621 4.6621-4.6864 6.9902-8.126 9.6567-1.8746 1.663-3.7491 2.9962-5.6237 4.9918-3.4367 3.6643-5.3113 7.9909-7.1887 12.315-2.4994 5.6599-4.996 10.99-10.62 14.316-3.4367 2.3339-7.1887 2.9962-10.938 3.9969l-4.6864 1.0006c-1.8774 0.3326-3.752 0.99495-5.6266 1.9956-0.62486 0.3326-3.7491 0.3326-4.6864 0.3326-5.3141-0.6652-11.25 1.9956-16.564 3.3288" fill="none" stroke="#fff" stroke-linecap="round" stroke-linejoin="round" stroke-miterlimit="10" stroke-width="1.25"/>
<path transform="matrix(1.3753 0 0 1.3741 44.195 -8.5648)" d="m324.74 85.286c0.62486 2.3481 0.62486 5.0259 1.2469 7.0386-2.1842-1.3389-4.0559-2.6807-6.5525-3.687l-2.1813-1.3389c-1.5593-0.67372-3.4339-1.6772-4.9932-2.6835-0.31243 0-0.31243 0-0.31243-0.33828-4.0559-2.3424-8.7338-4.0196-12.48-7.3712" fill="none" stroke="#fff" stroke-linecap="round" stroke-linejoin="round" stroke-miterlimit="10" stroke-width="1.25"/>
<path transform="matrix(1.3753 0 0 1.3741 44.195 -8.5648)" d="m281.35 217.54c4.6836-1.663 9.6825-4.9975 12.81-8.9915l1.5565-2.3339c4.6893-5.6627 10.001-11.991 15.94-14.987 1.8717-0.3326 4.0587-0.3326 6.2457-1.0006 5.6237-1.9984 8.4327-6.9959 11.245-11.655l2.1898-3.9997c2.187-2.9962 4.6864-5.6599 7.1859-7.9937 2.809-2.9991 5.9333-5.9953 7.8079-9.6596l0.62486-0.66804c3.1271-6.3279 5.0017-9.327 11.872-10.66 6.5639-1.3332 14.372 2.0013 18.746 3.3317 13.434 4.6649 26.556 9.6596 38.116 11.993v-3.6643c-11.56-2.3339-24.682-6.9959-37.804-11.325-2.187-0.66804-4.996-1.6687-7.8079-1.9984-2.4994-0.66804-6.5639-1.6658-6.5639-1.6658-2.4994-1.0006-4.0616-5.9953-5.3113-10.328-0.30959-2.331-0.93445-4.6649-1.8746-5.9953-3.1214-6.6605-8.4327-10.657-13.434-14.322-2.1842-1.6687-4.3712-3.3317-6.5582-5.3301-2.187-1.6658-3.4367-3.9969-4.374-6.3307l-2.1898-3.3317c-0.62486-0.99779-1.2497-1.9956-2.187-2.6636-0.30675-2.9962-1.8746-5.6627-2.809-8.6589" fill="none" stroke="#fff" stroke-linecap="round" stroke-linejoin="round" stroke-miterlimit="10" stroke-width="1.25"/>
<path transform="matrix(1.3753 0 0 1.3741 44.195 -8.5648)" d="m271.33 190.3c5.6294 5.9811 12.509 6.3137 19.39 4.9861 3.4367-0.3326 5.9418-1.3332 9.0661-2.3282l2.1927-0.6652c1.8746-0.6652 4.0616-0.99495 6.2543-0.99495-5.0045 3.6557-9.6967 8.9688-13.451 13.952l-1.8746 2.3253c-3.1243 3.6557-6.8791 8.3036-11.256 9.9637" fill="none" stroke="#fff" stroke-linecap="round" stroke-linejoin="round" stroke-miterlimit="10" stroke-width="1.25"/>
<path transform="matrix(1.3753 0 0 1.3741 44.195 -8.5648)" d="m300.73 190.95-1.5678 0.33544c-2.8175 1.0006-5.6379 1.9984-8.7707 2.3339-6.2656 1.3332-14.099 1.6687-19.425-3.6699" fill="none" stroke="#fff" stroke-linecap="round" stroke-linejoin="round" stroke-miterlimit="10" stroke-width="1.25"/>
<path transform="matrix(1.3753 0 0 1.3741 44.195 -8.5648)" d="m300.73 83.325c3.431 0.3326 7.1745 1.663 10.606 2.6636 1.8746 1.0006 3.7463 2.0013 5.3056 3.0019l2.1813 0.99495c3.7463 2.0013 7.4898 3.9997 9.6739 7.664l1.8746 3.3288c1.2469 2.331 2.4966 4.6621 4.9932 6.6605 2.1813 1.9984 4.3655 3.6643 6.5496 5.3301 5.3056 3.6643 10.296 7.3257 13.105 13.654 0.62202 1.3361 1.2469 3.6643 1.8717 5.6627 0.93445 4.3295 2.1842 8.9944 4.6779 10.66-0.93729 0.3326-2.1813 0.3326-3.1186 0.3326-7.4898 1.6658-9.6739 5.9953-13.108 11.988l-0.30675 0.66804c-1.8746 3.6643-4.6808 6.6605-7.8022 9.6567-2.4966 2.331-4.9903 4.9975-7.1745 7.9966l-2.1842 3.9969c-2.809 4.6621-5.3056 9.3241-10.296 10.99-2.809 1.0006-5.3056 1.6658-8.1146 1.6658-1.5593 0-4.9903 0.3326-6.5496 0.66804v-0.33544" fill="none" stroke="#fff" stroke-linecap="round" stroke-linejoin="round" stroke-miterlimit="10" stroke-width="1.25"/>
<path transform="matrix(1.3753 0 0 1.3741 44.195 -8.5648)" d="m298.78 76.874c2.8033 2.0297 4.9903 4.392 7.7965 6.4189-1.8717-0.33544-4.0559 0-5.9276-0.33544" fill="none" stroke="#fff" stroke-linecap="round" stroke-linejoin="round" stroke-miterlimit="10" stroke-width=".625"/>
<path d="m588.34 194.58c-3.8672-0.91797-7.7422-2.75-12.039-4.125-6.0156-2.2852-12.039-5.0352-17.625-5.0352-3.8711-0.46094-7.3125-0.91406-10.32-1.3711-1.7188-0.46094-6.0195-1.375-6.4492-1.375-8.1719-3.2109-13.758-8.2461-20.641-19.695-1.2891-1.8359-2.5781-3.6641-4.2969-5.4961h0.42969c-7.7422-8.6992-8.1719-16.945-8.1719-24.734l-0.42969-4.1211c0-2.2891 0.42969-4.5781 0.85938-7.3281 0.42969-3.2031 0.85938-6.4102 0-10.531-0.85938-5.0391-4.2969-10.074-7.3047-14.66l-4.7344-5.4883 4.3047 8.2383c3.4375 4.582 4.7266 7.7891 6.0156 12.824 0.42969 3.207 0 5.957-0.42969 9.1602-0.42969 2.75-0.85938 5.043-0.42969 7.7852v4.1211c0 5.4961 0.42969 12.367 3.8672 19.238-2.5781-1.832-4.7266-3.6641-7.3047-5.4961-4.2969-3.2031-8.6016-6.4102-12.039-10.074-0.42969-0.45703-0.85938-0.91797-1.2891-1.375-2.1484-2.75-3.8672-5.4961-5.1641-8.7031-0.42578-1.8281-0.42578-4.1211 0-6.4141 0-1.8281 0-4.1211-0.42578-6.4062-0.43359-2.75-1.7227-5.4961-2.582-8.2461 0-0.45703-0.42969-0.45703-0.42969-0.45703 0-0.91797-0.42969-1.375-0.42969-1.8359-2.5781-5.9531-0.85938-14.195 0.42969-21.98 0.85938-5.0391 0.85938-9.6172 0.85938-13.738 0 4.1211-2.1484 8.6992-3.0078 13.277-0.85938 5.4961-1.7188 10.992-1.7188 16.035 0-0.46484 0-0.46484-0.42969-0.46484l-2.1484-5.0352-2.1523-4.1211c-7.7383-16.027-16.34-32.973-34.828-35.723 17.629 2.2891 25.797 21.07 33.105 36.641l1.7227 4.1211 2.582 5.0352c1.2891 2.293 2.5781 4.582 3.4375 6.8711 0.42969 0.45703 0.42969 0.91797 0.85938 1.832 1.2891 2.7461 2.1484 5.4961 2.5781 8.2461 0.42969 1.8281 0.42969 4.1211 0.42969 5.9492 0 2.293-0.42969 4.5859 0.42969 6.8711 0.42969 1.832 0.85938 3.207 1.7188 5.043-6.875-4.125-15.477-5.043-24.504-6.4141-14.617-1.832-30.094-3.207-38.695-16.031 9.0312 13.742 23.648 16.031 38.266 18.32 11.176 1.375 21.496 2.75 28.809 9.1602 3.4375 4.1211 8.5938 7.7852 13.328 11.449 6.4453 4.582 13.328 9.1602 17.195 16.031 5.1602 8.7031 9.4609 15.109 15.047 18.32-11.18 0.45703-13.758 9.1562-15.906 14.195-2.1484 6.4102-6.4531 9.6211-11.18 13.281-2.5781 2.293-5.1562 4.1211-7.7344 6.8711-4.7344 5.0391-7.3125 10.992-9.8906 16.945-3.4375 7.7852-6.8828 15.117-14.617 19.695-4.7344 3.2031-9.8906 4.1211-15.051 5.4961l-6.4492 1.375c-2.582 0.45312-5.1602 1.3711-7.7383 2.7461-0.85938 0.45703-5.1641 0.45703-6.4531 0.45703-7.3047-0.91797-15.047 0.91797-21.922 3.2031l-5.1641 1.375c-14.617 3.668-19.348-0.45703-24.938-9.6172 6.0234 9.6172 9.4609 15.574 25.797 11.91l4.7344-1.832c7.3047-1.8359 15.477-4.1211 22.781-2.7461-3.0078 1.8281-5.5859 4.1211-8.1641 5.9531l-4.7266 3.2031c-14.625 10.535-36.551 21.066-53.316 8.6992 17.625 13.285 39.121 4.125 54.598-6.8672l4.3047-3.207c6.875-4.5781 12.898-9.1562 20.637-11.449l6.4492-1.375c5.1602-0.91797 10.32-1.8281 15.91-5.0352 0.85938-0.91406 1.7188-1.3711 2.5781-2.2891-1.2891 2.7461-2.1484 5.0352-4.3008 7.3242l-1.7188 1.832c-4.3008 5.4961-6.8789 10.082-9.8906 16.945 3.0117-6.8633 7.3086-10.074 11.609-15.57l1.7227-1.832c2.1484-2.7461 3.4375-5.4961 4.7266-8.2422 1.2891-2.2891 2.1484-4.582 3.8672-6.8711 2.5859-3.6602 4.7344-8.2422 6.4531-12.363 2.5781-5.4961 5.1562-11.449 9.8906-16.031 2.1484-2.75 4.7266-4.582 7.3047-6.8711 4.7344-3.6602 9.4609-7.3281 12.039-14.199 3.0078-8.2383 7.3125-14.195 20.637-11.906 4.7344 1.832 9.0312 2.75 16.344 3.207 5.1562 0.46094 11.609 2.7461 17.625 5.0391 3.8672 1.832 8.6016 3.6602 12.469 5.0352 10.32 2.293 18.055 4.1211 27.945 8.2461v-4.582c-9.8906-3.6641-17.195-5.4961-27.516-8.2422" fill="#d10017" fill-rule="evenodd"/>
<path d="m563.85 191.96c-3.0117-0.91406-6.8789-2.2891-10.746-2.7422-3.4453-0.91797-9.0312-2.293-9.0312-2.293-3.4375-1.375-5.5859-8.2383-7.3047-14.191-0.42969-3.207-1.2891-6.4102-2.5781-8.2461-4.3008-9.1523-11.609-14.648-18.488-19.684-3.0078-2.293-6.0156-4.5781-9.0234-7.3281-3.0117-2.2891-4.7305-5.4961-6.0195-8.6992l-3.0078-4.5781c-0.85938-1.375-1.7227-2.7422-3.0078-3.6602-0.4375-4.125-1.7266-7.7852-2.5859-11.906-3.0078-8.6953-6.4453-18.316-1.7188-25.641-5.1562 8.2422-3.0078 17.402-0.42969 26.098 0.85938 3.207 1.7188 6.4141 2.5781 9.1562-3.0078-1.832-5.5859-3.6602-9.0234-5.0352l-3.0078-1.832c-2.1484-0.91797-4.7305-2.2891-6.8789-3.6602-0.42969 0-0.42969 0-0.42969-0.46094-5.5898-3.2031-11.609-6.8633-16.766-10.988-3.4375-3.2031-6.0156-5.0352-9.0273-8.6992l-5.5859-6.4102 4.2969 6.4102c2.5781 3.6641 5.1602 7.3242 9.0273 10.531 3.4375 2.7461 6.875 5.0391 10.742 7.7812-2.5781-0.45312-4.7266-0.91016-7.3047-1.3711-6.0156-0.45703-12.895-0.45703-18.484-3.207 6.0195 3.207 12.039 5.043 18.484 5.4961 4.7266 0.45703 9.0273 1.375 13.758 2.75 2.5781 1.375 5.1602 2.7461 7.3086 4.1172l3.0078 1.375c5.1562 2.7461 10.312 5.4961 13.324 10.531l2.582 4.5781c1.7188 3.2031 3.4375 6.4062 6.8789 9.1562 3.0078 2.75 6.0156 5.0352 9.0234 7.3281 7.3047 5.0352 14.188 10.07 18.055 18.77 0.86328 1.832 1.7227 5.0352 2.582 7.7812 1.2891 5.9531 3.0078 12.363 6.4453 14.656-1.2891 0.45703-3.0078 0.45703-4.2969 0.45703-10.316 2.2852-13.324 8.2383-18.059 16.477l-0.42969 0.91797c-2.5781 5.0352-6.4453 9.1562-10.742 13.281-3.4414 3.2031-6.8789 6.8633-9.8867 10.988l-3.0117 5.4883c-3.8711 6.4141-7.3086 12.824-14.184 15.109-3.8711 1.375-7.7383 1.375-11.176 1.375h-6.4531c-10.742-0.91016-26.652-2.7461-30.09-14.648 3.4375 10.988 13.758 15.105 24.504 16.48l-2.1484 0.46094c-3.8672 1.375-7.7383 2.7422-12.035 3.2031-8.6016 1.832-18.484 1.832-25.363-5.4961l-2.5781-2.7461c-8.1719-8.6953-16.336-16.023-29.66-18.773 12.895 2.75 19.77 11.449 28.371 20.609l2.1484 2.2852c7.7383 8.2383 18.051 8.2383 27.512 6.4102 4.7266-0.45703 8.168-1.832 12.465-3.207l3.0078-0.91016c2.5781-0.91797 5.5859-1.375 8.6016-1.375-6.8828 5.0352-13.328 12.363-18.484 19.227l-2.582 3.2031c-4.2969 5.043-9.4609 10.535-15.477 12.363l-7.7344 2.293c-4.3008 0.91016-7.7383 3.2031-12.035 5.0352 3.8672-1.832 8.1641-1.832 12.465-2.75l8.1641-2.2852c6.4531-2.293 12.039-7.7852 16.336-13.281l2.1523-3.2031c6.4453-7.7852 13.75-16.484 21.922-20.602 2.5781-0.46094 5.5898-0.46094 8.5977-1.375 7.7344-2.7461 11.602-9.6172 15.477-16.027l3.0078-5.4922c3.0078-4.1211 6.4492-7.7812 9.8867-10.984 3.8672-4.125 8.1641-8.2461 10.742-13.281l0.86719-0.91797c4.2969-8.6953 6.875-12.816 16.332-14.648 9.0234-1.832 19.773 2.75 25.793 4.5781 18.484 6.4102 36.535 13.273 52.441 16.484v-5.0391c-15.906-3.207-33.957-9.6133-52.012-15.566" fill="#008aca" fill-rule="evenodd"/>
<path transform="matrix(1.3753 0 0 1.3741 44.195 -8.5648)" d="m200.32 127.91c0-20.328-7.1802-36.992-16.241-36.992-8.7423 0-15.92 16.664-15.92 36.992v-0.33544c0 20.664 7.1773 37.325 15.92 37.325 9.0604 0 16.241-16.661 16.241-37.325zm0 0" fill="none" stroke="#fff" stroke-linecap="round" stroke-linejoin="round" stroke-miterlimit="10" stroke-width=".625"/>
<path transform="matrix(1.3753 0 0 1.3741 44.195 -8.5648)" d="m184.08 104.29c5.922 0 10.6 10.64 10.6 23.614 0 12.968-4.6779 23.609-10.6 23.609-5.6095 0-10.279-10.64-10.279-23.609 0-12.974 4.6694-23.614 10.279-23.614z" fill="none" stroke="#efdcd9" stroke-miterlimit="8" stroke-width=".25"/>
<path d="m278.11 159.48c1.2891-22.5 9.8672-39.949 20.168-39.031 10.727 1.3789 13.301 14.695 13.301 14.695 0.85938 3.2148 0.85938 1.8359-0.42578-0.46094-3.8594-7.3438-22.746-24.336-33.043 24.797" fill="#f3e3e1" fill-rule="evenodd"/>
<path d="m281.83 141.1c2.5781-10.586 9.4648-20.246 16.785-19.789 6.4609 0.46094 9.0391 5.9844 9.0391 5.9844-3.4453-5.0625-16.359-11.504-25.824 13.805" fill="#fff" fill-rule="evenodd"/>
<path d="m284.46 200.18c3.0195 7.3125 17.246 25.594 28.883-6.3984-4.3086 8.6836-15.523 26.051-28.883 6.3984" fill="#f5e6e6" fill-rule="evenodd"/>
<path d="m299.07 209.78v0.93359c0.87109 0.46875 2.1836 0 3.0547 0v-1.4023l-0.4375-0.46484c-0.43359-0.46875-1.3086 0-1.7461 0" fill="#fff" fill-rule="evenodd"/>
<path d="m303.89 207.55c-0.88281 0.43359-1.7617 1.2969-0.44141 1.7305 0.44141 0 0.87891 0 0.87891-0.43359 0.44141-0.42969 0-0.86328 0-1.2969" fill="#fff" fill-rule="evenodd"/>
<path d="m297.75 209.76c-0.41406-0.48047-1.2344 0-1.2344 0-0.41406 0.95312 0 0.95312 0.82031 1.4336 0.82812 0.47656 0.82812-0.48047 0.82812-1.4336" fill="#fff" fill-rule="evenodd"/>
<g>
<use x="25.332031" y="20.518044" xlink:href="#ag"/>
<use x="36.334528" y="20.518044" xlink:href="#e"/>
<use x="45.961713" y="20.518044" xlink:href="#g"/>
<use x="55.588898" y="20.518044" xlink:href="#o"/>
<use x="65.216083" y="20.518044" xlink:href="#h"/>
<use x="69.342019" y="20.518044" xlink:href="#d"/>
<use x="78.969204" y="20.518044" xlink:href="#f"/>
<use x="83.095141" y="20.518044" xlink:href="#u"/>
<use x="88.596389" y="20.518044" xlink:href="#c"/>
<use x="92.722326" y="20.518044" xlink:href="#l"/>
<use x="102.349511" y="20.518044" xlink:href="#b"/>
<use x="111.976695" y="20.518044" xlink:href="#a"/>
<use x="118.853256" y="20.518044" xlink:href="#k"/>
</g>
<g>
<use x="13.1875" y="56.4907" xlink:href="#n"/>
<use x="24.189997" y="56.4907" xlink:href="#m"/>
<use x="33.817182" y="56.4907" xlink:href="#d"/>
<use x="43.444367" y="56.4907" xlink:href="#r"/>
<use x="58.5728" y="56.4907" xlink:href="#l"/>
<use x="68.199985" y="56.4907" xlink:href="#b"/>
<use x="77.82717" y="56.4907" xlink:href="#a"/>
<use x="84.703731" y="56.4907" xlink:href="#f"/>
<use x="88.829667" y="56.4907" xlink:href="#i"/>
<use x="97.08154" y="56.4907" xlink:href="#e"/>
<use x="106.708725" y="56.4907" xlink:href="#a"/>
<use x="112.209973" y="56.4907" xlink:href="#g"/>
<use x="121.837158" y="56.4907" xlink:href="#b"/>
<use x="131.464343" y="56.4907" xlink:href="#a"/>
</g>
<g>
<use x="48.945313" y="92.463356" xlink:href="#n"/>
<use x="59.94781" y="92.463356" xlink:href="#e"/>
<use x="69.574994" y="92.463356" xlink:href="#a"/>
<use x="75.076243" y="92.463356" xlink:href="#g"/>
<use x="84.703428" y="92.463356" xlink:href="#b"/>
<use x="94.330613" y="92.463356" xlink:href="#d"/>
</g>
<g>
<use x="57.9375" y="128.436012" xlink:href="#af"/>
<use x="66.189373" y="128.436012" xlink:href="#b"/>
<use x="75.816558" y="128.436012" xlink:href="#g"/>
<use x="85.443743" y="128.436012" xlink:href="#k"/>
</g>
<g>
<use x="58.277344" y="164.408669" xlink:href="#t"/>
<use x="66.529217" y="164.408669" xlink:href="#o"/>
<use x="76.156401" y="164.408669" xlink:href="#q"/>
<use x="85.783586" y="164.408669" xlink:href="#c"/>
<use x="89.909523" y="164.408669" xlink:href="#h"/>
</g>
<g>
<use x="64.125" y="200.381325" xlink:href="#ae"/>
<use x="68.250936" y="200.381325" xlink:href="#a"/>
<use x="75.127497" y="200.381325" xlink:href="#c"/>
<use x="79.253433" y="200.381325" xlink:href="#k"/>
</g>
<g>
<use x="8.054688" y="236.353981" xlink:href="#ad"/>
<use x="19.057185" y="236.353981" xlink:href="#g"/>
<use x="28.684369" y="236.353981" xlink:href="#j"/>
<use x="34.185618" y="236.353981" xlink:href="#b"/>
<use x="43.812803" y="236.353981" xlink:href="#a"/>
<use x="50.689364" y="236.353981" xlink:href="#c"/>
<use x="54.8153" y="236.353981" xlink:href="#e"/>
<use x="64.442485" y="236.353981" xlink:href="#a"/>
<use x="71.319046" y="236.353981" xlink:href="#f"/>
<use x="75.444982" y="236.353981" xlink:href="#i"/>
<use x="83.696855" y="236.353981" xlink:href="#m"/>
<use x="93.32404" y="236.353981" xlink:href="#d"/>
<use x="102.951225" y="236.353981" xlink:href="#r"/>
<use x="118.079658" y="236.353981" xlink:href="#l"/>
<use x="127.706843" y="236.353981" xlink:href="#b"/>
<use x="137.334028" y="236.353981" xlink:href="#a"/>
</g>
<g>
<use x="4.617188" y="272.326637" xlink:href="#t"/>
<use x="12.86906" y="272.326637" xlink:href="#e"/>
<use x="22.496245" y="272.326637" xlink:href="#k"/>
<use x="30.748118" y="272.326637" xlink:href="#j"/>
<use x="36.249367" y="272.326637" xlink:href="#b"/>
<use x="45.876551" y="272.326637" xlink:href="#a"/>
<use x="52.753112" y="272.326637" xlink:href="#c"/>
<use x="56.879048" y="272.326637" xlink:href="#e"/>
<use x="66.506233" y="272.326637" xlink:href="#a"/>
<use x="73.382794" y="272.326637" xlink:href="#f"/>
<use x="77.50873" y="272.326637" xlink:href="#i"/>
<use x="85.760603" y="272.326637" xlink:href="#m"/>
<use x="95.387788" y="272.326637" xlink:href="#d"/>
<use x="105.014973" y="272.326637" xlink:href="#r"/>
<use x="120.143406" y="272.326637" xlink:href="#l"/>
<use x="129.770591" y="272.326637" xlink:href="#b"/>
<use x="139.397776" y="272.326637" xlink:href="#a"/>
</g>
<g>
<use x="29.917969" y="308.295387" xlink:href="#n"/>
<use x="40.920466" y="308.295387" xlink:href="#c"/>
<use x="45.046402" y="308.295387" xlink:href="#h"/>
<use x="49.172339" y="308.295387" xlink:href="#c"/>
<use x="53.298275" y="308.295387" xlink:href="#d"/>
<use x="62.92546" y="308.295387" xlink:href="#a"/>
<use x="69.802021" y="308.295387" xlink:href="#s"/>
<use x="79.429205" y="308.295387" xlink:href="#f"/>
<use x="83.555142" y="308.295387" xlink:href="#l"/>
<use x="93.182327" y="308.295387" xlink:href="#e"/>
<use x="102.809512" y="308.295387" xlink:href="#p"/>
<use x="112.436697" y="308.295387" xlink:href="#s"/>
</g>
<g>
<use x="720.40625" y="20.100075" xlink:href="#ac"/>
<use x="730.033435" y="20.100075" xlink:href="#i"/>
<use x="738.285308" y="20.100075" xlink:href="#h"/>
<use x="742.411244" y="20.100075" xlink:href="#b"/>
<use x="752.038429" y="20.100075" xlink:href="#a"/>
<use x="758.91499" y="20.100075" xlink:href="#d"/>
</g>
<g>
<use x="714.980469" y="56.072731" xlink:href="#n"/>
<use x="725.982966" y="56.072731" xlink:href="#m"/>
<use x="735.610151" y="56.072731" xlink:href="#e"/>
<use x="745.237336" y="56.072731" xlink:href="#a"/>
<use x="750.738584" y="56.072731" xlink:href="#e"/>
<use x="760.365769" y="56.072731" xlink:href="#c"/>
<use x="764.491705" y="56.072731" xlink:href="#p"/>
</g>
<g>
<use x="720.164062" y="92.045387" xlink:href="#ab"/>
<use x="729.791247" y="92.045387" xlink:href="#b"/>
<use x="739.418432" y="92.045387" xlink:href="#j"/>
<use x="744.919681" y="92.045387" xlink:href="#c"/>
<use x="749.045617" y="92.045387" xlink:href="#g"/>
<use x="758.672802" y="92.045387" xlink:href="#d"/>
</g>
<g>
<use x="695.429688" y="128.018044" xlink:href="#aa"/>
<use x="707.807497" y="128.018044" xlink:href="#d"/>
<use x="717.434682" y="128.018044" xlink:href="#i"/>
<use x="725.686554" y="128.018044" xlink:href="#o"/>
<use x="735.313739" y="128.018044" xlink:href="#h"/>
<use x="739.439676" y="128.018044" xlink:href="#d"/>
<use x="749.066861" y="128.018044" xlink:href="#f"/>
<use x="753.192797" y="128.018044" xlink:href="#z"/>
<use x="761.44467" y="128.018044" xlink:href="#h"/>
<use x="765.570606" y="128.018044" xlink:href="#b"/>
<use x="775.197791" y="128.018044" xlink:href="#i"/>
<use x="783.449664" y="128.018044" xlink:href="#y"/>
</g>
<g>
<use x="705.902344" y="163.9907" xlink:href="#x"/>
<use x="716.904841" y="163.9907" xlink:href="#h"/>
<use x="721.030777" y="163.9907" xlink:href="#c"/>
<use x="725.156714" y="163.9907" xlink:href="#g"/>
<use x="734.783898" y="163.9907" xlink:href="#p"/>
<use x="744.411083" y="163.9907" xlink:href="#f"/>
<use x="748.53702" y="163.9907" xlink:href="#k"/>
<use x="756.788893" y="163.9907" xlink:href="#q"/>
<use x="766.416078" y="163.9907" xlink:href="#e"/>
<use x="776.043262" y="163.9907" xlink:href="#j"/>
</g>
<g>
<use x="699.566406" y="199.963356" xlink:href="#w"/>
<use x="711.944215" y="199.963356" xlink:href="#q"/>
<use x="721.5714" y="199.963356" xlink:href="#j"/>
<use x="727.072649" y="199.963356" xlink:href="#c"/>
<use x="731.198585" y="199.963356" xlink:href="#i"/>
<use x="739.450458" y="199.963356" xlink:href="#f"/>
<use x="743.576394" y="199.963356" xlink:href="#g"/>
<use x="753.203579" y="199.963356" xlink:href="#b"/>
<use x="762.830764" y="199.963356" xlink:href="#a"/>
<use x="769.707325" y="199.963356" xlink:href="#v"/>
<use x="779.33451" y="199.963356" xlink:href="#b"/>
</g>
<path transform="matrix(1.3753 0 0 1.3741 44.195 -8.5648)" d="m85.367 20.862 98.455 65.024" fill="none" stroke="#000"/>
<path transform="matrix(.45904 .30292 -.30318 .45864 300.1 112.16)" d="m-2.5024-1.0024c0.004952 2.7647-2.2357 5.0026-4.9995 5.0054-2.7579-0.001155-4.9968-2.2443-4.9978-5.0031s2.2396-4.9967 5.0034-4.9994c2.7579 0.001154 4.9928 2.2384 4.9939 4.9972z" fill-rule="evenodd" stroke="#000" stroke-width="1.25"/>
<path transform="matrix(1.3753 0 0 1.3741 44.195 -8.5648)" d="m85.367 47.04 78.477 34.923" fill="none" stroke="#000"/>
<path transform="matrix(.5026 .22348 -.22367 .50217 273.03 106.22)" d="m-2.5012-1.0021c7.85e-4 2.7611-2.2356 5.001-5.0016 5.0029-2.7595-9.86e-4 -4.9995-2.2401-5.0003-5.0012s2.245-4.9974 5.0045-4.9964c2.7566-0.005507 4.9995 2.2401 4.9974 4.9947z" fill-rule="evenodd" stroke="#000" stroke-width="1.25"/>
<path transform="matrix(1.3753 0 0 1.3741 44.195 -8.5648)" d="m85.367 73.219 61.975 23.234" fill="none" stroke="#000"/>
<path transform="matrix(.51512 .19294 -.19311 .51467 250.46 125.91)" d="m-2.501-0.99659c0.001327 2.7546-2.2366 4.9976-4.9985 4.9932-2.7594 0.002257-5.0023-2.2384-4.997-4.9955-0.003822-2.7612 2.2366-4.9976 4.996-4.9999s5.0023 2.2384 4.9995 5.0021z" fill-rule="evenodd" stroke="#000" stroke-width="1.25"/>
<path transform="matrix(1.3753 0 0 1.3741 44.195 -8.5648)" d="m85.367 99.397 98.875 28.507" fill="none" stroke="#000"/>
<path transform="matrix(.52859 .15228 -.15241 .52814 301.35 168.85)" d="m-2.5018-1.0016c0.004364 2.7576-2.238 5.0017-4.9956 4.998-2.7624 0.005066-5.0039-2.2332-5.0035-4.9995 0.00246-2.7595 2.24-4.9949 5.0024-5 2.7575 0.00373 4.9991 2.242 4.9966 5.0015z" fill-rule="evenodd" stroke="#000" stroke-width="1.25"/>
<path transform="matrix(1.3753 0 0 1.3741 44.195 -8.5648)" d="m85.367 125.58 79.703 2.7631" fill="none" stroke="#000"/>
<path transform="matrix(.54979 .019055 -.019072 .54932 275.27 168.48)" d="m-2.5025-1.0001c0.003341 2.759-2.2352 4.9984-4.9989 5.0018-2.7568-0.003924-5.0016-2.2443-4.9978-5.0035-0.003341-2.759 2.2423-4.9986 4.9991-4.9947 2.7566-0.003179 5.0013 2.2372 4.9976 4.9964z" fill-rule="evenodd" stroke="#000" stroke-width="1.25"/>
<path transform="matrix(1.3753 0 0 1.3741 44.195 -8.5648)" d="m85.367 151.75h82.348" fill="none" stroke="#000"/>
<path transform="matrix(.55012 0 0 .54965 278.93 200.51)" d="m-2.5032-1.0034c0 2.7645-2.2367 5.0032-4.9989 5.0032-2.7551 0-4.9989-2.2386-4.9989-5.0032 0-2.7574 2.2438-4.9961 4.9989-4.9961 2.7622 0 4.9989 2.2386 4.9989 4.9961z" fill-rule="evenodd" stroke="#000" stroke-width="1.25"/>
<path transform="matrix(1.3753 0 0 1.3741 44.195 -8.5648)" d="m85.367 177.93 70.243-20.348" fill="none" stroke="#000"/>
<path transform="matrix(.5284 -.15294 .15308 .52794 262.27 207.37)" d="m-2.4977-1.0017c-0.001021 2.7595-2.2406 5.0038-5.0049 5.002-2.7575 2.51e-4 -4.9991-2.2399-4.998-4.9994 0.001021-2.7595 2.2406-5.0038 4.9981-5.004 2.7643 0.001724 5.0059 2.2419 5.0049 5.0014z" fill-rule="evenodd" stroke="#000" stroke-width="1.25"/>
<path transform="matrix(1.3753 0 0 1.3741 44.195 -8.5648)" d="m85.367 204.11 89.145-38.286" fill="none" stroke="#000"/>
<path transform="matrix(.50548 -.21691 .2171 .50504 288.16 218.2)" d="m-2.4968-1.0005c-0.002995 2.7599-2.2406 5.001-5.0054 4.9969-2.7611 0.005262-4.9966-2.2388-4.9964-4.9922-0.00353-2.7627 2.2406-5.001 5.0017-5.0063 2.7583 0.001268 4.9966 2.2388 5.0002 5.0015z" fill-rule="evenodd" stroke="#000" stroke-width="1.25"/>
<path transform="matrix(1.3753 0 0 1.3741 44.195 -8.5648)" d="m85.367 230.29 91.525-47.996" fill="none" stroke="#000"/>
<path transform="matrix(.48719 -.25528 .2555 .48677 291.34 240.52)" d="m-2.4966-1.0007c-0.003512 2.7587-2.2459 5.0012-5.0033 4.9997-2.7606 0.00474-5.0005-2.2372-5.0033-4.9992 0.003512-2.7587 2.2459-5.0012 5.0033-4.9997 2.7573 0.001553 5.0005 2.2372 5.0033 4.9992z" fill-rule="evenodd" stroke="#000" stroke-width="1.25"/>
<path transform="matrix(1.3753 0 0 1.3741 44.195 -8.5648)" d="m460.66 99.397-107.07 7.5758" fill="none" stroke="#000"/>
<path transform="matrix(-.54875 .038799 -.038832 -.54828 526.4 138.17)" d="m-2.5027-1.0035c0.00368 2.7646-2.2407 5.0068-4.9953 5.0042-2.7617-0.00307-5.0022-2.242-4.9993-4.999-0.003679-2.7646 2.2402-4.9997 4.9953-5.0042 2.7617 0.00307 5.0022 2.242 4.9993 4.999z" fill-rule="evenodd" stroke="#000" stroke-width="1.25"/>
<path transform="matrix(1.3753 0 0 1.3741 44.195 -8.5648)" d="m460.66 73.747-112.22 8.5452" fill="none" stroke="#000"/>
<path transform="matrix(-.54854 .041737 -.041773 -.54806 519.31 104.28)" d="m-2.5007-1.002c0.003022 2.7657-2.2397 5.0039-5.0025 5.0002-2.7562 0.003925-4.9993-2.241-4.9958-4.999-0.003562-2.7586 2.2392-4.9968 5.0025-5.0002 2.7557 0.003161 4.9993 2.241 4.9958 4.999z" fill-rule="evenodd" stroke="#000" stroke-width="1.25"/>
<path transform="matrix(1.3753 0 0 1.3741 44.195 -8.5648)" d="m460.66 46.076-121.73 11.007" fill="none" stroke="#000"/>
<path transform="matrix(-.54789 .049493 -.049536 -.54742 506.23 69.694)" d="m-2.5027-0.99945c-1.41e-4 2.7615-2.2345 5-5.0007 4.9996-2.7592 2.86e-4 -4.9947-2.2427-4.9952-4.9971 1.41e-4 -2.7615 2.2415-4.9993 5.0007-4.9996 2.7592-2.87e-4 4.9954 2.2356 4.9952 4.9971z" fill-rule="evenodd" stroke="#000" stroke-width="1.25"/>
<path transform="matrix(1.3753 0 0 1.3741 44.195 -8.5648)" d="m460.66 20.862-136.67 9.8301" fill="none" stroke="#000"/>
<path transform="matrix(-.54871 .039431 -.039465 -.54823 485.69 33.352)" d="m-2.501-0.99888c0.001002 2.7575-2.2389 4.9976-5.0011 4.9984-2.7552 0.001343-5.0001-2.2407-5.0011-4.9982 0.00659-2.7641 2.2465-5.0042 5.0011-4.9984 2.7622-8.34e-4 5.0006 2.2336 5.0011 4.9982z" fill-rule="evenodd" stroke="#000" stroke-width="1.25"/>
<path transform="matrix(1.3753 0 0 1.3741 44.195 -8.5648)" d="m460.66 125.58-114.91 13.298" fill="none" stroke="#000"/>
<path transform="matrix(-.54648 .063199 -.063253 -.546 515.61 182.19)" d="m-2.5003-1.0025c0.001995 2.7618-2.237 4.9994-4.9965 5.002-2.7665 0.001725-5.0018-2.2387-5.0038-5.0005s2.2441-4.9986 5.0035-5.0012c2.7586 0.004518 4.994 2.245 4.9968 4.9997z" fill-rule="evenodd" stroke="#000" stroke-width="1.25"/>
<path transform="matrix(1.3753 0 0 1.3741 44.195 -8.5648)" d="m460.66 152.28-61.299 9.0427" fill="none" stroke="#000"/>
<path transform="matrix(-.54424 .08021 -.08028 -.54377 589.34 213.16)" d="m-2.4975-1.0003c-0.004865 2.7578-2.2447 4.9992-5.0013 5.002-2.7626-0.005217-5.0026-2.2393-5.0037-5.0052 0.004865-2.7578 2.2447-4.9992 5.0002-4.995 2.7636-0.001814 5.0026 2.2393 5.0047 4.9982z" fill-rule="evenodd" stroke="#000" stroke-width="1.25"/>
</svg>
