<?xml version="1.0" encoding="UTF-8"?>
<svg width="800px" height="263px" version="1.1" viewBox="0 0 800 263" xmlns="http://www.w3.org/2000/svg" xmlns:xlink="http://www.w3.org/1999/xlink">
<defs>
<symbol id="f" overflow="visible">
<path d="m3.125-21.078h11.188v2.4062h-8.5781v5.1719c0.41406-0.14453 0.82812-0.25391 1.2344-0.32812 0.41406-0.070313 0.83203-0.10938 1.25-0.10938 2.3516 0 4.2188 0.64844 5.5938 1.9375 1.375 1.293 2.0625 3.0391 2.0625 5.2344 0 2.2734-0.71094 4.0391-2.125 5.2969-1.4062 1.25-3.3984 1.875-5.9688 1.875-0.88672 0-1.7891-0.078125-2.7031-0.23438-0.91797-0.14844-1.8672-0.36719-2.8438-0.67188v-2.8594c0.84375 0.46094 1.7188 0.80469 2.625 1.0312 0.90625 0.23047 1.8594 0.34375 2.8594 0.34375 1.6328 0 2.9258-0.42578 3.875-1.2812 0.94531-0.86328 1.4219-2.0312 1.4219-3.5s-0.47656-2.6289-1.4219-3.4844c-0.94922-0.85156-2.2422-1.2812-3.875-1.2812-0.76172 0-1.5234 0.089844-2.2812 0.26562-0.75 0.16797-1.5234 0.42969-2.3125 0.78125z"/>
</symbol>
<symbol id="a" overflow="visible">
<path d="m15.047-12.781c0.64453-1.1641 1.4141-2.0234 2.3125-2.5781 0.90625-0.55078 1.9727-0.82812 3.2031-0.82812 1.6445 0 2.9141 0.57812 3.8125 1.7344 0.89453 1.1484 1.3438 2.7812 1.3438 4.9062v9.5469h-2.6094v-9.4531c0-1.5195-0.27344-2.6445-0.8125-3.375-0.53125-0.73828-1.3516-1.1094-2.4531-1.1094-1.3438 0-2.4062 0.44922-3.1875 1.3438-0.78125 0.89844-1.1719 2.1172-1.1719 3.6562v8.9375h-2.625v-9.4531c0-1.5312-0.27344-2.6602-0.8125-3.3906-0.53125-0.72656-1.3555-1.0938-2.4688-1.0938-1.3359 0-2.3906 0.45312-3.1719 1.3594-0.78125 0.89844-1.1719 2.1094-1.1719 3.6406v8.9375h-2.6094v-15.812h2.6094v2.4531c0.59375-0.96875 1.3008-1.6797 2.125-2.1406 0.83203-0.45703 1.8203-0.6875 2.9688-0.6875 1.1445 0 2.1172 0.29297 2.9219 0.875 0.8125 0.58594 1.4102 1.4297 1.7969 2.5312z"/>
</symbol>
<symbol id="e" overflow="visible">
<path d="m3.5938-2.4062h4.6562v-16.062l-5.0781 1.0156v-2.6094l5.0469-1.0156h2.8594v18.672h4.6562v2.4062h-12.141z"/>
</symbol>
<symbol id="t" overflow="visible">
<path d="m3.3906-3.5781h2.9844v2.4219l-2.3281 4.5156h-1.8125l1.1562-4.5156z"/>
</symbol>
<symbol id="s" overflow="visible">
<path d="m11.953-7.3594-0.625-3.25c-0.42969-2.2266-1.4805-3.3438-3.1562-3.3438-1.2617 0-2.1797 0.51562-2.75 1.5469-0.73047 1.3047-1.0938 2.8086-1.0938 4.5156 0 2.0742 0.35156 3.6055 1.0625 4.5938 0.71875 1 1.6445 1.5 2.7812 1.5 1.2578 0 2.2266-1 2.9062-3zm1.4531-4.3125 1.3906-4.1406h2.3125l-2.8906 8.5781 0.5625 3.0781c0.082031 0.46875 0.28906 0.89844 0.625 1.2812 0.38281 0.44922 0.72656 0.67188 1.0312 0.67188h1.25v2.2031h-1.5625c-0.88672 0-1.7266-0.39453-2.5156-1.1875-0.38672-0.39453-0.65625-1.0039-0.8125-1.8281-0.4375 1.043-1.1016 1.9766-1.9844 2.7969-0.40625 0.38281-1.2891 0.57812-2.6406 0.57812-2.2109 0-3.8516-0.71875-4.9219-2.1562-1.1055-1.4766-1.6562-3.5078-1.6562-6.0938 0-2.7695 0.59766-4.8008 1.7969-6.0938 1.3203-1.4453 2.9141-2.1719 4.7812-2.1719 2.9258 0 4.6719 1.4961 5.2344 4.4844z"/>
</symbol>
<symbol id="r" overflow="visible">
<path d="m3.0625-13.125h18.109v2.375h-18.109zm0 5.75h18.109v2.4062h-18.109z"/>
</symbol>
<symbol id="q" overflow="visible">
<path d="m0.5625-15.812 2.4531-5.2656h2.8594l-4.0781 5.2656z"/>
</symbol>
<symbol id="p" overflow="visible">
<path d="m6.5156-15.953c-0.91797 1.5742-1.6016 3.1328-2.0469 4.6719-0.4375 1.543-0.65625 3.1016-0.65625 4.6719 0 1.5859 0.22266 3.1523 0.67188 4.7031 0.44531 1.5547 1.125 3.1094 2.0312 4.6719h-1.6406c-1.0234-1.6055-1.7891-3.1797-2.2969-4.7344-0.51172-1.5508-0.76562-3.0977-0.76562-4.6406 0-1.5195 0.25-3.0508 0.75-4.5938 0.50781-1.5508 1.2812-3.1328 2.3125-4.75z"/>
</symbol>
<symbol id="d" overflow="visible">
<path d="m7.2031-5.7812c-1.5234 0-2.5781 0.17969-3.1719 0.53125-0.58594 0.34375-0.875 0.9375-0.875 1.7812 0 0.66797 0.21875 1.1992 0.65625 1.5938 0.44531 0.39844 1.0508 0.59375 1.8125 0.59375 1.0391 0 1.8789-0.36719 2.5156-1.1094 0.63281-0.75 0.95312-1.7383 0.95312-2.9688v-0.42188zm3.7812-0.78125v6.5625h-1.8906v-1.75c-0.4375 0.69922-0.98047 1.2148-1.625 1.5469-0.63672 0.33203-1.4219 0.5-2.3594 0.5-1.1797 0-2.1172-0.32812-2.8125-0.98438-0.6875-0.66406-1.0312-1.5508-1.0312-2.6562 0-1.2891 0.42969-2.2656 1.2969-2.9219 0.86328-0.66406 2.1562-1 3.875-1h2.6562v-0.17188c0-0.875-0.28906-1.5469-0.85938-2.0156-0.57422-0.47656-1.375-0.71875-2.4062-0.71875-0.65625 0-1.2969 0.078125-1.9219 0.23438s-1.2266 0.39062-1.7969 0.70312v-1.75c0.6875-0.25781 1.3516-0.45703 2-0.59375 0.65625-0.13281 1.2891-0.20312 1.9062-0.20312 1.6641 0 2.9102 0.43359 3.7344 1.2969 0.82031 0.86719 1.2344 2.1719 1.2344 3.9219z"/>
</symbol>
<symbol id="c" overflow="visible">
<path d="m3.8438-14.766v3.2656h3.9062v1.4688h-3.9062v6.2344c0 0.94922 0.12891 1.5586 0.39062 1.8281 0.25781 0.26172 0.78125 0.39062 1.5625 0.39062h1.9531v1.5781h-1.9531c-1.4609 0-2.4648-0.26953-3.0156-0.8125-0.55469-0.53906-0.82812-1.5352-0.82812-2.9844v-6.2344h-1.3906v-1.4688h1.3906v-3.2656z"/>
</symbol>
<symbol id="b" overflow="visible"></symbol>
<symbol id="k" overflow="visible">
<path d="m2.2656-15.328h8.1406v1.7344h-6.2344v3.7656c0.30078-0.10156 0.60156-0.17969 0.90625-0.23438 0.30078-0.050781 0.60156-0.078125 0.90625-0.078125 1.707 0 3.0625 0.46875 4.0625 1.4062s1.5 2.2109 1.5 3.8125c0 1.6562-0.51562 2.9453-1.5469 3.8594-1.0234 0.90625-2.4688 1.3594-4.3438 1.3594-0.64844 0-1.3047-0.058594-1.9688-0.17188-0.66797-0.10547-1.3555-0.26562-2.0625-0.48438v-2.0781c0.61328 0.33594 1.25 0.58594 1.9062 0.75 0.65625 0.15625 1.3516 0.23438 2.0938 0.23438 1.1758 0 2.1094-0.30469 2.7969-0.92188 0.69531-0.625 1.0469-1.4727 1.0469-2.5469 0-1.0625-0.35156-1.9062-1.0469-2.5312-0.6875-0.625-1.6211-0.9375-2.7969-0.9375-0.5625 0-1.1211 0.0625-1.6719 0.1875-0.55469 0.125-1.1172 0.32031-1.6875 0.57812z"/>
</symbol>
<symbol id="j" overflow="visible">
<path d="m10.938-9.2969c0.46875-0.84375 1.0312-1.4688 1.6875-1.875s1.4297-0.60938 2.3281-0.60938c1.1953 0 2.1172 0.42188 2.7656 1.2656 0.65625 0.83594 0.98438 2.0273 0.98438 3.5781v6.9375h-1.9062v-6.875c0-1.1016-0.19922-1.9219-0.59375-2.4531-0.38672-0.53906-0.98047-0.8125-1.7812-0.8125-0.98047 0-1.7578 0.32812-2.3281 0.98438-0.5625 0.64844-0.84375 1.5312-0.84375 2.6562v6.5h-1.8906v-6.875c0-1.1133-0.19922-1.9375-0.59375-2.4688-0.38672-0.53125-0.98438-0.79688-1.7969-0.79688-0.96875 0-1.7422 0.32812-2.3125 0.98438-0.5625 0.65625-0.84375 1.543-0.84375 2.6562v6.5h-1.9062v-11.5h1.9062v1.7812c0.42578-0.69531 0.94141-1.2109 1.5469-1.5469 0.60156-0.34375 1.3164-0.51562 2.1406-0.51562 0.84375 0 1.5547 0.21484 2.1406 0.64062 0.58203 0.42969 1.0156 1.043 1.2969 1.8438z"/>
</symbol>
<symbol id="i" overflow="visible">
<path d="m9.5469-9.75v-6.2344h1.8906v15.984h-1.8906v-1.7188c-0.39844 0.67969-0.89844 1.1836-1.5 1.5156-0.60547 0.33203-1.3359 0.5-2.1875 0.5-1.3867 0-2.5156-0.55078-3.3906-1.6562-0.875-1.1133-1.3125-2.5703-1.3125-4.375 0-1.8125 0.4375-3.2695 1.3125-4.375 0.875-1.1133 2.0039-1.6719 3.3906-1.6719 0.85156 0 1.582 0.16797 2.1875 0.5 0.60156 0.33594 1.1016 0.84375 1.5 1.5312zm-6.4375 4.0156c0 1.3867 0.28516 2.4766 0.85938 3.2656 0.57031 0.79297 1.3594 1.1875 2.3594 1.1875s1.7852-0.39453 2.3594-1.1875c0.57031-0.78906 0.85938-1.8789 0.85938-3.2656 0-1.3945-0.28906-2.4883-0.85938-3.2812-0.57422-0.78906-1.3594-1.1875-2.3594-1.1875s-1.7891 0.39844-2.3594 1.1875c-0.57422 0.79297-0.85938 1.8867-0.85938 3.2812z"/>
</symbol>
<symbol id="h" overflow="visible">
<path d="m1.9844-11.5h1.8906v11.5h-1.8906zm0-4.4844h1.8906v2.3906h-1.8906z"/>
</symbol>
<symbol id="g" overflow="visible">
<path d="m9.3125-11.156v1.7812c-0.53125-0.26953-1.0898-0.47266-1.6719-0.60938-0.57422-0.14453-1.168-0.21875-1.7812-0.21875-0.9375 0-1.6406 0.14844-2.1094 0.4375-0.46875 0.29297-0.70312 0.72656-0.70312 1.2969 0 0.4375 0.16406 0.78125 0.5 1.0312 0.34375 0.25 1.0195 0.49219 2.0312 0.71875l0.64062 0.14062c1.3438 0.28125 2.2969 0.6875 2.8594 1.2188 0.57031 0.52344 0.85938 1.25 0.85938 2.1875 0 1.0625-0.42969 1.9062-1.2812 2.5312-0.84375 0.625-2.0078 0.9375-3.4844 0.9375-0.61719 0-1.2578-0.0625-1.9219-0.1875-0.66797-0.11328-1.3711-0.28906-2.1094-0.53125v-1.9531c0.69531 0.36719 1.3828 0.64062 2.0625 0.82812 0.67578 0.17969 1.3477 0.26562 2.0156 0.26562 0.88281 0 1.5664-0.14844 2.0469-0.45312 0.47656-0.3125 0.71875-0.74219 0.71875-1.2969 0-0.50781-0.17188-0.89844-0.51562-1.1719-0.34375-0.28125-1.1016-0.54688-2.2656-0.79688l-0.67188-0.15625c-1.168-0.25-2.0117-0.62891-2.5312-1.1406-0.52344-0.50781-0.78125-1.207-0.78125-2.0938 0-1.082 0.37891-1.9141 1.1406-2.5 0.76953-0.59375 1.8633-0.89062 3.2812-0.89062 0.69531 0 1.3516 0.054688 1.9688 0.15625 0.61328 0.10547 1.1797 0.26172 1.7031 0.46875z"/>
</symbol>
<symbol id="o" overflow="visible">
<path d="m11.547-6.9375v6.9375h-1.8906v-6.875c0-1.0938-0.21484-1.9102-0.64062-2.4531-0.42969-0.53906-1.0625-0.8125-1.9062-0.8125-1.0234 0-1.8281 0.32812-2.4219 0.98438-0.58594 0.64844-0.875 1.5312-0.875 2.6562v6.5h-1.9062v-11.5h1.9062v1.7812c0.44531-0.6875 0.97656-1.2031 1.5938-1.5469 0.61328-0.34375 1.3203-0.51562 2.125-0.51562 1.3203 0 2.3203 0.41406 3 1.2344 0.67578 0.8125 1.0156 2.0156 1.0156 3.6094z"/>
</symbol>
<symbol id="n" overflow="visible">
<path d="m10.266-11.062v1.7656c-0.54297-0.28906-1.0859-0.50781-1.625-0.65625-0.53125-0.14453-1.0703-0.21875-1.6094-0.21875-1.2305 0-2.1836 0.39062-2.8594 1.1719-0.67969 0.77344-1.0156 1.8594-1.0156 3.2656 0 1.3984 0.33594 2.4844 1.0156 3.2656 0.67578 0.78125 1.6289 1.1719 2.8594 1.1719 0.53906 0 1.0781-0.070313 1.6094-0.21875 0.53906-0.15625 1.082-0.37891 1.625-0.67188v1.75c-0.53125 0.24219-1.0781 0.42188-1.6406 0.54688s-1.168 0.1875-1.8125 0.1875c-1.7305 0-3.1055-0.53906-4.125-1.625-1.0234-1.0938-1.5312-2.5625-1.5312-4.4062 0-1.875 0.51562-3.3477 1.5469-4.4219 1.0312-1.082 2.4414-1.625 4.2344-1.625 0.58203 0 1.1484 0.0625 1.7031 0.1875 0.5625 0.11719 1.1016 0.29297 1.625 0.53125z"/>
</symbol>
<symbol id="m" overflow="visible">
<path d="m11.812-6.2188v0.92188h-8.6875c0.082031 1.3047 0.47266 2.2969 1.1719 2.9844 0.70703 0.67969 1.6875 1.0156 2.9375 1.0156 0.72656 0 1.4297-0.085937 2.1094-0.26562 0.6875-0.1875 1.3633-0.45703 2.0312-0.8125v1.7969c-0.67969 0.28125-1.375 0.49609-2.0938 0.64062-0.71094 0.15625-1.4297 0.23438-2.1562 0.23438-1.8359 0-3.2891-0.53125-4.3594-1.5938-1.0742-1.0703-1.6094-2.5195-1.6094-4.3438 0-1.8828 0.50391-3.3789 1.5156-4.4844 1.0195-1.1016 2.3945-1.6562 4.125-1.6562 1.5508 0 2.7734 0.5 3.6719 1.5 0.89453 0.99219 1.3438 2.3438 1.3438 4.0625zm-1.875-0.5625c-0.023438-1.0312-0.3125-1.8516-0.875-2.4688-0.5625-0.61328-1.3125-0.92188-2.25-0.92188-1.0547 0-1.8984 0.29688-2.5312 0.89062-0.625 0.59375-0.99219 1.4336-1.0938 2.5156z"/>
</symbol>
<symbol id="l" overflow="visible">
<path d="m1.6875-15.953h1.6406c1.0312 1.6172 1.7969 3.1992 2.2969 4.75 0.50781 1.543 0.76562 3.0742 0.76562 4.5938 0 1.543-0.25781 3.0898-0.76562 4.6406-0.5 1.5547-1.2656 3.1289-2.2969 4.7344h-1.6406c0.90625-1.5625 1.582-3.1172 2.0312-4.6719 0.44531-1.5508 0.67188-3.1172 0.67188-4.7031 0-1.5703-0.22656-3.1289-0.67188-4.6719-0.44922-1.5391-1.125-3.0977-2.0312-4.6719z"/>
</symbol>
</defs>
<path d="m764.21 138.82c5.3281-8.3711 8.1289-18.535 8.1289-26.754 0-2.2422 0-4.3359-0.28125-6.5781-0.13672-1.793 0.84375-4.0352 0.5625-5.8281-0.41797-1.9414-1.9609-3.4375-2.5234-5.3789-0.69922-2.543-1.6797-5.082-2.8008-7.625-7.0117-13.598-21.449-24.359-35.469-24.359-11.215 0-25.234 5.082-33.086 13.449l-0.14062 0.15234c-0.98047 1.0469-1.1211 1.793-1.543 3.4336-0.55859 1.9453 0 2.3945-0.83984 2.9922-0.69922 0.59766-1.4023 0.29688-1.2617 0.89844 0.14062 0.74609 0.69922 0.44531 0.28125 1.793-0.42188 1.3438-0.98047 1.3438-1.2617 1.6406-0.5625 0.89844 1.1211 1.6445 0 2.3945-0.98047 0.74609-0.84375-1.0469-2.2422-1.1953-0.98438-0.15234-1.6836 1.3438-1.8242 3.4375-0.14062 1.1953-0.14062 3.1367-0.14062 3.8828 0 0.75-0.27734 1.7969-0.27734 2.9883 0 1.3477-0.28125 2.8398-0.70312 3.7383l0.42188 0.14844c1.1211-5.6797 3.6445-9.5625 6.4453-9.5625 4.0664 0 7.293 7.4727 7.293 16.59v-0.15234 0.15234c0 9.1133-3.2266 16.586-7.293 16.586-2.9414 0-5.4648-4.0312-6.5859-9.8594l-0.14062 0.29687c0.41797 0.74609 0.5625 2.2422 0.5625 3.7344 0 1.1953 0.27734 2.2422 0.27734 2.9883 0 0.75 0 2.6914 0.14062 3.8867 0.14062 2.0938 0.83984 3.5859 1.8242 3.4375 1.3984-0.14844 1.543-2.3906 2.5195-1.6445 0.98438 0.75-0.27734 1.9453 0.28125 2.8398 0.28125 0.30078 0.83984 0.15234 1.2656 1.4961 0.41797 1.3477-0.14453 1.0469-0.28125 1.793-0.28125 0.59766 0 0.44922 0.69922 1.0469 0.83984 0.59766 0.28125 1.0469 0.83984 2.9883 0.42187 1.6445 0.5625 2.2422 1.4023 3.2891 7.9922 8.2188 22.711 14.199 33.367 14.199 11.496 0 24.812-6.7266 32.383-17.336" fill="#efc2a3" fill-rule="evenodd"/>
<path d="m689.29 131.68h-0.42187c0.83984 1.6406 1.8242 3.2812 2.8047 4.9258v-0.14844 0.14844c0.14062 0.14844 0.14062 0.14844 0.28125 0.29688 0.41797 0.59766 0.84375 1.1953 1.2617 1.9414 0.14062 0.30078 0.42188 0.44922 0.5625 0.75 0.14062 0.29688 0.28125 0.44531 0.41797 0.59375 0.28125 0.30078 0.5625 0.59766 0.70313 0.89844 0.28125 0.29687 0.41797 0.44531 0.5625 0.74609 0.13672 0.14844 0.28125 0.29688 0.41797 0.44531 0.42188 0.44922 0.84375 1.0469 1.2617 1.4961 0.14062 0.14844 0.28125 0.29687 0.42188 0.44531 0.28125 0.30078 0.42188 0.44922 0.69922 0.74609 2.1055 2.2422 4.4883 4.332 7.0117 6.2734 0.14453 0.14844 0.14453 0.14844 0.28125 0.14844 0.5625 0.44922 1.1211 0.89844 1.6836 1.3438 0.14062 0 0.28125 0.14844 0.42188 0.14844 1.6836 1.1953 3.5039 2.2422 5.1875 3.1367 0.28125 0.14844 0.5625 0.30078 0.98047 0.44922 0.42188 0.14844 0.84375 0.29688 1.2656 0.59375 0.41797 0.15234 0.83984 0.30078 1.1211 0.44922 0.42188 0.15234 0.83984 0.30078 1.2617 0.44922 0.5625 0.14844 0.98047 0.29688 1.543 0.59766 0.28125 0 0.69922 0.14844 0.98047 0.30078 0.83984 0.14844 1.6836 0.44531 2.3828 0.59375 0.28125 0.14844 0.5625 0.14844 0.98438 0.14844 0.5625 0.15234 1.1211 0.30078 1.6836 0.44922 0.27734 0 0.69922 0 0.98047 0.14844 0.5625 0 1.1211 0.14844 1.8242 0.14844 0.27734 0 0.55859 0 0.83984 0.15234h5.6094c16.266-1.0469 30.152-9.707 36.883-24.789 0.41797-0.89453 2.1016-3.582 4.9062-5.2227-3.6445-1.3438-7.5703 6.7188-10.234 10.453-7.9961 11.348-22.297 17.469-34.641 17.469-11.641 0-23.137-5.9727-31.551-15.082l-0.84375-0.74609c-1.2617-1.3438-1.2617-1.9414-1.8242-3.8828-0.55859-1.9414 0-2.3906-0.83984-2.9883-0.69922-0.59375-0.98047-0.44531-0.69922-1.043 0.13672-0.74609 0.69922-0.44922 0.28125-1.793-0.42578-1.3438-0.98438-1.1914-1.2656-1.4922-0.55859-0.89453 0.70313-2.0898-0.28125-2.8359-0.98047-0.75-1.1211 1.4922-2.5234 1.6406-0.98047 0.14844-1.6836-1.3438-1.8203-3.4336-0.14453-1.1953-0.14453-3.1367-0.14453-3.8828 0-0.74609-0.27734-1.793-0.27734-2.9883 0-1.7891-0.42188-3.7305-0.98047-4.1797-1.125-0.59766-0.98438 0.44922-1.4062 2.5391-0.27734 2.2422 0.42188 2.5391 0.5625 3.1367s-0.41797 0.59766-0.14062 1.1953c0.14062 0.74609 0.5625 0.89453 0.70312 1.6406 0.28125 0.59766-0.42188 0.44922-0.28125 1.3438 0.14062 0.74609 0.69922 0.74609 0.83984 1.4961 0.14063 0.74219-0.14062 1.043 0 1.9375 0.14063 0.75 0.84375 0.89844 1.125 1.6445 0.27734 0.74609 0.27734 1.0469-0.5625 1.0469" fill="#a31e47" fill-rule="evenodd"/>
<path d="m776.95 101.75c-0.14062-0.59766-0.28125-1.3438-0.42187-2.0898v-0.14844c-0.83984-3.2891-1.9609-6.5742-3.2227-9.7109-0.14453-0.14844-0.14453-0.14844-0.14453-0.29688-0.27734-0.44922-0.41797-1.0469-0.69922-1.4961-0.14062-0.14844-0.14062-0.29687-0.28125-0.44531-0.14062-0.44922-0.41797-0.89844-0.5625-1.3438-0.13672-0.14844-0.27734-0.44922-0.27734-0.60156-0.28125-0.44531-0.5625-0.89453-0.69922-1.1914-0.14453-0.30078-0.28125-0.44922-0.42578-0.74609-0.13672-0.30078-0.41797-0.75-0.55859-1.1953-0.14062-0.14844-0.28125-0.44922-0.42188-0.59766-0.28125-0.44922-0.55859-0.74609-0.69922-1.0469-0.14062-0.30078-0.28125-0.59766-0.42188-0.74609-0.28125-0.44922-0.5625-0.75-0.69922-1.0469-0.28125-0.29688-0.42188-0.44531-0.5625-0.74609-0.28125-0.30078-0.42188-0.59766-0.70312-1.0469-0.14062-0.14844-0.42188-0.44531-0.55859-0.74609-0.28125-0.29687-0.42188-0.59766-0.70313-0.89453-0.28125-0.15234-0.41797-0.44922-0.55859-0.74609-0.28125-0.30078-0.5625-0.60156-0.84375-0.89844-0.14062-0.14844-0.42188-0.44531-0.55859-0.59766-0.28125-0.30078-0.5625-0.59766-0.84375-0.89453-0.14062-0.30078-0.42188-0.44922-0.55859-0.74609-0.28125-0.15234-0.5625-0.44922-0.84375-0.75-0.28125-0.29688-0.41797-0.44531-0.69922-0.74609-0.28125-0.14844-0.5625-0.44531-0.84375-0.74609-0.14062-0.14844-0.42187-0.44531-0.69922-0.59766-0.28125-0.29688-0.5625-0.44922-0.84375-0.74609-0.14062-0.14844-0.42188-0.44922-0.70312-0.59766-0.27734-0.14844-0.55859-0.44922-0.83984-0.59766-0.28125-0.30078-0.55859-0.44922-0.83984-0.59766-0.28125-0.29687-0.5625-0.44922-0.83984-0.74609l-0.84375-0.44922c-0.28125-0.29688-0.5625-0.44922-0.84375-0.59766-0.27734-0.14844-0.55859-0.44531-0.83984-0.59375-0.28125-0.15234-0.5625-0.30078-0.83984-0.44922-0.28125-0.30078-0.5625-0.44922-0.98438-0.59766l-0.83984-0.44922c-0.28125-0.14844-0.5625-0.30078-0.98047-0.44922-0.28125-0.14844-0.5625-0.29688-0.84375-0.44531-0.28125-0.14844-0.69922-0.30078-0.98047-0.44922-0.28125-0.15234-0.5625-0.15234-0.83984-0.30078-0.42188-0.14844-0.70312-0.29688-1.125-0.44531-0.28125 0-0.55859-0.14844-0.83984-0.30078-0.28125-0.14844-0.69922-0.14844-0.98047-0.29688-0.42188-0.15234-0.70313-0.15234-0.98438-0.30078-0.28125-0.14844-0.70312-0.14844-1.1211-0.29688-0.28125 0-0.5625-0.14844-0.83984-0.14844-0.42188-0.15234-0.84375-0.15234-1.125-0.30078-0.28125 0-0.5625-0.14844-0.98047-0.14844-0.28125 0-0.70312-0.15234-1.1211-0.15234-0.28125 0-0.5625-0.14844-0.84375-0.14844-0.5625 0-0.98047 0-1.4023-0.14844h-5.75c-0.41797 0-0.69922 0.14844-0.98047 0.14844-0.70312 0-1.2617 0.14844-1.9648 0.14844-0.28125 0.15234-0.69922 0.15234-1.1211 0.30078-0.28125 0-0.5625 0.14844-0.84375 0.14844-0.27734 0-0.55859 0.15234-0.83984 0.15234-0.42188 0.14844-0.83984 0.29688-1.2617 0.29688-0.14062 0-0.28125 0.14844-0.42188 0.14844s-0.27734 0-0.42188 0.14844c-0.27734 0-0.41797 0.15234-0.69922 0.15234-0.42188 0.14844-0.84375 0.29688-1.2617 0.44922-0.28125 0-0.42187 0.14844-0.70312 0.14844-0.27734 0.14844-0.41797 0.14844-0.55859 0.29688h-0.28125c-0.42188 0.14844-0.83984 0.44922-1.2617 0.59766h-0.14062c-0.5625 0.15234-0.98047 0.44922-1.4023 0.59766-0.42188 0.14844-0.84375 0.44922-1.2617 0.59766-0.14063 0.14844-0.28125 0.14844-0.42188 0.30078-0.14062 0-0.42187 0.14844-0.5625 0.14844-0.13672 0.14844-0.27734 0.14844-0.41797 0.29688-0.42188 0.14844-0.70312 0.44922-1.125 0.59766-0.41797 0.30078-0.83984 0.44922-1.2617 0.74609h-0.14062c-0.41797 0.30078-0.83984 0.59766-1.2617 0.89844-0.13672 0-0.28125 0.14844-0.28125 0.14844-0.13672 0.14844-0.27734 0.14844-0.41797 0.29688-0.14062 0-0.14062 0-0.28125 0.15234-0.14062 0-0.14062 0.14844-0.28125 0.14844-0.41797 0.29688-0.83984 0.59766-1.2617 0.89453-0.28125 0.30078-0.70312 0.59766-0.98047 0.75l-0.14062 0.14844s-0.14062 0-0.14062 0.14844c-0.42188 0.29688-0.70312 0.59766-1.1211 0.89844-0.42188 0.29688-0.84375 0.59375-1.2656 0.89453-0.27734 0.44922-0.69922 0.74609-0.98047 1.043l-0.14063 0.15234c-0.42187 0.29688-0.69922 0.59766-0.98047 0.89453h-0.14062c-0.28125 0.44922-0.70312 0.74609-0.98047 1.1953-0.42188 0.29688-0.70312 0.59766-0.98438 1.043h-0.13672c-0.28125 0.44922-0.70312 0.75-0.98438 1.1953-0.14062 0.15234-0.42188 0.44922-0.55859 0.60156-0.14063 0.14844-0.28125 0.44531-0.42188 0.59375-0.42187 0.44922-0.69922 0.75-0.98047 1.1953-0.14453 0.14844-0.28125 0.44922-0.42188 0.59766-0.28125 0.30078-0.42188 0.44922-0.5625 0.59766-0.28125 0.44922-0.55859 0.89844-0.83984 1.3438-0.42188 0.59766-0.70312 1.0469-1.1211 1.6445-0.84375 1.3438-1.6836 2.8398-2.5273 4.332h0.42187c0.83984 0 0.83984 0.29687 0.5625 1.0469-0.28125 0.74609-0.98437 0.89453-1.1211 1.6406-0.14453 0.89844 0.13672 0.74609 0 1.3438-0.14453 0.75-0.70312 0.75-0.84375 1.6445-0.14062 0.74609 0.5625 1.1953 0.28125 1.793-0.14062 0.74609-0.5625 0.89453-0.70312 1.6406-0.28125 0.59766 0.28125 0.59766 0.14062 1.1953s-0.83984 0.89844-0.5625 3.1367c0.42188 2.0898 0.14453 3.2852 1.2617 2.6875 0.70312-0.44531 1.125-2.5391 1.125-4.332 0-1.1914 0.28125-2.2383 0.28125-2.9844 0-0.74609 0-2.6875 0.14062-3.8828 0.13672-2.0938 0.83984-3.5859 1.8203-3.4375 1.4023 0.14844 1.2656 1.9414 2.2461 1.1953 1.1211-0.74609-0.5625-1.4922 0-2.3906 0.27734-0.29687 0.83984-0.29687 1.2617-1.6406 0.42187-1.3438-0.14063-1.0469-0.28125-1.793-0.14063-0.59766 0.5625-0.30078 1.2617-0.89453 0.84375-0.60156 0.28125-1.0469 0.84375-2.9922 0.41797-1.7891 0.55859-2.3867 1.6797-3.582 0.14453-0.44922 0.5625-0.74609 0.5625-0.74609 8.5547-8.9609 20.055-14.785 31.977-14.785 15.008 0 30.297 10.156 37.867 24.941 3.9297 7.6172 6.7344 23.898 12.344 26.586-1.8242-2.0898-3.2266-5.2305-4.4883-10.008" fill="#a31e47" fill-rule="evenodd"/>
<path d="m776.43 130.87h0.0625v-0.089844h-0.0625z" fill="#eb785e"/>
<path d="m784.02 114.02c-0.98047-0.59766-1.8242-1.1953-2.5234-2.2422-5.6172-2.6875-8.4219-18.98-12.352-26.605-7.5781-14.797-22.879-24.957-37.895-24.957-11.93 0-23.441 5.8281-32 14.797 0 0-0.28125 0.14844-0.42188 0.44531h0.14062c8-8.2188 21.754-13.152 32.844-13.152 14.035 0 28.488 10.762 35.508 24.363 1.1211 2.5391 2.1016 5.082 2.8047 7.6211 0.5625 1.9453 1.8242 9.418 1.9648 11.211 0.28125 2.2422 0.28125 4.3359 0.28125 6.5781 0 8.2188-2.8047 18.383-8.1406 26.754-7.5781 10.613-20.91 17.336-32.418 17.336-10.246 0-24.141-5.5273-32.422-13.301l-0.14062 0.14844 0.41797 0.30078c8.4219 9.1172 19.934 15.098 31.582 15.098 12.352 0 26.664-6.1289 34.664-17.488 2.668-3.8867 6.8789-12.109 10.527-10.164 1.2656-0.89844 2.6641-1.3477 4.2109-1.3477 4.3516-0.44922 11.086 0.89844 16.422 3.2891 0.83984 0.30078 1.8242 0.74609 2.6641 1.0469v-14.496c-4.0703-1.4961-7.4375-2.3945-8.9805-2.6953-2.8086-0.59375-6.1758-2.2383-6.7383-2.5391" fill="#eb785e" fill-rule="evenodd"/>
<path d="m770.97 116.28c-0.70312 7.1758-3.2305 15.242-7.5859 21.965-7.3047 10.312-20.227 16.738-31.32 16.738 9.6914-1.4961 31.742-8.2188 38.906-38.703" fill="#eba87f" fill-rule="evenodd"/>
<path d="m799.74 131.51c-6.8867-3.4336-14.902-5.6758-22.074-2.9844 3.7969-0.75 10.125-1.4961 22.074 4.0312z" fill="#d94737" fill-rule="evenodd"/>
<path d="m770.14 94.281c-0.70312-2.543-1.6836-5.082-2.8047-7.6211-7.0195-13.602-21.477-24.363-35.516-24.363-11.23 0-25.266 5.082-33.129 13.449l-0.14062 0.15234c-0.98438 1.0469-1.1211 1.793-1.543 3.4336-0.28125 0.89844-0.28125 1.4961-0.28125 1.9453v1.793c-0.14062 2.3906-0.28125 6.2773-0.14062 7.4727 0 0.59766 0.14062 1.0469 0.42187 1.4961v0.30078h0.13672c0 0.29688 0.14453 0.44531 0.28516 0.59375 3.0859 1.793 5.4727 8.3711 5.4727 16.145v-0.15234 0.15234c0 6.7227-1.8242 12.402-4.3516 15.094 0 0.44922-0.14062 0.74609-0.28125 1.1953-0.27734 1.793-0.70312 3.4375-1.125 4.9297-0.13672 0.44922-0.13672 1.0469-0.27734 1.4961v2.543c0 0.14844-0.14063 0.29687-0.14063 0.44531v0.14844c0 0.75 0.14063 1.6445 0.14063 2.2461 0 0.29688-0.14063 0.29688-0.14063 0.44531 0 0.30078 0.14063 0.59766 0.28125 1.0469 0.42188 1.6445 0.5625 2.2422 1.4023 3.2891 8 8.2188 22.742 14.199 33.41 14.199 11.512 0 24.844-6.7266 32.426-17.336 5.3359-8.3711 8.1406-18.535 8.1406-26.754 0-1.0469 0.84375-2.2422 0.84375-3.2891-0.14062-1.0469-0.98438-2.2422-1.1211-3.2891-0.14453-1.793-1.4062-9.2656-1.9688-11.207m0.5625 11.355c0 1.0469 0.98438 1.9453 0.98438 2.9922s-0.70312 2.3906-0.70312 3.4375c0 8.3672-2.9492 18.082-7.8633 25.855-7.0156 9.7148-19.789 16.59-31.301 16.59-10.527 0-24.707-5.9805-32.426-13.602-0.42188-0.59766-0.5625-1.0469-0.84375-2.0898l-0.14062-0.60156c-0.14062-0.74609-0.28125-1.043-0.28125-1.4922 0-0.44922-0.13672-3.8867 0.14062-5.2305 0.5625-2.6914 0.84375-5.6797 1.8242-6.5781 2.5273-3.1367 4.3516-8.9648 4.3516-15.84 0-8.2227-2.3828-14.797-5.8945-17.191-1.6836-3.1367-0.98047-6.2773-0.70312-9.1133 0.28125-0.60156 0.28125-1.0469 0.28125-1.4961 0-0.44922 0.14062-0.74609 0.28125-1.4961l0.14062-0.59766c0.42188-1.1953 0.42188-1.4922 1.1211-2.2383-0.13672 0-0.13672 0-0.13672 0.14844 0.55859-0.59766 0.55859-0.75 1.1211-1.1953 7.4414-7.0273 19.934-11.957 31.164-11.957 13.055 0 27.094 9.7148 34.109 23.465 1.125 2.2422 2.1055 4.7812 2.8086 7.3203 0.28125 1.1992 1.6836 4.6328 1.9648 10.316z" fill="#eeb38f" fill-rule="evenodd"/>
<path d="m698.55 124.2c2.5234-2.6875 4.3438-8.3672 4.3438-15.09 0-7.7695-2.3828-14.348-5.4648-16.141-0.14062-0.14844-0.28125-0.29688-0.28125-0.59375h-0.14062v-0.30078c-0.28125-0.44922-0.41797-0.89453-0.41797-1.4961-0.14453-1.1953 0-5.0781 0.13672-7.4688v-1.793c-0.13672 0.44531-0.13672 0.74609-0.55859 1.0469-0.70312 0.59766-1.4023 0.29688-1.2617 0.89453 0.14062 0.75 0.69922 0.44922 0.28125 1.793-0.42188 1.3438-0.98438 1.3438-1.2617 1.6445-0.5625 0.89453 1.1211 1.6445 0 2.3906-0.98438 0.74609-0.84375-1.0469-2.2422-1.1953-0.98438-0.14844-1.6836 1.3438-1.8242 3.4375-0.14062 1.1953-0.14062 3.1367-0.14062 3.8828 0 0.74609-0.28125 1.793-0.28125 2.9922 0 1.7891-0.42188 3.8828-1.1211 4.332-0.28125 0.14844-0.42187 0.14844-0.55859 0.14844-1.8242 1.9414-2.3828 11.355 0.27734 12.852 0.14063 0 0.14063 0 0.42188 0.14844 0.55859 0.44531 0.98047 2.3906 0.98047 4.1836 0 1.1953 0.28125 2.2422 0.28125 2.9883 0 0.74609 0 2.6914 0.14062 3.8867 0.14062 2.0898 0.83984 3.5859 1.8242 3.4336 1.3984-0.14844 1.5391-2.3906 2.5195-1.6406 0.98438 0.74609-0.27734 1.9414 0.28125 2.8398 0.28125 0.29688 0.83984 0.14844 1.2617 1.4922s-0.14062 1.0469-0.28125 1.793c-0.27734 0.59766 0 0.44922 0.70312 1.0469 0.69922 0.44531 0.42188 0.89453 0.55859 1.9414 0-0.14844 0.14062-0.14844 0.14062-0.44922 0-0.59766-0.14062-1.4922-0.14062-2.2422v-0.14844c0-0.14844 0.14062-0.30078 0.14062-0.44922v-2.5391c0.14062-0.44531 0.14062-1.0469 0.28125-1.4922 0.41797-1.4961 0.83984-3.1406 1.1211-4.9297 0.14062-0.44922 0.28125-0.75 0.28125-1.1992m4.3438-15.242v0.15234z" fill="#d4ab9c" fill-rule="evenodd"/>
<path d="m689.74 124.5c0.28125-1.9453 1.2656 0 1.9688 0.74609 0.98047 0.89844 1.8242 1.8008 3.2266 1.9492 1.6875 0.14844 3.3711-1.3477 3.6523-3.1445-0.70313-0.30078-1.8242 0.44922-2.668 0.44922-1.6836-0.15234-2.9492-1.3477-3.9336-2.6953-0.69922-0.89844-1.1211-1.9492-1.543-2.9961-0.28125-0.44922-0.42188-0.75-0.84375-0.89844" fill="#cc9c91" fill-rule="evenodd"/>
<path d="m688.5 104.72c-1.5469 0.89844-1.4062 1.9492-2.1133 3.5977-0.5625-0.59766 0.14453-2.6992 0.28125-3.2969 0.14062-0.60156 0.28516-1.3516 0.70703-1.8008 0.42188-0.45312 1.2656-0.60156 1.4062-1.1992" fill="#cc9c91" fill-rule="evenodd"/>
<path d="m702.9 109.07c0-9.2617-3.2227-16.578-7.2812-16.578-3.9219 0-7.2852 7.3164-7.2852 16.578v-0.14844c0 9.1094 3.3633 16.574 7.2852 16.574 4.0586 0 7.2812-7.4648 7.2812-16.574z" fill="#59739c" fill-rule="evenodd"/>
<path d="m702.9 109.07c0-9.1094-3.2227-16.578-7.2812-16.578-3.9219 0-7.2852 7.4688-7.2852 16.578v-0.14844c0 9.2578 3.3633 16.574 7.2852 16.574 4.0586 0 7.2812-7.3164 7.2812-16.574z" fill="#e1c2ba" fill-rule="evenodd"/>
<path d="m695.62 98.316c2.6797 0 4.6602 4.7812 4.6602 10.758v-0.14844c0 5.9766-1.9805 10.758-4.6602 10.758-2.543 0-4.6602-4.7812-4.6602-10.758v0.14844c0-5.9766 2.1172-10.758 4.6602-10.758" fill="#e6ccc5" fill-rule="evenodd"/>
<path d="m695.63 102.35c1.6914 0 2.957 2.9883 2.957 6.7227v-0.14844c0 3.7344-1.2656 6.7188-2.957 6.7188-1.5469 0-2.9531-2.9844-2.9531-6.7188v0.14844c0-3.7344 1.4062-6.7227 2.9531-6.7227" fill="#e8d4cf" fill-rule="evenodd"/>
<path d="m695.61 100.39c-2.125 0-3.9648 3.8984-3.9648 8.543 0 4.6484 1.8398 8.5469 3.9648 8.5469-1.6992-0.14844-3.5391-3.1484-3.5391-8.2461 0.14062-5.0938 2.2656-8.3945 3.9648-8.2461 1.6992 0.15234 2.5469 2.1016 2.5469 2.1016-0.56641-1.1992-1.6953-2.6992-2.9727-2.6992" fill="#e1c5bd" fill-rule="evenodd"/>
<path d="m695.59 102.23c-1.5352 0-2.7891 2.9805-2.7891 6.8555v-0.14844c0 3.7266 1.2539 6.8555 2.7891 6.8555-1.1133-0.14844-2.5117-2.5352-2.5117-6.5586 0.14062-4.0234 1.5352-6.707 2.793-6.5586 1.2578 0.15234 1.8164 1.6406 1.8164 1.6406-0.41797-0.89453-1.1172-2.0859-2.0977-2.0859" fill="#e1c5bd" fill-rule="evenodd"/>
<path d="m695.61 104.28c-1.1055 0-1.9336 2.1055-1.9336 4.6562 0 2.5547 0.82812 4.6562 1.9336 4.6562-0.82812-0.14844-1.5195-1.6523-1.5195-4.5039 0-2.7031 0.96875-4.3555 1.6602-4.3555 0.82812 0.14844 1.2422 1.0508 1.2422 1.0508-0.27734-0.60156-0.82812-1.5039-1.3828-1.5039" fill="#e6ccc5" fill-rule="evenodd"/>
<path d="m691.11 109.07c0 4.332 1.1289 8.0703 2.5352 9.8594-1.2656-1.6406-2.25-5.0781-2.1133-9.5586 0-6.4258 2.2539-10.758 4.2266-10.461 1.8281 0.15234 2.9531 2.8398 2.9531 2.8398-0.70312-1.4922-1.6875-3.4336-3.0977-3.4336-2.5312 0-4.5039 4.7773-4.5039 10.754" fill="#e1c5bd" fill-rule="evenodd"/>
<path transform="matrix(2.6295 0 0 2.6279 3.9689 1.495e-14)" d="m263.03 35.932c1.34 0 2.4645 2.5032 2.4645 5.5742v-0.056485c0 3.071-1.1246 5.5742-2.4645 5.5742-1.3385 0-2.4111-2.5032-2.4111-5.5742v0.056485c0-3.071 1.0726-5.5742 2.4111-5.5742z" fill="none" stroke="#efdcd9" stroke-miterlimit="8" stroke-width=".04779"/>
<path transform="matrix(2.6295 0 0 2.6279 3.9689 1.495e-14)" d="m263.03 36.678c1.1721 0 2.1318 2.1583 2.1318 4.828v-0.056485c0 2.6697-0.95967 4.828-2.1318 4.828s-2.0783-2.1583-2.0783-4.828v0.056485c0-2.6697 0.90619-4.828 2.0783-4.828z" fill="none" stroke="#efdcd9" stroke-miterlimit="8" stroke-width=".04779"/>
<path transform="matrix(2.6295 0 0 2.6279 3.9689 1.495e-14)" d="m263.04 38.157c0.79775 0 1.4336 1.479 1.4336 3.3549v-0.057972c0 1.8209-0.63582 3.2984-1.4336 3.2984-0.79478 0-1.4336-1.4775-1.4336-3.2984v0.057972c0-1.8759 0.63879-3.3549 1.4336-3.3549z" fill="none" stroke="#efdcd9" stroke-miterlimit="8" stroke-width=".04779"/>
<path transform="matrix(2.6295 0 0 2.6279 3.9689 1.495e-14)" d="m263.04 38.948c0.64325 0 1.1246 1.1371 1.1246 2.5582v-0.056485c0 1.421-0.48132 2.5567-1.1246 2.5567-0.58828 0-1.1231-1.1356-1.1231-2.5567v0.056485c0-1.421 0.5348-2.5582 1.1231-2.5582z" fill="none" stroke="#efdcd9" stroke-miterlimit="8" stroke-width=".04779"/>
<path transform="matrix(2.6295 0 0 2.6279 3.9689 1.495e-14)" d="m263.02 39.682c0.42487 0 0.79775 0.79823 0.79775 1.8239v-0.056485c0 1.0257-0.37288 1.8239-0.79775 1.8239-0.42487 0-0.79775-0.79823-0.79775-1.8239v0.056485c0-1.0257 0.37288-1.8239 0.79775-1.8239z" fill="none" stroke="#efdcd9" stroke-miterlimit="8" stroke-width=".04779"/>
<path transform="matrix(2.6295 0 0 2.6279 3.9689 1.495e-14)" d="m262.61 41.506c0-0.62431 0.16044-1.0777 0.42636-1.0777 0.2674 0 0.47984 0.45337 0.47984 1.0777v-0.056485c0 0.62431-0.21244 1.0777-0.47984 1.0777-0.26592 0-0.42636-0.45337-0.42636-1.0777z" fill="none" stroke="#efdcd9" stroke-miterlimit="8" stroke-width=".04779"/>
<path transform="matrix(2.6295 0 0 2.6279 3.9689 1.495e-14)" d="m265.81 41.506c0-3.5244-1.2256-6.3085-2.7691-6.3085-1.4915 0-2.7706 2.7841-2.7706 6.3085v-0.056485c0 3.4664 1.2791 6.307 2.7706 6.307 1.5435 0 2.7691-2.8406 2.7691-6.307zm0 0" fill="none" stroke="#fff" stroke-linecap="round" stroke-linejoin="round" stroke-miterlimit="10" stroke-width=".09558"/>
<path transform="matrix(2.6295 0 0 2.6279 3.9689 1.495e-14)" d="m263.04 37.413c1.0191 0 1.7723 1.8194 1.7723 4.0937v-0.056485c0 2.2743-0.75318 4.0937-1.7723 4.0937-0.9671 0-1.7723-1.8194-1.7723-4.0937v0.056485c0-2.2743 0.80517-4.0937 1.7723-4.0937z" fill="none" stroke="#efdcd9" stroke-miterlimit="8" stroke-width=".04779"/>
<path d="m689.27 106.54c0.42188-7.3281 3.2383-13.016 6.6094-12.715 3.5156 0.30078 4.3594 4.7891 4.3594 4.7891 0.14062 0.89453 0.28125 0.44922-0.14062-0.30078-1.4023-2.3945-7.4531-7.7773-10.828 8.2266" fill="#f3e3e1" fill-rule="evenodd"/>
<path d="m690.41 100.57c0.98438-3.4414 3.1016-6.7305 5.6367-6.4297 1.9727 0.14844 2.957 1.9414 2.957 1.9414-1.2656-1.6445-5.3516-3.7383-8.5938 4.4883" fill="#fff" fill-rule="evenodd"/>
<path d="m691.29 119.83c1.125 2.4062 5.7617 8.2656 9.5586-2.1016-1.5469 2.8555-5.0586 8.5664-9.5586 2.1016" fill="#f5e6e6" fill-rule="evenodd"/>
<path d="m696.19 123.03s0 0.14844-0.14062 0.30078c0.41016 0 0.81641 0 1.0859-0.15234v-0.30078c-0.13281 0-0.13281-0.30078-0.13281-0.30078-0.13672 0-0.40625 0-0.54297 0.14844" fill="#fff" fill-rule="evenodd"/>
<path d="m697.57 122.21c-0.28906 0-0.4375 0.30469 0 0.45312 0 0.15234 0.29297 0 0.29297-0.14844 0.14844-0.15234 0-0.30469 0-0.45312" fill="#fff" fill-rule="evenodd"/>
<path d="m695.74 122.82c-0.13672 0-0.41016 0-0.41016 0.15625-0.26953 0.16016 0 0.31641 0.13672 0.31641 0.40625 0.16016 0.40625 0 0.40625-0.31641" fill="#fff" fill-rule="evenodd"/>
<path d="m701.77 74.117c-3.3711 2.9883-4.0703 6.2734-4.2148 10.906v1.793c0 3.4414 0.42578 4.4844 2.2461 6.4297 2.5273 3.1367 4.0703 9.1133 4.0703 15.84 0 6.2773-1.4023 12.254-3.7891 15.543 2.5273-3.4375 4.7734-8.9688 4.7734-15.543v-0.14844c0-6.875-1.6836-13.152-4.3516-16.441-1.543-1.6445-1.9648-2.3906-1.9648-5.6797v-1.793c0.14062-5.0781 1.125-7.6211 3.9297-10.012 2.5234-2.0938 15.578-11.207 29.891-11.207-14.594 0-27.926 8.2188-30.59 10.312" fill="#f8decf" fill-rule="evenodd"/>
<path d="m701.51 77.984c0-0.65625 0.49219-1.1914 1.1016-1.1914s1.1016 0.53516 1.1016 1.1914c0 0.66016-0.49219 1.1914-1.1016 1.1914s-1.1016-0.53125-1.1016-1.1914" fill="#fff" fill-rule="evenodd"/>
<path d="m704.16 76.508c0-0.25781 0.22656-0.46484 0.5-0.46484 0.27344 0 0.49609 0.20703 0.49609 0.46484 0 0.25781-0.22266 0.46875-0.49609 0.46875-0.27344 0-0.5-0.21094-0.5-0.46875" fill="#fff" fill-rule="evenodd"/>
<path d="m700.52 79.871c0-0.38672 0.28516-0.69531 0.63281-0.69531 0.35156 0 0.63672 0.30859 0.63672 0.69531 0 0.38281-0.28516 0.69141-0.63672 0.69141-0.34766 0-0.63281-0.30859-0.63281-0.69141" fill="#fff" fill-rule="evenodd"/>
<path transform="matrix(2.6295 0 0 2.6279 3.9689 1.495e-14)" d="m264.26 47.184c-0.21392 0.39837-0.90619 2.967-0.85271 4.5649" fill="none" stroke="#fff" stroke-linecap="round" stroke-linejoin="round" stroke-miterlimit="10" stroke-width=".09558"/>
<path transform="matrix(2.6295 0 0 2.6279 3.9689 1.495e-14)" d="m263.35 47.758c0 0.45634-0.26294 2.683-0.26294 2.683" fill="none" stroke="#fff" stroke-linecap="round" stroke-linejoin="round" stroke-miterlimit="10" stroke-width=".09558"/>
<path transform="matrix(2.6295 0 0 2.6279 3.9689 1.495e-14)" d="m262.73 47.837-0.12627 1.1936" fill="none" stroke="#fff" stroke-linecap="round" stroke-linejoin="round" stroke-miterlimit="10" stroke-width=".09558"/>
<path transform="matrix(2.6295 0 0 2.6279 3.9689 1.495e-14)" d="m261.96 47.265c0.21689 0.45634 0.21689 1.7659 0.21689 1.7659" fill="none" stroke="#fff" stroke-linecap="round" stroke-linejoin="round" stroke-miterlimit="10" stroke-width=".09558"/>
<path transform="matrix(2.6295 0 0 2.6279 3.9689 1.495e-14)" d="m261.96 33.661c0.21689 0.39837 0.10845 1.815 0.10845 1.9844" fill="none" stroke="#fff" stroke-linecap="round" stroke-linejoin="round" stroke-miterlimit="10" stroke-width=".09558"/>
<path transform="matrix(2.6295 0 0 2.6279 3.9689 1.495e-14)" d="m262.61 33.787-0.046052 1.4106" fill="none" stroke="#fff" stroke-linecap="round" stroke-linejoin="round" stroke-miterlimit="10" stroke-width=".09558"/>
<path transform="matrix(2.6295 0 0 2.6279 3.9689 1.495e-14)" d="m262.98 32.021c-0.069821 0.50837 0 3.0502 0 3.0502" fill="none" stroke="#fff" stroke-linecap="round" stroke-linejoin="round" stroke-miterlimit="10" stroke-width=".09558"/>
<path transform="matrix(2.6295 0 0 2.6279 3.9689 1.495e-14)" d="m263.52 31.036c-0.10845 0.56782-0.43378 3.6983 0.37882 4.495" fill="none" stroke="#fff" stroke-linecap="round" stroke-linejoin="round" stroke-miterlimit="10" stroke-width=".09558"/>
<path transform="matrix(2.6295 0 0 2.6279 3.9689 1.495e-14)" d="m260.63 50.108h-0.16044c0.3194 0.62431 0.69376 1.2501 1.0666 1.8744v-0.056485 0.056485s0.05348 0 0.05348 0.056485c0 0 0 0.056486 0.05348 0.056486 0.15896 0.22743 0.32088 0.45485 0.47984 0.73877 0.05348 0.11297 0.16044 0.17094 0.21392 0.2854 0.053481 0.11297 0.10696 0.16946 0.15896 0.22594 0.10696 0.11446 0.21392 0.22743 0.2674 0.34188 0.10696 0.11297 0.15896 0.16946 0.21392 0.28391 0.051995 0.056485 0.10696 0.11297 0.15896 0.16946 0.16044 0.17094 0.32088 0.39837 0.47984 0.56931 0.05348 0.056485 0.10696 0.11297 0.16044 0.16946 0.10696 0.11446 0.16044 0.17094 0.26592 0.28391 0.80072 0.85322 1.7069 1.6485 2.6666 2.3872 0.054966 0.056485 0.054966 0.056485 0.10696 0.056485 0.21392 0.17094 0.42636 0.34188 0.64028 0.51134 0.053481 0 0.10696 0.056485 0.16044 0.056485 0.64028 0.45486 1.3325 0.85322 1.9728 1.1936 0.10696 0.056485 0.21392 0.11446 0.37288 0.17094 0.16044 0.056485 0.32088 0.11297 0.48132 0.22594 0.15896 0.057972 0.3194 0.11446 0.42636 0.17094 0.16044 0.057972 0.3194 0.11446 0.47984 0.17094 0.21392 0.056486 0.37288 0.11297 0.5868 0.22743 0.10696 0 0.26592 0.056485 0.37288 0.11446 0.3194 0.056485 0.64028 0.16946 0.90619 0.22594 0.10696 0.056485 0.21392 0.056485 0.37436 0.056485 0.21392 0.057971 0.42636 0.11446 0.64028 0.17094 0.10548 0 0.26592 0 0.37288 0.056485 0.21392 0 0.42636 0.056485 0.69376 0.056485 0.10548 0 0.21244 0 0.3194 0.057972h2.1333c6.1859-0.39837 11.467-3.6938 14.027-9.433 0.15896-0.3404 0.79923-1.3066 1.8659-1.9309-1.386-0.51134-2.879 2.5002-3.8922 3.9213-3.0409 4.3181-8.4796 6.6474-13.174 6.6474-4.427 0-8.799-2.2728-11.999-5.7392l-0.32088-0.28391c-0.47984-0.51134-0.47984-0.73877-0.69376-1.4775-0.21244-0.73877 0-0.90971-0.3194-1.1371-0.26592-0.22594-0.37288-0.16946-0.26592-0.39688 0.051995-0.28391 0.26592-0.17094 0.10696-0.68228-0.16193-0.51134-0.37436-0.45337-0.48132-0.56782-0.21244-0.3404 0.2674-0.79525-0.10696-1.0792-0.37288-0.2854-0.42636 0.56783-0.95967 0.62431-0.37288 0.056485-0.64028-0.51134-0.69227-1.3066-0.054966-0.45485-0.054966-1.1936-0.054966-1.4775 0-0.28391-0.10548-0.68228-0.10548-1.1371 0-0.6808-0.16044-1.4196-0.37288-1.5905-0.42784-0.22743-0.37436 0.17094-0.5348 0.96619-0.10547 0.85322 0.16044 0.9662 0.21392 1.1936 0.05348 0.22743-0.16044 0.22743-0.05348 0.45486 0.05348 0.28391 0.21392 0.3404 0.2674 0.62431 0.10696 0.22743-0.16044 0.17094-0.10696 0.51134 0.05348 0.28391 0.26592 0.28391 0.3194 0.56931 0.053481 0.28243-0.05348 0.39688 0 0.73728 0.053481 0.2854 0.32088 0.34188 0.42784 0.6258 0.10548 0.28391 0.10548 0.39837-0.21392 0.39837zm0 0" fill="none" stroke="#fff" stroke-linecap="round" stroke-linejoin="round" stroke-miterlimit="10" stroke-width=".09558"/>
<path transform="matrix(2.6295 0 0 2.6279 3.9689 1.495e-14)" d="m293.97 38.719c-0.05348-0.22743-0.10696-0.51134-0.16044-0.79525v-0.056485c-0.3194-1.2516-0.74575-2.5017-1.2256-3.6953-0.054966-0.056485-0.054966-0.056485-0.054966-0.11297-0.10548-0.17094-0.15896-0.39837-0.26592-0.56931-0.05348-0.056486-0.05348-0.11297-0.10696-0.16946-0.05348-0.17094-0.15896-0.34188-0.21392-0.51134-0.051995-0.056485-0.10548-0.17094-0.10548-0.22891-0.10696-0.16946-0.21392-0.3404-0.26592-0.45337-0.054966-0.11446-0.10696-0.17094-0.16193-0.28391-0.051994-0.11446-0.15896-0.2854-0.21244-0.45485-0.05348-0.056486-0.10696-0.17094-0.16044-0.22743-0.10696-0.17094-0.21244-0.28391-0.26592-0.39837s-0.10696-0.22743-0.16044-0.28391c-0.10696-0.17094-0.21392-0.2854-0.26592-0.39837-0.10696-0.11297-0.16044-0.16946-0.21392-0.28391-0.10696-0.11446-0.16044-0.22743-0.2674-0.39837-0.05348-0.056485-0.16044-0.16946-0.21244-0.28391-0.10696-0.11297-0.16044-0.22743-0.2674-0.3404-0.10696-0.057972-0.15896-0.17094-0.21244-0.28391-0.10696-0.11446-0.21392-0.22891-0.32088-0.34188-0.05348-0.056485-0.16044-0.16946-0.21244-0.22743-0.10696-0.11446-0.21392-0.22743-0.32088-0.3404-0.05348-0.11446-0.16044-0.17094-0.21244-0.28391-0.10696-0.057971-0.21392-0.17094-0.32088-0.2854-0.10696-0.11297-0.15896-0.16946-0.26592-0.28391-0.10696-0.056485-0.21392-0.16946-0.32088-0.28391-0.05348-0.056485-0.16044-0.16946-0.26592-0.22743-0.10696-0.11297-0.21392-0.17094-0.32088-0.28391-0.05348-0.056485-0.16044-0.17094-0.2674-0.22743-0.10548-0.056485-0.21244-0.17094-0.3194-0.22743-0.10696-0.11446-0.21244-0.17094-0.3194-0.22743-0.10696-0.11297-0.21392-0.17094-0.3194-0.28391l-0.32088-0.17094c-0.10696-0.11297-0.21392-0.17094-0.32088-0.22743-0.10547-0.056485-0.21244-0.16946-0.3194-0.22594-0.10696-0.057972-0.21392-0.11446-0.3194-0.17094-0.10696-0.11446-0.21392-0.17094-0.37436-0.22743l-0.3194-0.17094c-0.10696-0.056485-0.21392-0.11446-0.37288-0.17094-0.10696-0.056485-0.21392-0.11297-0.32088-0.16946-0.10696-0.056486-0.26592-0.11446-0.37288-0.17094-0.10696-0.057971-0.21392-0.057971-0.3194-0.11446-0.16044-0.056486-0.2674-0.11297-0.42784-0.16946-0.10696 0-0.21244-0.056485-0.3194-0.11446-0.10696-0.056485-0.26592-0.056485-0.37288-0.11297-0.16044-0.057972-0.2674-0.057972-0.37436-0.11446-0.10696-0.056486-0.2674-0.056486-0.42636-0.11297-0.10696 0-0.21392-0.056485-0.3194-0.056485-0.16044-0.057972-0.32088-0.057972-0.42784-0.11446-0.10696 0-0.21392-0.056485-0.37288-0.056485-0.10696 0-0.2674-0.057972-0.42636-0.057972-0.10696 0-0.21392-0.056485-0.32088-0.056485-0.21392 0-0.37288 0-0.53332-0.056485h-2.1867c-0.15896 0-0.26592 0.056485-0.37288 0.056485-0.2674 0-0.47984 0.056485-0.74724 0.056485-0.10696 0.057972-0.26592 0.057972-0.42636 0.11446-0.10696 0-0.21392 0.056485-0.32088 0.056485-0.10548 0-0.21244 0.057972-0.3194 0.057972-0.16044 0.056485-0.3194 0.11297-0.47984 0.11297-0.05348 0-0.10696 0.056486-0.16044 0.056486-0.05348 0-0.10548 0-0.16044 0.056485-0.10548 0-0.15896 0.057972-0.26592 0.057972-0.16044 0.056485-0.32088 0.11297-0.47984 0.17094-0.10696 0-0.16044 0.056485-0.2674 0.056485-0.10548 0.056485-0.15896 0.056485-0.21244 0.11297h-0.10696c-0.16044 0.056486-0.3194 0.17094-0.47984 0.22743h-0.053481c-0.21392 0.057971-0.37288 0.17094-0.53332 0.22743-0.16044 0.056485-0.32088 0.17094-0.47984 0.22743-0.05348 0.056486-0.10696 0.056486-0.16044 0.11446-0.05348 0-0.16044 0.056486-0.21392 0.056486-0.051995 0.056485-0.10548 0.056485-0.15896 0.11297-0.16044 0.056485-0.2674 0.17094-0.42784 0.22743-0.15896 0.11446-0.3194 0.17094-0.47984 0.28391h-0.05348c-0.15896 0.11446-0.3194 0.22743-0.47984 0.34188-0.051994 0-0.10696 0.056486-0.10696 0.056486-0.051995 0.056485-0.10548 0.056485-0.15896 0.11297-0.05348 0-0.05348 0-0.10696 0.057972-0.05348 0-0.05348 0.056485-0.10696 0.056485-0.15896 0.11297-0.3194 0.22743-0.47984 0.3404-0.10696 0.11446-0.2674 0.22743-0.37288 0.2854l-0.053481 0.056485s-0.05348 0-0.05348 0.056485c-0.16044 0.11297-0.2674 0.22743-0.42636 0.34188-0.16044 0.11297-0.32088 0.22594-0.48132 0.3404-0.10548 0.17094-0.26592 0.28391-0.37288 0.39688l-0.05348 0.057972c-0.16044 0.11297-0.26592 0.22743-0.37288 0.3404h-0.05348c-0.10696 0.17094-0.2674 0.28391-0.37288 0.45486-0.16044 0.11297-0.2674 0.22743-0.37436 0.39688h-0.051994c-0.10696 0.17094-0.2674 0.2854-0.37436 0.45485-0.05348 0.057972-0.16044 0.17094-0.21244 0.22891-0.05348 0.056485-0.10696 0.16946-0.16044 0.22594-0.16044 0.17094-0.26592 0.2854-0.37288 0.45486-0.054965 0.056485-0.10696 0.17094-0.16044 0.22743-0.10696 0.11446-0.16044 0.17094-0.21392 0.22743-0.10696 0.17094-0.21244 0.34188-0.3194 0.51134-0.16044 0.22743-0.2674 0.39837-0.42636 0.6258-0.32088 0.51134-0.64028 1.0807-0.96116 1.6485h0.16044c0.3194 0 0.3194 0.11297 0.21392 0.39837-0.10696 0.28391-0.37436 0.3404-0.42636 0.62431-0.054966 0.34188 0.051995 0.28391 0 0.51134-0.054966 0.2854-0.2674 0.2854-0.32088 0.6258-0.053481 0.28391 0.21392 0.45486 0.10696 0.68228-0.05348 0.28391-0.21392 0.3404-0.2674 0.62431-0.10696 0.22743 0.10696 0.22743 0.05348 0.45485-0.05348 0.22743-0.3194 0.34188-0.21392 1.1936 0.16044 0.79525 0.053481 1.2501 0.47984 1.0227 0.2674-0.16946 0.42784-0.96619 0.42784-1.6485 0-0.45337 0.10696-0.85174 0.10696-1.1356s0-1.0227 0.05348-1.4775c0.051995-0.79674 0.3194-1.3646 0.69227-1.3081 0.53332 0.056486 0.48132 0.73877 0.8542 0.45486 0.42636-0.28391-0.21392-0.56782 0-0.90971 0.10548-0.11297 0.3194-0.11297 0.47984-0.62431s-0.05348-0.39837-0.10696-0.68228c-0.053481-0.22743 0.21392-0.11446 0.47984-0.3404 0.32088-0.22891 0.10696-0.39837 0.32088-1.1386 0.15896-0.6808 0.21244-0.90822 0.63879-1.3631 0.054965-0.17094 0.21392-0.28391 0.21392-0.28391 3.2534-3.4099 7.6269-5.6262 12.161-5.6262 5.7075 0 11.522 3.8648 14.401 9.491 1.4945 2.8986 2.5611 9.0941 4.6944 10.117-0.69376-0.79525-1.2271-1.9904-1.7069-3.8083zm0 0" fill="none" stroke="#fff" stroke-linecap="round" stroke-linejoin="round" stroke-miterlimit="10" stroke-width=".09558"/>
<path transform="matrix(2.6295 0 0 2.6279 3.9689 1.495e-14)" d="m293.77 49.765h0.023769v0.034188h-0.023769zm0 0" fill="none" stroke="#fff" stroke-linecap="round" stroke-linejoin="round" stroke-miterlimit="10" stroke-width=".09558"/>
<path transform="matrix(2.6295 0 0 2.6279 3.9689 1.495e-14)" d="m296.66 43.396c-0.37436-0.22743-0.69376-0.45486-0.96116-0.85322-2.1348-1.0227-3.2014-7.2227-4.6959-10.124-2.8835-5.6307-8.7009-9.497-14.413-9.497-4.5369 0-8.9134 2.2178-12.168 5.6292 0 0-0.10696 0.056485-0.16044 0.17094h0.05348c3.0424-3.1275 8.2731-5.0049 12.489-5.0049 5.3376 0 10.836 4.0952 13.505 9.271 0.42636 0.9662 0.79923 1.9339 1.0666 2.9001 0.21392 0.74025 0.69376 2.5597 0.74724 4.2661 0.05348 0.39837 0.37436 0.85322 0.42784 1.2516 0 0.39837-0.32088 0.85322-0.32088 1.2516 0 3.1275-1.0681 6.9952-3.0959 10.181-2.882 4.0372-7.9522 6.5969-12.33 6.5969-3.8966 0-9.1793-2.1033-12.33-5.0614l-0.051995 0.056485 0.15896 0.11446c3.2029 3.4694 7.5793 5.7437 12.009 5.7437 4.6973 0 10.142-2.3308 13.184-6.6534 1.0146-1.479 2.6161-4.608 4.0036-3.8692 0.47984-0.3404 1.0146-0.51134 1.6014-0.51134 1.6534-0.17094 4.216 0.34188 6.2453 1.2516 0.3194 0.11446 0.69376 0.28391 1.0132 0.39837v-5.5177c-1.548-0.56931-2.8285-0.90971-3.4153-1.0227-1.0681-0.22891-2.3487-0.85322-2.5626-0.96768zm0 0" fill="none" stroke="#fff" stroke-linecap="round" stroke-linejoin="round" stroke-miterlimit="10" stroke-width=".16726"/>
<path d="m784.3 108.92c1.2656 1.6445 3.2305 2.9922 5.6133 3.5898 2.1055 0.29688 4.7734 1.1953 9.8203 2.6875v4.0391c-4.0664-1.4961-7.4336-2.3945-8.9766-2.6914-2.8086-0.59766-6.1758-2.2422-6.7344-2.543-3.0898-1.793-5.1914-5.3789-7.0156-12.254-4.6289-22.715-22.309-43.641-45.738-43.641-15.574 0-30.867 9.7148-39.844 23.914v-0.15234c0.28125-0.59766-0.14063-1.3438 0.13672-2.6875 0.28125-1.6445 1.5469-1.6445 1.6875-2.8398 0.28125-1.1953-0.28125-1.4961-0.5625-1.1953 0 0-0.14062 0-0.14062 0.14844 8.9805-12.703 23.008-20.922 38.582-20.773 25.957 0.44922 41.668 18.684 47.98 40.648 0.5625 1.7969 2.5273 10.316 5.1953 13.75" fill="#eef5fa" fill-rule="evenodd"/>
<path transform="matrix(2.6295 0 0 2.6279 3.9689 1.495e-14)" d="m302.63 45.373c-1.5465-0.56931-2.827-0.9112-3.4138-1.0242-1.0681-0.22743-2.3487-0.85322-2.5611-0.96768-1.1751-0.68228-1.9743-2.0468-2.6681-4.663-1.7604-8.6437-8.484-16.607-17.394-16.607-5.9229 0-11.739 3.6968-15.153 9.1001v-0.057972c0.10696-0.22743-0.05348-0.51134 0.051995-1.0227 0.10696-0.6258 0.58828-0.6258 0.64176-1.0807 0.10696-0.45485-0.10696-0.56931-0.21392-0.45485 0 0-0.05348 0-0.05348 0.056485 3.4153-4.8339 8.75-7.9614 14.673-7.905 9.8716 0.17094 15.9 7.1082 18.247 15.526 0.21392 0.68228 0.96116 3.8678 1.9743 5.1758 0.48132 0.62431 1.2286 1.1371 2.1348 1.3646 0.80072 0.11297 1.8154 0.45486 3.7347 1.0227" fill="none" stroke="#000" stroke-linecap="round" stroke-linejoin="round" stroke-miterlimit="10" stroke-width=".09558"/>
<path transform="matrix(2.6295 0 0 2.6279 3.9689 1.495e-14)" d="m302.63 50.849c-0.3194-0.17094-0.69376-0.3404-1.0132-0.45486-2.0278-0.90822-4.5904-1.3631-6.2438-1.2486-2.1362 0.16946-3.3098 1.9874-3.5757 2.4987-2.723 6.0811-8.539 9.433-15.211 9.433h-0.95967c-0.10696 0-0.21392-0.056485-0.32088-0.056485-0.2674 0-0.47984-0.056486-0.69376-0.056486-0.10696 0-0.2674-0.056485-0.37436-0.056485-0.21244-0.057971-0.42636-0.11446-0.64028-0.11446-0.16044-0.057971-0.2674-0.057971-0.37288-0.11446-0.2674-0.056485-0.58828-0.11297-0.90768-0.22594-0.10696-0.057972-0.2674-0.11446-0.37436-0.11446-0.21244-0.056486-0.37288-0.11446-0.5868-0.22743-0.15896-0.056485-0.3194-0.11297-0.47984-0.17094-0.10696-0.056485-0.26592-0.11297-0.42636-0.16946-0.16044-0.11297-0.32088-0.17094-0.48132-0.22743-0.16044-0.056485-0.26592-0.11446-0.37288-0.17094-0.64028-0.3404-1.334-0.73877-1.9743-1.1356-0.05348-0.057972-0.10696-0.11446-0.16044-0.11446-0.21392-0.16946-0.42636-0.3404-0.64028-0.45486l-0.10696-0.11297c-0.96116-0.68228-1.8674-1.534-2.6681-2.3872-0.10696-0.11297-0.16044-0.16946-0.2674-0.22594-0.05348-0.11446-0.10696-0.17094-0.16044-0.22743-0.16044-0.17094-0.3194-0.39837-0.47984-0.56931-0.05348-0.056485-0.10696-0.11297-0.16044-0.16946-0.05348-0.11446-0.10696-0.17094-0.21392-0.22743-0.051994-0.17094-0.15896-0.28391-0.26592-0.39837-0.05348-0.056485-0.10696-0.11297-0.16044-0.16946-0.05348-0.11446-0.16044-0.22743-0.21244-0.34188-0.16044-0.22743-0.32088-0.51134-0.48132-0.73877-0.05348-0.056486-0.10548-0.11297-0.10548-0.16946v0.056485c0-0.056485 0-0.056485-0.054966-0.056485v0.056485c0.054966 0.3404-0.69376-0.056485 0.16044 1.4196 0.2674 0.45486 0 1.1371-0.2674 0.73877 3.4168 5.1714 8.9134 8.5248 15.157 8.5248 7.4189 0 13.556-3.297 16.598-9.9444 0.64028-1.6485 1.9208-2.2163 3.6277-1.9889 1.3355 0.17094 4.0571 0.85174 5.8709 1.647" fill="#eef5fa" fill-rule="evenodd" stroke="#000" stroke-linecap="round" stroke-linejoin="round" stroke-miterlimit="10" stroke-width=".09558"/>
<path d="m691.11 135.69c-0.69531-1.3438-1.5352-2.6875-2.2344-4.0312h0.41797s-7.125-6.1289-7.125-22.27c0-14.047 4.75-21.07 6.8477-23.012h0.27734-0.41797 0.14062c0.55859-1.3477 1.2578-2.543 2.0938-3.7383v-0.44922c-5.5859 5.5312-12.574 13.75-12.574 26.902 0 13.148 6.9883 21.07 12.574 26.598" fill="#efeff8" fill-rule="evenodd"/>
<path d="m693.09 75.164c0-0.14844-0.13672-0.14844-0.13672-0.14844-0.14062 0-0.14062 0-0.28125 0.14844 0 0-0.14062 0-0.14062 0.15234v-0.15234c-2.3867 2.2461-19.094 9.8672-19.094 33.938 0 24.367 16.988 31.992 17.832 33.039 0 0.14844 0 0.14844 0.13672 0.14844v-0.14844s0.14062 0.14844 0.28125 0.14844 0.28125-0.14844 0.28125-0.29687c0.14062-0.30078 0.14062-0.89844 0-1.1992-0.14062-0.14844-0.28125-0.74609-0.5625-1.043v-0.44922c-0.98047-2.0938-0.13672-2.0938 0-2.3945l0.14062-0.74609-0.42188-0.44922c-5.6133-5.5312-12.633-13.453-12.633-26.609s7.0195-21.379 12.633-26.91v0.44922c0-0.29688 0.14453-0.44922 0.28125-0.59766v-0.14844c0.28125-0.60156-0.13672-1.3477 0.14062-2.6914 0.28125-1.4961 1.4062-1.6445 1.6875-2.543v-0.74609s0.14062-0.44922-0.14453-0.75" fill="#f5fafc" fill-rule="evenodd"/>
<path transform="matrix(2.6295 0 0 2.6279 3.9689 1.495e-14)" d="m262.07 28.602c0-0.056485-0.051995-0.056485-0.051995-0.056485-0.05348 0-0.05348 0-0.10696 0.056485 0 0-0.05348 0-0.05348 0.057972v-0.057972c-0.90768 0.85471-7.2614 3.7548-7.2614 12.914 0 9.2725 6.4607 12.174 6.7801 12.572 0 0.056485 0 0.056485 0.05348 0.056485v-0.056485s0.05348 0.056485 0.10696 0.056485c0.053481 0 0.10696-0.056485 0.10696-0.11297 0.05348-0.11446 0.05348-0.34188 0-0.45634-0.05348-0.056485-0.10696-0.28391-0.21392-0.39688v-0.17094c-0.37288-0.79674-0.05348-0.79674 0-0.9112l0.05348-0.28391-0.16044-0.17094c-2.1348-2.1048-4.8043-5.1193-4.8043-10.126s2.6696-8.1354 4.8043-10.24v0.17094c0-0.11297 0.05348-0.17094 0.10696-0.22743v-0.056485c0.10696-0.22891-0.05348-0.51283 0.05348-1.0242 0.10696-0.56931 0.5348-0.6258 0.64176-0.96768v-0.28391s0.05348-0.17094-0.054966-0.2854zm0 0" fill="none" stroke="#00515e" stroke-linecap="round" stroke-linejoin="round" stroke-miterlimit="10" stroke-width=".09558"/>
<path d="m683.99 83.062c-2.6758 2.2422-10.434 13.301-9.8711 25.258 0.42578-3.8867 2.6797-15.988 9.8711-25.258" fill="#fff" fill-rule="evenodd"/>
<path d="m689.3 131.68c0.83594 0 0.83594-0.29688 0.55859-1.0469-0.28125-0.74609-0.97656-0.89453-1.1172-1.6406-0.14062-0.89844 0.14062-1.1953 0-1.9414-0.14062-0.75-0.69922-0.75-0.83984-1.4961-0.14062-0.89453 0.55859-0.74609 0.28125-1.3438-0.14062-0.74609-0.55859-0.89844-0.69922-1.6445-0.28125-0.59766 0.27734-0.59766 0.14062-1.1953-0.14062-0.59766-0.83984-0.89453-0.55859-3.1367 0.41797-1.793 0.27734-2.8398 0.97656-2.6914-2.6523-1.4922-2.0938-10.906-0.28125-12.848-0.41797-0.29687-0.41797-1.3438-0.69531-2.8398-0.28125-2.2422 0.41797-2.5391 0.55859-3.1367 0.13672-0.59766-0.42188-0.59766-0.14062-1.1953 0.14062-0.74609 0.55859-0.89844 0.69922-1.6445 0.27734-0.59766-0.42188-1.043-0.28125-1.793 0.14062-0.89453 0.69922-0.89453 0.83984-1.6445 0.14062-0.59375-0.14062-0.44531 0-1.3438 0.14062-0.74609 0.83594-0.89453 1.1172-1.6406 0.27734-0.75 0.27734-1.0469-0.55859-1.0469h-0.28125c-2.0938 1.9414-6.8438 8.9648-6.8438 23.008 0 16.137 7.125 22.262 7.125 22.262" fill="#7fb5de" fill-rule="evenodd"/>
<path d="m684.98 106.72c-0.41797 0.89453-0.13672 3.2852-0.13672 4.332 0.13672 0.89453 0.55859 2.2422 0.97656 3.1367 0.14063 0.44922 0.83984 2.0898 1.2578 2.3906 0.28125 0.14844 0.5625-0.74609 0.5625-1.1953-0.14062-0.15234-0.5625-0.30078-0.69922-0.44922-0.14062-0.44531-0.42188-0.89844-0.5625-1.1953-0.27734-0.89453-0.41797-1.9414-0.41797-2.8359-0.14063-0.75 0-1.793 0.14062-2.543 0-0.44531-0.14062-1.1953-0.28125-1.4922-0.27734 0.14844-0.41797-0.44922-0.55859-0.14844" fill="#008aca" fill-rule="evenodd"/>
<path d="m685.26 105.64c0.41016-0.44531 0.41016-1.6367 0.55078-2.2305 0.13672-0.59375 0.27344-1.1914 0.6875-1.6367 0.55078-0.74609 0.96094 0.29687 0.82422 0.89062 0 0.44531-0.41016 1.1914-0.55078 1.6367-0.13672 0.44922-0.41406 0.89453-0.41406 1.3398-0.13672 0.89453-0.13672 1.9375-0.54688 2.6797 0-0.44531 0-1.043-0.14062-1.4883-0.13672-0.44531-0.41016-0.89062-0.41016-1.3398" fill="#008aca" fill-rule="evenodd"/>
<path d="m684.82 107.59c-0.14062-0.88672 0.56641-3.4023 1.5586-3.8438 0.14063 1.4766-0.56641 3.4023-0.71094 4.8789" fill="#008aca" fill-rule="evenodd"/>
<path d="m686.8 91.293c0 0.89844 0.14453 1.6484-0.14062 2.6953-0.28516 0.90234 0 1.6484-0.28516 2.5508-0.28516 1.0469-0.42969 1.4961-0.28516 2.5469 0 0.89844-0.28516 1.7969-0.14453 2.6953-0.42578-0.75-0.56641-1.9492-0.56641-2.6953 0-0.89844 0.42578-1.5 0.56641-2.25 0-0.89844-0.42578-1.1992-0.14062-2.2461 0.28516-0.75 0.42969-1.6484 0.71484-2.3984" fill="#b3cfe8" fill-rule="evenodd"/>
<path d="m684.11 98.766c0.14062 1.0469 0.70312 1.4961 0.98828 2.3984 0.28125 0.59766 0 1.1953 0.13672 1.9414-0.70312-1.1953-1.2656-2.9922-1.5469-4.1875" fill="#b3cfe8" fill-rule="evenodd"/>
<path d="m683.41 102.23c0.27734 0.73438 0.96875 0.88281 1.2422 1.3242 0.27734 0.59375 0 0.88672 0 1.4766-0.55078-0.58984-0.96484-2.3594-1.6523-2.5078" fill="#b3cfe8" fill-rule="evenodd"/>
<path d="m683.12 104.73c0.14844 0.91406 1.0117 0.60938 1.1562 1.2188 0.28906 0.76172-0.57813 0.91406-0.14453 1.6758-0.43359-0.60938-0.14453-1.2188-0.43359-1.8281-0.28906-0.45703-1.1523-0.45703-0.71875-1.0664" fill="#b3cfe8" fill-rule="evenodd"/>
<path d="m682.88 112.36c0.82422-0.14844 0.96484-1.0547 1.5156-1.3555 0.41406 0.60547 0 1.0547-0.55078 1.0547 0 0.30078-0.27734 0.45312-0.6875 0.30078" fill="#b3cfe8" fill-rule="evenodd"/>
<path d="m682.54 111.34c0.42969-0.14844 0.28516-0.60156 0.57031-0.90234 0.28906-0.15234 0.57422 0.14844 0.86328-0.15234 0.28516-0.30078 0.14063-1.6602 0-1.9609-0.42969 0.30078 0 0.75391-0.14453 1.207s-0.71875 0.30078-0.71875 1.0547" fill="#b3cfe8" fill-rule="evenodd"/>
<path d="m682.75 107.63c0.40625 0 0.8125 0.13672 0.8125 0.41406-0.26953 0.14062-0.67578 0.14062-0.8125 0.27734" fill="#b3cfe8" fill-rule="evenodd"/>
<path d="m683 115.51c0.41406-0.30078 1.1133-3.2969 1.8086-1.9492-0.55469 0.30078-0.55469 1.0508-0.83594 1.7969-0.14062 0.60156-0.27734 1.1992-0.41797 1.9492" fill="#b3cfe8" fill-rule="evenodd"/>
<path d="m686.38 116.55c0 0.89453-0.42187 1.793-0.42187 2.6875 0 0.74609 0.42187 1.6406 0.28125 2.3906 0 1.1914 0.28125 1.3438 0.5625 2.2383 0.14062 0.74609 0 1.6406 0 2.3906-0.5625-0.60156-0.42188-1.6445-0.70313-2.3906-0.42187-0.74609-0.84375-1.1953-0.84375-1.9414 0.14063-0.89844 0.14063-1.4922 0.14063-2.2383 0-1.0469 0.70312-1.4961 0.70312-2.2422" fill="#b3cfe8" fill-rule="evenodd"/>
<path d="m684.67 119.86c-0.55859-1.9453 2.0938-4.1953 0.14062-5.3945 0.14062 0.30078 0.41797 0.60156 0.41797 1.0508 0 0.14844-0.41797 0.44922-0.41797 0.75 0 0.59766 0.14062 1.0469-0.14062 1.7969" fill="#b3cfe8" fill-rule="evenodd"/>
<path d="m683.42 114.32c0.27344-0.29688 1.3828-2.2266 1.5195-0.74219 0.13672 0.74219-1.1055 1.4844-0.96875 2.5234 0.14062-0.74219 0.55469-1.7812 0.27734-2.375" fill="#3d9cd1" fill-rule="evenodd"/>
<path d="m684.68 116.43c0-0.30078 0.41797-2.4141 0.96875-1.8086 0.41797 0.60156-0.27344 1.9609-0.55078 2.4102 0.27734-0.44922 0.27734-1.0547 0-1.5078" fill="#3d9cd1" fill-rule="evenodd"/>
<path d="m683.84 108.62c0.27734 0.45312 0.96484 1.9609-0.27344 1.8125 0.55078-0.30469 0.41406-0.90625 0.27344-1.3594" fill="#3d9cd1" fill-rule="evenodd"/>
<path d="m683.96 107.42c0.60156-0.28906 0.60156-1.0078-0.15234-1.2969" fill="#3d9cd1" fill-rule="evenodd"/>
<path d="m684.56 105.16c0.36328-0.4375 0.36328-1.3125 0-1.7461" fill="#3d9cd1" fill-rule="evenodd"/>
<path d="m684.96 101.15c0.13672 1.043 0.53516 1.4883 0.26953 2.3789-0.40234-0.14844-0.66797-0.74219-0.66797-1.1914" fill="#3d9cd1" fill-rule="evenodd"/>
<path d="m685.26 99.52c0 0.75391 0.13672 1.5078 0.69141 1.9609 0.69531-0.60547 0.27734-1.9609 0.27734-2.7148 0 0.45312-0.14062 1.0547-0.41406 1.5078" fill="#3d9cd1" fill-rule="evenodd"/>
<path d="m682.75 113.13c0.41797-0.46094 1.1133-0.61328 1.668-0.92187 0.14062 0.76953-0.83203 0.92187-1.3906 1.3828" fill="#008aca" fill-rule="evenodd"/>
<path d="m685.26 118.93c0.39844-0.89453 0-2.0859 0.93359-2.832 0 0.29688 0 0.59766-0.13281 0.89453" fill="#008aca" fill-rule="evenodd"/>
<path d="m683 104.61c0.13672 0.28906 0.69141 1.1562 1.1094 1.1562 0.41406 0.14453 0.96875 0 0.55469-0.57812-0.14062-0.14453-0.83594-0.14453-1.1094-0.28906-0.27734-0.28906-0.41797-0.72266-0.55469-1.1562" fill="#008aca" fill-rule="evenodd"/>
<path d="m685.25 97.711c-0.14453 0.59766-0.14453 1.4883-0.14453 2.082 0.14453 0.74219 0.72266 1.4883 0.57812 2.0781-1.0117 0.15234-1.3008-2.9688-1.3008-3.7148" fill="#008aca" fill-rule="evenodd"/>
<path d="m684.8 101.18c0.13281 0.60156 0.40625 1.0547 0.8125 0.75 0-0.30078-0.26953-0.75-0.26953-1.2031" fill="#0070ae" fill-rule="evenodd"/>
<path d="m683.69 105.49c0.28125 0.14844 1.1172 0.75391 1.1172 0 0-0.30078-0.97656-0.60156-1.1172-0.75391" fill="#0070ae" fill-rule="evenodd"/>
<path d="m683.23 112.66c0.44531 0 0.88672-0.14453 1.3281 0-0.29297 0.29297-0.58984 0.58594-0.88281 0.73047" fill="#0070ae" fill-rule="evenodd"/>
<path d="m685.38 117.15c0.53906-0.29297 0.40625-0.87891 0.8125-1.1758v0.73438" fill="#0070ae" fill-rule="evenodd"/>
<path d="m686.79 101.78c0.28125 0.89453-0.27344 1.7891-0.41406 2.5352-0.28125 1.043-0.55859 2.0859-0.69922 2.9805 0-0.89453-0.41406-5.2188 1.1133-5.3672" fill="#0070ae" fill-rule="evenodd"/>
<path d="m685.62 113.43c0 0.59766 0.28516 1.3477 0.71484 1.7969 0.28516 0.44531 0.85547 0.74609 0.71094 0 0-0.30078-0.85547-1.1992-0.99609-1.6484-0.14453-0.59766-0.28516-1.0469-0.28516-1.6445" fill="#0070ae" fill-rule="evenodd"/>
<path transform="matrix(2.6295 0 0 2.6279 3.9689 1.495e-14)" d="m259.08 36.173c0.17232 0.39837-0.057937 0.79525-0.11439 1.1936 0 0.3404 0.11439 0.79377 0.34316 1.0777" fill="none" stroke="#fff" stroke-linecap="round" stroke-linejoin="round" stroke-miterlimit="10" stroke-width=".04779"/>
<path transform="matrix(2.6295 0 0 2.6279 3.9689 1.495e-14)" d="m258.4 38.617c0.051995 0.16946 0.15747 0.16946 0.26294 0.28243 0.051994 0.057971 0.051994 0.17094 0.10399 0.28391 0.05348 0.056485 0.26294 0.28391 0.21095 0.45486" fill="none" stroke="#fff" stroke-linecap="round" stroke-linejoin="round" stroke-miterlimit="10" stroke-width=".04779"/>
<path transform="matrix(2.6295 0 0 2.6279 3.9689 1.495e-14)" d="m258.24 40.382c0.16044 0 1.1231-0.057972 0.58828-0.52769" fill="none" stroke="#fff" stroke-linecap="round" stroke-linejoin="round" stroke-miterlimit="10" stroke-width=".04779"/>
<path transform="matrix(2.6295 0 0 2.6279 3.9689 1.495e-14)" d="m258.14 41.392c0.36099-0.34337 0.46498-0.11446 0.51549 0.22891 0.10399 0.51728-0.1025 0.40283-0.309 0.7462" fill="none" stroke="#fff" stroke-linecap="round" stroke-linejoin="round" stroke-miterlimit="10" stroke-width=".04779"/>
<path transform="matrix(2.6295 0 0 2.6279 3.9689 1.495e-14)" d="m258.24 43.382c0.16044-0.056485 0.37585-0.3954 0.53777-0.3954 0.32237 0.056486 0.21392 0.3954 0.10696 0.56485-0.10696 0.3404-0.42933 0.96322-0.32385 1.2471" fill="none" stroke="#fff" stroke-linecap="round" stroke-linejoin="round" stroke-miterlimit="10" stroke-width=".04779"/>
<path transform="matrix(2.6295 0 0 2.6279 3.9689 1.495e-14)" d="m259.08 44.589c-0.054966-0.2854 0.10845-0.45634 0.37882-0.45634 0.16341 0.39986 0 0.51283 0 0.85471 0 0.17243 0.054966 0.34337 0.054966 0.45634 0 0.22891 0 0.39986 0.054966 0.62728" fill="none" stroke="#fff" stroke-linecap="round" stroke-linejoin="round" stroke-miterlimit="10" stroke-width=".04779"/>
<path transform="matrix(2.6295 0 0 2.6279 3.9689 1.495e-14)" d="m258.33 40.956c0.16787-0.057972 0.3907-0.057972 0.3907-0.28689" fill="none" stroke="#fff" stroke-linecap="round" stroke-linejoin="round" stroke-miterlimit="10" stroke-width=".04779"/>
<path transform="matrix(2.6295 0 0 2.6279 3.9689 1.495e-14)" d="m259.45 37.08c-0.046052 0.22891-0.046052 0.45931-0.046052 0.74471" fill="none" stroke="#fff" stroke-linecap="round" stroke-linejoin="round" stroke-miterlimit="10" stroke-width=".04779"/>
<path d="m691.11 87.453c0-0.15234-0.14062-0.44531 0-0.74609-0.42188 0.59375-0.98047 0.74609-1.1211 0 0 0.14844 0 0.44531-0.14062 0.74609-0.28125 0.74609-0.98047 0.89453-1.1211 1.6406-0.14062 0.89453 0.14063 0.74609 0 1.3398-0.14062 0.74609-0.69922 0.74609-0.83984 1.6406-0.14062 0.74609 0.55859 1.1953 0.27734 1.7891-0.13672 0.74609-0.55859 0.89453-0.69922 1.6406-0.28125 0.59766 0.28125 0.59766 0.14062 1.1914-0.14062 0.59766-0.84375 0.89453-0.5625 3.1328 0.42188 2.0859 0.14062 3.2773 1.2617 2.6836 0.70312-0.44922 1.125-2.5352 1.125-4.3242 0-1.1914 0.27734-2.2383 0.27734-2.9844 0-0.74219 0-2.6797 0.14062-3.875 0.14062-1.7891 0.70312-3.2812 1.543-3.4297 0-0.14453 0-0.29688 0.13672-0.44531zm-2.1016-1.043h-0.14062z" fill="#008aca" fill-rule="evenodd"/>
<path d="m687.46 122.57c0.14062 0.74609 0.5625 0.89453 0.69922 1.6406 0.28125 0.59766-0.41797 0.44922-0.28125 1.3438 0.14453 0.74609 0.70313 0.74609 0.84375 1.4961 0.14063 0.74219-0.14062 1.043 0 1.9375 0.14063 0.74609 0.83984 0.89453 1.1211 1.6445 0 0.14844 0 0.29688 0.14062 0.29688 0 0 0.13672-0.14844 0.27734-0.29688 0.14062 0.14844 0.42188 0.44531 0.5625 0.59766-0.14062-0.44922 0.14062-0.74609 0.27734-1.0469-0.55859-0.44922-1.1172-1.793-1.2578-3.4336-0.14062-1.1953-0.14062-3.1367-0.14062-3.8828 0-0.74609-0.28125-1.793-0.28125-2.9883 0-1.7891-0.42188-3.7305-0.98047-4.1797-1.1211-0.59766-0.98047 0.44922-1.4023 2.5391-0.28125 2.2422 0.42188 2.5391 0.5625 3.1367 0.14062 0.59375-0.42188 0.59375-0.14062 1.1953" fill="#008aca" fill-rule="evenodd"/>
<path transform="matrix(2.6295 0 0 2.6279 3.9689 1.495e-14)" d="m260.63 50.108c0.3194 0 0.3194-0.11297 0.21392-0.39837-0.10696-0.28391-0.37288-0.3404-0.42636-0.62431-0.053481-0.34188 0.05348-0.45486 0-0.73877-0.053481-0.2854-0.2674-0.2854-0.32088-0.56931-0.05348-0.3404 0.21392-0.28391 0.10696-0.51134-0.05348-0.28391-0.21244-0.34188-0.26592-0.6258-0.10696-0.22743 0.10548-0.22743 0.05348-0.45486-0.05348-0.22743-0.32088-0.3404-0.21392-1.1936 0.16044-0.68228 0.10696-1.0807 0.37288-1.0242-1.0117-0.56783-0.79923-4.1502-0.10696-4.8889-0.15896-0.11297-0.15896-0.51134-0.26592-1.0807-0.10696-0.85322 0.16044-0.9662 0.21392-1.1936 0.051995-0.22743-0.16044-0.22743-0.05348-0.45486 0.05348-0.28391 0.21244-0.34188 0.26592-0.6258 0.10696-0.22743-0.16044-0.39688-0.10696-0.68228 0.053481-0.3404 0.2674-0.3404 0.32088-0.6258 0.05348-0.22594-0.053481-0.16946 0-0.51134 0.05348-0.28391 0.3194-0.3404 0.42636-0.62431 0.10548-0.2854 0.10548-0.39837-0.21392-0.39837h-0.10696" fill="none" stroke="#fff" stroke-linecap="round" stroke-linejoin="round" stroke-miterlimit="10" stroke-width=".09558"/>
<path transform="matrix(2.6295 0 0 2.6279 3.9689 1.495e-14)" d="m260.52 32.882c-0.7918 0.73877-2.5893 3.4114-2.5893 8.7552 0 6.1405 2.6948 8.4713 2.6948 8.4713" fill="none" stroke="#000" stroke-linecap="round" stroke-linejoin="round" stroke-miterlimit="10" stroke-width=".09558"/>
<path transform="matrix(2.6295 0 0 2.6279 3.9689 1.495e-14)" d="m290.13 41.432c0-1.3973 1.0651-2.5285 2.3799-2.5285s2.3799 1.1312 2.3799 2.5285-1.0651 2.5285-2.3799 2.5285-2.3799-1.1312-2.3799-2.5285zm0 0" fill="none" stroke="#fff" stroke-linecap="round" stroke-linejoin="round" stroke-miterlimit="10" stroke-width="1.0753"/>
<path transform="matrix(2.6295 0 0 2.6279 3.9689 1.495e-14)" d="m290.13 41.432c0-1.3973 1.0651-2.5285 2.3799-2.5285s2.3799 1.1312 2.3799 2.5285-1.0651 2.5285-2.3799 2.5285-2.3799-1.1312-2.3799-2.5285zm0 0" fill="none" stroke="#000" stroke-linecap="round" stroke-linejoin="round" stroke-miterlimit="10" stroke-width=".43011"/>
<path transform="matrix(2.6295 0 0 2.6279 3.9689 1.495e-14)" d="m152.69 90.381h105.38" fill="none" stroke="#000" stroke-width="1.5"/>
<path d="m661.95 227.97 25.855 9.5039-25.855 9.5c4.1289-5.6094 4.1055-13.285 0-19.004z" fill-rule="evenodd"/>
<path transform="matrix(2.6295 0 0 2.6279 3.9689 1.495e-14)" d="m130.86 90.353h-105.38" fill="none" stroke="#000" stroke-width="1.5"/>
<path d="m91.586 246.98-25.855-9.5 25.855-9.5039c-4.1328 5.6094-4.1055 13.285 0 19.004z" fill-rule="evenodd"/>
<path transform="matrix(2.6295 0 0 2.6279 3.9689 1.495e-14)" d="m260.81 95.38v-17.839" fill="none" stroke="#000" stroke-width="1.5"/>
<path transform="matrix(2.6295 0 0 2.6279 3.9689 1.495e-14)" d="m22.738 95.38v-17.839" fill="none" stroke="#000" stroke-width="1.5"/>
<path transform="matrix(2.6295 0 0 2.6279 3.9689 1.495e-14)" d="m39.621 20.335h4.5874" fill="none" stroke="#000" stroke-width=".75"/>
<path transform="matrix(2.6295 0 0 2.6279 3.9689 1.495e-14)" d="m39.621 11.969h4.5874" fill="none" stroke="#000" stroke-width=".75"/>
<path transform="matrix(2.6295 0 0 2.6279 3.9689 1.495e-14)" d="m41.915 0.62728v8.2885" fill="none" stroke="#000" stroke-width="1.5"/>
<path d="m114.18 18.699-3.9414-3.9414 3.9414 13.797 3.9453-13.797z" fill-rule="evenodd"/>
<path transform="matrix(2.6295 0 0 2.6279 3.9689 1.495e-14)" d="m41.915 31.675v-8.287" fill="none" stroke="#000" stroke-width="1.5"/>
<path d="m114.18 66.191 3.9453 3.9414-3.9453-13.797-3.9414 13.797z" fill-rule="evenodd"/>
<path transform="matrix(2.6295 0 0 2.6279 3.9689 1.495e-14)" d="m34.686 50.525 257.6-8.4683" fill="none" stroke="#000" stroke-width=".5"/>
<path transform="matrix(2.6295 0 0 2.6279 3.9689 1.495e-14)" d="m34.972 57.853 257.14-17.157" fill="none" stroke="#000" stroke-width=".5"/>
<path transform="matrix(2.6295 0 0 2.6279 3.9689 1.495e-14)" d="m183.88 59.528c-3.8001-2.194-6.9569-5.3497-9.1511-9.1506" fill="#fff" stroke="#000"/>
<path d="m468.67 141.49 7.1836 1.9219-13.758-13.301 4.6484 18.559z" fill-rule="evenodd"/>
<path transform="matrix(2.6295 0 0 2.6279 3.9689 1.495e-14)" d="m173.44 43.928c0-4.388 1.1543-8.6987 3.3485-12.5" fill="#fff" stroke="#000"/>
<path d="m466.39 101.69-6.3398 17.227-6.3359-17.227c3.7422 2.75 8.8594 2.7344 12.676 0z" fill-rule="evenodd"/>
<g>
<use x="351.847656" y="245.145817" xlink:href="#f"/>
<use x="370.253996" y="245.145817" xlink:href="#a"/>
</g>
<g>
<use x="124.292969" y="53.212223" xlink:href="#e"/>
<use x="142.699309" y="53.212223" xlink:href="#t"/>
<use x="150.58774" y="53.212223" xlink:href="#f"/>
<use x="168.99408" y="53.212223" xlink:href="#a"/>
<use x="197.918328" y="53.212223" xlink:href="#a"/>
</g>
<g>
<use x="124.292969" y="77.955613" xlink:href="#p"/>
<use x="132.1814" y="77.955613" xlink:href="#d"/>
<use x="145.328786" y="77.955613" xlink:href="#c"/>
<use x="153.217217" y="77.955613" xlink:href="#b"/>
<use x="161.105648" y="77.955613" xlink:href="#k"/>
<use x="174.253034" y="77.955613" xlink:href="#j"/>
<use x="195.288851" y="77.955613" xlink:href="#b"/>
<use x="203.177282" y="77.955613" xlink:href="#i"/>
<use x="216.324668" y="77.955613" xlink:href="#h"/>
<use x="221.583622" y="77.955613" xlink:href="#g"/>
<use x="232.101531" y="77.955613" xlink:href="#c"/>
<use x="239.989962" y="77.955613" xlink:href="#d"/>
<use x="253.137348" y="77.955613" xlink:href="#o"/>
<use x="266.284733" y="77.955613" xlink:href="#n"/>
<use x="276.802642" y="77.955613" xlink:href="#m"/>
<use x="289.950028" y="77.955613" xlink:href="#l"/>
</g>
<g>
<use x="479.890625" y="82.622379" xlink:href="#s"/>
<use x="498.296965" y="82.622379" xlink:href="#r"/>
<use x="521.962259" y="82.622379" xlink:href="#e"/>
<use x="540.368599" y="82.622379" xlink:href="#q"/>
</g>
<path transform="matrix(2.6295 0 0 2.6279 3.9689 1.495e-14)" d="m9.1436 34.177v57.233l29.335-29.334v-57.046z" fill="#fff" stroke="#000" stroke-width=".75"/>
<path transform="matrix(2.6295 0 0 2.6279 3.9689 1.495e-14)" d="m12.672 37.585v43.384l22.3-22.282v-43.275z" stroke="#000" stroke-width=".64209"/>
<path d="m63.074 97.168 7.1367-7.0977v20.016l-7.1367 7.1055z" fill="#f2f2f2"/>
<path d="m63.074 74.262 7.1367-7.0898v20.016l-7.1367 7.0977z" fill="#f2f2f2"/>
<path d="m38.746 144.3 7.1523-7.1211v20.039l-7.1523 7.1289z" fill="#f2f2f2"/>
<path d="m38.746 167.23 7.1523-7.125v20.035l-7.1523 7.1367z" fill="#f2f2f2"/>
<path d="m38.746 121.37 7.1523-7.1133v20.039l-7.1523 7.1211z" fill="#f2f2f2"/>
<path d="m63.074 165.89 7.1367-7.1211v20.02l-7.1367 7.125z" fill="#f2f2f2"/>
<path d="m63.074 142.98 7.1367-7.1133v20.016l-7.1367 7.1211z" fill="#f2f2f2"/>
<path d="m88.004 95.25 7.1211-7.0898v19.996l-7.1211 7.0977z" fill="#f2f2f2"/>
<path d="m88.004 118.13 7.1211-7.0977v19.996l-7.1211 7.1016z" fill="#f2f2f2"/>
<path d="m88.004 72.371 7.1211-7.0859v19.996l-7.1211 7.0898z" fill="#f2f2f2"/>
<path transform="matrix(2.6295 0 0 2.6279 3.9689 1.495e-14)" d="m35.059 15.368 3.4198-3.3995" fill="none" stroke="#000" stroke-width=".75"/>
<path transform="matrix(2.6295 0 0 2.6279 3.9689 1.495e-14)" d="m35.059 23.739 3.4198-3.404" fill="none" stroke="#000" stroke-width=".75"/>
</svg>
