<?xml version="1.0" encoding="UTF-8"?>
<svg width="400px" height="421px" version="1.1" viewBox="0 0 400 421" xmlns="http://www.w3.org/2000/svg" xmlns:xlink="http://www.w3.org/1999/xlink">
<defs>
<symbol id="aw" overflow="visible">
<path d="m6.1719-10.484-4.0625 6.3438h4.0625zm-0.42188-1.3906h2.0156v7.7344h1.7031v1.3438h-1.7031v2.7969h-1.5938v-2.7969h-5.375v-1.5625z"/>
</symbol>
<symbol id="a" overflow="visible">
<path d="m5.1875-10.828c-0.83594 0-1.4609 0.41406-1.875 1.2344-0.41797 0.8125-0.625 2.0391-0.625 3.6719 0 1.625 0.20703 2.8438 0.625 3.6562 0.41406 0.8125 1.0391 1.2188 1.875 1.2188 0.83203 0 1.457-0.40625 1.875-1.2188 0.41406-0.8125 0.625-2.0312 0.625-3.6562 0-1.6328-0.21094-2.8594-0.625-3.6719-0.41797-0.82031-1.043-1.2344-1.875-1.2344zm0-1.2656c1.332 0 2.3477 0.52734 3.0469 1.5781 0.70703 1.0547 1.0625 2.5859 1.0625 4.5938 0 2-0.35547 3.5273-1.0625 4.5781-0.69922 1.0547-1.7148 1.5781-3.0469 1.5781-1.3359 0-2.3555-0.52344-3.0625-1.5781-0.69922-1.0508-1.0469-2.5781-1.0469-4.5781 0-2.0078 0.34766-3.5391 1.0469-4.5938 0.70703-1.0508 1.7266-1.5781 3.0625-1.5781z"/>
</symbol>
<symbol id="h" overflow="visible">
<path d="m1.7656-11.875h6.3125v1.3438h-4.8438v2.9219c0.22656-0.082031 0.45703-0.14453 0.6875-0.1875 0.23828-0.039063 0.47656-0.0625 0.71875-0.0625 1.3203 0 2.3672 0.36719 3.1406 1.0938 0.78125 0.73047 1.1719 1.7148 1.1719 2.9531 0 1.2812-0.40234 2.2773-1.2031 2.9844-0.79297 0.71094-1.9141 1.0625-3.3594 1.0625-0.5 0-1.0117-0.046875-1.5312-0.14062-0.51172-0.085938-1.043-0.20703-1.5938-0.375v-1.6094c0.46875 0.26172 0.95703 0.45312 1.4688 0.57812 0.50781 0.125 1.0508 0.1875 1.625 0.1875 0.91406 0 1.6406-0.23828 2.1719-0.71875 0.53906-0.47656 0.8125-1.1328 0.8125-1.9688 0-0.82031-0.27344-1.4727-0.8125-1.9531-0.53125-0.48828-1.2578-0.73438-2.1719-0.73438-0.42969 0-0.85938 0.046875-1.2969 0.14062-0.42969 0.09375-0.85938 0.24609-1.2969 0.45312z"/>
</symbol>
<symbol id="an" overflow="visible">
<path d="m5.3906-6.5781c-0.73047 0-1.3086 0.25-1.7344 0.75-0.41797 0.49219-0.625 1.1641-0.625 2.0156 0 0.85547 0.20703 1.5312 0.625 2.0312 0.42578 0.49219 1.0039 0.73438 1.7344 0.73438 0.71875 0 1.2852-0.24219 1.7031-0.73438 0.42578-0.5 0.64062-1.1758 0.64062-2.0312 0-0.85156-0.21484-1.5234-0.64062-2.0156-0.41797-0.5-0.98438-0.75-1.7031-0.75zm3.1875-5.0469v1.4688c-0.40625-0.1875-0.82031-0.33203-1.2344-0.4375-0.40625-0.10156-0.80859-0.15625-1.2031-0.15625-1.0625 0-1.875 0.35938-2.4375 1.0781s-0.88672 1.8047-0.96875 3.25c0.3125-0.45703 0.70312-0.8125 1.1719-1.0625 0.47656-0.25 1.0039-0.375 1.5781-0.375 1.1875 0 2.125 0.36719 2.8125 1.0938 0.69531 0.71875 1.0469 1.7031 1.0469 2.9531 0 1.2188-0.35938 2.1992-1.0781 2.9375-0.71875 0.74219-1.6797 1.1094-2.875 1.1094-1.375 0-2.4297-0.52344-3.1562-1.5781-0.73047-1.0508-1.0938-2.5781-1.0938-4.5781 0-1.8828 0.44141-3.3828 1.3281-4.5 0.89453-1.1133 2.0938-1.6719 3.5938-1.6719 0.40625 0 0.8125 0.042969 1.2188 0.125 0.41406 0.074219 0.84766 0.1875 1.2969 0.34375z"/>
</symbol>
<symbol id="n" overflow="visible">
<path d="m2.0156-1.3594h2.6406v-9.0625l-2.8594 0.57812v-1.4688l2.8438-0.5625h1.6094v10.516h2.625v1.3594h-6.8594z"/>
</symbol>
<symbol id="am" overflow="visible">
<path d="m3.125-1.3594h5.625v1.3594h-7.5625v-1.3594c0.61328-0.625 1.4453-1.4688 2.5-2.5312 1.0508-1.0625 1.7109-1.75 1.9844-2.0625 0.51953-0.57031 0.87891-1.0547 1.0781-1.4531 0.20703-0.40625 0.3125-0.80469 0.3125-1.2031 0-0.625-0.22656-1.1328-0.67188-1.5312-0.4375-0.40625-1.0117-0.60938-1.7188-0.60938-0.51172 0-1.0469 0.089844-1.6094 0.26562-0.55469 0.17969-1.1484 0.44531-1.7812 0.79688v-1.625c0.64453-0.25781 1.25-0.45312 1.8125-0.57812 0.5625-0.13281 1.0781-0.20312 1.5469-0.20312 1.2266 0 2.207 0.30859 2.9375 0.92188 0.73828 0.61719 1.1094 1.4375 1.1094 2.4688 0 0.49219-0.09375 0.95312-0.28125 1.3906s-0.52344 0.95312-1 1.5469c-0.13672 0.15625-0.55859 0.60547-1.2656 1.3438-0.71094 0.73047-1.7148 1.75-3.0156 3.0625z"/>
</symbol>
<symbol id="al" overflow="visible">
<path d="m0.54688-11.875h1.625l2.5 10.031 2.4844-10.031h1.8125l2.5 10.031 2.5-10.031h1.625l-2.9844 11.875h-2.0312l-2.5-10.312-2.5312 10.312h-2.0312z"/>
</symbol>
<symbol id="ak" overflow="visible">
<path d="m5.5938-4.4844c-1.1875 0-2.0117 0.13672-2.4688 0.40625-0.46094 0.27344-0.6875 0.73438-0.6875 1.3906 0 0.52344 0.17188 0.93359 0.51562 1.2344 0.34375 0.30469 0.8125 0.45312 1.4062 0.45312 0.8125 0 1.4609-0.28516 1.9531-0.85938 0.48828-0.57031 0.73438-1.3359 0.73438-2.2969v-0.32812zm2.9219-0.59375v5.0781h-1.4688v-1.3594c-0.33594 0.54297-0.75 0.94531-1.25 1.2031s-1.1094 0.39062-1.8281 0.39062c-0.91797 0-1.6484-0.25391-2.1875-0.76562-0.53125-0.51953-0.79688-1.207-0.79688-2.0625 0-1 0.33203-1.7539 1-2.2656 0.67578-0.50781 1.6797-0.76562 3.0156-0.76562h2.0469v-0.14062c0-0.67578-0.22656-1.1953-0.67188-1.5625-0.4375-0.375-1.0586-0.5625-1.8594-0.5625-0.51172 0-1.0117 0.0625-1.5 0.1875-0.48047 0.125-0.9375 0.30859-1.375 0.54688v-1.3438c0.53125-0.20703 1.0469-0.36328 1.5469-0.46875 0.50781-0.10156 1.0039-0.15625 1.4844-0.15625 1.2891 0 2.2539 0.33594 2.8906 1 0.63281 0.66797 0.95312 1.6836 0.95312 3.0469z"/>
</symbol>
<symbol id="aj" overflow="visible">
<path d="m0.48438-8.9062h1.5625l2.7812 7.4688 2.7812-7.4688h1.5625l-3.3438 8.9062h-2z"/>
</symbol>
<symbol id="p" overflow="visible">
<path d="m9.1719-4.8281v0.71875h-6.75c0.070313 1.0117 0.37891 1.7812 0.92188 2.3125 0.53906 0.52344 1.2969 0.78125 2.2656 0.78125 0.5625 0 1.1094-0.066406 1.6406-0.20312 0.53125-0.13281 1.0547-0.34375 1.5781-0.625v1.3906c-0.53125 0.21875-1.0742 0.38672-1.625 0.5-0.55469 0.125-1.1094 0.1875-1.6719 0.1875-1.4297 0-2.5586-0.41016-3.3906-1.2344-0.82422-0.83203-1.2344-1.957-1.2344-3.375 0-1.457 0.39062-2.6133 1.1719-3.4688 0.78906-0.85156 1.8516-1.2812 3.1875-1.2812 1.207 0 2.1602 0.38672 2.8594 1.1562 0.69531 0.77344 1.0469 1.8203 1.0469 3.1406zm-1.4688-0.42188c-0.011719-0.80078-0.23438-1.4414-0.67188-1.9219-0.4375-0.47656-1.0234-0.71875-1.75-0.71875-0.8125 0-1.4648 0.23438-1.9531 0.70312-0.49219 0.46094-0.77344 1.1055-0.84375 1.9375z"/>
</symbol>
<symbol id="av" overflow="visible">
<path d="m1.5312-12.375h1.4688v12.375h-1.4688z"/>
</symbol>
<symbol id="o" overflow="visible">
<path d="m8.9531-5.375v5.375h-1.4688v-5.3281c0-0.84375-0.16797-1.4727-0.5-1.8906-0.32422-0.42578-0.8125-0.64062-1.4688-0.64062-0.79297 0-1.418 0.25781-1.875 0.76562-0.46094 0.5-0.6875 1.1875-0.6875 2.0625v5.0312h-1.4688v-8.9062h1.4688v1.375c0.35156-0.53125 0.76562-0.92578 1.2344-1.1875 0.47656-0.26953 1.0312-0.40625 1.6562-0.40625 1.0195 0 1.7891 0.32031 2.3125 0.95312 0.53125 0.63672 0.79688 1.5703 0.79688 2.7969z"/>
</symbol>
<symbol id="au" overflow="visible">
<path d="m7.4062-4.5625c0-1.0625-0.21875-1.8828-0.65625-2.4688-0.4375-0.58203-1.0547-0.875-1.8438-0.875-0.78125 0-1.3984 0.29297-1.8438 0.875-0.4375 0.58594-0.65625 1.4062-0.65625 2.4688s0.21875 1.8867 0.65625 2.4688c0.44531 0.58594 1.0625 0.875 1.8438 0.875 0.78906 0 1.4062-0.28906 1.8438-0.875 0.4375-0.58203 0.65625-1.4062 0.65625-2.4688zm1.4688 3.4531c0 1.5195-0.33984 2.6484-1.0156 3.3906-0.67969 0.73828-1.7109 1.1094-3.0938 1.1094-0.52344 0-1.0117-0.042969-1.4688-0.125-0.44922-0.074219-0.89062-0.1875-1.3281-0.34375v-1.4219c0.4375 0.22656 0.86328 0.39844 1.2812 0.51562 0.41406 0.11328 0.84375 0.17188 1.2812 0.17188 0.95703 0 1.6758-0.25781 2.1562-0.76562 0.47656-0.5 0.71875-1.2578 0.71875-2.2656v-0.71875c-0.30469 0.52344-0.69531 0.91406-1.1719 1.1719-0.46875 0.26172-1.0312 0.39062-1.6875 0.39062-1.0938 0-1.9766-0.41406-2.6406-1.25-0.66797-0.83203-1-1.9375-1-3.3125s0.33203-2.4766 1-3.3125c0.66406-0.83203 1.5469-1.25 2.6406-1.25 0.65625 0 1.2188 0.13281 1.6875 0.39062 0.47656 0.26172 0.86719 0.65234 1.1719 1.1719v-1.3438h1.4688z"/>
</symbol>
<symbol id="at" overflow="visible">
<path d="m2.9844-11.438v2.5312h3.0156v1.125h-3.0156v4.8438c0 0.73047 0.097656 1.1992 0.29688 1.4062 0.19531 0.21094 0.60156 0.3125 1.2188 0.3125h1.5v1.2188h-1.5c-1.1367 0-1.918-0.20703-2.3438-0.625-0.42969-0.42578-0.64062-1.1953-0.64062-2.3125v-4.8438h-1.0781v-1.125h1.0781v-2.5312z"/>
</symbol>
<symbol id="as" overflow="visible">
<path d="m8.9531-5.375v5.375h-1.4688v-5.3281c0-0.84375-0.16797-1.4727-0.5-1.8906-0.32422-0.42578-0.8125-0.64062-1.4688-0.64062-0.79297 0-1.418 0.25781-1.875 0.76562-0.46094 0.5-0.6875 1.1875-0.6875 2.0625v5.0312h-1.4688v-12.375h1.4688v4.8438c0.35156-0.53125 0.76562-0.92578 1.2344-1.1875 0.47656-0.26953 1.0312-0.40625 1.6562-0.40625 1.0195 0 1.7891 0.32031 2.3125 0.95312 0.53125 0.63672 0.79688 1.5703 0.79688 2.7969z"/>
</symbol>
<symbol id="ar" overflow="visible"></symbol>
<symbol id="aq" overflow="visible">
<path d="m1.4062-12.375h3.375v1.125h-1.9062v12.266h1.9062v1.1406h-3.375z"/>
</symbol>
<symbol id="ap" overflow="visible">
<path d="m8.4844-7.2031c0.36328-0.65625 0.80078-1.1406 1.3125-1.4531 0.50781-0.3125 1.1094-0.46875 1.7969-0.46875 0.92578 0 1.6406 0.32812 2.1406 0.98438 0.50781 0.64844 0.76562 1.5703 0.76562 2.7656v5.375h-1.4688v-5.3281c0-0.85156-0.15234-1.4883-0.45312-1.9062-0.30469-0.41406-0.76562-0.625-1.3906-0.625-0.76172 0-1.3594 0.25781-1.7969 0.76562-0.4375 0.5-0.65625 1.1875-0.65625 2.0625v5.0312h-1.4844v-5.3281c0-0.86328-0.15234-1.5-0.45312-1.9062-0.30469-0.41406-0.76562-0.625-1.3906-0.625-0.75 0-1.3516 0.25781-1.7969 0.76562-0.4375 0.51172-0.65625 1.1992-0.65625 2.0625v5.0312h-1.4688v-8.9062h1.4688v1.375c0.33203-0.53906 0.73438-0.94141 1.2031-1.2031 0.46875-0.25781 1.0234-0.39062 1.6719-0.39062 0.64453 0 1.1914 0.16797 1.6406 0.5 0.45703 0.32422 0.79688 0.79688 1.0156 1.4219z"/>
</symbol>
<symbol id="ao" overflow="visible">
<path d="m4.9688-12.375v14.531h-3.3906v-1.1406h1.9062v-12.266h-1.9062v-1.125z"/>
</symbol>
<symbol id="ai" overflow="visible">
<path d="m-10.312-5.5625 5.9219 2.1719v-4.375zm-1.5781 0.90625v-1.8281l11.891-4.5312v1.6719l-3.0469 1.0781v5.3594l3.0469 1.0781v1.7031z"/>
</symbol>
<symbol id="ac" overflow="visible">
<path d="m-4.4531-7.9375c-1.0703 0-1.9141 0.22656-2.5312 0.67188-0.61328 0.4375-0.92188 1.0469-0.92188 1.8281 0 0.77344 0.30859 1.3828 0.92188 1.8281 0.61719 0.4375 1.4609 0.65625 2.5312 0.65625 1.0859 0 1.9336-0.21875 2.5469-0.65625 0.60547-0.44531 0.90625-1.0547 0.90625-1.8281 0-0.78125-0.30078-1.3906-0.90625-1.8281-0.61328-0.44531-1.4609-0.67188-2.5469-0.67188zm-3.1094 4.9844c-0.53125-0.30078-0.92578-0.6875-1.1875-1.1562-0.25781-0.47656-0.39062-1.0391-0.39062-1.6875 0-1.082 0.43359-1.9609 1.2969-2.6406 0.85547-0.67578 1.9844-1.0156 3.3906-1.0156s2.543 0.33984 3.4062 1.0156c0.85547 0.67969 1.2812 1.5586 1.2812 2.6406 0 0.64844-0.13281 1.2109-0.39062 1.6875-0.25781 0.46875-0.65625 0.85547-1.1875 1.1562h1.3438v1.4688h-12.391v-1.4688z"/>
</symbol>
<symbol id="y" overflow="visible">
<path d="m-8.6562-7.2188h1.3906c-0.21875 0.41797-0.37891 0.85156-0.48438 1.2969-0.10156 0.4375-0.15625 0.89844-0.15625 1.375 0 0.73047 0.11719 1.2773 0.34375 1.6406 0.21875 0.36719 0.54688 0.54688 0.98438 0.54688 0.34375 0 0.61719-0.12891 0.8125-0.39062 0.1875-0.25781 0.37109-0.78516 0.54688-1.5781l0.10938-0.5c0.23047-1.0312 0.54688-1.7656 0.95312-2.2031s0.96875-0.65625 1.6875-0.65625c0.83594 0 1.4961 0.32812 1.9844 0.98438 0.48047 0.64844 0.71875 1.543 0.71875 2.6875 0 0.48047-0.046875 0.98047-0.14062 1.5-0.09375 0.51172-0.23438 1.0547-0.42188 1.625h-1.5156c0.28125-0.53125 0.49609-1.0547 0.64062-1.5781 0.13672-0.53125 0.20312-1.0547 0.20312-1.5781 0-0.6875-0.11328-1.2109-0.34375-1.5781-0.23828-0.375-0.57031-0.5625-1-0.5625-0.40625 0-0.71094 0.13672-0.92188 0.40625-0.20703 0.26172-0.41016 0.84375-0.60938 1.75l-0.125 0.51562c-0.1875 0.90625-0.47656 1.5625-0.875 1.9688-0.39453 0.39844-0.9375 0.59375-1.625 0.59375-0.84375 0-1.4922-0.29688-1.9531-0.89062-0.45703-0.59375-0.6875-1.4375-0.6875-2.5312 0-0.53906 0.042969-1.0469 0.125-1.5156 0.085937-0.47656 0.20312-0.92188 0.35938-1.3281z"/>
</symbol>
<symbol id="g" overflow="visible">
<path d="m-7.8906-4.9844c0 0.78125 0.30859 1.4023 0.92188 1.8594 0.61719 0.46094 1.4531 0.6875 2.5156 0.6875 1.0742 0 1.918-0.22266 2.5312-0.67188 0.60547-0.45703 0.90625-1.082 0.90625-1.875 0-0.78125-0.30469-1.3984-0.92188-1.8594-0.61328-0.45703-1.4531-0.6875-2.5156-0.6875-1.0508 0-1.8828 0.23047-2.5 0.6875-0.625 0.46094-0.9375 1.0781-0.9375 1.8594zm-1.25 0c0-1.2812 0.41797-2.2812 1.25-3 0.82422-0.72656 1.9688-1.0938 3.4375-1.0938 1.4609 0 2.6055 0.36719 3.4375 1.0938 0.83594 0.71875 1.25 1.7188 1.25 3 0 1.2734-0.41406 2.2734-1.25 3-0.83203 0.71875-1.9766 1.0781-3.4375 1.0781-1.4688 0-2.6133-0.35938-3.4375-1.0781-0.83203-0.72656-1.25-1.7266-1.25-3z"/>
</symbol>
<symbol id="x" overflow="visible">
<path d="m-7.5469-6.7031c-0.09375 0.16797-0.16016 0.35156-0.20312 0.54688-0.050781 0.1875-0.078125 0.40234-0.078125 0.64062 0 0.82422 0.27344 1.4609 0.8125 1.9062 0.53125 0.4375 1.3047 0.65625 2.3125 0.65625h4.7031v1.4688h-8.9219v-1.4688h1.3906c-0.53906-0.30078-0.94141-0.69531-1.2031-1.1875-0.26953-0.5-0.40625-1.1016-0.40625-1.8125 0-0.10156 0.011719-0.21094 0.03125-0.32812 0.011719-0.125 0.027344-0.25781 0.046875-0.40625z"/>
</symbol>
<symbol id="w" overflow="visible">
<path d="m-1.3438-2.9531h4.7344v1.4688h-12.312v-1.4688h1.3594c-0.53125-0.30078-0.92578-0.6875-1.1875-1.1562-0.25781-0.47656-0.39062-1.0391-0.39062-1.6875 0-1.082 0.43359-1.9609 1.2969-2.6406 0.85547-0.67578 1.9844-1.0156 3.3906-1.0156s2.543 0.33984 3.4062 1.0156c0.85547 0.67969 1.2812 1.5586 1.2812 2.6406 0 0.64844-0.13281 1.2109-0.39062 1.6875-0.25781 0.46875-0.65625 0.85547-1.1875 1.1562zm-3.1094-4.9844c-1.0703 0-1.9141 0.22656-2.5312 0.67188-0.61328 0.4375-0.92188 1.0469-0.92188 1.8281 0 0.77344 0.30859 1.3828 0.92188 1.8281 0.61719 0.4375 1.4609 0.65625 2.5312 0.65625 1.0859 0 1.9336-0.21875 2.5469-0.65625 0.60547-0.44531 0.90625-1.0547 0.90625-1.8281 0-0.78125-0.30078-1.3906-0.90625-1.8281-0.61328-0.44531-1.4609-0.67188-2.5469-0.67188z"/>
</symbol>
<symbol id="b" overflow="visible">
<path d="m-11.453-2.9844h2.5312v-3.0156h1.1406v3.0156h4.8438c0.73047 0 1.1992-0.097656 1.4062-0.29688 0.19922-0.19531 0.29688-0.60156 0.29688-1.2188v-1.5h1.2344v1.5c0 1.1367-0.20703 1.918-0.625 2.3438-0.42578 0.42969-1.1953 0.64062-2.3125 0.64062h-4.8438v1.0781h-1.1406v-1.0781h-2.5312z"/>
</symbol>
<symbol id="d" overflow="visible">
<path d="m-8.9219-1.5312v-1.4688h8.9219v1.4688zm-3.4688 0v-1.4688h1.8594v1.4688z"/>
</symbol>
<symbol id="e" overflow="visible">
<path d="m-5.3906-8.9375h5.3906v1.4531h-5.3438c-0.84375 0-1.4727 0.16797-1.8906 0.5-0.41406 0.32422-0.625 0.82031-0.625 1.4844 0 0.78125 0.25781 1.4023 0.76562 1.8594 0.5 0.46094 1.1836 0.6875 2.0469 0.6875h5.0469v1.4688h-8.9219v-1.4688h1.3906c-0.53906-0.35156-0.94141-0.76562-1.2031-1.2344-0.26953-0.47656-0.40625-1.0234-0.40625-1.6406 0-1.0312 0.32031-1.8047 0.95312-2.3281 0.63672-0.51953 1.5703-0.78125 2.7969-0.78125z"/>
</symbol>
<symbol id="c" overflow="visible"></symbol>
<symbol id="ah" overflow="visible">
<path d="m-5.2344-11.844c0 0.46094 0.19922 0.82031 0.59375 1.0781 0.39844 0.26172 0.94531 0.39062 1.6406 0.39062 0.6875 0 1.2305-0.12891 1.625-0.39062 0.39844-0.25781 0.59375-0.61719 0.59375-1.0781 0-0.45703-0.19531-0.81641-0.59375-1.0781-0.39453-0.25781-0.9375-0.39062-1.625-0.39062-0.69531 0-1.2422 0.13281-1.6406 0.39062-0.39453 0.26172-0.59375 0.62109-0.59375 1.0781zm-1.0156 0c0-0.84375 0.29297-1.5078 0.875-2 0.58594-0.5 1.375-0.75 2.375-0.75 0.99219 0 1.7773 0.25 2.3594 0.75 0.58594 0.5 0.875 1.168 0.875 2 0 0.84375-0.28906 1.5156-0.875 2.0156-0.58203 0.49219-1.3672 0.73438-2.3594 0.73438-1 0-1.7891-0.24219-2.375-0.73438-0.58203-0.5-0.875-1.1719-0.875-2.0156zm-4.8438 8.2031c0 0.46094 0.19922 0.82031 0.59375 1.0781 0.39844 0.26172 0.9375 0.39062 1.625 0.39062 0.69922 0 1.2461-0.125 1.6406-0.375 0.39844-0.25781 0.59375-0.625 0.59375-1.0938 0-0.45703-0.19531-0.81641-0.59375-1.0781-0.39453-0.25781-0.94141-0.39062-1.6406-0.39062-0.6875 0-1.2266 0.13281-1.625 0.39062-0.39453 0.26172-0.59375 0.62109-0.59375 1.0781zm-1.0156-7.1875v-1.2656l12.344 7.4375v1.2656zm0 7.1875c0-0.83203 0.29297-1.5 0.875-2 0.58594-0.5 1.3711-0.75 2.3594-0.75 1 0 1.793 0.25 2.375 0.75 0.58594 0.49219 0.875 1.1562 0.875 2s-0.28906 1.5117-0.875 2c-0.58203 0.49219-1.375 0.73438-2.375 0.73438-0.98828 0-1.7734-0.24219-2.3594-0.73438-0.58203-0.48828-0.875-1.1562-0.875-2z"/>
</symbol>
<symbol id="ag" overflow="visible">
<path d="m-12.391-6.0469h1.2188v1.4062c0 0.52344 0.10938 0.88672 0.32812 1.0938 0.21094 0.19922 0.58984 0.29688 1.1406 0.29688h0.78125v-2.4062h1.1406v2.4062h7.7812v1.4688h-7.7812v1.4062h-1.1406v-1.4062h-0.625c-0.98828 0-1.707-0.22656-2.1562-0.6875-0.45703-0.45703-0.6875-1.1875-0.6875-2.1875z"/>
</symbol>
<symbol id="m" overflow="visible">
<path d="m-5.3906-8.9375h5.3906v1.4531h-5.3438c-0.84375 0-1.4727 0.16797-1.8906 0.5-0.41406 0.32422-0.625 0.82031-0.625 1.4844 0 0.78125 0.25781 1.4023 0.76562 1.8594 0.5 0.46094 1.1836 0.6875 2.0469 0.6875h5.0469v1.4688h-12.391v-1.4688h4.8594c-0.53906-0.35156-0.94141-0.76562-1.2031-1.2344-0.26953-0.47656-0.40625-1.0234-0.40625-1.6406 0-1.0312 0.32031-1.8047 0.95312-2.3281 0.63672-0.51953 1.5703-0.78125 2.7969-0.78125z"/>
</symbol>
<symbol id="l" overflow="visible">
<path d="m-4.8281-9.1562h0.71875v6.7344c1.0117-0.0625 1.7812-0.36328 2.3125-0.90625 0.52344-0.55078 0.78125-1.3125 0.78125-2.2812 0-0.5625-0.066406-1.1016-0.20312-1.625-0.13281-0.53125-0.34375-1.0547-0.625-1.5781h1.3906c0.21875 0.52344 0.38672 1.0586 0.5 1.6094 0.125 0.55469 0.1875 1.1172 0.1875 1.6875 0 1.418-0.41016 2.543-1.2344 3.375-0.83203 0.82422-1.957 1.2344-3.375 1.2344-1.457 0-2.6133-0.39062-3.4688-1.1719-0.86328-0.78906-1.2969-1.8516-1.2969-3.1875 0-1.1953 0.39062-2.1445 1.1719-2.8438 0.77344-0.69531 1.8203-1.0469 3.1406-1.0469zm-0.42188 1.4688c-0.80078 0.011719-1.4414 0.23438-1.9219 0.67188-0.47656 0.4375-0.71875 1.0156-0.71875 1.7344 0 0.8125 0.23438 1.4648 0.70312 1.9531 0.46094 0.49219 1.1055 0.77734 1.9375 0.85938z"/>
</symbol>
<symbol id="k" overflow="visible">
<path d="m-4.4844-5.5938c0 1.1875 0.13672 2.0117 0.40625 2.4688 0.27344 0.46094 0.73438 0.6875 1.3906 0.6875 0.52344 0 0.93359-0.17188 1.2344-0.51562 0.30469-0.34375 0.45312-0.8125 0.45312-1.4062 0-0.80078-0.28516-1.4453-0.85938-1.9375-0.57031-0.5-1.3359-0.75-2.2969-0.75h-0.32812zm-0.60938-2.9062h5.0938v1.4531h-1.3594c0.54297 0.33594 0.94531 0.75 1.2031 1.25s0.39062 1.1094 0.39062 1.8281c0 0.91797-0.25391 1.6484-0.76562 2.1875-0.51953 0.53125-1.207 0.79688-2.0625 0.79688-1.0078 0-1.7656-0.33203-2.2656-1-0.50781-0.66406-0.76562-1.6641-0.76562-3v-2.0625h-0.15625c-0.66406 0-1.1797 0.22656-1.5469 0.67188-0.375 0.4375-0.5625 1.0586-0.5625 1.8594 0 0.51172 0.0625 1.0117 0.1875 1.5 0.11719 0.48047 0.29688 0.94531 0.54688 1.3906h-1.3594c-0.20703-0.53906-0.36328-1.0625-0.46875-1.5625-0.10156-0.50781-0.15625-1-0.15625-1.4688 0-1.2891 0.33984-2.2539 1.0156-2.8906 0.66797-0.63281 1.6797-0.95312 3.0312-0.95312z"/>
</symbol>
<symbol id="j" overflow="visible">
<path d="m-12.391-1.5312v-1.4688h12.391v1.4688z"/>
</symbol>
<symbol id="af" overflow="visible">
<path d="m-8.5781-7.9531h1.375c-0.22656 0.41797-0.39844 0.83594-0.51562 1.25-0.11328 0.41797-0.17188 0.83984-0.17188 1.2656 0 0.94922 0.30469 1.6875 0.90625 2.2188 0.60547 0.52344 1.4492 0.78125 2.5312 0.78125 1.0938 0 1.9453-0.25781 2.5469-0.78125 0.59375-0.53125 0.89062-1.2695 0.89062-2.2188 0-0.42578-0.054687-0.84766-0.17188-1.2656-0.11328-0.41406-0.28516-0.83203-0.51562-1.25h1.3594c0.1875 0.40625 0.32812 0.82812 0.42188 1.2656 0.10156 0.4375 0.15625 0.90625 0.15625 1.4062 0 1.3438-0.42188 2.4141-1.2656 3.2031-0.84375 0.78125-1.9844 1.1719-3.4219 1.1719-1.457 0-2.6016-0.39453-3.4375-1.1875-0.83203-0.80078-1.25-1.8945-1.25-3.2812 0-0.45703 0.046875-0.89844 0.14062-1.3281 0.09375-0.42578 0.23438-0.84375 0.42188-1.25z"/>
</symbol>
<symbol id="ae" overflow="visible">
<path d="m-7.5625-7.4062h-4.8281v-1.4531h12.391v1.4531h-1.3438c0.53125 0.3125 0.92969 0.70312 1.1875 1.1719s0.39062 1.0312 0.39062 1.6875c0 1.0859-0.42578 1.9648-1.2812 2.6406-0.86328 0.66797-2 1-3.4062 1s-2.5352-0.33203-3.3906-1c-0.86328-0.67578-1.2969-1.5547-1.2969-2.6406 0-0.65625 0.13281-1.2188 0.39062-1.6875 0.26172-0.46875 0.65625-0.85938 1.1875-1.1719zm3.1094 5c1.0859 0 1.9336-0.21875 2.5469-0.65625 0.60547-0.44531 0.90625-1.0625 0.90625-1.8438 0-0.76953-0.30078-1.3789-0.90625-1.8281-0.61328-0.44531-1.4609-0.67188-2.5469-0.67188-1.0703 0-1.9141 0.22656-2.5312 0.67188-0.61328 0.44922-0.92188 1.0586-0.92188 1.8281 0 0.78125 0.30859 1.3984 0.92188 1.8438 0.61719 0.4375 1.4609 0.65625 2.5312 0.65625z"/>
</symbol>
<symbol id="ad" overflow="visible">
<path d="m-4.5625-7.4062c-1.0625 0-1.8828 0.21875-2.4688 0.65625-0.58203 0.4375-0.875 1.0547-0.875 1.8438 0 0.79297 0.29297 1.4062 0.875 1.8438 0.58594 0.4375 1.4062 0.65625 2.4688 0.65625 1.0547 0 1.8711-0.21875 2.4531-0.65625 0.58594-0.4375 0.875-1.0508 0.875-1.8438 0-0.78906-0.28906-1.4062-0.875-1.8438-0.58203-0.4375-1.3984-0.65625-2.4531-0.65625zm3.4531-1.4531c1.5195 0 2.6484 0.33984 3.3906 1.0156 0.73828 0.66797 1.1094 1.6953 1.1094 3.0781 0 0.52344-0.042969 1.0117-0.125 1.4688-0.074219 0.44922-0.1875 0.89062-0.34375 1.3281h-1.4219c0.22656-0.4375 0.39844-0.86328 0.51562-1.2812 0.11328-0.41406 0.17188-0.84375 0.17188-1.2812 0-0.95703-0.25781-1.6758-0.76562-2.1562-0.5-0.47656-1.2578-0.71875-2.2656-0.71875h-0.71875c0.52344 0.30469 0.91406 0.69531 1.1719 1.1719 0.26172 0.46875 0.39062 1.0312 0.39062 1.6875 0 1.0938-0.41406 1.9766-1.25 2.6406-0.83203 0.66797-1.9375 1-3.3125 1-1.3828 0-2.4922-0.33203-3.3281-1-0.83203-0.66406-1.25-1.5469-1.25-2.6406 0-0.65625 0.13281-1.2188 0.39062-1.6875 0.26172-0.47656 0.65625-0.86719 1.1875-1.1719h-1.3594v-1.4531z"/>
</symbol>
<symbol id="ab" overflow="visible">
<path d="m-4.4531-2.4062c1.0859 0 1.9336-0.21875 2.5469-0.65625 0.60547-0.44531 0.90625-1.0625 0.90625-1.8438 0-0.76953-0.30078-1.3789-0.90625-1.8281-0.61328-0.44531-1.4609-0.67188-2.5469-0.67188-1.0703 0-1.9141 0.22656-2.5312 0.67188-0.61328 0.44922-0.92188 1.0586-0.92188 1.8281 0 0.78125 0.30859 1.3984 0.92188 1.8438 0.61719 0.4375 1.4609 0.65625 2.5312 0.65625zm3.1094-5c0.53125 0.3125 0.92969 0.70312 1.1875 1.1719s0.39062 1.0312 0.39062 1.6875c0 1.0859-0.42578 1.9648-1.2812 2.6406-0.86328 0.66797-2 1-3.4062 1s-2.5352-0.33203-3.3906-1c-0.86328-0.67578-1.2969-1.5547-1.2969-2.6406 0-0.65625 0.13281-1.2188 0.39062-1.6875 0.26172-0.46875 0.65625-0.85938 1.1875-1.1719h-1.3594v-1.4531h12.312v1.4531z"/>
</symbol>
<symbol id="aa" overflow="visible">
<path d="m-3.5156-1.3906h-5.4062v-1.4531h5.3438c0.84375 0 1.4805-0.16016 1.9062-0.48438 0.41797-0.33203 0.625-0.83203 0.625-1.5 0-0.78906-0.25-1.4141-0.75-1.875-0.50781-0.45703-1.1953-0.6875-2.0625-0.6875h-5.0625v-1.4531h8.9219v1.4531h-1.375c0.54297 0.36719 0.94922 0.78125 1.2188 1.25 0.25781 0.46875 0.39062 1.0117 0.39062 1.625 0 1.0312-0.31641 1.8125-0.95312 2.3438-0.64453 0.52344-1.5781 0.78125-2.7969 0.78125z"/>
</symbol>
<symbol id="z" overflow="visible">
<path d="m0.82812-5.25c1.0625 0.41797 1.7539 0.82422 2.0781 1.2188 0.32031 0.38672 0.48438 0.91406 0.48438 1.5781v1.1562h-1.2188v-0.85938c0-0.39453-0.10156-0.70312-0.29688-0.92188-0.1875-0.22656-0.63672-0.47656-1.3438-0.75l-0.67188-0.26562-8.7812 3.6094v-1.5469l6.9844-2.7969-6.9844-2.7812v-1.5469z"/>
</symbol>
<symbol id="v" overflow="visible">
<path d="m7.4375-1.5156c-0.39844 0.52344-0.82812 0.90625-1.2969 1.1562-0.46875 0.24219-1.0156 0.35938-1.6406 0.35938-1.0859 0-1.9844-0.42578-2.7031-1.2812-0.71094-0.85156-1.0625-1.9453-1.0625-3.2812 0-1.332 0.35156-2.4219 1.0625-3.2656 0.71875-0.85156 1.6172-1.2812 2.7031-1.2812 0.625 0 1.1719 0.125 1.6406 0.375 0.46875 0.24219 0.89844 0.62109 1.2969 1.1406v-1.3125h2.875v8c0 1.4375-0.45312 2.5312-1.3594 3.2812-0.90625 0.75781-2.2188 1.1406-3.9375 1.1406-0.5625 0-1.1055-0.042969-1.625-0.125-0.52344-0.085937-1.043-0.21484-1.5625-0.39062v-2.2188c0.5 0.28125 0.98438 0.48828 1.4531 0.625 0.47656 0.14453 0.96094 0.21875 1.4531 0.21875 0.9375 0 1.6172-0.20312 2.0469-0.60938 0.4375-0.40625 0.65625-1.0469 0.65625-1.9219zm-1.875-5.5469c-0.59375 0-1.0586 0.21875-1.3906 0.65625-0.32422 0.4375-0.48438 1.0547-0.48438 1.8438 0 0.82422 0.15625 1.4492 0.46875 1.875 0.32031 0.41797 0.78906 0.625 1.4062 0.625 0.59375 0 1.0508-0.21875 1.375-0.65625 0.33203-0.4375 0.5-1.0508 0.5-1.8438 0-0.78906-0.16797-1.4062-0.5-1.8438-0.32422-0.4375-0.78125-0.65625-1.375-0.65625z"/>
</symbol>
<symbol id="i" overflow="visible">
<path d="m8-6.4844c-0.25-0.11328-0.5-0.19531-0.75-0.25-0.25-0.0625-0.5-0.09375-0.75-0.09375-0.73047 0-1.293 0.23438-1.6875 0.70312-0.39844 0.46875-0.59375 1.1406-0.59375 2.0156v4.1094h-2.8438v-8.9062h2.8438v1.4531c0.36328-0.58203 0.78516-1.0039 1.2656-1.2656 0.47656-0.26953 1.0469-0.40625 1.7031-0.40625 0.09375 0 0.19531 0.007812 0.3125 0.015625 0.11328 0 0.27344 0.015625 0.48438 0.046875z"/>
</symbol>
<symbol id="f" overflow="visible">
<path d="m10.281-4.4844v0.8125h-6.6719c0.070313 0.66797 0.3125 1.1719 0.71875 1.5156 0.41406 0.33594 0.99219 0.5 1.7344 0.5 0.60156 0 1.2188-0.085938 1.8438-0.26562 0.63281-0.1875 1.2852-0.45703 1.9531-0.8125v2.1875c-0.67969 0.26172-1.3555 0.45312-2.0312 0.57812-0.67969 0.13281-1.3516 0.20312-2.0156 0.20312-1.6172 0-2.8711-0.41016-3.7656-1.2344-0.89844-0.82031-1.3438-1.9727-1.3438-3.4531 0-1.4453 0.4375-2.5859 1.3125-3.4219 0.88281-0.83203 2.0938-1.25 3.625-1.25 1.4062 0 2.5312 0.42188 3.375 1.2656s1.2656 1.9688 1.2656 3.375zm-2.9375-0.9375c0-0.53906-0.16406-0.97656-0.48438-1.3125-0.3125-0.33203-0.72656-0.5-1.2344-0.5-0.55469 0-1 0.15625-1.3438 0.46875s-0.55859 0.76172-0.64062 1.3438z"/>
</symbol>
<symbol id="u" overflow="visible">
<path d="m10.344-5.4219v5.4219h-2.875v-4.1562c0-0.76953-0.015625-1.3008-0.046875-1.5938-0.03125-0.28906-0.09375-0.50391-0.1875-0.64062-0.10547-0.1875-0.25781-0.33203-0.45312-0.4375-0.1875-0.10156-0.40234-0.15625-0.64062-0.15625-0.60547 0-1.0781 0.23047-1.4219 0.6875-0.33594 0.46094-0.5 1.0938-0.5 1.9062v4.3906h-2.8438v-8.9062h2.8438v1.2969c0.42578-0.51953 0.87891-0.89844 1.3594-1.1406 0.48828-0.25 1.0234-0.375 1.6094-0.375 1.0312 0 1.8125 0.32031 2.3438 0.95312 0.53906 0.625 0.8125 1.543 0.8125 2.75z"/>
</symbol>
<symbol id="t" overflow="visible">
<path d="m7.4375-7.6094v-4.7656h2.875v12.375h-2.875v-1.2969c-0.39844 0.53125-0.82812 0.92188-1.2969 1.1719-0.46875 0.23828-1.0156 0.35938-1.6406 0.35938-1.1055 0-2.0117-0.4375-2.7188-1.3125-0.69922-0.875-1.0469-2-1.0469-3.375s0.34766-2.4922 1.0469-3.3594c0.70703-0.875 1.6133-1.3125 2.7188-1.3125 0.61328 0 1.1562 0.125 1.625 0.375 0.47656 0.24219 0.91406 0.62109 1.3125 1.1406zm-1.875 5.7656c0.60156 0 1.0664-0.21875 1.3906-0.65625 0.32031-0.44531 0.48438-1.0977 0.48438-1.9531 0-0.84375-0.16406-1.4883-0.48438-1.9375-0.32422-0.44531-0.78906-0.67188-1.3906-0.67188-0.60547 0-1.0703 0.22656-1.3906 0.67188-0.32422 0.44922-0.48438 1.0938-0.48438 1.9375 0 0.85547 0.16016 1.5078 0.48438 1.9531 0.32031 0.4375 0.78516 0.65625 1.3906 0.65625z"/>
</symbol>
<symbol id="s" overflow="visible">
<path d="m6.125-1.8438c0.60156 0 1.0664-0.21875 1.3906-0.65625 0.32031-0.44531 0.48438-1.0977 0.48438-1.9531 0-0.84375-0.16406-1.4883-0.48438-1.9375-0.32422-0.44531-0.78906-0.67188-1.3906-0.67188-0.61719 0-1.0898 0.22656-1.4219 0.67188-0.32422 0.44922-0.48438 1.0938-0.48438 1.9375s0.16016 1.4922 0.48438 1.9375c0.33203 0.44922 0.80469 0.67188 1.4219 0.67188zm-1.9062-5.7656c0.39453-0.51953 0.83203-0.89844 1.3125-1.1406 0.47656-0.25 1.0234-0.375 1.6406-0.375 1.1016 0 2.0039 0.4375 2.7031 1.3125 0.70703 0.86719 1.0625 1.9844 1.0625 3.3594s-0.35547 2.5-1.0625 3.375c-0.69922 0.875-1.6016 1.3125-2.7031 1.3125-0.61719 0-1.1641-0.125-1.6406-0.375-0.48047-0.25-0.91797-0.63281-1.3125-1.1562v1.2969h-2.8438v-12.375h2.8438z"/>
</symbol>
<symbol id="r" overflow="visible">
<path d="m1.375-12.375h2.8438v12.375h-2.8438z"/>
</symbol>
<symbol id="q" overflow="visible">
<path d="m1.2812-3.4688v-5.4375h2.8594v0.89062c0 0.48047-0.007813 1.0859-0.015625 1.8125v1.4531c0 0.71875 0.015625 1.2422 0.046875 1.5625 0.039063 0.3125 0.10938 0.54297 0.20312 0.6875 0.11328 0.17969 0.26562 0.32031 0.45312 0.42188 0.1875 0.10547 0.40625 0.15625 0.65625 0.15625 0.59375 0 1.0547-0.22656 1.3906-0.6875 0.34375-0.45703 0.51562-1.0938 0.51562-1.9062v-4.3906h2.8594v8.9062h-2.8594v-1.2969c-0.42969 0.52344-0.88281 0.90625-1.3594 1.1562-0.48047 0.25-1.0117 0.375-1.5938 0.375-1.0312 0-1.8203-0.3125-2.3594-0.9375-0.53125-0.63281-0.79688-1.5547-0.79688-2.7656z"/>
</symbol>
</defs>
<path transform="matrix(2.0391 0 0 2.038 .075766 0)" d="m38.121 175.41c22.264-24.279 36.059 2.2272 74.608 3.6724" fill="none" stroke="#0000d4" stroke-width="1.5"/>
<path transform="matrix(2.0391 0 0 2.038 .075766 0)" d="m68.496 179.08v3.751" fill="none" stroke="#000" stroke-width=".75"/>
<path transform="matrix(2.0391 0 0 2.038 .075766 0)" d="m98.12 179.08v3.751" fill="none" stroke="#000" stroke-width=".75"/>
<path transform="matrix(2.0391 0 0 2.038 .075766 0)" d="m128.49 179.08v3.751" fill="none" stroke="#000" stroke-width=".75"/>
<path transform="matrix(2.0391 0 0 2.038 .075766 0)" d="m158.12 179.08v3.751" fill="none" stroke="#000" stroke-width=".75"/>
<g>
<use x="62.382812" y="387.907285" xlink:href="#aw"/>
<use x="72.578317" y="387.907285" xlink:href="#a"/>
<use x="82.773821" y="387.907285" xlink:href="#a"/>
</g>
<g>
<use x="184.496094" y="387.907285" xlink:href="#h"/>
<use x="194.691598" y="387.907285" xlink:href="#a"/>
<use x="204.887103" y="387.907285" xlink:href="#a"/>
</g>
<g>
<use x="306.902344" y="387.907285" xlink:href="#an"/>
<use x="317.097848" y="387.907285" xlink:href="#a"/>
<use x="327.293353" y="387.907285" xlink:href="#a"/>
</g>
<path transform="matrix(2.0391 0 0 2.038 .075766 0)" d="m188.5 179.08v3.751" fill="none" stroke="#000" stroke-width=".75"/>
<path transform="matrix(2.0391 0 0 2.038 .075766 0)" d="m38.121 137.46h-3.7509" fill="none" stroke="#000" stroke-width=".75"/>
<path transform="matrix(2.0391 0 0 2.038 .075766 0)" d="m38.121 92.459h-3.7509" fill="none" stroke="#000" stroke-width=".75"/>
<path transform="matrix(2.0391 0 0 2.038 .075766 0)" d="m38.121 51.21h-3.7509" fill="none" stroke="#000" stroke-width=".75"/>
<path transform="matrix(2.0391 0 0 2.038 .075766 0)" d="m38.121 9.5566h-3.7509" fill="none" stroke="#000" stroke-width=".75"/>
<g>
<use x="54.539062" y="370.915097" xlink:href="#a"/>
</g>
<g>
<use x="54.882812" y="285.973691" xlink:href="#h"/>
</g>
<g>
<use x="44.164062" y="194.372129" xlink:href="#n"/>
<use x="54.359567" y="194.372129" xlink:href="#a"/>
</g>
<g>
<use x="44.503906" y="110.196347" xlink:href="#n"/>
<use x="54.699411" y="110.196347" xlink:href="#h"/>
</g>
<g>
<use x="44.164062" y="25.411191" xlink:href="#am"/>
<use x="54.359567" y="25.411191" xlink:href="#a"/>
</g>
<path transform="matrix(2.0391 0 0 2.038 .075766 0)" d="m38.121 176.29c34.497 1.1941 49.942-29.178 57.708-64.232 10.26-46.313 12.622-101.14 26.898-101.36 24.143 3.3887 12.894 168.39 72.893 168.39" fill="none" stroke="#00d400" stroke-width="1.5"/>
<path transform="matrix(2.0391 0 0 2.038 .075766 0)" d="m38.121 177.59c25.911 0.43126 49.258-5.7367 59.014-26.728 23.484-50.522 28.107-132.92 44.913-132.33 5.7336-0.10542 13.799 39.419 23.134 78.678 7.8964 33.203 16.375 66.22 28.45 74.916" fill="none" stroke="#d40000" stroke-width="1.5"/>
<path transform="matrix(2.0391 0 0 2.038 .075766 0)" d="m38.121 182.84v-181.51" fill="none" stroke="#000" stroke-width="1.5"/>
<path transform="matrix(2.0391 0 0 2.038 .075766 0)" d="m34.37 179.08h161.72" fill="none" stroke="#000" stroke-width="1.5"/>
<g>
<use x="155.605469" y="417.61041" xlink:href="#al"/>
<use x="169.879175" y="417.61041" xlink:href="#ak"/>
<use x="180.074679" y="417.61041" xlink:href="#aj"/>
<use x="190.270184" y="417.61041" xlink:href="#p"/>
<use x="200.465688" y="417.61041" xlink:href="#av"/>
<use x="204.54389" y="417.61041" xlink:href="#p"/>
<use x="214.739394" y="417.61041" xlink:href="#o"/>
<use x="224.934899" y="417.61041" xlink:href="#au"/>
<use x="235.130403" y="417.61041" xlink:href="#at"/>
<use x="241.247706" y="417.61041" xlink:href="#as"/>
<use x="251.44321" y="417.61041" xlink:href="#ar"/>
<use x="257.560513" y="417.61041" xlink:href="#aq"/>
<use x="263.677816" y="417.61041" xlink:href="#o"/>
<use x="273.87332" y="417.61041" xlink:href="#ap"/>
<use x="290.186127" y="417.61041" xlink:href="#ao"/>
</g>
<g>
<use x="12.470042" y="291.25" xlink:href="#ai"/>
<use x="12.470042" y="281.059929" xlink:href="#ac"/>
<use x="12.470042" y="270.869858" xlink:href="#y"/>
<use x="12.470042" y="262.717802" xlink:href="#g"/>
<use x="12.470042" y="252.527731" xlink:href="#x"/>
<use x="12.470042" y="246.413689" xlink:href="#w"/>
<use x="12.470042" y="236.223618" xlink:href="#b"/>
<use x="12.470042" y="230.109575" xlink:href="#d"/>
<use x="12.470042" y="226.033547" xlink:href="#g"/>
<use x="12.470042" y="215.843476" xlink:href="#e"/>
<use x="12.470042" y="205.653406" xlink:href="#c"/>
<use x="12.470042" y="199.539363" xlink:href="#d"/>
<use x="12.470042" y="195.463335" xlink:href="#e"/>
<use x="12.470042" y="185.273264" xlink:href="#c"/>
<use x="12.470042" y="179.159222" xlink:href="#ah"/>
<use x="12.470042" y="162.855108" xlink:href="#c"/>
<use x="12.470042" y="156.741066" xlink:href="#g"/>
<use x="12.470042" y="146.550995" xlink:href="#ag"/>
<use x="12.470042" y="140.436953" xlink:href="#c"/>
<use x="12.470042" y="134.32291" xlink:href="#b"/>
<use x="12.470042" y="128.208868" xlink:href="#m"/>
<use x="12.470042" y="118.018797" xlink:href="#l"/>
<use x="12.470042" y="107.828726" xlink:href="#c"/>
<use x="12.470042" y="101.714684" xlink:href="#b"/>
<use x="12.470042" y="95.600641" xlink:href="#g"/>
<use x="12.470042" y="85.41057" xlink:href="#b"/>
<use x="12.470042" y="79.296528" xlink:href="#k"/>
<use x="12.470042" y="69.106457" xlink:href="#j"/>
</g>
<g>
<use x="32.860667" y="266.792969" xlink:href="#d"/>
<use x="32.860667" y="262.71694" xlink:href="#e"/>
<use x="32.860667" y="252.52687" xlink:href="#af"/>
<use x="32.860667" y="244.374813" xlink:href="#d"/>
<use x="32.860667" y="240.298785" xlink:href="#ae"/>
<use x="32.860667" y="230.108714" xlink:href="#l"/>
<use x="32.860667" y="219.918643" xlink:href="#e"/>
<use x="32.860667" y="209.728572" xlink:href="#b"/>
<use x="32.860667" y="203.61453" xlink:href="#c"/>
<use x="32.860667" y="197.500488" xlink:href="#j"/>
<use x="32.860667" y="193.424459" xlink:href="#d"/>
<use x="32.860667" y="189.348431" xlink:href="#ad"/>
<use x="32.860667" y="179.15836" xlink:href="#m"/>
<use x="32.860667" y="168.968289" xlink:href="#b"/>
<use x="32.860667" y="162.854247" xlink:href="#c"/>
<use x="32.860667" y="156.740204" xlink:href="#ab"/>
<use x="32.860667" y="146.550134" xlink:href="#aa"/>
<use x="32.860667" y="136.360063" xlink:href="#k"/>
<use x="32.860667" y="126.169992" xlink:href="#e"/>
<use x="32.860667" y="115.979921" xlink:href="#b"/>
<use x="32.860667" y="109.865879" xlink:href="#d"/>
<use x="32.860667" y="105.789851" xlink:href="#b"/>
<use x="32.860667" y="99.675808" xlink:href="#z"/>
</g>
<g>
<use x="228.660156" y="12.618222" xlink:href="#v"/>
<use x="240.894762" y="12.618222" xlink:href="#i"/>
<use x="249.051165" y="12.618222" xlink:href="#f"/>
<use x="259.24667" y="12.618222" xlink:href="#f"/>
<use x="269.442174" y="12.618222" xlink:href="#u"/>
</g>
<g>
<use x="276.398438" y="31.688535" xlink:href="#i"/>
<use x="284.554841" y="31.688535" xlink:href="#f"/>
<use x="294.750345" y="31.688535" xlink:href="#t"/>
</g>
<g>
<use x="101.972656" y="328.368222" xlink:href="#s"/>
<use x="114.207262" y="328.368222" xlink:href="#r"/>
<use x="120.324564" y="328.368222" xlink:href="#q"/>
<use x="132.55917" y="328.368222" xlink:href="#f"/>
</g>
</svg>
