<?xml version="1.0" encoding="UTF-8"?>
<svg width="600px" height="407px" version="1.1" viewBox="0 0 600 407" xmlns="http://www.w3.org/2000/svg" xmlns:xlink="http://www.w3.org/1999/xlink">
<defs>
<symbol id="g" overflow="visible">
<path d="m1.8906-1.2656h2.4531v-8.4688l-2.6719 0.53125v-1.375l2.6562-0.53125h1.5v9.8438h2.4531v1.2656h-6.3906z"/>
</symbol>
<symbol id="e" overflow="visible">
<path d="m2.9219-1.2656h5.2344v1.2656h-7.0469v-1.2656c0.57031-0.59375 1.3477-1.3828 2.3281-2.375 0.98828-0.98828 1.6094-1.6289 1.8594-1.9219 0.47656-0.53906 0.8125-1 1-1.375 0.19531-0.375 0.29688-0.74219 0.29688-1.1094 0-0.58203-0.21094-1.0625-0.625-1.4375-0.41797-0.375-0.95312-0.5625-1.6094-0.5625-0.46875 0-0.96875 0.085937-1.5 0.25-0.52344 0.16797-1.0781 0.41797-1.6719 0.75v-1.5312c0.60156-0.23828 1.1641-0.42188 1.6875-0.54688 0.53125-0.125 1.0156-0.1875 1.4531-0.1875 1.1445 0 2.0547 0.29297 2.7344 0.875 0.6875 0.57422 1.0312 1.3398 1.0312 2.2969 0 0.46094-0.085938 0.89844-0.25 1.3125-0.16797 0.40625-0.48047 0.88672-0.9375 1.4375-0.125 0.14844-0.52344 0.5625-1.1875 1.25-0.65625 0.6875-1.5898 1.6484-2.7969 2.875z"/>
</symbol>
<symbol id="f" overflow="visible">
<path d="m1.6406-11.109h5.8906v1.2656h-4.5156v2.7188c0.21875-0.070312 0.4375-0.125 0.65625-0.15625 0.21875-0.039062 0.4375-0.0625 0.65625-0.0625 1.2383 0 2.2188 0.34375 2.9375 1.0312 0.72656 0.67969 1.0938 1.5938 1.0938 2.75 0 1.1992-0.375 2.1328-1.125 2.7969-0.74219 0.65625-1.7891 0.98438-3.1406 0.98438-0.46875 0-0.94531-0.042969-1.4219-0.125-0.48047-0.074219-0.98047-0.19141-1.5-0.35938v-1.5c0.44531 0.24219 0.90625 0.42188 1.375 0.54688 0.47656 0.11719 0.98438 0.17188 1.5156 0.17188 0.85156 0 1.5312-0.22266 2.0312-0.67188 0.5-0.45703 0.75-1.0703 0.75-1.8438 0-0.76953-0.25-1.3789-0.75-1.8281-0.5-0.45703-1.1797-0.6875-2.0312-0.6875-0.39844 0-0.79688 0.046875-1.2031 0.14062-0.39844 0.085938-0.80469 0.21875-1.2188 0.40625z"/>
</symbol>
<symbol id="a" overflow="visible">
<path d="m4.8438-10.109c-0.78125 0-1.3672 0.38281-1.75 1.1406-0.38672 0.76172-0.57812 1.9023-0.57812 3.4219 0 1.5234 0.19141 2.668 0.57812 3.4375 0.38281 0.76172 0.96875 1.1406 1.75 1.1406 0.76953 0 1.3477-0.37891 1.7344-1.1406 0.39453-0.76953 0.59375-1.9141 0.59375-3.4375 0-1.5195-0.19922-2.6602-0.59375-3.4219-0.38672-0.75781-0.96484-1.1406-1.7344-1.1406zm0-1.2031c1.2383 0 2.1875 0.49609 2.8438 1.4844 0.65625 0.98047 0.98438 2.4062 0.98438 4.2812s-0.32812 3.3086-0.98438 4.2969c-0.65625 0.98047-1.6055 1.4688-2.8438 1.4688-1.25 0-2.2031-0.48828-2.8594-1.4688-0.65625-0.98828-0.98438-2.4219-0.98438-4.2969s0.32812-3.3008 0.98438-4.2812c0.65625-0.98828 1.6094-1.4844 2.8594-1.4844z"/>
</symbol>
<symbol id="j" overflow="visible">
<path d="m5.75-9.7969-3.7812 5.9219h3.7812zm-0.39062-1.3125h1.8906v7.2344h1.5781v1.25h-1.5781v2.625h-1.5v-2.625h-5v-1.4375z"/>
</symbol>
<symbol id="i" overflow="visible">
<path d="m4.8438-5.2812c-0.71875 0-1.2812 0.19531-1.6875 0.57812-0.40625 0.38672-0.60938 0.91406-0.60938 1.5781 0 0.66797 0.20312 1.1953 0.60938 1.5781 0.40625 0.38672 0.96875 0.57812 1.6875 0.57812 0.70703 0 1.2656-0.19141 1.6719-0.57812 0.41406-0.38281 0.625-0.91016 0.625-1.5781 0-0.66406-0.20312-1.1914-0.60938-1.5781-0.40625-0.38281-0.96875-0.57812-1.6875-0.57812zm-1.5-0.625c-0.64844-0.16406-1.1523-0.46875-1.5156-0.90625-0.35547-0.4375-0.53125-0.97266-0.53125-1.6094 0-0.89453 0.3125-1.5977 0.9375-2.1094 0.63281-0.51953 1.5039-0.78125 2.6094-0.78125 1.1016 0 1.9688 0.26172 2.5938 0.78125 0.625 0.51172 0.9375 1.2148 0.9375 2.1094 0 0.63672-0.17969 1.1719-0.53125 1.6094-0.35547 0.4375-0.85547 0.74219-1.5 0.90625 0.72656 0.16797 1.2891 0.49609 1.6875 0.98438 0.40625 0.49219 0.60938 1.0898 0.60938 1.7969 0 1.0742-0.32812 1.9023-0.98438 2.4844-0.65625 0.57422-1.5938 0.85938-2.8125 0.85938-1.2305 0-2.1719-0.28516-2.8281-0.85938-0.65625-0.58203-0.98438-1.4102-0.98438-2.4844 0-0.70703 0.20312-1.3047 0.60938-1.7969 0.40625-0.48828 0.97266-0.81641 1.7031-0.98438zm-0.5625-2.375c0 0.57422 0.17578 1.0234 0.53125 1.3438 0.36328 0.32422 0.875 0.48438 1.5312 0.48438 0.63281 0 1.1328-0.16016 1.5-0.48438 0.36328-0.32031 0.54688-0.76953 0.54688-1.3438 0-0.58203-0.18359-1.0312-0.54688-1.3438-0.36719-0.32031-0.86719-0.48438-1.5-0.48438-0.65625 0-1.168 0.16406-1.5312 0.48438-0.35547 0.3125-0.53125 0.76172-0.53125 1.3438z"/>
</symbol>
<symbol id="h" overflow="visible">
<path d="m1.5-11.109h1.5v4.5625h5.4531v-4.5625h1.5v11.109h-1.5v-5.2812h-5.4531v5.2812h-1.5z"/>
</symbol>
<symbol id="q" overflow="visible">
<path d="m0.84375-8.3281h6.4844v1.25l-5.1406 5.9844h5.1406v1.0938h-6.6719v-1.25l5.1406-5.9844h-4.9531z"/>
</symbol>
<symbol id="b" overflow="visible">
<path d="m7.4219-8.0156v1.2812c-0.38672-0.20703-0.77734-0.36328-1.1719-0.46875-0.38672-0.11328-0.77734-0.17188-1.1719-0.17188-0.88672 0-1.5742 0.28125-2.0625 0.84375-0.49219 0.5625-0.73438 1.3555-0.73438 2.375 0 1.0117 0.24219 1.8047 0.73438 2.375 0.48828 0.5625 1.1758 0.84375 2.0625 0.84375 0.39453 0 0.78516-0.050781 1.1719-0.15625 0.39453-0.11328 0.78516-0.27344 1.1719-0.48438v1.2656c-0.38672 0.17969-0.78125 0.30859-1.1875 0.39062-0.40625 0.09375-0.83984 0.14062-1.2969 0.14062-1.2617 0-2.2617-0.39453-3-1.1875-0.73047-0.78906-1.0938-1.8516-1.0938-3.1875 0-1.3633 0.36719-2.4297 1.1094-3.2031 0.75-0.78125 1.7695-1.1719 3.0625-1.1719 0.42578 0 0.83594 0.046875 1.2344 0.14062 0.40625 0.085937 0.79688 0.21094 1.1719 0.375z"/>
</symbol>
<symbol id="u" overflow="visible">
<path d="m5.0156-6.1562c-0.66797 0-1.1992 0.23438-1.5938 0.70312-0.39844 0.46094-0.59375 1.0898-0.59375 1.8906 0 0.80469 0.19531 1.4375 0.59375 1.9062 0.39453 0.46094 0.92578 0.6875 1.5938 0.6875 0.67578 0 1.2109-0.22656 1.6094-0.6875 0.39453-0.46875 0.59375-1.1016 0.59375-1.9062 0-0.80078-0.19922-1.4297-0.59375-1.8906-0.39844-0.46875-0.93359-0.70312-1.6094-0.70312zm2.9844-4.7031v1.375c-0.375-0.1875-0.75781-0.32812-1.1406-0.42188-0.38672-0.09375-0.76562-0.14062-1.1406-0.14062-0.99219 0-1.7461 0.33984-2.2656 1.0156-0.52344 0.66797-0.82031 1.6797-0.89062 3.0312 0.28906-0.4375 0.65625-0.76953 1.0938-1 0.4375-0.22656 0.92188-0.34375 1.4531-0.34375 1.1133 0 1.9922 0.33984 2.6406 1.0156 0.64453 0.67969 0.96875 1.6016 0.96875 2.7656 0 1.1367-0.33984 2.0547-1.0156 2.75-0.66797 0.6875-1.5625 1.0312-2.6875 1.0312-1.2812 0-2.2617-0.48828-2.9375-1.4688-0.67969-0.98828-1.0156-2.4219-1.0156-4.2969 0-1.75 0.41406-3.1445 1.25-4.1875 0.83203-1.0508 1.9453-1.5781 3.3438-1.5781 0.38281 0 0.76562 0.042969 1.1406 0.125 0.38281 0.074219 0.78516 0.18359 1.2031 0.32812z"/>
</symbol>
<symbol id="t" overflow="visible">
<path d="m6.9062-7.0625v-4.5156h1.375v11.578h-1.375v-1.25c-0.28125 0.5-0.64062 0.87109-1.0781 1.1094-0.4375 0.23828-0.96484 0.35938-1.5781 0.35938-1.0117 0-1.8359-0.39844-2.4688-1.2031-0.625-0.80078-0.9375-1.8594-0.9375-3.1719s0.3125-2.3672 0.9375-3.1719c0.63281-0.80078 1.457-1.2031 2.4688-1.2031 0.61328 0 1.1406 0.12109 1.5781 0.35938 0.4375 0.24219 0.79688 0.60938 1.0781 1.1094zm-4.6562 2.9062c0 1.0117 0.20703 1.8047 0.625 2.375 0.41406 0.5625 0.98438 0.84375 1.7031 0.84375s1.2852-0.28125 1.7031-0.84375c0.41406-0.57031 0.625-1.3633 0.625-2.375 0-1.0078-0.21094-1.8008-0.625-2.375-0.41797-0.57031-0.98438-0.85938-1.7031-0.85938s-1.2891 0.28906-1.7031 0.85938c-0.41797 0.57422-0.625 1.3672-0.625 2.375z"/>
</symbol>
<symbol id="s" overflow="visible">
<path d="m7.4062-4.1562c0-1.0078-0.21094-1.8008-0.625-2.375-0.40625-0.57031-0.97656-0.85938-1.7031-0.85938-0.71875 0-1.2891 0.28906-1.7031 0.85938-0.41797 0.57422-0.625 1.3672-0.625 2.375 0 1.0117 0.20703 1.8047 0.625 2.375 0.41406 0.5625 0.98438 0.84375 1.7031 0.84375 0.72656 0 1.2969-0.28125 1.7031-0.84375 0.41406-0.57031 0.625-1.3633 0.625-2.375zm-4.6562-2.9062c0.28906-0.5 0.65625-0.86719 1.0938-1.1094 0.4375-0.23828 0.96094-0.35938 1.5781-0.35938 1.0078 0 1.8281 0.40234 2.4531 1.2031 0.63281 0.80469 0.95312 1.8594 0.95312 3.1719s-0.32031 2.3711-0.95312 3.1719c-0.625 0.80469-1.4453 1.2031-2.4531 1.2031-0.61719 0-1.1406-0.12109-1.5781-0.35938-0.4375-0.23828-0.80469-0.60938-1.0938-1.1094v1.25h-1.375v-11.578h1.375z"/>
</symbol>
<symbol id="r" overflow="visible">
<path d="m4.3594 0-4.2344-11.109h1.5625l3.5156 9.3594 3.5156-9.3594h1.5625l-4.2188 11.109z"/>
</symbol>
<symbol id="p" overflow="visible">
<path d="m0.9375-0.625h1.2344v-4.2344l-1.3281 0.26562v-0.6875l1.3125-0.26562h0.75v4.9219h1.2344v0.625h-3.2031z"/>
</symbol>
<symbol id="o" overflow="visible">
<path d="m1.4531-0.625h2.625v0.625h-3.5156v-0.625c0.28125-0.30078 0.66406-0.69531 1.1562-1.1875 0.48828-0.5 0.80078-0.82031 0.9375-0.96875 0.23828-0.26953 0.40625-0.5 0.5-0.6875s0.14062-0.36719 0.14062-0.54688c0-0.28906-0.10547-0.53125-0.3125-0.71875-0.21094-0.1875-0.48047-0.28125-0.8125-0.28125-0.23047 0-0.47656 0.042969-0.73438 0.125-0.26172 0.085937-0.54297 0.21094-0.84375 0.375v-0.76562c0.30078-0.125 0.58203-0.21094 0.84375-0.26562 0.25781-0.0625 0.5-0.09375 0.71875-0.09375 0.58203 0 1.0391 0.14844 1.375 0.4375 0.34375 0.28125 0.51562 0.66406 0.51562 1.1406 0 0.23047-0.042969 0.44922-0.125 0.65625-0.085937 0.19922-0.24219 0.4375-0.46875 0.71875-0.0625 0.0625-0.26172 0.26562-0.59375 0.60938-0.33594 0.34375-0.80469 0.82812-1.4062 1.4531z"/>
</symbol>
<symbol id="n" overflow="visible">
<path d="m3.0938-2.9844c0.35156 0.074219 0.62891 0.23438 0.82812 0.48438 0.20703 0.24219 0.3125 0.53906 0.3125 0.89062 0 0.54297-0.1875 0.96484-0.5625 1.2656-0.375 0.30469-0.91406 0.45312-1.6094 0.45312-0.23047 0-0.46875-0.027344-0.71875-0.078125-0.25-0.039062-0.50781-0.10938-0.76562-0.20312v-0.71875c0.20703 0.125 0.4375 0.21875 0.6875 0.28125 0.25 0.054687 0.50781 0.078125 0.78125 0.078125 0.46875 0 0.82031-0.085938 1.0625-0.26562 0.25-0.1875 0.375-0.45703 0.375-0.8125 0-0.33203-0.11719-0.58594-0.34375-0.76562-0.23047-0.1875-0.54688-0.28125-0.95312-0.28125h-0.65625v-0.60938h0.6875c0.36328 0 0.64453-0.070313 0.84375-0.21875 0.19531-0.15625 0.29688-0.36719 0.29688-0.64062 0-0.28906-0.10547-0.50781-0.3125-0.65625-0.19922-0.15625-0.48438-0.23438-0.85938-0.23438-0.21094 0-0.43359 0.027344-0.67188 0.078125-0.23047 0.042969-0.48438 0.10938-0.76562 0.20312v-0.67188c0.28125-0.082031 0.54688-0.14062 0.79688-0.17188 0.25-0.039063 0.48438-0.0625 0.70312-0.0625 0.57031 0 1.0234 0.13281 1.3594 0.39062 0.33203 0.25 0.5 0.60156 0.5 1.0469 0 0.30469-0.089844 0.5625-0.26562 0.78125-0.17969 0.21094-0.42969 0.35547-0.75 0.4375z"/>
</symbol>
<symbol id="m" overflow="visible">
<path d="m2.875-4.8906-1.8906 2.9531h1.8906zm-0.20312-0.65625h0.95312v3.6094h0.78125v0.625h-0.78125v1.3125h-0.75v-1.3125h-2.5v-0.71875z"/>
</symbol>
<symbol id="l" overflow="visible">
<path d="m0.82812-5.5469h2.9375v0.625h-2.25v1.3594c0.10156-0.03125 0.20703-0.054688 0.3125-0.078125 0.11328-0.019531 0.22266-0.03125 0.32812-0.03125 0.625 0 1.1133 0.17188 1.4688 0.51562 0.36328 0.33594 0.54688 0.79297 0.54688 1.375 0 0.59375-0.1875 1.0586-0.5625 1.3906-0.36719 0.33594-0.88672 0.5-1.5625 0.5-0.23047 0-0.46875-0.023438-0.71875-0.0625-0.24219-0.042969-0.48438-0.097656-0.73438-0.17188v-0.76562c0.21875 0.125 0.44531 0.21875 0.6875 0.28125 0.23828 0.054687 0.48828 0.078125 0.75 0.078125 0.42578 0 0.76562-0.10938 1.0156-0.32812 0.25-0.22656 0.375-0.53516 0.375-0.92188 0-0.38281-0.125-0.6875-0.375-0.90625-0.25-0.22656-0.58984-0.34375-1.0156-0.34375-0.19922 0-0.39844 0.023438-0.59375 0.0625-0.19922 0.042969-0.40234 0.10938-0.60938 0.20312z"/>
</symbol>
<symbol id="k" overflow="visible">
<path d="m2.5156-3.0781c-0.34375 0-0.61719 0.12109-0.8125 0.35938-0.1875 0.23047-0.28125 0.54297-0.28125 0.9375 0 0.39844 0.09375 0.71484 0.28125 0.95312 0.19531 0.23047 0.46875 0.34375 0.8125 0.34375 0.33203 0 0.59766-0.11328 0.79688-0.34375 0.19531-0.23828 0.29688-0.55469 0.29688-0.95312 0-0.39453-0.10156-0.70703-0.29688-0.9375-0.19922-0.23828-0.46484-0.35938-0.79688-0.35938zm1.4844-2.3438v0.6875c-0.1875-0.09375-0.38281-0.16016-0.57812-0.20312-0.1875-0.050781-0.375-0.078125-0.5625-0.078125-0.49219 0-0.87109 0.16797-1.1406 0.5-0.26172 0.33594-0.40625 0.83984-0.4375 1.5156 0.14453-0.21875 0.32812-0.38281 0.54688-0.5 0.21875-0.11328 0.46094-0.17188 0.73438-0.17188 0.55078 0 0.98828 0.17188 1.3125 0.51562 0.32031 0.33594 0.48438 0.79297 0.48438 1.375 0 0.57422-0.17188 1.0312-0.51562 1.375-0.33594 0.34375-0.77734 0.51562-1.3281 0.51562-0.64844 0-1.1406-0.24219-1.4844-0.73438-0.33594-0.5-0.5-1.2109-0.5-2.1406 0-0.875 0.20703-1.5703 0.625-2.0938 0.41406-0.51953 0.97266-0.78125 1.6719-0.78125 0.1875 0 0.375 0.023437 0.5625 0.0625 0.19531 0.03125 0.39844 0.085937 0.60938 0.15625z"/>
</symbol>
<symbol id="d" overflow="visible">
<path d="m5.9219-7.4531-5.2656-7.125h4.9375l2.9688 4.3281 3.0156-4.3281h4.9375l-5.25 7.0938 5.5 7.4844h-4.9219l-3.2812-4.6094-3.2344 4.6094h-4.9219z"/>
</symbol>
<symbol id="c" overflow="visible">
<path d="m9.875 3.5156h-8.0625v-2.9375h3.6406v-17.906h-3.6406v-2.9219h8.0625z"/>
</symbol>
</defs>
<path transform="matrix(1.902 0 0 1.9039 9.6324 80.146)" d="m300 153.75h-277.5v-195h277.5z" fill="none" stroke="#000" stroke-width="2"/>
<path transform="matrix(1.902 0 0 1.9039 9.6324 80.146)" d="m78.75 153.75v-183.75" fill="none" stroke="#000" stroke-width=".75"/>
<path transform="matrix(1.902 0 0 1.9039 9.6324 80.146)" d="m78.75 153.75v-195" fill="none" stroke="#000" stroke-width=".75"/>
<path transform="matrix(1.902 0 0 1.9039 9.6324 80.146)" d="m120 153.75v-195" fill="none" stroke="#000" stroke-width=".75"/>
<path transform="matrix(1.902 0 0 1.9039 9.6324 80.146)" d="m161.25 153.75v-195" fill="none" stroke="#000" stroke-width=".75"/>
<path transform="matrix(1.902 0 0 1.9039 9.6324 80.146)" d="m37.5 153.75v-195" fill="none" stroke="#000" stroke-width=".75"/>
<path transform="matrix(1.902 0 0 1.9039 9.6324 80.146)" d="m202.5 153.75v-195" fill="none" stroke="#000" stroke-width=".75"/>
<path transform="matrix(1.902 0 0 1.9039 9.6324 80.146)" d="m243.75 153.75v-195" fill="none" stroke="#000" stroke-width=".75"/>
<path transform="matrix(1.902 0 0 1.9039 9.6324 80.146)" d="m285 153.75v-195" fill="none" stroke="#000" stroke-width=".75"/>
<path transform="matrix(1.902 0 0 1.9039 9.6324 80.146)" d="m22.499 138.75h277.5" fill="none" stroke="#000" stroke-width=".75"/>
<path transform="matrix(1.902 0 0 1.9039 9.6324 80.146)" d="m300 123.75h-277.5" fill="none" stroke="#000" stroke-width=".75"/>
<path transform="matrix(1.902 0 0 1.9039 9.6324 80.146)" d="m22.499 108.75h277.5" fill="none" stroke="#000" stroke-width=".75"/>
<path transform="matrix(1.902 0 0 1.9039 9.6324 80.146)" d="m22.499 93.75h277.5" fill="none" stroke="#000" stroke-width=".75"/>
<path transform="matrix(1.902 0 0 1.9039 9.6324 80.146)" d="m22.499 78.749h277.5" fill="none" stroke="#000" stroke-width=".75"/>
<path transform="matrix(1.902 0 0 1.9039 9.6324 80.146)" d="m22.499 63.749h277.5" fill="none" stroke="#000" stroke-width=".75"/>
<path transform="matrix(1.902 0 0 1.9039 9.6324 80.146)" d="m22.499 48.751h277.5" fill="none" stroke="#000" stroke-width=".75"/>
<path transform="matrix(1.902 0 0 1.9039 9.6324 80.146)" d="m22.499 33.75h277.5" fill="none" stroke="#000" stroke-width=".75"/>
<path transform="matrix(1.902 0 0 1.9039 9.6324 80.146)" d="m22.499 18.75h277.5" fill="none" stroke="#000" stroke-width=".75"/>
<path transform="matrix(1.902 0 0 1.9039 9.6324 80.146)" d="m22.499 3.7498h277.5" fill="none" stroke="#000" stroke-width=".75"/>
<path transform="matrix(1.902 0 0 1.9039 9.6324 80.146)" d="m22.499-11.251h277.5" fill="none" stroke="#000" stroke-width=".75"/>
<path transform="matrix(1.902 0 0 1.9039 9.6324 80.146)" d="m22.499-26.251h277.5" fill="none" stroke="#000" stroke-width=".75"/>
<path transform="matrix(1.902 0 0 1.9039 9.6324 80.146)" d="m22.499-13.499h277.5" fill="none" stroke="#000" stroke-width=".75"/>
<g>
<use x="66.828125" y="387.809565" xlink:href="#g"/>
<use x="76.338074" y="387.809565" xlink:href="#e"/>
<use x="85.848023" y="387.809565" xlink:href="#f"/>
</g>
<g>
<use x="145.40625" y="387.809565" xlink:href="#e"/>
<use x="154.916199" y="387.809565" xlink:href="#f"/>
<use x="164.426148" y="387.809565" xlink:href="#a"/>
</g>
<g>
<use x="223.832031" y="387.809565" xlink:href="#f"/>
<use x="233.34198" y="387.809565" xlink:href="#a"/>
<use x="242.851929" y="387.809565" xlink:href="#a"/>
</g>
<g>
<use x="297.199219" y="387.809565" xlink:href="#g"/>
<use x="306.709168" y="387.809565" xlink:href="#a"/>
<use x="316.219117" y="387.809565" xlink:href="#a"/>
<use x="325.729066" y="387.809565" xlink:href="#a"/>
</g>
<g>
<use x="375.933594" y="387.809565" xlink:href="#e"/>
<use x="385.443543" y="387.809565" xlink:href="#a"/>
<use x="394.953492" y="387.809565" xlink:href="#a"/>
<use x="404.463441" y="387.809565" xlink:href="#a"/>
</g>
<g>
<use x="454.578125" y="387.809565" xlink:href="#j"/>
<use x="464.088074" y="387.809565" xlink:href="#a"/>
<use x="473.598023" y="387.809565" xlink:href="#a"/>
<use x="483.107972" y="387.809565" xlink:href="#a"/>
</g>
<g>
<use x="532.890625" y="387.809565" xlink:href="#i"/>
<use x="542.400574" y="387.809565" xlink:href="#a"/>
<use x="551.910523" y="387.809565" xlink:href="#a"/>
<use x="561.420472" y="387.809565" xlink:href="#a"/>
</g>
<g>
<use x="590.800781" y="387.809565" xlink:href="#h"/>
<use x="602.21272" y="387.809565" xlink:href="#q"/>
</g>
<g>
<use x="155.066406" y="398.04394" xlink:href="#b"/>
</g>
<g>
<use x="162.65625" y="400.377439" xlink:href="#p"/>
</g>
<g>
<use x="76.824219" y="398.04394" xlink:href="#b"/>
</g>
<g>
<use x="234.15625" y="398.04394" xlink:href="#b"/>
</g>
<g>
<use x="241.746094" y="400.377439" xlink:href="#o"/>
</g>
<g>
<use x="312.632812" y="398.04394" xlink:href="#b"/>
</g>
<g>
<use x="320.222656" y="400.377439" xlink:href="#n"/>
</g>
<g>
<use x="390.753906" y="398.04394" xlink:href="#b"/>
</g>
<g>
<use x="398.34375" y="400.377439" xlink:href="#m"/>
</g>
<g>
<use x="469.984375" y="398.04394" xlink:href="#b"/>
</g>
<g>
<use x="477.574219" y="400.377439" xlink:href="#l"/>
</g>
<g>
<use x="547.902344" y="398.04394" xlink:href="#b"/>
</g>
<g>
<use x="555.492188" y="400.377439" xlink:href="#k"/>
</g>
<g>
<use x="17.355469" y="350.055659" xlink:href="#g"/>
<use x="26.865418" y="350.055659" xlink:href="#a"/>
<use x="36.375367" y="350.055659" xlink:href="#a"/>
</g>
<g>
<use x="27.035156" y="292.938471" xlink:href="#i"/>
<use x="36.545105" y="292.938471" xlink:href="#a"/>
</g>
<g>
<use x="27.035156" y="235.82519" xlink:href="#u"/>
<use x="36.545105" y="235.82519" xlink:href="#a"/>
</g>
<g>
<use x="27.035156" y="178.708002" xlink:href="#j"/>
<use x="36.545105" y="178.708002" xlink:href="#a"/>
</g>
<g>
<use x="27.035156" y="121.590815" xlink:href="#e"/>
<use x="36.545105" y="121.590815" xlink:href="#a"/>
</g>
<g>
<use x="36.714844" y="64.473627" xlink:href="#a"/>
</g>
<g>
<use x="1.316406" y="36.051752" xlink:href="#t"/>
<use x="10.826355" y="36.051752" xlink:href="#s"/>
<use x="20.336304" y="36.051752" xlink:href="#h"/>
<use x="31.748243" y="36.051752" xlink:href="#r"/>
</g>
<path transform="matrix(1.902 0 0 1.9039 -4.3282e-14 .058812)" d="m83.814 53.317 41.25 0.43292 41.25 0.25031 41.25-8.9333 41.25 135.75 41.25-30.001" fill="none" stroke="#000" stroke-width="2"/>
<g fill="#2a7fff">
<use x="150.863281" y="109.225332" xlink:href="#d"/>
<use x="167.981189" y="109.225332" xlink:href="#c"/>
</g>
<g fill="#2a7fff">
<use x="229.289062" y="109.96752" xlink:href="#d"/>
<use x="246.406971" y="109.96752" xlink:href="#c"/>
</g>
<g fill="#2a7fff">
<use x="307.753906" y="110.365957" xlink:href="#d"/>
<use x="324.871814" y="110.365957" xlink:href="#c"/>
</g>
<g fill="#2a7fff">
<use x="386.210938" y="94.803457" xlink:href="#d"/>
<use x="403.328846" y="94.803457" xlink:href="#c"/>
</g>
<g fill="#2a7fff">
<use x="464.679687" y="351.822989" xlink:href="#d"/>
<use x="481.797596" y="351.822989" xlink:href="#c"/>
</g>
<g fill="#2a7fff">
<use x="543.125" y="294.631582" xlink:href="#d"/>
<use x="560.242908" y="294.631582" xlink:href="#c"/>
</g>
</svg>
