<?xml version="1.0" encoding="UTF-8"?>
<svg width="600px" height="326px" version="1.1" viewBox="0 0 600 326" xmlns="http://www.w3.org/2000/svg" xmlns:xlink="http://www.w3.org/1999/xlink">
<defs>
<symbol id="y" overflow="visible">
<path d="m1.9375-14.344h2.6094l6.3594 12v-12h1.875v14.344h-2.6094l-6.3594-12v12h-1.875z"/>
</symbol>
<symbol id="m" overflow="visible">
<path d="m6.0156-9.5156c-0.94922 0-1.6992 0.37109-2.25 1.1094-0.54297 0.74219-0.8125 1.75-0.8125 3.0312 0 1.293 0.26953 2.3086 0.8125 3.0469 0.55078 0.74219 1.3008 1.1094 2.25 1.1094 0.94531 0 1.6953-0.36719 2.25-1.1094 0.55078-0.75 0.82812-1.7656 0.82812-3.0469 0-1.2695-0.27734-2.2734-0.82812-3.0156-0.55469-0.75-1.3047-1.125-2.25-1.125zm0-1.5c1.5391 0 2.75 0.5 3.625 1.5s1.3125 2.3828 1.3125 4.1406c0 1.7617-0.4375 3.1484-1.3125 4.1562-0.875 1-2.0859 1.5-3.625 1.5-1.543 0-2.75-0.5-3.625-1.5-0.875-1.0078-1.3125-2.3945-1.3125-4.1562 0-1.7578 0.4375-3.1406 1.3125-4.1406s2.082-1.5 3.625-1.5z"/>
</symbol>
<symbol id="e" overflow="visible">
<path d="m8.0938-9.1094c-0.19922-0.11328-0.41797-0.19531-0.65625-0.25-0.23047-0.050781-0.48438-0.078125-0.76562-0.078125-1 0-1.7734 0.32422-2.3125 0.96875-0.53125 0.64844-0.79688 1.5781-0.79688 2.7969v5.6719h-1.7812v-10.766h1.7812v1.6719c0.375-0.64453 0.85938-1.125 1.4531-1.4375 0.59375-0.32031 1.3164-0.48438 2.1719-0.48438 0.125 0 0.25781 0.011719 0.40625 0.03125 0.14453 0.011719 0.30469 0.03125 0.48438 0.0625z"/>
</symbol>
<symbol id="l" overflow="visible">
<path d="m10.234-8.6875c0.4375-0.80078 0.96094-1.3906 1.5781-1.7656 0.61328-0.375 1.3359-0.5625 2.1719-0.5625 1.125 0 1.9883 0.39062 2.5938 1.1719 0.60156 0.78125 0.90625 1.8984 0.90625 3.3438v6.5h-1.7656v-6.4375c0-1.0312-0.18359-1.7969-0.54688-2.2969-0.36719-0.5-0.92188-0.75-1.6719-0.75-0.91797 0-1.6406 0.30859-2.1719 0.92188-0.53125 0.60547-0.79688 1.4336-0.79688 2.4844v6.0781h-1.7812v-6.4375c0-1.0312-0.18359-1.7969-0.54688-2.2969-0.36719-0.5-0.92969-0.75-1.6875-0.75-0.90625 0-1.625 0.30859-2.1562 0.92188-0.53125 0.61719-0.79688 1.4453-0.79688 2.4844v6.0781h-1.7812v-10.766h1.7812v1.6719c0.40625-0.65625 0.89062-1.1406 1.4531-1.4531s1.2266-0.46875 2-0.46875c0.78125 0 1.4453 0.19922 2 0.59375 0.55078 0.39844 0.95703 0.97656 1.2188 1.7344z"/>
</symbol>
<symbol id="k" overflow="visible">
<path d="m6.75-5.4062c-1.4375 0-2.4336 0.16797-2.9844 0.5-0.54297 0.32422-0.8125 0.875-0.8125 1.6562 0 0.625 0.20312 1.125 0.60938 1.5 0.41406 0.36719 0.97656 0.54688 1.6875 0.54688 0.97656 0 1.7656-0.34375 2.3594-1.0312 0.59375-0.69531 0.89062-1.625 0.89062-2.7812v-0.39062zm3.5156-0.73438v6.1406h-1.7656v-1.6406c-0.40625 0.65625-0.91406 1.1406-1.5156 1.4531-0.59375 0.3125-1.3281 0.46875-2.2031 0.46875-1.1055 0-1.9805-0.30469-2.625-0.92188-0.64844-0.625-0.96875-1.4531-0.96875-2.4844 0-1.2188 0.39844-2.1328 1.2031-2.75 0.8125-0.61328 2.0195-0.92188 3.625-0.92188h2.4844v-0.17188c0-0.8125-0.27344-1.4375-0.8125-1.875-0.53125-0.44531-1.2773-0.67188-2.2344-0.67188-0.61719 0-1.2148 0.074219-1.7969 0.21875-0.58594 0.14844-1.1484 0.36719-1.6875 0.65625v-1.625c0.64453-0.25 1.2695-0.4375 1.875-0.5625 0.61328-0.125 1.207-0.1875 1.7812-0.1875 1.5625 0 2.7227 0.40625 3.4844 1.2188 0.76953 0.80469 1.1562 2.0234 1.1562 3.6562z"/>
</symbol>
<symbol id="h" overflow="visible">
<path d="m1.8594-14.953h1.7656v14.953h-1.7656z"/>
</symbol>
<symbol id="b" overflow="visible">
<path d="m1.8594-10.766h1.7656v10.766h-1.7656zm0-4.1875h1.7656v2.25h-1.7656z"/>
</symbol>
<symbol id="d" overflow="visible">
<path d="m3.6094-13.812v3.0469h3.6406v1.375h-3.6406v5.8438c0 0.875 0.11719 1.4375 0.35938 1.6875 0.23828 0.25 0.72266 0.375 1.4531 0.375h1.8281v1.4844h-1.8281c-1.3672 0-2.3086-0.25391-2.8281-0.76562-0.51172-0.50781-0.76562-1.4375-0.76562-2.7812v-5.8438h-1.2969v-1.375h1.2969v-3.0469z"/>
</symbol>
<symbol id="o" overflow="visible">
<path d="m6.75-5.4062c-1.4375 0-2.4336 0.16797-2.9844 0.5-0.54297 0.32422-0.8125 0.875-0.8125 1.6562 0 0.625 0.20312 1.125 0.60938 1.5 0.41406 0.36719 0.97656 0.54688 1.6875 0.54688 0.97656 0 1.7656-0.34375 2.3594-1.0312 0.59375-0.69531 0.89062-1.625 0.89062-2.7812v-0.39062zm3.5156-0.73438v6.1406h-1.7656v-1.6406c-0.40625 0.65625-0.91406 1.1406-1.5156 1.4531-0.59375 0.3125-1.3281 0.46875-2.2031 0.46875-1.1055 0-1.9805-0.30469-2.625-0.92188-0.64844-0.625-0.96875-1.4531-0.96875-2.4844 0-1.2188 0.39844-2.1328 1.2031-2.75 0.8125-0.61328 2.0195-0.92188 3.625-0.92188h2.4844v-0.17188c0-0.8125-0.27344-1.4375-0.8125-1.875-0.53125-0.44531-1.2773-0.67188-2.2344-0.67188-0.61719 0-1.2148 0.074219-1.7969 0.21875-0.58594 0.14844-1.1484 0.36719-1.6875 0.65625v-1.625c0.64453-0.25 1.2695-0.4375 1.875-0.5625 0.61328-0.125 1.207-0.1875 1.7812-0.1875 1.5625 0 2.7227 0.40625 3.4844 1.2188 0.76953 0.80469 1.1562 2.0234 1.1562 3.6562zm-3.6562-8.7656h1.9375v1.9375h-1.9375zm-3.7656 0h1.9531v1.9375h-1.9531z"/>
</symbol>
<symbol id="g" overflow="visible">
<path d="m8.7188-10.438v1.6719c-0.5-0.25781-1.0234-0.45312-1.5625-0.57812-0.54297-0.125-1.1016-0.1875-1.6719-0.1875-0.875 0-1.5312 0.13672-1.9688 0.40625-0.4375 0.26172-0.65625 0.66406-0.65625 1.2031 0 0.40625 0.15625 0.73047 0.46875 0.96875 0.3125 0.23047 0.94141 0.44922 1.8906 0.65625l0.60938 0.14062c1.25 0.27344 2.1328 0.65234 2.6562 1.1406 0.53125 0.49219 0.79688 1.1719 0.79688 2.0469 0 1-0.39844 1.793-1.1875 2.375-0.78125 0.58594-1.8672 0.875-3.25 0.875-0.57422 0-1.1719-0.058594-1.7969-0.17188-0.625-0.11328-1.2891-0.28125-1.9844-0.5v-1.8281c0.65625 0.34375 1.3008 0.60156 1.9375 0.76562 0.63281 0.16797 1.2578 0.25 1.875 0.25 0.83203 0 1.4727-0.14062 1.9219-0.42188 0.44531-0.28906 0.67188-0.69141 0.67188-1.2031 0-0.47656-0.16406-0.84766-0.48438-1.1094-0.32422-0.25781-1.0312-0.50391-2.125-0.73438l-0.60938-0.15625c-1.0938-0.22656-1.8867-0.57812-2.375-1.0469-0.49219-0.47656-0.73438-1.1328-0.73438-1.9688 0-1.0078 0.35938-1.7891 1.0781-2.3438 0.71875-0.55078 1.7344-0.82812 3.0469-0.82812 0.65625 0 1.2695 0.046875 1.8438 0.14062 0.58203 0.09375 1.1172 0.24219 1.6094 0.4375z"/>
</symbol>
<symbol id="n" overflow="visible">
<path d="m8.9375-5.5c0-1.2812-0.26562-2.2695-0.79688-2.9688-0.53125-0.70703-1.2734-1.0625-2.2188-1.0625-0.94922 0-1.6875 0.35547-2.2188 1.0625-0.53125 0.69922-0.79688 1.6875-0.79688 2.9688 0 1.2734 0.26562 2.2617 0.79688 2.9688 0.53125 0.69922 1.2695 1.0469 2.2188 1.0469 0.94531 0 1.6875-0.34766 2.2188-1.0469 0.53125-0.70703 0.79688-1.6953 0.79688-2.9688zm1.7656 4.1719c0 1.8203-0.40625 3.1797-1.2188 4.0781-0.8125 0.89453-2.0586 1.3438-3.7344 1.3438-0.625 0-1.2148-0.046875-1.7656-0.14062-0.55469-0.09375-1.0898-0.23438-1.6094-0.42188v-1.7188c0.51953 0.28125 1.0312 0.48438 1.5312 0.60938 0.50781 0.13281 1.0312 0.20312 1.5625 0.20312 1.1562 0 2.0195-0.30469 2.5938-0.90625 0.58203-0.60547 0.875-1.5156 0.875-2.7344v-0.875c-0.36719 0.63672-0.83594 1.1094-1.4062 1.4219-0.57422 0.3125-1.2578 0.46875-2.0469 0.46875-1.3242 0-2.3906-0.5-3.2031-1.5-0.80469-1.0078-1.2031-2.3438-1.2031-4 0-1.6641 0.39844-3 1.2031-4 0.8125-1.0078 1.8789-1.5156 3.2031-1.5156 0.78906 0 1.4727 0.15625 2.0469 0.46875 0.57031 0.3125 1.0391 0.78906 1.4062 1.4219v-1.6406h1.7656z"/>
</symbol>
<symbol id="a" overflow="visible">
<path d="m11.062-5.8281v0.875h-8.1406c0.082031 1.2188 0.45312 2.1484 1.1094 2.7812 0.65625 0.63672 1.5664 0.95312 2.7344 0.95312 0.6875 0 1.3477-0.082031 1.9844-0.25 0.63281-0.16406 1.2656-0.41406 1.8906-0.75v1.6719c-0.63672 0.27344-1.2891 0.47656-1.9531 0.60938-0.66797 0.14453-1.3398 0.21875-2.0156 0.21875-1.7188 0-3.0859-0.5-4.0938-1.5-1-1-1.5-2.3477-1.5-4.0469 0-1.7695 0.47266-3.1719 1.4219-4.2031 0.95703-1.0312 2.2422-1.5469 3.8594-1.5469 1.4453 0 2.5938 0.46875 3.4375 1.4062 0.84375 0.92969 1.2656 2.1875 1.2656 3.7812zm-1.7812-0.51562c-0.011719-0.96875-0.28125-1.7383-0.8125-2.3125-0.52344-0.57031-1.2188-0.85938-2.0938-0.85938-0.98047 0-1.7656 0.28125-2.3594 0.84375-0.59375 0.55469-0.9375 1.3359-1.0312 2.3438z"/>
</symbol>
<symbol id="c" overflow="visible">
<path d="m10.797-6.5v6.5h-1.7656v-6.4375c0-1.0195-0.19922-1.7812-0.59375-2.2812-0.39844-0.50781-0.99609-0.76562-1.7969-0.76562-0.94922 0-1.6992 0.30859-2.25 0.92188-0.55469 0.60547-0.82812 1.4336-0.82812 2.4844v6.0781h-1.7812v-10.766h1.7812v1.6719c0.42578-0.64453 0.92578-1.125 1.5-1.4375 0.57031-0.32031 1.2344-0.48438 1.9844-0.48438 1.2266 0 2.1602 0.38672 2.7969 1.1562 0.63281 0.76172 0.95312 1.8828 0.95312 3.3594z"/>
</symbol>
<symbol id="x" overflow="visible">
<path d="m1.0781-10.766h8.4062v1.625l-6.6562 7.7344h6.6562v1.4062h-8.6406v-1.6094l6.6562-7.7344h-6.4219z"/>
</symbol>
<symbol id="j" overflow="visible">
<path d="m8.9375-9.125v-5.8281h1.7656v14.953h-1.7656v-1.6094c-0.375 0.63672-0.85156 1.1094-1.4219 1.4219-0.5625 0.3125-1.2422 0.46875-2.0312 0.46875-1.3047 0-2.3672-0.51562-3.1875-1.5469-0.8125-1.0391-1.2188-2.4102-1.2188-4.1094 0-1.6875 0.40625-3.0469 1.2188-4.0781 0.82031-1.0391 1.8828-1.5625 3.1875-1.5625 0.78906 0 1.4688 0.15625 2.0312 0.46875 0.57031 0.3125 1.0469 0.78906 1.4219 1.4219zm-6.0312 3.75c0 1.3047 0.26562 2.3242 0.79688 3.0625 0.53906 0.74219 1.2812 1.1094 2.2188 1.1094 0.92578 0 1.6602-0.36719 2.2031-1.1094 0.53906-0.73828 0.8125-1.7578 0.8125-3.0625 0-1.2891-0.27344-2.3047-0.8125-3.0469-0.54297-0.73828-1.2773-1.1094-2.2031-1.1094-0.9375 0-1.6797 0.37109-2.2188 1.1094-0.53125 0.74219-0.79688 1.7578-0.79688 3.0469z"/>
</symbol>
<symbol id="t" overflow="visible">
<path d="m10.531-13.875v1.8906c-0.74219-0.34375-1.4375-0.60156-2.0938-0.78125-0.64844-0.17578-1.2773-0.26562-1.8906-0.26562-1.0547 0-1.8672 0.21094-2.4375 0.625-0.57422 0.40625-0.85938 0.99219-0.85938 1.75 0 0.625 0.1875 1.1055 0.5625 1.4375 0.38281 0.32422 1.1094 0.58594 2.1719 0.78125l1.1719 0.23438c1.4453 0.27344 2.5156 0.75781 3.2031 1.4531 0.6875 0.69922 1.0312 1.6328 1.0312 2.7969 0 1.3867-0.46875 2.4375-1.4062 3.1562-0.92969 0.71875-2.293 1.0781-4.0938 1.0781-0.67969 0-1.4023-0.078125-2.1719-0.23438-0.76172-0.15625-1.5469-0.38281-2.3594-0.6875v-1.9844c0.78125 0.4375 1.5469 0.77344 2.2969 1 0.75781 0.21875 1.5039 0.32812 2.2344 0.32812 1.1133 0 1.9688-0.21875 2.5625-0.65625 0.60156-0.4375 0.90625-1.0547 0.90625-1.8594 0-0.70703-0.21875-1.2578-0.65625-1.6562-0.42969-0.39453-1.1328-0.69141-2.1094-0.89062l-1.1875-0.23438c-1.4492-0.28125-2.4961-0.72656-3.1406-1.3438-0.64844-0.61328-0.96875-1.4727-0.96875-2.5781 0-1.2578 0.44531-2.2539 1.3438-2.9844 0.89453-0.72656 2.125-1.0938 3.6875-1.0938 0.67578 0 1.3633 0.0625 2.0625 0.1875 0.69531 0.11719 1.4102 0.29297 2.1406 0.53125z"/>
</symbol>
<symbol id="i" overflow="visible">
<path d="m9.5938-10.344v1.6562c-0.5-0.28125-1-0.48828-1.5-0.625-0.5-0.13281-1.0117-0.20312-1.5312-0.20312-1.1484 0-2.0391 0.36719-2.6719 1.0938-0.625 0.71875-0.9375 1.7344-0.9375 3.0469s0.3125 2.3359 0.9375 3.0625c0.63281 0.73047 1.5234 1.0938 2.6719 1.0938 0.51953 0 1.0312-0.066406 1.5312-0.20312 0.5-0.14453 1-0.35156 1.5-0.625v1.6406c-0.49219 0.23047-1 0.40234-1.5312 0.51562-0.53125 0.11328-1.0938 0.17188-1.6875 0.17188-1.6172 0-2.9023-0.50781-3.8594-1.5312-0.96094-1.0195-1.4375-2.3945-1.4375-4.125 0-1.75 0.48438-3.125 1.4531-4.125 0.96875-1.0078 2.2891-1.5156 3.9688-1.5156 0.53906 0 1.0664 0.058594 1.5781 0.17188 0.51953 0.10547 1.0234 0.27344 1.5156 0.5z"/>
</symbol>
<symbol id="f" overflow="visible">
<path d="m10.797-6.5v6.5h-1.7656v-6.4375c0-1.0195-0.19922-1.7812-0.59375-2.2812-0.39844-0.50781-0.99609-0.76562-1.7969-0.76562-0.94922 0-1.6992 0.30859-2.25 0.92188-0.55469 0.60547-0.82812 1.4336-0.82812 2.4844v6.0781h-1.7812v-14.953h1.7812v5.8594c0.42578-0.64453 0.92578-1.125 1.5-1.4375 0.57031-0.32031 1.2344-0.48438 1.9844-0.48438 1.2266 0 2.1602 0.38672 2.7969 1.1562 0.63281 0.76172 0.95312 1.8828 0.95312 3.3594z"/>
</symbol>
<symbol id="s" overflow="visible">
<path d="m0.82812-10.766h1.7656l2.2031 8.4062 2.2031-8.4062h2.0938l2.2031 8.4062 2.2031-8.4062h1.7656l-2.8125 10.766h-2.0938l-2.3125-8.8125-2.3281 8.8125h-2.0781z"/>
</symbol>
<symbol id="r" overflow="visible"></symbol>
<symbol id="q" overflow="visible">
<path d="m3.5312-14.344v5.3281h-1.6406v-5.3281zm3.625 0v5.3281h-1.6406v-5.3281z"/>
</symbol>
<symbol id="p" overflow="visible">
<path d="m1.6719-4.25v-6.5156h1.7656v6.4531c0 1.0234 0.19531 1.7891 0.59375 2.2969 0.39453 0.5 0.99219 0.75 1.7969 0.75 0.94531 0 1.6953-0.30078 2.25-0.90625 0.55078-0.60156 0.82812-1.4297 0.82812-2.4844v-6.1094h1.7812v10.766h-1.7812v-1.6562c-0.42969 0.65625-0.92969 1.1484-1.5 1.4688-0.5625 0.3125-1.2148 0.46875-1.9531 0.46875-1.2422 0-2.1836-0.38281-2.8281-1.1562-0.63672-0.76953-0.95312-1.8945-0.95312-3.375z"/>
</symbol>
<symbol id="w" overflow="visible">
<path d="m3.875-6.8438v5.25h3.1094c1.0391 0 1.8125-0.21094 2.3125-0.64062 0.50781-0.4375 0.76562-1.0977 0.76562-1.9844 0-0.90625-0.25781-1.5664-0.76562-1.9844-0.5-0.42578-1.2734-0.64062-2.3125-0.64062zm0-5.9062v4.3281h2.875c0.94531 0 1.6484-0.17578 2.1094-0.53125 0.46875-0.35156 0.70312-0.89453 0.70312-1.625 0-0.72656-0.23438-1.2695-0.70312-1.625-0.46094-0.36328-1.1641-0.54688-2.1094-0.54688zm-1.9375-1.5938h4.9531c1.4766 0 2.6133 0.30859 3.4062 0.92188 0.80078 0.61719 1.2031 1.4922 1.2031 2.625 0 0.875-0.20312 1.5742-0.60938 2.0938-0.40625 0.52344-1.0078 0.84375-1.7969 0.96875 0.94531 0.21094 1.6875 0.64062 2.2188 1.2969 0.53125 0.64844 0.79688 1.4531 0.79688 2.4219 0 1.2812-0.4375 2.2734-1.3125 2.9688-0.875 0.69922-2.1172 1.0469-3.7188 1.0469h-5.1406z"/>
</symbol>
<symbol id="v" overflow="visible">
<path d="m7.2969-14.953v1.4844h-1.6875c-0.63672 0-1.0781 0.13281-1.3281 0.39062-0.24219 0.25-0.35938 0.71094-0.35938 1.375v0.9375h2.9062v1.375h-2.9062v9.3906h-1.7812v-9.3906h-1.6875v-1.375h1.6875v-0.73438c0-1.1953 0.27344-2.0703 0.82812-2.625 0.5625-0.55078 1.4453-0.82812 2.6562-0.82812z"/>
</symbol>
<symbol id="u" overflow="visible">
<path d="m9.5781-5.375c0-1.2891-0.27344-2.3047-0.8125-3.0469-0.53125-0.73828-1.2656-1.1094-2.2031-1.1094-0.92969 0-1.6641 0.37109-2.2031 1.1094-0.53125 0.74219-0.79688 1.7578-0.79688 3.0469 0 1.3047 0.26562 2.3242 0.79688 3.0625 0.53906 0.74219 1.2734 1.1094 2.2031 1.1094 0.9375 0 1.6719-0.36719 2.2031-1.1094 0.53906-0.73828 0.8125-1.7578 0.8125-3.0625zm-6.0156-3.75c0.375-0.63281 0.84375-1.1094 1.4062-1.4219 0.57031-0.3125 1.25-0.46875 2.0312-0.46875 1.3125 0 2.375 0.52344 3.1875 1.5625 0.8125 1.0312 1.2188 2.3906 1.2188 4.0781 0 1.6992-0.40625 3.0703-1.2188 4.1094-0.8125 1.0312-1.875 1.5469-3.1875 1.5469-0.78125 0-1.4609-0.15625-2.0312-0.46875-0.5625-0.3125-1.0312-0.78516-1.4062-1.4219v1.6094h-1.7812v-14.953h1.7812z"/>
</symbol>
</defs>
<path transform="matrix(1.9666 0 0 1.9667 0 .21836)" d="m25.52 48.754h30" fill="none" stroke="#000" stroke-width="2.8346"/>
<path transform="matrix(1.9666 0 0 1.9667 0 .21836)" d="m40.521 138.75v-135" fill="none" stroke="#000" stroke-width="2.8346"/>
<path d="m66.195 36.766 13.438-36.547 13.438 36.547c-7.9336-5.8398-18.789-5.8047-26.875 0z" fill-rule="evenodd"/>
<path transform="matrix(1.9666 0 0 1.9667 0 .21836)" d="m168.02 60.004h105" fill="none" stroke="#000" stroke-width="2.8346"/>
<path transform="matrix(1.9666 0 0 1.9667 0 .21836)" d="m220.52 112.5v-105" fill="none" stroke="#000" stroke-width="2.8346"/>
<path transform="matrix(1.9666 0 0 1.9667 0 .21836)" d="m224.27 60.004c0 2.0716-1.6784 3.75-3.7502 3.75-2.0717 0-3.7502-1.6784-3.7502-3.75 0-2.0716 1.6784-3.75 3.7502-3.75 2.0717 0 3.7502 1.6784 3.7502 3.75z" fill="none" stroke="#000" stroke-width="1.4173"/>
<path transform="matrix(1.9666 0 0 1.9667 544.29 37.101)" d="m-75.001 30c0 2.0716-1.6784 3.75-3.7482 3.75-2.0717 0-3.7502-1.6784-3.7502-3.75s1.6785-3.75 3.7502-3.75c2.0698 0 3.7482 1.6784 3.7482 3.75z" fill="none" stroke="#000" stroke-width="1.4173"/>
<path d="m393.84 96.102c0 2.4453-1.9805 4.4258-4.4219 4.4258-2.4453 0-4.4258-1.9805-4.4258-4.4258 0-2.4453 1.9805-4.4258 4.4258-4.4258 2.4414 0 4.4219 1.9805 4.4219 4.4258z"/>
<path transform="matrix(1.9666 0 0 1.9667 234.55 -7.1485)" d="m-74.999 30c0 2.0716-1.6804 3.75-3.7502 3.75-2.0717 0-3.7502-1.6784-3.7502-3.75 0-2.0716 1.6785-3.75 3.7502-3.75 2.0698 0 3.7502 1.6784 3.7502 3.75z" fill="none" stroke="#000" stroke-width="1.4173"/>
<path d="m84.109 51.852c0 2.4453-1.9805 4.4258-4.4219 4.4258-2.4453 0-4.4258-1.9805-4.4258-4.4258 0-2.4453 1.9805-4.4258 4.4258-4.4258 2.4414 0 4.4219 1.9805 4.4219 4.4258z"/>
<path transform="matrix(1.9666 0 0 1.9667 234.55 81.351)" d="m-74.999 30c0 2.0716-1.6804 3.75-3.7502 3.75-2.0717 0-3.7502-1.6784-3.7502-3.75 0-2.0716 1.6785-3.75 3.7502-3.75 2.0698 0 3.7502 1.6784 3.7502 3.75z" fill="none" stroke="#000" stroke-width="1.4173"/>
<path d="m84.109 140.35c0 2.4414-1.9805 4.4258-4.4219 4.4258-2.4453 0-4.4258-1.9844-4.4258-4.4258 0-2.4453 1.9805-4.4258 4.4258-4.4258 2.4414 0 4.4219 1.9805 4.4219 4.4258z"/>
<path transform="matrix(1.9666 0 0 1.9667 662.28 -21.898)" d="m-75 30c0 2.0716-1.6784 3.75-3.7502 3.75-2.0717 0-3.7502-1.6784-3.7502-3.75s1.6784-3.75 3.7502-3.75c2.0717 0 3.7502 1.6784 3.7502 3.75z" fill="none" stroke="#000" stroke-width="1.4173"/>
<path d="m511.84 37.102c0 2.4453-1.9805 4.4258-4.4258 4.4258-2.4453 0-4.4258-1.9805-4.4258-4.4258 0-2.4453 1.9805-4.4258 4.4258-4.4258 2.4453 0 4.4258 1.9805 4.4258 4.4258z"/>
<path transform="matrix(1.9666 0 0 1.9667 632.78 81.351)" d="m-75.001 30c0 2.0716-1.6784 3.75-3.7502 3.75-2.0698 0-3.7502-1.6784-3.7502-3.75s1.6804-3.75 3.7502-3.75c2.0717 0 3.7502 1.6784 3.7502 3.75z" fill="none" stroke="#000" stroke-width="1.4173"/>
<path d="m482.34 140.35c0 2.4414-1.9805 4.4258-4.4258 4.4258-2.4414 0-4.4219-1.9844-4.4219-4.4258 0-2.4453 1.9805-4.4258 4.4219-4.4258 2.4453 0 4.4258 1.9805 4.4258 4.4258z"/>
<g>
<use x="122.390625" y="100.44248" xlink:href="#y"/>
<use x="136.156577" y="100.44248" xlink:href="#m"/>
<use x="147.955964" y="100.44248" xlink:href="#e"/>
<use x="155.822223" y="100.44248" xlink:href="#l"/>
<use x="175.487868" y="100.44248" xlink:href="#k"/>
<use x="187.287256" y="100.44248" xlink:href="#h"/>
<use x="193.186949" y="100.44248" xlink:href="#b"/>
<use x="199.086643" y="100.44248" xlink:href="#d"/>
<use x="206.952901" y="100.44248" xlink:href="#o"/>
<use x="218.752289" y="100.44248" xlink:href="#d"/>
<use x="226.618547" y="100.44248" xlink:href="#g"/>
<use x="236.45137" y="100.44248" xlink:href="#n"/>
<use x="248.250757" y="100.44248" xlink:href="#e"/>
<use x="256.117015" y="100.44248" xlink:href="#a"/>
<use x="267.916403" y="100.44248" xlink:href="#c"/>
<use x="279.71579" y="100.44248" xlink:href="#x"/>
<use x="289.548613" y="100.44248" xlink:href="#a"/>
</g>
<g>
<use x="0.0234375" y="298.633886" xlink:href="#a"/>
<use x="11.822825" y="298.633886" xlink:href="#b"/>
<use x="17.722519" y="298.633886" xlink:href="#c"/>
<use x="29.521906" y="298.633886" xlink:href="#j"/>
<use x="41.321293" y="298.633886" xlink:href="#b"/>
<use x="47.220987" y="298.633886" xlink:href="#l"/>
<use x="66.886633" y="298.633886" xlink:href="#a"/>
<use x="78.68602" y="298.633886" xlink:href="#c"/>
<use x="90.485407" y="298.633886" xlink:href="#g"/>
<use x="100.31823" y="298.633886" xlink:href="#b"/>
<use x="106.217924" y="298.633886" xlink:href="#m"/>
<use x="118.017311" y="298.633886" xlink:href="#c"/>
<use x="129.816699" y="298.633886" xlink:href="#k"/>
<use x="141.616086" y="298.633886" xlink:href="#h"/>
<use x="147.51578" y="298.633886" xlink:href="#a"/>
</g>
<g>
<use x="28.539062" y="323.215917" xlink:href="#t"/>
<use x="40.33845" y="323.215917" xlink:href="#b"/>
<use x="46.238144" y="323.215917" xlink:href="#i"/>
<use x="56.070966" y="323.215917" xlink:href="#f"/>
<use x="67.870354" y="323.215917" xlink:href="#d"/>
<use x="75.736612" y="323.215917" xlink:href="#s"/>
<use x="91.469128" y="323.215917" xlink:href="#a"/>
<use x="103.268516" y="323.215917" xlink:href="#b"/>
<use x="109.16821" y="323.215917" xlink:href="#g"/>
<use x="119.001032" y="323.215917" xlink:href="#a"/>
</g>
<g>
<use x="363.855469" y="297.106542" xlink:href="#t"/>
<use x="375.654856" y="297.106542" xlink:href="#b"/>
<use x="381.55455" y="297.106542" xlink:href="#i"/>
<use x="391.387373" y="297.106542" xlink:href="#f"/>
<use x="403.18676" y="297.106542" xlink:href="#d"/>
<use x="411.053018" y="297.106542" xlink:href="#s"/>
<use x="426.785535" y="297.106542" xlink:href="#a"/>
<use x="438.584922" y="297.106542" xlink:href="#b"/>
<use x="444.484616" y="297.106542" xlink:href="#g"/>
<use x="454.317439" y="297.106542" xlink:href="#a"/>
<use x="466.116826" y="297.106542" xlink:href="#r"/>
<use x="472.01652" y="297.106542" xlink:href="#j"/>
<use x="483.815907" y="297.106542" xlink:href="#a"/>
<use x="495.615294" y="297.106542" xlink:href="#e"/>
</g>
<g>
<use x="269.460938" y="321.69248" xlink:href="#q"/>
<use x="279.29376" y="321.69248" xlink:href="#p"/>
<use x="291.093148" y="321.69248" xlink:href="#c"/>
<use x="302.892535" y="321.69248" xlink:href="#d"/>
<use x="310.758793" y="321.69248" xlink:href="#a"/>
<use x="322.558181" y="321.69248" xlink:href="#e"/>
<use x="330.424439" y="321.69248" xlink:href="#g"/>
<use x="340.257262" y="321.69248" xlink:href="#i"/>
<use x="350.090085" y="321.69248" xlink:href="#f"/>
<use x="361.889472" y="321.69248" xlink:href="#b"/>
<use x="367.789166" y="321.69248" xlink:href="#a"/>
<use x="379.588553" y="321.69248" xlink:href="#j"/>
<use x="391.38794" y="321.69248" xlink:href="#h"/>
<use x="397.287634" y="321.69248" xlink:href="#b"/>
<use x="403.187328" y="321.69248" xlink:href="#i"/>
<use x="413.02015" y="321.69248" xlink:href="#f"/>
<use x="424.819538" y="321.69248" xlink:href="#a"/>
<use x="436.618925" y="321.69248" xlink:href="#c"/>
<use x="448.418313" y="321.69248" xlink:href="#r"/>
<use x="454.318006" y="321.69248" xlink:href="#w"/>
<use x="468.083958" y="321.69248" xlink:href="#a"/>
<use x="479.883346" y="321.69248" xlink:href="#v"/>
<use x="487.749604" y="321.69248" xlink:href="#o"/>
<use x="499.548991" y="321.69248" xlink:href="#f"/>
<use x="511.348379" y="321.69248" xlink:href="#b"/>
<use x="517.248072" y="321.69248" xlink:href="#n"/>
<use x="529.04746" y="321.69248" xlink:href="#p"/>
<use x="540.846847" y="321.69248" xlink:href="#c"/>
<use x="552.646234" y="321.69248" xlink:href="#n"/>
<use x="564.445622" y="321.69248" xlink:href="#a"/>
<use x="576.245009" y="321.69248" xlink:href="#c"/>
<use x="588.044396" y="321.69248" xlink:href="#q"/>
</g>
<g>
<use x="107.753906" y="57.715917" xlink:href="#c"/>
<use x="119.553294" y="57.715917" xlink:href="#m"/>
<use x="131.352681" y="57.715917" xlink:href="#e"/>
<use x="139.218939" y="57.715917" xlink:href="#l"/>
<use x="158.884585" y="57.715917" xlink:href="#k"/>
<use x="170.683972" y="57.715917" xlink:href="#h"/>
</g>
<g>
<use x="107.753906" y="146.215917" xlink:href="#u"/>
<use x="119.553294" y="146.215917" xlink:href="#a"/>
<use x="131.352681" y="146.215917" xlink:href="#f"/>
<use x="143.152068" y="146.215917" xlink:href="#b"/>
<use x="149.051762" y="146.215917" xlink:href="#c"/>
<use x="160.851149" y="146.215917" xlink:href="#j"/>
<use x="172.650537" y="146.215917" xlink:href="#a"/>
<use x="184.449924" y="146.215917" xlink:href="#e"/>
<use x="192.316182" y="146.215917" xlink:href="#d"/>
</g>
</svg>
