<?xml version="1.0" encoding="UTF-8"?>
<svg width="800px" height="537px" version="1.1" viewBox="0 0 800 537" xmlns="http://www.w3.org/2000/svg" xmlns:xlink="http://www.w3.org/1999/xlink">
<defs>
<symbol id="g" overflow="visible">
<path d="m1.25-0.82812h1.625v-5.5938l-1.7656 0.35938v-0.90625l1.75-0.35938h1v6.5h1.6094v0.82812h-4.2188z"/>
</symbol>
<symbol id="e" overflow="visible">
<path d="m1.9375-0.82812h3.4531v0.82812h-4.6562v-0.82812c0.375-0.39453 0.88281-0.92188 1.5312-1.5781 0.65625-0.65625 1.0664-1.0781 1.2344-1.2656 0.32031-0.35156 0.54688-0.64844 0.67188-0.89062 0.125-0.25 0.1875-0.49219 0.1875-0.73438 0-0.39453-0.14062-0.71094-0.42188-0.95312-0.27344-0.25-0.625-0.375-1.0625-0.375-0.3125 0-0.64062 0.058594-0.98438 0.17188-0.34375 0.10547-0.71484 0.26562-1.1094 0.48438v-1c0.40625-0.16406 0.78125-0.28516 1.125-0.35938 0.34375-0.082031 0.66016-0.125 0.95312-0.125 0.75781 0 1.3633 0.19531 1.8125 0.57812 0.45703 0.375 0.6875 0.88281 0.6875 1.5156 0 0.29297-0.058594 0.57422-0.17188 0.84375-0.11719 0.27344-0.32422 0.58984-0.625 0.95312-0.074219 0.09375-0.33594 0.37109-0.78125 0.82812-0.4375 0.44922-1.0547 1.0859-1.8438 1.9062z"/>
</symbol>
<symbol id="f" overflow="visible">
<path d="m1.0781-7.3281h3.9062v0.84375h-2.9844v1.7969c0.14453-0.050781 0.28516-0.085938 0.42188-0.10938 0.14453-0.03125 0.28906-0.046875 0.4375-0.046875 0.82031 0 1.4688 0.22656 1.9375 0.67188 0.47656 0.44922 0.71875 1.0586 0.71875 1.8281 0 0.78125-0.24609 1.3906-0.73438 1.8281-0.49219 0.4375-1.1836 0.65625-2.0781 0.65625-0.30469 0-0.61719-0.027344-0.9375-0.078125-0.32422-0.054688-0.65234-0.12891-0.98438-0.23438v-1c0.28906 0.16797 0.59375 0.29297 0.90625 0.375 0.3125 0.074219 0.64453 0.10938 1 0.10938 0.5625 0 1.0078-0.14453 1.3438-0.4375 0.33203-0.30078 0.5-0.70703 0.5-1.2188 0-0.50781-0.16797-0.91406-0.5-1.2188-0.33594-0.30078-0.78125-0.45312-1.3438-0.45312-0.26172 0-0.52734 0.03125-0.79688 0.09375-0.26172 0.0625-0.53125 0.15625-0.8125 0.28125z"/>
</symbol>
<symbol id="a" overflow="visible">
<path d="m3.2031-6.6719c-0.51172 0-0.89844 0.25-1.1562 0.75-0.26172 0.5-0.39062 1.2578-0.39062 2.2656 0 1 0.12891 1.7578 0.39062 2.2656 0.25781 0.5 0.64453 0.75 1.1562 0.75 0.50781 0 0.89062-0.25 1.1406-0.75 0.25781-0.50781 0.39062-1.2656 0.39062-2.2656 0-1.0078-0.13281-1.7656-0.39062-2.2656-0.25-0.5-0.63281-0.75-1.1406-0.75zm0-0.78125c0.82031 0 1.4453 0.32422 1.875 0.96875 0.4375 0.64844 0.65625 1.5898 0.65625 2.8281 0 1.2305-0.21875 2.1719-0.65625 2.8281-0.42969 0.64844-1.0547 0.96875-1.875 0.96875-0.82422 0-1.4531-0.32031-1.8906-0.96875-0.4375-0.65625-0.65625-1.5977-0.65625-2.8281 0-1.2383 0.21875-2.1797 0.65625-2.8281 0.4375-0.64453 1.0664-0.96875 1.8906-0.96875z"/>
</symbol>
<symbol id="j" overflow="visible">
<path d="m3.7969-6.4531-2.5 3.9062h2.5zm-0.25-0.875h1.25v4.7812h1.0469v0.8125h-1.0469v1.7344h-1v-1.7344h-3.3125v-0.95312z"/>
</symbol>
<symbol id="i" overflow="visible">
<path d="m3.2031-3.4844c-0.48047 0-0.85547 0.13281-1.125 0.39062-0.26172 0.25-0.39062 0.59375-0.39062 1.0312 0 0.44922 0.12891 0.79688 0.39062 1.0469 0.26953 0.25 0.64453 0.375 1.125 0.375 0.46875 0 0.83594-0.125 1.1094-0.375 0.26953-0.25781 0.40625-0.60938 0.40625-1.0469s-0.13672-0.78125-0.40625-1.0312c-0.27344-0.25781-0.64062-0.39062-1.1094-0.39062zm-1-0.42188c-0.42969-0.10156-0.76172-0.30078-1-0.59375-0.23047-0.28906-0.34375-0.64453-0.34375-1.0625 0-0.58203 0.20703-1.0391 0.625-1.375 0.41406-0.34375 0.98828-0.51562 1.7188-0.51562 0.72656 0 1.3008 0.17188 1.7188 0.51562 0.41406 0.33594 0.625 0.79297 0.625 1.375 0 0.41797-0.12109 0.77344-0.35938 1.0625-0.24219 0.29297-0.57031 0.49219-0.98438 0.59375 0.46875 0.11719 0.83594 0.33594 1.1094 0.65625 0.26953 0.32422 0.40625 0.71875 0.40625 1.1875 0 0.71094-0.21875 1.2578-0.65625 1.6406-0.4375 0.375-1.0586 0.5625-1.8594 0.5625-0.8125 0-1.4375-0.1875-1.875-0.5625-0.42969-0.38281-0.64062-0.92969-0.64062-1.6406 0-0.46875 0.12891-0.86328 0.39062-1.1875 0.26953-0.32031 0.64453-0.53906 1.125-0.65625zm-0.35938-1.5625c0 0.38672 0.11719 0.68359 0.35938 0.89062 0.23828 0.21094 0.57031 0.3125 1 0.3125 0.42578 0 0.75781-0.10156 1-0.3125 0.23828-0.20703 0.35938-0.50391 0.35938-0.89062 0-0.375-0.12109-0.66406-0.35938-0.875-0.24219-0.21875-0.57422-0.32812-1-0.32812-0.42969 0-0.76172 0.10938-1 0.32812-0.24219 0.21094-0.35938 0.5-0.35938 0.875z"/>
</symbol>
<symbol id="h" overflow="visible">
<path d="m0.98438-7.3281h1v3h3.6094v-3h0.98438v7.3281h-0.98438v-3.4844h-3.6094v3.4844h-1z"/>
</symbol>
<symbol id="q" overflow="visible">
<path d="m0.5625-5.5h4.2812v0.82812l-3.3906 3.9531h3.3906v0.71875h-4.4062v-0.82812l3.3906-3.9375h-3.2656z"/>
</symbol>
<symbol id="b" overflow="visible">
<path d="m4.9062-5.2812v0.84375c-0.25-0.14453-0.50781-0.25-0.76562-0.3125-0.26172-0.070312-0.52344-0.10938-0.78125-0.10938-0.58594 0-1.0391 0.1875-1.3594 0.5625-0.32422 0.36719-0.48438 0.88281-0.48438 1.5469 0 0.67969 0.16016 1.2031 0.48438 1.5781 0.32031 0.36719 0.77344 0.54688 1.3594 0.54688 0.25781 0 0.51953-0.03125 0.78125-0.09375 0.25781-0.070312 0.51562-0.17969 0.76562-0.32812v0.82812c-0.25 0.125-0.51172 0.21484-0.78125 0.26562-0.27344 0.0625-0.55859 0.09375-0.85938 0.09375-0.83594 0-1.4961-0.25781-1.9844-0.78125-0.48047-0.51953-0.71875-1.2227-0.71875-2.1094 0-0.89453 0.24219-1.5977 0.73438-2.1094 0.48828-0.50781 1.1641-0.76562 2.0312-0.76562 0.26953 0 0.53516 0.03125 0.79688 0.09375 0.26953 0.054688 0.53125 0.13672 0.78125 0.25z"/>
</symbol>
<symbol id="u" overflow="visible">
<path d="m3.3281-4.0625c-0.44922 0-0.80469 0.15625-1.0625 0.46875-0.26172 0.30469-0.39062 0.71875-0.39062 1.25 0 0.52344 0.12891 0.9375 0.39062 1.25 0.25781 0.30469 0.61328 0.45312 1.0625 0.45312 0.4375 0 0.78516-0.14844 1.0469-0.45312 0.25781-0.3125 0.39062-0.72656 0.39062-1.25 0-0.53125-0.13281-0.94531-0.39062-1.25-0.26172-0.3125-0.60938-0.46875-1.0469-0.46875zm1.9688-3.0938v0.89062c-0.25-0.11328-0.50781-0.20312-0.76562-0.26562-0.25-0.0625-0.5-0.09375-0.75-0.09375-0.65625 0-1.1562 0.22656-1.5 0.67188-0.34375 0.4375-0.54297 1.1055-0.59375 2 0.19531-0.28906 0.44141-0.50781 0.73438-0.65625 0.28906-0.15625 0.60938-0.23438 0.95312-0.23438 0.73828 0 1.3203 0.22656 1.75 0.67188 0.42578 0.44922 0.64062 1.0586 0.64062 1.8281 0 0.75-0.22656 1.3555-0.67188 1.8125-0.4375 0.44922-1.0273 0.67188-1.7656 0.67188-0.85547 0-1.5078-0.32031-1.9531-0.96875-0.44922-0.65625-0.67188-1.5977-0.67188-2.8281 0-1.1562 0.27344-2.0781 0.82812-2.7656 0.55078-0.6875 1.2891-1.0312 2.2188-1.0312 0.25 0 0.5 0.027344 0.75 0.078125 0.25 0.042969 0.51562 0.11719 0.79688 0.21875z"/>
</symbol>
<symbol id="t" overflow="visible">
<path d="m4.5625-4.6562v-2.9844h0.90625v7.6406h-0.90625v-0.82812c-0.1875 0.33594-0.42969 0.57812-0.71875 0.73438-0.28125 0.15625-0.625 0.23438-1.0312 0.23438-0.66797 0-1.2109-0.26562-1.625-0.79688-0.41797-0.53125-0.625-1.2266-0.625-2.0938 0-0.85156 0.20703-1.5469 0.625-2.0781 0.41406-0.53125 0.95703-0.79688 1.625-0.79688 0.40625 0 0.75 0.078125 1.0312 0.23438 0.28906 0.15625 0.53125 0.40234 0.71875 0.73438zm-3.0781 1.9062c0 0.66797 0.13281 1.1953 0.40625 1.5781 0.28125 0.375 0.66016 0.5625 1.1406 0.5625 0.47656 0 0.85156-0.1875 1.125-0.5625 0.26953-0.38281 0.40625-0.91016 0.40625-1.5781 0-0.65625-0.13672-1.1719-0.40625-1.5469-0.27344-0.38281-0.64844-0.57812-1.125-0.57812-0.48047 0-0.85938 0.19531-1.1406 0.57812-0.27344 0.375-0.40625 0.89062-0.40625 1.5469z"/>
</symbol>
<symbol id="s" overflow="visible">
<path d="m4.9062-2.75c0-0.65625-0.14062-1.1719-0.42188-1.5469-0.27344-0.38281-0.64844-0.57812-1.125-0.57812-0.48047 0-0.85547 0.19531-1.125 0.57812-0.27344 0.375-0.40625 0.89062-0.40625 1.5469 0 0.66797 0.13281 1.1953 0.40625 1.5781 0.26953 0.375 0.64453 0.5625 1.125 0.5625 0.47656 0 0.85156-0.1875 1.125-0.5625 0.28125-0.38281 0.42188-0.91016 0.42188-1.5781zm-3.0781-1.9062c0.1875-0.33203 0.42578-0.57812 0.71875-0.73438 0.28906-0.15625 0.63281-0.23438 1.0312-0.23438 0.66406 0 1.207 0.26562 1.625 0.79688 0.42578 0.53125 0.64062 1.2266 0.64062 2.0781 0 0.86719-0.21484 1.5625-0.64062 2.0938-0.41797 0.53125-0.96094 0.79688-1.625 0.79688-0.39844 0-0.74219-0.078125-1.0312-0.23438-0.29297-0.15625-0.53125-0.39844-0.71875-0.73438v0.82812h-0.92188v-7.6406h0.92188z"/>
</symbol>
<symbol id="r" overflow="visible">
<path d="m2.875 0-2.7969-7.3281h1.0312l2.3281 6.1719 2.3281-6.1719h1.0312l-2.7969 7.3281z"/>
</symbol>
<symbol id="p" overflow="visible">
<path d="m0.625-0.42188h0.8125v-2.7969l-0.89062 0.1875v-0.45312l0.89062-0.1875h0.48438v3.25h0.8125v0.42188h-2.1094z"/>
</symbol>
<symbol id="o" overflow="visible">
<path d="m0.96875-0.42188h1.7344v0.42188h-2.3281v-0.42188l0.76562-0.76562c0.32031-0.33203 0.52344-0.55078 0.60938-0.65625 0.15625-0.17578 0.26562-0.32031 0.32812-0.4375 0.0625-0.125 0.09375-0.25 0.09375-0.375 0-0.19531-0.070313-0.35156-0.20312-0.46875-0.13672-0.125-0.3125-0.1875-0.53125-0.1875-0.15625 0-0.32422 0.027344-0.5 0.078125-0.16797 0.054687-0.35156 0.13672-0.54688 0.25v-0.5c0.19531-0.082031 0.38281-0.14453 0.5625-0.1875 0.17578-0.039063 0.33594-0.0625 0.48438-0.0625 0.375 0 0.67188 0.09375 0.89062 0.28125 0.22656 0.1875 0.34375 0.44531 0.34375 0.76562 0 0.14844-0.027344 0.28906-0.078125 0.42188-0.054688 0.13672-0.15625 0.29688-0.3125 0.48438-0.042969 0.054688-0.17188 0.19531-0.39062 0.42188-0.21875 0.21875-0.52734 0.53125-0.92188 0.9375z"/>
</symbol>
<symbol id="n" overflow="visible">
<path d="m2.0469-1.9844c0.22656 0.054687 0.41016 0.16406 0.54688 0.32812 0.13281 0.15625 0.20312 0.35547 0.20312 0.59375 0 0.36719-0.125 0.64844-0.375 0.84375-0.25 0.19922-0.60547 0.29688-1.0625 0.29688-0.15625 0-0.32031-0.015625-0.48438-0.046875-0.15625-0.03125-0.32031-0.078125-0.48438-0.14062v-0.48438c0.13281 0.085938 0.28125 0.14844 0.4375 0.1875 0.16406 0.042969 0.33594 0.0625 0.51562 0.0625 0.3125 0 0.54688-0.0625 0.70312-0.1875 0.16406-0.125 0.25-0.30078 0.25-0.53125 0-0.21875-0.078125-0.38281-0.23438-0.5-0.14844-0.125-0.35547-0.1875-0.625-0.1875h-0.42188v-0.42188h0.45312c0.23828 0 0.42188-0.046875 0.54688-0.14062 0.13281-0.09375 0.20312-0.23438 0.20312-0.42188s-0.070312-0.32812-0.20312-0.42188c-0.13672-0.10156-0.32812-0.15625-0.57812-0.15625-0.13672 0-0.28125 0.015625-0.4375 0.046875-0.14844 0.023437-0.3125 0.0625-0.5 0.125v-0.4375c0.1875-0.050781 0.35938-0.085937 0.51562-0.10938 0.16406-0.03125 0.32031-0.046875 0.46875-0.046875 0.375 0 0.67188 0.089844 0.89062 0.26562 0.22656 0.16797 0.34375 0.39844 0.34375 0.6875 0 0.19922-0.0625 0.37109-0.1875 0.51562-0.11719 0.13672-0.27734 0.23047-0.48438 0.28125z"/>
</symbol>
<symbol id="m" overflow="visible">
<path d="m1.9062-3.2344-1.25 1.9531h1.25zm-0.14062-0.4375h0.625v2.3906h0.53125v0.42188h-0.53125v0.85938h-0.48438v-0.85938h-1.6562v-0.48438z"/>
</symbol>
<symbol id="l" overflow="visible">
<path d="m0.54688-3.6719h1.9375v0.42188h-1.4844v0.90625c0.070312-0.03125 0.14453-0.050781 0.21875-0.0625 0.070312-0.007812 0.14453-0.015625 0.21875-0.015625 0.40625 0 0.72656 0.11719 0.96875 0.34375 0.23828 0.21875 0.35938 0.52344 0.35938 0.90625 0 0.39844-0.125 0.70312-0.375 0.92188-0.24219 0.21875-0.58594 0.32812-1.0312 0.32812-0.15625 0-0.32031-0.015625-0.48438-0.046875-0.15625-0.023438-0.32031-0.0625-0.48438-0.125v-0.48438c0.14453 0.074219 0.29688 0.13281 0.45312 0.17188 0.15625 0.042969 0.32031 0.0625 0.5 0.0625 0.28125 0 0.50391-0.070312 0.67188-0.21875 0.16406-0.15625 0.25-0.35938 0.25-0.60938 0-0.25781-0.085937-0.46094-0.25-0.60938-0.16797-0.14453-0.39062-0.21875-0.67188-0.21875-0.13672 0-0.27344 0.015625-0.40625 0.046875-0.125 0.023437-0.25781 0.0625-0.39062 0.125z"/>
</symbol>
<symbol id="k" overflow="visible">
<path d="m1.6562-2.0312c-0.21875 0-0.39844 0.078125-0.53125 0.23438-0.125 0.14844-0.1875 0.35547-0.1875 0.625 0 0.26172 0.0625 0.46875 0.1875 0.625 0.13281 0.14844 0.3125 0.21875 0.53125 0.21875 0.22656 0 0.40625-0.070313 0.53125-0.21875 0.13281-0.15625 0.20312-0.36328 0.20312-0.625 0-0.26953-0.070313-0.47656-0.20312-0.625-0.125-0.15625-0.30469-0.23438-0.53125-0.23438zm0.98438-1.5625v0.45312c-0.125-0.050781-0.25-0.09375-0.375-0.125s-0.25-0.046875-0.375-0.046875c-0.32422 0-0.57422 0.10938-0.75 0.32812-0.17969 0.21875-0.27734 0.55469-0.29688 1 0.09375-0.14453 0.21094-0.25391 0.35938-0.32812 0.14453-0.070312 0.30469-0.10938 0.48438-0.10938 0.375 0 0.66406 0.11719 0.875 0.34375 0.21875 0.21875 0.32812 0.52344 0.32812 0.90625 0 0.375-0.11719 0.67969-0.34375 0.90625-0.21875 0.23047-0.51562 0.34375-0.89062 0.34375-0.41797 0-0.74219-0.16016-0.96875-0.48438-0.23047-0.33203-0.34375-0.80469-0.34375-1.4219 0-0.58203 0.13281-1.0469 0.40625-1.3906 0.28125-0.34375 0.65625-0.51562 1.125-0.51562 0.125 0 0.25 0.015625 0.375 0.046875 0.125 0.023438 0.25391 0.054688 0.39062 0.09375z"/>
</symbol>
<symbol id="d" overflow="visible">
<path d="m3.9062-4.9219-3.4688-4.7031h3.25l1.9688 2.8594 2-2.8594h3.25l-3.4688 4.6875 3.6406 4.9375h-3.25l-2.1719-3.0469-2.1406 3.0469h-3.25z"/>
</symbol>
<symbol id="c" overflow="visible">
<path d="m6.5312 2.3125h-5.3438v-1.9219h2.4219v-11.828h-2.4219v-1.9219h5.3438z"/>
</symbol>
</defs>
<path transform="matrix(1.257 0 0 1.2561 -160.92 -70.868)" d="m432.32 252.42h-277.5v-195h277.5v195z" fill="none" stroke="#000" stroke-width="2"/>
<path transform="matrix(1.257 0 0 1.2561 -160.92 -70.868)" d="m211.07 252.42v-183.75" fill="none" stroke="#000" stroke-width=".75"/>
<path transform="matrix(1.257 0 0 1.2561 -160.92 -70.868)" d="m211.07 252.42v-195" fill="none" stroke="#000" stroke-width=".75"/>
<path transform="matrix(1.257 0 0 1.2561 -160.92 -70.868)" d="m252.32 252.42v-195" fill="none" stroke="#000" stroke-width=".75"/>
<path transform="matrix(1.257 0 0 1.2561 -160.92 -70.868)" d="m293.57 252.42v-195" fill="none" stroke="#000" stroke-width=".75"/>
<path transform="matrix(1.257 0 0 1.2561 -160.92 -70.868)" d="m169.82 252.42v-195" fill="none" stroke="#000" stroke-width=".75"/>
<path transform="matrix(1.257 0 0 1.2561 -160.92 -70.868)" d="m334.82 252.42v-195" fill="none" stroke="#000" stroke-width=".75"/>
<path transform="matrix(1.257 0 0 1.2561 -160.92 -70.868)" d="m376.07 252.42v-195" fill="none" stroke="#000" stroke-width=".75"/>
<path transform="matrix(1.257 0 0 1.2561 -160.92 -70.868)" d="m417.32 252.42v-195" fill="none" stroke="#000" stroke-width=".75"/>
<path transform="matrix(1.257 0 0 1.2561 -160.92 -70.868)" d="m154.82 237.42h277.5" fill="none" stroke="#000" stroke-width=".75"/>
<path transform="matrix(1.257 0 0 1.2561 -160.92 -70.868)" d="m432.32 222.42h-277.5" fill="none" stroke="#000" stroke-width=".75"/>
<path transform="matrix(1.257 0 0 1.2561 -160.92 -70.868)" d="m154.82 207.42h277.5" fill="none" stroke="#000" stroke-width=".75"/>
<path transform="matrix(1.257 0 0 1.2561 -160.92 -70.868)" d="m154.82 192.42h277.5" fill="none" stroke="#000" stroke-width=".75"/>
<path transform="matrix(1.257 0 0 1.2561 -160.92 -70.868)" d="m154.82 177.42h277.5" fill="none" stroke="#000" stroke-width=".75"/>
<path transform="matrix(1.257 0 0 1.2561 -160.92 -70.868)" d="m154.82 162.42h277.5" fill="none" stroke="#000" stroke-width=".75"/>
<path transform="matrix(1.257 0 0 1.2561 -160.92 -70.868)" d="m154.82 147.42h277.5" fill="none" stroke="#000" stroke-width=".75"/>
<path transform="matrix(1.257 0 0 1.2561 -160.92 -70.868)" d="m154.82 132.42h277.5" fill="none" stroke="#000" stroke-width=".75"/>
<path transform="matrix(1.257 0 0 1.2561 -160.92 -70.868)" d="m154.82 117.42h277.5" fill="none" stroke="#000" stroke-width=".75"/>
<path transform="matrix(1.257 0 0 1.2561 -160.92 -70.868)" d="m154.82 102.42h277.5" fill="none" stroke="#000" stroke-width=".75"/>
<path transform="matrix(1.257 0 0 1.2561 -160.92 -70.868)" d="m154.82 87.419h277.5" fill="none" stroke="#000" stroke-width=".75"/>
<path transform="matrix(1.257 0 0 1.2561 -160.92 -70.868)" d="m154.82 72.417h277.5" fill="none" stroke="#000" stroke-width=".75"/>
<path transform="matrix(1.257 0 0 1.2561 -160.92 -70.868)" d="m154.82 85.167h277.5" fill="none" stroke="#000" stroke-width=".75"/>
<g>
<use x="42.835938" y="255.929363" xlink:href="#g"/>
<use x="49.120816" y="255.929363" xlink:href="#e"/>
<use x="55.405695" y="255.929363" xlink:href="#f"/>
</g>
<g>
<use x="94.765625" y="255.929363" xlink:href="#e"/>
<use x="101.050504" y="255.929363" xlink:href="#f"/>
<use x="107.335383" y="255.929363" xlink:href="#a"/>
</g>
<g>
<use x="146.597656" y="255.929363" xlink:href="#f"/>
<use x="152.882535" y="255.929363" xlink:href="#a"/>
<use x="159.167414" y="255.929363" xlink:href="#a"/>
</g>
<g>
<use x="195.082031" y="255.929363" xlink:href="#g"/>
<use x="201.36691" y="255.929363" xlink:href="#a"/>
<use x="207.651789" y="255.929363" xlink:href="#a"/>
<use x="213.936668" y="255.929363" xlink:href="#a"/>
</g>
<g>
<use x="247.117188" y="255.929363" xlink:href="#e"/>
<use x="253.402066" y="255.929363" xlink:href="#a"/>
<use x="259.686945" y="255.929363" xlink:href="#a"/>
<use x="265.971824" y="255.929363" xlink:href="#a"/>
</g>
<g>
<use x="299.089844" y="255.929363" xlink:href="#j"/>
<use x="305.374723" y="255.929363" xlink:href="#a"/>
<use x="311.659602" y="255.929363" xlink:href="#a"/>
<use x="317.944481" y="255.929363" xlink:href="#a"/>
</g>
<g>
<use x="350.84375" y="255.929363" xlink:href="#i"/>
<use x="357.128629" y="255.929363" xlink:href="#a"/>
<use x="363.413508" y="255.929363" xlink:href="#a"/>
<use x="369.698387" y="255.929363" xlink:href="#a"/>
</g>
<g>
<use x="389.117188" y="255.929363" xlink:href="#h"/>
<use x="396.659042" y="255.929363" xlink:href="#q"/>
</g>
<g>
<use x="101.148438" y="262.683269" xlink:href="#b"/>
</g>
<g>
<use x="106.167969" y="264.222494" xlink:href="#p"/>
</g>
<g>
<use x="49.441406" y="262.683269" xlink:href="#b"/>
</g>
<g>
<use x="153.417969" y="262.683269" xlink:href="#b"/>
</g>
<g>
<use x="158.433594" y="264.222494" xlink:href="#o"/>
</g>
<g>
<use x="205.28125" y="262.683269" xlink:href="#b"/>
</g>
<g>
<use x="210.300781" y="264.222494" xlink:href="#n"/>
</g>
<g>
<use x="256.910156" y="262.683269" xlink:href="#b"/>
</g>
<g>
<use x="261.925781" y="264.222494" xlink:href="#m"/>
</g>
<g>
<use x="309.273438" y="262.683269" xlink:href="#b"/>
</g>
<g>
<use x="314.289062" y="264.222494" xlink:href="#l"/>
</g>
<g>
<use x="360.765625" y="262.683269" xlink:href="#b"/>
</g>
<g>
<use x="365.78125" y="264.222494" xlink:href="#k"/>
</g>
<g>
<use x="10.140625" y="231.019206" xlink:href="#g"/>
<use x="16.425504" y="231.019206" xlink:href="#a"/>
<use x="22.710383" y="231.019206" xlink:href="#a"/>
</g>
<g>
<use x="16.539063" y="193.335613" xlink:href="#i"/>
<use x="22.823941" y="193.335613" xlink:href="#a"/>
</g>
<g>
<use x="16.539063" y="155.652019" xlink:href="#u"/>
<use x="22.823941" y="155.652019" xlink:href="#a"/>
</g>
<g>
<use x="16.539063" y="117.968425" xlink:href="#j"/>
<use x="22.823941" y="117.968425" xlink:href="#a"/>
</g>
<g>
<use x="16.539063" y="80.280925" xlink:href="#e"/>
<use x="22.823941" y="80.280925" xlink:href="#a"/>
</g>
<g>
<use x="22.9375" y="42.597331" xlink:href="#a"/>
</g>
<g>
<use x="-0.457031" y="23.843425" xlink:href="#t"/>
<use x="5.827848" y="23.843425" xlink:href="#s"/>
<use x="12.112727" y="23.843425" xlink:href="#h"/>
<use x="19.654581" y="23.843425" xlink:href="#r"/>
</g>
<path transform="matrix(1.257 0 0 1.2561 -160.92 -70.868)" d="m211.07 133.11c13.748-7.9951 27.5-15.987 41.248-23.982 13.751 8.1599 27.5 16.317 41.251 24.477 13.748-3.6166 27.5-7.2332 41.251-10.85 14.025 5.781 27.885 12.374 42.012 17.654h40.487" fill="none" stroke="#000" stroke-width="2"/>
<path transform="matrix(1.257 0 0 1.2561 -160.92 -70.868)" d="m211.07 103.1c13.748-3.8498 27.5-7.6997 41.248-11.55 13.997 3.6259 27.991 8.3403 41.988 11.285 13.506-3.7348 27.009-7.4696 40.515-11.201 14 6.2039 28 12.411 42.003 18.615 13.497-2.6028 26.996-5.2088 40.496-7.8116" fill="none" stroke="#000" stroke-width="2"/>
<g fill="#2a7fff">
<use x="98.714844" y="100.38615" xlink:href="#d"/>
</g>
<g fill="#2a7fff">
<use x="150.566406" y="71.616619" xlink:href="#d"/>
</g>
<g fill="#2a7fff">
<use x="202.417969" y="101.577557" xlink:href="#d"/>
</g>
<g fill="#2a7fff">
<use x="254.28125" y="88.382244" xlink:href="#d"/>
</g>
<g fill="#2a7fff">
<use x="306.121094" y="110.491619" xlink:href="#d"/>
</g>
<g fill="#2a7fff">
<use x="357.972656" y="110.515057" xlink:href="#d"/>
</g>
<g fill="#2a7fff">
<use x="102.488281" y="62.702557" xlink:href="#c"/>
</g>
<g fill="#2a7fff">
<use x="154.335938" y="50.890057" xlink:href="#c"/>
</g>
<g fill="#2a7fff">
<use x="206.1875" y="63.893963" xlink:href="#c"/>
</g>
<g fill="#2a7fff">
<use x="258.050781" y="50.69865" xlink:href="#c"/>
</g>
<g fill="#2a7fff">
<use x="309.894531" y="72.808025" xlink:href="#c"/>
</g>
<g fill="#2a7fff">
<use x="361.742188" y="63.409588" xlink:href="#c"/>
</g>
<path transform="matrix(1.257 0 0 1.2561 127.25 267.54)" d="m519.84-16.983h-277.5v-195h277.5z" fill="none" stroke="#000" stroke-width="2"/>
<path transform="matrix(1.257 0 0 1.2561 127.25 267.54)" d="m298.59-16.983v-183.75" fill="none" stroke="#000" stroke-width=".75"/>
<path transform="matrix(1.257 0 0 1.2561 127.25 267.54)" d="m298.59-16.983v-195" fill="none" stroke="#000" stroke-width=".75"/>
<path transform="matrix(1.257 0 0 1.2561 127.25 267.54)" d="m339.84-16.983v-195" fill="none" stroke="#000" stroke-width=".75"/>
<path transform="matrix(1.257 0 0 1.2561 127.25 267.54)" d="m381.09-16.983v-195" fill="none" stroke="#000" stroke-width=".75"/>
<path transform="matrix(1.257 0 0 1.2561 127.25 267.54)" d="m257.34-16.983v-195" fill="none" stroke="#000" stroke-width=".75"/>
<path transform="matrix(1.257 0 0 1.2561 127.25 267.54)" d="m422.34-16.983v-195" fill="none" stroke="#000" stroke-width=".75"/>
<path transform="matrix(1.257 0 0 1.2561 127.25 267.54)" d="m463.59-16.983v-195" fill="none" stroke="#000" stroke-width=".75"/>
<path transform="matrix(1.257 0 0 1.2561 127.25 267.54)" d="m504.84-16.983v-195" fill="none" stroke="#000" stroke-width=".75"/>
<path transform="matrix(1.257 0 0 1.2561 127.25 267.54)" d="m242.34-31.985h277.5" fill="none" stroke="#000" stroke-width=".75"/>
<path transform="matrix(1.257 0 0 1.2561 127.25 267.54)" d="m519.84-46.983h-277.5" fill="none" stroke="#000" stroke-width=".75"/>
<path transform="matrix(1.257 0 0 1.2561 127.25 267.54)" d="m242.34-61.984h277.5" fill="none" stroke="#000" stroke-width=".75"/>
<path transform="matrix(1.257 0 0 1.2561 127.25 267.54)" d="m242.34-76.983h277.5" fill="none" stroke="#000" stroke-width=".75"/>
<path transform="matrix(1.257 0 0 1.2561 127.25 267.54)" d="m242.34-91.984h277.5" fill="none" stroke="#000" stroke-width=".75"/>
<path transform="matrix(1.257 0 0 1.2561 127.25 267.54)" d="m242.34-106.98h277.5" fill="none" stroke="#000" stroke-width=".75"/>
<path transform="matrix(1.257 0 0 1.2561 127.25 267.54)" d="m242.34-121.98h277.5" fill="none" stroke="#000" stroke-width=".75"/>
<path transform="matrix(1.257 0 0 1.2561 127.25 267.54)" d="m242.34-136.98h277.5" fill="none" stroke="#000" stroke-width=".75"/>
<path transform="matrix(1.257 0 0 1.2561 127.25 267.54)" d="m242.34-151.98h277.5" fill="none" stroke="#000" stroke-width=".75"/>
<path transform="matrix(1.257 0 0 1.2561 127.25 267.54)" d="m242.34-166.98h277.5" fill="none" stroke="#000" stroke-width=".75"/>
<path transform="matrix(1.257 0 0 1.2561 127.25 267.54)" d="m242.34-181.98h277.5" fill="none" stroke="#000" stroke-width=".75"/>
<path transform="matrix(1.257 0 0 1.2561 127.25 267.54)" d="m242.34-196.98h277.5" fill="none" stroke="#000" stroke-width=".75"/>
<path transform="matrix(1.257 0 0 1.2561 127.25 267.54)" d="m242.34-184.23h277.5" fill="none" stroke="#000" stroke-width=".75"/>
<g>
<use x="441.113281" y="256.023113" xlink:href="#g"/>
<use x="447.39816" y="256.023113" xlink:href="#e"/>
<use x="453.683039" y="256.023113" xlink:href="#f"/>
</g>
<g>
<use x="493.042969" y="256.023113" xlink:href="#e"/>
<use x="499.327848" y="256.023113" xlink:href="#f"/>
<use x="505.612727" y="256.023113" xlink:href="#a"/>
</g>
<g>
<use x="544.871094" y="256.023113" xlink:href="#f"/>
<use x="551.155973" y="256.023113" xlink:href="#a"/>
<use x="557.440852" y="256.023113" xlink:href="#a"/>
</g>
<g>
<use x="593.359375" y="256.023113" xlink:href="#g"/>
<use x="599.644254" y="256.023113" xlink:href="#a"/>
<use x="605.929133" y="256.023113" xlink:href="#a"/>
<use x="612.214012" y="256.023113" xlink:href="#a"/>
</g>
<g>
<use x="645.394531" y="256.023113" xlink:href="#e"/>
<use x="651.67941" y="256.023113" xlink:href="#a"/>
<use x="657.964289" y="256.023113" xlink:href="#a"/>
<use x="664.249168" y="256.023113" xlink:href="#a"/>
</g>
<g>
<use x="697.367188" y="256.023113" xlink:href="#j"/>
<use x="703.652066" y="256.023113" xlink:href="#a"/>
<use x="709.936945" y="256.023113" xlink:href="#a"/>
<use x="716.221824" y="256.023113" xlink:href="#a"/>
</g>
<g>
<use x="749.121094" y="256.023113" xlink:href="#i"/>
<use x="755.405973" y="256.023113" xlink:href="#a"/>
<use x="761.690852" y="256.023113" xlink:href="#a"/>
<use x="767.975731" y="256.023113" xlink:href="#a"/>
</g>
<g>
<use x="787.394531" y="256.023113" xlink:href="#h"/>
<use x="794.936386" y="256.023113" xlink:href="#q"/>
</g>
<g>
<use x="499.425781" y="262.777019" xlink:href="#b"/>
</g>
<g>
<use x="504.441406" y="264.316244" xlink:href="#p"/>
</g>
<g>
<use x="447.71875" y="262.777019" xlink:href="#b"/>
</g>
<g>
<use x="551.695312" y="262.777019" xlink:href="#b"/>
</g>
<g>
<use x="556.710938" y="264.316244" xlink:href="#o"/>
</g>
<g>
<use x="603.558594" y="262.777019" xlink:href="#b"/>
</g>
<g>
<use x="608.574219" y="264.316244" xlink:href="#n"/>
</g>
<g>
<use x="655.1875" y="262.777019" xlink:href="#b"/>
</g>
<g>
<use x="660.203125" y="264.316244" xlink:href="#m"/>
</g>
<g>
<use x="707.546875" y="262.777019" xlink:href="#b"/>
</g>
<g>
<use x="712.566406" y="264.316244" xlink:href="#l"/>
</g>
<g>
<use x="759.042969" y="262.777019" xlink:href="#b"/>
</g>
<g>
<use x="764.058594" y="264.316244" xlink:href="#k"/>
</g>
<g>
<use x="407.644531" y="231.112956" xlink:href="#g"/>
<use x="413.92941" y="231.112956" xlink:href="#a"/>
<use x="420.214289" y="231.112956" xlink:href="#a"/>
</g>
<g>
<use x="414.039062" y="193.429363" xlink:href="#i"/>
<use x="420.323941" y="193.429363" xlink:href="#a"/>
</g>
<g>
<use x="414.039062" y="155.745769" xlink:href="#u"/>
<use x="420.323941" y="155.745769" xlink:href="#a"/>
</g>
<g>
<use x="414.039062" y="118.062175" xlink:href="#j"/>
<use x="420.323941" y="118.062175" xlink:href="#a"/>
</g>
<g>
<use x="414.039062" y="80.378581" xlink:href="#e"/>
<use x="420.323941" y="80.378581" xlink:href="#a"/>
</g>
<g>
<use x="420.4375" y="42.694988" xlink:href="#a"/>
</g>
<g>
<use x="397.042969" y="23.843425" xlink:href="#t"/>
<use x="403.327848" y="23.843425" xlink:href="#s"/>
<use x="409.612727" y="23.843425" xlink:href="#h"/>
<use x="417.154581" y="23.843425" xlink:href="#r"/>
</g>
<path transform="matrix(1.257 0 0 1.2561 127.25 267.54)" d="m298.59-151.98 41.251 14.998 41.248 8.0138 41.251 2.1177 41.251 4.8698 41.248 8.5642" fill="none" stroke="#000" stroke-width="2"/>
<g fill="#2a7fff">
<use x="496.910156" y="81.550213" xlink:href="#d"/>
<use x="508.222938" y="81.550213" xlink:href="#c"/>
</g>
<g fill="#2a7fff">
<use x="548.730469" y="100.343182" xlink:href="#d"/>
<use x="560.043251" y="100.343182" xlink:href="#c"/>
</g>
<g fill="#2a7fff">
<use x="600.621094" y="110.268963" xlink:href="#d"/>
<use x="611.933876" y="110.268963" xlink:href="#c"/>
</g>
<g fill="#2a7fff">
<use x="652.46875" y="113.046307" xlink:href="#d"/>
<use x="663.781532" y="113.046307" xlink:href="#c"/>
</g>
<g fill="#2a7fff">
<use x="704.296875" y="119.413494" xlink:href="#d"/>
<use x="715.609657" y="119.413494" xlink:href="#c"/>
</g>
<g fill="#2a7fff">
<use x="756.164062" y="129.725994" xlink:href="#d"/>
<use x="767.476845" y="129.725994" xlink:href="#c"/>
</g>
<path transform="matrix(1.257 0 0 1.2561 215.76 -69.77)" d="m132.66 468.54h-277.5v-195h277.5z" fill="none" stroke="#000" stroke-width="2"/>
<path transform="matrix(1.257 0 0 1.2561 215.76 -69.77)" d="m-88.591 468.54v-183.75" fill="none" stroke="#000" stroke-width=".75"/>
<path transform="matrix(1.257 0 0 1.2561 215.76 -69.77)" d="m-88.591 468.54v-195" fill="none" stroke="#000" stroke-width=".75"/>
<path transform="matrix(1.257 0 0 1.2561 215.76 -69.77)" d="m-47.343 468.54v-195" fill="none" stroke="#000" stroke-width=".75"/>
<path transform="matrix(1.257 0 0 1.2561 215.76 -69.77)" d="m-6.092 468.54v-195" fill="none" stroke="#000" stroke-width=".75"/>
<path transform="matrix(1.257 0 0 1.2561 215.76 -69.77)" d="m-129.84 468.54v-195" fill="none" stroke="#000" stroke-width=".75"/>
<path transform="matrix(1.257 0 0 1.2561 215.76 -69.77)" d="m35.159 468.54v-195" fill="none" stroke="#000" stroke-width=".75"/>
<path transform="matrix(1.257 0 0 1.2561 215.76 -69.77)" d="m76.407 468.54v-195" fill="none" stroke="#000" stroke-width=".75"/>
<path transform="matrix(1.257 0 0 1.2561 215.76 -69.77)" d="m117.66 468.54v-195" fill="none" stroke="#000" stroke-width=".75"/>
<path transform="matrix(1.257 0 0 1.2561 215.76 -69.77)" d="m-144.84 453.54h277.5" fill="none" stroke="#000" stroke-width=".75"/>
<path transform="matrix(1.257 0 0 1.2561 215.76 -69.77)" d="m132.66 438.54h-277.5" fill="none" stroke="#000" stroke-width=".75"/>
<path transform="matrix(1.257 0 0 1.2561 215.76 -69.77)" d="m-144.84 423.54h277.5" fill="none" stroke="#000" stroke-width=".75"/>
<path transform="matrix(1.257 0 0 1.2561 215.76 -69.77)" d="m-144.84 408.54h277.5" fill="none" stroke="#000" stroke-width=".75"/>
<path transform="matrix(1.257 0 0 1.2561 215.76 -69.77)" d="m-144.84 393.54h277.5" fill="none" stroke="#000" stroke-width=".75"/>
<path transform="matrix(1.257 0 0 1.2561 215.76 -69.77)" d="m-144.84 378.54h277.5" fill="none" stroke="#000" stroke-width=".75"/>
<path transform="matrix(1.257 0 0 1.2561 215.76 -69.77)" d="m-144.84 363.54h277.5" fill="none" stroke="#000" stroke-width=".75"/>
<path transform="matrix(1.257 0 0 1.2561 215.76 -69.77)" d="m-144.84 348.54h277.5" fill="none" stroke="#000" stroke-width=".75"/>
<path transform="matrix(1.257 0 0 1.2561 215.76 -69.77)" d="m-144.84 333.54h277.5" fill="none" stroke="#000" stroke-width=".75"/>
<path transform="matrix(1.257 0 0 1.2561 215.76 -69.77)" d="m-144.84 318.54h277.5" fill="none" stroke="#000" stroke-width=".75"/>
<path transform="matrix(1.257 0 0 1.2561 215.76 -69.77)" d="m-144.84 303.54h277.5" fill="none" stroke="#000" stroke-width=".75"/>
<path transform="matrix(1.257 0 0 1.2561 215.76 -69.77)" d="m-144.84 288.54h277.5" fill="none" stroke="#000" stroke-width=".75"/>
<path transform="matrix(1.257 0 0 1.2561 215.76 -69.77)" d="m-144.84 301.29h277.5" fill="none" stroke="#000" stroke-width=".75"/>
<g>
<use x="43.210938" y="528.636394" xlink:href="#g"/>
<use x="49.495816" y="528.636394" xlink:href="#e"/>
<use x="55.780695" y="528.636394" xlink:href="#f"/>
</g>
<g>
<use x="95.136719" y="528.636394" xlink:href="#e"/>
<use x="101.421598" y="528.636394" xlink:href="#f"/>
<use x="107.706477" y="528.636394" xlink:href="#a"/>
</g>
<g>
<use x="146.96875" y="528.636394" xlink:href="#f"/>
<use x="153.253629" y="528.636394" xlink:href="#a"/>
<use x="159.538508" y="528.636394" xlink:href="#a"/>
</g>
<g>
<use x="195.457031" y="528.636394" xlink:href="#g"/>
<use x="201.74191" y="528.636394" xlink:href="#a"/>
<use x="208.026789" y="528.636394" xlink:href="#a"/>
<use x="214.311668" y="528.636394" xlink:href="#a"/>
</g>
<g>
<use x="247.488281" y="528.636394" xlink:href="#e"/>
<use x="253.77316" y="528.636394" xlink:href="#a"/>
<use x="260.058039" y="528.636394" xlink:href="#a"/>
<use x="266.342918" y="528.636394" xlink:href="#a"/>
</g>
<g>
<use x="299.464844" y="528.636394" xlink:href="#j"/>
<use x="305.749723" y="528.636394" xlink:href="#a"/>
<use x="312.034602" y="528.636394" xlink:href="#a"/>
<use x="318.319481" y="528.636394" xlink:href="#a"/>
</g>
<g>
<use x="351.21875" y="528.636394" xlink:href="#i"/>
<use x="357.503629" y="528.636394" xlink:href="#a"/>
<use x="363.788508" y="528.636394" xlink:href="#a"/>
<use x="370.073387" y="528.636394" xlink:href="#a"/>
</g>
<g>
<use x="389.488281" y="528.636394" xlink:href="#h"/>
<use x="397.030136" y="528.636394" xlink:href="#q"/>
</g>
<g>
<use x="101.523438" y="535.3903" xlink:href="#b"/>
</g>
<g>
<use x="106.539063" y="536.929525" xlink:href="#p"/>
</g>
<g>
<use x="49.816406" y="535.3903" xlink:href="#b"/>
</g>
<g>
<use x="153.792969" y="535.3903" xlink:href="#b"/>
</g>
<g>
<use x="158.808594" y="536.929525" xlink:href="#o"/>
</g>
<g>
<use x="205.65625" y="535.3903" xlink:href="#b"/>
</g>
<g>
<use x="210.671875" y="536.929525" xlink:href="#n"/>
</g>
<g>
<use x="257.28125" y="535.3903" xlink:href="#b"/>
</g>
<g>
<use x="262.300781" y="536.929525" xlink:href="#m"/>
</g>
<g>
<use x="309.644531" y="535.3903" xlink:href="#b"/>
</g>
<g>
<use x="314.660156" y="536.929525" xlink:href="#l"/>
</g>
<g>
<use x="361.136719" y="535.3903" xlink:href="#b"/>
</g>
<g>
<use x="366.15625" y="536.929525" xlink:href="#k"/>
</g>
<g>
<use x="10.511719" y="503.726238" xlink:href="#g"/>
<use x="16.796598" y="503.726238" xlink:href="#a"/>
<use x="23.081477" y="503.726238" xlink:href="#a"/>
</g>
<g>
<use x="16.910156" y="466.042644" xlink:href="#i"/>
<use x="23.195035" y="466.042644" xlink:href="#a"/>
</g>
<g>
<use x="16.910156" y="428.35905" xlink:href="#u"/>
<use x="23.195035" y="428.35905" xlink:href="#a"/>
</g>
<g>
<use x="16.910156" y="390.675456" xlink:href="#j"/>
<use x="23.195035" y="390.675456" xlink:href="#a"/>
</g>
<g>
<use x="16.910156" y="352.991863" xlink:href="#e"/>
<use x="23.195035" y="352.991863" xlink:href="#a"/>
</g>
<g>
<use x="23.308594" y="315.304363" xlink:href="#a"/>
</g>
<g>
<use x="-0.0859375" y="296.550456" xlink:href="#t"/>
<use x="6.198941" y="296.550456" xlink:href="#s"/>
<use x="12.48382" y="296.550456" xlink:href="#h"/>
<use x="20.025675" y="296.550456" xlink:href="#r"/>
</g>
<path transform="matrix(1.257 0 0 1.2561 215.76 -69.77)" d="m-88.591 326.04 41.248 0.43536 41.251 0.24878 41.251-8.9343 41.248 135.75 41.251-30" fill="none" stroke="#000" stroke-width="2"/>
<g fill="#2a7fff">
<use x="98.746094" y="344.831463" xlink:href="#d"/>
<use x="110.058876" y="344.831463" xlink:href="#c"/>
</g>
<g fill="#2a7fff">
<use x="150.574219" y="345.32365" xlink:href="#d"/>
<use x="161.887001" y="345.32365" xlink:href="#c"/>
</g>
<g fill="#2a7fff">
<use x="202.433594" y="345.585369" xlink:href="#d"/>
<use x="213.746376" y="345.585369" xlink:href="#c"/>
</g>
<g fill="#2a7fff">
<use x="254.28125" y="335.315838" xlink:href="#d"/>
<use x="265.594032" y="335.315838" xlink:href="#c"/>
</g>
<g fill="#2a7fff">
<use x="306.140625" y="504.893963" xlink:href="#d"/>
<use x="317.453407" y="504.893963" xlink:href="#c"/>
</g>
<g fill="#2a7fff">
<use x="357.984375" y="467.159588" xlink:href="#d"/>
<use x="369.297157" y="467.159588" xlink:href="#c"/>
</g>
<path transform="matrix(1.257 0 0 1.2561 403.59 325.65)" d="m300 153.75h-277.5v-195h277.5z" fill="none" stroke="#000" stroke-width="2"/>
<path transform="matrix(1.257 0 0 1.2561 403.59 325.65)" d="m78.75 153.75v-183.75" fill="none" stroke="#000" stroke-width=".75"/>
<path transform="matrix(1.257 0 0 1.2561 403.59 325.65)" d="m78.75 153.75v-195" fill="none" stroke="#000" stroke-width=".75"/>
<path transform="matrix(1.257 0 0 1.2561 403.59 325.65)" d="m120 153.75v-195" fill="none" stroke="#000" stroke-width=".75"/>
<path transform="matrix(1.257 0 0 1.2561 403.59 325.65)" d="m161.25 153.75v-195" fill="none" stroke="#000" stroke-width=".75"/>
<path transform="matrix(1.257 0 0 1.2561 403.59 325.65)" d="m37.499 153.75v-195" fill="none" stroke="#000" stroke-width=".75"/>
<path transform="matrix(1.257 0 0 1.2561 403.59 325.65)" d="m202.5 153.75v-195" fill="none" stroke="#000" stroke-width=".75"/>
<path transform="matrix(1.257 0 0 1.2561 403.59 325.65)" d="m243.75 153.75v-195" fill="none" stroke="#000" stroke-width=".75"/>
<path transform="matrix(1.257 0 0 1.2561 403.59 325.65)" d="m285 153.75v-195" fill="none" stroke="#000" stroke-width=".75"/>
<path transform="matrix(1.257 0 0 1.2561 403.59 325.65)" d="m22.499 138.75h277.5" fill="none" stroke="#000" stroke-width=".75"/>
<path transform="matrix(1.257 0 0 1.2561 403.59 325.65)" d="m300 123.75h-277.5" fill="none" stroke="#000" stroke-width=".75"/>
<path transform="matrix(1.257 0 0 1.2561 403.59 325.65)" d="m22.499 108.75h277.5" fill="none" stroke="#000" stroke-width=".75"/>
<path transform="matrix(1.257 0 0 1.2561 403.59 325.65)" d="m22.499 93.749h277.5" fill="none" stroke="#000" stroke-width=".75"/>
<path transform="matrix(1.257 0 0 1.2561 403.59 325.65)" d="m22.499 78.75h277.5" fill="none" stroke="#000" stroke-width=".75"/>
<path transform="matrix(1.257 0 0 1.2561 403.59 325.65)" d="m22.499 63.749h277.5" fill="none" stroke="#000" stroke-width=".75"/>
<path transform="matrix(1.257 0 0 1.2561 403.59 325.65)" d="m22.499 48.751h277.5" fill="none" stroke="#000" stroke-width=".75"/>
<path transform="matrix(1.257 0 0 1.2561 403.59 325.65)" d="m22.499 33.749h277.5" fill="none" stroke="#000" stroke-width=".75"/>
<path transform="matrix(1.257 0 0 1.2561 403.59 325.65)" d="m22.499 18.751h277.5" fill="none" stroke="#000" stroke-width=".75"/>
<path transform="matrix(1.257 0 0 1.2561 403.59 325.65)" d="m22.499 3.7498h277.5" fill="none" stroke="#000" stroke-width=".75"/>
<path transform="matrix(1.257 0 0 1.2561 403.59 325.65)" d="m22.499-11.252h277.5" fill="none" stroke="#000" stroke-width=".75"/>
<path transform="matrix(1.257 0 0 1.2561 403.59 325.65)" d="m22.499-26.25h277.5" fill="none" stroke="#000" stroke-width=".75"/>
<path transform="matrix(1.257 0 0 1.2561 403.59 325.65)" d="m22.499-13.5h277.5" fill="none" stroke="#000" stroke-width=".75"/>
<g>
<use x="441.214844" y="528.499675" xlink:href="#g"/>
<use x="447.499723" y="528.499675" xlink:href="#e"/>
<use x="453.784602" y="528.499675" xlink:href="#f"/>
</g>
<g>
<use x="493.144531" y="528.499675" xlink:href="#e"/>
<use x="499.42941" y="528.499675" xlink:href="#f"/>
<use x="505.714289" y="528.499675" xlink:href="#a"/>
</g>
<g>
<use x="544.976562" y="528.499675" xlink:href="#f"/>
<use x="551.261441" y="528.499675" xlink:href="#a"/>
<use x="557.54632" y="528.499675" xlink:href="#a"/>
</g>
<g>
<use x="593.460938" y="528.499675" xlink:href="#g"/>
<use x="599.745816" y="528.499675" xlink:href="#a"/>
<use x="606.030695" y="528.499675" xlink:href="#a"/>
<use x="612.315574" y="528.499675" xlink:href="#a"/>
</g>
<g>
<use x="645.496094" y="528.499675" xlink:href="#e"/>
<use x="651.780973" y="528.499675" xlink:href="#a"/>
<use x="658.065852" y="528.499675" xlink:href="#a"/>
<use x="664.350731" y="528.499675" xlink:href="#a"/>
</g>
<g>
<use x="697.46875" y="528.499675" xlink:href="#j"/>
<use x="703.753629" y="528.499675" xlink:href="#a"/>
<use x="710.038508" y="528.499675" xlink:href="#a"/>
<use x="716.323387" y="528.499675" xlink:href="#a"/>
</g>
<g>
<use x="749.222656" y="528.499675" xlink:href="#i"/>
<use x="755.507535" y="528.499675" xlink:href="#a"/>
<use x="761.792414" y="528.499675" xlink:href="#a"/>
<use x="768.077293" y="528.499675" xlink:href="#a"/>
</g>
<g>
<use x="787.496094" y="528.499675" xlink:href="#h"/>
<use x="795.037948" y="528.499675" xlink:href="#q"/>
</g>
<g>
<use x="499.527344" y="535.253581" xlink:href="#b"/>
</g>
<g>
<use x="504.546875" y="536.792806" xlink:href="#p"/>
</g>
<g>
<use x="447.820312" y="535.253581" xlink:href="#b"/>
</g>
<g>
<use x="551.796875" y="535.253581" xlink:href="#b"/>
</g>
<g>
<use x="556.8125" y="536.792806" xlink:href="#o"/>
</g>
<g>
<use x="603.660156" y="535.253581" xlink:href="#b"/>
</g>
<g>
<use x="608.679688" y="536.792806" xlink:href="#n"/>
</g>
<g>
<use x="655.289063" y="535.253581" xlink:href="#b"/>
</g>
<g>
<use x="660.304688" y="536.792806" xlink:href="#m"/>
</g>
<g>
<use x="707.652344" y="535.253581" xlink:href="#b"/>
</g>
<g>
<use x="712.667969" y="536.792806" xlink:href="#l"/>
</g>
<g>
<use x="759.144531" y="535.253581" xlink:href="#b"/>
</g>
<g>
<use x="764.160156" y="536.792806" xlink:href="#k"/>
</g>
<g>
<use x="408.519531" y="503.589519" xlink:href="#g"/>
<use x="414.80441" y="503.589519" xlink:href="#a"/>
<use x="421.089289" y="503.589519" xlink:href="#a"/>
</g>
<g>
<use x="414.917969" y="465.905925" xlink:href="#i"/>
<use x="421.202848" y="465.905925" xlink:href="#a"/>
</g>
<g>
<use x="414.917969" y="428.222331" xlink:href="#u"/>
<use x="421.202848" y="428.222331" xlink:href="#a"/>
</g>
<g>
<use x="414.917969" y="390.538738" xlink:href="#j"/>
<use x="421.202848" y="390.538738" xlink:href="#a"/>
</g>
<g>
<use x="414.917969" y="352.855144" xlink:href="#e"/>
<use x="421.202848" y="352.855144" xlink:href="#a"/>
</g>
<g>
<use x="421.316406" y="315.17155" xlink:href="#a"/>
</g>
<g>
<use x="397.921875" y="296.417644" xlink:href="#t"/>
<use x="404.206754" y="296.417644" xlink:href="#s"/>
<use x="410.491633" y="296.417644" xlink:href="#h"/>
<use x="418.033488" y="296.417644" xlink:href="#r"/>
</g>
<path transform="matrix(1.257 0 0 1.2561 403.59 325.65)" d="m78.75 3.7498h41.251l41.248 8.5082 41.251 6.4931 41.251 30 41.248 44.998" fill="none" stroke="#000" stroke-width="2"/>
<g fill="#2a7fff">
<use x="496.914063" y="335.308025" xlink:href="#d"/>
<use x="508.226845" y="335.308025" xlink:href="#c"/>
</g>
<g fill="#2a7fff">
<use x="548.796875" y="335.311932" xlink:href="#d"/>
<use x="560.109657" y="335.311932" xlink:href="#c"/>
</g>
<g fill="#2a7fff">
<use x="600.617188" y="345.702557" xlink:href="#d"/>
<use x="611.92997" y="345.702557" xlink:href="#c"/>
</g>
<g fill="#2a7fff">
<use x="652.449219" y="354.140057" xlink:href="#d"/>
<use x="663.762001" y="354.140057" xlink:href="#c"/>
</g>
<g fill="#2a7fff">
<use x="704.320312" y="391.800213" xlink:href="#d"/>
<use x="715.633095" y="391.800213" xlink:href="#c"/>
</g>
<g fill="#2a7fff">
<use x="756.171875" y="448.327557" xlink:href="#d"/>
<use x="767.484657" y="448.327557" xlink:href="#c"/>
</g>
</svg>
