<?xml version="1.0" encoding="UTF-8"?>
<svg width="900px" height="245px" version="1.1" viewBox="0 0 900 245" xmlns="http://www.w3.org/2000/svg" xmlns:xlink="http://www.w3.org/1999/xlink">
<defs>
<symbol id="a" overflow="visible">
<path d="m25.016-6.2188h-13.766l-2.1719 6.2188h-8.8438l12.641-34.156h10.5l12.641 34.156h-8.8594zm-11.578-6.3438h9.3594l-4.6719-13.578z"/>
</symbol>
</defs>
<path transform="matrix(1.9512 0 0 1.9521 15.132 -274.2)" d="m63.409 195.46-20.324 58.418c18.67 7.4699 41.074 7.4699 59.747 0l-20.332-58.418c-6.3262 0.72038-12.765 0.72038-19.091 0z" fill="#fff" stroke="#000" stroke-linejoin="round" stroke-width="2.8226"/>
<path transform="matrix(1.9512 0 0 1.9521 15.132 -274.2)" d="m87.891 183.68c0 8.2503-6.6886 14.938-14.937 14.938-8.2501 0-14.937-6.6875-14.937-14.938 0-8.2483 6.6866-14.936 14.937-14.936 8.2481 0 14.937 6.6875 14.937 14.936z" fill="#fff" stroke="#000" stroke-width="2.8226"/>
<path d="m150.83 80c0 4.0273-3.2617 7.2891-7.2852 7.2891-4.0273 0-7.2891-3.2617-7.2891-7.2891 0-4.0234 3.2617-7.2891 7.2891-7.2891 4.0234 0 7.2852 3.2656 7.2852 7.2891z"/>
<path transform="matrix(1.9512 0 0 1.9521 28.002 -274.2)" d="m228.94 195.46-20.324 58.418c18.672 7.4699 41.076 7.4699 59.747 0l-20.33-58.418c-6.3282 0.72038-12.767 0.72038-19.093 0z" fill="#fff" stroke="#000" stroke-linejoin="round" stroke-width="2.8226"/>
<path transform="matrix(1.9512 0 0 1.9521 28.002 -274.2)" d="m253.42 183.68c0 8.2503-6.6866 14.938-14.937 14.938-8.2481 0-14.937-6.6875-14.937-14.938 0-8.2483 6.6886-14.936 14.937-14.936 8.2501 0 14.937 6.6875 14.937 14.936z" fill="#fff" stroke="#000" stroke-width="2.8226"/>
<path transform="matrix(1.9512 0 0 1.9521 28.002 -274.2)" d="m247.74 181.45c0 2.1871-0.74073 3.9581-1.6516 3.9581-0.91089 0-1.6516-1.7709-1.6516-3.9581 0-2.1851 0.74073-3.9581 1.6516-3.9581 0.91089 0 1.6516 1.7729 1.6516 3.9581z" fill="#fff" stroke="#000" stroke-width="1.4173"/>
<path transform="matrix(1.9512 0 0 1.9521 0 .14748)" d="m42.434 18.916h9.7496v45.001h-9.7496z" stroke="#000" stroke-width="1.4173"/>
<path transform="matrix(1.9512 0 0 1.9521 0 .14748)" d="m5.0009 41.418h29.004" fill="none" stroke="#000" stroke-width="2.8346"/>
<path transform="matrix(2.2124 0 0 2.2134 66.351 80.999)" d="m5.7704 6.725e-4 -8.6498 4.9997v-10.001z" fill-rule="evenodd" stroke="#000" stroke-width="1.25"/>
<path transform="matrix(1.9512 0 0 1.9521 0 .14748)" d="m218.84 18.916h9.7496v45.001h-9.7496z" stroke="#000" stroke-width="1.4173"/>
<path transform="matrix(1.9512 0 0 1.9521 0 .14748)" d="m140.73 41.418h29.004" fill="none" stroke="#000" stroke-width="2.8346"/>
<path transform="matrix(2.2124 0 0 2.2134 331.19 80.999)" d="m5.7704 6.725e-4 -8.6498 4.9997v-10.001z" fill-rule="evenodd" stroke="#000" stroke-width="1.25"/>
<path transform="matrix(1.9512 0 0 1.9521 0 .14748)" d="m277.34 41.418h7.4994v-35.709h-90v20.709" fill="none" stroke="#000" stroke-width="1.4173"/>
<path transform="matrix(-1.1062 0 0 -1.1067 541.15 80.999)" d="m5.77-0.001345-8.6516 5.0015v-9.9994z" fill-rule="evenodd" stroke="#000" stroke-width="1.25"/>
<path transform="matrix(1.9512 0 0 1.9521 0 .14748)" d="m179.21 26.418h30.001v30h-30.001z" fill="#fff" stroke="#000" stroke-width="2.8346"/>
<g>
<use x="360.820313" y="98.077586" xlink:href="#a"/>
</g>
<path transform="matrix(1.9512 0 0 1.9521 15.132 -274.2)" d="m407.66 195.46-20.322 58.418c18.67 7.4699 41.074 7.4699 59.745 0l-20.33-58.418c-6.3262 0.72038-12.765 0.72038-19.093 0z" fill="#fff" stroke="#000" stroke-linejoin="round" stroke-width="2.8226"/>
<path transform="matrix(1.9512 0 0 1.9521 15.132 -274.2)" d="m432.15 183.68c0 8.2503-6.6886 14.938-14.937 14.938-8.2501 0-14.937-6.6875-14.937-14.938 0-8.2483 6.6866-14.936 14.937-14.936 8.2481 0 14.937 6.6875 14.937 14.936z" fill="#fff" stroke="#000" stroke-width="2.8226"/>
<path transform="matrix(1.9512 0 0 1.9521 0 .14748)" d="m388.84 18.916h9.7496v45.001h-9.7496z" stroke="#000" stroke-width="1.4173"/>
<path transform="matrix(1.9512 0 0 1.9521 0 .14748)" d="m310.73 41.418h29.004" fill="none" stroke="#000" stroke-width="2.8346"/>
<path transform="matrix(2.2124 0 0 2.2134 662.9 80.999)" d="m5.77 6.725e-4 -8.6498 4.9997v-10.001z" fill-rule="evenodd" stroke="#000" stroke-width="1.25"/>
<path transform="matrix(1.9512 0 0 1.9521 0 .14748)" d="m379.01 95.708-14.164 0.084044v-69.374" fill="none" stroke="#000" stroke-width="1.4175"/>
<path transform="matrix(1.1063 -.0064782 .0064753 1.1068 739.52 186.98)" d="m5.771 0.0015743-8.6516 4.9997 0.002047-10.002z" fill-rule="evenodd" stroke="#000" stroke-width="1.25"/>
<path transform="matrix(1.9512 0 0 1.9521 0 .14748)" d="m349.21 26.418h30.001v30h-30.001z" fill="#fff" stroke="#000" stroke-width="2.8346"/>
<g>
<use x="692.527344" y="98.077586" xlink:href="#a"/>
</g>
<path transform="matrix(1.9512 0 0 1.9521 0 .14748)" d="m420.25 73.209-28.478 22.5" fill="none" stroke="#000" stroke-width="2.8346"/>
<path d="m779.07 186.98c0 4.043-6.5547 7.3203-14.637 7.3203s-14.633-3.2773-14.633-7.3203 6.5508-7.3203 14.633-7.3203 14.637 3.2773 14.637 7.3203z"/>
</svg>
