<?xml version="1.0" encoding="UTF-8"?>
<svg width="800px" height="564px" version="1.1" viewBox="0 0 800 564" xmlns="http://www.w3.org/2000/svg" xmlns:xlink="http://www.w3.org/1999/xlink">
<defs>
<symbol id="an" overflow="visible">
<path d="m-17.125-2.3125v-2.3125h15.172v-8.3438h1.9531v10.656z"/>
</symbol>
<symbol id="j" overflow="visible">
<path d="m-6.4531-8.0625c0 1.7109 0.19531 2.8984 0.57812 3.5625 0.38672 0.65625 1.0547 0.98438 2 0.98438 0.75 0 1.3438-0.24219 1.7812-0.73438 0.4375-0.5 0.65625-1.1758 0.65625-2.0312 0-1.1641-0.41016-2.1016-1.2344-2.8125-0.83203-0.70703-1.9375-1.0625-3.3125-1.0625h-0.46875zm-0.875-4.2031h7.3281v2.1094h-1.9531c0.78125 0.48047 1.3594 1.0781 1.7344 1.7969 0.36328 0.71875 0.54688 1.6016 0.54688 2.6406 0 1.3242-0.36328 2.375-1.0938 3.1562-0.73828 0.77344-1.7266 1.1562-2.9688 1.1562-1.4453 0-2.5352-0.48438-3.2656-1.4531-0.73828-0.96875-1.1094-2.4102-1.1094-4.3281v-2.9688h-0.20312c-0.97656 0-1.7344 0.32422-2.2656 0.96875-0.53125 0.63672-0.79688 1.5312-0.79688 2.6875 0 0.73047 0.089844 1.4453 0.26562 2.1406 0.17969 0.69922 0.44531 1.3672 0.79688 2h-1.9531c-0.30078-0.76953-0.52344-1.5156-0.67188-2.2344-0.14453-0.72656-0.21875-1.4375-0.21875-2.125 0-1.8633 0.48438-3.2539 1.4531-4.1719 0.96094-0.91406 2.418-1.375 4.375-1.375z"/>
</symbol>
<symbol id="q" overflow="visible">
<path d="m-5.0781-2h-7.7812v-2.1094h7.7031c1.2188 0 2.1367-0.23438 2.75-0.70312 0.60547-0.47656 0.90625-1.1914 0.90625-2.1406 0-1.1328-0.36328-2.0352-1.0938-2.7031-0.72656-0.66406-1.7188-1-2.9688-1h-7.2969v-2.1094h12.859v2.1094h-1.9688c0.78125 0.52344 1.3594 1.1211 1.7344 1.7969 0.375 0.67969 0.5625 1.4648 0.5625 2.3594 0 1.4688-0.45703 2.5898-1.375 3.3594-0.91406 0.76172-2.2578 1.1406-4.0312 1.1406z"/>
</symbol>
<symbol id="ak" overflow="visible">
<path d="m-16.5-4.2969h3.6406v-4.3594h1.6562v4.3594h6.9688c1.0547 0 1.7305-0.14062 2.0312-0.42188 0.29297-0.28906 0.4375-0.87891 0.4375-1.7656v-2.1719h1.7656v2.1719c0 1.625-0.30078 2.75-0.90625 3.375-0.61328 0.61719-1.7227 0.92188-3.3281 0.92188h-6.9688v1.5625h-1.6562v-1.5625h-3.6406z"/>
</symbol>
<symbol id="bv" overflow="visible">
<path d="m-12.469-10.406h2c-0.3125 0.59375-0.53906 1.2148-0.6875 1.8594-0.15625 0.64844-0.23438 1.3125-0.23438 2 0 1.043 0.16406 1.8281 0.48438 2.3594 0.3125 0.52344 0.79297 0.78125 1.4375 0.78125 0.49219 0 0.875-0.1875 1.1562-0.5625s0.54688-1.1289 0.79688-2.2656l0.15625-0.71875c0.32422-1.5 0.77734-2.5625 1.3594-3.1875 0.58594-0.63281 1.4023-0.95312 2.4531-0.95312 1.1992 0 2.1484 0.47656 2.8438 1.4219 0.6875 0.9375 1.0312 2.2344 1.0312 3.8906 0 0.6875-0.070313 1.4062-0.20312 2.1562-0.125 0.74219-0.32031 1.5234-0.59375 2.3438h-2.1875c0.40625-0.76953 0.71484-1.5352 0.92188-2.2969 0.19922-0.75781 0.29688-1.5078 0.29688-2.25 0-1-0.16406-1.7656-0.5-2.2969-0.34375-0.53125-0.82812-0.79688-1.4531-0.79688-0.57031 0-1.0078 0.19531-1.3125 0.57812-0.30078 0.38672-0.59766 1.2305-0.89062 2.5312l-0.17188 0.73438c-0.26953 1.3125-0.69141 2.2617-1.2656 2.8438-0.57031 0.58594-1.3516 0.875-2.3438 0.875-1.207 0-2.1406-0.42578-2.7969-1.2812-0.65625-0.86328-0.98438-2.082-0.98438-3.6562 0-0.78125 0.058594-1.5156 0.17188-2.2031 0.11719-0.6875 0.28906-1.3203 0.51562-1.9062z"/>
</symbol>
<symbol id="bu" overflow="visible">
<path d="m-6.4531-8.0625c0 1.7109 0.19531 2.8984 0.57812 3.5625 0.38672 0.65625 1.0547 0.98438 2 0.98438 0.75 0 1.3438-0.24219 1.7812-0.73438 0.4375-0.5 0.65625-1.1758 0.65625-2.0312 0-1.1641-0.41016-2.1016-1.2344-2.8125-0.83203-0.70703-1.9375-1.0625-3.3125-1.0625h-0.46875zm-0.875-4.2031h7.3281v2.1094h-1.9531c0.78125 0.48047 1.3594 1.0781 1.7344 1.7969 0.36328 0.71875 0.54688 1.6016 0.54688 2.6406 0 1.3242-0.36328 2.375-1.0938 3.1562-0.73828 0.77344-1.7266 1.1562-2.9688 1.1562-1.4453 0-2.5352-0.48438-3.2656-1.4531-0.73828-0.96875-1.1094-2.4102-1.1094-4.3281v-2.9688h-0.20312c-0.97656 0-1.7344 0.32422-2.2656 0.96875-0.53125 0.63672-0.79688 1.5312-0.79688 2.6875 0 0.73047 0.089844 1.4453 0.26562 2.1406 0.17969 0.69922 0.44531 1.3672 0.79688 2h-1.9531c-0.30078-0.76953-0.52344-1.5156-0.67188-2.2344-0.14453-0.72656-0.21875-1.4375-0.21875-2.125 0-1.8633 0.48438-3.2539 1.4531-4.1719 0.96094-0.91406 2.418-1.375 4.375-1.375zm-10.484 4.375v-2.3281h2.3281v2.3281zm0 4.4844v-2.3281h2.3281v2.3281z"/>
</symbol>
<symbol id="p" overflow="visible">
<path d="m-10.875-9.6562c-0.13281 0.23047-0.23438 0.48438-0.29688 0.76562-0.070313 0.28125-0.10938 0.58984-0.10938 0.92188 0 1.1992 0.39062 2.1211 1.1719 2.7656 0.77344 0.63672 1.8867 0.95312 3.3438 0.95312h6.7656v2.1094h-12.859v-2.1094h2c-0.78125-0.44531-1.3594-1.0234-1.7344-1.7344-0.375-0.71875-0.5625-1.582-0.5625-2.5938 0-0.14453 0.011719-0.30469 0.03125-0.48438 0.011719-0.17578 0.039062-0.375 0.078125-0.59375z"/>
</symbol>
<symbol id="o" overflow="visible">
<path d="m-17.859-2.1406v-2.1094h10.547l-5.5469-6.3125v-2.6875l6.0156 6.8125 6.8438-7.1094v2.7656l-6.2812 6.5312h6.2812v2.1094z"/>
</symbol>
<symbol id="h" overflow="visible">
<path d="m-6.9531-13.203h1.0312v9.7031c1.4609-0.09375 2.5703-0.53125 3.3281-1.3125 0.76172-0.78125 1.1406-1.875 1.1406-3.2812 0-0.8125-0.097656-1.5977-0.29688-2.3594-0.19531-0.75781-0.5-1.5156-0.90625-2.2656h2c0.32422 0.76172 0.57031 1.543 0.73438 2.3438 0.16406 0.79297 0.25 1.5938 0.25 2.4062 0 2.0547-0.59375 3.6797-1.7812 4.875-1.1953 1.1992-2.8125 1.7969-4.8438 1.7969-2.1016 0-3.7695-0.56641-5-1.7031-1.2383-1.1328-1.8594-2.6641-1.8594-4.5938 0-1.7266 0.55859-3.0938 1.6719-4.0938 1.1055-1.0078 2.6172-1.5156 4.5312-1.5156zm-0.625 2.1094c-1.1562 0.011719-2.0781 0.33594-2.7656 0.96875-0.6875 0.625-1.0312 1.4609-1.0312 2.5 0 1.1797 0.33594 2.1211 1 2.8281 0.66797 0.71094 1.6055 1.1211 2.8125 1.2344z"/>
</symbol>
<symbol id="am" overflow="visible">
<path d="m-1.9219-4.25h6.8125v2.1094h-17.75v-2.1094h1.9531c-0.75781-0.44531-1.3203-1.0078-1.6875-1.6875-0.375-0.67578-0.5625-1.4844-0.5625-2.4219 0-1.5625 0.62109-2.8281 1.8594-3.7969 1.2422-0.97656 2.8672-1.4688 4.875-1.4688 2.0234 0 3.6523 0.49219 4.8906 1.4688 1.2422 0.96875 1.8594 2.2344 1.8594 3.7969 0 0.9375-0.18359 1.7461-0.54688 2.4219-0.375 0.67969-0.94141 1.2422-1.7031 1.6875zm-4.5-7.1875c-1.5508 0-2.7656 0.32031-3.6406 0.95312-0.88281 0.63672-1.3281 1.5156-1.3281 2.6406 0 1.1172 0.44531 1.9961 1.3281 2.6406 0.875 0.63672 2.0898 0.95312 3.6406 0.95312 1.5625 0 2.7891-0.31641 3.6719-0.95312 0.875-0.64453 1.3125-1.5234 1.3125-2.6406 0-1.125-0.4375-2.0039-1.3125-2.6406-0.88281-0.63281-2.1094-0.95312-3.6719-0.95312z"/>
</symbol>
<symbol id="al" overflow="visible">
<path d="m-6.5781-10.672c-1.5312 0-2.7109 0.32031-3.5469 0.95312-0.84375 0.625-1.2656 1.5117-1.2656 2.6562 0 1.125 0.42188 2.0078 1.2656 2.6406 0.83594 0.625 2.0156 0.9375 3.5469 0.9375 1.5234 0 2.7031-0.3125 3.5469-0.9375 0.84375-0.63281 1.2656-1.5156 1.2656-2.6406 0-1.1445-0.42188-2.0312-1.2656-2.6562-0.84375-0.63281-2.0234-0.95312-3.5469-0.95312zm4.9844-2.1094c2.1875 0 3.8125 0.48438 4.875 1.4531 1.0703 0.96875 1.6094 2.4609 1.6094 4.4688 0 0.74219-0.058594 1.4375-0.17188 2.0938-0.10547 0.65625-0.27344 1.2969-0.5 1.9219h-2.0625c0.33203-0.625 0.57812-1.2383 0.73438-1.8438 0.16406-0.60156 0.25-1.2188 0.25-1.8438 0-1.3828-0.36719-2.4219-1.0938-3.1094-0.71875-0.6875-1.8086-1.0312-3.2656-1.0312h-1.0469c0.76172 0.4375 1.3281 1 1.7031 1.6875 0.375 0.67969 0.5625 1.4922 0.5625 2.4375 0 1.5742-0.59766 2.8438-1.7969 3.8125-1.207 0.96094-2.8008 1.4375-4.7812 1.4375-1.9883 0-3.582-0.47656-4.7812-1.4375-1.1953-0.96875-1.7969-2.2383-1.7969-3.8125 0-0.94531 0.1875-1.7578 0.5625-2.4375 0.375-0.6875 0.9375-1.25 1.6875-1.6875h-1.9531v-2.1094z"/>
</symbol>
<symbol id="f" overflow="visible">
<path d="m-17.859-2.2188v-2.1094h17.859v2.1094z"/>
</symbol>
<symbol id="k" overflow="visible"></symbol>
<symbol id="w" overflow="visible">
<path d="m-17.859-2.0156v-4.875h1.6406v2.7656h17.672v-2.7656h1.6406v4.875z"/>
</symbol>
<symbol id="v" overflow="visible">
<path d="m-15.234-4.625h6.4375v-2.9062c0-1.082-0.27344-1.9141-0.82812-2.5-0.5625-0.59375-1.3594-0.89062-2.3906-0.89062-1.0195 0-1.8125 0.29688-2.375 0.89062-0.5625 0.58594-0.84375 1.418-0.84375 2.5zm-1.8906 2.3125v-5.2188c0-1.9258 0.43359-3.3789 1.2969-4.3594 0.86719-0.98828 2.1367-1.4844 3.8125-1.4844 1.6875 0 2.9648 0.49609 3.8281 1.4844 0.86719 0.98047 1.2969 2.4336 1.2969 4.3594v2.9062h6.8906v2.3125z"/>
</symbol>
<symbol id="u" overflow="visible">
<path d="m-7.75-12.891h7.75v2.1094h-7.6875c-1.2188 0-2.1289 0.24219-2.7344 0.71875-0.60156 0.46875-0.90625 1.1797-0.90625 2.125 0 1.1367 0.36719 2.0391 1.0938 2.7031 0.73047 0.65625 1.7188 0.98438 2.9688 0.98438h7.2656v2.1094h-17.859v-2.1094h7c-0.76953-0.50781-1.3438-1.1016-1.7188-1.7812-0.38281-0.6875-0.57812-1.4766-0.57812-2.375 0-1.4766 0.46094-2.5938 1.375-3.3438 0.90625-0.75781 2.25-1.1406 4.0312-1.1406z"/>
</symbol>
<symbol id="by" overflow="visible">
<path d="m-11.375-7.1875c0 1.125 0.44531 2.0234 1.3281 2.6875 0.88672 0.65625 2.0938 0.98438 3.625 0.98438 1.543 0 2.7578-0.32812 3.6406-0.98438 0.88672-0.65625 1.3281-1.5508 1.3281-2.6875 0-1.125-0.44141-2.0156-1.3281-2.6719-0.89453-0.66406-2.1094-1-3.6406-1-1.5195 0-2.7227 0.33594-3.6094 1-0.89453 0.65625-1.3438 1.5469-1.3438 2.6719zm-1.7812 0c0-1.8438 0.60156-3.2852 1.7969-4.3281 1.1875-1.0508 2.8359-1.5781 4.9375-1.5781 2.1055 0 3.7578 0.52734 4.9531 1.5781 1.1992 1.043 1.7969 2.4844 1.7969 4.3281s-0.59766 3.2891-1.7969 4.3281c-1.1953 1.043-2.8477 1.5625-4.9531 1.5625-2.1016 0-3.75-0.51953-4.9375-1.5625-1.1953-1.0391-1.7969-2.4844-1.7969-4.3281z"/>
</symbol>
<symbol id="bx" overflow="visible">
<path d="m-7.75-12.891h7.75v2.1094h-7.6875c-1.2188 0-2.1289 0.24219-2.7344 0.71875-0.60156 0.46875-0.90625 1.1797-0.90625 2.125 0 1.1367 0.36719 2.0391 1.0938 2.7031 0.73047 0.65625 1.7188 0.98438 2.9688 0.98438h7.2656v2.1094h-12.859v-2.1094h2c-0.76953-0.50781-1.3438-1.1016-1.7188-1.7812-0.38281-0.6875-0.57812-1.4766-0.57812-2.375 0-1.4766 0.46094-2.5938 1.375-3.3438 0.90625-0.75781 2.25-1.1406 4.0312-1.1406z"/>
</symbol>
<symbol id="t" overflow="visible">
<path d="m-17.859-7.1562h20.953v4.875h-1.6406v-2.75h-17.672v2.75h-1.6406z"/>
</symbol>
<symbol id="s" overflow="visible">
<path d="m-16.562-12.578h2.25c-0.41406 0.88672-0.72656 1.7188-0.9375 2.5-0.20703 0.77344-0.3125 1.5234-0.3125 2.25 0 1.2617 0.24609 2.2344 0.73438 2.9219 0.49219 0.6875 1.1875 1.0312 2.0938 1.0312 0.76172 0 1.3359-0.22656 1.7188-0.6875 0.38672-0.45703 0.69531-1.3203 0.92188-2.5938l0.29688-1.3906c0.32422-1.7266 0.90234-3.0039 1.7344-3.8281 0.83594-0.82031 1.9453-1.2344 3.3281-1.2344 1.668 0 2.9297 0.55859 3.7812 1.6719 0.85547 1.1172 1.2812 2.7461 1.2812 4.8906 0 0.8125-0.09375 1.6797-0.28125 2.5938-0.17578 0.90625-0.44141 1.8516-0.79688 2.8281h-2.3906c0.52344-0.9375 0.91797-1.8516 1.1875-2.75 0.27344-0.90625 0.40625-1.7969 0.40625-2.6719 0-1.3203-0.25781-2.3438-0.78125-3.0625-0.51953-0.71875-1.2656-1.0781-2.2344-1.0781-0.83203 0-1.4844 0.26172-1.9531 0.78125-0.47656 0.51172-0.83594 1.3555-1.0781 2.5312l-0.28125 1.4219c-0.34375 1.7305-0.87891 2.9805-1.6094 3.75-0.73828 0.77344-1.7578 1.1562-3.0625 1.1562-1.5195 0-2.7109-0.53125-3.5781-1.5938-0.875-1.0703-1.3125-2.5469-1.3125-4.4219 0-0.80078 0.074219-1.6172 0.21875-2.4531 0.14844-0.83203 0.36719-1.6875 0.65625-2.5625z"/>
</symbol>
<symbol id="i" overflow="visible">
<path d="m-12.359-11.469h1.9688c-0.32031 0.60547-0.56641 1.2109-0.73438 1.8125-0.16406 0.59375-0.25 1.1992-0.25 1.8125 0 1.3672 0.4375 2.4297 1.3125 3.1875 0.86719 0.76172 2.0781 1.1406 3.6406 1.1406 1.5742 0 2.7969-0.37891 3.6719-1.1406 0.86719-0.75781 1.2969-1.8203 1.2969-3.1875 0-0.61328-0.082031-1.2188-0.25-1.8125-0.16406-0.60156-0.41016-1.207-0.73438-1.8125h1.9375c0.28125 0.59375 0.49219 1.2109 0.625 1.8438 0.13281 0.625 0.20312 1.293 0.20312 2 0 1.9375-0.60156 3.4805-1.8125 4.625-1.2188 1.1367-2.8633 1.7031-4.9375 1.7031-2.0938 0-3.7383-0.57031-4.9375-1.7188-1.1953-1.1562-1.7969-2.7344-1.7969-4.7344 0-0.65625 0.070312-1.2891 0.20312-1.9062 0.125-0.625 0.32422-1.2266 0.59375-1.8125z"/>
</symbol>
<symbol id="r" overflow="visible">
<path d="m-10.906-10.672h-6.9531v-2.1094h17.859v2.1094h-1.9219c0.76172 0.44922 1.3281 1.0117 1.7031 1.6875 0.36328 0.67969 0.54688 1.4922 0.54688 2.4375 0 1.5547-0.61719 2.8203-1.8594 3.7969-1.2383 0.96875-2.8672 1.4531-4.8906 1.4531-2.0078 0-3.6328-0.48438-4.875-1.4531-1.2383-0.97656-1.8594-2.2422-1.8594-3.7969 0-0.94531 0.1875-1.7578 0.5625-2.4375 0.36719-0.67578 0.92969-1.2383 1.6875-1.6875zm4.4844 7.1875c1.5625 0 2.7891-0.31641 3.6719-0.95312 0.875-0.63281 1.3125-1.5078 1.3125-2.625 0-1.125-0.4375-2.0039-1.3125-2.6406-0.88281-0.64453-2.1094-0.96875-3.6719-0.96875-1.5508 0-2.7656 0.32422-3.6406 0.96875-0.88281 0.63672-1.3281 1.5156-1.3281 2.6406 0 1.1172 0.44531 1.9922 1.3281 2.625 0.875 0.63672 2.0898 0.95312 3.6406 0.95312z"/>
</symbol>
<symbol id="bw" overflow="visible">
<path d="m-8.1875-4.625h6.2812v-3.7188c0-1.25-0.25391-2.1719-0.76562-2.7656-0.51953-0.60156-1.3125-0.90625-2.375-0.90625-1.0703 0-1.8633 0.30469-2.375 0.90625-0.50781 0.59375-0.76562 1.5156-0.76562 2.7656zm-7.0469 0h5.1719v-3.4375c0-1.125-0.21094-1.9609-0.64062-2.5156-0.42578-0.5625-1.0703-0.84375-1.9375-0.84375-0.86328 0-1.5078 0.28125-1.9375 0.84375-0.4375 0.55469-0.65625 1.3906-0.65625 2.5156zm-1.8906 2.3125v-5.9219c0-1.7578 0.37109-3.1172 1.1094-4.0781 0.73047-0.95703 1.7734-1.4375 3.125-1.4375 1.043 0 1.875 0.24609 2.5 0.73438 0.61719 0.49219 1 1.2109 1.1562 2.1562 0.24219-1.1328 0.75-2.0156 1.5312-2.6406 0.77344-0.63281 1.7422-0.95312 2.9062-0.95312 1.5312 0 2.7148 0.52344 3.5469 1.5625 0.83594 1.0312 1.25 2.5117 1.25 4.4375v6.1406z"/>
</symbol>
<symbol id="d" overflow="visible">
<path d="m3.2812-1.4219h5.8906v1.4219h-7.9219v-1.4219c0.64453-0.65625 1.5195-1.5391 2.625-2.6562 1.1016-1.1133 1.7969-1.832 2.0781-2.1562 0.53906-0.60156 0.91406-1.1133 1.125-1.5312 0.21875-0.42578 0.32812-0.84375 0.32812-1.25 0-0.65625-0.23438-1.1914-0.70312-1.6094-0.46094-0.41406-1.0625-0.625-1.8125-0.625-0.53125 0-1.0898 0.09375-1.6719 0.28125-0.58594 0.17969-1.2148 0.44922-1.8906 0.8125v-1.6875c0.6875-0.28125 1.3203-0.48828 1.9062-0.625 0.59375-0.13281 1.1328-0.20312 1.625-0.20312 1.2891 0 2.3164 0.32422 3.0781 0.96875 0.76953 0.64844 1.1562 1.5078 1.1562 2.5781 0 0.51172-0.10156 0.99609-0.29688 1.4531-0.1875 0.46094-0.53125 1-1.0312 1.625-0.14844 0.16797-0.59375 0.63672-1.3438 1.4062-0.74219 0.76172-1.7891 1.8359-3.1406 3.2188z"/>
</symbol>
<symbol id="a" overflow="visible">
<path d="m5.4375-11.344c-0.875 0-1.5312 0.42969-1.9688 1.2812-0.42969 0.85547-0.64062 2.1367-0.64062 3.8438 0 1.7109 0.21094 2.9922 0.64062 3.8438 0.4375 0.85547 1.0938 1.2812 1.9688 1.2812s1.5234-0.42578 1.9531-1.2812c0.4375-0.85156 0.65625-2.1328 0.65625-3.8438 0-1.707-0.21875-2.9883-0.65625-3.8438-0.42969-0.85156-1.0781-1.2812-1.9531-1.2812zm0-1.3281c1.3945 0 2.457 0.55469 3.1875 1.6562 0.73828 1.1055 1.1094 2.7031 1.1094 4.7969 0 2.1055-0.37109 3.7109-1.1094 4.8125-0.73047 1.0938-1.793 1.6406-3.1875 1.6406-1.3984 0-2.4648-0.54688-3.2031-1.6406-0.74219-1.1016-1.1094-2.707-1.1094-4.8125 0-2.0938 0.36719-3.6914 1.1094-4.7969 0.73828-1.1016 1.8047-1.6562 3.2031-1.6562z"/>
</symbol>
<symbol id="n" overflow="visible">
<path d="m1.8438-12.453h6.625v1.4219h-5.0781v3.0469c0.23828-0.082031 0.47656-0.14453 0.71875-0.1875 0.25-0.039063 0.5-0.0625 0.75-0.0625 1.3828 0 2.4844 0.38281 3.2969 1.1406 0.8125 0.76172 1.2188 1.793 1.2188 3.0938 0 1.3438-0.41797 2.3867-1.25 3.125-0.83594 0.74219-2.0117 1.1094-3.5312 1.1094-0.52344 0-1.0547-0.046875-1.5938-0.14062-0.54297-0.085938-1.1055-0.21094-1.6875-0.39062v-1.6875c0.5 0.27344 1.0156 0.47656 1.5469 0.60938 0.53906 0.13672 1.1094 0.20312 1.7031 0.20312 0.96875 0 1.7344-0.25 2.2969-0.75 0.5625-0.50781 0.84375-1.2031 0.84375-2.0781 0-0.86328-0.28125-1.5469-0.84375-2.0469-0.5625-0.50781-1.3281-0.76562-2.2969-0.76562-0.44922 0-0.89844 0.054688-1.3438 0.15625-0.44922 0.09375-0.90625 0.24609-1.375 0.45312z"/>
</symbol>
<symbol id="br" overflow="visible">
<path d="m-0.046875-12.453h10.531v1.4219h-4.4219v11.031h-1.6875v-11.031h-4.4219z"/>
</symbol>
<symbol id="ah" overflow="visible">
<path d="m9.6094-5.0469v0.75h-7.0625c0.0625 1.0547 0.37891 1.8555 0.95312 2.4062 0.57031 0.55469 1.3672 0.82812 2.3906 0.82812 0.58203 0 1.1484-0.070312 1.7031-0.21875 0.5625-0.14453 1.1133-0.35938 1.6562-0.64062v1.4531c-0.55469 0.23047-1.1211 0.40234-1.7031 0.51562-0.57422 0.125-1.1562 0.1875-1.75 0.1875-1.4922 0-2.6719-0.42969-3.5469-1.2969-0.875-0.86328-1.3125-2.0352-1.3125-3.5156 0-1.5312 0.41016-2.7422 1.2344-3.6406 0.83203-0.89453 1.9531-1.3438 3.3594-1.3438 1.25 0 2.2383 0.40625 2.9688 1.2188 0.73828 0.80469 1.1094 1.9023 1.1094 3.2969zm-1.5312-0.45312c-0.023437-0.84375-0.26172-1.5156-0.71875-2.0156-0.46094-0.5-1.0625-0.75-1.8125-0.75-0.86719 0-1.5547 0.24609-2.0625 0.73438-0.51172 0.48047-0.80859 1.1562-0.89062 2.0312z"/>
</symbol>
<symbol id="bq" overflow="visible">
<path d="m1.6094-12.969h1.5312v12.969h-1.5312z"/>
</symbol>
<symbol id="bp" overflow="visible">
<path d="m3.0938-1.4062v4.9531h-1.5469v-12.891h1.5469v1.4219c0.32031-0.55078 0.72656-0.96094 1.2188-1.2344 0.5-0.26953 1.0859-0.40625 1.7656-0.40625 1.1328 0 2.0547 0.45312 2.7656 1.3594 0.71875 0.89844 1.0781 2.0781 1.0781 3.5469s-0.35938 2.6523-1.0781 3.5469c-0.71094 0.89844-1.6328 1.3438-2.7656 1.3438-0.67969 0-1.2656-0.13281-1.7656-0.39062-0.49219-0.26953-0.89844-0.6875-1.2188-1.25zm5.2344-3.25c0-1.1328-0.23438-2.0195-0.70312-2.6562-0.46875-0.64453-1.1094-0.96875-1.9219-0.96875s-1.4531 0.32422-1.9219 0.96875c-0.46094 0.63672-0.6875 1.5234-0.6875 2.6562 0 1.125 0.22656 2.0117 0.6875 2.6562 0.46875 0.63672 1.1094 0.95312 1.9219 0.95312s1.4531-0.31641 1.9219-0.95312c0.46875-0.64453 0.70312-1.5312 0.70312-2.6562z"/>
</symbol>
<symbol id="bo" overflow="visible">
<path d="m9.375-5.6406v5.6406h-1.5312v-5.5938c0-0.875-0.17188-1.5312-0.51562-1.9688-0.34375-0.44531-0.85938-0.67188-1.5469-0.67188-0.83594 0-1.4922 0.26562-1.9688 0.79688-0.48047 0.53125-0.71875 1.25-0.71875 2.1562v5.2812h-1.5469v-12.969h1.5469v5.0781c0.36328-0.5625 0.79688-0.97656 1.2969-1.25 0.5-0.28125 1.0781-0.42188 1.7344-0.42188 1.0703 0 1.8789 0.33594 2.4219 1 0.55078 0.65625 0.82812 1.6328 0.82812 2.9219z"/>
</symbol>
<symbol id="bn" overflow="visible">
<path d="m5.2344-8.2656c-0.82422 0-1.4766 0.32422-1.9531 0.96875-0.48047 0.63672-0.71875 1.5156-0.71875 2.6406 0 1.1172 0.23438 1.9961 0.70312 2.6406 0.47656 0.63672 1.1328 0.95312 1.9688 0.95312 0.8125 0 1.457-0.32031 1.9375-0.96875 0.47656-0.64453 0.71875-1.5195 0.71875-2.625 0-1.1133-0.24219-1.9922-0.71875-2.6406-0.48047-0.64453-1.125-0.96875-1.9375-0.96875zm0-1.2969c1.332 0 2.3789 0.43359 3.1406 1.2969 0.75781 0.86719 1.1406 2.0703 1.1406 3.6094 0 1.5234-0.38281 2.7188-1.1406 3.5938-0.76172 0.86719-1.8086 1.2969-3.1406 1.2969-1.3438 0-2.3984-0.42969-3.1562-1.2969-0.76172-0.875-1.1406-2.0703-1.1406-3.5938 0-1.5391 0.37891-2.7422 1.1406-3.6094 0.75781-0.86328 1.8125-1.2969 3.1562-1.2969z"/>
</symbol>
<symbol id="bt" overflow="visible">
<path d="m9.375-5.6406v5.6406h-1.5312v-5.5938c0-0.875-0.17188-1.5312-0.51562-1.9688-0.34375-0.44531-0.85938-0.67188-1.5469-0.67188-0.83594 0-1.4922 0.26562-1.9688 0.79688-0.48047 0.53125-0.71875 1.25-0.71875 2.1562v5.2812h-1.5469v-9.3438h1.5469v1.4531c0.36328-0.5625 0.79688-0.97656 1.2969-1.25 0.5-0.28125 1.0781-0.42188 1.7344-0.42188 1.0703 0 1.8789 0.33594 2.4219 1 0.55078 0.65625 0.82812 1.6328 0.82812 2.9219z"/>
</symbol>
<symbol id="g" overflow="visible">
<path d="m6.4531-10.984-4.25 6.6406h4.25zm-0.4375-1.4688h2.125v8.1094h1.7812v1.4062h-1.7812v2.9375h-1.6875v-2.9375h-5.625v-1.625z"/>
</symbol>
<symbol id="aj" overflow="visible">
<path d="m5.6406-6.8906c-0.76172 0-1.3594 0.26172-1.7969 0.78125-0.4375 0.51172-0.65625 1.2148-0.65625 2.1094 0 0.89844 0.21875 1.6055 0.65625 2.125 0.4375 0.52344 1.0352 0.78125 1.7969 0.78125 0.75781 0 1.3594-0.25781 1.7969-0.78125 0.44531-0.51953 0.67188-1.2266 0.67188-2.125 0-0.89453-0.22656-1.5977-0.67188-2.1094-0.4375-0.51953-1.0391-0.78125-1.7969-0.78125zm3.3438-5.2812v1.5312c-0.41797-0.19531-0.84375-0.34766-1.2812-0.45312-0.42969-0.10156-0.85547-0.15625-1.2812-0.15625-1.1172 0-1.9648 0.375-2.5469 1.125-0.58594 0.75-0.91797 1.8828-1 3.3906 0.32031-0.47656 0.72656-0.84766 1.2188-1.1094 0.5-0.25781 1.0508-0.39062 1.6562-0.39062 1.25 0 2.2344 0.38281 2.9531 1.1406 0.72656 0.76172 1.0938 1.793 1.0938 3.0938 0 1.2812-0.38281 2.3086-1.1406 3.0781-0.75 0.77344-1.7578 1.1562-3.0156 1.1562-1.4375 0-2.543-0.54688-3.3125-1.6406-0.76172-1.1016-1.1406-2.707-1.1406-4.8125 0-1.9688 0.46875-3.5352 1.4062-4.7031 0.9375-1.1641 2.1914-1.75 3.7656-1.75 0.42578 0 0.85156 0.042969 1.2812 0.125 0.42578 0.085937 0.875 0.21094 1.3438 0.375z"/>
</symbol>
<symbol id="ai" overflow="visible">
<path d="m5.4375-5.9062c-0.80469 0-1.4336 0.21484-1.8906 0.64062-0.46094 0.42969-0.6875 1.0156-0.6875 1.7656s0.22656 1.3398 0.6875 1.7656c0.45703 0.42969 1.0859 0.64062 1.8906 0.64062 0.80078 0 1.4297-0.21094 1.8906-0.64062 0.45703-0.4375 0.6875-1.0234 0.6875-1.7656 0-0.75-0.23047-1.3359-0.6875-1.7656-0.46094-0.42578-1.0898-0.64062-1.8906-0.64062zm-1.6875-0.71875c-0.73047-0.17578-1.2969-0.50781-1.7031-1-0.39844-0.5-0.59375-1.1094-0.59375-1.8281 0-0.98828 0.35156-1.7695 1.0625-2.3438 0.70703-0.58203 1.6797-0.875 2.9219-0.875 1.2383 0 2.2109 0.29297 2.9219 0.875 0.70703 0.57422 1.0625 1.3555 1.0625 2.3438 0 0.71875-0.20312 1.3281-0.60938 1.8281-0.40625 0.49219-0.96875 0.82422-1.6875 1 0.8125 0.1875 1.4414 0.55859 1.8906 1.1094 0.45703 0.55469 0.6875 1.2266 0.6875 2.0156 0 1.2109-0.37109 2.1367-1.1094 2.7812-0.73047 0.63672-1.7812 0.95312-3.1562 0.95312s-2.4336-0.31641-3.1719-0.95312c-0.74219-0.64453-1.1094-1.5703-1.1094-2.7812 0-0.78906 0.22656-1.4609 0.6875-2.0156 0.45703-0.55078 1.0938-0.92188 1.9062-1.1094zm-0.625-2.6719c0 0.64844 0.20312 1.1523 0.60938 1.5156 0.40625 0.36719 0.97266 0.54688 1.7031 0.54688 0.71875 0 1.2812-0.17969 1.6875-0.54688 0.41406-0.36328 0.625-0.86719 0.625-1.5156 0-0.63281-0.21094-1.1328-0.625-1.5-0.40625-0.36328-0.96875-0.54688-1.6875-0.54688-0.73047 0-1.2969 0.18359-1.7031 0.54688-0.40625 0.36719-0.60938 0.86719-0.60938 1.5z"/>
</symbol>
<symbol id="b" overflow="visible">
<path d="m2.125-1.4219h2.75v-9.5l-3 0.60938v-1.5312l2.9844-0.60938h1.6875v11.031h2.75v1.4219h-7.1719z"/>
</symbol>
<symbol id="bs" overflow="visible">
<path d="m1.8281-6.9844h1.7656v2.1094h-1.7656z"/>
</symbol>
<symbol id="m" overflow="visible">
<path d="m2-2.2188h2.8438v-8.0469l-2.9219 0.59375v-2.1719l2.9062-0.60938h3.0469v10.234h2.8438v2.2188h-8.7188z"/>
</symbol>
<symbol id="c" overflow="visible">
<path d="m7.8594-6.2344c0-1.5625-0.14844-2.6602-0.4375-3.2969-0.29297-0.63281-0.78125-0.95312-1.4688-0.95312s-1.1836 0.32031-1.4844 0.95312c-0.29297 0.63672-0.4375 1.7344-0.4375 3.2969 0 1.5742 0.14453 2.6836 0.4375 3.3281 0.30078 0.64844 0.79688 0.96875 1.4844 0.96875s1.1758-0.32031 1.4688-0.96875c0.28906-0.64453 0.4375-1.7539 0.4375-3.3281zm3.2188 0.015625c0 2.0625-0.44922 3.6562-1.3438 4.7812-0.88672 1.1172-2.1484 1.6719-3.7812 1.6719-1.6484 0-2.918-0.55469-3.8125-1.6719-0.88672-1.125-1.3281-2.7188-1.3281-4.7812s0.44141-3.6484 1.3281-4.7656c0.89453-1.125 2.1641-1.6875 3.8125-1.6875 1.6328 0 2.8945 0.5625 3.7812 1.6875 0.89453 1.1172 1.3438 2.7031 1.3438 4.7656z"/>
</symbol>
<symbol id="bm" overflow="visible">
<path d="m2.3125-17.125h9.8438v1.9375h-7.5312v5.0625h6.7969v1.9375h-6.7969v8.1875h-2.3125z"/>
</symbol>
<symbol id="bj" overflow="visible">
<path d="m9.6562-10.875c-0.23047-0.13281-0.48438-0.23438-0.76562-0.29688-0.28125-0.070313-0.58984-0.10938-0.92188-0.10938-1.1992 0-2.1211 0.39062-2.7656 1.1719-0.63672 0.77344-0.95312 1.8867-0.95312 3.3438v6.7656h-2.1094v-12.859h2.1094v2c0.44531-0.78125 1.0234-1.3594 1.7344-1.7344 0.71875-0.375 1.582-0.5625 2.5938-0.5625 0.14453 0 0.30469 0.011719 0.48438 0.03125 0.17578 0.011719 0.375 0.039062 0.59375 0.078125z"/>
</symbol>
<symbol id="ag" overflow="visible">
<path d="m13.203-6.9531v1.0312h-9.7031c0.09375 1.4609 0.53125 2.5703 1.3125 3.3281 0.78125 0.76172 1.875 1.1406 3.2812 1.1406 0.8125 0 1.5977-0.097656 2.3594-0.29688 0.75781-0.19531 1.5156-0.5 2.2656-0.90625v2c-0.76172 0.32422-1.543 0.57031-2.3438 0.73438-0.79297 0.16406-1.5938 0.25-2.4062 0.25-2.0547 0-3.6797-0.59375-4.875-1.7812-1.1992-1.1953-1.7969-2.8125-1.7969-4.8438 0-2.1016 0.56641-3.7695 1.7031-5 1.1328-1.2383 2.6641-1.8594 4.5938-1.8594 1.7266 0 3.0938 0.55859 4.0938 1.6719 1.0078 1.1055 1.5156 2.6172 1.5156 4.5312zm-2.1094-0.625c-0.011719-1.1562-0.33594-2.0781-0.96875-2.7656-0.625-0.6875-1.4609-1.0312-2.5-1.0312-1.1797 0-2.1211 0.33594-2.8281 1-0.71094 0.66797-1.1211 1.6055-1.2344 2.8125z"/>
</symbol>
<symbol id="bi" overflow="visible">
<path d="m3.4844-6.4219c0 1.5625 0.31641 2.7891 0.95312 3.6719 0.63281 0.875 1.5078 1.3125 2.625 1.3125 1.125 0 2.0039-0.4375 2.6406-1.3125 0.64453-0.88281 0.96875-2.1094 0.96875-3.6719 0-1.5508-0.32422-2.7656-0.96875-3.6406-0.63672-0.88281-1.5156-1.3281-2.6406-1.3281-1.1172 0-1.9922 0.44531-2.625 1.3281-0.63672 0.875-0.95312 2.0898-0.95312 3.6406zm7.1875 4.5c-0.44922 0.76172-1.0117 1.3281-1.6875 1.7031-0.67969 0.36328-1.4922 0.54688-2.4375 0.54688-1.5547 0-2.8203-0.61719-3.7969-1.8594-0.96875-1.2383-1.4531-2.8672-1.4531-4.8906 0-2.0078 0.48438-3.6328 1.4531-4.875 0.97656-1.2383 2.2422-1.8594 3.7969-1.8594 0.94531 0 1.7578 0.1875 2.4375 0.5625 0.67578 0.36719 1.2383 0.92969 1.6875 1.6875v-1.9531h2.1094v17.75h-2.1094z"/>
</symbol>
<symbol id="bh" overflow="visible">
<path d="m2-5.0781v-7.7812h2.1094v7.7031c0 1.2188 0.23438 2.1367 0.70312 2.75 0.47656 0.60547 1.1914 0.90625 2.1406 0.90625 1.1328 0 2.0352-0.36328 2.7031-1.0938 0.66406-0.72656 1-1.7188 1-2.9688v-7.2969h2.1094v12.859h-2.1094v-1.9688c-0.52344 0.78125-1.1211 1.3594-1.7969 1.7344-0.67969 0.375-1.4648 0.5625-2.3594 0.5625-1.4688 0-2.5898-0.45703-3.3594-1.375-0.76172-0.91406-1.1406-2.2578-1.1406-4.0312z"/>
</symbol>
<symbol id="bg" overflow="visible">
<path d="m12.891-7.75v7.75h-2.1094v-7.6875c0-1.2188-0.24219-2.1289-0.71875-2.7344-0.46875-0.60156-1.1797-0.90625-2.125-0.90625-1.1367 0-2.0391 0.36719-2.7031 1.0938-0.65625 0.73047-0.98438 1.7188-0.98438 2.9688v7.2656h-2.1094v-12.859h2.1094v2c0.50781-0.76953 1.1016-1.3438 1.7812-1.7188 0.6875-0.38281 1.4766-0.57812 2.375-0.57812 1.4766 0 2.5938 0.46094 3.3438 1.375 0.75781 0.90625 1.1406 2.25 1.1406 4.0312z"/>
</symbol>
<symbol id="af" overflow="visible">
<path d="m1.2969-12.859h10.031v1.9375l-7.9375 9.2344h7.9375v1.6875h-10.312v-1.9219l7.9375-9.25h-7.6562z"/>
</symbol>
<symbol id="bf" overflow="visible"></symbol>
<symbol id="be" overflow="visible">
<path d="m2.0156-17.859h4.875v1.6406h-2.7656v17.672h2.7656v1.6406h-4.875z"/>
</symbol>
<symbol id="bl" overflow="visible">
<path d="m2.3125-17.125h2.3125v7.0156h8.4219v-7.0156h2.3125v17.125h-2.3125v-8.1562h-8.4219v8.1562h-2.3125z"/>
</symbol>
<symbol id="bk" overflow="visible">
<path d="m7.1562-17.859v20.953h-4.875v-1.6406h2.75v-17.672h-2.75v-1.6406z"/>
</symbol>
<symbol id="bd" overflow="visible">
<path d="m12-12.047-0.25 1.8281c-0.66797-0.44531-1.3086-0.79688-1.9219-1.0469-0.60547-0.25-1.2031-0.41016-1.7969-0.48438-1.0234-0.14453-1.8398-0.054688-2.4531 0.26562-0.60547 0.32422-0.95312 0.85156-1.0469 1.5781-0.085938 0.61719 0.035156 1.1055 0.35938 1.4688 0.33203 0.36719 1 0.71484 2 1.0469l1.0938 0.39062c1.375 0.44922 2.3477 1.0547 2.9219 1.8125 0.58203 0.76172 0.79688 1.7109 0.64062 2.8438-0.17969 1.3438-0.76562 2.3047-1.7656 2.875-0.99219 0.57031-2.3555 0.73828-4.0938 0.5-0.66797-0.085938-1.3594-0.25-2.0781-0.5-0.71875-0.24219-1.4609-0.56641-2.2188-0.98438l0.26562-1.9375c0.70703 0.54297 1.4102 0.97656 2.1094 1.2969 0.69531 0.3125 1.4062 0.51562 2.125 0.60938 1.0703 0.14844 1.9258 0.046875 2.5625-0.29688 0.64453-0.35156 1.0195-0.91406 1.125-1.6875 0.09375-0.67578-0.046875-1.2383-0.42188-1.6875-0.36719-0.44531-1.0156-0.82812-1.9531-1.1406l-1.1094-0.375c-1.3672-0.46875-2.3242-1.0391-2.875-1.7188-0.54297-0.67578-0.74219-1.5469-0.59375-2.6094 0.15625-1.2266 0.71875-2.1406 1.6875-2.7344s2.207-0.78516 3.7188-0.57812c0.65625 0.085938 1.3125 0.23438 1.9688 0.45312 0.66406 0.21094 1.332 0.48047 2 0.8125z"/>
</symbol>
<symbol id="ad" overflow="visible">
<path d="m10.641-8.7656-0.21875 1.5938c-0.44922-0.32031-0.90625-0.58203-1.375-0.78125-0.46875-0.20703-0.95312-0.34375-1.4531-0.40625-1.1172-0.15625-2.0273 0.078125-2.7344 0.70312-0.71094 0.625-1.1484 1.5742-1.3125 2.8438-0.17969 1.2734-0.007813 2.3047 0.51562 3.0938 0.51953 0.78125 1.3359 1.25 2.4531 1.4062 0.5 0.0625 1 0.0625 1.5 0 0.50781-0.070312 1.0234-0.21094 1.5469-0.42188l-0.21875 1.5781c-0.5 0.16406-1.0156 0.26953-1.5469 0.3125-0.52344 0.039062-1.0742 0.019531-1.6562-0.0625-1.5625-0.21094-2.7461-0.86719-3.5469-1.9688-0.79297-1.1133-1.0742-2.5078-0.84375-4.1875 0.22656-1.6953 0.875-2.9688 1.9375-3.8125 1.0703-0.85156 2.4141-1.1719 4.0312-0.95312 0.53125 0.074219 1.0352 0.19922 1.5156 0.375 0.48828 0.17969 0.95703 0.40625 1.4062 0.6875z"/>
</symbol>
<symbol id="ac" overflow="visible">
<path d="m11.297-4.875-0.84375 6.2812-1.7031-0.23438 0.84375-6.2188c0.125-1 0.023438-1.7695-0.29688-2.3125-0.3125-0.53906-0.85547-0.86328-1.625-0.96875-0.92969-0.125-1.6992 0.074219-2.3125 0.59375-0.60547 0.52344-0.97656 1.293-1.1094 2.3125l-0.79688 5.8906-1.7188-0.23438 1.9531-14.484 1.7188 0.23438-0.76562 5.6875c0.48828-0.57031 1.0312-0.97656 1.625-1.2188 0.60156-0.23828 1.2656-0.30469 1.9844-0.20312 1.1953 0.15625 2.0508 0.65234 2.5625 1.4844 0.51953 0.82422 0.67969 1.9531 0.48438 3.3906z"/>
</symbol>
<symbol id="bc" overflow="visible">
<path d="m11.031-7.0938c0.53125-0.69531 1.1172-1.1914 1.7656-1.4844 0.64453-0.28906 1.3672-0.38281 2.1719-0.28125 1.0938 0.15625 1.8789 0.65625 2.3594 1.5 0.48828 0.83594 0.64062 1.9531 0.45312 3.3594l-0.84375 6.2812-1.7188-0.23438 0.84375-6.2188c0.13281-1.0078 0.054688-1.7812-0.23438-2.3125-0.29297-0.53125-0.80469-0.84766-1.5312-0.95312-0.88672-0.11328-1.625 0.089844-2.2188 0.60938-0.59375 0.52344-0.96094 1.293-1.0938 2.3125l-0.79688 5.8906-1.7188-0.23438 0.84375-6.2188c0.13281-1.0195 0.054688-1.7891-0.23438-2.3125-0.28125-0.53125-0.79688-0.84766-1.5469-0.95312-0.86719-0.11328-1.5938 0.09375-2.1875 0.625-0.59375 0.52344-0.96094 1.2891-1.0938 2.2969l-0.79688 5.8906-1.7188-0.23438 1.4062-10.422 1.7188 0.23438-0.21875 1.625c0.47656-0.58203 1.0078-0.98828 1.5938-1.2188 0.58203-0.23828 1.25-0.3125 2-0.21875 0.75 0.10547 1.3633 0.38672 1.8438 0.84375 0.48828 0.46094 0.80469 1.0703 0.95312 1.8281z"/>
</symbol>
<symbol id="l" overflow="visible">
<path d="m11.469-4.2031-0.125 0.84375-7.875-1.0625c-0.085938 1.1875 0.14844 2.1367 0.70312 2.8438 0.5625 0.71094 1.4062 1.1367 2.5312 1.2812 0.66406 0.09375 1.3164 0.10156 1.9531 0.015625 0.64453-0.082031 1.2891-0.24219 1.9375-0.48438l-0.21875 1.625c-0.64844 0.17578-1.3047 0.28516-1.9688 0.32812-0.65625 0.050781-1.3203 0.035156-1.9844-0.046875-1.6562-0.23047-2.9062-0.89062-3.75-1.9844s-1.1562-2.4688-0.9375-4.125c0.22656-1.707 0.86719-3 1.9219-3.875 1.0625-0.875 2.375-1.207 3.9375-1 1.3945 0.1875 2.4414 0.79297 3.1406 1.8125 0.69531 1.0117 0.94141 2.2891 0.73438 3.8281zm-1.6406-0.71875c0.11328-0.94531-0.054687-1.7344-0.5-2.3594-0.4375-0.625-1.0781-0.99219-1.9219-1.1094-0.96094-0.125-1.7617 0.042969-2.4062 0.5-0.64844 0.46094-1.0742 1.1797-1.2812 2.1562z"/>
</symbol>
<symbol id="bb" overflow="visible">
<path d="m9.0156-7.7656c-0.17969-0.13281-0.375-0.24219-0.59375-0.32812-0.21875-0.082031-0.46484-0.14062-0.73438-0.17188-0.96875-0.13281-1.7578 0.078125-2.3594 0.64062-0.60547 0.5625-0.98438 1.4336-1.1406 2.6094l-0.73438 5.4844-1.7188-0.23438 1.4062-10.422 1.7188 0.23438-0.21875 1.625c0.44531-0.58203 0.97656-0.98828 1.5938-1.2188 0.61328-0.23828 1.332-0.30078 2.1562-0.1875 0.125 0.011719 0.25391 0.039063 0.39062 0.078125 0.13281 0.03125 0.28516 0.074219 0.45312 0.125z"/>
</symbol>
<symbol id="ba" overflow="visible">
<path d="m2.4531-10.281 8.1406 1.0938-0.21875 1.5625-7.4531 6.6406 6.4531 0.85938-0.1875 1.3594-8.3594-1.125 0.20312-1.5625 7.4375-6.625-6.2031-0.82812z"/>
</symbol>
<symbol id="az" overflow="visible">
<path d="m9.7969-8.9688-0.21875 1.625c-0.44922-0.32031-0.92969-0.57812-1.4375-0.76562-0.51172-0.19531-1.043-0.33203-1.5938-0.40625-0.84375-0.11328-1.5-0.066406-1.9688 0.14062-0.46094 0.19922-0.72656 0.55859-0.79688 1.0781-0.054688 0.39844 0.054688 0.73047 0.32812 1 0.28125 0.27344 0.86328 0.57031 1.75 0.89062l0.57812 0.1875c1.1875 0.42969 2.0039 0.91406 2.4531 1.4531 0.44531 0.54297 0.61328 1.2422 0.5 2.0938-0.13672 0.96875-0.625 1.6797-1.4688 2.1406-0.84375 0.46875-1.9336 0.60938-3.2656 0.42188-0.55469-0.074219-1.125-0.20312-1.7188-0.39062-0.58594-0.1875-1.2031-0.4375-1.8594-0.75l0.25-1.7656c0.58203 0.41797 1.1719 0.75 1.7656 1s1.1875 0.41797 1.7812 0.5c0.8125 0.10547 1.4531 0.046875 1.9219-0.17188 0.46875-0.22656 0.73828-0.58594 0.8125-1.0781 0.0625-0.46875-0.046875-0.84766-0.32812-1.1406-0.28125-0.28906-0.9375-0.61328-1.9688-0.96875l-0.57812-0.23438c-1.0234-0.36328-1.7422-0.8125-2.1562-1.3438-0.41797-0.53125-0.57422-1.2031-0.46875-2.0156 0.13281-0.97656 0.58594-1.6875 1.3594-2.125 0.76953-0.4375 1.7969-0.56641 3.0781-0.39062 0.63281 0.085937 1.2227 0.21094 1.7656 0.375 0.53906 0.16797 1.0352 0.38281 1.4844 0.64062z"/>
</symbol>
<symbol id="ay" overflow="visible">
<path d="m2.2188-10.312 1.7031 0.23438 1.0312 8.4062 3.2344-7.8438 2.0156 0.28125 1.0469 8.4062 3.2188-7.8438 1.7031 0.23438-4.125 10.062-2.0156-0.28125-1.0938-8.8281-3.3906 8.2344-2.0156-0.28125z"/>
</symbol>
<symbol id="ae" overflow="visible">
<path d="m3.75-14.25 1.7031 0.23438-1.9531 14.484-1.7031-0.23438z"/>
</symbol>
<symbol id="ax" overflow="visible">
<path d="m8.4531-11.344 1.6562 0.90625-2.7969 5.0312 6.0156 3.3438 2.7969-5.0312 1.6562 0.92188-6.7969 12.266-1.6562-0.92188 3.2344-5.8281-6.0156-3.3438-3.2344 5.8281-1.6562-0.90625z"/>
</symbol>
<symbol id="aw" overflow="visible">
<path d="m9.6562-5.2656c-0.8125-0.44531-1.6328-0.48828-2.4531-0.125-0.82422 0.36719-1.5391 1.0938-2.1406 2.1875-0.61719 1.1055-0.86719 2.1055-0.75 3 0.125 0.89453 0.59766 1.5703 1.4219 2.0312 0.80078 0.4375 1.6133 0.46094 2.4375 0.078125 0.82031-0.375 1.5352-1.1094 2.1406-2.2031 0.60156-1.082 0.84375-2.0703 0.71875-2.9688-0.11719-0.89453-0.57422-1.5625-1.375-2zm0.71875-1.2969c1.3125 0.71875 2.1016 1.7188 2.375 3 0.26953 1.2734-0.011719 2.6562-0.84375 4.1562-0.83594 1.5-1.8594 2.4688-3.0781 2.9062-1.2188 0.44531-2.4844 0.3125-3.7969-0.40625-1.3242-0.74219-2.125-1.7461-2.4062-3.0156-0.27344-1.2695 0.007812-2.6562 0.84375-4.1562 0.83203-1.5 1.8594-2.4727 3.0781-2.9219 1.2266-0.44531 2.5039-0.30078 3.8281 0.4375zm2.6094-2.8906 1.6562 0.92188-0.92188 1.6562-1.6562-0.92188zm-3.2188-1.7812 1.6719 0.92188-0.92188 1.6562-1.6719-0.92188z"/>
</symbol>
<symbol id="av" overflow="visible">
<path d="m11.234-3.9531c-0.125-0.1875-0.27734-0.35938-0.45312-0.51562-0.16797-0.15625-0.37109-0.30078-0.60938-0.4375-0.85547-0.47656-1.668-0.5625-2.4375-0.25-0.76172 0.30469-1.4297 0.96875-2 2l-2.6875 4.8438-1.5156-0.84375 5.0938-9.2031 1.5156 0.84375-0.79688 1.4375c0.63281-0.375 1.2812-0.55469 1.9375-0.54688 0.65625 0 1.3477 0.20312 2.0781 0.60938 0.10156 0.054687 0.21094 0.12109 0.32812 0.20312 0.11328 0.085938 0.24219 0.1875 0.39062 0.3125z"/>
</symbol>
<symbol id="au" overflow="visible">
<path d="m12.391-4.7969-0.78125 1.4375c-0.3125-0.45703-0.67188-0.86719-1.0781-1.2344-0.39844-0.36328-0.83984-0.67969-1.3281-0.95312-0.75-0.41406-1.375-0.61328-1.875-0.59375-0.5 0.011719-0.88281 0.25-1.1406 0.71875-0.19922 0.34375-0.21875 0.69531-0.0625 1.0469 0.15625 0.35547 0.58594 0.84375 1.2969 1.4688l0.46875 0.39062c0.94531 0.83594 1.5312 1.5898 1.75 2.2656 0.21875 0.66406 0.11719 1.3672-0.29688 2.1094-0.46875 0.86328-1.1836 1.3516-2.1406 1.4688-0.94922 0.11328-2.0117-0.15234-3.1875-0.79688-0.49219-0.27344-0.98047-0.60547-1.4688-1-0.48047-0.38672-0.96094-0.84375-1.4375-1.375l0.85938-1.5625c0.39453 0.60547 0.82031 1.1328 1.2812 1.5781 0.45703 0.44531 0.95312 0.81641 1.4844 1.1094 0.70703 0.39453 1.3203 0.57031 1.8438 0.53125 0.53125-0.03125 0.91406-0.26562 1.1562-0.70312 0.22656-0.40625 0.26562-0.79297 0.10938-1.1562-0.15625-0.375-0.64844-0.92188-1.4688-1.6406l-0.46875-0.42188c-0.8125-0.71875-1.3203-1.3945-1.5156-2.0312-0.19922-0.64453-0.10156-1.3203 0.29688-2.0312 0.47656-0.875 1.1562-1.375 2.0312-1.5s1.8789 0.125 3.0156 0.75c0.55078 0.30469 1.0508 0.63672 1.5 1 0.44531 0.35547 0.83203 0.73047 1.1562 1.125z"/>
</symbol>
<symbol id="at" overflow="visible">
<path d="m13.109-4.2969-0.78125 1.4062c-0.30469-0.46875-0.63672-0.87891-1-1.2344-0.36719-0.35156-0.76562-0.64844-1.2031-0.89062-0.99219-0.53906-1.9297-0.64844-2.8125-0.32812-0.88672 0.3125-1.6367 1.0273-2.25 2.1406-0.625 1.125-0.83984 2.1523-0.64062 3.0781 0.19531 0.92578 0.78906 1.6602 1.7812 2.2031 0.4375 0.23828 0.89844 0.41406 1.3906 0.53125 0.48828 0.125 1.0156 0.1875 1.5781 0.1875l-0.76562 1.3906c-0.53125-0.03125-1.0547-0.125-1.5625-0.28125-0.5-0.15625-1.0078-0.375-1.5156-0.65625-1.3867-0.76172-2.25-1.8047-2.5938-3.125-0.33594-1.3203-0.089844-2.7227 0.73438-4.2031 0.82031-1.4883 1.8828-2.4375 3.1875-2.8438 1.3125-0.40625 2.6797-0.21094 4.1094 0.57812 0.46875 0.25 0.89453 0.54688 1.2812 0.89062 0.39453 0.34375 0.75 0.73047 1.0625 1.1562z"/>
</symbol>
<symbol id="as" overflow="visible">
<path d="m12.297-0.4375-3.0781 5.5469-1.5-0.82812 3.0469-5.5c0.47656-0.875 0.66406-1.625 0.5625-2.25-0.09375-0.625-0.48047-1.1172-1.1562-1.4844-0.82422-0.45703-1.6172-0.55469-2.375-0.29688-0.75 0.26172-1.375 0.84375-1.875 1.75l-2.875 5.1875-1.5156-0.84375 7.0781-12.781 1.5156 0.84375-2.7812 5.0156c0.66406-0.35156 1.3203-0.53125 1.9688-0.53125 0.64453-0.007813 1.2852 0.16406 1.9219 0.51562 1.0508 0.58594 1.6641 1.3555 1.8438 2.3125 0.17578 0.96094-0.085937 2.0742-0.78125 3.3438z"/>
</symbol>
<symbol id="ar" overflow="visible">
<path d="m5.7969-8.8125 1.5156 0.82812-2.0938 8.2344 5.8594-6.1406 1.7812 0.98438-2.0781 8.2344 5.8438-6.1406 1.5156 0.82812-7.5 7.875-1.7812-0.98438 2.1875-8.625-6.1562 6.4219-1.7812-0.98438z"/>
</symbol>
<symbol id="ab" overflow="visible">
<path d="m12.188 0.26562-0.40625 0.73438-6.9375-3.8438c-0.51172 1.0742-0.63672 2.0391-0.375 2.8906 0.26953 0.86328 0.89844 1.5703 1.8906 2.125 0.58203 0.32031 1.1875 0.5625 1.8125 0.71875s1.2812 0.23438 1.9688 0.23438l-0.79688 1.4375c-0.66797-0.0625-1.3203-0.19531-1.9531-0.39062-0.625-0.19922-1.2305-0.46094-1.8125-0.78125-1.4688-0.8125-2.4023-1.8867-2.7969-3.2188-0.38672-1.3203-0.17188-2.7109 0.64062-4.1719 0.83203-1.5 1.8984-2.4688 3.2031-2.9062 1.3008-0.4375 2.6445-0.26953 4.0312 0.5 1.2266 0.67969 1.9766 1.6172 2.25 2.8125 0.28125 1.1992 0.039062 2.4844-0.71875 3.8594zm-1.25-1.2656c0.44531-0.84375 0.57812-1.6328 0.39062-2.375-0.17969-0.73828-0.63672-1.3164-1.375-1.7344-0.84375-0.46875-1.6523-0.60156-2.4219-0.40625-0.76172 0.1875-1.418 0.69922-1.9688 1.5312z"/>
</symbol>
<symbol id="aa" overflow="visible">
<path d="m8.6562-11.906 1.5156 0.82812-7.0781 12.781-1.5156-0.82812z"/>
</symbol>
<symbol id="e" overflow="visible">
<path d="m0.625-4.0156h3.375v1.0156h-3.375z"/>
</symbol>
<symbol id="aq" overflow="visible">
<path d="m4.8438-8.2344-3.1875 4.9844h3.1875zm-0.32812-1.1094h1.5781v6.0938h1.3438v1.0469h-1.3438v2.2031h-1.25v-2.2031h-4.2188v-1.2188z"/>
</symbol>
<symbol id="z" overflow="visible">
<path d="m1.375-9.3438h4.9688v1.0625h-3.7969v2.2969c0.17578-0.0625 0.35156-0.10938 0.53125-0.14062 0.1875-0.03125 0.375-0.046875 0.5625-0.046875 1.0391 0 1.8633 0.28906 2.4688 0.85938 0.61328 0.57422 0.92188 1.3438 0.92188 2.3125 0 1.0117-0.3125 1.7969-0.9375 2.3594-0.625 0.55469-1.5078 0.82812-2.6406 0.82812-0.39844 0-0.79688-0.039062-1.2031-0.10938-0.40625-0.0625-0.82812-0.16016-1.2656-0.29688v-1.2656c0.375 0.19922 0.75781 0.35156 1.1562 0.45312 0.40625 0.10547 0.83203 0.15625 1.2812 0.15625 0.71875 0 1.2852-0.1875 1.7031-0.5625 0.42578-0.38281 0.64062-0.90625 0.64062-1.5625 0-0.64453-0.21484-1.1562-0.64062-1.5312-0.41797-0.38281-0.98438-0.57812-1.7031-0.57812-0.33594 0-0.67188 0.039063-1.0156 0.10938-0.33594 0.074219-0.67969 0.19531-1.0312 0.35938z"/>
</symbol>
<symbol id="ap" overflow="visible">
<path d="m5.2031-5.0312c0.60156 0.125 1.0703 0.39844 1.4062 0.8125 0.34375 0.40625 0.51562 0.90625 0.51562 1.5 0 0.92969-0.32031 1.6484-0.95312 2.1562-0.63672 0.5-1.5391 0.75-2.7031 0.75-0.38672 0-0.78906-0.042969-1.2031-0.125-0.41797-0.070312-0.85156-0.1875-1.2969-0.34375v-1.2188c0.35156 0.21094 0.73828 0.36719 1.1562 0.46875 0.41406 0.10547 0.85156 0.15625 1.3125 0.15625 0.78906 0 1.3945-0.15625 1.8125-0.46875 0.41406-0.32031 0.625-0.78125 0.625-1.375 0-0.55078-0.19922-0.97656-0.59375-1.2812-0.38672-0.3125-0.92188-0.46875-1.6094-0.46875h-1.0781v-1.0469h1.1406c0.61328 0 1.0859-0.11719 1.4219-0.35938 0.33203-0.25 0.5-0.60938 0.5-1.0781 0-0.47656-0.17188-0.84766-0.51562-1.1094-0.34375-0.25781-0.83594-0.39062-1.4688-0.39062-0.34375 0-0.71484 0.042969-1.1094 0.125-0.39844 0.074219-0.83594 0.1875-1.3125 0.34375v-1.125c0.48828-0.13281 0.94141-0.23438 1.3594-0.29688 0.41406-0.070312 0.8125-0.10938 1.1875-0.10938 0.95703 0 1.7109 0.21875 2.2656 0.65625 0.5625 0.4375 0.84375 1.0273 0.84375 1.7656 0 0.52344-0.15234 0.96094-0.45312 1.3125-0.29297 0.35547-0.71094 0.60547-1.25 0.75z"/>
</symbol>
<symbol id="y" overflow="visible">
<path d="m2.4531-1.0625h4.4219v1.0625h-5.9375v-1.0625c0.47656-0.5 1.1289-1.1641 1.9531-2 0.83203-0.83203 1.3516-1.3672 1.5625-1.6094 0.40625-0.45703 0.6875-0.84375 0.84375-1.1562 0.16406-0.32031 0.25-0.63281 0.25-0.9375 0-0.48828-0.17969-0.89062-0.53125-1.2031-0.34375-0.32031-0.79297-0.48438-1.3438-0.48438-0.39844 0-0.82031 0.074219-1.2656 0.21875-0.4375 0.13672-0.90625 0.34375-1.4062 0.625v-1.2812c0.50781-0.20703 0.98438-0.36328 1.4219-0.46875 0.44531-0.10156 0.85156-0.15625 1.2188-0.15625 0.96875 0 1.7383 0.24609 2.3125 0.73438 0.57031 0.48047 0.85938 1.125 0.85938 1.9375 0 0.38672-0.074219 0.75-0.21875 1.0938-0.13672 0.34375-0.39844 0.75-0.78125 1.2188-0.10547 0.11719-0.4375 0.46484-1 1.0469-0.55469 0.57422-1.3398 1.3828-2.3594 2.4219z"/>
</symbol>
<symbol id="x" overflow="visible">
<path d="m1.5938-1.0625h2.0625v-7.125l-2.25 0.45312v-1.1562l2.2344-0.45312h1.2656v8.2812h2.0625v1.0625h-5.375z"/>
</symbol>
<radialGradient id="ao" cx="242.07" cy="124" r="61.449" gradientTransform="matrix(1 0 0 .36274 0 79.019)" gradientUnits="userSpaceOnUse">
<stop stop-color="#ccc" offset="0"/>
<stop stop-color="#b3b3b3" offset="1"/>
</radialGradient>
</defs>
<path transform="matrix(2.1361 0 0 2.1357 0 .41051)" d="m181.45 120.61c5.1844-13.555 33.07-21.301 48.881-17.601 31.079 7.2723 61.54 7.8521 70.709 23.887 6.9656 12.18-3.8769 26.133-24.693 14.877-23.885-12.917-42.748-5.2878-49.414-3.4295-30.166 8.4136-49.183-8.0661-45.484-17.734z" fill="url(#ao)" stroke="#000" stroke-width=".75"/>
<path transform="matrix(2.1361 0 0 2.1357 0 .41051)" d="m93.751-1.6735e-4h261.45v206.25h-261.45z" fill="none" stroke="#000" stroke-width=".75"/>
<path transform="matrix(2.1361 0 0 2.1357 0 .41051)" d="m142.5 206.25v-206.25" fill="none" stroke="#000" stroke-width=".75"/>
<path transform="matrix(2.1361 0 0 2.1357 0 .41051)" d="m191.25 206.25v-206.25" fill="none" stroke="#000" stroke-width=".75"/>
<path transform="matrix(2.1361 0 0 2.1357 0 .41051)" d="m247.5 206.25v-206.25" fill="none" stroke="#000" stroke-width="1.5"/>
<path transform="matrix(2.1361 0 0 2.1357 0 .41051)" d="m303.75 206.25v-206.25" fill="none" stroke="#000" stroke-width=".75"/>
<path transform="matrix(2.1361 0 0 2.1357 0 .41051)" d="m111 206.25v-206.25" fill="none" stroke="#000" stroke-width=".75"/>
<path transform="matrix(2.1361 0 0 2.1357 0 .41051)" d="m167.25 206.25v-206.25" fill="none" stroke="#000" stroke-width="1.5"/>
<path transform="matrix(2.1361 0 0 2.1357 0 .41051)" d="m222.75 206.25v-206.25" fill="none" stroke="#000" stroke-width=".75"/>
<path transform="matrix(2.1361 0 0 2.1357 0 .41051)" d="m272.25 206.25v-206.25" fill="none" stroke="#000" stroke-width=".75"/>
<path transform="matrix(2.1361 0 0 2.1357 0 .41051)" d="m326.25 206.25v-206.25" fill="none" stroke="#000" stroke-width="1.5"/>
<path transform="matrix(2.1361 0 0 2.1357 0 .41051)" d="m93.751 26.25h261.45" fill="none" stroke="#000" stroke-width=".75"/>
<path transform="matrix(2.1361 0 0 2.1357 0 .41051)" d="m93.751 51.001h261.45" fill="none" stroke="#000" stroke-width=".75"/>
<path transform="matrix(2.1361 0 0 2.1357 0 .41051)" d="m93.751 75h261.45" fill="none" stroke="#000" stroke-width=".75"/>
<path transform="matrix(2.1361 0 0 2.1357 0 .41051)" d="m93.751 98.251h261.45" fill="none" stroke="#000" stroke-width=".75"/>
<path transform="matrix(2.1361 0 0 2.1357 0 .41051)" d="m93.751 123h261.45" fill="none" stroke="#000" stroke-width=".75"/>
<path transform="matrix(2.1361 0 0 2.1357 0 .41051)" d="m93.751 146.25h261.45" fill="none" stroke="#000" stroke-width=".75"/>
<path transform="matrix(2.1361 0 0 2.1357 0 .41051)" d="m93.751 171h261.45" fill="none" stroke="#000" stroke-width=".75"/>
<path transform="matrix(2.1361 0 0 2.1357 0 .41051)" d="m91.143 195.75h264.05" fill="none" stroke="#000" stroke-width=".75"/>
<g>
<use x="792.932344" y="362.496094" xlink:href="#an"/>
<use x="792.932344" y="349.68202" xlink:href="#j"/>
<use x="792.932344" y="334.732267" xlink:href="#q"/>
<use x="792.932344" y="319.782514" xlink:href="#ak"/>
<use x="792.932344" y="311.239797" xlink:href="#bv"/>
<use x="792.932344" y="298.425723" xlink:href="#ak"/>
<use x="792.932344" y="289.883007" xlink:href="#bu"/>
<use x="792.932344" y="274.933254" xlink:href="#p"/>
<use x="792.932344" y="264.254859" xlink:href="#o"/>
<use x="792.932344" y="251.440785" xlink:href="#h"/>
<use x="792.932344" y="236.491032" xlink:href="#am"/>
<use x="792.932344" y="221.541279" xlink:href="#h"/>
<use x="792.932344" y="206.591526" xlink:href="#al"/>
<use x="792.932344" y="191.641773" xlink:href="#h"/>
<use x="792.932344" y="176.69202" xlink:href="#f"/>
<use x="792.932344" y="170.284983" xlink:href="#k"/>
<use x="792.932344" y="163.877946" xlink:href="#w"/>
<use x="792.932344" y="155.33523" xlink:href="#v"/>
<use x="792.932344" y="140.385476" xlink:href="#u"/>
<use x="792.932344" y="125.435723" xlink:href="#by"/>
<use x="792.932344" y="110.48597" xlink:href="#bx"/>
<use x="792.932344" y="95.536217" xlink:href="#t"/>
</g>
<g>
<use x="226.171875" y="464.679398" xlink:href="#d"/>
<use x="236.852212" y="464.679398" xlink:href="#a"/>
</g>
<g>
<use x="293.425781" y="464.679398" xlink:href="#n"/>
<use x="304.106118" y="464.679398" xlink:href="#a"/>
</g>
<g>
<use x="340.578125" y="464.679398" xlink:href="#m"/>
<use x="353.394529" y="464.679398" xlink:href="#c"/>
<use x="366.210934" y="464.679398" xlink:href="#c"/>
</g>
<g>
<use x="392.15625" y="464.679398" xlink:href="#d"/>
<use x="402.836587" y="464.679398" xlink:href="#a"/>
<use x="413.516924" y="464.679398" xlink:href="#a"/>
</g>
<g>
<use x="459.410156" y="464.679398" xlink:href="#n"/>
<use x="470.090493" y="464.679398" xlink:href="#a"/>
<use x="480.77083" y="464.679398" xlink:href="#a"/>
</g>
<g>
<use x="506.5625" y="464.679398" xlink:href="#m"/>
<use x="519.378904" y="464.679398" xlink:href="#c"/>
<use x="532.195309" y="464.679398" xlink:href="#c"/>
<use x="545.011713" y="464.679398" xlink:href="#c"/>
</g>
<g>
<use x="559.742188" y="464.679398" xlink:href="#d"/>
<use x="570.422524" y="464.679398" xlink:href="#a"/>
<use x="581.102861" y="464.679398" xlink:href="#a"/>
<use x="591.783198" y="464.679398" xlink:href="#a"/>
</g>
<g>
<use x="623.789062" y="464.679398" xlink:href="#n"/>
<use x="634.469399" y="464.679398" xlink:href="#a"/>
<use x="645.149736" y="464.679398" xlink:href="#a"/>
<use x="655.830073" y="464.679398" xlink:href="#a"/>
</g>
<g>
<use x="675.75" y="464.679398" xlink:href="#m"/>
<use x="688.566404" y="464.679398" xlink:href="#c"/>
<use x="701.382809" y="464.679398" xlink:href="#c"/>
<use x="714.199213" y="464.679398" xlink:href="#c"/>
<use x="727.015617" y="464.679398" xlink:href="#c"/>
</g>
<g>
<use x="386.757813" y="524.105981" xlink:href="#bm"/>
<use x="399.574217" y="524.105981" xlink:href="#bj"/>
<use x="408.118486" y="524.105981" xlink:href="#ag"/>
<use x="423.070958" y="524.105981" xlink:href="#bi"/>
<use x="438.02343" y="524.105981" xlink:href="#bh"/>
<use x="452.975902" y="524.105981" xlink:href="#ag"/>
<use x="467.928373" y="524.105981" xlink:href="#bg"/>
<use x="482.880845" y="524.105981" xlink:href="#af"/>
<use x="495.697249" y="524.105981" xlink:href="#bf"/>
<use x="502.105451" y="524.105981" xlink:href="#be"/>
<use x="510.649721" y="524.105981" xlink:href="#bl"/>
<use x="527.73826" y="524.105981" xlink:href="#af"/>
<use x="540.554664" y="524.105981" xlink:href="#bk"/>
</g>
<path transform="matrix(2.1361 0 0 2.1357 0 .41051)" d="m204.75 206.25v24.635" fill="none" stroke="#000" stroke-width=".75"/>
<path transform="matrix(2.1361 0 0 2.1357 0 .41051)" d="m285.75 206.25v24.751" fill="none" stroke="#000" stroke-width=".75"/>
<path transform="matrix(2.1361 0 0 2.1357 0 .41051)" d="m284.25 228.39h-78" fill="none" stroke="#000" stroke-width=".75"/>
<path d="m598.8 484.3 10.504 3.8633-10.504 3.8594c1.6758-2.2773 1.668-5.3984 0-7.7227z" fill-rule="evenodd"/>
<path d="m448.95 492.05-10.504-3.8594 10.504-3.8633c-1.6797 2.2812-1.668 5.3984 0 7.7227z" fill-rule="evenodd"/>
<g>
<use x="486.484375" y="482.831741" xlink:href="#br"/>
<use x="495.028645" y="482.831741" xlink:href="#ah"/>
<use x="505.708981" y="482.831741" xlink:href="#bq"/>
<use x="509.981116" y="482.831741" xlink:href="#ah"/>
<use x="520.661453" y="482.831741" xlink:href="#bp"/>
<use x="531.34179" y="482.831741" xlink:href="#bo"/>
<use x="542.022127" y="482.831741" xlink:href="#bn"/>
<use x="552.702464" y="482.831741" xlink:href="#bt"/>
</g>
<g>
<use x="150.666719" y="385.667969" xlink:href="#s"/>
<use x="150.666719" y="370.718216" xlink:href="#i"/>
<use x="150.666719" y="357.904142" xlink:href="#u"/>
<use x="150.666719" y="342.954389" xlink:href="#j"/>
<use x="150.666719" y="328.004635" xlink:href="#f"/>
<use x="150.666719" y="321.597598" xlink:href="#f"/>
<use x="150.666719" y="315.190561" xlink:href="#r"/>
<use x="150.666719" y="300.240808" xlink:href="#p"/>
<use x="150.666719" y="289.562413" xlink:href="#q"/>
<use x="150.666719" y="274.61266" xlink:href="#i"/>
<use x="150.666719" y="261.798586" xlink:href="#o"/>
<use x="150.666719" y="248.984512" xlink:href="#am"/>
<use x="150.666719" y="234.034759" xlink:href="#h"/>
<use x="150.666719" y="219.085006" xlink:href="#al"/>
<use x="150.666719" y="204.135253" xlink:href="#h"/>
<use x="150.666719" y="189.1855" xlink:href="#f"/>
<use x="150.666719" y="182.778463" xlink:href="#k"/>
<use x="150.666719" y="176.371426" xlink:href="#w"/>
<use x="150.666719" y="167.828709" xlink:href="#r"/>
<use x="150.666719" y="152.878956" xlink:href="#bw"/>
<use x="150.666719" y="135.793524" xlink:href="#k"/>
<use x="150.666719" y="129.386487" xlink:href="#s"/>
<use x="150.666719" y="114.436734" xlink:href="#v"/>
<use x="150.666719" y="99.486981" xlink:href="#an"/>
<use x="150.666719" y="86.672907" xlink:href="#t"/>
</g>
<g>
<use x="181.917969" y="423.702835" xlink:href="#a"/>
</g>
<g>
<use x="171.046875" y="371.831741" xlink:href="#d"/>
<use x="181.727212" y="371.831741" xlink:href="#a"/>
</g>
<g>
<use x="171.046875" y="318.972366" xlink:href="#g"/>
<use x="181.727212" y="318.972366" xlink:href="#a"/>
</g>
<g>
<use x="171.046875" y="269.320023" xlink:href="#aj"/>
<use x="181.727212" y="269.320023" xlink:href="#a"/>
</g>
<g>
<use x="171.046875" y="216.460648" xlink:href="#ai"/>
<use x="181.727212" y="216.460648" xlink:href="#a"/>
</g>
<g>
<use x="160.171875" y="166.804398" xlink:href="#b"/>
<use x="170.852212" y="166.804398" xlink:href="#a"/>
<use x="181.532549" y="166.804398" xlink:href="#a"/>
</g>
<g>
<use x="160.171875" y="115.550491" xlink:href="#b"/>
<use x="170.852212" y="115.550491" xlink:href="#d"/>
<use x="181.532549" y="115.550491" xlink:href="#a"/>
</g>
<g>
<use x="160.171875" y="62.691116" xlink:href="#b"/>
<use x="170.852212" y="62.691116" xlink:href="#g"/>
<use x="181.532549" y="62.691116" xlink:href="#a"/>
</g>
<path transform="matrix(2.1361 0 0 2.1357 0 .41051)" d="m82.5 195h-51.001" fill="none" stroke="#000" stroke-width=".75"/>
<path transform="matrix(2.1361 0 0 2.1357 0 .41051)" d="m41.25 202.5h-5.2502v-169.5h5.2502" fill="none" stroke="#000" stroke-width=".75"/>
<g>
<use x="28.631563" y="335.910156" xlink:href="#s"/>
<use x="28.631563" y="320.960403" xlink:href="#i"/>
<use x="28.631563" y="308.146329" xlink:href="#u"/>
<use x="28.631563" y="293.196576" xlink:href="#j"/>
<use x="28.631563" y="278.246823" xlink:href="#f"/>
<use x="28.631563" y="271.839786" xlink:href="#f"/>
<use x="28.631563" y="265.432749" xlink:href="#r"/>
<use x="28.631563" y="250.482996" xlink:href="#p"/>
<use x="28.631563" y="239.804601" xlink:href="#q"/>
<use x="28.631563" y="224.854848" xlink:href="#i"/>
<use x="28.631563" y="212.040774" xlink:href="#o"/>
<use x="28.631563" y="199.226699" xlink:href="#k"/>
<use x="28.631563" y="192.819662" xlink:href="#w"/>
<use x="28.631563" y="184.276946" xlink:href="#v"/>
<use x="28.631563" y="171.462872" xlink:href="#j"/>
<use x="28.631563" y="156.513119" xlink:href="#t"/>
</g>
<path d="m380.67 41.008c0 7.9961-10.113 14.477-22.59 14.477s-22.59-6.4805-22.59-14.477c0-8 10.113-14.48 22.59-14.48s22.59 6.4805 22.59 14.48z" fill="#fff"/>
<path d="m426.12 53.82c0 7.9961-10.113 14.48-22.59 14.48-12.48 0-22.594-6.4844-22.594-14.48 0-7.9961 10.113-14.48 22.594-14.48 12.477 0 22.59 6.4844 22.59 14.48z" fill="#fff"/>
<path d="m467.97 57.023c0 7.9961-10.113 14.48-22.59 14.48-12.477 0-22.594-6.4844-22.594-14.48 0-7.9961 10.117-14.48 22.594-14.48 12.477 0 22.59 6.4844 22.59 14.48z" fill="#fff"/>
<path d="m496.81 60.227c0 7.9961-10.117 14.48-22.594 14.48-12.477 0-22.59-6.4844-22.59-14.48 0-7.9961 10.113-14.48 22.59-14.48 12.477 0 22.594 6.4844 22.594 14.48z" fill="#fff"/>
<g>
<use x="325.274622" y="46.415703" xlink:href="#bd"/>
<use x="337.97673" y="48.123216" xlink:href="#ad"/>
<use x="348.561821" y="49.546144" xlink:href="#ac"/>
<use x="361.263929" y="51.253657" xlink:href="#bc"/>
<use x="380.317092" y="53.814927" xlink:href="#l"/>
<use x="393.0192" y="55.52244" xlink:href="#bb"/>
<use x="401.487272" y="56.660782" xlink:href="#ba"/>
<use x="412.072363" y="58.08371" xlink:href="#az"/>
<use x="422.657453" y="59.506637" xlink:href="#ad"/>
<use x="433.242543" y="60.929565" xlink:href="#ac"/>
<use x="445.944652" y="62.637078" xlink:href="#ay"/>
<use x="460.763778" y="64.629177" xlink:href="#l"/>
<use x="473.465887" y="66.33669" xlink:href="#ae"/>
<use x="477.699923" y="66.905861" xlink:href="#ae"/>
<use x="481.933959" y="67.475032" xlink:href="#l"/>
</g>
<path d="m374.93 370.54c0 7.9961-10.117 14.48-22.594 14.48-12.477 0-22.59-6.4844-22.59-14.48 0-7.9961 10.113-14.48 22.59-14.48 12.477 0 22.594 6.4844 22.594 14.48z" fill="#fff"/>
<path d="m424.07 398.99c0 5.7852-7.3203 10.477-16.344 10.477-9.0273 0-16.344-4.6914-16.344-10.477 0-5.7812 7.3164-10.473 16.344-10.473 9.0234 0 16.344 4.6914 16.344 10.473z" fill="#fff"/>
<g>
<use x="309.907789" y="352.453399" xlink:href="#ax"/>
<use x="322.98732" y="359.697928" xlink:href="#aw"/>
<use x="334.198347" y="365.907523" xlink:href="#av"/>
<use x="341.672364" y="370.047254" xlink:href="#au"/>
<use x="351.014886" y="375.221917" xlink:href="#at"/>
<use x="360.357408" y="380.39658" xlink:href="#as"/>
<use x="371.568435" y="386.606176" xlink:href="#ar"/>
<use x="384.647966" y="393.850705" xlink:href="#ab"/>
<use x="395.858992" y="400.060301" xlink:href="#aa"/>
<use x="399.596001" y="402.130166" xlink:href="#aa"/>
<use x="403.33301" y="404.200031" xlink:href="#ab"/>
</g>
<path transform="matrix(2.1361 0 0 2.1357 0 .41051)" d="m36 177.74h5.2502" fill="none" stroke="#000" stroke-width=".75"/>
<path transform="matrix(2.1361 0 0 2.1357 0 .41051)" d="m36 153.75h5.2502" fill="none" stroke="#000" stroke-width=".75"/>
<path transform="matrix(2.1361 0 0 2.1357 0 .41051)" d="m36 129h5.2502" fill="none" stroke="#000" stroke-width=".75"/>
<path transform="matrix(2.1361 0 0 2.1357 0 .41051)" d="m36 105.07h5.2502" fill="none" stroke="#000" stroke-width=".75"/>
<path transform="matrix(2.1361 0 0 2.1357 0 .41051)" d="m36 81.334h5.2502" fill="none" stroke="#000" stroke-width=".75"/>
<path transform="matrix(2.1361 0 0 2.1357 0 .41051)" d="m36 57h5.2502" fill="none" stroke="#000" stroke-width=".75"/>
<g>
<use x="35.691406" y="386.245804" xlink:href="#b"/>
<use x="46.371743" y="386.245804" xlink:href="#a"/>
</g>
<g>
<use x="56.136719" y="376.691189" xlink:href="#e"/>
<use x="60.408854" y="376.691189" xlink:href="#aq"/>
</g>
<g>
<use x="35.691406" y="441.441116" xlink:href="#b"/>
<use x="46.371743" y="441.441116" xlink:href="#a"/>
</g>
<g>
<use x="56.136719" y="431.882595" xlink:href="#e"/>
<use x="60.408854" y="431.882595" xlink:href="#z"/>
</g>
<g>
<use x="35.691406" y="335.140335" xlink:href="#b"/>
<use x="46.371743" y="335.140335" xlink:href="#a"/>
</g>
<g>
<use x="56.136719" y="325.581814" xlink:href="#e"/>
<use x="60.408854" y="325.581814" xlink:href="#ap"/>
</g>
<g>
<use x="35.691406" y="282.714554" xlink:href="#b"/>
<use x="46.371743" y="282.714554" xlink:href="#a"/>
</g>
<g>
<use x="56.136719" y="273.156033" xlink:href="#e"/>
<use x="60.408854" y="273.156033" xlink:href="#y"/>
</g>
<g>
<use x="35.691406" y="230.87471" xlink:href="#b"/>
<use x="46.371743" y="230.87471" xlink:href="#a"/>
</g>
<g>
<use x="56.136719" y="221.320095" xlink:href="#e"/>
<use x="60.408854" y="221.320095" xlink:href="#x"/>
</g>
<g>
<use x="47.007812" y="182.823929" xlink:href="#b"/>
</g>
<g>
<use x="35.691406" y="128.308304" xlink:href="#b"/>
<use x="46.371743" y="128.308304" xlink:href="#a"/>
</g>
<g>
<use x="61.226562" y="118.753689" xlink:href="#x"/>
</g>
<g>
<use x="35.691406" y="78.710648" xlink:href="#b"/>
<use x="46.371743" y="78.710648" xlink:href="#a"/>
</g>
<g>
<use x="61.324219" y="69.152126" xlink:href="#y"/>
</g>
<g>
<use x="19.390625" y="421.777054" xlink:href="#d"/>
<use x="30.070962" y="421.777054" xlink:href="#bs"/>
<use x="36.479164" y="421.777054" xlink:href="#b"/>
<use x="47.159501" y="421.777054" xlink:href="#a"/>
</g>
<g>
<use x="56.136719" y="412.218533" xlink:href="#e"/>
<use x="60.408854" y="412.218533" xlink:href="#z"/>
</g>
<g>
<use x="721.523438" y="48.222366" xlink:href="#b"/>
<use x="732.203774" y="48.222366" xlink:href="#g"/>
<use x="742.884111" y="48.222366" xlink:href="#a"/>
</g>
<g>
<use x="721.523438" y="78.710648" xlink:href="#b"/>
<use x="732.203774" y="78.710648" xlink:href="#d"/>
<use x="742.884111" y="78.710648" xlink:href="#a"/>
</g>
<g>
<use x="721.523438" y="145.929398" xlink:href="#b"/>
<use x="732.203774" y="145.929398" xlink:href="#a"/>
<use x="742.884111" y="145.929398" xlink:href="#a"/>
</g>
<g>
<use x="732.394531" y="226.015335" xlink:href="#ai"/>
<use x="743.074868" y="226.015335" xlink:href="#a"/>
</g>
<g>
<use x="732.394531" y="277.327835" xlink:href="#aj"/>
<use x="743.074868" y="277.327835" xlink:href="#a"/>
</g>
<g>
<use x="732.394531" y="309.308304" xlink:href="#g"/>
<use x="743.074868" y="309.308304" xlink:href="#a"/>
</g>
<g>
<use x="732.394531" y="344.601273" xlink:href="#d"/>
<use x="743.074868" y="344.601273" xlink:href="#a"/>
</g>
<g>
<use x="743.089844" y="384.644241" xlink:href="#g"/>
</g>
<path transform="matrix(2.1361 0 0 2.1357 0 .41051)" d="m112.09 11.92c50.01 28.901 124.56 22.609 142.02 27.906 19.156 5.8109 31.055 28.804 42.686 17.958 8.0994-7.554 14.004-16.244 23.762-23.693 4.0433-3.0893 8.4998-9.9317 8.4998-9.9317" fill="none" stroke="#000" stroke-dasharray="5,5" stroke-linecap="round" stroke-linejoin="bevel" stroke-width="2.5"/>
<path transform="matrix(2.1361 0 0 2.1357 0 .41051)" d="m111.25 108.97c22.179 30.68 51.047 57.73 86.145 72.79 17.265 7.4076 36.238 10.601 55.024 8.9861 10.577-0.90904 21.934 4.0733 31.79 8.099 11.278 4.6074 20.167-3.9014 26.774-11.973 4.5718-5.5859 14.441-18.942 20.216-9.6263 1.5306 2.4692 4.2627 4.4226 7.8251-0.32557" fill="none" stroke="#000" stroke-dasharray="5,5" stroke-linecap="round" stroke-linejoin="bevel" stroke-width="2.5"/>
<path transform="matrix(2.1361 0 0 2.1357 0 .41051)" d="m111.25 99.895c22.179 30.68 51.067 52.874 86.145 67.982 17.285 7.3582 48.336 1.5529 60.753 3.3325 11.343 1.5821 15.398 1.5382 27.211 7.0638 8.957 3.8959 17.212 1.615 23.894-6.3504 4.4749-5.6627 11.726-17.25 17.29-11.018 9.4032 11.035 10.265 6.0523 13.231-1.9937" fill="none" stroke="#000" stroke-linecap="round" stroke-width="2.5"/>
<path transform="matrix(2.1361 0 0 2.1357 0 .41051)" d="m111.25 87.218c27.272 28.999 49.993 47.612 86.088 60.097 27.661 9.5677 51.678-4.1702 64.084-2.3192 9.4288 1.4047 11.278 3.2703 23.27 8.399 8.6023 3.68 19.975 0.10791 25.567-7.3198 4.3414-5.7651 11.616-12.326 17.755-5.3061 8.1268 9.297 7.4776 9.2495 11.76 3.146" fill="none" stroke="#000" stroke-linecap="round" stroke-width="2.5"/>
<path transform="matrix(2.1361 0 0 2.1357 0 .41051)" d="m111.25 75.567c28.217 27.079 54.605 40.237 86.088 49.529 28.073 8.2837 51.359-6.0779 64.084-3.6233 9.3593 1.8053 11.395 4.4921 23.386 9.6208 8.6041 3.68 19.664-0.56335 25.452-7.8393 4.1183-5.178 12.788-11.225 18.413-3.7861 4.281 5.6609 6.8412 9.158 10.42 4.9055" fill="none" stroke="#000" stroke-linecap="round" stroke-width="2.5"/>
<path transform="matrix(2.1361 0 0 2.1357 0 .41051)" d="m111.25 60.717c32.297 26.975 54.605 32.833 86.088 42.123 28.073 8.2837 46.343-8.088 64.084-4.5397 11.503 2.2991 17.448 7.2522 23.598 10.166 12.11 5.7377 19.192-2.4857 25.45-9.361 4.1987-4.611 12.422-9.6226 18.24-4.066 4.3779 4.183 6.8302 9.4086 10.383 6.5498" fill="none" stroke="#000" stroke-linecap="round" stroke-width="2.5"/>
<path transform="matrix(2.1361 0 0 2.1357 0 .41051)" d="m111.25 41.362c19.6 22.08 68.438 32.138 86.088 36.005 28.59 6.2645 44.099-6.8662 64.084-0.32008 17.157 5.6207 17.448 7.4643 23.598 10.378 12.11 5.7377 19.163-3.6361 25.45-10.486 3.7617-4.0971 12.558-11.146 18.454-8.5252 2.7193 1.209 4.1804 1.573 8.2566-1.3535" fill="none" stroke="#000" stroke-linecap="round" stroke-width="2.5"/>
<path transform="matrix(2.1361 0 0 2.1357 0 .41051)" d="m111.25 20.637c28.091 24.114 68.162 25.993 86.088 28.257 28.374 3.5831 44.099-1.2273 64.084 5.3189 12.766 4.1812 18.933 10.111 25.083 13.026 12.11 5.7377 19.165-10.052 25.452-16.902 3.7617-4.0971 10.528-8.9934 15.694-12.895 1.1978-0.90538 3.4819-2.9173 3.8824-7.0619" fill="none" stroke="#000" stroke-linecap="round" stroke-width="2.5"/>
</svg>
