<?xml version="1.0" encoding="UTF-8"?>
<svg width="800px" height="545px" version="1.1" viewBox="0 0 800 545" xmlns="http://www.w3.org/2000/svg" xmlns:xlink="http://www.w3.org/1999/xlink">
<defs>
<symbol id="ah" overflow="visible">
<path d="m-16.938-2.2812v-2.2969h15.016v-8.25h1.9219v10.547z"/>
</symbol>
<symbol id="m" overflow="visible">
<path d="m-11.25-7.125c0 1.125 0.4375 2.0156 1.3125 2.6719 0.875 0.64844 2.0742 0.96875 3.5938 0.96875 1.5234 0 2.7188-0.32031 3.5938-0.96875 0.875-0.64453 1.3125-1.5352 1.3125-2.6719 0-1.1016-0.4375-1.9766-1.3125-2.625-0.88281-0.65625-2.082-0.98438-3.5938-0.98438-1.5 0-2.6914 0.32812-3.5781 0.98438-0.88281 0.64844-1.3281 1.5234-1.3281 2.625zm-1.7656 0c0-1.8125 0.59375-3.2344 1.7812-4.2656 1.1797-1.0391 2.8086-1.5625 4.8906-1.5625 2.0859 0 3.7188 0.52344 4.9062 1.5625 1.1797 1.0312 1.7656 2.4531 1.7656 4.2656 0 1.8359-0.58594 3.2656-1.7656 4.2969-1.1875 1.0312-2.8203 1.5469-4.9062 1.5469-2.082 0-3.7109-0.51562-4.8906-1.5469-1.1875-1.0312-1.7812-2.4609-1.7812-4.2969z"/>
</symbol>
<symbol id="i" overflow="visible">
<path d="m-5.0156-1.9688h-7.6875v-2.0938h7.6094c1.1992 0 2.1016-0.23438 2.7031-0.70312 0.60547-0.46875 0.90625-1.1719 0.90625-2.1094 0-1.1328-0.35938-2.0234-1.0781-2.6719-0.71875-0.65625-1.6953-0.98438-2.9375-0.98438h-7.2031v-2.0938h12.703v2.0938h-1.9531c0.77344 0.5 1.3438 1.0898 1.7188 1.7656 0.375 0.66797 0.5625 1.4453 0.5625 2.3281 0 1.4609-0.45312 2.5703-1.3594 3.3281-0.90625 0.76172-2.2344 1.1406-3.9844 1.1406z"/>
</symbol>
<symbol id="l" overflow="visible">
<path d="m-10.781-10.562h-6.875v-2.0781h17.656v2.0781h-1.9062c0.76172 0.4375 1.3242 0.99609 1.6875 1.6719 0.36328 0.66797 0.54688 1.4688 0.54688 2.4062 0 1.543-0.60938 2.7969-1.8281 3.7656-1.2266 0.96094-2.8438 1.4375-4.8438 1.4375s-3.6094-0.47656-4.8281-1.4375c-1.2266-0.96875-1.8438-2.2227-1.8438-3.7656 0-0.9375 0.1875-1.7383 0.5625-2.4062 0.36719-0.67578 0.92188-1.2344 1.6719-1.6719zm4.4375 7.125c1.543 0 2.75-0.3125 3.625-0.9375 0.86719-0.63281 1.2969-1.5078 1.2969-2.625 0-1.1016-0.42969-1.9727-1.2969-2.6094-0.875-0.63281-2.082-0.95312-3.625-0.95312-1.5312 0-2.7344 0.32031-3.6094 0.95312-0.875 0.63672-1.3125 1.5078-1.3125 2.6094 0 1.1172 0.4375 1.9922 1.3125 2.625 0.875 0.625 2.0781 0.9375 3.6094 0.9375z"/>
</symbol>
<symbol id="k" overflow="visible">
<path d="m-7.6719-12.766h7.6719v2.0938h-7.5938c-1.207 0-2.1094 0.23438-2.7031 0.70312-0.60156 0.46875-0.90625 1.1719-0.90625 2.1094 0 1.125 0.35938 2.0156 1.0781 2.6719 0.71875 0.64844 1.6992 0.96875 2.9375 0.96875h7.1875v2.1094h-12.703v-2.1094h1.9688c-0.75781-0.5-1.3281-1.0859-1.7031-1.7656-0.38281-0.67578-0.57812-1.457-0.57812-2.3438 0-1.457 0.45312-2.5625 1.3594-3.3125s2.2344-1.125 3.9844-1.125z"/>
</symbol>
<symbol id="f" overflow="visible">
<path d="m-6.875-13.062h1.0156v9.5938c1.4375-0.082031 2.5391-0.50781 3.2969-1.2812 0.75-0.78125 1.125-1.8633 1.125-3.25 0-0.80078-0.097656-1.5781-0.29688-2.3281-0.19531-0.75781-0.49219-1.5078-0.89062-2.25h1.9844c0.3125 0.75 0.55469 1.5234 0.71875 2.3125 0.16406 0.78125 0.25 1.5781 0.25 2.3906 0 2.0234-0.58594 3.625-1.7656 4.8125-1.1758 1.1875-2.7734 1.7812-4.7969 1.7812-2.0703 0-3.7188-0.5625-4.9375-1.6875-1.2266-1.125-1.8438-2.6406-1.8438-4.5469 0-1.707 0.55469-3.0547 1.6562-4.0469 1.0938-1 2.5898-1.5 4.4844-1.5zm-0.60938 2.0781c-1.1445 0.023437-2.0547 0.34375-2.7344 0.96875-0.6875 0.625-1.0312 1.4531-1.0312 2.4844 0 1.1562 0.33594 2.0898 1 2.7969 0.65625 0.69922 1.5859 1.1016 2.7812 1.2031z"/>
</symbol>
<symbol id="h" overflow="visible">
<path d="m-12.328-10.297h1.9688c-0.30078 0.59375-0.52344 1.2109-0.67188 1.8438-0.15625 0.63672-0.23438 1.293-0.23438 1.9688 0 1.043 0.16406 1.8242 0.48438 2.3438 0.3125 0.51172 0.78906 0.76562 1.4219 0.76562 0.48047 0 0.85938-0.17969 1.1406-0.54688 0.27344-0.375 0.53125-1.125 0.78125-2.25l0.17188-0.70312c0.3125-1.4883 0.76172-2.5469 1.3438-3.1719 0.57422-0.625 1.3828-0.9375 2.4219-0.9375 1.1797 0 2.1094 0.46875 2.7969 1.4062s1.0312 2.2266 1.0312 3.8594c0 0.67969-0.070313 1.3867-0.20312 2.125-0.125 0.74219-0.32031 1.5156-0.59375 2.3281h-2.1562c0.40625-0.76953 0.71094-1.5312 0.90625-2.2812 0.19922-0.75 0.29688-1.4883 0.29688-2.2188 0-0.98828-0.16406-1.7422-0.5-2.2656-0.33203-0.53125-0.80469-0.79688-1.4219-0.79688-0.57031 0-1.0078 0.19531-1.3125 0.57812-0.30078 0.375-0.59375 1.2109-0.875 2.5l-0.15625 0.73438c-0.28125 1.293-0.70312 2.2305-1.2656 2.8125-0.5625 0.57422-1.332 0.85938-2.3125 0.85938-1.1953 0-2.1172-0.42188-2.7656-1.2656-0.65625-0.85156-0.98438-2.0625-0.98438-3.625 0-0.76953 0.058594-1.4922 0.17188-2.1719 0.11719-0.6875 0.28906-1.3164 0.51562-1.8906z"/>
</symbol>
<symbol id="e" overflow="visible"></symbol>
<symbol id="r" overflow="visible">
<path d="m-17.656-2v-4.8125h1.625v2.7188h17.469v-2.7188h1.625v4.8125z"/>
</symbol>
<symbol id="u" overflow="visible">
<path d="m-15.062-4.5781h6.375v-2.875c0-1.0703-0.27344-1.8984-0.82812-2.4844-0.55078-0.58203-1.3359-0.875-2.3594-0.875-1.0078 0-1.7891 0.29297-2.3438 0.875-0.5625 0.58594-0.84375 1.4141-0.84375 2.4844zm-1.875 2.2969v-5.1719c0-1.9062 0.43359-3.3438 1.2969-4.3125 0.85547-0.96875 2.1094-1.4531 3.7656-1.4531 1.668 0 2.9297 0.48438 3.7812 1.4531 0.85547 0.96875 1.2812 2.4062 1.2812 4.3125v2.875h6.8125v2.2969z"/>
</symbol>
<symbol id="cf" overflow="visible">
<path d="m-7.6719-12.766h7.6719v2.0938h-7.5938c-1.207 0-2.1094 0.23438-2.7031 0.70312-0.60156 0.46875-0.90625 1.1719-0.90625 2.1094 0 1.125 0.35938 2.0156 1.0781 2.6719 0.71875 0.64844 1.6992 0.96875 2.9375 0.96875h7.1875v2.1094h-17.656v-2.1094h6.9219c-0.75781-0.5-1.3281-1.0859-1.7031-1.7656-0.38281-0.67578-0.57812-1.457-0.57812-2.3438 0-1.457 0.45312-2.5625 1.3594-3.3125s2.2344-1.125 3.9844-1.125z"/>
</symbol>
<symbol id="t" overflow="visible">
<path d="m-17.656-7.0781h20.719v4.8125h-1.625v-2.7031h-17.469v2.7031h-1.625z"/>
</symbol>
<symbol id="s" overflow="visible">
<path d="m-16.375-12.438h2.2344c-0.41406 0.86719-0.72656 1.6836-0.9375 2.4531-0.20703 0.77344-0.3125 1.5156-0.3125 2.2344 0 1.25 0.24609 2.2148 0.73438 2.8906 0.48047 0.67969 1.168 1.0156 2.0625 1.0156 0.75 0 1.3203-0.22266 1.7031-0.67188 0.375-0.44531 0.68359-1.3008 0.92188-2.5625l0.28125-1.375c0.32422-1.707 0.89844-2.9688 1.7188-3.7812 0.82422-0.82031 1.9219-1.2344 3.2969-1.2344 1.6367 0 2.8828 0.55469 3.7344 1.6562 0.84375 1.1055 1.2656 2.7188 1.2656 4.8438 0 0.80469-0.09375 1.6562-0.28125 2.5625-0.17578 0.90625-0.44141 1.8438-0.79688 2.8125h-2.3594c0.52344-0.9375 0.91797-1.8477 1.1875-2.7344 0.26172-0.89453 0.39062-1.7734 0.39062-2.6406 0-1.3125-0.25391-2.3203-0.76562-3.0312-0.51953-0.70703-1.2539-1.0625-2.2031-1.0625-0.83203 0-1.4844 0.25781-1.9531 0.76562-0.46875 0.51172-0.82031 1.3516-1.0625 2.5156l-0.26562 1.3906c-0.34375 1.7109-0.875 2.9492-1.5938 3.7188-0.72656 0.76172-1.7383 1.1406-3.0312 1.1406-1.5 0-2.6797-0.52344-3.5469-1.5781-0.86328-1.0625-1.2969-2.5195-1.2969-4.375 0-0.78906 0.074219-1.5977 0.21875-2.4219 0.14844-0.82031 0.36719-1.6641 0.65625-2.5312z"/>
</symbol>
<symbol id="ag" overflow="visible">
<path d="m-1.9062-4.2188h6.7344v2.1094h-17.531v-2.1094h1.9219c-0.75-0.4375-1.3047-0.98828-1.6719-1.6562-0.375-0.66406-0.5625-1.4688-0.5625-2.4062 0-1.5391 0.61719-2.7891 1.8438-3.75 1.2188-0.96875 2.8281-1.4531 4.8281-1.4531s3.6172 0.48438 4.8438 1.4531c1.2188 0.96094 1.8281 2.2109 1.8281 3.75 0 0.9375-0.18359 1.7422-0.54688 2.4062-0.36328 0.66797-0.92578 1.2188-1.6875 1.6562zm-4.4375-7.0938c-1.5312 0-2.7344 0.32031-3.6094 0.95312-0.875 0.625-1.3125 1.4922-1.3125 2.5938 0 1.1055 0.4375 1.9766 1.3125 2.6094 0.875 0.625 2.0781 0.9375 3.6094 0.9375 1.543 0 2.75-0.3125 3.625-0.9375 0.86719-0.63281 1.2969-1.5039 1.2969-2.6094 0-1.1016-0.42969-1.9688-1.2969-2.5938-0.875-0.63281-2.082-0.95312-3.625-0.95312z"/>
</symbol>
<symbol id="n" overflow="visible">
<path d="m-10.75-9.5625c-0.13281 0.24219-0.23438 0.5-0.29688 0.78125-0.070313 0.27344-0.10938 0.57422-0.10938 0.90625 0 1.1797 0.38672 2.0859 1.1562 2.7188 0.77344 0.625 1.875 0.9375 3.3125 0.9375h6.6875v2.1094h-12.703v-2.1094h1.9688c-0.76953-0.4375-1.3438-1.0039-1.7188-1.7031-0.375-0.70703-0.5625-1.5625-0.5625-2.5625 0-0.14453 0.011719-0.30469 0.03125-0.48438 0.023437-0.17578 0.046875-0.36719 0.078125-0.57812z"/>
</symbol>
<symbol id="af" overflow="visible">
<path d="m-17.656-2.1875v-2.0938h17.656v2.0938z"/>
</symbol>
<symbol id="ce" overflow="visible">
<path d="m-12.703-0.6875v-2.2188l10.656-3.9688-10.656-3.9844v-2.2031l12.703 4.7656v2.8438z"/>
</symbol>
<symbol id="cd" overflow="visible">
<path d="m-8.0938-4.5781h6.2031v-3.6719c0-1.2383-0.25391-2.1562-0.76562-2.75-0.50781-0.59375-1.2852-0.89062-2.3281-0.89062-1.0625 0-1.8438 0.29688-2.3438 0.89062-0.50781 0.59375-0.76562 1.5117-0.76562 2.75zm-6.9688 0h5.1094v-3.3906c0-1.125-0.20703-1.957-0.625-2.5-0.41406-0.55078-1.0547-0.82812-1.9219-0.82812-0.85156 0-1.4922 0.27734-1.9219 0.82812-0.42578 0.54297-0.64062 1.375-0.64062 2.5zm-1.875 2.2969v-5.8594c0-1.75 0.36719-3.0938 1.0938-4.0312 0.71875-0.94531 1.75-1.4219 3.0938-1.4219 1.0312 0 1.8555 0.24609 2.4688 0.73438 0.61719 0.48047 1 1.1875 1.1562 2.125 0.24219-1.1328 0.74609-2.0078 1.5156-2.625 0.76172-0.625 1.7188-0.9375 2.875-0.9375 1.5117 0 2.6797 0.51562 3.5 1.5469 0.82422 1.0234 1.2344 2.4844 1.2344 4.3906v6.0781z"/>
</symbol>
<symbol id="cc" overflow="visible">
<path d="m-6.3906-7.9688c0 1.6875 0.19531 2.8594 0.57812 3.5156 0.38672 0.64844 1.0469 0.96875 1.9844 0.96875 0.74219 0 1.3281-0.24219 1.7656-0.73438 0.42969-0.48828 0.64062-1.1484 0.64062-1.9844 0-1.1641-0.40625-2.0977-1.2188-2.7969-0.82031-0.69531-1.9141-1.0469-3.2812-1.0469h-0.46875zm-0.85938-4.1719h7.25v2.0938h-1.9219c0.77344 0.48047 1.3398 1.0742 1.7031 1.7812 0.36328 0.71094 0.54688 1.5781 0.54688 2.6094 0 1.3047-0.36328 2.3398-1.0938 3.1094-0.72656 0.77344-1.707 1.1562-2.9375 1.1562-1.4258 0-2.5-0.47656-3.2188-1.4375-0.72656-0.95703-1.0938-2.3906-1.0938-4.2969v-2.9219h-0.20312c-0.96875 0-1.7109 0.32031-2.2344 0.95312-0.53125 0.625-0.79688 1.5117-0.79688 2.6562 0 0.73047 0.089844 1.4375 0.26562 2.125 0.17969 0.6875 0.4375 1.3516 0.78125 1.9844h-1.9219c-0.28906-0.75781-0.50781-1.5-0.65625-2.2188-0.15625-0.71875-0.23438-1.4219-0.23438-2.1094 0-1.832 0.48047-3.2031 1.4375-4.1094 0.94922-0.91406 2.3906-1.375 4.3281-1.375z"/>
</symbol>
<symbol id="d" overflow="visible">
<path d="m3.2344-1.4062h5.8281v1.4062h-7.8281v-1.4062c0.63281-0.65625 1.4922-1.5352 2.5781-2.6406 1.0938-1.1016 1.7812-1.8125 2.0625-2.125 0.53906-0.60156 0.91406-1.1133 1.125-1.5312 0.20703-0.41406 0.3125-0.82031 0.3125-1.2188 0-0.65625-0.23047-1.1875-0.6875-1.5938-0.46094-0.41406-1.0586-0.625-1.7969-0.625-0.52344 0-1.0742 0.09375-1.6562 0.28125-0.57422 0.17969-1.1953 0.44922-1.8594 0.8125v-1.6875c0.67578-0.26953 1.3047-0.47266 1.8906-0.60938 0.58203-0.13281 1.1133-0.20312 1.5938-0.20312 1.2812 0 2.2969 0.32422 3.0469 0.96875 0.75781 0.63672 1.1406 1.4844 1.1406 2.5469 0 0.51172-0.09375 0.99609-0.28125 1.4531-0.1875 0.44922-0.53125 0.98047-1.0312 1.5938-0.13672 0.15625-0.57422 0.62109-1.3125 1.3906-0.74219 0.76172-1.7812 1.8242-3.125 3.1875z"/>
</symbol>
<symbol id="a" overflow="visible">
<path d="m5.375-11.234c-0.86719 0-1.5156 0.42969-1.9531 1.2812-0.42969 0.84375-0.64062 2.1094-0.64062 3.7969 0 1.6992 0.21094 2.9688 0.64062 3.8125 0.4375 0.84375 1.0859 1.2656 1.9531 1.2656 0.85156 0 1.4922-0.42188 1.9219-1.2656 0.4375-0.84375 0.65625-2.1133 0.65625-3.8125 0-1.6875-0.21875-2.9531-0.65625-3.7969-0.42969-0.85156-1.0703-1.2812-1.9219-1.2812zm0-1.3125c1.375 0 2.4258 0.54688 3.1562 1.6406 0.72656 1.0938 1.0938 2.6797 1.0938 4.75 0 2.0859-0.36719 3.6719-1.0938 4.7656-0.73047 1.0859-1.7812 1.625-3.1562 1.625-1.3867 0-2.4453-0.53906-3.1719-1.625-0.73047-1.0938-1.0938-2.6797-1.0938-4.7656 0-2.0703 0.36328-3.6562 1.0938-4.75 0.72656-1.0938 1.7852-1.6406 3.1719-1.6406z"/>
</symbol>
<symbol id="q" overflow="visible">
<path d="m1.8281-12.328h6.5312v1.4062h-5.0156v3.0156c0.25-0.082031 0.49219-0.14062 0.73438-0.17188 0.23828-0.039063 0.47656-0.0625 0.71875-0.0625 1.375 0 2.4609 0.375 3.2656 1.125 0.80078 0.75 1.2031 1.7734 1.2031 3.0625 0 1.3242-0.41406 2.3555-1.2344 3.0938-0.82422 0.73047-1.9844 1.0938-3.4844 1.0938-0.52344 0-1.0547-0.046875-1.5938-0.14062-0.53125-0.085938-1.0859-0.20703-1.6562-0.375v-1.6875c0.5 0.27344 1.0078 0.47656 1.5312 0.60938 0.53125 0.13672 1.0938 0.20312 1.6875 0.20312 0.94531 0 1.6953-0.25 2.25-0.75 0.5625-0.50781 0.84375-1.1914 0.84375-2.0469 0-0.85156-0.28125-1.5312-0.84375-2.0312-0.55469-0.50781-1.3047-0.76562-2.25-0.76562-0.44922 0-0.89844 0.054688-1.3438 0.15625-0.4375 0.09375-0.88672 0.24609-1.3438 0.45312z"/>
</symbol>
<symbol id="by" overflow="visible">
<path d="m-0.046875-12.328h10.406v1.4062h-4.3594v10.922h-1.6719v-10.922h-4.375z"/>
</symbol>
<symbol id="p" overflow="visible">
<path d="m9.5-5v0.73438h-6.9844c0.0625 1.0547 0.375 1.8555 0.9375 2.4062 0.57031 0.54297 1.3594 0.8125 2.3594 0.8125 0.58203 0 1.1445-0.070313 1.6875-0.21875 0.55078-0.14453 1.0977-0.35938 1.6406-0.64062v1.4375c-0.54297 0.23047-1.1016 0.40234-1.6719 0.51562-0.57422 0.125-1.1562 0.1875-1.75 0.1875-1.4688 0-2.6367-0.42578-3.5-1.2812-0.85547-0.86328-1.2812-2.0234-1.2812-3.4844 0-1.5078 0.40625-2.707 1.2188-3.5938 0.8125-0.89453 1.9102-1.3438 3.2969-1.3438 1.25 0 2.2344 0.40234 2.9531 1.2031 0.72656 0.80469 1.0938 1.8906 1.0938 3.2656zm-1.5312-0.45312c-0.011719-0.82031-0.24609-1.4844-0.70312-1.9844-0.44922-0.5-1.0469-0.75-1.7969-0.75-0.84375 0-1.5234 0.24219-2.0312 0.71875-0.5 0.48047-0.79297 1.1562-0.875 2.0312z"/>
</symbol>
<symbol id="bx" overflow="visible">
<path d="m1.5938-12.844h1.5156v12.844h-1.5156z"/>
</symbol>
<symbol id="bw" overflow="visible">
<path d="m3.0625-1.3906v4.9062h-1.5312v-12.766h1.5312v1.4062c0.3125-0.55078 0.71094-0.95703 1.2031-1.2188 0.48828-0.26953 1.0703-0.40625 1.75-0.40625 1.1133 0 2.0195 0.44922 2.7188 1.3438 0.70703 0.88672 1.0625 2.0586 1.0625 3.5156 0 1.4492-0.35547 2.6211-1.0625 3.5156-0.69922 0.88672-1.6055 1.3281-2.7188 1.3281-0.67969 0-1.2617-0.13281-1.75-0.39062-0.49219-0.26953-0.89062-0.67969-1.2031-1.2344zm5.1562-3.2188c0-1.125-0.23047-2.0039-0.6875-2.6406-0.46094-0.63281-1.0898-0.95312-1.8906-0.95312-0.80469 0-1.4336 0.32031-1.8906 0.95312-0.46094 0.63672-0.6875 1.5156-0.6875 2.6406 0 1.1172 0.22656 1.9922 0.6875 2.625 0.45703 0.63672 1.0859 0.95312 1.8906 0.95312 0.80078 0 1.4297-0.31641 1.8906-0.95312 0.45703-0.63281 0.6875-1.5078 0.6875-2.625z"/>
</symbol>
<symbol id="bv" overflow="visible">
<path d="m9.2656-5.5781v5.5781h-1.5156v-5.5312c0-0.875-0.17188-1.5234-0.51562-1.9531-0.33594-0.4375-0.84375-0.65625-1.5312-0.65625-0.8125 0-1.4609 0.26172-1.9375 0.78125-0.46875 0.52344-0.70312 1.2344-0.70312 2.1406v5.2188h-1.5312v-12.844h1.5312v5.0312c0.36328-0.55078 0.78906-0.96094 1.2812-1.2344 0.48828-0.28125 1.0547-0.42188 1.7031-0.42188 1.0625 0 1.8633 0.32812 2.4062 0.98438 0.53906 0.65625 0.8125 1.625 0.8125 2.9062z"/>
</symbol>
<symbol id="bu" overflow="visible">
<path d="m5.1719-8.1875c-0.8125 0-1.4609 0.32031-1.9375 0.95312-0.46875 0.63672-0.70312 1.5117-0.70312 2.625 0 1.1055 0.23438 1.9766 0.70312 2.6094 0.46875 0.63672 1.1133 0.95312 1.9375 0.95312 0.8125 0 1.4531-0.31641 1.9219-0.95312 0.46875-0.64453 0.70312-1.5156 0.70312-2.6094s-0.23438-1.9609-0.70312-2.6094c-0.46875-0.64453-1.1094-0.96875-1.9219-0.96875zm0-1.2812c1.3203 0 2.3594 0.43359 3.1094 1.2969 0.75 0.85547 1.125 2.043 1.125 3.5625 0 1.5117-0.375 2.6992-1.125 3.5625-0.75 0.85547-1.7891 1.2812-3.1094 1.2812-1.3242 0-2.3594-0.42578-3.1094-1.2812-0.75-0.86328-1.125-2.0508-1.125-3.5625 0-1.5195 0.375-2.707 1.125-3.5625 0.75-0.86328 1.7852-1.2969 3.1094-1.2969z"/>
</symbol>
<symbol id="cb" overflow="visible">
<path d="m9.2656-5.5781v5.5781h-1.5156v-5.5312c0-0.875-0.17188-1.5234-0.51562-1.9531-0.33594-0.4375-0.84375-0.65625-1.5312-0.65625-0.8125 0-1.4609 0.26172-1.9375 0.78125-0.46875 0.52344-0.70312 1.2344-0.70312 2.1406v5.2188h-1.5312v-9.25h1.5312v1.4375c0.36328-0.55078 0.78906-0.96094 1.2812-1.2344 0.48828-0.28125 1.0547-0.42188 1.7031-0.42188 1.0625 0 1.8633 0.32812 2.4062 0.98438 0.53906 0.65625 0.8125 1.625 0.8125 2.9062z"/>
</symbol>
<symbol id="j" overflow="visible">
<path d="m6.3906-10.875-4.2188 6.5781h4.2188zm-0.4375-1.4531h2.0938v8.0312h1.75v1.3906h-1.75v2.9062h-1.6562v-2.9062h-5.5625v-1.6094z"/>
</symbol>
<symbol id="ae" overflow="visible">
<path d="m5.5781-6.8281c-0.75 0-1.3438 0.25781-1.7812 0.76562-0.4375 0.51172-0.65625 1.2148-0.65625 2.1094 0 0.88672 0.21875 1.5898 0.65625 2.1094 0.4375 0.51172 1.0312 0.76562 1.7812 0.76562s1.3438-0.25391 1.7812-0.76562c0.4375-0.51953 0.65625-1.2227 0.65625-2.1094 0-0.89453-0.21875-1.5977-0.65625-2.1094-0.4375-0.50781-1.0312-0.76562-1.7812-0.76562zm3.2969-5.2188v1.5156c-0.41797-0.19531-0.83984-0.34766-1.2656-0.45312-0.41797-0.10156-0.83984-0.15625-1.2656-0.15625-1.0938 0-1.9336 0.37109-2.5156 1.1094-0.58594 0.74219-0.91406 1.8672-0.98438 3.375 0.32031-0.47656 0.72656-0.84375 1.2188-1.0938 0.48828-0.25781 1.0234-0.39062 1.6094-0.39062 1.2383 0 2.2188 0.375 2.9375 1.125s1.0781 1.7734 1.0781 3.0625c0 1.2617-0.375 2.2773-1.125 3.0469-0.75 0.76172-1.7461 1.1406-2.9844 1.1406-1.4297 0-2.5234-0.53906-3.2812-1.625-0.75-1.0938-1.125-2.6797-1.125-4.7656 0-1.9453 0.46094-3.5 1.3906-4.6562 0.92578-1.1562 2.1641-1.7344 3.7188-1.7344 0.41406 0 0.83594 0.042969 1.2656 0.125 0.42578 0.085937 0.86719 0.21094 1.3281 0.375z"/>
</symbol>
<symbol id="ad" overflow="visible">
<path d="m5.375-5.8594c-0.79297 0-1.418 0.21484-1.875 0.64062-0.44922 0.42969-0.67188 1.0117-0.67188 1.75 0 0.74219 0.22266 1.3242 0.67188 1.75 0.45703 0.42969 1.082 0.64062 1.875 0.64062 0.78906 0 1.4102-0.21094 1.8594-0.64062 0.45703-0.42578 0.6875-1.0078 0.6875-1.75 0-0.73828-0.23047-1.3203-0.6875-1.75-0.44922-0.42578-1.0703-0.64062-1.8594-0.64062zm-1.6719-0.70312c-0.71875-0.17578-1.2773-0.50781-1.6719-1-0.39844-0.48828-0.59375-1.0859-0.59375-1.7969 0-0.97656 0.34766-1.7539 1.0469-2.3281 0.69531-0.57031 1.6602-0.85938 2.8906-0.85938 1.2188 0 2.1758 0.28906 2.875 0.85938 0.69531 0.57422 1.0469 1.3516 1.0469 2.3281 0 0.71094-0.19922 1.3086-0.59375 1.7969-0.39844 0.49219-0.94922 0.82422-1.6562 1 0.80078 0.1875 1.4258 0.55859 1.875 1.1094 0.44531 0.54297 0.67188 1.2031 0.67188 1.9844 0 1.1992-0.36719 2.1172-1.0938 2.75-0.73047 0.63672-1.7734 0.95312-3.125 0.95312-1.3672 0-2.4141-0.31641-3.1406-0.95312-0.73047-0.63281-1.0938-1.5508-1.0938-2.75 0-0.78125 0.22266-1.4414 0.67188-1.9844 0.45703-0.55078 1.0859-0.92188 1.8906-1.1094zm-0.60938-2.6406c0 0.64844 0.19531 1.1484 0.59375 1.5 0.39453 0.35547 0.95703 0.53125 1.6875 0.53125 0.70703 0 1.2656-0.17578 1.6719-0.53125 0.40625-0.35156 0.60938-0.85156 0.60938-1.5 0-0.63281-0.20312-1.1289-0.60938-1.4844-0.40625-0.36328-0.96484-0.54688-1.6719-0.54688-0.73047 0-1.293 0.18359-1.6875 0.54688-0.39844 0.35547-0.59375 0.85156-0.59375 1.4844z"/>
</symbol>
<symbol id="b" overflow="visible">
<path d="m2.0938-1.4062h2.7188v-9.4062l-2.9531 0.59375v-1.5156l2.9375-0.59375h1.6719v10.922h2.7188v1.4062h-7.0938z"/>
</symbol>
<symbol id="ca" overflow="visible">
<path d="m1.8125-6.9219h1.7344v2.0938h-1.7344z"/>
</symbol>
<symbol id="bz" overflow="visible">
<path d="m6.8594-6.6406c0.78906 0.16797 1.4102 0.52344 1.8594 1.0625 0.44531 0.54297 0.67188 1.2109 0.67188 2 0 1.2109-0.41797 2.1484-1.25 2.8125-0.83594 0.66797-2.0234 1-3.5625 1-0.52344 0-1.0586-0.054687-1.6094-0.15625-0.54297-0.09375-1.1055-0.24219-1.6875-0.45312v-1.6094c0.46875 0.27344 0.97266 0.48047 1.5156 0.625 0.55078 0.13672 1.1289 0.20312 1.7344 0.20312 1.0391 0 1.832-0.20703 2.375-0.625 0.55078-0.41406 0.82812-1.0156 0.82812-1.7969 0-0.72656-0.25781-1.2969-0.76562-1.7031-0.51172-0.41406-1.2188-0.625-2.125-0.625h-1.4219v-1.3594h1.5c0.8125 0 1.4375-0.16016 1.875-0.48438 0.4375-0.33203 0.65625-0.80469 0.65625-1.4219 0-0.63281-0.22656-1.1172-0.67188-1.4531-0.44922-0.34375-1.0938-0.51562-1.9375-0.51562-0.44922 0-0.9375 0.054687-1.4688 0.15625-0.52344 0.09375-1.0938 0.24609-1.7188 0.45312v-1.4844c0.63281-0.17578 1.2266-0.30469 1.7812-0.39062 0.55078-0.09375 1.0703-0.14062 1.5625-0.14062 1.2578 0 2.2578 0.28906 3 0.85938 0.73828 0.57422 1.1094 1.3516 1.1094 2.3281 0 0.6875-0.19922 1.2656-0.59375 1.7344-0.38672 0.46875-0.9375 0.79688-1.6562 0.98438z"/>
</symbol>
<symbol id="o" overflow="visible">
<path d="m1.9844-2.2031h2.7969v-7.9531l-2.875 0.59375v-2.1719l2.8594-0.59375h3.0156v10.125h2.8125v2.2031h-8.6094z"/>
</symbol>
<symbol id="c" overflow="visible">
<path d="m7.7656-6.1719c0-1.5391-0.14844-2.625-0.4375-3.25-0.28125-0.63281-0.76562-0.95312-1.4531-0.95312-0.67969 0-1.1641 0.32031-1.4531 0.95312-0.29297 0.625-0.4375 1.7109-0.4375 3.25 0 1.5547 0.14453 2.6523 0.4375 3.2969 0.28906 0.63672 0.77344 0.95312 1.4531 0.95312 0.67578 0 1.1602-0.31641 1.4531-0.95312 0.28906-0.64453 0.4375-1.7422 0.4375-3.2969zm3.1719 0.015625c0 2.043-0.4375 3.6211-1.3125 4.7344-0.875 1.1055-2.125 1.6562-3.75 1.6562-1.6172 0-2.8672-0.55078-3.75-1.6562-0.875-1.1133-1.3125-2.6914-1.3125-4.7344 0-2.0391 0.4375-3.6133 1.3125-4.7188 0.88281-1.1133 2.1328-1.6719 3.75-1.6719 1.625 0 2.875 0.55859 3.75 1.6719 0.875 1.1055 1.3125 2.6797 1.3125 4.7188z"/>
</symbol>
<symbol id="bt" overflow="visible">
<path d="m2.2812-16.953h9.7344v1.9375h-7.4375v4.9844h6.7031v1.9375h-6.7031v8.0938h-2.2969z"/>
</symbol>
<symbol id="bo" overflow="visible">
<path d="m9.5469-10.766c-0.23047-0.13281-0.48438-0.23438-0.76562-0.29688-0.27344-0.0625-0.57422-0.09375-0.90625-0.09375-1.1797 0-2.0859 0.38672-2.7188 1.1562-0.63672 0.76172-0.95312 1.8594-0.95312 3.2969v6.7031h-2.0938v-12.719h2.0938v1.9844c0.4375-0.76953 1.0078-1.3438 1.7188-1.7188 0.70703-0.375 1.5625-0.5625 2.5625-0.5625 0.14453 0 0.30078 0.011719 0.46875 0.03125 0.17578 0.011719 0.375 0.039063 0.59375 0.078125z"/>
</symbol>
<symbol id="ac" overflow="visible">
<path d="m13.062-6.875v1.0156h-9.6094c0.09375 1.4375 0.52344 2.5391 1.2969 3.2969 0.78125 0.75 1.8633 1.125 3.25 1.125 0.80078 0 1.5781-0.097656 2.3281-0.29688 0.75-0.19531 1.4922-0.49219 2.2344-0.89062v1.9844c-0.74219 0.3125-1.5078 0.55469-2.2969 0.71875-0.78125 0.16406-1.5781 0.25-2.3906 0.25-2.0312 0-3.6406-0.58594-4.8281-1.7656-1.1797-1.1875-1.7656-2.7852-1.7656-4.7969 0-2.082 0.5625-3.7344 1.6875-4.9531s2.6406-1.8281 4.5469-1.8281c1.707 0 3.0547 0.55469 4.0469 1.6562 1 1.0938 1.5 2.5898 1.5 4.4844zm-2.0938-0.625c-0.011719-1.1328-0.32812-2.0391-0.95312-2.7188-0.625-0.6875-1.4531-1.0312-2.4844-1.0312-1.168 0-2.1016 0.32812-2.7969 0.98438-0.69922 0.65625-1.1016 1.5859-1.2031 2.7812z"/>
</symbol>
<symbol id="bn" overflow="visible">
<path d="m3.4375-6.3438c0 1.5312 0.3125 2.7344 0.9375 3.6094 0.63281 0.875 1.5039 1.3125 2.6094 1.3125 1.1016 0 1.9727-0.4375 2.6094-1.3125 0.63281-0.875 0.95312-2.0781 0.95312-3.6094 0-1.5391-0.32031-2.7422-0.95312-3.6094-0.63672-0.875-1.5078-1.3125-2.6094-1.3125-1.1055 0-1.9766 0.4375-2.6094 1.3125-0.625 0.86719-0.9375 2.0703-0.9375 3.6094zm7.1094 4.4375c-0.4375 0.76172-0.99219 1.3242-1.6562 1.6875-0.66797 0.36328-1.4688 0.54688-2.4062 0.54688-1.543 0-2.7969-0.60938-3.7656-1.8281-0.96094-1.2266-1.4375-2.8438-1.4375-4.8438s0.47656-3.6094 1.4375-4.8281c0.96875-1.2266 2.2227-1.8438 3.7656-1.8438 0.9375 0 1.7383 0.18359 2.4062 0.54688 0.66406 0.36719 1.2188 0.92969 1.6562 1.6875v-1.9375h2.0938v17.562h-2.0938z"/>
</symbol>
<symbol id="bm" overflow="visible">
<path d="m1.9688-5.0156v-7.7031h2.0938v7.625c0 1.1992 0.23438 2.1016 0.70312 2.7031 0.46875 0.60547 1.1719 0.90625 2.1094 0.90625 1.125 0 2.0156-0.35938 2.6719-1.0781s0.98438-1.6953 0.98438-2.9375v-7.2188h2.0781v12.719h-2.0781v-1.9531c-0.51172 0.77344-1.1016 1.3438-1.7656 1.7188-0.66797 0.375-1.4453 0.5625-2.3281 0.5625-1.4609 0-2.5703-0.45312-3.3281-1.3594-0.76172-0.90625-1.1406-2.2344-1.1406-3.9844z"/>
</symbol>
<symbol id="bl" overflow="visible">
<path d="m12.75-7.6719v7.6719h-2.0781v-7.6094c0-1.1953-0.24219-2.0938-0.71875-2.6875-0.46875-0.60156-1.1719-0.90625-2.1094-0.90625-1.125 0-2.0156 0.35938-2.6719 1.0781-0.64844 0.71875-0.96875 1.6992-0.96875 2.9375v7.1875h-2.0938v-12.719h2.0938v1.9844c0.5-0.76953 1.0859-1.3438 1.7656-1.7188 0.67578-0.375 1.457-0.5625 2.3438-0.5625 1.457 0 2.5625 0.45312 3.3125 1.3594 0.75 0.89844 1.125 2.2266 1.125 3.9844z"/>
</symbol>
<symbol id="bk" overflow="visible">
<path d="m11.328-12.234v1.9531c-0.58594-0.32031-1.1719-0.5625-1.7656-0.71875-0.59375-0.16406-1.1953-0.25-1.7969-0.25-1.3555 0-2.4062 0.43359-3.1562 1.2969-0.75 0.85547-1.125 2.0586-1.125 3.6094 0 1.5547 0.375 2.7617 1.125 3.625 0.75 0.85547 1.8008 1.2812 3.1562 1.2812 0.60156 0 1.2031-0.082031 1.7969-0.25 0.59375-0.16406 1.1797-0.41016 1.7656-0.73438v1.9375c-0.58594 0.27344-1.1875 0.47656-1.8125 0.60938-0.61719 0.13281-1.2773 0.20312-1.9844 0.20312-1.918 0-3.4375-0.59766-4.5625-1.7969-1.125-1.207-1.6875-2.832-1.6875-4.875 0-2.0703 0.56641-3.7031 1.7031-4.8906 1.1445-1.1875 2.707-1.7812 4.6875-1.7812 0.64453 0 1.2695 0.070313 1.875 0.20312 0.61328 0.125 1.207 0.32031 1.7812 0.57812z"/>
</symbol>
<symbol id="bj" overflow="visible">
<path d="m7.4688 1.1875c-0.58594 1.5078-1.1562 2.4922-1.7188 2.9531-0.5625 0.46875-1.3125 0.70312-2.25 0.70312h-1.6562v-1.75h1.2188c0.57031 0 1.0156-0.14062 1.3281-0.42188 0.32031-0.27344 0.67578-0.91406 1.0625-1.9219l0.375-0.95312-5.1406-12.516h2.2188l3.9688 9.9531 3.9688-9.9531h2.2188z"/>
</symbol>
<symbol id="bi" overflow="visible"></symbol>
<symbol id="bs" overflow="visible">
<path d="m2-17.672h4.8125v1.625h-2.7344v17.484h2.7344v1.625h-4.8125z"/>
</symbol>
<symbol id="br" overflow="visible">
<path d="m2.2812-16.953h2.2969v6.9531h8.3281v-6.9531h2.2812v16.953h-2.2812v-8.0781h-8.3281v8.0781h-2.2969z"/>
</symbol>
<symbol id="bq" overflow="visible">
<path d="m1.2812-12.719h9.9219v1.9062l-7.8594 9.1406h7.8594v1.6719h-10.203v-1.9062l7.8438-9.1406h-7.5625z"/>
</symbol>
<symbol id="bp" overflow="visible">
<path d="m7.0625-17.672v20.734h-4.8125v-1.625h2.7188v-17.484h-2.7188v-1.625z"/>
</symbol>
<symbol id="bh" overflow="visible">
<path d="m8.3438-11.219 1.6406 0.90625-2.75 4.9688 5.9688 3.3125 2.75-4.9688 1.6406 0.90625-6.7188 12.125-1.6406-0.90625 3.2031-5.7812-5.9688-3.3125-3.2031 5.7812-1.6406-0.90625z"/>
</symbol>
<symbol id="aa" overflow="visible">
<path d="m12.062 0.26562-0.39062 0.71875-6.875-3.8125c-0.51172 1.0625-0.64062 2.0156-0.39062 2.8594 0.25781 0.85156 0.88281 1.5547 1.875 2.1094 0.58203 0.32031 1.1797 0.5625 1.7969 0.71875 0.61328 0.15625 1.2578 0.23828 1.9375 0.25l-0.78125 1.4062c-0.64844-0.0625-1.2891-0.19531-1.9219-0.39062-0.625-0.1875-1.2305-0.44531-1.8125-0.76562-1.4492-0.80469-2.3672-1.8672-2.75-3.1875-0.375-1.3125-0.16406-2.6875 0.64062-4.125 0.82031-1.5 1.875-2.4609 3.1562-2.8906 1.2891-0.42578 2.6172-0.25781 3.9844 0.5 1.2266 0.67969 1.9766 1.6094 2.25 2.7969 0.28125 1.1875 0.039062 2.4609-0.71875 3.8125zm-1.2344-1.2656c0.42578-0.83203 0.55078-1.6133 0.375-2.3438-0.17969-0.73828-0.63281-1.3047-1.3594-1.7031-0.83594-0.46875-1.6328-0.60156-2.3906-0.40625-0.76172 0.19922-1.4141 0.69922-1.9531 1.5z"/>
</symbol>
<symbol id="bc" overflow="visible">
<path d="m8.2344-1.4219c-1.2109-0.66406-2.125-0.98828-2.75-0.96875-0.61719 0.011719-1.1094 0.35156-1.4844 1.0156-0.29297 0.53125-0.35156 1.0547-0.17188 1.5625 0.1875 0.50781 0.57812 0.92969 1.1719 1.2656 0.83203 0.45703 1.6602 0.53125 2.4844 0.21875 0.82031-0.3125 1.5039-0.95312 2.0469-1.9219l0.1875-0.34375zm3.3125 1.0469-2.875 5.1875-1.4844-0.82812 0.76562-1.375c-0.65625 0.36328-1.3086 0.53516-1.9531 0.51562-0.64844-0.023438-1.3398-0.23438-2.0781-0.64062-0.92969-0.52344-1.5273-1.1992-1.7969-2.0312-0.26172-0.82031-0.14844-1.6758 0.34375-2.5625 0.5625-1.0195 1.3281-1.5977 2.2969-1.7344 0.96875-0.13281 2.1328 0.17969 3.5 0.9375l2.0938 1.1562 0.09375-0.15625c0.375-0.6875 0.4375-1.3438 0.1875-1.9688-0.24219-0.625-0.76562-1.1641-1.5781-1.625-0.52344-0.28125-1.0625-0.5-1.625-0.65625s-1.1367-0.22656-1.7188-0.21875l0.76562-1.3906c0.65625 0.09375 1.2695 0.23047 1.8438 0.40625 0.57031 0.17969 1.0977 0.40234 1.5781 0.67188 1.3203 0.73047 2.1172 1.6211 2.3906 2.6719 0.26953 1.043 0.019531 2.2578-0.75 3.6406z"/>
</symbol>
<symbol id="z" overflow="visible">
<path d="m11.094-3.9219c-0.10547-0.17578-0.24609-0.34375-0.42188-0.5-0.16797-0.15625-0.375-0.30078-0.625-0.4375-0.83594-0.46875-1.6328-0.55078-2.3906-0.25-0.76172 0.29297-1.4297 0.95312-2 1.9844l-2.6562 4.7969-1.4844-0.82812 5.0469-9.1094 1.4844 0.82812-0.79688 1.4219c0.63281-0.375 1.2734-0.55469 1.9219-0.54688 0.64453 0 1.3281 0.19922 2.0469 0.59375 0.11328 0.0625 0.22656 0.13672 0.34375 0.21875 0.11328 0.085938 0.23828 0.18359 0.375 0.29688z"/>
</symbol>
<symbol id="bb" overflow="visible">
<path d="m6.625-8.2344 1.4844 0.82812-5.0469 9.1094-1.4844-0.82812zm1.9531-3.5312 1.4844 0.82812-1.0469 1.8906-1.4844-0.82812z"/>
</symbol>
<symbol id="ba" overflow="visible">
<path d="m12.172-0.4375-3.0469 5.5-1.4844-0.82812 3.0156-5.4375c0.47656-0.86328 0.66406-1.6016 0.5625-2.2188-0.10547-0.625-0.49609-1.125-1.1719-1.5-0.80469-0.4375-1.5781-0.52344-2.3281-0.26562-0.75 0.25-1.375 0.82422-1.875 1.7188l-2.8438 5.1406-1.4844-0.82812 5.0469-9.1094 1.4844 0.82812-0.79688 1.4219c0.66406-0.34375 1.3164-0.51953 1.9531-0.53125 0.63281-0.007813 1.2695 0.16406 1.9062 0.51562 1.0391 0.58594 1.6484 1.3516 1.8281 2.2969 0.1875 0.94922-0.070312 2.0469-0.76562 3.2969z"/>
</symbol>
<symbol id="az" overflow="visible">
<path d="m10.141-0.45312c0.59375-1.0938 0.83203-2.0547 0.71875-2.8906-0.11719-0.84375-0.57812-1.4922-1.3906-1.9531-0.80469-0.4375-1.5938-0.48438-2.375-0.14062s-1.4688 1.0625-2.0625 2.1562c-0.59375 1.0742-0.83594 2.0312-0.71875 2.875 0.125 0.84375 0.58594 1.4844 1.3906 1.9219 0.8125 0.45703 1.6016 0.50781 2.375 0.15625 0.78125-0.34375 1.4688-1.0547 2.0625-2.125zm-0.46875 4.3281c-0.85547 1.5508-1.8398 2.5156-2.9531 2.8906-1.1055 0.375-2.3711 0.16406-3.7969-0.625-0.51172-0.29297-0.98047-0.60547-1.4062-0.9375-0.41797-0.33594-0.80469-0.70312-1.1562-1.1094l0.8125-1.4531c0.30078 0.48828 0.63281 0.90625 1 1.25 0.36328 0.35156 0.76953 0.65625 1.2188 0.90625 0.97656 0.53906 1.8516 0.69141 2.625 0.45312 0.76953-0.24219 1.4453-0.88281 2.0312-1.9219l0.40625-0.73438c-0.61719 0.36328-1.2422 0.53906-1.875 0.53125-0.625 0-1.2773-0.1875-1.9531-0.5625-1.1055-0.61719-1.7617-1.5391-1.9688-2.7656-0.21094-1.2383 0.070312-2.5508 0.84375-3.9375 0.78125-1.4141 1.7422-2.3594 2.8906-2.8281 1.1562-0.47656 2.2852-0.41016 3.3906 0.20312 0.67578 0.375 1.1797 0.83594 1.5156 1.375 0.34375 0.54297 0.52344 1.1641 0.54688 1.8594l0.76562-1.3906 1.4844 0.82812z"/>
</symbol>
<symbol id="ay" overflow="visible"></symbol>
<symbol id="ax" overflow="visible">
<path d="m9.5156-10-1.4219 2.5781 3.0781 1.7031-0.65625 1.1719-3.0781-1.7031-2.7344 4.9375c-0.40625 0.74219-0.57031 1.2734-0.48438 1.5938 0.09375 0.32031 0.45312 0.66016 1.0781 1.0156l1.5312 0.84375-0.70312 1.25-1.5312-0.84375c-1.1562-0.64844-1.8359-1.3047-2.0312-1.9688-0.19922-0.66406 0.015625-1.5703 0.64062-2.7188l2.7344-4.9375-1.0938-0.60938 0.65625-1.1719 1.0938 0.60938 1.4219-2.5781z"/>
</symbol>
<symbol id="ab" overflow="visible">
<path d="m12.172-0.4375-3.0469 5.5-1.4844-0.82812 3.0156-5.4375c0.47656-0.86328 0.66406-1.6016 0.5625-2.2188-0.10547-0.625-0.49609-1.125-1.1719-1.5-0.80469-0.4375-1.5781-0.52344-2.3281-0.26562-0.75 0.25-1.375 0.82422-1.875 1.7188l-2.8438 5.1406-1.4844-0.82812 7-12.641 1.4844 0.82812-2.75 4.9531c0.66406-0.34375 1.3164-0.51953 1.9531-0.53125 0.63281-0.007813 1.2695 0.16406 1.9062 0.51562 1.0391 0.58594 1.6484 1.3516 1.8281 2.2969 0.1875 0.94922-0.070312 2.0469-0.76562 3.2969z"/>
</symbol>
<symbol id="bg" overflow="visible">
<path d="m12.25-4.75-0.78125 1.4062c-0.30469-0.4375-0.65234-0.83203-1.0469-1.1875-0.38672-0.36328-0.82812-0.6875-1.3281-0.96875-0.73047-0.40625-1.3438-0.59766-1.8438-0.57812-0.5 0.023437-0.88281 0.25781-1.1406 0.70312-0.1875 0.35547-0.20312 0.70312-0.046875 1.0469 0.16406 0.34375 0.59375 0.83594 1.2812 1.4688l0.46875 0.39062c0.92578 0.8125 1.5 1.5547 1.7188 2.2188 0.21875 0.65625 0.125 1.3516-0.28125 2.0938-0.46875 0.84375-1.1797 1.3281-2.125 1.4531-0.9375 0.125-1.9922-0.14062-3.1562-0.79688-0.49219-0.27344-0.97656-0.60156-1.4531-0.98438-0.46875-0.38672-0.94531-0.83594-1.4219-1.3438l0.84375-1.5469c0.39453 0.59375 0.81641 1.1094 1.2656 1.5469 0.45703 0.4375 0.95312 0.80078 1.4844 1.0938 0.69531 0.39453 1.3008 0.57812 1.8125 0.54688 0.51953-0.03125 0.89844-0.26562 1.1406-0.70312 0.22656-0.40625 0.26562-0.79297 0.10938-1.1562-0.15625-0.375-0.64062-0.91406-1.4531-1.625l-0.45312-0.40625c-0.8125-0.71875-1.3125-1.3906-1.5-2.0156-0.1875-0.63281-0.089844-1.3008 0.29688-2 0.46875-0.86328 1.1328-1.3594 2-1.4844 0.86328-0.13281 1.8516 0.10547 2.9688 0.71875 0.55078 0.3125 1.0508 0.64844 1.5 1 0.44531 0.35547 0.82812 0.72656 1.1406 1.1094z"/>
</symbol>
<symbol id="bf" overflow="visible">
<path d="m9.5469-5.2188c-0.80469-0.44531-1.6094-0.48828-2.4219-0.125-0.8125 0.36719-1.5234 1.0938-2.125 2.1875-0.60547 1.0859-0.85156 2.0703-0.73438 2.9531 0.11328 0.88281 0.57812 1.5508 1.3906 2 0.78906 0.4375 1.5938 0.46875 2.4062 0.09375 0.82031-0.36719 1.5352-1.0898 2.1406-2.1719 0.59375-1.082 0.82812-2.0664 0.70312-2.9531-0.11719-0.88281-0.57031-1.5469-1.3594-1.9844zm0.70312-1.2812c1.2891 0.71875 2.0703 1.7109 2.3438 2.9688 0.28125 1.2617 0.007812 2.6406-0.8125 4.1406-0.82422 1.4766-1.8438 2.4375-3.0625 2.875-1.2109 0.4375-2.4609 0.29688-3.75-0.42188-1.3125-0.73047-2.1055-1.7266-2.375-2.9844-0.26172-1.2578 0.019531-2.6289 0.84375-4.1094 0.82031-1.5 1.832-2.4688 3.0312-2.9062 1.207-0.4375 2.4688-0.28906 3.7812 0.4375z"/>
</symbol>
<symbol id="be" overflow="visible">
<path d="m8.5781-11.766 1.4844 0.82812-7 12.641-1.4844-0.82812z"/>
</symbol>
<symbol id="bd" overflow="visible">
<path d="m11.844-3.5312 2.7188-4.9219 1.4844 0.82812-7 12.641-1.4844-0.82812 0.75-1.3594c-0.625 0.36328-1.25 0.53906-1.875 0.53125-0.61719 0-1.2617-0.1875-1.9375-0.5625-1.0859-0.60547-1.7305-1.5391-1.9375-2.7969-0.21094-1.2578 0.082031-2.6016 0.875-4.0312 0.78906-1.4375 1.7734-2.3984 2.9531-2.8906 1.1758-0.5 2.3047-0.44531 3.3906 0.15625 0.67578 0.375 1.1797 0.82812 1.5156 1.3594 0.33203 0.53125 0.51562 1.1562 0.54688 1.875zm-6.875 0.35938c-0.60547 1.0938-0.85547 2.0781-0.75 2.9531 0.10156 0.875 0.55078 1.5312 1.3438 1.9688 0.78906 0.44531 1.5859 0.48438 2.3906 0.10938 0.8125-0.375 1.5195-1.1094 2.125-2.2031 0.60156-1.1016 0.84766-2.0938 0.73438-2.9688-0.10547-0.875-0.55469-1.5352-1.3438-1.9844-0.79297-0.4375-1.5898-0.46875-2.3906-0.09375-0.80469 0.375-1.5078 1.1172-2.1094 2.2188z"/>
</symbol>
<symbol id="g" overflow="visible">
<path d="m0.625-3.9844h3.3281v1.0156h-3.3281z"/>
</symbol>
<symbol id="aw" overflow="visible">
<path d="m4.7969-8.1562-3.1562 4.9375h3.1562zm-0.32812-1.0938h1.5625v6.0312h1.3125v1.0312h-1.3125v2.1875h-1.2344v-2.1875h-4.1719v-1.2031z"/>
</symbol>
<symbol id="y" overflow="visible">
<path d="m1.375-9.25h4.9062v1.0469h-3.7656v2.2812c0.17578-0.0625 0.35156-0.10938 0.53125-0.14062 0.1875-0.03125 0.36719-0.046875 0.54688-0.046875 1.0312 0 1.8477 0.28125 2.4531 0.84375 0.60156 0.5625 0.90625 1.3281 0.90625 2.2969 0 1-0.3125 1.7773-0.9375 2.3281-0.61719 0.54297-1.4844 0.8125-2.6094 0.8125-0.38672 0-0.78125-0.03125-1.1875-0.09375-0.39844-0.0625-0.80859-0.16016-1.2344-0.29688v-1.25c0.36328 0.19922 0.74219 0.35156 1.1406 0.45312 0.39453 0.09375 0.81641 0.14062 1.2656 0.14062 0.70703 0 1.2695-0.1875 1.6875-0.5625 0.41406-0.375 0.625-0.88281 0.625-1.5312 0-0.64453-0.21094-1.1562-0.625-1.5312-0.41797-0.375-0.98047-0.5625-1.6875-0.5625-0.33594 0-0.66797 0.039062-1 0.10938-0.33594 0.074219-0.67188 0.1875-1.0156 0.34375z"/>
</symbol>
<symbol id="av" overflow="visible">
<path d="m5.1406-4.9844c0.59375 0.125 1.0547 0.39062 1.3906 0.79688 0.34375 0.40625 0.51562 0.90625 0.51562 1.5 0 0.91797-0.3125 1.625-0.9375 2.125-0.625 0.49219-1.5156 0.73438-2.6719 0.73438-0.38672 0-0.78906-0.039063-1.2031-0.10938-0.40625-0.070312-0.82812-0.1875-1.2656-0.34375v-1.2031c0.34375 0.19922 0.71875 0.35156 1.125 0.45312 0.41406 0.10547 0.84766 0.15625 1.2969 0.15625 0.78906 0 1.3906-0.14844 1.7969-0.45312 0.40625-0.3125 0.60938-0.76562 0.60938-1.3594 0-0.53906-0.19531-0.96094-0.57812-1.2656-0.375-0.3125-0.90234-0.46875-1.5781-0.46875h-1.0781v-1.0312h1.125c0.61328 0 1.082-0.11719 1.4062-0.35938 0.33203-0.25 0.5-0.60938 0.5-1.0781s-0.17188-0.82812-0.51562-1.0781c-0.33594-0.25781-0.8125-0.39062-1.4375-0.39062-0.34375 0-0.71484 0.039063-1.1094 0.10938-0.38672 0.074219-0.8125 0.1875-1.2812 0.34375v-1.1094c0.46875-0.13281 0.91016-0.23438 1.3281-0.29688 0.41406-0.070312 0.80469-0.10938 1.1719-0.10938 0.94531 0 1.6953 0.21875 2.25 0.65625 0.55078 0.42969 0.82812 1.0117 0.82812 1.75 0 0.51172-0.14844 0.94531-0.4375 1.2969-0.29297 0.35547-0.71094 0.60156-1.25 0.73438z"/>
</symbol>
<symbol id="x" overflow="visible">
<path d="m2.4375-1.0469h4.3594v1.0469h-5.875v-1.0469c0.47656-0.5 1.125-1.1602 1.9375-1.9844 0.82031-0.83203 1.3359-1.3672 1.5469-1.6094 0.40625-0.44531 0.6875-0.82812 0.84375-1.1406s0.23438-0.61719 0.23438-0.92188c0-0.48828-0.17188-0.88281-0.51562-1.1875-0.34375-0.3125-0.79297-0.46875-1.3438-0.46875-0.39844 0-0.8125 0.070313-1.25 0.20312-0.42969 0.13672-0.89062 0.33984-1.3906 0.60938v-1.25c0.50781-0.20703 0.98438-0.36328 1.4219-0.46875 0.4375-0.10156 0.83203-0.15625 1.1875-0.15625 0.95703 0 1.7227 0.24219 2.2969 0.71875 0.57031 0.48047 0.85938 1.1211 0.85938 1.9219 0 0.38672-0.074219 0.75-0.21875 1.0938-0.14844 0.33594-0.40625 0.73438-0.78125 1.2031-0.10547 0.11719-0.43359 0.46094-0.98438 1.0312-0.55469 0.57422-1.3281 1.375-2.3281 2.4062z"/>
</symbol>
<symbol id="w" overflow="visible">
<path d="m1.5781-1.0469h2.0312v-7.0625l-2.2188 0.45312v-1.1406l2.2031-0.45312h1.25v8.2031h2.0469v1.0469h-5.3125z"/>
</symbol>
<symbol id="au" overflow="visible">
<path d="m5.3438-11.719-0.6875 5.1719 2.3438 0.3125c0.86328 0.11719 1.5547-0.019531 2.0781-0.40625 0.53125-0.38281 0.85156-0.98828 0.96875-1.8125 0.10156-0.83203-0.046875-1.5039-0.45312-2.0156-0.40625-0.50781-1.043-0.82031-1.9062-0.9375zm-1.6562-1.7656 4.2031 0.5625c1.5312 0.21094 2.6445 0.71484 3.3438 1.5156 0.69531 0.80469 0.95703 1.875 0.78125 3.2188-0.1875 1.3438-0.72656 2.3125-1.6094 2.9062-0.875 0.58594-2.0781 0.77344-3.6094 0.5625l-2.3438-0.3125-0.75 5.5312-1.8594-0.25z"/>
</symbol>
<symbol id="ap" overflow="visible">
<path d="m7.1562-4.3125c-1.375-0.1875-2.3516-0.16016-2.9219 0.078125-0.57422 0.24219-0.90625 0.74219-1 1.5-0.085937 0.59375 0.050781 1.1016 0.40625 1.5156 0.35156 0.41797 0.86719 0.66797 1.5469 0.75 0.9375 0.125 1.7266-0.10156 2.375-0.6875 0.65625-0.59375 1.0547-1.4414 1.2031-2.5469l0.0625-0.39062zm3.4688-0.25-0.79688 5.8906-1.7031-0.23438 0.20312-1.5625c-0.46094 0.57031-0.99609 0.96875-1.6094 1.1875-0.61719 0.21875-1.3398 0.26953-2.1719 0.15625-1.0547-0.13672-1.8555-0.53906-2.4062-1.2031-0.54297-0.67578-0.74609-1.5156-0.60938-2.5156 0.15625-1.1562 0.66016-1.9727 1.5156-2.4531 0.85156-0.48828 2.0508-0.62891 3.5938-0.42188l2.3594 0.3125 0.015625-0.17188c0.10156-0.76953-0.074219-1.4062-0.53125-1.9062-0.44922-0.5-1.1328-0.8125-2.0469-0.9375-0.59375-0.082031-1.1797-0.085937-1.75-0.015625-0.57422 0.0625-1.1367 0.20312-1.6875 0.42188l0.21875-1.5625c0.64453-0.15625 1.2656-0.25391 1.8594-0.29688 0.60156-0.050781 1.1797-0.039062 1.7344 0.03125 1.4883 0.21094 2.5469 0.75 3.1719 1.625 0.63281 0.875 0.84766 2.0938 0.64062 3.6562z"/>
</symbol>
<symbol id="ao" overflow="visible">
<path d="m3.1719-10.078 1.6875 0.23438-1.3906 10.312-1.6875-0.23438zm0.53125-4.0156 1.6875 0.23438-0.28125 2.1562-1.6875-0.23438z"/>
</symbol>
<symbol id="an" overflow="visible">
<path d="m11.172-4.8281-0.84375 6.2188-1.6875-0.23438 0.82812-6.1562c0.13281-0.98828 0.046875-1.75-0.26562-2.2812s-0.85547-0.84766-1.625-0.95312c-0.91797-0.125-1.6797 0.070313-2.2812 0.57812-0.60547 0.51172-0.97656 1.2734-1.1094 2.2812l-0.78125 5.8281-1.7031-0.21875 1.3906-10.312 1.7031 0.21875-0.21875 1.6094c0.48828-0.55078 1.0312-0.94531 1.625-1.1875 0.59375-0.23828 1.2422-0.3125 1.9531-0.21875 1.1875 0.15625 2.0312 0.64844 2.5312 1.4688 0.50781 0.8125 0.67188 1.9336 0.48438 3.3594z"/>
</symbol>
<symbol id="am" overflow="visible"></symbol>
<symbol id="al" overflow="visible">
<path d="m5.2344-12.766-0.39062 2.9219 3.4844 0.46875-0.1875 1.3125-3.4844-0.46875-0.75 5.6094c-0.11719 0.83594-0.074219 1.3867 0.125 1.6562 0.19531 0.27344 0.64453 0.45312 1.3438 0.54688l1.75 0.23438-0.1875 1.4219-1.75-0.23438c-1.3047-0.17969-2.168-0.54297-2.5938-1.0938-0.42969-0.55078-0.55859-1.4727-0.39062-2.7656l0.75-5.6094-1.2344-0.17188 0.1875-1.3125 1.2344 0.17188 0.39062-2.9219z"/>
</symbol>
<symbol id="v" overflow="visible">
<path d="m11.172-4.8281-0.84375 6.2188-1.6875-0.23438 0.82812-6.1562c0.13281-0.98828 0.046875-1.75-0.26562-2.2812s-0.85547-0.84766-1.625-0.95312c-0.91797-0.125-1.6797 0.070313-2.2812 0.57812-0.60547 0.51172-0.97656 1.2734-1.1094 2.2812l-0.78125 5.8281-1.7031-0.21875 1.9219-14.328 1.7031 0.21875-0.75 5.625c0.48828-0.55078 1.0312-0.94531 1.625-1.1875 0.59375-0.23828 1.2422-0.3125 1.9531-0.21875 1.1875 0.15625 2.0312 0.64844 2.5312 1.4688 0.50781 0.8125 0.67188 1.9336 0.48438 3.3594z"/>
</symbol>
<symbol id="ak" overflow="visible">
<path d="m8.9219-7.6719c-0.17969-0.14453-0.375-0.25781-0.59375-0.34375-0.21875-0.082031-0.46484-0.14062-0.73438-0.17188-0.96094-0.125-1.7344 0.089844-2.3281 0.64062-0.59375 0.54297-0.96875 1.3984-1.125 2.5625l-0.73438 5.4375-1.7031-0.21875 1.3906-10.312 1.7031 0.21875-0.21875 1.6094c0.44531-0.57031 0.97266-0.97266 1.5781-1.2031 0.61328-0.22656 1.3281-0.28906 2.1406-0.1875 0.11328 0.023437 0.23828 0.046875 0.375 0.078125 0.14453 0.03125 0.30078 0.078125 0.46875 0.14062z"/>
</symbol>
<symbol id="aj" overflow="visible">
<path d="m11.328-4.1562-0.10938 0.82812-7.7812-1.0469c-0.085938 1.1797 0.14453 2.1172 0.6875 2.8125 0.55078 0.69922 1.3906 1.125 2.5156 1.2812 0.65625 0.085938 1.2969 0.089844 1.9219 0.015625 0.63281-0.082031 1.2695-0.24219 1.9062-0.48438l-0.20312 1.5938c-0.64844 0.17578-1.2969 0.28516-1.9531 0.32812-0.64844 0.050781-1.3047 0.035156-1.9688-0.046875-1.6367-0.21875-2.875-0.87109-3.7188-1.9531-0.83594-1.0938-1.1406-2.4531-0.92188-4.0781 0.22656-1.6953 0.86328-2.9766 1.9062-3.8438 1.0508-0.875 2.3477-1.207 3.8906-1 1.3828 0.1875 2.4219 0.78906 3.1094 1.7969 0.6875 1 0.92578 2.2656 0.71875 3.7969zm-1.625-0.71875c0.11328-0.9375-0.046875-1.7109-0.48438-2.3281-0.42969-0.625-1.0625-0.98828-1.9062-1.0938-0.9375-0.13281-1.7266 0.03125-2.3594 0.5-0.63672 0.46094-1.0625 1.1641-1.2812 2.1094z"/>
</symbol>
<symbol id="at" overflow="visible">
<path d="m9.6875-8.875-0.21875 1.5938c-0.44922-0.30078-0.92188-0.55078-1.4219-0.75-0.5-0.19531-1.0234-0.33203-1.5625-0.40625-0.83594-0.11328-1.4844-0.066406-1.9531 0.14062-0.46094 0.19922-0.72656 0.55469-0.79688 1.0625-0.054687 0.39844 0.054687 0.73047 0.32812 1 0.28125 0.26172 0.85938 0.55469 1.7344 0.875l0.57812 0.20312c1.1562 0.41797 1.9531 0.89844 2.3906 1.4375 0.44531 0.54297 0.61328 1.2344 0.5 2.0781-0.125 0.96094-0.60547 1.6602-1.4375 2.1094-0.82422 0.45703-1.9023 0.59766-3.2344 0.42188-0.54297-0.074219-1.1055-0.21094-1.6875-0.40625-0.58594-0.1875-1.1992-0.42969-1.8438-0.71875l0.23438-1.75c0.58203 0.40625 1.1641 0.73438 1.75 0.98438 0.59375 0.25 1.1875 0.41406 1.7812 0.48438 0.80078 0.11719 1.4297 0.0625 1.8906-0.15625 0.46875-0.21875 0.73438-0.57031 0.79688-1.0625 0.0625-0.46875-0.046875-0.84375-0.32812-1.125-0.27344-0.28906-0.92188-0.61719-1.9531-0.98438l-0.54688-0.21875c-1.0117-0.375-1.7266-0.81641-2.1406-1.3281-0.40625-0.51953-0.55469-1.1797-0.4375-1.9844 0.125-0.96875 0.56641-1.6719 1.3281-2.1094 0.75781-0.4375 1.7695-0.57031 3.0312-0.40625 0.63281 0.09375 1.2188 0.22656 1.75 0.39062 0.53125 0.16797 1.0195 0.375 1.4688 0.625z"/>
</symbol>
<symbol id="as" overflow="visible">
<path d="m6.9844-8.3438c-0.91797-0.125-1.6875 0.13281-2.3125 0.76562-0.61719 0.63672-1.0078 1.5742-1.1719 2.8125-0.16797 1.2305-0.039062 2.2422 0.39062 3.0312 0.4375 0.78125 1.1133 1.2344 2.0312 1.3594 0.90625 0.11719 1.6641-0.14453 2.2812-0.78125 0.625-0.64453 1.0195-1.582 1.1875-2.8125 0.16406-1.2188 0.03125-2.2227-0.40625-3.0156-0.42969-0.78906-1.0938-1.2422-2-1.3594zm0.20312-1.4375c1.4688 0.19922 2.5547 0.83594 3.2656 1.9062 0.70703 1.0625 0.94531 2.4453 0.71875 4.1406-0.21875 1.6875-0.8125 2.9531-1.7812 3.7969-0.96875 0.85156-2.1875 1.1797-3.6562 0.98438-1.4805-0.19922-2.5742-0.83594-3.2812-1.9062-0.71094-1.0703-0.95312-2.4531-0.73438-4.1406 0.22656-1.6953 0.82812-2.9688 1.7969-3.8125s2.1914-1.1641 3.6719-0.96875z"/>
</symbol>
<symbol id="ar" overflow="visible">
<path d="m3.7031-14.094 1.6875 0.23438-1.9219 14.328-1.6875-0.23438z"/>
</symbol>
<symbol id="aq" overflow="visible">
<path d="m9.7188-7.5938 0.75-5.5781 1.6875 0.21875-1.9219 14.328-1.6875-0.21875 0.20312-1.5469c-0.4375 0.5625-0.94922 0.95312-1.5312 1.1719-0.57422 0.22656-1.2422 0.28906-2 0.1875-1.2422-0.16797-2.1875-0.79688-2.8438-1.8906s-0.875-2.4531-0.65625-4.0781 0.78516-2.8789 1.7031-3.7656c0.92578-0.89453 2.0078-1.2578 3.25-1.0938 0.75781 0.10547 1.3906 0.34375 1.8906 0.71875s0.88281 0.89062 1.1562 1.5469zm-6.25 2.8281c-0.16797 1.2422-0.042969 2.25 0.375 3.0312 0.42578 0.78125 1.0859 1.2344 1.9844 1.3594 0.88281 0.11719 1.6289-0.14453 2.2344-0.78125 0.61328-0.64453 1.0039-1.5859 1.1719-2.8281 0.16406-1.25 0.039063-2.2656-0.375-3.0469-0.41797-0.78125-1.0703-1.2266-1.9531-1.3438-0.89844-0.125-1.6523 0.13672-2.2656 0.78125-0.61719 0.63672-1.0078 1.5781-1.1719 2.8281z"/>
</symbol>
<radialGradient id="ai" cx="242.07" cy="124" r="61.449" gradientTransform="matrix(1 0 0 .36274 0 79.019)" gradientUnits="userSpaceOnUse">
<stop stop-color="#ccc" offset="0"/>
<stop stop-color="#b3b3b3" offset="1"/>
</radialGradient>
</defs>
<path transform="matrix(2.1119 0 0 2.1134 .27233 11.36)" d="m181.45 120.61c5.1864-13.555 33.071-21.302 48.884-17.601 31.077 7.2731 61.539 7.8534 70.708 23.887 6.9639 12.18-3.8768 26.135-24.693 14.877-23.884-12.916-42.749-5.288-49.413-3.4286-30.167 8.4135-49.183-8.066-45.486-17.734z" fill="url(#ai)" stroke="#000" stroke-width=".75"/>
<path transform="matrix(2.1119 0 0 2.1134 .27233 11.36)" d="m93.751-1.3976e-4h261.45v206.25h-261.45zm0 0" fill="#fff" stroke="#000" stroke-linecap="round" stroke-width=".28346"/>
<path transform="matrix(2.1119 0 0 2.1134 .27233 11.36)" d="m185.85 114.67c3.7473-2.9776 21.864-19.671 53.856-9.9771 9.3351 2.8298 7.8406 2.0886 16.101 3.4859 14.601 2.4675 36.055 5.9312 42.697 14.825 10.543 14.112 3.1092 25.324-9.9676 23.25-13.079-2.0756-30.227-15.618-47.97-11.421-17.743 4.1975-23.296 11.373-45.564 2.8981-22.266-8.4745-12.897-20.084-9.152-23.061z" fill="#999" stroke="#000" stroke-width=".9"/>
<path transform="matrix(2.1119 0 0 2.1134 .27233 11.36)" d="m180.95 121.97 0.92112 6.5245s0.10358-9.1066 0.10358-9.1066l1.7331 11.617-0.27005-13.868 2.0346 15.483-0.52714-17.149 2.2658 18.407-0.73245-19.727 2.4526 20.775-0.91002-22.015 2.6191 22.921-1.0728-24.094 2.7744 24.893-1.2226-25.989 2.9169 26.704-1.3595-27.725 3.05 28.375s-1.4853-29.321-1.4853-29.321l3.1703 29.928s-1.5999-30.804-1.5999-30.804l3.2831 31.369s-1.7091-32.179-1.7091-32.179l3.3885 32.698-1.8089-33.443 3.4847 33.913s-1.8996-34.595-1.8996-34.595l3.5716 35.011s-1.981-35.632-1.981-35.632l3.6456 35.988-2.0512-36.55 3.7141 36.842s-2.116-37.349-2.116-37.349l3.7714 37.572-2.1678-38.021 3.8176 38.169s-2.2103-38.565-2.2103-38.565l3.8546 38.637s-2.2436-38.979-2.2436-38.979 3.8824 38.97 3.8824 38.97l-2.2658-39.26s3.8953 39.166 3.8953 39.166l-2.2769-39.404s3.9027 39.228 3.9027 39.228-2.2787-39.417-2.2787-39.417 3.8972 39.164 3.8972 39.164-2.2695-39.302-2.2695-39.302l3.8824 38.973s-2.251-39.064-2.251-39.064 3.8583 38.672 3.8583 38.672-2.2233-38.715-2.2233-38.715l3.8269 38.267-2.1881-38.262 3.788 37.776-2.1456-37.724 3.7436 37.206s-2.0975-37.108-2.0975-37.108l3.6937 36.578s-2.0438-36.436-2.0438-36.436l3.6401 35.9-1.9865-35.711 3.5846 35.181-1.9273-34.95 3.5254 34.434-1.8663-34.157 3.4644 33.661s-1.7997-33.342-1.7997-33.342l3.4015 32.87s-1.735-32.506-1.735-32.506l3.3386 32.064-1.6684-31.66 3.2757 31.247s-1.6018-30.798-1.6018-30.798l3.211 30.427-1.5333-29.939 3.1481 29.649-1.4705-29.144 3.0944 28.946-1.4168-28.455 3.0463 28.342s-1.3724-27.871-1.3724-27.871l3.0075 27.841-1.3336-27.414 2.9761 27.466-1.3114-27.111 2.9613 27.24-1.3003-26.961 2.9539 27.163-1.2966-26.917 2.9557 27.187-1.2966-26.937 2.9631 27.274-1.304-27.009 2.9724 27.407s-1.3114-27.128-1.3114-27.128l2.9853 27.58-1.3262-27.301 3.0056 27.806-1.3447-27.523 3.026 28.074-1.365-27.786 3.05 28.379s-1.3872-28.087-1.3872-28.087l3.0759 28.717s-1.415-28.418-1.415-28.418l3.1037 29.077-1.4409-28.767 3.1333 29.451-1.4686-29.131 3.1629 29.832-1.4982-29.497 3.1925 30.207-1.5278-29.859 3.2221 30.571-1.5537-30.207 3.2479 30.913-1.5796-30.528 3.272 31.22-1.6018-30.815 3.2923 31.478-1.6203-31.05 3.309 31.676s-1.6351-31.22-1.6351-31.22l3.3182 31.798-1.6406-31.312 3.3201 31.828-1.6406-31.303 3.3127 31.743-1.6295-31.175 3.296 31.519s-1.6092-30.902-1.6092-30.902l3.2646 31.129s-1.574-30.451-1.574-30.451l3.2202 30.538-1.5222-29.785 3.1555 29.721s-1.4501-28.872-1.4501-28.872l3.0704 28.641-1.3539-27.664 2.9594 27.237-1.23-26.08 2.817 25.422-1.0654-23.972 2.6283 23.011-0.83048-20.995 2.3583 19.594-0.50125-16.796 1.9643 14.566 0.009248-10.302 0.9692 7.103" fill="none" stroke="#666" stroke-width=".9"/>
<path transform="matrix(2.1119 0 0 2.1134 .27233 11.36)" d="m185.85 114.67c3.7473-2.9776 21.864-19.671 53.856-9.9771 9.3351 2.8298 7.8406 2.0886 16.101 3.4859 14.601 2.4675 36.055 5.9312 42.697 14.825 10.543 14.112 3.1092 25.324-9.9676 23.25-13.079-2.0756-30.227-15.618-47.97-11.421-17.743 4.1975-23.296 11.373-45.564 2.8981-22.266-8.4745-12.897-20.084-9.152-23.061z" fill="none" stroke="#000" stroke-width=".9"/>
<path transform="matrix(2.1119 0 0 2.1134 .27233 11.36)" d="m93.751-1.3976e-4h261.45v206.25h-261.45z" fill="none" stroke="#000" stroke-width=".75"/>
<path transform="matrix(2.1119 0 0 2.1134 .27233 11.36)" d="m142.5 206.25v-206.25" fill="none" stroke="#000" stroke-width=".75"/>
<path transform="matrix(2.1119 0 0 2.1134 .27233 11.36)" d="m191.25 206.25v-206.25" fill="none" stroke="#000" stroke-width=".75"/>
<path transform="matrix(2.1119 0 0 2.1134 .27233 11.36)" d="m247.5 206.25v-206.25" fill="none" stroke="#000" stroke-width="1.5"/>
<path transform="matrix(2.1119 0 0 2.1134 .27233 11.36)" d="m303.75 206.25v-206.25" fill="none" stroke="#000" stroke-width=".75"/>
<path transform="matrix(2.1119 0 0 2.1134 .27233 11.36)" d="m111 206.25v-206.25" fill="none" stroke="#000" stroke-width=".75"/>
<path transform="matrix(2.1119 0 0 2.1134 .27233 11.36)" d="m167.25 206.25v-206.25" fill="none" stroke="#000" stroke-width="1.5"/>
<path transform="matrix(2.1119 0 0 2.1134 .27233 11.36)" d="m222.75 206.25v-206.25" fill="none" stroke="#000" stroke-width=".75"/>
<path transform="matrix(2.1119 0 0 2.1134 .27233 11.36)" d="m272.25 206.25v-206.25" fill="none" stroke="#000" stroke-width=".75"/>
<path transform="matrix(2.1119 0 0 2.1134 .27233 11.36)" d="m326.25 206.25v-206.25" fill="none" stroke="#000" stroke-width="1.5"/>
<path transform="matrix(2.1119 0 0 2.1134 .27233 11.36)" d="m93.751 26.249h261.45" fill="none" stroke="#000" stroke-width=".75"/>
<path transform="matrix(2.1119 0 0 2.1134 .27233 11.36)" d="m93.751 51h261.45" fill="none" stroke="#000" stroke-width=".75"/>
<path transform="matrix(2.1119 0 0 2.1134 .27233 11.36)" d="m93.751 75h261.45" fill="none" stroke="#000" stroke-width=".75"/>
<path transform="matrix(2.1119 0 0 2.1134 .27233 11.36)" d="m93.751 98.25h261.45" fill="none" stroke="#000" stroke-width=".75"/>
<path transform="matrix(2.1119 0 0 2.1134 .27233 11.36)" d="m93.751 123h261.45" fill="none" stroke="#000" stroke-width=".75"/>
<path transform="matrix(2.1119 0 0 2.1134 .27233 11.36)" d="m93.751 146.25h261.45" fill="none" stroke="#000" stroke-width=".75"/>
<path transform="matrix(2.1119 0 0 2.1134 .27233 11.36)" d="m93.751 171h261.45" fill="none" stroke="#000" stroke-width=".75"/>
<path transform="matrix(2.1119 0 0 2.1134 .27233 11.36)" d="m91.143 195.75h264.05" fill="none" stroke="#000" stroke-width=".75"/>
<g>
<use x="784.240366" y="325.828125" xlink:href="#ah"/>
<use x="784.240366" y="313.147563" xlink:href="#m"/>
<use x="784.240366" y="298.353573" xlink:href="#i"/>
<use x="784.240366" y="283.559584" xlink:href="#l"/>
<use x="784.240366" y="268.765595" xlink:href="#k"/>
<use x="784.240366" y="253.971605" xlink:href="#f"/>
<use x="784.240366" y="239.177616" xlink:href="#h"/>
<use x="784.240366" y="226.497054" xlink:href="#h"/>
<use x="784.240366" y="213.816491" xlink:href="#e"/>
<use x="784.240366" y="207.47621" xlink:href="#r"/>
<use x="784.240366" y="199.022502" xlink:href="#u"/>
<use x="784.240366" y="184.228513" xlink:href="#cf"/>
<use x="784.240366" y="169.434523" xlink:href="#m"/>
<use x="784.240366" y="154.640534" xlink:href="#k"/>
<use x="784.240366" y="139.846545" xlink:href="#t"/>
</g>
<g>
<use x="223.886719" y="470.791503" xlink:href="#d"/>
<use x="234.44627" y="470.791503" xlink:href="#a"/>
</g>
<g>
<use x="290.378906" y="470.791503" xlink:href="#q"/>
<use x="300.938458" y="470.791503" xlink:href="#a"/>
</g>
<g>
<use x="337" y="470.791503" xlink:href="#o"/>
<use x="349.671462" y="470.791503" xlink:href="#c"/>
<use x="362.342924" y="470.791503" xlink:href="#c"/>
</g>
<g>
<use x="387.992188" y="470.791503" xlink:href="#d"/>
<use x="398.551739" y="470.791503" xlink:href="#a"/>
<use x="409.111291" y="470.791503" xlink:href="#a"/>
</g>
<g>
<use x="454.484375" y="470.791503" xlink:href="#q"/>
<use x="465.043927" y="470.791503" xlink:href="#a"/>
<use x="475.603478" y="470.791503" xlink:href="#a"/>
</g>
<g>
<use x="501.105469" y="470.791503" xlink:href="#o"/>
<use x="513.776931" y="470.791503" xlink:href="#c"/>
<use x="526.448393" y="470.791503" xlink:href="#c"/>
<use x="539.119855" y="470.791503" xlink:href="#c"/>
</g>
<g>
<use x="553.683594" y="470.791503" xlink:href="#d"/>
<use x="564.243145" y="470.791503" xlink:href="#a"/>
<use x="574.802697" y="470.791503" xlink:href="#a"/>
<use x="585.362249" y="470.791503" xlink:href="#a"/>
</g>
<g>
<use x="617.007812" y="470.791503" xlink:href="#q"/>
<use x="627.567364" y="470.791503" xlink:href="#a"/>
<use x="638.126916" y="470.791503" xlink:href="#a"/>
<use x="648.686468" y="470.791503" xlink:href="#a"/>
</g>
<g>
<use x="668.378906" y="470.791503" xlink:href="#o"/>
<use x="681.050368" y="470.791503" xlink:href="#c"/>
<use x="693.72183" y="470.791503" xlink:href="#c"/>
<use x="706.393292" y="470.791503" xlink:href="#c"/>
<use x="719.064754" y="470.791503" xlink:href="#c"/>
</g>
<g>
<use x="386.605469" y="529.595696" xlink:href="#bt"/>
<use x="399.276931" y="529.595696" xlink:href="#bo"/>
<use x="407.724572" y="529.595696" xlink:href="#ac"/>
<use x="422.507945" y="529.595696" xlink:href="#bn"/>
<use x="437.291317" y="529.595696" xlink:href="#bm"/>
<use x="452.074689" y="529.595696" xlink:href="#ac"/>
<use x="466.858062" y="529.595696" xlink:href="#bl"/>
<use x="481.641434" y="529.595696" xlink:href="#bk"/>
<use x="494.312896" y="529.595696" xlink:href="#bj"/>
<use x="509.096269" y="529.595696" xlink:href="#bi"/>
<use x="515.432" y="529.595696" xlink:href="#bs"/>
<use x="523.879641" y="529.595696" xlink:href="#br"/>
<use x="540.774924" y="529.595696" xlink:href="#bq"/>
<use x="553.446386" y="529.595696" xlink:href="#bp"/>
</g>
<path transform="matrix(2.1119 0 0 2.1134 .27233 11.36)" d="m204.75 206.25v24.636" fill="none" stroke="#000" stroke-width=".75"/>
<path transform="matrix(2.1119 0 0 2.1134 .27233 11.36)" d="m285.75 206.25v24.751" fill="none" stroke="#000" stroke-width=".75"/>
<path transform="matrix(2.1119 0 0 2.1134 .27233 11.36)" d="m284.25 228.39h-77.999" fill="none" stroke="#000" stroke-width=".75"/>
<path d="m592.3 490.21 10.383 3.8242-10.383 3.8203c1.6602-2.2578 1.6484-5.3438 0-7.6445z" fill-rule="evenodd"/>
<path d="m444.14 497.88-10.383-3.8242 10.383-3.8203c-1.6602 2.2578-1.6484 5.3438 0 7.6445z" fill-rule="evenodd"/>
<g>
<use x="475.789062" y="488.752441" xlink:href="#by"/>
<use x="484.236704" y="488.752441" xlink:href="#p"/>
<use x="494.796256" y="488.752441" xlink:href="#bx"/>
<use x="499.020076" y="488.752441" xlink:href="#p"/>
<use x="509.579628" y="488.752441" xlink:href="#bw"/>
<use x="520.13918" y="488.752441" xlink:href="#bv"/>
<use x="530.698731" y="488.752441" xlink:href="#bu"/>
<use x="541.258283" y="488.752441" xlink:href="#cb"/>
<use x="551.817835" y="488.752441" xlink:href="#p"/>
</g>
<g>
<use x="149.23646" y="403.589844" xlink:href="#s"/>
<use x="149.23646" y="388.795854" xlink:href="#m"/>
<use x="149.23646" y="374.001865" xlink:href="#i"/>
<use x="149.23646" y="359.207876" xlink:href="#k"/>
<use x="149.23646" y="344.413886" xlink:href="#l"/>
<use x="149.23646" y="329.619897" xlink:href="#e"/>
<use x="149.23646" y="323.279616" xlink:href="#ag"/>
<use x="149.23646" y="308.485627" xlink:href="#n"/>
<use x="149.23646" y="300.031918" xlink:href="#f"/>
<use x="149.23646" y="285.237929" xlink:href="#h"/>
<use x="149.23646" y="272.557367" xlink:href="#h"/>
<use x="149.23646" y="259.876804" xlink:href="#i"/>
<use x="149.23646" y="245.082815" xlink:href="#n"/>
<use x="149.23646" y="236.629107" xlink:href="#f"/>
<use x="149.23646" y="221.835118" xlink:href="#e"/>
<use x="149.23646" y="215.494836" xlink:href="#af"/>
<use x="149.23646" y="209.154555" xlink:href="#f"/>
<use x="149.23646" y="194.360566" xlink:href="#ce"/>
<use x="149.23646" y="179.566577" xlink:href="#f"/>
<use x="149.23646" y="164.772587" xlink:href="#af"/>
<use x="149.23646" y="158.432306" xlink:href="#e"/>
<use x="149.23646" y="152.092025" xlink:href="#r"/>
<use x="149.23646" y="143.638317" xlink:href="#l"/>
<use x="149.23646" y="128.844328" xlink:href="#cd"/>
<use x="149.23646" y="111.936911" xlink:href="#e"/>
<use x="149.23646" y="105.59663" xlink:href="#s"/>
<use x="149.23646" y="90.802641" xlink:href="#u"/>
<use x="149.23646" y="76.008651" xlink:href="#ah"/>
<use x="149.23646" y="63.328089" xlink:href="#t"/>
</g>
<g>
<use x="180.132813" y="430.240722" xlink:href="#a"/>
</g>
<g>
<use x="169.382812" y="378.908691" xlink:href="#d"/>
<use x="179.942364" y="378.908691" xlink:href="#a"/>
</g>
<g>
<use x="169.382812" y="326.604003" xlink:href="#j"/>
<use x="179.942364" y="326.604003" xlink:href="#a"/>
</g>
<g>
<use x="169.382812" y="277.467284" xlink:href="#ae"/>
<use x="179.942364" y="277.467284" xlink:href="#a"/>
</g>
<g>
<use x="169.382812" y="225.158691" xlink:href="#ad"/>
<use x="179.942364" y="225.158691" xlink:href="#a"/>
</g>
<g>
<use x="158.632813" y="176.021972" xlink:href="#b"/>
<use x="169.192364" y="176.021972" xlink:href="#a"/>
<use x="179.751916" y="176.021972" xlink:href="#a"/>
</g>
<g>
<use x="158.632813" y="125.299316" xlink:href="#b"/>
<use x="169.192364" y="125.299316" xlink:href="#d"/>
<use x="179.751916" y="125.299316" xlink:href="#a"/>
</g>
<g>
<use x="158.632813" y="72.990722" xlink:href="#b"/>
<use x="169.192364" y="72.990722" xlink:href="#j"/>
<use x="179.751916" y="72.990722" xlink:href="#a"/>
</g>
<path transform="matrix(2.1119 0 0 2.1134 .27233 11.36)" d="m82.5 195h-51" fill="none" stroke="#000" stroke-width=".75"/>
<path transform="matrix(2.1119 0 0 2.1134 .27233 11.36)" d="m41.249 202.5h-5.2492v-169.5h5.2492" fill="none" stroke="#000" stroke-width=".75"/>
<g>
<use x="28.58021" y="372.070312" xlink:href="#s"/>
<use x="28.58021" y="357.276323" xlink:href="#m"/>
<use x="28.58021" y="342.482334" xlink:href="#i"/>
<use x="28.58021" y="327.688344" xlink:href="#k"/>
<use x="28.58021" y="312.894355" xlink:href="#l"/>
<use x="28.58021" y="298.100366" xlink:href="#e"/>
<use x="28.58021" y="291.760085" xlink:href="#ag"/>
<use x="28.58021" y="276.966095" xlink:href="#n"/>
<use x="28.58021" y="268.512387" xlink:href="#f"/>
<use x="28.58021" y="253.718398" xlink:href="#h"/>
<use x="28.58021" y="241.037836" xlink:href="#h"/>
<use x="28.58021" y="228.357273" xlink:href="#i"/>
<use x="28.58021" y="213.563284" xlink:href="#n"/>
<use x="28.58021" y="205.109576" xlink:href="#f"/>
<use x="28.58021" y="190.315586" xlink:href="#e"/>
<use x="28.58021" y="183.975305" xlink:href="#r"/>
<use x="28.58021" y="175.521597" xlink:href="#u"/>
<use x="28.58021" y="162.841035" xlink:href="#cc"/>
<use x="28.58021" y="148.047045" xlink:href="#t"/>
</g>
<path d="m419.54 405.79c0 5.7266-7.2344 10.367-16.16 10.367-8.9219 0-16.156-4.6406-16.156-10.367 0-5.7227 7.2344-10.363 16.156-10.363 8.9258 0 16.16 4.6406 16.16 10.363z" fill="#fff"/>
<path d="m302.2 364.21 147.42 81.137 12.145-20.652-151.82-81.078z" fill="#fff"/>
<path d="m320.82 60.719 135.82 20.711 5.8945-24.555-139.96-19.254z" fill="#fff"/>
<g>
<use x="302.915734" y="359.204863" xlink:href="#bh"/>
<use x="315.847347" y="366.37391" xlink:href="#aa"/>
<use x="326.931587" y="372.518807" xlink:href="#bc"/>
<use x="338.015826" y="378.663704" xlink:href="#z"/>
<use x="345.405319" y="382.760302" xlink:href="#bb"/>
<use x="350.947439" y="385.832751" xlink:href="#ba"/>
<use x="362.031679" y="391.977648" xlink:href="#az"/>
<use x="373.115918" y="398.122545" xlink:href="#ay"/>
<use x="378.658038" y="401.194993" xlink:href="#ax"/>
<use x="386.047531" y="405.291591" xlink:href="#ab"/>
<use x="397.131771" y="411.436489" xlink:href="#z"/>
<use x="404.521264" y="415.533087" xlink:href="#aa"/>
<use x="415.605504" y="421.677984" xlink:href="#bg"/>
<use x="424.84237" y="426.798731" xlink:href="#ab"/>
<use x="435.926609" y="432.943629" xlink:href="#bf"/>
<use x="447.010849" y="439.088526" xlink:href="#be"/>
<use x="452.552969" y="442.160974" xlink:href="#bd"/>
</g>
<path transform="matrix(2.1119 0 0 2.1134 .27233 11.36)" d="m36 177.74h5.2492" fill="none" stroke="#000" stroke-width=".75"/>
<path transform="matrix(2.1119 0 0 2.1134 .27233 11.36)" d="m36 153.75h5.2492" fill="none" stroke="#000" stroke-width=".75"/>
<path transform="matrix(2.1119 0 0 2.1134 .27233 11.36)" d="m36 129h5.2492" fill="none" stroke="#000" stroke-width=".75"/>
<path transform="matrix(2.1119 0 0 2.1134 .27233 11.36)" d="m36 105.07h5.2492" fill="none" stroke="#000" stroke-width=".75"/>
<path transform="matrix(2.1119 0 0 2.1134 .27233 11.36)" d="m36 81.334h5.2492" fill="none" stroke="#000" stroke-width=".75"/>
<path transform="matrix(2.1119 0 0 2.1134 .27233 11.36)" d="m36 57h5.2492" fill="none" stroke="#000" stroke-width=".75"/>
<g>
<use x="35.5625" y="393.174316" xlink:href="#b"/>
<use x="46.122052" y="393.174316" xlink:href="#a"/>
</g>
<g>
<use x="55.773438" y="383.719604" xlink:href="#g"/>
<use x="59.997258" y="383.719604" xlink:href="#aw"/>
</g>
<g>
<use x="35.5625" y="447.795409" xlink:href="#b"/>
<use x="46.122052" y="447.795409" xlink:href="#a"/>
</g>
<g>
<use x="55.773438" y="438.336791" xlink:href="#g"/>
<use x="59.997258" y="438.336791" xlink:href="#y"/>
</g>
<g>
<use x="35.5625" y="342.600097" xlink:href="#b"/>
<use x="46.122052" y="342.600097" xlink:href="#a"/>
</g>
<g>
<use x="55.773438" y="333.145385" xlink:href="#g"/>
<use x="59.997258" y="333.145385" xlink:href="#av"/>
</g>
<g>
<use x="35.5625" y="290.721191" xlink:href="#b"/>
<use x="46.122052" y="290.721191" xlink:href="#a"/>
</g>
<g>
<use x="55.773438" y="281.262573" xlink:href="#g"/>
<use x="59.997258" y="281.262573" xlink:href="#x"/>
</g>
<g>
<use x="35.5625" y="239.424316" xlink:href="#b"/>
<use x="46.122052" y="239.424316" xlink:href="#a"/>
</g>
<g>
<use x="55.773438" y="229.965698" xlink:href="#g"/>
<use x="59.997258" y="229.965698" xlink:href="#w"/>
</g>
<g>
<use x="46.75" y="191.873534" xlink:href="#b"/>
</g>
<g>
<use x="35.5625" y="137.924316" xlink:href="#b"/>
<use x="46.122052" y="137.924316" xlink:href="#a"/>
</g>
<g>
<use x="60.804688" y="128.469604" xlink:href="#w"/>
</g>
<g>
<use x="35.5625" y="88.842284" xlink:href="#b"/>
<use x="46.122052" y="88.842284" xlink:href="#a"/>
</g>
<g>
<use x="60.902344" y="79.383666" xlink:href="#x"/>
</g>
<g>
<use x="19.441406" y="428.334472" xlink:href="#d"/>
<use x="30.000958" y="428.334472" xlink:href="#ca"/>
<use x="36.336689" y="428.334472" xlink:href="#b"/>
<use x="46.896241" y="428.334472" xlink:href="#a"/>
</g>
<g>
<use x="55.773438" y="418.875854" xlink:href="#g"/>
<use x="59.997258" y="418.875854" xlink:href="#y"/>
</g>
<g>
<use x="713.636719" y="58.674316" xlink:href="#b"/>
<use x="724.19627" y="58.674316" xlink:href="#bz"/>
<use x="734.755822" y="58.674316" xlink:href="#a"/>
</g>
<g>
<use x="713.636719" y="88.842284" xlink:href="#b"/>
<use x="724.19627" y="88.842284" xlink:href="#d"/>
<use x="734.755822" y="88.842284" xlink:href="#a"/>
</g>
<g>
<use x="713.636719" y="155.361816" xlink:href="#b"/>
<use x="724.19627" y="155.361816" xlink:href="#a"/>
<use x="734.755822" y="155.361816" xlink:href="#a"/>
</g>
<g>
<use x="724.382812" y="234.615722" xlink:href="#ad"/>
<use x="734.942364" y="234.615722" xlink:href="#a"/>
</g>
<g>
<use x="724.382812" y="285.389159" xlink:href="#ae"/>
<use x="734.942364" y="285.389159" xlink:href="#a"/>
</g>
<g>
<use x="724.382812" y="317.037597" xlink:href="#j"/>
<use x="734.942364" y="317.037597" xlink:href="#a"/>
</g>
<g>
<use x="724.382812" y="351.963378" xlink:href="#d"/>
<use x="734.942364" y="351.963378" xlink:href="#a"/>
</g>
<g>
<use x="734.960937" y="391.592284" xlink:href="#j"/>
</g>
<g>
<use x="321.867918" y="56.883822" xlink:href="#au"/>
<use x="332.3333" y="58.291924" xlink:href="#ap"/>
<use x="344.891759" y="59.981647" xlink:href="#ao"/>
<use x="351.170988" y="60.826508" xlink:href="#an"/>
<use x="363.729447" y="62.51623" xlink:href="#am"/>
<use x="370.008676" y="63.361091" xlink:href="#al"/>
<use x="378.380982" y="64.487573" xlink:href="#v"/>
<use x="390.939441" y="66.177295" xlink:href="#ak"/>
<use x="399.311747" y="67.303777" xlink:href="#aj"/>
<use x="411.870206" y="68.993499" xlink:href="#at"/>
<use x="422.335588" y="70.401601" xlink:href="#v"/>
<use x="434.894047" y="72.091323" xlink:href="#as"/>
<use x="447.452505" y="73.781046" xlink:href="#ar"/>
<use x="453.731735" y="74.625907" xlink:href="#aq"/>
</g>
<path transform="matrix(2.1119 0 0 2.1134 .27233 11.36)" d="m112.09 11.92c50.012 28.902 124.56 22.608 142.02 27.906 19.157 5.8111 31.055 28.804 42.686 17.958 8.0995-7.554 14.004-16.243 23.762-23.695 4.0451-3.0885 8.499-9.9309 8.499-9.9309" fill="none" stroke="#000" stroke-dasharray="5,5" stroke-linecap="round" stroke-linejoin="bevel" stroke-width="2.5"/>
<path transform="matrix(2.1119 0 0 2.1134 .27233 11.36)" d="m111.25 108.96c22.177 30.68 51.046 57.732 86.145 72.79 17.264 7.408 36.238 10.602 55.025 8.9883 10.576-0.90936 21.933 4.0718 31.79 8.0993 11.279 4.606 20.167-3.9036 26.773-11.975 4.5723-5.5837 14.442-18.941 20.216-9.6241 1.5315 2.4675 4.2652 4.4211 7.8276-0.32715" fill="none" stroke="#000" stroke-dasharray="5,5" stroke-linecap="round" stroke-linejoin="bevel" stroke-width="2.5"/>
<path transform="matrix(2.1119 0 0 2.1134 .27233 11.36)" d="m111.25 99.895c22.177 30.68 51.066 52.874 86.145 67.981 17.285 7.3599 48.336 1.5544 60.753 3.3325 11.344 1.584 15.398 1.5396 27.212 7.0642 8.9578 3.8981 17.211 1.6173 23.895-6.3489 4.4743-5.6632 11.725-17.25 17.288-11.018 9.4035 11.034 10.264 6.0513 13.23-1.9943" fill="none" stroke="#000" stroke-linecap="round" stroke-width="2.5"/>
<path transform="matrix(2.1119 0 0 2.1134 .27233 11.36)" d="m111.25 87.218c27.271 29 49.994 47.612 86.087 60.098 27.661 9.5668 51.679-4.1698 64.084-2.3196 9.4276 1.4047 11.279 3.2696 23.27 8.3987 8.6026 3.68 19.974 0.10905 25.567-7.3193 4.3411-5.7649 11.616-12.326 17.755-5.3065 8.1273 9.297 7.478 9.2489 11.76 3.1458" fill="none" stroke="#000" stroke-linecap="round" stroke-width="2.5"/>
<path transform="matrix(2.1119 0 0 2.1134 .27233 11.36)" d="m111.25 75.568c28.218 27.078 54.605 40.238 86.087 49.527 28.072 8.2841 51.359-6.0772 64.084-3.6227 9.3591 1.8058 11.396 4.4914 23.387 9.6204 8.6026 3.68 19.663-0.56373 25.451-7.8386 4.1173-5.1789 12.788-11.225 18.413-3.7853 4.28 5.6595 6.8418 9.1565 10.421 4.9035" fill="none" stroke="#000" stroke-linecap="round" stroke-width="2.5"/>
<path transform="matrix(2.1119 0 0 2.1134 .27233 11.36)" d="m111.25 60.717c32.296 26.976 54.605 32.833 86.087 42.123 28.072 8.2841 46.344-8.0863 64.084-4.5394 11.503 2.2993 17.448 7.2509 23.598 10.166 12.11 5.7371 19.192-2.4841 25.451-9.3598 4.1987-4.6115 12.422-9.6241 18.239-4.0663 4.3781 4.1827 6.8307 9.4079 10.384 6.5485" fill="none" stroke="#000" stroke-linecap="round" stroke-width="2.5"/>
<path transform="matrix(2.1119 0 0 2.1134 .27233 11.36)" d="m111.25 41.361c19.601 22.08 68.436 32.138 86.087 36.005 28.592 6.2639 44.101-6.8664 64.084-0.31976 17.157 5.6207 17.448 7.4653 23.598 10.378 12.11 5.739 19.164-3.6356 25.451-10.485 3.7621-4.0977 12.557-11.147 18.452-8.5262 2.7208 1.2088 4.1802 1.5748 8.2567-1.353" fill="none" stroke="#000" stroke-linecap="round" stroke-width="2.5"/>
<path transform="matrix(2.1119 0 0 2.1134 .27233 11.36)" d="m111.25 20.636c28.09 24.115 68.161 25.993 86.087 28.257 28.375 3.5839 44.101-1.2273 64.084 5.3194 12.766 4.1827 18.933 10.112 25.083 13.027 12.11 5.7371 19.164-10.053 25.451-16.901 3.7621-4.0977 10.528-8.9957 15.696-12.896 1.1967-0.90567 3.481-2.9185 3.8805-7.0624" fill="none" stroke="#000" stroke-linecap="round" stroke-width="2.5"/>
</svg>
