<?xml version="1.0" encoding="UTF-8"?>
<svg width="800px" height="1171px" version="1.1" viewBox="0 0 800 1171" xmlns="http://www.w3.org/2000/svg">
<g stroke="#333" stroke-linecap="round" stroke-linejoin="round" stroke-miterlimit="10">
<path transform="matrix(10.668 0 0 10.671 -1641.6 -798.94)" d="m208.01 127.54c-0.068837-0.50701-0.10179-1.0155-0.23837-1.5917-0.13658-0.57583-0.16953-1.7612-0.20395-2.5398-0.034419-1.3545-0.034419-6.7068-0.8158-8.6375-0.16953-0.60915-0.34053-1.5917-0.30574-2.9806-0.10216-3.8269-0.95238-6.0274-0.88354-7.1798 0.2369-1.7279-0.068837-3.4202-0.4079-4.8768-0.10179-0.40634-0.23837-0.77974-0.44232-1.152-1.1563-2.2697-3.9095-3.1157-4.9292-3.3525-0.78138-0.2039-2.8883-1.2542-3.5678-1.5587-0.068838-0.032947-0.13621-0.067358-0.20395-0.10177-0.10326-0.067723-0.20541-0.10067-0.30721-0.16839-0.032954-0.034411-0.10216-0.068821-0.16953-0.10177-0.91759-0.71128-1.1215-1.6594-1.0871-2.4736 0.034419-0.3723 0.10179-0.71128 0.13621-0.87931v-0.034411c0.20249-0.27163 0.33906-0.54179 0.40644-0.71128 0-0.067358 0.034418-0.13508 0.069203-0.2039 0.032954-0.067358 0.032954-0.13508 0.067373-0.20244v-0.034411c0.034419-0.067724 0.034419-0.13508 0.067373-0.2028v-0.034411c0-0.067357 0.034419-0.13508 0.069204-0.23685 0-0.067723 0.032954-0.16949 0.032954-0.23722 0.034419-0.10067 0.034419-0.16949 0.068838-0.23685 0-0.10214 0-0.16949 0.032954-0.23722v-0.20244l0.034785-0.034411c0.034419-0.033312 0.10179-0.067723 0.16953-0.10213 0-0.032947 0.034419-0.032947 0.068838-0.032947v-0.034411c0.032954 0 0.032954-0.033313 0.067373-0.033313v-0.034411c0.034419 0 0.034419 0 0.034419-0.032946 0.032954 0 0.032954 0 0.032954-0.034411h0.034785c0-0.034777 0.034419-0.067724 0.034419-0.067724 0.13621-0.16949 0.16953-0.33898 0.27132-0.50848 0.13658-0.2039 0.068838-0.33898 0.20395-0.67797 0.10216-0.30457 0.16953-0.81159 0.16953-1.0155 0-0.2028 0.23837-0.74569 0.23837-1.0159 0-0.16949-0.067373-0.30457-0.13658-0.33898-0.032954-0.032946-0.067373-0.032946-0.10179-0.032946-0.032954-0.034411-0.067373 0-0.10216 0l-0.3387 1.0832-0.067739 0.30457c-0.068837 0.27126-0.27279 0.64356-0.27279 0.64356v-0.034777c0.034419-0.10067 0.10216-0.23685 0.16953-0.40488 0-0.034777 0.034419-0.10213 0.068837-0.16949 0-0.034777 0-0.034777 0.034419-0.067723 0-0.068822 0.033321-0.13655 0.067739-0.23685v-0.034777c0.034419-0.067358 0.067373-0.16949 0.10179-0.23685v-0.034411c0.034785-0.10067 0.034785-0.2028 0.067739-0.27016 0-0.034411 0-0.034411 0.034419-0.067358 0-0.10213 0.032954-0.20427 0.032954-0.30604v-0.033313c0.034419-0.10177 0.034419-0.2039 0.034419-0.33898 0.034419-0.03441 0.034419-0.10177 0.034419-0.16949v-0.032946c0.03332-0.54289 0-1.4237-0.37348-2.2697 0-0.067357 0-0.10177-0.034419-0.16949-0.13621-0.54142-0.44232-1.0499-1.0197-1.2871 0.10216 0.067723 0.20395 0.10213 0.30611 0.13508-0.30611-0.30457-0.85022-0.6765-1.2925-0.74423 0.23837 0 0.47674 0.2028 0.74806 0.2028-0.20395-0.2028-0.57743-0.40671-0.88317-0.43966-0.20395-0.034411-0.51006 0.13508-0.74843 0.13508-0.034419-0.034777-0.067373-0.034777-0.10179-0.034777-0.067739-0.032946-0.13511-0.067357-0.20395-0.1003-0.23727-0.13654-0.47564-0.13654-0.74843-0.2039-0.47527-0.067724-0.91649-0.067724-1.3932-0.033313 0.10216 0 0.20395 0.067724 0.34053 0.10067-0.067739-0.032947-0.13658-0.032947-0.20395-0.032947-0.13658 0.032947-0.23837 0.032947-0.37495 0.067357-0.067373 0-0.10179 0.032947-0.16953 0.032947-0.10179 0.034777-0.23837 0.034777-0.34016 0.034777-0.27169 0.034411-0.57743 0.034411-0.84912 0.10177-0.034419 0-0.10179 0-0.13621 0.033312 0.034418 0.034411 0.068837 0.034411 0.10179 0.034411h0.171c-0.20395 0.067358-0.37494 0.13508-0.54448 0.20244l-0.30574 0.10214c-0.34053 0.13508-0.57743 0.40634-0.88354 0.60915 0.067739-0.067723 0.16953-0.10067 0.23727-0.13508-0.13511 0.16949-0.37348 0.27126-0.51006 0.44075-0.067373 0.13508-0.10179 0.27016-0.13621 0.40671-0.78138 1.185-0.61075 2.6072-0.57743 2.9462v0.032947c0.034419 0.034777 0.034419 0.034777 0.034419 0.069188v0.1003c0.067373 0.20427 0.10179 0.54325 0.20395 0.88077 0.032955 0.27126 0.067373 0.50848 0.10179 0.67797-0.068837-0.30457-0.13621-0.61061-0.13621-0.67797v-0.033312s-0.06774-0.2039-0.10216-0.40634c-0.034419-0.067358-0.067373-0.13508-0.067373-0.2039 0-0.067724-0.13658-0.16803-0.13658-0.16803-0.16953-0.10214-0.30574 0.1003-0.30574 0.37193 0 0.27016 0.20395 0.81305 0.20395 1.0155 0 0.2039 0.068838 0.71128 0.20395 1.0159 0.10179 0.33898 0.067373 0.47407 0.16953 0.67797 0.10179 0.16949 0.17063 0.33898 0.27279 0.50848 0 0 0.032954 0.032947 0.032954 0.067358h0.034419c0 0.034411 0.034419 0.034411 0.034419 0.034411 0 0.033312 0.03332 0.033312 0.03332 0.033312 0 0.034411 0.034419 0.034411 0.034419 0.034411 0.034419 0.032947 0.034419 0.032947 0.067373 0.032947v0.034777c0.10326 0.067358 0.171 0.10177 0.23837 0.13508v0.2039c0.034419 0.032947 0.034419 0.067358 0.034419 0.10067v0.13618c0 0.033313 0 0.067724 0.034419 0.10067v0.16949c0 0.034411 0 0.067357 0.032954 0.10213v0.16949c0.034785 0.032947 0.034785 0.067358 0.034785 0.10177v0.033313c0 0.03441 0.034419 0.067357 0.034419 0.067357v0.067358c0 0.034777 0 0.069188 0.032954 0.069188v0.13508c0.034419 0 0.034419 0.032947 0.034419 0.032947v0.068821c0.034418 0.032947 0.034418 0.032947 0.034418 0.067358v0.033313c0.033321 0.034411 0.033321 0.034411 0.033321 0.068822v0.032946c0.034052 0.034777 0.034052 0.067724 0.068837 0.10214 0.067373 0.10177 0.16953 0.30457 0.33906 0.54142 0 0.23722 0.067373 0.5762 0.067373 0.94813 0.034419 0.47407-0.03332 1.017-0.20248 1.491-0.23837 0.5762-0.68105 1.1176-1.4969 1.5573-0.10179 0.034411-0.2369 0.10214-0.37312 0.13655-0.9868 0.40488-2.3112 1.0828-3.1958 1.2523-0.67922 0.10214-4.3159 1.4899-5.0299 4.5726-0.30574 0.98254-0.61185 2.2019-0.68069 3.3869-0.032954 0.54179-0.032954 1.0503 0.034419 1.5917 0.067739 1.152-0.78138 3.3529-0.88317 7.1798 0.032954 1.3559-0.10216 2.3041-0.27279 2.9132-0.06774 0.13618-0.10216 0.27126-0.13511 0.40634-0.68069 2.1675-0.68069 7.0114-0.71401 8.2641-0.034419 0.81305-0.068838 1.9651-0.20395 2.5413-0.10179 0.43929-0.068838 0.846-0.10179 1.2523 0 0.034777 0 0.10214-0.034419 0.13508 0 0.034411 0 0.10213-0.034418 0.13654v0.10067c-0.067373 0.2039-0.13511 0.27163-0.10216 0.54289l0.034785 0.71128c0 0.032947 0 0.067358-0.034785 0.1003 0.034785 0.034411 0.034785 0.61061 0.034785 0.74569h0.034418c0 0.61024 0.032955 1.5584-0.069203 2.1002-0.13475 0.88041-0.032955 1.3889 0 1.9307 0.069203 0.54142 0.61185 1.3545 0.74843 1.998 0.34053 1.4222 0.74843 1.4566 1.0542 1.8963 0.27132 0.44075 0.95091 0.74533 1.1549 0.91482l0.034419 0.034777h0.034419c0.10179 0.13472 0.37348 0.37193 0.71364 0.40634 0 0.032947 0 0.032947 0.03332 0.032947h0.068838c0.032954-0.032947 0.067373 0 0.067373-0.032947 0.067739 0 0.10216 0 0.13658-0.03441 0.2369-0.10214 0.2369-0.3723 0.2369-0.43966 0.034419 0 0.13658 0.032947 0.27279 0.032947 0.13511 0 0.61185 0.034777 0.84912-0.032947 0.068838 0 0.13621-0.034411 0.13621-0.068822 0.4079-0.3723-0.10179-0.74569-0.13621-0.77864l0.37458-0.034411h0.033321v-0.033313c0.47674-0.27126-0.13511-0.81305-0.13511-0.81305 0-0.034411-0.034419-0.034411-0.13658-0.067358l-0.54411-0.30457c0.30574-0.10214 0.71364-0.2039 0.71364-0.23722-0.032954-0.034411-0.032954-0.034411-0.032954-0.068822h0.032954c-0.032954-0.50701-0.2369-0.60915-0.47527-0.60915-0.23837 0.034411-0.47564 0.13508-0.64627 0.23722-0.067739 0.034411-0.10216 0.034411-0.13511 0.067357-0.068838 0-0.10216 0.034411-0.13658 0-0.27132-0.37193-0.50969-0.23685-0.67922-0.30457l-0.4079-2.2019v-0.067723c0.20395-0.30421-0.23837-0.98254-0.23837-0.98254s0.30574 0.16949 0.57743 0.47553c0.034418 0.067724 0.068837 0.13508 0.10179 0.2028 0.171 0.43929 0.5789 1.152 1.0542 1.3545 0.23837 0.10177 0.47564 0.10177 0.74843-0.067357 0.6448-0.40671 0-1.5243-0.5789-2.2352-0.13511-0.16949-0.30574-0.33898-0.4079-0.44112-0.067373-0.067357-0.10179-0.10067-0.13511-0.13508-0.37458-0.57583-0.44232-1.524-0.57853-2.1331-0.03332-0.47553-0.30611-0.98254-0.30611-1.152 0.034418-0.034411 0.034418-0.10214 0.068837-0.16949 0.067739-0.23722 0.16953-0.71092 0.27169-1.185 0.034419-0.33898 0.61185-2.3718 1.0871-4.2336 0.37348-1.2194 0.68069-2.337 0.71401-2.676 0.30574-1.4896 0.64627-2.337 0.74806-3.2178 0.067739-0.40634 0.067739-0.81305 0-1.3215 0.034419-1.0832 0.44232-3.9964 0.54301-4.6396v0.77974c-0.33906 2.0658-0.2369 3.3858-0.16953 4.5034v0.47406c-0.30574 4.3021 0.4079 9.8229 0.37348 11.11-0.10216 0.64356-0.27132 1.5243-0.33906 2.9809-0.034419 0.50848-0.034419 1.3889 0 2.6416 0 3.3873 0.30611 8.1968 1.4954 14.26 0.068837 0.40524 0.13621 0.77864 0.20395 1.185 0.10179 0.54179 0.16916 2.3359 0.37312 3.3185 0.034419 0.23685 0.54448 1.3889 0.5789 2.9476 0.06774 2.505-0.23837 5.7917-0.13621 7.5861 0.10179 2.9132 1.3599 5.6222 1.8355 7.5184 0.44232 1.8977 0.64627 3.3873 0.54411 3.7607-0.067373 0.33752-0.16953 0.94813 0.13511 1.4896-0.13511 0.33898-0.88317 1.8977-1.3259 2.2023-0.40644 0.33752-0.54265 0.60915-0.88317 0.81305-0.33906 0.20244-0.54301 0.37193-0.67922 0.74423-0.069204 0.2039-0.20395 0.40634-0.27315 0.61024-0.032954 0.16803-0.067373 0.27016 0.069204 0.3723 0.032954 0.032947 0.10179 0.067357 0.10179 0.10177l0.03332-0.034411c-0.03332 0.13508-0.03332 0.20244 0.034419 0.27126 0.13621 0.27016 0.37458 0.30457 0.71364 0.27016l0.034419-0.032947c0 0.10067 0.034419 0.16949 0.10179 0.27016 0.20395 0.30457 0.91796 0.44075 1.1893 0.16949 0.37495 0.2039 1.1219 0.23685 1.3932-0.067724 0.034419 0 0.034419 0.034411 0.034419 0.034411 0.23837 0.50738 1.0542 0.40671 1.5298 0.30457 0.44232-0.067357 0.64627-0.30457 0.88464-0.50848 0.032954 0 0.032954-0.032947 0.032954-0.032947 0.034419-0.034777 0.068838-0.034777 0.10216-0.069188 0.16953-0.13472 0.34016-0.30421 0.37348-0.50701 0.068837-0.13618 0.068837-0.30457 0.034419-0.50848-0.06774-0.54142 0-0.54142 0.067373-1.185v-0.10214c0.10179-0.20244 0.27279-0.37193 0.34053-0.6765 0.034419-0.10214 0.067373-0.2039 0.067373-0.33898 0.034419-0.50848-0.33906-2.6416-0.30611-2.9132 0.10216-0.6765-0.37311-1.2194-0.50823-2.3026-0.171-1.1176 0.27132-4.8439 0.27132-5.5204 0-1.2871 0.67959-3.4217 0.51006-6.0289-0.13658-1.5243-0.88354-6.1654-0.88354-7.2142 0-0.2039-0.034419-1.3545 0.03332-1.5584 0.20395-0.67834 0.78101-9.2122 0.78101-9.3144 0.10216-1.0155 0.81726-6.4008 0.81726-6.4008h0.033321c0.068837 0 0.13621 0.032947 0.20395 0.032947h0.10179c0.034419 0.23722 0.8158 5.2846 0.88354 6.2661 0 0.10177 0.47674 8.7726 0.71364 9.4835 0.068838 0.2039 0 1.3545 0 1.5587 0 1.0499-0.74696 5.6555-0.84875 7.1794-0.171 2.6416 0.50969 4.7762 0.50969 6.0289 0 0.71092 0.44122 4.4372 0.27169 5.5204-0.034785 0.27163-0.10216 0.50848-0.16953 0.74569-0.067739 0.30457-0.20395 0.57583-0.27169 0.81305-0.068838 0.23685-0.10179 0.50848-0.068838 0.74533 0.034419 0.30457-0.37348 2.4377-0.34016 2.9462 0.068838 0.60915 0.409 0.74569 0.44232 1.0847 0.068838 0.6765 0.13621 0.6765 0.034419 1.2183-0.067373 0.50848 0.13621 0.71092 0.4079 0.94813 0.032954 0.034411 0.067373 0.034411 0.10179 0.068822l0.03332 0.032947c0.23837 0.2039 0.44232 0.44112 0.88464 0.50848 0.47527 0.10214 1.2911 0.16949 1.5294-0.30457 0-0.034411 0-0.034411 0.03332-0.068822 0.27279 0.33898 1.0197 0.30604 1.3947 0.10214 0.27132 0.27126 0.98496 0.13508 1.1889-0.16949 0.067739-0.067723 0.067739-0.13508 0.10216-0.16949 0-0.033312 0-0.067723 0.034418-0.10067v0.032947c0.33906 0.034411 0.67922-0.067358 0.74696-0.27016 0 0 0-0.034411 0.034419-0.068822v-0.20244c0.034419 0 0.067373-0.03441 0.10179-0.067723 0.067739-0.034411 0.10216-0.067358 0.10216-0.13472 0.10179-0.23722-0.16953-0.5762-0.27132-0.84783-0.13658-0.37193-0.30611-0.54142-0.68105-0.74386-0.3387-0.2039-0.44085-0.47553-0.88317-0.81305-0.47527-0.33898-1.2911-2.1346-1.3259-2.2697 0.034419-0.067723 0.067739-0.13508 0.10216-0.2039 0.16953-0.47406 0.067373-0.98144 0-1.2527-0.067373-0.40671 0.10179-1.8963 0.57743-3.7936 0.068838-0.2028 0.13621-0.47406 0.20395-0.71128 0.23837-0.77864 0.54411-1.659 0.8158-2.6072 0.4079-1.2871 0.74806-2.7108 0.8158-4.2003 0.068838-1.7956-0.20395-5.0463-0.16953-7.5528 0.034419-0.98254 0.23837-1.7612 0.4079-2.303 0.067373-0.27126 0.13658-0.44075 0.16953-0.54142 0-0.068822 0.034419-0.10214 0.034419-0.13655 0.20395-0.98254 0.27132-2.7767 0.37348-3.3181 1.4621-8.4007 1.7334-13.989 1.7334-16.63v-1.4222s-0.10179-0.64356-0.16916-1.3559c-0.067739-0.6765-0.13658-1.3545-0.20395-1.6246v-0.9496c0.10179-2.1331 0.44232-6.6032 0.30574-9.5842 0.034419-0.74533 0-1.185 0-1.2538 0.034419-0.88077-0.034419-2.2352-0.10179-3.3185 0-0.27163 0-0.50848-0.034785-0.81305 0.034785-0.33898 0.034785-0.67797 0-0.98254 0 0.034411 0.034785 0.067358 0.034785 0.10214 0.067373 0.54142 0.50969 3.5564 0.54411 4.674-0.10179 0.84636 0.03332 1.4566 0.2369 2.2352 0.13658 0.5762 0.34053 1.2198 0.51006 2.1002 0.034419 0.16803 0.13658 0.57474 0.27279 1.0832 0.44085 1.9307 1.4606 5.5548 1.5298 6.0289 0.10179 0.5762 0.27132 1.185 0.3387 1.3215v0.10067c-0.067373 0.16949-0.16916 0.44075-0.2369 0.71092h-0.034418c-0.034419 0.068822-0.067373 0.13655-0.10179 0.2039-0.34053 0.50848-0.34053 1.7268-0.78138 2.3374 0 0.032946-0.034419 0.067357-0.068837 0.10177-0.10216 0.10067-0.27169 0.27016-0.4079 0.43966-0.57743 0.71128-1.2237 1.8285-0.57743 2.2352 0.27132 0.16949 0.50969 0.16949 0.74806 0.067358 0.51006-0.20244 0.88354-0.91335 1.0531-1.3545 0.034419-0.067358 0.068838-0.13508 0.10179-0.16949 0.27279-0.33752 0.5789-0.50701 0.5789-0.50701s-0.034419 0.032946-0.068838 0.1003v0.034411c-0.10216 0.2028-0.30611 0.60915-0.16953 0.84636 0 0.034411 0 0.034411 0.034419 0.067358l-0.44232 2.2023c-0.16953 0.067357-0.4079-0.10214-0.67959 0.30457h-0.10179c-0.068837-0.033313-0.13658-0.033313-0.20395-0.067724-0.171-0.10177-0.4079-0.23685-0.61185-0.23685-0.23837 0-0.44232 0.10177-0.47674 0.61024h0.034418v0.033312c-0.034418 0.067358 0.37348 0.16949 0.67922 0.27126l-0.54301 0.30457c-0.10179 0.03441-0.13621 0.03441-0.13621 0.067723 0 0-0.61185 0.54142-0.13658 0.81305h0.034418v0.032947l0.37348 0.034411c-0.032954 0.034411-0.54301 0.40634-0.13511 0.7801 0 0.032947 0.067739 0.067357 0.13511 0.067357 0.23837 0.067358 0.71401 0.032947 0.85022 0.032947 0.13658 0 0.23837-0.032947 0.27169-0.032947 0 0.067358 0 0.33752 0.23837 0.43966 0.034419 0.034411 0.067373 0.034411 0.13621 0.034411h0.03332c0.034419 0.033313 0.068838 0.033313 0.13621 0 0.34053-0.034411 0.61185-0.27163 0.71401-0.40634h0.034419l0.032954-0.034777c0.20395-0.16949 0.88464-0.47406 1.1563-0.91482 0.30574-0.43966 0.71364-0.47407 1.0542-1.8963 0.13511-0.64356 0.67922-1.4896 0.74696-1.998 0.034419-0.54179 0.13621-1.0503 0-1.9307-0.10216-0.60915 0.068837-1.9984 0.17063-2.9132 0 0 0.13511-0.74423 0-1.4222zm-5.4045 9.2467h-0.10216c0.10216-0.034411 0.20395-0.034411 0.30611-0.034411" fill="none" stroke-width=".53356"/>
<path transform="matrix(10.668 0 0 10.671 -1641.6 -798.94)" d="m208.01 127.54c-0.068837-0.50701-0.10179-1.0155-0.23837-1.5917-0.13658-0.57583-0.16953-1.7612-0.20395-2.5398-0.034419-1.3545-0.034419-6.7068-0.8158-8.6375-0.16953-0.60915-0.34053-1.5917-0.30574-2.9806-0.10216-3.8269-0.95238-6.0274-0.88354-7.1798 0.2369-1.7279-0.068837-3.4202-0.4079-4.8768-0.10179-0.40634-0.23837-0.77974-0.44232-1.152-1.1563-2.2697-3.9095-3.1157-4.9292-3.3525-0.78138-0.2039-2.8883-1.2542-3.5678-1.5587-0.068838-0.032947-0.13621-0.067358-0.20395-0.10177-0.10326-0.067723-0.20541-0.10067-0.30721-0.16839-0.032954-0.034411-0.10216-0.068821-0.16953-0.10177-0.91759-0.71128-1.1215-1.6594-1.0871-2.4736 0.034419-0.3723 0.10179-0.71128 0.13621-0.87931v-0.034411c0.20249-0.27163 0.33906-0.54179 0.40644-0.71128 0-0.067358 0.034418-0.13508 0.069203-0.2039 0.032954-0.067358 0.032954-0.13508 0.067373-0.20244v-0.034411c0.034419-0.067724 0.034419-0.13508 0.067373-0.2028v-0.034411c0-0.067357 0.034419-0.13508 0.069204-0.23685 0-0.067723 0.032954-0.16949 0.032954-0.23722 0.034419-0.10067 0.034419-0.16949 0.068838-0.23685 0-0.10214 0-0.16949 0.032954-0.23722v-0.20244l0.034785-0.034411c0.034419-0.033312 0.10179-0.067723 0.16953-0.10213 0-0.032947 0.034419-0.032947 0.068838-0.032947v-0.034411c0.032954 0 0.032954-0.033313 0.067373-0.033313v-0.034411c0.034419 0 0.034419 0 0.034419-0.032946 0.032954 0 0.032954 0 0.032954-0.034411h0.034785c0-0.034777 0.034419-0.067724 0.034419-0.067724 0.13621-0.16949 0.16953-0.33898 0.27132-0.50848 0.13658-0.2039 0.068838-0.33898 0.20395-0.67797 0.10216-0.30457 0.16953-0.81159 0.16953-1.0155 0-0.2028 0.23837-0.74569 0.23837-1.0159 0-0.16949-0.067373-0.30457-0.13658-0.33898-0.032954-0.032946-0.067373-0.032946-0.10179-0.032946-0.032954-0.034411-0.067373 0-0.10216 0l-0.3387 1.0832-0.067739 0.30457c-0.068837 0.27126-0.27279 0.64356-0.27279 0.64356v-0.034777c0.034419-0.10067 0.10216-0.23685 0.16953-0.40488 0-0.034777 0.034419-0.10213 0.068837-0.16949 0-0.034777 0-0.034777 0.034419-0.067723 0-0.068822 0.033321-0.13655 0.067739-0.23685v-0.034777c0.034419-0.067358 0.067373-0.16949 0.10179-0.23685v-0.034411c0.034785-0.10067 0.034785-0.2028 0.067739-0.27016 0-0.034411 0-0.034411 0.034419-0.067358 0-0.10213 0.032954-0.20427 0.032954-0.30604v-0.033313c0.034419-0.10177 0.034419-0.2039 0.034419-0.33898 0.034419-0.03441 0.034419-0.10177 0.034419-0.16949v-0.032946c0.03332-0.54289 0-1.4237-0.37348-2.2697 0-0.067357 0-0.10177-0.034419-0.16949-0.13621-0.54142-0.44232-1.0499-1.0197-1.2871 0.10216 0.067723 0.20395 0.10213 0.30611 0.13508-0.30611-0.30457-0.85022-0.6765-1.2925-0.74423 0.23837 0 0.47674 0.2028 0.74806 0.2028-0.20395-0.2028-0.57743-0.40671-0.88317-0.43966-0.20395-0.034411-0.51006 0.13508-0.74843 0.13508-0.034419-0.034777-0.067373-0.034777-0.10179-0.034777-0.067739-0.032946-0.13511-0.067357-0.20395-0.1003-0.23727-0.13654-0.47564-0.13654-0.74843-0.2039-0.47527-0.067724-0.91649-0.067724-1.3932-0.033313 0.10216 0 0.20395 0.067724 0.34053 0.10067-0.067739-0.032947-0.13658-0.032947-0.20395-0.032947-0.13658 0.032947-0.23837 0.032947-0.37495 0.067357-0.067373 0-0.10179 0.032947-0.16953 0.032947-0.10179 0.034777-0.23837 0.034777-0.34016 0.034777-0.27169 0.034411-0.57743 0.034411-0.84912 0.10177-0.034419 0-0.10179 0-0.13621 0.033312 0.034418 0.034411 0.068837 0.034411 0.10179 0.034411h0.171c-0.20395 0.067358-0.37494 0.13508-0.54448 0.20244l-0.30574 0.10214c-0.34053 0.13508-0.57743 0.40634-0.88354 0.60915 0.067739-0.067723 0.16953-0.10067 0.23727-0.13508-0.13511 0.16949-0.37348 0.27126-0.51006 0.44075-0.067373 0.13508-0.10179 0.27016-0.13621 0.40671-0.78138 1.185-0.61075 2.6072-0.57743 2.9462v0.032947c0.034419 0.034777 0.034419 0.034777 0.034419 0.069188v0.1003c0.067373 0.20427 0.10179 0.54325 0.20395 0.88077 0.032955 0.27126 0.067373 0.50848 0.10179 0.67797-0.068837-0.30457-0.13621-0.61061-0.13621-0.67797v-0.033312s-0.06774-0.2039-0.10216-0.40634c-0.034419-0.067358-0.067373-0.13508-0.067373-0.2039 0-0.067724-0.13658-0.16803-0.13658-0.16803-0.16953-0.10214-0.30574 0.1003-0.30574 0.37193 0 0.27016 0.20395 0.81305 0.20395 1.0155 0 0.2039 0.068838 0.71128 0.20395 1.0159 0.10179 0.33898 0.067373 0.47407 0.16953 0.67797 0.10179 0.16949 0.17063 0.33898 0.27279 0.50848 0 0 0.032954 0.032947 0.032954 0.067358h0.034419c0 0.034411 0.034419 0.034411 0.034419 0.034411 0 0.033312 0.03332 0.033312 0.03332 0.033312 0 0.034411 0.034419 0.034411 0.034419 0.034411 0.034419 0.032947 0.034419 0.032947 0.067373 0.032947v0.034777c0.10326 0.067358 0.171 0.10177 0.23837 0.13508v0.2039c0.034419 0.032947 0.034419 0.067358 0.034419 0.10067v0.13618c0 0.033313 0 0.067724 0.034419 0.10067v0.16949c0 0.034411 0 0.067357 0.032954 0.10213v0.16949c0.034785 0.032947 0.034785 0.067358 0.034785 0.10177v0.033313c0 0.03441 0.034419 0.067357 0.034419 0.067357v0.067358c0 0.034777 0 0.069188 0.032954 0.069188v0.13508c0.034419 0 0.034419 0.032947 0.034419 0.032947v0.068821c0.034418 0.032947 0.034418 0.032947 0.034418 0.067358v0.033313c0.033321 0.034411 0.033321 0.034411 0.033321 0.068822v0.032946c0.034052 0.034777 0.034052 0.067724 0.068837 0.10214 0.067373 0.10177 0.16953 0.30457 0.33906 0.54142 0 0.23722 0.067373 0.5762 0.067373 0.94813 0.034419 0.47407-0.03332 1.017-0.20248 1.491-0.23837 0.5762-0.68105 1.1176-1.4969 1.5573-0.10179 0.034411-0.2369 0.10214-0.37312 0.13655-0.9868 0.40488-2.3112 1.0828-3.1958 1.2523-0.67922 0.10214-4.3159 1.4899-5.0299 4.5726-0.30574 0.98254-0.61185 2.2019-0.68069 3.3869-0.032954 0.54179-0.032954 1.0503 0.034419 1.5917 0.067739 1.152-0.78138 3.3529-0.88317 7.1798 0.032954 1.3559-0.10216 2.3041-0.27279 2.9132-0.06774 0.13618-0.10216 0.27126-0.13511 0.40634-0.68069 2.1675-0.68069 7.0114-0.71401 8.2641-0.034419 0.81305-0.068838 1.9651-0.20395 2.5413-0.10179 0.43929-0.068838 0.846-0.10179 1.2523 0 0.034777 0 0.10214-0.034419 0.13508 0 0.034411 0 0.10213-0.034418 0.13654v0.10067c-0.067373 0.2039-0.13511 0.27163-0.10216 0.54289l0.034785 0.71128c0 0.032947 0 0.067358-0.034785 0.1003 0.034785 0.034411 0.034785 0.61061 0.034785 0.74569h0.034418c0 0.61024 0.032955 1.5584-0.069203 2.1002-0.13475 0.88041-0.032955 1.3889 0 1.9307 0.069203 0.54142 0.61185 1.3545 0.74843 1.998 0.34053 1.4222 0.74843 1.4566 1.0542 1.8963 0.27132 0.44075 0.95091 0.74533 1.1549 0.91482l0.034419 0.034777h0.034419c0.10179 0.13472 0.37348 0.37193 0.71364 0.40634 0 0.032947 0 0.032947 0.03332 0.032947h0.068838c0.032954-0.032947 0.067373 0 0.067373-0.032947 0.067739 0 0.10216 0 0.13658-0.03441 0.2369-0.10214 0.2369-0.3723 0.2369-0.43966 0.034419 0 0.13658 0.032947 0.27279 0.032947 0.13511 0 0.61185 0.034777 0.84912-0.032947 0.068838 0 0.13621-0.034411 0.13621-0.068822 0.4079-0.3723-0.10179-0.74569-0.13621-0.77864l0.37458-0.034411h0.033321v-0.033313c0.47674-0.27126-0.13511-0.81305-0.13511-0.81305 0-0.034411-0.034419-0.034411-0.13658-0.067358l-0.54411-0.30457c0.30574-0.10214 0.71364-0.2039 0.71364-0.23722-0.032954-0.034411-0.032954-0.034411-0.032954-0.068822h0.032954c-0.032954-0.50701-0.2369-0.60915-0.47527-0.60915-0.23837 0.034411-0.47564 0.13508-0.64627 0.23722-0.067739 0.034411-0.10216 0.034411-0.13511 0.067357-0.068838 0-0.10216 0.034411-0.13658 0-0.27132-0.37193-0.50969-0.23685-0.67922-0.30457l-0.4079-2.2019v-0.067723c0.20395-0.30421-0.23837-0.98254-0.23837-0.98254s0.30574 0.16949 0.57743 0.47553c0.034418 0.067724 0.068837 0.13508 0.10179 0.2028 0.171 0.43929 0.5789 1.152 1.0542 1.3545 0.23837 0.10177 0.47564 0.10177 0.74843-0.067357 0.6448-0.40671 0-1.5243-0.5789-2.2352-0.13511-0.16949-0.30574-0.33898-0.4079-0.44112-0.067373-0.067357-0.10179-0.10067-0.13511-0.13508-0.37458-0.57583-0.44232-1.524-0.57853-2.1331-0.03332-0.47553-0.30611-0.98254-0.30611-1.152 0.034418-0.034411 0.034418-0.10214 0.068837-0.16949 0.067739-0.23722 0.16953-0.71092 0.27169-1.185 0.034419-0.33898 0.61185-2.3718 1.0871-4.2336 0.37348-1.2194 0.68069-2.337 0.71401-2.676 0.30574-1.4896 0.64627-2.337 0.74806-3.2178 0.067739-0.40634 0.067739-0.81305 0-1.3215 0.034419-1.0832 0.44232-3.9964 0.54301-4.6396v0.77974c-0.33906 2.0658-0.2369 3.3858-0.16953 4.5034v0.47406c-0.30574 4.3021 0.4079 9.8229 0.37348 11.11-0.10216 0.64356-0.27132 1.5243-0.33906 2.9809-0.034419 0.50848-0.034419 1.3889 0 2.6416 0 3.3873 0.30611 8.1968 1.4954 14.26 0.068837 0.40524 0.13621 0.77864 0.20395 1.185 0.10179 0.54179 0.16916 2.3359 0.37312 3.3185 0.034419 0.23685 0.54448 1.3889 0.5789 2.9476 0.06774 2.505-0.23837 5.7917-0.13621 7.5861 0.10179 2.9132 1.3599 5.6222 1.8355 7.5184 0.44232 1.8977 0.64627 3.3873 0.54411 3.7607-0.067373 0.33752-0.16953 0.94813 0.13511 1.4896-0.13511 0.33898-0.88317 1.8977-1.3259 2.2023-0.40644 0.33752-0.54265 0.60915-0.88317 0.81305-0.33906 0.20244-0.54301 0.37193-0.67922 0.74423-0.069204 0.2039-0.20395 0.40634-0.27315 0.61024-0.032954 0.16803-0.067373 0.27016 0.069204 0.3723 0.032954 0.032947 0.10179 0.067357 0.10179 0.10177l0.03332-0.034411c-0.03332 0.13508-0.03332 0.20244 0.034419 0.27126 0.13621 0.27016 0.37458 0.30457 0.71364 0.27016l0.034419-0.032947c0 0.10067 0.034419 0.16949 0.10179 0.27016 0.20395 0.30457 0.91796 0.44075 1.1893 0.16949 0.37495 0.2039 1.1219 0.23685 1.3932-0.067724 0.034419 0 0.034419 0.034411 0.034419 0.034411 0.23837 0.50738 1.0542 0.40671 1.5298 0.30457 0.44232-0.067357 0.64627-0.30457 0.88464-0.50848 0.032954 0 0.032954-0.032947 0.032954-0.032947 0.034419-0.034777 0.068838-0.034777 0.10216-0.069188 0.16953-0.13472 0.34016-0.30421 0.37348-0.50701 0.068837-0.13618 0.068837-0.30457 0.034419-0.50848-0.06774-0.54142 0-0.54142 0.067373-1.185v-0.10214c0.10179-0.20244 0.27279-0.37193 0.34053-0.6765 0.034419-0.10214 0.067373-0.2039 0.067373-0.33898 0.034419-0.50848-0.33906-2.6416-0.30611-2.9132 0.10216-0.6765-0.37311-1.2194-0.50823-2.3026-0.171-1.1176 0.27132-4.8439 0.27132-5.5204 0-1.2871 0.67959-3.4217 0.51006-6.0289-0.13658-1.5243-0.88354-6.1654-0.88354-7.2142 0-0.2039-0.034419-1.3545 0.03332-1.5584 0.20395-0.67834 0.78101-9.2122 0.78101-9.3144 0.10216-1.0155 0.81726-6.4008 0.81726-6.4008h0.033321c0.068837 0 0.13621 0.032947 0.20395 0.032947h0.10179c0.034419 0.23722 0.8158 5.2846 0.88354 6.2661 0 0.10177 0.47674 8.7726 0.71364 9.4835 0.068838 0.2039 0 1.3545 0 1.5587 0 1.0499-0.74696 5.6555-0.84875 7.1794-0.171 2.6416 0.50969 4.7762 0.50969 6.0289 0 0.71092 0.44122 4.4372 0.27169 5.5204-0.034785 0.27163-0.10216 0.50848-0.16953 0.74569-0.067739 0.30457-0.20395 0.57583-0.27169 0.81305-0.068838 0.23685-0.10179 0.50848-0.068838 0.74533 0.034419 0.30457-0.37348 2.4377-0.34016 2.9462 0.068838 0.60915 0.409 0.74569 0.44232 1.0847 0.068838 0.6765 0.13621 0.6765 0.034419 1.2183-0.067373 0.50848 0.13621 0.71092 0.4079 0.94813 0.032954 0.034411 0.067373 0.034411 0.10179 0.068822l0.03332 0.032947c0.23837 0.2039 0.44232 0.44112 0.88464 0.50848 0.47527 0.10214 1.2911 0.16949 1.5294-0.30457 0-0.034411 0-0.034411 0.03332-0.068822 0.27279 0.33898 1.0197 0.30604 1.3947 0.10214 0.27132 0.27126 0.98496 0.13508 1.1889-0.16949 0.067739-0.067723 0.067739-0.13508 0.10216-0.16949 0-0.033312 0-0.067723 0.034418-0.10067v0.032947c0.33906 0.034411 0.67922-0.067358 0.74696-0.27016 0 0 0-0.034411 0.034419-0.068822v-0.20244c0.034419 0 0.067373-0.03441 0.10179-0.067723 0.067739-0.034411 0.10216-0.067358 0.10216-0.13472 0.10179-0.23722-0.16953-0.5762-0.27132-0.84783-0.13658-0.37193-0.30611-0.54142-0.68105-0.74386-0.3387-0.2039-0.44085-0.47553-0.88317-0.81305-0.47527-0.33898-1.2911-2.1346-1.3259-2.2697 0.034419-0.067723 0.067739-0.13508 0.10216-0.2039 0.16953-0.47406 0.067373-0.98144 0-1.2527-0.067373-0.40671 0.10179-1.8963 0.57743-3.7936 0.068838-0.2028 0.13621-0.47406 0.20395-0.71128 0.23837-0.77864 0.54411-1.659 0.8158-2.6072 0.4079-1.2871 0.74806-2.7108 0.8158-4.2003 0.068838-1.7956-0.20395-5.0463-0.16953-7.5528 0.034419-0.98254 0.23837-1.7612 0.4079-2.303 0.067373-0.27126 0.13658-0.44075 0.16953-0.54142 0-0.068822 0.034419-0.10214 0.034419-0.13655 0.20395-0.98254 0.27132-2.7767 0.37348-3.3181 1.4621-8.4007 1.7334-13.989 1.7334-16.63v-1.4222s-0.10179-0.64356-0.16916-1.3559c-0.067739-0.6765-0.13658-1.3545-0.20395-1.6246v-0.9496c0.10179-2.1331 0.44232-6.6032 0.30574-9.5842 0.034419-0.74533 0-1.185 0-1.2538 0.034419-0.88077-0.034419-2.2352-0.10179-3.3185 0-0.27163 0-0.50848-0.034785-0.81305 0.034785-0.33898 0.034785-0.67797 0-0.98254 0 0.034411 0.034785 0.067358 0.034785 0.10214 0.067373 0.54142 0.50969 3.5564 0.54411 4.674-0.10179 0.84636 0.03332 1.4566 0.2369 2.2352 0.13658 0.5762 0.34053 1.2198 0.51006 2.1002 0.034419 0.16803 0.13658 0.57474 0.27279 1.0832 0.44085 1.9307 1.4606 5.5548 1.5298 6.0289 0.10179 0.5762 0.27132 1.185 0.3387 1.3215v0.10067c-0.067373 0.16949-0.16916 0.44075-0.2369 0.71092h-0.034418c-0.034419 0.068822-0.067373 0.13655-0.10179 0.2039-0.34053 0.50848-0.34053 1.7268-0.78138 2.3374 0 0.032946-0.034419 0.067357-0.068837 0.10177-0.10216 0.10067-0.27169 0.27016-0.4079 0.43966-0.57743 0.71128-1.2237 1.8285-0.57743 2.2352 0.27132 0.16949 0.50969 0.16949 0.74806 0.067358 0.51006-0.20244 0.88354-0.91335 1.0531-1.3545 0.034419-0.067358 0.068838-0.13508 0.10179-0.16949 0.27279-0.33752 0.5789-0.50701 0.5789-0.50701s-0.034419 0.032946-0.068838 0.1003v0.034411c-0.10216 0.2028-0.30611 0.60915-0.16953 0.84636 0 0.034411 0 0.034411 0.034419 0.067358l-0.44232 2.2023c-0.16953 0.067357-0.4079-0.10214-0.67959 0.30457h-0.10179c-0.068837-0.033313-0.13658-0.033313-0.20395-0.067724-0.171-0.10177-0.4079-0.23685-0.61185-0.23685-0.23837 0-0.44232 0.10177-0.47674 0.61024h0.034418v0.033312c-0.034418 0.067358 0.37348 0.16949 0.67922 0.27126l-0.54301 0.30457c-0.10179 0.03441-0.13621 0.03441-0.13621 0.067723 0 0-0.61185 0.54142-0.13658 0.81305h0.034418v0.032947l0.37348 0.034411c-0.032954 0.034411-0.54301 0.40634-0.13511 0.7801 0 0.032947 0.067739 0.067357 0.13511 0.067357 0.23837 0.067358 0.71401 0.032947 0.85022 0.032947 0.13658 0 0.23837-0.032947 0.27169-0.032947 0 0.067358 0 0.33752 0.23837 0.43966 0.034419 0.034411 0.067373 0.034411 0.13621 0.034411h0.03332c0.034419 0.033313 0.068838 0.033313 0.13621 0 0.34053-0.034411 0.61185-0.27163 0.71401-0.40634h0.034419l0.032954-0.034777c0.20395-0.16949 0.88464-0.47406 1.1563-0.91482 0.30574-0.43966 0.71364-0.47407 1.0542-1.8963 0.13511-0.64356 0.67922-1.4896 0.74696-1.998 0.034419-0.54179 0.13621-1.0503 0-1.9307-0.10216-0.60915 0.068837-1.9984 0.17063-2.9132 0 0 0.13511-0.74423 0-1.4222zm-12.612-40.203m7.2074 49.45h-0.10216c0.10216-0.034411 0.20395-0.034411 0.30611-0.034411" fill="none" stroke-width=".53356"/>
<path transform="matrix(18.293 0 0 18.297 1.9436 -5.542e-5)" d="m28.314 36.111h-0.059578c0.059578-0.020068 0.11894-0.020068 0.17852-0.020068" fill="#666" stroke-width=".18147"/>
<path transform="matrix(18.293 0 0 18.297 1.9436 -5.542e-5)" d="m23.733 10.203c0.098657 0.19449 0.24536 0.38087 0.45783 0.54547 0.039291 0.019214 0.079651 0.039283 0.09887 0.059351 0.059364 0.039496 0.11894 0.05871 0.17916 0.098207 0.039505 0.020068 0.078797 0.040136 0.11894 0.059351 0.39633 0.17762 1.6251 0.78992 2.0808 0.90905 0.59471 0.13813 2.2003 0.63151 2.8747 1.9552 0.11894 0.21712 0.19859 0.43488 0.25796 0.67186 0.19774 0.84949 0.37605 1.8365 0.23788 2.8442-0.040146 0.67186 0.4557 1.9554 0.51528 4.1872-0.020286 0.80999 0.079438 1.383 0.17831 1.7383 0.4557 1.126 0.4557 4.2474 0.47577 5.0374 0.020073 0.4541 0.039292 1.1452 0.11894 1.4812 0.079651 0.33582 0.09887 0.63258 0.13902 0.92827v-2.13e-4c0.078797 0.39539 0 0.82942 0 0.82942-0.059364 0.53352-0.15909 1.3437-0.09951 1.699 0.079438 0.51345 0.020073 0.80999 0 1.126-0.039505 0.29654-0.35683 0.78992-0.43562 1.1652-0.19859 0.82942-0.43648 0.84949-0.61479 1.1059-0.15845 0.25705-0.55542 0.43467-0.67436 0.53352l-0.019219 0.020281h-0.020073c-0.059578 0.078566-0.21781 0.21691-0.41641 0.23698-0.039291 0.019215-0.059364 0.019215-0.079437 0h-0.019433c-0.040145 0-0.059364 0-0.079437-0.020068-0.13902-0.059564-0.13902-0.21712-0.13902-0.2564-0.019432 0-0.078797 0.019215-0.15845 0.019215-0.079437 0-0.35683 0.020068-0.49584-0.019215-0.039292 0-0.078797-0.020068-0.078797-0.039282-0.23789-0.21798 0.059578-0.43488 0.078797-0.45495l-0.21781-0.020069v-0.019214h-0.020073c-0.27718-0.15841 0.079651-0.47417 0.079651-0.47417 0-0.019428 0.020073-0.019428 0.079438-0.039497l0.31668-0.17762c-0.17831-0.059351-0.41619-0.11892-0.39612-0.1582v-0.019427h-0.020073c0.020073-0.29654 0.13902-0.35589 0.27803-0.35589 0.11894 0 0.2571 0.078779 0.35683 0.13813 0.039291 0.020068 0.078797 0.020068 0.11894 0.039496h0.059365c0.15845-0.23719 0.29746-0.13834 0.39633-0.17763l0.25796-1.2844c-0.020073-0.019214-0.020073-0.019214-0.020073-0.039283-0.079651-0.13834 0.039291-0.37532 0.09887-0.4936v-0.020068c0.020072-0.039283 0.040145-0.058497 0.040145-0.058497s-0.17852 0.098847-0.33761 0.29569c-0.019219 0.020069-0.039292 0.059565-0.059365 0.098847-0.098869 0.25726-0.31668 0.67186-0.61414 0.78992-0.13902 0.059565-0.27803 0.059565-0.43627-0.039282-0.3769-0.23719 0-0.88877 0.33676-1.3036 0.079438-0.098847 0.17831-0.19769 0.23789-0.2564 0.020073-0.020068 0.040145-0.040136 0.040145-0.059351 0.2571-0.3561 0.2571-1.0666 0.4557-1.3632 0.020073-0.039282 0.039292-0.078778 0.059365-0.11892h0.020073c0.039505-0.15756 0.09887-0.31576 0.13816-0.4146v-0.05871c-0.039291-0.079633-0.13816-0.43488-0.19753-0.77071-0.040359-0.27647-0.63507-2.3901-0.89218-3.516-0.079437-0.29654-0.13902-0.53373-0.15909-0.63172-0.09887-0.51345-0.21781-0.88877-0.29746-1.2248-0.11873-0.4541-0.19753-0.80999-0.13816-1.3036-0.020073-0.65179-0.27803-2.4101-0.31732-2.7259 0-0.020282-0.020287-0.039497-0.020287-0.059565 0.020287 0.17763 0.020287 0.37532 0 0.57302 0.020287 0.17763 0.020287 0.31576 0.020287 0.47417 0.039292 0.63172 0.079437 1.4216 0.059364 1.9353 0 0.040137 0.020073 0.29654 0 0.73121 0.079651 1.7385-0.11894 4.3454-0.17831 5.5895v0.5538c0.039292 0.15756 0.079438 0.55295 0.11894 0.94748 0.039292 0.41546 0.098656 0.79078 0.098656 0.79078v0.82942c0 1.5406-0.15823 4.7995-1.0109 9.6988-0.059578 0.31576-0.09887 1.3621-0.21781 1.9351 0 0.020068-0.020072 0.039496-0.020072 0.079632-0.019219 0.058711-0.059579 0.15756-0.09887 0.31576-0.09887 0.31597-0.21781 0.77007-0.23789 1.3431-0.020073 1.4618 0.13902 3.3576 0.09887 4.4048-0.039505 0.8687-0.23788 1.699-0.47577 2.4496-0.15845 0.55295-0.33676 1.0664-0.47577 1.5205-0.039505 0.13834-0.078796 0.29654-0.11894 0.4146-0.27739 1.1067-0.37605 1.9754-0.33676 2.2126 0.039291 0.1582 0.098869 0.4541 0 0.73057-0.020073 0.040137-0.039506 0.079419-0.059579 0.11892 0.020073 0.078778 0.49584 1.126 0.77324 1.3237 0.25796 0.19684 0.31732 0.35525 0.51506 0.47417 0.21867 0.11806 0.31754 0.21691 0.39697 0.43382 0.059578 0.15841 0.21781 0.35611 0.15845 0.49424 0 0.039496-0.020073 0.05871-0.059578 0.078779-0.020073 0.019427-0.039292 0.039496-0.059365 0.039496v0.11806c-0.020072 0.020069-0.020072 0.040137-0.020072 0.040137-0.039506 0.11828-0.23789 0.17763-0.43562 0.15756v-0.019214c-0.020073 0.019214-0.020073 0.039283-0.020073 0.058711-0.020073 0.020068-0.020073 0.059351-0.059579 0.098847-0.11894 0.17763-0.53514 0.25704-0.69358 0.098847-0.21845 0.11892-0.65408 0.13813-0.81317-0.059565-0.019433 0.020069-0.019433 0.020069-0.019433 0.040137-0.13902 0.27647-0.61479 0.23719-0.89196 0.17763-0.25796-0.039283-0.3769-0.17763-0.51592-0.29654l-0.019432-0.019215c-0.020073-0.020068-0.040146-0.020068-0.059365-0.040136-0.15845-0.13834-0.27718-0.2564-0.23788-0.55295 0.059364-0.31597 0.020073-0.31597-0.020073-0.7105-0.019432-0.1977-0.21781-0.27733-0.25796-0.63258-0.019433-0.29654 0.21845-1.5406 0.19838-1.7182-0.019219-0.13813 0-0.29654 0.040146-0.43467 0.039505-0.13834 0.11894-0.29654 0.15845-0.47417 0.039291-0.13834 0.078583-0.27647 0.098869-0.43488 0.09887-0.63172-0.15845-2.8047-0.15845-3.2195 0-0.73057-0.39697-1.9754-0.29725-3.516 0.059364-0.88877 0.49499-3.5747 0.49499-4.187 0-0.11913 0.040146-0.79014 0-0.90905-0.13816-0.4146-0.41619-5.4714-0.41619-5.5307-0.039505-0.57237-0.4952-3.516-0.51528-3.6544v-25.512" fill="#666" stroke-width=".18147"/>
</g>
</svg>
