<?xml version="1.0" encoding="UTF-8"?>
<svg width="800px" height="157px" version="1.1" viewBox="0 0 800 157" xmlns="http://www.w3.org/2000/svg" xmlns:xlink="http://www.w3.org/1999/xlink">
<defs>
<symbol id="w" overflow="visible">
<path d="m8.8906-11.719v1.5938c-0.61719-0.28906-1.1992-0.50781-1.75-0.65625-0.55469-0.14453-1.0898-0.21875-1.6094-0.21875-0.88672 0-1.5742 0.17188-2.0625 0.51562-0.48047 0.34375-0.71875 0.83594-0.71875 1.4688 0 0.54297 0.15625 0.94922 0.46875 1.2188 0.32031 0.27344 0.9375 0.49219 1.8438 0.65625l0.98438 0.20312c1.2188 0.24219 2.1172 0.65234 2.7031 1.2344 0.58203 0.58594 0.875 1.3711 0.875 2.3594 0 1.1797-0.39844 2.0703-1.1875 2.6719-0.78125 0.60547-1.9336 0.90625-3.4531 0.90625-0.57422 0-1.1836-0.070313-1.8281-0.20312-0.64844-0.125-1.3203-0.3125-2.0156-0.5625v-1.6875c0.66406 0.36719 1.3164 0.64844 1.9531 0.84375 0.64453 0.1875 1.2734 0.28125 1.8906 0.28125 0.9375 0 1.6602-0.17969 2.1719-0.54688 0.50781-0.375 0.76562-0.89844 0.76562-1.5781 0-0.59375-0.1875-1.0547-0.5625-1.3906-0.36719-0.34375-0.96484-0.59766-1.7969-0.76562l-1-0.1875c-1.2188-0.25-2.1055-0.63281-2.6562-1.1562-0.54297-0.51953-0.8125-1.2383-0.8125-2.1562 0-1.0703 0.375-1.9141 1.125-2.5312 0.75781-0.625 1.8008-0.9375 3.125-0.9375 0.57031 0 1.1484 0.054688 1.7344 0.15625 0.59375 0.10547 1.1953 0.26172 1.8125 0.46875z"/>
</symbol>
<symbol id="i" overflow="visible">
<path d="m3.0469-11.672v2.5781h3.0781v1.1562h-3.0781v4.9375c0 0.74219 0.097656 1.2188 0.29688 1.4375 0.20703 0.21094 0.625 0.3125 1.25 0.3125h1.5312v1.25h-1.5312c-1.1562 0-1.9531-0.21094-2.3906-0.64062-0.4375-0.4375-0.65625-1.2227-0.65625-2.3594v-4.9375h-1.0938v-1.1562h1.0938v-2.5781z"/>
</symbol>
<symbol id="h" overflow="visible">
<path d="m5.7031-4.5625c-1.2109 0-2.0469 0.13672-2.5156 0.40625-0.46875 0.27344-0.70312 0.74219-0.70312 1.4062 0 0.53125 0.17578 0.95312 0.53125 1.2656 0.35156 0.3125 0.82812 0.46875 1.4219 0.46875 0.83203 0 1.5-0.28906 2-0.875 0.5-0.59375 0.75-1.375 0.75-2.3438v-0.32812zm2.9688-0.625v5.1875h-1.4844v-1.375c-0.34375 0.55469-0.77344 0.96094-1.2812 1.2188-0.51172 0.25781-1.1328 0.39062-1.8594 0.39062-0.9375 0-1.6836-0.25781-2.2344-0.78125-0.54297-0.51953-0.8125-1.2188-0.8125-2.0938 0-1.0312 0.33594-1.8008 1.0156-2.3125 0.6875-0.51953 1.7109-0.78125 3.0781-0.78125h2.0938v-0.15625c0-0.6875-0.23047-1.2188-0.6875-1.5938-0.44922-0.375-1.0781-0.5625-1.8906-0.5625-0.52344 0-1.0312 0.0625-1.5312 0.1875-0.49219 0.125-0.96094 0.3125-1.4062 0.5625v-1.375c0.53906-0.21875 1.0664-0.37891 1.5781-0.48438 0.51953-0.10156 1.0195-0.15625 1.5-0.15625 1.3203 0 2.3047 0.34375 2.9531 1.0312 0.64453 0.67969 0.96875 1.7109 0.96875 3.0938z"/>
</symbol>
<symbol id="n" overflow="visible">
<path d="m3.0156-1.3594v4.8125h-1.5v-12.547h1.5v1.375c0.3125-0.53906 0.70703-0.94141 1.1875-1.2031 0.47656-0.25781 1.0508-0.39062 1.7188-0.39062 1.1016 0 2 0.4375 2.6875 1.3125s1.0312 2.0312 1.0312 3.4688c0 1.4297-0.34375 2.5781-1.0312 3.4531s-1.5859 1.3125-2.6875 1.3125c-0.66797 0-1.2422-0.13281-1.7188-0.39062-0.48047-0.25781-0.875-0.66016-1.1875-1.2031zm5.0781-3.1719c0-1.1016-0.23047-1.9688-0.6875-2.5938-0.44922-0.625-1.0703-0.9375-1.8594-0.9375-0.78125 0-1.4023 0.3125-1.8594 0.9375-0.44922 0.625-0.67188 1.4922-0.67188 2.5938 0 1.0938 0.22266 1.9531 0.67188 2.5781 0.45703 0.625 1.0781 0.9375 1.8594 0.9375 0.78906 0 1.4102-0.3125 1.8594-0.9375 0.45703-0.625 0.6875-1.4844 0.6875-2.5781z"/>
</symbol>
<symbol id="d" overflow="visible">
<path d="m9.3438-4.9219v0.73438h-6.875c0.070312 1.0312 0.38281 1.8203 0.9375 2.3594 0.55078 0.53125 1.3203 0.79688 2.3125 0.79688 0.57031 0 1.1289-0.066406 1.6719-0.20312 0.53906-0.14453 1.0781-0.35938 1.6094-0.64062v1.4062c-0.54297 0.23047-1.0938 0.40234-1.6562 0.51562-0.5625 0.125-1.1328 0.1875-1.7031 0.1875-1.4609 0-2.6094-0.42188-3.4531-1.2656s-1.2656-1.9844-1.2656-3.4219c0-1.4883 0.39844-2.6719 1.2031-3.5469 0.80078-0.875 1.8828-1.3125 3.25-1.3125 1.2188 0 2.1797 0.39844 2.8906 1.1875 0.71875 0.78125 1.0781 1.8516 1.0781 3.2031zm-1.5-0.4375c-0.011719-0.8125-0.24219-1.4609-0.6875-1.9531-0.4375-0.48828-1.0273-0.73438-1.7656-0.73438-0.83594 0-1.5 0.24219-2 0.71875-0.5 0.46875-0.78906 1.1328-0.85938 1.9844z"/>
</symbol>
<symbol id="m" overflow="visible">
<path d="m7.3594-8.8281v1.4219c-0.41797-0.21875-0.85547-0.37891-1.3125-0.48438-0.46094-0.11328-0.92969-0.17188-1.4062-0.17188-0.75 0-1.3125 0.11719-1.6875 0.34375-0.36719 0.23047-0.54688 0.57031-0.54688 1.0156 0 0.35547 0.12891 0.63281 0.39062 0.82812 0.26953 0.19922 0.80469 0.38672 1.6094 0.5625l0.51562 0.10938c1.0625 0.23047 1.8125 0.55469 2.25 0.96875 0.44531 0.40625 0.67188 0.98047 0.67188 1.7188 0 0.85547-0.33594 1.5273-1 2.0156-0.66797 0.49219-1.5859 0.73438-2.75 0.73438-0.49219 0-1-0.046875-1.5312-0.14062-0.52344-0.09375-1.0742-0.23438-1.6562-0.42188v-1.5469c0.55078 0.29297 1.0938 0.51172 1.625 0.65625 0.53906 0.13672 1.0703 0.20312 1.5938 0.20312 0.69531 0 1.2344-0.11719 1.6094-0.35938 0.38281-0.23828 0.57812-0.57812 0.57812-1.0156 0-0.40625-0.13672-0.71875-0.40625-0.9375-0.27344-0.21875-0.87109-0.42578-1.7969-0.625l-0.51562-0.125c-0.92969-0.19531-1.6016-0.49219-2.0156-0.89062-0.40625-0.40625-0.60938-0.95703-0.60938-1.6562 0-0.86328 0.30078-1.5234 0.90625-1.9844 0.60156-0.46875 1.4609-0.70312 2.5781-0.70312 0.55078 0 1.0703 0.042969 1.5625 0.125 0.48828 0.085938 0.9375 0.20312 1.3438 0.35938z"/>
</symbol>
<symbol id="c" overflow="visible">
<path d="m3.1875-1.375h5.7188v1.375h-7.6875v-1.375c0.625-0.64453 1.4727-1.5078 2.5469-2.5938 1.0703-1.082 1.7422-1.7852 2.0156-2.1094 0.53125-0.58203 0.89844-1.0781 1.1094-1.4844 0.20703-0.41406 0.3125-0.82031 0.3125-1.2188 0-0.63281-0.23047-1.1562-0.6875-1.5625-0.44922-0.40625-1.0391-0.60938-1.7656-0.60938-0.51172 0-1.0547 0.089844-1.625 0.26562-0.57422 0.17969-1.1836 0.44922-1.8281 0.8125v-1.6562c0.66406-0.26953 1.2852-0.47266 1.8594-0.60938 0.57031-0.13281 1.0938-0.20312 1.5625-0.20312 1.2578 0 2.2578 0.32031 3 0.95312 0.75 0.625 1.125 1.4648 1.125 2.5156 0 0.49219-0.09375 0.96094-0.28125 1.4062-0.1875 0.44922-0.52734 0.97656-1.0156 1.5781-0.13672 0.15625-0.57031 0.60938-1.2969 1.3594-0.71875 0.75-1.7422 1.8047-3.0625 3.1562z"/>
</symbol>
<symbol id="l" overflow="visible">
<path d="m1.9531-2.0625h1.7031v1.3906l-1.3281 2.6094h-1.0469l0.67188-2.6094z"/>
</symbol>
<symbol id="g" overflow="visible">
<path d="m5.4844-6.7188c-0.73047 0-1.3125 0.25781-1.75 0.76562-0.42969 0.5-0.64062 1.1875-0.64062 2.0625s0.21094 1.5703 0.64062 2.0781c0.4375 0.5 1.0195 0.75 1.75 0.75 0.73828 0 1.3203-0.25 1.75-0.75 0.42578-0.50781 0.64062-1.2031 0.64062-2.0781s-0.21484-1.5625-0.64062-2.0625c-0.42969-0.50781-1.0117-0.76562-1.75-0.76562zm3.2656-5.1406v1.5c-0.41797-0.19531-0.83594-0.34375-1.25-0.4375-0.41797-0.10156-0.83594-0.15625-1.25-0.15625-1.0859 0-1.9141 0.36719-2.4844 1.0938-0.5625 0.73047-0.88672 1.8359-0.96875 3.3125 0.3125-0.46875 0.70703-0.82812 1.1875-1.0781 0.48828-0.25781 1.0195-0.39062 1.5938-0.39062 1.2188 0 2.1797 0.37109 2.8906 1.1094 0.70703 0.74219 1.0625 1.7461 1.0625 3.0156 0 1.25-0.37109 2.25-1.1094 3-0.73047 0.75-1.7109 1.125-2.9375 1.125-1.3984 0-2.4688-0.53516-3.2188-1.6094-0.74219-1.0703-1.1094-2.6289-1.1094-4.6719 0-1.9141 0.45312-3.4414 1.3594-4.5781 0.91406-1.1445 2.1406-1.7188 3.6719-1.7188 0.40625 0 0.81641 0.042969 1.2344 0.125 0.42578 0.085938 0.86719 0.20312 1.3281 0.35938z"/>
</symbol>
<symbol id="j" overflow="visible">
<path d="m2.0625-1.375h2.6719v-9.25l-2.9062 0.57812v-1.4844l2.8906-0.59375h1.6406v10.75h2.6875v1.375h-6.9844z"/>
</symbol>
<symbol id="f" overflow="visible">
<path d="m1.5156-12.625h1.5v7.4531l4.4531-3.9219h1.9062l-4.8281 4.25 5.0312 4.8438h-1.9531l-4.6094-4.4375v4.4375h-1.5z"/>
</symbol>
<symbol id="a" overflow="visible">
<path d="m1.625-12.125h1.6406v4.9688h5.9688v-4.9688h1.6406v12.125h-1.6406v-5.7656h-5.9688v5.7656h-1.6406z"/>
</symbol>
<symbol id="b" overflow="visible">
<path d="m0.92188-9.0938h7.0938v1.3594l-5.625 6.5469h5.625v1.1875h-7.2969v-1.3594l5.6094-6.5469h-5.4062z"/>
</symbol>
<symbol id="v" overflow="visible">
<path d="m6.2812-10.688-4.1406 6.4688h4.1406zm-0.42188-1.4375h2.0625v7.9062h1.7188v1.3594h-1.7188v2.8594h-1.6406v-2.8594h-5.4688v-1.5781z"/>
</symbol>
<symbol id="u" overflow="visible">
<path d="m1.7969-12.125h6.4375v1.3906h-4.9375v2.9688c0.23828-0.082031 0.47656-0.14453 0.71875-0.1875 0.23828-0.039063 0.47266-0.0625 0.70312-0.0625 1.3516 0 2.4258 0.375 3.2188 1.125 0.78906 0.74219 1.1875 1.7422 1.1875 3 0 1.3047-0.40625 2.3203-1.2188 3.0469-0.8125 0.71875-1.9609 1.0781-3.4375 1.0781-0.51172 0-1.0312-0.046875-1.5625-0.14062-0.52344-0.085938-1.0625-0.20703-1.625-0.375v-1.6562c0.48828 0.27344 0.99219 0.47656 1.5156 0.60938 0.51953 0.125 1.0664 0.1875 1.6406 0.1875 0.9375 0 1.6758-0.24219 2.2188-0.73438 0.55078-0.5 0.82812-1.1719 0.82812-2.0156s-0.27734-1.5078-0.82812-2c-0.54297-0.48828-1.2812-0.73438-2.2188-0.73438-0.4375 0-0.875 0.046875-1.3125 0.14062s-0.88281 0.24609-1.3281 0.45312z"/>
</symbol>
<symbol id="e" overflow="visible">
<path d="m5.2812-11.047c-0.84375 0-1.4805 0.41797-1.9062 1.25-0.41797 0.83594-0.625 2.0859-0.625 3.75 0 1.6562 0.20703 2.9023 0.625 3.7344 0.42578 0.83594 1.0625 1.25 1.9062 1.25 0.85156 0 1.4883-0.41406 1.9062-1.25 0.42578-0.83203 0.64062-2.0781 0.64062-3.7344 0-1.6641-0.21484-2.9141-0.64062-3.75-0.41797-0.83203-1.0547-1.25-1.9062-1.25zm0-1.2969c1.3633 0 2.3984 0.54297 3.1094 1.625 0.71875 1.0742 1.0781 2.6328 1.0781 4.6719 0 2.043-0.35938 3.6016-1.0781 4.6719-0.71094 1.0742-1.7461 1.6094-3.1094 1.6094-1.3555 0-2.3906-0.53516-3.1094-1.6094-0.71875-1.0703-1.0781-2.6289-1.0781-4.6719 0-2.0391 0.35938-3.5977 1.0781-4.6719 0.71875-1.082 1.7539-1.625 3.1094-1.625z"/>
</symbol>
<symbol id="t" overflow="visible">
<path d="m1.5625-12.625h1.5v12.625h-1.5z"/>
</symbol>
<symbol id="s" overflow="visible">
<path d="m1.5625-9.0938h1.5v9.0938h-1.5zm0-3.5312h1.5v1.8906h-1.5z"/>
</symbol>
<symbol id="r" overflow="visible">
<path d="m8.1094-8.75v1.4062c-0.42969-0.23828-0.85547-0.41406-1.2812-0.53125-0.41797-0.11328-0.84375-0.17188-1.2812-0.17188-0.96875 0-1.7266 0.30859-2.2656 0.92188-0.53125 0.61719-0.79688 1.4805-0.79688 2.5938 0 1.1055 0.26562 1.9648 0.79688 2.5781 0.53906 0.61719 1.2969 0.92188 2.2656 0.92188 0.4375 0 0.86328-0.054688 1.2812-0.17188 0.42578-0.11328 0.85156-0.28906 1.2812-0.53125v1.3906c-0.41797 0.1875-0.85156 0.32812-1.2969 0.42188-0.44922 0.10156-0.92188 0.15625-1.4219 0.15625-1.3672 0-2.4531-0.42578-3.2656-1.2812-0.80469-0.86328-1.2031-2.0234-1.2031-3.4844 0-1.4883 0.40625-2.6562 1.2188-3.5 0.8125-0.85156 1.9258-1.2812 3.3438-1.2812 0.45703 0 0.90625 0.046875 1.3438 0.14062 0.44531 0.09375 0.875 0.23438 1.2812 0.42188z"/>
</symbol>
<symbol id="q" overflow="visible">
<path d="m5.0938-8.0469c-0.80469 0-1.4375 0.3125-1.9062 0.9375s-0.70312 1.4844-0.70312 2.5781c0 1.0859 0.22656 1.9375 0.6875 2.5625 0.46875 0.625 1.1094 0.9375 1.9219 0.9375 0.78906 0 1.4141-0.3125 1.875-0.9375 0.46875-0.63281 0.70312-1.4883 0.70312-2.5625 0-1.082-0.23438-1.9375-0.70312-2.5625-0.46094-0.63281-1.0859-0.95312-1.875-0.95312zm0-1.2656c1.2891 0 2.3047 0.42188 3.0469 1.2656 0.75 0.84375 1.125 2.0156 1.125 3.5156 0 1.4805-0.375 2.6484-1.125 3.5-0.74219 0.84375-1.7578 1.2656-3.0469 1.2656-1.3047 0-2.3242-0.42188-3.0625-1.2656-0.74219-0.85156-1.1094-2.0195-1.1094-3.5 0-1.5 0.36719-2.6719 1.1094-3.5156 0.73828-0.84375 1.7578-1.2656 3.0625-1.2656z"/>
</symbol>
<symbol id="p" overflow="visible">
<path d="m6.8281-7.7031c-0.16797-0.09375-0.35156-0.16016-0.54688-0.20312-0.19922-0.050781-0.41406-0.078125-0.64062-0.078125-0.84375 0-1.4961 0.27734-1.9531 0.82812-0.44922 0.55469-0.67188 1.3398-0.67188 2.3594v4.7969h-1.5v-9.0938h1.5v1.4219c0.3125-0.55078 0.71875-0.96094 1.2188-1.2344 0.50781-0.26953 1.125-0.40625 1.8438-0.40625 0.09375 0 0.20312 0.011719 0.32812 0.03125 0.125 0.011719 0.26562 0.027344 0.42188 0.046875z"/>
</symbol>
<symbol id="o" overflow="visible">
<path d="m8.6406-7.3438c0.375-0.67578 0.82031-1.1719 1.3438-1.4844 0.51953-0.32031 1.1289-0.48438 1.8281-0.48438 0.94531 0 1.6758 0.33594 2.1875 1 0.51953 0.65625 0.78125 1.6016 0.78125 2.8281v5.4844h-1.5v-5.4375c0-0.875-0.15625-1.5195-0.46875-1.9375-0.30469-0.42578-0.77344-0.64062-1.4062-0.64062-0.77344 0-1.3867 0.26172-1.8438 0.78125-0.44922 0.51172-0.67188 1.2109-0.67188 2.0938v5.1406h-1.5v-5.4375c0-0.875-0.15625-1.5195-0.46875-1.9375-0.30469-0.42578-0.77734-0.64062-1.4219-0.64062-0.76172 0-1.3672 0.26172-1.8125 0.78125-0.44922 0.51172-0.67188 1.2109-0.67188 2.0938v5.1406h-1.5v-9.0938h1.5v1.4219c0.33203-0.5625 0.73828-0.97266 1.2188-1.2344 0.47656-0.26953 1.0469-0.40625 1.7031-0.40625s1.2109 0.17188 1.6719 0.51562c0.46875 0.33594 0.8125 0.82031 1.0312 1.4531z"/>
</symbol>
<radialGradient id="k" cx="312.18" cy="113.14" r="186.91" gradientTransform="matrix(1 0 0 .28744 0 6.452)" gradientUnits="userSpaceOnUse">
<stop stop-color="#b3b3b3" offset="0"/>
<stop stop-color="#808080" offset="1"/>
</radialGradient>
</defs>
<g>
<use x="9.0625" y="75.831018" xlink:href="#w"/>
<use x="19.037562" y="75.831018" xlink:href="#i"/>
<use x="25.687603" y="75.831018" xlink:href="#h"/>
<use x="35.662666" y="75.831018" xlink:href="#n"/>
<use x="45.637728" y="75.831018" xlink:href="#d"/>
<use x="55.61279" y="75.831018" xlink:href="#m"/>
</g>
<g>
<use x="73.476562" y="150.6943" xlink:href="#c"/>
<use x="83.451625" y="150.6943" xlink:href="#c"/>
<use x="93.426687" y="150.6943" xlink:href="#l"/>
<use x="98.414218" y="150.6943" xlink:href="#g"/>
</g>
<g>
<use x="115.359375" y="150.6943" xlink:href="#j"/>
<use x="125.334437" y="150.6943" xlink:href="#g"/>
<use x="135.309499" y="150.6943" xlink:href="#f"/>
<use x="145.284561" y="150.6943" xlink:href="#a"/>
<use x="158.584644" y="150.6943" xlink:href="#b"/>
</g>
<g>
<use x="188.625" y="150.6943" xlink:href="#v"/>
<use x="198.600062" y="150.6943" xlink:href="#f"/>
<use x="208.575124" y="150.6943" xlink:href="#a"/>
<use x="221.875207" y="150.6943" xlink:href="#b"/>
</g>
<g>
<use x="316.445313" y="150.6943" xlink:href="#c"/>
<use x="326.420375" y="150.6943" xlink:href="#f"/>
<use x="336.395437" y="150.6943" xlink:href="#a"/>
<use x="349.695519" y="150.6943" xlink:href="#b"/>
</g>
<g>
<use x="502.839844" y="150.6943" xlink:href="#c"/>
<use x="512.814906" y="150.6943" xlink:href="#u"/>
<use x="522.789968" y="150.6943" xlink:href="#e"/>
<use x="532.76503" y="150.6943" xlink:href="#a"/>
<use x="546.065113" y="150.6943" xlink:href="#b"/>
</g>
<g>
<use x="578.929688" y="150.6943" xlink:href="#j"/>
<use x="588.90475" y="150.6943" xlink:href="#e"/>
<use x="598.879812" y="150.6943" xlink:href="#e"/>
<use x="608.854874" y="150.6943" xlink:href="#a"/>
<use x="622.154957" y="150.6943" xlink:href="#b"/>
</g>
<g>
<use x="687.367188" y="75.831018" xlink:href="#a"/>
<use x="700.66727" y="75.831018" xlink:href="#d"/>
<use x="710.642332" y="75.831018" xlink:href="#t"/>
<use x="715.629863" y="75.831018" xlink:href="#s"/>
<use x="720.617394" y="75.831018" xlink:href="#r"/>
<use x="728.929946" y="75.831018" xlink:href="#q"/>
<use x="738.905008" y="75.831018" xlink:href="#i"/>
<use x="745.55505" y="75.831018" xlink:href="#p"/>
<use x="752.205091" y="75.831018" xlink:href="#d"/>
<use x="762.180153" y="75.831018" xlink:href="#o"/>
<use x="778.805257" y="75.831018" xlink:href="#h"/>
</g>
<path transform="matrix(1.6625 0 0 1.6618 0 .38104)" d="m63.226 80.691v-36.501" fill="none" stroke="#000" stroke-width=".75"/>
<path d="m102.09 80.332 3.0078-8.168 3.0039 8.168c-1.7734-1.3047-4.2031-1.2969-6.0117 0z" fill-rule="evenodd"/>
<path transform="matrix(1.6625 0 0 1.6618 0 .38104)" d="m73.726 80.691v-36.501" fill="none" stroke="#000" stroke-width=".75"/>
<path d="m119.55 80.332 3.0078-8.168 3.0039 8.168c-1.7734-1.3047-4.2031-1.2969-6.0117 0z" fill-rule="evenodd"/>
<path transform="matrix(1.6625 0 0 1.6618 0 .38104)" d="m119.21 80.691v-56.379" fill="none" stroke="#000" stroke-width=".75"/>
<path d="m195.16 47.301 3.0039-8.168 3.0078 8.168c-1.7734-1.3047-4.2031-1.2969-6.0117 0z" fill-rule="evenodd"/>
<path transform="matrix(1.6625 0 0 1.6618 0 .38104)" d="m197.84 80.691v-73.13" fill="none" stroke="#000" stroke-width=".75"/>
<path d="m325.89 19.465 3.0039-8.1719 3.0078 8.1719c-1.7734-1.3047-4.2031-1.2969-6.0117 0z" fill-rule="evenodd"/>
<path transform="matrix(1.6625 0 0 1.6618 0 .38104)" d="m310.63 80.691v-68.13" fill="none" stroke="#000" stroke-width=".75"/>
<path d="m513.41 27.773 3.0078-8.1719 3.0039 8.1719c-1.7734-1.3047-4.2031-1.2969-6.0117 0z" fill-rule="evenodd"/>
<path transform="matrix(1.6625 0 0 1.6618 0 .38104)" d="m354.96 80.691v-65.946" fill="none" stroke="#000" stroke-width=".75"/>
<path d="m587.1 31.402 3.0039-8.168 3.0078 8.168c-1.7773-1.3047-4.2031-1.2969-6.0117 0z" fill-rule="evenodd"/>
<path transform="matrix(1.6625 0 0 1.6618 0 .38104)" d="m41.546 42.941h365.05l8.0968-14.024z" fill="url(#k)" stroke="#000" stroke-width=".75"/>
<path transform="matrix(1.6625 0 0 1.6618 0 .38104)" d="m41.546 42.941s45.994-4.9153 70.303-17.842c0.70958-0.37846 5.3689-3.1452 9.2034-2.5246 2.1193 0.3432 6.5531 1.0437 9.0977 6.2246 4.2293 8.6058 5.4158 15.399 7.5422 18.237 1.9878 2.6492 6.0174 2.0992 7.8148-4.0643" fill="none" stroke="#000" stroke-width="1.3"/>
<path transform="matrix(1.6625 0 0 1.6618 0 .38104)" d="m234.04 42.901c-0.68844 4.4451-3.4093 6.4714-6.022 5.0822-2.6786-1.4245-4.0695-8.2579-6.1419-18.855-2.5399-12.992-12.406-23.093-23.252-23.333-17.171-0.38081-60.491 27.82-157.08 37.145" fill="none" stroke="#000" stroke-width="1.3"/>
<path transform="matrix(1.6625 0 0 1.6618 0 .38104)" d="m285.14 42.901c-0.68844 4.4451-3.4093 6.4714-6.022 5.0822-2.6786-1.4245-4.5606-8.1733-6.1419-18.855-2.359-15.938-7.3261-21.464-15.305-21.495-17.173-0.063468-91.498 31.633-216.12 35.307" fill="none" stroke="#000" stroke-width="1.3"/>
<path transform="matrix(1.6625 0 0 1.6618 0 .38104)" d="m331.18 43.101c-1.0362 4.5721-3.2989 5.2914-5.914 3.9021-2.6786-1.4245-3.1391-7.0826-3.468-17.875-0.39474-12.922-4.5183-18.401-12.498-18.432-9.8073-0.03526-50.298 12.844-104.49 23.483-14.323 2.8114-16.889 2.2872-163.26 8.761" fill="none" stroke="#000" stroke-width="1.3"/>
<path transform="matrix(1.6625 0 0 1.6618 0 .38104)" d="m371.18 43.105c-0.68844 4.4451-3.2378 5.5453-5.8505 4.156-2.6786-1.4245-2.9488-3.3967-3.0592-18.056-0.091635-12.325-2.399-15.846-7.6174-16.253-5.0799-0.39256-2.2204 1.3046-56.428 11.845-62.803 12.209-11.238 8.7257-256.68 18.143" fill="none" stroke="#000" stroke-width="1.3"/>
</svg>
