<?xml version="1.0" encoding="UTF-8"?>
<svg width="400px" height="151px" version="1.1" viewBox="0 0 400 151" xmlns="http://www.w3.org/2000/svg" xmlns:xlink="http://www.w3.org/1999/xlink">
<defs>
<symbol id="e" overflow="visible">
<path d="m9.5156-10.391c-1.4062 0-2.5117 0.375-3.3125 1.125-0.80469 0.75-1.2031 1.7891-1.2031 3.1094 0 1.3242 0.39844 2.3594 1.2031 3.1094 0.80078 0.75 1.9062 1.125 3.3125 1.125 1.3945 0 2.5-0.375 3.3125-1.125 0.8125-0.75781 1.2188-1.7969 1.2188-3.1094 0-1.3203-0.40625-2.3594-1.2188-3.1094-0.80469-0.75-1.9062-1.125-3.3125-1.125zm-2.9531-1.2656c-1.2734-0.3125-2.2617-0.89844-2.9688-1.7656-0.69922-0.875-1.0469-1.9375-1.0469-3.1875 0-1.75 0.61719-3.1289 1.8594-4.1406 1.2383-1.0195 2.9414-1.5312 5.1094-1.5312 2.1641 0 3.8672 0.51172 5.1094 1.5312 1.2383 1.0117 1.8594 2.3906 1.8594 4.1406 0 1.25-0.35547 2.3125-1.0625 3.1875-0.71094 0.86719-1.6875 1.4531-2.9375 1.7656 1.4141 0.33594 2.5195 0.98438 3.3125 1.9531 0.78906 0.96875 1.1875 2.1523 1.1875 3.5469 0 2.125-0.64844 3.7578-1.9375 4.8906-1.2812 1.125-3.125 1.6875-5.5312 1.6875s-4.2578-0.5625-5.5469-1.6875c-1.293-1.1328-1.9375-2.7656-1.9375-4.8906 0-1.3945 0.39453-2.5781 1.1875-3.5469 0.80078-0.96875 1.9141-1.6172 3.3438-1.9531zm-1.0781-4.6719c0 1.1367 0.34766 2.0234 1.0469 2.6562 0.70703 0.63672 1.7031 0.95312 2.9844 0.95312 1.2578 0 2.25-0.31641 2.9688-0.95312 0.71875-0.63281 1.0781-1.5195 1.0781-2.6562 0-1.1328-0.35938-2.0195-1.0781-2.6562-0.71875-0.63281-1.7109-0.95312-2.9688-0.95312-1.2812 0-2.2773 0.32031-2.9844 0.95312-0.69922 0.63672-1.0469 1.5234-1.0469 2.6562z"/>
</symbol>
<symbol id="d" overflow="visible">
<path d="m3.5-3.7188h3.0938v2.5156l-2.4062 4.6875h-1.875l1.1875-4.6875z"/>
</symbol>
<symbol id="c" overflow="visible">
<path d="m3.2344-21.875h11.578v2.4844h-8.875v5.3594c0.42578-0.14453 0.85156-0.25391 1.2812-0.32812 0.42578-0.070313 0.85156-0.10938 1.2812-0.10938 2.4375 0 4.3633 0.67188 5.7812 2.0156 1.4258 1.3359 2.1406 3.1484 2.1406 5.4375 0 2.3555-0.73438 4.1836-2.2031 5.4844-1.4609 1.3047-3.5156 1.9531-6.1719 1.9531-0.91797 0-1.8516-0.078125-2.7969-0.23438-0.94922-0.15625-1.9297-0.39062-2.9375-0.70312v-2.9688c0.875 0.48047 1.7734 0.83984 2.7031 1.0781 0.9375 0.23047 1.9258 0.34375 2.9688 0.34375 1.6875 0 3.0195-0.44141 4-1.3281 0.98828-0.89453 1.4844-2.1016 1.4844-3.625 0-1.5312-0.49609-2.7383-1.4844-3.625-0.98047-0.88281-2.3125-1.3281-4-1.3281-0.78125 0-1.5703 0.089844-2.3594 0.26562-0.78125 0.16797-1.5781 0.4375-2.3906 0.8125z"/>
</symbol>
<symbol id="a" overflow="visible">
<path d="m15.562-13.266c0.66406-1.207 1.4688-2.0977 2.4062-2.6719 0.9375-0.58203 2.0352-0.875 3.2969-0.875 1.707 0 3.0234 0.60156 3.9531 1.7969 0.92578 1.1992 1.3906 2.9023 1.3906 5.1094v9.9062h-2.7031v-9.8125c0-1.5703-0.28125-2.7383-0.84375-3.5-0.55469-0.76953-1.3984-1.1562-2.5312-1.1562-1.3984 0-2.5 0.46484-3.3125 1.3906-0.80469 0.92969-1.2031 2.1953-1.2031 3.7969v9.2812h-2.7031v-9.8125c0-1.582-0.28125-2.7539-0.84375-3.5156-0.55469-0.75781-1.4062-1.1406-2.5625-1.1406-1.375 0-2.4688 0.46875-3.2812 1.4062-0.80469 0.92969-1.2031 2.1875-1.2031 3.7812v9.2812h-2.7031v-16.422h2.7031v2.5625c0.61328-1.0078 1.3477-1.7539 2.2031-2.2344 0.85156-0.47656 1.875-0.71875 3.0625-0.71875s2.1953 0.30469 3.0312 0.90625c0.83203 0.60547 1.4453 1.4844 1.8438 2.6406z"/>
</symbol>
<symbol id="b" overflow="visible">
<path d="m12.141-11.797c1.4141 0.30469 2.5195 0.93359 3.3125 1.8906 0.78906 0.96094 1.1875 2.1406 1.1875 3.5469 0 2.1562-0.74219 3.8281-2.2188 5.0156-1.4805 1.1797-3.5859 1.7656-6.3125 1.7656-0.91797 0-1.8594-0.09375-2.8281-0.28125-0.96875-0.17578-1.9688-0.44141-3-0.79688v-2.8594c0.8125 0.48047 1.7031 0.84375 2.6719 1.0938 0.97656 0.24219 2 0.35938 3.0625 0.35938 1.8516 0 3.2656-0.36328 4.2344-1.0938 0.96875-0.73828 1.4531-1.8047 1.4531-3.2031 0-1.2891-0.45312-2.3008-1.3594-3.0312-0.89844-0.72656-2.1484-1.0938-3.75-1.0938h-2.5469v-2.4219h2.6562c1.457 0 2.5664-0.28906 3.3281-0.875 0.76953-0.58203 1.1562-1.4219 1.1562-2.5156 0-1.125-0.39844-1.9844-1.1875-2.5781-0.79297-0.60156-1.9297-0.90625-3.4062-0.90625-0.8125 0-1.6836 0.089844-2.6094 0.26562-0.91797 0.16797-1.9336 0.4375-3.0469 0.8125v-2.6406c1.1133-0.3125 2.1602-0.54688 3.1406-0.70312 0.97656-0.15625 1.9062-0.23438 2.7812-0.23438 2.2383 0 4.0078 0.51172 5.3125 1.5312 1.3008 1.0234 1.9531 2.4023 1.9531 4.1406 0 1.2188-0.34375 2.2461-1.0312 3.0781-0.6875 0.83594-1.6719 1.4141-2.9531 1.7344z"/>
</symbol>
</defs>
<g>
<use x="14.328125" y="143.381915" xlink:href="#e"/>
<use x="34.525613" y="143.381915" xlink:href="#d"/>
<use x="43.502274" y="143.381915" xlink:href="#c"/>
<use x="63.699761" y="143.381915" xlink:href="#a"/>
<use x="200.511719" y="143.381915" xlink:href="#c"/>
<use x="220.709206" y="143.381915" xlink:href="#a"/>
<use x="322.527344" y="143.381915" xlink:href="#b"/>
<use x="342.724831" y="143.381915" xlink:href="#d"/>
<use x="351.701493" y="143.381915" xlink:href="#b"/>
<use x="371.89898" y="143.381915" xlink:href="#a"/>
<path d="m49.109 3.5859c-27.133 2.3789-48.145 25.375-48.145 52.688 0 27.316 21.012 50.309 48.145 52.691 27.129 2.3789 51.805-16.609 56.531-43.508l-25.426 0.039063c-4.1211 12.074-15.863 19.957-28.953 18.809-14.602-1.2812-25.613-13.332-25.613-28.031 0-14.695 11.012-26.746 25.613-28.027 13.113-1.1484 24.871 6.7578 28.977 18.871l25.402-0.023438c-4.7266-26.898-29.402-45.887-56.531-43.508z"/>
<path d="m225.35 22.77c-17.375 0-32.023 13.461-33.535 30.82-1.5156 17.359 10.578 33.164 27.688 36.191l0.007813-18.609c-6.3633-2.5156-10.434-8.8945-9.8125-16.012 0.71484-8.2188 7.4258-14.387 15.652-14.387 8.2227 0 14.93 6.168 15.645 14.387 0.625 7.1484-3.4844 13.559-9.8984 16.047l0.09375 18.574c17.109-3.0273 29.203-18.832 27.691-36.191-1.5156-17.359-16.16-30.82-33.531-30.82z"/>
<path d="m357.73 33.941c-11.402 2.0156-19.473 12.559-18.461 24.121 1.0078 11.566 10.781 20.547 22.355 20.547 11.578 0 21.348-8.9805 22.355-20.547 1.0078-11.562-7.0586-22.105-18.457-24.121 0 0.003906-0.085938 14-0.085938 14 3.3672 1.5547 5.4688 5.0469 5.1289 8.9453-0.41016 4.7109-4.2266 8.2188-8.9414 8.2188s-8.5352-3.5078-8.9453-8.2188c-0.33984-3.8867 1.75-7.3711 5.0977-8.9297z"/>
</g>
</svg>
