<?xml version="1.0" encoding="UTF-8"?>
<svg width="800px" height="301px" version="1.1" viewBox="0 0 800 301" xmlns="http://www.w3.org/2000/svg" xmlns:xlink="http://www.w3.org/1999/xlink">
<defs>
<symbol id="e" overflow="visible">
<path d="m19.016-20.703c-2.8047 0-5.0078 0.75-6.6094 2.25-1.6055 1.5-2.4062 3.5625-2.4062 6.1875s0.80078 4.6875 2.4062 6.1875c1.6016 1.5 3.8047 2.25 6.6094 2.25 2.8125 0 5.0234-0.75391 6.6406-2.2656 1.6133-1.5078 2.4219-3.5664 2.4219-6.1719 0-2.625-0.80469-4.6875-2.4062-6.1875-1.6055-1.5-3.8242-2.25-6.6562-2.25zm-5.8906-2.5156c-2.5312-0.625-4.5078-1.8008-5.9219-3.5312-1.418-1.7266-2.125-3.8438-2.125-6.3438 0-3.4766 1.2383-6.2266 3.7188-8.25 2.4883-2.0312 5.8945-3.0469 10.219-3.0469 4.3438 0 7.75 1.0156 10.219 3.0469 2.4766 2.0234 3.7188 4.7734 3.7188 8.25 0 2.5-0.71094 4.6172-2.125 6.3438-1.4062 1.7305-3.3672 2.9062-5.875 3.5312 2.8438 0.66797 5.0547 1.9648 6.6406 3.8906 1.5938 1.9297 2.3906 4.2812 2.3906 7.0625 0 4.2305-1.293 7.4766-3.875 9.7344-2.5859 2.25-6.2812 3.375-11.094 3.375-4.8047 0-8.4961-1.125-11.078-3.375-2.5859-2.2578-3.875-5.5039-3.875-9.7344 0-2.7812 0.79688-5.1328 2.3906-7.0625 1.6016-1.9258 3.8281-3.2227 6.6719-3.8906zm-2.1719-9.3125c0 2.2617 0.70312 4.0273 2.1094 5.2969 1.4141 1.2617 3.3984 1.8906 5.9531 1.8906 2.5391 0 4.5234-0.62891 5.9531-1.8906 1.4258-1.2695 2.1406-3.0352 2.1406-5.2969 0-2.2578-0.71484-4.0195-2.1406-5.2812-1.4297-1.2695-3.4141-1.9062-5.9531-1.9062-2.5547 0-4.5391 0.63672-5.9531 1.9062-1.4062 1.2617-2.1094 3.0234-2.1094 5.2812z"/>
</symbol>
<symbol id="d" overflow="visible">
<path d="m7.0156-7.4219h6.1562v5.0312l-4.7812 9.3438h-3.7812l2.4062-9.3438z"/>
</symbol>
<symbol id="c" overflow="visible">
<path d="m6.4531-43.609h23.172v4.9688h-17.766v10.688c0.86328-0.28906 1.7227-0.50781 2.5781-0.65625 0.85156-0.14453 1.707-0.21875 2.5625-0.21875 4.875 0 8.7344 1.3359 11.578 4 2.8438 2.668 4.2656 6.2812 4.2656 10.844 0 4.6875-1.4648 8.3359-4.3906 10.938-2.918 2.5938-7.0391 3.8906-12.359 3.8906-1.8242 0-3.6875-0.15625-5.5938-0.46875-1.8984-0.3125-3.8594-0.77344-5.8906-1.3906v-5.9375c1.7578 0.96094 3.5703 1.6719 5.4375 2.1406 1.875 0.46094 3.8516 0.6875 5.9375 0.6875 3.3633 0 6.0312-0.88281 8-2.6562 1.9688-1.7695 2.9531-4.1719 2.9531-7.2031 0-3.0391-0.98438-5.4453-2.9531-7.2188-1.9688-1.7695-4.6367-2.6562-8-2.6562-1.5859 0-3.1641 0.17969-4.7344 0.53125-1.5625 0.34375-3.1641 0.88672-4.7969 1.625z"/>
</symbol>
<symbol id="a" overflow="visible">
<path d="m31.125-26.438c1.3438-2.4062 2.9453-4.1797 4.8125-5.3281 1.875-1.1562 4.0781-1.7344 6.6094-1.7344 3.4062 0 6.0312 1.1953 7.875 3.5781 1.8516 2.3867 2.7812 5.7773 2.7812 10.172v19.75h-5.3906v-19.562c0-3.1328-0.55859-5.4609-1.6719-6.9844-1.1172-1.5195-2.8086-2.2812-5.0781-2.2812-2.793 0-4.9961 0.92969-6.6094 2.7812-1.6172 1.8438-2.4219 4.3672-2.4219 7.5625v18.484h-5.4062v-19.562c0-3.1562-0.55859-5.4883-1.6719-7-1.1172-1.5078-2.8281-2.2656-5.1406-2.2656-2.75 0-4.9336 0.93359-6.5469 2.7969-1.6172 1.8555-2.4219 4.3711-2.4219 7.5469v18.484h-5.4062v-32.703h5.4062v5.0781c1.2266-2.0078 2.6953-3.4883 4.4062-4.4375 1.7188-0.95703 3.7539-1.4375 6.1094-1.4375 2.375 0 4.3945 0.60547 6.0625 1.8125 1.6641 1.2109 2.8984 2.9609 3.7031 5.25z"/>
</symbol>
<symbol id="b" overflow="visible">
<path d="m24.281-23.516c2.8203 0.60547 5.0234 1.8672 6.6094 3.7812 1.5938 1.9062 2.3906 4.2617 2.3906 7.0625 0 4.3047-1.4805 7.6328-4.4375 9.9844-2.9609 2.3555-7.168 3.5312-12.625 3.5312-1.8359 0-3.7188-0.18359-5.6562-0.54688-1.9375-0.35156-3.9375-0.89062-6-1.6094v-5.7031c1.6328 0.96094 3.4258 1.6836 5.375 2.1719 1.9453 0.48047 3.9844 0.71875 6.1094 0.71875 3.6953 0 6.5156-0.72656 8.4531-2.1875 1.9375-1.457 2.9062-3.5781 2.9062-6.3594 0-2.5703-0.90234-4.582-2.7031-6.0312-1.8047-1.4453-4.3086-2.1719-7.5156-2.1719h-5.0938v-4.8594h5.3281c2.8945 0 5.1133-0.57812 6.6562-1.7344 1.5391-1.1562 2.3125-2.8203 2.3125-5 0-2.2383-0.79688-3.957-2.3906-5.1562-1.5859-1.1953-3.8555-1.7969-6.8125-1.7969-1.625 0-3.3672 0.17969-5.2188 0.53125-1.8438 0.34375-3.875 0.88672-6.0938 1.625v-5.25c2.2383-0.625 4.3359-1.0938 6.2969-1.4062 1.957-0.3125 3.8008-0.46875 5.5312-0.46875 4.4766 0 8.0234 1.0234 10.641 3.0625 2.6133 2.0312 3.9219 4.7773 3.9219 8.2344 0 2.418-0.69531 4.4609-2.0781 6.125-1.3867 1.668-3.3555 2.8203-5.9062 3.4531z"/>
</symbol>
</defs>
<g>
<use x="28.65625" y="285.813737" xlink:href="#e"/>
<use x="64.562895" y="285.813737" xlink:href="#d"/>
<use x="82.516217" y="285.813737" xlink:href="#c"/>
<use x="118.422862" y="285.813737" xlink:href="#a"/>
<use x="401.019531" y="285.813737" xlink:href="#c"/>
<use x="436.926176" y="285.813737" xlink:href="#a"/>
<use x="645.050781" y="285.813737" xlink:href="#b"/>
<use x="680.957426" y="285.813737" xlink:href="#d"/>
<use x="698.910748" y="285.813737" xlink:href="#b"/>
<use x="734.817393" y="285.813737" xlink:href="#a"/>
<path d="m98.219 7.1484c-54.262 4.7461-96.289 50.582-96.289 105.03 0 54.449 42.027 100.29 96.289 105.03 54.262 4.7461 103.61-33.105 113.07-86.723l-50.852 0.074219c-8.2461 24.07-31.73 39.781-57.91 37.488-29.203-2.5508-51.223-26.57-51.223-55.871 0-29.297 22.02-53.316 51.223-55.867 26.223-2.2969 49.742 13.473 57.953 37.609l50.809-0.046875c-9.457-53.617-58.805-91.469-113.07-86.723z"/>
<path d="m450.7 45.387c-34.746 0-64.043 26.836-67.07 61.438-3.0273 34.602 21.156 66.109 55.379 72.141l0.011719-37.094c-12.727-5.0078-20.867-17.73-19.625-31.918 1.4336-16.383 14.855-28.672 31.305-28.672 16.453 0 29.863 12.289 31.297 28.672 1.2461 14.25-6.9727 27.027-19.801 31.984l0.19141 37.027c34.219-6.0312 58.402-37.539 55.375-72.141-3.0273-34.602-32.312-61.438-67.062-61.438z"/>
<path d="m715.46 67.656c-22.801 4.0156-38.941 25.035-36.926 48.086 2.0195 23.055 21.566 40.957 44.719 40.957 23.148 0 42.688-17.902 44.707-40.957 2.0156-23.051-14.117-44.07-36.914-48.086 0 0.007812-0.16797 27.91-0.16797 27.91 6.7344 3.0977 10.938 10.059 10.258 17.828-0.82422 9.3906-8.457 16.387-17.883 16.387-9.4297 0-17.07-6.9961-17.895-16.387-0.67578-7.7461 3.5-14.691 10.195-17.801z"/>
</g>
</svg>
