<?xml version="1.0" encoding="UTF-8"?>
<svg width="800px" height="76px" version="1.1" viewBox="0 0 800 76" xmlns="http://www.w3.org/2000/svg" xmlns:xlink="http://www.w3.org/1999/xlink">
<defs>
<symbol id="y" overflow="visible">
<path d="m3.8438-16.547h2.2656l-1.375 6.9688 8.7188-6.9688h2.9844l-9.8594 7.9062 7.2188 8.6406h-2.7344l-6.625-8.0469-1.5625 8.0469h-2.2656z"/>
</symbol>
<symbol id="j" overflow="visible">
<path d="m10.156-10.531c-0.21094-0.10156-0.44922-0.1875-0.71875-0.25-0.27344-0.0625-0.55859-0.09375-0.85938-0.09375-1.0859 0-2.0391 0.41797-2.8594 1.25-0.8125 0.82422-1.3516 1.9219-1.6094 3.2969l-1.2656 6.3281h-2.0469l2.4375-12.406h2.0469l-0.39062 1.9219c0.53906-0.70703 1.1875-1.2539 1.9375-1.6406 0.75-0.38281 1.5508-0.57812 2.4062-0.57812 0.22656 0 0.44531 0.015625 0.65625 0.046875 0.21875 0.023438 0.42969 0.058594 0.64062 0.10938z"/>
</symbol>
<symbol id="i" overflow="visible">
<path d="m12.234-7.0781-1.3906 7.0781h-2.0469l0.375-1.8906c-0.60547 0.74219-1.293 1.2969-2.0625 1.6719-0.76172 0.36328-1.6094 0.54688-2.5469 0.54688-1.0625 0-1.9336-0.32422-2.6094-0.96875-0.67969-0.65625-1.0156-1.4883-1.0156-2.5 0-1.4453 0.57812-2.5859 1.7344-3.4219 1.1562-0.84375 2.7539-1.2656 4.7969-1.2656h2.8438l0.10938-0.54688c0.019531-0.0625 0.03125-0.125 0.03125-0.1875 0.007813-0.070312 0.015625-0.17969 0.015625-0.32812 0-0.65625-0.27344-1.1641-0.8125-1.5312-0.53125-0.375-1.2812-0.5625-2.25-0.5625-0.66797 0-1.3555 0.089844-2.0625 0.26562-0.69922 0.16797-1.418 0.42188-2.1562 0.76562l0.35938-1.8906c0.76953-0.28906 1.5234-0.50391 2.2656-0.64062 0.73828-0.14453 1.4531-0.21875 2.1406-0.21875 1.4688 0 2.582 0.32031 3.3438 0.95312 0.76953 0.63672 1.1562 1.5586 1.1562 2.7656 0 0.24219-0.023437 0.52734-0.0625 0.85938-0.03125 0.33594-0.085937 0.68359-0.15625 1.0469zm-2.2188 0.84375h-2.0469c-1.6797 0-2.918 0.22656-3.7188 0.67188-0.80469 0.44922-1.2031 1.1406-1.2031 2.0781 0 0.64844 0.20312 1.1562 0.60938 1.5312 0.41406 0.36719 0.98828 0.54688 1.7188 0.54688 1.1016 0 2.0703-0.39453 2.9062-1.1875 0.83203-0.78906 1.3789-1.8516 1.6406-3.1875z"/>
</symbol>
<symbol id="c" overflow="visible">
<path d="m12.688-7.4844-1.4531 7.4844h-2.0625l1.4531-7.4062c0.070312-0.35156 0.125-0.66016 0.15625-0.92188 0.039062-0.26953 0.0625-0.48438 0.0625-0.64062 0-0.61328-0.19922-1.0938-0.59375-1.4375-0.39844-0.35156-0.94531-0.53125-1.6406-0.53125-1.1055 0-2.0547 0.36719-2.8438 1.0938-0.79297 0.73047-1.3086 1.7188-1.5469 2.9688l-1.375 6.875h-2.0469l2.4219-12.406h2.0469l-0.42188 1.9531c0.57031-0.71875 1.2578-1.2695 2.0625-1.6562 0.80078-0.39453 1.6406-0.59375 2.5156-0.59375 1.1016 0 1.957 0.29688 2.5625 0.89062 0.60156 0.58594 0.90625 1.4141 0.90625 2.4844 0 0.27344-0.023437 0.55859-0.0625 0.85938-0.03125 0.30469-0.078125 0.63281-0.14062 0.98438z"/>
</symbol>
<symbol id="g" overflow="visible">
<path d="m4.1719-17.234h2.0469l-1.9688 10.047 7.0156-5.2188h2.6562l-7.8125 5.9375 5.7031 6.4688h-2.4688l-5.3125-6.0625-1.1875 6.0625h-2.0469z"/>
</symbol>
<symbol id="e" overflow="visible">
<path d="m12.688-7.4844-1.4531 7.4844h-2.0625l1.4531-7.4062c0.070312-0.35156 0.125-0.66016 0.15625-0.92188 0.039062-0.26953 0.0625-0.48438 0.0625-0.64062 0-0.61328-0.19922-1.0938-0.59375-1.4375-0.39844-0.35156-0.94531-0.53125-1.6406-0.53125-1.1055 0-2.0586 0.37109-2.8594 1.1094-0.80469 0.74219-1.3242 1.7266-1.5625 2.9531l-1.3438 6.875h-2.0469l3.375-17.234h2.0469l-1.3281 6.7812c0.51953-0.69531 1.1797-1.2422 1.9844-1.6406 0.8125-0.40625 1.6602-0.60938 2.5469-0.60938 1.1016 0 1.957 0.29688 2.5625 0.89062 0.60156 0.58594 0.90625 1.4141 0.90625 2.4844 0 0.27344-0.023437 0.55859-0.0625 0.85938-0.03125 0.30469-0.078125 0.63281-0.14062 0.98438z"/>
</symbol>
<symbol id="d" overflow="visible">
<path d="m10.953-7.3125c0.019531-0.11328 0.035156-0.23438 0.046875-0.35938 0.007812-0.125 0.015625-0.25 0.015625-0.375 0-0.90625-0.26562-1.6172-0.79688-2.1406-0.53125-0.53125-1.25-0.79688-2.1562-0.79688-1.0234 0-1.9219 0.32422-2.7031 0.96875-0.77344 0.63672-1.3555 1.543-1.75 2.7188zm1.7812 1.5938h-9.5156c-0.054688 0.28125-0.089844 0.50781-0.10938 0.67188-0.011719 0.15625-0.015625 0.29688-0.015625 0.42188 0 1.0234 0.31641 1.8125 0.95312 2.375 0.63281 0.5625 1.5312 0.84375 2.6875 0.84375 0.88281 0 1.7227-0.097656 2.5156-0.29688 0.80078-0.19531 1.5391-0.48828 2.2188-0.875l-0.39062 2.0156c-0.73047 0.29297-1.4844 0.51172-2.2656 0.65625-0.78125 0.15625-1.5781 0.23438-2.3906 0.23438-1.7305 0-3.0586-0.41016-3.9844-1.2344-0.92969-0.83203-1.3906-2.0039-1.3906-3.5156 0-1.2891 0.22656-2.4883 0.6875-3.5938 0.46875-1.1133 1.1484-2.1094 2.0469-2.9844 0.57031-0.53906 1.2539-0.95703 2.0469-1.25 0.80078-0.30078 1.6484-0.45312 2.5469-0.45312 1.4141 0 2.5391 0.42188 3.375 1.2656 0.83203 0.83594 1.25 1.9648 1.25 3.3906 0 0.33594-0.027344 0.69922-0.078125 1.0938-0.042969 0.38672-0.10547 0.79688-0.1875 1.2344z"/>
</symbol>
<symbol id="a" overflow="visible">
<path d="m4.1719-17.234h2.0469l-0.5 2.5781h-2.0469zm-0.9375 4.8281h2.0469l-2.4375 12.406h-2.0469z"/>
</symbol>
<symbol id="b" overflow="visible">
<path d="m9.625-12.406-0.3125 1.5781h-4.0781l-1.3281 6.7344c-0.042969 0.25-0.074219 0.46484-0.09375 0.64062-0.023438 0.16797-0.03125 0.29688-0.03125 0.39062 0 0.48047 0.14062 0.82812 0.42188 1.0469 0.28906 0.21094 0.75 0.3125 1.375 0.3125h2.0625l-0.34375 1.7031h-1.9531c-1.2109 0-2.1172-0.23438-2.7188-0.70312-0.59375-0.47656-0.89062-1.1953-0.89062-2.1562 0-0.16406 0.007813-0.34766 0.03125-0.54688 0.019531-0.20703 0.054687-0.4375 0.10938-0.6875l1.3125-6.7344h-1.7344l0.32812-1.5781h1.7031l0.6875-3.5312h2.0469l-0.6875 3.5312z"/>
</symbol>
<symbol id="x" overflow="visible">
<path d="m13.734-16-0.4375 2.1875c-0.75-0.39453-1.4961-0.69141-2.2344-0.89062-0.74219-0.20703-1.4531-0.3125-2.1406-0.3125-1.3359 0-2.4023 0.29297-3.2031 0.875-0.79297 0.58594-1.1875 1.3594-1.1875 2.3281 0 0.53125 0.14453 0.9375 0.4375 1.2188 0.28906 0.28125 1.0469 0.58594 2.2656 0.90625l1.3438 0.34375c1.5195 0.38672 2.5781 0.88281 3.1719 1.4844 0.59375 0.60547 0.89062 1.4492 0.89062 2.5312 0 1.668-0.66406 3.0273-1.9844 4.0781-1.3125 1.0547-3.043 1.5781-5.1875 1.5781-0.88672 0-1.7734-0.089844-2.6562-0.26562-0.88672-0.17578-1.7773-0.44141-2.6719-0.79688l0.45312-2.2969c0.82031 0.51172 1.6445 0.89844 2.4688 1.1562 0.82031 0.25 1.6445 0.375 2.4688 0.375 1.4062 0 2.5312-0.30469 3.375-0.92188 0.84375-0.625 1.2656-1.4375 1.2656-2.4375 0-0.65625-0.17188-1.1562-0.51562-1.5-0.33594-0.34375-1.0547-0.65625-2.1562-0.9375l-1.3594-0.34375c-1.5312-0.39453-2.5781-0.85156-3.1406-1.375-0.55469-0.51953-0.82812-1.25-0.82812-2.1875 0-1.6562 0.63281-3.0078 1.9062-4.0625 1.2695-1.0508 2.9219-1.5781 4.9531-1.5781 0.80078 0 1.5859 0.074219 2.3594 0.21875 0.78125 0.13672 1.5625 0.34375 2.3438 0.625z"/>
</symbol>
<symbol id="h" overflow="visible">
<path d="m12.203-11.938-0.40625 2.0156c-0.49219-0.35156-1.0117-0.61719-1.5625-0.79688-0.55469-0.17578-1.125-0.26562-1.7188-0.26562-0.65625 0-1.2812 0.11719-1.875 0.34375-0.58594 0.23047-1.0742 0.55859-1.4688 0.98438-0.63672 0.63672-1.1328 1.3867-1.4844 2.25-0.34375 0.86719-0.51562 1.7617-0.51562 2.6875 0 1.1172 0.27344 1.9492 0.82812 2.5 0.5625 0.54297 1.4141 0.8125 2.5625 0.8125 0.5625 0 1.1562-0.082031 1.7812-0.25 0.63281-0.17578 1.3008-0.42969 2-0.76562l-0.39062 2.0156c-0.59375 0.24219-1.2031 0.42188-1.8281 0.54688s-1.2734 0.1875-1.9375 0.1875c-1.6484 0-2.918-0.41016-3.8125-1.2344-0.88672-0.83203-1.3281-2.0078-1.3281-3.5312 0-1.2891 0.22656-2.4727 0.6875-3.5469 0.46875-1.082 1.1562-2.0547 2.0625-2.9219 0.625-0.59375 1.3516-1.0391 2.1875-1.3438 0.84375-0.30078 1.7578-0.45312 2.75-0.45312 0.58203 0 1.1562 0.070313 1.7188 0.20312 0.57031 0.125 1.1562 0.3125 1.75 0.5625z"/>
</symbol>
<symbol id="m" overflow="visible">
<path d="m12.234-7.0781-1.3906 7.0781h-2.0469l0.375-1.8906c-0.60547 0.74219-1.293 1.2969-2.0625 1.6719-0.76172 0.36328-1.6094 0.54688-2.5469 0.54688-1.0625 0-1.9336-0.32422-2.6094-0.96875-0.67969-0.65625-1.0156-1.4883-1.0156-2.5 0-1.4453 0.57812-2.5859 1.7344-3.4219 1.1562-0.84375 2.7539-1.2656 4.7969-1.2656h2.8438l0.10938-0.54688c0.019531-0.0625 0.03125-0.125 0.03125-0.1875 0.007813-0.070312 0.015625-0.17969 0.015625-0.32812 0-0.65625-0.27344-1.1641-0.8125-1.5312-0.53125-0.375-1.2812-0.5625-2.25-0.5625-0.66797 0-1.3555 0.089844-2.0625 0.26562-0.69922 0.16797-1.418 0.42188-2.1562 0.76562l0.35938-1.8906c0.76953-0.28906 1.5234-0.50391 2.2656-0.64062 0.73828-0.14453 1.4531-0.21875 2.1406-0.21875 1.4688 0 2.582 0.32031 3.3438 0.95312 0.76953 0.63672 1.1562 1.5586 1.1562 2.7656 0 0.24219-0.023437 0.52734-0.0625 0.85938-0.03125 0.33594-0.085937 0.68359-0.15625 1.0469zm-2.2188 0.84375h-2.0469c-1.6797 0-2.918 0.22656-3.7188 0.67188-0.80469 0.44922-1.2031 1.1406-1.2031 2.0781 0 0.64844 0.20312 1.1562 0.60938 1.5312 0.41406 0.36719 0.98828 0.54688 1.7188 0.54688 1.1016 0 2.0703-0.39453 2.9062-1.1875 0.83203-0.78906 1.3789-1.8516 1.6406-3.1875zm-4.2812-10.953h2.2812l-0.45312 2.2344h-2.2656zm4.3438 0h2.2656l-0.4375 2.2344h-2.2656z"/>
</symbol>
<symbol id="n" overflow="visible">
<path d="m9.5156-1.8594c-0.55469 0.71875-1.2031 1.2656-1.9531 1.6406-0.74219 0.36328-1.5703 0.54688-2.4844 0.54688-1.2422 0-2.2266-0.42188-2.9531-1.2656-0.71875-0.85156-1.0781-2.0156-1.0781-3.4844 0-1.2266 0.21875-2.3945 0.65625-3.5 0.4375-1.1133 1.0703-2.1094 1.9062-2.9844 0.53906-0.58203 1.1562-1.0234 1.8438-1.3281 0.6875-0.3125 1.4102-0.46875 2.1719-0.46875 0.80078 0 1.5039 0.19531 2.1094 0.57812 0.61328 0.38672 1.0859 0.93359 1.4219 1.6406l1.3438-6.75h2.0469l-3.3594 17.234h-2.0625zm-6.3438-2.9219c0 1.0742 0.23828 1.9062 0.71875 2.5 0.48828 0.59375 1.1602 0.89062 2.0156 0.89062 0.64453 0 1.2383-0.14844 1.7812-0.45312 0.53906-0.30078 1.0195-0.75391 1.4375-1.3594 0.4375-0.61328 0.78125-1.3281 1.0312-2.1406s0.375-1.6133 0.375-2.4062c0-1.0312-0.24609-1.832-0.73438-2.4062-0.48047-0.57031-1.1484-0.85938-2-0.85938-0.63672 0-1.2344 0.15234-1.7969 0.45312-0.55469 0.30469-1.0273 0.73438-1.4219 1.2969-0.42969 0.61719-0.77344 1.3281-1.0312 2.1406-0.25 0.8125-0.375 1.5938-0.375 2.3438z"/>
</symbol>
<symbol id="f" overflow="visible">
<path d="m13.578-12.406-2.125 10.859c-0.40625 2.1133-1.1875 3.6875-2.3438 4.7188s-2.7109 1.5469-4.6562 1.5469c-0.71875 0-1.3867-0.058594-2-0.17188-0.61719-0.10547-1.1875-0.26562-1.7188-0.48438l0.375-1.9844c0.50781 0.32031 1.0469 0.5625 1.6094 0.71875s1.1602 0.23438 1.7969 0.23438c1.2891 0 2.3516-0.35547 3.1875-1.0625 0.83203-0.69922 1.3828-1.7109 1.6562-3.0312l0.17188-0.9375c-0.5625 0.65625-1.2266 1.1562-1.9844 1.5-0.76172 0.33594-1.5742 0.5-2.4375 0.5-1.2617 0-2.2578-0.41406-2.9844-1.25-0.71875-0.83203-1.0781-1.9727-1.0781-3.4219 0-1.1445 0.21875-2.2656 0.65625-3.3594 0.4375-1.1016 1.0508-2.0781 1.8438-2.9219 0.51953-0.5625 1.1289-0.99219 1.8281-1.2969 0.70703-0.30078 1.4414-0.45312 2.2031-0.45312 0.84375 0 1.5703 0.19531 2.1875 0.57812 0.625 0.38672 1.0859 0.93359 1.3906 1.6406l0.35938-1.9219zm-3.0781 4.5469c0-1-0.24219-1.7695-0.71875-2.3125-0.46875-0.55078-1.1406-0.82812-2.0156-0.82812-0.54297 0-1.0586 0.10938-1.5469 0.32812-0.49219 0.21094-0.91406 0.50781-1.2656 0.89062-0.5625 0.63672-1 1.3867-1.3125 2.25-0.3125 0.85547-0.46875 1.7422-0.46875 2.6562 0 1.0234 0.23828 1.8086 0.71875 2.3594 0.47656 0.54297 1.1641 0.8125 2.0625 0.8125 1.2891 0 2.3672-0.58203 3.2344-1.75 0.875-1.1758 1.3125-2.6445 1.3125-4.4062z"/>
</symbol>
<symbol id="l" overflow="visible">
<path d="m1.5156-4.9219 1.4688-7.4844h2.0469l-1.4531 7.4062c-0.074219 0.36719-0.125 0.67969-0.15625 0.9375-0.03125 0.26172-0.046875 0.47656-0.046875 0.64062 0 0.625 0.19141 1.1094 0.57812 1.4531 0.38281 0.34375 0.92578 0.51562 1.625 0.51562 1.0938 0 2.0391-0.36719 2.8438-1.1094 0.80078-0.73828 1.3281-1.7266 1.5781-2.9688l1.3594-6.875h2.0469l-2.4062 12.406h-2.0469l0.40625-1.9531c-0.57422 0.73047-1.2617 1.293-2.0625 1.6875-0.79297 0.39453-1.6406 0.59375-2.5469 0.59375-1.0859 0-1.9336-0.29688-2.5469-0.89062-0.60547-0.60156-0.90625-1.4375-0.90625-2.5 0-0.21875 0.015625-0.49219 0.046875-0.82812 0.039062-0.33203 0.097656-0.67578 0.17188-1.0312z"/>
</symbol>
<symbol id="w" overflow="visible">
<path d="m3.8438-16.547h9.5156l-0.35938 1.8906h-7.2812l-0.96875 4.875h6.5938l-0.375 1.875h-6.5781l-1.5469 7.9062h-2.2344z"/>
</symbol>
<symbol id="k" overflow="visible">
<path d="m11.391-12.047-0.39062 1.9375c-0.54297-0.30078-1.1172-0.52344-1.7188-0.67188-0.60547-0.14453-1.2266-0.21875-1.8594-0.21875-1.0742 0-1.9219 0.18359-2.5469 0.54688-0.61719 0.36719-0.92188 0.85938-0.92188 1.4844 0 0.74219 0.71875 1.3047 2.1562 1.6875 0.11328 0.03125 0.19531 0.054688 0.25 0.0625l0.65625 0.20312c1.3633 0.375 2.2695 0.77344 2.7188 1.1875 0.45703 0.41797 0.6875 0.98438 0.6875 1.7031 0 1.3125-0.52734 2.3867-1.5781 3.2188-1.043 0.82422-2.4141 1.2344-4.1094 1.2344-0.65625 0-1.3516-0.070313-2.0781-0.20312-0.73047-0.125-1.5312-0.31641-2.4062-0.57812l0.40625-2.1094c0.75 0.38672 1.4844 0.67969 2.2031 0.875 0.72656 0.19922 1.4258 0.29688 2.0938 0.29688 1 0 1.8125-0.21094 2.4375-0.64062 0.63281-0.42578 0.95312-0.96875 0.95312-1.625 0-0.70703-0.82422-1.2812-2.4688-1.7188l-0.21875-0.046875-0.70312-0.1875c-1.0312-0.26953-1.793-0.62891-2.2812-1.0781-0.48047-0.44531-0.71875-1.0156-0.71875-1.7031 0-1.3203 0.5-2.3672 1.5-3.1406 1-0.78125 2.3516-1.1719 4.0625-1.1719 0.67578 0 1.332 0.058594 1.9688 0.17188 0.64453 0.10547 1.2812 0.26562 1.9062 0.48438z"/>
</symbol>
<symbol id="v" overflow="visible">
<path d="m5.7812 0.32812c-1.4609 0-2.6172-0.44531-3.4688-1.3438-0.84375-0.90625-1.2656-2.1328-1.2656-3.6875 0-0.89453 0.14453-1.8047 0.4375-2.7344 0.28906-0.9375 0.67188-1.7227 1.1406-2.3594 0.72656-0.98828 1.5469-1.7188 2.4531-2.1875 0.90625-0.47656 1.9258-0.71875 3.0625-0.71875 1.4141 0 2.5625 0.44531 3.4375 1.3281 0.875 0.875 1.3125 2.0234 1.3125 3.4375 0 0.98047-0.14844 1.9609-0.4375 2.9375-0.29297 0.96875-0.67188 1.7773-1.1406 2.4219-0.71875 0.99219-1.5312 1.7266-2.4375 2.2031-0.90625 0.46875-1.9375 0.70312-3.0938 0.70312zm-2.6094-5.0938c0 1.125 0.23438 1.9688 0.70312 2.5312 0.46875 0.55469 1.1797 0.82812 2.1406 0.82812 1.3633 0 2.4922-0.59375 3.3906-1.7812 0.90625-1.1953 1.3594-2.7109 1.3594-4.5469 0-1.0703-0.24219-1.8789-0.71875-2.4219-0.48047-0.55078-1.1875-0.82812-2.125-0.82812-0.77344 0-1.4609 0.18359-2.0625 0.54688-0.59375 0.35547-1.1328 0.89844-1.6094 1.625-0.34375 0.55469-0.60938 1.1836-0.79688 1.8906-0.1875 0.69922-0.28125 1.418-0.28125 2.1562zm2.7344-12.422h2.2812l-0.45312 2.2344h-2.2656zm4.3438 0h2.2656l-0.4375 2.2344h-2.2656z"/>
</symbol>
<symbol id="u" overflow="visible">
<path d="m3.8438-16.547h5.7344c1.5625 0 2.7266 0.29297 3.5 0.875 0.76953 0.57422 1.1562 1.4375 1.1562 2.5938 0 1.0625-0.33594 1.9844-1 2.7656-0.66797 0.77344-1.5391 1.2344-2.6094 1.3906 0.91406 0.21094 1.6016 0.60547 2.0625 1.1875 0.46875 0.58594 0.70312 1.3672 0.70312 2.3438 0 1.6562-0.62109 2.9688-1.8594 3.9375-1.2305 0.96875-2.918 1.4531-5.0625 1.4531h-5.8594zm0.54688 8.6406-1.1719 6.0625h3.6094c1.3516 0 2.3945-0.30469 3.125-0.92188 0.73828-0.625 1.1094-1.5 1.1094-2.625 0-0.875-0.24609-1.5078-0.73438-1.9062-0.48047-0.40625-1.2578-0.60938-2.3281-0.60938zm1.3281-6.7969-0.98438 4.9844h3.3438c1.1953 0 2.1289-0.25391 2.7969-0.76562 0.67578-0.51953 1.0156-1.2383 1.0156-2.1562 0-0.71875-0.23047-1.2383-0.6875-1.5625-0.44922-0.33203-1.1719-0.5-2.1719-0.5z"/>
</symbol>
<symbol id="t" overflow="visible">
<path d="m3.8438-16.547h3.375l1.9375 11.156 6.4219-11.156h3.4531l-3.2344 16.547h-2.1875l2.8281-14.5-6.5156 11.328h-2.1875l-2.1094-11.375-2.8281 14.547h-2.1875z"/>
</symbol>
<symbol id="s" overflow="visible">
<path d="m2.6406-12.406h9.7188l-0.35938 1.8594-9.375 8.9219h7.7344l-0.32812 1.625h-10.094l0.35938-1.8594 9.375-8.9219h-7.3438z"/>
</symbol>
<symbol id="r" overflow="visible">
<path d="m5.7344-14.703-1.125 5.875h2.8906c1.125 0 2.0352-0.3125 2.7344-0.9375 0.70703-0.625 1.0625-1.4375 1.0625-2.4375 0-0.8125-0.24219-1.4297-0.71875-1.8594-0.46875-0.42578-1.1406-0.64062-2.0156-0.64062zm4.125 6.7656c0.47656 0.10547 0.875 0.375 1.1875 0.8125s0.67578 1.3086 1.0938 2.6094l1.4062 4.5156h-2.3594l-1.3125-4.25c-0.33594-1.082-0.71875-1.8047-1.1562-2.1719-0.4375-0.375-1.1055-0.5625-2-0.5625h-2.4844l-1.3594 6.9844h-2.2656l3.2344-16.547h5.0625c1.5312 0 2.7031 0.35156 3.5156 1.0469 0.82031 0.6875 1.2344 1.6836 1.2344 2.9844 0 1.1484-0.35156 2.1406-1.0469 2.9844-0.6875 0.84375-1.6055 1.375-2.75 1.5938z"/>
</symbol>
<symbol id="q" overflow="visible">
<path d="m11.266-7.5781c0-1.0703-0.24609-1.9102-0.73438-2.5156-0.49219-0.60156-1.168-0.90625-2.0312-0.90625-0.63672 0-1.2305 0.15625-1.7812 0.46875-0.55469 0.30469-1.0312 0.74609-1.4375 1.3281-0.42969 0.61719-0.76562 1.3281-1.0156 2.1406-0.25 0.80469-0.375 1.6055-0.375 2.4062 0 1.0234 0.23828 1.8242 0.71875 2.4062 0.48828 0.57422 1.1602 0.85938 2.0156 0.85938 0.64453 0 1.2383-0.14453 1.7812-0.4375 0.55078-0.30078 1.0352-0.74219 1.4531-1.3281 0.42578-0.60156 0.76562-1.3047 1.0156-2.1094 0.25781-0.8125 0.39062-1.582 0.39062-2.3125zm-6.3594-2.9531c0.50781-0.67578 1.1445-1.207 1.9062-1.5938 0.75781-0.38281 1.5508-0.57812 2.375-0.57812 1.2812 0 2.2969 0.42969 3.0469 1.2812 0.75 0.85547 1.125 2.0156 1.125 3.4844 0 1.1992-0.22656 2.3594-0.67188 3.4844-0.4375 1.1172-1.0625 2.1094-1.875 2.9844-0.53125 0.57422-1.1484 1.0156-1.8438 1.3281-0.69922 0.3125-1.4297 0.46875-2.1875 0.46875-0.8125 0-1.5156-0.18359-2.1094-0.54688-0.58594-0.375-1.0625-0.92969-1.4375-1.6719l-0.35938 1.8906h-2.0469l3.3594-17.234h2.0469z"/>
</symbol>
<symbol id="p" overflow="visible">
<path d="m4.1719-17.234h2.0469l-3.375 17.234h-2.0469z"/>
</symbol>
<symbol id="o" overflow="visible">
<path d="m5.7812 0.32812c-1.4609 0-2.6172-0.44531-3.4688-1.3438-0.84375-0.90625-1.2656-2.1328-1.2656-3.6875 0-0.89453 0.14453-1.8047 0.4375-2.7344 0.28906-0.9375 0.67188-1.7227 1.1406-2.3594 0.72656-0.98828 1.5469-1.7188 2.4531-2.1875 0.90625-0.47656 1.9258-0.71875 3.0625-0.71875 1.4141 0 2.5625 0.44531 3.4375 1.3281 0.875 0.875 1.3125 2.0234 1.3125 3.4375 0 0.98047-0.14844 1.9609-0.4375 2.9375-0.29297 0.96875-0.67188 1.7773-1.1406 2.4219-0.71875 0.99219-1.5312 1.7266-2.4375 2.2031-0.90625 0.46875-1.9375 0.70312-3.0938 0.70312zm-2.6094-5.0938c0 1.125 0.23438 1.9688 0.70312 2.5312 0.46875 0.55469 1.1797 0.82812 2.1406 0.82812 1.3633 0 2.4922-0.59375 3.3906-1.7812 0.90625-1.1953 1.3594-2.7109 1.3594-4.5469 0-1.0703-0.24219-1.8789-0.71875-2.4219-0.48047-0.55078-1.1875-0.82812-2.125-0.82812-0.77344 0-1.4609 0.18359-2.0625 0.54688-0.59375 0.35547-1.1328 0.89844-1.6094 1.625-0.34375 0.55469-0.60938 1.1836-0.79688 1.8906-0.1875 0.69922-0.28125 1.418-0.28125 2.1562z"/>
</symbol>
</defs>
<g>
<use x="10.980469" y="24.764347" xlink:href="#y"/>
<use x="25.207271" y="24.764347" xlink:href="#j"/>
<use x="35.166033" y="24.764347" xlink:href="#i"/>
<use x="49.392835" y="24.764347" xlink:href="#c"/>
<use x="63.619638" y="24.764347" xlink:href="#g"/>
<use x="76.42376" y="24.764347" xlink:href="#e"/>
<use x="90.650562" y="24.764347" xlink:href="#d"/>
<use x="104.877365" y="24.764347" xlink:href="#a"/>
<use x="110.568086" y="24.764347" xlink:href="#b"/>
</g>
<path transform="matrix(1.4227 0 0 1.4181 0 .13842)" d="m91.234 9.5102h15l0.74958-3.7489 6.0021 5.9994-8.2508 5.2501 0.74958-3.7489h-15.376z" fill="none" stroke="#000" stroke-width=".75"/>
<g>
<use x="167.726562" y="24.764347" xlink:href="#x"/>
<use x="181.953365" y="24.764347" xlink:href="#h"/>
<use x="194.757487" y="24.764347" xlink:href="#e"/>
<use x="208.984289" y="24.764347" xlink:href="#m"/>
<use x="223.211092" y="24.764347" xlink:href="#n"/>
<use x="237.437894" y="24.764347" xlink:href="#a"/>
<use x="243.128615" y="24.764347" xlink:href="#f"/>
<use x="257.355418" y="24.764347" xlink:href="#l"/>
<use x="271.58222" y="24.764347" xlink:href="#c"/>
<use x="285.809022" y="24.764347" xlink:href="#f"/>
</g>
<path transform="matrix(1.4227 0 0 1.4181 0 .13842)" d="m217.41 9.5102h15.002l0.74958-3.7489 5.9994 5.9994-8.2508 5.2501 0.74958-3.7489h-15.373z" fill="none" stroke="#000" stroke-width=".75"/>
<g>
<use x="346.757812" y="24.764347" xlink:href="#w"/>
<use x="359.561935" y="24.764347" xlink:href="#m"/>
<use x="373.788737" y="24.764347" xlink:href="#e"/>
<use x="388.015539" y="24.764347" xlink:href="#a"/>
<use x="393.70626" y="24.764347" xlink:href="#f"/>
<use x="407.933063" y="24.764347" xlink:href="#g"/>
<use x="420.737185" y="24.764347" xlink:href="#d"/>
<use x="434.963987" y="24.764347" xlink:href="#a"/>
<use x="440.654708" y="24.764347" xlink:href="#b"/>
<use x="449.19079" y="24.764347" xlink:href="#k"/>
<use x="460.572232" y="24.764347" xlink:href="#k"/>
<use x="471.953674" y="24.764347" xlink:href="#b"/>
<use x="480.489755" y="24.764347" xlink:href="#v"/>
<use x="494.716557" y="24.764347" xlink:href="#j"/>
<use x="504.675319" y="24.764347" xlink:href="#l"/>
<use x="518.902122" y="24.764347" xlink:href="#c"/>
<use x="533.128924" y="24.764347" xlink:href="#f"/>
</g>
<path transform="matrix(1.4227 0 0 1.4181 0 .13842)" d="m392.49 9.5102h15l0.74958-3.7489 5.9993 5.9994-8.2481 5.2501 0.74958-3.7489h-15.376z" fill="none" stroke="#000" stroke-width=".75"/>
<g>
<use x="595.835938" y="24.764347" xlink:href="#u"/>
<use x="611.48542" y="24.764347" xlink:href="#d"/>
<use x="625.712223" y="24.764347" xlink:href="#d"/>
<use x="639.939025" y="24.764347" xlink:href="#a"/>
<use x="645.629746" y="24.764347" xlink:href="#c"/>
<use x="659.856548" y="24.764347" xlink:href="#b"/>
<use x="668.39263" y="24.764347" xlink:href="#j"/>
<use x="678.351391" y="24.764347" xlink:href="#m"/>
<use x="692.578194" y="24.764347" xlink:href="#h"/>
<use x="705.382316" y="24.764347" xlink:href="#e"/>
<use x="719.609118" y="24.764347" xlink:href="#b"/>
<use x="728.1452" y="24.764347" xlink:href="#a"/>
<use x="733.835921" y="24.764347" xlink:href="#f"/>
<use x="748.062723" y="24.764347" xlink:href="#l"/>
<use x="762.289526" y="24.764347" xlink:href="#c"/>
<use x="776.516328" y="24.764347" xlink:href="#f"/>
</g>
<g>
<use x="68.449219" y="68.447941" xlink:href="#t"/>
<use x="88.366742" y="68.447941" xlink:href="#d"/>
<use x="102.593545" y="68.447941" xlink:href="#n"/>
<use x="116.820347" y="68.447941" xlink:href="#a"/>
<use x="122.511068" y="68.447941" xlink:href="#s"/>
<use x="133.89251" y="68.447941" xlink:href="#a"/>
<use x="139.583231" y="68.447941" xlink:href="#c"/>
<use x="153.810033" y="68.447941" xlink:href="#b"/>
<use x="162.346115" y="68.447941" xlink:href="#d"/>
<use x="176.572917" y="68.447941" xlink:href="#h"/>
<use x="189.377039" y="68.447941" xlink:href="#e"/>
<use x="203.603842" y="68.447941" xlink:href="#c"/>
<use x="217.830644" y="68.447941" xlink:href="#a"/>
<use x="223.521365" y="68.447941" xlink:href="#g"/>
</g>
<g>
<use x="440.496094" y="68.447941" xlink:href="#r"/>
<use x="456.145576" y="68.447941" xlink:href="#d"/>
<use x="470.372379" y="68.447941" xlink:href="#e"/>
<use x="484.599181" y="68.447941" xlink:href="#i"/>
<use x="498.825984" y="68.447941" xlink:href="#q"/>
<use x="513.052786" y="68.447941" xlink:href="#a"/>
<use x="518.743507" y="68.447941" xlink:href="#p"/>
<use x="524.434228" y="68.447941" xlink:href="#a"/>
<use x="530.124949" y="68.447941" xlink:href="#b"/>
<use x="538.66103" y="68.447941" xlink:href="#i"/>
<use x="552.887833" y="68.447941" xlink:href="#b"/>
<use x="561.423914" y="68.447941" xlink:href="#a"/>
<use x="567.114635" y="68.447941" xlink:href="#o"/>
<use x="581.341438" y="68.447941" xlink:href="#c"/>
<use x="595.56824" y="68.447941" xlink:href="#k"/>
<use x="606.949682" y="68.447941" xlink:href="#b"/>
<use x="615.485763" y="68.447941" xlink:href="#d"/>
<use x="629.712566" y="68.447941" xlink:href="#h"/>
<use x="642.516688" y="68.447941" xlink:href="#e"/>
<use x="656.74349" y="68.447941" xlink:href="#c"/>
<use x="670.970293" y="68.447941" xlink:href="#a"/>
<use x="676.661014" y="68.447941" xlink:href="#g"/>
</g>
<path transform="matrix(1.4227 0 0 1.4181 0 .13842)" d="m7.4518 24.294h202.5" fill="none" stroke="#000" stroke-width="2.126"/>
<path transform="matrix(.60492 0 0 .60298 15.078 35.193)" d="m-2.4991-1.0004c0 2.7597-2.2407 5.0012-4.9981 5.0012-2.7638 0-5.0046-2.2415-5.0046-5.0012 0-2.7597 2.2407-5.0012 5.0046-5.0012 2.7573 0 4.9981 2.2415 4.9981 5.0012z" fill-rule="evenodd" stroke="#000" stroke-width="1.25"/>
<path transform="matrix(.60492 0 0 .60298 303.17 35.193)" d="m-2.4975-1.0004c0 2.7597-2.2407 5.0012-5.0046 5.0012-2.7573 0-4.9981-2.2415-4.9981-5.0012 0-2.7597 2.2407-5.0012 4.9981-5.0012 2.7638 0 5.0046 2.2415 5.0046 5.0012z" fill-rule="evenodd" stroke="#000" stroke-width="1.25"/>
<path transform="matrix(1.4227 0 0 1.4181 0 .13842)" d="m243.7 24.294h311.25" fill="none" stroke="#000" stroke-width="2.126"/>
<path transform="matrix(.60492 0 0 .60298 351.19 35.193)" d="m-2.4972-1.0004c0 2.7597-2.2407 5.0012-5.0046 5.0012-2.7573 0-4.9981-2.2415-4.9981-5.0012 0-2.7597 2.2407-5.0012 4.9981-5.0012 2.7638 0 5.0046 2.2415 5.0046 5.0012z" fill-rule="evenodd" stroke="#000" stroke-width="1.25"/>
<path transform="matrix(.60492 0 0 .60298 794 35.193)" d="m-2.4983-1.0004c0 2.7597-2.2407 5.0012-5.0046 5.0012-2.7573 0-4.9981-2.2415-4.9981-5.0012 0-2.7597 2.2407-5.0012 4.9981-5.0012 2.7638 0 5.0046 2.2415 5.0046 5.0012z" fill-rule="evenodd" stroke="#000" stroke-width="1.25"/>
</svg>
