<?xml version="1.0" encoding="UTF-8"?>
<svg width="400px" height="242px" version="1.1" viewBox="0 0 400 242" xmlns="http://www.w3.org/2000/svg">
<g stroke="#333" stroke-linecap="round" stroke-linejoin="round" stroke-miterlimit="10">
<path transform="matrix(2.209 0 0 2.2052 -390.92 -168.24)" d="m233.78 137.01c-0.1786-0.49422-0.2122-1.0593-0.3908-1.2719-0.17683-0.2108-0.45976-1.4472-0.77806-1.8352-0.3183-0.42514-1.5225-2.2249-1.8408-2.5083-0.1061-0.17537-0.035366-0.88216-0.17683-1.3782-0.14146-0.49422-0.1061-0.98845-0.24756-1.5535-0.14146-0.60051-0.14146-1.7307-0.17683-2.5083-0.070732-1.3427-0.070732-6.5702-0.85056-8.478-0.14146-0.60051-0.3183-1.5535-0.28293-2.9317-0.070733-3.743-0.91952-5.8988-0.85056-7.0644 0.24933-1.697-0.1397-3.4968-0.45976-4.9104-0.67019-3.038-2.1573-3.8493-2.8311-3.991-0.70732-0.14171-1.7701-0.248-2.2298-0.70679-0.35543-0.28165-2.7267-1.3782-3.3987-1.4472-1.7701-0.31885-1.4518-3.4985-1.4518-4.1327 0.037134-0.072628 0.037134-0.14348 0.072501-0.17891v-0.033657c0.033597-0.035428 0.033597-0.10628 0.070732-0.17714v-0.035429c0.035366-0.070856 0.035366-0.14171 0.068964-0.21257v-0.033657c0-0.072628 0.037135-0.14171 0.037135-0.21257h0.035366c0-0.10628 0.033598-0.17714 0.033598-0.248 0-0.070856 0.037134-0.17714 0.037134-0.24623 0.035367-0.070856 0.035367-0.14348 0.035367-0.21257 0.033597-0.070857 0.033597-0.14171 0.033597-0.17714v-0.069085c0.072501-0.0372 0.14323-0.070857 0.24933-0.14348 0.035367-0.035428 0.035367-0.035428 0.070733-0.035428v-0.033657c0.035366 0 0.035366-0.035428 0.035366-0.035428 0.035366 0 0.035366-0.035428 0.035366-0.035428s0.035367 0 0.035367-0.035428l0.035366-0.035429c0.1061-0.14171 0.14146-0.31708 0.28293-0.49422 0.1061-0.21257 0.070732-0.35428 0.17683-0.67136 0.1061-0.31708 0.17683-0.81308 0.17683-0.98845 0-0.21257 0.2122-0.74399 0.2122-0.99022 0-0.17537-0.070732-0.31708-0.14146-0.35251 0 0 0.035367 0 0.035367-0.035428 0.035366 0 0.035366-0.035428 0.035366-0.035428 0-0.248-0.1061-0.84851-0.070733-1.0947 0-0.17714 0.035367-0.70679 0.035367-0.91936 0-0.38794-0.2122-0.77765-0.3183-1.1302-0.1061-0.38794-0.1061-0.81131-0.2122-1.1656-0.14146-0.4588-0.46153-0.74045-0.88592-0.99022-0.3183-0.17537-0.70732-0.2108-0.88416-0.49245-0.1061-0.14171 0-0.17714-0.2122-0.28343-0.1061-0.070857-0.3183-0.10451-0.4244-0.14171-0.32006-0.069085-0.74446-0.24623-0.67196-0.63416-0.46153-0.10628-1.2042 0.28165-1.5932-0.10628h-0.2847c-0.2458 0.070857-0.56586 0.033657-0.81342-0.070856-0.1061 0.2108-0.60123 0.42337-0.88592 0.42337-0.35366 0-0.74269 0.070856-0.95489 0.38794 0.14323-0.035428 0.3183-0.10628 0.38903 0-0.91952 0.496-2.0512 1.201-2.1573 2.3329-0.037135 0.49422-0.2847 0.88216-0.32006 1.3764-0.035366 0.49422-0.4244 0.74222-0.24756 1.2364-0.035367 0.31708 0.070732 0.31708 0.070732 0.60051-0.1061 0.31708 0.17683 0.70679 0.17683 0.70679-0.035366 0-0.070732 0.070857-0.1061 0.14171-0.035366 0.033657-0.035366 0.033657-0.035366 0.070856v0.033657c-0.035366 0.035428-0.035366 0.072628-0.035366 0.14171 0 0.248 0.24756 0.77765 0.24756 0.99022 0 0.17537 0.035366 0.67136 0.17683 0.98845 0.1061 0.31708 0.035366 0.4588 0.1786 0.67136 0.1061 0.17714 0.1397 0.35251 0.2458 0.49422 0.037134 0 0.037134 0.035429 0.037134 0.035429l0.1061 0.10628 0.035366 0.033657 0.033598 0.0372h0.037134c0.068965 0.070856 0.17683 0.14171 0.2122 0.14171 0 0.069085 0.035366 0.13994 0.035366 0.2108v0.2108c0 0.037199 0.035366 0.072627 0.035366 0.14348v0.13994c0 0.035429 0.033598 0.070857 0.033598 0.10628v0.10628c0 0.035428 0 0.035428 0.037135 0.069085v0.14348s0.035366 0.035428 0.035366 0.069085v0.10628c0.033598 0.035428 0.033598 0.035428 0.033598 0.070856v0.070857l0.037134 0.035428v0.070856l0.035367 0.035429v0.069085l0.033598 0.037199v0.035428c0.037134 0.033657 0.037134 0.070857 0.037134 0.10628 0.035366 0 0.035366 0.033657 0.068964 0.069085v0.070857c0 0.38971 0.072501 1.2364-0.068964 2.085v0.035428l-0.037134 0.035428c-0.1397 0.88216-0.53049 1.6952-1.3439 1.837-0.70732 0.070856-3.0786 1.1656-3.3987 1.4472-0.45799 0.4588-1.5579 0.56508-2.2298 0.70679-0.70732 0.14171-2.1591 0.95302-2.8682 3.991-0.3183 1.4136-0.67196 3.2151-0.45799 4.9104 0.1061 1.1656-0.74446 3.3214-0.85056 7.0644 0.035366 1.3782-0.1061 2.3312-0.28293 2.9317-0.77982 1.9078-0.77982 7.1352-0.81342 8.478-0.035366 0.77765-0.035366 1.9078-0.1786 2.5083-0.1397 0.56508-0.033598 1.0593-0.2122 1.5535-0.14146 0.496-0.070732 1.2028-0.17683 1.3782-0.28293 0.28343-1.5225 2.085-1.8408 2.5083-0.28293 0.38971-0.63659 1.6244-0.81342 1.8352-0.17683 0.21257-0.2122 0.77765-0.4244 1.2719-0.1786 0.46057-0.3183 0.88394 0.28293 0.84851 0.49513-0.035428 1.0274-0.88216 1.0981-1.4472 0.17506-0.070856 0.45976-0.42514 0.77806-0.77765-0.070732 0.28343 0.14146 0.60051 0.38903 1.5553 0 0.31708 0.28293 1.1302 0.24756 1.4827-0.035366 0.38794 0.2122 1.3782 0.3183 1.8724 0.10787 0.49422 0.56586 0.52965 0.88592 0.38794 0 0-0.035366 0.42337 0.4244 0.49422 0.4244 0.070856 0.49513-0.70502 0.49513-0.70502s0 0.28166 0.32006 0.31708c0.49336 0 0.56586-0.95479 0.56586-0.95479l0.033598 0.035428v0.0372-0.0372 0.0372c0 0.033657 0.037135 0.033657 0.037135 0.069085h0.035366c0 0.0372 0.033598 0.0372 0.033598 0.0372h0.14323c0.24756 0 0.45976-1.0256 0.56586-1.449 0.1061-0.42514 0.28293-0.77765 0.3183-1.1319 0.035366-0.31708 0.070732-0.52788 0.35366-2.0478 0.2847-1.5199-0.60123-3.1443-0.49513-3.6367 0.14146-0.53142-0.3183-1.3091-0.24756-1.4508 0.070733-0.13994 0.2122-0.70502 0.3183-1.2701 0.070733-0.56685 2.1237-5.5817 2.3359-6.7119 0.3908-2.1204 0.3908-3.0734 0.14146-4.5561 0.037134-1.0965 0.4969-4.0636 0.56763-4.5933 0.035366-0.10628 0.035366-0.63594 0.1061-0.98845 0.035367-0.21257 0.068964-0.60051 0.068964-1.0593l0.037135 0.070856c0 0.49422 0.14146 1.341 0.2122 2.6837-0.035366 1.0947 0.49513 3.1088 0.56586 4.1681-0.14146 0.31708 0.38903 5.8634 0.38903 5.8634l-0.035367 0.035428v0.035428c-0.070732 0.21257-0.24756 0.77765-0.38903 1.5181l-0.035366 0.037199c0 0.035429 0 0.10451-0.035367 0.13994v0.070856c0 0.035429-0.033598 0.10628-0.033598 0.14171v0.069085c-0.037134 0.0372-0.037134 0.10806-0.037134 0.14348 0 0.035428-0.035366 0.069085-0.035366 0.069085 0 0.072628 0 0.10628-0.033598 0.14171v0.10628c0 0.035429-0.037135 0.070857-0.037135 0.14171v0.070857c-0.035366 0.070856-0.035366 0.10451-0.035366 0.13994 0 0.0372-0.035366 0.072628-0.035366 0.10628 0 0.037199 0 0.070856-0.035366 0.14171v0.10628c0 0.035429-0.035367 0.070857-0.035367 0.10451v0.10628c-0.035366 0.072628-0.035366 0.10628-0.035366 0.14171 0 0.035429-0.035366 0.070857-0.035366 0.10628v0.10628c-0.035366 0.035428-0.035366 0.070856-0.035366 0.14171v0.10628c-0.035367 0.035428-0.035367 0.069085-0.035367 0.10451 0 0.0372 0 0.070857-0.035366 0.10628v0.10628c0 0.035428 0 0.070856-0.035366 0.10628v0.10451c0 0.035428 0 0.072628-0.035366 0.10628v0.17714c-0.035367 0.070856-0.035367 0.10628-0.035367 0.14171v0.070856c0 0.035428 0 0.070856-0.035366 0.10451v0.248c-0.035366 0.035428-0.035366 0.070856-0.035366 0.070856v0.35251c-0.1061 0.63771 0.14146 1.5199 0.070732 2.9335-0.1061 1.7643-1.664 8.8305 1.2396 17.732 0.17683 0.52965 0.17683 2.2957 0.38903 3.286 0.035366 0.24623 0.53049 1.341 0.56586 2.8963 0.035366 2.4729-0.2122 5.6508-0.14146 7.4187 0.1061 2.8963 1.3103 5.5445 1.7701 7.4151 0.49513 1.837 0.67196 3.3214 0.56586 3.6739-0.070732 0.31886-0.14146 0.95479 0.1061 1.4844 0.037135 0.035428-0.81342 1.8724-1.2732 2.1895-0.4244 0.35428-0.56763 0.63771-0.88592 0.81308-0.35366 0.17714-0.53226 0.35251-0.67196 0.74222-0.1061 0.28165-0.42439 0.70679-0.1786 0.91936 0.037135 0.033657 0.072501 0.033657 0.1061 0.069085h0.037134c-0.037134 0.10628-0.037134 0.17714 0 0.248 0.14146 0.248 0.38903 0.31708 0.70732 0.28165l0.037134-0.070856c0.033598 0.10628 0.033598 0.21257 0.1061 0.28343 0.2122 0.31885 0.91952 0.4588 1.2025 0.17537 0.035366 0.0372 0.070732 0.0372 0.14146 0.070857 0.035366 0 0.070732 0 0.1061 0.035428h0.070733c0.070732 0.0372 0.1061 0.0372 0.17683 0.0372 0.3183 0.035428 0.67373-0.0372 0.84879-0.21257v-0.035428c0 0.035428 0.037135 0.035428 0.037135 0.070857v-0.035429c0.17506 0.42337 0.74269 0.4588 1.2025 0.38794h0.1061l0.035367-0.035428h0.14323c0.068964-0.033657 0.1061-0.033657 0.17506-0.033657 0-0.037199 0.037134-0.037199 0.037134-0.037199 0.033598 0 0.068964-0.033657 0.1061-0.033657l0.033598-0.035428c0.035366 0 0.072501-0.0372 0.1061-0.0372 0 0 0-0.035428 0.035367-0.035428 0.035366 0 0.035366-0.033657 0.070732-0.033657 0-0.035428 0.035366-0.035428 0.035366-0.035428l0.072501-0.070857h0.033598c0.072501-0.070856 0.1061-0.14171 0.1786-0.17714 0.035366-0.035428 0.070732-0.069085 0.1061-0.10628 0.28293-0.2108 0.49513-0.38794 0.4244-0.91759-0.1061-0.52965-0.035366-0.52965 0.035366-1.1656 0.035366-0.38794 0.35366-0.49422 0.4244-1.0947 0.035366-0.496-0.35366-2.6146-0.3183-2.8963 0.1061-0.63594-0.35366-1.1674-0.49513-2.2621-0.17683-1.0593 0.24756-4.7314 0.24756-5.4028 0-1.2719 0.67196-3.3568 0.49513-5.936-0.1061-1.4827-0.84879-6.0405-0.84879-7.0644 0-0.17714-0.035366-1.341 0.035366-1.5199 0.2122-0.70502 1.1689-9.0413 1.1689-9.1121 0.1061-0.84851 0.38726-5.5445 0.49336-7.0998h0.14323c0.1061 1.5181 0.38726 6.2513 0.49336 7.0998 0 0.070857 0.95666 8.4071 1.1689 9.1121 0.070732 0.17891 0.037134 1.3427 0.037134 1.5199 0 1.0239-0.74446 5.5817-0.85056 7.0644-0.17683 2.5792 0.49513 4.6641 0.49513 5.936 0 0.67136 0.4244 4.3435 0.24933 5.4028-0.14323 1.0947-0.60299 1.6262-0.4969 2.2621 0.035366 0.28165-0.35366 2.4003-0.3183 2.8963 0.070733 0.60051 0.38903 0.70679 0.4244 1.0947 0.072501 0.63594 0.14146 0.63594 0.035366 1.1656-0.070732 0.52965 0.14146 0.70679 0.4244 0.91759 0.035366 0.037199 0.070732 0.070856 0.1061 0.10628 0.070732 0.035428 0.1061 0.10628 0.1786 0.17714h0.033598l0.072501 0.070857s0.033598 0 0.033598 0.035428c0.037134 0 0.037134 0.033657 0.0725 0.033657 0.033598 0 0.033598 0.035428 0.033598 0.035428 0.037135 0 0.072501 0.0372 0.10787 0.0372l0.035366 0.035428c0.035367 0 0.070733 0.033657 0.1061 0.033657 0 0 0.035366 0 0.035366 0.037199 0.070733 0 0.1061 0 0.17683 0.033657h0.14146l0.035367 0.035428h0.2122c0.4244 0.035429 0.92129 0 1.0964-0.35251 0-0.035429 0-0.035429 0.037135-0.070857 0.17506 0.2108 0.53049 0.28343 0.84879 0.248 0.070733 0 0.1061 0 0.17683-0.0372h0.070733c0.035366-0.035428 0.0725-0.035428 0.1061-0.035428 0.072501-0.033657 0.1061-0.033657 0.14146-0.069085 0.28293 0.28165 0.99202 0.14171 1.2042-0.17714 0.070733-0.070857 0.070733-0.17714 0.1061-0.24623l0.035366 0.033656c0.3183 0.035429 0.67196-0.070856 0.70732-0.28165 0.037134-0.070857 0.037134-0.14171 0.037134-0.248 0.033598-0.035428 0.068964-0.035428 0.1061-0.069085 0.2458-0.21257-0.072501-0.63771-0.1786-0.91936-0.14146-0.38794-0.3183-0.56508-0.67196-0.74222-0.3183-0.17537-0.45976-0.4588-0.88416-0.81308-0.46153-0.31708-1.3103-2.154-1.275-2.1895 0.24756-0.52965 0.17683-1.1656 0.1061-1.4844-0.1061-0.35251 0.070732-1.837 0.56586-3.6739 0.45976-1.8706 1.664-4.5189 1.7701-7.4151 0.070733-1.7679-0.17683-4.9458-0.14146-7.4187 0.035366-1.5535 0.53049-2.65 0.56586-2.8963 0.2122-0.99022 0.2122-2.7563 0.38903-3.286 2.9036-8.9013 1.3457-15.968 1.2396-17.732h0.035366c-0.070733-1.4136 0.1786-2.2957 0.070732-2.9335v-0.17537c0-0.035428-0.035366-0.070856-0.035366-0.10628v-0.21257c0-0.033656 0-0.070856-0.035366-0.10451v-0.17714c0-0.035428 0-0.035428-0.035366-0.070856v-0.21257c-0.035367-0.033657-0.035367-0.070856-0.035367-0.10628v-0.069085c0-0.070856-0.035366-0.10628-0.035366-0.14171v-0.10628c0-0.035428-0.035366-0.070857-0.035366-0.10628v-0.10628c-0.035366-0.035428-0.035366-0.069085-0.035366-0.14171v-0.069085c-0.035367-0.0372-0.035367-0.10628-0.035367-0.14171 0-0.035429-0.035366-0.070857-0.035366-0.070857v-0.17714c-0.035366-0.033657-0.035366-0.033657-0.035366-0.069085 0-0.070856 0-0.10628-0.035366-0.14348v-0.10451c0-0.035428-0.035366-0.10628-0.035366-0.14171 0-0.035429 0-0.069086-0.035367-0.10628v-0.10628c-0.035366-0.035428-0.035366-0.069085-0.035366-0.10628 0-0.033656 0-0.10451-0.035366-0.13994v-0.10628c-0.035366-0.035428-0.035366-0.070856-0.035366-0.10628 0-0.035429-0.035367-0.070857-0.035367-0.10628v-0.13994c-0.035366-0.035428-0.035366-0.072627-0.035366-0.10806 0-0.033656-0.035366-0.070856-0.035366-0.10451 0-0.035428 0-0.070856-0.035366-0.10628v-0.070856c0-0.070857-0.035367-0.10451-0.035367-0.14171v-0.069085c-0.035366-0.0372-0.035366-0.10628-0.035366-0.14171l-0.035366-0.035428c0-0.070857 0-0.10628-0.035366-0.14171v-0.035428c-0.1061-0.496-0.2122-0.88216-0.2847-1.0593 0-0.035429 0-0.070857-0.033598-0.070857 0-0.035428 0.033598-0.035428 0.033598-0.035428l-0.033598-0.035428s0.4969-5.5463 0.38903-5.8634c0.035366-1.0593 0.60123-3.0734 0.53226-4.1681 0.068964-1.3427 0.2458-2.1895 0.2458-2.6855v-0.069085c0.035366 0.4588 0.072501 0.84673 0.072501 1.0593 0.068964 0.35251 0.068964 0.88216 0.14146 0.98845 0.070732 0.52965 0.49513 3.4968 0.53049 4.5933-0.2122 1.4827-0.24756 2.4357 0.17683 4.5543 0.17683 1.1319 2.2298 6.1468 2.3359 6.7136 0.1061 0.56508 0.24933 1.1302 0.3183 1.2701 0.070732 0.14171-0.4244 0.91936-0.28293 1.449 0.14146 0.49422-0.77806 2.1186-0.49513 3.6385 0.28293 1.5181 0.3183 1.7307 0.35366 2.0478 0.035366 0.35428 0.24933 0.70679 0.35543 1.1319 0.1061 0.42337 0.28116 1.4472 0.53049 1.4472h0.17506v-0.035428h0.037135c0.035366-0.035428 0.035366-0.035428 0.068964-0.069085v-0.0372 0.0372-0.072628s0.0725 0.95479 0.56763 0.95479c0.3183-0.035428 0.3183-0.31885 0.3183-0.31885s0.070732 0.77765 0.53226 0.70679c0.4244-0.070857 0.4244-0.49422 0.4244-0.49422 0.28293 0.14171 0.74269 0.10628 0.84879-0.38794 0.1061-0.49422 0.35366-1.4844 0.3183-1.8724 0-0.35251 0.24933-1.1656 0.24933-1.4827 0.2458-0.95479 0.49336-1.2719 0.42439-1.5553 0.3183 0.35251 0.59946 0.70502 0.74269 0.77765 0.070733 0.56508 0.63836 1.4118 1.0964 1.4472 0.60299 0.035429 0.45976-0.38794 0.2847-0.84851z" fill="none" stroke-width=".53358"/>
<path transform="matrix(2.209 0 0 2.2052 -390.92 -168.24)" d="m233.78 137.01c-0.1786-0.49422-0.2122-1.0593-0.3908-1.2719-0.17683-0.2108-0.45976-1.4472-0.77806-1.8352-0.3183-0.42514-1.5225-2.2249-1.8408-2.5083-0.1061-0.17537-0.035366-0.88216-0.17683-1.3782-0.14146-0.49422-0.1061-0.98845-0.24756-1.5535-0.14146-0.60051-0.14146-1.7307-0.17683-2.5083-0.070732-1.3427-0.070732-6.5702-0.85056-8.478-0.14146-0.60051-0.3183-1.5535-0.28293-2.9317-0.070733-3.743-0.91952-5.8988-0.85056-7.0644 0.24933-1.697-0.1397-3.4968-0.45976-4.9104-0.67019-3.038-2.1573-3.8493-2.8311-3.991-0.70732-0.14171-1.7701-0.248-2.2298-0.70679-0.35543-0.28165-2.7267-1.3782-3.3987-1.4472-1.7701-0.31885-1.4518-3.4985-1.4518-4.1327 0.037134-0.072628 0.037134-0.14348 0.072501-0.17891v-0.033657c0.033597-0.035428 0.033597-0.10628 0.070732-0.17714v-0.035429c0.035366-0.070856 0.035366-0.14171 0.068964-0.21257v-0.033657c0-0.072628 0.037135-0.14171 0.037135-0.21257h0.035366c0-0.10628 0.033598-0.17714 0.033598-0.248 0-0.070856 0.037134-0.17714 0.037134-0.24623 0.035367-0.070856 0.035367-0.14348 0.035367-0.21257 0.033597-0.070857 0.033597-0.14171 0.033597-0.17714v-0.069085c0.072501-0.0372 0.14323-0.070857 0.24933-0.14348 0.035367-0.035428 0.035367-0.035428 0.070733-0.035428v-0.033657c0.035366 0 0.035366-0.035428 0.035366-0.035428 0.035366 0 0.035366-0.035428 0.035366-0.035428s0.035367 0 0.035367-0.035428l0.035366-0.035429c0.1061-0.14171 0.14146-0.31708 0.28293-0.49422 0.1061-0.21257 0.070732-0.35428 0.17683-0.67136 0.1061-0.31708 0.17683-0.81308 0.17683-0.98845 0-0.21257 0.2122-0.74399 0.2122-0.99022 0-0.17537-0.070732-0.31708-0.14146-0.35251 0 0 0.035367 0 0.035367-0.035428 0.035366 0 0.035366-0.035428 0.035366-0.035428 0-0.248-0.1061-0.84851-0.070733-1.0947 0-0.17714 0.035367-0.70679 0.035367-0.91936 0-0.38794-0.2122-0.77765-0.3183-1.1302-0.1061-0.38794-0.1061-0.81131-0.2122-1.1656-0.14146-0.4588-0.46153-0.74045-0.88592-0.99022-0.3183-0.17537-0.70732-0.2108-0.88416-0.49245-0.1061-0.14171 0-0.17714-0.2122-0.28343-0.1061-0.070857-0.3183-0.10451-0.4244-0.14171-0.32006-0.069085-0.74446-0.24623-0.67196-0.63416-0.46153-0.10628-1.2042 0.28165-1.5932-0.10628h-0.2847c-0.2458 0.070857-0.56586 0.033657-0.81342-0.070856-0.1061 0.2108-0.60123 0.42337-0.88592 0.42337-0.35366 0-0.74269 0.070856-0.95489 0.38794 0.14323-0.035428 0.3183-0.10628 0.38903 0-0.91952 0.496-2.0512 1.201-2.1573 2.3329-0.037135 0.49422-0.2847 0.88216-0.32006 1.3764-0.035366 0.49422-0.4244 0.74222-0.24756 1.2364-0.035367 0.31708 0.070732 0.31708 0.070732 0.60051-0.1061 0.31708 0.17683 0.70679 0.17683 0.70679-0.035366 0-0.070732 0.070857-0.1061 0.14171-0.035366 0.033657-0.035366 0.033657-0.035366 0.070856v0.033657c-0.035366 0.035428-0.035366 0.072628-0.035366 0.14171 0 0.248 0.24756 0.77765 0.24756 0.99022 0 0.17537 0.035366 0.67136 0.17683 0.98845 0.1061 0.31708 0.035366 0.4588 0.1786 0.67136 0.1061 0.17714 0.1397 0.35251 0.2458 0.49422 0.037134 0 0.037134 0.035429 0.037134 0.035429l0.1061 0.10628 0.035366 0.033657 0.033598 0.0372h0.037134c0.068965 0.070856 0.17683 0.14171 0.2122 0.14171 0 0.069085 0.035366 0.13994 0.035366 0.2108v0.2108c0 0.037199 0.035366 0.072627 0.035366 0.14348v0.13994c0 0.035429 0.033598 0.070857 0.033598 0.10628v0.10628c0 0.035428 0 0.035428 0.037135 0.069085v0.14348s0.035366 0.035428 0.035366 0.069085v0.10628c0.033598 0.035428 0.033598 0.035428 0.033598 0.070856v0.070857l0.037134 0.035428v0.070856l0.035367 0.035429v0.069085l0.033598 0.037199v0.035428c0.037134 0.033657 0.037134 0.070857 0.037134 0.10628 0.035366 0 0.035366 0.033657 0.068964 0.069085v0.070857c0 0.38971 0.072501 1.2364-0.068964 2.085v0.035428c0 0.035428-0.037134 0.035428-0.037134 0.035428-0.1397 0.88216-0.53049 1.6952-1.3439 1.837-0.70732 0.070856-3.0786 1.1656-3.3987 1.4472-0.45799 0.4588-1.5579 0.56508-2.2298 0.70679-0.70732 0.14171-2.1591 0.95302-2.8682 3.991-0.3183 1.4136-0.67196 3.2151-0.45799 4.9104 0.1061 1.1656-0.74446 3.3214-0.85056 7.0644 0.035366 1.3782-0.1061 2.3312-0.28293 2.9317-0.77982 1.9078-0.77982 7.1352-0.81342 8.478-0.035366 0.77765-0.035366 1.9078-0.1786 2.5083-0.1397 0.56508-0.033598 1.0593-0.2122 1.5535-0.14146 0.496-0.070732 1.2028-0.17683 1.3782-0.28293 0.28343-1.5225 2.085-1.8408 2.5083-0.28293 0.38971-0.63659 1.6244-0.81342 1.8352-0.17683 0.21257-0.2122 0.77765-0.4244 1.2719-0.1786 0.46057-0.3183 0.88394 0.28293 0.84851 0.49513-0.035428 1.0274-0.88216 1.1335-1.4472 0.1397-0.070856 0.42439-0.42514 0.74269-0.77765-0.070732 0.28343 0.14146 0.60051 0.38903 1.5553 0 0.31708 0.28293 1.1302 0.24756 1.4827-0.035366 0.38794 0.2122 1.3782 0.3183 1.8724 0.10787 0.49422 0.56586 0.52965 0.88592 0.38794 0 0-0.035366 0.42337 0.4244 0.49422 0.4244 0.070856 0.49513-0.70502 0.49513-0.70502s0 0.28166 0.32006 0.31708c0.49336 0 0.56586-0.95479 0.56586-0.95479l0.033598 0.035428v0.0372-0.0372 0.0372c0 0.033657 0.037135 0.033657 0.037135 0.069085h0.035366c0 0.0372 0.033598 0.0372 0.033598 0.0372h0.14323c0.24756 0 0.45976-1.0256 0.56586-1.449 0.1061-0.42514 0.28293-0.77765 0.3183-1.1319 0.035366-0.31708 0.070732-0.52788 0.35366-2.0478 0.2847-1.5199-0.60123-3.1443-0.49513-3.6367 0.14146-0.53142-0.3183-1.3091-0.24756-1.4508 0.070733-0.13994 0.2122-0.70502 0.3183-1.2701 0.070733-0.56685 2.1237-5.5817 2.3359-6.7119 0.3908-2.1204 0.3908-3.0734 0.14146-4.5561 0.037134-1.0965 0.4969-4.0636 0.56763-4.5933 0.035366-0.10628 0.035366-0.63594 0.1061-0.98845 0.035367-0.21257 0.068964-0.60051 0.068964-1.0593l0.037135 0.070856c0 0.49422 0.14146 1.341 0.2122 2.6837-0.035366 1.0947 0.49513 3.1088 0.56586 4.1681-0.14146 0.31708 0.38903 5.8634 0.38903 5.8634l-0.035367 0.035428v0.035428c-0.070732 0.21257-0.24756 0.77765-0.38903 1.5181l-0.035366 0.037199c0 0.035429 0 0.10451-0.035367 0.13994v0.070856c0 0.035429-0.033598 0.10628-0.033598 0.14171v0.069085c-0.037134 0.0372-0.037134 0.10806-0.037134 0.14348 0 0.035428-0.035366 0.069085-0.035366 0.069085 0 0.072628 0 0.10628-0.033598 0.14171v0.10628c0 0.035429-0.037135 0.070857-0.037135 0.14171v0.070857c-0.035366 0.070856-0.035366 0.10451-0.035366 0.13994 0 0.0372-0.035366 0.072628-0.035366 0.10628 0 0.037199 0 0.070856-0.035366 0.14171v0.10628c0 0.035429-0.035367 0.070857-0.035367 0.10451v0.10628c-0.035366 0.072628-0.035366 0.10628-0.035366 0.14171 0 0.035429-0.035366 0.070857-0.035366 0.10628v0.10628c-0.035366 0.035428-0.035366 0.070856-0.035366 0.14171v0.10628c-0.035367 0.035428-0.035367 0.069085-0.035367 0.10451 0 0.0372 0 0.070857-0.035366 0.10628v0.10628c0 0.035428 0 0.070856-0.035366 0.10628v0.10451c0 0.035428 0 0.072628-0.035366 0.10628v0.17714c-0.035367 0.070856-0.035367 0.10628-0.035367 0.14171v0.070856c0 0.035428 0 0.070856-0.035366 0.10451v0.248c-0.035366 0.035428-0.035366 0.070856-0.035366 0.070856v0.35251c-0.1061 0.63771 0.14146 1.5199 0.070732 2.9335-0.1061 1.7643-1.664 8.8305 1.2396 17.732 0.17683 0.52965 0.17683 2.2957 0.38903 3.286 0.035366 0.24623 0.53049 1.341 0.56586 2.8963 0.035366 2.4729-0.2122 5.6508-0.14146 7.4187 0.1061 2.8963 1.3103 5.5445 1.7701 7.4151 0.49513 1.837 0.67196 3.3214 0.56586 3.6739-0.070732 0.31886-0.14146 0.95479 0.1061 1.4844 0.037135 0.035428-0.81342 1.8724-1.2732 2.1895-0.4244 0.35428-0.56763 0.63771-0.88592 0.81308-0.35366 0.17714-0.53226 0.35251-0.67196 0.74222-0.1061 0.28165-0.42439 0.70679-0.1786 0.91936 0.037135 0.033657 0.072501 0.033657 0.1061 0.069085h0.037134c-0.037134 0.10628-0.037134 0.17714 0 0.248 0.14146 0.248 0.38903 0.31708 0.70732 0.28165l0.037134-0.070856c0.033598 0.10628 0.033598 0.21257 0.1061 0.28343 0.2122 0.31885 0.91952 0.4588 1.2025 0.17537 0.035366 0.0372 0.070732 0.0372 0.14146 0.070857 0.035366 0 0.070732 0 0.1061 0.035428h0.070733c0.070732 0.0372 0.1061 0.0372 0.17683 0.0372 0.3183 0.035428 0.67373-0.0372 0.84879-0.21257v-0.035428c0 0.035428 0.037135 0.035428 0.037135 0.070857v-0.035429c0.17506 0.42337 0.74269 0.4588 1.2025 0.38794h0.1061l0.035367-0.035428h0.14323c0.068964-0.033657 0.1061-0.033657 0.17506-0.033657 0-0.037199 0.037134-0.037199 0.037134-0.037199 0.033598 0 0.068964-0.033657 0.1061-0.033657l0.033598-0.035428c0.035366 0 0.072501-0.0372 0.1061-0.0372 0 0 0-0.035428 0.035367-0.035428 0.035366 0 0.035366-0.033657 0.070732-0.033657 0-0.035428 0.035366-0.035428 0.035366-0.035428l0.072501-0.070857h0.033598c0.072501-0.070856 0.1061-0.14171 0.1786-0.17714 0.035366-0.035428 0.070732-0.069085 0.1061-0.10628 0.28293-0.2108 0.49513-0.38794 0.4244-0.91759-0.1061-0.52965-0.035366-0.52965 0.035366-1.1656 0.035366-0.38794 0.35366-0.49422 0.4244-1.0947 0.035366-0.496-0.35366-2.6146-0.3183-2.8963 0.1061-0.63594-0.35366-1.1674-0.49513-2.2621-0.17683-1.0593 0.24756-4.7314 0.24756-5.4028 0-1.2719 0.67196-3.3568 0.49513-5.936-0.1061-1.4827-0.84879-6.0405-0.84879-7.0644 0-0.17714-0.035366-1.341 0.035366-1.5199 0.2122-0.70502 1.1689-9.0413 1.1689-9.1121 0.1061-0.84851 0.38726-5.5445 0.49336-7.0998h0.14323c0.1061 1.5181 0.38726 6.2513 0.49336 7.0998 0 0.070857 0.95666 8.4071 1.1689 9.1121 0.070732 0.17891 0.037134 1.3427 0.037134 1.5199 0 1.0239-0.74446 5.5817-0.85056 7.0644-0.17683 2.5792 0.49513 4.6641 0.49513 5.936 0 0.67136 0.4244 4.3435 0.24933 5.4028-0.14323 1.0947-0.60299 1.6262-0.4969 2.2621 0.035366 0.28165-0.35366 2.4003-0.3183 2.8963 0.070733 0.60051 0.38903 0.70679 0.4244 1.0947 0.072501 0.63594 0.14146 0.63594 0.035366 1.1656-0.070732 0.52965 0.14146 0.70679 0.4244 0.91759 0.035366 0.037199 0.070732 0.070856 0.1061 0.10628 0.070732 0.035428 0.1061 0.10628 0.1786 0.17714h0.033598l0.072501 0.070857s0.033598 0 0.033598 0.035428c0.037134 0 0.037134 0.033657 0.0725 0.033657 0.033598 0 0.033598 0.035428 0.033598 0.035428 0.037135 0 0.072501 0.0372 0.10787 0.0372l0.035366 0.035428c0.035367 0 0.070733 0.033657 0.1061 0.033657 0 0 0.035366 0 0.035366 0.037199 0.070733 0 0.1061 0 0.17683 0.033657h0.14146l0.035367 0.035428h0.2122c0.4244 0.035429 0.92129 0 1.0964-0.35251 0-0.035429 0-0.035429 0.037135-0.070857 0.17506 0.2108 0.53049 0.28343 0.84879 0.248 0.070733 0 0.1061 0 0.17683-0.0372h0.070733c0.035366-0.035428 0.0725-0.035428 0.1061-0.035428 0.072501-0.033657 0.1061-0.033657 0.14146-0.069085 0.28293 0.28165 0.99202 0.14171 1.2042-0.17714 0.070733-0.070857 0.070733-0.17714 0.1061-0.24623l0.035366 0.033656c0.3183 0.035429 0.67196-0.070856 0.70732-0.28165 0.037134-0.070857 0.037134-0.14171 0.037134-0.248 0.033598-0.035428 0.068964-0.035428 0.1061-0.069085 0.2458-0.21257-0.072501-0.63771-0.1786-0.91936-0.14146-0.38794-0.3183-0.56508-0.67196-0.74222-0.3183-0.17537-0.45976-0.4588-0.88416-0.81308-0.46153-0.31708-1.3103-2.154-1.275-2.1895 0.24756-0.52965 0.17683-1.1656 0.1061-1.4844-0.1061-0.35251 0.070732-1.837 0.56586-3.6739 0.45976-1.8706 1.664-4.5189 1.7701-7.4151 0.070733-1.7679-0.17683-4.9458-0.14146-7.4187 0.035366-1.5535 0.53049-2.65 0.56586-2.8963 0.2122-0.99022 0.2122-2.7563 0.38903-3.286 2.9036-8.9013 1.3457-15.968 1.2396-17.732h0.035366c-0.070733-1.4136 0.1786-2.2957 0.070732-2.9335v-0.17537c0-0.035428-0.035366-0.070856-0.035366-0.10628v-0.21257c0-0.033656 0-0.070856-0.035366-0.10451v-0.17714c0-0.035428 0-0.035428-0.035366-0.070856v-0.21257c-0.035367-0.033657-0.035367-0.070856-0.035367-0.10628v-0.069085c0-0.070856-0.035366-0.10628-0.035366-0.14171v-0.10628c0-0.035428-0.035366-0.070857-0.035366-0.10628v-0.10628c-0.035366-0.035428-0.035366-0.069085-0.035366-0.14171v-0.069085c-0.035367-0.0372-0.035367-0.10628-0.035367-0.14171 0-0.035429-0.035366-0.070857-0.035366-0.070857v-0.17714c-0.035366-0.033657-0.035366-0.033657-0.035366-0.069085 0-0.070856 0-0.10628-0.035366-0.14348v-0.10451c0-0.035428-0.035366-0.10628-0.035366-0.14171 0-0.035429 0-0.069086-0.035367-0.10628v-0.10628c-0.035366-0.035428-0.035366-0.069085-0.035366-0.10628 0-0.033656 0-0.10451-0.035366-0.13994v-0.10628c-0.035366-0.035428-0.035366-0.070856-0.035366-0.10628 0-0.035429-0.035367-0.070857-0.035367-0.10628v-0.13994c-0.035366-0.035428-0.035366-0.072627-0.035366-0.10806 0-0.033656-0.035366-0.070856-0.035366-0.10451 0-0.035428 0-0.070856-0.035366-0.10628v-0.070856c0-0.070857-0.035367-0.10451-0.035367-0.14171v-0.069085c-0.035366-0.0372-0.035366-0.10628-0.035366-0.14171l-0.035366-0.035428c0-0.070857 0-0.10628-0.035366-0.14171v-0.035428c-0.1061-0.496-0.2122-0.88216-0.2847-1.0593 0-0.035429 0-0.070857-0.033598-0.070857 0-0.035428 0.033598-0.035428 0.033598-0.035428l-0.033598-0.035428s0.4969-5.5463 0.38903-5.8634c0.035366-1.0593 0.60123-3.0734 0.53226-4.1681 0.068964-1.3427 0.2458-2.1895 0.2458-2.6855v-0.069085c0.035366 0.4588 0.072501 0.84673 0.072501 1.0593 0.068964 0.35251 0.068964 0.88216 0.14146 0.98845 0.070732 0.52965 0.49513 3.4968 0.53049 4.5933-0.2122 1.4827-0.24756 2.4357 0.17683 4.5543 0.17683 1.1319 2.2298 6.1468 2.3359 6.7136 0.1061 0.56508 0.24933 1.1302 0.3183 1.2701 0.070732 0.14171-0.4244 0.91936-0.28293 1.449 0.14146 0.49422-0.77806 2.1186-0.49513 3.6385 0.28293 1.5181 0.3183 1.7307 0.35366 2.0478 0.035366 0.35428 0.24933 0.70679 0.35543 1.1319 0.1061 0.42337 0.28116 1.4472 0.53049 1.4472h0.17506v-0.035428h0.037135c0.035366-0.035428 0.035366-0.035428 0.068964-0.069085v-0.0372 0.0372-0.072628s0.0725 0.95479 0.56763 0.95479c0.3183-0.035428 0.3183-0.31885 0.3183-0.31885s0.070732 0.77765 0.53226 0.70679c0.4244-0.070857 0.4244-0.49422 0.4244-0.49422 0.28293 0.14171 0.74269 0.10628 0.84879-0.38794 0.1061-0.49422 0.35366-1.4844 0.3183-1.8724 0-0.35251 0.24933-1.1656 0.24933-1.4827 0.2458-0.95479 0.49336-1.2719 0.42439-1.5553 0.3183 0.35251 0.59946 0.70502 0.74269 0.77765 0.070733 0.56508 0.63836 1.4118 1.0964 1.4472 0.60299 0.035429 0.45976-0.38794 0.2847-0.84851z" fill="none" stroke-width=".53358"/>
<path transform="matrix(2.209 0 0 2.2052 -165.27 -167.03)" d="m232.76 134.23c-0.10433-0.24268-0.31299-1.8334-0.55525-2.7687-0.17153-0.75994-0.38196-4.0122-0.27586-5.5002 0.10433-1.2116 0.033597-3.0451 0.068964-3.8404 0.035366-4.4622-0.69318-6.7455-0.86824-7.5763-0.1733-0.83079-0.38019-2.007-0.38019-3.8068 0-1.798 0.068964-4.2549-0.068964-5.9838-0.068964-1.0044-0.24403-2.526-0.45092-3.8422-0.20866-1.3144-0.86647-3.0787-1.4217-3.6668-0.55525-0.62176-1.3174-1.1071-2.1149-1.3835-0.20866-0.069085-0.51988-0.31177-0.72854-0.3472-0.31122-0.069085-0.48452-0.20726-0.76214-0.24268-0.59062-0.10274-1.1105-0.17183-1.5968-0.34542-1.038-0.31177-1.8709-0.62177-2.0778-3.0096v-0.10274c1.2467 1.348 2.4261-0.38085 2.4261-0.38085-0.24226 0.17183-0.72854-0.035429-0.72854-0.035429 0.69318 0.20726 0.9708-0.62354 0.9708-0.62354-0.31122 0.20903-0.41555 0.035428-0.41555 0.035428 0.51988-0.20726 0.48452-0.86445 0.48452-0.86445-0.24226 0.86445-1.42 1.0026-1.1087 0.033657 0.51988-1.6598 1.0398-5.0857-0.48629-8.2335-1.5597-3.1478-5.5472-1.7998-5.5472-1.7998-0.76391-0.48537-2.3925 0.76171-3.1193 1.7643-0.73031 1.0398-1.5968 4.6376 0.10256 7.2663 0.83288 1.3144-0.068964 2.007-0.38196 1.8688-0.27762-0.10451-0.24226-0.38085-0.24226-0.44994-0.17329 0.72628 0.38196 1.038 0.38196 1.038-0.34836-0.13817-0.52165-0.44994-0.52165-0.44994 0.035366 0.72628 0.79751 0.93353 0.79751 0.93353-0.48452-0.033657-0.69318-0.31177-0.69318-0.31177 0.17506 0.55445 1.4235 1.1071 2.0813 0.1736-0.20689 2.7333-1.1441 2.8732-2.0813 3.1478-0.48452 0.1736-1.0044 0.24268-1.5932 0.34542-0.27939 0.035428-0.48628 0.1736-0.79751 0.20903-0.20866 0.033657-0.45092 0.27634-0.65958 0.34543-0.83288 0.27811-1.595 0.79714-2.1503 1.3835-0.58885 0.62354-1.2131 2.3879-1.4217 3.704-0.20689 1.3144-0.38196 2.836-0.48452 3.8404-0.1397 1.7289-0.035366 4.1858-0.035366 5.9838 0 1.7998-0.24226 2.976-0.41555 3.8068-0.17329 0.83079-0.86647 3.1141-0.83288 7.5763 0 0.79714-0.033598 2.6288 0.035367 3.8404 0.1397 1.488-0.068965 4.7403-0.27762 5.502-0.20689 0.93353-0.45092 2.5243-0.55525 2.7669-0.10256 0.20726 0.10433 0.51902 0.24226 0.76171 0.1061 0.24268 0.070732 0.44994 0.24403 0.79536 0.10433 0.24268 0.48628 0.79536 0.65781 1.1071 0.1733 0.27634 0.90184 0.65719 1.4907 0.82902 0.38196 0.1736 1.1105 0.55445 1.1795 0.38262 0.1397-0.38262-0.10256-0.65719-0.41555-0.79714-0.17329-0.10274 0.34659 0.20903 0.45092-0.13817 0.033598-0.10451 0.033598-0.1736-0.035366-0.34543 0.068964-0.20726 0-0.20726-0.13793-0.41451 0.27762-0.070856 0.068964-1.2116-0.035366-1.7643 0.035366-0.41628 0.070733-1.7307-0.24226-2.6642-0.20866-0.55445-0.27762-1.1089-0.27762-1.4543-0.1733-0.82902 0.76214-6.7101 1.3174-8.3735 1.0415-3.4932 0.69318-6.5029 0.79751-7.1264 0.1397-0.62177 0.83111-3.8758 1.0398-5.3284l0.035366 0.035429c0.10433 1.7643-0.068964 4.464-0.035366 5.3638 0.070733 1.2453-0.27586 3.5287-0.79574 4.5313-0.55525 1.0026-0.79751 2.5597-1.2838 5.3621-0.45092 2.2143-0.79751 4.533-0.41555 8.5471 0.31122 2.8006 0.79574 4.5667 1.4907 7.6791 0.65958 2.8041 1.5597 6.5046 1.9416 8.5807 0.34659 2.0761 0.86647 2.8378 0.93544 4.1876 0.10433 1.348-0.79751 7.7145 0.20866 11.383 0.9708 3.7005 1.4217 6.0193 1.595 6.9191 0.45092 1.9716 0.068965 2.1788 0.24226 3.1832 0.1733 0.96719 0.20866 0.86445-0.31122 1.8334-0.45092 0.62354-1.2131 1.9716-1.4571 2.2497-0.20866 0.31-0.10433 0.62177 0 0.79359-0.1733 0.48537 0.38196 0.72628 0.55525 0.72628-0.068964 0.55445 0.93544 0.48537 1.1777 0.24268 0.27939 0.31177 1.0415 0.31177 1.3192-0.069085 0.48452 0.44994 1.3528 0.44994 1.8709-0.10274 0.55525-0.55445 0.62421-1.0735 0.55525-1.6262-0.068964-0.51902 0.068965-0.72805 0.17506-1.3852 0.10256-0.65719 0.20689-1.1744-0.037134-1.6262-0.24226-0.4836-0.27586-0.72628-0.27586-1.1744 0-0.48537 0.20689-1.2116-0.10433-1.7998-0.31299-0.62354-0.65781-2.0407-0.58885-3.5977 0.033598-1.5571 1.1795-10.276 0.69318-13.252-0.48629-3.0096-0.27762-3.5977-0.17329-4.6358 0.13793-1.0026 0.41555-2.666 0.13793-4.8094-0.10256-0.83079 0.27762-4.2213 0.31122-7.7499 0.037134-2.2833 0.31299-5.3284-0.31122-5.9502v-0.035428c0.17329 0.069085 0.34836 0.10451 0.48452 0.10451h0.037135c0.17153 0 0.38019-0.035428 0.58708-0.13994l-0.033598 0.070856c-0.62421 0.62177-0.41555 3.6668-0.41555 5.9165 0.033598 3.5287 0.48452 6.9528 0.38196 7.7836-0.27762 2.1452 0.033598 3.8068 0.1733 4.8094 0.10256 1.038 0.27586 1.6262-0.20866 4.6358-0.48452 2.976 0.65958 11.695 0.72854 13.252 0.068964 1.5571-0.31299 2.9742-0.59062 3.5977-0.31122 0.58811-0.13793 1.3144-0.13793 1.7998 0 0.44817 0 0.69085-0.24226 1.1744-0.24226 0.45171-0.17329 0.96896-0.035366 1.6262 0.10433 0.65719 0.24403 0.86622 0.1733 1.3852-0.068964 0.55268 0 1.0717 0.51988 1.6262 0.55525 0.55268 1.3864 0.55268 1.8726 0.10274 0.31299 0.38085 1.0751 0.38085 1.3528 0.069085 0.24226 0.24268 1.2484 0.31177 1.1777-0.24268 0.17329 0 0.69495-0.24091 0.52165-0.72628 0.13793-0.17183 0.24226-0.4836 0-0.79359-0.24403-0.27811-0.97257-1.6262-1.4217-2.2497-0.51988-0.96896-0.48629-0.86622-0.31299-1.8334 0.17329-1.0044-0.20689-1.2116 0.20866-3.1832 0.20689-0.89988 0.65958-3.2187 1.6286-6.9191 1.0062-3.6686 0.10433-10.035 0.1733-11.383 0.10433-1.3498 0.69318-2.2834 1.0415-4.3258 0.34482-2.0761 1.2131-5.6384 1.8726-8.4425 0.69318-3.1124 1.2467-4.843 1.5597-7.6454 0.38196-3.9786 0.035366-6.4001-0.38196-8.6144-0.48452-2.8041-0.90007-4.7066-1.4217-5.7093-0.55348-1.0044-0.72854-2.976-0.65958-4.2213 0.035366-0.93353-0.24226-3.5977-0.13616-5.3621 0.20689 1.4526 0.93544 4.7403 1.0398 5.3621 0.13793 0.62354-0.20866 3.6332 0.83288 7.1264 0.51812 1.6634 1.4553 7.5444 1.3156 8.3735 0 0.34542-0.10433 0.89988-0.27762 1.4543-0.31122 0.93353-0.27586 2.2479-0.24226 2.6642-0.1397 0.55268-0.31122 1.6935-0.068964 1.7643-0.1397 0.20726-0.1733 0.20726-0.10433 0.41451-0.10433 0.17183-0.10433 0.24091-0.068964 0.34543 0.1397 0.3472 0.65781 0.035428 0.48452 0.13817-0.31122 0.13994-0.55348 0.41451-0.41555 0.79714 0.070733 0.17183 0.79751-0.20903 1.1795-0.38262 0.58885-0.17183 1.282-0.55268 1.4907-0.82902 0.17329-0.31177 0.55348-0.86445 0.65958-1.1071 0.13793-0.34542 0.10256-0.55268 0.24226-0.79536 0.10256-0.24268 0.34659-0.55445 0.20689-0.76171zm-19.278-43.835v-0.035428z" fill="none" stroke-width=".53358"/>
<path transform="matrix(2.209 0 0 2.2052 -165.27 -167.03)" d="m232.76 134.23c-0.10433-0.24268-0.31299-1.8334-0.55525-2.7687-0.17153-0.75994-0.38196-4.0122-0.27586-5.5002 0.10433-1.2116 0.033597-3.0451 0.068964-3.8404 0.035366-4.4622-0.69318-6.7455-0.86824-7.5763-0.1733-0.83079-0.38019-2.007-0.38019-3.8068 0-1.798 0.068964-4.2549-0.068964-5.9838-0.068964-1.0044-0.24403-2.526-0.45092-3.8422-0.20866-1.3144-0.86647-3.0787-1.4217-3.6668-0.55525-0.62176-1.3174-1.1071-2.1149-1.3835-0.20866-0.069085-0.51988-0.31177-0.72854-0.3472-0.31122-0.069085-0.48452-0.20726-0.76214-0.24268-0.59062-0.10274-1.1105-0.27634-1.5968-0.34542-2.1485-0.27457-2.0778-3.1124-2.0778-3.1124 1.2467 1.348 2.4261-0.38085 2.4261-0.38085-0.24226 0.17183-0.72854-0.035429-0.72854-0.035429 0.69318 0.20726 0.9708-0.62354 0.9708-0.62354-0.31122 0.20903-0.41555 0.035428-0.41555 0.035428 0.51988-0.20726 0.48452-0.86445 0.48452-0.86445-0.24226 0.86445-1.42 1.0026-1.1087 0.033657 0.51988-1.6598 1.0398-5.0857-0.48629-8.2335-1.5597-3.1478-5.5472-1.7998-5.5472-1.7998-0.76391-0.48537-2.3925 0.76171-3.1193 1.7643-0.73031 1.0398-1.5968 4.6376 0.10256 7.2663 0.83288 1.3144-0.068964 2.007-0.38196 1.8688-0.27762-0.10451-0.24226-0.38085-0.24226-0.44994-0.17329 0.72628 0.38196 1.038 0.38196 1.038-0.34836-0.13817-0.52165-0.44994-0.52165-0.44994 0.035366 0.72628 0.79751 0.93353 0.79751 0.93353-0.48452-0.033657-0.69318-0.31177-0.69318-0.31177 0.17506 0.55445 1.4235 1.1071 2.0813 0.1736-0.20689 2.7333-1.1441 2.8732-2.0813 3.1478-0.48452 0.1736-1.0044 0.24268-1.5932 0.34542-0.27939 0.035428-0.48628 0.1736-0.79751 0.20903-0.20866 0.033657-0.45092 0.27634-0.65958 0.34543-0.83288 0.27811-1.595 0.79714-2.1503 1.3835-0.58885 0.62354-1.2131 2.3879-1.4217 3.704-0.20689 1.3144-0.38196 2.836-0.48452 3.8404-0.1397 1.7289-0.035366 4.1858-0.035366 5.9838 0 1.7998-0.24226 2.976-0.41555 3.8068-0.17329 0.83079-0.86647 3.1141-0.83288 7.5763 0 0.79714-0.033598 2.6288 0.035367 3.8404 0.1397 1.488-0.068965 4.7403-0.27762 5.502-0.20689 0.93353-0.45092 2.5243-0.55525 2.7669-0.10256 0.20726 0.10433 0.51902 0.24226 0.76171 0.1061 0.24268 0.070732 0.44994 0.24403 0.79536 0.10433 0.24268 0.48628 0.79536 0.65781 1.1071 0.1733 0.27634 0.90184 0.65719 1.4907 0.82902 0.38196 0.1736 1.1105 0.55445 1.1795 0.38262 0.1397-0.38262-0.10256-0.65719-0.41555-0.79714-0.17329-0.10274 0.34659 0.20903 0.45092-0.13817 0.033598-0.10451 0.033598-0.1736-0.035366-0.34543 0.068964-0.20726 0-0.20726-0.13793-0.41451 0.27762-0.070856 0.068964-1.2116-0.035366-1.7643 0.035366-0.41628 0.070733-1.7307-0.24226-2.6642-0.20866-0.55445-0.27762-1.1089-0.27762-1.4543-0.1733-0.82902 0.76214-6.7101 1.3174-8.3735 1.0415-3.4932 0.69318-6.5029 0.79751-7.1264 0.1397-0.62177 0.83111-3.8758 1.0398-5.3284l0.035366 0.035429c0.10433 1.7643-0.068964 4.464-0.035366 5.3638 0.070733 1.2453-0.27586 3.5287-0.79574 4.5313-0.55525 1.0026-0.79751 2.5597-1.2838 5.3621-0.45092 2.2143-0.79751 4.533-0.41555 8.5471 0.31122 2.8006 0.79574 4.5667 1.4907 7.6791 0.65958 2.8041 1.5597 6.5046 1.9416 8.5807 0.34659 2.0761 0.86647 2.8378 0.93544 4.1876 0.10433 1.348-0.79751 7.7145 0.20866 11.383 0.9708 3.7005 1.4217 6.0193 1.595 6.9191 0.45092 1.9716 0.068965 2.1788 0.24226 3.1832 0.1733 0.96719 0.20866 0.86445-0.31122 1.8334-0.45092 0.62354-1.2131 1.9716-1.4571 2.2497-0.20866 0.31-0.10433 0.62177 0 0.79359-0.1733 0.48537 0.38196 0.72628 0.55525 0.72628-0.068964 0.55445 0.93544 0.48537 1.1777 0.24268 0.27939 0.31177 1.0415 0.31177 1.3192-0.069085 0.48452 0.44994 1.3528 0.44994 1.8709-0.10274 0.55525-0.55445 0.62421-1.0735 0.55525-1.6262-0.068964-0.51902 0.068965-0.72805 0.17506-1.3852 0.10256-0.65719 0.20689-1.1744-0.037134-1.6262-0.24226-0.4836-0.27586-0.72628-0.27586-1.1744 0-0.48537 0.20689-1.2116-0.10433-1.7998-0.31299-0.62354-0.65781-2.0407-0.58885-3.5977 0.033598-1.5571 1.1795-10.276 0.69318-13.252-0.48629-3.0096-0.27762-3.5977-0.17329-4.6358 0.13793-1.0026 0.41555-2.666 0.13793-4.8094-0.10256-0.83079 0.27762-4.2213 0.31122-7.7499 0.037134-2.2833 0.31299-5.3284-0.31122-5.9502v-0.035428c0.17329 0.069085 0.34836 0.10451 0.48452 0.10451h0.037135c0.17153 0 0.38019-0.035428 0.58708-0.13994l-0.033598 0.070856c-0.62421 0.62177-0.41555 3.6668-0.41555 5.9165 0.033598 3.5287 0.48452 6.9528 0.38196 7.7836-0.27762 2.1452 0.033598 3.8068 0.1733 4.8094 0.10256 1.038 0.27586 1.6262-0.20866 4.6358-0.48452 2.976 0.65958 11.695 0.72854 13.252 0.068964 1.5571-0.31299 2.9742-0.59062 3.5977-0.31122 0.58811-0.13793 1.3144-0.13793 1.7998 0 0.44817 0 0.69085-0.24226 1.1744-0.24226 0.45171-0.17329 0.96896-0.035366 1.6262 0.10433 0.65719 0.24403 0.86622 0.1733 1.3852-0.068964 0.55268 0 1.0717 0.51988 1.6262 0.55525 0.55268 1.3864 0.55268 1.8726 0.10274 0.31299 0.38085 1.0751 0.38085 1.3528 0.069085 0.24226 0.24268 1.2484 0.31177 1.1777-0.24268 0.17329 0 0.69495-0.24091 0.52165-0.72628 0.13793-0.17183 0.24226-0.4836 0-0.79359-0.24403-0.27811-0.97257-1.6262-1.4217-2.2497-0.51988-0.96896-0.48629-0.86622-0.31299-1.8334 0.17329-1.0044-0.20689-1.2116 0.20866-3.1832 0.20689-0.89988 0.65958-3.2187 1.6286-6.9191 1.0062-3.6686 0.10433-10.035 0.1733-11.383 0.10433-1.3498 0.69318-2.2834 1.0415-4.3258 0.34482-2.0761 1.2131-5.6384 1.8726-8.4425 0.69318-3.1124 1.2467-4.843 1.5597-7.6454 0.38196-3.9786 0.035366-6.4001-0.38196-8.6144-0.48452-2.8041-0.90007-4.7066-1.4217-5.7093-0.55348-1.0044-0.72854-2.976-0.65958-4.2213 0.035366-0.93353-0.24226-3.5977-0.13616-5.3621 0.20689 1.4526 0.93544 4.7403 1.0398 5.3621 0.13793 0.62354-0.20866 3.6332 0.83288 7.1264 0.51812 1.6634 1.4553 7.5444 1.3156 8.3735 0 0.34542-0.10433 0.89988-0.27762 1.4543-0.31122 0.93353-0.27586 2.2479-0.24226 2.6642-0.1397 0.55268-0.31122 1.6935-0.068964 1.7643-0.1397 0.20726-0.1733 0.20726-0.10433 0.41451-0.10433 0.17183-0.10433 0.24091-0.068964 0.34543 0.1397 0.3472 0.65781 0.035428 0.48452 0.13817-0.31122 0.13994-0.55348 0.41451-0.41555 0.79714 0.070733 0.17183 0.79751-0.20903 1.1795-0.38262 0.58885-0.17183 1.282-0.55268 1.4907-0.82902 0.17329-0.31177 0.55348-0.86445 0.65958-1.1071 0.13793-0.34542 0.10256-0.55268 0.24226-0.79536 0.10256-0.24268 0.34659-0.55445 0.20689-0.76171zm-19.278-43.835v-0.035428z" fill="none" stroke-width=".53358"/>
<path transform="matrix(3.7879 0 0 3.7812 .14994 -2.3919e-6)" d="m26.746 28.799c-0.00825-0.020661-0.00825-0.047521-0.00825-0.061983l-0.020625-0.020662c0-0.041322 0-0.061983-0.020625-0.082644v-0.020661c-0.061875-0.28926-0.12375-0.51446-0.165-0.61777 0-0.020661 0-0.041322-0.020625-0.041322 0-0.020661 0.020625-0.020661 0.020625-0.020661l-0.020625-0.020662s0.28978-3.2345 0.22688-3.4194c0.020625-0.61777 0.35062-1.7924 0.31041-2.4308 0.040219-0.78306 0.14334-1.2769 0.14334-1.5661v-0.040289c0.020625 0.26756 0.042281 0.4938 0.042281 0.61777 0.040219 0.20558 0.040219 0.51446 0.0825 0.57645 0.04125 0.30888 0.28875 2.0393 0.30938 2.6787-0.12375 0.86467-0.14438 1.4205 0.10312 2.656 0.046406 0.29442 0.30938 1.0382 0.59297 1.8017 0.35166 0.94938 0.73528 1.9298 0.76931 2.1136 0.061875 0.32954 0.14541 0.65909 0.18562 0.7407 0.04125 0.082645-0.2475 0.53616-0.165 0.84504 0.0825 0.28822-0.45375 1.2355-0.28875 2.1219 0.165 0.88533 0.18562 1.0093 0.20625 1.1942 0.020625 0.20661 0.14541 0.41219 0.20728 0.66012 0.061875 0.2469 0.16397 0.84401 0.30938 0.84401h0.10209v-0.020661h0.021657l0.040218-0.040289v-0.021694 0.021694-0.042355s0.042282 0.55682 0.33103 0.55682c0.18562-0.020661 0.18562-0.18595 0.18562-0.18595s0.04125 0.45351 0.31041 0.41219c0.2475-0.041322 0.2475-0.28822 0.2475-0.28822 0.165 0.082645 0.43312 0.061984 0.495-0.22624 0.061875-0.28822 0.20625-0.8657 0.18562-1.0919 0-0.20558 0.14541-0.67975 0.14541-0.86467 0.14334-0.55682 0.28772-0.74174 0.2475-0.90702 0.18562 0.20558 0.35062 0.41116 0.43312 0.45351 0.04125 0.32954 0.37228 0.82335 0.63938 0.84401 0.35166 0.020661 0.26812-0.22624 0.16603-0.49484-0.10416-0.28822-0.12375-0.61777-0.22791-0.74174-0.10312-0.12293-0.26812-0.84401-0.45375-1.0702-0.18562-0.24793-0.88791-1.2975-1.0735-1.4628-0.061875-0.10227-0.020625-0.51446-0.10312-0.80372-0.0825-0.28822-0.061875-0.57645-0.14438-0.90599-0.0825-0.35021-0.0825-1.0093-0.10312-1.4628-0.002063-0.027892-0.003094-0.057851-0.004125-0.090909-0.038156-0.90496-0.053625-3.78-0.49191-4.8533-0.0825-0.35021-0.18562-0.90599-0.165-1.7097-0.04125-2.1829-0.53625-3.4401-0.49603-4.1198 0.14541-0.98967-0.081468-2.0393-0.26812-2.8636-0.39084-1.7717-1.2581-2.2448-1.651-2.3285-0.4125-0.081611-1.0323-0.1436-1.3004-0.41116-0.20728-0.16426-1.5902-0.80372-1.9821-0.84401-1.0323-0.18595-0.84666-2.0403-0.84666-2.4101 0.021656-0.042355 0.021656-0.083678 0.042281-0.10434v-0.019628c0.019594-0.020661 0.019594-0.061983 0.04125-0.10331v-0.020661c0.020625-0.041322 0.020625-0.082644 0.040219-0.12397v-0.019628c0-0.042355 0.021656-0.082644 0.021656-0.12397h0.020625c0-0.061983 0.019594-0.10331 0.019594-0.14463s0.021656-0.10331 0.021656-0.1436c0.020625-0.041322 0.020625-0.083678 0.020625-0.12397 0.019594-0.041322 0.019594-0.082644 0.019594-0.10331v-0.040289c0.042281-0.021694 0.083531-0.041322 0.14541-0.083678 0.020625-0.020661 0.020625-0.020661 0.04125-0.020661v-0.019628c0.020625 0 0.020625-0.020661 0.020625-0.020661 0.020625 0 0.020625-0.020661 0.020625-0.020661s0.020625 0 0.020625-0.020661l0.020625-0.020661c0.061875-0.082645 0.0825-0.18492 0.165-0.28822 0.061875-0.12397 0.04125-0.20661 0.10312-0.39153 0.061875-0.18492 0.10312-0.47417 0.10312-0.57645 0-0.12397 0.12478-0.43388 0.12478-0.57748 0-0.10227-0.042282-0.18492-0.083532-0.20558 0 0 0.020625 0 0.020625-0.020661 0.020625 0 0.020625-0.020661 0.020625-0.020661 0-0.14463-0.061875-0.49484-0.04125-0.63843 0-0.1033 0.020625-0.41219 0.020625-0.53616 0-0.22624-0.12375-0.45351-0.18562-0.65909-0.061875-0.22624-0.061875-0.47314-0.12375-0.67975-0.0825-0.26756-0.26916-0.43182-0.51666-0.57748-0.18562-0.10227-0.4125-0.12293-0.51562-0.28719-0.061875-0.082645 0-0.10331-0.12375-0.16529-0.061875-0.041323-0.18562-0.060951-0.2475-0.082645-0.18666-0.040289-0.43416-0.1436-0.39188-0.36984-0.26916-0.061983-0.70228 0.16426-0.92916-0.061983h-0.16603c-0.14334 0.041322-0.33 0.019628-0.47438-0.041322-0.061875 0.12293-0.35062 0.2469-0.51666 0.2469-0.20625 0-0.43312 0.041323-0.55688 0.22624 0.083532-0.020661 0.18562-0.061983 0.22688 0-0.53625 0.28926-1.1962 0.70041-1.2581 1.3605-0.021656 0.28822-0.16603 0.51446-0.18666 0.80269s-0.2475 0.43285-0.14438 0.72108c-0.020625 0.18492 0.04125 0.18492 0.04125 0.35021-0.061875 0.18492 0.10312 0.41219 0.10312 0.41219-0.020625 0-0.04125 0.041323-0.061875 0.082645-0.020625 0.019628-0.020625 0.019628-0.020625 0.041322v0.019628c-0.020625 0.020661-0.020625 0.042356-0.020625 0.082645 0 0.14463 0.14438 0.45351 0.14438 0.57748 0 0.10227 0.020625 0.39153 0.10312 0.57645 0.061875 0.18492 0.020625 0.26756 0.10416 0.39153 0.061875 0.10331 0.081469 0.20558 0.14334 0.28822 0.021656 0 0.021656 0.020661 0.021656 0.020661l0.061875 0.061983 0.020625 0.019628 0.019594 0.021694h0.021656c0.040219 0.041323 0.10312 0.082645 0.12375 0.082645 0 0.040289 0.020625 0.081612 0.020625 0.12293v0.12293c0 0.021694 0.020625 0.042355 0.020625 0.083678v0.081611c0 0.020661 0.019594 0.041322 0.019594 0.061984v0.061983c0 0.020661 0 0.020661 0.021656 0.040289v0.083678s0.020625 0.020661 0.020625 0.040289v0.061984c0.019594 0.020661 0.019594 0.020661 0.019594 0.041322v0.041322l0.021656 0.020662v0.041322l0.020625 0.020661v0.040289l0.019594 0.021694v0.020662c0.021656 0.019628 0.021656 0.041322 0.021656 0.061983 0.020625 0 0.020625 0.019628 0.040219 0.040289v0.041323c0 0.22727 0.042281 0.72107-0.040219 1.2159v0.020661c0 0.020661-0.021656 0.020661-0.021656 0.020661-0.081469 0.51446-0.30938 0.98864-0.78375 1.0713-0.4125 0.041322-1.7954 0.67975-1.9821 0.84401-0.26709 0.26756-0.90853 0.32955-1.3004 0.41219-0.4125 0.082645-1.2592 0.55578-1.6727 2.3275-0.18562 0.82438-0.39188 1.875-0.26709 2.8636 0.061875 0.67975-0.43416 1.937-0.49603 4.1198 0.020625 0.80372-0.061875 1.3595-0.165 1.7097-0.43416 1.064-0.45375 3.8977-0.47231 4.8285-0.001032 0.042355-0.001032 0.081611-0.002063 0.1157-0.021656 0.45351-0.021656 1.1126-0.10416 1.4628-0.081469 0.32955-0.019594 0.61777-0.12375 0.90599-0.0825 0.28926-0.04125 0.70145-0.10312 0.80372-0.165 0.16529-0.88791 1.2159-1.0735 1.4628-0.165 0.22727-0.37125 0.94731-0.47438 1.0702-0.10312 0.12397-0.12375 0.45351-0.2475 0.74174-0.10416 0.2686-0.18562 0.5155 0.165 0.49484 0.28875-0.020661 0.59916-0.51446 0.66103-0.84401 0.081469-0.041323 0.2475-0.24793 0.43312-0.45351-0.04125 0.16529 0.0825 0.35021 0.22688 0.90702 0 0.18492 0.165 0.65909 0.14438 0.86467-0.020625 0.22624 0.12375 0.80372 0.18562 1.0919 0.062906 0.28822 0.33 0.30888 0.51666 0.22624 0 0-0.020625 0.2469 0.2475 0.28822 0.2475 0.041323 0.28875-0.41116 0.28875-0.41116s0 0.16426 0.18666 0.18492c0.28772 0 0.33-0.55682 0.33-0.55682l0.019594 0.020661v0.021694-0.021694 0.021694c0 0.019628 0.021656 0.019628 0.021656 0.040289h0.020625c0 0.021694 0.019594 0.021694 0.019594 0.021694h0.083531c0.14438 0 0.26812-0.59814 0.33-0.84504 0.061875-0.24793 0.165-0.45351 0.18562-0.66012 0.020625-0.18492 0.04125-0.30785 0.20625-1.1942 0.16603-0.88636-0.35062-1.8337-0.28875-2.1209 0.0825-0.30992-0.18562-0.76343-0.14438-0.84608 0.04125-0.081611 0.12375-0.41116 0.18562-0.7407 0.022688-0.18285 0.75488-2.1136 0.75488-2.1136s0.55275-1.5072 0.60741-1.8006c0.22791-1.2366 0.22791-1.7924 0.0825-2.657 0.021657-0.63946 0.28978-2.3698 0.33103-2.6787 0.020625-0.061984 0.020625-0.37087 0.061875-0.57645 0.020625-0.12397 0.040218-0.35021 0.040218-0.61777l0.021657 0.041322c0 0.28822 0.0825 0.78202 0.12375 1.5651-0.020625 0.63843 0.28875 1.813 0.33 2.4308-0.0825 0.18492 0.22688 3.4194 0.22688 3.4194l-0.020625 0.020662v0.020661c-0.039188 0.1188-0.13612 0.42872-0.21656 0.83678" fill="#666" stroke-width=".31117"/>
<path transform="matrix(3.7879 0 0 3.7812 .14992 2.1032e-6)" d="m80.825 8.5424v-0.020661 0.020661" fill="none" stroke-width=".31117"/>
<path transform="matrix(3.7879 0 0 3.7812 .14992 2.1032e-6)" d="m77.878 28.795c-0.25472 1.2686-0.4455 2.6126-0.22688 4.9081 0.1815 1.6333 0.46406 2.6632 0.86934 4.4783 0.38466 1.6353 0.90956 3.7934 1.1323 5.0041 0.20212 1.2107 0.50531 1.655 0.54553 2.4421 0.060843 0.78616-0.46509 4.499 0.12169 6.6384 0.56616 2.1581 0.82912 3.5103 0.93019 4.0351 0.26297 1.1498 0.040218 1.2707 0.14128 1.8564 0.10106 0.56405 0.12169 0.50413-0.1815 1.0692-0.26297 0.36364-0.70744 1.1498-0.84975 1.312-0.12169 0.18078-0.060844 0.3626 0 0.46281-0.10106 0.28306 0.22275 0.42355 0.32381 0.42355-0.040218 0.32335 0.54553 0.28306 0.68681 0.14153 0.16294 0.18182 0.60741 0.18182 0.76931-0.04029 0.28256 0.2624 0.78891 0.2624 1.0911-0.059917 0.32381-0.32335 0.36403-0.62603 0.32381-0.94835-0.040218-0.30269 0.040219-0.42459 0.10209-0.80785 0.059813-0.38326 0.12066-0.68492-0.021656-0.94835-0.14128-0.28202-0.16088-0.42355-0.16088-0.68492 0-0.28306 0.12066-0.70661-0.060844-1.0496-0.18253-0.36364-0.38362-1.1901-0.34341-2.0981 0.019594-0.90806 0.68784-5.9928 0.40425-7.7283-0.28359-1.7552-0.16191-2.0981-0.10106-2.7035 0.080438-0.58471 0.24234-1.5548 0.080438-2.8048-0.059813-0.4845 0.16191-2.4618 0.1815-4.5196 0.021656-1.3316 0.18253-3.1074-0.1815-3.47v-0.020661c0.10106 0.04029 0.20316 0.060951 0.28256 0.060951h0.021657c0.10003 0 0.22172-0.020661 0.34238-0.081612l-0.019594 0.041322c-0.36403 0.3626-0.24234 2.1384-0.24234 3.4504 0.019594 2.0579 0.28256 4.0548 0.22275 4.5393-0.16191 1.251 0.019594 2.22 0.10106 2.8048 0.059812 0.60537 0.16088 0.94835-0.12169 2.7035-0.28256 1.7355 0.38466 6.8202 0.42488 7.7283s-0.18253 1.7345-0.34444 2.0981c-0.1815 0.34298-0.080438 0.76653-0.080438 1.0496 0 0.26136 0 0.40289-0.14128 0.68492-0.14128 0.26343-0.10106 0.56508-0.020625 0.94835 0.060844 0.38326 0.14231 0.50516 0.10106 0.80785-0.040218 0.32231 0 0.625 0.30319 0.94835 0.32381 0.32231 0.8085 0.32231 1.0921 0.059917 0.18253 0.22211 0.627 0.22211 0.78891 0.04029 0.14128 0.14153 0.72806 0.18182 0.68681-0.14153 0.10106 0 0.40528-0.1405 0.30422-0.42355 0.080438-0.10021 0.14128-0.28202 0-0.46281-0.14231-0.16219-0.56719-0.94835-0.82912-1.312-0.30319-0.56508-0.28359-0.50517-0.18253-1.0692 0.10106-0.58574-0.12066-0.70661 0.12169-1.8564 0.12066-0.52479 0.38466-1.8771 0.94978-4.0351 0.58678-2.1395 0.060843-5.8523 0.10106-6.6384 0.060844-0.78719 0.40425-1.3316 0.60741-2.5227 0.20109-1.2107 0.70744-3.2882 1.0921-4.9236 0.40425-1.8151 0.72703-2.8244 0.90956-4.4587 0.21759-2.2645 0.029906-3.6632-0.20522-4.9298" fill="#666" stroke-width=".31117"/>
</g>
</svg>
