<?xml version="1.0" encoding="UTF-8"?>
<svg width="800px" height="485px" version="1.1" viewBox="0 0 800 485" xmlns="http://www.w3.org/2000/svg">
<g stroke="#333" stroke-linecap="round" stroke-linejoin="round" stroke-miterlimit="10">
<path transform="matrix(4.4181 0 0 4.4194 -781.84 -337.19)" d="m233.78 137.01c-0.17772-0.49497-0.2122-1.0598-0.38991-1.2719-0.17683-0.21036-0.46064-1.4469-0.77894-1.8358-0.3183-0.42426-1.5207-2.2247-1.839-2.5076-0.10787-0.17678-0.03625-0.883-0.17772-1.378-0.14235-0.49497-0.1061-0.98994-0.24845-1.5547-0.14058-0.60104-0.14058-1.7306-0.17595-2.5076-0.070732-1.3426-0.070732-6.5708-0.85056-8.4782-0.14058-0.60104-0.3183-1.5539-0.28293-2.9327-0.069848-3.7423-0.92041-5.8972-0.84967-7.0631 0.24756-1.697-0.14058-3.4975-0.46064-4.91-0.67107-3.0388-2.1582-3.8502-2.8302-3.9925-0.70821-0.14054-1.771-0.2466-2.2316-0.70534-0.35366-0.28284-2.725-1.378-3.3978-1.4487-1.7692-0.3182-1.4509-3.4975-1.4509-4.133 0.035366-0.071594 0.035366-0.14142 0.071617-0.17766v-0.034471c0.034482-0.035355 0.034482-0.10607 0.069848-0.17589v-0.036239c0.03625-0.069827 0.03625-0.14142 0.070732-0.21213v-0.034472c0-0.071594 0.035367-0.14142 0.035367-0.21213h0.03625c0-0.10606 0.034482-0.17678 0.034482-0.24837 0-0.069826 0.035366-0.17589 0.035366-0.2466 0.036251-0.069827 0.036251-0.14142 0.036251-0.21213 0.034482-0.069827 0.034482-0.14054 0.034482-0.17589v-0.070711c0.071616-0.035355 0.14146-0.069826 0.24756-0.14142 0.036251-0.036239 0.036251-0.036239 0.071617-0.036239v-0.034471c0.034482 0 0.034482-0.035355 0.034482-0.035355 0.03625 0 0.03625-0.034471 0.03625-0.034471s0.035367 0 0.035367-0.036239l0.034482-0.035356c0.1061-0.14054 0.14235-0.31731 0.28381-0.49409 0.1061-0.21213 0.070732-0.35355 0.17683-0.67175 0.1061-0.31731 0.17772-0.81228 0.17772-0.98818 0-0.21213 0.2122-0.74334 0.2122-0.98994 0-0.17589-0.071616-0.3182-0.14235-0.35267 0 0 0.036251 0 0.036251-0.035355 0.034482 0 0.034482-0.036239 0.034482-0.036239 0-0.2466-0.1061-0.84764-0.070733-1.0942 0-0.17589 0.036251-0.7071 0.036251-0.91924 0-0.38802-0.2122-0.77693-0.3183-1.1296-0.1061-0.38891-0.1061-0.8114-0.21397-1.1658-0.14058-0.45873-0.45976-0.74157-0.88416-0.98906-0.3183-0.17678-0.70909-0.21125-0.88504-0.49409-0.1061-0.14142 0-0.17766-0.2122-0.28373-0.1061-0.069826-0.3183-0.1043-0.4244-0.14054-0.32006-0.069827-0.74446-0.2466-0.67284-0.63551-0.45976-0.10606-1.2042 0.28284-1.5924-0.10606h-0.2847c-0.24668 0.07071-0.56586 0.034471-0.81431-0.069827-0.1061 0.21036-0.60034 0.4225-0.88416 0.4225-0.35455 0-0.74269 0.07071-0.95489 0.38891 0.14146-0.035356 0.3183-0.10607 0.38814 0-0.92041 0.49497-2.0521 1.2003-2.1582 2.3317-0.035366 0.49497-0.28381 0.88211-0.31918 1.3771-0.034482 0.49409-0.4244 0.74246-0.24845 1.2374-0.034482 0.31643 0.071617 0.31643 0.071617 0.59927-0.1061 0.3182 0.17683 0.7071 0.17683 0.7071-0.034482 0-0.070732 0.069826-0.1061 0.14142-0.03625 0.034471-0.03625 0.034471-0.03625 0.07071v0.034471c-0.034482 0.035356-0.034482 0.071595-0.034482 0.14142 0 0.24749 0.24845 0.77781 0.24845 0.98994 0 0.17589 0.034482 0.67086 0.17595 0.98818 0.1061 0.3182 0.03625 0.45962 0.1786 0.67263 0.1061 0.17589 0.14058 0.35267 0.24668 0.4932 0.035366 0 0.035366 0.035356 0.035366 0.035356l0.1061 0.10606 0.03625 0.034471 0.034482 0.036239h0.035366c0.070733 0.071595 0.17772 0.14142 0.2122 0.14142 0 0.070711 0.03625 0.14054 0.03625 0.21213v0.21125c0 0.03624 0.035366 0.071595 0.035366 0.1423v0.14054c0 0.035355 0.034482 0.071594 0.034482 0.10606v0.10607c0 0.035355 0 0.035355 0.035367 0.069826v0.1423s0.03625 0.035355 0.03625 0.069827v0.10606c0.034482 0.036239 0.034482 0.036239 0.034482 0.07071v0.071595l0.035366 0.034471v0.071594l0.036251 0.034472v0.07071l0.034482 0.035355v0.036239c0.035366 0.034471 0.035366 0.069827 0.035366 0.10607 0.03625 0 0.03625 0.034471 0.070732 0.069826v0.07071c0 0.38891 0.071617 1.2357-0.070732 2.0851v0.034471l-0.035366 0.035356c-0.14058 0.88388-0.53049 1.6953-1.3448 1.8376-0.70732 0.069827-3.0786 1.1658-3.3987 1.4478-0.45888 0.45873-1.557 0.5648-2.2298 0.70534-0.70821 0.1423-2.1591 0.9537-2.8673 3.9925-0.3183 1.4124-0.67284 3.2138-0.45888 4.91 0.1061 1.1658-0.74446 3.3207-0.85056 7.064 0.036251 1.378-0.1061 2.3317-0.28204 2.9327-0.78071 1.9065-0.78071 7.1356-0.81431 8.4773-0.03625 0.77693-0.03625 1.9074-0.1786 2.5084-0.14058 0.5648-0.034482 1.0598-0.2122 1.5539-0.14146 0.49497-0.069848 1.2021-0.17595 1.378-0.28381 0.28284-1.5225 2.0842-1.8408 2.5084-0.28381 0.38891-0.63659 1.6246-0.81431 1.8358-0.17683 0.21213-0.21308 0.77693-0.42528 1.2719-0.17772 0.45962-0.3183 0.883 0.2847 0.84676 0.49424-0.033588 1.0265-0.88123 1.0964-1.4469 0.17683-0.071594 0.46064-0.42426 0.77894-0.77693-0.070732 0.28284 0.14146 0.59927 0.38991 1.5547 0 0.31643 0.28205 1.1296 0.24668 1.4823-0.034482 0.38891 0.2122 1.378 0.3183 1.8729 0.10698 0.49497 0.56586 0.52944 0.88592 0.38891 0 0-0.035366 0.4225 0.4244 0.4932 0.4244 0.071594 0.49513-0.70534 0.49513-0.70534s0 0.28196 0.31918 0.3182c0.49513 0 0.56674-0.95547 0.56674-0.95547l0.034482 0.036239v0.035355-0.035355 0.035355c0 0.034472 0.035367 0.034472 0.035367 0.070711h0.03625c0 0.035355 0.034482 0.035355 0.034482 0.035355h0.14146c0.24845 0 0.46064-1.0253 0.56674-1.4478 0.1061-0.42426 0.28381-0.77693 0.3183-1.1314 0.035366-0.31731 0.071617-0.52944 0.35366-2.0479 0.28381-1.5203-0.60034-3.1448-0.49424-3.638 0.14058-0.53033-0.3183-1.3081-0.24845-1.4496 0.070733-0.14054 0.2122-0.70534 0.3183-1.271 0.070733-0.56568 2.1237-5.5808 2.3359-6.7122 0.38991-2.1195 0.38991-3.0732 0.14235-4.5555 0.035366-1.096 0.49601-4.0623 0.56586-4.5935 0.036251-0.10607 0.036251-0.63463 0.1061-0.98729 0.036251-0.21302 0.070733-0.60104 0.070733-1.0598l0.035366 0.069826c0 0.49497 0.14235 1.3426 0.2122 2.6843-0.034482 1.096 0.49601 3.1095 0.56674 4.1684-0.14058 0.31731 0.38991 5.8637 0.38991 5.8637l-0.036251 0.034472v0.036239c-0.069848 0.21213-0.24756 0.77693-0.38814 1.5185l-0.03625 0.035355c0 0.036239 0 0.10695-0.035367 0.14142v0.071595c0 0.034471-0.034482 0.10606-0.034482 0.14054v0.069826c-0.035366 0.036239-0.035366 0.10783-0.035366 0.1423 0 0.035355-0.03625 0.069826-0.03625 0.069826 0 0.071594 0 0.10607-0.034482 0.1423v0.10606c0 0.034472-0.035367 0.069827-0.035367 0.14054v0.071594c-0.03625 0.070711-0.03625 0.10518-0.03625 0.14054 0 0.036239-0.035366 0.071594-0.035366 0.10607 0 0.036239 0 0.07071-0.034482 0.1423v0.10607c0 0.034471-0.036251 0.069826-0.036251 0.1043v0.10606c-0.035366 0.071594-0.035366 0.10607-0.035366 0.1423 0 0.034471-0.034482 0.069826-0.034482 0.10606v0.10607c-0.03625 0.034471-0.03625 0.07071-0.03625 0.14054v0.10606c-0.035367 0.036239-0.035367 0.070711-0.035367 0.10607 0 0.036239 0 0.07071-0.034482 0.10606v0.10607c0 0.034471 0 0.07071-0.03625 0.10606v0.10518c0 0.035355 0 0.071594-0.035366 0.10607v0.17766c-0.036251 0.069827-0.036251 0.1043-0.036251 0.14054v0.069827c0 0.036239 0 0.072478-0.034482 0.10606v0.24837c-0.035366 0.034472-0.035366 0.070711-0.035366 0.070711v0.35267c-0.1061 0.63639 0.14146 1.5194 0.069848 2.9327-0.1061 1.7651-1.6631 8.83 1.2405 17.732 0.17595 0.52856 0.17595 2.2954 0.38814 3.2854 0.03625 0.2466 0.53049 1.3417 0.56674 2.8965 0.035366 2.4722-0.2122 5.6515-0.14235 7.4175 0.1061 2.8965 1.3112 5.5455 1.771 7.4166 0.49513 1.8376 0.67284 3.3216 0.56674 3.6743-0.071616 0.3182-0.14235 0.95371 0.1061 1.484 0.035366 0.034471-0.81431 1.8712-1.275 2.1894-0.4244 0.35444-0.56586 0.63728-0.88416 0.81317-0.35455 0.17678-0.53226 0.35267-0.67284 0.74158-0.1061 0.28284-0.42439 0.7071-0.17772 0.91924 0.035366 0.034471 0.071617 0.034471 0.1061 0.069826h0.035366c-0.035366 0.10607-0.035366 0.17678 0 0.2466 0.14235 0.24837 0.38991 0.31908 0.70909 0.28284l0.035366-0.069826c0.034482 0.10606 0.034482 0.21213 0.1061 0.28196 0.2122 0.3182 0.92041 0.45873 1.2033 0.17678 0.035366 0.035355 0.069848 0.035355 0.14146 0.069827 0.034482 0 0.070732 0 0.1061 0.036239h0.070733c0.069848 0.035355 0.1061 0.035355 0.17772 0.035355 0.3183 0.036239 0.67196-0.035355 0.84879-0.21213v-0.035355c0 0.035355 0.035366 0.035355 0.035366 0.071594v-0.036239c0.17683 0.42426 0.74269 0.45873 1.2033 0.38891h0.1061l0.036251-0.036239h0.14146c0.070732-0.034472 0.1061-0.034472 0.17683-0.034472 0-0.035355 0.035366-0.035355 0.035366-0.035355 0.034482 0 0.070732-0.034471 0.1061-0.034471l0.034482-0.036239c0.035366 0 0.071616-0.035355 0.1061-0.035355 0 0 0-0.036239 0.035367-0.036239 0.03625 0 0.03625-0.034472 0.070732-0.034472 0-0.035355 0.035366-0.035355 0.035366-0.035355l0.072501-0.07071h0.034482c0.071617-0.069827 0.1061-0.14142 0.17772-0.17589 0.035366-0.036239 0.069848-0.07071 0.1061-0.10607 0.28205-0.21213 0.49424-0.38891 0.4244-0.91923-0.1061-0.52944-0.03625-0.52944 0.035366-1.165 0.034482-0.38802 0.35455-0.49409 0.4244-1.0951 0.03625-0.49497-0.35366-2.6145-0.3183-2.8965 0.1061-0.63551-0.35366-1.1658-0.49601-2.2618-0.17595-1.0598 0.24845-4.7323 0.24845-5.4032 0-1.2719 0.67196-3.357 0.49601-5.9353-0.10787-1.4823-0.85056-6.0395-0.85056-7.064 0-0.17766-0.034482-1.3417 0.03625-1.5194 0.2122-0.70622 1.168-9.043 1.168-9.1128 0.1061-0.84764 0.38903-5.5455 0.49513-7.1002h0.14146c0.1061 1.5185 0.38903 6.2526 0.49513 7.1002 0 0.069827 0.95666 8.4066 1.1689 9.1128 0.069848 0.17766 0.035366 1.3417 0.035366 1.5194 0 1.0244-0.74446 5.5817-0.85056 7.064-0.17595 2.5783 0.49601 4.6633 0.49601 5.9353 0 0.67086 0.42528 4.3434 0.24845 5.4032-0.14146 1.096-0.60211 1.6263-0.49601 2.2618 0.035366 0.28196-0.35455 2.4015-0.3183 2.8965 0.069848 0.60104 0.38991 0.7071 0.4244 1.0951 0.071616 0.63551 0.14146 0.63551 0.035366 1.165-0.069848 0.53033 0.14235 0.7071 0.42528 0.91923 0.035366 0.035356 0.069848 0.069827 0.1061 0.10607 0.069848 0.034471 0.1061 0.10606 0.17772 0.17589h0.034482l0.071617 0.07071s0.034482 0 0.034482 0.035355c0.035366 0 0.035366 0.034472 0.071616 0.034472 0.034482 0 0.034482 0.036239 0.034482 0.036239 0.035367 0 0.071617 0.035355 0.10698 0.035355l0.034482 0.036239c0.036251 0 0.071617 0.034471 0.1061 0.034471 0 0 0.03625 0 0.03625 0.035355 0.069849 0 0.1061 0 0.17595 0.034472h0.14235l0.035367 0.036239h0.2122c0.4244 0.035355 0.92041 0 1.0972-0.35267 0-0.036239 0-0.036239 0.035366-0.071594 0.17683 0.21213 0.53049 0.28372 0.84879 0.24749 0.072501 0 0.1061 0 0.1786-0.035355h0.069849c0.03625-0.036239 0.071616-0.036239 0.1061-0.036239 0.071617-0.034472 0.1061-0.034472 0.14235-0.069827 0.28205 0.28196 0.99026 0.14142 1.2025-0.17678 0.071617-0.069826 0.071617-0.17589 0.1061-0.2466l0.03625 0.034471c0.3183 0.036239 0.67196-0.069826 0.70821-0.28196 0.035366-0.070711 0.035366-0.14054 0.035366-0.24749 0.034482-0.035355 0.070733-0.035355 0.1061-0.069826 0.24668-0.21213-0.071617-0.63639-0.17772-0.91924-0.14146-0.38891-0.3183-0.5648-0.67196-0.74158-0.3183-0.17589-0.46064-0.45873-0.88504-0.81317-0.45976-0.3182-1.3094-2.1549-1.275-2.1894 0.24845-0.53033 0.17772-1.1658 0.1061-1.484-0.1061-0.35267 0.071616-1.8367 0.56674-3.6743 0.46064-1.8712 1.6631-4.5193 1.771-7.4166 0.069849-1.766-0.17772-4.9453-0.14235-7.4175 0.034482-1.5547 0.53049-2.6499 0.56674-2.8965 0.2122-0.98994 0.2122-2.7559 0.38814-3.2854 2.9036-8.9024 1.3457-15.967 1.2396-17.732h0.035366c-0.070733-1.4124 0.17772-2.2963 0.070732-2.9327v-0.17678c0-0.035356-0.034482-0.069827-0.034482-0.10607v-0.21213c0-0.034471 0-0.069826-0.03625-0.1043v-0.17766c0-0.034471 0-0.034471-0.035366-0.07071v-0.21213c-0.034482-0.034471-0.034482-0.07071-0.034482-0.10606v-0.070711c0-0.069826-0.036251-0.10606-0.036251-0.14054v-0.10606c0-0.035355-0.035366-0.071594-0.035366-0.10607v-0.10606c-0.034482-0.035355-0.034482-0.069827-0.034482-0.14142v-0.07071c-0.036251-0.035356-0.036251-0.10607-0.036251-0.14054 0-0.035355-0.035366-0.071594-0.035366-0.071594v-0.17678c-0.034482-0.034472-0.034482-0.034472-0.034482-0.069827 0-0.07071 0-0.10606-0.03625-0.1423v-0.1043c0-0.036239-0.035366-0.10607-0.035366-0.1423 0-0.035355 0-0.069826-0.034483-0.10606v-0.10607c-0.03625-0.035355-0.03625-0.069826-0.03625-0.10606 0-0.034472 0-0.10607-0.035366-0.14054v-0.10695c-0.034482-0.035355-0.034482-0.069826-0.034482-0.10606 0-0.035355-0.036251-0.069827-0.036251-0.10607v-0.14054c-0.035366-0.035355-0.035366-0.071594-0.035366-0.10695 0-0.034471-0.034482-0.07071-0.034482-0.10518 0-0.035355 0-0.071594-0.03625-0.10606v-0.071594c0-0.069827-0.035367-0.1043-0.035367-0.14054v-0.069827c-0.03625-0.036239-0.03625-0.10695-0.03625-0.1423l-0.033598-0.034472c0-0.071594 0-0.10606-0.03625-0.1423v-0.035355c-0.1061-0.49497-0.2122-0.88211-0.28381-1.0598 0-0.034471 0-0.07071-0.034482-0.07071 0-0.035355 0.034482-0.035355 0.034482-0.035355l-0.034482-0.034472s0.49601-5.5463 0.38903-5.8637c0.035366-1.0598 0.60211-3.0732 0.53138-4.1684 0.070732-1.3426 0.24668-2.1894 0.24668-2.6843v-0.07071c0.036251 0.45962 0.071617 0.84764 0.071617 1.0598 0.070732 0.35267 0.070732 0.88211 0.14235 0.98818 0.069848 0.53033 0.49424 3.4975 0.53049 4.5935-0.2122 1.4823-0.24845 2.436 0.17595 4.5555 0.17772 1.1314 2.2316 6.1456 2.3377 6.7122 0.1061 0.5648 0.24756 1.1305 0.3183 1.271 0.069848 0.14142-0.4244 0.91923-0.28381 1.4496 0.14146 0.4932-0.77894 2.1178-0.49513 3.638 0.28293 1.5185 0.3183 1.7306 0.35455 2.0479 0.034482 0.35355 0.24756 0.70622 0.35366 1.1314 0.1061 0.4225 0.28293 1.4478 0.53049 1.4478h0.17683v-0.035355h0.035366c0.036251-0.036239 0.036251-0.036239 0.070733-0.070711v-0.035355 0.035355-0.071594s0.071616 0.95459 0.56586 0.95459c0.3183-0.035355 0.3183-0.3182 0.3183-0.3182s0.0725 0.77781 0.53226 0.70622c0.4244-0.07071 0.4244-0.49409 0.4244-0.49409 0.28381 0.14054 0.74269 0.10607 0.84879-0.38802 0.10787-0.49497 0.35455-1.484 0.32006-1.8729 0-0.35267 0.24756-1.1658 0.24756-1.4832 0.24668-0.95459 0.49513-1.2719 0.4244-1.5539 0.3183 0.35267 0.60123 0.70534 0.74358 0.77693 0.069848 0.5648 0.63748 1.4124 1.0964 1.4469 0.60211 0.036239 0.46064-0.38714 0.28381-0.84764z" fill="none" stroke-width=".53358"/>
<path transform="matrix(4.4181 0 0 4.4194 -781.84 -337.19)" d="m233.78 137.01c-0.17772-0.49497-0.2122-1.0598-0.38991-1.2719-0.17683-0.21036-0.46064-1.4469-0.77894-1.8358-0.3183-0.42426-1.5207-2.2247-1.839-2.5076-0.10787-0.17678-0.03625-0.883-0.17772-1.378-0.14235-0.49497-0.1061-0.98994-0.24845-1.5547-0.14058-0.60104-0.14058-1.7306-0.17595-2.5076-0.070732-1.3426-0.070732-6.5708-0.85056-8.4782-0.14058-0.60104-0.3183-1.5539-0.28293-2.9327-0.069848-3.7423-0.92041-5.8972-0.84967-7.0631 0.24756-1.697-0.14058-3.4975-0.46064-4.91-0.67107-3.0388-2.1582-3.8502-2.8302-3.9925-0.70821-0.14054-1.771-0.2466-2.2316-0.70534-0.35366-0.28284-2.725-1.378-3.3978-1.4487-1.7692-0.3182-1.4509-3.4975-1.4509-4.133 0.035366-0.071594 0.035366-0.14142 0.071617-0.17766v-0.034471c0.034482-0.035355 0.034482-0.10607 0.069848-0.17589v-0.036239c0.03625-0.069827 0.03625-0.14142 0.070732-0.21213v-0.034472c0-0.071594 0.035367-0.14142 0.035367-0.21213h0.03625c0-0.10606 0.034482-0.17678 0.034482-0.24837 0-0.069826 0.035366-0.17589 0.035366-0.2466 0.036251-0.069827 0.036251-0.14142 0.036251-0.21213 0.034482-0.069827 0.034482-0.14054 0.034482-0.17589v-0.070711c0.071616-0.035355 0.14146-0.069826 0.24756-0.14142 0.036251-0.036239 0.036251-0.036239 0.071617-0.036239v-0.034471c0.034482 0 0.034482-0.035355 0.034482-0.035355 0.03625 0 0.03625-0.034471 0.03625-0.034471s0.035367 0 0.035367-0.036239l0.034482-0.035356c0.1061-0.14054 0.14235-0.31731 0.28381-0.49409 0.1061-0.21213 0.070732-0.35355 0.17683-0.67175 0.1061-0.31731 0.17772-0.81228 0.17772-0.98818 0-0.21213 0.2122-0.74334 0.2122-0.98994 0-0.17589-0.071616-0.3182-0.14235-0.35267 0 0 0.036251 0 0.036251-0.035355 0.034482 0 0.034482-0.036239 0.034482-0.036239 0-0.2466-0.1061-0.84764-0.070733-1.0942 0-0.17589 0.036251-0.7071 0.036251-0.91924 0-0.38802-0.2122-0.77693-0.3183-1.1296-0.1061-0.38891-0.1061-0.8114-0.21397-1.1658-0.14058-0.45873-0.45976-0.74157-0.88416-0.98906-0.3183-0.17678-0.70909-0.21125-0.88504-0.49409-0.1061-0.14142 0-0.17766-0.2122-0.28373-0.1061-0.069826-0.3183-0.1043-0.4244-0.14054-0.32006-0.069827-0.74446-0.2466-0.67284-0.63551-0.45976-0.10606-1.2042 0.28284-1.5924-0.10606h-0.2847c-0.24668 0.07071-0.56586 0.034471-0.81431-0.069827-0.1061 0.21036-0.60034 0.4225-0.88416 0.4225-0.35455 0-0.74269 0.07071-0.95489 0.38891 0.14146-0.035356 0.3183-0.10607 0.38814 0-0.92041 0.49497-2.0521 1.2003-2.1582 2.3317-0.035366 0.49497-0.28381 0.88211-0.31918 1.3771-0.034482 0.49409-0.4244 0.74246-0.24845 1.2374-0.034482 0.31643 0.071617 0.31643 0.071617 0.59927-0.1061 0.3182 0.17683 0.7071 0.17683 0.7071-0.034482 0-0.070732 0.069826-0.1061 0.14142-0.03625 0.034471-0.03625 0.034471-0.03625 0.07071v0.034471c-0.034482 0.035356-0.034482 0.071595-0.034482 0.14142 0 0.24749 0.24845 0.77781 0.24845 0.98994 0 0.17589 0.034482 0.67086 0.17595 0.98818 0.1061 0.3182 0.03625 0.45962 0.1786 0.67263 0.1061 0.17589 0.14058 0.35267 0.24668 0.4932 0.035366 0 0.035366 0.035356 0.035366 0.035356l0.1061 0.10606 0.03625 0.034471 0.034482 0.036239h0.035366c0.070733 0.071595 0.17772 0.14142 0.2122 0.14142 0 0.070711 0.03625 0.14054 0.03625 0.21213v0.21125c0 0.03624 0.035366 0.071595 0.035366 0.1423v0.14054c0 0.035355 0.034482 0.071594 0.034482 0.10606v0.10607c0 0.035355 0 0.035355 0.035367 0.069826v0.1423s0.03625 0.035355 0.03625 0.069827v0.10606c0.034482 0.036239 0.034482 0.036239 0.034482 0.07071v0.071595l0.035366 0.034471v0.071594l0.036251 0.034472v0.07071l0.034482 0.035355v0.036239c0.035366 0.034471 0.035366 0.069827 0.035366 0.10607 0.03625 0 0.03625 0.034471 0.070732 0.069826v0.07071c0 0.38891 0.071617 1.2357-0.070732 2.0851v0.034471c0 0.035356-0.035366 0.035356-0.035366 0.035356-0.14058 0.88388-0.53049 1.6953-1.3448 1.8376-0.70732 0.069827-3.0786 1.1658-3.3987 1.4478-0.45888 0.45873-1.557 0.5648-2.2298 0.70534-0.70821 0.1423-2.1591 0.9537-2.8673 3.9925-0.3183 1.4124-0.67284 3.2138-0.45888 4.91 0.1061 1.1658-0.74446 3.3207-0.85056 7.064 0.036251 1.378-0.1061 2.3317-0.28204 2.9327-0.78071 1.9065-0.78071 7.1356-0.81431 8.4773-0.03625 0.77693-0.03625 1.9074-0.1786 2.5084-0.14058 0.5648-0.034482 1.0598-0.2122 1.5539-0.14146 0.49497-0.069848 1.2021-0.17595 1.378-0.28381 0.28284-1.5225 2.0842-1.8408 2.5084-0.28381 0.38891-0.63659 1.6246-0.81431 1.8358-0.17683 0.21213-0.21308 0.77693-0.42528 1.2719-0.17772 0.45962-0.3183 0.883 0.2847 0.84676 0.49424-0.033588 1.0265-0.88123 1.1326-1.4469 0.14058-0.071594 0.42439-0.42426 0.74269-0.77693-0.070732 0.28284 0.14146 0.59927 0.38991 1.5547 0 0.31643 0.28205 1.1296 0.24668 1.4823-0.034482 0.38891 0.2122 1.378 0.3183 1.8729 0.10698 0.49497 0.56586 0.52944 0.88592 0.38891 0 0-0.035366 0.4225 0.4244 0.4932 0.4244 0.071594 0.49513-0.70534 0.49513-0.70534s0 0.28196 0.31918 0.3182c0.49513 0 0.56674-0.95547 0.56674-0.95547l0.034482 0.036239v0.035355-0.035355 0.035355c0 0.034472 0.035367 0.034472 0.035367 0.070711h0.03625c0 0.035355 0.034482 0.035355 0.034482 0.035355h0.14146c0.24845 0 0.46064-1.0253 0.56674-1.4478 0.1061-0.42426 0.28381-0.77693 0.3183-1.1314 0.035366-0.31731 0.071617-0.52944 0.35366-2.0479 0.28381-1.5203-0.60034-3.1448-0.49424-3.638 0.14058-0.53033-0.3183-1.3081-0.24845-1.4496 0.070733-0.14054 0.2122-0.70534 0.3183-1.271 0.070733-0.56568 2.1237-5.5808 2.3359-6.7122 0.38991-2.1195 0.38991-3.0732 0.14235-4.5555 0.035366-1.096 0.49601-4.0623 0.56586-4.5935 0.036251-0.10607 0.036251-0.63463 0.1061-0.98729 0.036251-0.21302 0.070733-0.60104 0.070733-1.0598l0.035366 0.069826c0 0.49497 0.14235 1.3426 0.2122 2.6843-0.034482 1.096 0.49601 3.1095 0.56674 4.1684-0.14058 0.31731 0.38991 5.8637 0.38991 5.8637l-0.036251 0.034472v0.036239c-0.069848 0.21213-0.24756 0.77693-0.38814 1.5185l-0.03625 0.035355c0 0.036239 0 0.10695-0.035367 0.14142v0.071595c0 0.034471-0.034482 0.10606-0.034482 0.14054v0.069826c-0.035366 0.036239-0.035366 0.10783-0.035366 0.1423 0 0.035355-0.03625 0.069826-0.03625 0.069826 0 0.071594 0 0.10607-0.034482 0.1423v0.10606c0 0.034472-0.035367 0.069827-0.035367 0.14054v0.071594c-0.03625 0.070711-0.03625 0.10518-0.03625 0.14054 0 0.036239-0.035366 0.071594-0.035366 0.10607 0 0.036239 0 0.07071-0.034482 0.1423v0.10607c0 0.034471-0.036251 0.069826-0.036251 0.1043v0.10606c-0.035366 0.071594-0.035366 0.10607-0.035366 0.1423 0 0.034471-0.034482 0.069826-0.034482 0.10606v0.10607c-0.03625 0.034471-0.03625 0.07071-0.03625 0.14054v0.10606c-0.035367 0.036239-0.035367 0.070711-0.035367 0.10607 0 0.036239 0 0.07071-0.034482 0.10606v0.10607c0 0.034471 0 0.07071-0.03625 0.10606v0.10518c0 0.035355 0 0.071594-0.035366 0.10607v0.17766c-0.036251 0.069827-0.036251 0.1043-0.036251 0.14054v0.069827c0 0.036239 0 0.072478-0.034482 0.10606v0.24837c-0.035366 0.034472-0.035366 0.070711-0.035366 0.070711v0.35267c-0.1061 0.63639 0.14146 1.5194 0.069848 2.9327-0.1061 1.7651-1.6631 8.83 1.2405 17.732 0.17595 0.52856 0.17595 2.2954 0.38814 3.2854 0.03625 0.2466 0.53049 1.3417 0.56674 2.8965 0.035366 2.4722-0.2122 5.6515-0.14235 7.4175 0.1061 2.8965 1.3112 5.5455 1.771 7.4166 0.49513 1.8376 0.67284 3.3216 0.56674 3.6743-0.071616 0.3182-0.14235 0.95371 0.1061 1.484 0.035366 0.034471-0.81431 1.8712-1.275 2.1894-0.4244 0.35444-0.56586 0.63728-0.88416 0.81317-0.35455 0.17678-0.53226 0.35267-0.67284 0.74158-0.1061 0.28284-0.42439 0.7071-0.17772 0.91924 0.035366 0.034471 0.071617 0.034471 0.1061 0.069826h0.035366c-0.035366 0.10607-0.035366 0.17678 0 0.2466 0.14235 0.24837 0.38991 0.31908 0.70909 0.28284l0.035366-0.069826c0.034482 0.10606 0.034482 0.21213 0.1061 0.28196 0.2122 0.3182 0.92041 0.45873 1.2033 0.17678 0.035366 0.035355 0.069848 0.035355 0.14146 0.069827 0.034482 0 0.070732 0 0.1061 0.036239h0.070733c0.069848 0.035355 0.1061 0.035355 0.17772 0.035355 0.3183 0.036239 0.67196-0.035355 0.84879-0.21213v-0.035355c0 0.035355 0.035366 0.035355 0.035366 0.071594v-0.036239c0.17683 0.42426 0.74269 0.45873 1.2033 0.38891h0.1061l0.036251-0.036239h0.14146c0.070732-0.034472 0.1061-0.034472 0.17683-0.034472 0-0.035355 0.035366-0.035355 0.035366-0.035355 0.034482 0 0.070732-0.034471 0.1061-0.034471l0.034482-0.036239c0.035366 0 0.071616-0.035355 0.1061-0.035355 0 0 0-0.036239 0.035367-0.036239 0.03625 0 0.03625-0.034472 0.070732-0.034472 0-0.035355 0.035366-0.035355 0.035366-0.035355l0.072501-0.07071h0.034482c0.071617-0.069827 0.1061-0.14142 0.17772-0.17589 0.035366-0.036239 0.069848-0.07071 0.1061-0.10607 0.28205-0.21213 0.49424-0.38891 0.4244-0.91923-0.1061-0.52944-0.03625-0.52944 0.035366-1.165 0.034482-0.38802 0.35455-0.49409 0.4244-1.0951 0.03625-0.49497-0.35366-2.6145-0.3183-2.8965 0.1061-0.63551-0.35366-1.1658-0.49601-2.2618-0.17595-1.0598 0.24845-4.7323 0.24845-5.4032 0-1.2719 0.67196-3.357 0.49601-5.9353-0.10787-1.4823-0.85056-6.0395-0.85056-7.064 0-0.17766-0.034482-1.3417 0.03625-1.5194 0.2122-0.70622 1.168-9.043 1.168-9.1128 0.1061-0.84764 0.38903-5.5455 0.49513-7.1002h0.14146c0.1061 1.5185 0.38903 6.2526 0.49513 7.1002 0 0.069827 0.95666 8.4066 1.1689 9.1128 0.069848 0.17766 0.035366 1.3417 0.035366 1.5194 0 1.0244-0.74446 5.5817-0.85056 7.064-0.17595 2.5783 0.49601 4.6633 0.49601 5.9353 0 0.67086 0.42528 4.3434 0.24845 5.4032-0.14146 1.096-0.60211 1.6263-0.49601 2.2618 0.035366 0.28196-0.35455 2.4015-0.3183 2.8965 0.069848 0.60104 0.38991 0.7071 0.4244 1.0951 0.071616 0.63551 0.14146 0.63551 0.035366 1.165-0.069848 0.53033 0.14235 0.7071 0.42528 0.91923 0.035366 0.035356 0.069848 0.069827 0.1061 0.10607 0.069848 0.034471 0.1061 0.10606 0.17772 0.17589h0.034482l0.071617 0.07071s0.034482 0 0.034482 0.035355c0.035366 0 0.035366 0.034472 0.071616 0.034472 0.034482 0 0.034482 0.036239 0.034482 0.036239 0.035367 0 0.071617 0.035355 0.10698 0.035355l0.034482 0.036239c0.036251 0 0.071617 0.034471 0.1061 0.034471 0 0 0.03625 0 0.03625 0.035355 0.069849 0 0.1061 0 0.17595 0.034472h0.14235l0.035367 0.036239h0.2122c0.4244 0.035355 0.92041 0 1.0972-0.35267 0-0.036239 0-0.036239 0.035366-0.071594 0.17683 0.21213 0.53049 0.28372 0.84879 0.24749 0.072501 0 0.1061 0 0.1786-0.035355h0.069849c0.03625-0.036239 0.071616-0.036239 0.1061-0.036239 0.071617-0.034472 0.1061-0.034472 0.14235-0.069827 0.28205 0.28196 0.99026 0.14142 1.2025-0.17678 0.071617-0.069826 0.071617-0.17589 0.1061-0.2466l0.03625 0.034471c0.3183 0.036239 0.67196-0.069826 0.70821-0.28196 0.035366-0.070711 0.035366-0.14054 0.035366-0.24749 0.034482-0.035355 0.070733-0.035355 0.1061-0.069826 0.24668-0.21213-0.071617-0.63639-0.17772-0.91924-0.14146-0.38891-0.3183-0.5648-0.67196-0.74158-0.3183-0.17589-0.46064-0.45873-0.88504-0.81317-0.45976-0.3182-1.3094-2.1549-1.275-2.1894 0.24845-0.53033 0.17772-1.1658 0.1061-1.484-0.1061-0.35267 0.071616-1.8367 0.56674-3.6743 0.46064-1.8712 1.6631-4.5193 1.771-7.4166 0.069849-1.766-0.17772-4.9453-0.14235-7.4175 0.034482-1.5547 0.53049-2.6499 0.56674-2.8965 0.2122-0.98994 0.2122-2.7559 0.38814-3.2854 2.9036-8.9024 1.3457-15.967 1.2396-17.732h0.035366c-0.070733-1.4124 0.17772-2.2963 0.070732-2.9327v-0.17678c0-0.035356-0.034482-0.069827-0.034482-0.10607v-0.21213c0-0.034471 0-0.069826-0.03625-0.1043v-0.17766c0-0.034471 0-0.034471-0.035366-0.07071v-0.21213c-0.034482-0.034471-0.034482-0.07071-0.034482-0.10606v-0.070711c0-0.069826-0.036251-0.10606-0.036251-0.14054v-0.10606c0-0.035355-0.035366-0.071594-0.035366-0.10607v-0.10606c-0.034482-0.035355-0.034482-0.069827-0.034482-0.14142v-0.07071c-0.036251-0.035356-0.036251-0.10607-0.036251-0.14054 0-0.035355-0.035366-0.071594-0.035366-0.071594v-0.17678c-0.034482-0.034472-0.034482-0.034472-0.034482-0.069827 0-0.07071 0-0.10606-0.03625-0.1423v-0.1043c0-0.036239-0.035366-0.10607-0.035366-0.1423 0-0.035355 0-0.069826-0.034483-0.10606v-0.10607c-0.03625-0.035355-0.03625-0.069826-0.03625-0.10606 0-0.034472 0-0.10607-0.035366-0.14054v-0.10695c-0.034482-0.035355-0.034482-0.069826-0.034482-0.10606 0-0.035355-0.036251-0.069827-0.036251-0.10607v-0.14054c-0.035366-0.035355-0.035366-0.071594-0.035366-0.10695 0-0.034471-0.034482-0.07071-0.034482-0.10518 0-0.035355 0-0.071594-0.03625-0.10606v-0.071594c0-0.069827-0.035367-0.1043-0.035367-0.14054v-0.069827c-0.03625-0.036239-0.03625-0.10695-0.03625-0.1423l-0.033598-0.034472c0-0.071594 0-0.10606-0.03625-0.1423v-0.035355c-0.1061-0.49497-0.2122-0.88211-0.28381-1.0598 0-0.034471 0-0.07071-0.034482-0.07071 0-0.035355 0.034482-0.035355 0.034482-0.035355l-0.034482-0.034472s0.49601-5.5463 0.38903-5.8637c0.035366-1.0598 0.60211-3.0732 0.53138-4.1684 0.070732-1.3426 0.24668-2.1894 0.24668-2.6843v-0.07071c0.036251 0.45962 0.071617 0.84764 0.071617 1.0598 0.070732 0.35267 0.070732 0.88211 0.14235 0.98818 0.069848 0.53033 0.49424 3.4975 0.53049 4.5935-0.2122 1.4823-0.24845 2.436 0.17595 4.5555 0.17772 1.1314 2.2316 6.1456 2.3377 6.7122 0.1061 0.5648 0.24756 1.1305 0.3183 1.271 0.069848 0.14142-0.4244 0.91923-0.28381 1.4496 0.14146 0.4932-0.77894 2.1178-0.49513 3.638 0.28293 1.5185 0.3183 1.7306 0.35455 2.0479 0.034482 0.35355 0.24756 0.70622 0.35366 1.1314 0.1061 0.4225 0.28293 1.4478 0.53049 1.4478h0.17683v-0.035355h0.035366c0.036251-0.036239 0.036251-0.036239 0.070733-0.070711v-0.035355 0.035355-0.071594s0.071616 0.95459 0.56586 0.95459c0.3183-0.035355 0.3183-0.3182 0.3183-0.3182s0.0725 0.77781 0.53226 0.70622c0.4244-0.07071 0.4244-0.49409 0.4244-0.49409 0.28381 0.14054 0.74269 0.10607 0.84879-0.38802 0.10787-0.49497 0.35455-1.484 0.32006-1.8729 0-0.35267 0.24756-1.1658 0.24756-1.4832 0.24668-0.95459 0.49513-1.2719 0.4244-1.5539 0.3183 0.35267 0.60123 0.70534 0.74358 0.77693 0.069848 0.5648 0.63748 1.4124 1.0964 1.4469 0.60211 0.036239 0.46064-0.38714 0.28381-0.84764z" fill="none" stroke-width=".53358"/>
<path transform="matrix(4.4181 0 0 4.4194 -330.54 -334.75)" d="m232.76 134.23c-0.10522-0.24218-0.31299-1.834-0.55525-2.7683-0.17241-0.76102-0.38196-4.0128-0.27762-5.5013 0.10522-1.2109 0.034482-3.0441 0.068964-3.8405 0.036251-4.4618-0.69318-6.7458-0.86647-7.5766-0.17418-0.83085-0.38196-2.0064-0.38196-3.806 0-1.7987 0.070732-4.2559-0.068964-5.9847-0.068965-1.0032-0.24226-2.5261-0.45004-3.8405-0.20866-1.3152-0.86736-3.0803-1.4226-3.669-0.55437-0.62137-1.3174-1.1066-2.114-1.3833-0.20778-0.068942-0.52077-0.31112-0.72854-0.3456-0.31211-0.068943-0.4854-0.2086-0.76214-0.24307-0.58973-0.10341-1.1105-0.17236-1.5959-0.3456-1.0389-0.31113-1.8718-0.62314-2.0795-3.0096v-0.10341c1.2475 1.3488 2.427-0.38007 2.427-0.38007-0.24314 0.17236-0.72943-0.036239-0.72943-0.036239 0.69495 0.2086 0.97169-0.62225 0.97169-0.62225-0.31122 0.20771-0.41644 0.034471-0.41644 0.034471 0.52077-0.20683 0.4854-0.86443 0.4854-0.86443-0.24226 0.86443-1.4208 1.0032-1.1096 0.034471 0.52077-1.6608 1.0407-5.0858-0.48452-8.2333-1.5605-3.1493-5.5481-1.8005-5.5481-1.8005-0.76391-0.48437-2.3925 0.76102-3.1202 1.7642-0.72854 1.0394-1.5959 4.6368 0.10345 7.2664 0.83199 1.3143-0.068964 2.0064-0.38196 1.8685-0.27674-0.1043-0.24226-0.38007-0.24226-0.45078-0.17329 0.72832 0.38196 1.0394 0.38196 1.0394-0.34747-0.13965-0.52077-0.45078-0.52077-0.45078 0.033598 0.72655 0.79751 0.93426 0.79751 0.93426-0.4854-0.034471-0.69318-0.31112-0.69318-0.31112 0.1733 0.55419 1.4217 1.1066 2.0804 0.17236-0.20778 2.7338-1.145 2.8726-2.0804 3.1484-0.4854 0.17412-1.0062 0.24307-1.5941 0.3456-0.27851 0.035355-0.48628 0.17412-0.79839 0.2086-0.20778 0.034472-0.45004 0.27666-0.6587 0.3456-0.83199 0.27754-1.5959 0.79638-2.1494 1.3842-0.58973 0.62225-1.2139 2.3874-1.4226 3.7026-0.20778 1.3143-0.38107 2.8373-0.48452 3.8405-0.1397 1.7298-0.034482 4.1861-0.034482 5.9847 0 1.7996-0.24226 2.9751-0.41644 3.806-0.17329 0.83085-0.86647 3.1148-0.83199 7.5766 0 0.79638-0.034483 2.6295 0.034482 3.8405 0.13881 1.4885-0.068965 4.7402-0.27674 5.5013-0.20866 0.93426-0.45092 2.5261-0.55613 2.7683-0.10256 0.20683 0.10521 0.51795 0.24314 0.76102 0.10433 0.24218 0.069848 0.45078 0.24226 0.79461 0.10433 0.24307 0.48629 0.79726 0.6587 1.1084 0.1733 0.27666 0.90272 0.65761 1.4907 0.82908 0.38196 0.17412 1.1114 0.55419 1.1803 0.38184 0.13881-0.38184-0.10345-0.65672-0.41644-0.79638-0.17329-0.10341 0.34747 0.2086 0.45092-0.13788 0.034482-0.1043 0.034482-0.17324-0.034482-0.3456 0.068964-0.20771 0-0.20771-0.1397-0.41454 0.27851-0.07071 0.070733-1.2118-0.034482-1.766 0.034482-0.41454 0.070733-1.7289-0.24226-2.6631-0.20778-0.55419-0.27674-1.1084-0.27674-1.454-0.17418-0.82996 0.76214-6.7113 1.3174-8.373 1.0398-3.4931 0.69318-6.5045 0.79662-7.1276 0.13881-0.62137 0.83199-3.8749 1.0398-5.3271l0.034482 0.034472c0.10522 1.7651-0.068964 4.4636-0.034482 5.3634 0.070733 1.2454-0.27674 3.5293-0.79662 4.5325-0.55525 1.0032-0.79751 2.5588-1.2829 5.3616-0.45004 2.2141-0.79751 4.5325-0.41555 8.5462 0.31122 2.8019 0.79662 4.567 1.4907 7.68 0.6587 2.8028 1.5597 6.5045 1.9416 8.5816 0.3457 2.0753 0.86736 2.8373 0.93544 4.1861 0.10521 1.3488-0.79751 7.7154 0.20866 11.383 0.97169 3.7017 1.4217 6.0192 1.5941 6.919 0.4518 1.9719 0.070733 2.1805 0.24403 3.1837 0.17241 0.96873 0.20778 0.86532-0.31299 1.834-0.45004 0.62314-1.2122 1.9719-1.4562 2.2486-0.20866 0.31201-0.10345 0.62314 0 0.79549-0.17241 0.48525 0.38107 0.72566 0.55525 0.72566-0.068964 0.55419 0.93544 0.48525 1.1777 0.24307 0.27851 0.31113 1.0407 0.31113 1.3192-0.068943 0.4854 0.44901 1.3519 0.44901 1.8718-0.10341 0.55525-0.55419 0.62421-1.0739 0.55525-1.6263-0.068965-0.51972 0.068964-0.72743 0.17329-1.385 0.10345-0.65672 0.20778-1.1756-0.035366-1.6255-0.24314-0.48437-0.27762-0.72655-0.27762-1.1756 0-0.48525 0.20866-1.2118-0.10345-1.7996-0.31211-0.62314-0.6587-2.0409-0.58973-3.5983 0.034482-1.5574 1.1803-10.276 0.69318-13.251-0.48452-3.0096-0.27674-3.5983-0.17241-4.6359 0.13793-1.0032 0.41555-2.6649 0.13793-4.8092-0.10345-0.83085 0.27762-4.2214 0.31211-7.7499 0.035366-2.2839 0.31211-5.328-0.31211-5.9512v-0.035355c0.17418 0.07071 0.34747 0.1043 0.4854 0.1043h0.035367c0.17241 0 0.38107-0.034472 0.58885-0.13877l-0.034482 0.070711c-0.62421 0.62225-0.41644 3.6663-0.41644 5.9158 0.034482 3.5284 0.4854 6.9535 0.38196 7.7843-0.27674 2.1443 0.034482 3.806 0.1733 4.8092 0.10345 1.0377 0.27762 1.6263-0.20778 4.6359-0.48452 2.9751 0.6587 11.694 0.72766 13.251 0.070733 1.5574-0.31122 2.9751-0.58973 3.5983-0.31122 0.58778-0.13793 1.3143-0.13793 1.7996 0 0.44901 0 0.69119-0.24226 1.1756-0.24226 0.45078-0.17418 0.96873-0.034482 1.6255 0.10345 0.65761 0.24226 0.8662 0.17241 1.385-0.068964 0.55331 0 1.0721 0.52077 1.6263 0.55348 0.55242 1.3864 0.55242 1.8709 0.10341 0.31299 0.38007 1.0751 0.38007 1.3536 0.068943 0.24226 0.24218 1.2484 0.31113 1.1786-0.24218 0.17329 0 0.69406-0.2413 0.52077-0.72655 0.13793-0.17236 0.24226-0.48348 0-0.79549-0.24403-0.27666-0.97169-1.6255-1.4226-2.2486-0.519-0.96873-0.48452-0.86532-0.31122-1.834 0.17241-1.0032-0.20778-1.2118 0.20778-3.1837 0.20689-0.89979 0.6587-3.2173 1.6295-6.919 1.0053-3.6672 0.10433-10.034 0.17329-11.383 0.10345-1.3488 0.69318-2.2831 1.0407-4.3257 0.3457-2.0753 1.2122-5.6392 1.8726-8.4419 0.69318-3.113 1.2467-4.8437 1.5597-7.6447 0.38196-3.9801 0.034482-6.4011-0.38196-8.6161-0.48452-2.8028-0.90096-4.7058-1.4217-5.709-0.55436-1.0032-0.72766-2.9751-0.6587-4.2214 0.034482-0.93249-0.24226-3.5974-0.13793-5.3616 0.20778 1.4522 0.93544 4.7402 1.0407 5.3616 0.13793 0.62314-0.20866 3.6345 0.83199 7.1276 0.51988 1.6617 1.4553 7.543 1.3165 8.373 0 0.3456-0.10345 0.89979-0.27762 1.454-0.31122 0.93426-0.27674 2.2486-0.24226 2.6631-0.13881 0.55419-0.31122 1.6953-0.068964 1.766-0.13881 0.20683-0.1733 0.20683-0.10433 0.41454-0.10345 0.17236-0.10345 0.2413-0.068964 0.3456 0.13881 0.34648 0.6587 0.034471 0.48452 0.13788-0.31122 0.13965-0.55348 0.41454-0.41555 0.79638 0.069849 0.17236 0.79751-0.20771 1.1795-0.38184 0.58796-0.17147 1.2829-0.55242 1.4907-0.82908 0.17241-0.31112 0.55436-0.86532 0.6587-1.1084 0.13793-0.34383 0.10345-0.55242 0.24314-0.79461 0.10256-0.24307 0.34659-0.55419 0.20778-0.76102zm-19.279-43.837v-0.034471z" fill="none" stroke-width=".53358"/>
<path transform="matrix(4.4181 0 0 4.4194 -330.54 -334.75)" d="m232.76 134.23c-0.10522-0.24218-0.31299-1.834-0.55525-2.7683-0.17241-0.76102-0.38196-4.0128-0.27762-5.5013 0.10522-1.2109 0.034482-3.0441 0.068964-3.8405 0.036251-4.4618-0.69318-6.7458-0.86647-7.5766-0.17418-0.83085-0.38196-2.0064-0.38196-3.806 0-1.7987 0.070732-4.2559-0.068964-5.9847-0.068965-1.0032-0.24226-2.5261-0.45004-3.8405-0.20866-1.3152-0.86736-3.0803-1.4226-3.669-0.55437-0.62137-1.3174-1.1066-2.114-1.3833-0.20778-0.068942-0.52077-0.31112-0.72854-0.3456-0.31211-0.068943-0.4854-0.2086-0.76214-0.24307-0.58973-0.10341-1.1105-0.27666-1.5959-0.3456-2.1494-0.27577-2.0795-3.113-2.0795-3.113 1.2475 1.3488 2.427-0.38007 2.427-0.38007-0.24314 0.17236-0.72943-0.036239-0.72943-0.036239 0.69495 0.2086 0.97169-0.62225 0.97169-0.62225-0.31122 0.20771-0.41644 0.034471-0.41644 0.034471 0.52077-0.20683 0.4854-0.86443 0.4854-0.86443-0.24226 0.86443-1.4208 1.0032-1.1096 0.034471 0.52077-1.6608 1.0407-5.0858-0.48452-8.2333-1.5605-3.1493-5.5481-1.8005-5.5481-1.8005-0.76391-0.48437-2.3925 0.76102-3.1202 1.7642-0.72854 1.0394-1.5959 4.6368 0.10345 7.2664 0.83199 1.3143-0.068964 2.0064-0.38196 1.8685-0.27674-0.1043-0.24226-0.38007-0.24226-0.45078-0.17329 0.72832 0.38196 1.0394 0.38196 1.0394-0.34747-0.13965-0.52077-0.45078-0.52077-0.45078 0.033598 0.72655 0.79751 0.93426 0.79751 0.93426-0.4854-0.034471-0.69318-0.31112-0.69318-0.31112 0.1733 0.55419 1.4217 1.1066 2.0804 0.17236-0.20778 2.7338-1.145 2.8726-2.0804 3.1484-0.4854 0.17412-1.0062 0.24307-1.5941 0.3456-0.27851 0.035355-0.48628 0.17412-0.79839 0.2086-0.20778 0.034472-0.45004 0.27666-0.6587 0.3456-0.83199 0.27754-1.5959 0.79638-2.1494 1.3842-0.58973 0.62225-1.2139 2.3874-1.4226 3.7026-0.20778 1.3143-0.38107 2.8373-0.48452 3.8405-0.1397 1.7298-0.034482 4.1861-0.034482 5.9847 0 1.7996-0.24226 2.9751-0.41644 3.806-0.17329 0.83085-0.86647 3.1148-0.83199 7.5766 0 0.79638-0.034483 2.6295 0.034482 3.8405 0.13881 1.4885-0.068965 4.7402-0.27674 5.5013-0.20866 0.93426-0.45092 2.5261-0.55613 2.7683-0.10256 0.20683 0.10521 0.51795 0.24314 0.76102 0.10433 0.24218 0.069848 0.45078 0.24226 0.79461 0.10433 0.24307 0.48629 0.79726 0.6587 1.1084 0.1733 0.27666 0.90272 0.65761 1.4907 0.82908 0.38196 0.17412 1.1114 0.55419 1.1803 0.38184 0.13881-0.38184-0.10345-0.65672-0.41644-0.79638-0.17329-0.10341 0.34747 0.2086 0.45092-0.13788 0.034482-0.1043 0.034482-0.17324-0.034482-0.3456 0.068964-0.20771 0-0.20771-0.1397-0.41454 0.27851-0.07071 0.070733-1.2118-0.034482-1.766 0.034482-0.41454 0.070733-1.7289-0.24226-2.6631-0.20778-0.55419-0.27674-1.1084-0.27674-1.454-0.17418-0.82996 0.76214-6.7113 1.3174-8.373 1.0398-3.4931 0.69318-6.5045 0.79662-7.1276 0.13881-0.62137 0.83199-3.8749 1.0398-5.3271l0.034482 0.034472c0.10522 1.7651-0.068964 4.4636-0.034482 5.3634 0.070733 1.2454-0.27674 3.5293-0.79662 4.5325-0.55525 1.0032-0.79751 2.5588-1.2829 5.3616-0.45004 2.2141-0.79751 4.5325-0.41555 8.5462 0.31122 2.8019 0.79662 4.567 1.4907 7.68 0.6587 2.8028 1.5597 6.5045 1.9416 8.5816 0.3457 2.0753 0.86736 2.8373 0.93544 4.1861 0.10521 1.3488-0.79751 7.7154 0.20866 11.383 0.97169 3.7017 1.4217 6.0192 1.5941 6.919 0.4518 1.9719 0.070733 2.1805 0.24403 3.1837 0.17241 0.96873 0.20778 0.86532-0.31299 1.834-0.45004 0.62314-1.2122 1.9719-1.4562 2.2486-0.20866 0.31201-0.10345 0.62314 0 0.79549-0.17241 0.48525 0.38107 0.72566 0.55525 0.72566-0.068964 0.55419 0.93544 0.48525 1.1777 0.24307 0.27851 0.31113 1.0407 0.31113 1.3192-0.068943 0.4854 0.44901 1.3519 0.44901 1.8718-0.10341 0.55525-0.55419 0.62421-1.0739 0.55525-1.6263-0.068965-0.51972 0.068964-0.72743 0.17329-1.385 0.10345-0.65672 0.20778-1.1756-0.035366-1.6255-0.24314-0.48437-0.27762-0.72655-0.27762-1.1756 0-0.48525 0.20866-1.2118-0.10345-1.7996-0.31211-0.62314-0.6587-2.0409-0.58973-3.5983 0.034482-1.5574 1.1803-10.276 0.69318-13.251-0.48452-3.0096-0.27674-3.5983-0.17241-4.6359 0.13793-1.0032 0.41555-2.6649 0.13793-4.8092-0.10345-0.83085 0.27762-4.2214 0.31211-7.7499 0.035366-2.2839 0.31211-5.328-0.31211-5.9512v-0.035355c0.17418 0.07071 0.34747 0.1043 0.4854 0.1043h0.035367c0.17241 0 0.38107-0.034472 0.58885-0.13877l-0.034482 0.070711c-0.62421 0.62225-0.41644 3.6663-0.41644 5.9158 0.034482 3.5284 0.4854 6.9535 0.38196 7.7843-0.27674 2.1443 0.034482 3.806 0.1733 4.8092 0.10345 1.0377 0.27762 1.6263-0.20778 4.6359-0.48452 2.9751 0.6587 11.694 0.72766 13.251 0.070733 1.5574-0.31122 2.9751-0.58973 3.5983-0.31122 0.58778-0.13793 1.3143-0.13793 1.7996 0 0.44901 0 0.69119-0.24226 1.1756-0.24226 0.45078-0.17418 0.96873-0.034482 1.6255 0.10345 0.65761 0.24226 0.8662 0.17241 1.385-0.068964 0.55331 0 1.0721 0.52077 1.6263 0.55348 0.55242 1.3864 0.55242 1.8709 0.10341 0.31299 0.38007 1.0751 0.38007 1.3536 0.068943 0.24226 0.24218 1.2484 0.31113 1.1786-0.24218 0.17329 0 0.69406-0.2413 0.52077-0.72655 0.13793-0.17236 0.24226-0.48348 0-0.79549-0.24403-0.27666-0.97169-1.6255-1.4226-2.2486-0.519-0.96873-0.48452-0.86532-0.31122-1.834 0.17241-1.0032-0.20778-1.2118 0.20778-3.1837 0.20689-0.89979 0.6587-3.2173 1.6295-6.919 1.0053-3.6672 0.10433-10.034 0.17329-11.383 0.10345-1.3488 0.69318-2.2831 1.0407-4.3257 0.3457-2.0753 1.2122-5.6392 1.8726-8.4419 0.69318-3.113 1.2467-4.8437 1.5597-7.6447 0.38196-3.9801 0.034482-6.4011-0.38196-8.6161-0.48452-2.8028-0.90096-4.7058-1.4217-5.709-0.55436-1.0032-0.72766-2.9751-0.6587-4.2214 0.034482-0.93249-0.24226-3.5974-0.13793-5.3616 0.20778 1.4522 0.93544 4.7402 1.0407 5.3616 0.13793 0.62314-0.20866 3.6345 0.83199 7.1276 0.51988 1.6617 1.4553 7.543 1.3165 8.373 0 0.3456-0.10345 0.89979-0.27762 1.454-0.31122 0.93426-0.27674 2.2486-0.24226 2.6631-0.13881 0.55419-0.31122 1.6953-0.068964 1.766-0.13881 0.20683-0.1733 0.20683-0.10433 0.41454-0.10345 0.17236-0.10345 0.2413-0.068964 0.3456 0.13881 0.34648 0.6587 0.034471 0.48452 0.13788-0.31122 0.13965-0.55348 0.41454-0.41555 0.79638 0.069849 0.17236 0.79751-0.20771 1.1795-0.38184 0.58796-0.17147 1.2829-0.55242 1.4907-0.82908 0.17241-0.31112 0.55436-0.86532 0.6587-1.1084 0.13793-0.34383 0.10345-0.55242 0.24314-0.79461 0.10256-0.24307 0.34659-0.55419 0.20778-0.76102zm-19.279-43.837v-0.034471z" fill="none" stroke-width=".53358"/>
<path transform="matrix(7.5758 0 0 7.5781 .29988 -4.7938e-6)" d="m26.746 28.799c-0.00825-0.021134-0.00825-0.047422-0.00825-0.062886l-0.020109-0.020103c0-0.041753 0-0.061856-0.021141-0.08299v-0.020619c-0.061875-0.28866-0.12375-0.51443-0.16552-0.61804 0-0.020103 0-0.041237-0.020109-0.041237 0-0.020618 0.020109-0.020618 0.020109-0.020618l-0.020109-0.020104s0.28926-3.2345 0.22688-3.4196c0.020625-0.61804 0.35114-1.7923 0.30989-2.4309 0.04125-0.78299 0.14386-1.2768 0.14386-1.5655v-0.041237c0.02114 0.26753 0.041765 0.49433 0.041765 0.61804 0.04125 0.20567 0.04125 0.51443 0.083016 0.57629 0.040734 0.30928 0.28823 2.0397 0.30938 2.6789-0.12375 0.86443-0.14489 1.4206 0.10261 2.6567 0.046407 0.29381 0.30989 1.0376 0.59297 1.801 0.35269 0.95 0.7358 1.9304 0.77034 2.1134 0.061875 0.32938 0.14438 0.65928 0.18562 0.74124 0.040734 0.082474-0.2475 0.53557-0.16552 0.84536 0.0825 0.28763-0.45426 1.2351-0.28875 2.1216 0.165 0.88557 0.18562 1.0093 0.20677 1.1938 0.020109 0.2067 0.14438 0.41237 0.20625 0.65979 0.061875 0.24691 0.165 0.84485 0.30938 0.84485h0.10312v-0.020619h0.020625l0.04125-0.041237v-0.020618 0.020618-0.041752s0.041766 0.5567 0.33052 0.5567c0.18562-0.020619 0.18562-0.18557 0.18562-0.18557s0.041765 0.45361 0.30989 0.41134c0.2475-0.040722 0.2475-0.28763 0.2475-0.28763 0.16552 0.081959 0.43312 0.061856 0.495-0.22629 0.062906-0.28866 0.20677-0.86546 0.18666-1.0923 0-0.20567 0.14438-0.6799 0.14438-0.86495 0.14386-0.5567 0.28875-0.74175 0.24802-0.90619 0.18562 0.20567 0.35011 0.41134 0.43312 0.45309 0.040734 0.32938 0.37177 0.82371 0.63938 0.84381 0.35114 0.021134 0.26864-0.22577 0.16552-0.49433-0.10364-0.28866-0.12375-0.61804-0.22739-0.74175-0.10261-0.12268-0.26864-0.84381-0.45427-1.0706-0.18562-0.24742-0.88688-1.2979-1.0725-1.4624-0.062906-0.10309-0.02114-0.51495-0.10364-0.80361-0.083016-0.28866-0.061875-0.57732-0.14489-0.9067-0.081984-0.35052-0.081984-1.0093-0.10261-1.4624-0.001547-0.027835-0.003094-0.058247-0.004641-0.091237-0.037125-0.90464-0.052594-3.7799-0.49139-4.8531-0.081985-0.35052-0.18562-0.90618-0.165-1.7103-0.040735-2.1825-0.53677-3.4392-0.49552-4.1191 0.14438-0.98969-0.081984-2.0397-0.26864-2.8634-0.39136-1.7722-1.2586-2.2454-1.6505-2.3284-0.41302-0.081959-1.0328-0.14381-1.3014-0.41134-0.20625-0.16495-1.5892-0.80361-1.9815-0.84484-1.0318-0.18557-0.84614-2.0397-0.84614-2.4103 0.020625-0.041752 0.020625-0.082474 0.041765-0.10361v-0.020103c0.02011-0.020619 0.02011-0.061856 0.040735-0.10258v-0.021134c0.02114-0.040722 0.02114-0.082475 0.04125-0.12371v-0.020103c0-0.041752 0.020625-0.082474 0.020625-0.12371h0.02114c0-0.061856 0.02011-0.10309 0.02011-0.14484 0-0.040722 0.020625-0.10258 0.020625-0.14382 0.02114-0.040722 0.02114-0.082474 0.02114-0.12371 0.02011-0.040722 0.02011-0.081959 0.02011-0.10258v-0.041237c0.041765-0.020618 0.0825-0.040721 0.14438-0.082474 0.02114-0.021134 0.02114-0.021134 0.041765-0.021134v-0.020103c0.02011 0 0.02011-0.021134 0.02011-0.021134 0.02114 0 0.02114-0.019588 0.02114-0.019588s0.020625 0 0.020625-0.021134l0.02011-0.020618c0.061875-0.081959 0.083015-0.18505 0.16552-0.28814 0.061875-0.12371 0.04125-0.20618 0.10312-0.39175 0.061875-0.18505 0.10364-0.47371 0.10364-0.57629 0-0.12371 0.12375-0.4335 0.12375-0.57732 0-0.10258-0.041766-0.18557-0.083016-0.20567 0 0 0.021141 0 0.021141-0.020619 0.020109 0 0.020109-0.021134 0.020109-0.021134 0-0.14381-0.061875-0.49433-0.04125-0.63814 0-0.10258 0.021141-0.41237 0.021141-0.53608 0-0.22629-0.12375-0.45309-0.18562-0.65876-0.061875-0.2268-0.061875-0.4732-0.12478-0.6799-0.081985-0.26752-0.26812-0.43247-0.51562-0.5768-0.18562-0.10309-0.41353-0.1232-0.51614-0.28814-0.061875-0.082474 0-0.10361-0.12375-0.16546-0.061875-0.040722-0.18562-0.060825-0.2475-0.081959-0.18666-0.040721-0.43416-0.14381-0.39239-0.37062-0.26812-0.061856-0.70228 0.16495-0.92864-0.061856h-0.16603c-0.14386 0.041237-0.33 0.020103-0.47489-0.040722-0.061875 0.12268-0.35011 0.24639-0.51562 0.24639-0.20677 0-0.43312 0.041237-0.55688 0.2268 0.0825-0.020618 0.18562-0.061855 0.22636 0-0.53676 0.28866-1.1968 0.7-1.2586 1.3598-0.020625 0.28866-0.16552 0.51443-0.18614 0.80309-0.020109 0.28814-0.2475 0.43299-0.14489 0.72165-0.02011 0.18454 0.041765 0.18454 0.041765 0.34948-0.061875 0.18557 0.10312 0.41237 0.10312 0.41237-0.020109 0-0.04125 0.040722-0.061875 0.082474-0.02114 0.020103-0.02114 0.020103-0.02114 0.041237v0.020103c-0.02011 0.020619-0.02011 0.041753-0.02011 0.082475 0 0.14433 0.14489 0.45361 0.14489 0.57732 0 0.10258 0.020109 0.39124 0.10261 0.57629 0.061875 0.18557 0.021141 0.26804 0.10416 0.39227 0.061875 0.10258 0.081985 0.20567 0.14386 0.28763 0.020625 0 0.020625 0.020618 0.020625 0.020618l0.061875 0.061856 0.02114 0.020103 0.02011 0.021134h0.020625c0.04125 0.041753 0.10364 0.082474 0.12375 0.082474 0 0.041237 0.02114 0.081959 0.02114 0.12371v0.1232c0 0.021134 0.020625 0.041752 0.020625 0.082989v0.081959c0 0.020619 0.02011 0.041753 0.02011 0.061856v0.061855c0 0.020619 0 0.020619 0.020625 0.040722v0.08299s0.02114 0.020618 0.02114 0.040721v0.061856c0.02011 0.021134 0.02011 0.021134 0.02011 0.041237v0.041753l0.020625 0.020103v0.041752l0.02114 0.020103v0.041238l0.02011 0.020618v0.021134c0.020625 0.020103 0.020625 0.040722 0.020625 0.061856 0.02114 0 0.02114 0.020103 0.04125 0.040721v0.041238c0 0.2268 0.041765 0.72062-0.04125 1.216v0.020103c0 0.020619-0.020625 0.020619-0.020625 0.020619-0.081985 0.51546-0.30938 0.98866-0.78427 1.0716-0.4125 0.040722-1.7954 0.6799-1.9821 0.84433-0.26761 0.26753-0.90802 0.32938-1.3004 0.41134-0.41302 0.08299-1.2592 0.55619-1.6722 2.3284-0.18562 0.82371-0.39239 1.8742-0.26761 2.8634 0.061875 0.6799-0.43416 1.9366-0.49603 4.1196 0.021141 0.80361-0.061875 1.3598-0.16448 1.7103-0.43519 1.0634-0.45427 3.8969-0.47231 4.8278-0.001031 0.042783-0.002062 0.081443-0.003094 0.11598-0.020625 0.45309-0.020625 1.1124-0.10364 1.4629-0.081985 0.32938-0.02011 0.61804-0.12375 0.90618-0.0825 0.28866-0.040735 0.70103-0.10261 0.80361-0.16552 0.16495-0.88791 1.2155-1.0735 1.4629-0.16552 0.2268-0.37125 0.94742-0.47541 1.0706-0.10261 0.12371-0.12375 0.45309-0.2475 0.74175-0.10364 0.26804-0.18562 0.51495 0.16603 0.49381 0.28824-0.019587 0.59864-0.51392 0.66052-0.84381 0.081984-0.041753 0.2475-0.24742 0.43312-0.45309-0.04125 0.16495 0.0825 0.34948 0.22739 0.9067 0 0.18454 0.16448 0.65876 0.14386 0.86443-0.02011 0.2268 0.12375 0.80361 0.18562 1.0923 0.06239 0.28866 0.33 0.30876 0.51666 0.2268 0 0-0.020625 0.24639 0.2475 0.28763 0.2475 0.041753 0.28875-0.41134 0.28875-0.41134s0 0.16443 0.18614 0.18557c0.28875 0 0.33052-0.55722 0.33052-0.55722l0.02011 0.021134v0.020618-0.020618 0.020618c0 0.020103 0.020625 0.020103 0.020625 0.041237h0.02114c0 0.020619 0.02011 0.020619 0.02011 0.020619h0.0825c0.14489 0 0.26864-0.59794 0.33052-0.84433 0.061875-0.24742 0.16552-0.45309 0.18562-0.65979 0.020625-0.18505 0.041766-0.30876 0.20625-1.1943 0.16552-0.8866-0.35011-1.834-0.28823-2.1216 0.081984-0.30928-0.18562-0.76237-0.14489-0.84536 0.04125-0.081959 0.12375-0.41134 0.18562-0.74124 0.022688-0.18299 0.75436-2.1129 0.75436-2.1129s0.55275-1.5072 0.60792-1.8015c0.22739-1.2361 0.22739-1.7923 0.083016-2.6567 0.020625-0.63918 0.28927-2.3691 0.33-2.6789 0.021141-0.061856 0.021141-0.3701 0.061875-0.57577 0.021141-0.12423 0.04125-0.35052 0.04125-0.61804l0.020625 0.040721c0 0.28866 0.083016 0.78299 0.12375 1.5655-0.020109 0.63918 0.28927 1.8134 0.33052 2.4309-0.081985 0.18505 0.22739 3.4196 0.22739 3.4196l-0.02114 0.020104v0.021134c-0.039188 0.11907-0.13664 0.42835-0.21708 0.83608" fill="#666" stroke-width=".31117"/>
<path transform="matrix(7.5758 0 0 7.5781 .29985 4.215e-6)" d="m80.825 8.5418v-0.020103 0.020103" fill="none" stroke-width=".31117"/>
<path transform="matrix(7.5758 0 0 7.5781 .29985 4.215e-6)" d="m77.878 28.795c-0.25524 1.2686-0.44602 2.6129-0.22739 4.9077 0.1815 1.634 0.46458 2.6634 0.86934 4.4789 0.38414 1.6345 0.90956 3.7933 1.1323 5.0046 0.20161 1.2103 0.50583 1.6546 0.54553 2.4412 0.061359 0.7866-0.46509 4.4995 0.12169 6.6381 0.56667 2.1588 0.82912 3.5103 0.92967 4.0351 0.26348 1.15 0.04125 1.2716 0.14231 1.8567 0.10055 0.56495 0.12117 0.50464-0.18253 1.0696-0.26245 0.3634-0.70692 1.15-0.84923 1.3113-0.12169 0.18196-0.060328 0.3634 0 0.46392-0.10055 0.28299 0.22223 0.4232 0.32381 0.4232-0.040218 0.3232 0.54553 0.28299 0.68681 0.14175 0.16242 0.18144 0.60689 0.18144 0.76931-0.040207 0.28308 0.26186 0.78839 0.26186 1.0916-0.060309 0.32381-0.3232 0.36403-0.62629 0.32381-0.94845-0.040219-0.30258 0.040219-0.42423 0.10106-0.80773 0.060328-0.38299 0.12117-0.68557-0.020625-0.94794-0.1418-0.28247-0.16191-0.42371-0.16191-0.68557 0-0.28299 0.12169-0.7067-0.060328-1.0495-0.18202-0.3634-0.38414-1.1902-0.34392-2.0985 0.02011-0.90825 0.68836-5.9928 0.40425-7.7278-0.28256-1.7552-0.16139-2.0985-0.10055-2.7036 0.080438-0.58505 0.24234-1.5541 0.080438-2.8046-0.060328-0.48454 0.16191-2.4619 0.18202-4.5196 0.020625-1.332 0.18202-3.1072-0.18202-3.4706v-0.020619c0.10158 0.041237 0.20264 0.060825 0.28308 0.060825h0.020625c0.10055 0 0.22223-0.020103 0.34341-0.080928l-0.020109 0.041237c-0.36403 0.36289-0.24286 2.1381-0.24286 3.45 0.020109 2.0577 0.28308 4.0552 0.22275 4.5397-0.16139 1.2505 0.020109 2.2196 0.10106 2.8046 0.060328 0.60516 0.16191 0.94845-0.12117 2.7036-0.28256 1.7351 0.38414 6.8196 0.42436 7.7278 0.04125 0.90825-0.1815 1.7351-0.34392 2.0985-0.1815 0.34278-0.080438 0.7665-0.080438 1.0495 0 0.26186 0 0.40361-0.14128 0.68557-0.14128 0.26289-0.10158 0.56495-0.020109 0.94794 0.060328 0.3835 0.14128 0.50515 0.10055 0.80773-0.040218 0.32268 0 0.62526 0.3037 0.94845 0.32278 0.32216 0.8085 0.32216 1.0911 0.060309 0.18253 0.22165 0.627 0.22165 0.78942 0.040207 0.14128 0.14124 0.72806 0.18144 0.68733-0.14124 0.10106 0 0.40477-0.14072 0.3037-0.42371 0.080438-0.10052 0.14128-0.28196 0-0.46392-0.14231-0.16134-0.56667-0.94794-0.82964-1.3113-0.30267-0.56495-0.28256-0.50464-0.1815-1.0696 0.10055-0.58505-0.12117-0.7067 0.12117-1.8567 0.12066-0.52474 0.38414-1.8763 0.9503-4.0351 0.58627-2.1387 0.060844-5.8515 0.10106-6.6381 0.060328-0.7866 0.40425-1.3314 0.60689-2.5227 0.20161-1.2103 0.70692-3.2887 1.0921-4.9232 0.40425-1.8155 0.72703-2.8247 0.90956-4.4582 0.21708-2.2649 0.029906-3.6639-0.2047-4.9304" fill="#666" stroke-width=".31117"/>
</g>
</svg>
