<?xml version="1.0" encoding="UTF-8"?>
<svg width="800px" height="317px" version="1.1" viewBox="0 0 800 317" xmlns="http://www.w3.org/2000/svg" xmlns:xlink="http://www.w3.org/1999/xlink">
<defs>
<symbol id="t" overflow="visible">
<path d="m9.3438-2.3281h-5.1406l-0.8125 2.3281h-3.3125l4.7344-12.781h3.9219l4.7188 12.781h-3.2969zm-4.3125-2.375h3.4844l-1.7344-5.0781z"/>
</symbol>
<symbol id="i" overflow="visible">
<path d="m1.375-3.7344v-5.8594h3.0625v0.96875c0 0.52344-0.007812 1.1719-0.015625 1.9531v1.5625c0 0.77344 0.019531 1.3281 0.0625 1.6719 0.039063 0.34375 0.10938 0.58984 0.20312 0.73438 0.125 0.21094 0.28516 0.36719 0.48438 0.46875 0.20703 0.10547 0.44141 0.15625 0.70312 0.15625 0.64453 0 1.1484-0.24219 1.5156-0.73438 0.36328-0.48828 0.54688-1.1719 0.54688-2.0469v-4.7344h3.0469v9.5938h-3.0469v-1.3906c-0.46875 0.5625-0.96484 0.98047-1.4844 1.25-0.51172 0.25781-1.0742 0.39062-1.6875 0.39062-1.1055 0-1.9492-0.33594-2.5312-1.0156-0.57422-0.6875-0.85938-1.6758-0.85938-2.9688z"/>
</symbol>
<symbol id="h" overflow="visible">
<path d="m8.9531-9.2812v2.3281c-0.65625-0.28125-1.293-0.48828-1.9062-0.625-0.60547-0.13281-1.1797-0.20312-1.7188-0.20312-0.58594 0-1.0156 0.074219-1.2969 0.21875-0.28125 0.14844-0.42188 0.37109-0.42188 0.67188 0 0.25 0.10156 0.44531 0.3125 0.57812 0.21875 0.125 0.60156 0.21875 1.1562 0.28125l0.53125 0.078125c1.5703 0.19922 2.6289 0.52734 3.1719 0.98438 0.53906 0.46094 0.8125 1.1719 0.8125 2.1406 0 1.0234-0.38281 1.793-1.1406 2.3125-0.75 0.51172-1.8711 0.76562-3.3594 0.76562-0.63672 0-1.293-0.054688-1.9688-0.15625-0.66797-0.09375-1.3594-0.23828-2.0781-0.4375v-2.3281c0.61328 0.29297 1.2383 0.51172 1.875 0.65625 0.64453 0.14844 1.2969 0.21875 1.9531 0.21875 0.60156 0 1.0547-0.078125 1.3594-0.23438 0.30078-0.16406 0.45312-0.41406 0.45312-0.75 0-0.26953-0.10547-0.47266-0.3125-0.60938-0.21094-0.13281-0.625-0.23828-1.25-0.3125l-0.53125-0.0625c-1.3672-0.16406-2.3242-0.47656-2.875-0.9375-0.54297-0.46875-0.8125-1.1758-0.8125-2.125 0-1.0078 0.34375-1.7578 1.0312-2.25 0.69531-0.48828 1.7656-0.73438 3.2031-0.73438 0.5625 0 1.1562 0.042969 1.7812 0.125 0.625 0.085938 1.3008 0.21875 2.0312 0.40625z"/>
</symbol>
<symbol id="r" overflow="visible">
<path d="m6.5625-1.9844c0.65625 0 1.1562-0.23828 1.5-0.71875 0.34375-0.47656 0.51562-1.1719 0.51562-2.0781 0-0.91406-0.17188-1.6133-0.51562-2.0938-0.34375-0.47656-0.84375-0.71875-1.5-0.71875s-1.1641 0.24609-1.5156 0.73438c-0.34375 0.48047-0.51562 1.1719-0.51562 2.0781s0.17188 1.6016 0.51562 2.0781c0.35156 0.48047 0.85938 0.71875 1.5156 0.71875zm-2.0312-6.2031c0.41406-0.55078 0.87891-0.95703 1.3906-1.2188 0.51953-0.26953 1.1133-0.40625 1.7812-0.40625 1.1758 0 2.1406 0.46875 2.8906 1.4062 0.75781 0.9375 1.1406 2.1484 1.1406 3.625 0 1.4805-0.38281 2.6875-1.1406 3.625-0.75 0.9375-1.7148 1.4062-2.8906 1.4062-0.66797 0-1.2617-0.13281-1.7812-0.39062-0.51172-0.26953-0.97656-0.6875-1.3906-1.25v1.3906h-3.0625v-13.312h3.0625z"/>
</symbol>
<symbol id="g" overflow="visible">
<path d="m8.5781-6.9688c-0.27344-0.13281-0.53906-0.22656-0.79688-0.28125-0.26172-0.0625-0.52734-0.09375-0.79688-0.09375-0.79297 0-1.4023 0.25781-1.8281 0.76562-0.41797 0.5-0.625 1.2188-0.625 2.1562v4.4219h-3.0625v-9.5938h3.0625v1.5781c0.39453-0.625 0.84375-1.0781 1.3438-1.3594 0.50781-0.28906 1.125-0.4375 1.8438-0.4375 0.10156 0 0.21094 0.007812 0.32812 0.015625 0.125 0 0.30078 0.015625 0.53125 0.046875z"/>
</symbol>
<symbol id="c" overflow="visible">
<path d="m11.016-4.8125v0.85938h-7.1406c0.070312 0.71875 0.32812 1.2617 0.76562 1.625 0.44531 0.35547 1.0703 0.53125 1.875 0.53125 0.64453 0 1.3008-0.09375 1.9688-0.28125 0.67578-0.1875 1.3672-0.47266 2.0781-0.85938v2.3594c-0.71875 0.27344-1.4453 0.47656-2.1719 0.60938-0.71875 0.14453-1.4375 0.21875-2.1562 0.21875-1.7422 0-3.0898-0.4375-4.0469-1.3125-0.96094-0.88281-1.4375-2.125-1.4375-3.7188 0-1.5625 0.46875-2.7891 1.4062-3.6875 0.94531-0.89453 2.25-1.3438 3.9062-1.3438 1.5 0 2.6953 0.45312 3.5938 1.3594 0.90625 0.90625 1.3594 2.1211 1.3594 3.6406zm-3.1406-1.0312c0-0.58203-0.17188-1.0508-0.51562-1.4062-0.33594-0.35156-0.77344-0.53125-1.3125-0.53125-0.59375 0-1.0781 0.16797-1.4531 0.5-0.36719 0.33594-0.59375 0.8125-0.6875 1.4375z"/>
</symbol>
<symbol id="f" overflow="visible">
<path d="m1.4688-9.5938h3.0625v9.5938h-3.0625zm0-3.7188h3.0625v2.5h-3.0625z"/>
</symbol>
<symbol id="e" overflow="visible">
<path d="m4.8125-12.312v2.7188h3.1562v2.2031h-3.1562v4.0625c0 0.44922 0.085938 0.75 0.26562 0.90625 0.17578 0.15625 0.52344 0.23438 1.0469 0.23438h1.5781v2.1875h-2.625c-1.2109 0-2.0703-0.25-2.5781-0.75-0.5-0.50781-0.75-1.3672-0.75-2.5781v-4.0625h-1.5156v-2.2031h1.5156v-2.7188z"/>
</symbol>
<symbol id="d" overflow="visible">
<path d="m11.094-5.8438v5.8438h-3.0781v-4.4688c0-0.82031-0.023437-1.3906-0.0625-1.7031-0.03125-0.32031-0.09375-0.55469-0.1875-0.70312-0.11719-0.19531-0.27734-0.34766-0.48438-0.45312-0.21094-0.11328-0.44531-0.17188-0.70312-0.17188-0.63672 0-1.1367 0.24609-1.5 0.73438-0.36719 0.49219-0.54688 1.1719-0.54688 2.0469v4.7188h-3.0625v-9.5938h3.0625v1.4062c0.45703-0.55078 0.94531-0.95703 1.4688-1.2188 0.51953-0.26953 1.0938-0.40625 1.7188-0.40625 1.1016 0 1.9414 0.33984 2.5156 1.0156 0.57031 0.67969 0.85938 1.6641 0.85938 2.9531z"/>
</symbol>
<symbol id="q" overflow="visible">
<path d="m7.9844-1.625c-0.42969 0.5625-0.89844 0.97656-1.4062 1.2344-0.5 0.26172-1.0859 0.39062-1.75 0.39062-1.168 0-2.1367-0.45703-2.9062-1.375-0.76172-0.92578-1.1406-2.1016-1.1406-3.5312 0-1.4258 0.37891-2.5977 1.1406-3.5156 0.76953-0.91406 1.7383-1.375 2.9062-1.375 0.66406 0 1.25 0.13281 1.75 0.39062 0.50781 0.26172 0.97656 0.67188 1.4062 1.2344v-1.4219h3.0781v8.625c0 1.5391-0.49219 2.7188-1.4688 3.5312-0.96875 0.8125-2.375 1.2188-4.2188 1.2188-0.59375 0-1.1719-0.046875-1.7344-0.14062-0.5625-0.085937-1.125-0.21875-1.6875-0.40625v-2.3906c0.53906 0.30078 1.0664 0.52344 1.5781 0.67188 0.50781 0.15625 1.0234 0.23438 1.5469 0.23438 1 0 1.7344-0.21875 2.2031-0.65625s0.70312-1.125 0.70312-2.0625zm-2.0156-5.9688c-0.63672 0-1.1328 0.23438-1.4844 0.70312-0.35547 0.46875-0.53125 1.1328-0.53125 1.9844 0 0.875 0.17188 1.543 0.51562 2 0.34375 0.46094 0.84375 0.6875 1.5 0.6875 0.63281 0 1.1289-0.23438 1.4844-0.70312 0.35156-0.46875 0.53125-1.1289 0.53125-1.9844 0-0.85156-0.17969-1.5156-0.53125-1.9844-0.35547-0.46875-0.85156-0.70312-1.4844-0.70312z"/>
</symbol>
<symbol id="ab" overflow="visible">
<path d="m9.2031-9.2812v2.5c-0.41797-0.28906-0.83594-0.50391-1.25-0.64062-0.41797-0.13281-0.85547-0.20312-1.3125-0.20312-0.85547 0-1.5234 0.25-2 0.75-0.46875 0.5-0.70312 1.1992-0.70312 2.0938 0 0.89844 0.23438 1.5938 0.70312 2.0938 0.47656 0.5 1.1445 0.75 2 0.75 0.47656 0 0.92969-0.070312 1.3594-0.21875 0.4375-0.14453 0.83594-0.35938 1.2031-0.64062v2.5156c-0.48047 0.17969-0.96875 0.30469-1.4688 0.39062-0.49219 0.09375-0.98047 0.14062-1.4688 0.14062-1.7305 0-3.0859-0.44141-4.0625-1.3281-0.96875-0.88281-1.4531-2.1172-1.4531-3.7031 0-1.582 0.48438-2.8164 1.4531-3.7031 0.97656-0.88281 2.332-1.3281 4.0625-1.3281 0.5 0 0.99219 0.046875 1.4844 0.14062 0.48828 0.085937 0.97266 0.21484 1.4531 0.39062z"/>
</symbol>
<symbol id="n" overflow="visible">
<path d="m11.094-5.8438v5.8438h-3.0781v-4.4531c0-0.83203-0.023437-1.4062-0.0625-1.7188-0.03125-0.32031-0.09375-0.55469-0.1875-0.70312-0.11719-0.19531-0.27734-0.34766-0.48438-0.45312-0.21094-0.11328-0.44531-0.17188-0.70312-0.17188-0.63672 0-1.1367 0.24609-1.5 0.73438-0.36719 0.49219-0.54688 1.1719-0.54688 2.0469v4.7188h-3.0625v-13.312h3.0625v5.125c0.45703-0.55078 0.94531-0.95703 1.4688-1.2188 0.51953-0.26953 1.0938-0.40625 1.7188-0.40625 1.1016 0 1.9414 0.33984 2.5156 1.0156 0.57031 0.67969 0.85938 1.6641 0.85938 2.9531z"/>
</symbol>
<symbol id="k" overflow="visible"></symbol>
<symbol id="p" overflow="visible">
<path d="m7.9844-8.1875v-5.125h3.0781v13.312h-3.0781v-1.3906c-0.42969 0.5625-0.89844 0.98047-1.4062 1.25-0.5 0.25781-1.0859 0.39062-1.75 0.39062-1.1797 0-2.1484-0.46875-2.9062-1.4062-0.76172-0.9375-1.1406-2.1445-1.1406-3.625 0-1.4766 0.37891-2.6875 1.1406-3.625 0.75781-0.9375 1.7266-1.4062 2.9062-1.4062 0.65625 0 1.2383 0.13672 1.75 0.40625 0.50781 0.26172 0.97656 0.66797 1.4062 1.2188zm-2.0156 6.2031c0.65625 0 1.1562-0.23828 1.5-0.71875 0.34375-0.47656 0.51562-1.1719 0.51562-2.0781 0-0.91406-0.17188-1.6133-0.51562-2.0938-0.34375-0.47656-0.84375-0.71875-1.5-0.71875s-1.1562 0.24219-1.5 0.71875c-0.34375 0.48047-0.51562 1.1797-0.51562 2.0938 0 0.90625 0.17188 1.6016 0.51562 2.0781 0.34375 0.48047 0.84375 0.71875 1.5 0.71875z"/>
</symbol>
<symbol id="o" overflow="visible">
<path d="m1.4688-13.312h3.0625v7.25l3.5156-3.5312h3.5625l-4.6719 4.4062 5.0312 5.1875h-3.7031l-3.7344-4v4h-3.0625z"/>
</symbol>
<symbol id="l" overflow="visible">
<path d="m6.0312-7.625c-0.6875 0-1.2109 0.24609-1.5625 0.73438-0.35547 0.49219-0.53125 1.1953-0.53125 2.1094 0 0.91797 0.17578 1.6211 0.53125 2.1094 0.35156 0.49219 0.875 0.73438 1.5625 0.73438 0.66406 0 1.1719-0.24219 1.5156-0.73438 0.35156-0.48828 0.53125-1.1914 0.53125-2.1094 0-0.91406-0.17969-1.6172-0.53125-2.1094-0.34375-0.48828-0.85156-0.73438-1.5156-0.73438zm0-2.1875c1.6445 0 2.9258 0.44922 3.8438 1.3438 0.92578 0.88672 1.3906 2.1172 1.3906 3.6875 0 1.5742-0.46484 2.8086-1.3906 3.7031-0.91797 0.88672-2.1992 1.3281-3.8438 1.3281-1.6562 0-2.9531-0.44141-3.8906-1.3281-0.92969-0.89453-1.3906-2.1289-1.3906-3.7031 0-1.5703 0.46094-2.8008 1.3906-3.6875 0.9375-0.89453 2.2344-1.3438 3.8906-1.3438z"/>
</symbol>
<symbol id="s" overflow="visible">
<path d="m4.5312-1.3906v5.0312h-3.0625v-13.234h3.0625v1.4062c0.41406-0.55078 0.87891-0.95703 1.3906-1.2188 0.51953-0.26953 1.1133-0.40625 1.7812-0.40625 1.1758 0 2.1406 0.46875 2.8906 1.4062 0.75781 0.9375 1.1406 2.1484 1.1406 3.625 0 1.4805-0.38281 2.6875-1.1406 3.625-0.75 0.9375-1.7148 1.4062-2.8906 1.4062-0.66797 0-1.2617-0.13281-1.7812-0.39062-0.51172-0.26953-0.97656-0.6875-1.3906-1.25zm2.0312-6.2031c-0.65625 0-1.1641 0.24609-1.5156 0.73438-0.34375 0.48047-0.51562 1.1719-0.51562 2.0781s0.17188 1.6016 0.51562 2.0781c0.35156 0.48047 0.85938 0.71875 1.5156 0.71875s1.1562-0.23828 1.5-0.71875c0.34375-0.47656 0.51562-1.1719 0.51562-2.0781 0-0.91406-0.17188-1.6133-0.51562-2.0938-0.34375-0.47656-0.84375-0.71875-1.5-0.71875z"/>
</symbol>
<symbol id="j" overflow="visible">
<path d="m5.7656-4.3125c-0.64844 0-1.1328 0.10938-1.4531 0.32812-0.3125 0.21875-0.46875 0.53906-0.46875 0.95312 0 0.38672 0.125 0.6875 0.375 0.90625 0.25781 0.21875 0.625 0.32812 1.0938 0.32812 0.57031 0 1.0508-0.20312 1.4375-0.60938 0.39453-0.41406 0.59375-0.9375 0.59375-1.5625v-0.34375zm4.6719-1.1562v5.4688h-3.0938v-1.4219c-0.40625 0.58594-0.86719 1.0117-1.375 1.2812-0.51172 0.25781-1.1367 0.39062-1.875 0.39062-0.99219 0-1.7969-0.28516-2.4219-0.85938-0.61719-0.58203-0.92188-1.3359-0.92188-2.2656 0-1.125 0.38281-1.9453 1.1562-2.4688 0.76953-0.53125 1.9844-0.79688 3.6406-0.79688h1.7969v-0.23438c0-0.48828-0.19531-0.84375-0.57812-1.0625-0.375-0.22656-0.96875-0.34375-1.7812-0.34375-0.65625 0-1.2656 0.070312-1.8281 0.20312-0.5625 0.125-1.0859 0.32031-1.5625 0.57812v-2.3281c0.65625-0.15625 1.3125-0.27344 1.9688-0.35938 0.65625-0.082031 1.3164-0.125 1.9844-0.125 1.7266 0 2.9727 0.34375 3.7344 1.0312 0.76953 0.67969 1.1562 1.7812 1.1562 3.3125z"/>
</symbol>
<symbol id="m" overflow="visible">
<path d="m1.4688-13.312h3.0625v13.312h-3.0625z"/>
</symbol>
<symbol id="aa" overflow="visible">
<path d="m7.7656-13.312v2h-1.6875c-0.4375 0-0.74609 0.078125-0.92188 0.23438-0.16797 0.15625-0.25 0.43359-0.25 0.82812v0.65625h2.625v2.2031h-2.625v7.3906h-3.0469v-7.3906h-1.5312v-2.2031h1.5312v-0.65625c0-1.0508 0.28516-1.8203 0.85938-2.3125 0.58203-0.5 1.4844-0.75 2.7031-0.75z"/>
</symbol>
<symbol id="ah" overflow="visible">
<path d="m1.6094-12.781h3.2812v4.6719l4.75-4.6719h3.8125l-6.1406 6.0469 6.7812 6.7344h-4.125l-5.0781-5.0312v5.0312h-3.2812z"/>
</symbol>
<symbol id="z" overflow="visible">
<path d="m0.98438-12.781h10.719v2l-6.8438 8.2969h7.0469v2.4844h-11.125v-2l6.8438-8.2969h-6.6406z"/>
</symbol>
<symbol id="ag" overflow="visible">
<path d="m6.0312-7.625c-0.6875 0-1.2109 0.24609-1.5625 0.73438-0.35547 0.49219-0.53125 1.1953-0.53125 2.1094 0 0.91797 0.17578 1.6211 0.53125 2.1094 0.35156 0.49219 0.875 0.73438 1.5625 0.73438 0.66406 0 1.1719-0.24219 1.5156-0.73438 0.35156-0.48828 0.53125-1.1914 0.53125-2.1094 0-0.91406-0.17969-1.6172-0.53125-2.1094-0.34375-0.48828-0.85156-0.73438-1.5156-0.73438zm0-2.1875c1.6445 0 2.9258 0.44922 3.8438 1.3438 0.92578 0.88672 1.3906 2.1172 1.3906 3.6875 0 1.5742-0.46484 2.8086-1.3906 3.7031-0.91797 0.88672-2.1992 1.3281-3.8438 1.3281-1.6562 0-2.9531-0.44141-3.8906-1.3281-0.92969-0.89453-1.3906-2.1289-1.3906-3.7031 0-1.5703 0.46094-2.8008 1.3906-3.6875 0.9375-0.89453 2.2344-1.3438 3.8906-1.3438zm-2.7188-3.75h2v2.0938h-2zm3.375 0h2v2.0938h-2z"/>
</symbol>
<symbol id="y" overflow="visible">
<path d="m6.2812-7.1094c0.6875 0 1.1797-0.12891 1.4844-0.39062 0.30078-0.25781 0.45312-0.67969 0.45312-1.2656 0-0.58203-0.15234-1-0.45312-1.25-0.30469-0.25-0.79688-0.375-1.4844-0.375h-1.3906v3.2812zm-1.3906 2.2656v4.8438h-3.2812v-12.781h5.0156c1.6875 0 2.9219 0.28906 3.7031 0.85938 0.78125 0.5625 1.1719 1.4531 1.1719 2.6719 0 0.84375-0.20312 1.5391-0.60938 2.0781-0.40625 0.54297-1.0234 0.94531-1.8438 1.2031 0.44531 0.09375 0.84766 0.32422 1.2031 0.6875 0.36328 0.36719 0.72656 0.91797 1.0938 1.6562l1.7812 3.625h-3.5l-1.5625-3.1719c-0.3125-0.64453-0.63281-1.082-0.95312-1.3125-0.32422-0.23828-0.75-0.35938-1.2812-0.35938z"/>
</symbol>
<symbol id="x" overflow="visible">
<path d="m0.26562-9.5938h3.0625l2.375 6.625 2.375-6.625h3.0781l-3.7656 9.5938h-3.3594z"/>
</symbol>
<symbol id="af" overflow="visible">
<path d="m1.375-3.7344v-5.8594h3.0625v0.96875c0 0.52344-0.007812 1.1719-0.015625 1.9531v1.5625c0 0.77344 0.019531 1.3281 0.0625 1.6719 0.039063 0.34375 0.10938 0.58984 0.20312 0.73438 0.125 0.21094 0.28516 0.36719 0.48438 0.46875 0.20703 0.10547 0.44141 0.15625 0.70312 0.15625 0.64453 0 1.1484-0.24219 1.5156-0.73438 0.36328-0.48828 0.54688-1.1719 0.54688-2.0469v-4.7344h3.0469v9.5938h-3.0469v-1.3906c-0.46875 0.5625-0.96484 0.98047-1.4844 1.25-0.51172 0.25781-1.0742 0.39062-1.6875 0.39062-1.1055 0-1.9492-0.33594-2.5312-1.0156-0.57422-0.6875-0.85938-1.6758-0.85938-2.9688zm2.125-9.8281h2v2.0938h-2zm3.375 0h2v2.0938h-2z"/>
</symbol>
<symbol id="ae" overflow="visible">
<path d="m10.344-8c0.38281-0.59375 0.84375-1.0391 1.375-1.3438 0.53125-0.3125 1.1133-0.46875 1.75-0.46875 1.1016 0 1.9414 0.33984 2.5156 1.0156 0.57031 0.67969 0.85938 1.6641 0.85938 2.9531v5.8438h-3.0625v-5-0.21875c0.007812-0.082031 0.015625-0.20312 0.015625-0.35938 0-0.67578-0.10547-1.1641-0.3125-1.4688-0.19922-0.30078-0.51562-0.45312-0.95312-0.45312-0.58594 0-1.0391 0.24219-1.3594 0.71875-0.3125 0.48047-0.47656 1.1719-0.48438 2.0781v4.7031h-3.0781v-5c0-1.0625-0.09375-1.7422-0.28125-2.0469-0.17969-0.30078-0.5-0.45312-0.96875-0.45312-0.58594 0-1.0391 0.24219-1.3594 0.71875-0.3125 0.48047-0.46875 1.168-0.46875 2.0625v4.7188h-3.0781v-9.5938h3.0781v1.4062c0.375-0.53906 0.80078-0.94531 1.2812-1.2188 0.48828-0.26953 1.0312-0.40625 1.625-0.40625 0.65625 0 1.2383 0.16406 1.75 0.48438 0.50781 0.3125 0.89453 0.75781 1.1562 1.3281z"/>
</symbol>
<symbol id="ad" overflow="visible">
<path d="m6.5938 2.3125h-2.5312c-0.875-1.4062-1.5234-2.7422-1.9375-4.0156-0.41797-1.2695-0.625-2.5312-0.625-3.7812s0.20703-2.5156 0.625-3.7969c0.42578-1.2812 1.0703-2.6172 1.9375-4.0156h2.5312c-0.73047 1.3438-1.2773 2.668-1.6406 3.9688-0.36719 1.293-0.54688 2.5703-0.54688 3.8281 0 1.2617 0.17969 2.543 0.54688 3.8438 0.36328 1.293 0.91016 2.6133 1.6406 3.9688z"/>
</symbol>
<symbol id="ac" overflow="visible">
<path d="m1.4062 2.3125c0.72656-1.3555 1.2734-2.6758 1.6406-3.9688 0.36328-1.3008 0.54688-2.582 0.54688-3.8438 0-1.2578-0.18359-2.5352-0.54688-3.8281-0.36719-1.3008-0.91406-2.625-1.6406-3.9688h2.5312c0.86328 1.3984 1.5039 2.7344 1.9219 4.0156 0.42578 1.2812 0.64062 2.5469 0.64062 3.7969s-0.21094 2.5117-0.625 3.7812c-0.41797 1.2734-1.0625 2.6094-1.9375 4.0156z"/>
</symbol>
<symbol id="w" overflow="visible">
<path d="m1.9219-15.328h4.4219l5.5625 10.516v-10.516h3.75v15.328h-4.4062l-5.5781-10.516v10.516h-3.75z"/>
</symbol>
<symbol id="v" overflow="visible">
<path d="m6.9219-5.1719c-0.77344 0-1.3516 0.13281-1.7344 0.39062-0.38672 0.26172-0.57812 0.64062-0.57812 1.1406 0 0.46875 0.15625 0.83984 0.46875 1.1094 0.3125 0.26172 0.74219 0.39062 1.2969 0.39062 0.6875 0 1.2656-0.25 1.7344-0.75 0.47656-0.5 0.71875-1.1172 0.71875-1.8594v-0.42188zm5.6094-1.3906v6.5625h-3.7031v-1.7031c-0.49219 0.69922-1.0469 1.2109-1.6719 1.5312-0.61719 0.3125-1.3594 0.46875-2.2344 0.46875-1.1992 0-2.168-0.34375-2.9062-1.0312-0.74219-0.69531-1.1094-1.6016-1.1094-2.7188 0-1.3438 0.46094-2.3281 1.3906-2.9531 0.92578-0.63281 2.3789-0.95312 4.3594-0.95312h2.1719v-0.29688c0-0.57031-0.23047-0.99219-0.6875-1.2656-0.46094-0.26953-1.1719-0.40625-2.1406-0.40625-0.79297 0-1.5273 0.078125-2.2031 0.23438-0.67969 0.15625-1.3086 0.39062-1.8906 0.70312v-2.7969c0.78906-0.19531 1.582-0.34375 2.375-0.4375 0.78906-0.10156 1.582-0.15625 2.375-0.15625 2.0703 0 3.5664 0.41406 4.4844 1.2344 0.92578 0.8125 1.3906 2.1406 1.3906 3.9844z"/>
</symbol>
<symbol id="u" overflow="visible">
<path d="m6.6719-8.7812v3.5781h3.5781v1.6094h-3.5781v3.5938h-1.625v-3.5938h-3.5625v-1.6094h3.5625v-3.5781z"/>
</symbol>
<symbol id="b" overflow="visible">
<path d="m8.8594-12.094v5.25h5.2344v1.5938h-5.2344v5.25h-1.5781v-5.25h-5.2344v-1.5938h5.2344v-5.25z"/>
</symbol>
<symbol id="a" overflow="visible">
<path d="m0.9375-5.9531h7.75v1.3438h-7.75z"/>
</symbol>
</defs>
<path transform="matrix(1.7508 0 0 1.7528 0 .35475)" d="m65.322 50.374h142.5v7.5016h-142.5c-18.751 0-30-45.001-45.001-45.001v-7.4993c18.749 0 30 44.998 45.001 44.998z" stroke="#000" stroke-width=".75"/>
<path transform="matrix(1.7508 0 0 1.7528 0 .35475)" d="m211.57 50.374v7.5016h22.499v-7.5016z" stroke="#000" stroke-width=".75"/>
<path transform="matrix(1.7508 0 0 1.7528 0 .35475)" d="m237.82 50.374v7.5016h22.499v-7.5016z" stroke="#000" stroke-width=".75"/>
<path transform="matrix(1.7508 0 0 1.7528 0 .35475)" d="m264.07 50.374v7.5016h22.499v-7.5016z" stroke="#000" stroke-width=".75"/>
<path transform="matrix(1.7508 0 0 1.7528 0 .35475)" d="m290.32 50.374v7.5016h22.499v-7.5016z" stroke="#000" stroke-width=".75"/>
<path transform="matrix(1.7508 0 0 1.7528 0 .35475)" d="m316.57 50.374v7.5016h135v-7.5016z" stroke="#000" stroke-width=".75"/>
<g>
<use x="120.761719" y="25.75777" xlink:href="#t"/>
<use x="134.76774" y="25.75777" xlink:href="#i"/>
<use x="147.023009" y="25.75777" xlink:href="#h"/>
<use x="157.527525" y="25.75777" xlink:href="#r"/>
<use x="169.782794" y="25.75777" xlink:href="#g"/>
<use x="178.536558" y="25.75777" xlink:href="#c"/>
<use x="190.791827" y="25.75777" xlink:href="#f"/>
<use x="196.044085" y="25.75777" xlink:href="#e"/>
<use x="204.797848" y="25.75777" xlink:href="#i"/>
<use x="217.053117" y="25.75777" xlink:href="#d"/>
<use x="229.308386" y="25.75777" xlink:href="#q"/>
<use x="241.563655" y="25.75777" xlink:href="#h"/>
<use x="252.068171" y="25.75777" xlink:href="#g"/>
<use x="260.821934" y="25.75777" xlink:href="#f"/>
<use x="266.074192" y="25.75777" xlink:href="#ab"/>
<use x="276.578709" y="25.75777" xlink:href="#n"/>
<use x="288.833977" y="25.75777" xlink:href="#e"/>
<use x="297.587741" y="25.75777" xlink:href="#i"/>
<use x="309.84301" y="25.75777" xlink:href="#d"/>
<use x="322.098279" y="25.75777" xlink:href="#q"/>
<use x="334.353547" y="25.75777" xlink:href="#k"/>
<use x="339.605805" y="25.75777" xlink:href="#p"/>
<use x="351.861074" y="25.75777" xlink:href="#c"/>
<use x="364.116343" y="25.75777" xlink:href="#h"/>
</g>
<g>
<use x="120.761719" y="47.66402" xlink:href="#t"/>
<use x="134.76774" y="47.66402" xlink:href="#o"/>
<use x="147.023009" y="47.66402" xlink:href="#e"/>
<use x="155.776773" y="47.66402" xlink:href="#f"/>
<use x="161.029031" y="47.66402" xlink:href="#l"/>
<use x="173.2843" y="47.66402" xlink:href="#d"/>
<use x="185.539568" y="47.66402" xlink:href="#h"/>
<use x="196.044085" y="47.66402" xlink:href="#s"/>
<use x="208.299353" y="47.66402" xlink:href="#l"/>
<use x="220.554622" y="47.66402" xlink:href="#e"/>
<use x="229.308386" y="47.66402" xlink:href="#c"/>
<use x="241.563655" y="47.66402" xlink:href="#d"/>
<use x="253.818923" y="47.66402" xlink:href="#e"/>
<use x="262.572687" y="47.66402" xlink:href="#f"/>
<use x="267.824945" y="47.66402" xlink:href="#j"/>
<use x="280.080214" y="47.66402" xlink:href="#m"/>
<use x="285.332472" y="47.66402" xlink:href="#h"/>
</g>
<g>
<use x="580.5" y="25.75777" xlink:href="#l"/>
<use x="592.755269" y="25.75777" xlink:href="#aa"/>
<use x="599.75828" y="25.75777" xlink:href="#aa"/>
<use x="606.76129" y="25.75777" xlink:href="#c"/>
<use x="619.016559" y="25.75777" xlink:href="#d"/>
<use x="631.271828" y="25.75777" xlink:href="#c"/>
<use x="643.527097" y="25.75777" xlink:href="#g"/>
<use x="652.28086" y="25.75777" xlink:href="#k"/>
<use x="657.533119" y="25.75777" xlink:href="#ah"/>
<use x="671.53914" y="25.75777" xlink:href="#j"/>
<use x="683.794409" y="25.75777" xlink:href="#d"/>
<use x="696.049678" y="25.75777" xlink:href="#j"/>
<use x="708.304947" y="25.75777" xlink:href="#m"/>
</g>
<path transform="matrix(1.7508 0 0 1.7528 0 .35475)" d="m213.07 56.376h19.501v-4.5018h-19.501v4.5018z" fill="#ccc" stroke="#000" stroke-width=".75"/>
<path transform="matrix(1.7508 0 0 1.7528 0 .35475)" d="m239.32 56.376h19.501v-4.5018h-19.501v4.5018z" fill="#ccc" stroke="#000" stroke-width=".75"/>
<path transform="matrix(1.7508 0 0 1.7528 0 .35475)" d="m265.57 56.376h19.501v-4.5018h-19.501v4.5018z" fill="#ccc" stroke="#000" stroke-width=".75"/>
<path transform="matrix(1.7508 0 0 1.7528 0 .35475)" d="m291.82 56.376h19.501v-4.5018h-19.501v4.5018z" fill="#ccc" stroke="#000" stroke-width=".75"/>
<path transform="matrix(1.7508 0 0 1.7528 0 .35475)" d="m318.07 56.376h19.501v-4.5018h-19.501v4.5018z" fill="#ccc" stroke="#000" stroke-width=".75"/>
<path transform="matrix(1.7508 0 0 1.7528 0 .35475)" d="m340.57 56.376h19.498v-4.5018h-19.498v4.5018z" fill="#ccc" stroke="#000" stroke-width=".75"/>
<path transform="matrix(1.7508 0 0 1.7528 0 .35475)" d="m363.07 56.376h19.501v-4.5018h-19.501v4.5018z" fill="#ccc" stroke="#000" stroke-width=".75"/>
<path transform="matrix(1.7508 0 0 1.7528 0 .35475)" d="m385.57 56.376h19.501v-4.5018h-19.501v4.5018z" fill="#ccc" stroke="#000" stroke-width=".75"/>
<path transform="matrix(1.7508 0 0 1.7528 0 .35475)" d="m408.07 56.376h19.498v-4.5018h-19.498v4.5018z" fill="#ccc" stroke="#000" stroke-width=".75"/>
<path transform="matrix(1.7508 0 0 1.7528 0 .35475)" d="m430.57 56.376h19.501v-4.5018h-19.501v4.5018z" fill="#ccc" stroke="#000" stroke-width=".75"/>
<path transform="matrix(1.7508 0 0 1.7528 0 .35475)" d="m186.82 56.376h19.501v-4.5018h-19.501v4.5018z" fill="#ccc" stroke="#000" stroke-width=".75"/>
<path transform="matrix(1.7508 0 0 1.7528 0 .35475)" d="m74.321 56.376h19.501v-4.5018h-19.501v4.5018z" fill="#ccc" stroke="#000" stroke-width=".75"/>
<path transform="matrix(1.7508 0 0 1.7528 0 .35475)" d="m96.822 56.376h19.498v-4.5018h-19.498v4.5018z" fill="#ccc" stroke="#000" stroke-width=".75"/>
<path transform="matrix(1.7508 0 0 1.7528 0 .35475)" d="m119.32 56.376h19.501v-4.5018h-19.501v4.5018z" fill="#ccc" stroke="#000" stroke-width=".75"/>
<path transform="matrix(1.7508 0 0 1.7528 0 .35475)" d="m141.82 56.376h19.501v-4.5018h-19.501v4.5018z" fill="#ccc" stroke="#000" stroke-width=".75"/>
<path transform="matrix(1.7508 0 0 1.7528 0 .35475)" d="m164.32 56.376h19.498v-4.5018h-19.498v4.5018z" fill="#ccc" stroke="#000" stroke-width=".75"/>
<path transform="matrix(1.7508 0 0 1.7528 0 .35475)" d="m21.821 11.502c3.88 0.68642 6.9256 3.499 9.4468 6.3516 4.6052 5.3665 8.117 11.542 11.899 17.49 3.5944 5.6407 7.1733 11.406 12.013 16.084 2.7979 2.6654 6.3566 5.0322 10.368 4.9476h5.8591v-4.5018s-0.084785-0.006686-6.5084-0.008914c-3.8064-0.19835-6.9881-2.7033-9.5138-5.3576-4.3062-4.6333-7.5615-10.102-10.924-15.424-3.8756-6.1399-7.6039-12.458-12.557-17.813-2.7377-2.8883-6.0331-5.6384-10.083-6.2847z" fill="#ccc" stroke="#000" stroke-width=".75"/>
<g>
<use x="401.996094" y="79.148387" xlink:href="#w"/>
<use x="419.503621" y="79.148387" xlink:href="#v"/>
</g>
<g>
<use x="426.253906" y="68.210904" xlink:href="#u"/>
</g>
<path transform="matrix(1.7508 0 0 1.7528 0 .35475)" d="m231.07 46.626c4.1522 0 4.5003 0.74882 4.5003 11.25v11.25" fill="none" stroke="#000" stroke-width=".75"/>
<path transform="matrix(-4.8e-17 -.78874 .78784 -4.8e-17 412.43 121.51)" d="m8.7194 4.0343-10.925-4.0161 10.925-4.0211c-1.7482 2.375-1.7383 5.6176 0 8.0372z" fill-rule="evenodd" stroke="#000" stroke-linejoin="round" stroke-width=".625"/>
<path transform="matrix(1.7508 0 0 1.7528 0 .35475)" d="m258.07 46.626c4.1522 0 4.5003 0.74882 4.5003 11.25v11.25" fill="none" stroke="#000" stroke-width=".75"/>
<path transform="matrix(-4.8e-17 -.78874 .78784 -4.8e-17 459.7 121.51)" d="m8.7194 4.0333-10.925-4.0161 10.925-4.0211c-1.7482 2.375-1.7383 5.6176 0 8.0372z" fill-rule="evenodd" stroke="#000" stroke-linejoin="round" stroke-width=".625"/>
<path transform="matrix(1.7508 0 0 1.7528 0 .35475)" d="m284.32 46.626c4.1522 0 4.5003 0.74882 4.5003 11.25v5.2484" fill="none" stroke="#000" stroke-width=".75"/>
<path transform="matrix(-4.8e-17 -.78874 .78784 -4.8e-17 505.65 111)" d="m8.7183 4.033-10.925-4.0161 10.925-4.0211c-1.7433 2.375-1.7334 5.6176 0 8.0372z" fill-rule="evenodd" stroke="#000" stroke-linejoin="round" stroke-width=".625"/>
<path transform="matrix(1.7508 0 0 1.7528 0 .35475)" d="m310.57 46.626c4.1522 0 4.5003 0.74882 4.5003 11.25v5.2484" fill="none" stroke="#000" stroke-width=".75"/>
<path transform="matrix(-4.8e-17 -.78874 .78784 -4.8e-17 551.61 111)" d="m8.7183 4.0327-10.925-4.0161 10.925-4.0161c-1.7433 2.37-1.7334 5.6176 0 8.0323z" fill-rule="evenodd" stroke="#000" stroke-linejoin="round" stroke-width=".625"/>
<path transform="matrix(1.7508 0 0 1.7528 0 .35475)" d="m65.322 100.35h142.5v-7.4993h-142.5c-18.751 0-30 44.998-45.001 44.998v7.5016c18.749 0 30-45.001 45.001-45.001z" stroke="#000" stroke-width=".75"/>
<path transform="matrix(1.7508 0 0 1.7528 0 .35475)" d="m211.57 100.35v-7.4993h22.499v7.4993z" stroke="#000" stroke-width=".75"/>
<path transform="matrix(1.7508 0 0 1.7528 0 .35475)" d="m237.82 100.35v-7.4993h22.499v7.4993z" stroke="#000" stroke-width=".75"/>
<path transform="matrix(1.7508 0 0 1.7528 0 .35475)" d="m264.07 100.35v-7.4993h22.499v7.4993z" stroke="#000" stroke-width=".75"/>
<path transform="matrix(1.7508 0 0 1.7528 0 .35475)" d="m290.32 100.35v-7.4993h22.499v7.4993z" stroke="#000" stroke-width=".75"/>
<path transform="matrix(1.7508 0 0 1.7528 0 .35475)" d="m316.57 100.35v-7.4993h135v7.4993z" stroke="#000" stroke-width=".75"/>
<path transform="matrix(1.7508 0 0 1.7528 0 .35475)" d="m213.07 94.347h19.501v4.4996h-19.501v-4.4996z" fill="#ccc" stroke="#000" stroke-width=".75"/>
<path transform="matrix(1.7508 0 0 1.7528 0 .35475)" d="m239.32 94.347h19.501v4.4996h-19.501v-4.4996z" fill="#ccc" stroke="#000" stroke-width=".75"/>
<path transform="matrix(1.7508 0 0 1.7528 0 .35475)" d="m265.57 94.347h19.501v4.4996h-19.501v-4.4996z" fill="#ccc" stroke="#000" stroke-width=".75"/>
<path transform="matrix(1.7508 0 0 1.7528 0 .35475)" d="m291.82 94.347h19.501v4.4996h-19.501v-4.4996z" fill="#ccc" stroke="#000" stroke-width=".75"/>
<path transform="matrix(1.7508 0 0 1.7528 0 .35475)" d="m318.07 94.347h19.501v4.4996h-19.501v-4.4996z" fill="#ccc" stroke="#000" stroke-width=".75"/>
<path transform="matrix(1.7508 0 0 1.7528 0 .35475)" d="m340.57 94.347h19.498v4.4996h-19.498v-4.4996z" fill="#ccc" stroke="#000" stroke-width=".75"/>
<path transform="matrix(1.7508 0 0 1.7528 0 .35475)" d="m363.07 94.347h19.501v4.4996h-19.501v-4.4996z" fill="#ccc" stroke="#000" stroke-width=".75"/>
<path transform="matrix(1.7508 0 0 1.7528 0 .35475)" d="m385.57 94.347h19.501v4.4996h-19.501v-4.4996z" fill="#ccc" stroke="#000" stroke-width=".75"/>
<path transform="matrix(1.7508 0 0 1.7528 0 .35475)" d="m408.07 94.347h19.498v4.4996h-19.498v-4.4996z" fill="#ccc" stroke="#000" stroke-width=".75"/>
<path transform="matrix(1.7508 0 0 1.7528 0 .35475)" d="m430.57 94.347h19.501v4.4996h-19.501v-4.4996z" fill="#ccc" stroke="#000" stroke-width=".75"/>
<path transform="matrix(1.7508 0 0 1.7528 0 .35475)" d="m186.82 94.347h19.501v4.4996h-19.501v-4.4996z" fill="#ccc" stroke="#000" stroke-width=".75"/>
<path transform="matrix(1.7508 0 0 1.7528 0 .35475)" d="m74.321 94.347h19.501v4.4996h-19.501v-4.4996z" fill="#ccc" stroke="#000" stroke-width=".75"/>
<path transform="matrix(1.7508 0 0 1.7528 0 .35475)" d="m96.822 94.347h19.498v4.4996h-19.498v-4.4996z" fill="#ccc" stroke="#000" stroke-width=".75"/>
<path transform="matrix(1.7508 0 0 1.7528 0 .35475)" d="m119.32 94.347h19.501v4.4996h-19.501v-4.4996z" fill="#ccc" stroke="#000" stroke-width=".75"/>
<path transform="matrix(1.7508 0 0 1.7528 0 .35475)" d="m141.82 94.347h19.501v4.4996h-19.501v-4.4996z" fill="#ccc" stroke="#000" stroke-width=".75"/>
<path transform="matrix(1.7508 0 0 1.7528 0 .35475)" d="m164.32 94.347h19.498v4.4996h-19.498v-4.4996z" fill="#ccc" stroke="#000" stroke-width=".75"/>
<path transform="matrix(1.7508 0 0 1.7528 0 .35475)" d="m21.821 139.22c3.88-0.68865 6.9256-3.499 9.4468-6.3516 4.6052-5.3688 8.117-11.544 11.899-17.493 3.5944-5.6384 7.1733-11.404 12.013-16.084 2.7979-2.6654 6.3566-5.03 10.368-4.9453h5.8591v4.4996s-0.084785 0.006685-6.5084 0.008914c-3.8064 0.19835-6.9881 2.7056-9.5138 5.3599-4.3062 4.6333-7.5615 10.1-10.924 15.422-3.8756 6.1421-7.6039 12.458-12.557 17.816-2.7377 2.8861-6.0331 5.6362-10.083 6.2847z" fill="#ccc" stroke="#000" stroke-width=".75"/>
<g>
<use x="401.996094" y="205.167918" xlink:href="#w"/>
<use x="419.503621" y="205.167918" xlink:href="#v"/>
</g>
<g>
<use x="426.253906" y="194.230435" xlink:href="#u"/>
</g>
<path transform="matrix(1.7508 0 0 1.7528 0 .35475)" d="m231.07 104.1c4.1522 0 4.5003-0.75105 4.5003-11.25v-11.25" fill="none" stroke="#000" stroke-width=".75"/>
<path transform="matrix(1.45e-16 .78874 -.78784 1.45e-16 412.43 143.37)" d="m8.7176 4.0326-10.925-4.0161 10.925-4.0161c-1.7433 2.37-1.7334 5.6176 0 8.0323z" fill-rule="evenodd" stroke="#000" stroke-linejoin="round" stroke-width=".625"/>
<path transform="matrix(1.7508 0 0 1.7528 0 .35475)" d="m258.07 104.1c4.1522 0 4.5003-0.75105 4.5003-11.25v-11.25" fill="none" stroke="#000" stroke-width=".75"/>
<path transform="matrix(1.45e-16 .78874 -.78784 1.45e-16 459.7 143.37)" d="m8.7176 4.0336-10.925-4.0161 10.925-4.0211c-1.7433 2.375-1.7334 5.6176 0 8.0372z" fill-rule="evenodd" stroke="#000" stroke-linejoin="round" stroke-width=".625"/>
<path transform="matrix(1.7508 0 0 1.7528 0 .35475)" d="m284.32 104.1c4.1522 0 4.5003-0.75105 4.5003-11.25v-5.2507" fill="none" stroke="#000" stroke-width=".75"/>
<path transform="matrix(1.45e-16 .78874 -.78784 1.45e-16 505.65 153.89)" d="m8.7164 4.0339-10.925-4.0161 10.925-4.0211c-1.7433 2.375-1.7334 5.6176 0 8.0372z" fill-rule="evenodd" stroke="#000" stroke-linejoin="round" stroke-width=".625"/>
<path transform="matrix(1.7508 0 0 1.7528 0 .35475)" d="m310.57 104.1c4.1522 0 4.5003-0.75105 4.5003-11.25v-5.2507" fill="none" stroke="#000" stroke-width=".75"/>
<path transform="matrix(1.45e-16 .78874 -.78784 1.45e-16 551.61 153.89)" d="m8.7164 4.0342-10.925-4.0161 10.925-4.0211c-1.7433 2.375-1.7334 5.6176 0 8.0372z" fill-rule="evenodd" stroke="#000" stroke-linejoin="round" stroke-width=".625"/>
<g>
<use x="7.96875" y="140.460895" xlink:href="#z"/>
<use x="20.224019" y="140.460895" xlink:href="#c"/>
<use x="32.479288" y="140.460895" xlink:href="#m"/>
<use x="37.731546" y="140.460895" xlink:href="#m"/>
<use x="42.983804" y="140.460895" xlink:href="#o"/>
<use x="53.48832" y="140.460895" xlink:href="#ag"/>
<use x="65.743589" y="140.460895" xlink:href="#g"/>
<use x="74.497352" y="140.460895" xlink:href="#s"/>
<use x="86.752621" y="140.460895" xlink:href="#c"/>
<use x="99.00789" y="140.460895" xlink:href="#g"/>
</g>
<path transform="matrix(1.7508 0 0 1.7528 0 .35475)" d="m65.322 121.63c0 7.4993 7.499 7.4993 7.499 7.4993h41.25c3.7506 0 3.7506 3.7508 3.7506 3.7508s0-3.7508 3.7484-3.7508h41.25s7.5012 0 7.5012-7.4993" fill="none" stroke="#000" stroke-width="1.4173"/>
<path transform="matrix(1.7508 0 0 1.7528 0 .35475)" d="m181.57 121.63c0 7.4993 7.499 7.4993 7.499 7.4993h58.502c2.9987 0 3.7484 3.7508 3.7484 3.7508s0.75191-3.7508 3.7506-3.7508h57.75s7.5012 0 7.5012-7.4993" fill="none" stroke="#000" stroke-width="1.4173"/>
<path transform="matrix(1.7508 0 0 1.7528 0 .35475)" d="m331.57 121.63c0 7.4993 7.499 7.4993 7.499 7.4993h41.25c3.7506 0 3.7506 3.7508 3.7506 3.7508s0-3.7508 3.7506-3.7508h41.25s7.499 0 7.499-7.4993" fill="none" stroke="#000" stroke-width="1.4173"/>
<g>
<use x="149.105469" y="260.281208" xlink:href="#f"/>
<use x="154.357727" y="260.281208" xlink:href="#d"/>
<use x="166.612996" y="260.281208" xlink:href="#k"/>
<use x="171.865254" y="260.281208" xlink:href="#y"/>
<use x="185.871275" y="260.281208" xlink:href="#i"/>
<use x="198.126544" y="260.281208" xlink:href="#n"/>
<use x="210.381813" y="260.281208" xlink:href="#c"/>
<use x="222.637082" y="260.281208" xlink:href="#k"/>
<use x="227.88934" y="260.281208" xlink:href="#i"/>
<use x="240.144609" y="260.281208" xlink:href="#d"/>
<use x="252.399878" y="260.281208" xlink:href="#p"/>
</g>
<g>
<use x="130.722656" y="282.187458" xlink:href="#x"/>
<use x="142.977925" y="282.187458" xlink:href="#l"/>
<use x="155.233194" y="282.187458" xlink:href="#g"/>
<use x="163.986957" y="282.187458" xlink:href="#af"/>
<use x="176.242226" y="282.187458" xlink:href="#r"/>
<use x="188.497495" y="282.187458" xlink:href="#c"/>
<use x="200.752764" y="282.187458" xlink:href="#g"/>
<use x="209.506527" y="282.187458" xlink:href="#q"/>
<use x="221.761796" y="282.187458" xlink:href="#c"/>
<use x="234.017065" y="282.187458" xlink:href="#n"/>
<use x="246.272334" y="282.187458" xlink:href="#c"/>
<use x="258.527603" y="282.187458" xlink:href="#d"/>
<use x="270.782872" y="282.187458" xlink:href="#p"/>
</g>
<g>
<use x="135.972656" y="304.097614" xlink:href="#d"/>
<use x="148.227925" y="304.097614" xlink:href="#f"/>
<use x="153.480183" y="304.097614" xlink:href="#ab"/>
<use x="163.984699" y="304.097614" xlink:href="#n"/>
<use x="176.239968" y="304.097614" xlink:href="#e"/>
<use x="184.993732" y="304.097614" xlink:href="#k"/>
<use x="190.24599" y="304.097614" xlink:href="#c"/>
<use x="202.501259" y="304.097614" xlink:href="#g"/>
<use x="211.255022" y="304.097614" xlink:href="#g"/>
<use x="220.008786" y="304.097614" xlink:href="#c"/>
<use x="232.264054" y="304.097614" xlink:href="#q"/>
<use x="244.519323" y="304.097614" xlink:href="#r"/>
<use x="256.774592" y="304.097614" xlink:href="#j"/>
<use x="269.029861" y="304.097614" xlink:href="#g"/>
</g>
<g>
<use x="370.191406" y="260.281208" xlink:href="#f"/>
<use x="375.443664" y="260.281208" xlink:href="#ae"/>
<use x="392.951191" y="260.281208" xlink:href="#k"/>
<use x="398.203449" y="260.281208" xlink:href="#j"/>
<use x="410.458718" y="260.281208" xlink:href="#o"/>
<use x="422.713987" y="260.281208" xlink:href="#e"/>
<use x="431.467751" y="260.281208" xlink:href="#f"/>
<use x="436.720009" y="260.281208" xlink:href="#x"/>
<use x="448.975277" y="260.281208" xlink:href="#f"/>
<use x="454.227536" y="260.281208" xlink:href="#c"/>
<use x="466.482804" y="260.281208" xlink:href="#g"/>
<use x="475.236568" y="260.281208" xlink:href="#e"/>
<use x="483.990331" y="260.281208" xlink:href="#c"/>
<use x="496.2456" y="260.281208" xlink:href="#d"/>
</g>
<g>
<use x="399.078125" y="282.187458" xlink:href="#z"/>
<use x="411.333394" y="282.187458" xlink:href="#i"/>
<use x="423.588663" y="282.187458" xlink:href="#h"/>
<use x="434.093179" y="282.187458" xlink:href="#e"/>
<use x="442.846942" y="282.187458" xlink:href="#j"/>
<use x="455.102211" y="282.187458" xlink:href="#d"/>
<use x="467.35748" y="282.187458" xlink:href="#p"/>
</g>
<g>
<use x="348.304688" y="304.097614" xlink:href="#ad"/>
<use x="357.058451" y="304.097614" xlink:href="#t"/>
<use x="371.064473" y="304.097614" xlink:href="#o"/>
<use x="383.319741" y="304.097614" xlink:href="#e"/>
<use x="392.073505" y="304.097614" xlink:href="#f"/>
<use x="397.325763" y="304.097614" xlink:href="#l"/>
<use x="409.581032" y="304.097614" xlink:href="#d"/>
<use x="421.836301" y="304.097614" xlink:href="#h"/>
<use x="432.340817" y="304.097614" xlink:href="#s"/>
<use x="444.596086" y="304.097614" xlink:href="#l"/>
<use x="456.851355" y="304.097614" xlink:href="#e"/>
<use x="465.605118" y="304.097614" xlink:href="#c"/>
<use x="477.860387" y="304.097614" xlink:href="#d"/>
<use x="490.115656" y="304.097614" xlink:href="#e"/>
<use x="498.869419" y="304.097614" xlink:href="#f"/>
<use x="504.121677" y="304.097614" xlink:href="#j"/>
<use x="516.376946" y="304.097614" xlink:href="#m"/>
<use x="521.629204" y="304.097614" xlink:href="#ac"/>
</g>
<g>
<use x="635.335938" y="260.281208" xlink:href="#f"/>
<use x="640.588196" y="260.281208" xlink:href="#d"/>
<use x="652.843464" y="260.281208" xlink:href="#k"/>
<use x="658.095723" y="260.281208" xlink:href="#y"/>
<use x="672.101744" y="260.281208" xlink:href="#i"/>
<use x="684.357013" y="260.281208" xlink:href="#n"/>
<use x="696.612282" y="260.281208" xlink:href="#c"/>
</g>
<path transform="matrix(1.7508 0 0 1.7528 0 .35475)" d="m222.82 12.875h74.999" fill="none" stroke="#000" stroke-width="1.4173"/>
<path transform="matrix(-1.4888 0 0 -1.4905 521.41 22.921)" d="m8.7194 4.033-10.928-4.0175 10.928-4.0175c-1.7474 2.3717-1.7369 5.6188 0 8.0351z" fill-rule="evenodd" stroke="#000" stroke-linejoin="round" stroke-width=".625"/>
<path transform="matrix(1.7508 0 0 1.7528 0 .35475)" d="m327.82 12.875-37.499 35.25" fill="none" stroke="#000" stroke-width="1.4173"/>
<g>
<use x="119.613281" y="81.547926" xlink:href="#b"/>
</g>
<g>
<use x="319.199219" y="80.786207" xlink:href="#a"/>
</g>
<g>
<use x="198.398438" y="81.547926" xlink:href="#b"/>
</g>
<g>
<use x="277.179688" y="81.547926" xlink:href="#b"/>
</g>
<g>
<use x="316.5625" y="120.965895" xlink:href="#b"/>
</g>
<g>
<use x="358.589844" y="120.965895" xlink:href="#b"/>
</g>
<g>
<use x="497.777344" y="81.547926" xlink:href="#b"/>
</g>
<g>
<use x="543.734375" y="81.547926" xlink:href="#b"/>
</g>
<g>
<use x="585.75" y="81.547926" xlink:href="#b"/>
</g>
<g>
<use x="625.144531" y="81.547926" xlink:href="#b"/>
</g>
<g>
<use x="703.925781" y="195.426832" xlink:href="#b"/>
</g>
<g>
<use x="743.320313" y="195.426832" xlink:href="#b"/>
</g>
<g>
<use x="703.925781" y="81.547926" xlink:href="#b"/>
</g>
<g>
<use x="585.75" y="195.426832" xlink:href="#b"/>
</g>
<g>
<use x="625.144531" y="195.426832" xlink:href="#b"/>
</g>
<g>
<use x="497.777344" y="195.426832" xlink:href="#b"/>
</g>
<g>
<use x="543.734375" y="195.426832" xlink:href="#b"/>
</g>
<g>
<use x="316.5625" y="156.01277" xlink:href="#b"/>
</g>
<g>
<use x="358.589844" y="156.01277" xlink:href="#b"/>
</g>
<g>
<use x="119.613281" y="195.426832" xlink:href="#b"/>
</g>
<g>
<use x="277.179688" y="195.426832" xlink:href="#b"/>
</g>
<g>
<use x="198.398438" y="195.426832" xlink:href="#b"/>
</g>
<g>
<use x="454.445313" y="194.665113" xlink:href="#a"/>
</g>
<g>
<use x="745.945312" y="155.227613" xlink:href="#a"/>
</g>
<g>
<use x="706.554688" y="155.227613" xlink:href="#a"/>
</g>
<g>
<use x="667.160156" y="155.227613" xlink:href="#a"/>
</g>
<g>
<use x="362.53125" y="80.786207" xlink:href="#a"/>
</g>
<g>
<use x="454.445313" y="80.786207" xlink:href="#a"/>
</g>
<g>
<use x="500.402344" y="120.223707" xlink:href="#a"/>
</g>
<g>
<use x="546.359375" y="120.223707" xlink:href="#a"/>
</g>
<g>
<use x="588.378906" y="120.223707" xlink:href="#a"/>
</g>
<g>
<use x="627.769531" y="120.223707" xlink:href="#a"/>
</g>
<g>
<use x="667.160156" y="120.223707" xlink:href="#a"/>
</g>
<g>
<use x="706.554688" y="120.223707" xlink:href="#a"/>
</g>
<g>
<use x="745.945312" y="120.223707" xlink:href="#a"/>
</g>
<g>
<use x="240.414063" y="155.227613" xlink:href="#a"/>
</g>
<g>
<use x="279.808594" y="155.227613" xlink:href="#a"/>
</g>
<g>
<use x="319.199219" y="194.665113" xlink:href="#a"/>
</g>
<g>
<use x="362.53125" y="194.665113" xlink:href="#a"/>
</g>
<g>
<use x="500.402344" y="155.227613" xlink:href="#a"/>
</g>
<g>
<use x="546.359375" y="155.227613" xlink:href="#a"/>
</g>
<g>
<use x="588.378906" y="155.227613" xlink:href="#a"/>
</g>
<g>
<use x="627.769531" y="155.227613" xlink:href="#a"/>
</g>
<g>
<use x="279.808594" y="120.223707" xlink:href="#a"/>
</g>
<g>
<use x="240.414063" y="120.223707" xlink:href="#a"/>
</g>
<g>
<use x="201.023438" y="120.223707" xlink:href="#a"/>
</g>
<g>
<use x="161.632812" y="120.223707" xlink:href="#a"/>
</g>
<g>
<use x="122.238281" y="120.223707" xlink:href="#a"/>
</g>
<g>
<use x="122.238281" y="155.227613" xlink:href="#a"/>
</g>
<g>
<use x="161.632812" y="155.227613" xlink:href="#a"/>
</g>
<g>
<use x="201.023438" y="155.227613" xlink:href="#a"/>
</g>
</svg>
