<?xml version="1.0" encoding="UTF-8"?>
<svg width="800px" height="723px" version="1.1" viewBox="0 0 800 723" xmlns="http://www.w3.org/2000/svg" xmlns:xlink="http://www.w3.org/1999/xlink">
<defs>
<symbol id="ae" overflow="visible">
<path d="m-0.046875-11.453h9.6875v1.2969h-4.0625v10.156h-1.5625v-10.156h-4.0625z"/>
</symbol>
<symbol id="d" overflow="visible">
<path d="m8.8281-4.6562v0.70312h-6.4844c0.0625 0.96875 0.35156 1.7109 0.875 2.2188 0.51953 0.51172 1.25 0.76562 2.1875 0.76562 0.53906 0 1.0664-0.066406 1.5781-0.20312 0.50781-0.13281 1.0156-0.33203 1.5156-0.59375v1.3281c-0.5 0.21875-1.0234 0.38281-1.5625 0.48438-0.53125 0.11328-1.0703 0.17188-1.6094 0.17188-1.375 0-2.4648-0.39453-3.2656-1.1875-0.79297-0.80078-1.1875-1.8828-1.1875-3.25 0-1.4062 0.375-2.5195 1.125-3.3438 0.75781-0.82031 1.7852-1.2344 3.0781-1.2344 1.1562 0 2.0664 0.375 2.7344 1.125 0.67578 0.74219 1.0156 1.7461 1.0156 3.0156zm-1.4062-0.40625c-0.011719-0.76953-0.23047-1.3828-0.65625-1.8438-0.41797-0.46875-0.97656-0.70312-1.6719-0.70312-0.78125 0-1.4141 0.22656-1.8906 0.67188-0.46875 0.44922-0.74219 1.0742-0.8125 1.875z"/>
</symbol>
<symbol id="k" overflow="visible">
<path d="m6.4688-7.2812c-0.16797-0.09375-0.34375-0.16016-0.53125-0.20312-0.17969-0.039063-0.38281-0.0625-0.60938-0.0625-0.80469 0-1.418 0.26172-1.8438 0.78125-0.42969 0.52344-0.64062 1.2656-0.64062 2.2344v4.5312h-1.4219v-8.5938h1.4219v1.3281c0.30078-0.51953 0.6875-0.90625 1.1562-1.1562 0.47656-0.25 1.0547-0.375 1.7344-0.375 0.10156 0 0.21094 0.007813 0.32812 0.015625 0.11328 0.011719 0.24219 0.027344 0.39062 0.046875z"/>
</symbol>
<symbol id="i" overflow="visible">
<path d="m8.1719-6.9531c0.35156-0.625 0.77344-1.0859 1.2656-1.3906 0.48828-0.30078 1.0664-0.45312 1.7344-0.45312 0.89453 0 1.582 0.3125 2.0625 0.9375 0.48828 0.625 0.73438 1.5156 0.73438 2.6719v5.1875h-1.4062v-5.1406c0-0.82031-0.14844-1.4297-0.4375-1.8281-0.29297-0.40625-0.74219-0.60938-1.3438-0.60938-0.73047 0-1.3086 0.24609-1.7344 0.73438-0.42969 0.49219-0.64062 1.1523-0.64062 1.9844v4.8594h-1.4219v-5.1406c0-0.83203-0.14844-1.4453-0.4375-1.8438-0.29297-0.39453-0.74219-0.59375-1.3438-0.59375-0.71875 0-1.293 0.24609-1.7188 0.73438-0.42969 0.49219-0.64062 1.1523-0.64062 1.9844v4.8594h-1.4219v-8.5938h1.4219v1.3281c0.32031-0.51953 0.70703-0.90625 1.1562-1.1562 0.45703-0.25 0.99219-0.375 1.6094-0.375 0.625 0 1.1562 0.15625 1.5938 0.46875s0.75781 0.77344 0.96875 1.375z"/>
</symbol>
<symbol id="f" overflow="visible">
<path d="m1.4844-8.5938h1.4062v8.5938h-1.4062zm0-3.3438h1.4062v1.7812h-1.4062z"/>
</symbol>
<symbol id="a" overflow="visible">
<path d="m8.625-5.1875v5.1875h-1.4062v-5.1406c0-0.8125-0.16406-1.4219-0.48438-1.8281-0.3125-0.40625-0.78906-0.60938-1.4219-0.60938-0.76172 0-1.3672 0.24609-1.8125 0.73438-0.4375 0.49219-0.65625 1.1523-0.65625 1.9844v4.8594h-1.4219v-8.5938h1.4219v1.3281c0.34375-0.50781 0.74219-0.89062 1.2031-1.1406 0.45703-0.25781 0.98438-0.39062 1.5781-0.39062 0.98828 0 1.7344 0.30859 2.2344 0.92188 0.50781 0.60547 0.76562 1.5 0.76562 2.6875z"/>
</symbol>
<symbol id="c" overflow="visible">
<path d="m5.3906-4.3281c-1.1484 0-1.9375 0.13672-2.375 0.40625-0.4375 0.26172-0.65625 0.70312-0.65625 1.3281 0 0.5 0.16016 0.90234 0.48438 1.2031 0.33203 0.29297 0.78516 0.4375 1.3594 0.4375 0.78125 0 1.4062-0.27344 1.875-0.82812 0.47656-0.5625 0.71875-1.3008 0.71875-2.2188v-0.32812zm2.8125-0.57812v4.9062h-1.4062v-1.3125c-0.32422 0.53125-0.73047 0.92188-1.2188 1.1719-0.48047 0.23828-1.0625 0.35938-1.75 0.35938-0.88672 0-1.5898-0.24219-2.1094-0.73438-0.52344-0.5-0.78125-1.1602-0.78125-1.9844 0-0.96875 0.32031-1.6953 0.96875-2.1875 0.65625-0.48828 1.625-0.73438 2.9062-0.73438h1.9844v-0.14062c0-0.65625-0.21484-1.1602-0.64062-1.5156-0.42969-0.35156-1.0273-0.53125-1.7969-0.53125-0.5 0-0.98438 0.0625-1.4531 0.1875-0.46094 0.11719-0.90234 0.28906-1.3281 0.51562v-1.2969c0.50781-0.19531 1.0078-0.34375 1.5-0.4375 0.48828-0.10156 0.96094-0.15625 1.4219-0.15625 1.2383 0 2.1641 0.32422 2.7812 0.96875 0.61328 0.63672 0.92188 1.6094 0.92188 2.9219z"/>
</symbol>
<symbol id="b" overflow="visible">
<path d="m1.4844-11.938h1.4062v11.938h-1.4062z"/>
</symbol>
<symbol id="v" overflow="visible">
<path d="m4.875-11.922c-0.6875 1.1797-1.1992 2.3438-1.5312 3.5-0.33594 1.1484-0.5 2.3086-0.5 3.4844 0 1.1875 0.16406 2.3594 0.5 3.5156 0.34375 1.1562 0.85156 2.3203 1.5312 3.5h-1.2344c-0.76172-1.2109-1.3359-2.3906-1.7188-3.5469-0.38672-1.1641-0.57812-2.3203-0.57812-3.4688 0-1.1328 0.1875-2.2812 0.5625-3.4375 0.38281-1.1562 0.96094-2.3359 1.7344-3.5469z"/>
</symbol>
<symbol id="h" overflow="visible">
<path d="m4.8125-7.6094c-0.76172 0-1.3594 0.29688-1.7969 0.89062s-0.65625 1.4023-0.65625 2.4219c0 1.0312 0.21875 1.8438 0.65625 2.4375s1.0352 0.89062 1.7969 0.89062c0.75 0 1.3438-0.29688 1.7812-0.89062 0.44531-0.59375 0.67188-1.4062 0.67188-2.4375 0-1.0078-0.22656-1.8125-0.67188-2.4062-0.4375-0.60156-1.0312-0.90625-1.7812-0.90625zm0-1.1875c1.2266 0 2.1914 0.40234 2.8906 1.2031 0.69531 0.79297 1.0469 1.8906 1.0469 3.2969s-0.35156 2.5117-1.0469 3.3125c-0.69922 0.80469-1.6641 1.2031-2.8906 1.2031-1.2305 0-2.1953-0.39844-2.8906-1.2031-0.69922-0.80078-1.0469-1.9062-1.0469-3.3125s0.34766-2.5039 1.0469-3.2969c0.69531-0.80078 1.6602-1.2031 2.8906-1.2031z"/>
</symbol>
<symbol id="ad" overflow="visible">
<path d="m0.76562-4.9375h4.1406v1.2656h-4.1406z"/>
</symbol>
<symbol id="o" overflow="visible">
<path d="m5.0625 0.79688c-0.40625 1.0195-0.79688 1.6875-1.1719 2s-0.88281 0.46875-1.5156 0.46875h-1.125v-1.1719h0.82812c0.38281 0 0.67969-0.09375 0.89062-0.28125 0.21875-0.1875 0.45703-0.625 0.71875-1.3125l0.25-0.64062-3.4688-8.4531h1.5l2.6875 6.7188 2.6875-6.7188h1.4844z"/>
</symbol>
<symbol id="g" overflow="visible">
<path d="m2.875-11.031v2.4375h2.9062v1.0938h-2.9062v4.6719c0 0.69922 0.09375 1.1484 0.28125 1.3438 0.19531 0.19922 0.59375 0.29688 1.1875 0.29688h1.4375v1.1875h-1.4375c-1.0938 0-1.8516-0.20312-2.2656-0.60938-0.41797-0.40625-0.625-1.1445-0.625-2.2188v-4.6719h-1.0312v-1.0938h1.0312v-2.4375z"/>
</symbol>
<symbol id="n" overflow="visible">
<path d="m7.1406-7.2969v-4.6406h1.4062v11.938h-1.4062v-1.2969c-0.30469 0.52344-0.68359 0.90625-1.1406 1.1562-0.44922 0.23828-0.99219 0.35938-1.625 0.35938-1.0312 0-1.875-0.41016-2.5312-1.2344-0.64844-0.83203-0.96875-1.9258-0.96875-3.2812 0-1.3438 0.32031-2.4258 0.96875-3.25 0.65625-0.83203 1.5-1.25 2.5312-1.25 0.63281 0 1.1758 0.125 1.625 0.375 0.45703 0.24219 0.83594 0.61719 1.1406 1.125zm-4.8125 3c0 1.043 0.21094 1.8594 0.64062 2.4531 0.42578 0.59375 1.0156 0.89062 1.7656 0.89062 0.73828 0 1.3203-0.29688 1.75-0.89062 0.4375-0.59375 0.65625-1.4102 0.65625-2.4531 0-1.0312-0.21875-1.8438-0.65625-2.4375-0.42969-0.59375-1.0117-0.89062-1.75-0.89062-0.75 0-1.3398 0.29688-1.7656 0.89062-0.42969 0.59375-0.64062 1.4062-0.64062 2.4375z"/>
</symbol>
<symbol id="ac" overflow="visible">
<path d="m1.2656-11.922h1.2188c0.76953 1.2109 1.3438 2.3906 1.7188 3.5469 0.38281 1.1562 0.57812 2.3047 0.57812 3.4375 0 1.1484-0.19531 2.3047-0.57812 3.4688-0.375 1.1562-0.94922 2.3359-1.7188 3.5469h-1.2188c0.67578-1.1797 1.1797-2.3438 1.5156-3.5 0.33203-1.1562 0.5-2.3281 0.5-3.5156 0-1.1758-0.16797-2.3359-0.5-3.4844-0.33594-1.1562-0.83984-2.3203-1.5156-3.5z"/>
</symbol>
<symbol id="m" overflow="visible">
<path d="m8.625-8.5938-3.1094 4.1875 3.2656 4.4062h-1.6562l-2.5-3.375-2.5 3.375h-1.6719l3.3438-4.5-3.0625-4.0938h1.6719l2.2812 3.0625 2.2812-3.0625z"/>
</symbol>
<symbol id="ab" overflow="visible">
<path d="m1.5469-11.453h2.3125l2.9219 7.7969 2.9375-7.7969h2.3125v11.453h-1.5156v-10.062l-2.9531 7.8594h-1.5625l-2.9531-7.8594v10.062h-1.5z"/>
</symbol>
<symbol id="aa" overflow="visible">
<path d="m10.125-10.578v1.6406c-0.52344-0.48828-1.0781-0.85156-1.6719-1.0938-0.59375-0.23828-1.2266-0.35938-1.8906-0.35938-1.3047 0-2.3047 0.40234-3 1.2031-0.69922 0.80469-1.0469 1.9609-1.0469 3.4688 0 1.5117 0.34766 2.668 1.0469 3.4688 0.69531 0.80469 1.6953 1.2031 3 1.2031 0.66406 0 1.2969-0.11719 1.8906-0.35938 0.59375-0.23828 1.1484-0.60156 1.6719-1.0938v1.625c-0.54297 0.36719-1.1211 0.64062-1.7344 0.82812-0.60547 0.17578-1.2422 0.26562-1.9062 0.26562-1.7422 0-3.1094-0.53125-4.1094-1.5938s-1.5-2.5078-1.5-4.3438c0-1.8438 0.5-3.2969 1.5-4.3594s2.3672-1.5938 4.1094-1.5938c0.67578 0 1.3164 0.09375 1.9219 0.28125 0.61328 0.17969 1.1875 0.44922 1.7188 0.8125z"/>
</symbol>
<symbol id="z" overflow="visible">
<path d="m2.8438-1.2969v4.5625h-1.4219v-11.859h1.4219v1.2969c0.30078-0.50781 0.67578-0.88281 1.125-1.125 0.45703-0.25 1-0.375 1.625-0.375 1.0391 0 1.8906 0.41797 2.5469 1.25 0.65625 0.82422 0.98438 1.9062 0.98438 3.25 0 1.3555-0.32812 2.4492-0.98438 3.2812-0.65625 0.82422-1.5078 1.2344-2.5469 1.2344-0.625 0-1.168-0.12109-1.625-0.35938-0.44922-0.25-0.82422-0.63281-1.125-1.1562zm4.8125-3c0-1.0312-0.21484-1.8438-0.64062-2.4375-0.42969-0.59375-1.0156-0.89062-1.7656-0.89062s-1.3398 0.29688-1.7656 0.89062c-0.42969 0.59375-0.64062 1.4062-0.64062 2.4375 0 1.043 0.21094 1.8594 0.64062 2.4531 0.42578 0.59375 1.0156 0.89062 1.7656 0.89062s1.3359-0.29688 1.7656-0.89062c0.42578-0.59375 0.64062-1.4102 0.64062-2.4531z"/>
</symbol>
<symbol id="y" overflow="visible">
<path d="m6.9688-8.3438v1.3438c-0.40625-0.20703-0.82422-0.36328-1.25-0.46875-0.42969-0.10156-0.875-0.15625-1.3438-0.15625-0.69922 0-1.2266 0.10938-1.5781 0.32812-0.34375 0.21094-0.51562 0.53125-0.51562 0.96875 0 0.32422 0.125 0.57812 0.375 0.76562s0.75391 0.36719 1.5156 0.53125l0.48438 0.10938c1 0.21875 1.707 0.52734 2.125 0.92188 0.42578 0.38672 0.64062 0.92969 0.64062 1.625 0 0.80469-0.32031 1.4375-0.95312 1.9062-0.625 0.46094-1.4922 0.6875-2.5938 0.6875-0.46875 0-0.95312-0.046875-1.4531-0.14062-0.49219-0.082031-1.0117-0.21094-1.5625-0.39062v-1.4531c0.51953 0.27344 1.0312 0.47656 1.5312 0.60938 0.50781 0.13672 1.0156 0.20312 1.5156 0.20312 0.65625 0 1.1602-0.11328 1.5156-0.34375 0.36328-0.22656 0.54688-0.55078 0.54688-0.96875 0-0.38281-0.13281-0.67578-0.39062-0.875-0.25-0.20703-0.8125-0.40625-1.6875-0.59375l-0.5-0.125c-0.875-0.17578-1.5117-0.45312-1.9062-0.82812-0.38672-0.38281-0.57812-0.91016-0.57812-1.5781 0-0.8125 0.28516-1.4375 0.85938-1.875 0.57031-0.4375 1.3906-0.65625 2.4531-0.65625 0.51953 0 1.0078 0.039063 1.4688 0.10938 0.45703 0.074219 0.88281 0.1875 1.2812 0.34375z"/>
</symbol>
<symbol id="l" overflow="visible">
<path d="m1.3281-3.3906v-5.2031h1.4219v5.1406c0 0.82422 0.15625 1.4375 0.46875 1.8438 0.32031 0.40625 0.80078 0.60938 1.4375 0.60938 0.75781 0 1.3594-0.24219 1.7969-0.73438 0.44531-0.48828 0.67188-1.1484 0.67188-1.9844v-4.875h1.4062v8.5938h-1.4062v-1.3125c-0.34375 0.52344-0.74609 0.90625-1.2031 1.1562-0.44922 0.25-0.96875 0.375-1.5625 0.375-0.99219 0-1.7461-0.30469-2.2656-0.92188-0.51172-0.61328-0.76562-1.5078-0.76562-2.6875z"/>
</symbol>
<symbol id="x" overflow="visible">
<path d="m6.1875-10.406c-1.125 0-2.0234 0.42188-2.6875 1.2656-0.65625 0.83594-0.98438 1.9766-0.98438 3.4219 0 1.4492 0.32812 2.5938 0.98438 3.4375 0.66406 0.83594 1.5625 1.25 2.6875 1.25s2.0156-0.41406 2.6719-1.25c0.66406-0.84375 1-1.9883 1-3.4375 0-1.4453-0.33594-2.5859-1-3.4219-0.65625-0.84375-1.5469-1.2656-2.6719-1.2656zm0-1.2656c1.6133 0 2.8984 0.54297 3.8594 1.625 0.95703 1.0742 1.4375 2.5156 1.4375 4.3281 0 1.8047-0.48047 3.2461-1.4375 4.3281-0.96094 1.0742-2.2461 1.6094-3.8594 1.6094-1.6055 0-2.8906-0.53516-3.8594-1.6094-0.96875-1.0703-1.4531-2.5156-1.4531-4.3281s0.48438-3.2539 1.4531-4.3281c0.96875-1.082 2.2539-1.625 3.8594-1.625z"/>
</symbol>
<symbol id="w" overflow="visible">
<path d="m1.5469-11.453h1.5469v11.453h-1.5469z"/>
</symbol>
<radialGradient id="p" cx="268.49" cy="113.28" r="178.89" gradientTransform="matrix(-.91834 -1.8091 5.0678 -2.5726 49.153 991.23)" gradientUnits="userSpaceOnUse">
<stop stop-color="#6e7dbd" offset="0"/>
<stop stop-color="#fff" offset="1"/>
</radialGradient>
<linearGradient id="e" x1="145" x2="162.26" y1="170.73" y2="187.46" gradientTransform="translate(4.44e-16)" gradientUnits="userSpaceOnUse">
<stop stop-color="#5ab3cc" offset="0"/>
<stop stop-color="#72d1d1" offset="1"/>
</linearGradient>
<linearGradient id="s" x1="213.79" x2="363.05" y1="127.83" y2="233.22" gradientTransform="translate(4.44e-16)" gradientUnits="userSpaceOnUse">
<stop stop-color="#145c50" offset="0"/>
<stop stop-color="#288e8a" stop-opacity="0" offset="1"/>
</linearGradient>
<linearGradient id="r" x1="171.14" x2="185.95" y1="167.54" y2="179.21" gradientTransform="matrix(1.9655 0 0 1.9656 -4.9221 -11.202)" gradientUnits="userSpaceOnUse">
<stop stop-color="#fff" offset="0"/>
<stop stop-color="#fff" stop-opacity="0" offset="1"/>
</linearGradient>
<linearGradient id="q" x1="196.97" x2="200.8" y1="169.08" y2="172.54" gradientTransform="translate(4.44e-16)" gradientUnits="userSpaceOnUse">
<stop stop-color="#faefc1" offset="0"/>
<stop stop-color="#e7b18a" offset="1"/>
</linearGradient>
<linearGradient id="j" x1="123.19" x2="140.41" y1="240.06" y2="258.32" gradientTransform="translate(4.44e-16)" gradientUnits="userSpaceOnUse">
<stop stop-color="#f2b1d5" offset="0"/>
<stop stop-color="#ca5386" offset="1"/>
</linearGradient>
<linearGradient id="u" x1="149.82" x2="158.87" y1="192.58" y2="198.95" gradientTransform="matrix(1.9655 0 0 1.9656 -4.9221 -11.202)" gradientUnits="userSpaceOnUse">
<stop stop-color="#fff" offset="0"/>
<stop stop-color="#fff" stop-opacity="0" offset="1"/>
</linearGradient>
<linearGradient id="t" x1="218.85" x2="311.86" y1="82.851" y2="133.45" gradientTransform="matrix(1.9655 0 0 1.9656 -4.9221 -11.202)" gradientUnits="userSpaceOnUse">
<stop stop-color="#fff" offset="0"/>
<stop stop-color="#fff" stop-opacity="0" offset="1"/>
</linearGradient>
</defs>
<path transform="matrix(1.9655 0 0 1.9656 -4.9221 -11.202)" d="m35.353 395.98 28.33-36.949c13.498-17.608 25.25-19.454 37.842-17.602l17.425 2.5617c41.28 6.0673 77.353-9.7558 113.04-29.85 40.829-22.988 59.317-48.127 83.082-84.659 36.421-55.985 51.018-126.2 42.556-155.85-15.223-53.344-37.063-58.237-55.253-63.239-32.09-8.8238-56.131-2.2338-79.765 3.0605-33.984 7.6155-38.77 28.238-41.92 48.288-39.742 30.633-76.106 63.75-101.04 104.87-28.489 46.979-20.565 86.63-17.598 117.98 1.9695 20.792-19.856 32.08-31.029 48.241l-28.149 40.717" fill="url(#p)" stroke="#000" stroke-width=".75"/>
<path transform="matrix(1.9655 0 0 1.9656 -4.9221 -11.202)" d="m33.942 395s19.184-26.525 28.902-38.858c4.8214-6.119 13.616-17.508 18.86-23.407 3.9807-4.4775 18.757-14.808 26.023-15.72 31.065-3.9031 72.235-13.267 93.905-32.014 29.962-25.917 57.489-44.157 86.812-83.102 15.877-21.086 35.192-46.51 48.76-75.765-0.83271-56.927-32.422-107.67-105.47-113.21-2.202-0.16694-13.91 2.8498-20.482 5.5546-0.64391 0.26432-1.3594 0.56242-1.9119 0.80288-6.8823 3.0208-13.172 7.6353-17.543 13.814-4.7796 6.7569-7.1128 14.859-8.6093 22.902-0.41139 2.2059-0.75918 4.3622-1.1109 6.5622-24.59 18.955-48.182 39.848-68.988 62.967-6.7054 7.4525-13.091 15.209-19.021 23.298-5.9045 8.0507-8.337 11.058-10.652 14.961-3.6468 6.1468-7.2003 12.019-9.6686 18.725-0.67372 1.8264-1.7588 3.8773-2.3709 5.807-0.46107 1.4508-0.91618 2.975-1.3474 4.5132-1.7549 6.272-4.0622 13.246-4.8651 19.641-0.99369 7.8877-2.8419 15.825-2.6512 23.796 0.081482 3.3944-0.62205 7.8222-0.38356 11.236 0.17489 2.4921 0.40542 5.181 0.63397 7.693 0.66974 7.3074 1.6714 14.585 2.21 21.902 0.45312 6.127-0.07552 20.682-3.2831 25.869-4.5431 7.3452-12.723 15.364-18.709 21.491-2.8101 2.8757-6.3775 5.491-8.8418 8.7184-2.7287 3.5792-5.2347 6.4688-7.8144 10.157-7.0969 10.149-22.133 31.12-22.133 31.12" fill="#adb3f5" stroke="#000" stroke-width=".75"/>
<path transform="matrix(1.9655 0 0 1.9656 -4.9221 -11.202)" d="m33.153 394.46c8.4861-11.727 18.365-26.104 27.207-37.567 6.5007-8.2494 12.864-16.612 19.717-24.575 2.6631-3.0525 5.978-5.4473 9.2532-7.7963 4.7001-3.2215 9.595-6.2939 14.991-8.2057 2.8082-0.98771 5.819-1.0235 8.7285-1.5223 8.1264-1.1546 16.145-2.5676 24.182-4.3225 11.94-2.6133 23.956-5.9739 35.324-10.509 8.9313-3.5931 17.791-8.003 25.478-13.951 3.2017-2.5319 6.2066-5.2863 9.3725-7.8957 16.714-14.045 34.028-27.435 49.635-42.744 11.632-11.33 22.296-23.641 31.953-36.694 10.923-14.474 21.76-29.132 31.277-44.534 5.6581-9.1457 10.881-18.572 15.428-28.322-0.2683-16.175-3.1122-32.598-9.4082-47.636-0.63397-1.5283-1.3216-3.0704-1.9933-4.4814-6.3-13.442-15.639-25.476-27.261-34.731-7.1824-5.7494-15.215-10.471-23.604-14.112-7.2499-3.1559-14.744-5.5327-22.471-7.3035-15.794-4.2728-27-3.289-41.49 3.3149-7.6256 3.4142-14.466 8.9847-18.512 16.38-4.3086 7.6751-5.9681 16.449-7.3155 25.046-0.091419 0.59223-0.077507 1.2441-0.71943 1.5064-15.362 11.86-30.236 24.367-44.314 37.73-8.7663 8.3269-17.278 17.016-25.335 26.046-2.6054 2.9194-5.1215 5.8328-7.5759 8.8039-6.2622 7.4803-11.954 15.408-17.733 23.262-2.8658 3.9329-5.2109 8.2097-7.6275 12.423-1.9894 3.5355-3.8376 7.2955-5.2606 11.173-0.95593 2.4047-2.1503 4.7179-2.7923 7.2379-1.6515 5.8348-3.5037 11.606-4.8214 17.532-0.83072 3.8455-1.1487 7.7208-1.8284 11.604-0.92612 5.7931-1.8085 11.634-1.6157 17.518-0.063596 4.0502-0.74924 8.1004-0.24445 12.149 0.57634 8.1381 1.6575 16.145 2.4147 24.287 0.67968 6.4787 0.51672 13.033-0.27426 19.494-0.48492 3.5176-1.0533 7.1306-2.7247 10.306-3.2931 5.4095-7.5918 10.118-11.908 14.718-3.0327 3.1181-6.0118 6.2979-9.1717 9.2888-2.6969 2.4623-5.5309 4.8332-7.6474 7.844-2.8638 3.617-5.7654 7.2101-8.3589 11.03-6.2602 8.8576-14.438 20.187-20.834 28.948" fill="#837fcb" stroke="#000" stroke-width=".75"/>
<path transform="matrix(1.9655 0 0 1.9656 -4.9221 -11.202)" d="m206.35 25.874c-5.7733 3.3964-9.9567 8.6032-13.808 14.128-5.1771 7.4207-6.1887 17.661-6.8266 24.285-0.5505 0.8625-1.2779 1.5382-2.6929 3.2433-21.056 16.463-41.284 34.069-59.665 53.525-4.2252 4.4715-8.4702 9.1457-12.447 13.794-5.9224 6.9239-11.908 14.426-16.465 22.314-22.308 38.616-26.198 63.122-26.084 96.443 0.029811 8.2792 1.3653 17.008 1.7549 25.281 0.3299 7.0073 1.7767 13.882 2.6174 20.859 1.8145 15.062 8.3013 17.117 17.324 17.26 4.9923 0.079494 10.014-2.7167 14.641-3.5176 2.6134-0.45311 7.4546-3.1718 10.793-3.8614 17.88-3.6925 59.713-10.275 86.489-30.832 17.994-13.814 33.724-29.053 50.068-44.818 12.675-12.228 23.769-25.502 34.258-39.639 8.2059-11.062 17.288-22.183 24.836-33.654 6.6299-10.074 13.949-20.034 19.305-30.869 0.76713-1.5521 2.1126-2.9671 2.2398-4.6921 0.42729-5.8905-0.60615-11.837-1.4866-17.751-1.4726-9.885-4.1278-19.806-8.1164-29.059-0.39748-0.92212-0.8665-1.9834-1.2759-2.8638-0.74129-1.5839-1.4329-2.9949-2.2557-4.553-1.8463-3.4937-3.8575-6.7927-6.133-10.058-2.2577-3.2394-4.5928-6.1826-7.234-9.1298-4.6902-5.2406-10.134-10-15.808-13.981-12.091-8.4839-25.764-15.219-40.131-18.452-14.09-1.89-32.271-1.4309-43.897 6.598z" fill="#658cd3" stroke="#000" stroke-width=".75"/>
<path transform="matrix(1.9655 0 0 1.9656 -4.9221 -11.202)" d="m206.35 25.874c-5.7733 3.3964-9.9567 8.6032-13.808 14.128-5.1771 7.4207-6.1887 17.661-6.8266 24.285-0.5505 0.8625-1.2779 1.5382-2.6929 3.2433-21.056 16.463-41.284 34.069-59.665 53.525-4.2252 4.4715-8.4702 9.1457-12.447 13.794-5.9224 6.9239-11.908 14.426-16.465 22.314-22.308 38.616-26.198 63.122-26.084 96.443 0.029811 8.2792 1.3653 17.008 1.7549 25.281 0.3299 7.0073 1.7767 13.882 2.6174 20.859 1.8145 15.062 8.3013 17.117 17.324 17.26 4.9923 0.079494 10.014-2.7167 14.641-3.5176 2.6134-0.45311 7.4546-3.1718 10.793-3.8614 17.88-3.6925 59.713-10.275 86.489-30.832 17.994-13.814 33.724-29.053 50.068-44.818 12.675-12.228 23.769-25.502 34.258-39.639 8.2059-11.062 17.288-22.183 24.836-33.654 6.6299-10.074 13.949-20.034 19.305-30.869 0.76713-1.5521 2.1126-2.9671 2.2398-4.6921 0.42729-5.8905-0.60615-11.837-1.4866-17.751-1.4726-9.885-4.1278-19.806-8.1164-29.059-0.39748-0.92212-0.8665-1.9834-1.2759-2.8638-0.74129-1.5839-1.4329-2.9949-2.2557-4.553-1.8463-3.4937-3.8575-6.7927-6.133-10.058-2.2577-3.2394-4.5928-6.1826-7.234-9.1298-4.6902-5.2406-10.134-10-15.808-13.981-12.091-8.4839-25.764-15.219-40.131-18.452-14.09-1.89-32.271-1.4309-43.897 6.598z" fill="#9bc2fb" stroke="#000" stroke-width=".35"/>
<path transform="matrix(1.9655 0 0 1.9656 -4.9221 -11.202)" d="m235.89 21.001c-8.1542 0.23451-17.574 1.7548-24.88 5.5963-5.0678 2.6074-9.4977 6.3972-12.928 10.94-2.7644 3.5335-5.354 7.3233-6.6537 11.664-1.6614 5.014-2.1662 10.298-2.7803 15.513-0.47896 1.89-2.4286 2.7862-3.6468 4.2112-2.669 2.4881-5.3361 4.9445-8.1025 7.3174-24.023 19.357-46.854 40.367-66.657 64.08-5.5825 6.6973-10.803 13.746-14.955 21.433-8.6908 15.485-16.187 31.849-20.063 49.252-3.2533 14.484-4.0185 29.399-3.8257 44.2 0.22457 7.1922 1.105 14.353 1.5899 21.501 0.22457 3.6905 0.52864 7.377 1.0652 11.036 0.66577 4.7636 1.3772 9.5213 2.0788 14.279 0.5982 3.4719 1.6654 7.1584 4.41 9.5591 2.6591 2.1443 6.2463 2.3431 9.5175 2.4126 4.6544-0.095392 8.8657-2.351 13.347-3.3189 4.3941-0.97976 8.2794-3.5633 12.761-4.2489 16.324-3.1936 32.7-6.4986 48.442-11.978 11.825-4.1078 23.423-9.255 33.603-16.628 10.577-7.8559 20.484-16.572 30.17-25.492 8.504-7.8679 16.841-15.917 25.122-24.017 12.371-12.347 23.27-26.066 33.658-40.093 8.1264-10.734 16.461-21.334 23.793-32.638 6.0337-9.0344 19.025-31.807 19.025-31.807 0.73732-0.26829 0.62801-13.83-0.78899-19.702-2.6472-10.978-5.827-21.714-11.036-31.742-6.8823-13.275-17.085-24.81-29.459-33.216-9.4917-6.4986-19.822-11.88-30.818-15.33-3.77-1.1805-7.6256-2.1563-11.58-2.4246-3.46-0.28618-6.9379-0.39945-10.41-0.35971z" fill="#9bc2fb" stroke="#000" stroke-width=".35"/>
<path transform="matrix(1.9655 0 0 1.9656 -4.9221 -11.202)" d="m235.69 23.941c-7.6752 0.24246-17.62 1.725-24.425 5.497-6.3536 3.4341-11.191 9.1199-14.772 15.295-4.2331 6.5681-4.7339 14.881-5.1334 21.521-6.7789 7.846-19.28 16.187-25.997 23.109-19.812 16.847-37.212 36.144-53.673 56.311-4.9486 6.0574-9.4142 12.52-13.115 19.416-7.6136 13.754-14.283 28.17-18.143 43.463-3.78 14.979-4.726 30.516-4.5233 45.915 0.091419 5.8487 0.78899 11.67 1.2004 17.485 0.48691 6.0971 0.90227 12.206 1.8244 18.258 0.62404 4.1456 1.1884 8.3051 1.9138 12.435 0.44517 2.1443 1.1944 4.4874 3.0824 5.7812 2.1583 1.1288 4.6922 1.0771 7.0572 0.97578 3.9628-0.49485 7.5918-2.3133 11.479-3.132 4.6524-1.2739 8.9233-3.7998 13.751-4.4616 19.119-3.7024 38.338-7.7347 56.4-15.203 9.5434-3.8852 18.689-8.8675 26.754-15.31 17.409-13.605 33.273-29.029 49.122-44.385 9.7779-9.5412 18.653-19.961 27-30.766 6.3119-8.1819 12.489-16.469 18.737-24.701 5.4931-7.2995 10.722-14.8 15.718-22.447 5.0678-9.5809 17.362-27.441 17.362-27.441s1.4051-10.499 0.34382-16.03c-2.5776-13.422-9.2731-31.762-17.173-42.954-6.2304-8.8417-15.44-17.886-24.463-23.836-10.185-6.7291-22.678-10.702-34.584-13.595-5.1533-1.1904-10.485-1.1646-15.744-1.1984z" fill="#9bc2fb" stroke="#000" stroke-width=".35"/>
<path transform="matrix(1.9655 0 0 1.9656 -4.9221 -11.202)" d="m228.92 26.087c-3.1222 0.65383-6.3318 1.3017-9.0426 2.3172-5.6064 2.0847-13.135 9.3922-16.614 14.205-2.0629 2.8518-3.9787 5.8746-5.1791 9.1994-0.79694 2.2954-1.2819 4.8352-1.5859 7.1504-0.38555 2.8379-0.78899 8.5515-0.78899 8.5515s-1.417 2.0788-2.202 3.0565c-7.7229 8.162-17.205 14.362-25.25 22.179-5.0996 4.4934-10.191 9.0006-15.044 13.764-14.506 14.052-27.807 29.299-40.439 45.041-4.0701 5.2545-7.6752 10.863-10.827 16.712-4.7657 8.7801-9.2473 17.93-12.751 27.364-2.0609 5.5447-3.8396 11.344-5.1294 17.105-2.0867 9.3464-3.1142 18.902-3.4978 28.461-0.14706 3.9508-0.20271 8.0547-0.15899 12.065 0.033786 6.0892 0.72738 12.027 1.1626 18.101 0.60416 8.0825 1.3693 16.211 2.7148 24.232 0.43126 2.5875 0.74328 5.2068 1.3773 7.7526 0.20072 0.7373 0.75123 1.4587 1.578 1.4508 3.6965 0.65383 7.2738-0.88834 10.736-1.9595 2.4147-0.73929 4.7558-1.2699 7.1049-2.2298 3.7879-1.4587 7.6077-2.9651 11.658-3.5076 5.9184-1.1427 11.813-2.3232 17.642-3.6249 7.9276-1.7846 15.782-3.7938 23.548-6.2959 13.123-4.2608 26.142-9.8035 37.186-18.291 15.406-11.924 29.636-25.269 43.613-38.813 5.8488-5.652 11.739-11.276 17.145-17.359 9.0624-10.02 17.254-20.78 25.373-31.567 8.1681-10.763 16.334-21.489 23.729-32.797 6.9002-10.284 20.162-28.58 20.162-28.58s1.7966-6.0296 0.24842-15.626c-0.50479-3.14-2.4961-13.985-4.4279-17.002-0.60416-1.7588-1.5144-3.7044-2.2557-5.499-1.4846-3.6368-3.1738-7.9672-5.0976-11.421-5.8329-10.443-14.494-20.231-23.847-27.654-5.7097-4.3562-10.581-6.6536-17.294-9.6187-7.393-3.2632-15.402-6.0892-22.881-6.8464-7.3771-0.74724-18.58-0.45113-20.665-0.013912z" fill="#9bc2fb" stroke="#000" stroke-width=".35"/>
<path transform="matrix(1.9655 0 0 1.9656 -4.9221 -11.202)" d="m230.95 27.584c-4.1119 0.27425-7.9654 0.77904-14.15 4.8054-4.4835 2.9174-9.3248 9.1755-12.252 13.589-2.1762 3.2791-4.0145 6.8841-4.6584 10.805-0.74526 3.8793-1.3614 11.751-1.3614 11.751s-3.0288 4.1416-4.7677 5.9998c-7.8203 7.693-16.861 13.943-24.745 21.541-10.275 8.953-20.011 18.55-29.226 28.54-8.8836 9.6803-17.461 19.655-25.51 30.043-2.7843 3.5037-5.2367 7.3949-7.4904 11.173-4.2868 7.3313-8.0151 14.975-11.491 22.717-3.7084 8.5436-6.6994 17.413-8.659 26.523-0.20669 1.0672-0.49684 2.3828-0.69558 3.5573-1.0215 5.6838-1.6356 11.435-2.0649 17.192-0.16495 2.3828-0.30208 4.9882-0.37164 7.3849-0.17489 5.7533-0.10533 11.467 0.23451 17.181 0.48691 7.0749 1.0831 14.098 1.7409 21.163 0.71546 6.908 1.733 13.776 2.9334 20.579 3.1917-0.36766 6.2722-1.3176 9.3089-2.3311 3.1162-0.92014 6.2264-1.8721 9.2314-3.1201 4.1496-1.576 8.504-2.5001 12.866-3.2672 6.8286-1.3256 13.649-2.7525 20.337-4.39 2.7446-0.67172 5.6402-1.4209 8.3629-2.1881 3.299-0.91616 6.6001-1.9098 9.7858-2.9691 1.4567-0.46702 2.9791-1.0116 4.3981-1.5044 10.748-3.8336 21.217-8.7622 30.343-15.684 0.69757-0.53857 1.6217-1.256 2.3948-1.878 17.853-14.1 34.145-29.969 50.374-45.86 5.1513-5.1432 10.042-10.612 14.671-16.151 8.8736-10.63 17.072-21.749 25.413-32.785 8.0668-10.757 15.819-21.71 22.938-33.109 3.4541-5.4334 13.379-19.615 13.379-19.615 4.1536-9.0185-1.0175-29.393-8.5795-44.018-4.0145-7.697-9.3864-15.082-15.496-21.247-6.9896-7.0511-16.606-13.756-25.75-17.671-6.93-2.9691-12.091-4.8809-19.484-6.3456-1.6237-0.32195-6.5325-0.93604-9.0922-0.98969-1.6972-0.03776-7.1565 0.19675-12.866 0.57832z" fill="#9bc2fb" stroke="#000" stroke-width=".35"/>
<path transform="matrix(1.9655 0 0 1.9656 -4.9221 -11.202)" d="m239 28.967c-6.0058 0.02186-12.604 1.4388-18.101 4.0303-5.3858 2.5716-12.801 12.345-15.565 17.554-1.3117 2.4146-2.2994 5.016-2.6611 7.7506-0.6141 3.7501-1.3832 11.314-1.3832 11.314s-3.8595 5.3936-6.1529 7.7407c-7.9972 7.697-17.097 14.138-25.103 21.825-18.345 16.139-34.892 34.234-50.187 53.263-3.8038 4.6782-7.3831 9.5531-10.382 14.792-1.8741 3.1758-3.6866 6.5165-5.3639 9.8214-3.8575 7.7148-7.562 15.535-10.338 23.713-2.3749 6.9259-4.1993 14.046-5.352 21.278-0.20271 1.3216-0.42331 2.8657-0.5982 4.2787-0.14309 1.2461-0.29811 2.6928-0.4412 4.0283-0.45312 4.4576-0.75123 9.0682-0.87246 13.548-0.19278 6.8623-0.001987 13.657 0.54653 20.485 0.85656 11.161 1.7628 22.385 3.6925 33.453-0.095394 0.89629 0.42729 0.85257 1.105 0.57235 3.4501-0.90821 6.8227-2.039 10.213-3.1241 3.9231-1.3971 7.9495-3.0446 12.129-3.8038 6.3854-1.3593 12.805-2.4663 19.166-3.9588 11.777-2.6531 23.437-5.8766 34.662-10.41 8.9571-3.6329 17.568-8.2614 25.13-14.319 14.76-11.686 28.547-24.542 42.025-37.67 4.8571-4.7756 9.8196-9.4478 14.424-14.472 8.339-9.0384 16.078-18.9 23.527-28.709 8.7444-11.562 17.556-23.085 25.659-35.114 4.2729-6.3098 8.3529-12.751 12.354-19.237 2.0351-3.4838 9.0147-11.294 9.0147-11.294 2.4286-6.6476 1.6932-15.016-0.7393-25.076-1.5243-4.3225-3.2613-8.7165-5.1334-12.912-4.4159-9.8949-10.434-19.229-18.234-26.761-0.62006-0.60018-2.1603-1.6714-2.8837-2.3252-4.5094-4.074-9.6884-7.5817-15.042-10.463-1.2719-0.68364-3.4083-1.57-4.7458-2.1582-4.728-2.0847-9.6209-4.1317-14.548-5.5327-4.2073-1.1964-9.5414-2.0231-13.935-2.1781-1.5998-0.057633-4.2868 0.065582-5.8846 0.071544z" fill="#9bc2fb" stroke="#000" stroke-width=".35"/>
<path transform="matrix(1.9655 0 0 1.9656 -4.9221 -11.202)" d="m243.33 30.447c-6.2503-0.025835-15.112 1.8939-20.689 4.9624-5.6779 3.4103-15.186 14.828-17.004 21.155-1.2282 4.7696-1.2381 14.205-1.2381 14.205s-6.0297 6.6417-8.812 9.3981c-8.18 7.5877-16.593 14.575-24.707 22.24-7.6156 6.8802-15.048 13.971-22.098 21.433-9.917 10.384-19.278 21.278-28.219 32.533-4.9704 6.1468-9.0684 12.944-12.685 19.959-5.7217 11.056-10.944 22.479-14.041 34.58-1.5263 5.7533-2.5935 11.652-3.2633 17.622-0.54852 4.8113-0.87246 9.7538-1.0434 14.557-0.1888 6.284-0.077508 12.51 0.33587 18.756 0.5187 7.3551 1.1467 14.72 1.9556 22.073 0.41536 3.6229 0.88637 7.3412 1.4567 10.982 3.8456-1.1368 7.6156-2.4265 11.461-3.762 3.4441-1.3057 7.0055-2.2636 10.617-2.977 5.2626-1.0294 10.523-2.0549 15.756-3.2235 5.8747-1.2977 11.823-2.7584 17.646-4.4298 1.1924-0.3617 2.5419-0.73929 3.7422-1.1189 8.7385-2.7286 17.392-5.8964 25.468-10.245 6.292-3.3844 12.171-7.5082 17.582-12.168 16.048-13.093 30.935-27.485 45.67-42.002 13.216-13.108 24.379-28.067 35.572-42.887 7.556-9.9546 14.889-20.003 21.803-30.406 6.5722-9.8532 19.433-26.686 19.433-26.686s2.2-5.8964 1.9397-7.7029c-0.39946-13.289-1.7747-16.487-5.2824-24.365-1.9079-4.9127-4.2172-10.177-6.9936-14.577-6.8425-10.821-16.191-20.674-27.378-26.966-6.9399-3.8534-16.221-7.5419-23.87-9.5849-4.2788-1.1149-8.6908-1.4845-13.115-1.3554z" fill="#9bc2fb" stroke="#000" stroke-width=".35"/>
<path transform="matrix(1.9655 0 0 1.9656 -4.9221 -11.202)" d="m243.29 32.141c-6.8107 0.12719-14.709 1.9893-20.575 5.5566-4.3146 2.9731-7.7905 8.0308-11.014 12.117-2.3332 3.0307-4.3126 6.4926-4.7816 10.35-0.61211 3.7044-0.77508 7.4664-1.0931 11.199-1.0732 1.3693-2.3531 2.5835-3.5057 3.8932-3.1897 3.4898-6.4947 6.8802-10.074 9.9764-7.9515 7.1027-15.977 14.124-23.769 21.404-17.59 16.123-33.608 33.918-48.289 52.714-6.8624 8.8993-11.833 19.051-16.603 29.172-4.8134 10.43-8.5497 21.406-10.45 32.753-1.6555 9.7161-2.2239 19.595-2.1742 29.442 0.11726 10.437 1.1328 20.837 2.1742 31.215 0.36965 3.6964 0.87047 7.377 1.3494 11.06 5.6839-1.7429 11.167-3.9906 16.93-5.4711 6.5583-1.5322 13.208-2.6034 19.802-4.1456 14.359-3.2195 28.658-7.1961 42.003-13.494 7.5957-3.6448 14.677-8.3289 21.08-13.8 13.309-10.934 25.941-22.67 38.247-34.717 6.2205-6.0673 12.445-12.147 18.133-18.723 10.607-12.117 20.106-25.134 29.795-37.978 9.8792-13.26 19.363-26.845 27.718-41.124 1.8224-3.2493 7.5421-9.5213 7.5421-9.5213 4.4358-14.317 0.17886-25.736-5.8369-38.163-4.6246-9.0941-11.008-17.397-18.419-24.41-5.9621-5.5924-13.121-10.181-20.754-13.103-5.984-2.4027-12.765-4.7279-19.134-5.7871-2.3988-0.33188-5.8806-0.47299-8.3013-0.41535z" fill="#9bc2fb" stroke="#000" stroke-width=".35"/>
<path transform="matrix(1.9655 0 0 1.9656 -4.9221 -11.202)" d="m243.24 33.736c-1.0931 0.033785-3.9191 0.36368-5.034 0.46106-5.9442 0.50876-11.014 2.5796-15.913 6.0991-4.7061 3.6706-8.4901 8.8894-11.729 13.878-1.6714 2.8856-2.355 6.2144-2.5756 9.5114-0.29016 2.7505-0.47498 5.5109-0.69956 8.2653-4.6962 5.4692-9.7401 10.638-15.152 15.402-13.788 12.23-27.617 24.458-40.395 37.759-8.4563 8.8258-16.531 18.019-24.244 27.501-3.0129 3.762-6.0814 7.4903-8.8458 11.441-3.9688 5.7692-7.3255 11.95-10.382 18.192-3.2136 6.6655-6.4033 13.367-8.7603 20.394-0.78899 2.2735-1.5084 4.5729-2.1384 6.8245-2.0311 7.1008-3.3408 14.436-4.0403 21.749-0.81482 8.0865-0.99369 16.227-0.72539 24.347 0.1411 4.0502 0.38754 8.2494 0.73135 12.347 0.57038 6.6278 1.1964 13.339 2.0112 19.963 0.13315 1.0672 0.25637 2.1205 0.39549 3.1658 6.5742-2.2119 13.091-4.7199 19.935-5.9878 7.6037-1.4706 15.257-3.0744 22.738-4.9087 9.3725-2.3133 18.648-5.0955 27.595-8.7383 2.1484-0.88436 4.4299-1.8601 6.5086-2.8598 7.4845-3.5454 14.395-8.2097 20.742-13.512 15.885-13.17 30.906-27.3 45.463-41.903 7.5242-7.377 14.379-15.404 20.941-23.639 7.0592-8.8834 13.792-18.003 20.605-27.097 6.1529-8.2733 12.139-16.676 17.775-25.313 4.4418-6.8941 16.03-24.136 16.03-24.136 4.4994-12.91-0.079495-24.52-5.3381-35.547-1.7191-3.5593-3.2653-6.6059-5.4852-9.9466-4.6604-7.0729-10.364-13.379-16.946-18.727-3.0427-2.4166-6.5186-4.6166-9.9488-6.435-0.71347-0.36567-2.361-1.248-3.1877-1.6376-1.8542-0.88238-4.0085-1.6356-5.831-2.3172-7.5759-2.7604-15.939-4.8034-24.099-4.5947z" fill="#9bc2fb" stroke="#000" stroke-width=".35"/>
<path transform="matrix(1.9655 0 0 1.9656 -4.9221 -11.202)" d="m239.32 35.932c-5.3878 0.57235-11.543 3.0108-15.863 6.4052-4.088 3.3745-8.1244 7.4843-10.97 11.946-1.8761 3.0724-1.411 8.2614-1.7012 11.697-0.21464 2.3967-0.39946 4.7954-0.58628 7.1922-5.7038 6.7073-11.956 12.932-18.618 18.685-15.74 13.943-31.418 28.039-45.479 43.709-8.1502 8.9887-15.973 18.282-23.352 27.914-4.4795 6.1051-8.184 12.747-11.489 19.508-3.5375 7.2081-6.9379 14.466-9.4281 22.137-3.0466 9.1139-4.8889 18.605-5.6879 28.174-0.29214 3.3447-0.49088 6.8523-0.58429 10.221-0.29811 10.183 0.34779 20.372 1.3296 30.444 0.41536 4.3503 0.84463 8.6986 1.3753 13.035 6.1827-2.1582 12.433-4.2171 18.908-5.3042 12.034-2.3749 23.938-4.9862 35.655-8.7224 8.0449-2.5935 15.984-5.642 23.399-9.726 6.9578-3.8654 13.242-8.8019 19.246-13.995 15.358-13.009 29.942-26.936 44.076-41.215 8.5775-8.8019 16.265-18.367 23.699-28.031 6.0516-7.9175 12.785-16.095 18.701-24.116 12.534-14.704 26.728-38.411 30.011-44.147 0 0 2.2577-9.2371 1.4428-13.22-0.23848-4.9862-1.3335-8.9987-3.0009-12.777-3.2195-7.9891-7.5461-17.031-12.942-23.763-5.1811-6.4628-11.334-12.552-18.56-16.69-4.3444-2.5716-10.217-4.9326-14.957-6.5165-6.1589-0.97181-12.357-3.8077-18.328-3.1619-1.9754 0.21264-4.565 0.13514-6.298 0.31599z" fill="#9bc2fb" stroke="#000" stroke-width=".35"/>
<path transform="matrix(1.9655 0 0 1.9656 -4.9221 -11.202)" d="m243.72 37.331c-6.0794 0.20668-13.864 2.4623-18.898 6.0812-4.4179 3.5116-7.9654 9.0364-10.799 13.911-1.735 3.6368-1.5323 7.7625-1.9834 11.672l-0.38158 4.7875c-6.5762 7.8122-13.985 14.881-21.714 21.539-14.81 13.156-29.499 26.519-42.746 41.277-7.864 8.7085-15.462 17.665-22.606 26.976-6.761 8.8814-11.594 19.017-16.251 29.107-5.8727 12.765-9.5533 26.545-10.67 40.558-1.1726 12.798-0.67372 25.686 0.5187 38.465 0.39946 4.4238 0.87444 8.8397 1.3335 13.26 4.0662-1.3852 8.3291-2.7306 12.405-3.7123 4.1914-0.99764 8.4503-1.6594 12.654-2.5974 15.539-3.2771 31.065-7.2657 45.527-13.957 7.0393-3.299 13.576-7.6035 19.562-12.554 6.616-5.4075 13.011-11.079 19.355-16.801 10.597-9.6565 20.901-19.631 30.914-29.89 12.658-13.275 23.471-28.133 34.481-42.76 11.531-15.459 35.355-51.854 35.355-51.854 4.9664-10.789-0.001987-25.283-6.3993-37.08-5.0956-9.108-10.77-16.807-19.043-23.208-6.4292-4.863-15.756-8.8556-23.423-11.211-5.5527-1.4269-12.228-2.0887-17.189-2.0092z" fill="#9bc2fb" stroke="#000" stroke-width=".35"/>
<path transform="matrix(1.9655 0 0 1.9656 -4.9221 -11.202)" d="m244.07 38.786c-5.4673 0.20668-12.334 2.2318-16.875 5.4811-4.1159 3.3208-8.6729 9.4538-11.217 14.1-1.3574 3.3685-0.98176 11.292-0.98176 11.292l-0.41337 5.2088c-7.8541 7.848-17.256 17.21-24.979 24.776-14.671 13.059-29.139 26.42-42.144 41.166-6.8604 7.6731-13.506 15.565-19.778 23.677-7.3632 9.4239-12.441 20.34-17.384 31.157-2.9513 6.6794-5.2824 13.653-6.9419 20.718-1.5243 6.4549-2.4902 13.136-2.9075 19.81-0.24246 3.1817-0.3617 6.3078-0.42132 9.4577-0.10334 6.2959 0.14309 12.61 0.57833 18.826 0.39151 5.5049 0.94202 10.996 1.5144 16.483 5.4275-1.7866 10.988-3.146 16.608-4.1635 9.9389-1.9714 19.754-4.1754 29.461-7.0888 7.7209-2.3391 15.462-5.1353 22.747-8.7304 7.5043-3.7402 14.249-8.8039 20.583-14.257 15.825-13.393 30.858-27.638 45.37-42.432 11.483-11.845 21.34-25.031 31.263-38.23 12.958-17.23 39.823-56.226 39.823-56.226 1.2699-2.2338 3.6965-10.555-0.051672-21.078-2.0768-6.1389-4.4299-12.097-7.8243-17.552-5.0996-8.0348-12.588-17.059-20.47-22.455-6.5722-4.3483-14.669-6.9398-22.239-9.0046-3.772-1.0235-9.4003-1.0096-13.321-0.93604z" fill="#9bc2fb" stroke="#000" stroke-width=".35"/>
<path transform="matrix(1.9655 0 0 1.9656 -4.9221 -11.202)" d="m243.08 40.352c-5.2864 0.21463-10.845 2.3987-15.146 5.7017-3.8396 3.2334-7.9475 9.5591-10.179 14.084-1.095 3.3665-0.88637 6.9537-1.3216 10.43-0.12918 1.6256-0.39151 4.8769-0.39151 4.8769s-20.07 20.487-30.725 30.058c-12.96 11.654-25.631 23.681-37.152 36.78-7.3652 8.2852-14.532 16.761-21.175 25.639-6.6895 9.3544-11.511 19.857-16.167 30.325-5.3957 12.765-8.3649 26.511-9.0267 40.341-0.75123 13.116 2.4783 27.308 1.5104 39.24 0.049684 0.61409-0.049685 1.4468 0.78104 0.90622 8.6351-2.6511 17.61-3.8972 26.384-5.9839 13.844-3.1698 27.632-7.1087 40.395-13.444 8.8458-4.4934 16.505-10.905 23.936-17.397 14.812-12.806 29.004-26.322 42.623-40.389 12.83-13.575 23.755-28.769 34.964-43.666 10.946-14.746 33.859-49.495 33.859-49.495 4.7737-9.6843-1.5839-27.505-8.4742-37.906-5.7336-8.3885-13.759-17.993-22.811-22.785-6.2205-3.301-13.796-6.6298-22.352-7.2041-2.6253-0.55248-6.8485-0.1729-9.5314-0.11129z" fill="#9bc2fb" stroke="#000" stroke-width=".35"/>
<path transform="matrix(1.9655 0 0 1.9656 -4.9221 -11.202)" d="m245.92 41.513c-4.9525 0.20668-11.783 1.6793-15.806 4.7935-3.5971 3.0585-7.9415 9.883-10.012 14.162-0.99568 3.3745-1.0573 8.0845-1.5025 11.546-0.1252 1.566-0.26233 4.0681-0.26233 4.0681s-23.509 23.266-35.274 34.047c-11.988 10.873-23.664 22.189-34.332 34.411-5.0956 5.7494-10.086 11.626-14.84 17.606-3.1023 3.9329-6.2125 7.8798-8.7882 12.19-4.9068 7.997-8.8061 16.555-12.564 25.136-0.85656 2.0509-1.6316 4.2012-2.3232 6.1588-0.55448 1.6515-1.0195 3.1201-1.5164 4.7855-0.33984 1.1825-0.7552 2.6451-1.0772 3.9488-2.1821 8.4521-3.301 17.151-3.6429 25.865-0.45312 9.9844 1.4846 19.601 2.3709 29.518 0.17688 1.9913-1.0235 4.3066-0.83271 6.2959 9.0386-2.6332 18.391-3.917 27.517-6.1866 13.119-3.1002 26.172-6.9597 38.221-13.097 10.036-5.2764 18.453-12.999 26.943-20.394 13.3-11.733 26.12-24.013 38.42-36.792 12.449-13.273 35.759-43.549 35.759-43.549l32.271-48.857s2.8499-6.9517 1.2262-13.42c-2.2139-8.8178-4.8571-16.388-10.082-23.794-5.7693-8.0249-13.105-17.286-22.135-21.515-6.0476-2.8816-8.3331-4.2589-14.915-5.5009-1.9715-0.33387-10.821-1.4686-12.823-1.4269z" fill="#9bc2fb" stroke="#000" stroke-width=".35"/>
<path transform="matrix(1.9655 0 0 1.9656 -4.9221 -11.202)" d="m243.48 43.019c-4.4418 0.2047-9.2751 1.9714-12.852 4.8392-3.15 2.7525-6.9657 10.368-8.7385 14.2-0.82874 3.454-0.64987 7.0411-1.109 10.547-0.12123 1.5243-0.36766 4.5768-0.36766 4.5768s-22.467 22.928-34.31 33.671c-13.353 12.063-26.281 24.641-37.999 38.316-6.3854 7.3293-12.671 14.818-18.395 22.719-4.5392 6.6019-8.182 13.772-11.559 21.07-1.8781 4.1178-3.8635 8.3667-5.3798 12.701-2.4842 6.8941-4.2212 14.048-5.3142 21.292-0.15104 1.1109-0.35375 2.4742-0.48492 3.6865-1.1586 10.078 1.4985 26.02 2.5617 29.194 2.5657 7.6453 7.6852 7.8082 19.836 4.7636 10.448-2.4246 21.062-1.4965 30.973-5.5069 5.3917-2.2 10.632-4.6484 15.49-7.9156 4.9505-3.2751 9.5215-7.069 13.989-10.901 15.786-13.615 30.973-27.932 45.39-42.99 12.731-13.701 23.604-28.9 34.819-43.819 12.071-16.719 32.857-47.223 32.857-47.223 1.4707-2.7048 1.6157-6.6953 1.1825-13.385-0.29612-4.5649-7.1068-20.772-12.532-26.235-5.4633-7.1286-12.038-14.124-20.319-17.783-5.829-2.6432-12.258-4.5808-18.584-5.6142-1.5303-0.24047-3.6031-0.3458-5.1533-0.30009z" fill="#9bc2fb" stroke="#000" stroke-width=".35"/>
<path transform="matrix(1.9655 0 0 1.9656 -4.9221 -11.202)" d="m231.96 48.858c-2.3431 1.8681-4.0205 5.7831-5.7356 8.2137-1.1567 1.7588-2.1523 3.7302-2.9513 5.6778-0.71148 3.3288-0.56243 6.6476-0.99965 10.018-0.027823 0.41138-0.095394 1.1964-0.13912 1.7508-0.12719 1.099-0.32394 3.3149-0.32394 3.3149s-22.914 23.429-35 34.403c-13.625 12.314-26.78 25.197-38.686 39.198-6.1171 7.0729-12.129 14.255-17.562 21.873-5.7972 8.5992-10.138 18.065-14.295 27.535-1.1666 2.7187-2.1642 5.4413-3.0625 8.1799-2.2199 6.7828-3.7462 13.836-4.6365 20.881-0.48889 3.7183-0.44517 7.6592-0.21662 11.461 0.40145 5.8189 1.0851 11.64 2.4127 17.326 0.65782 2.3689 1.8979 4.9803 4.412 5.7971 2.9075 0.90026 5.9999 0.28419 8.9193-0.22854 3.5514-0.73134 7.0492-1.731 10.656-2.1682 8.1522-1.1864 16.606-1.1705 24.397-4.1476 3.7522-1.4985 7.3255-3.0824 10.899-5.022 8.3649-4.5967 15.551-10.972 22.722-17.198 14.035-12.292 27.591-25.152 40.531-38.614 11.312-11.99 21.132-25.287 30.975-38.455 9.7997-13.061 19.423-26.249 27.734-40.327 2.4246-4.0542 9.3506-12.685 9.3506-12.685s2.2119-7.0252 1.8204-10.356c-0.8347-7.0769-4.9664-16.336-8.655-22.511-2.985-5.0299-6.6597-8.7602-10.628-13.045-3.8853-4.1297-8.8319-8.2097-14.116-10.36-5.829-2.5299-12.242-4.2271-18.564-5.026-4.2073-0.83866-15.865 0.76115-19.256 4.5152z" fill="#9bc2fb" stroke="#000" stroke-width=".35"/>
<path transform="matrix(1.9655 0 0 1.9656 -4.9221 -11.202)" d="m246.47 45.446c-4.3285 0.25239-10.827 2.3113-14.204 5.2128-2.9771 2.8578-5.1493 8.0944-7.1665 11.666-0.92214 2.1404-0.76911 4.5311-1.0076 6.8027-0.24047 2.824-0.75719 8.6966-0.75719 8.6966l-1.7926 2.7664s-3.943 4.6702-5.9999 6.8762c-9.7103 10.376-20.699 19.359-31.124 28.979-13.355 12.224-26.132 25.118-37.754 39.009-5.6441 6.6437-11.256 13.351-16.098 20.609-5.2208 8.168-9.287 17.004-13.105 25.893-3.7502 8.8456-6.1171 18.252-7.3433 27.771-0.8188 6.2859-0.30804 12.649 0.44318 18.915 0.48094 3.4639 0.89631 6.9656 1.884 10.332 0.52864 1.7926 1.6078 3.6627 3.5256 4.1973 3.6766 0.74724 7.3831-0.33188 10.966-1.095 2.5081-0.57633 4.9446-1.0791 7.5461-1.4726 7.8859-1.1487 16.038-1.1447 23.614-3.8813 7.3791-2.7922 14.454-6.4867 20.699-11.336 6.7591-5.1571 13.067-10.867 19.417-16.511 12.495-11.232 24.637-22.87 36.138-35.12 11.69-12.767 21.823-26.831 32.193-40.659 11.044-14.865 32.933-48.304 32.933-48.304 2.3491-6.6198 2.7863-12.119-0.7234-19.939-3.6429-8.1123-9.1419-16.974-13.186-21.257-4.0761-4.7736-8.5219-9.3524-14.311-11.94-5.2467-2.3192-11.688-4.7358-17.352-5.7315-1.6634-0.26432-5.7475-0.50677-7.4348-0.48094z" fill="#9bc2fb" stroke="#000" stroke-width=".35"/>
<path transform="matrix(1.9655 0 0 1.9656 -4.9221 -11.202)" d="m231.34 54.701c-4.3007 6.433-4.9108 10.034-5.1274 17.584l-0.90624 6.6139s-20.446 23.276-30.045 31.809c-16.11 14.257-31.613 29.273-45.501 45.731-7.4209 8.8317-15.072 17.632-20.571 27.843-3.8098 7.0272-7.1088 14.321-10.118 21.722-3.0407 7.9692-5.0459 16.33-6.0416 24.796-0.81085 7.1147 0.047697 14.279 1.0632 21.324 0.39549 2.5319 0.76514 5.1492 1.8681 7.4744 0.63397 0.82276 1.7151 0.82872 2.6531 0.80885 3.6309-0.049684 7.0989-1.2818 10.648-1.9039 6.6994-1.4746 13.588-1.6376 20.343-2.7366 4.0662-0.64191 8.027-1.8641 11.749-3.6209 5.6422-2.4504 11.006-5.5506 15.861-9.3345 6.8564-5.2744 13.274-11.087 19.725-16.841 12.149-10.968 24.005-22.284 35.175-34.258 11.72-12.729 21.805-26.825 32.182-40.639 10.815-14.553 32.468-47.088 32.468-47.088s5.664-7.5101 1.0155-18.045c-3.3448-8.5932-8.7743-17.52-15.191-24.069-3.4839-3.6686-9.4043-8.1401-14.118-10.022-5.348-2.1304-12.459-4.5927-18.234-5.1015-5.2884-0.23451-13.178 1.6058-16.797 5.1134z" fill="#9bc2fb" stroke="#000" stroke-width=".35"/>
<path transform="matrix(1.9655 0 0 1.9656 -4.9221 -11.202)" d="m243 48.586c-3.3686 0.26034-5.5825 2.3311-8.1641 4.71-5.352 5.8726-5.5805 8.7383-6.4371 15.887-0.28419 3.295-0.72539 9.885-0.72539 9.885-10.088 12.373-25.576 28.443-38.098 38.759 0 0-18.403 17.248-26.953 26.39-5.7236 6.0952-11.094 12.387-16.457 18.808-3.9151 4.706-7.719 9.4577-11.153 14.492-4.4259 6.6596-7.9018 13.786-11.173 21.086-1.8363 4.1078-3.6329 8.164-4.9863 12.476-1.1388 3.4838-2.0768 7.0829-2.8201 10.594-1.1487 5.5844-2.0649 11.272-1.7966 16.994 0.18284 5.1552 0.83072 10.29 1.6714 15.368 0.17092 0.94995 0.42331 2.1543 0.71943 3.1817 0.21861 0.53658 0.26233 1.2759 0.72142 1.6415 3.3984 0.30208 6.6895-0.82872 9.9786-1.4885 4.9943-1.1467 10.092-1.723 15.186-2.2099 3.943-0.41734 7.9634-0.85058 11.835-1.9615 2.4942-0.7214 5.0479-1.7866 7.4785-2.9075 2.4246-1.1189 4.9843-2.361 7.3195-3.7898 6.3357-3.7779 11.976-8.6469 17.507-13.422 15.301-13.323 30.17-27.282 44.108-42.074 12.097-13.18 22.525-27.753 33.243-42.044 6.457-8.7065 12.821-17.614 18.564-26.71 3.7164-5.9282 12.538-19.027 12.538-19.027s2.2994-3.4341 2.5657-4.9485c0.33189-1.8721 0.36369-7.7407-0.60615-10.598-3.2931-9.7002-7.0055-16.523-14.249-23.715-3.8654-4.4954-10.197-9.3186-15.792-11.457-1.7966-0.73134-5.1811-1.9198-6.8843-2.504-3.9151-1.3236-8.8677-1.8701-13.101-1.9913z" fill="#9bc2fb" stroke="#000" stroke-width=".35"/>
<path transform="matrix(1.9655 0 0 1.9656 -4.9221 -11.202)" d="m234.86 55.502c-4.2748 4.5987-4.2411 10.632-4.8929 16.521-0.26432 2.9512-0.24246 7.7367-0.24246 7.7367s-3.5773 4.6822-5.2904 6.8941c-11.304 13.289-23.956 25.054-36.663 36.903-13.246 12.224-25.854 25.164-37.337 39.067-6.0555 7.214-12.129 14.516-16.718 22.783-1.2242 2.1841-2.4763 4.5609-3.6091 6.8722-2.3034 4.71-4.4875 9.6306-6.5226 14.521-1.3931 3.5057-2.6074 7.2737-3.5375 10.936-1.1686 4.6225-2.1106 9.3146-2.6035 14.058-0.029811 0.49684-0.11924 1.3415-0.14905 1.9754-0.14309 2.2914-0.12322 4.6384 0.047697 6.8225 0.18284 2.9452 0.49684 6.0037 0.89631 8.8476 0.34183 2.1404 0.60416 4.3523 1.1586 6.4231 3.313-0.2981 6.4868-1.3832 9.754-1.9476 6.1668-1.2202 12.457-1.566 18.677-2.4166 1.9357-0.29015 4.0622-0.70153 6.0178-1.2798 4.0602-1.3136 7.9515-3.1241 11.716-5.1293 4.3603-2.351 8.3589-5.33 12.143-8.3707 6.5643-5.3996 12.888-11.083 19.198-16.777 11.316-10.312 22.334-20.966 32.754-32.189 11.092-12.264 20.842-25.732 30.757-39.005 8.6033-11.536 18.147-22.745 25.413-35.218 1.9417-3.3487 7.7726-11.423 7.7726-11.423s2.8002-4.5609 2.5597-6.7112c-0.18483-1.6475 0.29811-5.0458-0.35375-6.6397-0.20867-0.51472-1.0553-3.5792-1.2799-4.0919-3.1897-7.3035-6.4371-13.256-11.809-19.15-3.7204-4.2608-10.615-9.7499-16.012-11.612-2.6412-1.0334-6.2861-2.4007-8.9631-3.1042-2.5756-0.65185-6.447-1.6296-10.098-1.4627-1.5362 0.069556-7.391 0.26829-12.783 6.1667z" fill="#9bc2fb" stroke="#000" stroke-width=".35"/>
<path transform="matrix(1.9655 0 0 1.9656 -4.9221 -11.202)" d="m231.83 72.38c-0.2365 2.7743-0.24445 8.3051-0.24445 8.3051s-3.7084 5.1651-5.6302 7.6095c-11.779 13.665-25.838 25.658-38.923 37.998-12.954 12.053-25.238 24.844-36.47 38.521-3.3964 4.0542-6.761 8.1401-9.8216 12.401-2.4425 3.3824-4.6902 6.9597-6.6259 10.587-2.838 5.2227-5.3798 10.785-7.7567 16.3-0.95593 2.2298-1.8741 4.3861-2.6372 6.6457-0.86848 2.4981-1.5899 4.8928-2.2437 7.4684-0.85258 3.3884-1.576 6.8106-2.0987 10.269-0.15303 1.091-0.34183 2.4385-0.45312 3.6368-0.56044 5.7474 0.08347 11.523 0.8188 17.224 0.26035 1.6237 0.46505 3.2572 0.80886 4.867 3.4918-0.5803 6.8882-1.6276 10.392-2.1463 6.1708-1.0652 12.449-1.3236 18.62-2.3828 4.8234-0.82673 9.3168-2.8936 13.663-5.0677 2.7744-1.3792 5.5766-3.1161 8.1562-4.9624 5.2308-3.7322 9.9766-7.9533 14.822-12.159 14.872-13.12 29.363-26.71 42.824-41.287 4.6047-5.1214 8.967-10.441 13.176-15.813 6.8902-8.8297 13.544-17.916 20.214-26.869 10.243-13.562 29.711-42.35 29.711-42.35s2.7307-5.4155 2.4266-7.5439c-0.47498-3.3149-0.42331-6.4688-2.0371-9.3922-3.4282-6.4151-10.487-17.807-15.744-22.838-3.0506-2.9214-8.2913-5.497-12.274-6.9338-3.6409-1.3136-8.335-2.6352-12.189-3.2672-1.3812-0.22457-4.4974-0.4392-5.8866-0.23053-11.596 2.2556-13.78 11.05-14.597 21.412z" fill="url(#e)" stroke="#000" stroke-width=".35"/>
<path transform="matrix(1.9655 0 0 1.9656 -4.9221 -11.202)" d="m245.81 53.031c-7.8501 1.562-11.153 8.1461-11.714 15.668-0.1888 3.2016-0.35375 6.6894-0.91817 9.8492-0.18483 0.93802-0.14309 3.0287-0.14309 3.0287s-5.511 7.4187-8.6769 10.787c-11.821 13.091-23.934 26.793-36.697 38.898-10.529 9.9009-20.846 20.034-30.25 31.008-3.8138 4.5093-8.3609 8.782-12.028 13.474-1.7191 2.2139-3.2255 4.1794-4.7518 6.4549-1.3315 1.9834-2.9393 4.9266-4.1278 7.0272-3.8118 6.8225-5.6342 12.369-8.6371 19.577-0.20271 0.52068-0.53858 1.3494-0.72738 1.878-1.3435 3.6746-2.4325 7.4366-3.305 11.25-2.0927 7.3889-0.90227 13.303-1.2282 19.327 1.9834 6.8941 7.4825 9.4617 12.242 8.7184 4.0602-0.5187 8.1443-0.85058 12.2-1.419 1.5879-0.23252 3.3924-0.51074 5.0221-0.97379 4.5153-1.2719 8.7544-3.3646 12.87-5.5844 7.5302-4.3066 13.971-10.197 20.504-15.839 13.814-12.196 27.251-24.758 39.885-38.189 8.3986-8.9072 15.951-18.703 23.34-28.5 4.1894-5.5804 8.4106-11.286 12.53-16.823 7.1208-9.883 14.051-19.647 20.504-29.971 1.7529-2.8816 8.3887-12.145 8.3887-12.145 5.2964-7.5956 0.029811-18.383-4.4835-25.038-1.5839-2.514-2.8042-5.0538-4.6604-7.2458-2.4663-2.8141-5.2646-6.0375-8.2416-8.325-2.9572-2.2616-6.2602-3.3546-9.7739-4.5152-1.5084-0.54453-4.0026-1.0712-5.5428-1.5183-0.41337-0.099367-3.0129-0.9579-3.5713-1.0791-3.5355-0.56838-4.1397-0.20867-8.0091 0.21861z" fill="url(#e)" stroke="#000" stroke-width=".35"/>
<path transform="matrix(1.9655 0 0 1.9656 -4.9221 -11.202)" d="m249.36 55.047c-10.352 0.85654-12.817 9.2193-13.894 17.504-0.55845 4.3066-0.57634 6.282-0.16694 9.408 0 0-4.8611 5.5685-6.4928 7.5221-2.5041 3.1241-5.3639 6.1091-8.178 9.0563-12.85 13.339-23.93 28.111-37.122 41.132-10.112 9.9089-20.154 17.987-29.133 28.932-6.0655 7.2776-12.236 14.839-16.424 23.385-3.4203 6.6655-5.5646 13.838-8.1661 20.865-2.1026 6.2283-2.0569 6.2442-2.8757 12.769 0.10931 10.094 3.8615 16.872 7.4626 18.043 4.3225 2.2437 9.1459 3.46 14.375 3.1082 4.5133-0.7532 8.7405-2.6432 12.803-4.6802 8.1125-4.0641 14.951-10.131 21.726-16.064 14.275-12.48 28.131-25.464 41.133-39.272 10.71-11.451 20.015-24.11 29.379-36.658 4.0244-5.3718 8.0449-10.75 11.769-16.338 5.8389-10.436 22.443-33.57 22.443-33.57s3.5614-6.3038 2.6054-9.6704c-1.7847-6.2919-5.2268-14.162-9.4062-19.13-2.4484-2.9095-5.8826-7.8738-8.9193-10.175-4.0523-3.0744-10.722-4.7617-15.523-6.2144-2.5279-0.76314-4.7538-0.17091-7.395 0.047697z" fill="url(#e)" stroke="#000" stroke-width=".35"/>
<path transform="matrix(1.9655 0 0 1.9656 -4.9221 -11.202)" d="m249.15 57.276c-14.685 1.8621-11.572 25.635-11.57 25.635 0 0-3.5395 3.0585-4.6425 4.7418-5.4891 7.2975-11.042 15.899-17.531 22.294-12.34 11.952-22.161 24.532-34.185 36.803-10.664 10.821-21.994 20.1-30.832 32.455-11.863 16.584-18.622 35.027-19.303 44.89-0.99369 14.36 11.825 17.536 24.254 16.038 17.719-2.1344 21.597-10.594 33.795-21.459 12.204-10.867 23.036-21.392 34.165-33.314 4.1318-4.4238 8.1959-9.2451 11.962-13.931 7.4825-9.3484 14.645-19.065 21.815-28.651 6.6696-9.0464 13.482-19.291 19.47-28.795 2.4524-3.9687 9.762-14.919 9.762-14.919s2.3829-5.6619 1.7171-9.4776c-1.3296-7.6155-7.1227-17.975-12.514-23.498-2.367-2.4126-5.9363-5.3976-9.0863-6.6834-1.2381-0.55049-4.5491-1.7807-5.8727-2.2199-4.5789-1.5163-9.8395-0.10732-11.404 0.091417z" fill="url(#e)" stroke="#000" stroke-width=".35"/>
<path transform="matrix(1.9655 0 0 1.9656 -4.9221 -11.202)" d="m239.57 83.825s-4.5431 3.5017-5.982 5.6103c-6.2801 8.0984-11.08 18.679-18.429 25.79-11.916 11.336-21.134 23.955-32.589 35.75-10.12 10.402-21.672 20.893-30.983 32.66-4.0602 5.1293-7.7945 10.585-10.754 16.419-2.3829 4.7-4.4656 9.6445-5.5547 14.8-1.0016 4.7378-1.3971 9.6942-0.8347 14.504 0.68564 5.8428 9.9289 7.9613 16.928 8.6469 6.2523 0.6121 12.765-1.3593 18.377-4.1814 6.8684-3.454 11.855-9.8015 17.517-15.002 12.868-11.819 25.84-24.2 37.351-36.776 10.766-12.63 32.412-41.094 47.063-62.778 8.4781-12.548 12.886-20.803 12.886-20.803s3.5554-4.7279 1.5064-12.019c-2.0053-4.4755-4.9605-12.244-8.1939-15.911-0.71347-0.80487-3.5812-3.6786-4.3802-4.5411-2.5796-2.7882-5.5348-4.1217-8.4662-5.185-3.5475-1.2878-8.0568-2.19-13.284-1.5183-6.5166 0.83667-12.604 7.1465-12.179 24.536z" fill="url(#e)" stroke="#000" stroke-width=".35"/>
<path transform="matrix(1.9655 0 0 1.9656 -4.9221 -11.202)" d="m242.99 69.848c-0.83867 1.9178-1.3812 3.774-1.8304 6.2263-0.65583 3.5891-0.17688 8.1819-0.17688 8.1819s-3.9549 3.8793-5.6581 6.2601c-7.0731 8.8874-12.471 21.1-20.673 28.924-12.781 11.996-23.743 26.668-35.661 39.542-8.3172 8.8735-14.715 13.351-22.704 22.52-18.182 20.873-22.519 45.971-18.731 49.119 14.339 11.924 31.251 2.8598 43.11-7.5479 15.275-13.407 29.574-27.662 43.078-42.873 10.688-12.037 30.912-38.375 30.912-38.375l29.111-44.642s1.8025-3.9091 1.1328-8.156c-1.0434-6.6099-8.7782-20.41-16.294-25.364-12.284-6.3833-22.119-1.7906-25.615 6.1846z" fill="url(#e)" stroke="#000" stroke-width=".35"/>
<path transform="matrix(1.9655 0 0 1.9656 -4.9221 -11.202)" d="m243.66 70.496c-3.6727 8.5078-1.1408 14.048-1.1408 14.048s-3.7542 6.3654-7.6574 11.509c-5.6899 8.9728-15.152 21.388-22.255 31.231-10.738 14.883-22.996 24.17-34.65 37.042-8.0747 8.2455-17.314 15.432-23.908 24.089-5.2029 6.8325-10.237 15.036-11.851 20.817-2.679 9.6008-5.9363 24.806 9.5553 24.295 5.7256-0.1888 13.272-1.6217 17.479-4.4755 6.0675-4.1118 8.2814-4.9365 13.765-9.7201 24.93-20.674 51.996-53.652 73.022-80.976 4.7458-7.6791 13.737-21.117 20.263-31.617 1.9218-3.0963 5.8111-9.3107 5.8111-9.3107 0.65782-3.6388 2.1583-12.274-5.6422-24.281-5.2109-8.0209-11.125-11.725-19.558-11.425-7.4705 0.2663-11.586 4.9584-13.234 8.7741z" fill="url(#s)" stroke="#000" stroke-width=".35"/>
<path d="m330.02 338.37 20.289-17.77c1.0078-3.0586-1.1055-1.7969-2.6211-1.3633l-18.852 17.043c-3.4453 4-0.61328 2.5977 1.1836 2.0898z" fill="url(#r)"/>
<path transform="matrix(1.9655 0 0 1.9656 -4.9221 -11.202)" d="m20.939 386.15c42.108-49.242 104.61-126.54 143.4-171.98 15.67-18.355 28.682-29.892 33.048-34.786 13.482-15.11 46.248-46.422 65.655-70.576 6.6577-8.2872 13.327-16.712 14.245-27.737 0.30208-3.617-3.8714-5.8984-6.6935-4.6861-4.0145 1.727-4.6266 6.6397-5.3818 10.773-1.6773 9.1795-4.5809 14.38-8.3589 19.925-8.0807 11.856-18.693 22.97-29.379 33.371-27.672 26.934-53.878 53.803-77.661 84.207 0 0-55.855 64.054-83.825 96.654-17.191 20.036-51.199 60.429-51.199 60.429" fill="url(#q)" stroke="#000" stroke-width=".75"/>
<path transform="matrix(1.9655 0 0 1.9656 -4.9221 -11.202)" d="m151.53 225.99c-6.0436-2.8995-13.363-4.2966-26.351 10.744-6.6001 7.6433-13.588 14.764-12.707 27.779 0.063596 0.94995 0.33189 2.6909 0.33189 2.6909 1.252-0.88039 5.1851 0.73929 3.8535 3.9826 1.7568 0.88635 5.4792-0.8009 8.8577-2.192 11.406-4.704 18.25-14.786 24.198-25.132 4.2252-7.3512 7.6752-15.058 1.8165-17.872z" fill="url(#j)" stroke="#000" stroke-width=".75"/>
<path transform="matrix(1.9655 0 0 1.9656 -4.9221 -11.202)" d="m115.84 277.37c-0.45511-8.7006-10.646-6.7092-23.224 3.5852-23.908 19.565-20.927 27.749-21.112 33.944 2.3372-0.38157 4.3206 0.18085 4.5729 5.3757 6.7213 1.7588 17.401-2.3947 26.525-13.106 8.4285-9.893 13.904-17.119 13.238-29.798z" fill="url(#j)" stroke="#000" stroke-width=".75"/>
<path transform="matrix(1.9655 0 0 1.9656 -4.9221 -11.202)" d="m30.097 375.38c14.104-5.5705 23.948-16.407 32.013-29.486 4.6783-7.5857 11.066-18.862 4.9605-23.852-4.3504-3.5553-17.759-0.54652-33.338 17.789-6.606 7.7764-12.938 15.485-8.8716 29.969 4.3404-0.073531 4.7916 2.7505 5.2367 5.5804z" fill="url(#j)" stroke="#000" stroke-width=".75"/>
<path d="m277.07 425.22c-0.60156-12.617-0.67969-25.254 8.9258-38.242 4.6016-9.7227 9-19.523 18.777-27.281-0.11719-2.9844 0.75781-5.3906 5.1914-5.7109 3.2383-3.3867 6.4883-6.8242 9.1875-7.1406-1.2695 3.2578-4.0664 6.7852-7.5664 10.434 0.09375 2.25-0.62891 4.1875-4.6406 4.8672-9.5039 5.0352-14.188 15.641-19.359 25.68-7.9961 12.125-8.8398 24.789-10.516 37.395z" fill="url(#u)"/>
<path d="m372.1 293.69c33.887-45.707 78.188-86.289 101.66-137.12 0 0-7.5703-26.133 13.227-40.004 7.0508-4.6992 17.457-6.4062 31.309-0.44922 4.9688 2.1406 10.258 5.9766 13.371 8.9492 2.8867 2.75 3.4062 5.7578 1.0547 3.9766-6.5117-4.9414-13.012-12.848-30.484-14.105-2.8789-0.20703-16.055-2.8203-25.32 18.312-2.9883 6.8086-3.5508 14.5 0.082032 22.195l35.008 10.414c8.4492-2.6875 16.219 0.27734 23.344 8.5547 0 0 15.934 1.0703 14.199 5.8906-1.9023 5.2891-16.121-4.9492-16.121-4.9492-5.0938-4.7383-10.191-9.4766-23.508-7.2148l-33.156-10.18c-25.98 55.934-104.66 135.73-104.66 135.73z" fill="url(#t)"/>
<path transform="matrix(1.9655 0 0 1.9656 -4.9221 -11.202)" d="m180.69 61.738c1.095-0.013911 1.2461 0.49683 1.3872 0.82276 0.52268 0.091417 1.1507-0.047697 1.3156 0.83269 0.7711-0.29015 1.5422-0.067569 2.3133 0.8943 1.264-0.18085 1.9357 0.51671 2.6869 1.097 1.2759-0.24842 2.1026 0.34381 2.9652 0.86847 1.9675-0.3458 3.0367 0.63595 4.3504 1.258 1.4408-0.12918 2.1702 0.4074 2.8181 1.0235 1.2322-0.18284 2.1563 0.16892 2.7585 1.0811 0.94798 0.11725 1.7072-0.33586 3.1142 1.1546 0.41934 0.065582 0.70353-0.19675 1.4249 0.59223 0.52069-0.10533 1.0235-0.051671 1.4567 0.58825 0.97183-0.053658 1.9417 0.25239 2.9135 1.2222 0.76514-0.3458 1.0553 0.24444 1.4567 0.61011 1.264-0.071544 1.9754 0.68563 2.9254 1.0851 0.62404-0.17687 1.0493 0.17687 1.4587 0.57633 1.6495-0.26829 1.6972 0.33586 2.2994 0.63793 0.77508 0.091418 1.578 0.079494 2.0768 1.099 0.8347-0.19476 1.2222 0.1093 1.3971 0.65185l1.1209 0.60812c1.3633-0.28022 1.8204 0.12322 2.3709 0.45709 0.93407-0.13713 1.7767-0.15104 2.3709 0.16892 1.3733 0.099367 1.4567 0.44318 2.047 0.69159 0.80687-0.003975 1.3455 0.4392 1.8582 0.9261 0.68564 0.11924 1.1527 0.43125 1.4508 0.89231 1.1547-0.28618 1.7509 0.005962 2.2676 0.38157 1.2878-0.003974 1.7052 0.52267 2.2835 0.95193 1.0473 0.027823 1.3415 0.60018 1.9913 0.91418 0.47101-0.033785 0.94003-0.27226 1.409 0.43125 0.51274-0.20668 1.0255 0.11527 1.5382 0.28816l19.832 6.1448c5.197-1.0732 8.3291 0.27624 11.7 3.8872l8.0429 2.8518c0.4094-0.013911 0.8188-0.057633 1.2461 0.40542 0.69956-0.11328 1.0255 0.19078 1.2282 0.62998 1.0016-0.29015 1.2838 0.25835 1.7429 0.60018 1.3256-0.033785 1.2779 0.66774 1.6853 1.1248 0.81284-0.13514 1.5283-0.05962 2.0907 0.3458 0.64192 0.015898 1.266-0.051671 2.0371 0.63992 0.50082 0.14309 1.0195 0.003975 1.4707 0.93206 0.64391 0.085455 1.1288 0.49683 1.5104 1.1169 0.59621 0.10732 1.2322 0.087443 1.6555 0.76115 0.87643 0.039747 1.7429-0.019874 2.7128 0.80885 0.65981 0.10334 1.3137 0.25239 1.886 0.8466 0.63397 0.081481 1.2183 0.21264 1.5283 0.60018 0.87047 0.033784 1.3474 0.45112 1.7608 0.93007 0.8188 0.12719 1.1865 0.67768 1.5959 1.1884 0.79296 0.1093 1.3653 0.60018 1.727 1.4527 0.71545 0.075519 1.3236 0.39747 1.7986 1.0275 0.8665-0.071544 1.576 0.28419 2.1901 0.90424 0.68366 0.11924 1.3832 0.4392 2.1106 1.1984 0.72142 0.025835 1.1845 0.57037 1.6654 1.0771 0.82277 0.06757 1.5839 0.41535 2.2954 0.97976 0.76713 0.23649 1.5104 0.55248 2.1126 1.3037 0.88239 0.02981 1.5978 0.31599 2.0748 0.9738 1.1726 0.38554 2.1225 1.2719 2.9214 2.4921 0.88438 0.16296 1.6038 0.7691 2.1702 1.7866 1.3912 0.21463 1.9337 1.3176 2.6651 2.2218 1.252 0.11129 1.9238 0.78102 2.7048 1.3474 1.0632-0.16694 2.0867-0.057632 3.0168 0.69756 0.56044-0.053658 1.101-0.055645 1.5064 0.31599" fill="none" stroke="#000" stroke-width=".35"/>
<g>
<use x="683.121094" y="412.248241" xlink:href="#ae"/>
<use x="690.983227" y="412.248241" xlink:href="#d"/>
<use x="700.810893" y="412.248241" xlink:href="#k"/>
<use x="706.707492" y="412.248241" xlink:href="#i"/>
<use x="722.431758" y="412.248241" xlink:href="#f"/>
<use x="726.362824" y="412.248241" xlink:href="#a"/>
<use x="736.19049" y="412.248241" xlink:href="#c"/>
<use x="746.018156" y="412.248241" xlink:href="#b"/>
</g>
<g>
<use x="648.722656" y="431.900585" xlink:href="#v"/>
<use x="654.619256" y="431.900585" xlink:href="#a"/>
<use x="664.446922" y="431.900585" xlink:href="#h"/>
<use x="674.274588" y="431.900585" xlink:href="#a"/>
<use x="684.102254" y="431.900585" xlink:href="#ad"/>
<use x="689.998853" y="431.900585" xlink:href="#i"/>
<use x="705.723119" y="431.900585" xlink:href="#o"/>
<use x="715.550785" y="431.900585" xlink:href="#d"/>
<use x="725.378451" y="431.900585" xlink:href="#b"/>
<use x="729.309517" y="431.900585" xlink:href="#f"/>
<use x="733.240584" y="431.900585" xlink:href="#a"/>
<use x="743.06825" y="431.900585" xlink:href="#c"/>
<use x="752.895916" y="431.900585" xlink:href="#g"/>
<use x="758.792515" y="431.900585" xlink:href="#d"/>
<use x="768.620181" y="431.900585" xlink:href="#n"/>
<use x="778.447847" y="431.900585" xlink:href="#ac"/>
</g>
<g>
<use x="697.859375" y="451.556835" xlink:href="#c"/>
<use x="707.687041" y="451.556835" xlink:href="#m"/>
<use x="715.549174" y="451.556835" xlink:href="#h"/>
<use x="725.37684" y="451.556835" xlink:href="#a"/>
</g>
<g>
<use x="493.097656" y="627.607616" xlink:href="#ab"/>
<use x="506.856389" y="627.607616" xlink:href="#o"/>
<use x="516.684055" y="627.607616" xlink:href="#d"/>
<use x="526.511721" y="627.607616" xlink:href="#b"/>
<use x="530.442787" y="627.607616" xlink:href="#f"/>
<use x="534.373853" y="627.607616" xlink:href="#a"/>
<use x="544.201519" y="627.607616" xlink:href="#c"/>
<use x="554.029185" y="627.607616" xlink:href="#g"/>
<use x="559.925785" y="627.607616" xlink:href="#d"/>
<use x="569.753451" y="627.607616" xlink:href="#n"/>
</g>
<g>
<use x="517.667969" y="647.263866" xlink:href="#c"/>
<use x="527.495635" y="647.263866" xlink:href="#m"/>
<use x="535.357768" y="647.263866" xlink:href="#h"/>
<use x="545.185433" y="647.263866" xlink:href="#a"/>
</g>
<g>
<use x="42.164062" y="244.185741" xlink:href="#aa"/>
<use x="53.957262" y="244.185741" xlink:href="#c"/>
<use x="63.784928" y="244.185741" xlink:href="#z"/>
<use x="73.612594" y="244.185741" xlink:href="#y"/>
<use x="81.474726" y="244.185741" xlink:href="#l"/>
<use x="91.302392" y="244.185741" xlink:href="#b"/>
<use x="95.233459" y="244.185741" xlink:href="#d"/>
</g>
<g>
<use x="112.960937" y="163.66621" xlink:href="#x"/>
<use x="124.754137" y="163.66621" xlink:href="#l"/>
<use x="134.581803" y="163.66621" xlink:href="#g"/>
<use x="140.478402" y="163.66621" xlink:href="#d"/>
<use x="150.306068" y="163.66621" xlink:href="#k"/>
</g>
<g>
<use x="91.339844" y="183.32246" xlink:href="#b"/>
<use x="95.27091" y="183.32246" xlink:href="#c"/>
<use x="105.098576" y="183.32246" xlink:href="#i"/>
<use x="120.822842" y="183.32246" xlink:href="#d"/>
<use x="130.650508" y="183.32246" xlink:href="#b"/>
<use x="134.581574" y="183.32246" xlink:href="#b"/>
<use x="138.51264" y="183.32246" xlink:href="#c"/>
<use x="148.340306" y="183.32246" xlink:href="#g"/>
<use x="154.236906" y="183.32246" xlink:href="#f"/>
<use x="158.167972" y="183.32246" xlink:href="#h"/>
<use x="167.995638" y="183.32246" xlink:href="#a"/>
</g>
<g>
<use x="187.117188" y="106.927928" xlink:href="#w"/>
<use x="191.048254" y="106.927928" xlink:href="#a"/>
<use x="200.87592" y="106.927928" xlink:href="#a"/>
<use x="210.703586" y="106.927928" xlink:href="#d"/>
<use x="220.531252" y="106.927928" xlink:href="#k"/>
</g>
<g>
<use x="163.53125" y="126.584178" xlink:href="#b"/>
<use x="167.462316" y="126.584178" xlink:href="#c"/>
<use x="177.289982" y="126.584178" xlink:href="#i"/>
<use x="193.014248" y="126.584178" xlink:href="#d"/>
<use x="202.841914" y="126.584178" xlink:href="#b"/>
<use x="206.77298" y="126.584178" xlink:href="#b"/>
<use x="210.704047" y="126.584178" xlink:href="#c"/>
<use x="220.531713" y="126.584178" xlink:href="#g"/>
<use x="226.428312" y="126.584178" xlink:href="#f"/>
<use x="230.359379" y="126.584178" xlink:href="#h"/>
<use x="240.187045" y="126.584178" xlink:href="#a"/>
</g>
<path transform="matrix(1.9655 0 0 1.9656 -4.9221 -11.202)" d="m57.602 129.2 29.942 8.0209v22.012" fill="none" stroke="#000" stroke-width=".75"/>
<path d="m167.15 303.23c-0.81641 0-1.4766-0.66016-1.4766-1.4727s0.66016-1.4727 1.4766-1.4727c0.8125 0 1.4727 0.66016 1.4727 1.4727s-0.66016 1.4727-1.4727 1.4727z" fill-rule="evenodd"/>
<path transform="matrix(1.9655 0 0 1.9656 -4.9221 -11.202)" d="m94.174 97.417 56.839 15.229v23.015" fill="none" stroke="#000" stroke-width=".75"/>
<path d="m291.9 256.89c-0.81641 0-1.4766-0.66016-1.4766-1.4766 0-0.8125 0.66016-1.4727 1.4766-1.4727 0.8125 0 1.4727 0.66016 1.4727 1.4727 0 0.81641-0.66016 1.4766-1.4727 1.4766z" fill-rule="evenodd"/>
<path transform="matrix(1.9655 0 0 1.9656 -4.9221 -11.202)" d="m130.45 67.771 79.032 21.177v25.69" fill="none" stroke="#000" stroke-width=".75"/>
<path d="m406.81 215.57c-0.81641 0-1.4766-0.66016-1.4766-1.4727 0-0.81641 0.66016-1.4766 1.4766-1.4766 0.8125 0 1.4727 0.66016 1.4727 1.4766 0 0.8125-0.66016 1.4727-1.4727 1.4727z" fill-rule="evenodd"/>
<path transform="matrix(1.9655 0 0 1.9656 -4.9221 -11.202)" d="m251.46 322.24-162.47-43.535v12.794" fill="none" stroke="#000" stroke-width=".75"/>
<path d="m169.99 563.21c-0.8125 0-1.4727-0.66016-1.4727-1.4727s0.66016-1.4727 1.4727-1.4727c0.81641 0 1.4766 0.66016 1.4766 1.4727s-0.66016 1.4727-1.4766 1.4727z" fill-rule="evenodd"/>
<path transform="matrix(1.9655 0 0 1.9656 -4.9221 -11.202)" d="m349.81 211.94-160.98-43.135v13.717" fill="none" stroke="#000" stroke-width=".75"/>
<path d="m366.22 349.01c-0.81641 0-1.4766-0.66406-1.4766-1.4766s0.66016-1.4727 1.4766-1.4727c0.8125 0 1.4727 0.66016 1.4727 1.4727s-0.66016 1.4766-1.4727 1.4766z" fill-rule="evenodd"/>
</svg>
