<?xml version="1.0" encoding="UTF-8"?>
<svg width="800px" height="351px" version="1.1" viewBox="0 0 800 351" xmlns="http://www.w3.org/2000/svg" xmlns:xlink="http://www.w3.org/1999/xlink">
<defs>
<symbol id="aj" overflow="visible">
<path d="m0.875-11.453h8.9844v1.1875l-7.2188 8.9688h7.4062v1.2969h-9.3438v-1.1875l7.2344-8.9531h-7.0625z"/>
</symbol>
<symbol id="n" overflow="visible">
<path d="m4.7969-7.5938c-0.75 0-1.3438 0.29688-1.7812 0.89062-0.4375 0.58594-0.65625 1.3906-0.65625 2.4219 0 1.0234 0.21094 1.8281 0.64062 2.4219 0.4375 0.59375 1.0352 0.89062 1.7969 0.89062 0.75 0 1.3438-0.29688 1.7812-0.89062 0.44531-0.59375 0.67188-1.3984 0.67188-2.4219 0-1.0195-0.22656-1.8281-0.67188-2.4219-0.4375-0.59375-1.0312-0.89062-1.7812-0.89062zm0-1.2031c1.2266 0 2.1914 0.40234 2.8906 1.2031 0.69531 0.79297 1.0469 1.8984 1.0469 3.3125 0 1.4062-0.35156 2.5117-1.0469 3.3125-0.69922 0.79297-1.6641 1.1875-2.8906 1.1875-1.2305 0-2.1953-0.39453-2.8906-1.1875-0.69922-0.80078-1.0469-1.9062-1.0469-3.3125 0-1.4141 0.34766-2.5195 1.0469-3.3125 0.69531-0.80078 1.6602-1.2031 2.8906-1.2031z"/>
</symbol>
<symbol id="e" overflow="visible">
<path d="m8.6094-5.1875v5.1875h-1.4062v-5.1406c0-0.8125-0.16406-1.4141-0.48438-1.8125-0.3125-0.40625-0.78906-0.60938-1.4219-0.60938-0.76172 0-1.3594 0.24609-1.7969 0.73438-0.4375 0.48047-0.65625 1.1367-0.65625 1.9688v4.8594h-1.4219v-8.5938h1.4219v1.3438c0.33203-0.51953 0.72656-0.90625 1.1875-1.1562 0.45703-0.25781 0.98438-0.39062 1.5781-0.39062 0.98828 0 1.7344 0.30859 2.2344 0.92188 0.50781 0.60547 0.76562 1.5 0.76562 2.6875z"/>
</symbol>
<symbol id="g" overflow="visible">
<path d="m1.3281-3.3906v-5.2031h1.4219v5.1562c0 0.8125 0.15625 1.4219 0.46875 1.8281s0.78516 0.60938 1.4219 0.60938c0.75781 0 1.3594-0.24219 1.7969-0.73438 0.44531-0.48828 0.67188-1.1484 0.67188-1.9844v-4.875h1.4062v8.5938h-1.4062v-1.3125c-0.34375 0.52344-0.74609 0.90625-1.2031 1.1562-0.44922 0.25-0.96875 0.375-1.5625 0.375-0.99219 0-1.7422-0.30469-2.25-0.92188-0.51172-0.61328-0.76562-1.5078-0.76562-2.6875z"/>
</symbol>
<symbol id="d" overflow="visible">
<path d="m1.4844-11.938h1.4062v11.938h-1.4062z"/>
</symbol>
<symbol id="c" overflow="visible">
<path d="m5.375-4.3125c-1.1367 0-1.9219 0.13281-2.3594 0.39062-0.4375 0.26172-0.65625 0.70312-0.65625 1.3281 0 0.5 0.16016 0.90234 0.48438 1.2031 0.33203 0.29297 0.78125 0.4375 1.3438 0.4375 0.78125 0 1.4062-0.27344 1.875-0.82812 0.47656-0.5625 0.71875-1.3008 0.71875-2.2188v-0.3125zm2.8125-0.59375v4.9062h-1.4062v-1.2969c-0.32422 0.52344-0.72656 0.90625-1.2031 1.1562-0.48047 0.23828-1.0703 0.35938-1.7656 0.35938-0.875 0-1.5742-0.24219-2.0938-0.73438-0.52344-0.48828-0.78125-1.1484-0.78125-1.9844 0-0.96875 0.32031-1.6953 0.96875-2.1875 0.64453-0.48828 1.6094-0.73438 2.8906-0.73438h1.9844v-0.14062c0-0.64453-0.21484-1.1445-0.64062-1.5-0.42969-0.35156-1.0273-0.53125-1.7969-0.53125-0.49219 0-0.96875 0.058594-1.4375 0.17188-0.46094 0.11719-0.90625 0.29297-1.3438 0.53125v-1.3125c0.51953-0.19531 1.0195-0.34375 1.5-0.4375 0.48828-0.10156 0.96094-0.15625 1.4219-0.15625 1.2383 0 2.1641 0.32422 2.7812 0.96875 0.61328 0.64844 0.92188 1.6211 0.92188 2.9219z"/>
</symbol>
<symbol id="v" overflow="visible">
<path d="m5.8281-11.938v1.1875h-1.3594c-0.5 0-0.85156 0.10547-1.0469 0.3125-0.19922 0.19922-0.29688 0.5625-0.29688 1.0938v0.75h2.3281v1.1094h-2.3281v7.4844h-1.4219v-7.4844h-1.3438v-1.1094h1.3438v-0.59375c0-0.95703 0.22266-1.6562 0.67188-2.0938 0.44531-0.4375 1.1484-0.65625 2.1094-0.65625z"/>
</symbol>
<symbol id="m" overflow="visible">
<path d="m6.9531-8.3281v1.3281c-0.40625-0.20703-0.82422-0.35938-1.25-0.45312-0.42969-0.10156-0.87109-0.15625-1.3281-0.15625-0.69922 0-1.2266 0.10938-1.5781 0.32812-0.34375 0.21094-0.51562 0.52734-0.51562 0.95312 0 0.33594 0.125 0.59375 0.375 0.78125 0.25 0.17969 0.75 0.35547 1.5 0.53125l0.48438 0.09375c1 0.21875 1.707 0.52734 2.125 0.92188 0.42578 0.38672 0.64062 0.92969 0.64062 1.625 0 0.80469-0.32031 1.4375-0.95312 1.9062-0.625 0.46094-1.4922 0.6875-2.5938 0.6875-0.46094 0-0.9375-0.046875-1.4375-0.14062-0.5-0.082031-1.0273-0.21094-1.5781-0.39062v-1.4531c0.51953 0.27344 1.0312 0.47656 1.5312 0.60938 0.50781 0.13672 1.0156 0.20312 1.5156 0.20312 0.66406 0 1.1758-0.11328 1.5312-0.34375 0.35156-0.22656 0.53125-0.55078 0.53125-0.96875 0-0.38281-0.13281-0.67578-0.39062-0.875-0.25-0.20703-0.8125-0.40625-1.6875-0.59375l-0.48438-0.10938c-0.875-0.1875-1.5117-0.46875-1.9062-0.84375-0.38672-0.38281-0.57812-0.91016-0.57812-1.5781 0-0.80078 0.28516-1.4219 0.85938-1.8594 0.57031-0.44531 1.3828-0.67188 2.4375-0.67188 0.51953 0 1.0078 0.042969 1.4688 0.125 0.45703 0.074219 0.88281 0.1875 1.2812 0.34375z"/>
</symbol>
<symbol id="a" overflow="visible">
<path d="m8.8125-4.6406v0.6875h-6.4688c0.050781 0.96875 0.33594 1.7109 0.85938 2.2188 0.53125 0.51172 1.2656 0.76562 2.2031 0.76562 0.53906 0 1.0625-0.066406 1.5625-0.20312 0.50781-0.13281 1.0156-0.33203 1.5156-0.59375v1.3281c-0.5 0.21875-1.0156 0.38281-1.5469 0.48438-0.53125 0.11328-1.0742 0.17188-1.625 0.17188-1.3672 0-2.4492-0.39453-3.25-1.1875-0.80469-0.80078-1.2031-1.8789-1.2031-3.2344 0-1.4062 0.37891-2.5195 1.1406-3.3438 0.75781-0.83203 1.7852-1.25 3.0781-1.25 1.1445 0 2.0508 0.375 2.7188 1.125 0.67578 0.74219 1.0156 1.75 1.0156 3.0312zm-1.4062-0.42188c-0.011719-0.76953-0.23047-1.3828-0.65625-1.8438-0.41797-0.45703-0.96875-0.6875-1.6562-0.6875-0.79297 0-1.4297 0.22656-1.9062 0.67188-0.46875 0.4375-0.74219 1.0625-0.8125 1.875z"/>
</symbol>
<symbol id="b" overflow="visible">
<path d="m6.4531-7.2656c-0.15625-0.09375-0.32812-0.16016-0.51562-0.20312-0.1875-0.039062-0.39844-0.0625-0.625-0.0625-0.79297 0-1.4023 0.26172-1.8281 0.78125-0.42969 0.51172-0.64062 1.25-0.64062 2.2188v4.5312h-1.4219v-8.5938h1.4219v1.3438c0.28906-0.51953 0.67188-0.90625 1.1406-1.1562 0.47656-0.25781 1.0625-0.39062 1.75-0.39062 0.09375 0 0.19531 0.011719 0.3125 0.03125 0.125 0.011719 0.25391 0.027344 0.39062 0.046875z"/>
</symbol>
<symbol id="ai" overflow="visible">
<path d="m1.5469-11.453h1.5469v4.8438l5.125-4.8438h1.9844l-5.6719 5.3438 6.0781 6.1094h-2.0312l-5.4844-5.5156v5.5156h-1.5469z"/>
</symbol>
<symbol id="k" overflow="visible">
<path d="m8.1562-6.9375c0.35156-0.63281 0.77344-1.1016 1.2656-1.4062 0.48828-0.30078 1.0664-0.45312 1.7344-0.45312 0.89453 0 1.582 0.3125 2.0625 0.9375 0.48828 0.625 0.73438 1.5156 0.73438 2.6719v5.1875h-1.4219v-5.1406c0-0.82031-0.14844-1.4297-0.4375-1.8281-0.29297-0.39453-0.73438-0.59375-1.3281-0.59375-0.73047 0-1.3086 0.24609-1.7344 0.73438-0.42969 0.48047-0.64062 1.1367-0.64062 1.9688v4.8594h-1.4062v-5.1406c0-0.82031-0.14844-1.4297-0.4375-1.8281-0.29297-0.39453-0.74609-0.59375-1.3594-0.59375-0.71875 0-1.293 0.24609-1.7188 0.73438-0.41797 0.48047-0.625 1.1367-0.625 1.9688v4.8594h-1.4219v-8.5938h1.4219v1.3438c0.32031-0.53125 0.70703-0.92188 1.1562-1.1719 0.44531-0.25 0.97656-0.375 1.5938-0.375 0.625 0 1.1562 0.16406 1.5938 0.48438 0.4375 0.3125 0.75781 0.77344 0.96875 1.375z"/>
</symbol>
<symbol id="ah" overflow="visible">
<path d="m0.65625-8.5938h1.4062l1.7656 6.7031 1.75-6.7031h1.6719l1.7656 6.7031 1.75-6.7031h1.4062l-2.25 8.5938h-1.6562l-1.8438-7.0312-1.8594 7.0312h-1.6562z"/>
</symbol>
<symbol id="j" overflow="visible">
<path d="m1.4844-8.5938h1.4062v8.5938h-1.4062zm0-3.3438h1.4062v1.7969h-1.4062z"/>
</symbol>
<symbol id="i" overflow="visible">
<path d="m1.4219-11.938h1.4219v7.0469l4.2031-3.7031h1.7969l-4.5469 4.0312 4.7344 4.5625h-1.8281l-4.3594-4.1875v4.1875h-1.4219z"/>
</symbol>
<symbol id="u" overflow="visible">
<path d="m1.5469-11.453h1.5469v4.7031h5.6094v-4.7031h1.5469v11.453h-1.5469v-5.4531h-5.6094v5.4531h-1.5469z"/>
</symbol>
<symbol id="h" overflow="visible">
<path d="m8.6094-5.1875v5.1875h-1.4062v-5.1406c0-0.8125-0.16406-1.4141-0.48438-1.8125-0.3125-0.40625-0.78906-0.60938-1.4219-0.60938-0.76172 0-1.3594 0.24609-1.7969 0.73438-0.4375 0.48047-0.65625 1.1367-0.65625 1.9688v4.8594h-1.4219v-11.938h1.4219v4.6875c0.33203-0.51953 0.72656-0.90625 1.1875-1.1562 0.45703-0.25781 0.98438-0.39062 1.5781-0.39062 0.98828 0 1.7344 0.30859 2.2344 0.92188 0.50781 0.60547 0.76562 1.5 0.76562 2.6875z"/>
</symbol>
<symbol id="f" overflow="visible">
<path d="m2.875-11.031v2.4375h2.9062v1.1094h-2.9062v4.6562c0 0.69922 0.09375 1.1484 0.28125 1.3438 0.19531 0.19922 0.58594 0.29688 1.1719 0.29688h1.4531v1.1875h-1.4531c-1.0859 0-1.8359-0.20312-2.25-0.60938-0.41797-0.40625-0.625-1.1445-0.625-2.2188v-4.6562h-1.0312v-1.1094h1.0312v-2.4375z"/>
</symbol>
<symbol id="t" overflow="visible">
<path d="m1.5469-11.453h1.5469v10.156h5.5625v1.2969h-7.1094z"/>
</symbol>
<symbol id="ag" overflow="visible">
<path d="m3.0938-10.172v4.2969h1.9375c0.71875 0 1.2734-0.1875 1.6719-0.5625 0.39453-0.375 0.59375-0.90625 0.59375-1.5938s-0.19922-1.2109-0.59375-1.5781c-0.39844-0.375-0.95312-0.5625-1.6719-0.5625zm-1.5469-1.2812h3.4844c1.2812 0 2.25 0.29297 2.9062 0.875 0.65625 0.58594 0.98438 1.4336 0.98438 2.5469 0 1.1367-0.32812 1.9961-0.98438 2.5781-0.65625 0.57422-1.625 0.85938-2.9062 0.85938h-1.9375v4.5938h-1.5469z"/>
</symbol>
<symbol id="s" overflow="visible">
<path d="m2.8438-1.2812v4.5469h-1.4219v-11.859h1.4219v1.3125c0.28906-0.50781 0.66016-0.89062 1.1094-1.1406 0.45703-0.25 1-0.375 1.625-0.375 1.0391 0 1.8828 0.41797 2.5312 1.25 0.65625 0.82422 0.98438 1.9141 0.98438 3.2656 0 1.3438-0.32812 2.4336-0.98438 3.2656-0.64844 0.82422-1.4922 1.2344-2.5312 1.2344-0.625 0-1.168-0.12109-1.625-0.35938-0.44922-0.25-0.82031-0.62891-1.1094-1.1406zm4.7969-3c0-1.0391-0.21484-1.8516-0.64062-2.4375-0.42969-0.59375-1.0156-0.89062-1.7656-0.89062-0.74219 0-1.3242 0.29688-1.75 0.89062-0.42969 0.58594-0.64062 1.3984-0.64062 2.4375 0 1.0312 0.21094 1.8438 0.64062 2.4375 0.42578 0.59375 1.0078 0.89062 1.75 0.89062 0.75 0 1.3359-0.29688 1.7656-0.89062 0.42578-0.59375 0.64062-1.4062 0.64062-2.4375z"/>
</symbol>
<symbol id="af" overflow="visible">
<path d="m1.5469-11.453h1.5469v11.453h-1.5469z"/>
</symbol>
<symbol id="ae" overflow="visible">
<path d="m4.4844 0-4.3594-11.453h1.6094l3.625 9.6406 3.6406-9.6406h1.5938l-4.3438 11.453z"/>
</symbol>
<symbol id="l" overflow="visible">
<path d="m7.125-7.2812v-4.6562h1.4062v11.938h-1.4062v-1.2812c-0.30469 0.51172-0.67969 0.89062-1.125 1.1406-0.44922 0.23828-0.99219 0.35938-1.625 0.35938-1.043 0-1.8906-0.41016-2.5469-1.2344-0.64844-0.83203-0.96875-1.9219-0.96875-3.2656 0-1.3516 0.32031-2.4414 0.96875-3.2656 0.65625-0.83203 1.5039-1.25 2.5469-1.25 0.63281 0 1.1758 0.125 1.625 0.375 0.44531 0.25 0.82031 0.63281 1.125 1.1406zm-4.7969 3c0 1.0312 0.20703 1.8438 0.625 2.4375 0.42578 0.59375 1.0156 0.89062 1.7656 0.89062s1.3359-0.29688 1.7656-0.89062c0.42578-0.59375 0.64062-1.4062 0.64062-2.4375 0-1.0391-0.21484-1.8516-0.64062-2.4375-0.42969-0.59375-1.0156-0.89062-1.7656-0.89062s-1.3398 0.29688-1.7656 0.89062c-0.41797 0.58594-0.625 1.3984-0.625 2.4375z"/>
</symbol>
<symbol id="r" overflow="visible">
<path d="m8.3906-11.078v1.5156c-0.58594-0.28125-1.1367-0.48828-1.6562-0.625-0.52344-0.13281-1.0273-0.20312-1.5156-0.20312-0.84375 0-1.4961 0.16406-1.9531 0.48438-0.44922 0.32422-0.67188 0.78906-0.67188 1.3906 0 0.51172 0.14844 0.89844 0.45312 1.1562 0.30078 0.25 0.875 0.46094 1.7188 0.625l0.9375 0.1875c1.1562 0.21875 2.0039 0.60938 2.5469 1.1719 0.55078 0.55469 0.82812 1.293 0.82812 2.2188 0 1.1055-0.37109 1.9453-1.1094 2.5156-0.74219 0.57422-1.8281 0.85938-3.2656 0.85938-0.54297 0-1.1211-0.0625-1.7344-0.1875-0.60547-0.11328-1.2344-0.28906-1.8906-0.53125v-1.5938c0.625 0.34375 1.2383 0.60938 1.8438 0.79688 0.60156 0.17969 1.1953 0.26562 1.7812 0.26562 0.88281 0 1.5664-0.17188 2.0469-0.51562 0.47656-0.35156 0.71875-0.85156 0.71875-1.5 0-0.5625-0.17188-1-0.51562-1.3125-0.34375-0.32031-0.91406-0.5625-1.7031-0.71875l-0.9375-0.1875c-1.1562-0.22656-1.9961-0.58594-2.5156-1.0781-0.51172-0.48828-0.76562-1.1719-0.76562-2.0469 0-1.0078 0.35156-1.8047 1.0625-2.3906 0.71875-0.58203 1.7031-0.875 2.9531-0.875 0.53906 0 1.0859 0.054688 1.6406 0.15625 0.55078 0.09375 1.1172 0.23438 1.7031 0.42188z"/>
</symbol>
<symbol id="ad" overflow="visible">
<path d="m4.7969-7.5938c-0.75 0-1.3438 0.29688-1.7812 0.89062-0.4375 0.58594-0.65625 1.3906-0.65625 2.4219 0 1.0234 0.21094 1.8281 0.64062 2.4219 0.4375 0.59375 1.0352 0.89062 1.7969 0.89062 0.75 0 1.3438-0.29688 1.7812-0.89062 0.44531-0.59375 0.67188-1.3984 0.67188-2.4219 0-1.0195-0.22656-1.8281-0.67188-2.4219-0.4375-0.59375-1.0312-0.89062-1.7812-0.89062zm0-1.2031c1.2266 0 2.1914 0.40234 2.8906 1.2031 0.69531 0.79297 1.0469 1.8984 1.0469 3.3125 0 1.4062-0.35156 2.5117-1.0469 3.3125-0.69922 0.79297-1.6641 1.1875-2.8906 1.1875-1.2305 0-2.1953-0.39453-2.8906-1.1875-0.69922-0.80078-1.0469-1.9062-1.0469-3.3125 0-1.4141 0.34766-2.5195 1.0469-3.3125 0.69531-0.80078 1.6602-1.2031 2.8906-1.2031zm0.71875-3.1094h1.5625v1.5625h-1.5625zm-3 0h1.5625v1.5625h-1.5625z"/>
</symbol>
<symbol id="ac" overflow="visible">
<path d="m5.3594-9.9219-2.0938 5.7031h4.2031zm-0.875-1.5312h1.7656l4.3438 11.453h-1.5938l-1.0469-2.9375h-5.1562l-1.0469 2.9375h-1.625z"/>
</symbol>
<symbol id="ab" overflow="visible">
<path d="m1.5469-11.453h2.0781l5.0625 9.5781v-9.5781h1.5156v11.453h-2.0938l-5.0625-9.5781v9.5781h-1.5z"/>
</symbol>
<symbol id="aa" overflow="visible">
<path d="m0.85938-8.5938h6.7031v1.2969l-5.2969 6.1719h5.2969v1.125h-6.8906v-1.2812l5.2969-6.1719h-5.1094z"/>
</symbol>
<symbol id="z" overflow="visible">
<path d="m9.3438-1.6406v-3.0625h-2.5312v-1.2812h4.0625v4.9219c-0.60547 0.42969-1.2656 0.75-1.9844 0.96875-0.71875 0.20703-1.4844 0.3125-2.2969 0.3125-1.793 0-3.1953-0.51953-4.2031-1.5625-1.0117-1.0391-1.5156-2.5-1.5156-4.375 0-1.8633 0.50391-3.3164 1.5156-4.3594 1.0078-1.0508 2.4102-1.5781 4.2031-1.5781 0.73828 0 1.4414 0.09375 2.1094 0.28125 0.67578 0.17969 1.3008 0.44922 1.875 0.8125v1.6406c-0.57422-0.47656-1.1836-0.83594-1.8281-1.0781-0.64844-0.25-1.3242-0.375-2.0312-0.375-1.3984 0-2.4492 0.39062-3.1562 1.1719-0.69922 0.78125-1.0469 1.9453-1.0469 3.4844 0 1.5547 0.34766 2.7188 1.0469 3.5 0.70703 0.78125 1.7578 1.1719 3.1562 1.1719 0.53906 0 1.0234-0.046875 1.4531-0.14062 0.4375-0.09375 0.82812-0.24219 1.1719-0.45312z"/>
</symbol>
<symbol id="y" overflow="visible">
<path d="m7.6406-4.2812c0-1.0391-0.21484-1.8516-0.64062-2.4375-0.42969-0.59375-1.0156-0.89062-1.7656-0.89062-0.74219 0-1.3242 0.29688-1.75 0.89062-0.42969 0.58594-0.64062 1.3984-0.64062 2.4375 0 1.0312 0.21094 1.8438 0.64062 2.4375 0.42578 0.59375 1.0078 0.89062 1.75 0.89062 0.75 0 1.3359-0.29688 1.7656-0.89062 0.42578-0.59375 0.64062-1.4062 0.64062-2.4375zm-4.7969-3c0.28906-0.50781 0.66016-0.89062 1.1094-1.1406 0.45703-0.25 1-0.375 1.625-0.375 1.0391 0 1.8828 0.41797 2.5312 1.25 0.65625 0.82422 0.98438 1.9141 0.98438 3.2656 0 1.3438-0.32812 2.4336-0.98438 3.2656-0.64844 0.82422-1.4922 1.2344-2.5312 1.2344-0.625 0-1.168-0.12109-1.625-0.35938-0.44922-0.25-0.82031-0.62891-1.1094-1.1406v1.2812h-1.4219v-11.938h1.4219z"/>
</symbol>
<symbol id="q" overflow="visible"></symbol>
<symbol id="p" overflow="visible">
<path d="m1.5469-11.453h6.5625v1.3125h-5.0156v3.375h4.5312v1.2969h-4.5312v5.4688h-1.5469z"/>
</symbol>
<symbol id="o" overflow="visible">
<path d="m7.6562-8.2656v1.3281c-0.39844-0.21875-0.79688-0.37891-1.2031-0.48438-0.39844-0.11328-0.80469-0.17188-1.2188-0.17188-0.90625 0-1.6172 0.29297-2.125 0.875-0.5 0.57422-0.75 1.3867-0.75 2.4375 0 1.043 0.25 1.8555 0.75 2.4375 0.50781 0.58594 1.2188 0.875 2.125 0.875 0.41406 0 0.82031-0.050781 1.2188-0.15625 0.40625-0.11328 0.80469-0.28516 1.2031-0.51562v1.3125c-0.39844 0.1875-0.80859 0.32422-1.2344 0.40625-0.41797 0.09375-0.85938 0.14062-1.3281 0.14062-1.3047 0-2.3359-0.40625-3.0938-1.2188-0.76172-0.8125-1.1406-1.9062-1.1406-3.2812 0-1.4062 0.38281-2.5078 1.1562-3.3125 0.76953-0.80078 1.8203-1.2031 3.1562-1.2031 0.4375 0 0.85938 0.046875 1.2656 0.14062 0.41406 0.085938 0.82031 0.21484 1.2188 0.39062z"/>
</symbol>
<symbol id="x" overflow="visible">
<path d="m3.0938-5.4688v4.2031h2.4688c0.83203 0 1.4453-0.17188 1.8438-0.51562 0.40625-0.35156 0.60938-0.88281 0.60938-1.5938 0-0.71875-0.20312-1.2422-0.60938-1.5781-0.39844-0.34375-1.0117-0.51562-1.8438-0.51562zm0-4.7031v3.4531h2.2812c0.75781 0 1.3203-0.14062 1.6875-0.42188 0.375-0.28906 0.5625-0.72656 0.5625-1.3125 0-0.57031-0.1875-1-0.5625-1.2812-0.36719-0.28906-0.92969-0.4375-1.6875-0.4375zm-1.5469-1.2812h3.9375c1.1875 0 2.0977 0.25 2.7344 0.75 0.63281 0.49219 0.95312 1.1836 0.95312 2.0781 0 0.71094-0.16406 1.2734-0.48438 1.6875-0.32422 0.40625-0.80469 0.66406-1.4375 0.76562 0.75781 0.16797 1.3477 0.51172 1.7656 1.0312 0.42578 0.51172 0.64062 1.1562 0.64062 1.9375 0 1.0234-0.35156 1.8125-1.0469 2.375-0.69922 0.55469-1.6875 0.82812-2.9688 0.82812h-4.0938z"/>
</symbol>
<symbol id="w" overflow="visible">
<path d="m0.46875-8.5938h1.5l2.6719 7.2188 2.6875-7.2188h1.4844l-3.2188 8.5938h-1.9062z"/>
</symbol>
</defs>
<path d="m268.97 65.699c-6.2539 6.6602-61.191 29.961-61.191 107.95 0 77.52 54.047 101.78 56.727 105.11 0 0.47656 0 0.47656 0.44531 0.47656" fill="#f5fafc" fill-rule="evenodd"/>
<path d="m263.92 258.34c-17.355-17.605-40.051-42.832-40.051-84.707 0-41.887 22.25-67.586 40.051-85.672" fill="#efeff8" fill-rule="evenodd"/>
<path d="m496.28 268.23c16.945-26.637 25.863-58.984 25.863-85.145 0-7.1328 0-13.797-0.89062-20.93-0.44531-5.707 2.6758-12.844 1.7812-18.551-1.3359-6.1875-6.2461-10.941-8.0273-17.125-2.2305-8.0859-5.3477-16.176-8.9141-24.258-22.301-43.289-68.227-77.535-112.82-77.535-35.676 0-80.266 16.168-105.24 42.809l-0.44531 0.47266c-3.1172 3.3359-3.5664 5.7109-4.9023 10.941-1.7812 6.1875 0 7.6172-2.2266 9.5156-2.6758 1.9023-4.9062 0.95312-4.4609 2.8555 0.89453 2.3789 2.6758 1.4258 0.89453 5.707-1.3398 4.2812-3.1289 4.2812-4.0195 5.2344-1.7812 2.8555 3.5742 5.2305 0 7.6094-3.1211 2.3789-2.6719-3.3281-7.1328-3.8086-2.6719-0.47266-5.3516 4.2812-5.793 10.941-0.45312 3.8086-0.45312 9.9922-0.45312 12.371 0 2.375-0.4375 5.707-0.4375 9.5078-0.45313 4.2891-1.3438 9.043-2.2344 11.895l0.89063 0.47656c3.5703-18.078 11.594-30.441 20.516-30.441 12.934 0 23.184 23.785 23.184 52.797v-0.47266 0.47266c0 29.02-10.25 52.801-23.184 52.801-9.3672 0-17.391-12.844-20.961-31.395l-0.44531 0.95312c1.3359 2.8555 1.7812 7.1328 2.2344 11.891 0 3.8047 0.4375 7.1328 0.4375 9.5156 0 2.3789 0 8.5586 0.45312 12.367 0.44141 6.6562 3.1211 11.414 5.793 10.938 4.4609-0.47656 4.9062-7.6094 8.0234-5.2305 3.5742 2.375-0.89062 6.1836 1.3438 9.0352 0.89062 0.95312 2.2305 0.47656 3.5664 4.7578 1.3359 4.2773-0.44531 3.332-0.89062 5.707-0.89062 1.9062 0 1.4258 2.6758 3.332 2.2266 1.9023 0.44531 3.3281 2.2266 9.5156 1.3359 5.2266 1.7852 7.1328 4.457 10.461 25.867 26.16 72.238 45.191 106.13 45.191 36.562 0 79.371-21.406 103.01-55.18" fill="#efc2a3" fill-rule="evenodd"/>
<path d="m280 83.711c-9.7891 9.9922-17.797 17.133-22.242 30.934-4.0078 13.805-3.1172 27.605-3.5625 41.879-1.3359 24.746-3.1133 49.492 3.5625 73.762 2.2227 7.6172 7.5586 13.328 10.23 20.945 1.332 4.7578 2.2227 6.6602 4.8906 9.9922 2.2227 2.8555 3.1133 7.1367 6.2305 4.7539 2.2227-1.4258 3.1133-0.47266 3.1133-2.8516 0-6.1875-0.44531-15.703 0.88672-21.891 3.1133-11.895 6.6758-26.176 7.5664-39.023 0.89062-17.609-2.2305-34.266-2.2305-51.875 0-6.1875 1.3398-13.328-0.4375-19.508-1.7852-7.1406-6.2305-8.5664-6.6758-16.184-0.44531-5.2344 0.44531-24.27 0.44531-29.027-0.44531-4.7617-3.5586 0.95312-2.668-3.8086" fill="#d4ab9c" fill-rule="evenodd"/>
<path d="m259.47 222.59c0.89453-6.207 4.0234 0 6.2578 2.3867 3.125 2.8633 5.8047 5.7305 10.266 6.2109 5.3633 0.95312 10.723-3.8242 12.066-10.031-2.6836-0.95703-6.2578 1.9062-8.9336 1.4336-4.9141-0.48047-9.3828-4.3008-12.062-8.6016-2.2344-2.8633-3.5703-5.7305-5.3594-9.5469-0.89453-0.96094-1.3398-1.9141-2.2344-2.8672" fill="#cc9c91" fill-rule="evenodd"/>
<path d="m251.93 144.56c-8.9375 11.895-13.852 47.566 0.89453 56.609 17.863 10.941 11.609-48.051 5.3594-56.609" fill="#d4ab9c" fill-rule="evenodd"/>
<path d="m255.59 159.87c-4.8945 2.8516-4.4531 6.1797-6.6758 11.402-1.3398-1.9023 0.44531-8.0742 0.89063-10.449 0.44531-1.4258 0.89062-4.2734 2.2227-5.6992 1.3359-1.4297 4.0078-1.4297 4.4531-3.8047" fill="#cc9c91" fill-rule="evenodd"/>
<path d="m239.54 208.77c0.44141 2.3828 2.2109 10.477 3.9805 18.094 0.88281 4.7617 2.2109 9.0469 5.3086 12.383 0.88672 1.4258 3.0977 4.2852 4.4297 3.8047 4.4219-0.94531-4.4297-16.188-4.8711-17.613" fill="#efeff8" fill-rule="evenodd"/>
<path d="m240.78 118.41c-1.8008 3.8125-1.8008 8.0977-1.8008 11.914 0 5.7148-0.89453 10.961 0 16.199 0.90234-7.1445 3.1562-15.723 5.4023-22.875 1.3516-4.7617 4.9531-8.5742 5.8555-13.34" fill="#efeff8" fill-rule="evenodd"/>
<path d="m609 238.21c-2.6758-0.94922-5.7969-2.3828-8.4688-3.3281-16.945-7.6211-38.348-11.906-52.164-10.477-12.035 0-21.848 9.5234-24.078 19.516-19.613 59.977-72.223 93.301-132.41 93.301-49.484 0-97.637-31.418-126.16-76.641l-0.44531 0.47656c0.44531 2.3789-5.8008-0.47656 1.3359 11.898 2.2266 3.8086 0.44531 9.5234-2.2305 5.7148 28.527 43.797 74.453 71.879 126.61 71.879 67.766 0 123.5-33.324 145.34-100.44 4.457-15.707 17.383-12.848 31.648-11.422 11.148 1.4297 25.859 6.6641 41.02 13.801z" fill="#eef5fa" fill-rule="evenodd"/>
<path d="m609 180.77c-16.047-4.7617-28.969-7.6172-35.656-8.5625-14.703-2.8555-20.051-13.324-21.836-23.793-16.039-77.539-71.297-147-160.42-147.95-49.469-0.95312-93.586 25.211-122.55 65.645 0-0.47266 0.44141-0.47266 0.44141-0.47266 0.89063-0.95312 2.6758 0 1.7852 3.8047-0.44922 3.8086-4.4531 3.8086-5.3438 9.0391-0.89453 4.2773 0.44531 6.6602-0.44531 8.5664v0.47266c28.516-45.195 77.09-76.113 127-76.113 73.973 0 130.12 66.598 145.27 138.91 0.89062 8.0898 7.5781 20.934 16.934 26.641 2.2305 0.95312 17.379 6.1875 26.293 8.0859 5.3516 0.95703 15.598 3.8086 28.523 8.5625z" fill="#eef5fa" fill-rule="evenodd"/>
<path d="m258.7 245.44h-1.3359c2.6758 5.2305 5.3477 10.457 8.4688 15.691v-0.47656c0.44531 0.47656 0.44531 0.95312 0.89062 1.4258 1.332 1.8984 2.6719 4.2812 4.0078 6.1797 0.44531 0.95312 1.3359 1.9023 1.7812 2.375 0.44922 0.95312 0.89453 1.4297 1.3398 1.9062 0.89062 0.94922 1.7812 1.9023 2.2266 2.8477 0.89453 0.95703 1.3398 1.4297 1.7852 2.3828 0.44531 0.47266 0.89062 0.94531 1.3359 1.4258 1.3359 1.4258 2.6758 3.3281 4.0117 4.7539 0.44531 0.47656 0.88672 0.94922 1.7773 1.4219v0.48047c0.45312 0.47266 0.89062 0.94922 1.7852 1.9023 6.6836 7.1289 14.258 13.781 22.281 19.965 0.44531 0.47266 0.89062 0.47266 0.89062 0.95312 1.7812 0.94922 3.5664 2.375 5.3477 3.8008 0.44531 0 0.89453 0.47266 1.332 0.47266 5.3516 3.8086 11.145 7.1367 16.492 9.9844 0.89453 0.47266 2.2227 0.95312 3.1172 1.4258 1.3359 0.47656 2.6719 0.95312 4.0117 1.9023l4.0117 1.4258c1.3359 0.47656 2.2266 0.95312 3.5664 1.4297 1.7773 0.47266 3.5586 1.4258 4.8945 1.8984 0.89453 0 2.2305 0.47656 3.1211 0.95312 2.6758 0.47656 5.3516 1.4219 7.5781 1.9023 0.89063 0.47266 2.2305 0.47266 3.1133 0.47266 1.7852 0.47266 3.5664 0.95312 5.3516 1.4258 0.89062 0 2.2266 0 3.1211 0.47656 1.7812 0 4.0117 0.47266 5.793 0.47266 0.89062 0 1.7812 0 2.668 0.48047h8.4688c60.156 0 112.74-33.277 132.34-93.184 1.3359-6.1797 5.3477-11.883 10.691-15.211-11.582-6.1836-24.949 33.758-33.418 46.113-25.398 36.133-70.848 55.625-109.62 55.625-37.43 0-73.969-19.02-100.7-48.016l-2.6758-2.3789c-4.0078-4.2773-4.0078-6.1836-5.7891-12.359-1.7812-6.1797 0-7.6094-2.2305-9.5078-2.6719-1.9023-3.5625-1.4297-2.6719-3.3281 0.44531-2.3828 2.2266-1.4297 0.89062-5.707s-2.6758-3.8047-3.5664-4.75c-2.2266-2.8555 2.2305-6.6602-1.3359-9.0352-3.1211-2.375-3.5664 4.7539-8.0195 5.2266-2.6719 0.48047-5.3477-4.2734-5.793-10.93-0.44531-3.8086-0.44531-9.9883-0.44531-12.363s-0.44531-5.7031-0.44531-9.5039c-0.44922-5.707-1.7852-11.891-3.5664-13.316-3.5664-1.9023-3.1211 1.4258-4.457 8.082-0.88672 7.1289 1.3359 8.082 1.7812 9.9844 0.44531 1.8984-1.332 1.8984-0.44531 3.8008 0.44531 2.3789 1.7812 2.8516 2.6758 5.2344 0.44531 1.8984-1.7852 1.4258-1.3398 4.2734 0.44531 2.3828 2.2305 2.3828 2.6758 4.7539 0.44531 2.3828-0.44531 3.3281 0 6.1836s2.6758 2.8555 3.5664 5.2266c0.89062 2.3828 0.89062 3.3281-1.3398 3.3281" fill="#a31e47" fill-rule="evenodd"/>
<path d="m549.69 173.65c-1.3359-1.4258-2.6758-2.8555-4.0117-4.2812 0-0.47266-0.44531-0.47266-0.44531-0.94922-1.3398-1.4258-2.2305-3.332-3.5664-5.2344 0-0.47266-0.44531-0.94531-0.89062-1.4258 0-0.47266-0.44531-1.4258-0.44531-1.8984-0.44922-0.47656-0.89453-0.95312-0.89453-1.9023-0.44531-0.47266-0.44531-0.95312-0.89062-1.4258v-0.47656c-0.89062-1.9062-1.3359-3.8047-1.3359-5.707-0.44531-1.8984-1.3398-4.2812-1.7852-6.1797v-0.95312c-17.379-69.422-72.188-131.71-143.48-131.71h-9.3555c-0.89062 0-2.2305 0.47656-3.1211 0.47656-2.2266 0-4.0117 0.47656-6.2383 0.94922-0.89453 0-2.2305 0-3.5664 0.48047-0.89453 0-1.7852 0.47266-2.6758 0.47266s-1.7812 0.47266-2.6758 0.47266c-1.332 0.47266-2.668 0.95312-4.0039 0.95312-0.44531 0.47656-0.89062 0.47656-1.3398 0.47656-0.44531 0-0.89063 0-1.3359 0.47266-0.44531 0-1.3359 0.48047-2.2266 0.48047-1.3398 0.47266-2.6758 0.94531-4.0117 1.4258-0.44922 0-1.3398 0.47266-2.2305 0.47266-0.44531 0.47266-1.3359 0.47266-1.7812 0.95312h-0.89453c-1.332 0.47266-2.668 1.4219-4.0039 1.9023h-0.44531c-1.3398 0.94531-3.1211 1.4258-4.4609 1.8984-1.3359 0.47656-2.6719 1.4297-3.5625 1.9023h-0.44922c-0.44531 0.47266-0.89062 0.47266-1.3359 0.95312-0.44531 0-1.3359 0.47266-1.7812 0.94922-0.44531 0-0.89453 0-1.3398 0.47656-1.3359 0.47656-2.2266 1.4297-3.5586 1.9023-1.3359 0.95312-2.6758 1.4258-3.5664 2.375-0.44531 0-0.89062 0-0.89062 0.47656-1.3398 0.47656-2.6758 1.4297-4.0117 2.375-0.44531 0-0.44531 0.48047-0.89062 0.48047-0.44922 0.47266-0.89453 0.47266-1.3398 0.94922 0 0-0.44531 0-0.89062 0.47266 0 0-0.44531 0.48047-0.89062 0.95312-1.3398 0.47266-2.6758 1.4258-4.0117 2.3789-0.89062 0.94922-2.2227 1.9023-3.1172 2.8477h-0.44531l-0.44531 0.48047c-1.3359 0.94922-2.2266 1.9023-3.5664 2.8555-1.3359 0.94531-2.6719 1.8984-4.0117 3.3281-0.89062 0.94531-2.2266 1.8984-3.1172 2.8516l-0.44922 0.47656c-1.3359 0.94531-2.2266 1.8984-3.1172 2.8516h-0.44141c-0.89062 1.4297-2.2305 2.375-3.1211 3.8008-0.89062 0.95312-2.2266 1.9023-3.1211 3.3281h-0.44531c-0.89062 1.4297-2.2266 2.3828-3.1211 3.8086-0.44531 0.94922-1.3359 1.4258-1.7812 1.9023-0.44531 0.94531-0.89062 1.4258-1.3359 1.8984-1.3398 1.4258-2.2305 2.3789-3.1211 3.8086-0.44531 0.94531-0.89062 1.4219-1.3359 1.8984-0.44922 0.94922-1.332 1.4297-1.7852 1.9023-0.89062 1.4258-1.7773 2.8555-2.668 4.2812-1.3359 1.8984-2.2305 3.3281-3.5664 5.2266-2.6758 4.2812-5.3477 9.0391-7.5781 13.793h1.3359c2.2305 0 2.2305 0.94531 1.3398 3.3281-0.89062 2.3789-3.1211 2.8516-3.5664 5.2266-0.44531 2.8555 0.44531 2.3789 0 4.2812-0.44531 2.3789-2.2305 2.3789-2.6758 5.2305-0.44531 2.3789 1.7852 3.8047 1.3398 5.707-0.89453 2.3789-2.2305 2.8516-2.6758 5.2266-0.89062 1.9023 0.89062 1.9023 0.44531 3.8086-0.44531 1.9023-2.668 2.8477-1.7773 9.9844 1.332 6.6523 0.89062 10.461 4.0078 8.5547 2.2266-1.4219 3.5625-8.082 4.0117-13.785 0-3.8086 0.44531-7.1328 0.44531-9.5078 0-2.3828 0-8.5625 0.44531-12.363 0.44531-6.6562 3.1211-11.41 5.793-10.938 4.4531 0.47266 4.0117 6.1797 7.1289 3.8008 3.5625-2.375-1.7852-4.7539 0-7.6094 0.89062-0.94531 2.6719-0.94531 4.0117-5.2266 1.7812-4.2812 0-3.3281-0.89453-5.707-0.44531-1.9023 1.7852-0.94922 4.457-2.8516 2.2305-1.9062 0.44922-3.3281 2.2305-9.5078 1.7812-5.707 1.7812-7.6094 5.3477-11.414 0.88672-1.4297 1.7773-2.375 1.7773-2.375 27.188-28.535 63.727-47.074 102.05-47.074 47.238 0 95.809 32.328 119.87 79.402 13.367 26.629 18.719 77.508 40.105 77.98-0.44531-0.47266-0.89062-0.95312-1.7812-1.4258z" fill="#a31e47" fill-rule="evenodd"/>
<path d="m258.69 245.5c2.2344 0 2.2344-0.94922 1.3438-3.3281-0.89844-2.375-3.1328-2.375-3.5781-5.2305-0.45312-2.8516 0.44531-3.8047 0-6.1797-0.45312-2.3828-2.2383-2.3828-2.6875-4.7617-0.44922-2.8555 1.7891-2.375 1.3438-4.2734-0.89453-2.3828-2.2383-2.8555-2.6836-5.2344-0.89844-1.9023 0.89062-1.9023 0.44531-3.8047-0.44531-1.9062-2.6875-2.8516-1.7891-9.9883 1.3438-5.707 0.89844-9.0352 3.1328-8.5625-8.5039-4.7539-6.7148-34.715-0.89844-40.895-1.3359-0.95313-1.3359-4.2812-2.2344-9.0352-0.89844-7.1367 1.3438-8.0859 1.7891-9.9922 0.44531-1.8984-1.3438-1.8984-0.44531-3.8008 0.44531-2.3789 1.7891-2.8516 2.6836-5.2344 0.44531-1.8984-1.793-3.3281-1.3438-5.707 0.44922-2.8477 2.2344-2.8477 2.6875-5.2266 0.44531-1.9023-0.45312-1.4297 0-4.2812 0.44531-2.3828 2.6797-2.8555 3.5781-5.2305 0.89062-2.3789 0.89062-3.332-1.3438-3.332h-1.3438c-6.707 6.1797-21.926 28.535-21.926 73.238 0 51.359 23.27 70.859 23.27 70.859" fill="#7fb5de" fill-rule="evenodd"/>
<path d="m609 193.61c-12.926-4.7539-23.18-7.6055-28.523-8.5625-8.9141-1.8984-24.062-7.1328-26.293-8.0859-1.7812-0.94922-3.1211-2.375-4.457-3.3281l0.44531 0.47266c0.89062 0.48047 1.3359 0.95312 1.7812 1.4297-21.387-0.47656-26.738-51.371-40.109-78.004-24.066-47.094-72.641-79.438-119.88-79.438-38.328 0-74.871 18.551-102.05 47.09 0 0-0.44531 0.47266-1.3359 1.4258h0.44531c25.402-26.16 69.074-41.855 104.28-41.855 44.566 0 90.465 34.246 112.75 77.531 3.5586 8.0859 6.6797 16.168 8.9102 24.258 1.7812 6.1797 6.6836 10.941 8.0234 17.125 0.89062 5.707-2.2305 12.84-1.7852 18.551 0.89062 7.1328 0.89062 13.793 0.89062 20.93 0 26.16-8.9141 58.504-25.848 85.141-23.617 33.773-66.398 55.176-102.95 55.176-32.531 0-76.652-17.598-102.95-41.855l0.89062 0.94922c26.742 29.016 63.281 48.043 100.72 48.043 38.77 0 84.23-19.504 109.63-55.652 8.4688-12.371 21.836-52.324 33.418-46.137 4.0117-2.8555 8.4688-4.2812 13.375-4.2812 13.812-1.4297 35.207 2.8516 52.141 10.461 2.6719 0.95312 5.793 2.3828 8.4688 3.3281z" fill="#ffdf60" fill-rule="evenodd"/>
<path d="m517.68 196.44c-2.2344 22.848-10.266 48.555-24.094 69.977-23.203 32.844-64.25 53.312-99.492 53.312 30.785-4.7617 100.83-26.176 123.59-123.29" fill="#eba87f" fill-rule="evenodd"/>
<path d="m301.41 173.62c0-29.008-10.242-52.785-23.16-52.785-12.473 0-22.711 23.777-22.711 52.785v-0.48047c0 29.488 10.238 53.262 22.711 53.262 12.918 0 23.16-23.773 23.16-53.262z" fill="#59739c" fill-rule="evenodd"/>
<path d="m301.41 173.62c0-29.008-10.242-52.785-23.16-52.785-12.473 0-22.711 23.777-22.711 52.785v-0.48047c0 29.488 10.238 53.262 22.711 53.262 12.918 0 23.16-23.773 23.16-53.262z" fill="#e1c2ba" fill-rule="evenodd"/>
<path d="m278.25 139.93c8.4453 0 15.113 15.184 15.113 33.695 0 18.508-6.668 33.691-15.113 33.691-8.0039 0-14.668-15.184-14.668-33.691 0-18.512 6.6641-33.695 14.668-33.695" fill="#e6ccc5" fill-rule="evenodd"/>
<path d="m278.3 152.18c5.3281 0 9.3281 9.5156 9.3281 21.406s-4 21.402-9.3281 21.402c-4.8867 0-9.332-9.5117-9.332-21.402s4.4453-21.406 9.332-21.406" fill="#e8d4cf" fill-rule="evenodd"/>
<path d="m278.69 145.93c-7.1523 0-12.965 12.383-12.965 27.633v-0.47656c0 15.246 5.8125 27.637 12.965 27.637-5.8086-0.48047-11.621-10.008-11.621-26.684 0.44531-16.199 7.1484-26.684 12.516-26.203 5.8164 0.94531 8.0508 6.6641 8.0508 6.6641-1.7891-3.8125-4.9219-8.5703-8.9453-8.5703" fill="#e1c5bd" fill-rule="evenodd"/>
<path d="m278.27 151.66c-4.9219 0-8.9492 9.9922-8.9492 21.898 0 11.902 4.0273 21.422 8.9492 21.422-3.5781 0-8.0586-7.6172-8.0586-20.945 0.45312-12.855 5.3711-21.43 8.957-20.949 4.0273 0.47656 5.8164 5.7148 5.8164 5.7148-1.3438-3.332-3.582-7.1406-6.7148-7.1406" fill="#e1c5bd" fill-rule="evenodd"/>
<path d="m278.21 158.77c-3.1211 0-6.2422 6.6797-6.2422 14.793v-0.47656c0 8.1094 3.1211 14.793 6.2422 14.793-2.6758 0-4.9062-5.25-4.9062-14.316 0.44922-8.5859 3.1211-13.84 5.7969-13.363 2.6758 0 3.5664 2.8633 3.5664 2.8633-0.89062-1.9062-2.2305-4.293-4.457-4.293" fill="#e6ccc5" fill-rule="evenodd"/>
<path d="m263.92 174.07c0 13.324 3.5781 25.219 8.4922 30.934-4.4688-5.2344-7.1484-15.703-7.1484-30.457 0-20.465 7.1484-33.785 13.406-33.312 5.8125 0.95312 9.3906 9.5195 9.3906 9.5195-1.7891-5.2344-5.3672-11.422-9.8359-11.422-7.6016 0-14.305 15.703-14.305 34.738" fill="#e1c5bd" fill-rule="evenodd"/>
<path d="m609 231.13c-21.824-10.941-47.211-18.078-69.922-9.043 12.023-2.8516 32.066-4.7539 69.922 12.371z" fill="#d9a237" fill-rule="evenodd"/>
<path d="m244.46 165.97c-1.3281 2.8594-0.44141 10.48-0.44141 13.816 0.44141 2.8594 1.7695 7.1484 3.1016 10.008 0.88672 1.4258 2.6641 6.6719 3.9922 7.625 1.332 0.47266 1.7773-2.3867 1.7773-3.8125-0.44531-0.48047-1.7773-0.95312-2.2188-1.4336-0.44531-1.4258-1.332-2.8516-1.7773-3.8047-0.88672-2.8672-1.3281-6.1992-1.3281-9.0586-0.44531-2.3828 0-5.7148 0.44141-8.1016 0-1.4258-0.44141-3.8125-0.88672-4.7656-0.88281 0.48047-1.332-1.4258-1.7695 0" fill="#008aca" fill-rule="evenodd"/>
<path d="m245.71 162.68c0.89062-1.4336 0.89062-5.25 1.3281-7.1562 0.44922-1.9062 0.89453-3.8203 2.2266-5.2461 1.7773-2.3867 3.1055 0.95312 2.6602 2.8594 0 1.4336-1.332 3.8203-1.7773 5.2461-0.44531 1.4336-0.88281 2.8633-1.332 4.2969-0.44531 2.8594-0.44531 6.1992-1.3281 8.5859-0.44922-1.4336-0.44922-3.3398-0.88672-4.7734-0.44531-1.4258-1.332-2.3789-1.332-4.293" fill="#008aca" fill-rule="evenodd"/>
<path d="m523.04 143.61c-1.3359-6.1836-6.2461-10.941-8.0273-17.125-2.2305-8.0859-5.3555-16.176-8.9219-24.258-22.297-43.289-68.23-77.535-112.83-77.535-35.676 0-80.281 16.168-105.25 42.809l-0.44531 0.47266c-3.1211 3.3359-3.5664 5.7109-4.9023 10.941-0.89062 2.8555-0.89062 4.7617-0.89062 6.1875v5.7109c-0.45312 7.6055-0.89844 19.977-0.45312 23.777 0 1.9062 0.45312 3.332 1.3438 4.7617v0.47266s0 0.47266 0.44531 0.47266c0 0.95312 0.44531 1.4297 0.89063 1.9062 9.8086 5.7109 17.391 26.641 17.391 51.371v-0.47266 0.47266c0 21.406-5.3477 39.484-13.379 48.043-0.44531 1.4297-0.89062 2.8555-0.89062 3.8086-1.3359 5.707-2.6758 10.938-4.0117 15.695 0 1.4297-0.44531 3.3281-0.44531 4.7578-0.45312 0.47266-0.45312 0.47266-0.45312 0.95312v16.168c0 0.95312-0.4375 0.95312-0.4375 1.4297 0 0.95312 0.4375 1.9062 0.89062 3.332 1.3359 5.2266 1.7812 7.1328 4.457 10.461 25.863 26.16 72.25 45.191 106.14 45.191 36.566 0 79.383-21.406 103.02-55.18 16.953-26.637 25.871-58.984 25.871-85.145 0-7.1328 0-13.797-0.89453-20.93-0.44141-5.707 2.6797-12.844 1.7852-18.551m-6.2461 19.023c0.44922 6.6602 0.89453 13.324 0.89453 20.457 0 26.641-9.3672 57.555-24.973 82.293-22.301 30.918-62.887 52.797-99.453 52.797-33.449 0-78.492-19.023-102.58-43.285-1.7852-1.9062-2.2305-2.8516-3.1211-6.6602l-0.44531-1.8984c-0.44531-2.3828-0.89062-3.3359-0.89062-4.7617s0-12.367 0.44531-16.648c1.7812-8.5625 2.6758-18.074 5.793-20.926 8.0312-9.9883 13.832-28.066 13.832-50.426 0-26.156-7.5859-47.09-18.289-54.703-5.8008-9.5078-3.5664-19.977-2.6719-29.012 0.89062-1.9023 0.89062-3.3281 0.89062-4.7578 0-1.4258 0.44531-2.3789 0.89062-4.7578l0.44531-1.9023c1.3359-3.8047 1.3359-4.7578 3.5664-7.1328-0.44531 0-0.44531 0-0.44531 0.47266 1.7812-1.9023 1.7812-2.3789 3.5703-3.8086 23.637-22.352 63.332-38.047 99.008-38.047 41.477 0 86.074 30.914 108.37 75.156 3.5664 6.6523 6.6875 14.742 8.9219 22.832 0.89062 3.8008 2.6758 6.6523 4.457 9.0352 1.3359 2.8516 2.6758 5.2344 3.1211 7.6133v1.4258c0 1.9023 0 4.2812-0.44531 6.6562-0.44531 2.8555-0.89453 5.2344-0.89453 8.0898z" fill="#eeb38f" fill-rule="evenodd"/>
<path d="m298.29 62.289c-11.145 9.5078-13.371 19.965-13.816 34.703v5.707c0 10.934 1.3359 14.262 7.1289 20.441 8.0234 9.9844 12.93 29.004 12.93 50.395 0 19.973-4.4609 39.465-12.035 49.449 8.0234-10.938 15.16-28.527 15.16-49.449v-0.47266c0-21.867-5.3555-41.84-13.824-52.297-4.9023-5.2266-6.2422-7.6094-6.2422-18.066v-5.707c0.44531-16.16 3.5664-24.242 12.48-31.852 8.0312-6.6523 49.496-35.656 94.973-35.656-46.367 0-88.73 26.148-96.754 32.805" fill="#f8decf" fill-rule="evenodd"/>
<path d="m241.33 90.871c-8.4805 7.1367-33.035 42.344-31.246 80.398 1.3359-12.371 8.4805-50.906 31.246-80.398" fill="#fff" fill-rule="evenodd"/>
<path d="m296.96 74.691c0-2.1289 1.707-3.8516 3.8125-3.8516 2.1016 0 3.8047 1.7227 3.8047 3.8516s-1.7031 3.8516-3.8047 3.8516c-2.1055 0-3.8125-1.7227-3.8125-3.8516" fill="#fff" fill-rule="evenodd"/>
<path d="m305.52 69.98c0-0.80078 0.67188-1.4531 1.5-1.4531 0.82422 0 1.5 0.65234 1.5 1.4531s-0.67578 1.4531-1.5 1.4531c-0.82812 0-1.5-0.65234-1.5-1.4531" fill="#fff" fill-rule="evenodd"/>
<path d="m293.88 80.684c0-1.1836 0.87891-2.1406 1.9648-2.1406 1.0938 0 1.9727 0.95703 1.9727 2.1406 0 1.1797-0.87891 2.1406-1.9727 2.1406-1.0859 0-1.9648-0.96094-1.9648-2.1406" fill="#fff" fill-rule="evenodd"/>
<path transform="matrix(1.4264 0 0 1.427 15.671 -8.8942)" d="m191.32 161.29c-1.2734 2.3268-5.4032 17.276-5.0827 26.58" fill="none" stroke="#fff" stroke-linecap="round" stroke-linejoin="round" stroke-miterlimit="10" stroke-width=".625"/>
<path transform="matrix(1.4264 0 0 1.427 15.671 -8.8942)" d="m185.92 164.54c0 2.6745-1.5007 15.718-1.5007 15.718" fill="none" stroke="#fff" stroke-linecap="round" stroke-linejoin="round" stroke-miterlimit="10" stroke-width=".625"/>
<path transform="matrix(1.4264 0 0 1.427 15.671 -8.8942)" d="m182.2 164.89-0.65999 7.0188" fill="none" stroke="#fff" stroke-linecap="round" stroke-linejoin="round" stroke-miterlimit="10" stroke-width=".625"/>
<path transform="matrix(1.4264 0 0 1.427 15.671 -8.8942)" d="m177.82 161.89c1.257 2.3405 1.257 10.022 1.257 10.022" fill="none" stroke="#fff" stroke-linecap="round" stroke-linejoin="round" stroke-miterlimit="10" stroke-width=".625"/>
<path transform="matrix(1.4264 0 0 1.427 15.671 -8.8942)" d="m177.82 81.915c1.257 2.335 0.9448 10.339 0.9448 11.338" fill="none" stroke="#fff" stroke-linecap="round" stroke-linejoin="round" stroke-miterlimit="10" stroke-width=".625"/>
<path transform="matrix(1.4264 0 0 1.427 15.671 -8.8942)" d="m181.3 82.273 0.11776 9.0007" fill="none" stroke="#fff" stroke-linecap="round" stroke-linejoin="round" stroke-miterlimit="10" stroke-width=".625"/>
<path transform="matrix(1.4264 0 0 1.427 15.671 -8.8942)" d="m183.82 72.254v18.661" fill="none" stroke="#fff" stroke-linecap="round" stroke-linejoin="round" stroke-miterlimit="10" stroke-width=".625"/>
<path transform="matrix(1.4264 0 0 1.427 15.671 -8.8942)" d="m186.87 66.497c-0.62713 3.3479-2.2018 20.101 1.5801 25.795" fill="none" stroke="#fff" stroke-linecap="round" stroke-linejoin="round" stroke-miterlimit="10" stroke-width=".625"/>
<path transform="matrix(1.4264 0 0 1.427 15.671 -8.8942)" d="m145.96 127.88c0-29.332 15.599-47.333 28.078-60.002" fill="none" stroke="#00515e" stroke-miterlimit="8" stroke-width=".625"/>
<path transform="matrix(1.4264 0 0 1.427 15.671 -8.8942)" d="m174.04 187.27c-12.167-12.346-28.078-30.03-28.078-59.397" fill="none" stroke="#00515e" stroke-miterlimit="8" stroke-width=".625"/>
<path d="m243.91 169.34c-0.44531-3.3359 1.7969-11.453 4.9258-12.887 0.45312 4.7734-1.7891 10.98-2.2344 15.754" fill="#008aca" fill-rule="evenodd"/>
<path d="m250.14 117.07c0 2.8438 0.4375 5.207-0.43359 8.5234-0.875 2.8359 0 5.207-0.875 8.043-0.86719 3.3164-1.3008 4.7383-0.86719 8.0508 0 2.8359-0.875 5.6797-0.43359 8.5195-1.3125-2.3672-1.7461-6.1523-1.7461-8.5195 0-2.8398 1.3047-4.7344 1.7461-7.1016 0-2.8398-1.3125-3.7852 0-7.0977 0.43359-2.3672 0.86719-5.2109 1.7383-7.5742" fill="#b3cfe8" fill-rule="evenodd"/>
<path d="m241.73 140.79c0.45312 3.3047 2.2461 4.7227 3.5977 7.5586 0.44922 1.8906-0.44922 3.7773 0 6.1406-2.2461-3.7773-4.0469-9.4453-4.9453-13.227" fill="#b3cfe8" fill-rule="evenodd"/>
<path d="m239.42 151.66c0.89062 2.3867 3.5664 2.8633 4.4648 4.2969 0.44531 1.9141-0.44531 2.8672-0.44531 4.7773-1.7891-1.9102-3.1289-7.6406-5.3633-8.1211" fill="#b3cfe8" fill-rule="evenodd"/>
<path d="m238.67 159.88c0.44531 2.8164 3.1172 1.8789 3.5703 3.7539 0.89062 2.3398-1.7891 2.8086-0.45312 5.1562-0.89062-1.8789-0.44531-3.7539-1.3359-5.625-0.44531-1.4062-3.5664-1.4062-2.2305-3.2852" fill="#b3cfe8" fill-rule="evenodd"/>
<path d="m237.73 183.98c2.6797-0.47266 3.1289-3.3281 4.9102-3.8008 1.3359 1.4258 0 2.8516-1.7812 2.8516 0 0.94922-0.89844 1.4297-1.7891 0.94922" fill="#b3cfe8" fill-rule="evenodd"/>
<path d="m236.88 180.77c1.3242-0.47656 0.88281-1.9023 1.7695-2.8516 0.88672-0.47656 1.7656 0.47656 2.6523-0.47656 0.88672-0.94922 0.44141-5.2227 0-6.1758-1.3242 0.95312 0 2.3711-0.4375 3.8008-0.44922 1.4258-2.2148 0.95313-2.2148 3.3281" fill="#b3cfe8" fill-rule="evenodd"/>
<path d="m237.22 169.29c1.3281-0.49609 2.6523 0 2.6523 0.99219-0.88672 0.49609-2.2109 0.49609-2.6523 0.99219" fill="#b3cfe8" fill-rule="evenodd"/>
<path d="m238.07 194.12c1.3438-0.95312 3.5742-10.523 6.2539-6.2188-2.2344 0.95703-2.2344 3.8281-3.125 5.7461-0.44922 1.9102-0.89453 3.8242-1.3398 6.2188" fill="#b3cfe8" fill-rule="evenodd"/>
<path d="m248.81 197.3c0 2.8633-1.332 5.7344-1.332 8.6055 0 2.3906 1.332 5.2539 0.88281 7.6484 0 3.8242 1.3281 4.3008 1.7734 7.1719 0.44141 2.3906 0 5.2578 0 7.6484-1.7734-1.9141-1.3242-5.2578-2.2109-7.6484-0.88672-2.3906-2.6523-3.8242-2.6523-6.2148 0.44141-2.3906 0.44141-4.7812 0.44141-7.1719 0-3.3516 2.2109-4.7852 2.2109-7.1758" fill="#b3cfe8" fill-rule="evenodd"/>
<path d="m243.45 207.83c-1.7773-6.1797 7.1211-13.316 0.44531-17.125 0.44531 0.95312 1.3359 1.9023 1.3359 3.3281 0 0.48047-1.3359 1.4297-1.3359 2.3828 0 1.8984 0.44531 3.3281-0.44531 5.707" fill="#b3cfe8" fill-rule="evenodd"/>
<path d="m239.54 190.22c0.87891-0.95312 4.8633-7.1328 4.8633-2.3789 0.44141 2.3789-3.5352 4.7617-3.0977 8.0898 0.44141-2.3828 1.7656-5.7109 1.3281-7.6094" fill="#3d9cd1" fill-rule="evenodd"/>
<path d="m243.47 196.87c0-0.94141 1.3359-7.5391 3.1133-5.6523 1.3398 1.8828-0.89062 6.1211-1.7773 7.5352 0.88672-1.4141 0.88672-3.3008 0-4.7109" fill="#3d9cd1" fill-rule="evenodd"/>
<path d="m240.79 172.21c0.91406 1.4414 3.1914 6.2461-0.91406 5.7695 1.8281-0.96094 1.3711-2.8828 0.91406-4.3281" fill="#3d9cd1" fill-rule="evenodd"/>
<path d="m241.21 168.44c1.918-0.94531 1.918-3.3281-0.47656-4.2812" fill="#3d9cd1" fill-rule="evenodd"/>
<path d="m243.13 161.34c1.1992-1.4336 1.1992-4.2969 0-5.7383" fill="#3d9cd1" fill-rule="evenodd"/>
<path d="m244.45 148.84c0.4375 2.8438 2.1953 4.2656 0.875 7.1094-1.3164-0.47266-2.1914-2.3711-2.1914-3.793" fill="#3d9cd1" fill-rule="evenodd"/>
<path d="m245.27 143.17c0 2.375 0.44531 4.7539 2.2227 6.1836 2.2227-1.9023 0.89062-5.7109 0.89062-8.5625 0 1.4258 0 3.3281-0.89062 4.7539" fill="#3d9cd1" fill-rule="evenodd"/>
<path d="m237.22 186.45c1.3594-1.4297 3.6328-1.9023 5.4492-2.8555 0.45703 2.3789-2.7227 2.8555-4.5391 4.2812" fill="#008aca" fill-rule="evenodd"/>
<path d="m245.27 205c1.8086-2.8555 0.44922-6.6641 3.1641-8.5625 0 0.47266 0 1.4258-0.45312 2.3789" fill="#008aca" fill-rule="evenodd"/>
<path d="m238.07 159.33c0.45312 0.96094 2.2578 3.8359 3.6133 3.8359 1.3477 0.48047 3.1523 0 1.7969-1.918-0.44922-0.47656-2.6992-0.47656-3.6055-0.95703-0.90234-0.96094-1.3516-2.3984-1.8047-3.8359" fill="#008aca" fill-rule="evenodd"/>
<path d="m245.2 137.37c-0.4375 1.9219-0.4375 4.8086-0.4375 6.7305 0.4375 2.4102 2.2227 4.8164 1.7773 6.7422-3.1172 0.47656-4.0078-9.6289-4.0078-12.031" fill="#008aca" fill-rule="evenodd"/>
<path d="m243.98 148.89c0.44531 1.3906 1.3281 2.7773 2.6523 1.8516 0-0.92578-0.4375-2.3125-0.87891-3.6992" fill="#0070ae" fill-rule="evenodd"/>
<path d="m240.39 162.19c0.89844 0.46484 3.5938 2.3164 3.5938 0 0-0.92188-3.1406-1.8477-3.5938-2.3125" fill="#0070ae" fill-rule="evenodd"/>
<path d="m239.02 184.94c1.3711 0 2.7422-0.48438 4.1133 0-0.91406 0.96875-1.8281 1.9414-2.7422 2.4258" fill="#0070ae" fill-rule="evenodd"/>
<path d="m246.12 199.27c1.3867-0.91797 0.92578-2.7578 2.3125-3.6836v2.3008" fill="#0070ae" fill-rule="evenodd"/>
<path d="m250.19 150.21c0.89844 2.8711-0.89062 5.75-1.3398 8.1406-0.89453 3.3555-1.7891 6.7109-2.2344 9.582 0-2.8711-1.3438-16.77 3.5742-17.242" fill="#0070ae" fill-rule="evenodd"/>
<path d="m246.63 187.5c0 1.9023 0.875 4.2812 2.1797 5.707 0.875 1.4258 2.6172 2.375 2.1836 0 0-0.95312-2.6172-3.8047-3.0547-5.2344-0.43359-1.8984-0.86719-3.3281-0.86719-5.2344" fill="#0070ae" fill-rule="evenodd"/>
<path transform="matrix(1.4264 0 0 1.427 15.671 -8.8942)" d="m160.92 96.497c0.93384 2.3405-0.30946 4.6783-0.61617 7.0243 0 2.0065 0.61617 4.6837 1.8595 6.3536" fill="none" stroke="#fff" stroke-linecap="round" stroke-linejoin="round" stroke-miterlimit="10" stroke-width=".25"/>
<path transform="matrix(1.4264 0 0 1.427 15.671 -8.8942)" d="m156.94 110.9c0.30946 0.99916 0.93111 0.99916 1.5473 1.6671 0.31219 0.33123 0.31219 0.99916 0.62165 1.6644 0.30672 0.3367 1.55 1.6671 1.2406 2.669" fill="none" stroke="#fff" stroke-linecap="round" stroke-linejoin="round" stroke-miterlimit="10" stroke-width=".25"/>
<path transform="matrix(1.4264 0 0 1.427 15.671 -8.8942)" d="m155.92 121.27c0.95301 0 6.6601-0.33123 3.4944-3.0002" fill="none" stroke="#fff" stroke-linecap="round" stroke-linejoin="round" stroke-miterlimit="10" stroke-width=".25"/>
<path transform="matrix(1.4264 0 0 1.427 15.671 -8.8942)" d="m155.32 127.28c2.1689-1.9874 2.7906-0.65972 3.0973 1.3249 0.62165 2.9838-0.61617 2.3186-1.8595 4.3087" fill="none" stroke="#fff" stroke-linecap="round" stroke-linejoin="round" stroke-miterlimit="10" stroke-width=".25"/>
<path transform="matrix(1.4264 0 0 1.427 15.671 -8.8942)" d="m155.92 138.86c0.94754-0.3367 2.2073-2.3487 3.1521-2.3487 1.8923 0.3367 1.2597 2.3487 0.62986 3.3561-0.62986 2.0148-2.5195 5.7075-1.8896 7.3829" fill="none" stroke="#fff" stroke-linecap="round" stroke-linejoin="round" stroke-miterlimit="10" stroke-width=".25"/>
<path transform="matrix(1.4264 0 0 1.427 15.671 -8.8942)" d="m160.97 145.93c-0.30946-1.6479 0.62439-2.6416 2.1799-2.6416 0.92837 2.3131 0 2.9729 0 4.952 0 0.98821 0.30672 1.9792 0.30672 2.6389 0 1.3194 0 2.3104 0.31219 3.6326" fill="none" stroke="#fff" stroke-linecap="round" stroke-linejoin="round" stroke-miterlimit="10" stroke-width=".25"/>
<path transform="matrix(1.4264 0 0 1.427 15.671 -8.8942)" d="m156.58 124.52c0.95301-0.32575 2.2237-0.32575 2.2237-1.6233" fill="none" stroke="#fff" stroke-linecap="round" stroke-linejoin="round" stroke-miterlimit="10" stroke-width=".25"/>
<path transform="matrix(1.4264 0 0 1.427 15.671 -8.8942)" d="m163.18 101.9c-0.35875 1.3468-0.35875 2.6964-0.35875 4.3799" fill="none" stroke="#fff" stroke-linecap="round" stroke-linejoin="round" stroke-miterlimit="10" stroke-width=".25"/>
<path d="m264.48 104.72c0-0.47266-0.44531-1.4219-0.44531-2.375-1.332 1.9023-3.1133 2.375-3.5586 0 0 0.47656 0 1.4297-0.44531 2.375-0.89062 2.3711-3.1211 2.8438-3.5664 5.2148-0.44531 2.8398 0.44531 2.3672 0 4.2617-0.44531 2.3711-2.2305 2.3711-2.6758 5.2109-0.44531 2.375 1.7852 3.7969 1.3398 5.6914-0.89453 2.3711-2.2305 2.8438-2.6758 5.2148-0.88672 1.8945 0.89062 1.8945 0.44531 3.7891-0.44531 1.8945-2.668 2.8477-1.7812 9.957 1.3359 6.6328 0.89062 10.426 4.0117 8.5273 2.2266-1.4219 3.5625-8.0547 4.0117-13.742 0-3.793 0.44531-7.1133 0.44531-9.4805 0-2.3672 0-8.5273 0.44531-12.324 0.44531-5.6875 2.6719-10.422 4.8984-10.898 0-0.47266 0-0.94531 0.44531-1.4219z" fill="#008aca" fill-rule="evenodd"/>
<path d="m252.44 216.46c0.4375 2.3789 1.7656 2.8555 2.6523 5.2344 0.4375 1.9023-1.7734 1.4258-1.3281 4.2812 0.44141 2.375 2.207 2.375 2.6484 4.7539 0.44531 2.3789-0.44141 3.3281 0 6.1836 0.44531 2.8516 2.6523 2.8516 3.5352 5.2344 0 0.47266 0.44141 0.95312 0.44141 0.95312s0.44141-0.48047 0.88672-0.95312c0.44141 0.47266 1.3203 1.4258 1.7656 1.8984-0.44531-1.4258 0.44141-2.375 0.87891-3.3281-1.7656-1.4258-3.5312-5.707-3.9727-10.941-0.44531-3.8008-0.44531-9.9883-0.44531-12.363 0-2.3789-0.4375-5.707-0.4375-9.5156-0.44141-5.707-1.7695-11.891-3.5352-13.316-3.5312-1.9062-3.0898 1.4258-4.418 8.082-0.87891 7.1367 1.3281 8.0898 1.7656 9.9883 0.44141 1.9062-1.3242 1.9062-0.4375 3.8086" fill="#008aca" fill-rule="evenodd"/>
<path transform="matrix(1.4264 0 0 1.427 15.671 -8.8942)" d="m184.12 95.292c8.1088 0 14.347 14.664 14.347 32.66v-0.33397c0 17.996-6.2384 32.655-14.347 32.655-7.7966 0-14.035-14.659-14.035-32.655v0.33397c0-17.996 6.2384-32.66 14.035-32.66z" fill="none" stroke="#efdcd9" stroke-miterlimit="8" stroke-width=".25"/>
<path transform="matrix(1.4264 0 0 1.427 15.671 -8.8942)" d="m184.09 99.497c6.8491 0 12.452 12.68 12.452 28.365v-0.33397c0 15.683-5.6031 28.365-12.452 28.365-6.5396 0-12.145-12.683-12.145-28.365v0.33397c0-15.685 5.6058-28.365 12.145-28.365z" fill="none" stroke="#efdcd9" stroke-miterlimit="8" stroke-width=".25"/>
<path transform="matrix(1.4264 0 0 1.427 15.671 -8.8942)" d="m184.09 108.5c4.6829 0 8.7387 8.6859 8.7387 19.378 0 10.69-4.0558 19.378-8.7387 19.378-4.6802 0-8.4238-8.6886-8.4238-19.378 0-10.692 3.7436-19.378 8.4238-19.378z" fill="none" stroke="#efdcd9" stroke-miterlimit="8" stroke-width=".25"/>
<path transform="matrix(1.4264 0 0 1.427 15.671 -8.8942)" d="m184.12 112.88c3.7354 0 6.5396 6.6684 6.5396 15.001 0 7.9988-2.8043 14.998-6.5396 14.998-3.4259 0-6.5424-6.9996-6.5424-14.998 0-8.3327 3.1165-15.001 6.5424-15.001z" fill="none" stroke="#efdcd9" stroke-miterlimit="8" stroke-width=".25"/>
<path transform="matrix(1.4264 0 0 1.427 15.671 -8.8942)" d="m184.09 117.25c2.8317 0 4.7185 4.6673 4.7185 10.668 0 5.6637-1.8869 10.331-4.7185 10.331-2.5167 0-4.4036-4.6673-4.4036-10.331 0-6.0005 1.8869-10.668 4.4036-10.668z" fill="none" stroke="#efdcd9" stroke-miterlimit="8" stroke-width=".25"/>
<path transform="matrix(1.4264 0 0 1.427 15.671 -8.8942)" d="m181.54 127.87c0-3.3451 1.2734-6.3481 2.5441-6.3481 1.5856 0 2.859 3.003 2.859 6.3481 0 3.3397-1.2734 6.0114-2.859 6.0114-1.2707 0-2.5441-2.6717-2.5441-6.0114z" fill="none" stroke="#efdcd9" stroke-miterlimit="8" stroke-width=".25"/>
<path transform="matrix(1.4264 0 0 1.427 15.671 -8.8942)" d="m174.73 201.87c1.5884 1.6616 2.8536-1.6589 1.2707-4.3115-5.0773-8.6284-0.63534-6.6355-0.95301-8.2972l-0.95302-1.9928" fill="none" stroke="#575759" stroke-miterlimit="8" stroke-width=".25"/>
<path transform="matrix(1.4264 0 0 1.427 15.671 -8.8942)" d="m177.58 52.274c-4.3844 4.6673-42.899 20.996-42.899 75.652 0 54.324 37.891 71.324 39.769 73.656 0 0.33397 0 0.33397 0.31219 0.33397" fill="none" stroke="#575759" stroke-miterlimit="8" stroke-width=".625"/>
<path transform="matrix(1.4264 0 0 1.427 15.671 -8.8942)" d="m174.04 67.874c1.906-1.3359 0-3.0057 0.95301-6.6875 0.63808-3.6736 3.4971-3.6736 3.8148-6.3508 0.63534-2.6717-0.63808-3.3397-1.2707-2.6717" fill="none" stroke="#575759" stroke-miterlimit="8" stroke-width=".25"/>
<path transform="matrix(1.4264 0 0 1.427 15.671 -8.8942)" d="m174.46 201.54c19.994 30.681 52.172 50.352 88.729 50.352 47.486 0 86.538-23.339 101.85-70.355 3.1247-11.004 12.184-9.0062 22.179-8.0043 7.8131 0.99916 18.433 4.6673 28.747 9.6713" fill="none" stroke="#575759" stroke-miterlimit="8" stroke-width=".625"/>
<path transform="matrix(1.4264 0 0 1.427 15.671 -8.8942)" d="m415.96 132.92c-11.255-3.3342-20.317-5.3325-25.008-6.0005-10.313-2.0011-14.062-9.3374-15.311-16.668-11.255-54.344-50.011-103.02-112.52-103.68-34.695-0.66793-65.64 17.667-85.958 46.008" fill="none" stroke="#575759" stroke-miterlimit="8" stroke-width=".625"/>
<path transform="matrix(1.4264 0 0 1.427 15.671 -8.8942)" d="m170.38 178.23h-0.93658c1.8759 3.6654 3.7491 7.3281 5.9372 10.996v-0.33397c0.31219 0.33397 0.31219 0.66793 0.62439 0.99916 0.93384 1.3304 1.8732 3.0002 2.8098 4.3306 0.31219 0.66793 0.93658 1.3331 1.2488 1.6644 0.31493 0.66793 0.62713 1.0019 0.93932 1.3359 0.62439 0.6652 1.2488 1.3331 1.561 1.9956 0.62713 0.67067 0.93932 1.0019 1.2515 1.6698 0.3122 0.33123 0.62439 0.66246 0.93658 0.99916 0.93658 0.99916 1.8759 2.3323 2.8125 3.3315 0.31219 0.33397 0.62165 0.6652 1.246 0.99642v0.3367c0.31767 0.33123 0.62439 0.6652 1.2515 1.3331 4.6857 4.9958 9.9957 9.6577 15.621 13.991 0.31219 0.33123 0.62439 0.33123 0.62439 0.66793 1.2488 0.6652 2.5003 1.6644 3.7491 2.6635 0.3122 0 0.62713 0.33123 0.93384 0.33123 3.7518 2.669 7.8131 5.0013 11.562 6.9969 0.62713 0.33123 1.5582 0.66793 2.1854 0.99916 0.93658 0.33397 1.8732 0.66793 2.8125 1.3331l2.8125 0.99916c0.93658 0.33397 1.561 0.66793 2.5003 1.0019 1.246 0.33123 2.4948 0.99916 3.4314 1.3304 0.62713 0 1.5637 0.33397 2.1881 0.66793 1.8759 0.33397 3.7518 0.99642 5.3128 1.3331 0.62439 0.33123 1.5637 0.33123 2.1826 0.33123 1.2515 0.33123 2.5003 0.66793 3.7518 0.99916 0.62439 0 1.561 0 2.1881 0.33397 1.2488 0 2.8125 0.33123 4.0613 0.33123 0.62439 0 1.2488 0 1.8704 0.3367h5.9372c42.174 0 79.037-23.32 92.782-65.301 0.93658-4.3306 3.7491-8.3273 7.4954-10.66-8.1198-4.3334-17.491 23.657-23.428 32.315-17.806 25.321-49.669 38.981-76.849 38.981-26.241 0-51.857-13.329-70.6-33.649l-1.8759-1.6671c-2.8097-2.9975-2.8097-4.3334-4.0585-8.6612-1.2488-4.3306 0-5.3325-1.5637-6.6629-1.8732-1.3331-2.4976-1.0019-1.8732-2.3323 0.3122-1.6698 1.561-1.0019 0.62439-3.9994-0.93658-2.9975-1.8759-2.6663-2.5003-3.3287-1.561-2.0011 1.5637-4.6673-0.93658-6.3317-2.1881-1.6644-2.5003 3.3315-5.6222 3.6627-1.8732 0.3367-3.7491-2.9948-4.0613-7.6593-0.3122-2.669-0.3122-6.9996-0.3122-8.664s-0.31219-3.9967-0.31219-6.6602c-0.31493-3.9994-1.2515-8.3327-2.5003-9.3319-2.5003-1.3331-2.1881 0.99916-3.1247 5.6637-0.62165 4.9958 0.93658 5.6637 1.2488 6.9969 0.31219 1.3304-0.93384 1.3304-0.31219 2.6635 0.31219 1.6671 1.2488 1.9983 1.8759 3.6682 0.3122 1.3304-1.2515 0.99916-0.93932 2.9948 0.31219 1.6698 1.5637 1.6698 1.8759 3.3315 0.3122 1.6698-0.31219 2.3323 0 4.3334 0.3122 2.0011 1.8759 2.0011 2.5003 3.6627 0.62439 1.6698 0.62439 2.3323-0.93932 2.3323zm0 0" fill="none" stroke="#fff" stroke-linecap="round" stroke-linejoin="round" stroke-miterlimit="10" stroke-width=".625"/>
<path transform="matrix(1.4264 0 0 1.427 15.671 -8.8942)" d="m170.38 178.28c1.561 0 1.561-0.6652 0.93658-2.3323-0.62439-1.6644-2.1881-1.6644-2.5003-3.6654-0.31219-1.9983 0.31219-2.6663 0-4.3306-0.31219-1.6698-1.561-1.6698-1.8732-3.3369-0.31219-2.0011 1.2488-1.6644 0.93658-2.9948-0.62439-1.6698-1.5637-2.0011-1.8759-3.6682-0.62439-1.3331 0.62713-1.3331 0.3122-2.6663-0.3122-1.3359-1.8732-1.9983-1.2488-6.9996 0.93658-3.9994 0.62439-6.3317 2.1881-6.0005-5.9344-3.3315-4.6857-24.328-0.62439-28.658-0.93932-0.66793-0.93932-3.0002-1.5637-6.3317-0.62439-5.0013 0.93658-5.6665 1.2488-7.0024 0.31493-1.3304-0.93658-1.3304-0.3122-2.6635 0.3122-1.6671 1.2515-1.9983 1.8759-3.6682 0.31219-1.3304-1.2488-2.3323-0.93658-3.9994 0.31219-1.9956 1.561-1.9956 1.8732-3.6627 0.31219-1.3331-0.31219-1.0019 0-3.0002 0.31219-1.6698 1.8759-2.0011 2.5003-3.6654 0.62439-1.6671 0.62439-2.335-0.93658-2.335h-0.93658" fill="none" stroke="#fff" stroke-linecap="round" stroke-linejoin="round" stroke-miterlimit="10" stroke-width=".625"/>
<path transform="matrix(1.4264 0 0 1.427 15.671 -8.8942)" d="m374.38 127.92c-0.93658-0.99916-1.8759-2.0011-2.8125-3.0002 0-0.33123-0.31219-0.33123-0.31219-0.6652-0.93932-0.99916-1.5637-2.335-2.5003-3.6682 0-0.33123-0.31219-0.66246-0.62439-0.99916 0-0.33123-0.3122-0.99916-0.3122-1.3304-0.31493-0.33397-0.62713-0.66793-0.62713-1.3331-0.31219-0.33123-0.31219-0.66793-0.62439-0.99916v-0.33397c-0.62439-1.3359-0.93658-2.6663-0.93658-3.9994-0.31219-1.3304-0.93932-3.0002-1.2515-4.3306v-0.66793c-12.184-48.65-50.608-92.301-100.59-92.301h-6.5588c-0.62439 0-1.5637 0.33397-2.1881 0.33397-1.561 0-2.8125 0.33397-4.3735 0.6652-0.62713 0-1.5637 0-2.5003 0.3367-0.62713 0-1.2515 0.33123-1.8759 0.33123-0.62439 0-1.2488 0.33123-1.8759 0.33123-0.93384 0.33397-1.8704 0.66793-2.807 0.66793-0.31219 0.33397-0.62439 0.33397-0.93932 0.33397-0.3122 0-0.62439 0-0.93658 0.33123-0.3122 0-0.93658 0.3367-1.561 0.3367-0.93932 0.33123-1.8759 0.66246-2.8125 0.99916-0.31493 0-0.93932 0.33123-1.5637 0.33123-0.31219 0.33123-0.93658 0.33123-1.2488 0.66793h-0.62713c-0.93384 0.33123-1.8704 0.99642-2.807 1.3331h-0.3122c-0.93932 0.66246-2.1881 0.99916-3.1274 1.3304-0.93658 0.33397-1.8732 1.0019-2.4976 1.3331h-0.31493c-0.31219 0.33123-0.62439 0.33123-0.93658 0.66793-0.31219 0-0.93658 0.33123-1.2488 0.6652-0.3122 0-0.62713 0-0.93932 0.33397-0.93658 0.33397-1.561 1.0019-2.4948 1.3331-0.93658 0.66793-1.8759 0.99916-2.5003 1.6644-0.3122 0-0.62439 0-0.62439 0.33397-0.93932 0.33397-1.8759 1.0019-2.8125 1.6644-0.31219 0-0.31219 0.3367-0.62439 0.3367-0.31493 0.33123-0.62713 0.33123-0.93932 0.6652 0 0-0.31219 0-0.62439 0.33123 0 0-0.31219 0.3367-0.62439 0.66793-0.93932 0.33123-1.8759 0.99916-2.8125 1.6671-0.62439 0.6652-1.5582 1.3331-2.1854 1.9956h-0.3122l-0.31219 0.3367c-0.93658 0.6652-1.561 1.3331-2.5003 2.0011-0.93658 0.66246-1.8732 1.3304-2.8125 2.3323-0.62439 0.66246-1.561 1.3304-2.1854 1.9983l-0.31493 0.33397c-0.93658 0.66246-1.561 1.3304-2.1854 1.9983h-0.30946c-0.62439 1.0019-1.5637 1.6644-2.1881 2.6635-0.62439 0.66793-1.561 1.3331-2.1881 2.3323h-0.3122c-0.62439 1.0019-1.561 1.6698-2.1881 2.669-0.31219 0.6652-0.93658 0.99916-1.2488 1.3331-0.31219 0.66246-0.62439 0.99916-0.93658 1.3304-0.93932 0.99916-1.5637 1.6671-2.1881 2.669-0.31219 0.66246-0.62439 0.99643-0.93658 1.3304-0.31493 0.6652-0.93384 1.0019-1.2515 1.3331-0.62439 0.99916-1.246 2.0011-1.8704 3.0002-0.93658 1.3304-1.5637 2.3323-2.5003 3.6627-1.8759 3.0002-3.7491 6.3344-5.3128 9.6659h0.93658c1.5637 0 1.5637 0.66246 0.93932 2.3323-0.62439 1.6671-2.1881 1.9983-2.5003 3.6627-0.31219 2.0011 0.3122 1.6671 0 3.0002-0.31219 1.6671-1.5637 1.6671-1.8759 3.6654-0.3122 1.6671 1.2515 2.6663 0.93932 3.9994-0.62713 1.6671-1.5637 1.9983-1.8759 3.6627-0.62439 1.3331 0.62439 1.3331 0.31219 2.669-0.31219 1.3331-1.8704 1.9956-1.246 6.9969 0.93384 4.6618 0.62439 7.3308 2.8097 5.995 1.561-0.99642 2.4976-5.6637 2.8125-9.6604 0-2.669 0.31219-4.9986 0.31219-6.6629 0-1.6698 0-6.0005 0.3122-8.664 0.31219-4.6646 2.1881-7.996 4.0613-7.6648 3.1219 0.33123 2.8125 4.3306 4.9978 2.6635 2.4976-1.6644-1.2515-3.3315 0-5.3325 0.62439-0.66246 1.8732-0.66246 2.8125-3.6627 1.2488-3.0002 0-2.3323-0.62713-3.9994-0.31219-1.3331 1.2515-0.6652 3.1247-1.9983 1.5637-1.3359 0.31493-2.3296 1.5637-6.6629 1.2488-3.9994 1.2488-5.3325 3.7491-7.9988 0.62165-1.0019 1.246-1.6644 1.246-1.6644 19.06-19.997 44.677-32.989 71.545-32.989 33.117 0 67.168 22.655 84.038 55.644 9.3713 18.661 13.123 54.316 28.117 54.65-0.31219-0.33397-0.62439-0.67067-1.2488-1.0019zm0 0" fill="none" stroke="#fff" stroke-linecap="round" stroke-linejoin="round" stroke-miterlimit="10" stroke-width=".625"/>
<path transform="matrix(1.4264 0 0 1.427 15.671 -8.8942)" d="m169.38 77.294c-4.6911 4.3306-15.325 19.997-15.325 51.324 0 35.992 16.261 49.657 16.261 49.657" fill="none" stroke="#575759" stroke-miterlimit="8" stroke-width=".625"/>
<path transform="matrix(1.4264 0 0 1.427 15.671 -8.8942)" d="m415.96 141.91c-9.0619-3.3315-16.251-5.3298-19.997-6.0005-6.2494-1.3304-16.869-4.9986-18.433-5.6665-1.2488-0.6652-2.1881-1.6644-3.1247-2.3323l0.3122 0.33123c0.62439 0.3367 0.93658 0.66793 1.2488 1.0019-14.994-0.33397-18.745-36-28.119-54.664-16.872-33.002-50.926-55.668-84.043-55.668-26.871 0-52.49 13-71.547 33 0 0-0.31219 0.33123-0.93658 0.99916h0.3122c17.809-18.333 48.426-29.332 73.108-29.332 31.244 0 63.422 23.999 79.048 54.333 2.4948 5.6665 4.6829 11.33 6.2466 16.999 1.2488 4.3306 4.6857 7.6675 5.625 12.001 0.62439 3.9994-1.5637 8.9979-1.2515 13 0.62439 4.9986 0.62439 9.6659 0.62439 14.667 0 18.333-6.2494 40.999-18.121 59.665-16.557 23.668-46.55 38.666-72.172 38.666-22.807 0-53.739-12.332-72.172-29.332l0.62439 0.6652c18.748 20.334 44.364 33.668 70.611 33.668 27.18 0 59.051-13.668 76.86-39 5.9372-8.6694 15.308-36.668 23.428-32.332 2.8125-2.0011 5.9372-3.0002 9.3768-3.0002 9.6835-1.0019 24.683 1.9983 36.554 7.3308 1.8732 0.66793 4.0613 1.6698 5.9372 2.3323v-31.333" fill="none" stroke="#fff" stroke-linecap="round" stroke-linejoin="round" stroke-miterlimit="10" stroke-width=".625"/>
<path transform="matrix(1.4264 0 0 1.427 15.671 -8.8942)" d="m415.96 141.91c-9.0619-3.3315-16.251-5.3325-20-6.0005-6.2494-1.3331-16.875-4.9958-18.433-5.6637-1.2515-0.6652-2.1881-1.6644-3.1274-2.3323-0.93658-0.99916-1.8732-1.9956-2.8125-2.9948 0-0.3367-0.31219-0.3367-0.31219-0.66793-0.93658-1.0019-1.561-2.3323-2.5003-3.6654 0-0.3367-0.3122-0.66793-0.62439-0.99916 0-0.33397-0.31219-1.0019-0.31219-1.3331-0.3122-0.3367-0.62439-0.66793-0.62439-1.3359-0.31219-0.33123-0.31219-0.66246-0.62439-0.99642v-0.33397c-0.62713-1.3331-0.93932-2.6663-0.93932-3.9967-0.3122-1.3359-0.93658-3.0002-1.2488-4.3334v-0.66793c-12.187-48.647-50.622-92.293-100.62-92.293h-6.5643c-0.61891 0-1.561 0.33123-2.1854 0.33123-1.5582 0-2.8097 0.33397-4.3707 0.6652-0.62713 0-1.5637 0-2.5003 0.3367-0.62713 0-1.2515 0.33123-1.8759 0.33123-0.62439 0-1.2488 0.33123-1.8759 0.33123-0.93658 0.3367-1.8732 0.66793-2.8125 0.66793-0.31219 0.33397-0.62439 0.33397-0.93658 0.33397s-0.62439 0-0.93658 0.33123c-0.31219 0-0.93932 0.3367-1.5637 0.3367-0.93658 0.33123-1.8759 0.66246-2.8125 0.99916-0.31219 0-0.93658 0.33123-1.561 0.33123-0.31493 0.33123-0.93932 0.33123-1.2515 0.66793h-0.62439c-0.93658 0.33123-1.8759 0.99642-2.8125 1.3331h-0.31219c-0.93932 0.66246-2.1881 0.99916-3.1247 1.3304-0.93932 0.33397-1.8759 1.0019-2.5003 1.3331h-0.31219c-0.31219 0.33123-0.62713 0.33123-0.93932 0.66793-0.3122 0-0.93658 0.33123-1.2488 0.6652-0.31219 0-0.62439 0-0.93658 0.33123-0.93932 0.3367-1.5637 0.99916-2.5003 1.3359-0.93932 0.66246-1.8759 0.99916-2.5003 1.6644-0.31219 0-0.62439 0-0.62439 0.33123-0.93932 0.3367-1.8732 0.99916-2.8152 1.6671-0.30672 0-0.30672 0.33397-0.62439 0.33397l-0.93384 0.66793s-0.31493 0-0.62439 0.33123c0 0-0.31493 0.33123-0.62439 0.66793-0.94206 0.33123-1.8759 0.99916-2.8125 1.6644-0.62439 0.66793-1.5637 1.3304-2.1881 1.9983h-0.31219l-0.31219 0.33397c-0.93658 0.66793-1.5637 1.3359-2.5003 1.9983-0.93658 0.66793-1.8759 1.3331-2.8125 2.3323-0.62439 0.66793-1.5637 1.3331-2.1881 2.0011l-0.3122 0.33123c-0.93658 0.66793-1.561 1.3331-2.1881 2.0011h-0.3122c-0.62439 0.99916-1.561 1.6671-2.1881 2.6635-0.62439 0.66793-1.561 1.3359-2.1854 2.335h-0.3122c-0.62713 0.99642-1.5637 1.6644-2.1881 2.6663-0.3122 0.66793-0.93932 0.99916-1.2515 1.3304-0.3122 0.66793-0.62439 0.99916-0.93658 1.3331-0.93658 0.99916-1.5637 1.6671-2.1881 2.6663-0.3122 0.6652-0.62439 1.0019-0.93658 1.3331-0.3122 0.66793-0.93658 0.99916-1.2515 1.3331-0.62439 0.99916-1.2488 1.9983-1.8732 2.9975-0.93932 1.3331-1.5637 2.3323-2.5003 3.6654-1.8759 3.0002-3.7491 6.3317-5.3128 9.6631m0.93658 100.96h-0.93658c1.8759 3.6682 3.7491 7.3336 5.9372 10.996v-0.33123c0.31219 0.33123 0.31219 0.6652 0.62439 0.99916 0.93932 1.3331 1.8759 2.9975 2.8125 4.3334 0.3122 0.6652 0.93932 1.3331 1.2515 1.6644 0.3122 0.66793 0.62439 0.99916 0.93658 1.3304 0.62439 0.66793 1.2515 1.3359 1.5637 2.0011 0.62439 0.66793 0.93658 0.99916 1.2488 1.6671 0.31219 0.33397 0.62439 0.6652 0.93658 0.99643 0.93932 1.0019 1.8759 2.3378 2.8125 3.3315 0.31493 0.3367 0.62713 0.66793 1.2515 1.0019v0.33397c0.31219 0.33397 0.62439 0.6652 1.2488 1.3331 4.6884 4.9958 10.001 9.6631 15.626 13.994 0.3122 0.33397 0.62439 0.33397 0.62439 0.66793 1.246 0.66793 2.4976 1.6671 3.7463 2.6635 0.31767 0 0.62439 0.33397 0.94206 0.33397 3.7463 2.6663 7.8076 4.9986 11.559 6.9969 0.62439 0.33123 1.561 0.6652 2.1854 0.99916 0.93932 0.33397 1.8759 0.6652 2.8125 1.3331 0.93932 0.33123 1.8759 0.6652 2.8125 0.99916 0.93932 0.33397 1.5637 0.6652 2.5003 1.0019 1.2515 0.33123 2.5003 0.99916 3.4369 1.3304 0.62713 0 1.5637 0.33397 2.1881 0.6652 1.8759 0.3367 3.7518 0.99916 5.3128 1.3359 0.62439 0.33123 1.5637 0.33123 2.1881 0.33123 1.2488 0.33123 2.5003 0.66793 3.7491 0.99916 0.62439 0 1.5637 0 2.1854 0.33397 1.2488 0 2.8152 0.33123 4.064 0.33123 0.62713 0 1.246 0 1.8732 0.3367h5.9372c42.182 0 79.054-23.326 92.804-65.31 0.93658-4.3306 3.7491-8.3273 7.5009-10.66 2.8125-2.0011 5.9372-3.0002 9.374-3.0002 9.6835-0.99916 24.685 2.0011 36.56 7.3308 1.8732 0.6652 4.0613 1.6644 5.9372 2.3323" fill="none" stroke="#575759" stroke-miterlimit="8" stroke-width=".625"/>
<path transform="matrix(1.4264 0 0 1.427 15.671 -8.8942)" d="m309.79 66.525 2.8097 6.6821 1.246 3.6764c0.93658 1.6726 1.8759 3.3451 2.4976 5.015 0.31219 0.3367 0.31219 0.66793 0.62439 1.3359 0.93658 2.0093 1.561 4.0131 1.8704 6.0169 0.31219 1.3359 0.31219 3.0084 0.31219 4.3443 0 1.6698-0.31219 3.3424 0.3122 5.015 0.31219 1.3359 0.62439 2.3405 1.2515 3.6764-4.9924-3.0084-12.17-3.0084-18.723-4.0131" fill="none" stroke="#fff" stroke-linecap="round" stroke-linejoin="round" stroke-miterlimit="10" stroke-width="1.25"/>
<path transform="matrix(1.4264 0 0 1.427 15.671 -8.8942)" d="m315.31 76.544c0-0.33123 0-0.33123-0.30946-0.33123l-1.8458-2.992-2.462-4.6536" fill="none" stroke="#fff" stroke-linecap="round" stroke-linejoin="round" stroke-miterlimit="10" stroke-width="1.25"/>
<path transform="matrix(1.4264 0 0 1.427 15.671 -8.8942)" d="m338.24 92.61c-0.31219 1.6644-1.8759 5.327-1.5637 7.3281v2.9975c0 3.9939 0.3122 8.9952 2.8125 13.991-1.8732-1.3331-3.4369-2.6635-5.3128-3.9994-3.1247-2.3296-6.2521-4.6618-8.7524-7.3281-0.31219-0.33397-0.62439-0.6652-0.93658-0.99643-1.5637-2.0011-2.8125-3.9994-3.7545-6.3317-0.31219-1.3331-0.31219-2.9975 0-4.6646 0-1.3331 0-2.9975-0.31219-4.6591-0.31219-2.0011-1.2515-4.0021-1.8759-5.9977 0-0.3367-0.31219-0.3367-0.31219-0.3367 0-0.66246-2.5003-3.9939-2.5003-4.3279" fill="none" stroke="#fff" stroke-linecap="round" stroke-linejoin="round" stroke-miterlimit="10" stroke-width="1.25"/>
<path transform="matrix(1.4264 0 0 1.427 15.671 -8.8942)" d="m313.21 197.32c1.8759-2.0011 3.7463-3.9994 4.6884-6.0032 0.93384-1.6644 1.5582-3.3315 2.807-5.0013 1.8759-2.6663 3.4369-6.0032 4.6884-9.0034 1.8759-4.0049 3.7491-8.3355 7.1859-11.672 1.5637-2.0038 3.4396-3.3342 5.3128-5.004 3.4341-2.6663 6.871-5.3353 8.7469-10.337 2.1881-6.0032 5.3128-10.339 14.996-8.6694 3.4369 1.3304 6.5616 1.9983 11.874 2.335 3.7463 0.33123 8.4347 2.0011 12.808 3.6682 2.8125 1.3304 6.2521 2.6663 9.0591 3.6682 7.5009 1.6671 13.126 3.0002 20.312 6.0005v-3.3342c-7.1859-2.6663-12.499-4.0021-19.994-6.0032-2.8125-0.66793-5.625-1.9983-8.7497-3.0002-4.3762-1.6671-8.7497-3.6682-12.811-3.6682-2.8125-0.33397-5.31-0.66793-7.4981-1.0019-1.2515-0.33397-4.3762-1.0019-4.6884-1.0019-5.9344-2.3323-9.9957-6.0005-14.996-14.339-0.93658-1.3331-1.8732-2.669-3.1247-3.9994h0.31219c-5.6195-6.3372-5.9372-12.34-5.9372-18.01l-0.30946-3.0002c-0.31493-1.6671-0.31493-4.3361 0-6.0032" fill="none" stroke="#fff" stroke-linecap="round" stroke-linejoin="round" stroke-miterlimit="10" stroke-width="1.25"/>
<path transform="matrix(1.4264 0 0 1.427 15.671 -8.8942)" d="m282.61 205.3c4.6829-3.6818 9.9902-6.3618 15.607-8.0371l4.6857-1.0046c3.7491-0.66793 7.4954-1.3413 11.554-3.6846 0.62439-0.66793 1.2488-1.0046 1.8704-1.6726-0.93384 2.0093-1.246 4.3525-2.807 6.0278" fill="none" stroke="#fff" stroke-linecap="round" stroke-linejoin="round" stroke-miterlimit="10" stroke-width="1.25"/>
<path transform="matrix(1.4264 0 0 1.427 15.671 -8.8942)" d="m271.99 201.28c5.2936-1.3331 11.212-2.3323 16.5-1.3331-2.1744 1.3331-3.7326 3.6654-5.9125 5.0013" fill="none" stroke="#fff" stroke-linecap="round" stroke-linejoin="round" stroke-miterlimit="10" stroke-width="1.25"/>
<path transform="matrix(1.4264 0 0 1.427 15.671 -8.8942)" d="m301.91 98.326c8.1253 0.99916 16.245 2.9948 21.558 7.6566 2.5003 2.9948 6.2521 5.6583 9.689 8.3218 4.6857 3.3287 9.6862 6.6574 12.499 11.653 3.7518 6.3235 6.8765 10.985 10.938 13.318-8.1253 0.33123-9.9984 6.6547-11.562 10.315-1.5637 4.6646-4.6884 6.9941-8.1253 9.6577-1.8759 1.6644-3.7491 2.9948-5.625 4.9903-3.4369 3.6654-5.3128 7.9933-7.1859 12.318-2.5003 5.6583-4.9978 10.988-10.623 14.317-3.4369 2.3323-7.1859 2.9948-10.938 3.9939l-4.6857 1.0019c-1.8759 0.33123-3.7518 0.99642-5.625 1.9956-0.62713 0.33123-3.7518 0.33123-4.6884 0.33123-5.3128-0.66246-11.25 1.9956-16.563 3.3287" fill="none" stroke="#fff" stroke-linecap="round" stroke-linejoin="round" stroke-miterlimit="10" stroke-width="1.25"/>
<path transform="matrix(1.4264 0 0 1.427 15.671 -8.8942)" d="m324.75 85.284c0.62439 2.3487 0.62439 5.0287 1.246 7.0407-2.1854-1.3413-4.0558-2.6799-6.5506-3.6873l-2.1854-1.3413c-1.5582-0.67067-3.4314-1.6753-4.9924-2.6827-0.3122 0-0.3122 0-0.3122-0.3367-4.053-2.3432-8.7332-4.0186-12.48-7.3692" fill="none" stroke="#fff" stroke-linecap="round" stroke-linejoin="round" stroke-miterlimit="10" stroke-width="1.25"/>
<path transform="matrix(1.4264 0 0 1.427 15.671 -8.8942)" d="m281.35 217.54c4.6857-1.6644 9.6835-4.9958 12.808-8.9925l1.561-2.3323c4.6857-5.6637 9.9984-11.993 15.936-14.987 1.8732-0.33123 4.0585-0.33123 6.2466-0.99916 5.625-2.0011 8.4347-6.9969 11.247-11.659l2.1854-3.9994c2.1881-2.9948 4.6884-5.6583 7.1887-7.9906 2.8097-3.0002 5.9344-5.9977 7.8076-9.6604l0.62713-0.66793c3.1247-6.3289 4.9978-9.3292 11.869-10.66 6.5643-1.3331 14.372 1.9983 18.748 3.3315 13.433 4.6646 26.553 9.6604 38.115 11.993v-3.6654c-11.562-2.3323-24.683-6.9969-37.803-11.325-2.1881-0.66793-4.9978-1.6671-7.8103-1.9983-2.4976-0.66793-6.5616-1.6644-6.5616-1.6644-2.5003-1.0019-4.0613-5.9977-5.3128-10.328-0.30672-2.3323-0.93384-4.6646-1.8732-5.9977-3.1219-6.6602-8.4347-10.654-13.435-14.32-2.1826-1.6671-4.3707-3.3315-6.5588-5.3325-2.1881-1.6644-3.4369-3.9939-4.3735-6.3262l-2.1881-3.3342c-0.62439-0.99916-1.2515-1.9956-2.1881-2.6635-0.30946-2.9948-1.8759-5.6637-2.807-8.6585" fill="none" stroke="#fff" stroke-linecap="round" stroke-linejoin="round" stroke-miterlimit="10" stroke-width="1.25"/>
<path transform="matrix(1.4264 0 0 1.427 15.671 -8.8942)" d="m271.33 190.31c5.6305 5.9786 12.51 6.3125 19.392 4.9849 3.4369-0.33397 5.9399-1.3331 9.0646-2.3296l2.1936-0.6652c1.8732-0.66246 4.0613-0.99369 6.2521-0.99369-5.0033 3.6545-9.6945 8.9678-13.449 13.953l-1.8732 2.3241c-3.1274 3.6545-6.8792 8.3054-11.258 9.9643" fill="none" stroke="#fff" stroke-linecap="round" stroke-linejoin="round" stroke-miterlimit="10" stroke-width="1.25"/>
<path transform="matrix(1.4264 0 0 1.427 15.671 -8.8942)" d="m300.73 190.95-1.5664 0.33397c-2.8207 1.0019-5.6414 2.0011-8.7743 2.3378-6.2658 1.3304-14.098 1.6671-19.422-3.6736" fill="none" stroke="#fff" stroke-linecap="round" stroke-linejoin="round" stroke-miterlimit="10" stroke-width="1.25"/>
<path transform="matrix(1.4264 0 0 1.427 15.671 -8.8942)" d="m300.73 83.324c3.4287 0.33123 7.175 1.6644 10.604 2.6635 1.8759 1.0019 3.7463 2.0011 5.3046 3.0002l2.1854 0.99643c3.7463 2.0011 7.4872 3.9994 9.6698 7.6648l1.8759 3.3287c1.246 2.3323 2.4976 4.6618 4.9924 6.6602 2.1826 1.9983 4.368 3.6627 6.5506 5.3298 5.3046 3.6654 10.297 7.3254 13.107 13.654 0.61891 1.3359 1.246 3.6627 1.8704 5.6637 0.93384 4.3279 2.1826 8.9925 4.6802 10.66-0.93932 0.33123-2.1854 0.33123-3.1219 0.33123-7.4872 1.6644-9.6725 5.9977-13.104 11.99l-0.30946 0.66793c-1.8759 3.6627-4.6802 6.6602-7.8021 9.6549-2.4948 2.3323-4.9924 4.9958-7.175 7.996l-2.1826 3.9967c-2.8097 4.6646-5.3046 9.3237-10.297 10.994-2.8097 0.99916-5.3046 1.6616-8.1143 1.6616-1.5582 0-4.9924 0.33397-6.5506 0.66793v-0.33397" fill="none" stroke="#fff" stroke-linecap="round" stroke-linejoin="round" stroke-miterlimit="10" stroke-width="1.25"/>
<path transform="matrix(1.4264 0 0 1.427 15.671 -8.8942)" d="m298.78 76.875c2.8043 2.0284 4.9924 4.3908 7.7966 6.4193-1.8704-0.3367-4.0558 0-5.9262-0.3367" fill="none" stroke="#fff" stroke-linecap="round" stroke-linejoin="round" stroke-miterlimit="10" stroke-width=".625"/>
<path d="m580.03 202.07c-4.0117-0.95312-8.0273-2.8555-12.484-4.2812-6.2422-2.375-12.488-5.2305-18.281-5.2305-4.0117-0.48047-7.5859-0.95313-10.707-1.4258-1.7812-0.48047-6.2383-1.4258-6.6836-1.4258-8.4766-3.3359-14.27-8.5625-21.406-20.453-1.3398-1.9062-2.6758-3.8086-4.4609-5.707h0.44922c-8.0312-9.0352-8.4766-17.598-8.4766-25.688l-0.44531-4.2812c0-2.375 0.44531-4.7539 0.89062-7.6055 0.44531-3.3281 0.89062-6.6562 0-10.938-0.89062-5.2344-4.457-10.465-7.5781-15.223l-4.9062-5.7031 4.4609 8.5547c3.5664 4.7617 4.9023 8.0898 6.2422 13.316 0.44531 3.3359 0 6.1875-0.44531 9.5156-0.44922 2.8555-0.89453 5.2344-0.44922 8.082v4.2812c0 5.7109 0.44922 12.844 4.0117 19.98-2.6719-1.9023-4.9023-3.8086-7.5742-5.7109-4.4609-3.3281-8.9219-6.6523-12.488-10.461-0.44531-0.47266-0.89062-0.95312-1.3359-1.4258-2.2305-2.8555-4.0117-5.7109-5.3555-9.0391-0.44141-1.8984-0.44141-4.2773 0-6.6602 0-1.8984 0-4.2812-0.44141-6.6562-0.44922-2.8516-1.7891-5.707-2.6797-8.5586 0-0.47656-0.44531-0.47656-0.44531-0.47656 0-0.95312-0.44531-1.4258-0.44531-1.9062-2.6758-6.1797-0.89062-14.742 0.44531-22.824 0.89062-5.2344 0.89062-9.9883 0.89062-14.27 0 4.2812-2.2266 9.0352-3.1211 13.789-0.89063 5.707-1.7812 11.418-1.7812 16.648 0-0.47656 0-0.47656-0.44531-0.47656l-2.2305-5.2305-2.2266-4.2812c-8.0312-16.645-16.949-34.242-36.125-37.094 18.281 2.375 26.758 21.879 34.336 38.047l1.7891 4.2812 2.6719 5.2305c1.3398 2.3789 2.6758 4.7539 3.5664 7.1328 0.44531 0.47656 0.44531 0.95312 0.89453 1.9023 1.3359 2.8516 2.2266 5.707 2.6719 8.5625 0.44531 1.8984 0.44531 4.2812 0.44531 6.1797 0 2.3828-0.44531 4.7617 0.44531 7.1367 0.44922 1.8984 0.89453 3.3281 1.7852 5.2344-7.1328-4.2812-16.055-5.2344-25.414-6.6641-15.16-1.8984-31.215-3.3242-40.133-16.641 9.3672 14.27 24.527 16.641 39.688 19.023 11.59 1.4258 22.293 2.8516 29.875 9.5078 3.5664 4.2812 8.918 8.0898 13.824 11.891 6.6875 4.7617 13.824 9.5156 17.836 16.648 5.3477 9.0352 9.8125 15.691 15.605 19.027-11.594 0.47266-14.27 9.5078-16.496 14.742-2.2305 6.6562-6.6914 9.9883-11.594 13.789-2.6758 2.3828-5.3516 4.2812-8.0234 7.1367-4.9102 5.2344-7.5859 11.414-10.258 17.598-3.5664 8.082-7.1406 15.695-15.164 20.449-4.9062 3.3281-10.258 4.2812-15.605 5.7109l-6.6914 1.4258c-2.6758 0.47266-5.3477 1.4258-8.0234 2.8516-0.89062 0.47656-5.3555 0.47656-6.6914 0.47656-7.5781-0.95312-15.609 0.95313-22.738 3.3281l-5.3555 1.4258c-15.16 3.8086-20.066-0.47266-25.863-9.9883 6.2461 9.9883 9.8086 16.176 26.754 12.367l4.9102-1.8984c7.5781-1.9062 16.051-4.2812 23.629-2.8555-3.1211 1.9023-5.793 4.2812-8.4688 6.1836l-4.9023 3.3281c-15.168 10.941-37.906 21.875-55.297 9.0352 18.281 13.793 40.574 4.2812 56.629-7.1367l4.4609-3.3281c7.1328-4.7539 13.379-9.5078 21.402-11.891l6.6914-1.4258c5.3477-0.95312 10.703-1.8984 16.5-5.2266 0.89062-0.95312 1.7812-1.4297 2.6719-2.3828-1.3359 2.8555-2.2266 5.2305-4.457 7.6094l-1.7812 1.9023c-4.4648 5.707-7.1367 10.469-10.258 17.598 3.1211-7.1289 7.5781-10.465 12.039-16.172l1.7852-1.9023c2.2266-2.8516 3.5664-5.707 4.9023-8.5586 1.3359-2.375 2.2266-4.7578 4.0117-7.1367 2.6797-3.8008 4.9102-8.5547 6.6914-12.836 2.6758-5.707 5.3477-11.891 10.258-16.652 2.2305-2.8516 4.9023-4.7539 7.5781-7.1328 4.9102-3.8008 9.8125-7.6094 12.484-14.742 3.1211-8.5586 7.5859-14.746 21.402-12.367 4.9102 1.9023 9.3672 2.8555 16.949 3.3281 5.3516 0.48047 12.043 2.8555 18.281 5.2344 4.0117 1.9023 8.9219 3.8047 12.934 5.2305 10.703 2.3789 18.727 4.2812 28.984 8.5625v-4.7578c-10.258-3.8047-17.836-5.707-28.539-8.5586" fill="#d10017" fill-rule="evenodd"/>
<path d="m554.62 199.34c-3.1211-0.94922-7.1328-2.375-11.145-2.8477-3.5703-0.95313-9.3672-2.3828-9.3672-2.3828-3.5664-1.4258-5.793-8.5547-7.5781-14.738-0.44531-3.3281-1.3359-6.6523-2.6719-8.5586-4.4609-9.5039-12.043-15.215-19.176-20.441-3.1172-2.3789-6.2383-4.7539-9.3594-7.6094-3.1211-2.3789-4.9023-5.707-6.2422-9.0352l-3.1172-4.7539c-0.89453-1.4297-1.7891-2.8477-3.1211-3.8047-0.45312-4.2773-1.7891-8.082-2.6797-12.363-3.1211-9.0273-6.6875-19.016-1.7852-26.625-5.3477 8.5625-3.1172 18.07-0.44531 27.102 0.89062 3.332 1.7852 6.6602 2.6758 9.5078-3.1211-1.8984-5.7969-3.8008-9.3594-5.2266l-3.1211-1.9023c-2.2305-0.95312-4.9023-2.3789-7.1328-3.8008-0.44531 0-0.44531 0-0.44531-0.48047-5.8008-3.3281-12.043-7.1289-17.391-11.41-3.5664-3.3281-6.2383-5.2266-9.3594-9.0352l-5.7969-6.6562 4.457 6.6562c2.6758 3.8086 5.3516 7.6094 9.3633 10.938 3.5664 2.8516 7.1328 5.2344 11.145 8.082-2.6758-0.47266-4.9062-0.94922-7.5781-1.4258-6.2422-0.47656-13.375-0.47656-19.176-3.3281 6.2461 3.3281 12.488 5.2344 19.176 5.707 4.9023 0.47266 9.3594 1.4258 14.27 2.8516 2.6719 1.4297 5.3477 2.8555 7.5781 4.2773l3.1172 1.4258c5.3516 2.8555 10.699 5.707 13.82 10.938l2.6797 4.7539c1.7812 3.3281 3.5664 6.6562 7.1328 9.5117 3.1172 2.8516 6.2383 5.2266 9.3594 7.6055 7.5781 5.2305 14.715 10.457 18.727 19.496 0.89062 1.8984 1.7852 5.2266 2.6758 8.082 1.3359 6.1797 3.1211 12.836 6.6836 15.215-1.3359 0.47656-3.1172 0.47656-4.457 0.47656-10.695 2.375-13.816 8.5547-18.727 17.109l-0.44531 0.95312c-2.6758 5.2305-6.6875 9.5117-11.145 13.793-3.5664 3.3281-7.1289 7.1289-10.25 11.41l-3.125 5.7031c-4.0117 6.6602-7.5781 13.316-14.711 15.691-4.0117 1.4258-8.0234 1.4258-11.59 1.4258h-6.6914c-11.145-0.94922-27.641-2.8555-31.207-15.211 3.5664 11.41 14.27 15.684 25.41 17.109l-2.2266 0.48047c-4.0117 1.4258-8.0234 2.8477-12.48 3.3281-8.9219 1.9023-19.172 1.9023-26.305-5.707l-2.6758-2.8555c-8.4727-9.0273-16.945-16.637-30.762-19.492 13.371 2.8555 20.504 11.891 29.426 21.398l2.2266 2.375c8.0234 8.5586 18.723 8.5586 28.535 6.6562 4.9023-0.47266 8.4688-1.9023 12.926-3.3281l3.1211-0.94922c2.6758-0.95313 5.793-1.4258 8.9219-1.4258-7.1406 5.2305-13.824 12.84-19.176 19.969l-2.6719 3.3281c-4.457 5.2305-9.8125 10.934-16.055 12.836l-8.0234 2.3789c-4.457 0.94922-8.0234 3.3281-12.48 5.2305 4.0117-1.9023 8.4688-1.9023 12.926-2.8555l8.4688-2.375c6.6953-2.3789 12.488-8.082 16.945-13.789l2.2305-3.3281c6.6836-8.082 14.262-17.117 22.738-21.395 2.6719-0.48047 5.793-0.48047 8.9141-1.4258 8.0234-2.8555 12.035-9.9883 16.051-16.645l3.1211-5.7031c3.1211-4.2812 6.6875-8.082 10.254-11.41 4.0117-4.2812 8.4688-8.5625 11.145-13.789l0.89453-0.95312c4.457-9.0312 7.1328-13.312 16.938-15.211 9.3633-1.9023 20.512 2.8516 26.754 4.7539 19.172 6.6562 37.895 13.785 54.391 17.117v-5.2344c-16.496-3.3281-35.219-9.9844-53.945-16.164" fill="#008aca" fill-rule="evenodd"/>
<path transform="matrix(1.4264 0 0 1.427 15.671 -8.8942)" d="m200.32 127.91c0-20.328-7.1805-36.991-16.237-36.991-8.7442 0-15.922 16.663-15.922 36.991v-0.3367c0 20.665 7.1777 37.325 15.922 37.325 9.0564 0 16.237-16.66 16.237-37.325zm0 0" fill="none" stroke="#fff" stroke-linecap="round" stroke-linejoin="round" stroke-miterlimit="10" stroke-width=".625"/>
<path transform="matrix(1.4264 0 0 1.427 15.671 -8.8942)" d="m184.09 104.29c5.9207 0 10.595 10.64 10.595 23.613 0 12.97-4.6747 23.61-10.595 23.61-5.6113 0-10.283-10.64-10.283-23.61 0-12.973 4.672-23.613 10.283-23.613z" fill="none" stroke="#efdcd9" stroke-miterlimit="8" stroke-width=".25"/>
<path d="m258.27 165.62c1.3359-23.367 10.234-41.488 20.918-40.535 11.125 1.4297 13.793 15.262 13.793 15.262 0.89453 3.3359 0.89453 1.9062-0.4375-0.48047-4.0078-7.625-23.594-25.273-34.273 25.754" fill="#f3e3e1" fill-rule="evenodd"/>
<path d="m262.13 146.52c2.6758-10.992 9.8164-21.023 17.414-20.551 6.6953 0.48047 9.3711 6.2148 9.3711 6.2148-3.5742-5.2578-16.969-11.945-26.785 14.336" fill="#fff" fill-rule="evenodd"/>
<path d="m264.86 207.88c3.1328 7.5898 17.887 26.578 29.957-6.6445-4.4688 9.0195-16.098 27.051-29.957 6.6445" fill="#f5e6e6" fill-rule="evenodd"/>
<path d="m280.02 217.84v0.97266c0.90234 0.48438 2.2617 0 3.1641 0v-1.457l-0.45313-0.48438c-0.44922-0.48438-1.3594 0-1.8086 0" fill="#fff" fill-rule="evenodd"/>
<path d="m285.01 215.53c-0.91406 0.45312-1.8281 1.3516-0.45703 1.8008 0.45703 0 0.91406 0 0.91406-0.44922 0.45703-0.44922 0-0.89844 0-1.3516" fill="#fff" fill-rule="evenodd"/>
<path d="m278.64 217.83c-0.42969-0.49609-1.2812 0-1.2812 0-0.42969 0.99219 0 0.99219 0.85156 1.4883 0.85938 0.49609 0.85938-0.49609 0.85938-1.4883" fill="#fff" fill-rule="evenodd"/>
<g>
<use x="12.796875" y="20.874056" xlink:href="#aj"/>
<use x="24.208036" y="20.874056" xlink:href="#n"/>
<use x="34.192802" y="20.874056" xlink:href="#e"/>
<use x="44.177568" y="20.874056" xlink:href="#g"/>
<use x="54.162334" y="20.874056" xlink:href="#d"/>
<use x="58.44152" y="20.874056" xlink:href="#c"/>
<use x="68.426286" y="20.874056" xlink:href="#v"/>
<use x="74.131867" y="20.874056" xlink:href="#c"/>
<use x="84.116633" y="20.874056" xlink:href="#m"/>
<use x="92.675004" y="20.874056" xlink:href="#a"/>
<use x="102.65977" y="20.874056" xlink:href="#b"/>
<use x="108.36535" y="20.874056" xlink:href="#e"/>
</g>
<g>
<use x="6.378906" y="58.229525" xlink:href="#ai"/>
<use x="16.363672" y="58.229525" xlink:href="#c"/>
<use x="26.348438" y="58.229525" xlink:href="#k"/>
<use x="42.038785" y="58.229525" xlink:href="#k"/>
<use x="57.729132" y="58.229525" xlink:href="#a"/>
<use x="67.713898" y="58.229525" xlink:href="#b"/>
<use x="74.845874" y="58.229525" xlink:href="#ah"/>
<use x="87.68343" y="58.229525" xlink:href="#j"/>
<use x="91.962615" y="58.229525" xlink:href="#e"/>
<use x="101.947381" y="58.229525" xlink:href="#i"/>
<use x="110.505752" y="58.229525" xlink:href="#a"/>
<use x="120.490518" y="58.229525" xlink:href="#d"/>
</g>
<g>
<use x="29.199219" y="95.584994" xlink:href="#u"/>
<use x="40.61038" y="95.584994" xlink:href="#n"/>
<use x="50.595146" y="95.584994" xlink:href="#b"/>
<use x="56.300727" y="95.584994" xlink:href="#e"/>
<use x="66.285493" y="95.584994" xlink:href="#h"/>
<use x="76.270259" y="95.584994" xlink:href="#c"/>
<use x="86.255025" y="95.584994" xlink:href="#g"/>
<use x="96.239791" y="95.584994" xlink:href="#f"/>
</g>
<g>
<use x="44.890625" y="132.940462" xlink:href="#t"/>
<use x="53.448996" y="132.940462" xlink:href="#j"/>
<use x="57.728181" y="132.940462" xlink:href="#e"/>
<use x="67.712947" y="132.940462" xlink:href="#m"/>
<use x="76.271318" y="132.940462" xlink:href="#a"/>
</g>
<g>
<use x="39.898438" y="170.295931" xlink:href="#ag"/>
<use x="48.456808" y="170.295931" xlink:href="#g"/>
<use x="58.441574" y="170.295931" xlink:href="#s"/>
<use x="68.426341" y="170.295931" xlink:href="#j"/>
<use x="72.705526" y="170.295931" xlink:href="#d"/>
<use x="76.984711" y="170.295931" xlink:href="#d"/>
<use x="81.263897" y="170.295931" xlink:href="#a"/>
</g>
<g>
<use x="53.449219" y="207.655306" xlink:href="#af"/>
<use x="57.728404" y="207.655306" xlink:href="#b"/>
<use x="64.86038" y="207.655306" xlink:href="#j"/>
<use x="69.139565" y="207.655306" xlink:href="#m"/>
</g>
<g>
<use x="5.664063" y="245.010775" xlink:href="#ae"/>
<use x="15.648829" y="245.010775" xlink:href="#n"/>
<use x="25.633595" y="245.010775" xlink:href="#b"/>
<use x="31.339175" y="245.010775" xlink:href="#l"/>
<use x="41.323941" y="245.010775" xlink:href="#a"/>
<use x="51.308707" y="245.010775" xlink:href="#b"/>
<use x="58.440683" y="245.010775" xlink:href="#i"/>
<use x="66.999054" y="245.010775" xlink:href="#c"/>
<use x="76.98382" y="245.010775" xlink:href="#k"/>
<use x="92.674167" y="245.010775" xlink:href="#k"/>
<use x="108.364513" y="245.010775" xlink:href="#a"/>
<use x="118.34928" y="245.010775" xlink:href="#b"/>
</g>
<g>
<use x="7.804688" y="282.366244" xlink:href="#u"/>
<use x="19.215849" y="282.366244" xlink:href="#j"/>
<use x="23.495034" y="282.366244" xlink:href="#e"/>
<use x="33.4798" y="282.366244" xlink:href="#f"/>
<use x="39.185381" y="282.366244" xlink:href="#a"/>
<use x="49.170147" y="282.366244" xlink:href="#b"/>
<use x="56.302123" y="282.366244" xlink:href="#i"/>
<use x="64.860494" y="282.366244" xlink:href="#c"/>
<use x="74.84526" y="282.366244" xlink:href="#k"/>
<use x="90.535606" y="282.366244" xlink:href="#k"/>
<use x="106.225953" y="282.366244" xlink:href="#a"/>
<use x="116.210719" y="282.366244" xlink:href="#b"/>
</g>
<g>
<use x="5.664063" y="319.721712" xlink:href="#r"/>
<use x="15.648829" y="319.721712" xlink:href="#f"/>
<use x="21.354409" y="319.721712" xlink:href="#b"/>
<use x="28.486385" y="319.721712" xlink:href="#c"/>
<use x="38.471151" y="319.721712" xlink:href="#h"/>
<use x="48.455917" y="319.721712" xlink:href="#d"/>
<use x="52.735103" y="319.721712" xlink:href="#a"/>
<use x="62.719869" y="319.721712" xlink:href="#e"/>
<use x="72.704635" y="319.721712" xlink:href="#i"/>
<use x="81.263006" y="319.721712" xlink:href="#ad"/>
<use x="91.247772" y="319.721712" xlink:href="#b"/>
<use x="98.379747" y="319.721712" xlink:href="#s"/>
<use x="108.364513" y="319.721712" xlink:href="#a"/>
<use x="118.34928" y="319.721712" xlink:href="#b"/>
</g>
<g>
<use x="702.023438" y="20.874056" xlink:href="#t"/>
<use x="710.581808" y="20.874056" xlink:href="#a"/>
<use x="720.566574" y="20.874056" xlink:href="#l"/>
<use x="730.551341" y="20.874056" xlink:href="#a"/>
<use x="740.536107" y="20.874056" xlink:href="#b"/>
<use x="746.241687" y="20.874056" xlink:href="#h"/>
<use x="756.226453" y="20.874056" xlink:href="#c"/>
<use x="766.211219" y="20.874056" xlink:href="#g"/>
<use x="776.195985" y="20.874056" xlink:href="#f"/>
</g>
<g>
<use x="706.300781" y="58.229525" xlink:href="#ac"/>
<use x="716.285547" y="58.229525" xlink:href="#l"/>
<use x="726.270313" y="58.229525" xlink:href="#a"/>
<use x="736.255079" y="58.229525" xlink:href="#b"/>
<use x="741.96066" y="58.229525" xlink:href="#h"/>
<use x="751.945426" y="58.229525" xlink:href="#c"/>
<use x="761.930192" y="58.229525" xlink:href="#g"/>
<use x="771.914958" y="58.229525" xlink:href="#f"/>
</g>
<g>
<use x="706.300781" y="95.584994" xlink:href="#ab"/>
<use x="717.711942" y="95.584994" xlink:href="#a"/>
<use x="727.696709" y="95.584994" xlink:href="#f"/>
<use x="733.402289" y="95.584994" xlink:href="#aa"/>
<use x="741.96066" y="95.584994" xlink:href="#h"/>
<use x="751.945426" y="95.584994" xlink:href="#c"/>
<use x="761.930192" y="95.584994" xlink:href="#g"/>
<use x="771.914958" y="95.584994" xlink:href="#f"/>
</g>
<g>
<use x="692.75" y="132.940462" xlink:href="#z"/>
<use x="705.587556" y="132.940462" xlink:href="#a"/>
<use x="715.572322" y="132.940462" xlink:href="#d"/>
<use x="719.851508" y="132.940462" xlink:href="#y"/>
<use x="729.836274" y="132.940462" xlink:href="#a"/>
<use x="739.82104" y="132.940462" xlink:href="#b"/>
<use x="746.953016" y="132.940462" xlink:href="#q"/>
<use x="751.232201" y="132.940462" xlink:href="#p"/>
<use x="759.790572" y="132.940462" xlink:href="#d"/>
<use x="764.069758" y="132.940462" xlink:href="#a"/>
<use x="774.054524" y="132.940462" xlink:href="#o"/>
<use x="782.612895" y="132.940462" xlink:href="#i"/>
</g>
<g>
<use x="691.324219" y="170.295931" xlink:href="#x"/>
<use x="702.73538" y="170.295931" xlink:href="#d"/>
<use x="707.014565" y="170.295931" xlink:href="#j"/>
<use x="711.293751" y="170.295931" xlink:href="#e"/>
<use x="721.278517" y="170.295931" xlink:href="#l"/>
<use x="731.263283" y="170.295931" xlink:href="#a"/>
<use x="741.248049" y="170.295931" xlink:href="#b"/>
<use x="748.380025" y="170.295931" xlink:href="#q"/>
<use x="752.65921" y="170.295931" xlink:href="#p"/>
<use x="761.217581" y="170.295931" xlink:href="#d"/>
<use x="765.496767" y="170.295931" xlink:href="#a"/>
<use x="775.481533" y="170.295931" xlink:href="#o"/>
<use x="784.039904" y="170.295931" xlink:href="#i"/>
</g>
<g>
<use x="708.441406" y="207.655306" xlink:href="#r"/>
<use x="718.426172" y="207.655306" xlink:href="#a"/>
<use x="728.410938" y="207.655306" xlink:href="#h"/>
<use x="738.395704" y="207.655306" xlink:href="#e"/>
<use x="748.380471" y="207.655306" xlink:href="#a"/>
<use x="758.365237" y="207.655306" xlink:href="#b"/>
<use x="765.497212" y="207.655306" xlink:href="#w"/>
</g>
<path transform="matrix(1.4264 0 0 1.427 15.671 -8.8942)" d="m85.366 20.862 98.456 65.025" fill="none" stroke="#000"/>
<path transform="matrix(.47609 .31457 -.31444 .47629 281.08 116.47)" d="m-2.5009-0.99777c-9.98e-4 2.7564-2.2382 4.9967-5.0007 5.0005-2.7568 3.3e-5 -5.0004-2.2416-4.9994-4.998 0.002939-2.7658 2.2401-5.0061 5.0007-5.0005 2.7625-0.003807 4.9966 2.2359 4.9994 4.998z" fill-rule="evenodd" stroke="#000" stroke-width="1.25"/>
<path transform="matrix(1.4264 0 0 1.427 15.671 -8.8942)" d="m85.366 47.04 78.476 34.924" fill="none" stroke="#000"/>
<path transform="matrix(.52127 .23207 -.23198 .52148 253 110.3)" d="m-2.4991-0.99844c-0.001856 2.7574-2.2421 4.9978-5.0002 4.9968s-4.9985-2.24-4.9966-4.9974c-0.007181-2.7609 2.2331-5.0013 4.9975-5.003 2.7581 0.001022 4.9985 2.24 4.9994 5.0036z" fill-rule="evenodd" stroke="#000" stroke-width="1.25"/>
<path transform="matrix(1.4264 0 0 1.427 15.671 -8.8942)" d="m85.366 73.218 61.976 23.233" fill="none" stroke="#000"/>
<path transform="matrix(.53425 .20036 -.20028 .53447 229.59 130.76)" d="m-2.4991-0.997c0.00175 2.7547-2.2423 4.9992-5.0003 4.9953-2.762 0.004889-5.0002-2.2403-5.0019-4.995 0.002259-2.7635 2.2399-5.0056 5.0043-5.0041 2.758 0.003922 5.0002 2.2403 4.9979 5.0038z" fill-rule="evenodd" stroke="#000" stroke-width="1.25"/>
<path transform="matrix(1.4264 0 0 1.427 15.671 -8.8942)" d="m85.366 99.396 98.875 28.508" fill="none" stroke="#000"/>
<path transform="matrix(.54822 .15813 -.15807 .54845 282.37 175.34)" d="m-2.5004-0.99872c-0.00304 2.7572-2.2426 4.9984-5.0008 4.9959-2.7563 0.004134-4.9977-2.2342-4.9966-4.998-0.003538-2.7553 2.236-4.9965 4.9989-5.0025 2.7582 0.002442 4.9996 2.2407 4.9985 5.0045z" fill-rule="evenodd" stroke="#000" stroke-width="1.25"/>
<path transform="matrix(1.4264 0 0 1.427 15.671 -8.8942)" d="m85.366 125.57 79.703 2.7648" fill="none" stroke="#000"/>
<path transform="matrix(.57022 .019788 -.01978 .57045 255.33 174.96)" d="m-2.4968-1.0003c-1.79e-4 2.7596-2.2447 5.0014-5.0055 5.0013-2.7607-1.02e-4 -4.9965-2.2439-4.9963-5.0035s2.2381-4.9943 4.9989-4.9942c2.7607 1.02e-4 5.0031 2.2368 5.0029 4.9965z" fill-rule="evenodd" stroke="#000" stroke-width="1.25"/>
<path transform="matrix(1.4264 0 0 1.427 15.671 -8.8942)" d="m85.366 151.75h82.351" fill="none" stroke="#000"/>
<path transform="matrix(.57056 0 0 .57079 259.12 208.22)" d="m-2.5017-1.0023c0 2.7648-2.2388 5.0027-4.9978 5.0027s-4.9978-2.2379-4.9978-5.0027c0-2.758 2.2388-4.9958 4.9978-4.9958s4.9978 2.2379 4.9978 4.9958z" fill-rule="evenodd" stroke="#000" stroke-width="1.25"/>
<path transform="matrix(1.4264 0 0 1.427 15.671 -8.8942)" d="m85.366 177.93 70.244-20.347" fill="none" stroke="#000"/>
<path transform="matrix(.54802 -.15882 .15876 .54825 241.85 215.35)" d="m-2.5021-0.99827c-4.37e-4 2.7572-2.24 5.0012-4.9982 5.0001-2.7582-0.001037-5.0034-2.2403-5.001-5.0041 4.37e-4 -2.7572 2.24-5.0012 5.0048-4.9982 2.7582 0.001037 4.9968 2.2384 4.9945 5.0022z" fill-rule="evenodd" stroke="#000" stroke-width="1.25"/>
<path transform="matrix(1.4264 0 0 1.427 15.671 -8.8942)" d="m85.366 204.11 89.145-38.286" fill="none" stroke="#000"/>
<path transform="matrix(.52425 -.22525 .22516 .52446 268.7 226.59)" d="m-2.5011-1.0007c-0.001727 2.7625-2.2387 5.0044-5.002 5.0019-2.757 1.6e-4 -4.9975-2.2432-4.9984-4.9994 0.001727-2.7625 2.245-5.0017 5.002-5.0019 2.757-1.6e-4 5.0002 2.2369 4.9984 4.9994z" fill-rule="evenodd" stroke="#000" stroke-width="1.25"/>
<path transform="matrix(1.4264 0 0 1.427 15.671 -8.8942)" d="m85.366 230.29 91.528-47.998" fill="none" stroke="#000"/>
<path transform="matrix(.50529 -.2651 .26499 .5055 272 249.77)" d="m-2.503-1.0017c0.005191 2.7615-2.2364 5.0015-4.9953 4.9997-2.7621 0.004265-5.0034-2.2375-5.0025-4.9958 0.004051-2.7643 2.2424-4.9983 5.0045-5.0026 2.7589 0.001795 4.9942 2.2404 4.9933 4.9987z" fill-rule="evenodd" stroke="#000" stroke-width="1.25"/>
<path transform="matrix(1.4264 0 0 1.427 15.671 -8.8942)" d="m460.66 99.396-107.07 7.5772" fill="none" stroke="#000"/>
<path transform="matrix(-.56914 .040291 -.040275 -.56937 515.79 143.48)" d="m-2.5002-0.99726c-0.002977 2.7578-2.2408 4.9938-5.0002 4.9975-2.7589-0.003133-5.0028-2.2407-4.9998-4.9985 0.003461-2.7646 2.2413-5.0006 5.0007-5.0043 2.7589 0.003134 5.0028 2.2407 4.9993 5.0053z" fill-rule="evenodd" stroke="#000" stroke-width="1.25"/>
<path transform="matrix(1.4264 0 0 1.427 15.671 -8.8942)" d="m460.66 73.749-112.22 8.5435" fill="none" stroke="#000"/>
<path transform="matrix(-.56891 .043342 -.043325 -.56914 508.44 108.29)" d="m-2.5005-1.0012c0.002721 2.7593-2.2418 5.0043-5.0017 5-2.7604 0.00255-4.9996-2.2407-4.9955-4.9995-0.002722-2.7593 2.2345-4.998 4.9949-5.0005 2.7599 0.004274 4.9996 2.2407 5.0023 5z" fill-rule="evenodd" stroke="#000" stroke-width="1.25"/>
<path transform="matrix(1.4264 0 0 1.427 15.671 -8.8942)" d="m460.66 46.076-121.73 11.007" fill="none" stroke="#000"/>
<path transform="matrix(-.56824 .051397 -.051376 -.56847 494.87 72.374)" d="m-2.4976-1.0032c-0.002257 2.7621-2.2399 5.0061-5.0032 5.0036-2.7564-0.001841-5.0014-2.2388-4.9992-5.0009 0.002258-2.7621 2.2393-4.9993 5.0026-4.9968 2.757-0.004974 4.9946 2.2382 4.9998 4.9941z" fill-rule="evenodd" stroke="#000" stroke-width="1.25"/>
<path transform="matrix(1.4264 0 0 1.427 15.671 -8.8942)" d="m460.66 20.862-136.67 9.8301" fill="none" stroke="#000"/>
<path transform="matrix(-.56909 .040948 -.040931 -.56932 473.56 34.635)" d="m-2.499-1.0001c6.72e-4 2.7583-2.2403 4.9985-4.9996 4.999s-5.0007-2.2397-5.0014-4.9979c-6.72e-4 -2.7583 2.2403-4.9985 4.9996-4.999s5.0007 2.2397 5.0014 4.9979z" fill-rule="evenodd" stroke="#000" stroke-width="1.25"/>
<path transform="matrix(1.4264 0 0 1.427 15.671 -8.8942)" d="m460.66 125.57-114.91 13.301" fill="none" stroke="#000"/>
<path transform="matrix(-.56677 .065629 -.065603 -.567 504.59 189.2)" d="m-2.5012-0.99787c-0.001906 2.7555-2.2394 4.9973-4.996 4.9951-2.7642 0.00385-4.9995-2.239-5.0044-4.9953 0.002692-2.7623 2.2402-5.0041 5.0036-5.0012 2.7566 0.00216 4.9995 2.239 4.9968 5.0013z" fill-rule="evenodd" stroke="#000" stroke-width="1.25"/>
<path transform="matrix(1.4264 0 0 1.427 15.671 -8.8942)" d="m460.66 152.28-61.297 9.0417" fill="none" stroke="#000"/>
<path transform="matrix(-.56445 .083296 -.083262 -.56468 581.06 221.36)" d="m-2.4969-0.99858c-0.005637 2.7593-2.2455 4.9953-5.0001 4.9972-2.7614 8.12e-4 -5.0053-2.2395-4.9997-4.9988-0.001136-2.7603 2.2387-4.9963 4.9934-4.9982 2.7614-8.11e-4 5.0053 2.2395 5.0065 4.9998z" fill-rule="evenodd" stroke="#000" stroke-width="1.25"/>
</svg>
