<?xml version="1.0" encoding="UTF-8"?>
<svg width="800px" height="842px" version="1.1" viewBox="0 0 800 842" xmlns="http://www.w3.org/2000/svg" xmlns:xlink="http://www.w3.org/1999/xlink">
<defs>
<symbol id="au" overflow="visible">
<path d="m12.328-20.969-8.125 12.688h8.125zm-0.84375-2.7969h4.0469v15.484h3.3906v2.6719h-3.3906v5.6094h-3.2031v-5.6094h-10.734v-3.0938z"/>
</symbol>
<symbol id="a" overflow="visible">
<path d="m10.375-21.656c-1.6562 0-2.9023 0.82031-3.7344 2.4531-0.83594 1.625-1.25 4.0742-1.25 7.3438 0 3.2617 0.41406 5.7109 1.25 7.3438 0.83203 1.625 2.0781 2.4375 3.7344 2.4375 1.6641 0 2.9141-0.8125 3.75-2.4375 0.83203-1.6328 1.25-4.082 1.25-7.3438 0-3.2695-0.41797-5.7188-1.25-7.3438-0.83594-1.6328-2.0859-2.4531-3.75-2.4531zm0-2.5469c2.6641 0 4.7031 1.0586 6.1094 3.1719 1.4062 2.1055 2.1094 5.1641 2.1094 9.1719 0 4-0.70312 7.0586-2.1094 9.1719-1.4062 2.1055-3.4453 3.1562-6.1094 3.1562-2.668 0-4.7031-1.0508-6.1094-3.1562-1.4062-2.1133-2.1094-5.1719-2.1094-9.1719 0-4.0078 0.70312-7.0664 2.1094-9.1719 1.4062-2.1133 3.4414-3.1719 6.1094-3.1719z"/>
</symbol>
<symbol id="i" overflow="visible">
<path d="m3.5156-23.766h12.641v2.7031h-9.6875v5.8281c0.46875-0.16406 0.9375-0.28516 1.4062-0.35938 0.46875-0.082031 0.92969-0.125 1.3906-0.125 2.6562 0 4.7578 0.73047 6.3125 2.1875 1.5508 1.4492 2.3281 3.418 2.3281 5.9062 0 2.5547-0.79688 4.543-2.3906 5.9688-1.5938 1.418-3.8398 2.125-6.7344 2.125-1 0-2.0234-0.089844-3.0625-0.26562-1.0312-0.16797-2.1016-0.42188-3.2031-0.76562v-3.2344c0.95703 0.52344 1.9453 0.91406 2.9688 1.1719 1.0195 0.25 2.0977 0.375 3.2344 0.375 1.832 0 3.2852-0.47656 4.3594-1.4375 1.0703-0.96875 1.6094-2.2812 1.6094-3.9375s-0.53906-2.9688-1.6094-3.9375c-1.0742-0.96875-2.5273-1.4531-4.3594-1.4531-0.86719 0-1.7266 0.10156-2.5781 0.29688-0.85547 0.1875-1.7305 0.48438-2.625 0.89062z"/>
</symbol>
<symbol id="an" overflow="visible">
<path d="m10.766-13.172c-1.4375 0-2.5859 0.49609-3.4375 1.4844-0.84375 0.99219-1.2656 2.3438-1.2656 4.0625 0 1.7109 0.42188 3.0625 1.2656 4.0625 0.85156 0.99219 2 1.4844 3.4375 1.4844 1.4453 0 2.5938-0.49219 3.4375-1.4844 0.84375-1 1.2656-2.3516 1.2656-4.0625 0-1.7188-0.42188-3.0703-1.2656-4.0625-0.84375-0.98828-1.9922-1.4844-3.4375-1.4844zm6.3906-10.078v2.9375c-0.80469-0.38281-1.6172-0.67578-2.4375-0.875-0.82422-0.20703-1.6406-0.3125-2.4531-0.3125-2.125 0-3.75 0.71875-4.875 2.1562-1.1172 1.4297-1.75 3.5938-1.9062 6.5 0.625-0.92578 1.4062-1.6328 2.3438-2.125 0.94531-0.5 1.9883-0.75 3.125-0.75 2.3945 0 4.2852 0.72656 5.6719 2.1719 1.3828 1.4492 2.0781 3.4219 2.0781 5.9219 0 2.4375-0.72656 4.3984-2.1719 5.875-1.4375 1.4805-3.3594 2.2188-5.7656 2.2188-2.75 0-4.8555-1.0508-6.3125-3.1562-1.4492-2.1133-2.1719-5.1719-2.1719-9.1719 0-3.7578 0.89062-6.7539 2.6719-8.9844 1.7812-2.2383 4.1758-3.3594 7.1875-3.3594 0.80078 0 1.6133 0.085937 2.4375 0.25 0.82031 0.15625 1.6797 0.39062 2.5781 0.70312z"/>
</symbol>
<symbol id="t" overflow="visible">
<path d="m4.0469-2.7031h5.25v-18.141l-5.7188 1.1406v-2.9219l5.6875-1.1406h3.2188v21.062h5.2656v2.7031h-13.703z"/>
</symbol>
<symbol id="am" overflow="visible">
<path d="m6.2656-2.7031h11.219v2.7031h-15.094v-2.7031c1.2188-1.2695 2.8789-2.9688 4.9844-5.0938 2.1133-2.125 3.4414-3.4922 3.9844-4.1094 1.0312-1.1562 1.75-2.1328 2.1562-2.9375 0.40625-0.80078 0.60938-1.5938 0.60938-2.375 0-1.2578-0.44531-2.2852-1.3281-3.0781-0.88672-0.80078-2.043-1.2031-3.4688-1.2031-1 0-2.0625 0.17969-3.1875 0.53125-1.125 0.35547-2.3242 0.88672-3.5938 1.5938v-3.25c1.3008-0.51953 2.5156-0.91016 3.6406-1.1719 1.125-0.26953 2.1484-0.40625 3.0781-0.40625 2.4688 0 4.4297 0.61719 5.8906 1.8438 1.4688 1.2305 2.2031 2.875 2.2031 4.9375 0 0.98047-0.18359 1.9062-0.54688 2.7812-0.36719 0.875-1.0312 1.9062-2 3.0938-0.26172 0.3125-1.1055 1.2031-2.5312 2.6719-1.4297 1.4688-3.4336 3.5273-6.0156 6.1719z"/>
</symbol>
<symbol id="al" overflow="visible">
<path d="m1.0781-23.766h3.25l5 20.094 5-20.094h3.6094l5 20.094 4.9844-20.094h3.2656l-5.9688 23.766h-4.0469l-5.0156-20.641-5.0625 20.641h-4.0469z"/>
</symbol>
<symbol id="h" overflow="visible">
<path d="m18.328-9.6562v1.4375h-13.469c0.125 2.0234 0.72656 3.5625 1.8125 4.625 1.0938 1.0547 2.6133 1.5781 4.5625 1.5781 1.125 0 2.2109-0.13281 3.2656-0.40625 1.0625-0.28125 2.1133-0.69531 3.1562-1.25v2.7656c-1.0547 0.44922-2.1328 0.78906-3.2344 1.0156-1.1055 0.23828-2.2266 0.35938-3.3594 0.35938-2.8555 0-5.1172-0.82812-6.7812-2.4844-1.6562-1.6562-2.4844-3.8945-2.4844-6.7188 0-2.9258 0.78516-5.2422 2.3594-6.9531 1.582-1.7188 3.7109-2.5781 6.3906-2.5781 2.3945 0 4.2891 0.77734 5.6875 2.3281 1.3945 1.543 2.0938 3.6367 2.0938 6.2812zm-2.9219-0.85938c-0.023438-1.5938-0.46875-2.8672-1.3438-3.8281-0.875-0.95703-2.0391-1.4375-3.4844-1.4375-1.6367 0-2.9492 0.46484-3.9375 1.3906-0.98047 0.91797-1.543 2.2148-1.6875 3.8906z"/>
</symbol>
<symbol id="g" overflow="visible">
<path d="m3.0781-24.781h2.9219v24.781h-2.9219z"/>
</symbol>
<symbol id="j" overflow="visible">
<path d="m17.906-10.766v10.766h-2.9375v-10.672c0-1.6875-0.32812-2.9453-0.98438-3.7812-0.65625-0.84375-1.6406-1.2656-2.9531-1.2656-1.5859 0-2.8359 0.50781-3.75 1.5156-0.91797 1.0117-1.375 2.3867-1.375 4.125v10.078h-2.9375v-17.828h2.9375v2.7656c0.70703-1.0703 1.5352-1.875 2.4844-2.4062 0.94531-0.53125 2.0391-0.79688 3.2812-0.79688 2.0508 0 3.6016 0.63672 4.6562 1.9062 1.0508 1.2734 1.5781 3.1367 1.5781 5.5938z"/>
</symbol>
<symbol id="at" overflow="visible">
<path d="m11.188-8.9688c-2.375 0-4.0234 0.27344-4.9375 0.8125-0.90625 0.54297-1.3594 1.4688-1.3594 2.7812 0 1.0312 0.34375 1.8555 1.0312 2.4688 0.6875 0.61719 1.6172 0.92188 2.7969 0.92188 1.625 0 2.9258-0.57812 3.9062-1.7344 0.97656-1.1562 1.4688-2.6875 1.4688-4.5938v-0.65625zm5.8438-1.2031v10.172h-2.9375v-2.7031c-0.66797 1.0859-1.5 1.8867-2.5 2.4062-1 0.50781-2.2188 0.76562-3.6562 0.76562-1.8359 0-3.293-0.50781-4.375-1.5312-1.0742-1.0312-1.6094-2.4062-1.6094-4.125 0-2.0078 0.67188-3.5195 2.0156-4.5312 1.3438-1.0195 3.3477-1.5312 6.0156-1.5312h4.1094v-0.29688c0-1.3438-0.44531-2.3828-1.3281-3.125-0.88672-0.73828-2.1328-1.1094-3.7344-1.1094-1.0234 0-2.0156 0.125-2.9844 0.375-0.96094 0.24219-1.8867 0.60547-2.7812 1.0938v-2.7031c1.0703-0.41406 2.1133-0.72656 3.125-0.9375 1.0078-0.20703 1.9883-0.3125 2.9375-0.3125 2.582 0 4.5078 0.67188 5.7812 2.0156 1.2812 1.3359 1.9219 3.3594 1.9219 6.0781zm-6.0625-14.547h3.2344v3.2188h-3.2344zm-6.2344 0h3.2344v3.2188h-3.2344z"/>
</symbol>
<symbol id="as" overflow="visible">
<path d="m14.812-9.125c0-2.125-0.4375-3.7695-1.3125-4.9375-0.875-1.1641-2.1055-1.75-3.6875-1.75-1.5742 0-2.7969 0.58594-3.6719 1.75-0.875 1.168-1.3125 2.8125-1.3125 4.9375 0 2.1172 0.4375 3.7578 1.3125 4.9219 0.875 1.168 2.0977 1.75 3.6719 1.75 1.582 0 2.8125-0.58203 3.6875-1.75 0.875-1.1641 1.3125-2.8047 1.3125-4.9219zm2.9375 6.9062c0 3.0391-0.67969 5.3008-2.0312 6.7812-1.3438 1.4766-3.4062 2.2188-6.1875 2.2188-1.0312 0-2.0078-0.078125-2.9219-0.23438-0.91797-0.14844-1.8047-0.38281-2.6562-0.70312v-2.8438c0.85156 0.45703 1.7031 0.79688 2.5469 1.0156 0.84375 0.22656 1.6953 0.34375 2.5625 0.34375 1.9258 0 3.3633-0.5 4.3125-1.5 0.95703-1 1.4375-2.5156 1.4375-4.5469v-1.4531c-0.60547 1.0547-1.3828 1.8398-2.3281 2.3594-0.9375 0.52344-2.0703 0.78125-3.3906 0.78125-2.1875 0-3.9531-0.83203-5.2969-2.5-1.3359-1.6641-2-3.875-2-6.625 0-2.7578 0.66406-4.9727 2-6.6406 1.3438-1.6641 3.1094-2.5 5.2969-2.5 1.3203 0 2.4531 0.26172 3.3906 0.78125 0.94531 0.52344 1.7227 1.3086 2.3281 2.3594v-2.7031h2.9375z"/>
</symbol>
<symbol id="ar" overflow="visible"></symbol>
<symbol id="aq" overflow="visible">
<path d="m2.7969-24.781h6.7656v2.2812h-3.8281v24.516h3.8281v2.2812h-6.7656z"/>
</symbol>
<symbol id="ap" overflow="visible">
<path d="m16.969-14.406c0.72656-1.3203 1.6016-2.2969 2.625-2.9219 1.0195-0.625 2.2188-0.9375 3.5938-0.9375 1.8633 0 3.3008 0.65234 4.3125 1.9531 1.0078 1.3047 1.5156 3.1523 1.5156 5.5469v10.766h-2.9531v-10.672c0-1.707-0.30469-2.9727-0.90625-3.7969-0.60547-0.83203-1.5312-1.25-2.7812-1.25-1.5117 0-2.7109 0.50781-3.5938 1.5156-0.88672 1.0117-1.3281 2.3867-1.3281 4.125v10.078h-2.9375v-10.672c0-1.7188-0.30469-2.9883-0.90625-3.8125-0.60547-0.82031-1.543-1.2344-2.8125-1.2344-1.5 0-2.6953 0.51172-3.5781 1.5312-0.875 1.0117-1.3125 2.3828-1.3125 4.1094v10.078h-2.9375v-17.828h2.9375v2.7656c0.66406-1.0938 1.4688-1.8984 2.4062-2.4219 0.9375-0.51953 2.0469-0.78125 3.3281-0.78125 1.3008 0 2.4062 0.33594 3.3125 1 0.90625 0.65625 1.5781 1.6094 2.0156 2.8594z"/>
</symbol>
<symbol id="ao" overflow="visible">
<path d="m9.9219-24.781v29.078h-6.75v-2.2812h3.8125v-24.516h-3.8125v-2.2812z"/>
</symbol>
<symbol id="ak" overflow="visible">
<path d="m-20.609-11.141 11.828 4.3594v-8.75zm-3.1719 1.8125v-3.6562l23.781-9.0469v3.3438l-6.0938 2.1562v10.719l6.0938 2.1719v3.3906z"/>
</symbol>
<symbol id="ag" overflow="visible">
<path d="m-8.9062-15.875c-2.1562 0-3.8438 0.44531-5.0625 1.3281-1.2266 0.88672-1.8438 2.1055-1.8438 3.6562 0 1.5547 0.61719 2.7734 1.8438 3.6562 1.2188 0.88672 2.9062 1.3281 5.0625 1.3281s3.8516-0.44141 5.0781-1.3281c1.2305-0.88281 1.8438-2.1016 1.8438-3.6562 0-1.5508-0.61328-2.7695-1.8438-3.6562-1.2266-0.88281-2.9219-1.3281-5.0781-1.3281zm-6.2344 9.9688c-1.0625-0.61328-1.8477-1.3906-2.3594-2.3281-0.50781-0.94531-0.76562-2.0703-0.76562-3.375 0-2.1641 0.85938-3.9258 2.5781-5.2812 1.7188-1.3516 3.9805-2.0312 6.7812-2.0312 2.8047 0 5.0703 0.67969 6.7969 2.0312 1.7188 1.3555 2.5781 3.1172 2.5781 5.2812 0 1.3047-0.25781 2.4297-0.76562 3.375-0.51953 0.9375-1.3125 1.7148-2.375 2.3281h2.6719v2.9375h-24.781v-2.9375z"/>
</symbol>
<symbol id="n" overflow="visible">
<path d="m-17.312-14.438h2.7656c-0.42578 0.82422-0.74219 1.6836-0.95312 2.5781-0.20703 0.88672-0.3125 1.8086-0.3125 2.7656 0 1.4609 0.22656 2.5547 0.67188 3.2812 0.4375 0.71875 1.1055 1.0781 2 1.0781 0.67969 0 1.2148-0.25781 1.6094-0.78125 0.38672-0.51953 0.75-1.5625 1.0938-3.125l0.21875-1.0156c0.44922-2.0703 1.0781-3.5469 1.8906-4.4219s1.9492-1.3125 3.4062-1.3125c1.6562 0 2.9688 0.65625 3.9375 1.9688 0.96875 1.3047 1.4531 3.1016 1.4531 5.3906 0 0.96094-0.09375 1.9609-0.28125 3-0.1875 1.0312-0.46875 2.1211-0.84375 3.2656h-3.0312c0.57422-1.082 1-2.1484 1.2812-3.2031 0.28125-1.0508 0.42188-2.0938 0.42188-3.125 0-1.375-0.23438-2.4297-0.70312-3.1719-0.47656-0.75-1.1484-1.125-2.0156-1.125-0.78906 0-1.3984 0.27344-1.8281 0.8125-0.42578 0.53125-0.83594 1.7031-1.2344 3.5156l-0.23438 1.0312c-0.38281 1.8125-0.96875 3.125-1.75 3.9375-0.78906 0.80469-1.8789 1.2031-3.2656 1.2031-1.6758 0-2.9688-0.59375-3.875-1.7812-0.91406-1.1953-1.375-2.8828-1.375-5.0625 0-1.082 0.078125-2.1016 0.23438-3.0625 0.15625-0.95703 0.39844-1.8359 0.71875-2.6406z"/>
</symbol>
<symbol id="m" overflow="visible">
<path d="m-15.781-9.9844c0 1.5742 0.61719 2.8203 1.8438 3.7344 1.2188 0.90625 2.8984 1.3594 5.0312 1.3594 2.1367 0 3.8203-0.45312 5.0469-1.3594 1.2305-0.90625 1.8438-2.1484 1.8438-3.7344 0-1.5625-0.61328-2.7969-1.8438-3.7031-1.2383-0.91406-2.9219-1.375-5.0469-1.375-2.1133 0-3.7852 0.46094-5.0156 1.375-1.2383 0.90625-1.8594 2.1406-1.8594 3.7031zm-2.4844 0c0-2.5508 0.82812-4.5508 2.4844-6 1.6562-1.457 3.9492-2.1875 6.875-2.1875 2.918 0 5.2109 0.73047 6.875 2.1875 1.668 1.4492 2.5 3.4492 2.5 6 0 2.5625-0.83203 4.5703-2.5 6.0156-1.6641 1.4492-3.957 2.1719-6.875 2.1719-2.9258 0-5.2188-0.72266-6.875-2.1719-1.6562-1.4453-2.4844-3.4531-2.4844-6.0156z"/>
</symbol>
<symbol id="l" overflow="visible">
<path d="m-15.109-13.406c-0.1875 0.33594-0.32031 0.69531-0.40625 1.0781-0.09375 0.38672-0.14062 0.8125-0.14062 1.2812 0 1.6562 0.54297 2.9297 1.625 3.8125 1.0742 0.88672 2.6172 1.3281 4.625 1.3281h9.4062v2.9375h-17.844v-2.9375h2.7812c-1.082-0.61328-1.8828-1.4141-2.4062-2.4062-0.53125-0.98828-0.79688-2.1875-0.79688-3.5938 0-0.20703 0.015625-0.42969 0.046875-0.67188 0.023438-0.23828 0.058594-0.50781 0.10938-0.8125z"/>
</symbol>
<symbol id="ad" overflow="visible">
<path d="m-2.6719-5.9062h9.4531v2.9375h-24.625v-2.9375h2.7031c-1.0625-0.61328-1.8477-1.3906-2.3594-2.3281-0.50781-0.94531-0.76562-2.0703-0.76562-3.375 0-2.1641 0.85938-3.9258 2.5781-5.2812 1.7188-1.3516 3.9805-2.0312 6.7812-2.0312 2.8047 0 5.0703 0.67969 6.7969 2.0312 1.7188 1.3555 2.5781 3.1172 2.5781 5.2812 0 1.3047-0.25781 2.4297-0.76562 3.375-0.51953 0.9375-1.3125 1.7148-2.375 2.3281zm-6.2344-9.9688c-2.1562 0-3.8438 0.44531-5.0625 1.3281-1.2266 0.88672-1.8438 2.1055-1.8438 3.6562 0 1.5547 0.61719 2.7734 1.8438 3.6562 1.2188 0.88672 2.9062 1.3281 5.0625 1.3281s3.8516-0.44141 5.0781-1.3281c1.2305-0.88281 1.8438-2.1016 1.8438-3.6562 0-1.5508-0.61328-2.7695-1.8438-3.6562-1.2266-0.88281-2.9219-1.3281-5.0781-1.3281z"/>
</symbol>
<symbol id="f" overflow="visible">
<path d="m-22.906-5.9688h5.0625v-6.0312h2.2812v6.0312h9.6875c1.4492 0 2.3828-0.19531 2.7969-0.59375 0.41797-0.40625 0.625-1.2188 0.625-2.4375v-3h2.4531v3c0 2.2617-0.42188 3.8242-1.2656 4.6875-0.84375 0.85547-2.3789 1.2812-4.6094 1.2812h-9.6875v2.1562h-2.2812v-2.1562h-5.0625z"/>
</symbol>
<symbol id="e" overflow="visible">
<path d="m-17.844-3.0781v-2.9219h17.844v2.9219zm-6.9375 0v-2.9219h3.7031v2.9219z"/>
</symbol>
<symbol id="c" overflow="visible">
<path d="m-10.766-17.891h10.766v2.9219h-10.672c-1.6875 0-2.9453 0.32812-3.7812 0.98438-0.84375 0.65625-1.2656 1.6484-1.2656 2.9688 0 1.5859 0.50781 2.8359 1.5156 3.75 1 0.90625 2.375 1.3594 4.125 1.3594h10.078v2.9375h-17.844v-2.9375h2.7812c-1.0703-0.69531-1.875-1.5195-2.4062-2.4688-0.53125-0.95703-0.79688-2.0547-0.79688-3.2969 0-2.0508 0.63672-3.5977 1.9062-4.6406 1.2617-1.0508 3.125-1.5781 5.5938-1.5781z"/>
</symbol>
<symbol id="d" overflow="visible"></symbol>
<symbol id="aj" overflow="visible">
<path d="m-10.469-23.703c0 0.91797 0.39844 1.6406 1.1875 2.1719 0.78125 0.52344 1.875 0.78125 3.2812 0.78125 1.375 0 2.4609-0.25781 3.25-0.78125 0.79297-0.53125 1.1875-1.2539 1.1875-2.1719 0-0.90625-0.39453-1.6172-1.1875-2.1406-0.78906-0.53125-1.875-0.79688-3.25-0.79688-1.3945 0-2.4883 0.26562-3.2812 0.79688-0.78906 0.52344-1.1875 1.2344-1.1875 2.1406zm-2.0156 0c0-1.6758 0.58594-3.0078 1.75-4 1.168-0.98828 2.7461-1.4844 4.7344-1.4844 1.9805 0 3.5547 0.5 4.7188 1.5 1.168 0.99219 1.75 2.3203 1.75 3.9844 0 1.6992-0.58203 3.043-1.75 4.0312-1.1641 0.98047-2.7383 1.4688-4.7188 1.4688-2 0-3.5781-0.49219-4.7344-1.4844-1.1641-0.98828-1.75-2.3281-1.75-4.0156zm-9.7031 16.422c0 0.91797 0.39844 1.6406 1.1875 2.1719 0.79297 0.52344 1.875 0.78125 3.25 0.78125 1.4062 0 2.5078-0.25781 3.2969-0.78125 0.78125-0.51953 1.1719-1.2422 1.1719-2.1719 0-0.91406-0.39062-1.6328-1.1719-2.1562-0.78906-0.53125-1.8906-0.79688-3.2969-0.79688-1.3633 0-2.4414 0.26562-3.2344 0.79688-0.80078 0.53125-1.2031 1.25-1.2031 2.1562zm-2.0312-14.375v-2.5469l24.688 14.875v2.5469zm0 14.375c0-1.6758 0.58594-3.0078 1.75-4 1.168-1 2.7422-1.5 4.7188-1.5 2.0117 0 3.5938 0.49609 4.75 1.4844 1.1562 0.99219 1.7344 2.3281 1.7344 4.0156s-0.57812 3.0273-1.7344 4.0156c-1.1641 0.98047-2.75 1.4688-4.75 1.4688-1.9688 0-3.5352-0.49219-4.7031-1.4844-1.1758-0.98828-1.7656-2.3203-1.7656-4z"/>
</symbol>
<symbol id="s" overflow="visible">
<path d="m-15.141-14.812h-9.6406v-2.9219h24.781v2.9219h-2.6719c1.0625 0.61719 1.8555 1.3984 2.375 2.3438 0.50781 0.9375 0.76562 2.0625 0.76562 3.375 0 2.1562-0.85938 3.9141-2.5781 5.2656-1.7266 1.3555-3.9922 2.0312-6.7969 2.0312-2.8008 0-5.0625-0.67578-6.7812-2.0312-1.7188-1.3516-2.5781-3.1094-2.5781-5.2656 0-1.3125 0.25781-2.4375 0.76562-3.375 0.51172-0.94531 1.2969-1.7266 2.3594-2.3438zm6.2344 9.9844c2.1562 0 3.8516-0.44141 5.0781-1.3281 1.2305-0.88281 1.8438-2.1016 1.8438-3.6562 0-1.5508-0.61328-2.7695-1.8438-3.6562-1.2266-0.89453-2.9219-1.3438-5.0781-1.3438s-3.8438 0.44922-5.0625 1.3438c-1.2266 0.88672-1.8438 2.1055-1.8438 3.6562 0 1.5547 0.61719 2.7734 1.8438 3.6562 1.2188 0.88672 2.9062 1.3281 5.0625 1.3281z"/>
</symbol>
<symbol id="b" overflow="visible">
<path d="m-9.6562-18.328h1.4375v13.469c2.0234-0.125 3.5625-0.72656 4.625-1.8125 1.0547-1.0938 1.5781-2.6094 1.5781-4.5469 0-1.125-0.13281-2.2109-0.40625-3.2656-0.28125-1.0625-0.70312-2.1133-1.2656-3.1562h2.7812c0.44922 1.0547 0.78906 2.1328 1.0156 3.2344 0.23828 1.1055 0.35938 2.2266 0.35938 3.3594 0 2.8438-0.82812 5.1016-2.4844 6.7656-1.6641 1.6562-3.9102 2.4844-6.7344 2.4844-2.9141 0-5.2266-0.78516-6.9375-2.3594-1.7188-1.582-2.5781-3.7109-2.5781-6.3906 0-2.3945 0.77344-4.2891 2.3125-5.6875 1.543-1.3945 3.6406-2.0938 6.2969-2.0938zm-0.85938 2.9375c-1.6016 0.023437-2.8789 0.46875-3.8281 1.3438-0.95703 0.875-1.4375 2.0312-1.4375 3.4688 0 1.6367 0.46484 2.9492 1.3906 3.9375 0.91797 0.98047 2.2148 1.543 3.8906 1.6875z"/>
</symbol>
<symbol id="r" overflow="visible">
<path d="m-9.125-14.812c-2.125 0-3.7695 0.4375-4.9375 1.3125-1.1641 0.875-1.75 2.1055-1.75 3.6875 0 1.5742 0.58594 2.7969 1.75 3.6719 1.168 0.875 2.8125 1.3125 4.9375 1.3125 2.1172 0 3.7578-0.4375 4.9219-1.3125 1.168-0.875 1.75-2.0977 1.75-3.6719 0-1.582-0.58203-2.8125-1.75-3.6875-1.1641-0.875-2.8047-1.3125-4.9219-1.3125zm6.9062-2.9219c3.0391 0 5.3008 0.67969 6.7812 2.0312 1.4766 1.3438 2.2188 3.4062 2.2188 6.1875 0 1.0234-0.078125 1.9922-0.23438 2.9062-0.14844 0.91797-0.38281 1.8047-0.70312 2.6562h-2.8438c0.46875-0.85156 0.8125-1.6953 1.0312-2.5312 0.21875-0.84375 0.32812-1.7031 0.32812-2.5781 0-1.9141-0.5-3.3516-1.5-4.3125-1-0.95703-2.5156-1.4375-4.5469-1.4375h-1.4531c1.0547 0.60547 1.8398 1.3828 2.3594 2.3281 0.52344 0.94922 0.78125 2.0781 0.78125 3.3906 0 2.1875-0.83203 3.9531-2.5 5.2969-1.6641 1.3359-3.875 2-6.625 2-2.7578 0-4.9727-0.66406-6.6406-2-1.6641-1.3438-2.5-3.1094-2.5-5.2969 0-1.3125 0.26172-2.4414 0.78125-3.3906 0.52344-0.94531 1.3047-1.7227 2.3438-2.3281h-2.7031v-2.9219z"/>
</symbol>
<symbol id="q" overflow="visible">
<path d="m-8.9688-11.172c0 2.3672 0.27344 4.0078 0.8125 4.9219 0.54297 0.90625 1.4648 1.3594 2.7656 1.3594 1.043 0 1.8711-0.33594 2.4844-1.0156 0.61719-0.6875 0.92188-1.6172 0.92188-2.7969 0-1.625-0.57812-2.9258-1.7344-3.9062-1.1562-0.98828-2.6875-1.4844-4.5938-1.4844h-0.65625zm-1.2031-5.8438h10.172v2.9219h-2.7031c1.0859 0.66797 1.8867 1.5 2.4062 2.5 0.50781 1 0.76562 2.2266 0.76562 3.6719 0 1.8242-0.50781 3.2773-1.5312 4.3594-1.0312 1.0742-2.4062 1.6094-4.125 1.6094-2.0078 0-3.5234-0.67188-4.5469-2.0156-1.0195-1.3438-1.5312-3.3477-1.5312-6.0156v-4.1094h-0.28125c-1.3516 0-2.3945 0.44531-3.125 1.3281-0.73828 0.88672-1.1094 2.1328-1.1094 3.7344 0 1.0234 0.125 2.0156 0.375 2.9844 0.24219 0.96094 0.60156 1.8867 1.0781 2.7812h-2.7031c-0.41406-1.0703-0.72266-2.1094-0.92188-3.1094-0.20703-1.0078-0.3125-1.9922-0.3125-2.9531 0-2.582 0.67188-4.5078 2.0156-5.7812 1.3359-1.2695 3.3594-1.9062 6.0781-1.9062z"/>
</symbol>
<symbol id="p" overflow="visible">
<path d="m-14.422-16.953c-1.3125-0.73828-2.2812-1.6133-2.9062-2.625-0.625-1.0195-0.9375-2.2227-0.9375-3.6094 0-1.8516 0.65234-3.2852 1.9531-4.2969 1.293-1.0078 3.1406-1.5156 5.5469-1.5156h10.766v2.9531h-10.672c-1.707 0-2.9727 0.30469-3.7969 0.90625-0.83203 0.60547-1.25 1.5273-1.25 2.7656 0 1.5234 0.50781 2.7266 1.5156 3.6094 1 0.875 2.375 1.3125 4.125 1.3125h10.078v2.9531h-10.672c-1.7188 0-2.9883 0.30469-3.8125 0.90625-0.82031 0.60547-1.2344 1.5391-1.2344 2.7969 0 1.5 0.50781 2.6953 1.5156 3.5781 1.0117 0.875 2.3867 1.3125 4.125 1.3125h10.078v2.9375h-17.844v-2.9375h2.7812c-1.0938-0.66406-1.8984-1.4688-2.4219-2.4062-0.51953-0.9375-0.78125-2.0469-0.78125-3.3281 0-1.2891 0.32812-2.3906 0.98438-3.2969 0.65625-0.91406 1.6094-1.5859 2.8594-2.0156z"/>
</symbol>
<symbol id="ai" overflow="visible">
<path d="m-24.781-12.094h2.4375v2.7969c0 1.0547 0.21484 1.7812 0.64062 2.1875 0.41797 0.40625 1.1797 0.60938 2.2812 0.60938h1.5781v-4.8281h2.2812v4.8281h15.562v2.9531h-15.562v2.7969h-2.2812v-2.7969h-1.2344c-1.9883 0-3.4375-0.46094-4.3438-1.3906-0.90625-0.92578-1.3594-2.3906-1.3594-4.3906z"/>
</symbol>
<symbol id="o" overflow="visible">
<path d="m-24.781-3.0781v-2.9219h24.781v2.9219z"/>
</symbol>
<symbol id="ah" overflow="visible">
<path d="m-23.781-3.2031v-3.2188h21.078v-11.578h2.7031v14.797z"/>
</symbol>
<symbol id="af" overflow="visible">
<path d="m-17.156-15.906h2.7344c-0.45703 0.82422-0.79688 1.6523-1.0156 2.4844-0.22656 0.83594-0.34375 1.6797-0.34375 2.5312 0 1.8984 0.60547 3.3711 1.8125 4.4219 1.1992 1.0547 2.8867 1.5781 5.0625 1.5781 2.1797 0 3.8711-0.52344 5.0781-1.5781 1.2109-1.0508 1.8125-2.5234 1.8125-4.4219 0-0.85156-0.11328-1.6953-0.34375-2.5312-0.22656-0.83203-0.57031-1.6602-1.0312-2.4844h2.7031c0.38672 0.8125 0.67188 1.6641 0.85938 2.5469 0.19531 0.875 0.29688 1.8047 0.29688 2.7812 0 2.6875-0.84375 4.8242-2.5312 6.4062-1.6953 1.5859-3.9766 2.375-6.8438 2.375-2.9062 0-5.1914-0.79688-6.8594-2.3906-1.6641-1.6016-2.5-3.7969-2.5-6.5781 0-0.89453 0.09375-1.7734 0.28125-2.6406 0.17969-0.86328 0.45312-1.6953 0.82812-2.5z"/>
</symbol>
<symbol id="ae" overflow="visible">
<path d="m-10.766-17.891h10.766v2.9219h-10.672c-1.6875 0-2.9453 0.32812-3.7812 0.98438-0.84375 0.65625-1.2656 1.6484-1.2656 2.9688 0 1.5859 0.50781 2.8359 1.5156 3.75 1 0.90625 2.375 1.3594 4.125 1.3594h10.078v2.9375h-24.781v-2.9375h9.7188c-1.0703-0.69531-1.875-1.5195-2.4062-2.4688-0.53125-0.95703-0.79688-2.0547-0.79688-3.2969 0-2.0508 0.63672-3.5977 1.9062-4.6406 1.2617-1.0508 3.125-1.5781 5.5938-1.5781z"/>
</symbol>
<symbol id="ac" overflow="visible">
<path d="m14.875-3.0312c-0.78125 1.043-1.6484 1.8086-2.5938 2.2969-0.94922 0.49219-2.043 0.73438-3.2812 0.73438-2.1797 0-3.9805-0.85156-5.4062-2.5625-1.418-1.7188-2.125-3.9062-2.125-6.5625 0-2.6641 0.70703-4.8477 2.125-6.5469 1.4258-1.707 3.2266-2.5625 5.4062-2.5625 1.2383 0 2.332 0.24609 3.2812 0.73438 0.94531 0.49219 1.8125 1.2617 2.5938 2.3125v-2.6406h5.7344v16.031c0 2.8633-0.90625 5.0508-2.7188 6.5625-1.8047 1.5078-4.4297 2.2656-7.875 2.2656-1.1172 0-2.1953-0.085938-3.2344-0.25-1.043-0.16797-2.0898-0.42969-3.1406-0.78125v-4.4375c1 0.57031 1.9766 1 2.9375 1.2812 0.95703 0.28125 1.9219 0.42188 2.8906 0.42188 1.8633 0 3.2266-0.41406 4.0938-1.2344 0.875-0.8125 1.3125-2.0859 1.3125-3.8281zm-3.75-11.094c-1.1875 0-2.1094 0.4375-2.7656 1.3125-0.65625 0.86719-0.98438 2.0938-0.98438 3.6875 0 1.6367 0.31641 2.875 0.95312 3.7188 0.63281 0.84375 1.5664 1.2656 2.7969 1.2656 1.1875 0 2.1094-0.42969 2.7656-1.2969 0.65625-0.875 0.98438-2.1016 0.98438-3.6875 0-1.5938-0.32812-2.8203-0.98438-3.6875-0.65625-0.875-1.5781-1.3125-2.7656-1.3125z"/>
</symbol>
<symbol id="k" overflow="visible">
<path d="m16-12.984c-0.5-0.22656-1-0.39453-1.5-0.5-0.49219-0.11328-0.98438-0.17188-1.4844-0.17188-1.4688 0-2.6016 0.46875-3.3906 1.4062-0.79297 0.9375-1.1875 2.2812-1.1875 4.0312v8.2188h-5.7031v-17.828h5.7031v2.9219c0.73828-1.1641 1.582-2.0156 2.5312-2.5469 0.94531-0.53906 2.0859-0.8125 3.4219-0.8125 0.1875 0 0.39062 0.011719 0.60938 0.03125 0.22656 0.011719 0.55469 0.042969 0.98438 0.09375z"/>
</symbol>
<symbol id="aa" overflow="visible">
<path d="m2.5469-6.9375v-10.891h5.7344v1.7812c0 0.96875-0.007812 2.1836-0.015625 3.6406-0.011719 1.4609-0.015625 2.4336-0.015625 2.9219 0 1.4297 0.035156 2.4609 0.10938 3.0938 0.070313 0.625 0.20312 1.0859 0.39062 1.375 0.22656 0.375 0.53125 0.66406 0.90625 0.85938 0.38281 0.19922 0.81641 0.29688 1.2969 0.29688 1.1953 0 2.1328-0.45312 2.8125-1.3594 0.67578-0.91406 1.0156-2.1875 1.0156-3.8125v-8.7969h5.7031v17.828h-5.7031v-2.5781c-0.85547 1.043-1.7656 1.8125-2.7344 2.3125-0.96094 0.48828-2.0156 0.73438-3.1719 0.73438-2.0625 0-3.6367-0.62891-4.7188-1.8906-1.0742-1.2695-1.6094-3.1094-1.6094-5.5156zm3.9688-18.297h3.7344v3.9219h-3.7344zm6.2969 0h3.7344v3.9219h-3.7344z"/>
</symbol>
<symbol id="z" overflow="visible">
<path d="m20.672-10.859v10.859h-5.7344v-8.3125c0-1.5391-0.039062-2.6016-0.10938-3.1875-0.0625-0.58203-0.17969-1.0078-0.34375-1.2812-0.23047-0.375-0.53906-0.66406-0.92188-0.875-0.375-0.20703-0.80859-0.3125-1.2969-0.3125-1.1875 0-2.125 0.46484-2.8125 1.3906-0.67969 0.91797-1.0156 2.1875-1.0156 3.8125v8.7656h-5.7031v-17.828h5.7031v2.6094c0.86328-1.0391 1.7734-1.8047 2.7344-2.2969 0.96875-0.5 2.0391-0.75 3.2188-0.75 2.0508 0 3.6094 0.63672 4.6719 1.9062 1.0703 1.2617 1.6094 3.0938 1.6094 5.5z"/>
</symbol>
<symbol id="y" overflow="visible">
<path d="m11.234-14.188c-1.2734 0-2.2422 0.45312-2.9062 1.3594-0.65625 0.90625-0.98438 2.2148-0.98438 3.9219 0 1.7109 0.32812 3.0234 0.98438 3.9375 0.66406 0.90625 1.6328 1.3594 2.9062 1.3594 1.2383 0 2.1875-0.45312 2.8438-1.3594 0.65625-0.91406 0.98438-2.2266 0.98438-3.9375 0-1.707-0.32812-3.0156-0.98438-3.9219s-1.6055-1.3594-2.8438-1.3594zm0-4.0781c3.0625 0 5.457 0.82812 7.1875 2.4844 1.7266 1.6562 2.5938 3.9492 2.5938 6.875 0 2.9375-0.86719 5.2344-2.5938 6.8906-1.7305 1.6562-4.125 2.4844-7.1875 2.4844-3.0859 0-5.4961-0.82812-7.2344-2.4844-1.7305-1.6562-2.5938-3.9531-2.5938-6.8906 0-2.9258 0.86328-5.2188 2.5938-6.875 1.7383-1.6562 4.1484-2.4844 7.2344-2.4844z"/>
</symbol>
<symbol id="x" overflow="visible">
<path d="m8.9688-22.891v5.0625h5.875v4.0781h-5.875v7.5625c0 0.82422 0.16016 1.3828 0.48438 1.6719 0.33203 0.29297 0.98828 0.4375 1.9688 0.4375h2.9375v4.0781h-4.8906c-2.2617 0-3.8594-0.46875-4.7969-1.4062s-1.4062-2.5312-1.4062-4.7812v-7.5625h-2.8281v-4.0781h2.8281v-5.0625z"/>
</symbol>
<symbol id="w" overflow="visible">
<path d="m12.234-3.6719c1.2188 0 2.1484-0.44531 2.7969-1.3438 0.64453-0.89453 0.96875-2.1914 0.96875-3.8906 0-1.6953-0.32422-2.9883-0.96875-3.875-0.64844-0.89453-1.5781-1.3438-2.7969-1.3438s-2.1562 0.44922-2.8125 1.3438c-0.65625 0.89844-0.98438 2.1875-0.98438 3.875s0.32812 2.9844 0.98438 3.8906c0.65625 0.89844 1.5938 1.3438 2.8125 1.3438zm-3.7969-11.547c0.78906-1.0391 1.6602-1.8047 2.6094-2.2969 0.95703-0.5 2.0625-0.75 3.3125-0.75 2.1953 0 4 0.875 5.4062 2.625 1.4141 1.7422 2.125 3.9844 2.125 6.7344s-0.71094 5-2.125 6.75c-1.4062 1.75-3.2109 2.625-5.4062 2.625-1.25 0-2.3555-0.24609-3.3125-0.73438-0.94922-0.5-1.8203-1.2695-2.6094-2.3125v2.5781h-5.7031v-24.781h5.7031z"/>
</symbol>
<symbol id="v" overflow="visible">
<path d="m2.7344-24.781h5.7031v24.781h-5.7031z"/>
</symbol>
<symbol id="u" overflow="visible">
<path d="m10.734-8.0312c-1.1875 0-2.0859 0.20312-2.6875 0.60938-0.59375 0.40625-0.89062 1-0.89062 1.7812 0 0.73047 0.23828 1.2969 0.71875 1.7031 0.48828 0.40625 1.1602 0.60938 2.0156 0.60938 1.0703 0 1.9727-0.38281 2.7031-1.1562 0.73828-0.76953 1.1094-1.7344 1.1094-2.8906v-0.65625zm8.7188-2.1406v10.172h-5.75v-2.6406c-0.77344 1.0859-1.6367 1.875-2.5938 2.375-0.94922 0.48828-2.1094 0.73438-3.4844 0.73438-1.8438 0-3.3438-0.53516-4.5-1.6094-1.1484-1.082-1.7188-2.4844-1.7188-4.2031 0-2.0938 0.71875-3.6289 2.1562-4.6094 1.4375-0.97656 3.6953-1.4688 6.7812-1.4688h3.3594v-0.4375c0-0.90625-0.35938-1.5664-1.0781-1.9844-0.71094-0.41406-1.8203-0.625-3.3281-0.625-1.2188 0-2.3555 0.125-3.4062 0.375-1.0547 0.24219-2.0273 0.60156-2.9219 1.0781v-4.3438c1.2188-0.28906 2.4414-0.51562 3.6719-0.67188 1.2266-0.15625 2.4609-0.23438 3.7031-0.23438 3.2188 0 5.5391 0.63672 6.9688 1.9062 1.4258 1.2734 2.1406 3.3359 2.1406 6.1875z"/>
</symbol>
<symbol id="ab" overflow="visible">
<path d="m2.5469-6.9375v-10.891h5.7344v1.7812c0 0.96875-0.007812 2.1836-0.015625 3.6406-0.011719 1.4609-0.015625 2.4336-0.015625 2.9219 0 1.4297 0.035156 2.4609 0.10938 3.0938 0.070313 0.625 0.20312 1.0859 0.39062 1.375 0.22656 0.375 0.53125 0.66406 0.90625 0.85938 0.38281 0.19922 0.81641 0.29688 1.2969 0.29688 1.1953 0 2.1328-0.45312 2.8125-1.3594 0.67578-0.91406 1.0156-2.1875 1.0156-3.8125v-8.7969h5.7031v17.828h-5.7031v-2.5781c-0.85547 1.043-1.7656 1.8125-2.7344 2.3125-0.96094 0.48828-2.0156 0.73438-3.1719 0.73438-2.0625 0-3.6367-0.62891-4.7188-1.8906-1.0742-1.2695-1.6094-3.1094-1.6094-5.5156z"/>
</symbol>
</defs>
<path transform="matrix(4.0782 0 0 4.076 .15153 0)" d="m38.12 175.41c22.265-24.278 36.06 2.2291 74.608 3.6743" fill="none" stroke="#0000d4" stroke-width="1.5"/>
<path transform="matrix(4.0782 0 0 4.076 .15153 0)" d="m68.495 179.09v3.75" fill="none" stroke="#000" stroke-width=".75"/>
<path transform="matrix(4.0782 0 0 4.076 .15153 0)" d="m98.121 179.09v3.75" fill="none" stroke="#000" stroke-width=".75"/>
<path transform="matrix(4.0782 0 0 4.076 .15153 0)" d="m128.5 179.09v3.75" fill="none" stroke="#000" stroke-width=".75"/>
<path transform="matrix(4.0782 0 0 4.076 .15153 0)" d="m158.12 179.09v3.75" fill="none" stroke="#000" stroke-width=".75"/>
<g>
<use x="124.765625" y="775.810663" xlink:href="#au"/>
<use x="145.156634" y="775.810663" xlink:href="#a"/>
<use x="165.547643" y="775.810663" xlink:href="#a"/>
</g>
<g>
<use x="368.996094" y="775.810663" xlink:href="#i"/>
<use x="389.387103" y="775.810663" xlink:href="#a"/>
<use x="409.778111" y="775.810663" xlink:href="#a"/>
</g>
<g>
<use x="613.808594" y="775.810663" xlink:href="#an"/>
<use x="634.199603" y="775.810663" xlink:href="#a"/>
<use x="654.590611" y="775.810663" xlink:href="#a"/>
</g>
<path transform="matrix(4.0782 0 0 4.076 .15153 0)" d="m188.5 179.09v3.75" fill="none" stroke="#000" stroke-width=".75"/>
<path transform="matrix(4.0782 0 0 4.076 .15153 0)" d="m38.12 137.46h-3.7499" fill="none" stroke="#000" stroke-width=".75"/>
<path transform="matrix(4.0782 0 0 4.076 .15153 0)" d="m38.12 92.46h-3.7499" fill="none" stroke="#000" stroke-width=".75"/>
<path transform="matrix(4.0782 0 0 4.076 .15153 0)" d="m38.12 51.21h-3.7499" fill="none" stroke="#000" stroke-width=".75"/>
<path transform="matrix(4.0782 0 0 4.076 .15153 0)" d="m38.12 9.5566h-3.7499" fill="none" stroke="#000" stroke-width=".75"/>
<g>
<use x="109.082031" y="741.826288" xlink:href="#a"/>
</g>
<g>
<use x="109.765625" y="571.947382" xlink:href="#i"/>
</g>
<g>
<use x="88.324219" y="388.740351" xlink:href="#t"/>
<use x="108.715228" y="388.740351" xlink:href="#a"/>
</g>
<g>
<use x="89.007812" y="220.388788" xlink:href="#t"/>
<use x="109.398821" y="220.388788" xlink:href="#i"/>
</g>
<g>
<use x="88.324219" y="50.822382" xlink:href="#am"/>
<use x="108.715228" y="50.822382" xlink:href="#a"/>
</g>
<path transform="matrix(4.0782 0 0 4.076 .15153 0)" d="m38.12 176.29c34.498 1.1951 49.942-29.177 57.709-64.231 10.261-46.313 12.622-101.14 26.897-101.36 24.145 3.3878 12.894 168.39 72.894 168.39" fill="none" stroke="#00d400" stroke-width="1.5"/>
<path transform="matrix(4.0782 0 0 4.076 .15153 0)" d="m38.12 177.59c25.911 0.43126 49.258-5.7367 59.015-26.727 23.485-50.523 28.107-132.93 44.913-132.33 5.7336-0.10446 13.799 39.419 23.135 78.678 7.8954 33.204 16.375 66.219 28.448 74.916" fill="none" stroke="#d40000" stroke-width="1.5"/>
<path transform="matrix(4.0782 0 0 4.076 .15153 0)" d="m38.12 182.84v-181.51" fill="none" stroke="#000" stroke-width="1.5"/>
<path transform="matrix(4.0782 0 0 4.076 .15153 0)" d="m34.37 179.09h161.72" fill="none" stroke="#000" stroke-width="1.5"/>
<g>
<use x="311.210938" y="835.216913" xlink:href="#al"/>
<use x="339.75835" y="835.216913" xlink:href="#h"/>
<use x="360.149359" y="835.216913" xlink:href="#g"/>
<use x="368.305762" y="835.216913" xlink:href="#g"/>
<use x="376.462166" y="835.216913" xlink:href="#h"/>
<use x="396.853175" y="835.216913" xlink:href="#j"/>
<use x="417.244183" y="835.216913" xlink:href="#g"/>
<use x="425.400587" y="835.216913" xlink:href="#at"/>
<use x="445.791596" y="835.216913" xlink:href="#j"/>
<use x="466.182605" y="835.216913" xlink:href="#as"/>
<use x="486.573614" y="835.216913" xlink:href="#h"/>
<use x="506.964622" y="835.216913" xlink:href="#ar"/>
<use x="519.199228" y="835.216913" xlink:href="#aq"/>
<use x="531.433833" y="835.216913" xlink:href="#j"/>
<use x="551.824842" y="835.216913" xlink:href="#ap"/>
<use x="584.450456" y="835.216913" xlink:href="#ao"/>
</g>
<g>
<use x="24.940084" y="604.917969" xlink:href="#ak"/>
<use x="24.940084" y="584.537827" xlink:href="#ag"/>
<use x="24.940084" y="564.157686" xlink:href="#n"/>
<use x="24.940084" y="547.853572" xlink:href="#m"/>
<use x="24.940084" y="527.473431" xlink:href="#l"/>
<use x="24.940084" y="515.245346" xlink:href="#ad"/>
<use x="24.940084" y="494.865204" xlink:href="#f"/>
<use x="24.940084" y="482.637119" xlink:href="#e"/>
<use x="24.940084" y="474.485063" xlink:href="#m"/>
<use x="24.940084" y="454.104921" xlink:href="#c"/>
<use x="24.940084" y="433.72478" xlink:href="#d"/>
<use x="24.940084" y="421.496695" xlink:href="#e"/>
<use x="24.940084" y="413.344638" xlink:href="#c"/>
<use x="24.940084" y="392.964497" xlink:href="#d"/>
<use x="24.940084" y="380.736412" xlink:href="#aj"/>
<use x="24.940084" y="348.128185" xlink:href="#d"/>
<use x="24.940084" y="335.9001" xlink:href="#s"/>
<use x="24.940084" y="315.519959" xlink:href="#b"/>
<use x="24.940084" y="295.139817" xlink:href="#l"/>
<use x="24.940084" y="282.911732" xlink:href="#d"/>
<use x="24.940084" y="270.683647" xlink:href="#r"/>
<use x="24.940084" y="250.303506" xlink:href="#b"/>
<use x="24.940084" y="229.923364" xlink:href="#n"/>
<use x="24.940084" y="213.619251" xlink:href="#q"/>
<use x="24.940084" y="193.23911" xlink:href="#p"/>
<use x="24.940084" y="160.630883" xlink:href="#f"/>
<use x="24.940084" y="148.402798" xlink:href="#b"/>
<use x="24.940084" y="128.022657" xlink:href="#c"/>
</g>
<g>
<use x="65.721334" y="556.007812" xlink:href="#b"/>
<use x="65.721334" y="535.627671" xlink:href="#e"/>
<use x="65.721334" y="527.475614" xlink:href="#c"/>
<use x="65.721334" y="507.095473" xlink:href="#ai"/>
<use x="65.721334" y="494.867388" xlink:href="#q"/>
<use x="65.721334" y="474.487246" xlink:href="#o"/>
<use x="65.721334" y="466.33519" xlink:href="#o"/>
<use x="65.721334" y="458.183133" xlink:href="#b"/>
<use x="65.721334" y="437.802992" xlink:href="#c"/>
<use x="65.721334" y="417.42285" xlink:href="#s"/>
<use x="65.721334" y="397.042708" xlink:href="#b"/>
<use x="65.721334" y="376.662567" xlink:href="#c"/>
<use x="65.721334" y="356.282425" xlink:href="#d"/>
<use x="65.721334" y="344.05434" xlink:href="#ah"/>
<use x="65.721334" y="327.750227" xlink:href="#e"/>
<use x="65.721334" y="319.598171" xlink:href="#af"/>
<use x="65.721334" y="303.294057" xlink:href="#ae"/>
<use x="65.721334" y="282.913916" xlink:href="#f"/>
<use x="65.721334" y="270.685831" xlink:href="#p"/>
<use x="65.721334" y="238.077604" xlink:href="#b"/>
<use x="65.721334" y="217.697463" xlink:href="#c"/>
<use x="65.721334" y="197.317321" xlink:href="#r"/>
<use x="65.721334" y="176.93718" xlink:href="#b"/>
</g>
<g>
<use x="457.320312" y="25.236445" xlink:href="#ac"/>
<use x="481.789523" y="25.236445" xlink:href="#k"/>
<use x="498.10233" y="25.236445" xlink:href="#aa"/>
<use x="522.571541" y="25.236445" xlink:href="#z"/>
</g>
<g>
<use x="552.796875" y="63.37707" xlink:href="#k"/>
<use x="569.109682" y="63.37707" xlink:href="#y"/>
<use x="589.500691" y="63.37707" xlink:href="#x"/>
</g>
<g>
<use x="203.945312" y="656.740351" xlink:href="#w"/>
<use x="228.414523" y="656.740351" xlink:href="#v"/>
<use x="240.649128" y="656.740351" xlink:href="#u"/>
<use x="261.040137" y="656.740351" xlink:href="#ab"/>
</g>
</svg>
