<?xml version="1.0" encoding="UTF-8"?>
<svg width="800px" height="204px" version="1.1" viewBox="0 0 800 204" xmlns="http://www.w3.org/2000/svg" xmlns:xlink="http://www.w3.org/1999/xlink">
<defs>
<clipPath id="c">
<rect width="4" height="2"/>
</clipPath>
<g id="a" clip-path="url(#c)">
<path d="m0-1h2v4h-2z"/>
</g>
<pattern id="b" width="4" height="2" patternTransform="matrix(.25176 -.25176 .25176 .25176 204.98 -11.228)" patternUnits="userSpaceOnUse">
<use xlink:href="#a"/>
</pattern>
</defs>
<g stroke="#000">
<path transform="matrix(2.8297 0 0 2.8302 -28.268 .48215)" d="m218.96 22.028c-3.5588 3.4768-6.5723 8.5808-6.5654 13.853 0.005522 5.2476 3.1667 10.292 6.5695 13.765m26.536-43.939c18.018-0.97581 29.171 13.135 29.094 30.097-0.013804 2.9923-0.50386 6.9397-1.7725 10.548-0.019327 0.044166 0.045554 0.29674 0.20845 0.31607 3.0535 0.69149 8.6623 3.7224 13.675 6.2951-1.1858 2.3643-2.7788 5.4725-4.6576 8.647-6.3155-3.3636-8.1708-4.5602-12.133-7.9735-0.15875-0.14492-0.39895-0.020703-0.45555 0.053828-6.7352 8.1101-13.494 12.334-24.432 12.39-9.2779-0.31469-22.268-7.6629-26.078-16.431 3.5878-0.06487 5.3603-7.5056 5.3603-13.577 0-6.0702-1.0836-14.135-5.294-14.027 7.9762-11.848 17.529-15.82 26.485-16.338z" fill="none" stroke-width="1.5"/>
<path transform="matrix(2.8297 0 0 2.8302 -28.268 .48215)" d="m76.895 22.028c-3.5588 3.4768-6.5723 8.5808-6.5654 13.853 0.005522 5.2476 3.1667 10.292 6.5695 13.765m26.536-43.939c18.018-0.97581 29.171 13.135 29.094 30.097-0.013805 2.9923-0.50386 6.9397-1.7725 10.548-0.019326 0.044166 0.045555 0.29674 0.20845 0.31607 3.0535 0.69149 8.6623 3.7224 13.675 6.2951-1.1858 2.3643-2.7788 5.4725-4.6576 8.647-6.3155-3.3636-8.1708-4.5602-12.133-7.9735-0.15875-0.14492-0.39895-0.020703-0.45554 0.053828-6.7352 8.1101-13.494 12.334-24.432 12.39-9.2779-0.31469-22.268-7.6629-26.078-16.431 3.5878-0.06487 5.3603-7.5056 5.3603-13.577 0-6.0702-1.0836-14.135-5.294-14.027 7.9762-11.848 17.529-15.82 26.485-16.338z" fill="none" stroke-width="1.5"/>
<path transform="matrix(2.8297 0 0 2.8302 -28.268 .48215)" d="m195.46 8.0778c-4.7667 18.712-3.7369 37.182 0 55.54 4.7667-18.712 3.7369-37.183 0-55.54z" fill="url(#b)" stroke-width=".75"/>
<path transform="matrix(2.8297 0 0 2.8302 -28.268 .48215)" d="m74.712 24.542h-59.722" fill="none" stroke-width=".75"/>
<path transform="matrix(2.8297 0 0 2.8302 -28.268 .48215)" d="m74.709 47.146h-59.719" fill="none" stroke-width=".75"/>
<path transform="matrix(2.8297 0 0 2.8302 -28.268 .48215)" d="m148.45 35.848h-133.46" fill="none" stroke-dasharray="6,1.5,0.75,1.5" stroke-width=".75"/>
<path transform="matrix(2.8297 0 0 2.8302 -28.268 .48215)" d="m74.709 47.146 73.738-11.298" fill="none" stroke-width=".74999"/>
<path transform="matrix(2.8297 0 0 2.8302 -28.268 .48215)" d="m74.638 24.542 73.808 11.305" fill="none" stroke-width=".74948"/>
<path transform="matrix(2.8297 0 0 2.8302 -28.268 .48215)" d="m213.79 43.233-14.562 3.9129" fill="none" stroke-width=".75"/>
<path transform="matrix(2.8297 0 0 2.8302 -28.268 .48215)" d="m199.23 24.542 14.576 3.9212" fill="none" stroke-width=".75"/>
<path transform="matrix(2.8297 0 0 2.8302 -28.268 .48215)" d="m199.23 47.146h-41.511" fill="none" stroke-width=".75"/>
<path transform="matrix(2.8297 0 0 2.8302 -28.268 .48215)" d="m199.23 24.542h-41.511" fill="none" stroke-width=".75"/>
<path transform="matrix(2.8297 0 0 2.8302 -28.268 .48215)" d="m74.709 47.146h-25.852" fill="none" stroke-width=".75"/>
<path transform="matrix(2.8297 0 0 2.8302 -28.268 .48215)" d="m74.638 24.542h-25.781" fill="none" stroke-width=".75"/>
<path transform="matrix(2.8297 0 0 2.8302 -28.268 .48215)" d="m274.57 35.848h-116.86" fill="none" stroke-dasharray="5.9023,1.47558,0.737788,1.47558" stroke-width=".73779"/>
<path transform="matrix(2.8297 0 0 2.8302 -28.268 .48215)" d="m213.82 28.452 60.759 7.3538" fill="none" stroke-width=".75"/>
<path transform="matrix(2.8297 0 0 2.8302 -28.268 .48215)" d="m213.8 43.23 60.77-7.3827" fill="none" stroke-width=".75"/>
</g>
</svg>
