<?xml version="1.0" encoding="UTF-8"?>
<svg width="800px" height="1171px" version="1.1" viewBox="0 0 800 1171" xmlns="http://www.w3.org/2000/svg">
<g stroke-linejoin="round" stroke-miterlimit="10">
<path transform="matrix(10.757 0 0 10.759 -1879.4 -852.54)" d="m226.64 137.96c-0.10894-0.21638-0.29088-1.8066-0.5458-2.7095-0.18048-0.75915-0.39946-4.0114-0.25347-5.4927 0.072991-1.1563 0-2.9985 0.03595-3.7936 0.037041-4.4442-0.69069-6.685-0.83668-7.516-0.18193-0.83104-0.43686-1.987-0.43686-3.758 0-1.7706 0.11039-4.2278-0.035588-5.9625-0.072991-0.9759-0.25492-2.4931-0.47281-3.7939-0.18193-1.3008-0.76332-3.2878-1.3451-3.8666-0.54544-0.61357-1.3462-1.1563-2.1454-1.4457-0.21788-0.035942-0.47281-0.18044-0.65474-0.21638-0.32646-0.071522-0.54544-0.035942-0.83631-0.071522-0.61879-0.10892-1.1272-0.18189-1.6-0.3253-1.0542-0.36233-2.1084-0.47016-2.1084-4.3008 0.28942-0.36124 0.39982-0.72212 0.5084-1.0115 0.072991-0.1808 0.14489-0.57762 0.25492-0.93996h0.035951c0.14598-0.035943 0.25492-0.14486 0.39982-0.14486 0.18157-0.035579 0.32792 0.037395 0.54544 0 0.10894-0.035579 0.18193-0.10746 0.29088-0.14304 0.18193-0.072975 0.76332-0.072975 0.90967-0.25378h0.035588c0.14598-0.25341 0.037404-0.65024 0-0.83104-0.10894-0.32494-0.035588-0.68618-0.071538-1.0471v-0.037395c0.10858-0.10746 0.14453-0.18044 0.071538-0.4698 0-0.071885-0.035588-0.10746-0.035588-0.18044 0-0.14486 0-0.28936-0.03595-0.43276 0-0.18044-0.037041-0.28936-0.072992-0.43422 0.14453 0 0.25347-0.03558 0.32646-0.071522-0.035588-0.25378-0.29051-0.43422-0.36387-0.6506-0.072991-0.21747-0.10858-0.28936-0.10858-0.28936v-0.072974c-0.035951-0.90256-0.65474-2.1675-1.0542-2.9985-0.39982-0.7951-0.98266-1.4457-1.746-1.8799-0.47281-0.2879-0.98121-0.46834-1.4896-0.57726-0.29233-0.072975-1.5285-0.21638-2.2188-0.072975-0.69033 0.18189-0.98266 0.4698-1.1272 0.6506 0 0-0.29088 0.10855-0.87226 0.25341-0.61879 0.28936-1.2005 0.72357-1.564 1.3368-0.36387 0.61466-0.50876 1.8436-1.3825 1.9511 0.10894 0.14486 0.40127 0.1808 0.61879 0.10892-0.10858 0.54168-0.29051 1.1204-0.69178 1.4816 0.18193 0.1445 0.14635 0.32494 0.14635 0.50574-0.035951 0.10855-0.14635 0.18044-0.14635 0.25341 0 0.071522 0.1104 0.071522 0.1104 0.14341 0.071538 0.54277 0 1.3379-0.36387 1.7706 0.4354 0.4698-0.072991 1.1919 0.69033 1.3738 0.25492 0.071886 0.50985 0.071886 0.72773 0.1808 0.14453 0.071522 0.21788 0.21638 0.36387 0.28936 0.18193 0.10746 0.36387 0.14304 0.54435 0.10746h0.03704c0.10894 0.43385 0.21788 0.90401 0.32646 1.1204 0.073354 0.28936 0.21934 0.65024 0.47281 1.0115 0 3.831-1.0168 3.9384-2.0724 4.3008-0.50876 0.14341-1.0186 0.21638-1.6 0.3253-0.29088 0.03558-0.5084 0-0.83631 0.071522-0.21788 0.035943-0.47281 0.18044-0.65474 0.21638-0.83631 0.28936-1.6 0.83249-2.1814 1.4457-0.5458 0.57871-1.1272 2.5657-1.3451 3.8666-0.18193 1.3008-0.36387 2.818-0.47245 3.7939-0.10894 1.7347-0.035951 4.1919-0.035951 5.9625 0 1.771-0.21897 2.927-0.40091 3.758-0.18193 0.83104-0.87226 3.0718-0.83668 7.516 0 0.7951-0.035588 2.6376 0.037404 3.7936 0.14453 1.4813-0.072992 4.7335-0.25492 5.4931-0.25492 0.90256-0.47281 2.4928-0.58175 2.7091-0.10858 0.25341 0.10894 0.54132 0.25384 0.75915 0.11003 0.25232 0.072991 0.47016 0.21897 0.7951 0.10894 0.25232 0.47281 0.7951 0.65438 1.0834 0.18193 0.32494 0.90967 0.68763 1.4911 0.86807 0.39982 0.1445 1.1276 0.54168 1.1991 0.36088 0.11003-0.39682-0.14489-0.65024-0.43541-0.7951-0.18193-0.10892 0.36387 0.21638 0.47245-0.1445 0.035951-0.10892 0.035951-0.14486-0.072991-0.3253 0.072991-0.21638 0.035951-0.21638-0.10858-0.43276 0.25492-0.072975 0.072991-1.1934-0.037404-1.7351 0.037404-0.43385 0.072992-1.7347-0.25347-2.6372-0.18193-0.57908-0.29088-1.1204-0.29088-1.4457-0.14598-0.83104 0.79927-6.649 1.3091-8.3111 1.0542-3.4683 0.72628-6.4682 0.83522-7.0814 0.11003-0.61466 0.80072-3.831 1.0182-5.2767l0.037404 0.037032c0.10858 1.7695 0.29051 4.4072 0.32646 5.3112 0.072991 1.2293 0.87372 3.3238 0.32792 4.3367-0.5458 1.0115-1.4551 2.6732-1.9279 5.4557-0.4354 2.1675-1.1272 4.4442-0.69033 8.4197 0.29088 2.7825 0.21788 4.6246 0.94526 7.7324 0.61879 2.7821 1.8909 6.1789 2.2544 8.2378 0.36387 2.0244 0.50876 3.0715 0.6177 4.4082 0.072991 1.3382-0.83522 7.662 0.18157 11.311 0.98266 3.6491 1.4195 5.9614 1.6 6.8654 0.43686 1.9511 0.037404 2.1675 0.21934 3.1434 0.18193 0.97554 0.21752 0.86662-0.29088 1.8066-0.47281 0.61466-1.2002 1.9511-1.4551 2.2408-0.21788 0.32494-0.10894 0.61429 0 0.7951-0.18193 0.4698 0.3635 0.72212 0.54544 0.72212-0.072991 0.54132 0.94562 0.4698 1.1631 0.25341 0.29088 0.2879 1.0542 0.2879 1.3465-0.072975 0.47245 0.39827 1.3091 0.39827 1.8535-0.10746 0.54544-0.54313 0.58284-1.0845 0.54544-1.6261-0.071539-0.50719 0.037403-0.68763 0.18193-1.3368 0.10894-0.68763 0.18193-1.1934-0.035588-1.6632-0.25492-0.47016-0.25492-0.68618-0.25492-1.1563 0-0.4698 0.14598-1.1919-0.14635-1.7706-0.29051-0.6132-0.65293-2.023-0.58139-3.5776 0.03704-1.5528 1.2002-10.189 0.72773-13.152-0.50876-2.9629-0.32683-3.5776-0.18193-4.589 0.10858-1.0129 0.39946-2.6376 0.14598-4.7695-0.1104-0.83213-0.072992-4.2634-0.072992-7.7691 0.035951-2.2408 0.65438-5.2396 0.035951-5.8184l0.037041-0.03558c0.14453 0.03558 0.29088 0.072975 0.4354 0.072975h0.037404c0.18157 0 0.39945-0.037395 0.58139-0.10892l-0.03595 0.071523c-0.58284 0.57908 0.03595 3.5776 0.03595 5.8184 0.035951 3.5057 0.072992 6.9369-0.03595 7.7694-0.25492 2.1315 0.03595 3.7562 0.14489 4.7691 0.10894 1.0115 0.29088 1.6261-0.18193 4.589-0.47281 2.9625 0.65438 11.599 0.72773 13.152 0.072991 1.5546-0.29088 2.9644-0.61879 3.5776-0.29088 0.57871-0.10894 1.3008-0.10894 1.7706 0 0.47016 0 0.68654-0.25492 1.1563-0.25347 0.4698-0.14489 0.97554-0.035951 1.6632 0.10894 0.64915 0.21788 0.82959 0.18193 1.3368-0.072991 0.54168 0 1.083 0.5458 1.6261 0.5084 0.50574 1.3451 0.50574 1.8535 0.10746 0.29196 0.36088 1.0556 0.36088 1.3091 0.072975 0.25492 0.21638 1.2376 0.2879 1.2002-0.25341 0.18193 0 0.69178-0.25232 0.50985-0.72212 0.14489-0.18044 0.25384-0.47016 0-0.7951-0.21897-0.28936-0.9823-1.6261-1.4181-2.2408-0.50985-0.93996-0.47245-0.83104-0.32792-1.8066 0.18193-0.9759-0.18193-1.1919 0.25492-3.1434 0.18193-0.90401 0.61734-3.2163 1.6-6.8654 0.98121-3.6491 0.10894-9.9728 0.18193-11.311 0.071539-1.3364 0.25492-2.3838 0.61734-4.4082 0.32792-2.0589 1.637-5.4557 2.2544-8.2378 0.72773-3.1078 0.65474-4.9499 0.94562-7.7324 0.40091-3.9755-0.29088-6.2522-0.72628-8.4197-0.47281-2.7825-1.3821-4.4442-1.8909-5.4557-0.5458-1.0129 0.25347-3.1074 0.29088-4.3367 0.072991-0.93996 0.25347-3.6491 0.36387-5.3841 0.21752 1.4457 0.94525 4.698 1.0542 5.3126 0.10894 0.6132-0.21934 3.6131 0.79927 7.0814 0.54544 1.6621 1.4911 7.4801 1.3091 8.3111 0.03704 0.3253-0.072991 0.86662-0.29088 1.4457-0.29088 0.90256-0.25347 2.2034-0.21788 2.6376-0.10858 0.54132-0.32792 1.6617-0.035588 1.7347-0.14598 0.21638-0.21897 0.21638-0.14598 0.43276-0.072991 0.18044-0.072991 0.21638-0.037404 0.3253 0.1104 0.36088 0.61879 0.03558 0.43686 0.1445-0.29088 0.14486-0.5458 0.39827-0.39946 0.7951 0.072991 0.1808 0.79927-0.21602 1.2002-0.36088 0.58139-0.18044 1.2721-0.54277 1.4537-0.86807 0.18193-0.28827 0.5458-0.83104 0.65474-1.0834 0.18193-0.32494 0.14598-0.54277 0.25492-0.7951 0.10894-0.21747 0.32646-0.50574 0.21788-0.75915z" fill="none" stroke="#919191" stroke-width=".52917"/>
<path transform="matrix(10.757 0 0 10.759 -1879.4 -852.54)" d="m226.64 137.96c-0.10894-0.21638-0.29088-1.8066-0.5458-2.7095-0.18048-0.75915-0.39946-4.0114-0.25347-5.4927 0.072991-1.1563 0-2.9985 0.03595-3.7936 0.037041-4.4442-0.69069-6.685-0.83668-7.516-0.18193-0.83104-0.43686-1.987-0.43686-3.758 0-1.7706 0.11039-4.2278-0.035588-5.9625-0.072991-0.9759-0.25492-2.4931-0.47281-3.7939-0.18193-1.3008-0.76332-3.2878-1.3451-3.8666-0.54544-0.61357-1.3462-1.1563-2.1454-1.4457-0.21788-0.035942-0.47281-0.18044-0.65474-0.21638-0.32646-0.071522-0.54544-0.035942-0.83631-0.071522-0.61879-0.10892-1.1272-0.18189-1.6-0.3253-1.0542-0.36233-2.1084-0.47016-2.1084-4.3008 0.28942-0.36124 0.39982-0.72212 0.5084-1.0115 0.072991-0.1808 0.14489-0.57762 0.25492-0.93996h0.035951c0.14598-0.035943 0.25492-0.14486 0.39982-0.14486 0.18157-0.035579 0.32792 0.037395 0.54544 0 0.10894-0.035579 0.18193-0.10746 0.29088-0.14304 0.18193-0.072975 0.76332-0.072975 0.90967-0.25378h0.035588c0.14598-0.25341 0.037404-0.65024 0-0.83104-0.10894-0.32494-0.035588-0.68618-0.071538-1.0471v-0.037395c0.10858-0.10746 0.14453-0.18044 0.071538-0.4698 0-0.071885-0.035588-0.10746-0.035588-0.18044 0-0.14486 0-0.28936-0.03595-0.43276 0-0.18044-0.037041-0.28936-0.072992-0.43422 0.14453 0 0.25347-0.03558 0.32646-0.071522-0.035588-0.25378-0.29051-0.43422-0.36387-0.6506-0.072991-0.21747-0.10858-0.28936-0.10858-0.28936v-0.072974c-0.035951-0.90256-0.65474-2.1675-1.0542-2.9985-0.39982-0.7951-0.98266-1.4457-1.746-1.8799-0.47281-0.2879-0.98121-0.46834-1.4896-0.57726-0.29233-0.072975-1.5285-0.21638-2.2188-0.072975-0.69033 0.18189-0.98266 0.4698-1.1272 0.6506 0 0-0.29088 0.10855-0.87226 0.25341-0.61879 0.28936-1.2005 0.72357-1.564 1.3368-0.36387 0.61466-0.50876 1.8436-1.3825 1.9511 0.10894 0.14486 0.40127 0.1808 0.61879 0.10892-0.10858 0.54168-0.29051 1.1204-0.69178 1.4816 0.18193 0.1445 0.14635 0.32494 0.14635 0.50574-0.035951 0.10855-0.14635 0.18044-0.14635 0.25341 0 0.071522 0.1104 0.071522 0.1104 0.14341 0.071538 0.54277 0 1.3379-0.36387 1.7706 0.4354 0.4698-0.072991 1.1919 0.69033 1.3738 0.25492 0.071886 0.50985 0.071886 0.72773 0.1808 0.14453 0.071522 0.21788 0.21638 0.36387 0.28936 0.18193 0.10746 0.36387 0.14304 0.54435 0.10746h0.03704c0.10894 0.43385 0.21788 0.90401 0.32646 1.1204 0.073354 0.28936 0.21934 0.65024 0.47281 1.0115 0 3.831-1.0168 3.9384-2.0724 4.3008-0.50876 0.14341-1.0186 0.21638-1.6 0.3253-0.29088 0.03558-0.5084 0-0.83631 0.071522-0.21788 0.035943-0.47281 0.18044-0.65474 0.21638-0.83631 0.28936-1.6 0.83249-2.1814 1.4457-0.5458 0.57871-1.1272 2.5657-1.3451 3.8666-0.18193 1.3008-0.36387 2.818-0.47245 3.7939-0.10894 1.7347-0.035951 4.1919-0.035951 5.9625 0 1.771-0.21897 2.927-0.40091 3.758-0.18193 0.83104-0.87226 3.0718-0.83668 7.516 0 0.7951-0.035588 2.6376 0.037404 3.7936 0.14453 1.4813-0.072992 4.7335-0.25492 5.4931-0.25492 0.90256-0.47281 2.4928-0.58175 2.7091-0.10858 0.25341 0.10894 0.54132 0.25384 0.75915 0.11003 0.25232 0.072991 0.47016 0.21897 0.7951 0.10894 0.25232 0.47281 0.7951 0.65438 1.0834 0.18193 0.32494 0.90967 0.68763 1.4911 0.86807 0.39982 0.1445 1.1276 0.54168 1.1991 0.36088 0.11003-0.39682-0.14489-0.65024-0.43541-0.7951-0.18193-0.10892 0.36387 0.21638 0.47245-0.1445 0.035951-0.10892 0.035951-0.14486-0.072991-0.3253 0.072991-0.21638 0.035951-0.21638-0.10858-0.43276 0.25492-0.072975 0.072991-1.1934-0.037404-1.7351 0.037404-0.43385 0.072992-1.7347-0.25347-2.6372-0.18193-0.57908-0.29088-1.1204-0.29088-1.4457-0.14598-0.83104 0.79927-6.649 1.3091-8.3111 1.0542-3.4683 0.72628-6.4682 0.83522-7.0814 0.11003-0.61466 0.80072-3.831 1.0182-5.2767l0.037404 0.037032c0.10858 1.7695 0.29051 4.4072 0.32646 5.3112 0.072991 1.2293 0.87372 3.3238 0.32792 4.3367-0.5458 1.0115-1.4551 2.6732-1.9279 5.4557-0.4354 2.1675-1.1272 4.4442-0.69033 8.4197 0.29088 2.7825 0.21788 4.6246 0.94526 7.7324 0.61879 2.7821 1.8909 6.1789 2.2544 8.2378 0.36387 2.0244 0.50876 3.0715 0.6177 4.4082 0.072991 1.3382-0.83522 7.662 0.18157 11.311 0.98266 3.6491 1.4195 5.9614 1.6 6.8654 0.43686 1.9511 0.037404 2.1675 0.21934 3.1434 0.18193 0.97554 0.21752 0.86662-0.29088 1.8066-0.47281 0.61466-1.2002 1.9511-1.4551 2.2408-0.21788 0.32494-0.10894 0.61429 0 0.7951-0.18193 0.4698 0.3635 0.72212 0.54544 0.72212-0.072991 0.54132 0.94562 0.4698 1.1631 0.25341 0.29088 0.2879 1.0542 0.2879 1.3465-0.072975 0.47245 0.39827 1.3091 0.39827 1.8535-0.10746 0.54544-0.54313 0.58284-1.0845 0.54544-1.6261-0.071539-0.50719 0.037403-0.68763 0.18193-1.3368 0.10894-0.68763 0.18193-1.1934-0.035588-1.6632-0.25492-0.47016-0.25492-0.68618-0.25492-1.1563 0-0.4698 0.14598-1.1919-0.14635-1.7706-0.29051-0.6132-0.65293-2.023-0.58139-3.5776 0.03704-1.5528 1.2002-10.189 0.72773-13.152-0.50876-2.9629-0.32683-3.5776-0.18193-4.589 0.10858-1.0129 0.39946-2.6376 0.14598-4.7695-0.1104-0.83213-0.072992-4.2634-0.072992-7.7691 0.035951-2.2408 0.65438-5.2396 0.035951-5.8184l0.037041-0.03558c0.14453 0.03558 0.29088 0.072975 0.4354 0.072975h0.037404c0.18157 0 0.39945-0.037395 0.58139-0.10892l-0.03595 0.071523c-0.58284 0.57908 0.03595 3.5776 0.03595 5.8184 0.035951 3.5057 0.072992 6.9369-0.03595 7.7694-0.25492 2.1315 0.03595 3.7562 0.14489 4.7691 0.10894 1.0115 0.29088 1.6261-0.18193 4.589-0.47281 2.9625 0.65438 11.599 0.72773 13.152 0.072991 1.5546-0.29088 2.9644-0.61879 3.5776-0.29088 0.57871-0.10894 1.3008-0.10894 1.7706 0 0.47016 0 0.68654-0.25492 1.1563-0.25347 0.4698-0.14489 0.97554-0.035951 1.6632 0.10894 0.64915 0.21788 0.82959 0.18193 1.3368-0.072991 0.54168 0 1.083 0.5458 1.6261 0.5084 0.50574 1.3451 0.50574 1.8535 0.10746 0.29196 0.36088 1.0556 0.36088 1.3091 0.072975 0.25492 0.21638 1.2376 0.2879 1.2002-0.25341 0.18193 0 0.69178-0.25232 0.50985-0.72212 0.14489-0.18044 0.25384-0.47016 0-0.7951-0.21897-0.28936-0.9823-1.6261-1.4181-2.2408-0.50985-0.93996-0.47245-0.83104-0.32792-1.8066 0.18193-0.9759-0.18193-1.1919 0.25492-3.1434 0.18193-0.90401 0.61734-3.2163 1.6-6.8654 0.98121-3.6491 0.10894-9.9728 0.18193-11.311 0.071539-1.3364 0.25492-2.3838 0.61734-4.4082 0.32792-2.0589 1.637-5.4557 2.2544-8.2378 0.72773-3.1078 0.65474-4.9499 0.94562-7.7324 0.40091-3.9755-0.29088-6.2522-0.72628-8.4197-0.47281-2.7825-1.3821-4.4442-1.8909-5.4557-0.5458-1.0129 0.25347-3.1074 0.29088-4.3367 0.072991-0.93996 0.25347-3.6491 0.36387-5.3841 0.21752 1.4457 0.94525 4.698 1.0542 5.3126 0.10894 0.6132-0.21934 3.6131 0.79927 7.0814 0.54544 1.6621 1.4911 7.4801 1.3091 8.3111 0.03704 0.3253-0.072991 0.86662-0.29088 1.4457-0.29088 0.90256-0.25347 2.2034-0.21788 2.6376-0.10858 0.54132-0.32792 1.6617-0.035588 1.7347-0.14598 0.21638-0.21897 0.21638-0.14598 0.43276-0.072991 0.18044-0.072991 0.21638-0.037404 0.3253 0.1104 0.36088 0.61879 0.03558 0.43686 0.1445-0.29088 0.14486-0.5458 0.39827-0.39946 0.7951 0.072991 0.1808 0.79927-0.21602 1.2002-0.36088 0.58139-0.18044 1.2721-0.54277 1.4537-0.86807 0.18193-0.28827 0.5458-0.83104 0.65474-1.0834 0.18193-0.32494 0.14598-0.54277 0.25492-0.7951 0.10894-0.21747 0.32646-0.50574 0.21788-0.75915zm0 0" fill="none" stroke="#333" stroke-linecap="round" stroke-width=".52917"/>
<path transform="matrix(24.39 0 0 24.396 1.9436 0)" d="m15.128 7.9997c-0.16544 0.55289-0.47342 0.60958-0.78925 0.71798-0.22438 0.063247-0.44924 0.095431-0.70565 0.14347-0.12828 0.015692-0.22422 0-0.36884 0.031544-0.096094 0.015852-0.20852 0.079579-0.28876 0.095431-0.36884 0.12762-0.70565 0.36715-0.96206 0.6376-0.24072 0.25523-0.49712 1.1316-0.59322 1.7053-0.080238 0.57371-0.16048 1.2428-0.20836 1.6732-0.048047 0.76505-0.015855 1.8487-0.015855 2.6296 0 0.78106-0.096574 1.2909-0.17681 1.6574-0.080238 0.36651-0.3847 1.3548-0.369 3.3148 0 0.35066-0.015695 1.1633 0.016496 1.6731 0.063743 0.65329-0.032191 2.0876-0.11243 2.4226-0.11243 0.39806-0.20852 1.0994-0.25657 1.1948-0.047886 0.11176 0.048047 0.23874 0.11195 0.33481 0.048527 0.11128 0.032191 0.20736 0.096574 0.35066 0.048047 0.11128 0.20852 0.35066 0.2886 0.4778 0.080239 0.14331 0.40119 0.30327 0.6576 0.38285 0.17633 0.063727 0.49728 0.2389 0.52884 0.15916 0.048527-0.17501-0.063903-0.28677-0.19203-0.35066-0.080238-0.048036 0.16048 0.095431 0.20836-0.063728 0.015855-0.048036 0.015855-0.063888-0.032192-0.14347 0.032192-0.095431 0.015856-0.095431-0.047886-0.19086 0.11243-0.032184 0.032191-0.52631-0.016496-0.76521 0.016496-0.19134 0.032191-0.76505-0.11179-1.1631-0.080238-0.25539-0.12828-0.49413-0.12828-0.6376-0.064382-0.36651 0.3525-2.9324 0.57736-3.6655 0.46493-1.5296 0.32031-2.8527 0.36836-3.1233 0.048527-0.27092 0.35314-1.6894 0.44908-2.327l0.016496 0.016332c0.047887 0.78042 0.12812 1.9437 0.14398 2.3424 0.032191 0.54216 0.38534 1.4659 0.14462 1.9126-0.24072 0.44609-0.64175 1.179-0.85027 2.4061-0.19203 0.95591-0.49712 1.96-0.30446 3.7133 0.12828 1.2272 0.096094 2.0396 0.41689 3.4102 0.27291 1.227 0.83393 2.7251 0.99441 3.6331 0.16032 0.89283 0.22422 1.3546 0.27227 1.9442 0.032191 0.5902-0.36836 3.3792 0.080078 4.9885 0.43338 1.6094 0.62605 2.6292 0.70565 3.0279 0.19267 0.86048 0.016496 0.95591 0.096735 1.3863 0.080238 0.43024 0.095933 0.3822-0.12829 0.79676-0.20852 0.27108-0.52932 0.86048-0.64175 0.98826-0.096093 0.14331-0.048046 0.27092 0 0.35066-0.080238 0.20719 0.16032 0.31848 0.24056 0.31848-0.032191 0.23874 0.41705 0.2072 0.51298 0.11176 0.12828 0.12698 0.46493 0.12698 0.59386-0.032184 0.20836 0.17565 0.57736 0.17565 0.81744-0.047396 0.24056-0.23954 0.25705-0.47828 0.24056-0.71718-0.031551-0.22369 0.016496-0.30327 0.080238-0.58956 0.048047-0.30327 0.080239-0.52631-0.015695-0.73351-0.11243-0.20736-0.11243-0.30263-0.11243-0.50998 0-0.2072 0.064383-0.52567-0.064543-0.7809-0.12812-0.27044-0.28796-0.89219-0.25641-1.5778 0.016336-0.68483 0.52932-4.4938 0.32095-5.8003-0.22438-1.3067-0.14414-1.5778-0.080238-2.0239 0.048047-0.44673 0.17617-1.1633 0.064383-2.1035-0.048688-0.36699-0.032191-1.8803-0.032191-3.4266 0.015855-0.9881 0.2886-2.3107 0.015855-2.5659l0.016336-0.015692c0.063742 0.015692 0.12828 0.032184 0.19203 0.032184h0.016496c0.080078 0 0.17617-0.016492 0.25641-0.048036l-0.015856 0.031544c-0.25705 0.25539 0.015856 1.5778 0.015856 2.5661 0.015855 1.5461 0.032191 3.0594-0.015856 3.4264-0.11243 0.94022 0.015856 1.6568 0.063902 2.1035 0.048047 0.44609 0.12829 0.71718-0.080238 2.0239-0.20852 1.3066 0.2886 5.1155 0.32095 5.8003 0.032192 0.68563-0.12828 1.3074-0.27291 1.5778-0.12828 0.25523-0.048047 0.57371-0.048047 0.7809 0 0.20736 0 0.30279-0.11243 0.50998-0.11179 0.2072-0.063902 0.43024-0.015855 0.73351 0.048047 0.28629 0.096094 0.36587 0.080238 0.58956-0.032191 0.2389 0 0.47764 0.24072 0.71718 0.22422 0.22305 0.59322 0.22305 0.81744 0.047396 0.12876 0.15916 0.46557 0.15916 0.57736 0.032184 0.11243 0.095431 0.54581 0.12698 0.52932-0.11176 0.080239 0 0.3051-0.11128 0.22486-0.31848 0.063902-0.07958 0.11195-0.20736 0-0.35066-0.096575-0.12762-0.43322-0.71718-0.62541-0.98826-0.22486-0.41455-0.20836-0.36651-0.14462-0.79676 0.080239-0.4304-0.080238-0.52567 0.11243-1.3863 0.080238-0.3987 0.27227-1.4185 0.70565-3.0279 0.43274-1.6094 0.048046-4.3983 0.080238-4.9885 0.031551-0.5894 0.11243-1.0513 0.27226-1.9442 0.14462-0.90804 0.72198-2.4061 0.99425-3.6331 0.32095-1.3706 0.28876-2.1831 0.41705-3.4102 0.17681-1.7533-0.12828-2.7574-0.32031-3.7133-0.20852-1.2272-0.60956-1.96-0.83393-2.4061-0.24055-0.44673 0.11179-1.3705 0.12828-1.9126 0.032192-0.41455 0.11179-1.6094 0.16048-2.3746 0.095934 0.6376 0.41689 2.0719 0.46493 2.343 0.048046 0.27044-0.096735 1.5935 0.3525 3.1231 0.24072 0.73303 0.6576 3.2989 0.57736 3.6655 0.016336 0.14347-0.032192 0.38221-0.12828 0.6376-0.12829 0.39806-0.11179 0.97176-0.096094 1.1633-0.047887 0.23874-0.14462 0.73287-0.015696 0.76505-0.064382 0.095432-0.096574 0.095432-0.064382 0.19086-0.032192 0.079579-0.032192 0.095431-0.016496 0.14347 0.048687 0.15916 0.27291 0.015692 0.19267 0.063728-0.12829 0.063887-0.24072 0.17565-0.17617 0.35066 0.032191 0.07974 0.3525-0.095271 0.52932-0.15916 0.25641-0.07958 0.56103-0.23938 0.64111-0.38285 0.080238-0.12714 0.24071-0.36651 0.28876-0.4778 0.080239-0.14331 0.064383-0.23938 0.11243-0.35066 0.048047-0.095911 0.14398-0.22305 0.096094-0.33481h-1.6e-4c-0.048047-0.095431-0.12829-0.79676-0.24072-1.195-0.079598-0.33481-0.17617-1.7692-0.11179-2.4224 0.032191-0.50998 0-1.3224 0.015855-1.6731 0.016336-1.96-0.30462-2.9483-0.369-3.3148-0.080238-0.36651-0.19267-0.87633-0.19267-1.6574 0-0.7809 0.048688-1.8646-0.015695-2.6296-0.032192-0.4304-0.11243-1.0995-0.20852-1.6732-0.080238-0.57371-0.33665-1.45-0.59322-1.7053-0.24056-0.2706-0.5937-0.50998-0.9462-0.6376-0.096094-0.015852-0.20852-0.079579-0.28876-0.095431-0.14398-0.031544-0.24056-0.015852-0.36884-0.031544-0.27291-0.048036-0.49712-0.08022-0.70565-0.14347-0.31775-0.1092-0.6355-0.16604-0.80479-0.73014" fill="#666" stroke="#333" stroke-linecap="round" stroke-width=".23338"/>
</g>
</svg>
