<?xml version="1.0" encoding="UTF-8"?>
<svg width="200px" height="293px" version="1.1" viewBox="0 0 200 293" xmlns="http://www.w3.org/2000/svg">
<g stroke="#333" stroke-linejoin="round" stroke-miterlimit="10">
<path transform="matrix(2.6892 0 0 2.6921 -469.84 -213.32)" d="m226.64 137.96c-0.10894-0.2162-0.29051-1.8065-0.54616-2.709-0.18012-0.76032-0.39945-4.012-0.25274-5.4934 0.072628-1.1564 0-2.9992 0.034861-3.7943 0.037767-4.4429-0.68997-6.6847-0.83522-7.5147-0.18302-0.83142-0.43722-1.9879-0.43722-3.7581 0-1.7717 0.1104-4.2282-0.036314-5.9636-0.072628-0.97507-0.2542-2.4928-0.47208-3.7929-0.18157-1.3015-0.76405-3.2879-1.3451-3.8669-0.54616-0.61377-1.3465-1.1564-2.1454-1.4466-0.21788-0.034824-0.47354-0.17992-0.65511-0.2162-0.32683-0.071098-0.54616-0.034823-0.83668-0.071098-0.61879-0.10882-1.1272-0.18137-1.5993-0.32502-1.0546-0.36275-2.1091-0.47012-2.1091-4.3007 0.29051-0.3613 0.39945-0.72259 0.5084-1.0113 0.07408-0.18137 0.14526-0.57749 0.25565-0.94024h0.036314c0.14526-0.036275 0.2542-0.1451 0.39945-0.1451 0.18157-0.034824 0.32683 0.037726 0.54471 0 0.10894-0.034824 0.18302-0.10737 0.29051-0.14365 0.18302-0.07255 0.76405-0.07255 0.91076-0.25247h0.034861c0.14671-0.25392 0.037767-0.6515 0-0.83142-0.10894-0.32502-0.034861-0.68632-0.071175-1.0476v-0.036274c0.10894-0.10882 0.14526-0.18137 0.071175-0.47012 0-0.07255-0.034861-0.10737-0.034861-0.18137 0-0.14365 0-0.28875-0.036314-0.4324 0-0.17992-0.037767-0.28875-0.072629-0.43385 0.1438 0 0.25275-0.036275 0.32683-0.071098-0.036314-0.25392-0.29196-0.4353-0.36459-0.6515-0.072628-0.21765-0.10894-0.28875-0.10894-0.28875v-0.074c-0.034862-0.90252-0.65365-2.1663-1.0546-2.9977-0.39946-0.79514-0.98193-1.4452-1.746-1.8805-0.47208-0.2873-0.98048-0.46722-1.4889-0.57604-0.29196-0.074001-1.5281-0.21765-2.2195-0.074001-0.68997 0.18282-0.98193 0.47012-1.1272 0.65004 0 0-0.29051 0.11028-0.87154 0.25392-0.61879 0.2902-1.1998 0.72404-1.5644 1.3364-0.36314 0.61522-0.5084 1.8442-1.3814 1.9516 0.10894 0.1451 0.40091 0.18137 0.61879 0.10882-0.10894 0.54267-0.29196 1.1202-0.69287 1.4815 0.18302 0.1451 0.14671 0.32502 0.14671 0.5064-0.036314 0.10882-0.14671 0.17992-0.14671 0.25392 0 0.071098 0.1104 0.071098 0.1104 0.1422 0.072628 0.54412 0 1.3393-0.36314 1.7717 0.43577 0.47012-0.072628 1.1913 0.68997 1.3741 0.25565 0.071099 0.50985 0.071099 0.72773 0.17992 0.14526 0.071098 0.21788 0.2162 0.36314 0.28875 0.18302 0.10882 0.36459 0.14365 0.54471 0.10882h0.037766c0.10894 0.43385 0.21788 0.90397 0.32683 1.1202 0.072628 0.28875 0.21788 0.65004 0.47208 1.0113 0 3.8306-1.0168 3.938-2.0728 4.3007-0.5084 0.14365-1.0182 0.2162-1.5993 0.32502-0.29051 0.036275-0.5084 0-0.83668 0.071098-0.21788 0.036275-0.47354 0.18137-0.6551 0.2162-0.83668 0.2902-1.5993 0.83287-2.1817 1.4466-0.54471 0.57894-1.1272 2.5654-1.3436 3.8669-0.18302 1.3001-0.36459 2.8178-0.47354 3.7929-0.10894 1.7354-0.034862 4.1919-0.034862 5.9636 0 1.7702-0.21934 2.9266-0.40236 3.7581-0.18157 0.82997-0.87154 3.0717-0.83522 7.5147 0 0.79514-0.036314 2.6379 0.036314 3.7943 0.14526 1.4815-0.072628 4.7331-0.2542 5.4934-0.25565 0.90252-0.47354 2.4928-0.58248 2.709-0.10894 0.25247 0.10894 0.54122 0.2542 0.75887 0.1104 0.25247 0.072628 0.47012 0.21934 0.79514 0.10894 0.25247 0.47208 0.79514 0.65365 1.0824 0.18302 0.32647 0.9093 0.68777 1.4918 0.86914 0.39946 0.1451 1.1272 0.54122 1.1984 0.3613 0.11039-0.39757-0.1438-0.6515-0.43577-0.79514-0.18157-0.10882 0.36459 0.2162 0.47354-0.1451 0.034862-0.10882 0.034862-0.1451-0.072628-0.32502 0.072628-0.2162 0.034862-0.2162-0.10894-0.4324 0.2542-0.074 0.072628-1.1942-0.037767-1.7354 0.037767-0.43385 0.072628-1.7354-0.2542-2.6379-0.18157-0.57894-0.29051-1.1202-0.29051-1.4452-0.14526-0.83142 0.80036-6.6499 1.3102-8.3113 1.0531-3.4679 0.72628-6.4685 0.83377-7.0823 0.1104-0.61377 0.80181-3.8306 1.0197-5.2758l0.036314 0.037726c0.10894 1.7688 0.29051 4.4067 0.32683 5.3106 0.072628 1.229 0.87299 3.3242 0.32828 4.337-0.54616 1.0113-1.4555 2.6727-1.9276 5.4557-0.43577 2.1663-1.1272 4.4429-0.69142 8.4186 0.29051 2.783 0.21788 4.6258 0.94562 7.7323 0.61879 2.783 1.8912 6.1798 2.2544 8.2387 0.36459 2.0241 0.5084 3.0717 0.61734 4.4081 0.072628 1.3378-0.83522 7.6612 0.18157 11.31 0.98338 3.6492 1.4206 5.9621 1.6007 6.8661 0.43722 1.9516 0.036314 2.1678 0.21934 3.1428 0.18157 0.97506 0.21788 0.86624-0.29196 1.8065-0.47208 0.61522-1.1998 1.9516-1.454 2.2403-0.21788 0.32647-0.10894 0.61522 0 0.79514-0.18302 0.47012 0.36314 0.72259 0.54471 0.72259-0.072628 0.54122 0.94562 0.47012 1.1635 0.25392 0.29051 0.2873 1.0546 0.2873 1.3465-0.074 0.47208 0.39902 1.3088 0.39902 1.8535-0.10737 0.54616-0.54267 0.58248-1.0839 0.54616-1.6251-0.072628-0.50785 0.036314-0.68777 0.18157-1.3378 0.10894-0.68632 0.18157-1.1927-0.036314-1.6628-0.2542-0.47012-0.2542-0.68632-0.2542-1.1564s0.14526-1.1913-0.14671-1.7702c-0.29051-0.61377-0.65365-2.0227-0.58102-3.5781 0.036314-1.5526 1.1998-10.189 0.72773-13.152-0.5084-2.9629-0.32683-3.5767-0.18302-4.588 0.10894-1.0128 0.40091-2.6379 0.14671-4.7694-0.1104-0.83287-0.072629-4.2645-0.072629-7.7701 0.034862-2.2403 0.65365-5.2395 0.034862-5.8185l0.037767-0.034824c0.14526 0.034824 0.29051 0.072549 0.43577 0.072549h0.036314c0.18302 0 0.40091-0.037725 0.58248-0.10882l-0.036314 0.07255c-0.58248 0.57749 0.036314 3.5767 0.036314 5.817 0.034861 3.5056 0.072628 6.9372-0.036314 7.7701-0.2542 2.1315 0.036314 3.7566 0.14526 4.7694 0.10894 1.0113 0.29051 1.6251-0.18302 4.588-0.47208 2.9629 0.6551 11.599 0.72773 13.152 0.074081 1.5555-0.29051 2.9644-0.61879 3.5781-0.29051 0.57894-0.10894 1.3015-0.10894 1.7702 0 0.47012 0 0.68632-0.2542 1.1564-0.2542 0.47012-0.14526 0.97652-0.036314 1.6628 0.10894 0.65004 0.21788 0.82997 0.18302 1.3378-0.07408 0.54122 0 1.0824 0.54471 1.6251 0.5084 0.5064 1.3451 0.5064 1.8535 0.10737 0.29196 0.3613 1.056 0.3613 1.3088 0.074 0.25565 0.2162 1.2376 0.2873 1.2013-0.25392 0.18157 0 0.69142-0.25247 0.50985-0.72259 0.1438-0.17992 0.25275-0.46867 0-0.79514-0.21934-0.28875-0.98338-1.6251-1.4177-2.2403-0.50985-0.94024-0.47354-0.83142-0.32828-1.8065 0.18157-0.97506-0.18157-1.1913 0.2542-3.1428 0.18302-0.90397 0.61734-3.2168 1.6007-6.8661 0.98048-3.6492 0.10894-9.9727 0.18157-11.31 0.071175-1.3364 0.25565-2.384 0.61734-4.4081 0.32828-2.059 1.637-5.4557 2.2544-8.2387 0.72773-3.1066 0.6551-4.9493 0.94562-7.7323 0.40091-3.9757-0.29051-6.2509-0.72628-8.4186-0.47208-2.783-1.3828-4.4444-1.8912-5.4557-0.54471-1.0128 0.2542-3.108 0.29051-4.337 0.074081-0.94024 0.2542-3.6492 0.36459-5.3846 0.21788 1.4466 0.94562 4.6983 1.0546 5.3121 0.10894 0.61377-0.21934 3.6144 0.79891 7.0823 0.54616 1.6614 1.4903 7.4799 1.3088 8.3113 0.037767 0.32502-0.072628 0.86624-0.29051 1.4452-0.29051 0.90252-0.2542 2.2041-0.21788 2.6379-0.10894 0.54122-0.32828 1.6614-0.036314 1.7354-0.14526 0.2162-0.21788 0.2162-0.14526 0.4324-0.072628 0.17992-0.072628 0.2162-0.037767 0.32502 0.1104 0.3613 0.61879 0.036275 0.43722 0.1451-0.29051 0.14365-0.54616 0.39757-0.39946 0.79514 0.072628 0.17992 0.79891-0.2162 1.1998-0.3613 0.58248-0.18137 1.2724-0.54267 1.454-0.86769 0.18157-0.28875 0.54616-0.83142 0.6551-1.0839 0.18157-0.32502 0.14526-0.54267 0.2542-0.79514 0.10894-0.21765 0.32683-0.5064 0.21788-0.75887z" fill="none" stroke-width=".52917"/>
<path transform="matrix(2.6892 0 0 2.6921 -469.84 -213.32)" d="m226.64 137.96c-0.10894-0.2162-0.29051-1.8065-0.54616-2.709-0.18012-0.76032-0.39945-4.012-0.25274-5.4934 0.072628-1.1564 0-2.9992 0.034861-3.7943 0.037767-4.4429-0.68997-6.6847-0.83522-7.5147-0.18302-0.83142-0.43722-1.9879-0.43722-3.7581 0-1.7717 0.1104-4.2282-0.036314-5.9636-0.072628-0.97507-0.2542-2.4928-0.47208-3.7929-0.18157-1.3015-0.76405-3.2879-1.3451-3.8669-0.54616-0.61377-1.3465-1.1564-2.1454-1.4466-0.21788-0.034824-0.47354-0.17992-0.65511-0.2162-0.32683-0.071098-0.54616-0.034823-0.83668-0.071098-0.61879-0.10882-1.1272-0.18137-1.5993-0.32502-1.0546-0.36275-2.1091-0.47012-2.1091-4.3007 0.29051-0.3613 0.39945-0.72259 0.5084-1.0113 0.07408-0.18137 0.14526-0.57749 0.25565-0.94024h0.036314c0.14526-0.036275 0.2542-0.1451 0.39945-0.1451 0.18157-0.034824 0.32683 0.037726 0.54471 0 0.10894-0.034824 0.18302-0.10737 0.29051-0.14365 0.18302-0.07255 0.76405-0.07255 0.91076-0.25247h0.034861c0.14671-0.25392 0.037767-0.6515 0-0.83142-0.10894-0.32502-0.034861-0.68632-0.071175-1.0476v-0.036274c0.10894-0.10882 0.14526-0.18137 0.071175-0.47012 0-0.07255-0.034861-0.10737-0.034861-0.18137 0-0.14365 0-0.28875-0.036314-0.4324 0-0.17992-0.037767-0.28875-0.072629-0.43385 0.1438 0 0.25275-0.036275 0.32683-0.071098-0.036314-0.25392-0.29196-0.4353-0.36459-0.6515-0.072628-0.21765-0.10894-0.28875-0.10894-0.28875v-0.074c-0.034862-0.90252-0.65365-2.1663-1.0546-2.9977-0.39946-0.79514-0.98193-1.4452-1.746-1.8805-0.47208-0.2873-0.98048-0.46722-1.4889-0.57604-0.29196-0.074001-1.5281-0.21765-2.2195-0.074001-0.68997 0.18282-0.98193 0.47012-1.1272 0.65004 0 0-0.29051 0.11028-0.87154 0.25392-0.61879 0.2902-1.1998 0.72404-1.5644 1.3364-0.36314 0.61522-0.5084 1.8442-1.3814 1.9516 0.10894 0.1451 0.40091 0.18137 0.61879 0.10882-0.10894 0.54267-0.29196 1.1202-0.69287 1.4815 0.18302 0.1451 0.14671 0.32502 0.14671 0.5064-0.036314 0.10882-0.14671 0.17992-0.14671 0.25392 0 0.071098 0.1104 0.071098 0.1104 0.1422 0.072628 0.54412 0 1.3393-0.36314 1.7717 0.43577 0.47012-0.072628 1.1913 0.68997 1.3741 0.25565 0.071099 0.50985 0.071099 0.72773 0.17992 0.14526 0.071098 0.21788 0.2162 0.36314 0.28875 0.18302 0.10882 0.36459 0.14365 0.54471 0.10882h0.037766c0.10894 0.43385 0.21788 0.90397 0.32683 1.1202 0.072628 0.28875 0.21788 0.65004 0.47208 1.0113 0 3.8306-1.0168 3.938-2.0728 4.3007-0.5084 0.14365-1.0182 0.2162-1.5993 0.32502-0.29051 0.036275-0.5084 0-0.83668 0.071098-0.21788 0.036275-0.47354 0.18137-0.6551 0.2162-0.83668 0.2902-1.5993 0.83287-2.1817 1.4466-0.54471 0.57894-1.1272 2.5654-1.3436 3.8669-0.18302 1.3001-0.36459 2.8178-0.47354 3.7929-0.10894 1.7354-0.034862 4.1919-0.034862 5.9636 0 1.7702-0.21934 2.9266-0.40236 3.7581-0.18157 0.82997-0.87154 3.0717-0.83522 7.5147 0 0.79514-0.036314 2.6379 0.036314 3.7943 0.14526 1.4815-0.072628 4.7331-0.2542 5.4934-0.25565 0.90252-0.47354 2.4928-0.58248 2.709-0.10894 0.25247 0.10894 0.54122 0.2542 0.75887 0.1104 0.25247 0.072628 0.47012 0.21934 0.79514 0.10894 0.25247 0.47208 0.79514 0.65365 1.0824 0.18302 0.32647 0.9093 0.68777 1.4918 0.86914 0.39946 0.1451 1.1272 0.54122 1.1984 0.3613 0.11039-0.39757-0.1438-0.6515-0.43577-0.79514-0.18157-0.10882 0.36459 0.2162 0.47354-0.1451 0.034862-0.10882 0.034862-0.1451-0.072628-0.32502 0.072628-0.2162 0.034862-0.2162-0.10894-0.4324 0.2542-0.074 0.072628-1.1942-0.037767-1.7354 0.037767-0.43385 0.072628-1.7354-0.2542-2.6379-0.18157-0.57894-0.29051-1.1202-0.29051-1.4452-0.14526-0.83142 0.80036-6.6499 1.3102-8.3113 1.0531-3.4679 0.72628-6.4685 0.83377-7.0823 0.1104-0.61377 0.80181-3.8306 1.0197-5.2758l0.036314 0.037726c0.10894 1.7688 0.29051 4.4067 0.32683 5.3106 0.072628 1.229 0.87299 3.3242 0.32828 4.337-0.54616 1.0113-1.4555 2.6727-1.9276 5.4557-0.43577 2.1663-1.1272 4.4429-0.69142 8.4186 0.29051 2.783 0.21788 4.6258 0.94562 7.7323 0.61879 2.783 1.8912 6.1798 2.2544 8.2387 0.36459 2.0241 0.5084 3.0717 0.61734 4.4081 0.072628 1.3378-0.83522 7.6612 0.18157 11.31 0.98338 3.6492 1.4206 5.9621 1.6007 6.8661 0.43722 1.9516 0.036314 2.1678 0.21934 3.1428 0.18157 0.97506 0.21788 0.86624-0.29196 1.8065-0.47208 0.61522-1.1998 1.9516-1.454 2.2403-0.21788 0.32647-0.10894 0.61522 0 0.79514-0.18302 0.47012 0.36314 0.72259 0.54471 0.72259-0.072628 0.54122 0.94562 0.47012 1.1635 0.25392 0.29051 0.2873 1.0546 0.2873 1.3465-0.074 0.47208 0.39902 1.3088 0.39902 1.8535-0.10737 0.54616-0.54267 0.58248-1.0839 0.54616-1.6251-0.072628-0.50785 0.036314-0.68777 0.18157-1.3378 0.10894-0.68632 0.18157-1.1927-0.036314-1.6628-0.2542-0.47012-0.2542-0.68632-0.2542-1.1564s0.14526-1.1913-0.14671-1.7702c-0.29051-0.61377-0.65365-2.0227-0.58102-3.5781 0.036314-1.5526 1.1998-10.189 0.72773-13.152-0.5084-2.9629-0.32683-3.5767-0.18302-4.588 0.10894-1.0128 0.40091-2.6379 0.14671-4.7694-0.1104-0.83287-0.072629-4.2645-0.072629-7.7701 0.034862-2.2403 0.65365-5.2395 0.034862-5.8185l0.037767-0.034824c0.14526 0.034824 0.29051 0.072549 0.43577 0.072549h0.036314c0.18302 0 0.40091-0.037725 0.58248-0.10882l-0.036314 0.07255c-0.58248 0.57749 0.036314 3.5767 0.036314 5.817 0.034861 3.5056 0.072628 6.9372-0.036314 7.7701-0.2542 2.1315 0.036314 3.7566 0.14526 4.7694 0.10894 1.0113 0.29051 1.6251-0.18302 4.588-0.47208 2.9629 0.6551 11.599 0.72773 13.152 0.074081 1.5555-0.29051 2.9644-0.61879 3.5781-0.29051 0.57894-0.10894 1.3015-0.10894 1.7702 0 0.47012 0 0.68632-0.2542 1.1564-0.2542 0.47012-0.14526 0.97652-0.036314 1.6628 0.10894 0.65004 0.21788 0.82997 0.18302 1.3378-0.07408 0.54122 0 1.0824 0.54471 1.6251 0.5084 0.5064 1.3451 0.5064 1.8535 0.10737 0.29196 0.3613 1.056 0.3613 1.3088 0.074 0.25565 0.2162 1.2376 0.2873 1.2013-0.25392 0.18157 0 0.69142-0.25247 0.50985-0.72259 0.1438-0.17992 0.25275-0.46867 0-0.79514-0.21934-0.28875-0.98338-1.6251-1.4177-2.2403-0.50985-0.94024-0.47354-0.83142-0.32828-1.8065 0.18157-0.97506-0.18157-1.1913 0.2542-3.1428 0.18302-0.90397 0.61734-3.2168 1.6007-6.8661 0.98048-3.6492 0.10894-9.9727 0.18157-11.31 0.071175-1.3364 0.25565-2.384 0.61734-4.4081 0.32828-2.059 1.637-5.4557 2.2544-8.2387 0.72773-3.1066 0.6551-4.9493 0.94562-7.7323 0.40091-3.9757-0.29051-6.2509-0.72628-8.4186-0.47208-2.783-1.3828-4.4444-1.8912-5.4557-0.54471-1.0128 0.2542-3.108 0.29051-4.337 0.074081-0.94024 0.2542-3.6492 0.36459-5.3846 0.21788 1.4466 0.94562 4.6983 1.0546 5.3121 0.10894 0.61377-0.21934 3.6144 0.79891 7.0823 0.54616 1.6614 1.4903 7.4799 1.3088 8.3113 0.037767 0.32502-0.072628 0.86624-0.29051 1.4452-0.29051 0.90252-0.2542 2.2041-0.21788 2.6379-0.10894 0.54122-0.32828 1.6614-0.036314 1.7354-0.14526 0.2162-0.21788 0.2162-0.14526 0.4324-0.072628 0.17992-0.072628 0.2162-0.037767 0.32502 0.1104 0.3613 0.61879 0.036275 0.43722 0.1451-0.29051 0.14365-0.54616 0.39757-0.39946 0.79514 0.072628 0.17992 0.79891-0.2162 1.1998-0.3613 0.58248-0.18137 1.2724-0.54267 1.454-0.86769 0.18157-0.28875 0.54616-0.83142 0.6551-1.0839 0.18157-0.32502 0.14526-0.54267 0.2542-0.79514 0.10894-0.21765 0.32683-0.5064 0.21788-0.75887zm0 0" fill="none" stroke-linecap="round" stroke-width=".52917"/>
<path transform="matrix(6.0976 0 0 6.1042 .48589 0)" d="m15.127 7.9998c-0.16528 0.5529-0.47342 0.60922-0.78925 0.718-0.22422 0.063353-0.44908 0.09535-0.70533 0.14334-0.12812 0.015998-0.22422 0-0.369 0.031356-0.096094 0.015999-0.20884 0.079992-0.28892 0.09535-0.369 0.12799-0.70533 0.36732-0.96222 0.63801-0.24023 0.25533-0.49712 1.1314-0.59258 1.7054-0.080719 0.57338-0.1608 1.2427-0.20884 1.6728-0.048047 0.76536-0.015375 1.8488-0.015375 2.6301 0 0.78072-0.096734 1.2907-0.17745 1.6574-0.080078 0.36604-0.38438 1.3547-0.36836 3.3142 0 0.35068-0.016016 1.1634 0.016015 1.6734 0.064063 0.65337-0.032031 2.0875-0.11211 2.4228-0.11275 0.39804-0.20884 1.0994-0.25689 1.1948-0.048047 0.11135 0.048047 0.23869 0.11211 0.33468 0.048687 0.11135 0.032031 0.20734 0.096734 0.35068 0.048047 0.11135 0.2082 0.35068 0.28828 0.47739 0.080719 0.14398 0.40167 0.30333 0.65792 0.38332 0.17617 0.063993 0.49712 0.23869 0.52852 0.15934 0.048687-0.17534-0.063422-0.28733-0.19219-0.35068-0.080078-0.047995 0.1608 0.09535 0.20884-0.063993 0.015375-0.047995 0.015375-0.063993-0.032031-0.14334 0.032031-0.09535 0.015375-0.09535-0.048047-0.1907 0.11211-0.032637 0.032031-0.52666-0.016656-0.76536 0.016656-0.19134 0.032031-0.76536-0.11211-1.1634-0.080078-0.25533-0.12812-0.49403-0.12812-0.63737-0.064062-0.36668 0.35298-2.9328 0.57784-3.6655 0.46445-1.5294 0.32031-2.8528 0.36772-3.1235 0.048687-0.27069 0.35362-1.6894 0.44972-2.3268l0.016016 0.016638c0.048047 0.78008 0.12812 1.9435 0.14414 2.3422 0.032031 0.54202 0.38502 1.4661 0.14478 1.9128-0.24088 0.44603-0.64191 1.1788-0.85011 2.4061-0.19219 0.95542-0.49712 1.9595-0.30494 3.7129 0.12812 1.2274 0.096094 2.0401 0.41705 3.4102 0.27291 1.2274 0.83409 2.7255 0.99425 3.6335 0.1608 0.8927 0.22422 1.3547 0.27227 1.9441 0.032031 0.59002-0.36836 3.3788 0.080078 4.9883 0.4337 1.6094 0.62653 2.6295 0.70597 3.0282 0.19283 0.86071 0.016016 0.95606 0.096735 1.3861 0.080078 0.43003 0.096094 0.38204-0.12877 0.79672-0.2082 0.27133-0.52916 0.86071-0.64126 0.98805-0.096094 0.14334-0.048047 0.27133 0 0.35068-0.080719 0.20734 0.16016 0.31869 0.24023 0.31869-0.032031 0.2387 0.41705 0.20734 0.51314 0.11199 0.12812 0.12671 0.46509 0.12671 0.59386-0.032636 0.2082 0.17598 0.5772 0.17598 0.81744-0.047355 0.24088-0.23934 0.25689-0.47803 0.24088-0.71672-0.032031-0.22398 0.016016-0.30333 0.080079-0.59002 0.048046-0.30269 0.080078-0.52602-0.016016-0.73336-0.11211-0.20734-0.11211-0.30269-0.11211-0.51002 0-0.20734 0.064062-0.52538-0.064704-0.78072-0.12812-0.27069-0.28828-0.89206-0.25625-1.5781 0.016016-0.68473 0.52916-4.4936 0.32095-5.8003-0.22422-1.3067-0.14414-1.5774-0.080719-2.0235 0.048047-0.44667 0.17681-1.1634 0.064703-2.1035-0.048688-0.36732-0.032031-1.8808-0.032031-3.4268 0.015375-0.98806 0.28828-2.3108 0.015375-2.5661l0.016656-0.015358c0.064062 0.015358 0.12812 0.031997 0.19219 0.031997h0.016016c0.080719 0 0.17681-0.016639 0.25689-0.047995l-0.016016 0.031356c-0.25689 0.25533 0.016016 1.5781 0.016016 2.5661 0.015375 1.5461 0.032031 3.0595-0.016016 3.4268-0.11211 0.94006 0.016016 1.6568 0.064063 2.1035 0.048046 0.44603 0.12812 0.71672-0.080719 2.0235-0.2082 1.3067 0.28892 5.1156 0.32095 5.8003 0.032672 0.68601-0.12812 1.3074-0.27291 1.5781-0.12812 0.25533-0.048047 0.57338-0.048047 0.78072 0 0.20734 0 0.30269-0.11211 0.51002-0.11211 0.20734-0.064062 0.43067-0.016015 0.73336 0.048047 0.28669 0.096094 0.36604 0.080719 0.59002-0.032672 0.2387 0 0.47739 0.24023 0.71672 0.22422 0.22334 0.59322 0.22334 0.81744 0.047355 0.12877 0.15934 0.46574 0.15934 0.57784 0.032636 0.11211 0.09535 0.54517 0.12671 0.52916-0.11199 0.080079 0 0.30494-0.11135 0.22486-0.31869 0.063422-0.079352 0.11147-0.2067 0-0.35068-0.096735-0.12735-0.4337-0.71672-0.62525-0.98805-0.22486-0.41468-0.20884-0.36668-0.14478-0.79672 0.080078-0.43003-0.080079-0.52538 0.11211-1.3861 0.080719-0.39868 0.27227-1.4187 0.70597-3.0282 0.43242-1.6094 0.048047-4.3983 0.080078-4.9883 0.03139-0.58938 0.11275-1.0514 0.27226-1.9441 0.14478-0.90806 0.72198-2.4061 0.99425-3.6335 0.32095-1.3701 0.28892-2.1828 0.41705-3.4102 0.17681-1.7534-0.12812-2.7568-0.32031-3.7129-0.2082-1.2274-0.60988-1.9601-0.83409-2.4061-0.24023-0.44667 0.11211-1.3707 0.12812-1.9128 0.032672-0.41468 0.11211-1.6094 0.1608-2.3748 0.096094 0.63801 0.41705 2.0721 0.46509 2.3428 0.048047 0.27069-0.096735 1.5941 0.35234 3.1235 0.24088 0.73272 0.65728 3.2988 0.5772 3.6655 0.016656 0.14334-0.032032 0.38204-0.12812 0.63737-0.12812 0.39804-0.11211 0.97206-0.096094 1.1634-0.048047 0.2387-0.14478 0.73272-0.016016 0.76536-0.064062 0.095349-0.096094 0.095349-0.064062 0.1907-0.032032 0.079352-0.032032 0.09535-0.016657 0.14334 0.048688 0.15934 0.27291 0.015998 0.19283 0.063993-0.12812 0.063353-0.24088 0.17534-0.17617 0.35068 0.032031 0.079351 0.35234-0.09535 0.52916-0.15934 0.25689-0.079992 0.56119-0.23934 0.64127-0.38268 0.080078-0.12735 0.24088-0.36668 0.28892-0.47803 0.080079-0.14334 0.064063-0.23934 0.11211-0.35068 0.048047-0.09599 0.14414-0.2227 0.096094-0.33468-0.048047-0.09535-0.12812-0.79672-0.24088-1.1948-0.079438-0.33532-0.17617-1.7694-0.11147-2.4228 0.032031-0.51003 0-1.3227 0.015375-1.6734 0.016656-1.9595-0.3043-2.9482-0.36836-3.3142-0.080718-0.36668-0.19283-0.87671-0.19283-1.6574 0-0.78136 0.048688-1.8648-0.016015-2.6301-0.032032-0.43003-0.11211-1.0994-0.2082-1.6728-0.080079-0.57402-0.33697-1.4501-0.59322-1.7054-0.24088-0.27069-0.59386-0.51002-0.9462-0.63801-0.096094-0.015358-0.20884-0.079351-0.28892-0.09535-0.14414-0.031356-0.24088-0.015358-0.369-0.031356-0.27291-0.047995-0.49712-0.079992-0.70533-0.14334-0.31775-0.10943-0.6355-0.16638-0.80527-0.73016" fill="#999" fill-opacity=".50196" stroke-linecap="round" stroke-width=".23338"/>
</g>
</svg>
