<?xml version="1.0" encoding="UTF-8"?>
<svg width="800px" height="526px" version="1.1" viewBox="0 0 800 526" xmlns="http://www.w3.org/2000/svg" xmlns:xlink="http://www.w3.org/1999/xlink">
<defs>
<symbol id="g" overflow="visible">
<path d="m2.4844-1.6562h3.2188v-11.109l-3.5 0.6875v-1.7812l3.4688-0.70312h1.9844v12.906h3.2188v1.6562h-8.3906z"/>
</symbol>
<symbol id="e" overflow="visible">
<path d="m3.8281-1.6562h6.8906v1.6562h-9.25v-1.6562c0.73828-0.76953 1.7539-1.8047 3.0469-3.1094 1.2891-1.3125 2.1016-2.1562 2.4375-2.5312 0.63281-0.70703 1.0781-1.3047 1.3281-1.7969 0.25-0.5 0.375-0.98438 0.375-1.4531 0-0.76953-0.27344-1.3984-0.8125-1.8906-0.54297-0.48828-1.25-0.73438-2.125-0.73438-0.61719 0-1.2656 0.10938-1.9531 0.32812-0.6875 0.21094-1.4219 0.53125-2.2031 0.96875v-1.9844c0.78906-0.32031 1.5312-0.5625 2.2188-0.71875 0.69531-0.16406 1.3281-0.25 1.8906-0.25 1.5078 0 2.7109 0.38281 3.6094 1.1406 0.90625 0.75 1.3594 1.7578 1.3594 3.0156 0 0.59375-0.11719 1.1641-0.34375 1.7031-0.21875 0.53125-0.625 1.1641-1.2188 1.8906-0.16797 0.1875-0.6875 0.73438-1.5625 1.6406-0.86719 0.89844-2.0938 2.1562-3.6875 3.7812z"/>
</symbol>
<symbol id="f" overflow="visible">
<path d="m2.1562-14.562h7.7344v1.6562h-5.9219v3.5625c0.28125-0.09375 0.5625-0.16016 0.84375-0.20312 0.28906-0.050781 0.57812-0.078125 0.85938-0.078125 1.6328 0 2.9258 0.44922 3.875 1.3438 0.94531 0.88672 1.4219 2.0898 1.4219 3.6094 0 1.5625-0.49219 2.7812-1.4688 3.6562-0.96875 0.86719-2.3438 1.2969-4.125 1.2969-0.61719 0-1.2422-0.054688-1.875-0.15625-0.625-0.10547-1.2773-0.25781-1.9531-0.46875v-1.9844c0.58203 0.32422 1.1875 0.5625 1.8125 0.71875s1.2852 0.23438 1.9844 0.23438c1.125 0 2.0156-0.29688 2.6719-0.89062s0.98438-1.3945 0.98438-2.4062c0-1.0195-0.32812-1.8203-0.98438-2.4062-0.65625-0.59375-1.5469-0.89062-2.6719-0.89062-0.53125 0-1.0625 0.058594-1.5938 0.17188-0.52344 0.11719-1.0547 0.29688-1.5938 0.54688z"/>
</symbol>
<symbol id="a" overflow="visible">
<path d="m6.3594-13.266c-1.0234 0-1.7891 0.5-2.2969 1.5-0.51172 0.99219-0.76562 2.4922-0.76562 4.5 0 1.9922 0.25391 3.4844 0.76562 4.4844 0.50781 1 1.2734 1.5 2.2969 1.5 1.0195 0 1.7852-0.5 2.2969-1.5 0.50781-1 0.76562-2.4922 0.76562-4.4844 0-2.0078-0.25781-3.5078-0.76562-4.5-0.51172-1-1.2773-1.5-2.2969-1.5zm0-1.5625c1.625 0 2.8672 0.64844 3.7344 1.9375 0.86328 1.293 1.2969 3.168 1.2969 5.625 0 2.4492-0.43359 4.3203-1.2969 5.6094-0.86719 1.293-2.1094 1.9375-3.7344 1.9375-1.6367 0-2.8867-0.64453-3.75-1.9375-0.86719-1.2891-1.2969-3.1602-1.2969-5.6094 0-2.457 0.42969-4.332 1.2969-5.625 0.86328-1.2891 2.1133-1.9375 3.75-1.9375z"/>
</symbol>
<symbol id="j" overflow="visible">
<path d="m7.5469-12.844-4.9688 7.7656h4.9688zm-0.51562-1.7188h2.4844v9.4844h2.0781v1.6406h-2.0781v3.4375h-1.9688v-3.4375h-6.5781v-1.9062z"/>
</symbol>
<symbol id="i" overflow="visible">
<path d="m6.3594-6.9219c-0.9375 0-1.6797 0.25-2.2188 0.75-0.53125 0.5-0.79688 1.1953-0.79688 2.0781 0 0.875 0.26562 1.5625 0.79688 2.0625 0.53906 0.5 1.2812 0.75 2.2188 0.75 0.92578 0 1.6602-0.25 2.2031-0.75 0.53906-0.50781 0.8125-1.1953 0.8125-2.0625 0-0.88281-0.27344-1.5781-0.8125-2.0781-0.53125-0.5-1.2656-0.75-2.2031-0.75zm-1.9844-0.82812c-0.84375-0.20703-1.5-0.60156-1.9688-1.1875-0.46875-0.58203-0.70312-1.2891-0.70312-2.125 0-1.1562 0.41016-2.0703 1.2344-2.75 0.83203-0.67578 1.9727-1.0156 3.4219-1.0156 1.4453 0 2.582 0.33984 3.4062 1.0156 0.82031 0.67969 1.2344 1.5938 1.2344 2.75 0 0.83594-0.23438 1.543-0.70312 2.125-0.46875 0.58594-1.125 0.98047-1.9688 1.1875 0.95703 0.21875 1.6953 0.65234 2.2188 1.2969 0.53125 0.63672 0.79688 1.4219 0.79688 2.3594 0 1.4062-0.43359 2.4922-1.2969 3.25-0.85547 0.75-2.0859 1.125-3.6875 1.125-1.6172 0-2.8555-0.375-3.7188-1.125-0.85547-0.75781-1.2812-1.8438-1.2812-3.25 0-0.9375 0.26562-1.7227 0.79688-2.3594 0.53125-0.64453 1.2695-1.0781 2.2188-1.2969zm-0.71875-3.125c0 0.76172 0.23438 1.3555 0.70312 1.7812 0.47656 0.41797 1.1445 0.625 2 0.625 0.84375 0 1.5039-0.20703 1.9844-0.625 0.47656-0.42578 0.71875-1.0195 0.71875-1.7812 0-0.75-0.24219-1.332-0.71875-1.75-0.48047-0.42578-1.1406-0.64062-1.9844-0.64062-0.85547 0-1.5234 0.21484-2 0.64062-0.46875 0.41797-0.70312 1-0.70312 1.75z"/>
</symbol>
<symbol id="h" overflow="visible">
<path d="m1.9688-14.562h1.9688v5.9688h7.1562v-5.9688h1.9688v14.562h-1.9688v-6.9375h-7.1562v6.9375h-1.9688z"/>
</symbol>
<symbol id="q" overflow="visible">
<path d="m1.1094-10.922h8.5156v1.625l-6.75 7.8594h6.75v1.4375h-8.7656v-1.6406l6.75-7.8594h-6.5z"/>
</symbol>
<symbol id="b" overflow="visible">
<path d="m9.75-10.516v1.6875c-0.51172-0.28125-1.0234-0.48828-1.5312-0.625-0.51172-0.14453-1.0273-0.21875-1.5469-0.21875-1.168 0-2.0742 0.37109-2.7188 1.1094-0.63672 0.74219-0.95312 1.7773-0.95312 3.1094 0 1.3359 0.31641 2.3711 0.95312 3.1094 0.64453 0.74219 1.5508 1.1094 2.7188 1.1094 0.51953 0 1.0352-0.066406 1.5469-0.20312 0.50781-0.14453 1.0195-0.35938 1.5312-0.64062v1.6562c-0.5 0.24219-1.0234 0.41797-1.5625 0.53125-0.53125 0.11328-1.1016 0.17188-1.7031 0.17188-1.6484 0-2.9531-0.51562-3.9219-1.5469s-1.4531-2.4258-1.4531-4.1875c0-1.7812 0.48828-3.1797 1.4688-4.2031 0.97656-1.0195 2.3164-1.5312 4.0156-1.5312 0.55078 0 1.0859 0.058594 1.6094 0.17188 0.53125 0.11719 1.0469 0.28125 1.5469 0.5z"/>
</symbol>
<symbol id="u" overflow="visible">
<path d="m6.5938-8.0625c-0.88672 0-1.5898 0.30469-2.1094 0.90625-0.51172 0.60547-0.76562 1.4336-0.76562 2.4844 0 1.043 0.25391 1.8711 0.76562 2.4844 0.51953 0.60547 1.2227 0.90625 2.1094 0.90625 0.88281 0 1.582-0.30078 2.0938-0.90625 0.51953-0.61328 0.78125-1.4414 0.78125-2.4844 0-1.0508-0.26172-1.8789-0.78125-2.4844-0.51172-0.60156-1.2109-0.90625-2.0938-0.90625zm3.9219-6.1875v1.7969c-0.5-0.22656-1.0078-0.40625-1.5156-0.53125-0.5-0.125-0.99609-0.1875-1.4844-0.1875-1.3047 0-2.2969 0.44531-2.9844 1.3281-0.6875 0.875-1.0781 2.1992-1.1719 3.9688 0.38281-0.5625 0.86328-0.99219 1.4375-1.2969 0.58203-0.30078 1.2227-0.45312 1.9219-0.45312 1.457 0 2.6094 0.44531 3.4531 1.3281 0.85156 0.88672 1.2812 2.0938 1.2812 3.625 0 1.4922-0.44531 2.6875-1.3281 3.5938-0.88672 0.90625-2.0625 1.3594-3.5312 1.3594-1.6875 0-2.9805-0.64453-3.875-1.9375-0.88672-1.2891-1.3281-3.1602-1.3281-5.6094 0-2.3008 0.54688-4.1328 1.6406-5.5 1.0938-1.375 2.5625-2.0625 4.4062-2.0625 0.48828 0 0.98438 0.046875 1.4844 0.14062 0.50781 0.09375 1.0391 0.24219 1.5938 0.4375z"/>
</symbol>
<symbol id="t" overflow="visible">
<path d="m9.0781-9.2656v-5.9219h1.7969v15.188h-1.7969v-1.6406c-0.375 0.65625-0.85547 1.1406-1.4375 1.4531-0.57422 0.3125-1.2617 0.46875-2.0625 0.46875-1.3242 0-2.4023-0.52344-3.2344-1.5781-0.82422-1.0508-1.2344-2.4375-1.2344-4.1562s0.41016-3.1016 1.2344-4.1562c0.83203-1.0508 1.9102-1.5781 3.2344-1.5781 0.80078 0 1.4883 0.15625 2.0625 0.46875 0.58203 0.3125 1.0625 0.79688 1.4375 1.4531zm-6.125 3.8125c0 1.3242 0.26953 2.3594 0.8125 3.1094 0.55078 0.75 1.3008 1.125 2.25 1.125 0.94531 0 1.6914-0.375 2.2344-1.125 0.55078-0.75 0.82812-1.7852 0.82812-3.1094 0-1.3203-0.27734-2.3594-0.82812-3.1094-0.54297-0.75-1.2891-1.125-2.2344-1.125-0.94922 0-1.6992 0.375-2.25 1.125-0.54297 0.75-0.8125 1.7891-0.8125 3.1094z"/>
</symbol>
<symbol id="s" overflow="visible">
<path d="m9.7344-5.4531c0-1.3203-0.27734-2.3594-0.82812-3.1094-0.54297-0.75-1.2891-1.125-2.2344-1.125-0.94922 0-1.6953 0.375-2.2344 1.125-0.54297 0.75-0.8125 1.7891-0.8125 3.1094 0 1.3242 0.26953 2.3594 0.8125 3.1094 0.53906 0.75 1.2852 1.125 2.2344 1.125 0.94531 0 1.6914-0.375 2.2344-1.125 0.55078-0.75 0.82812-1.7852 0.82812-3.1094zm-6.1094-3.8125c0.375-0.65625 0.84766-1.1406 1.4219-1.4531 0.57031-0.3125 1.2578-0.46875 2.0625-0.46875 1.332 0 2.4102 0.52734 3.2344 1.5781 0.83203 1.0547 1.25 2.4375 1.25 4.1562s-0.41797 3.1055-1.25 4.1562c-0.82422 1.0547-1.9023 1.5781-3.2344 1.5781-0.80469 0-1.4922-0.15625-2.0625-0.46875-0.57422-0.3125-1.0469-0.79688-1.4219-1.4531v1.6406h-1.8125v-15.188h1.8125z"/>
</symbol>
<symbol id="r" overflow="visible">
<path d="m5.7188 0-5.5625-14.562h2.0625l4.6094 12.266 4.625-12.266h2.0469l-5.5469 14.562z"/>
</symbol>
<symbol id="p" overflow="visible">
<path d="m1.2344-0.82812h1.625v-5.5625l-1.7656 0.34375v-0.89062l1.75-0.35938h0.98438v6.4688h1.6094v0.82812h-4.2031z"/>
</symbol>
<symbol id="o" overflow="visible">
<path d="m1.9219-0.82812h3.4375v0.82812h-4.625v-0.82812c0.375-0.38281 0.88281-0.90625 1.5312-1.5625 0.64453-0.65625 1.0508-1.0781 1.2188-1.2656 0.3125-0.35156 0.53125-0.64844 0.65625-0.89062 0.125-0.25 0.1875-0.49219 0.1875-0.73438 0-0.38281-0.13672-0.69531-0.40625-0.9375-0.27344-0.25-0.625-0.375-1.0625-0.375-0.3125 0-0.64062 0.058594-0.98438 0.17188-0.33594 0.10547-0.69922 0.26562-1.0938 0.48438v-1c0.39453-0.15625 0.76562-0.27344 1.1094-0.35938 0.34375-0.082031 0.66016-0.125 0.95312-0.125 0.75 0 1.3477 0.1875 1.7969 0.5625 0.45703 0.375 0.6875 0.88281 0.6875 1.5156 0 0.30469-0.058594 0.58984-0.17188 0.85938-0.11719 0.26172-0.32031 0.57422-0.60938 0.9375-0.085937 0.09375-0.34375 0.37109-0.78125 0.82812-0.4375 0.44922-1.0547 1.0781-1.8438 1.8906z"/>
</symbol>
<symbol id="n" overflow="visible">
<path d="m4.0625-3.9375c0.46875 0.10547 0.83203 0.32031 1.0938 0.64062 0.26953 0.3125 0.40625 0.70312 0.40625 1.1719 0 0.71875-0.25 1.2773-0.75 1.6719-0.49219 0.39844-1.1953 0.59375-2.1094 0.59375-0.30469 0-0.61719-0.03125-0.9375-0.09375-0.32422-0.0625-0.65625-0.14844-1-0.26562v-0.95312c0.26953 0.15625 0.56641 0.27734 0.89062 0.35938 0.33203 0.085938 0.67578 0.125 1.0312 0.125 0.61328 0 1.082-0.11719 1.4062-0.35938 0.32031-0.25 0.48438-0.60938 0.48438-1.0781 0-0.42578-0.15234-0.75781-0.45312-1-0.30469-0.23828-0.71875-0.35938-1.25-0.35938h-0.85938v-0.8125h0.89062c0.48828 0 0.85938-0.097656 1.1094-0.29688 0.25781-0.19531 0.39062-0.47656 0.39062-0.84375 0-0.36328-0.13672-0.64453-0.40625-0.84375-0.26172-0.20703-0.63672-0.3125-1.125-0.3125-0.27344 0-0.5625 0.03125-0.875 0.09375-0.3125 0.054688-0.65234 0.14062-1.0156 0.26562v-0.875c0.375-0.10156 0.72266-0.17969 1.0469-0.23438 0.33203-0.050781 0.64062-0.078125 0.92188-0.078125 0.75 0 1.3438 0.17188 1.7812 0.51562 0.4375 0.33594 0.65625 0.79297 0.65625 1.375 0 0.40625-0.11719 0.75-0.34375 1.0312-0.23047 0.27344-0.55859 0.46094-0.98438 0.5625z"/>
</symbol>
<symbol id="m" overflow="visible">
<path d="m3.7812-6.4375-2.4844 3.8906h2.4844zm-0.26562-0.85938h1.25v4.75h1.0312v0.82812h-1.0312v1.7188h-0.98438v-1.7188h-3.2969v-0.95312z"/>
</symbol>
<symbol id="l" overflow="visible">
<path d="m1.0781-7.2969h3.875v0.84375h-2.9688v1.7812c0.14453-0.050781 0.28516-0.085937 0.42188-0.10938 0.14453-0.019531 0.28906-0.03125 0.4375-0.03125 0.8125 0 1.4531 0.22656 1.9219 0.67188 0.47656 0.4375 0.71875 1.0391 0.71875 1.7969 0 0.79297-0.24609 1.4062-0.73438 1.8438-0.48047 0.42969-1.168 0.64062-2.0625 0.64062-0.30469 0-0.61719-0.027344-0.9375-0.078125-0.3125-0.054688-0.64062-0.12891-0.98438-0.23438v-0.98438c0.30078 0.15625 0.60938 0.27734 0.92188 0.35938 0.3125 0.074219 0.64062 0.10938 0.98438 0.10938 0.5625 0 1.0039-0.14453 1.3281-0.4375 0.33203-0.30078 0.5-0.70703 0.5-1.2188 0-0.5-0.16797-0.89453-0.5-1.1875-0.32422-0.30078-0.76562-0.45312-1.3281-0.45312-0.26172 0-0.52734 0.03125-0.79688 0.09375-0.26172 0.054687-0.52734 0.14062-0.79688 0.26562z"/>
</symbol>
<symbol id="k" overflow="visible">
<path d="m3.2969-4.0312c-0.4375 0-0.78906 0.15234-1.0469 0.45312-0.26172 0.30469-0.39062 0.71484-0.39062 1.2344 0 0.53125 0.12891 0.94922 0.39062 1.25 0.25781 0.30469 0.60938 0.45312 1.0469 0.45312 0.44531 0 0.79688-0.14844 1.0469-0.45312 0.25781-0.30078 0.39062-0.71875 0.39062-1.25 0-0.51953-0.13281-0.92969-0.39062-1.2344-0.25-0.30078-0.60156-0.45312-1.0469-0.45312zm1.9688-3.0938v0.89062c-0.25-0.11328-0.50781-0.20312-0.76562-0.26562-0.25-0.0625-0.49609-0.09375-0.73438-0.09375-0.65625 0-1.1562 0.21875-1.5 0.65625s-0.53906 1.1055-0.57812 2c0.1875-0.28125 0.42578-0.49219 0.71875-0.64062 0.28906-0.15625 0.60938-0.23438 0.95312-0.23438 0.72656 0 1.3047 0.22656 1.7344 0.67188 0.42578 0.4375 0.64062 1.0391 0.64062 1.7969 0 0.75-0.22656 1.3555-0.67188 1.8125-0.4375 0.44922-1.0273 0.67188-1.7656 0.67188-0.84375 0-1.4922-0.32031-1.9375-0.96875-0.4375-0.64453-0.65625-1.582-0.65625-2.8125 0-1.1445 0.26953-2.0625 0.8125-2.75 0.55078-0.6875 1.2852-1.0312 2.2031-1.0312 0.25 0 0.5 0.027344 0.75 0.078125 0.25 0.042969 0.51562 0.11719 0.79688 0.21875z"/>
</symbol>
<symbol id="d" overflow="visible">
<path d="m7.7656-9.7812-6.8906-9.3438h6.4688l3.9062 5.6719 3.9688-5.6719h6.4688l-6.8906 9.2969 7.2344 9.8281h-6.4688l-4.3125-6.0469-4.25 6.0469h-6.4688z"/>
</symbol>
<symbol id="c" overflow="visible">
<path d="m12.984 4.6094h-10.609v-3.8438h4.7969v-23.5h-4.7969v-3.8438h10.609z"/>
</symbol>
</defs>
<path transform="matrix(2.499 0 0 2.499 96.897 -6.8722)" d="m266.25 198.75h-277.5v-195h277.5z" fill="none" stroke="#000" stroke-width="2"/>
<path transform="matrix(2.499 0 0 2.499 96.897 -6.8722)" d="m45 198.75v-183.75" fill="none" stroke="#000" stroke-width=".75"/>
<path transform="matrix(2.499 0 0 2.499 96.897 -6.8722)" d="m45 198.75v-195" fill="none" stroke="#000" stroke-width=".75"/>
<path transform="matrix(2.499 0 0 2.499 96.897 -6.8722)" d="m86.25 198.75v-195" fill="none" stroke="#000" stroke-width=".75"/>
<path transform="matrix(2.499 0 0 2.499 96.897 -6.8722)" d="m127.5 198.75v-195" fill="none" stroke="#000" stroke-width=".75"/>
<path transform="matrix(2.499 0 0 2.499 96.897 -6.8722)" d="m3.7505 198.75v-195" fill="none" stroke="#000" stroke-width=".75"/>
<path transform="matrix(2.499 0 0 2.499 96.897 -6.8722)" d="m168.75 198.75v-195" fill="none" stroke="#000" stroke-width=".75"/>
<path transform="matrix(2.499 0 0 2.499 96.897 -6.8722)" d="m210 198.75v-195" fill="none" stroke="#000" stroke-width=".75"/>
<path transform="matrix(2.499 0 0 2.499 96.897 -6.8722)" d="m251.25 198.75v-195" fill="none" stroke="#000" stroke-width=".75"/>
<path transform="matrix(2.499 0 0 2.499 96.897 -6.8722)" d="m-11.249 183.75h277.5" fill="none" stroke="#000" stroke-width=".75"/>
<path transform="matrix(2.499 0 0 2.499 96.897 -6.8722)" d="m266.25 168.75h-277.5" fill="none" stroke="#000" stroke-width=".75"/>
<path transform="matrix(2.499 0 0 2.499 96.897 -6.8722)" d="m-11.249 153.75h277.5" fill="none" stroke="#000" stroke-width=".75"/>
<path transform="matrix(2.499 0 0 2.499 96.897 -6.8722)" d="m-11.249 138.75h277.5" fill="none" stroke="#000" stroke-width=".75"/>
<path transform="matrix(2.499 0 0 2.499 96.897 -6.8722)" d="m-11.249 123.75h277.5" fill="none" stroke="#000" stroke-width=".75"/>
<path transform="matrix(2.499 0 0 2.499 96.897 -6.8722)" d="m-11.249 108.75h277.5" fill="none" stroke="#000" stroke-width=".75"/>
<path transform="matrix(2.499 0 0 2.499 96.897 -6.8722)" d="m-11.249 93.75h277.5" fill="none" stroke="#000" stroke-width=".75"/>
<path transform="matrix(2.499 0 0 2.499 96.897 -6.8722)" d="m-11.249 78.75h277.5" fill="none" stroke="#000" stroke-width=".75"/>
<path transform="matrix(2.499 0 0 2.499 96.897 -6.8722)" d="m-11.249 63.75h277.5" fill="none" stroke="#000" stroke-width=".75"/>
<path transform="matrix(2.499 0 0 2.499 96.897 -6.8722)" d="m-11.249 48.75h277.5" fill="none" stroke="#000" stroke-width=".75"/>
<path transform="matrix(2.499 0 0 2.499 96.897 -6.8722)" d="m-11.249 33.75h277.5" fill="none" stroke="#000" stroke-width=".75"/>
<path transform="matrix(2.499 0 0 2.499 96.897 -6.8722)" d="m-11.249 18.75h277.5" fill="none" stroke="#000" stroke-width=".75"/>
<path transform="matrix(2.499 0 0 2.499 96.897 -6.8722)" d="m-11.249 31.499h277.5" fill="none" stroke="#000" stroke-width=".75"/>
<g>
<use x="86.703125" y="509.361427" xlink:href="#g"/>
<use x="99.197931" y="509.361427" xlink:href="#e"/>
<use x="111.692738" y="509.361427" xlink:href="#f"/>
</g>
<g>
<use x="189.941406" y="509.361427" xlink:href="#e"/>
<use x="202.436213" y="509.361427" xlink:href="#f"/>
<use x="214.931019" y="509.361427" xlink:href="#a"/>
</g>
<g>
<use x="292.984375" y="509.361427" xlink:href="#f"/>
<use x="305.479181" y="509.361427" xlink:href="#a"/>
<use x="317.973988" y="509.361427" xlink:href="#a"/>
</g>
<g>
<use x="389.382812" y="509.361427" xlink:href="#g"/>
<use x="401.877619" y="509.361427" xlink:href="#a"/>
<use x="414.372425" y="509.361427" xlink:href="#a"/>
<use x="426.867231" y="509.361427" xlink:href="#a"/>
</g>
<g>
<use x="492.828125" y="509.361427" xlink:href="#e"/>
<use x="505.322931" y="509.361427" xlink:href="#a"/>
<use x="517.817738" y="509.361427" xlink:href="#a"/>
<use x="530.312544" y="509.361427" xlink:href="#a"/>
</g>
<g>
<use x="596.15625" y="509.361427" xlink:href="#j"/>
<use x="608.651056" y="509.361427" xlink:href="#a"/>
<use x="621.145863" y="509.361427" xlink:href="#a"/>
<use x="633.640669" y="509.361427" xlink:href="#a"/>
</g>
<g>
<use x="699.046875" y="509.361427" xlink:href="#i"/>
<use x="711.541681" y="509.361427" xlink:href="#a"/>
<use x="724.036488" y="509.361427" xlink:href="#a"/>
<use x="736.531294" y="509.361427" xlink:href="#a"/>
</g>
<g>
<use x="775.136719" y="509.361427" xlink:href="#h"/>
<use x="790.130486" y="509.361427" xlink:href="#q"/>
</g>
<g>
<use x="202.636719" y="522.795021" xlink:href="#b"/>
</g>
<g>
<use x="212.609375" y="525.856495" xlink:href="#p"/>
</g>
<g>
<use x="99.835938" y="522.795021" xlink:href="#b"/>
</g>
<g>
<use x="306.550781" y="522.795021" xlink:href="#b"/>
</g>
<g>
<use x="316.523438" y="525.856495" xlink:href="#o"/>
</g>
<g>
<use x="409.660156" y="522.795021" xlink:href="#b"/>
</g>
<g>
<use x="419.632812" y="525.856495" xlink:href="#n"/>
</g>
<g>
<use x="512.296875" y="522.795021" xlink:href="#b"/>
</g>
<g>
<use x="522.269531" y="525.856495" xlink:href="#m"/>
</g>
<g>
<use x="616.398438" y="522.795021" xlink:href="#b"/>
</g>
<g>
<use x="626.371094" y="525.856495" xlink:href="#l"/>
</g>
<g>
<use x="718.769531" y="522.795021" xlink:href="#b"/>
</g>
<g>
<use x="728.742188" y="525.856495" xlink:href="#k"/>
</g>
<g>
<use x="20.164063" y="459.80674" xlink:href="#g"/>
<use x="32.658869" y="459.80674" xlink:href="#a"/>
<use x="45.153675" y="459.80674" xlink:href="#a"/>
</g>
<g>
<use x="32.882812" y="384.83799" xlink:href="#i"/>
<use x="45.377619" y="384.83799" xlink:href="#a"/>
</g>
<g>
<use x="32.882812" y="309.86924" xlink:href="#u"/>
<use x="45.377619" y="309.86924" xlink:href="#a"/>
</g>
<g>
<use x="32.882812" y="234.90049" xlink:href="#j"/>
<use x="45.377619" y="234.90049" xlink:href="#a"/>
</g>
<g>
<use x="32.882812" y="159.93174" xlink:href="#e"/>
<use x="45.377619" y="159.93174" xlink:href="#a"/>
</g>
<g>
<use x="45.601562" y="84.96299" xlink:href="#a"/>
</g>
<g>
<use x="-0.90625" y="47.46299" xlink:href="#t"/>
<use x="11.588556" y="47.46299" xlink:href="#s"/>
<use x="24.083363" y="47.46299" xlink:href="#h"/>
<use x="39.07713" y="47.46299" xlink:href="#r"/>
</g>
<path transform="matrix(2.499 0 0 2.499 96.897 -6.8722)" d="m45 86.25 41.25 15 41.25-0.75031 41.25 8.2503 41.25 15 41.25-4.5003" fill="none" stroke="#000" stroke-width="2"/>
<path transform="matrix(2.499 0 0 2.499 96.897 -6.8722)" d="m48.75 63.75 40.5 15.75 42 6.7497 41.25 2.2494 41.25 4.5003 37.5 7.5" fill="none" stroke="#000" stroke-width="2"/>
<g fill="#2a7fff">
<use x="198.085938" y="217.466482" xlink:href="#d"/>
</g>
<g fill="#2a7fff">
<use x="301.164062" y="255.970388" xlink:href="#d"/>
</g>
<g fill="#2a7fff">
<use x="404.296875" y="253.767263" xlink:href="#d"/>
</g>
<g fill="#2a7fff">
<use x="507.328125" y="274.927419" xlink:href="#d"/>
</g>
<g fill="#2a7fff">
<use x="610.421875" y="311.548513" xlink:href="#d"/>
</g>
<g fill="#2a7fff">
<use x="713.519531" y="301.111013" xlink:href="#d"/>
</g>
<g fill="#2a7fff">
<use x="210.050781" y="162.532888" xlink:href="#c"/>
</g>
<g fill="#2a7fff">
<use x="313.40625" y="201.075857" xlink:href="#c"/>
</g>
<g fill="#2a7fff">
<use x="416.324219" y="220.282888" xlink:href="#c"/>
</g>
<g fill="#2a7fff">
<use x="518.640625" y="226.236013" xlink:href="#c"/>
</g>
<g fill="#2a7fff">
<use x="623.871094" y="236.978201" xlink:href="#c"/>
</g>
<g fill="#2a7fff">
<use x="727.523437" y="255.552419" xlink:href="#c"/>
</g>
</svg>
