<?xml version="1.0" encoding="UTF-8"?>
<svg width="800px" height="542px" version="1.1" viewBox="0 0 800 542" xmlns="http://www.w3.org/2000/svg" xmlns:xlink="http://www.w3.org/1999/xlink">
<defs>
<symbol id="g" overflow="visible">
<path d="m2.5156-1.6875h3.2656v-11.281l-3.5469 0.71875v-1.8281l3.5312-0.70312h2v13.094h3.2656v1.6875h-8.5156z"/>
</symbol>
<symbol id="e" overflow="visible">
<path d="m3.8906-1.6875h6.9844v1.6875h-9.3906v-1.6875c0.75781-0.78125 1.7969-1.832 3.1094-3.1562 1.3125-1.3203 2.1328-2.1758 2.4688-2.5625 0.63281-0.71875 1.0781-1.3281 1.3281-1.8281 0.25781-0.5 0.39062-0.98828 0.39062-1.4688 0-0.78906-0.27734-1.4297-0.82812-1.9219-0.55469-0.5-1.2734-0.75-2.1562-0.75-0.625 0-1.2891 0.10938-1.9844 0.32812-0.69922 0.21875-1.4453 0.55469-2.2344 1v-2.0312c0.8125-0.32031 1.5664-0.5625 2.2656-0.71875 0.69531-0.16406 1.3359-0.25 1.9219-0.25 1.5312 0 2.75 0.38672 3.6562 1.1562 0.91406 0.76172 1.375 1.7812 1.375 3.0625 0 0.60547-0.11719 1.1836-0.34375 1.7344-0.23047 0.54297-0.64844 1.1836-1.25 1.9219-0.15625 0.1875-0.67969 0.74219-1.5625 1.6562-0.88672 0.90625-2.1367 2.1836-3.75 3.8281z"/>
</symbol>
<symbol id="f" overflow="visible">
<path d="m2.1875-14.781h7.8594v1.6719h-6.0312v3.625c0.28906-0.09375 0.58203-0.16406 0.875-0.21875 0.28906-0.050781 0.58203-0.078125 0.875-0.078125 1.6445 0 2.9453 0.45312 3.9062 1.3594 0.96875 0.90625 1.4531 2.1328 1.4531 3.6719 0 1.5938-0.49609 2.8359-1.4844 3.7188-0.99219 0.875-2.3867 1.3125-4.1875 1.3125-0.61719 0-1.2461-0.054688-1.8906-0.15625-0.64844-0.10547-1.3125-0.25781-2-0.46875v-2.0156c0.59375 0.32422 1.207 0.57031 1.8438 0.73438 0.63281 0.15625 1.3047 0.23438 2.0156 0.23438 1.1328 0 2.0352-0.30078 2.7031-0.90625 0.66406-0.60156 1-1.4219 1-2.4531 0-1.0195-0.33594-1.832-1-2.4375-0.66797-0.60156-1.5703-0.90625-2.7031-0.90625-0.54297 0-1.0781 0.0625-1.6094 0.1875-0.53125 0.11719-1.0742 0.29688-1.625 0.54688z"/>
</symbol>
<symbol id="a" overflow="visible">
<path d="m6.4531-13.469c-1.0312 0-1.8086 0.51172-2.3281 1.5312-0.52344 1.0117-0.78125 2.5312-0.78125 4.5625 0 2.0234 0.25781 3.543 0.78125 4.5625 0.51953 1.0117 1.2969 1.5156 2.3281 1.5156s1.8047-0.50391 2.3281-1.5156c0.51953-1.0195 0.78125-2.5391 0.78125-4.5625 0-2.0312-0.26172-3.5508-0.78125-4.5625-0.52344-1.0195-1.2969-1.5312-2.3281-1.5312zm0-1.5781c1.6562 0 2.9219 0.65625 3.7969 1.9688 0.875 1.3047 1.3125 3.2031 1.3125 5.7031 0 2.4922-0.4375 4.3906-1.3125 5.7031-0.875 1.3047-2.1406 1.9531-3.7969 1.9531s-2.9219-0.64844-3.7969-1.9531c-0.875-1.3125-1.3125-3.2109-1.3125-5.7031 0-2.5 0.4375-4.3984 1.3125-5.7031 0.875-1.3125 2.1406-1.9688 3.7969-1.9688z"/>
</symbol>
<symbol id="j" overflow="visible">
<path d="m7.6719-13.047-5.0625 7.8906h5.0625zm-0.53125-1.7344h2.5156v9.625h2.1094v1.6719h-2.1094v3.4844h-1.9844v-3.4844h-6.6875v-1.9375z"/>
</symbol>
<symbol id="i" overflow="visible">
<path d="m6.4531-7.0156c-0.96094 0-1.7109 0.25781-2.25 0.76562-0.54297 0.5-0.8125 1.1992-0.8125 2.0938 0 0.88672 0.26953 1.5859 0.8125 2.0938 0.53906 0.51172 1.2891 0.76562 2.25 0.76562 0.94531 0 1.6914-0.25391 2.2344-0.76562 0.55078-0.50781 0.82812-1.207 0.82812-2.0938 0-0.89453-0.27734-1.5938-0.82812-2.0938-0.54297-0.50781-1.2891-0.76562-2.2344-0.76562zm-2-0.85938c-0.86719-0.20703-1.5391-0.60156-2.0156-1.1875-0.48047-0.59375-0.71875-1.3125-0.71875-2.1562 0-1.1875 0.42188-2.1172 1.2656-2.7969 0.84375-0.6875 2-1.0312 3.4688-1.0312s2.6172 0.34375 3.4531 1.0312c0.84375 0.67969 1.2656 1.6094 1.2656 2.7969 0 0.84375-0.24219 1.5625-0.71875 2.1562-0.48047 0.58594-1.1484 0.98047-2 1.1875 0.96875 0.23047 1.7188 0.67188 2.25 1.3281 0.53906 0.64844 0.8125 1.4453 0.8125 2.3906 0 1.4297-0.4375 2.5273-1.3125 3.2969-0.875 0.76172-2.125 1.1406-3.75 1.1406-1.6367 0-2.8906-0.37891-3.7656-1.1406-0.875-0.76953-1.3125-1.8672-1.3125-3.2969 0-0.94531 0.26953-1.7422 0.8125-2.3906 0.53906-0.65625 1.2969-1.0977 2.2656-1.3281zm-0.73438-3.1562c0 0.76172 0.23828 1.3594 0.71875 1.7969 0.47656 0.42969 1.1484 0.64062 2.0156 0.64062 0.85156 0 1.5195-0.21094 2-0.64062 0.48828-0.4375 0.73438-1.0352 0.73438-1.7969 0-0.76953-0.24609-1.3672-0.73438-1.7969-0.48047-0.42578-1.1484-0.64062-2-0.64062-0.86719 0-1.5391 0.21484-2.0156 0.64062-0.48047 0.42969-0.71875 1.0273-0.71875 1.7969z"/>
</symbol>
<symbol id="h" overflow="visible">
<path d="m1.9844-14.781h2v6.0625h7.2812v-6.0625h2v14.781h-2v-7.0469h-7.2812v7.0469h-2z"/>
</symbol>
<symbol id="q" overflow="visible">
<path d="m1.125-11.094h8.6562v1.6719l-6.8594 7.9688h6.8594v1.4531h-8.9062v-1.6562l6.8438-7.9844h-6.5938z"/>
</symbol>
<symbol id="b" overflow="visible">
<path d="m9.8906-10.672v1.7031c-0.51172-0.28125-1.0273-0.48828-1.5469-0.625-0.52344-0.14453-1.043-0.21875-1.5625-0.21875-1.1875 0-2.1094 0.375-2.7656 1.125-0.64844 0.75-0.96875 1.8047-0.96875 3.1562 0 1.3555 0.32031 2.4062 0.96875 3.1562 0.65625 0.75 1.5781 1.125 2.7656 1.125 0.51953 0 1.0391-0.070312 1.5625-0.21875 0.51953-0.14453 1.0352-0.35938 1.5469-0.64062v1.6875c-0.51172 0.24219-1.0391 0.41797-1.5781 0.53125-0.54297 0.11328-1.1211 0.17188-1.7344 0.17188-1.6797 0-3.0078-0.51953-3.9844-1.5625-0.98047-1.0508-1.4688-2.4688-1.4688-4.25 0-1.8125 0.49219-3.2344 1.4844-4.2656 0.98828-1.0391 2.3477-1.5625 4.0781-1.5625 0.5625 0 1.1094 0.058594 1.6406 0.17188 0.53906 0.11719 1.0625 0.28906 1.5625 0.51562z"/>
</symbol>
<symbol id="u" overflow="visible">
<path d="m6.6875-8.1875c-0.89844 0-1.6094 0.30859-2.1406 0.92188-0.52344 0.61719-0.78125 1.4531-0.78125 2.5156s0.25781 1.9062 0.78125 2.5312c0.53125 0.61719 1.2422 0.92188 2.1406 0.92188 0.90625 0 1.6172-0.30469 2.1406-0.92188 0.51953-0.625 0.78125-1.4688 0.78125-2.5312s-0.26172-1.8984-0.78125-2.5156c-0.52344-0.61328-1.2344-0.92188-2.1406-0.92188zm3.9844-6.2656v1.8125c-0.51172-0.23828-1.0234-0.42188-1.5312-0.54688-0.51172-0.125-1.0156-0.1875-1.5156-0.1875-1.3242 0-2.3359 0.44922-3.0312 1.3438-0.6875 0.89844-1.0859 2.2461-1.1875 4.0469 0.38281-0.58203 0.86719-1.0234 1.4531-1.3281 0.59375-0.3125 1.2422-0.46875 1.9531-0.46875 1.4883 0 2.6602 0.45312 3.5156 1.3594 0.86328 0.89844 1.2969 2.1211 1.2969 3.6719 0 1.5234-0.44922 2.7422-1.3438 3.6562-0.89844 0.91797-2.0938 1.375-3.5938 1.375-1.7109 0-3.0156-0.64844-3.9219-1.9531-0.89844-1.3125-1.3438-3.2109-1.3438-5.7031 0-2.3438 0.55078-4.207 1.6562-5.5938 1.1133-1.3828 2.6016-2.0781 4.4688-2.0781 0.5 0 1.0039 0.054687 1.5156 0.15625 0.50781 0.09375 1.0469 0.24219 1.6094 0.4375z"/>
</symbol>
<symbol id="t" overflow="visible">
<path d="m9.2031-9.4062v-6h1.8281v15.406h-1.8281v-1.6562c-0.375 0.65625-0.85938 1.1484-1.4531 1.4688-0.58594 0.3125-1.2812 0.46875-2.0938 0.46875-1.3438 0-2.4375-0.53125-3.2812-1.5938-0.83594-1.0703-1.25-2.4766-1.25-4.2188 0-1.75 0.41406-3.1562 1.25-4.2188 0.84375-1.0703 1.9375-1.6094 3.2812-1.6094 0.8125 0 1.5078 0.16406 2.0938 0.48438 0.59375 0.32422 1.0781 0.8125 1.4531 1.4688zm-6.2031 3.875c0 1.3359 0.27344 2.3867 0.82812 3.1562 0.55078 0.76172 1.3047 1.1406 2.2656 1.1406 0.96875 0 1.7266-0.37891 2.2812-1.1406 0.55078-0.76953 0.82812-1.8203 0.82812-3.1562 0-1.3438-0.27734-2.3945-0.82812-3.1562-0.55469-0.75781-1.3125-1.1406-2.2812-1.1406-0.96094 0-1.7148 0.38281-2.2656 1.1406-0.55469 0.76172-0.82812 1.8125-0.82812 3.1562z"/>
</symbol>
<symbol id="s" overflow="visible">
<path d="m9.875-5.5312c0-1.3438-0.27734-2.3945-0.82812-3.1562-0.55469-0.75781-1.3086-1.1406-2.2656-1.1406-0.96875 0-1.7305 0.38281-2.2812 1.1406-0.55469 0.76172-0.82812 1.8125-0.82812 3.1562 0 1.3359 0.27344 2.3867 0.82812 3.1562 0.55078 0.76172 1.3125 1.1406 2.2812 1.1406 0.95703 0 1.7109-0.37891 2.2656-1.1406 0.55078-0.76953 0.82812-1.8203 0.82812-3.1562zm-6.2031-3.875c0.38281-0.65625 0.86719-1.1445 1.4531-1.4688 0.58203-0.32031 1.2812-0.48438 2.0938-0.48438 1.3438 0 2.4375 0.53906 3.2812 1.6094 0.84375 1.0625 1.2656 2.4688 1.2656 4.2188 0 1.7422-0.42188 3.1484-1.2656 4.2188-0.84375 1.0625-1.9375 1.5938-3.2812 1.5938-0.8125 0-1.5117-0.15625-2.0938-0.46875-0.58594-0.32031-1.0703-0.8125-1.4531-1.4688v1.6562h-1.8281v-15.406h1.8281z"/>
</symbol>
<symbol id="r" overflow="visible">
<path d="m5.7969 0-5.6406-14.781h2.0938l4.6875 12.438 4.6875-12.438h2.0781l-5.625 14.781z"/>
</symbol>
<symbol id="p" overflow="visible">
<path d="m1.25-0.84375h1.6406v-5.6406l-1.7812 0.35938v-0.90625l1.7656-0.35938h1v6.5469h1.6406v0.84375h-4.2656z"/>
</symbol>
<symbol id="o" overflow="visible">
<path d="m1.9531-0.84375h3.4844v0.84375h-4.6875v-0.84375c0.375-0.39453 0.89062-0.92188 1.5469-1.5781 0.65625-0.66406 1.0664-1.0938 1.2344-1.2812 0.32031-0.36328 0.54688-0.66406 0.67188-0.90625 0.125-0.25 0.1875-0.5 0.1875-0.75 0-0.38281-0.14062-0.70312-0.42188-0.95312-0.27344-0.25-0.625-0.375-1.0625-0.375-0.3125 0-0.64844 0.058594-1 0.17188-0.34375 0.10547-0.71484 0.26562-1.1094 0.48438v-1c0.39453-0.16406 0.76953-0.28906 1.125-0.375 0.35156-0.082031 0.67188-0.125 0.95312-0.125 0.76953 0 1.3789 0.19531 1.8281 0.57812 0.45703 0.38672 0.6875 0.89844 0.6875 1.5312 0 0.30469-0.058594 0.59375-0.17188 0.875-0.10547 0.27344-0.30859 0.58984-0.60938 0.95312-0.085937 0.09375-0.35156 0.37109-0.79688 0.82812-0.4375 0.46094-1.0586 1.1016-1.8594 1.9219z"/>
</symbol>
<symbol id="n" overflow="visible">
<path d="m4.1094-3.9844c0.47656 0.10547 0.85156 0.32031 1.125 0.64062 0.26953 0.32422 0.40625 0.71875 0.40625 1.1875 0 0.74219-0.25 1.3086-0.75 1.7031-0.5 0.39844-1.2148 0.59375-2.1406 0.59375-0.3125 0-0.63672-0.03125-0.96875-0.09375-0.32422-0.0625-0.66406-0.14844-1.0156-0.26562v-0.96875c0.28125 0.15625 0.58203 0.27734 0.90625 0.35938 0.33203 0.085937 0.67969 0.125 1.0469 0.125 0.625 0 1.0977-0.11719 1.4219-0.35938 0.33203-0.25 0.5-0.61328 0.5-1.0938 0-0.42578-0.15234-0.76562-0.45312-1.0156-0.30469-0.25-0.73047-0.375-1.2812-0.375h-0.85938v-0.8125h0.90625c0.48828 0 0.86328-0.097656 1.125-0.29688 0.25781-0.19531 0.39062-0.47656 0.39062-0.84375 0-0.38281-0.13672-0.67578-0.40625-0.875-0.26172-0.20703-0.64844-0.3125-1.1562-0.3125-0.27344 0-0.5625 0.03125-0.875 0.09375s-0.65625 0.15625-1.0312 0.28125v-0.89062c0.375-0.11328 0.72656-0.19531 1.0625-0.25 0.33203-0.050781 0.64453-0.078125 0.9375-0.078125 0.75781 0 1.3594 0.17969 1.7969 0.53125 0.44531 0.34375 0.67188 0.80859 0.67188 1.3906 0 0.40625-0.12109 0.75-0.35938 1.0312-0.23047 0.28125-0.5625 0.48047-1 0.59375z"/>
</symbol>
<symbol id="m" overflow="visible">
<path d="m3.8281-6.5156-2.5156 3.9375h2.5156zm-0.26562-0.875h1.2656v4.8125h1.0469v0.82812h-1.0469v1.75h-1v-1.75h-3.3281v-0.95312z"/>
</symbol>
<symbol id="l" overflow="visible">
<path d="m1.0938-7.3906h3.9219v0.84375h-3v1.8125c0.14453-0.050781 0.28516-0.085937 0.42188-0.10938 0.14453-0.03125 0.28906-0.046875 0.4375-0.046875 0.83203 0 1.4883 0.23047 1.9688 0.6875 0.47656 0.44922 0.71875 1.0586 0.71875 1.8281 0 0.80469-0.25 1.4219-0.75 1.8594-0.49219 0.4375-1.1836 0.65625-2.0781 0.65625-0.3125 0-0.63281-0.027344-0.95312-0.078125-0.32422-0.054688-0.65625-0.12891-1-0.23438v-1c0.30078 0.15625 0.60938 0.27734 0.92188 0.35938 0.3125 0.074219 0.64453 0.10938 1 0.10938 0.57031 0 1.0234-0.14453 1.3594-0.4375 0.33203-0.30078 0.5-0.71094 0.5-1.2344 0-0.50781-0.16797-0.91406-0.5-1.2188-0.33594-0.30078-0.78906-0.45312-1.3594-0.45312-0.26172 0-0.52734 0.03125-0.79688 0.09375-0.26172 0.0625-0.53125 0.15625-0.8125 0.28125z"/>
</symbol>
<symbol id="k" overflow="visible">
<path d="m3.3438-4.0938c-0.44922 0-0.80469 0.15625-1.0625 0.46875-0.26172 0.30469-0.39062 0.71875-0.39062 1.25s0.12891 0.95312 0.39062 1.2656c0.25781 0.30469 0.61328 0.45312 1.0625 0.45312 0.44531 0 0.80078-0.14844 1.0625-0.45312 0.26953-0.3125 0.40625-0.73438 0.40625-1.2656s-0.13672-0.94531-0.40625-1.25c-0.26172-0.3125-0.61719-0.46875-1.0625-0.46875zm1.9844-3.1406v0.92188c-0.25-0.125-0.50781-0.21875-0.76562-0.28125-0.25-0.0625-0.5-0.09375-0.75-0.09375-0.65625 0-1.1641 0.22656-1.5156 0.67188-0.34375 0.44922-0.54297 1.1211-0.59375 2.0156 0.19531-0.28125 0.44141-0.5 0.73438-0.65625 0.28906-0.15625 0.61328-0.23438 0.96875-0.23438 0.73828 0 1.3203 0.23047 1.75 0.6875 0.4375 0.44922 0.65625 1.0586 0.65625 1.8281 0 0.76172-0.22656 1.3711-0.67188 1.8281-0.44922 0.46094-1.0469 0.6875-1.7969 0.6875-0.85547 0-1.5117-0.32812-1.9688-0.98438-0.44922-0.65625-0.67188-1.6016-0.67188-2.8438 0-1.1641 0.27344-2.0977 0.82812-2.7969 0.5625-0.69531 1.3047-1.0469 2.2344-1.0469 0.25781 0 0.51562 0.027344 0.76562 0.078125 0.25781 0.054687 0.52344 0.125 0.79688 0.21875z"/>
</symbol>
<symbol id="d" overflow="visible">
<path d="m7.8906-9.9375-7-9.4844h6.5625l3.9688 5.7656 4.0156-5.7656h6.5781l-7 9.4531 7.3438 9.9688h-6.5625l-4.375-6.1406-4.3125 6.1406h-6.5781z"/>
</symbol>
<symbol id="c" overflow="visible">
<path d="m13.172 4.6875h-10.766v-3.9062h4.875v-23.859h-4.875v-3.8906h10.766z"/>
</symbol>
</defs>
<path transform="matrix(2.536 0 0 2.5354 12.843 106.73)" d="m300 153.75h-277.5v-195h277.5z" fill="none" stroke="#000" stroke-width="2"/>
<path transform="matrix(2.536 0 0 2.5354 12.843 106.73)" d="m78.749 153.75v-183.75" fill="none" stroke="#000" stroke-width=".75"/>
<path transform="matrix(2.536 0 0 2.5354 12.843 106.73)" d="m78.749 153.75v-195" fill="none" stroke="#000" stroke-width=".75"/>
<path transform="matrix(2.536 0 0 2.5354 12.843 106.73)" d="m120 153.75v-195" fill="none" stroke="#000" stroke-width=".75"/>
<path transform="matrix(2.536 0 0 2.5354 12.843 106.73)" d="m161.25 153.75v-195" fill="none" stroke="#000" stroke-width=".75"/>
<path transform="matrix(2.536 0 0 2.5354 12.843 106.73)" d="m37.5 153.75v-195" fill="none" stroke="#000" stroke-width=".75"/>
<path transform="matrix(2.536 0 0 2.5354 12.843 106.73)" d="m202.5 153.75v-195" fill="none" stroke="#000" stroke-width=".75"/>
<path transform="matrix(2.536 0 0 2.5354 12.843 106.73)" d="m243.75 153.75v-195" fill="none" stroke="#000" stroke-width=".75"/>
<path transform="matrix(2.536 0 0 2.5354 12.843 106.73)" d="m285 153.75v-195" fill="none" stroke="#000" stroke-width=".75"/>
<path transform="matrix(2.536 0 0 2.5354 12.843 106.73)" d="m22.5 138.75h277.5" fill="none" stroke="#000" stroke-width=".75"/>
<path transform="matrix(2.536 0 0 2.5354 12.843 106.73)" d="m300 123.75h-277.5" fill="none" stroke="#000" stroke-width=".75"/>
<path transform="matrix(2.536 0 0 2.5354 12.843 106.73)" d="m22.5 108.75h277.5" fill="none" stroke="#000" stroke-width=".75"/>
<path transform="matrix(2.536 0 0 2.5354 12.843 106.73)" d="m22.5 93.75h277.5" fill="none" stroke="#000" stroke-width=".75"/>
<path transform="matrix(2.536 0 0 2.5354 12.843 106.73)" d="m22.5 78.75h277.5" fill="none" stroke="#000" stroke-width=".75"/>
<path transform="matrix(2.536 0 0 2.5354 12.843 106.73)" d="m22.5 63.75h277.5" fill="none" stroke="#000" stroke-width=".75"/>
<path transform="matrix(2.536 0 0 2.5354 12.843 106.73)" d="m22.5 48.749h277.5" fill="none" stroke="#000" stroke-width=".75"/>
<path transform="matrix(2.536 0 0 2.5354 12.843 106.73)" d="m22.5 33.751h277.5" fill="none" stroke="#000" stroke-width=".75"/>
<path transform="matrix(2.536 0 0 2.5354 12.843 106.73)" d="m22.5 18.75h277.5" fill="none" stroke="#000" stroke-width=".75"/>
<path transform="matrix(2.536 0 0 2.5354 12.843 106.73)" d="m22.5 3.7502h277.5" fill="none" stroke="#000" stroke-width=".75"/>
<path transform="matrix(2.536 0 0 2.5354 12.843 106.73)" d="m22.5-11.25h277.5" fill="none" stroke="#000" stroke-width=".75"/>
<path transform="matrix(2.536 0 0 2.5354 12.843 106.73)" d="m22.5-26.25h277.5" fill="none" stroke="#000" stroke-width=".75"/>
<path transform="matrix(2.536 0 0 2.5354 12.843 106.73)" d="m22.5-13.5h277.5" fill="none" stroke="#000" stroke-width=".75"/>
<g>
<use x="89.105469" y="516.444283" xlink:href="#g"/>
<use x="101.785401" y="516.444283" xlink:href="#e"/>
<use x="114.465333" y="516.444283" xlink:href="#f"/>
</g>
<g>
<use x="193.871094" y="516.444283" xlink:href="#e"/>
<use x="206.551026" y="516.444283" xlink:href="#f"/>
<use x="219.230958" y="516.444283" xlink:href="#a"/>
</g>
<g>
<use x="298.441406" y="516.444283" xlink:href="#f"/>
<use x="311.121338" y="516.444283" xlink:href="#a"/>
<use x="323.80127" y="516.444283" xlink:href="#a"/>
</g>
<g>
<use x="396.265625" y="516.444283" xlink:href="#g"/>
<use x="408.945557" y="516.444283" xlink:href="#a"/>
<use x="421.625489" y="516.444283" xlink:href="#a"/>
<use x="434.305421" y="516.444283" xlink:href="#a"/>
</g>
<g>
<use x="501.246094" y="516.444283" xlink:href="#e"/>
<use x="513.926026" y="516.444283" xlink:href="#a"/>
<use x="526.605958" y="516.444283" xlink:href="#a"/>
<use x="539.28589" y="516.444283" xlink:href="#a"/>
</g>
<g>
<use x="606.105469" y="516.444283" xlink:href="#j"/>
<use x="618.785401" y="516.444283" xlink:href="#a"/>
<use x="631.465333" y="516.444283" xlink:href="#a"/>
<use x="644.145265" y="516.444283" xlink:href="#a"/>
</g>
<g>
<use x="710.519531" y="516.444283" xlink:href="#i"/>
<use x="723.199463" y="516.444283" xlink:href="#a"/>
<use x="735.879395" y="516.444283" xlink:href="#a"/>
<use x="748.559327" y="516.444283" xlink:href="#a"/>
</g>
<g>
<use x="787.734375" y="516.444283" xlink:href="#h"/>
<use x="802.950293" y="516.444283" xlink:href="#q"/>
</g>
<g>
<use x="206.753906" y="530.073189" xlink:href="#b"/>
</g>
<g>
<use x="216.875" y="533.183079" xlink:href="#p"/>
</g>
<g>
<use x="102.429688" y="530.073189" xlink:href="#b"/>
</g>
<g>
<use x="312.207031" y="530.073189" xlink:href="#b"/>
</g>
<g>
<use x="322.328125" y="533.183079" xlink:href="#o"/>
</g>
<g>
<use x="416.84375" y="530.073189" xlink:href="#b"/>
</g>
<g>
<use x="426.964844" y="533.183079" xlink:href="#n"/>
</g>
<g>
<use x="521.003906" y="530.073189" xlink:href="#b"/>
</g>
<g>
<use x="531.125" y="533.183079" xlink:href="#m"/>
</g>
<g>
<use x="626.648438" y="530.073189" xlink:href="#b"/>
</g>
<g>
<use x="636.769531" y="533.183079" xlink:href="#l"/>
</g>
<g>
<use x="730.535156" y="530.073189" xlink:href="#b"/>
</g>
<g>
<use x="740.65625" y="533.183079" xlink:href="#k"/>
</g>
<g>
<use x="23.140625" y="466.166939" xlink:href="#g"/>
<use x="35.820557" y="466.166939" xlink:href="#a"/>
<use x="48.500489" y="466.166939" xlink:href="#a"/>
</g>
<g>
<use x="36.046875" y="390.104439" xlink:href="#i"/>
<use x="48.726807" y="390.104439" xlink:href="#a"/>
</g>
<g>
<use x="36.046875" y="314.045846" xlink:href="#u"/>
<use x="48.726807" y="314.045846" xlink:href="#a"/>
</g>
<g>
<use x="36.046875" y="237.983346" xlink:href="#j"/>
<use x="48.726807" y="237.983346" xlink:href="#a"/>
</g>
<g>
<use x="36.046875" y="161.920846" xlink:href="#e"/>
<use x="48.726807" y="161.920846" xlink:href="#a"/>
</g>
<g>
<use x="48.953125" y="85.862252" xlink:href="#a"/>
</g>
<g>
<use x="1.757813" y="48.010689" xlink:href="#t"/>
<use x="14.437744" y="48.010689" xlink:href="#s"/>
<use x="27.117676" y="48.010689" xlink:href="#h"/>
<use x="42.333595" y="48.010689" xlink:href="#r"/>
</g>
<path transform="matrix(2.536 0 0 2.5354 -5.7709e-14 .078319)" d="m83.814 53.316 41.25 0.43448 41.25 0.24959 41.25-8.9345 41.25 135.75 41.25-29.999" fill="none" stroke="#000" stroke-width="2"/>
<g fill="#2a7fff">
<use x="201.148438" y="145.459136" xlink:href="#d"/>
<use x="223.972315" y="145.459136" xlink:href="#c"/>
</g>
<g fill="#2a7fff">
<use x="305.714844" y="146.443511" xlink:href="#d"/>
<use x="328.538721" y="146.443511" xlink:href="#c"/>
</g>
<g fill="#2a7fff">
<use x="410.339844" y="146.974761" xlink:href="#d"/>
<use x="433.163721" y="146.974761" xlink:href="#c"/>
</g>
<g fill="#2a7fff">
<use x="514.949219" y="126.248199" xlink:href="#d"/>
<use x="537.773096" y="126.248199" xlink:href="#c"/>
</g>
<g fill="#2a7fff">
<use x="619.574219" y="468.521636" xlink:href="#d"/>
<use x="642.398096" y="468.521636" xlink:href="#c"/>
</g>
<g fill="#2a7fff">
<use x="724.167969" y="392.36148" xlink:href="#d"/>
<use x="746.991846" y="392.36148" xlink:href="#c"/>
</g>
</svg>
