<?xml version="1.0" encoding="UTF-8"?>
<svg width="600px" height="395px" version="1.1" viewBox="0 0 600 395" xmlns="http://www.w3.org/2000/svg" xmlns:xlink="http://www.w3.org/1999/xlink">
<defs>
<symbol id="g" overflow="visible">
<path d="m1.8594-1.25h2.4219v-8.3438l-2.6406 0.53125v-1.3594l2.625-0.53125h1.4844v9.7031h2.4062v1.25h-6.2969z"/>
</symbol>
<symbol id="e" overflow="visible">
<path d="m2.875-1.25h5.1719v1.25h-6.9531v-1.25c0.5625-0.58203 1.3281-1.3633 2.2969-2.3438 0.96875-0.97656 1.5781-1.6094 1.8281-1.8906 0.47656-0.53125 0.8125-0.97656 1-1.3438 0.1875-0.375 0.28125-0.73828 0.28125-1.0938 0-0.58203-0.20312-1.0547-0.60938-1.4219-0.40625-0.36328-0.9375-0.54688-1.5938-0.54688-0.46875 0-0.96484 0.078125-1.4844 0.23438-0.51172 0.15625-1.0586 0.40234-1.6406 0.73438v-1.5c0.59375-0.23828 1.1484-0.41406 1.6719-0.53125 0.51953-0.125 0.99219-0.1875 1.4219-0.1875 1.1328 0 2.0352 0.28906 2.7031 0.85938 0.67578 0.5625 1.0156 1.3203 1.0156 2.2656 0 0.44922-0.085937 0.875-0.25 1.2812-0.16797 0.39844-0.47656 0.87109-0.92188 1.4219-0.125 0.13672-0.51562 0.54297-1.1719 1.2188-0.64844 0.67969-1.5703 1.625-2.7656 2.8438z"/>
</symbol>
<symbol id="f" overflow="visible">
<path d="m1.625-10.953h5.7969v1.25h-4.4531v2.6875c0.21875-0.070313 0.42969-0.125 0.64062-0.15625 0.21875-0.039063 0.4375-0.0625 0.65625-0.0625 1.2188 0 2.1797 0.33594 2.8906 1 0.71875 0.66797 1.0781 1.5742 1.0781 2.7188 0 1.1797-0.37109 2.0938-1.1094 2.75-0.73047 0.65625-1.7617 0.98438-3.0938 0.98438-0.46094 0-0.92969-0.042969-1.4062-0.125-0.46875-0.074219-0.96094-0.1875-1.4688-0.34375v-1.5c0.4375 0.24219 0.89062 0.42188 1.3594 0.54688 0.46875 0.11719 0.96094 0.17188 1.4844 0.17188 0.85156 0 1.5234-0.22266 2.0156-0.67188 0.48828-0.44531 0.73438-1.0508 0.73438-1.8125 0-0.75781-0.24609-1.3594-0.73438-1.7969-0.49219-0.44531-1.1641-0.67188-2.0156-0.67188-0.39844 0-0.79297 0.046875-1.1875 0.14062-0.38672 0.085938-0.78125 0.21484-1.1875 0.39062z"/>
</symbol>
<symbol id="a" overflow="visible">
<path d="m4.7656-9.9688c-0.76172 0-1.3359 0.375-1.7188 1.125-0.38672 0.75-0.57812 1.875-0.57812 3.375s0.19141 2.6328 0.57812 3.3906c0.38281 0.75 0.95703 1.125 1.7188 1.125 0.76953 0 1.3438-0.375 1.7188-1.125 0.38281-0.75781 0.57812-1.8906 0.57812-3.3906s-0.19531-2.625-0.57812-3.375c-0.375-0.75-0.94922-1.125-1.7188-1.125zm0-1.1719c1.2266 0 2.1641 0.48438 2.8125 1.4531 0.64453 0.96875 0.96875 2.375 0.96875 4.2188s-0.32422 3.2578-0.96875 4.2344c-0.64844 0.96875-1.5859 1.4531-2.8125 1.4531-1.2188 0-2.1562-0.48438-2.8125-1.4531-0.64844-0.97656-0.96875-2.3906-0.96875-4.2344s0.32031-3.25 0.96875-4.2188c0.65625-0.96875 1.5938-1.4531 2.8125-1.4531z"/>
</symbol>
<symbol id="j" overflow="visible">
<path d="m5.6719-9.6562-3.7344 5.8438h3.7344zm-0.39062-1.2969h1.8594v7.1406h1.5625v1.2344h-1.5625v2.5781h-1.4688v-2.5781h-4.9375v-1.4375z"/>
</symbol>
<symbol id="i" overflow="visible">
<path d="m4.7656-5.2031c-0.69922 0-1.25 0.19531-1.6562 0.57812-0.40625 0.375-0.60938 0.89062-0.60938 1.5469s0.20312 1.1797 0.60938 1.5625c0.40625 0.375 0.95703 0.5625 1.6562 0.5625 0.70703 0 1.2578-0.1875 1.6562-0.5625 0.40625-0.38281 0.60938-0.90625 0.60938-1.5625s-0.20312-1.1719-0.60938-1.5469c-0.39844-0.38281-0.94922-0.57812-1.6562-0.57812zm-1.4844-0.625c-0.625-0.15625-1.1172-0.45312-1.4688-0.89062-0.35547-0.4375-0.53125-0.96875-0.53125-1.5938 0-0.875 0.30469-1.5625 0.92188-2.0625 0.625-0.50781 1.4766-0.76562 2.5625-0.76562 1.0938 0 1.9453 0.25781 2.5625 0.76562 0.625 0.5 0.9375 1.1875 0.9375 2.0625 0 0.625-0.17969 1.1562-0.53125 1.5938-0.35547 0.4375-0.85156 0.73438-1.4844 0.89062 0.71875 0.16797 1.2734 0.49609 1.6719 0.98438 0.39453 0.48047 0.59375 1.0703 0.59375 1.7656 0 1.0625-0.32422 1.8828-0.96875 2.4531-0.64844 0.5625-1.5742 0.84375-2.7812 0.84375-1.2109 0-2.1367-0.28125-2.7812-0.84375-0.64844-0.57031-0.96875-1.3906-0.96875-2.4531 0-0.69531 0.19531-1.2852 0.59375-1.7656 0.40625-0.48828 0.96094-0.81641 1.6719-0.98438zm-0.53125-2.3438c0 0.57422 0.17578 1.0234 0.53125 1.3438 0.35156 0.3125 0.84766 0.46875 1.4844 0.46875 0.63281 0 1.1289-0.15625 1.4844-0.46875 0.36328-0.32031 0.54688-0.76953 0.54688-1.3438 0-0.5625-0.18359-1-0.54688-1.3125-0.35547-0.32031-0.85156-0.48438-1.4844-0.48438-0.63672 0-1.1328 0.16406-1.4844 0.48438-0.35547 0.3125-0.53125 0.75-0.53125 1.3125z"/>
</symbol>
<symbol id="h" overflow="visible">
<path d="m1.4688-10.953h1.4844v4.5h5.375v-4.5h1.4844v10.953h-1.4844v-5.2188h-5.375v5.2188h-1.4844z"/>
</symbol>
<symbol id="q" overflow="visible">
<path d="m0.82812-8.2188h6.4062v1.2344l-5.0781 5.9062h5.0781v1.0781h-6.5938v-1.2344l5.0781-5.9062h-4.8906z"/>
</symbol>
<symbol id="b" overflow="visible">
<path d="m7.3125-7.8906v1.25c-0.375-0.20703-0.75781-0.36328-1.1406-0.46875-0.38672-0.10156-0.77344-0.15625-1.1562-0.15625-0.875 0-1.5586 0.28125-2.0469 0.84375-0.48047 0.55469-0.71875 1.3281-0.71875 2.3281s0.23828 1.7773 0.71875 2.3281c0.48828 0.55469 1.1719 0.82812 2.0469 0.82812 0.38281 0 0.76953-0.050781 1.1562-0.15625 0.38281-0.10156 0.76562-0.25781 1.1406-0.46875v1.25c-0.375 0.17969-0.76562 0.30859-1.1719 0.39062-0.39844 0.09375-0.82422 0.14062-1.2812 0.14062-1.2305 0-2.2109-0.39062-2.9375-1.1719-0.73047-0.78125-1.0938-1.8281-1.0938-3.1406 0-1.3438 0.36328-2.3945 1.0938-3.1562 0.73828-0.76953 1.75-1.1562 3.0312-1.1562 0.41406 0 0.82031 0.042969 1.2188 0.125 0.39453 0.085938 0.77344 0.21484 1.1406 0.39062z"/>
</symbol>
<symbol id="u" overflow="visible">
<path d="m4.9531-6.0625c-0.66797 0-1.1953 0.23047-1.5781 0.6875-0.38672 0.44922-0.57812 1.0703-0.57812 1.8594 0 0.79297 0.19141 1.418 0.57812 1.875 0.38281 0.46094 0.91016 0.6875 1.5781 0.6875 0.66406 0 1.1914-0.22656 1.5781-0.6875 0.38281-0.45703 0.57812-1.082 0.57812-1.875 0-0.78906-0.19531-1.4102-0.57812-1.8594-0.38672-0.45703-0.91406-0.6875-1.5781-0.6875zm2.9375-4.6406v1.3438c-0.375-0.17578-0.75-0.30469-1.125-0.39062-0.375-0.09375-0.75-0.14062-1.125-0.14062-0.98047 0-1.7305 0.32812-2.25 0.98438-0.51172 0.65625-0.80469 1.6523-0.875 2.9844 0.28906-0.41406 0.64844-0.73828 1.0781-0.96875 0.4375-0.22656 0.92188-0.34375 1.4531-0.34375 1.0938 0 1.957 0.33594 2.5938 1 0.63281 0.66797 0.95312 1.5742 0.95312 2.7188 0 1.125-0.33594 2.0312-1 2.7188-0.65625 0.67969-1.5391 1.0156-2.6406 1.0156-1.2734 0-2.2422-0.48438-2.9062-1.4531-0.66797-0.97656-1-2.3906-1-4.2344 0-1.7266 0.41016-3.1016 1.2344-4.125 0.82031-1.0312 1.9219-1.5469 3.2969-1.5469 0.375 0 0.75 0.039063 1.125 0.10938 0.375 0.074219 0.76953 0.18359 1.1875 0.32812z"/>
</symbol>
<symbol id="t" overflow="visible">
<path d="m6.8125-6.9688v-4.4375h1.3438v11.406h-1.3438v-1.2344c-0.28125 0.49219-0.64062 0.85547-1.0781 1.0938-0.42969 0.23828-0.94531 0.35938-1.5469 0.35938-0.99219 0-1.7969-0.39453-2.4219-1.1875-0.625-0.78906-0.9375-1.832-0.9375-3.125 0-1.2891 0.3125-2.332 0.9375-3.125 0.625-0.78906 1.4297-1.1875 2.4219-1.1875 0.60156 0 1.1172 0.12109 1.5469 0.35938 0.4375 0.23047 0.79688 0.58984 1.0781 1.0781zm-4.5938 2.875c0 0.99219 0.20312 1.7656 0.60938 2.3281s0.96875 0.84375 1.6875 0.84375c0.70703 0 1.2656-0.28125 1.6719-0.84375 0.41406-0.5625 0.625-1.3359 0.625-2.3281 0-1-0.21094-1.7812-0.625-2.3438-0.40625-0.5625-0.96484-0.84375-1.6719-0.84375-0.71875 0-1.2812 0.28125-1.6875 0.84375s-0.60938 1.3438-0.60938 2.3438z"/>
</symbol>
<symbol id="s" overflow="visible">
<path d="m7.2969-4.0938c0-1-0.20312-1.7812-0.60938-2.3438s-0.96484-0.84375-1.6719-0.84375c-0.71875 0-1.2812 0.28125-1.6875 0.84375s-0.60938 1.3438-0.60938 2.3438c0 0.99219 0.20312 1.7656 0.60938 2.3281s0.96875 0.84375 1.6875 0.84375c0.70703 0 1.2656-0.28125 1.6719-0.84375s0.60938-1.3359 0.60938-2.3281zm-4.5781-2.875c0.28125-0.48828 0.63281-0.84766 1.0625-1.0781 0.4375-0.23828 0.95703-0.35938 1.5625-0.35938 0.98828 0 1.7969 0.39844 2.4219 1.1875 0.625 0.79297 0.9375 1.8359 0.9375 3.125 0 1.293-0.3125 2.3359-0.9375 3.125-0.625 0.79297-1.4336 1.1875-2.4219 1.1875-0.60547 0-1.125-0.12109-1.5625-0.35938-0.42969-0.23828-0.78125-0.60156-1.0625-1.0938v1.2344h-1.3594v-11.406h1.3594z"/>
</symbol>
<symbol id="r" overflow="visible">
<path d="m4.2969 0-4.1719-10.953h1.5312l3.4688 9.2188 3.4688-9.2188h1.5469l-4.1719 10.953z"/>
</symbol>
<symbol id="p" overflow="visible">
<path d="m0.9375-0.625h1.2031v-4.1719l-1.3125 0.26562v-0.67188l1.2969-0.26562h0.75v4.8438h1.2031v0.625h-3.1406z"/>
</symbol>
<symbol id="o" overflow="visible">
<path d="m1.4375-0.625h2.5781v0.625h-3.4688v-0.625c0.28125-0.28906 0.66016-0.67969 1.1406-1.1719 0.48828-0.48828 0.79688-0.80078 0.92188-0.9375 0.23828-0.26953 0.40625-0.49219 0.5-0.67188 0.09375-0.1875 0.14062-0.36719 0.14062-0.54688 0-0.28906-0.10547-0.52344-0.3125-0.70312-0.19922-0.1875-0.46484-0.28125-0.79688-0.28125-0.23047 0-0.47656 0.042969-0.73438 0.125-0.25 0.074219-0.52344 0.19531-0.8125 0.35938v-0.75c0.28906-0.125 0.56641-0.21094 0.82812-0.26562 0.25781-0.0625 0.49219-0.09375 0.70312-0.09375 0.57031 0 1.0234 0.14062 1.3594 0.42188 0.33203 0.28125 0.5 0.66406 0.5 1.1406 0 0.21875-0.042969 0.43359-0.125 0.64062-0.085937 0.19922-0.23438 0.43359-0.45312 0.70312-0.0625 0.074219-0.26172 0.28125-0.59375 0.625-0.32422 0.33594-0.78125 0.80469-1.375 1.4062z"/>
</symbol>
<symbol id="n" overflow="visible">
<path d="m3.0469-2.9531c0.35156 0.085937 0.62891 0.24609 0.82812 0.48438 0.19531 0.24219 0.29688 0.53125 0.29688 0.875 0 0.54297-0.1875 0.96484-0.5625 1.2656-0.36719 0.29297-0.89062 0.4375-1.5781 0.4375-0.23047 0-0.46875-0.027344-0.71875-0.078125-0.24219-0.039062-0.48438-0.10938-0.73438-0.20312v-0.70312c0.19531 0.11719 0.41406 0.20312 0.65625 0.26562 0.25 0.0625 0.50781 0.09375 0.78125 0.09375 0.45703 0 0.80469-0.085937 1.0469-0.26562 0.25-0.1875 0.375-0.45703 0.375-0.8125 0-0.32031-0.11719-0.57031-0.34375-0.75-0.23047-0.1875-0.54297-0.28125-0.9375-0.28125h-0.64062v-0.59375h0.67188c0.36328 0 0.64062-0.070312 0.82812-0.21875 0.19531-0.14453 0.29688-0.35938 0.29688-0.64062s-0.10547-0.49219-0.3125-0.64062c-0.19922-0.14453-0.48047-0.21875-0.84375-0.21875-0.21094 0-0.42969 0.023438-0.65625 0.0625-0.23047 0.042969-0.48438 0.10938-0.76562 0.20312v-0.65625c0.28125-0.082031 0.53906-0.14062 0.78125-0.17188 0.25-0.039062 0.48438-0.0625 0.70312-0.0625 0.5625 0 1.0039 0.13281 1.3281 0.39062 0.33203 0.25 0.5 0.58984 0.5 1.0156 0 0.3125-0.089844 0.57422-0.26562 0.78125-0.17969 0.21094-0.42188 0.35156-0.73438 0.42188z"/>
</symbol>
<symbol id="m" overflow="visible">
<path d="m2.8281-4.8281-1.8594 2.9219h1.8594zm-0.1875-0.64062h0.9375v3.5625h0.76562v0.60938h-0.76562v1.2969h-0.75v-1.2969h-2.4688v-0.70312z"/>
</symbol>
<symbol id="l" overflow="visible">
<path d="m0.8125-5.4688h2.9062v0.625h-2.2344v1.3438c0.10156-0.039062 0.20703-0.066406 0.3125-0.078125 0.11328-0.019531 0.22266-0.03125 0.32812-0.03125 0.61328 0 1.0977 0.16797 1.4531 0.5 0.35156 0.33594 0.53125 0.78906 0.53125 1.3594 0 0.58594-0.18359 1.043-0.54688 1.375-0.36719 0.32422-0.88281 0.48438-1.5469 0.48438-0.23047 0-0.46484-0.023438-0.70312-0.0625-0.24219-0.042969-0.48438-0.097656-0.73438-0.17188v-0.75c0.21875 0.125 0.44141 0.21875 0.67188 0.28125 0.23828 0.054688 0.48828 0.078125 0.75 0.078125 0.42578 0 0.75781-0.10938 1-0.32812 0.25-0.22656 0.375-0.53125 0.375-0.90625 0-0.38281-0.125-0.6875-0.375-0.90625-0.24219-0.21875-0.57422-0.32812-1-0.32812-0.19922 0-0.39844 0.023437-0.59375 0.0625-0.19922 0.042969-0.39844 0.10938-0.59375 0.20312z"/>
</symbol>
<symbol id="k" overflow="visible">
<path d="m2.4688-3.0312c-0.32422 0-0.58594 0.11719-0.78125 0.34375-0.19922 0.23047-0.29688 0.54297-0.29688 0.9375 0 0.38672 0.097656 0.69531 0.29688 0.92188 0.19531 0.23047 0.45703 0.34375 0.78125 0.34375 0.33203 0 0.59766-0.11328 0.79688-0.34375 0.19531-0.22656 0.29688-0.53516 0.29688-0.92188 0-0.39453-0.10156-0.70703-0.29688-0.9375-0.19922-0.22656-0.46484-0.34375-0.79688-0.34375zm1.4688-2.3125v0.67188c-0.17969-0.09375-0.36719-0.16016-0.5625-0.20312-0.1875-0.039062-0.375-0.0625-0.5625-0.0625-0.48047 0-0.85156 0.16797-1.1094 0.5-0.26172 0.32422-0.40625 0.82031-0.4375 1.4844 0.13281-0.21875 0.3125-0.37891 0.53125-0.48438 0.21875-0.11328 0.45703-0.17188 0.71875-0.17188 0.55078 0 0.98438 0.16797 1.2969 0.5 0.32031 0.33594 0.48438 0.78906 0.48438 1.3594 0 0.5625-0.16797 1.0156-0.5 1.3594-0.33594 0.33594-0.77734 0.5-1.3281 0.5-0.625 0-1.1055-0.23828-1.4375-0.71875-0.33594-0.48828-0.5-1.1953-0.5-2.125 0-0.86328 0.20312-1.5508 0.60938-2.0625 0.40625-0.50781 0.95703-0.76562 1.6562-0.76562 0.17578 0 0.35938 0.023438 0.54688 0.0625 0.19531 0.03125 0.39453 0.085938 0.59375 0.15625z"/>
</symbol>
<symbol id="d" overflow="visible">
<path d="m5.8281-7.3438-5.1719-7.0156h4.8594l2.9219 4.25 2.9688-4.25h4.8594l-5.1719 6.9844 5.4375 7.375h-4.8594l-3.2344-4.5469-3.1875 4.5469h-4.8594z"/>
</symbol>
<symbol id="c" overflow="visible">
<path d="m9.7344 3.4688h-7.9531v-2.8906h3.5938v-17.641h-3.5938v-2.8906h7.9531z"/>
</symbol>
</defs>
<path transform="matrix(1.8742 0 0 1.8766 72.673 -5.1606)" d="m266.25 198.75h-277.5v-195h277.5z" fill="none" stroke="#000" stroke-width="2"/>
<path transform="matrix(1.8742 0 0 1.8766 72.673 -5.1606)" d="m44.999 198.75v-183.75" fill="none" stroke="#000" stroke-width=".75"/>
<path transform="matrix(1.8742 0 0 1.8766 72.673 -5.1606)" d="m44.999 198.75v-195" fill="none" stroke="#000" stroke-width=".75"/>
<path transform="matrix(1.8742 0 0 1.8766 72.673 -5.1606)" d="m86.25 198.75v-195" fill="none" stroke="#000" stroke-width=".75"/>
<path transform="matrix(1.8742 0 0 1.8766 72.673 -5.1606)" d="m127.5 198.75v-195" fill="none" stroke="#000" stroke-width=".75"/>
<path transform="matrix(1.8742 0 0 1.8766 72.673 -5.1606)" d="m3.751 198.75v-195" fill="none" stroke="#000" stroke-width=".75"/>
<path transform="matrix(1.8742 0 0 1.8766 72.673 -5.1606)" d="m168.75 198.75v-195" fill="none" stroke="#000" stroke-width=".75"/>
<path transform="matrix(1.8742 0 0 1.8766 72.673 -5.1606)" d="m210 198.75v-195" fill="none" stroke="#000" stroke-width=".75"/>
<path transform="matrix(1.8742 0 0 1.8766 72.673 -5.1606)" d="m251.25 198.75v-195" fill="none" stroke="#000" stroke-width=".75"/>
<path transform="matrix(1.8742 0 0 1.8766 72.673 -5.1606)" d="m-11.251 183.75h277.5" fill="none" stroke="#000" stroke-width=".75"/>
<path transform="matrix(1.8742 0 0 1.8766 72.673 -5.1606)" d="m266.25 168.75h-277.5" fill="none" stroke="#000" stroke-width=".75"/>
<path transform="matrix(1.8742 0 0 1.8766 72.673 -5.1606)" d="m-11.251 153.75h277.5" fill="none" stroke="#000" stroke-width=".75"/>
<path transform="matrix(1.8742 0 0 1.8766 72.673 -5.1606)" d="m-11.251 138.75h277.5" fill="none" stroke="#000" stroke-width=".75"/>
<path transform="matrix(1.8742 0 0 1.8766 72.673 -5.1606)" d="m-11.251 123.75h277.5" fill="none" stroke="#000" stroke-width=".75"/>
<path transform="matrix(1.8742 0 0 1.8766 72.673 -5.1606)" d="m-11.251 108.75h277.5" fill="none" stroke="#000" stroke-width=".75"/>
<path transform="matrix(1.8742 0 0 1.8766 72.673 -5.1606)" d="m-11.251 93.75h277.5" fill="none" stroke="#000" stroke-width=".75"/>
<path transform="matrix(1.8742 0 0 1.8766 72.673 -5.1606)" d="m-11.251 78.75h277.5" fill="none" stroke="#000" stroke-width=".75"/>
<path transform="matrix(1.8742 0 0 1.8766 72.673 -5.1606)" d="m-11.251 63.75h277.5" fill="none" stroke="#000" stroke-width=".75"/>
<path transform="matrix(1.8742 0 0 1.8766 72.673 -5.1606)" d="m-11.251 48.75h277.5" fill="none" stroke="#000" stroke-width=".75"/>
<path transform="matrix(1.8742 0 0 1.8766 72.673 -5.1606)" d="m-11.251 33.751h277.5" fill="none" stroke="#000" stroke-width=".75"/>
<path transform="matrix(1.8742 0 0 1.8766 72.673 -5.1606)" d="m-11.251 18.751h277.5" fill="none" stroke="#000" stroke-width=".75"/>
<path transform="matrix(1.8742 0 0 1.8766 72.673 -5.1606)" d="m-11.251 31.501h277.5" fill="none" stroke="#000" stroke-width=".75"/>
<g>
<use x="65.027344" y="382.505507" xlink:href="#g"/>
<use x="74.398448" y="382.505507" xlink:href="#e"/>
<use x="83.769553" y="382.505507" xlink:href="#f"/>
</g>
<g>
<use x="142.457031" y="382.505507" xlink:href="#e"/>
<use x="151.828136" y="382.505507" xlink:href="#f"/>
<use x="161.199241" y="382.505507" xlink:href="#a"/>
</g>
<g>
<use x="219.738281" y="382.505507" xlink:href="#f"/>
<use x="229.109386" y="382.505507" xlink:href="#a"/>
<use x="238.480491" y="382.505507" xlink:href="#a"/>
</g>
<g>
<use x="292.035156" y="382.505507" xlink:href="#g"/>
<use x="301.406261" y="382.505507" xlink:href="#a"/>
<use x="310.777366" y="382.505507" xlink:href="#a"/>
<use x="320.14847" y="382.505507" xlink:href="#a"/>
</g>
<g>
<use x="369.621094" y="382.505507" xlink:href="#e"/>
<use x="378.992198" y="382.505507" xlink:href="#a"/>
<use x="388.363303" y="382.505507" xlink:href="#a"/>
<use x="397.734408" y="382.505507" xlink:href="#a"/>
</g>
<g>
<use x="447.117187" y="382.505507" xlink:href="#j"/>
<use x="456.488292" y="382.505507" xlink:href="#a"/>
<use x="465.859397" y="382.505507" xlink:href="#a"/>
<use x="475.230502" y="382.505507" xlink:href="#a"/>
</g>
<g>
<use x="524.285156" y="382.505507" xlink:href="#i"/>
<use x="533.656261" y="382.505507" xlink:href="#a"/>
<use x="543.027366" y="382.505507" xlink:href="#a"/>
<use x="552.39847" y="382.505507" xlink:href="#a"/>
</g>
<g>
<use x="581.351562" y="382.505507" xlink:href="#h"/>
<use x="592.596888" y="382.505507" xlink:href="#q"/>
</g>
<g>
<use x="151.976562" y="392.591444" xlink:href="#b"/>
</g>
<g>
<use x="159.457031" y="394.893378" xlink:href="#p"/>
</g>
<g>
<use x="74.878906" y="392.591444" xlink:href="#b"/>
</g>
<g>
<use x="229.914062" y="392.591444" xlink:href="#b"/>
</g>
<g>
<use x="237.390625" y="394.893378" xlink:href="#o"/>
</g>
<g>
<use x="307.246094" y="392.591444" xlink:href="#b"/>
</g>
<g>
<use x="314.726562" y="394.893378" xlink:href="#n"/>
</g>
<g>
<use x="384.222656" y="392.591444" xlink:href="#b"/>
</g>
<g>
<use x="391.703125" y="394.893378" xlink:href="#m"/>
</g>
<g>
<use x="462.300781" y="392.591444" xlink:href="#b"/>
</g>
<g>
<use x="469.78125" y="394.893378" xlink:href="#l"/>
</g>
<g>
<use x="539.078125" y="392.591444" xlink:href="#b"/>
</g>
<g>
<use x="546.558594" y="394.893378" xlink:href="#k"/>
</g>
<g>
<use x="15.125" y="345.290663" xlink:href="#g"/>
<use x="24.496105" y="345.290663" xlink:href="#a"/>
<use x="33.867209" y="345.290663" xlink:href="#a"/>
</g>
<g>
<use x="24.664062" y="288.993788" xlink:href="#i"/>
<use x="34.035167" y="288.993788" xlink:href="#a"/>
</g>
<g>
<use x="24.664062" y="232.696913" xlink:href="#u"/>
<use x="34.035167" y="232.696913" xlink:href="#a"/>
</g>
<g>
<use x="24.664062" y="176.396132" xlink:href="#j"/>
<use x="34.035167" y="176.396132" xlink:href="#a"/>
</g>
<g>
<use x="24.664062" y="120.099257" xlink:href="#e"/>
<use x="34.035167" y="120.099257" xlink:href="#a"/>
</g>
<g>
<use x="34.203125" y="63.802382" xlink:href="#a"/>
</g>
<g>
<use x="-0.679688" y="35.642225" xlink:href="#t"/>
<use x="8.691417" y="35.642225" xlink:href="#s"/>
<use x="18.062522" y="35.642225" xlink:href="#h"/>
<use x="29.307848" y="35.642225" xlink:href="#r"/>
</g>
<path transform="matrix(1.8742 0 0 1.8766 72.673 -5.1606)" d="m44.999 86.25 41.25 15 41.25-0.74936 41.25 8.2492 41.248 15 41.25-4.4983" fill="none" stroke="#000" stroke-width="2"/>
<path transform="matrix(1.8742 0 0 1.8766 72.673 -5.1606)" d="m48.751 63.75 40.498 15.749 42.001 6.7505 41.25 2.2502 41.25 4.5003 37.499 7.4999" fill="none" stroke="#000" stroke-width="2"/>
<g fill="#2a7fff">
<use x="148.566406" y="163.304559" xlink:href="#d"/>
</g>
<g fill="#2a7fff">
<use x="225.875" y="192.222527" xlink:href="#d"/>
</g>
<g fill="#2a7fff">
<use x="303.222656" y="190.566277" xlink:href="#d"/>
</g>
<g fill="#2a7fff">
<use x="380.496094" y="206.456902" xlink:href="#d"/>
</g>
<g fill="#2a7fff">
<use x="457.816406" y="233.956902" xlink:href="#d"/>
</g>
<g fill="#2a7fff">
<use x="535.140625" y="226.120965" xlink:href="#d"/>
</g>
<g fill="#2a7fff">
<use x="157.535156" y="122.054559" xlink:href="#c"/>
</g>
<g fill="#2a7fff">
<use x="235.054688" y="150.995965" xlink:href="#c"/>
</g>
<g fill="#2a7fff">
<use x="312.242188" y="165.421746" xlink:href="#c"/>
</g>
<g fill="#2a7fff">
<use x="388.980469" y="169.890496" xlink:href="#c"/>
</g>
<g fill="#2a7fff">
<use x="467.902344" y="177.960809" xlink:href="#c"/>
</g>
<g fill="#2a7fff">
<use x="545.644531" y="191.906121" xlink:href="#c"/>
</g>
</svg>
