<?xml version="1.0" encoding="UTF-8"?>
<svg width="800px" height="527px" version="1.1" viewBox="0 0 800 527" xmlns="http://www.w3.org/2000/svg" xmlns:xlink="http://www.w3.org/1999/xlink">
<defs>
<symbol id="g" overflow="visible">
<path d="m2.4844-1.6562h3.2344v-11.141l-3.5156 0.70312v-1.8125l3.5-0.70312h1.9688v12.953h3.2344v1.6562h-8.4219z"/>
</symbol>
<symbol id="e" overflow="visible">
<path d="m3.8438-1.6562h6.9062v1.6562h-9.2812v-1.6562c0.75-0.78125 1.7695-1.8203 3.0625-3.125 1.3008-1.3125 2.1172-2.1562 2.4531-2.5312 0.625-0.70703 1.0625-1.3047 1.3125-1.7969 0.25781-0.5 0.39062-0.98828 0.39062-1.4688 0-0.76953-0.27734-1.3984-0.82812-1.8906-0.54297-0.48828-1.25-0.73438-2.125-0.73438-0.61719 0-1.2734 0.10938-1.9688 0.32812-0.6875 0.21094-1.4219 0.53125-2.2031 0.96875v-2c0.80078-0.3125 1.5469-0.54688 2.2344-0.70312 0.6875-0.16406 1.3203-0.25 1.9062-0.25 1.5078 0 2.7109 0.38281 3.6094 1.1406 0.90625 0.75 1.3594 1.7578 1.3594 3.0156 0 0.60547-0.11719 1.1797-0.34375 1.7188-0.21875 0.53125-0.625 1.1641-1.2188 1.8906-0.16797 0.1875-0.6875 0.73438-1.5625 1.6406s-2.1094 2.1719-3.7031 3.7969z"/>
</symbol>
<symbol id="f" overflow="visible">
<path d="m2.1562-14.609h7.7656v1.6719h-5.9531v3.5781c0.28906-0.09375 0.57812-0.16406 0.85938-0.21875 0.28906-0.050781 0.58203-0.078125 0.875-0.078125 1.625 0 2.9102 0.44922 3.8594 1.3438 0.95703 0.89844 1.4375 2.1055 1.4375 3.625 0 1.5742-0.49219 2.7969-1.4688 3.6719-0.98047 0.86719-2.3594 1.2969-4.1406 1.2969-0.61719 0-1.2422-0.054688-1.875-0.15625-0.63672-0.10547-1.293-0.25781-1.9688-0.46875v-1.9844c0.58203 0.32422 1.1875 0.5625 1.8125 0.71875 0.63281 0.15625 1.3008 0.23438 2 0.23438 1.125 0 2.0156-0.29688 2.6719-0.89062 0.66406-0.59375 1-1.3984 1-2.4219 0-1.0078-0.33594-1.8125-1-2.4062-0.65625-0.59375-1.5469-0.89062-2.6719-0.89062-0.53125 0-1.0625 0.058594-1.5938 0.17188-0.52344 0.11719-1.0586 0.29688-1.6094 0.54688z"/>
</symbol>
<symbol id="a" overflow="visible">
<path d="m6.375-13.297c-1.0234 0-1.7891 0.5-2.2969 1.5-0.51172 1-0.76562 2.5078-0.76562 4.5156 0 2 0.25391 3.5 0.76562 4.5 0.50781 1 1.2734 1.5 2.2969 1.5 1.0195 0 1.7852-0.5 2.2969-1.5 0.51953-1 0.78125-2.5 0.78125-4.5 0-2.0078-0.26172-3.5156-0.78125-4.5156-0.51172-1-1.2773-1.5-2.2969-1.5zm0-1.5625c1.6328 0 2.8828 0.64844 3.75 1.9375 0.86328 1.293 1.2969 3.1719 1.2969 5.6406 0 2.4609-0.43359 4.3359-1.2969 5.625-0.86719 1.293-2.1172 1.9375-3.75 1.9375-1.6367 0-2.8867-0.64453-3.75-1.9375-0.86719-1.2891-1.2969-3.1641-1.2969-5.625 0-2.4688 0.42969-4.3477 1.2969-5.6406 0.86328-1.2891 2.1133-1.9375 3.75-1.9375z"/>
</symbol>
<symbol id="j" overflow="visible">
<path d="m7.5781-12.875-5 7.7812h5zm-0.51562-1.7344h2.4844v9.5156h2.0781v1.6562h-2.0781v3.4375h-1.9688v-3.4375h-6.5938v-1.9062z"/>
</symbol>
<symbol id="i" overflow="visible">
<path d="m6.375-6.9375c-0.9375 0-1.6797 0.25781-2.2188 0.76562-0.54297 0.5-0.8125 1.1875-0.8125 2.0625 0 0.88672 0.26953 1.5781 0.8125 2.0781 0.53906 0.5 1.2812 0.75 2.2188 0.75s1.6758-0.25 2.2188-0.75c0.53906-0.50781 0.8125-1.2031 0.8125-2.0781s-0.27344-1.5625-0.8125-2.0625c-0.53125-0.50781-1.2734-0.76562-2.2188-0.76562zm-1.9844-0.84375c-0.84375-0.20703-1.5078-0.59766-1.9844-1.1719-0.46875-0.58203-0.70312-1.2891-0.70312-2.125 0-1.1641 0.41406-2.0859 1.25-2.7656 0.83203-0.67578 1.9727-1.0156 3.4219-1.0156 1.457 0 2.5977 0.33984 3.4219 1.0156 0.83203 0.67969 1.25 1.6016 1.25 2.7656 0 0.83594-0.24219 1.543-0.71875 2.125-0.46875 0.57422-1.125 0.96484-1.9688 1.1719 0.94531 0.23047 1.6875 0.66797 2.2188 1.3125 0.53906 0.64844 0.8125 1.4336 0.8125 2.3594 0 1.418-0.43359 2.5078-1.2969 3.2656-0.86719 0.75-2.1055 1.125-3.7188 1.125-1.6172 0-2.8555-0.375-3.7188-1.125-0.86719-0.75781-1.2969-1.8477-1.2969-3.2656 0-0.92578 0.26562-1.7109 0.79688-2.3594 0.53906-0.64453 1.2852-1.082 2.2344-1.3125zm-0.71875-3.1094c0 0.75 0.23438 1.3398 0.70312 1.7656 0.47656 0.42969 1.1445 0.64062 2 0.64062 0.84375 0 1.5039-0.21094 1.9844-0.64062 0.47656-0.42578 0.71875-1.0156 0.71875-1.7656 0-0.75781-0.24219-1.3477-0.71875-1.7656-0.48047-0.42578-1.1406-0.64062-1.9844-0.64062-0.85547 0-1.5234 0.21484-2 0.64062-0.46875 0.41797-0.70312 1.0078-0.70312 1.7656z"/>
</symbol>
<symbol id="h" overflow="visible">
<path d="m1.9688-14.609h1.9688v6h7.1875v-6h1.9844v14.609h-1.9844v-6.9531h-7.1875v6.9531h-1.9688z"/>
</symbol>
<symbol id="q" overflow="visible">
<path d="m1.1094-10.953h8.5469v1.6406l-6.7656 7.875h6.7656v1.4375h-8.7969v-1.6406l6.7812-7.875h-6.5312z"/>
</symbol>
<symbol id="b" overflow="visible">
<path d="m9.7812-10.531v1.6719c-0.51172-0.26953-1.0234-0.47266-1.5312-0.60938-0.51172-0.14453-1.0273-0.21875-1.5469-0.21875-1.1797 0-2.0898 0.37109-2.7344 1.1094-0.64844 0.74219-0.96875 1.7773-0.96875 3.1094 0 1.3359 0.32031 2.375 0.96875 3.125 0.64453 0.74219 1.5547 1.1094 2.7344 1.1094 0.51953 0 1.0352-0.066406 1.5469-0.20312 0.50781-0.14453 1.0195-0.35938 1.5312-0.64062v1.6562c-0.5 0.24219-1.0234 0.41797-1.5625 0.53125-0.54297 0.11328-1.1172 0.17188-1.7188 0.17188-1.6562 0-2.9688-0.51562-3.9375-1.5469-0.96875-1.0391-1.4531-2.4414-1.4531-4.2031 0-1.7812 0.48828-3.1797 1.4688-4.2031 0.97656-1.0312 2.3203-1.5469 4.0312-1.5469 0.5625 0 1.1016 0.058594 1.625 0.17188 0.53125 0.11719 1.0469 0.28906 1.5469 0.51562z"/>
</symbol>
<symbol id="u" overflow="visible">
<path d="m6.6094-8.0938c-0.88672 0-1.5898 0.30859-2.1094 0.92188-0.51172 0.60547-0.76562 1.4336-0.76562 2.4844 0 1.0547 0.25391 1.8867 0.76562 2.5 0.51953 0.60547 1.2227 0.90625 2.1094 0.90625 0.89453 0 1.5977-0.30078 2.1094-0.90625 0.51953-0.61328 0.78125-1.4453 0.78125-2.5 0-1.0508-0.26172-1.8789-0.78125-2.4844-0.51172-0.61328-1.2148-0.92188-2.1094-0.92188zm3.9375-6.1875v1.7969c-0.5-0.22656-1.0078-0.40625-1.5156-0.53125-0.5-0.125-1-0.1875-1.5-0.1875-1.3047 0-2.2969 0.44531-2.9844 1.3281-0.6875 0.875-1.0781 2.2031-1.1719 3.9844 0.375-0.57031 0.85156-1.0078 1.4375-1.3125 0.58203-0.30078 1.2227-0.45312 1.9219-0.45312 1.4688 0 2.625 0.44922 3.4688 1.3438 0.85156 0.88672 1.2812 2.0938 1.2812 3.625 0 1.5-0.44531 2.7031-1.3281 3.6094-0.88672 0.90625-2.0703 1.3594-3.5469 1.3594-1.6875 0-2.9805-0.64453-3.875-1.9375-0.88672-1.2891-1.3281-3.1641-1.3281-5.625 0-2.3125 0.54688-4.1484 1.6406-5.5156 1.0938-1.375 2.5625-2.0625 4.4062-2.0625 0.5 0 1 0.046875 1.5 0.14062 0.50781 0.09375 1.0391 0.24219 1.5938 0.4375z"/>
</symbol>
<symbol id="t" overflow="visible">
<path d="m9.1094-9.2969v-5.9219h1.7969v15.219h-1.7969v-1.6406c-0.38672 0.64844-0.87109 1.1328-1.4531 1.4531-0.57422 0.3125-1.2617 0.46875-2.0625 0.46875-1.3242 0-2.4023-0.52344-3.2344-1.5781-0.83594-1.0625-1.25-2.4531-1.25-4.1719s0.41406-3.1016 1.25-4.1562c0.83203-1.0625 1.9102-1.5938 3.2344-1.5938 0.80078 0 1.4883 0.16406 2.0625 0.48438 0.58203 0.3125 1.0664 0.79297 1.4531 1.4375zm-6.1406 3.8281c0 1.3242 0.26953 2.3672 0.8125 3.125 0.53906 0.75 1.2891 1.125 2.25 1.125 0.94531 0 1.6953-0.375 2.25-1.125 0.55078-0.75781 0.82812-1.8008 0.82812-3.125 0-1.3203-0.27734-2.3594-0.82812-3.1094-0.55469-0.75781-1.3047-1.1406-2.25-1.1406-0.96094 0-1.7109 0.38281-2.25 1.1406-0.54297 0.75-0.8125 1.7891-0.8125 3.1094z"/>
</symbol>
<symbol id="s" overflow="visible">
<path d="m9.7656-5.4688c0-1.3203-0.27734-2.3594-0.82812-3.1094-0.54297-0.75781-1.2891-1.1406-2.2344-1.1406-0.96094 0-1.7148 0.38281-2.2656 1.1406-0.54297 0.75-0.8125 1.7891-0.8125 3.1094 0 1.3242 0.26953 2.3672 0.8125 3.125 0.55078 0.75 1.3047 1.125 2.2656 1.125 0.94531 0 1.6914-0.375 2.2344-1.125 0.55078-0.75781 0.82812-1.8008 0.82812-3.125zm-6.1406-3.8281c0.38281-0.64453 0.86328-1.125 1.4375-1.4375 0.58203-0.32031 1.2734-0.48438 2.0781-0.48438 1.3203 0 2.3984 0.53125 3.2344 1.5938 0.83203 1.0547 1.25 2.4375 1.25 4.1562s-0.41797 3.1094-1.25 4.1719c-0.83594 1.0547-1.9141 1.5781-3.2344 1.5781-0.80469 0-1.4961-0.15625-2.0781-0.46875-0.57422-0.32031-1.0547-0.80469-1.4375-1.4531v1.6406h-1.7969v-15.219h1.7969z"/>
</symbol>
<symbol id="r" overflow="visible">
<path d="m5.7344 0-5.5781-14.609h2.0625l4.6406 12.297 4.625-12.297h2.0625l-5.5625 14.609z"/>
</symbol>
<symbol id="p" overflow="visible">
<path d="m1.2344-0.82812h1.625v-5.5781l-1.7656 0.35938v-0.90625l1.75-0.34375h0.98438v6.4688h1.625v0.82812h-4.2188z"/>
</symbol>
<symbol id="o" overflow="visible">
<path d="m1.9219-0.82812h3.4531v0.82812h-4.6406v-0.82812c0.375-0.38281 0.88281-0.90625 1.5312-1.5625 0.64453-0.65625 1.0508-1.0781 1.2188-1.2656 0.32031-0.35156 0.54688-0.64844 0.67188-0.89062 0.125-0.25 0.1875-0.49219 0.1875-0.73438 0-0.39453-0.14062-0.71094-0.42188-0.95312-0.27344-0.25-0.625-0.375-1.0625-0.375-0.30469 0-0.625 0.058594-0.96875 0.17188-0.34375 0.10547-0.71484 0.26562-1.1094 0.48438v-1c0.39453-0.15625 0.76562-0.27344 1.1094-0.35938 0.35156-0.082031 0.67188-0.125 0.95312-0.125 0.75781 0 1.3633 0.19531 1.8125 0.57812 0.44531 0.375 0.67188 0.88281 0.67188 1.5156 0 0.29297-0.058594 0.57422-0.17188 0.84375-0.10547 0.27344-0.30859 0.58984-0.60938 0.95312-0.085937 0.09375-0.34375 0.37109-0.78125 0.82812-0.4375 0.44922-1.0547 1.0781-1.8438 1.8906z"/>
</symbol>
<symbol id="n" overflow="visible">
<path d="m4.0625-3.9375c0.46875 0.10547 0.83203 0.32031 1.0938 0.64062 0.26953 0.3125 0.40625 0.70312 0.40625 1.1719 0 0.71875-0.25 1.2773-0.75 1.6719-0.49219 0.39844-1.1875 0.59375-2.0938 0.59375-0.3125 0-0.63281-0.03125-0.95312-0.09375-0.32422-0.0625-0.65625-0.14844-1-0.26562v-0.95312c0.26953 0.15625 0.56641 0.27734 0.89062 0.35938 0.33203 0.085938 0.67578 0.125 1.0312 0.125 0.61328 0 1.082-0.11719 1.4062-0.35938 0.33203-0.25 0.5-0.60938 0.5-1.0781 0-0.42578-0.15234-0.75781-0.45312-1-0.30469-0.25-0.72656-0.375-1.2656-0.375h-0.84375v-0.8125h0.89062c0.47656 0 0.84766-0.09375 1.1094-0.28125 0.25781-0.19531 0.39062-0.47656 0.39062-0.84375 0-0.375-0.13672-0.66016-0.40625-0.85938-0.26172-0.20703-0.64062-0.3125-1.1406-0.3125-0.27344 0-0.5625 0.03125-0.875 0.09375-0.30469 0.0625-0.64062 0.15625-1.0156 0.28125v-0.89062c0.375-0.10156 0.72266-0.17969 1.0469-0.23438 0.33203-0.050781 0.64453-0.078125 0.9375-0.078125 0.75 0 1.3438 0.17188 1.7812 0.51562s0.65625 0.80469 0.65625 1.375c0 0.40625-0.12109 0.75-0.35938 1.0312-0.23047 0.28125-0.55859 0.47656-0.98438 0.57812z"/>
</symbol>
<symbol id="m" overflow="visible">
<path d="m3.7812-6.4375-2.4844 3.8906h2.4844zm-0.25-0.85938h1.2344v4.75h1.0469v0.82812h-1.0469v1.7188h-0.98438v-1.7188h-3.2969v-0.95312z"/>
</symbol>
<symbol id="l" overflow="visible">
<path d="m1.0781-7.2969h3.875v0.82812h-2.9688v1.7812c0.14453-0.039062 0.28516-0.070312 0.42188-0.09375 0.14453-0.03125 0.28906-0.046875 0.4375-0.046875 0.8125 0 1.457 0.22656 1.9375 0.67188 0.47656 0.44922 0.71875 1.0547 0.71875 1.8125 0 0.79297-0.24609 1.4062-0.73438 1.8438-0.49219 0.42969-1.1836 0.64062-2.0781 0.64062-0.30469 0-0.61719-0.027344-0.9375-0.078125-0.3125-0.054688-0.64062-0.12891-0.98438-0.23438v-0.98438c0.30078 0.15625 0.60938 0.27734 0.92188 0.35938 0.3125 0.074219 0.64062 0.10938 0.98438 0.10938 0.5625 0 1.0078-0.14453 1.3438-0.4375 0.33203-0.30078 0.5-0.70703 0.5-1.2188 0-0.50781-0.16797-0.91016-0.5-1.2031-0.33594-0.30078-0.78125-0.45312-1.3438-0.45312-0.26172 0-0.52734 0.03125-0.79688 0.09375-0.26172 0.0625-0.52734 0.15234-0.79688 0.26562z"/>
</symbol>
<symbol id="k" overflow="visible">
<path d="m3.3125-4.0469c-0.44922 0-0.80469 0.15234-1.0625 0.45312-0.26172 0.30469-0.39062 0.71875-0.39062 1.25 0 0.52344 0.12891 0.9375 0.39062 1.25 0.25781 0.30469 0.61328 0.45312 1.0625 0.45312 0.4375 0 0.78516-0.14844 1.0469-0.45312 0.25781-0.3125 0.39062-0.72656 0.39062-1.25 0-0.53125-0.13281-0.94531-0.39062-1.25-0.26172-0.30078-0.60938-0.45312-1.0469-0.45312zm1.9531-3.0938v0.90625c-0.25-0.125-0.5-0.21875-0.75-0.28125s-0.5-0.09375-0.75-0.09375c-0.65625 0-1.1562 0.22656-1.5 0.67188-0.34375 0.4375-0.53906 1.1016-0.57812 1.9844 0.1875-0.28125 0.42578-0.49219 0.71875-0.64062 0.28906-0.15625 0.60938-0.23438 0.95312-0.23438 0.73828 0 1.3164 0.22656 1.7344 0.67188 0.42578 0.44922 0.64062 1.0547 0.64062 1.8125 0 0.75-0.22656 1.3555-0.67188 1.8125-0.4375 0.44922-1.0234 0.67188-1.75 0.67188-0.84375 0-1.4922-0.32031-1.9375-0.96875-0.44922-0.64453-0.67188-1.582-0.67188-2.8125 0-1.1562 0.26953-2.0781 0.8125-2.7656 0.55078-0.6875 1.2852-1.0312 2.2031-1.0312 0.25 0 0.5 0.027344 0.75 0.078125 0.25781 0.054687 0.52344 0.125 0.79688 0.21875z"/>
</symbol>
<symbol id="d" overflow="visible">
<path d="m7.7969-9.8125-6.9219-9.3594h6.4844l3.9219 5.6875 3.9688-5.6875h6.5l-6.9219 9.3281 7.25 9.8438h-6.4844l-4.3125-6.0625-4.2656 6.0625h-6.4844z"/>
</symbol>
<symbol id="c" overflow="visible">
<path d="m13.016 4.625h-10.641v-3.8594h4.8125v-23.547h-4.8125v-3.8438h10.641z"/>
</symbol>
</defs>
<path transform="matrix(2.505 0 0 2.5035 10.194 105.91)" d="m300 153.75h-277.5v-195h277.5z" fill="none" stroke="#000" stroke-width="2"/>
<path transform="matrix(2.505 0 0 2.5035 10.194 105.91)" d="m78.75 153.75v-183.75" fill="none" stroke="#000" stroke-width=".75"/>
<path transform="matrix(2.505 0 0 2.5035 10.194 105.91)" d="m78.75 153.75v-195" fill="none" stroke="#000" stroke-width=".75"/>
<path transform="matrix(2.505 0 0 2.5035 10.194 105.91)" d="m120 153.75v-195" fill="none" stroke="#000" stroke-width=".75"/>
<path transform="matrix(2.505 0 0 2.5035 10.194 105.91)" d="m161.25 153.75v-195" fill="none" stroke="#000" stroke-width=".75"/>
<path transform="matrix(2.505 0 0 2.5035 10.194 105.91)" d="m37.5 153.75v-195" fill="none" stroke="#000" stroke-width=".75"/>
<path transform="matrix(2.505 0 0 2.5035 10.194 105.91)" d="m202.5 153.75v-195" fill="none" stroke="#000" stroke-width=".75"/>
<path transform="matrix(2.505 0 0 2.5035 10.194 105.91)" d="m243.75 153.75v-195" fill="none" stroke="#000" stroke-width=".75"/>
<path transform="matrix(2.505 0 0 2.5035 10.194 105.91)" d="m285 153.75v-195" fill="none" stroke="#000" stroke-width=".75"/>
<path transform="matrix(2.505 0 0 2.5035 10.194 105.91)" d="m22.501 138.75h277.5" fill="none" stroke="#000" stroke-width=".75"/>
<path transform="matrix(2.505 0 0 2.5035 10.194 105.91)" d="m300 123.75h-277.5" fill="none" stroke="#000" stroke-width=".75"/>
<path transform="matrix(2.505 0 0 2.5035 10.194 105.91)" d="m22.501 108.75h277.5" fill="none" stroke="#000" stroke-width=".75"/>
<path transform="matrix(2.505 0 0 2.5035 10.194 105.91)" d="m22.501 93.751h277.5" fill="none" stroke="#000" stroke-width=".75"/>
<path transform="matrix(2.505 0 0 2.5035 10.194 105.91)" d="m22.501 78.75h277.5" fill="none" stroke="#000" stroke-width=".75"/>
<path transform="matrix(2.505 0 0 2.5035 10.194 105.91)" d="m22.501 63.75h277.5" fill="none" stroke="#000" stroke-width=".75"/>
<path transform="matrix(2.505 0 0 2.5035 10.194 105.91)" d="m22.501 48.749h277.5" fill="none" stroke="#000" stroke-width=".75"/>
<path transform="matrix(2.505 0 0 2.5035 10.194 105.91)" d="m22.501 33.75h277.5" fill="none" stroke="#000" stroke-width=".75"/>
<path transform="matrix(2.505 0 0 2.5035 10.194 105.91)" d="m22.501 18.749h277.5" fill="none" stroke="#000" stroke-width=".75"/>
<path transform="matrix(2.505 0 0 2.5035 10.194 105.91)" d="m22.501 3.7499h277.5" fill="none" stroke="#000" stroke-width=".75"/>
<path transform="matrix(2.505 0 0 2.5035 10.194 105.91)" d="m22.501-11.249h277.5" fill="none" stroke="#000" stroke-width=".75"/>
<path transform="matrix(2.505 0 0 2.5035 10.194 105.91)" d="m22.501-26.25h277.5" fill="none" stroke="#000" stroke-width=".75"/>
<path transform="matrix(2.505 0 0 2.5035 10.194 105.91)" d="m22.501-13.499h277.5" fill="none" stroke="#000" stroke-width=".75"/>
<g>
<use x="85.175781" y="510.199801" xlink:href="#g"/>
<use x="97.70083" y="510.199801" xlink:href="#e"/>
<use x="110.225878" y="510.199801" xlink:href="#f"/>
</g>
<g>
<use x="188.664062" y="510.199801" xlink:href="#e"/>
<use x="201.189111" y="510.199801" xlink:href="#f"/>
<use x="213.714159" y="510.199801" xlink:href="#a"/>
</g>
<g>
<use x="291.957031" y="510.199801" xlink:href="#f"/>
<use x="304.48208" y="510.199801" xlink:href="#a"/>
<use x="317.007128" y="510.199801" xlink:href="#a"/>
</g>
<g>
<use x="388.585937" y="510.199801" xlink:href="#g"/>
<use x="401.110986" y="510.199801" xlink:href="#a"/>
<use x="413.636034" y="510.199801" xlink:href="#a"/>
<use x="426.161082" y="510.199801" xlink:href="#a"/>
</g>
<g>
<use x="492.285156" y="510.199801" xlink:href="#e"/>
<use x="504.810205" y="510.199801" xlink:href="#a"/>
<use x="517.335253" y="510.199801" xlink:href="#a"/>
<use x="529.860301" y="510.199801" xlink:href="#a"/>
</g>
<g>
<use x="595.859375" y="510.199801" xlink:href="#j"/>
<use x="608.384423" y="510.199801" xlink:href="#a"/>
<use x="620.909472" y="510.199801" xlink:href="#a"/>
<use x="633.43452" y="510.199801" xlink:href="#a"/>
</g>
<g>
<use x="699" y="510.199801" xlink:href="#i"/>
<use x="711.525048" y="510.199801" xlink:href="#a"/>
<use x="724.050097" y="510.199801" xlink:href="#a"/>
<use x="736.575145" y="510.199801" xlink:href="#a"/>
</g>
<g>
<use x="775.273437" y="510.199801" xlink:href="#h"/>
<use x="790.303495" y="510.199801" xlink:href="#q"/>
</g>
<g>
<use x="201.386719" y="523.656832" xlink:href="#b"/>
</g>
<g>
<use x="211.386719" y="526.7249" xlink:href="#p"/>
</g>
<g>
<use x="98.339844" y="523.656832" xlink:href="#b"/>
</g>
<g>
<use x="305.554688" y="523.656832" xlink:href="#b"/>
</g>
<g>
<use x="315.550781" y="526.7249" xlink:href="#o"/>
</g>
<g>
<use x="408.914062" y="523.656832" xlink:href="#b"/>
</g>
<g>
<use x="418.910156" y="526.7249" xlink:href="#n"/>
</g>
<g>
<use x="511.800781" y="523.656832" xlink:href="#b"/>
</g>
<g>
<use x="521.796875" y="526.7249" xlink:href="#m"/>
</g>
<g>
<use x="616.152344" y="523.656832" xlink:href="#b"/>
</g>
<g>
<use x="626.148438" y="526.7249" xlink:href="#l"/>
</g>
<g>
<use x="718.773437" y="523.656832" xlink:href="#b"/>
</g>
<g>
<use x="728.769531" y="526.7249" xlink:href="#k"/>
</g>
<g>
<use x="20.015625" y="460.551363" xlink:href="#g"/>
<use x="32.540673" y="460.551363" xlink:href="#a"/>
<use x="45.065722" y="460.551363" xlink:href="#a"/>
</g>
<g>
<use x="32.765625" y="385.449801" xlink:href="#i"/>
<use x="45.290673" y="385.449801" xlink:href="#a"/>
</g>
<g>
<use x="32.765625" y="310.344332" xlink:href="#u"/>
<use x="45.290673" y="310.344332" xlink:href="#a"/>
</g>
<g>
<use x="32.765625" y="235.238863" xlink:href="#j"/>
<use x="45.290673" y="235.238863" xlink:href="#a"/>
</g>
<g>
<use x="32.765625" y="160.133394" xlink:href="#e"/>
<use x="45.290673" y="160.133394" xlink:href="#a"/>
</g>
<g>
<use x="45.515625" y="85.027926" xlink:href="#a"/>
</g>
<g>
<use x="-1.105469" y="47.652926" xlink:href="#t"/>
<use x="11.41958" y="47.652926" xlink:href="#s"/>
<use x="23.944628" y="47.652926" xlink:href="#h"/>
<use x="38.974686" y="47.652926" xlink:href="#r"/>
</g>
<path transform="matrix(2.505 0 0 2.5035 10.194 105.91)" d="m78.75 3.7499h41.25l41.25 8.51 41.249 6.4894 41.25 30 41.25 45.001" fill="none" stroke="#000" stroke-width="2"/>
<g fill="#2a7fff">
<use x="196.179688" y="125.158245" xlink:href="#d"/>
<use x="218.724774" y="125.158245" xlink:href="#c"/>
</g>
<g fill="#2a7fff">
<use x="299.574219" y="125.17387" xlink:href="#d"/>
<use x="322.119306" y="125.17387" xlink:href="#c"/>
</g>
<g fill="#2a7fff">
<use x="402.84375" y="145.880901" xlink:href="#d"/>
<use x="425.388837" y="145.880901" xlink:href="#c"/>
</g>
<g fill="#2a7fff">
<use x="506.140625" y="162.697307" xlink:href="#d"/>
<use x="528.685712" y="162.697307" xlink:href="#c"/>
</g>
<g fill="#2a7fff">
<use x="609.515625" y="237.751995" xlink:href="#d"/>
<use x="632.060712" y="237.751995" xlink:href="#c"/>
</g>
<g fill="#2a7fff">
<use x="712.847656" y="350.412151" xlink:href="#d"/>
<use x="735.392743" y="350.412151" xlink:href="#c"/>
</g>
</svg>
