<?xml version="1.0" encoding="UTF-8"?>
<svg width="800px" height="376px" version="1.1" viewBox="0 0 800 376" xmlns="http://www.w3.org/2000/svg" xmlns:xlink="http://www.w3.org/1999/xlink">
<defs>
<linearGradient id="t" x1="50.351" x2="45.422" y1="40.212" y2="31.861" gradientTransform="matrix(2.0372 0 0 2.0367 8.6878 2.8329)" gradientUnits="userSpaceOnUse">
<stop stop-color="#d8c4a8" offset="0"/>
<stop stop-color="#c8a68b" offset="1"/>
</linearGradient>
<linearGradient id="s" x1="45.336" x2="41.925" y1="33.824" y2="30.012" gradientTransform="matrix(2.0372 0 0 2.0367 8.6878 2.8329)" gradientUnits="userSpaceOnUse">
<stop stop-color="#e1cdba" offset="0"/>
<stop stop-color="#f2e9db" offset="1"/>
</linearGradient>
<linearGradient id="n" x1="40.727" x2="39.229" y1="26.166" y2="24.303" gradientTransform="matrix(2.0372 0 0 2.0367 8.6878 2.8329)" gradientUnits="userSpaceOnUse">
<stop stop-color="#ba9" offset="0"/>
<stop stop-color="#9a9288" offset="1"/>
</linearGradient>
<linearGradient id="m" x1="26.848" x2="19.391" y1="19.043" y2="11.773" gradientTransform="matrix(2.0372 0 0 2.0367 8.6878 2.8329)" gradientUnits="userSpaceOnUse">
<stop stop-color="#c2ae9b" offset="0"/>
<stop stop-color="#ebdccb" offset="1"/>
</linearGradient>
<radialGradient id="d" cx="32.21" cy="24.195" r="14.345" gradientTransform="matrix(.3178 1.3451 -1.4074 .33236 97.251 1.6643)" gradientUnits="userSpaceOnUse">
<stop stop-color="#b39d8a" offset="0"/>
<stop stop-color="#ebdccb" offset="1"/>
</radialGradient>
<linearGradient id="l" x1="676.21" x2="676.21" y1="141.91" y2="80.582" gradientTransform="matrix(2.0372 0 0 2.0367 -976.09 -127.57)" gradientUnits="userSpaceOnUse">
<stop stop-color="#c6d5d8" offset="0"/>
<stop stop-color="#788b90" offset="1"/>
</linearGradient>
<linearGradient id="k" x1="547.49" x2="547.49" y1="117.56" y2="90.7" gradientTransform="matrix(2.0372 0 0 2.0367 -976.09 -127.57)" gradientUnits="userSpaceOnUse">
<stop stop-color="#a9b5b9" offset="0"/>
<stop stop-color="#788b90" offset="1"/>
</linearGradient>
<linearGradient id="j" x1="811.53" x2="811.45" y1="97.119" y2="80.518" gradientTransform="matrix(2.0372 0 0 2.0367 -976.09 -127.57)" gradientUnits="userSpaceOnUse">
<stop stop-color="#d1e6eb" offset="0"/>
<stop stop-color="#aac4c8" offset="1"/>
</linearGradient>
<linearGradient id="i" x1="811.76" x2="810.68" y1="102.27" y2="100.4" gradientTransform="matrix(2.0372 0 0 2.0367 -976.09 -127.57)" gradientUnits="userSpaceOnUse">
<stop stop-color="#a9b4b9" offset="0"/>
<stop stop-color="#a2acb2" offset="1"/>
</linearGradient>
<linearGradient id="h" x1="719.71" x2="719.71" y1="178.76" y2="127.44" gradientTransform="matrix(2.0372 0 0 2.0367 -976.09 -127.57)" gradientUnits="userSpaceOnUse">
<stop stop-color="#e5a993" offset="0"/>
<stop stop-color="#c77a66" offset="1"/>
</linearGradient>
<linearGradient id="g" x1="807.18" x2="807.18" y1="211.78" y2="149.07" gradientTransform="matrix(2.0372 0 0 2.0367 -976.09 -127.57)" gradientUnits="userSpaceOnUse">
<stop stop-color="#eed5ca" offset="0"/>
<stop stop-color="#ecc6b4" offset="1"/>
</linearGradient>
<linearGradient id="r" x1="808.53" x2="810.06" y1="217.19" y2="212.84" gradientTransform="matrix(2.0372 0 0 2.0367 -976.09 -127.57)" gradientUnits="userSpaceOnUse">
<stop stop-color="#c3cbc9" offset="0"/>
<stop stop-color="#a9b5b9" offset="1"/>
</linearGradient>
<linearGradient id="q" x1="802.94" x2="820.26" y1="228.86" y2="149.02" gradientTransform="matrix(2.0372 0 0 2.0367 -976.09 -127.57)" gradientUnits="userSpaceOnUse">
<stop stop-color="#c6d5d8" offset="0"/>
<stop stop-color="#6f7d84" offset="1"/>
</linearGradient>
<linearGradient id="p" x1="540.86" x2="540.86" y1="139.1" y2="124.62" gradientTransform="matrix(2.0372 0 0 2.0367 -976.09 -127.57)" gradientUnits="userSpaceOnUse">
<stop stop-color="#b8cbd1" offset="0"/>
<stop stop-color="#707d84" offset="1"/>
</linearGradient>
<linearGradient id="o" x1="800.37" x2="807.69" y1="239.57" y2="218.94" gradientTransform="matrix(2.0372 0 0 2.0367 -976.09 -127.57)" gradientUnits="userSpaceOnUse">
<stop stop-color="#bad4d8" offset="0"/>
<stop stop-color="#c7dce2" offset="1"/>
</linearGradient>
<filter id="a" x="0%" y="0%" width="100%" height="100%">
<feColorMatrix in="SourceGraphic" values="0 0 0 0 1 0 0 0 0 1 0 0 0 0 1 0 0 0 1 0"/>
</filter>
<mask id="f">
<g filter="url(#a)">
<rect width="800" height="376" fill-opacity=".6"/>
</g>
</mask>
<clipPath id="v">
<rect width="800" height="376"/>
</clipPath>
<g id="b" clip-path="url(#v)">
<path transform="matrix(2.7162 0 0 2.7156 86.223 -1270.7)" d="m121.55 522.99-0.20996 2.2281 12.973-3.5242-12.07-6.0932-0.18264 1.9476c-3.6614 1.1292-4.3129-1.1335-5.1398-3.33-1.9875-5.2805-5.8315-12.494-12.605-2.6395-4.5085 6.5622-8.0707 6.8096-9.4728-0.84436-1.6136-8.809-6.6656-9.58-11.439-1.7909-3.742 6.1091-6.2845 6.1004-7.7945-0.5912-1.6452-7.3001-6.3895-8.6781-12.092-1.296-3.6068 4.6692-4.694 5.6315-7.0525-1.4787-1.9285-5.8185-5.7136-8.2351-10.232-1.9045-2.6217 3.6738-5.1628 3.0768-6.5894-0.91629-1.3144-3.6824-2.9869-6.67-8.2303-2.4123l-0.054648 2.8438c3.5838-2.6626 4.927-2.6582 6.3262 1.3234 1.9055 5.4258 5.7007 7.3404 10.36 1.1292 4.4509-5.9321 5.5439 0.30351 6.7375 3.0682 3.9117 9.0579 7.6378 4.9784 10.885 1.0429 5.495-6.66 7.1114-2.3303 7.9743 1.9879 1.5488 7.7402 9.4829 7.6841 12.312 1.6082 3.4529-7.4209 5.3699-1.8786 5.9121 1.4212 1.7315 10.552 10.869 7.4928 14.256 2.162 5.554-8.7428 6.076-3.4566 8.0491 1.1263 2.6576 6.1738 4.241 4.7195 7.3789 4.9324z" fill="#bad2d7" stroke="#fff" stroke-width=".5"/>
</g>
<mask id="e">
<g filter="url(#a)">
<rect width="800" height="376" fill-opacity=".6277"/>
</g>
</mask>
<clipPath id="u">
<rect width="800" height="376"/>
</clipPath>
<g id="c" clip-path="url(#u)">
<path d="m118.66 36.883h0.71484c18.066 0 32.609 16.852 32.609 34.914v49.781c0 18.062-14.543 34.914-32.609 34.914h-0.71484c-18.066 0-32.613-16.852-32.613-34.914v-49.781c0-18.062 14.547-34.914 32.613-34.914z" fill="#b977ab"/>
<path d="m688.38 23.863h1.4688c10.047 0 43.859-11.762 50.406 64.188 2.2734 26.348 0 140.91 0 140.91 0 53.906-2.4648 133.47-50.406 133.47h-1.4688c-37.16 0-47.621-38.461-47.621-89.59v-140.92c0-51.129 10.461-108.06 47.621-108.06z" fill="#b977ab"/>
<path d="m117.97 110.9h0.38281c9.6758 0 17.461 5.8555 17.461 12.133v17.301c0 6.2773-7.7852 12.133-17.461 12.133h-0.38281c-9.6719 0-17.461-5.8555-17.461-12.133v-17.301c0-6.2773 7.7891-12.133 17.461-12.133z" fill="#b977ab"/>
</g>
</defs>
<path d="m89.016 128.53c-715.86-172.41-357.93-86.203 0 0z" fill-rule="evenodd"/>
<path d="m122.24 59.93c-0.53516-0.003907-1.0898 0.023437-1.6641 0.074218-0.57422 0.050782-1.1641 0.12891-1.7734 0.23047-0.61328 0.10156-1.2422 0.23047-1.8867 0.38672-0.64844 0.15625-1.3086 0.33203-1.9922 0.53906-0.67969 0.20703-1.375 0.44141-2.0859 0.70312-0.71094 0.25781-1.4414 0.54688-2.1797 0.86328-0.74219 0.3125-1.5 0.65234-2.2695 1.0156-0.76953 0.36719-1.5508 0.75781-2.3477 1.1797-0.79687 0.41797-1.6016 0.86719-2.4219 1.3398-0.82031 0.47266-1.6211 0.96094-2.3984 1.4648-0.77344 0.5-1.5234 1.0156-2.25 1.543-0.72656 0.52734-1.4297 1.0625-2.1055 1.6094s-1.3242 1.1055-1.9453 1.668c-0.62109 0.5625-1.2188 1.1328-1.7812 1.707-0.56641 0.57422-1.1016 1.1562-1.6094 1.7383-0.50391 0.58203-0.98438 1.1641-1.4297 1.75-0.21875 0.29297-0.43359 0.58594-0.64062 0.87891-0.20312 0.29297-0.40234 0.58203-0.58984 0.875-0.19141 0.29297-0.375 0.58594-0.54688 0.875-0.17187 0.28906-0.33594 0.57812-0.49219 0.86719-0.15625 0.28906-0.30469 0.57812-0.44141 0.86328-0.14062 0.28516-0.26953 0.57422-0.39062 0.85938-0.12109 0.28516-0.23047 0.56641-0.33594 0.84766-0.10156 0.28125-0.19141 0.55859-0.27734 0.83594-0.082031 0.27734-0.15625 0.55078-0.22266 0.82422-0.066406 0.26953-0.12109 0.54297-0.16797 0.80859-0.042969 0.26953-0.078126 0.53125-0.10547 0.79297-0.027344 0.26172-0.042969 0.52344-0.046875 0.78125-0.007813 0.25391-0.003906 0.50781 0.011718 0.75781 0.011719 0.25 0.035157 0.49219 0.070313 0.73438 0.035156 0.24609 0.078125 0.48438 0.13672 0.71875 0.054687 0.23438 0.12109 0.46484 0.19922 0.69141 0.074219 0.22656 0.16406 0.44922 0.26172 0.66797 0.097657 0.21875 0.20312 0.43359 0.32422 0.64062s0.25 0.40625 0.38281 0.59766c0.13281 0.1875 0.27344 0.36719 0.41797 0.53516 0.14453 0.17188 0.30078 0.33594 0.45703 0.48438 0.16016 0.15234 0.32422 0.29297 0.49219 0.42578 0.17188 0.13672 0.34766 0.26172 0.53125 0.375 0.18359 0.11719 0.37109 0.22266 0.56641 0.32031 0.19141 0.097657 0.39062 0.18359 0.59375 0.26562 0.20703 0.078125 0.41797 0.15234 0.63281 0.21484 0.21875 0.0625 0.4375 0.12109 0.66406 0.16797 0.23047 0.046875 0.46094 0.082031 0.69922 0.11328s0.48438 0.054688 0.73047 0.066406c0.25 0.015625 0.5 0.023438 0.75781 0.019532 0.25781 0 0.52344-0.007813 0.78906-0.023438 0.26953-0.015625 0.54297-0.039062 0.82031-0.070312s0.5625-0.066407 0.84766-0.11328c0.28906-0.042968 0.57813-0.097656 0.875-0.16016 0.59375-0.11719 1.2031-0.26172 1.832-0.4375 0.62891-0.17188 1.2773-0.36719 1.9375-0.58984 0.66016-0.22656 1.3359-0.47656 2.0273-0.75 0.69531-0.27344 1.3984-0.56641 2.1211-0.88672 0.72266-0.31641 1.4609-0.66016 2.2109-1.0234 0.74609-0.35938 1.5117-0.73828 2.2852-1.1406 0.77734-0.40234 1.5625-0.82422 2.3594-1.2656 0.80078-0.4375 1.6094-0.89453 2.4297-1.3672 0.81641-0.47266 1.6133-0.95312 2.3828-1.4453 0.76562-0.48828 1.5078-0.98438 2.2227-1.4883 0.71484-0.5 1.3984-1.0117 2.0586-1.5273 0.65625-0.51172 1.2852-1.0352 1.8867-1.5586 0.59766-0.52344 1.168-1.0469 1.7109-1.5742 0.53906-0.52734 1.0469-1.0586 1.5273-1.5898 0.47656-0.53516 0.92969-1.0703 1.3438-1.6016 0.20703-0.26562 0.40625-0.52734 0.59766-0.79297 0.19141-0.26953 0.375-0.53125 0.54688-0.79688 0.17578-0.26562 0.34375-0.53125 0.50391-0.79687 0.15625-0.26172 0.30859-0.52734 0.44922-0.78906 0.14062-0.26562 0.27734-0.52344 0.40234-0.78516 0.12109-0.26172 0.23828-0.51953 0.34375-0.78125 0.10938-0.25781 0.20703-0.51953 0.29688-0.77344 0.089844-0.25781 0.16797-0.51172 0.24219-0.76562 0.070313-0.25391 0.13281-0.50781 0.1875-0.75781 0.050782-0.25391 0.09375-0.5 0.12891-0.75 0.035156-0.24609 0.0625-0.49219 0.082031-0.73438 0.015625-0.24609 0.019531-0.48828 0.019531-0.72656-0.003906-0.24219-0.011719-0.47656-0.03125-0.71484-0.023437-0.23437-0.054687-0.46875-0.09375-0.69922-0.039062-0.23047-0.089843-0.46094-0.15234-0.6875-0.058594-0.22656-0.12891-0.44922-0.21094-0.66797-0.078125-0.22266-0.16406-0.44141-0.26562-0.65625-0.097656-0.21484-0.21094-0.42969-0.32812-0.63672-0.10547-0.17969-0.21094-0.35156-0.32812-0.51953-0.11328-0.16406-0.23828-0.32422-0.36719-0.48047-0.12891-0.15234-0.26172-0.30078-0.40234-0.44141-0.14453-0.14062-0.29297-0.27734-0.44922-0.40625-0.15234-0.12891-0.3125-0.25-0.48047-0.36328-0.16406-0.11719-0.33594-0.23047-0.51562-0.33203-0.17969-0.10156-0.36328-0.19922-0.55469-0.28906s-0.38672-0.17188-0.58984-0.25c-0.19922-0.078125-0.41016-0.15234-0.62109-0.21484-0.21484-0.066406-0.43359-0.12891-0.66016-0.17969-0.22266-0.054688-0.45312-0.097656-0.69141-0.13672-0.23438-0.039063-0.47266-0.074219-0.71875-0.097656-0.24609-0.027344-0.5-0.046875-0.75781-0.0625-0.25391-0.011719-0.51562-0.023438-0.78125-0.023438z" fill="url(#t)"/>
<path d="m123.73 56.312c-5.6133-0.015625-12.953 2.2344-21.461 7.1445-16.016 9.2422-24.152 22.836-19.445 30.988 4.7109 8.1523 16.996 5.0898 33.012-4.1523 16.016-9.2461 23-20.73 18.324-28.906-1.875-3.2773-5.4805-5.0586-10.43-5.0742zm-1.4922 3.6172c0.26562 0 0.52734 0.007812 0.78125 0.023437 0.25781 0.011719 0.51172 0.03125 0.75781 0.058594 0.24609 0.027343 0.48438 0.0625 0.71875 0.10156 0.23828 0.039063 0.46875 0.082031 0.69141 0.13281 0.22656 0.054687 0.44531 0.11719 0.66016 0.17969 0.21094 0.066407 0.42188 0.13672 0.62109 0.21484 0.20312 0.078125 0.39844 0.16016 0.58984 0.25s0.375 0.1875 0.55469 0.29297c0.17578 0.10156 0.35156 0.21094 0.51562 0.32812 0.16797 0.11719 0.32812 0.23828 0.48047 0.36719 0.15625 0.12891 0.30469 0.26562 0.44922 0.40625 0.14062 0.14062 0.27344 0.28516 0.40234 0.44141 0.12891 0.15234 0.25 0.3125 0.36719 0.48047s0.22266 0.33984 0.32812 0.51562c0.11719 0.21094 0.23047 0.42188 0.32812 0.63672 0.10156 0.21484 0.1875 0.4375 0.26562 0.65625 0.082031 0.22266 0.15234 0.44531 0.21094 0.66797 0.0625 0.22656 0.11328 0.45703 0.15234 0.69141 0.039063 0.23047 0.070313 0.46094 0.09375 0.69922 0.019531 0.23438 0.027344 0.47266 0.03125 0.71094 0 0.24219-0.003906 0.48438-0.019531 0.72656-0.019531 0.24609-0.046875 0.48828-0.082031 0.73828-0.035157 0.24609-0.078125 0.49609-0.12891 0.74609-0.054687 0.25391-0.11719 0.50781-0.1875 0.76172-0.074218 0.25391-0.15234 0.50781-0.24219 0.76172-0.089844 0.25781-0.1875 0.51953-0.29688 0.77734-0.10547 0.25781-0.22266 0.51953-0.34375 0.78125-0.125 0.25781-0.26172 0.51953-0.40234 0.78125s-0.29297 0.52734-0.44922 0.79297c-0.16016 0.26172-0.32813 0.53125-0.50391 0.79297-0.17578 0.26563-0.35547 0.53125-0.54688 0.79688-0.19141 0.26562-0.39062 0.53125-0.59766 0.79687-0.41406 0.53125-0.86719 1.0664-1.3438 1.5977-0.48047 0.53125-0.98828 1.0625-1.5273 1.5938-0.54297 0.52734-1.1133 1.0508-1.7109 1.5742-0.60156 0.52344-1.2305 1.043-1.8867 1.5586-0.66016 0.51562-1.3438 1.0234-2.0586 1.5273s-1.457 1-2.2227 1.4883c-0.76953 0.48828-1.5664 0.96875-2.3828 1.4453-0.82031 0.47266-1.6289 0.92969-2.4297 1.3672-0.79688 0.4375-1.582 0.86328-2.3594 1.2656-0.77344 0.39844-1.5391 0.77734-2.2852 1.1406-0.75 0.35938-1.4883 0.70312-2.2109 1.0234-0.72266 0.31641-1.4258 0.61328-2.1211 0.88672-0.69141 0.27344-1.3672 0.52344-2.0273 0.74609-0.66016 0.22656-1.3086 0.42188-1.9375 0.59375s-1.2383 0.32031-1.832 0.4375c-0.29687 0.058594-0.58594 0.11328-0.875 0.16016-0.28516 0.042969-0.57031 0.078126-0.84766 0.10938s-0.55078 0.054687-0.82031 0.074218c-0.26562 0.015625-0.53125 0.023438-0.78906 0.023438-0.25781 0-0.50781-0.007813-0.75781-0.019532-0.24609-0.015624-0.49219-0.035156-0.73047-0.066406s-0.46875-0.070312-0.69922-0.11719c-0.22656-0.046875-0.44531-0.10156-0.66406-0.16797-0.21484-0.0625-0.42578-0.13281-0.63281-0.21484-0.20312-0.078125-0.40234-0.16797-0.59375-0.26562-0.19531-0.097656-0.38281-0.20312-0.56641-0.31641-0.18359-0.11719-0.35938-0.24219-0.53125-0.375-0.16797-0.13281-0.33203-0.27344-0.49219-0.42578-0.15625-0.15234-0.3125-0.31641-0.45703-0.48438-0.14453-0.17188-0.28516-0.34766-0.41797-0.53906-0.13281-0.1875-0.26172-0.38672-0.38281-0.59375-0.12109-0.21094-0.22656-0.42578-0.32422-0.64062-0.097656-0.21875-0.1875-0.44141-0.26172-0.67188-0.078124-0.22656-0.14453-0.45703-0.19922-0.69141-0.058594-0.23438-0.10156-0.47266-0.13672-0.71484-0.035156-0.24219-0.058594-0.48828-0.070313-0.73438-0.015624-0.25-0.019531-0.50391-0.011718-0.76172 0.003906-0.25391 0.019531-0.51562 0.046875-0.77734 0.027343-0.26562 0.0625-0.52734 0.10547-0.79297 0.046874-0.26953 0.10156-0.53906 0.16797-0.8125s0.14062-0.54688 0.22266-0.82422c0.085938-0.27734 0.17578-0.55469 0.27734-0.83594 0.10547-0.27734 0.21484-0.5625 0.33594-0.84375 0.12109-0.28516 0.25-0.57422 0.39062-0.85938 0.13672-0.28906 0.28516-0.57422 0.44141-0.86328 0.15625-0.28906 0.32031-0.57813 0.49219-0.86719 0.17188-0.29297 0.35547-0.58594 0.54688-0.875 0.1875-0.29297 0.38672-0.58594 0.58984-0.875 0.20703-0.29297 0.42188-0.58984 0.64062-0.88281 0.44531-0.58203 0.92578-1.168 1.4297-1.75 0.50781-0.58203 1.043-1.1641 1.6094-1.7383 0.5625-0.57422 1.1602-1.1406 1.7812-1.707 0.62109-0.5625 1.2695-1.1172 1.9453-1.6641 0.67578-0.54687 1.3789-1.0859 2.1055-1.6133 0.72656-0.52344 1.4766-1.0391 2.25-1.543 0.77734-0.5 1.5781-0.98828 2.3984-1.4648 0.82031-0.47266 1.625-0.91797 2.4219-1.3398 0.79688-0.41797 1.5781-0.80859 2.3477-1.1758 0.76953-0.36719 1.5273-0.70703 2.2695-1.0195 0.73828-0.3125 1.4648-0.60156 2.1797-0.86328 0.71094-0.25781 1.4062-0.49219 2.0859-0.69922 0.68359-0.20703 1.3438-0.38672 1.9922-0.54297 0.64453-0.15234 1.2734-0.28125 1.8867-0.38281 0.60938-0.10547 1.1992-0.17969 1.7734-0.23047 0.57422-0.050781 1.1289-0.078124 1.6641-0.078124z" fill="#d8c7b7"/>
<path d="m134.16 61.387c-0.14062-0.39062-0.27734-0.79297-0.41797-1.1875-0.13672-0.39453-0.27734-0.78906-0.4375-1.1719-0.15625-0.38672-0.33203-0.76562-0.52734-1.1328-0.097656-0.18359-0.20312-0.36328-0.31641-0.53906-0.10938-0.17578-0.23047-0.34766-0.35938-0.51953-0.11719-0.20313-0.27344-0.40625-0.46484-0.60547-0.19531-0.20312-0.42188-0.39844-0.6875-0.58984s-0.56641-0.37891-0.90234-0.55859c-0.33203-0.17578-0.70312-0.34375-1.1016-0.50391-0.39844-0.16016-0.82812-0.30859-1.2891-0.44531-0.46094-0.13672-0.95312-0.25781-1.4727-0.36719-0.51953-0.10547-1.0664-0.19531-1.6406-0.26953-0.57031-0.074219-1.1719-0.12891-1.7969-0.16406-0.625-0.035156-1.2695-0.046875-1.9414-0.039062-0.67188 0.011719-1.3672 0.042969-2.082 0.10547-0.71484 0.058593-1.4453 0.14453-2.1992 0.25781-0.75391 0.11328-1.5273 0.25-2.3164 0.42578-0.78906 0.17188-1.5977 0.375-2.418 0.61328-0.82422 0.23438-1.6562 0.50781-2.5078 0.8125-0.85156 0.30859-1.7148 0.65234-2.5898 1.0352-0.4375 0.19141-0.87891 0.39062-1.3203 0.60156-0.44531 0.21094-0.89062 0.42969-1.3359 0.66016l-4.8438 2.5742c-1 0.57812-1.9688 1.1719-2.9102 1.7812-0.9375 0.60938-1.8438 1.2344-2.7148 1.8711-0.875 0.63281-1.7148 1.2812-2.5195 1.9414-0.80469 0.65625-1.5781 1.3242-2.3125 2-0.73438 0.67578-1.4336 1.3594-2.0977 2.0469-0.66016 0.6875-1.2891 1.3828-1.875 2.0781-0.58984 0.69531-1.1367 1.3906-1.6484 2.0859-0.25781 0.35156-0.50391 0.70312-0.74219 1.0508-0.23438 0.35156-0.46094 0.69922-0.67578 1.0469-0.21484 0.34766-0.42187 0.69531-0.61719 1.043-0.19531 0.34766-0.37891 0.69141-0.55078 1.0391-0.17578 0.34375-0.33984 0.6875-0.49609 1.0312-0.15234 0.33984-0.29297 0.67969-0.42578 1.0195-0.12891 0.33984-0.25391 0.67578-0.36328 1.0117-0.11328 0.33594-0.21094 0.67188-0.30078 1.0039-0.085937 0.32812-0.16406 0.66016-0.23047 0.98437-0.066407 0.32813-0.12109 0.64844-0.16797 0.97266-0.042969 0.32031-0.074219 0.63281-0.09375 0.94922-0.019531 0.3125-0.035157 0.625-0.03125 0.93359 0 0.30859 0.019531 0.61328 0.042969 0.91016 0.027343 0.30078 0.0625 0.60156 0.11328 0.89453 0.046875 0.28906 0.10938 0.57812 0.17969 0.86328 0.074219 0.28125 0.16016 0.5625 0.25781 0.83594 0.097656 0.27734 0.20703 0.54297 0.32812 0.80859s0.25781 0.53125 0.40625 0.78516c0.10547 0.17969 0.23047 0.37109 0.375 0.57031 0.14453 0.20312 0.30469 0.41016 0.47656 0.62109 0.34766 0.42578 0.74609 0.87109 1.1562 1.3086 0.41406 0.4375 0.84375 0.86719 1.2461 1.2656 0.40625 0.39844 0.78906 0.76563 1.1172 1.0742l0.050781 0.039063c-0.125-0.12891-0.25391-0.25781-0.37109-0.40234-0.17578-0.21094-0.34766-0.43359-0.50781-0.66797-0.16406-0.23047-0.31641-0.47656-0.46484-0.73047-0.14453-0.25391-0.28125-0.51562-0.40234-0.78125-0.125-0.26562-0.23047-0.53516-0.32812-0.80859-0.097656-0.27734-0.18359-0.55469-0.25781-0.83594-0.074219-0.28516-0.13281-0.57422-0.18359-0.86719-0.050782-0.29297-0.085938-0.58594-0.11328-0.88672-0.023437-0.30078-0.035156-0.60938-0.039062-0.91797 0-0.30469 0.007812-0.61719 0.027344-0.93359 0.023437-0.3125 0.054687-0.62891 0.097656-0.94922 0.042969-0.32031 0.10156-0.64453 0.16797-0.97266 0.066406-0.32422 0.14062-0.65625 0.23047-0.98438 0.085937-0.33203 0.1875-0.66406 0.29687-1 0.10938-0.33594 0.23438-0.67578 0.36719-1.0156 0.13281-0.33594 0.27734-0.67969 0.42969-1.0195 0.15234-0.34375 0.3125-0.6875 0.48828-1.0312s0.36328-0.69141 0.55859-1.0391c0.19531-0.34766 0.39453-0.69531 0.61328-1.043 0.21484-0.34766 0.4375-0.69531 0.67578-1.0469 0.23438-0.34766 0.48438-0.69531 0.73828-1.043 0.25781-0.35156 0.51953-0.70312 0.79297-1.0508s0.5625-0.69531 0.85547-1.043c0.29297-0.34766 0.59766-0.69531 0.91016-1.043 0.3125-0.34375 0.63672-0.69141 0.96875-1.0352s0.66797-0.6875 1.0156-1.0273c0.35156-0.34375 0.71094-0.68359 1.0781-1.0195 0.37109-0.33594 0.74609-0.67188 1.1328-1.0078 0.38281-0.33203 0.77734-0.66406 1.1797-0.99219 0.40234-0.33203 0.81641-0.65625 1.2344-0.98047 0.42188-0.32422 0.84766-0.64453 1.2852-0.96094 0.4375-0.32031 0.87891-0.63672 1.332-0.94922 0.45313-0.30859 0.91797-0.61719 1.3867-0.92188 0.46875-0.30469 0.94141-0.60547 1.4258-0.90234 0.48828-0.29688 0.98047-0.58984 1.4805-0.87891 0.53125-0.30859 1.0586-0.60547 1.582-0.89062 0.51953-0.28516 1.043-0.5625 1.5547-0.82812s1.0195-0.52344 1.5234-0.76953c0.50391-0.24219 1-0.47656 1.4922-0.70312 0.49219-0.22266 0.98047-0.4375 1.4648-0.64453 0.48438-0.20312 0.96094-0.40234 1.4336-0.58594 0.46875-0.1875 0.9375-0.36328 1.3984-0.53125 0.46094-0.16406 0.91797-0.32422 1.3711-0.46875 0.44922-0.14844 0.89453-0.28125 1.332-0.41016s0.87109-0.24609 1.2969-0.35547c0.42578-0.10547 0.84766-0.20703 1.2617-0.29688 0.41406-0.089844 0.82031-0.17188 1.2227-0.24219 0.40625-0.070313 0.80078-0.13281 1.1914-0.1875 0.39062-0.054688 0.77344-0.097657 1.1484-0.13281 0.37891-0.03125 0.75-0.058594 1.1172-0.074218 0.36328-0.015626 0.71875-0.023438 1.0703-0.023438 0.30859 0 0.60938 0.007812 0.91016 0.023438 0.29688 0.015624 0.59375 0.035156 0.88281 0.0625 0.28906 0.03125 0.57031 0.0625 0.84766 0.10547 0.27734 0.042969 0.54688 0.089844 0.8125 0.14844 0.26562 0.054687 0.52344 0.11719 0.77734 0.18359 0.25781 0.070312 0.50781 0.14453 0.75 0.22266 0.24219 0.082031 0.48047 0.17188 0.71094 0.26562s0.45703 0.19531 0.67578 0.30078c0.22266 0.10547 0.43359 0.22266 0.64062 0.34375 0.20703 0.11719 0.40625 0.24219 0.60156 0.375 0.19531 0.13281 0.38672 0.26953 0.57031 0.41406 0.18359 0.14453 0.35547 0.29688 0.52344 0.45313 0.17188 0.16016 0.33594 0.32031 0.49609 0.49219 0.15625 0.16797 0.30469 0.34766 0.44922 0.52734 0.14453 0.17969 0.28125 0.36719 0.41406 0.5625 0.12891 0.19141 0.25 0.39062 0.36719 0.59375z" fill="url(#s)"/>
<path d="m103.61 49.176c-0.36328 0-0.72656 0-1.082 0.007813-0.35938 0.007812-0.71484 0.015625-1.0664 0.03125-0.35547 0.015625-0.70313 0.035156-1.0508 0.0625-0.34766 0.023437-0.69141 0.050781-1.0312 0.085937-0.33984 0.035157-0.67969 0.070313-1.0156 0.10938-0.33594 0.042969-0.66797 0.085938-1 0.13672-0.32812 0.050781-0.65625 0.10547-0.97656 0.16406-0.32422 0.058593-0.64453 0.12109-0.96094 0.1875-0.3125 0.066406-0.625 0.14062-0.93359 0.21484-0.30859 0.074219-0.61328 0.15234-0.91406 0.23438-0.30078 0.082032-0.59766 0.17188-0.89062 0.26172-0.29688 0.089844-0.58203 0.1875-0.86719 0.28516-0.28516 0.10156-0.57031 0.20312-0.84375 0.3125-0.27734 0.10547-0.55078 0.21484-0.81641 0.32812-0.26953 0.11328-0.53516 0.23438-0.79297 0.35547-0.25781 0.12109-0.51172 0.24609-0.76563 0.37891-0.25 0.12891-0.49219 0.26172-0.73437 0.39844-0.24219 0.14062-0.47656 0.28125-0.70703 0.42578-0.23047 0.14844-0.45703 0.29688-0.67578 0.44922-0.22266 0.15234-0.44141 0.30859-0.64844 0.46875-0.21094 0.16016-0.41406 0.32031-0.61328 0.48828-0.19922 0.16797-0.39453 0.33594-0.58203 0.50781-0.1875 0.17578-0.37109 0.35156-0.55078 0.53516-0.17578 0.17969-0.35156 0.36328-0.51562 0.55078-0.16406 0.1875-0.32422 0.37891-0.47656 0.57422-0.15625 0.19531-0.30078 0.39062-0.44141 0.59375-0.14453 0.19922-0.28125 0.40625-0.41016 0.61719-0.12891 0.20703-0.25 0.41797-0.36719 0.62891-0.11719 0.21484-0.22656 0.43359-0.32812 0.65234-0.10547 0.22266-0.20312 0.44531-0.29297 0.67578-0.089843 0.22656-0.17187 0.45703-0.25 0.69141-0.078124 0.23438-0.14844 0.47266-0.21094 0.71094s-0.11719 0.48047-0.16797 0.72656c-0.046875 0.24609-0.089844 0.49609-0.12109 0.75-0.035156 0.25-0.0625 0.50781-0.082031 0.76562-0.019531 0.26172-0.027343 0.51953-0.03125 0.78516-0.003906 0.26562-0.003906 0.53125 0.007813 0.80078 0.011718 0.26953 0.035156 0.54297 0.058594 0.81641 0.027343 0.27734 0.0625 0.55469 0.10547 0.83594 0.042969 0.28125 0.09375 0.56641 0.15234 0.85156 0.058594 0.28906 0.125 0.57422 0.20312 0.86719 0.074219 0.29297 0.16016 0.58984 0.25391 0.88672 0.089844 0.30078 0.19141 0.59766 0.30078 0.90234 0.10938 0.29297 0.22266 0.59766 0.34766 0.89844 0-0.32031 0.011719-0.64453 0.039062-0.96484 0.027344-0.32031 0.0625-0.64062 0.11328-0.96094 0.046876-0.32031 0.11328-0.64062 0.18359-0.96094 0.074219-0.32031 0.16016-0.64062 0.25781-0.95703 0.09375-0.32031 0.20312-0.63281 0.32422-0.94922 0.12109-0.31641 0.25-0.63672 0.39453-0.94922 0.14062-0.3125 0.29688-0.625 0.46094-0.93359 0.16406-0.3125 0.34375-0.62109 0.53125-0.92578 0.18359-0.30859 0.38281-0.61328 0.58984-0.91406 0.21094-0.30078 0.42969-0.59766 0.65625-0.89453 0.23047-0.29297 0.47266-0.58984 0.72266-0.87891 0.25-0.28906 0.50781-0.57031 0.77734-0.85547 0.27344-0.28125 0.55078-0.55859 0.83984-0.83594 0.29297-0.27344 0.58984-0.54688 0.90234-0.8125 0.30859-0.26953 0.62891-0.52734 0.95703-0.78516s0.66406-0.51172 1.0117-0.76172c0.34766-0.24609 0.70312-0.48438 1.0703-0.72266 0.36328-0.23828 0.73828-0.46875 1.1211-0.69531 0.38281-0.22656 0.77734-0.44531 1.1797-0.66016 0.39844-0.21484 0.80469-0.42188 1.2227-0.625 0.41797-0.20312 0.84375-0.39453 1.2773-0.58594 0.43359-0.1875 0.87891-0.37109 1.3281-0.54297 0.45312-0.17578 0.91016-0.34375 1.3789-0.50391 0.46484-0.15625 0.9375-0.3125 1.418-0.45703 0.48438-0.14453 0.97266-0.28125 1.4688-0.41016 0.5-0.125 1-0.24609 1.5117-0.35547 0.51172-0.11328 1.0312-0.21875 1.5586-0.3125 0.52344-0.09375 1.0547-0.17578 1.5938-0.25391 0.53906-0.074218 1.0859-0.14062 1.6406-0.19922 0.55078-0.054688 1.1133-0.10547 1.6797-0.14063 0.5625-0.039062 1.1367-0.066406 1.7148-0.085937 0.57422-0.015625 1.1562-0.023437 1.7461-0.019531-0.26953-0.054688-0.53516-0.11328-0.80469-0.16406-0.39062-0.078125-0.78125-0.14844-1.168-0.21484-0.39063-0.066407-0.77734-0.12891-1.1641-0.1875-0.38672-0.058594-0.76953-0.11328-1.1523-0.16016-0.38281-0.046875-0.76172-0.089843-1.1445-0.12891-0.37891-0.035156-0.75781-0.074219-1.1328-0.10156-0.375-0.03125-0.75-0.054687-1.1211-0.074218-0.37109-0.023438-0.73828-0.039063-1.1055-0.050782-0.36719-0.007812-0.73438-0.015624-1.0938-0.015624z" fill="url(#n)"/>
<path d="m53.43 12.617-7.3945 20.039c0.22266 0.3125 0.42969 0.63281 0.62891 0.95703 0.19531 0.32812 0.37891 0.66016 0.55469 1 0.17578 0.33594 0.33984 0.67969 0.5 1.0273 0.16016 0.34375 0.31641 0.69531 0.46875 1.0469 0.30078 0.70312 0.59375 1.4141 0.89453 2.1172 0.14844 0.35156 0.30078 0.70312 0.46094 1.0508 0.16016 0.34766 0.32812 0.6875 0.5 1.0273 0.17578 0.33594 0.35938 0.67188 0.55469 0.99609 0.19531 0.32812 0.40234 0.65234 0.625 0.96484 0.10938 0.15625 0.22656 0.30859 0.34375 0.46094 0.12109 0.15234 0.24609 0.30078 0.37109 0.44922 0.12891 0.14844 0.25781 0.29297 0.39453 0.43359s0.27734 0.28125 0.42578 0.41797c0.14844 0.13672 0.30078 0.26562 0.45703 0.39844 0.16016 0.12891 0.32031 0.25781 0.48828 0.38281 0.17188 0.12109 0.34766 0.24219 0.53125 0.35938 0.17969 0.11719 0.36719 0.23438 0.5625 0.34375 0.19141 0.10938 0.39453 0.21484 0.60156 0.31641 0.21094 0.10547 0.42578 0.20312 0.64844 0.29688s0.45703 0.18359 0.69531 0.26953c0.23828 0.085938 0.48437 0.16406 0.73828 0.24219 0.19922 0.57422 0.39844 1.1406 0.59766 1.6914s0.39844 1.0859 0.59375 1.5859c0.19531 0.50391 0.38672 0.97266 0.57422 1.4023 0.097656 0.21094 0.1875 0.41406 0.28125 0.60156 0.089844 0.19141 0.18359 0.37109 0.27344 0.53516 0.089844 0.16406 0.18359 0.30859 0.26953 0.44141 0.089844 0.13281 0.17578 0.25 0.26172 0.35156 0.085938 0.097656 0.16797 0.17969 0.25391 0.24219 0.082031 0.0625 0.16406 0.10547 0.24609 0.125 0.039063 0.011719 0.078125 0.015625 0.11719 0.015625 0.039062 0.003907 0.078125 0 0.11719-0.007812 0.039063-0.011719 0.078125-0.03125 0.11328-0.054688 0.039062-0.019531 0.078124-0.046875 0.11328-0.082031 0.074219-0.066406 0.14062-0.16016 0.21094-0.27734 0.070313-0.11719 0.13672-0.26172 0.20312-0.43359-0.078125-0.16016-0.14844-0.32031-0.21484-0.48437-0.066407-0.16797-0.12891-0.33984-0.18359-0.51563-0.054688-0.17578-0.10156-0.35547-0.14453-0.53516-0.042968-0.18359-0.074218-0.36719-0.10547-0.55859-0.03125-0.1875-0.058594-0.38281-0.078125-0.57812-0.015625-0.19531-0.03125-0.39063-0.039063-0.58984-0.007812-0.20312-0.007812-0.40625-0.003906-0.61328 0.003906-0.20703 0.015625-0.41016 0.027344-0.62109 0.015625-0.21094 0.035156-0.42188 0.0625-0.63672 0.023437-0.21484 0.058594-0.42578 0.09375-0.64453 0.035156-0.21484 0.078125-0.4375 0.12891-0.65625 0.046875-0.21875 0.097656-0.4375 0.15625-0.66016 0.058594-0.21875 0.12109-0.44141 0.1875-0.66406 0.070312-0.22266 0.14453-0.44141 0.22266-0.66406 0.082032-0.22266 0.16797-0.44531 0.25781-0.66797 0.085937-0.22266 0.17969-0.44531 0.28125-0.66797 0.097656-0.22266 0.20312-0.44531 0.3125-0.66406 0.10938-0.22266 0.22266-0.4375 0.34375-0.65625 0.11719-0.21875 0.24219-0.4375 0.37109-0.65234 0.12891-0.21875 0.26172-0.43359 0.39844-0.64453 0.14062-0.21484 0.28516-0.42578 0.43359-0.63281 0.14453-0.21094 0.29688-0.41797 0.45703-0.62109 0.15625-0.20703 0.31641-0.41016 0.48438-0.60938s0.33594-0.39844 0.51172-0.59375c0.17578-0.19141 0.35938-0.38281 0.54297-0.57031 0.18359-0.1875 0.375-0.375 0.56641-0.55469 0.19531-0.17969 0.39062-0.35547 0.58984-0.52734 0.20312-0.17578 0.41016-0.34375 0.62109-0.51172 0.21094-0.16406 0.42578-0.32422 0.64453-0.48047s0.44141-0.30859 0.66797-0.45703c0.22656-0.14844 0.45703-0.28906 0.69531-0.42578 0.23438-0.13672 0.47266-0.26953 0.71484-0.39844 0.13672-0.16406 0.26172-0.31641 0.36719-0.45703 0.10156-0.14062 0.1875-0.26953 0.26172-0.39062 0.070312-0.11719 0.125-0.22656 0.16797-0.32812 0.039063-0.10156 0.0625-0.19531 0.070313-0.27734 0.007813-0.085937 0.003906-0.15625-0.019531-0.22266-0.023438-0.070313-0.066406-0.13281-0.12109-0.18359-0.054688-0.054687-0.125-0.10156-0.21094-0.14453-0.085937-0.042969-0.1875-0.078125-0.30078-0.10938-0.089843-0.035157-0.18359-0.066407-0.27344-0.09375-0.09375-0.027344-0.1875-0.050781-0.28516-0.066407-0.19141-0.035156-0.38281-0.058593-0.58203-0.0625-0.20312-0.011718-0.40625 0-0.61328 0.015626-0.21094 0.015624-0.42188 0.039062-0.63281 0.070312-0.21484 0.03125-0.43359 0.074219-0.64844 0.12109-0.21875 0.042968-0.4375 0.089844-0.65625 0.14062-0.44141 0.10156-0.88281 0.21094-1.3203 0.30469-0.19922 0.023438-0.39844 0.042969-0.58984 0.050782-0.19531 0.007812-0.38672 0.007812-0.57031-0.007813-0.18359-0.007813-0.36328-0.03125-0.53125-0.066406-0.17188-0.035157-0.33594-0.082031-0.49609-0.14453-0.15625-0.058594-0.30469-0.13672-0.44922-0.22656-0.14062-0.089844-0.27734-0.19141-0.40234-0.3125-0.0625-0.0625-0.12109-0.12891-0.17969-0.19922-0.054687-0.070312-0.11719-0.14453-0.16797-0.22266-0.10938-0.15625-0.20703-0.33203-0.29297-0.52734-0.28516-0.43359-0.55469-0.85938-0.81641-1.2812-0.25781-0.42578-0.51172-0.83984-0.75-1.2539s-0.47266-0.82422-0.69141-1.2305c-0.22266-0.40234-0.42969-0.80469-0.63281-1.1992-0.20312-0.39844-0.40234-0.79297-0.58984-1.1836s-0.37109-0.77734-0.55078-1.1602c-0.35156-0.76953-0.67969-1.5312-0.99609-2.2891-0.32031-0.75391-0.625-1.5039-0.92578-2.25-0.29688-0.74609-0.59375-1.4922-0.89844-2.2383-0.30078-0.75-0.60937-1.4961-0.92969-2.2539-0.32422-0.75391-0.66406-1.5195-1.0234-2.293z" fill="url(#m)"/>
<path d="m71.711 34.953c-0.09375 0.003906-0.19141 0.019531-0.30078 0.054687-0.10938 0.035157-0.23438 0.085938-0.375 0.16016-0.13672 0.074219-0.29297 0.17188-0.47266 0.29297-0.17969 0.12109-0.38281 0.26562-0.61328 0.4375-0.23047 0.17187-0.48828 0.37109-0.77734 0.60547-0.32422 0.25781-0.63672 0.51562-0.94141 0.77734-0.30078 0.26172-0.58984 0.53125-0.87109 0.79688-0.27734 0.26562-0.54688 0.53516-0.80859 0.80859-0.25781 0.26953-0.50391 0.54688-0.74219 0.82031-0.23828 0.27734-0.46094 0.55469-0.67578 0.83594-0.21484 0.28125-0.42187 0.56641-0.61719 0.85547-0.19531 0.28906-0.375 0.58203-0.55078 0.875-0.17188 0.29687-0.33594 0.58984-0.48828 0.89062-0.15234 0.30078-0.29297 0.60938-0.42578 0.91797-0.13281 0.30469-0.25391 0.61719-0.36719 0.93359-0.10938 0.31641-0.21094 0.63281-0.30078 0.95312-0.089843 0.32422-0.17578 0.65234-0.24609 0.98438-0.070313 0.33203-0.13281 0.66406-0.18359 1-0.050781 0.33984-0.09375 0.68359-0.12891 1.0312-0.03125 0.34766-0.054688 0.70312-0.066407 1.0586-0.011718 0.35547-0.019531 0.71875-0.011718 1.0859 0 0.11328 0.007812 0.21875 0.019531 0.32031 0.011719 0.097656 0.023437 0.19141 0.039063 0.28125 0.019531 0.089843 0.042968 0.17188 0.070312 0.25 0.023438 0.078125 0.050781 0.15234 0.082031 0.21875 0.03125 0.070312 0.070313 0.13281 0.10547 0.19141 0.039062 0.058594 0.078125 0.11719 0.12109 0.16797 0.085937 0.10156 0.17969 0.1875 0.28125 0.26562 0.10547 0.078125 0.21484 0.14453 0.32812 0.20312s0.23438 0.11328 0.35547 0.16406c0.23828 0.097656 0.48437 0.18359 0.71875 0.28906 0.082031 0.035156 0.16797 0.070312 0.25 0.09375 0.085937 0.027343 0.17187 0.046875 0.25781 0.058593 0.089844 0.007813 0.17578 0.011719 0.26953 0.003907 0.089844-0.007813 0.18359-0.03125 0.28125-0.0625 0.097657-0.035157 0.19531-0.082031 0.29688-0.14453 0.10156-0.0625 0.21094-0.14453 0.32031-0.24219s0.21875-0.21484 0.33594-0.35156c0.11719-0.13672 0.24219-0.29297 0.36719-0.47266 0.24609 0.035157 0.47266 0.078125 0.69141 0.12891 0.21875 0.046874 0.42969 0.10156 0.62109 0.16406 0.19531 0.058594 0.375 0.12891 0.54688 0.19922 0.16797 0.074219 0.32812 0.15625 0.47656 0.24219 0.14844 0.082032 0.28906 0.17578 0.41797 0.26953s0.25 0.19141 0.36328 0.29297c0.10938 0.10547 0.21484 0.21484 0.3125 0.32812 0.097657 0.10938 0.1875 0.22656 0.26953 0.34375 0.085938 0.12109 0.15625 0.24219 0.22656 0.36719 0.074219 0.125 0.14062 0.25 0.19922 0.38281 0.0625 0.12891 0.12109 0.26172 0.17188 0.39844 0.054687 0.13281 0.10156 0.26953 0.14844 0.40625 0.09375 0.27734 0.17578 0.55859 0.25391 0.83984 0.078126 0.28516 0.15625 0.56641 0.13672 1.0156-0.019531 0.44531-0.074219 0.82812-0.12109 1.2148-0.042969 0.38281-0.078126 0.77344-0.097657 1.1719-0.023437 0.39844-0.03125 0.80469-0.027343 1.2188 0.007812 0.41016 0.023437 0.83203 0.054687 1.2578 0.027344 0.42969 0.074219 0.85938 0.12891 1.2969 0.058594 0.44141 0.125 0.88672 0.20703 1.3438 0.085938 0.45312 0.17969 0.91406 0.29297 1.3828 0.10938 0.46875 0.23438 0.9375 0.37109 1.4219 0.14062 0.48047 0.28906 0.96875 0.45703 1.4609 0.16406 0.49609 0.34766 0.99609 0.54297 1.5039s0.40625 1.0234 0.63281 1.543c0.22656 0.52344 0.46484 1.0508 0.71875 1.5859 0.25781 0.53125 0.53125 1.0742 0.81641 1.6211 0.28906 0.54688 0.58984 1.1016 0.90625 1.6641 0.32031 0.55859 0.65234 1.1289 1.0039 1.7031 0.35156 0.57422 0.71484 1.1523 1.0977 1.7422 0.070313 0.10547 0.12891 0.22266 0.17969 0.34766 0.050781 0.12891 0.097656 0.26562 0.13281 0.41016 0.035156 0.14453 0.0625 0.29688 0.082032 0.45703 0.019531 0.16016 0.035156 0.32812 0.042968 0.50391 0.019532 0.34375 0.019532 0.70703 0.007813 1.0898-0.011719 0.37891-0.03125 0.77344-0.054688 1.168v0.03125h0.035157c0.019531-0.16406 0.03125-0.32812 0.050781-0.49609 0.046875-0.32031 0.10156-0.64453 0.16797-0.97266 0.066406-0.32422 0.14453-0.65234 0.23047-0.98437 0.089844-0.33203 0.1875-0.66797 0.30078-1.0039 0.10937-0.33594 0.23437-0.67188 0.36328-1.0078 0.13281-0.33984 0.27344-0.67969 0.42578-1.0234 0.15625-0.34375 0.32031-0.6875 0.49609-1.0312 0.17188-0.34375 0.35547-0.69141 0.55078-1.0391 0.19531-0.34375 0.40234-0.69141 0.61719-1.0391 0.21484-0.35156 0.44141-0.69922 0.67578-1.0469 0.23828-0.35156 0.48438-0.70312 0.74219-1.0508 0.03125-0.046875 0.070313-0.09375 0.10156-0.14062-0.17969-0.32422-0.35156-0.64453-0.51562-0.96094-0.16406-0.32031-0.31641-0.63281-0.46094-0.94922-0.14453-0.3125-0.28125-0.62109-0.40625-0.92969-0.12891-0.30859-0.24609-0.61719-0.35547-0.91797-0.10937-0.30469-0.21094-0.60156-0.30078-0.89844-0.09375-0.29688-0.17969-0.59766-0.25391-0.88672-0.078125-0.29297-0.14453-0.58203-0.20312-0.86719-0.058594-0.28906-0.10938-0.57031-0.15234-0.85156-0.042968-0.28125-0.078125-0.5625-0.10547-0.83594-0.023438-0.27734-0.046876-0.55078-0.058594-0.82031-0.011719-0.26953-0.011719-0.53516-0.007813-0.80078 0.003907-0.26172 0.011719-0.52344 0.03125-0.78125s0.046875-0.51562 0.082031-0.76953c0.03125-0.25 0.074219-0.5 0.12109-0.74609 0.050782-0.24609 0.10547-0.48828 0.16797-0.73047 0.0625-0.23828 0.13281-0.47656 0.21094-0.71094 0.078126-0.23438 0.16016-0.46484 0.25-0.69141 0.089844-0.22656 0.1875-0.45313 0.29297-0.67188 0.10156-0.22266 0.21094-0.4375 0.32812-0.65234 0.11719-0.21484 0.23828-0.42578 0.36719-0.63281 0.12891-0.20703 0.26562-0.41406 0.41016-0.61719 0.14062-0.19922 0.28516-0.39844 0.44141-0.59375 0.15234-0.19531 0.3125-0.38281 0.47656-0.57031 0.16406-0.1875 0.33984-0.375 0.51562-0.55469 0.17969-0.17969 0.36328-0.35938 0.55078-0.53125 0.1875-0.17578 0.38281-0.34375 0.58203-0.51172 0.19922-0.16406 0.40234-0.32812 0.61328-0.48828 0.20703-0.16016 0.42578-0.31641 0.64844-0.46875 0.44141-0.30469 0.90234-0.59766 1.3828-0.87109 0.48047-0.27734 0.98047-0.53516 1.5-0.78125 0.51953-0.24219 1.0547-0.46875 1.6094-0.68359 0.55078-0.21484 1.1211-0.41406 1.7109-0.59766 0.58594-0.17969 1.1875-0.34766 1.8047-0.49609 0.61719-0.14844 1.25-0.28516 1.8945-0.40234 0.64453-0.11719 1.3047-0.21484 1.9766-0.29688 0.67188-0.082031 1.3516-0.15234 2.0469-0.19922 0.69141-0.050782 1.3984-0.078125 2.1172-0.09375 0.71484-0.011719 1.4414-0.007813 2.1758 0.011718 0.73438 0.023438 1.4766 0.066407 2.2266 0.125 0.75 0.058594 1.5117 0.13281 2.2773 0.23047 0.76562 0.09375 1.5391 0.21094 2.3164 0.34766 0.77344 0.13281 1.5547 0.28516 2.3438 0.45703 0.78516 0.17188 1.5742 0.36328 2.3711 0.57422 0.79297 0.21094 1.5859 0.44531 2.3867 0.69922 0.79688 0.25 1.5977 0.51953 2.3984 0.8125 0.80078 0.29297 1.6016 0.60156 2.4023 0.9375l0.011719 0.007813c0.37891 0.03125 0.75 0.0625 1.1055 0.10938 0.57422 0.074218 1.1211 0.16406 1.6406 0.26953 0.51953 0.10938 1.0117 0.23047 1.4727 0.36719 0.46094 0.13672 0.89062 0.28516 1.2891 0.44531 0.11719 0.046875 0.22656 0.09375 0.33984 0.14453v-0.16016c-0.19531-0.125-0.38672-0.25781-0.58203-0.38281-0.53516-0.33594-1.0703-0.66797-1.6094-0.98828-0.53516-0.32422-1.0742-0.63281-1.6133-0.94141-0.53906-0.30469-1.0781-0.60547-1.6211-0.89453-0.54297-0.28906-1.0859-0.57031-1.6289-0.84375-0.54688-0.27344-1.0898-0.53906-1.6328-0.79688-0.54688-0.25781-1.0898-0.50781-1.6367-0.75-0.54297-0.24219-1.0938-0.47266-1.6367-0.69922-1.0938-0.44922-2.1836-0.87109-3.2734-1.2578-1.0859-0.38672-2.168-0.74219-3.25-1.0664-1.0781-0.32422-2.1562-0.61719-3.2227-0.87891s-2.125-0.49219-3.1758-0.69141c-1.0469-0.19922-2.0859-0.36719-3.1133-0.50391-1.0273-0.13672-2.043-0.24609-3.043-0.32422-0.50391-0.039063-1-0.066407-1.4922-0.089844-0.49609-0.023437-0.98047-0.039063-1.4648-0.042969-0.48437-0.007812-0.96875-0.007812-1.4453 0-0.47656 0.007813-0.94531 0.023438-1.4141 0.046875-0.46484 0.019531-0.92578 0.054688-1.3828 0.089844-0.45703 0.039063-0.91016 0.082031-1.3555 0.13672-0.44922 0.050781-0.89062 0.11328-1.3281 0.18359-0.43359 0.066406-0.85938 0.14453-1.2852 0.22656l-0.34375 0.066406c-0.42969-0.003906-0.85156-0.019531-1.2578-0.039062-0.40625-0.023438-0.80078-0.054688-1.1836-0.089844-0.38281-0.039062-0.75391-0.085938-1.1133-0.13672-0.35938-0.054687-0.70703-0.11719-1.0469-0.18359-0.33594-0.066407-0.66016-0.14453-0.97656-0.22656s-0.625-0.17188-0.92188-0.26953c-0.29297-0.097656-0.58203-0.19922-0.85938-0.3125-0.27734-0.10938-0.54297-0.23047-0.80078-0.35547-0.26172-0.125-0.50781-0.25781-0.75-0.39453-0.23828-0.14062-0.47266-0.28516-0.69531-0.4375s-0.4375-0.3125-0.64453-0.47656c-0.20703-0.16797-0.41016-0.33594-0.60156-0.51562-0.19141-0.17578-0.375-0.36328-0.55469-0.55078-0.17578-0.19141-0.34766-0.38672-0.51172-0.58984-0.16406-0.20312-0.31641-0.40625-0.46875-0.62109-0.15234-0.21484-0.29688-0.43359-0.43359-0.66016-0.21094-0.34375-0.38281-0.64062-0.51953-0.90234-0.13281-0.26172-0.23438-0.48047-0.3125-0.67188-0.078125-0.19141-0.12891-0.34766-0.16406-0.48047-0.035157-0.13672-0.050781-0.24609-0.0625-0.33984-0.011719-0.089844-0.019531-0.16406-0.023438-0.22656-0.007812-0.0625-0.019531-0.11328-0.035156-0.16016-0.019531-0.046875-0.046875-0.089843-0.097656-0.13281-0.046875-0.046875-0.11719-0.09375-0.21484-0.14844-0.097656-0.054687-0.17969-0.10938-0.26562-0.15234-0.085938-0.042969-0.16797-0.074219-0.25-0.097657-0.082031-0.023437-0.16797-0.035156-0.25781-0.03125z" fill="url(#d)"/>
<path d="m703.55 42.312c-0.93359 0.007812-1.832 0.14062-2.6914 0.38281-0.86328 0.24219-1.6914 0.59375-2.4805 1.043s-1.543 0.99219-2.2656 1.6211c-0.71875 0.62891-1.4062 1.3438-2.0625 2.1289-0.65625 0.78516-1.2812 1.6406-1.875 2.5547-1.1875 1.8281-2.2539 3.8906-3.2109 6.082-0.95703 2.1914-1.8047 4.5117-2.5547 6.8594-0.75 2.3438-1.4062 4.7148-1.9727 7.0117-1.1367 4.5898-1.9297 8.8711-2.4844 12.012l-537.8-24.617c0.11719 0.058594 0.23047 0.11719 0.34375 0.18359 0.11328 0.0625 0.22656 0.13281 0.33984 0.20703 0.10938 0.070312 0.21875 0.14844 0.32812 0.22656 0.10938 0.078126 0.21875 0.16016 0.32422 0.24609 0.10156 0.085938 0.20312 0.17578 0.30469 0.26562 0.10156 0.089844 0.20313 0.18359 0.30078 0.28125 0.10156 0.097657 0.19531 0.19922 0.29297 0.30469 0.09375 0.10156 0.1875 0.20703 0.28125 0.31641s0.18359 0.21875 0.26953 0.33594c0.089844 0.11328 0.17969 0.23438 0.26562 0.35156 0.085937 0.12109 0.16797 0.24219 0.25391 0.36719 0.082031 0.125 0.16016 0.25391 0.24219 0.38672 0.078126 0.12891 0.16016 0.26172 0.23828 0.39844 0.078125 0.13281 0.15234 0.27344 0.22656 0.41406 0.074219 0.13672 0.14844 0.27734 0.21875 0.42578 0.070313 0.14453 0.14062 0.28906 0.21094 0.44141 0.13672 0.29688 0.26953 0.60547 0.39844 0.92188 0.12891 0.31641 0.25 0.63672 0.36719 0.96875 0.11719 0.33203 0.22656 0.67188 0.33203 1.0195 0.10938 0.34766 0.21484 0.69922 0.3125 1.0586s0.1875 0.72656 0.27734 1.0977 0.17578 0.75 0.25391 1.1328c0.082031 0.38281 0.16016 0.76953 0.23047 1.1641 0.074219 0.39062 0.14062 0.78906 0.20312 1.1914 0.066406 0.40234 0.125 0.80859 0.18359 1.2188 0.058593 0.40625 0.10937 0.81641 0.16016 1.2305 0.050781 0.41797 0.09375 0.83594 0.13672 1.2539 0.046876 0.42188 0.085938 0.84766 0.125 1.2695 0.039063 0.42188 0.070313 0.84766 0.10156 1.2734 0.035156 0.42578 0.0625 0.85156 0.089844 1.2812 0.027343 0.42578 0.046875 0.85547 0.066406 1.2852 0.023437 0.42578 0.042969 0.85156 0.0625 1.2812 0.03125 0.85156 0.054687 1.7031 0.074219 2.543 0.019531 0.84375 0.027344 1.6758 0.03125 2.4961 0.003906 0.82031 0 1.625-0.003906 2.4141-0.003907 0.78906-0.011719 1.5586-0.023438 2.3086l580.99 70.512c-0.042969-0.91016-0.046876-1.8203-0.09375-2.7344-0.25-5.0859-0.57422-10.164-0.97656-15.238-0.40625-5.0742-0.89062-10.137-1.4531-15.184s-1.2109-10.074-1.9336-15.082c-0.72656-5.0039-1.5312-9.9883-2.4219-14.938-0.88672-4.9531-1.8633-9.8789-2.918-14.766-0.77344-3.5664-1.5703-7.7461-2.4883-12.047-0.91797-4.3047-1.9531-8.7305-3.2148-12.789-0.62891-2.0312-1.3125-3.9688-2.0625-5.7539-0.75391-1.7812-1.5781-3.4102-2.4766-4.8281s-1.875-2.6172-2.9492-3.543c-0.53516-0.46484-1.0938-0.85938-1.6797-1.1758-0.58203-0.31641-1.1914-0.55859-1.8242-0.71484-1.0117-0.25-1.9844-0.36719-2.9219-0.35938z" fill="url(#l)"/>
<path d="m95.105 55.141v0.6875l43.855 1.9375c0.070312 2.6953-0.042969 5.2773-0.34375 7.7383-0.29688 2.4648-0.78125 4.8125-1.4453 7.0469-0.66406 2.2305-1.5078 4.3516-2.5273 6.3594-1.0195 2.0078-2.2148 3.9062-3.582 5.6914-1.3672 1.7891-2.9062 3.4688-4.6094 5.043-1.707 1.5742-3.582 3.043-5.6211 4.4062-2.0352 1.3633-4.2344 2.625-6.5938 3.7812-2.3633 1.1602-4.8828 2.2188-7.5586 3.1797v10.598l45.289-20.656c0.007812-0.75 0.019531-1.5195 0.023438-2.3086 0.003906-0.78906 0.007812-1.5938 0.003906-2.4141-0.003906-0.82031-0.015625-1.6523-0.03125-2.4961-0.019532-0.83984-0.042969-1.6914-0.074219-2.543-0.019531-0.42969-0.039063-0.85547-0.0625-1.2812-0.019531-0.42969-0.039063-0.85938-0.066406-1.2852-0.027344-0.42969-0.054688-0.85547-0.085938-1.2812-0.035156-0.42578-0.066406-0.85156-0.10547-1.2734-0.039062-0.42187-0.078124-0.84766-0.125-1.2695-0.042968-0.41797-0.085937-0.83594-0.13672-1.2539-0.050782-0.41406-0.10156-0.82422-0.16016-1.2305-0.058594-0.41016-0.11719-0.81641-0.18359-1.2188-0.0625-0.40234-0.12891-0.80078-0.20312-1.1914-0.070313-0.39453-0.14844-0.78125-0.23047-1.1641-0.078125-0.38281-0.16406-0.76172-0.25391-1.1328s-0.17969-0.73828-0.27734-1.0977-0.20312-0.71094-0.3125-1.0586c-0.10547-0.34766-0.21484-0.6875-0.33203-1.0195-0.11719-0.33203-0.23828-0.65234-0.36719-0.96875-0.12891-0.31641-0.26172-0.625-0.39844-0.92188-0.070313-0.15234-0.14062-0.29688-0.21094-0.44141-0.070312-0.14844-0.14453-0.28906-0.21875-0.42578-0.074218-0.14062-0.14844-0.28125-0.22656-0.41406-0.078125-0.13672-0.16016-0.26953-0.23828-0.39844-0.082031-0.13281-0.16016-0.26172-0.24219-0.38672-0.085937-0.125-0.16797-0.24609-0.25391-0.36719-0.085938-0.11719-0.17578-0.23828-0.26562-0.35156-0.085938-0.11719-0.17578-0.22656-0.26953-0.33594-0.089843-0.10938-0.1875-0.21484-0.28125-0.31641-0.097656-0.10547-0.19141-0.20703-0.29297-0.30469-0.097656-0.097656-0.19922-0.19141-0.30078-0.28125-0.10156-0.089843-0.20312-0.17969-0.30469-0.26562-0.10547-0.085937-0.21484-0.16797-0.32422-0.24609-0.10938-0.078124-0.21875-0.15625-0.32812-0.22656-0.11328-0.074219-0.22656-0.14062-0.33984-0.20703-0.11328-0.066407-0.23047-0.12891-0.34766-0.1875z" fill="url(#k)"/>
<path d="m702.59 39.98c-0.91797 0.042969-1.8008 0.18359-2.6523 0.41016-0.85156 0.23047-1.668 0.55078-2.457 0.95312-1.5781 0.80078-3.0352 1.9219-4.3789 3.2969-1.3398 1.375-2.5703 2.9961-3.6914 4.8008-1.1211 1.8047-2.1367 3.7891-3.0547 5.8789-0.92187 2.0898-1.7422 4.2852-2.4766 6.5195s-1.3789 4.5078-1.9453 6.7422c-1.1289 4.4727-1.9336 8.7969-2.4922 12.41l-592.91-27.438c-0.23438 0.26172-0.67969 0.78906-1 1.1484l596.43 27.305c0.53906-3.0469 1.3164-7.1797 2.3984-11.613 0.039063-0.15234 0.046875-0.24609 0.085938-0.39844 0.18359-0.74219 0.43359-1.5117 0.63672-2.2656 0.35547-1.3398 0.70703-2.6523 1.125-4 0.078126-0.25 0.12891-0.49609 0.21094-0.74609 0.22656-0.71094 0.52734-1.3711 0.77344-2.0742 0.45703-1.3125 0.91016-2.5977 1.4336-3.8555 0.12891-0.30078 0.21875-0.63281 0.34766-0.92969 0.28125-0.64453 0.64062-1.1719 0.94141-1.7891 0.65234-1.3398 1.2969-2.6758 2.043-3.8594 0.082032-0.13281 0.14063-0.30469 0.22656-0.43359 0.050781-0.078125 0.11719-0.12109 0.16797-0.19922 1.082-1.6367 2.2695-3.0625 3.5586-4.2344 0.078124-0.066406 0.13672-0.18359 0.21094-0.25 0.0625-0.054687 0.13281-0.085937 0.19531-0.13672 0.41016-0.34766 0.84766-0.62891 1.2773-0.92188 0.26953-0.17969 0.51562-0.40625 0.79297-0.5625 0.050781-0.027343 0.10547-0.042969 0.15625-0.070312 0.48828-0.26953 1.0117-0.44531 1.5312-0.64062 0.26562-0.097656 0.51562-0.25391 0.79297-0.33203 0.023437-0.007812 0.050781-0.003906 0.078125-0.011718 0.83594-0.22656 1.707-0.35938 2.6133-0.37109 0.9375-0.007812 1.9062 0.10938 2.9219 0.35938 1.2695 0.3125 2.4336 0.96484 3.5039 1.8906 2.1445 1.8516 3.918 4.8047 5.4219 8.3711 3.7656 8.9219 5.8359 21.672 7.7695 30.594 1.0547 4.8828 2.0312 9.8086 2.918 14.762 2.6719 14.855 4.5938 29.98 5.8086 45.199 0 0.003907-0.003906 0.003907 0 0.007813 2.4258 30.438 2.0273 61.238-0.88672 90.961-0.96875 9.9102-2.2188 19.703-3.7344 29.32-3.0312 19.234-7.1328 37.773-12.207 55.199-1.9805 6.8086-3.6562 14.121-6.3711 20.477-2.0352 4.7656-4.6562 8.9922-8.4336 12.059-1.2617 1.0195-2.6484 1.9102-4.1875 2.6523-1.3789 0.66406-2.8086 1.2344-4.2578 1.3789-1.4492 0.14844-2.918-0.12891-4.3789-1.1484-0.73047-0.51172-1.4648-1.2031-2.1875-2.125-0.003906 0 0-0.003906 0-0.003906-2.1797-2.7656-4.3125-7.5703-6.3125-15.508l-588.09-192.43c0.15234 0.61719 0.25781 1.0078 0.49609 1.5742l585.37 191.48c0.59766 1.9844 1.1992 4.2461 1.9336 6.5234 0.73047 2.2773 1.5938 4.5664 2.6992 6.6133 0.55469 1.0234 1.1758 1.9883 1.8672 2.8594 0.69531 0.86719 1.4648 1.6406 2.3281 2.2891 0.86328 0.64844 1.8164 1.1758 2.8789 1.5391 1.0664 0.36719 2.2344 0.57031 3.5273 0.58594 1.9102-0.34766 3.6641-0.91406 5.2734-1.668 1.6055-0.75391 3.0703-1.6914 4.4102-2.7812 1.3398-1.0859 2.5586-2.3281 3.6641-3.6836 1.1055-1.3516 2.1055-2.8242 3.0078-4.375 0.90625-1.5469 1.7148-3.1758 2.4531-4.8516 0.73438-1.6758 1.3945-3.3945 1.9961-5.125 1.2031-3.457 2.1641-6.9609 3.0234-10.219 1.582-5.4102 3.0742-10.848 4.4688-16.309 1.3984-5.4609 2.6992-10.945 3.9102-16.453 1.2148-5.5078 2.332-11.031 3.3594-16.578 1.0273-5.543 1.957-11.105 2.7969-16.684 0.83984-5.5742 1.5859-11.168 2.2383-16.77 0.65234-5.6016 1.2109-11.215 1.6719-16.836 0.46484-5.6211 0.83594-11.25 1.1133-16.883 0.27344-5.6328 0.45312-11.27 0.53906-16.91 0.085937-5.6367 0.082031-11.273-0.023438-16.914-0.10547-5.6367-0.30469-11.27-0.59766-16.902-0.29297-5.6289-0.67969-11.254-1.1641-16.867-0.48828-5.6172-1.0664-11.227-1.7422-16.82-0.67969-5.5938-1.4531-11.176-2.3203-16.742-0.87109-5.5703-1.8398-11.125-2.9023-16.656-1.0625-5.5352-2.2188-11.047-3.4766-16.543-1.2578-5.4922-2.6094-10.965-4.0586-16.41-0.53125-1.9961-1.2305-4.1328-2.1328-6.2148-0.90234-2.082-2.0156-4.1094-3.375-5.8672-0.67969-0.87891-1.4219-1.6914-2.2305-2.4141-0.8125-0.72266-1.6875-1.3516-2.6406-1.8672-0.94922-0.51172-1.9727-0.90625-3.0742-1.1602-1.1016-0.25391-2.2812-0.36328-3.5469-0.30859z" fill="#d1e6eb"/>
<path d="m704.31 36.414-589.49 0.27344c-1.625 0.50391-3.2031 1.0469-4.7344 1.6211-1.5312 0.57422-3.0117 1.1836-4.4492 1.8242-1.4336 0.64453-2.8203 1.3164-4.1602 2.0312-1.3398 0.71094-2.6328 1.457-3.875 2.2383-1.2461 0.77734-2.4414 1.5898-3.5938 2.4375-1.1484 0.84766-2.2539 1.7305-3.3086 2.6445-0.74219 0.64062-1.4258 1.3164-2.1172 1.9922l588.4 25.52c0.58594-2.6797 0.95703-4.3906 1.3633-6.1094 0.41016-1.7148 0.86328-3.4336 1.6172-6.1289 0.82422-2.9375 1.7734-6.0703 2.9492-9.1406 0.58594-1.5352 1.2266-3.0547 1.9414-4.5273 0.71094-1.4727 1.4961-2.8984 2.3633-4.2461 0.86719-1.3477 1.8164-2.6133 2.8594-3.7695 1.0469-1.1562 2.1836-2.2031 3.4297-3.1094 0.625-0.44922 1.2773-0.86719 1.957-1.2422 0.67969-0.37891 1.3906-0.71484 2.1289-1.0078 0.74219-0.29297 1.5078-0.54297 2.3086-0.74219 0.80078-0.20312 1.6367-0.35547 2.5039-0.46094 0.66016-0.078125 1.2695 0.011719 1.9023 0.019531z" fill="url(#j)"/>
<path d="m702.59 39.98c-0.91797 0.042969-1.8008 0.18359-2.6523 0.41016-0.85156 0.23047-1.668 0.55078-2.457 0.95312-1.5781 0.80078-3.0352 1.9219-4.3789 3.2969-1.3398 1.375-2.5703 2.9961-3.6914 4.8008-1.1211 1.8047-2.1367 3.7891-3.0547 5.8789-0.92187 2.0898-1.7422 4.2852-2.4766 6.5195s-1.3789 4.5078-1.9453 6.7422c-1.1289 4.4727-1.9336 8.7969-2.4922 12.41l-592.91-27.438c-0.23438 0.26172-0.67969 0.78906-1 1.1484l596.43 27.305c0.53906-3.0469 1.3164-7.1797 2.3984-11.613 0.039063-0.15234 0.046875-0.24609 0.085938-0.39844 0.18359-0.74219 0.43359-1.5117 0.63672-2.2656 0.35547-1.3398 0.70703-2.6523 1.125-4 0.078126-0.25 0.12891-0.49609 0.21094-0.74609 0.22656-0.71094 0.52734-1.3711 0.77344-2.0742 0.45703-1.3125 0.91016-2.5977 1.4336-3.8555 0.125-0.30078 0.21875-0.63281 0.34766-0.92969 0.28125-0.64453 0.64062-1.1719 0.94141-1.7891 0.65234-1.3398 1.2969-2.6758 2.043-3.8594 0.082032-0.13281 0.14063-0.30469 0.22656-0.43359 0.050781-0.078125 0.11719-0.12109 0.16797-0.19922 1.082-1.6367 2.2695-3.0625 3.5586-4.2344 0.078124-0.066406 0.13672-0.18359 0.21094-0.25 0.0625-0.054687 0.13281-0.085937 0.19531-0.13672 0.41016-0.34766 0.84766-0.62891 1.2773-0.92188 0.26953-0.17969 0.51562-0.40625 0.79297-0.5625 0.050781-0.027343 0.10547-0.042969 0.15625-0.070312 0.48828-0.26953 1.0117-0.44531 1.5312-0.64062 0.26562-0.097656 0.51562-0.25391 0.79297-0.33203 0.023437-0.007812 0.050781-0.003906 0.078125-0.011718 0.83594-0.22656 1.707-0.35938 2.6133-0.37109 0.9375-0.007812 1.9062 0.10938 2.9219 0.35938 1.2695 0.3125 2.4336 0.96484 3.5039 1.8906 2.1445 1.8516 3.918 4.8047 5.4219 8.3711 3.7656 8.9219 5.8359 21.672 7.7695 30.594 1.0547 4.8828 2.0312 9.8086 2.918 14.762 2.6719 14.855 4.5938 29.98 5.8086 45.199v0.003907c2.4258 30.438 2.0273 61.238-0.88672 90.965-0.96875 9.9062-2.2188 19.699-3.7344 29.316-3.0312 19.234-7.1328 37.777-12.207 55.203-1.9805 6.8047-3.6562 14.121-6.3711 20.473-2.0352 4.7656-4.6562 8.9922-8.4336 12.059-1.2617 1.0195-2.6484 1.9141-4.1875 2.6523-1.3789 0.66406-2.8086 1.2344-4.2578 1.3789-1.4492 0.14844-2.918-0.12891-4.3789-1.1484-0.73047-0.50781-1.4648-1.2031-2.1875-2.125-0.003906 0 0 0 0 0-2.1797-2.7695-4.3125-7.5742-6.3125-15.512l-588.09-192.43c0.15234 0.61719 0.25781 1.0078 0.49609 1.5742l585.37 191.48c0.59766 1.9844 1.1992 4.2461 1.9336 6.5234 0.73047 2.2773 1.5938 4.5664 2.6992 6.6133 0.55469 1.0234 1.1758 1.9883 1.8672 2.8594 0.69531 0.86719 1.4648 1.6406 2.3281 2.2891 0.86328 0.64844 1.8164 1.1758 2.8789 1.5391 1.0664 0.36719 2.2344 0.57031 3.5273 0.58594 1.9102-0.34766 3.6641-0.91406 5.2734-1.668 1.6055-0.75391 3.0703-1.6914 4.4102-2.7812 1.3398-1.0859 2.5586-2.3281 3.6641-3.6836 1.1055-1.3516 2.1055-2.8242 3.0078-4.375 0.90625-1.5469 1.7148-3.1758 2.4531-4.8516 0.73438-1.6758 1.3945-3.3945 1.9961-5.125 1.2031-3.457 2.1641-6.9609 3.0234-10.219 1.582-5.4102 3.0742-10.848 4.4688-16.309 1.3984-5.4609 2.6992-10.945 3.9102-16.453 1.2148-5.5078 2.332-11.031 3.3594-16.578 1.0273-5.543 1.957-11.105 2.7969-16.684 0.83984-5.5742 1.5859-11.168 2.2383-16.77 0.65234-5.6016 1.2109-11.215 1.6719-16.836 0.46484-5.6211 0.83594-11.25 1.1133-16.883 0.27344-5.6328 0.45312-11.27 0.53906-16.91 0.085937-5.6367 0.082031-11.273-0.023438-16.914-0.10547-5.6367-0.30469-11.27-0.59766-16.902-0.29297-5.6289-0.67969-11.254-1.1641-16.867-0.48828-5.6172-1.0664-11.227-1.7422-16.82-0.67969-5.5938-1.4531-11.176-2.3203-16.742-0.87109-5.5703-1.8398-11.125-2.9023-16.656-1.0625-5.5352-2.2188-11.047-3.4766-16.543-1.2578-5.4922-2.6094-10.965-4.0586-16.41-0.53125-1.9961-1.2305-4.1328-2.1328-6.2148-0.90234-2.082-2.0156-4.1094-3.375-5.8672-0.67969-0.87891-1.4219-1.6914-2.2305-2.4141-0.8125-0.72266-1.6875-1.3516-2.6406-1.8672-0.94922-0.51172-1.9727-0.90625-3.0742-1.1602-1.1016-0.25391-2.2812-0.36328-3.5469-0.30859z" fill="#d1e6eb"/>
<path d="m702.41 36.512c-1.7344 0.20703-3.332 0.61719-4.8125 1.2031-1.4766 0.58594-2.8359 1.3477-4.0859 2.25-1.2461 0.90625-2.3828 1.9531-3.4297 3.1094-1.043 1.1562-1.9922 2.4219-2.8594 3.7695-0.86719 1.3477-1.6523 2.7734-2.3633 4.2461-0.71484 1.4727-1.3555 2.9922-1.9414 4.5273-1.1758 3.0703-2.125 6.2031-2.9492 9.1406-1.5117 5.3906-1.8086 6.8828-2.9805 12.238l-588.43-25.527c-0.76562 0.76172-1.3516 1.3438-2.0234 2.0781l592.9 27.445c0.55859-3.6133 1.3633-7.9375 2.4922-12.41 0.56641-2.2344 1.2109-4.5078 1.9453-6.7422s1.5547-4.4297 2.4766-6.5195c0.91797-2.0898 1.9336-4.0742 3.0547-5.8789 1.1211-1.8047 2.3516-3.4258 3.6914-4.8008 0.67188-0.6875 1.375-1.3086 2.1016-1.8633 0.73047-0.55078 1.4883-1.0352 2.2773-1.4336 0.78906-0.40234 1.6055-0.72266 2.457-0.95312 0.85156-0.23047 1.7344-0.36719 2.6523-0.41016 1.2617-0.054688 2.4414 0.054687 3.543 0.30859 1.1016 0.25391 2.125 0.64844 3.0781 1.1602 0.94922 0.51562 1.8281 1.1445 2.6367 1.8672s1.5508 1.5352 2.2305 2.4141c0.67969 0.87891 1.3008 1.8281 1.8594 2.8125 0.5625 0.98438 1.0625 2.0156 1.5156 3.0547 0.90234 2.082 1.6016 4.2188 2.1328 6.2148 1.4492 5.4453 2.8008 10.918 4.0586 16.41 1.2578 5.4961 2.4141 11.008 3.4766 16.543 1.0625 5.5312 2.0312 11.086 2.9023 16.656 0.86719 5.5664 1.6406 11.148 2.3203 16.742 0.67578 5.5938 1.2578 11.203 1.7422 16.82 0.48438 5.6133 0.87109 11.238 1.1641 16.867 0.29688 5.6328 0.49609 11.266 0.59766 16.902 0.10547 5.6406 0.10938 11.277 0.023438 16.914-0.085938 5.6406-0.26563 11.277-0.53906 16.91-0.27734 5.6328-0.64844 11.262-1.1094 16.883-0.46484 5.6211-1.0234 11.234-1.6758 16.836-0.65234 5.6016-1.3984 11.195-2.2383 16.77-0.83984 5.5781-1.7695 11.141-2.7969 16.684-1.0234 5.5469-2.1445 11.07-3.3555 16.578-1.2148 5.5078-2.5156 10.992-3.9141 16.453-1.3945 5.4609-2.8867 10.898-4.4688 16.309-0.85547 3.2578-1.8203 6.7617-3.0234 10.219-0.59766 1.7305-1.2617 3.4492-1.9961 5.125-0.73438 1.6758-1.5469 3.3047-2.4531 4.8516-0.90234 1.5508-1.8984 3.0234-3.0078 4.375-1.1055 1.3555-2.3203 2.5977-3.6641 3.6836-1.3398 1.0898-2.8008 2.0273-4.4102 2.7812-0.80469 0.37891-1.6445 0.70703-2.5234 0.98828-0.87891 0.27734-1.793 0.50781-2.75 0.67969-1.293-0.015625-2.4609-0.21875-3.5234-0.58594-1.0664-0.36328-2.0195-0.89062-2.8828-1.5391-0.86328-0.64844-1.6328-1.4219-2.3281-2.2891-0.69141-0.87109-1.3125-1.8359-1.8633-2.8594-0.55469-1.0234-1.0469-2.1055-1.4922-3.2188-0.44531-1.1133-0.84375-2.2578-1.2109-3.3945-0.73438-2.2773-1.3359-4.5391-1.9336-6.5234l-585.37-191.48c0.24609 0.72266 0.45312 1.0195 0.90625 1.7344l581.14 190.73c0.60938 2.4727 1.3633 5.2148 2.3477 7.918 0.49219 1.3516 1.0469 2.6953 1.668 3.9844 0.62109 1.293 1.3086 2.5352 2.082 3.6875 0.76953 1.1523 1.625 2.2148 2.5703 3.1523 0.94531 0.93359 1.9805 1.7422 3.1211 2.3789s2.3906 1.1055 3.75 1.3672c1.3594 0.26172 2.8359 0.31641 4.4375 0.125 1.0156-0.21484 1.9883-0.48047 2.9258-0.80078s1.8398-0.6875 2.7031-1.1055c1.7266-0.83594 3.3086-1.8633 4.7578-3.043 1.4492-1.1797 2.7695-2.5117 3.9766-3.9609 1.2031-1.4531 2.2969-3.0234 3.2891-4.6797 0.99219-1.6562 1.8906-3.3984 2.7031-5.1875 0.80859-1.7891 1.5391-3.625 2.1992-5.4766 1.3242-3.707 2.3789-7.4727 3.2891-11.016 1.5938-5.5117 3.0898-11.047 4.4922-16.613 1.4062-5.5625 2.7109-11.152 3.9297-16.762 1.2148-5.6094 2.3359-11.238 3.3594-16.887 1.0273-5.6484 1.957-11.312 2.793-16.992 0.83594-5.6836 1.5781-11.379 2.2227-17.082 0.64453-5.707 1.1953-11.422 1.6445-17.145 0.45312-5.7266 0.80859-11.457 1.0664-17.195 0.26172-5.7344 0.42578-11.477 0.49219-17.215 0.0625-5.7422 0.03125-11.48-0.10156-17.223-0.12891-5.7383-0.35547-11.473-0.68359-17.203s-0.75391-11.453-1.2773-17.168-1.1484-11.426-1.8711-17.117c-0.72266-5.6953-1.543-11.371-2.4648-17.035-0.92188-5.6641-1.9414-11.312-3.0625-16.941-1.125-5.6289-2.3477-11.238-3.6719-16.824-1.3203-5.5859-2.7461-11.145-4.2734-16.684-0.67578-2.1289-1.5938-4.3398-2.7461-6.4336-0.57812-1.0508-1.2148-2.0703-1.9102-3.0391s-1.4492-1.8867-2.2617-2.7266c-0.8125-0.83984-1.6797-1.6016-2.6055-2.2656-0.92578-0.66406-1.9141-1.2305-2.9531-1.6719-1.0391-0.44141-2.1328-0.75781-3.2852-0.92578-1.1523-0.17188-2.3633-0.19141-3.625-0.039063z" fill="url(#i)"/>
<path d="m151.97 90.953-45.289 20.656 561.48 182.91 64.832-133.05z" fill="url(#h)"/>
<path d="m106.68 111.61v3.0898c23.945 7.8008 47.688 15.633 71.273 23.484 23.59 7.8477 47.023 15.719 70.355 23.609 46.664 15.773 92.922 31.605 139.18 47.438 46.258 15.836 92.512 31.668 139.18 47.441 23.332 7.8906 46.766 15.762 70.352 23.613 23.59 7.8516 47.332 15.684 71.273 23.484 22.965-47.109 42.055-86.43 65.016-133.44-0.074219-2.8633-0.17578-5.8242-0.30469-8.8242l-64.836 133.02z" fill="url(#g)"/>
<path d="m106.68 114.7v3.6484c24.965 8.1328 49.387 16.285 73.398 24.453 24.016 8.168 47.617 16.348 70.953 24.539 23.332 8.1914 46.395 16.395 69.32 24.602 22.926 8.2031 45.715 16.41 68.504 24.621s45.574 16.422 68.5 24.629c22.926 8.207 45.984 16.406 69.32 24.598 23.332 8.1953 46.938 16.375 70.949 24.543 24.012 8.168 48.434 16.32 73.398 24.457 6.3672-13.059 11.863-24.797 16.918-35.875 5.0586-11.078 9.6797-21.492 14.301-31.906 4.6211-10.414 9.2383-20.828 14.297-31.898 5.0547-11.07 10.551-22.797 16.918-35.844-0.023438-2.957-0.078126-5.9688-0.16016-9.0078-22.957 47.082-42.051 86.402-65.016 133.51-23.941-7.8008-47.68-15.633-71.27-23.484-23.586-7.8516-47.02-15.723-70.352-23.613-46.664-15.773-92.922-31.605-139.18-47.441-46.254-15.832-92.512-31.664-139.18-47.438-23.332-7.8906-46.766-15.762-70.355-23.609-23.586-7.8516-47.324-15.684-71.27-23.484z" fill="url(#r)"/>
<path d="m144.02 130.66c0.039062 1.1562-0.058594 2.332-0.27734 3.5156-0.21484 1.1836-0.55078 2.3789-1 3.5664-0.44922 1.1836-1.0117 2.3633-1.6641 3.5273-0.65234 1.1641-1.4023 2.3047-2.2344 3.4219-0.83594 1.1133-1.7461 2.1992-2.7305 3.2383-0.98438 1.0391-2.043 2.0312-3.1523 2.9688-1.1094 0.94141-2.2773 1.8242-3.4844 2.6328-1.2109 0.8125-2.4609 1.5586-3.7461 2.2188l553.2 181.01c0.66797 2.6445 1.3477 4.9414 2.043 6.9336 0.69141 1.9883 1.3984 3.6758 2.1133 5.0898 0.71094 1.418 1.4297 2.5664 2.1562 3.4922 0.72266 0.92188 1.457 1.6133 2.1875 2.1211 0.73047 0.51172 1.4648 0.83203 2.1953 1.0117 0.73047 0.17578 1.4609 0.21094 2.1836 0.14062 0.72656-0.074219 1.4414-0.25391 2.1523-0.5 0.71094-0.24219 1.418-0.55078 2.1055-0.88281 1.5391-0.73828 2.9258-1.6289 4.1875-2.6523 1.2578-1.0195 2.3906-2.1719 3.4141-3.4297 1.0234-1.2539 1.9375-2.6211 2.7695-4.0664 0.82812-1.4453 1.5703-2.9727 2.25-4.5625 0.67969-1.5859 1.293-3.2383 1.8633-4.9219 0.57031-1.6875 1.0938-3.4062 1.5938-5.1445 1.0078-3.4727 1.9219-7.0039 2.9141-10.406 1.5312-5.2617 2.9727-10.625 4.3242-16.074 1.3516-5.4531 2.6094-10.992 3.7773-16.613 1.1641-5.6211 2.2383-11.316 3.2148-17.082 0.97656-5.7617 1.8555-11.594 2.6367-17.477 0.78125-5.8867 1.4609-11.832 2.043-17.816 0.57812-5.9844 1.0586-12.008 1.4297-18.066 0.375-6.0586 0.64453-12.148 0.80469-18.258 0.16406-6.1094 0.21875-12.242 0.16406-18.379-6.3672 13.059-11.859 24.797-16.914 35.879-5.0586 11.078-9.6758 21.492-14.297 31.91s-9.2422 20.836-14.301 31.914c-5.0547 11.078-10.551 22.816-16.918 35.875-23.391-7.625-46.309-15.262-68.859-22.914-22.547-7.6523-44.73-15.316-66.66-22.988-21.93-7.6758-43.605-15.359-65.137-23.047-21.535-7.6836-42.926-15.379-64.289-23.07-42.723-15.387-85.328-30.773-128.71-46.137-21.691-7.6797-43.57-15.355-65.758-23.02-22.191-7.6641-44.684-15.32-67.594-22.957z" fill="url(#q)"/>
<path d="m106.68 118.35v3.5078c0.46875-0.14062 0.94141-0.25781 1.4141-0.34766 0.47266-0.09375 0.94531-0.16016 1.4258-0.20312 0.47656-0.046876 0.95312-0.070313 1.4297-0.074219 0.48047 0 0.96094 0.019531 1.4375 0.058593 0.47656 0.035157 0.95312 0.089844 1.4258 0.16406 0.47266 0.078125 0.94141 0.17188 1.4062 0.28125s0.92969 0.23438 1.3867 0.37109c0.45312 0.14062 0.90625 0.29688 1.3477 0.46484 0.44141 0.16797 0.87891 0.34766 1.3047 0.53906 0.42578 0.19141 0.84375 0.39844 1.2539 0.61328 0.41016 0.21484 0.80859 0.4375 1.1953 0.67188 0.39062 0.23438 0.76562 0.47656 1.1289 0.72266 0.36328 0.25 0.71484 0.50781 1.0547 0.76953 0.33594 0.26172 0.66016 0.52734 0.96484 0.80078 0.30859 0.26953 0.59766 0.54297 0.87109 0.82031 0.27734 0.27734 0.53516 0.55859 0.77344 0.83984 0.21094 0.25391 0.41406 0.50391 0.60547 0.75781 0.1875 0.25 0.36719 0.50781 0.53516 0.76172 0.33594 0.50781 0.63281 1.0195 0.88281 1.5234 0.25391 0.50781 0.46875 1.0078 0.64453 1.5039 0.17969 0.49609 0.32031 0.98438 0.42969 1.4609 0.11328 0.47656 0.19141 0.9375 0.24219 1.3867 0.054687 0.44922 0.082031 0.88672 0.082031 1.2969 0 0.41406-0.023437 0.80469-0.0625 1.1758-0.042969 0.36719-0.10547 0.71094-0.18359 1.0273-0.15234 0.625-0.32031 1.2188-0.50391 1.7812-0.17969 0.5625-0.37891 1.0938-0.58594 1.5977-0.21094 0.50391-0.43359 0.98438-0.67188 1.4336-0.23437 0.44922-0.48047 0.87109-0.74219 1.2695-0.26172 0.39453-0.53125 0.76562-0.81641 1.1133-0.28516 0.34375-0.57812 0.66797-0.88672 0.96484-0.30469 0.29688-0.625 0.57422-0.94922 0.82812-0.32812 0.25391-0.66406 0.48047-1.0117 0.6875-0.34766 0.21094-0.70703 0.39844-1.0742 0.56641-0.36719 0.16797-0.73828 0.31641-1.1211 0.44531-0.38281 0.12891-0.77734 0.24219-1.1758 0.33203-0.39844 0.09375-0.80859 0.16797-1.2227 0.22656-0.41406 0.058594-0.83203 0.10156-1.2578 0.12891-0.42969 0.027343-0.86328 0.039062-1.3047 0.035156-0.4375 0-0.88281-0.019532-1.3359-0.046875-0.44922-0.03125-0.90234-0.074219-1.3633-0.12891-0.46094-0.050781-0.92578-0.11719-1.3945-0.19531-0.46875-0.074219-0.94141-0.16016-1.4141-0.25781-0.95312-0.19141-1.9141-0.42188-2.8867-0.67969-0.96875-0.25781-1.9492-0.54297-2.9297-0.84766-0.98438-0.30469-1.9648-0.625-2.9453-0.95703-1.9648-0.66406-3.918-1.3672-5.8164-2.0312-0.95312-0.32812-1.8906-0.64844-2.8125-0.95312-0.91797-0.30078-1.8164-0.58203-2.6953-0.83984 0.039063 0.21094 0.085938 0.41797 0.10938 0.61719l34.867 11.414c0.64062-0.33203 1.2734-0.68359 1.8984-1.0508 0.625-0.37109 1.2422-0.76172 1.8477-1.168 0.60547-0.40234 1.1992-0.82812 1.7812-1.2656 0.58203-0.44141 1.1484-0.89844 1.7031-1.3672 0.55469-0.46875 1.0977-0.94922 1.625-1.4453 0.52344-0.49609 1.0352-1.0039 1.5273-1.5234 0.49219-0.51953 0.96484-1.0547 1.418-1.5938 0.45703-0.53906 0.89453-1.0898 1.3125-1.6445 0.41406-0.55859 0.8125-1.1211 1.1836-1.6914 0.375-0.57031 0.72266-1.1484 1.0508-1.7305s0.62891-1.1641 0.90625-1.7539c0.27734-0.58984 0.53125-1.1836 0.75781-1.7734 0.22266-0.59375 0.41797-1.1914 0.58984-1.7852 0.16797-0.59375 0.30469-1.1875 0.41016-1.7812 0.10938-0.58984 0.19141-1.1797 0.23828-1.7656 0.042969-0.58594 0.058594-1.1719 0.039063-1.75-6.1602-2.0547-12.352-4.1055-18.574-6.1562-6.2227-2.0547-12.48-4.1016-18.77-6.1523z" fill="url(#p)"/>
<path d="m92.246 147.67c0.41016 0.69141 0.89062 1.3438 1.4492 1.9648 0.55469 0.625 1.1836 1.2227 1.8906 1.7969 0.70703 0.57422 1.4922 1.125 2.3516 1.6602 0.86328 0.53906 1.8047 1.0664 2.8242 1.5859 2.0391 1.0352 4.4023 2.0469 7.0977 3.0938s5.7266 2.1367 9.1094 3.3164l569.98 199.21c-1.0117-0.375-1.9531-0.875-2.8281-1.4766-0.87109-0.60156-1.6797-1.3047-2.4297-2.0898s-1.4336-1.6523-2.0703-2.582c-0.63281-0.92578-1.2109-1.9102-1.7461-2.9375-1.0664-2.0547-1.9414-4.2656-2.6719-6.4648-0.73438-2.1992-1.3203-4.3828-1.8164-6.3906z" fill="url(#o)"/>
<path d="m97.715 130.45c-1.4961 0.49219 0.32031 1.6836 0.90625 2.2109 5.1953 4.5547 10.336 9.1875 15.566 13.695 2.2539-0.16797-1.1758-5.3555 1.0781-5.082 17.246 6.7109 34.496 13.422 51.742 20.133 2.6758 0.87891 4.8555-5.1875 2.0195-6.0625-17.348-6.75-34.695-13.5-52.047-20.25 0.21484-1.5156 5.3711-3.3398 2.7031-4.2305-7.3242-0.13672-14.645-0.27734-21.969-0.41406z" fill="#d25230"/>
<use mask="url(#f)" xlink:href="#b"/>
<path d="m190.58-79.734c4.2852 2.043 7.8867 8.1719 9.2227 10.523 0.85938 2.3359 7.1641 3.1133 0.53516 8.7266-6.625 5.6133-16.543 18.379-32.152 28.117-35.73 21.531-77.16 20.809-81.977 29.254-2.1328 3.5586-10.336 11.375-6.668 16.137 2.3125 2.4023 11.191 0.56641 3.125 5.6523-8.5391 5.0586-22.887 8.9023-20.602 2.1562 2.3203-7.2031 9.8516-11.398 11.613-17.258 2.2383-5.8359 4.4141-19.906 17.809-24.266 12.906-4.3828 30.836-11.707 33.48-15.695 2.6133-3.5234 9.2148-8.6797 9.9336-13.223 0.74219-4.9961 1.8516-17.293 9.4062-21.945 7.5547-4.6562 24.879-19.328 46.273-8.1797" fill="#d4b878" fill-rule="evenodd"/>
<path transform="matrix(-.13694 2.7122 -2.7128 -.13691 79.798 -69.422)" d="m-5.8487-40.541c0.67181-1.6135 2.859-3.0516 3.6991-3.5864 0.84314-0.35935 1.012-2.6919 3.1995-0.35878 2.1874 2.3317 7.0663 5.7414 10.937 11.3 8.5818 12.738 9.0849 27.985 12.28 29.599 1.3483 0.71814 4.3752 3.5892 6.0584 2.1522 0.84059-0.89488 5.91e-4 -4.1255 2.0208-1.254 2.0189 3.0458 3.6988 8.2499 1.1754 7.5349-2.6922-0.71943-4.3749-3.4107-6.5625-3.9497-2.1878-0.71465-7.4029-1.2534-9.2548-6.0975-1.8514-4.6641-4.8778-11.121-6.3937-12.019-1.3443-0.89546-3.3632-3.227-5.0473-3.407-1.8512-0.18014-6.3942-0.35976-8.2455-3.0512-1.8527-2.6913-7.5701-8.7888-3.8671-16.862zm0 0" fill="none" stroke="#474c4c" stroke-linecap="round" stroke-linejoin="round" stroke-miterlimit="10" stroke-width=".375"/>
<path d="m78.156 14.973c1.4258 0.97656 3.4219 0.62109 5.3945 0.71875-0.11719 2.2656-6.0508 2.4141-7.5703 3.25-3.0273 1.207-5.5625 2.4375-8.5195 2.2891-1.0078 0.39453-3.0234 1.207-2.9336-0.60547 0.58984-1.7852 5.043-2.0078 6.0508-2.4141 3-0.75 5.0391-2.0078 7.0586-2.8164" fill="#e6ca94" fill-rule="evenodd"/>
<path d="m83.867 15.91c-1.0078 0.40625-1.543 1.3008-2.5625 2.1758-1.9961 0.82422-3.5078 1.6602-5.0039 2.0508-1.9961 0.8125-3.9922 1.6367-5.9727 1.9922-1.4883 0.39453-3.4609 0.75-4.9219 0.67578 2.0195-1.2773 4.4805-1.6094 6.4609-1.9766 1.9766-0.35938 3.9727-1.1797 5.4688-1.5625 1.0195-0.87109 2.0195-1.2773 3.0156-1.6836 1-0.41797 1.5078-0.85156 2.5078-1.2656" fill="#fff" fill-rule="evenodd"/>
<path d="m68.293 20.508c0.36328 0.019532 0.62891 0.4375 0.60156 0.92188-0.023437 0.5-0.32812 0.88672-0.69141 0.87109-0.35938-0.019531-0.63672-0.4375-0.60938-0.93359 0.023438-0.48828 0.33984-0.875 0.69922-0.85938" fill="#fff" fill-rule="evenodd"/>
<path d="m64.781 22.125c0.35938 0.019531 0.64062 0.32031 0.625 0.67969-0.019531 0.36328-0.33203 0.64453-0.69141 0.625-0.35938-0.019532-0.63281-0.32813-0.61328-0.69141 0.019532-0.35938 0.32031-0.62891 0.67969-0.61328" fill="#fff" fill-rule="evenodd"/>
<path d="m84.836 16.098c-1.543 1.332-3.5898 3.1094-5.5859 3.9453-1.5078 0.85547-4.0508 2.6094-6.0039 2.5117 2.0234-1.3125 4.543-2.5859 6.5625-3.8984 1.4844-0.39062 3.5781-3.1016 5.0273-2.5586" fill="#b89e66" fill-rule="evenodd"/>
<path d="m75.344 3.5742c-0.53516 0.88672-0.58203 1.7969-1.1133 2.6836-0.53516 0.88672-1.043 1.3164-1.5547 1.7461-1.0664 1.7734-2.0859 2.6367-3.6289 3.9297-0.55859 1.3398-1.5781 2.2031-2.6211 3.5195-1.0234 0.86328-2.0664 2.1797-2.1367 3.5469 1-0.40625 1.5117-0.83594 2.5078-1.2422 1-0.40625 1.9727-0.35937 2.5156-1.2461 0.97656 0.050781 1-0.40625 1.0234-0.85938l0.11328-2.2773c0.14062-2.7344 3.6641-4.8398 4.293-7.5508 0.50781-0.42969 0.089843-1.8203 0.60156-2.25" fill="#b89e66" fill-rule="evenodd"/>
<path d="m90.125 19.082c1.1055-0.46484 0.078125-1.5469-1.0312-1.082-1.1055 0.45312-2.8047 1.918-3.9492 2.8906-2.2148 0.92969-4.4531 2.3672-6.668 3.2852-1.6445 0.42578-3.3047 0.86328-4.3828 0.80859-1.1094 0.46484-2.2148 0.92188-3.2969 0.86719 1.1055-0.45703 2.1875-0.40234 3.2969-0.86719 1.6211 0.082031 3.2656-0.35547 4.9258-0.78125 1.6445-0.4375 3.8594-1.3555 5.5312-2.3008 1.1094-0.46484 2.2539-1.4375 3.3594-1.9023 1.1055-0.46484 1.6484-0.4375 2.2148-0.91797" fill="#fff" fill-rule="evenodd"/>
<path d="m71.344 24.742c0.26172 0.011718 0.47266 0.27734 0.45703 0.59375-0.015625 0.30859-0.25 0.55078-0.51562 0.53906-0.26562-0.015625-0.47656-0.28125-0.46094-0.58594 0.015625-0.31641 0.25391-0.5625 0.51953-0.54687" fill="#fff" fill-rule="evenodd"/>
<path d="m65.012 24.945c0.36328 0 0.66016 0.28906 0.66016 0.64844 0 0.36328-0.29688 0.65625-0.66016 0.65625-0.35938 0-0.64453-0.29688-0.64453-0.65625s0.28516-0.64844 0.64453-0.64844" fill="#fff" fill-rule="evenodd"/>
<path d="m86.328 18.75s-10.77 6.6328-19.383 7.1406c-8.6172 0.50781-2.6836 7.6367 2.1523 7.6367 0 0 4.8516-1.0156 7.0039 2.5469 1.6133 3.5664 2.1523 7.1406 2.1523 7.1406s-7 7.6367 1.0742 21.395c7.543 14.258 16.16 30.051 16.16 30.051s8.0742 0.51172 7.5312-7.125c-0.54297-7.6484-14.535-18.344-16.691-24.973-2.1523-6.6211-3.2227-18.332 4.8516-19.348 8.0742-1.0312 19.914 13.238 22.066 19.867 0 0 5.3906 0 4.3086-6.1211-0.53906-6.6172-14.535-22.922-22.609-22.414-3.7656 0.50781-7.543 0-8.0742-2.0352-1.082-2.0391-1.6133-2.5469 2.1523-6.1133 3.7695-3.5625 5.9219-11.719-2.6953-7.6484" fill="#d4b878" fill-rule="evenodd"/>
<path transform="matrix(2.6237 .70285 -.70302 2.6231 282.54 -22.468)" d="m-65.845 33.357s-3.1976 3.3854-6.2122 4.3868c-3.016 1.0017-0.22648 2.972 1.4932 2.5112 0 0 1.6285-0.82354 2.7334 0.23853 0.91361 1.1148 1.446 2.3348 1.446 2.3348s-1.7614 3.3833 2.4211 7.5075c4.0412 4.3527 8.6108 9.149 8.6108 9.149s2.92-0.58734 1.9991-3.2519c-0.92204-2.6688-6.9172-5.1398-8.3157-7.2922-1.3964-2.15-2.8932-6.2135-0.11871-7.3441 2.773-1.1362 8.3434 2.8112 9.7405 4.964 0 0 1.917-0.51365 0.9488-2.5878-0.82236-2.3023-7.3535-6.7682-10.176-5.8182-1.2907 0.53944-2.6824 0.71874-3.0652 0.045466-0.57912-0.62218-0.81644-0.75218 0.18275-2.3795 1.001-1.6263 0.989-4.7325-1.6874-2.4637zm0 0" fill="none" stroke="#474c4c" stroke-linecap="round" stroke-linejoin="round" stroke-miterlimit="10" stroke-width=".375"/>
<path d="m88.496 24.344c0-1.5508 1.6094-2.5781 1.082-4.1289-2.707 0-3.7891 1.5508-5.9531 2.5781-1.625 1.5508-4.3281 2.5781-6.4961 3.0859-2.1641 1.0312-4.3281 1.5508-6.4922 1.5508-1.625 0.50781-5.3984 0-5.9531 1.5391 5.4141 4.125 21.105-1.0312 24.352-6.1758" fill="#e6ca94" fill-rule="evenodd"/>
<path d="m104.13 40.582c-3.2461-3.5195-10.258-5.5352-15.117-4.0312-4.3203 1.0078-10.805 5.0273-9.7188 9.5586 2.1523 0.50781 3.2344-2.0039 4.8594-3.5234 1.6211-1.0078 3.7773-2.0039 5.9414-3.0117 3.7773-1.5039 8.0938-1.5039 11.871 0" fill="#e6ca94" fill-rule="evenodd"/>
<path d="m116.04 54.438c0.53906 1.5391 1.6133 7.1719-2.1445 6.6523-1.6133 0 0.53125-1.0195 1.0742-1.5312 0.53906-1.0273 1.0703-1.5352 1.0703-2.5664 0-0.50781-0.53125-1.5273 0-2.0469" fill="#e6ca94" fill-rule="evenodd"/>
<path d="m101.47 85.074c0.54297 1.5273 0.54297 4.0703-0.52734 5.5977-0.53125 1.5273-2.6758 2.5469-4.2891 2.5469-0.53125 0-2.1406-0.50781-1.0703-1.0195 0.54297-1.0156 1.6133-1.0156 2.6836-1.5273 1.0625-0.50781 1.0625-1.5273 1.6016-2.543 0-1.0195 0-3.0547 1.0742-2.5469" fill="#e6ca94" fill-rule="evenodd"/>
<path d="m101.46 88c0.55078 2.0703 0 6.1953-3.8516 5.168 1.1016 0 2.207-0.51953 3.3008-1.043 1.1016-1.0273 0-2.0547 1.1016-3.0977" fill="#fff" fill-rule="evenodd"/>
<path d="m90.172 20.629c1.082-0.51953 0-1.5469-1.082-1.0273-1.082 0.50781-2.707 2.0586-3.8008 3.0859-2.1641 1.0391-4.3281 2.5898-6.4922 3.6172-1.625 0.50781-3.2578 1.0273-4.3398 1.0273-1.082 0.51953-2.1641 1.0312-3.2461 1.0312 1.082-0.50781 2.1641-0.50781 3.2461-1.0312 1.6211 0 3.2461-0.51953 4.8789-1.0273 1.625-0.51953 3.7891-1.5469 5.4141-2.5781 1.082-0.51953 2.1758-1.5469 3.2578-2.0664 1.082-0.51953 1.6211-0.51953 2.1641-1.0312" fill="#fff" fill-rule="evenodd"/>
<path d="m73.895 26.898c0.40234 0 0.73047 0.32812 0.73047 0.73047 0 0.40625-0.32812 0.73438-0.73047 0.73438-0.40234 0-0.73047-0.32812-0.73047-0.73438 0-0.40234 0.32813-0.73047 0.73047-0.73047" fill="#fff" fill-rule="evenodd"/>
<path d="m71.699 27.227c0.26562 0 0.48828 0.25391 0.48828 0.57422 0 0.30859-0.22266 0.5625-0.48828 0.5625s-0.48828-0.25391-0.48828-0.5625c0-0.32031 0.22266-0.57422 0.48828-0.57422" fill="#fff" fill-rule="evenodd"/>
<path d="m101.04 37.551c-2.1758-0.51953-4.3516-1.043-6.5234-1.043-2.7188 0-5.4336 0.51953-7.5977 2.0703-2.7188 1.0391-4.3516 2.5898-6.5273 4.6562-1.082 1.5508-1.082 3.1094-2.1758 5.1758 1.6367-4.1367 4.8945-7.7617 9.2422-9.3125 2.1758-1.0273 4.3398-1.5469 6.5156-1.5469 1.0938-0.51953 2.1758-0.51953 3.2578-0.51953 0.55078 0 1.6328 0 2.7148 0.51953" fill="#fff" fill-rule="evenodd"/>
<path d="m97.938 36.508c0.35938 0 0.64844 0.22266 0.64844 0.48828 0 0.27734-0.28906 0.5-0.64844 0.5s-0.65625-0.22266-0.65625-0.5c0-0.26562 0.29688-0.48828 0.65625-0.48828" fill="#fff" fill-rule="evenodd"/>
<path d="m99.488 37.496c0.48828 0 0.89062 0.21094 0.89062 0.48828 0 0.26562-0.40625 0.48828-0.89062 0.48828-0.5 0-0.90234-0.22266-0.90234-0.48828 0-0.27734 0.40234-0.48828 0.90234-0.48828" fill="#fff" fill-rule="evenodd"/>
<path d="m100.71 92.074c0.35938 0 0.64844 0.25391 0.64844 0.57031 0 0.32031-0.28906 0.57422-0.64844 0.57422-0.36328 0-0.64844-0.25391-0.64844-0.57422 0-0.31641 0.28516-0.57031 0.64844-0.57031" fill="#fff" fill-rule="evenodd"/>
<path d="m90.438 18.105c-2.6875 0-5.3711 1.5586-6.9727 3.1289-3.7656 2.0781-7.5234 4.168-11.277 4.6875 1.0703-0.51953 2.1406-0.51953 2.6836-0.51953 1.6133-0.51953 2.6836-0.51953 3.7539-1.0391 1.6133-1.0508 3.2266-1.5703 4.8398-2.6094 2.1445-1.0508 4.2852-2.0898 6.9727-3.1289" fill="#b89e66" fill-rule="evenodd"/>
<path d="m74.816 33.496c0.55469 0 2.207 1.5078 2.207 2.0156 0.55469 1.0078 1.1055 1.5156 1.1055 2.5234 0.53906 1.0078 0.53906 2.5156 1.0938 3.5234 1.1016-0.5 1.6523-1.5078 2.2031-2.0039 0.55469-0.51172 3.3125-1.5195 2.7617-2.5273-0.55469-0.50781-2.207 0-2.7617 0-1.6523 0-1.6523-1.0039-2.2031-1.5156-0.55469-1.0078-1.0938-2.0156-0.55469-3.0234 0-1.0078 0-1.5156-1.0938-1.0078-1.1016 0-1.6523 0.5-2.7578 0.5-0.55078 0.50781-1.1016 0-1.6562 0.50781 0 0.5 1.1055 0.5 1.6562 0.5" fill="#b89e66" fill-rule="evenodd"/>
<path d="m93.863 88.328c0-0.50781-1.082-2.5352-1.625-3.0312-0.52734-1.0195-1.6133-2.5352-2.1523-3.543-1.082-2.5391-2.6953-4.5508-3.7773-7.0898-1.082-2.0234-2.1523-4.0391-3.2383-6.0664-0.53906-1.5156-1.6211-3.0312-2.1523-4.5625-0.53906-1.0078-1.6211-3.5312-2.707-4.5508 1.625 3.0352 4.3203 6.082 5.9453 9.1133 1.6094 2.5234 3.2344 5.5586 4.8477 8.0938 1.082 2.5234 2.1641 4.5508 3.2344 7.0859 0.54297 1.5195 1.082 3.5352 1.625 4.5508" fill="#b89e66" fill-rule="evenodd"/>
<path d="m112.93 57.863c-1.082-1.0078-1.625-2.5234-2.6953-4.0312-1.082-1.5156-2.1641-2.5234-3.7891-4.0312-2.1523-3.0234-6.4727-7.0547-10.789-8.5586 2.1523 0 4.8594 2.0156 6.4727 3.5195 2.1641 1.0078 3.7773 2.5156 5.3984 4.0312 2.168 2.5156 4.8594 5.5391 5.4023 8.5625" fill="#b89e66" fill-rule="evenodd"/>
<path d="m87.426 73.691c1.1484-1.9961 3.1094-2.457 4.4492-3.8008 1.3398-1.3477 2.4922-3.3398 4.2539-4.4414 4.1914-2.3594 8.9609-2.7891 13.34-4.5117-1.9258-0.57422-5.4258 0.58984-7.8008 0.80078-2.3828 0.21875-4.3867 1.7188-6.1523 2.8203-3.5312 2.2109-6.6719 5.6992-9.7812 8.1562-0.035156 1.0352 0.19531 0.64062 0.61719 0.88281" fill="#ba78ab" fill-rule="evenodd"/>
<path d="m83.129 91.863s-6.8438-8.668 4.3438-20.484c11.91-11.988 39.172-25.738 45.328-11.574 6.875 14-16.168 23.688-22.551 28.25-6.1641 5.2852-17.605 17.543-27.121 3.8086" fill="#d4b878" fill-rule="evenodd"/>
<path transform="matrix(-1.9207 -1.9202 1.9207 -1.9202 -71.073 99.868)" d="m-45.464 56.683c-0.47055 2.8486-0.077633 5.8529 2.8494 6.8194 5.2826 2.0835 8.788-8.5744 8.769-14.788-0.16748-5.9821-4.1969-6.4585-4.1969-6.4585-0.67227-0.20856-1.4859-0.18425-1.8662-0.082594-1.1289 0.085299-1.9882 0.60489-2.6095 1.5089-1.3931 1.7267-1.3846 4.8266-1.5258 6.6074-0.076201 0.64173-0.30392 1.3963-0.46453 2.1164zm0 0" fill="none" stroke="#474c4c" stroke-linecap="round" stroke-linejoin="round" stroke-miterlimit="10" stroke-width=".375"/>
<path d="m84.27 89.484c1.0938-4.0742 1.9531-8.8555 5.4414-12.711 3.25-3.418 6.4805-6.8281 10.414-9.25 2.4453-0.94141 4.6641-2.6016 7.1055-3.543 1.707-0.76562 5.3516-1.6016 6.1133-2.9258 1.5234-2.6367-2.5508-3.2383-4.7422-2.7383-2.1875 0.50391-5.1328 2.3164-7.0977 3.5352-4.9258 3.0352-9.8711 7.2266-14.09 11.242-1.7539 1.9297-4.7383 4.8984-5.0586 7.6523-0.28516 1.6016 0.054687 6.4883 0.74609 7.4727" fill="#e6ca94" fill-rule="evenodd"/>
<path transform="matrix(-1.9207 -1.9202 1.9207 -1.9202 -71.073 99.868)" d="m-37.536 42.471s3.752 2.5013 1.1444 11.183c-2.3615 8.8182-3.9886 9.6418-5.7653 9.9233" fill="none" stroke="#474c4c" stroke-linecap="round" stroke-linejoin="round" stroke-miterlimit="10" stroke-width=".375"/>
<path d="m82.289 85.512c0.50391-0.875 0.51953-2.043 0.77344-2.4844 0.75781-1.3125 1.0352-2.918 1.7969-4.2383 0.76172-1.3164 2.0039-2.3477 3.0117-2.9414 0.75-0.15625 1.2617-1.0391 2.0117-1.1914-1.0078 0.59375-2.2539 0.46094-2.9961 0.62109-1.2461-0.12891-1.2539 1.0273-2.2578 1.625-0.76172 1.3125-1.2812 3.3633-2.2969 5.1172-0.50781 0.88281-0.26562 1.6094-0.28906 2.7734" fill="#fff" fill-rule="evenodd"/>
<path d="m87.676 74.887c-0.46875-0.26953-0.62891-0.86328-0.35547-1.332 0.26953-0.46875 0.86328-0.625 1.332-0.35547s0.62891 0.86328 0.35547 1.332c-0.26953 0.46875-0.86328 0.62891-1.332 0.35547" fill="#fff" fill-rule="evenodd"/>
<path d="m126.54 75.871c2.543-2.1328 6.3633-5.332 5.9453-9.1719-1.0625 2.9883-3.8984 6.75-6.4414 8.8867l0.49609 0.28516" fill="#b89e66" fill-rule="evenodd"/>
<use mask="url(#e)" xlink:href="#c"/>
</svg>
