<?xml version="1.0" encoding="UTF-8"?>
<svg width="600px" height="847px" version="1.1" viewBox="0 0 600 847" xmlns="http://www.w3.org/2000/svg" xmlns:xlink="http://www.w3.org/1999/xlink">
<defs>
<symbol id="g" overflow="visible">
<path d="m5.5312-8.7344c-0.875 0-1.5703 0.33984-2.0781 1.0156-0.5 0.67969-0.75 1.6094-0.75 2.7969 0 1.1797 0.25 2.1055 0.75 2.7812 0.50781 0.67969 1.2031 1.0156 2.0781 1.0156 0.86328 0 1.5469-0.33594 2.0469-1.0156 0.50781-0.67578 0.76562-1.6016 0.76562-2.7812 0-1.1641-0.25781-2.0938-0.76562-2.7812-0.5-0.6875-1.1836-1.0312-2.0469-1.0312zm0-1.375c1.4062 0 2.5078 0.46094 3.3125 1.375 0.80078 0.91797 1.2031 2.1875 1.2031 3.8125 0 1.6172-0.40234 2.8828-1.2031 3.7969-0.80469 0.91797-1.9062 1.375-3.3125 1.375-1.418 0-2.5273-0.45703-3.3281-1.375-0.80469-0.91406-1.2031-2.1797-1.2031-3.7969 0-1.625 0.39844-2.8945 1.2031-3.8125 0.80078-0.91406 1.9102-1.375 3.3281-1.375z"/>
</symbol>
<symbol id="o" overflow="visible">
<path d="m0.53125-9.875h1.7188l3.0938 8.2812 3.0781-8.2812h1.7188l-3.7031 9.875h-2.2031z"/>
</symbol>
<symbol id="a" overflow="visible">
<path d="m6.1875-4.9688c-1.3125 0-2.2266 0.15234-2.7344 0.45312-0.5 0.30469-0.75 0.8125-0.75 1.5312 0 0.58594 0.1875 1.0469 0.5625 1.3906 0.38281 0.33594 0.89844 0.5 1.5469 0.5 0.90625 0 1.6289-0.31641 2.1719-0.95312 0.53906-0.64453 0.8125-1.4922 0.8125-2.5469v-0.375zm3.2344-0.65625v5.625h-1.625v-1.5c-0.36719 0.60547-0.82422 1.0469-1.375 1.3281-0.55469 0.28125-1.2305 0.42188-2.0312 0.42188-1.0117 0-1.8203-0.28125-2.4219-0.84375-0.59375-0.5625-0.89062-1.3203-0.89062-2.2812 0-1.1016 0.36719-1.9375 1.1094-2.5 0.75-0.57031 1.8633-0.85938 3.3438-0.85938h2.2656v-0.15625c0-0.73828-0.24609-1.3125-0.73438-1.7188-0.49219-0.41406-1.1797-0.625-2.0625-0.625-0.5625 0-1.1172 0.070313-1.6562 0.20312-0.53125 0.13672-1.043 0.33984-1.5312 0.60938v-1.5c0.59375-0.22656 1.1641-0.39844 1.7188-0.51562 0.5625-0.11328 1.1016-0.17188 1.625-0.17188 1.4375 0 2.5039 0.37109 3.2031 1.1094 0.70703 0.74219 1.0625 1.8672 1.0625 3.375z"/>
</symbol>
<symbol id="i" overflow="visible">
<path d="m1.7031-13.719h1.625v13.719h-1.625z"/>
</symbol>
<symbol id="b" overflow="visible"></symbol>
<symbol id="l" overflow="visible">
<path d="m0.76562-9.875h1.6094l2.0312 7.7031 2.0156-7.7031h1.9219l2.0156 7.7031 2.0156-7.7031h1.625l-2.5781 9.875h-1.9062l-2.125-8.0938-2.1406 8.0938h-1.9062z"/>
</symbol>
<symbol id="e" overflow="visible">
<path d="m1.7031-9.875h1.625v9.875h-1.625zm0-3.8438h1.625v2.0625h-1.625z"/>
</symbol>
<symbol id="d" overflow="visible">
<path d="m9.9062-5.9531v5.9531h-1.625v-5.9062c0-0.9375-0.18359-1.6328-0.54688-2.0938-0.36719-0.46875-0.91406-0.70312-1.6406-0.70312-0.875 0-1.5703 0.28125-2.0781 0.84375-0.5 0.5625-0.75 1.3242-0.75 2.2812v5.5781h-1.625v-9.875h1.625v1.5312c0.38281-0.58203 0.83594-1.0195 1.3594-1.3125 0.53125-0.30078 1.1406-0.45312 1.8281-0.45312 1.1328 0 1.9922 0.35547 2.5781 1.0625 0.58203 0.69922 0.875 1.7305 0.875 3.0938z"/>
</symbol>
<symbol id="j" overflow="visible">
<path d="m8.1875-8.375v-5.3438h1.625v13.719h-1.625v-1.4844c-0.33594 0.59375-0.76172 1.0312-1.2812 1.3125-0.52344 0.28125-1.1484 0.42188-1.875 0.42188-1.1875 0-2.1562-0.47266-2.9062-1.4219-0.75-0.94531-1.125-2.1953-1.125-3.75 0-1.5508 0.375-2.8008 1.125-3.75 0.75-0.95703 1.7188-1.4375 2.9062-1.4375 0.72656 0 1.3516 0.14844 1.875 0.4375 0.51953 0.28125 0.94531 0.71484 1.2812 1.2969zm-5.5156 3.4531c0 1.1875 0.24219 2.125 0.73438 2.8125 0.48828 0.67969 1.1602 1.0156 2.0156 1.0156 0.86328 0 1.5391-0.33594 2.0312-1.0156 0.48828-0.6875 0.73438-1.625 0.73438-2.8125 0-1.1953-0.24609-2.1328-0.73438-2.8125-0.49219-0.67578-1.168-1.0156-2.0312-1.0156-0.85547 0-1.5273 0.33984-2.0156 1.0156-0.49219 0.67969-0.73438 1.6172-0.73438 2.8125z"/>
</symbol>
<symbol id="f" overflow="visible">
<path d="m7.4219-8.3594c-0.1875-0.10156-0.39062-0.17578-0.60938-0.21875-0.21094-0.050781-0.44531-0.078125-0.70312-0.078125-0.91797 0-1.6211 0.29688-2.1094 0.89062-0.49219 0.59375-0.73438 1.4492-0.73438 2.5625v5.2031h-1.625v-9.875h1.625v1.5312c0.34375-0.59375 0.78516-1.0352 1.3281-1.3281 0.55078-0.28906 1.2188-0.4375 2-0.4375 0.11328 0 0.23828 0.011719 0.375 0.03125 0.13281 0.011719 0.28125 0.03125 0.4375 0.0625z"/>
</symbol>
<symbol id="n" overflow="visible">
<path d="m1.5312-3.8906v-5.9844h1.625v5.9219c0 0.92969 0.17969 1.625 0.54688 2.0938 0.36328 0.46875 0.91016 0.70312 1.6406 0.70312 0.875 0 1.5625-0.27344 2.0625-0.82812 0.50781-0.5625 0.76562-1.3281 0.76562-2.2969v-5.5938h1.625v9.875h-1.625v-1.5156c-0.38672 0.60547-0.83984 1.0547-1.3594 1.3438-0.52344 0.28125-1.125 0.42188-1.8125 0.42188-1.1367 0-2-0.34766-2.5938-1.0469-0.58594-0.70703-0.875-1.7383-0.875-3.0938z"/>
</symbol>
<symbol id="c" overflow="visible">
<path d="m10.141-5.3438v0.79688h-7.4531c0.070312 1.1172 0.40625 1.9648 1 2.5469 0.60156 0.58594 1.4453 0.875 2.5312 0.875 0.61328 0 1.2109-0.070312 1.7969-0.21875 0.59375-0.15625 1.1758-0.38281 1.75-0.6875v1.5312c-0.58594 0.25-1.1836 0.4375-1.7969 0.5625-0.60547 0.125-1.2266 0.1875-1.8594 0.1875-1.5742 0-2.8203-0.45703-3.7344-1.375-0.91797-0.91406-1.375-2.1562-1.375-3.7188 0-1.6133 0.42969-2.8945 1.2969-3.8438 0.875-0.94531 2.0508-1.4219 3.5312-1.4219 1.332 0 2.3828 0.42969 3.1562 1.2812 0.76953 0.85547 1.1562 2.0156 1.1562 3.4844zm-1.625-0.46875c-0.011719-0.88281-0.26172-1.5938-0.75-2.125-0.48047-0.53125-1.1211-0.79688-1.9219-0.79688-0.89844 0-1.6211 0.25781-2.1719 0.76562-0.54297 0.51172-0.85547 1.2305-0.9375 2.1562z"/>
</symbol>
<symbol id="q" overflow="visible">
<path d="m8-9.5781v1.5312c-0.46094-0.22656-0.9375-0.39844-1.4375-0.51562-0.49219-0.125-1-0.1875-1.5312-0.1875-0.80469 0-1.4062 0.125-1.8125 0.375-0.40625 0.24219-0.60938 0.60938-0.60938 1.1094 0 0.375 0.14453 0.67188 0.4375 0.89062 0.28906 0.21094 0.86719 0.41406 1.7344 0.60938l0.5625 0.10938c1.1445 0.25 1.957 0.60156 2.4375 1.0469 0.48828 0.44922 0.73438 1.0781 0.73438 1.8906 0 0.91797-0.36719 1.6406-1.0938 2.1719-0.71875 0.53125-1.7148 0.79688-2.9844 0.79688-0.53125 0-1.0859-0.054688-1.6562-0.15625-0.5625-0.09375-1.1641-0.24219-1.7969-0.45312v-1.6719c0.59375 0.3125 1.1797 0.54688 1.7656 0.70312 0.58203 0.15625 1.1562 0.23438 1.7188 0.23438 0.76953 0 1.3594-0.12891 1.7656-0.39062 0.41406-0.26953 0.625-0.64062 0.625-1.1094 0-0.44531-0.15234-0.78516-0.45312-1.0156-0.29297-0.23828-0.94531-0.46875-1.9531-0.6875l-0.5625-0.125c-1-0.20703-1.7266-0.53125-2.1719-0.96875-0.44922-0.4375-0.67188-1.0391-0.67188-1.8125 0-0.92578 0.32812-1.6406 0.98438-2.1406 0.65625-0.50781 1.5938-0.76562 2.8125-0.76562 0.59375 0 1.1562 0.046875 1.6875 0.14062 0.53125 0.085938 1.0195 0.21484 1.4688 0.39062z"/>
</symbol>
<symbol id="h" overflow="visible">
<path d="m3.2969-12.672v2.7969h3.3438v1.2656h-3.3438v5.3594c0 0.80469 0.10938 1.3203 0.32812 1.5469 0.22656 0.23047 0.67969 0.34375 1.3594 0.34375h1.6562v1.3594h-1.6562c-1.25 0-2.1172-0.23438-2.5938-0.70312-0.48047-0.46875-0.71875-1.3164-0.71875-2.5469v-5.3594h-1.1875v-1.2656h1.1875v-2.7969z"/>
</symbol>
<symbol id="s" overflow="visible">
<path d="m8.7812-4.9219c0-1.1953-0.24609-2.1328-0.73438-2.8125-0.49219-0.67578-1.1641-1.0156-2.0156-1.0156-0.86719 0-1.543 0.33984-2.0312 1.0156-0.49219 0.67969-0.73438 1.6172-0.73438 2.8125 0 1.1875 0.24219 2.125 0.73438 2.8125 0.48828 0.67969 1.1641 1.0156 2.0312 1.0156 0.85156 0 1.5234-0.33594 2.0156-1.0156 0.48828-0.6875 0.73438-1.625 0.73438-2.8125zm-5.5156-3.4531c0.34375-0.58203 0.77344-1.0156 1.2969-1.2969 0.51953-0.28906 1.1406-0.4375 1.8594-0.4375 1.1953 0 2.1719 0.48047 2.9219 1.4375 0.75 0.94922 1.125 2.1992 1.125 3.75 0 1.5547-0.375 2.8047-1.125 3.75-0.75 0.94922-1.7266 1.4219-2.9219 1.4219-0.71875 0-1.3398-0.14062-1.8594-0.42188-0.52344-0.28125-0.95312-0.71875-1.2969-1.3125v1.4844h-1.625v-13.719h1.625z"/>
</symbol>
<symbol id="k" overflow="visible">
<path d="m8.7969-9.4844v1.5156c-0.46094-0.25781-0.91797-0.45312-1.375-0.57812-0.46094-0.125-0.92188-0.1875-1.3906-0.1875-1.0547 0-1.8711 0.33594-2.4531 1-0.58594 0.66797-0.875 1.6055-0.875 2.8125 0 1.1992 0.28906 2.1328 0.875 2.7969 0.58203 0.66797 1.3984 1 2.4531 1 0.46875 0 0.92969-0.0625 1.3906-0.1875 0.45703-0.125 0.91406-0.3125 1.375-0.5625v1.5c-0.44922 0.21094-0.91797 0.36719-1.4062 0.46875-0.48047 0.10156-0.99609 0.15625-1.5469 0.15625-1.4805 0-2.6562-0.46094-3.5312-1.3906-0.875-0.9375-1.3125-2.1953-1.3125-3.7812 0-1.6133 0.4375-2.8789 1.3125-3.7969 0.88281-0.92578 2.0977-1.3906 3.6406-1.3906 0.5 0 0.98828 0.054687 1.4688 0.15625 0.47656 0.10547 0.9375 0.26172 1.375 0.46875z"/>
</symbol>
<symbol id="ag" overflow="visible">
<path d="m5.8125 0.92188c-0.46094 1.1641-0.90625 1.9258-1.3438 2.2812-0.4375 0.36328-1.0234 0.54688-1.75 0.54688h-1.2969v-1.3594h0.95312c0.44531 0 0.79688-0.10547 1.0469-0.3125 0.25-0.21094 0.51953-0.71094 0.8125-1.5l0.29688-0.73438-4-9.7188h1.7188l3.0938 7.7188 3.0781-7.7188h1.7188z"/>
</symbol>
<symbol id="p" overflow="visible">
<path d="m9.3906-7.9688c0.40625-0.72656 0.89062-1.2656 1.4531-1.6094 0.5625-0.35156 1.2227-0.53125 1.9844-0.53125 1.0312 0 1.8203 0.35938 2.375 1.0781 0.5625 0.71875 0.84375 1.7461 0.84375 3.0781v5.9531h-1.625v-5.9062c0-0.94531-0.17188-1.6484-0.51562-2.1094-0.33594-0.45703-0.84375-0.6875-1.5312-0.6875-0.83594 0-1.4961 0.28125-1.9844 0.84375-0.49219 0.5625-0.73438 1.3242-0.73438 2.2812v5.5781h-1.625v-5.9062c0-0.94531-0.17188-1.6484-0.51562-2.1094-0.33594-0.45703-0.85156-0.6875-1.5469-0.6875-0.82422 0-1.4805 0.28125-1.9688 0.84375-0.49219 0.5625-0.73438 1.3242-0.73438 2.2812v5.5781h-1.625v-9.875h1.625v1.5312c0.375-0.60156 0.81641-1.0469 1.3281-1.3281 0.51953-0.28906 1.1328-0.4375 1.8438-0.4375 0.71875 0 1.3281 0.18359 1.8281 0.54688 0.50781 0.36719 0.88281 0.89844 1.125 1.5938z"/>
</symbol>
<symbol id="m" overflow="visible">
<path d="m3.2656-1.4844v5.2344h-1.625v-13.625h1.625v1.5c0.34375-0.58203 0.77344-1.0156 1.2969-1.2969 0.51953-0.28906 1.1406-0.4375 1.8594-0.4375 1.1953 0 2.1719 0.48047 2.9219 1.4375 0.75 0.94922 1.125 2.1992 1.125 3.75 0 1.5547-0.375 2.8047-1.125 3.75-0.75 0.94922-1.7266 1.4219-2.9219 1.4219-0.71875 0-1.3398-0.14062-1.8594-0.42188-0.52344-0.28125-0.95312-0.71875-1.2969-1.3125zm5.5156-3.4375c0-1.1953-0.24609-2.1328-0.73438-2.8125-0.49219-0.67578-1.1641-1.0156-2.0156-1.0156-0.86719 0-1.543 0.33984-2.0312 1.0156-0.49219 0.67969-0.73438 1.6172-0.73438 2.8125 0 1.1875 0.24219 2.125 0.73438 2.8125 0.48828 0.67969 1.1641 1.0156 2.0312 1.0156 0.85156 0 1.5234-0.33594 2.0156-1.0156 0.48828-0.6875 0.73438-1.625 0.73438-2.8125z"/>
</symbol>
<symbol id="r" overflow="visible">
<path d="m8.1875-5.0469c0-1.1758-0.24609-2.0859-0.73438-2.7344-0.48047-0.64453-1.1562-0.96875-2.0312-0.96875-0.86719 0-1.543 0.32422-2.0312 0.96875-0.48047 0.64844-0.71875 1.5586-0.71875 2.7344 0 1.168 0.23828 2.0742 0.71875 2.7188 0.48828 0.64844 1.1641 0.96875 2.0312 0.96875 0.875 0 1.5508-0.32031 2.0312-0.96875 0.48828-0.64453 0.73438-1.5508 0.73438-2.7188zm1.625 3.8281c0 1.6758-0.375 2.9219-1.125 3.7344-0.74219 0.82031-1.8828 1.2344-3.4219 1.2344-0.5625 0-1.1016-0.042969-1.6094-0.125-0.5-0.085938-0.99219-0.21484-1.4688-0.39062v-1.5781c0.47656 0.25781 0.94531 0.45312 1.4062 0.57812 0.46875 0.125 0.94141 0.1875 1.4219 0.1875 1.0625 0 1.8516-0.28125 2.375-0.84375 0.53125-0.55469 0.79688-1.3906 0.79688-2.5156v-0.79688c-0.33594 0.58594-0.76172 1.0234-1.2812 1.3125-0.52344 0.28125-1.1484 0.42188-1.875 0.42188-1.2109 0-2.1836-0.45703-2.9219-1.375-0.74219-0.92578-1.1094-2.1484-1.1094-3.6719 0-1.5312 0.36719-2.7539 1.1094-3.6719 0.73828-0.92578 1.7109-1.3906 2.9219-1.3906 0.72656 0 1.3516 0.14844 1.875 0.4375 0.51953 0.28125 0.94531 0.71484 1.2812 1.2969v-1.5h1.625z"/>
</symbol>
<symbol id="af" overflow="visible">
<path d="m8.2969-11.312v4.9062h4.9062v1.5h-4.9062v4.9062h-1.4688v-4.9062h-4.9219v-1.5h4.9219v-4.9062z"/>
</symbol>
<symbol id="ae" overflow="visible">
<path d="m6.7031-13.719v1.3594h-1.5625c-0.57422 0-0.97656 0.12109-1.2031 0.35938-0.23047 0.23047-0.34375 0.65234-0.34375 1.2656v0.85938h2.6719v1.2656h-2.6719v8.6094h-1.625v-8.6094h-1.5469v-1.2656h1.5469v-0.6875c0-1.0938 0.25391-1.8906 0.76562-2.3906 0.50781-0.50781 1.3164-0.76562 2.4219-0.76562z"/>
</symbol>
<symbol id="ad" overflow="visible">
<path d="m11.625-12.141v1.875c-0.60547-0.5625-1.2461-0.97656-1.9219-1.25-0.67969-0.28125-1.3984-0.42188-2.1562-0.42188-1.5117 0-2.668 0.46484-3.4688 1.3906-0.79297 0.91797-1.1875 2.2461-1.1875 3.9844 0 1.7305 0.39453 3.0586 1.1875 3.9844 0.80078 0.91797 1.957 1.375 3.4688 1.375 0.75781 0 1.4766-0.13281 2.1562-0.40625 0.67578-0.28125 1.3164-0.70312 1.9219-1.2656v1.8594c-0.625 0.42969-1.2891 0.74609-1.9844 0.95312-0.69922 0.20703-1.4336 0.3125-2.2031 0.3125-1.9922 0-3.5586-0.60938-4.7031-1.8281-1.1484-1.2188-1.7188-2.8789-1.7188-4.9844 0-2.1133 0.57031-3.7812 1.7188-5 1.1445-1.2188 2.7109-1.8281 4.7031-1.8281 0.78906 0 1.5312 0.10547 2.2188 0.3125 0.69531 0.21094 1.3516 0.52344 1.9688 0.9375z"/>
</symbol>
<symbol id="ac" overflow="visible">
<path d="m1.9062-8.1875h11.297v1.4688h-11.297zm0 3.5938h11.297v1.4844h-11.297z"/>
</symbol>
<symbol id="ab" overflow="visible">
<path d="m9.9062-5.9531v5.9531h-1.625v-5.9062c0-0.9375-0.18359-1.6328-0.54688-2.0938-0.36719-0.46875-0.91406-0.70312-1.6406-0.70312-0.875 0-1.5703 0.28125-2.0781 0.84375-0.5 0.5625-0.75 1.3242-0.75 2.2812v5.5781h-1.625v-13.719h1.625v5.375c0.38281-0.58203 0.83594-1.0195 1.3594-1.3125 0.53125-0.30078 1.1406-0.45312 1.8281-0.45312 1.1328 0 1.9922 0.35547 2.5781 1.0625 0.58203 0.69922 0.875 1.7305 0.875 3.0938z"/>
</symbol>
<symbol id="aa" overflow="visible">
<path d="m1-9.875h7.7031v1.4844l-6.1094 7.0938h6.1094v1.2969h-7.9219v-1.4844l6.0938-7.0938h-5.875z"/>
</symbol>
<symbol id="z" overflow="visible">
<path d="m1.6406-13.719h1.625v8.1094l4.8438-4.2656h2.0625l-5.2344 4.625 5.4531 5.25h-2.1094l-5.0156-4.8125v4.8125h-1.625z"/>
</symbol>
<linearGradient id="y" x1="218.62" x2="218.62" y1="165.19" y2="29.812" gradientTransform="translate(-8.88e-16)" gradientUnits="userSpaceOnUse">
<stop stop-color="#6391af" offset="0"/>
<stop stop-color="#427a9c" offset=".5"/>
<stop stop-color="#6897b6" offset="1"/>
</linearGradient>
<radialGradient id="u" cx="108.38" cy="97.357" r="56.005" gradientTransform="matrix(1 0 0 1.206 -8.88e-16 -20.059)" gradientUnits="userSpaceOnUse">
<stop stop-color="#829baf" offset="0"/>
<stop stop-color="#4b86ad" offset=".99018"/>
</radialGradient>
<linearGradient id="x" x1="208.1" x2="208.1" y1="165.19" y2="30.375" gradientTransform="translate(-8.88e-16)" gradientUnits="userSpaceOnUse">
<stop stop-color="#4983df" offset="0"/>
<stop stop-color="#6e9adf" offset=".72287"/>
<stop stop-color="#4a82df" offset="1"/>
</linearGradient>
<linearGradient id="w" x1="218.62" x2="218.62" y1="165.19" y2="29.812" gradientTransform="translate(-8.88e-16 172.01)" gradientUnits="userSpaceOnUse">
<stop stop-color="#6391af" offset="0"/>
<stop stop-color="#427a9c" offset=".5"/>
<stop stop-color="#6897b6" offset="1"/>
</linearGradient>
<radialGradient id="t" cx="108.38" cy="97.357" r="56.005" gradientTransform="matrix(1 0 0 1.206 -8.88e-16 151.95)" gradientUnits="userSpaceOnUse">
<stop stop-color="#829baf" offset="0"/>
<stop stop-color="#4b86ad" offset=".99018"/>
</radialGradient>
<linearGradient id="v" x1="208.1" x2="208.1" y1="165.19" y2="30.375" gradientTransform="translate(1e-5 172.01)" gradientUnits="userSpaceOnUse">
<stop stop-color="#4983df" offset="0"/>
<stop stop-color="#6e9adf" offset=".72287"/>
<stop stop-color="#4a82df" offset="1"/>
</linearGradient>
</defs>
<path transform="matrix(1.8054 0 0 1.8049 -13.369 18.465)" d="m108.37 30.375h220.5v134.25h-220.5c51.246-7.5142 67.677-122.63 0-134.25zm0 0" fill="url(#y)" stroke="#000" stroke-linecap="round" stroke-width="1.125"/>
<path transform="matrix(1.8054 0 0 1.8049 -13.369 18.465)" d="m108.37 30.375c-30.62 0-55.442 29.99-55.442 66.983s24.821 66.981 55.442 66.981 55.444-29.988 55.444-66.981-24.824-66.983-55.444-66.983zm-0.53875 22.277c5.6515-0.019478 8.9359 5.1011 9.7732 12.492 0.89143 7.8865-1.2463 15.34-7.7134 16.137-6.4672 0.79644-12.432-4.9496-13.326-12.836-0.89143-7.8843 3.6285-14.92 10.096-15.717 0.40244-0.049777 0.7919-0.075748 1.1705-0.075748zm0.04111 66.455c4.9829 0.004329 6.7614 4.9345 7.5101 11.546 0.79623 7.0511 0.12333 13.345-5.6601 14.057-5.7856 0.71204-11.121-4.4259-11.92-11.477-0.79839-7.0533 3.2433-13.347 9.0268-14.059 0.36133-0.045449 0.70968-0.067092 1.0429-0.067092zm0 0" fill="url(#u)" stroke="#000" stroke-linecap="round" stroke-width="1.125"/>
<path transform="matrix(1.8054 0 0 1.8049 -13.369 18.465)" d="m22.349 69.693c5.0456-4.5882 5.9349-2.5603 9.7343 2.1859 3.8015 4.744 7.7762 12.592 14.884-1.8266 7.1098-14.418 12.333-10.211 18.616 0.27053" fill="none" stroke="#336cb3" stroke-linecap="round" stroke-width="5"/>
<path d="m181.64 233.45c-0.023437 0-0.046875 0.003907-0.066406 0.003907 0.058594 0 0.12109 0.003906 0.17969 0.007812-0.039062-0.003906-0.078124-0.007812-0.11328-0.011719zm1.5273 0.12891c7.6484 1.1211 10.52 9.5977 11.777 20.707 1.3477 11.93 0.36328 22.66-8.3672 25.016 9.918 0.070313 13.699-11.859 12.121-25.234-2.0469-12.398-7.8477-21.98-15.531-20.488zm-5.7148 0.38281c-0.042969 0.011719-0.082031 0.023438-0.125 0.035157 0.042969-0.007813 0.082031-0.023438 0.125-0.035157zm-2.0547 0.69141c-0.023438 0.011718-0.046875 0.019531-0.070313 0.03125 0.023438-0.011719 0.046875-0.023438 0.070313-0.03125zm-5.5273 3.6641-0.058594 0.058594 0.058594-0.058594zm-1.5156 1.6523c-0.039063 0.046875-0.078125 0.097656-0.11719 0.14453 0.039062-0.046875 0.078124-0.097656 0.11719-0.14453zm-2.5938 3.9961c-0.039063 0.074218-0.078125 0.15234-0.11328 0.23047 0.035156-0.078125 0.074218-0.15625 0.11328-0.23047zm-2.6562 9.7383c-0.003906 0.035156-0.003906 0.066406-0.003906 0.097656 0-0.03125 0-0.0625 0.003906-0.097656zm-0.070313 2.5469v0.15234c0-0.050782 0.003907-0.10156 0-0.15234zm0.17188 2.6914c0.042968 0.35547 0.089843 0.71484 0.14453 1.0703-0.054688-0.35156-0.10156-0.71094-0.14453-1.0703zm0.20312 1.4219c0.03125 0.21094 0.070313 0.41797 0.10938 0.625-0.039063-0.20703-0.074219-0.41406-0.10938-0.625zm0.21094 1.1523c0.027344 0.13672 0.058594 0.26953 0.089844 0.40234-0.03125-0.13281-0.0625-0.26562-0.089844-0.40234zm2.3242 6.6758c0.042969 0.085938 0.082031 0.16797 0.125 0.25-0.042969-0.082031-0.082031-0.16406-0.125-0.25zm2.1953 3.5664c0.089844 0.125 0.18359 0.24609 0.27344 0.36719-0.089844-0.12109-0.18359-0.24609-0.27344-0.36719zm0.55469 0.71484c0.12109 0.15234 0.24609 0.30469 0.37109 0.44922-0.125-0.14453-0.25-0.29688-0.37109-0.44922zm0.59375 0.71094c0.13672 0.15625 0.27344 0.30859 0.41406 0.45703-0.14062-0.14844-0.27734-0.30078-0.41406-0.45703zm0.65625 0.71875c0.21094 0.22266 0.42578 0.44141 0.64453 0.65234-0.21875-0.21094-0.43359-0.42969-0.64453-0.65234zm1.5898 1.5039c0.15234 0.12891 0.30078 0.25391 0.45313 0.375-0.15234-0.12109-0.30469-0.25-0.45313-0.375zm0.72656 0.59375c0.14453 0.10547 0.28516 0.21484 0.42578 0.31641-0.14062-0.10156-0.28125-0.20703-0.42578-0.31641zm0.75391 0.55469c0.125 0.085938 0.25 0.17188 0.37891 0.25391-0.12891-0.082032-0.25391-0.16406-0.37891-0.25391zm2.7188 1.5859c0.078125 0.039062 0.15625 0.078125 0.23438 0.11328-0.078125-0.035156-0.15625-0.074219-0.23438-0.11328zm8.9922 1.5156c-0.29688 0.039062-0.59375 0.0625-0.89062 0.082031 0.29688-0.015625 0.59375-0.046875 0.89062-0.082031zm-1.1289 0.097656c-0.21484 0.011719-0.42969 0.015625-0.64062 0.015625 0.21094 0 0.42578-0.007813 0.64062-0.015625zm-1.4102 0.003906c0.13672 0.007813 0.27734 0.011719 0.41797 0.011719-0.14062 0-0.28125-0.007813-0.41797-0.011719z" fill="#242729"/>
<path transform="matrix(1.8054 0 0 1.8049 -13.369 18.465)" d="m134.9 113.98c-2.1875 1.0497-4.3684 1.0908-12.121 1.1362-12.618 0.077912-50.952 0-50.952 0v-3.5147c-0.97797-5.1184 56.757-13.511 85.841-20.097 13.387 0.088734 32.725-1.0432 42.856-0.69256 30.549-6.826 68.975-16.028 70.44-15.637 5.487 4.6423 5.9522 12.615 6.4499 12.291 12.895-3.0278 22.606-5.1271 23.264-4.7851 1.943 1.0064 3.8838 2.0149 3.8838 2.0149s4.2602 3.0949 11.712 3.1555c7.4495 0.060599 12.082 0.090899 12.082 0.090899l0.14929 26.94h-95.337 0.30508l-37.78 12.353c-2.7954 0.83756-6.3893-1.6383-8.9143-10.315l0.028128 0.095226c-9.1003 3.0234-25.947 9.6309-27.093 8.9556-3.12 0.71636-6.3979-2.5365-8.9554-9.4058-1.1446-3.0711-1.9019-5.482-3.0291-6.8109" fill="#efd25a" stroke="#242729" stroke-linecap="round" stroke-width="1.125"/>
<path transform="matrix(1.8054 0 0 1.8049 -13.369 18.465)" d="m210.06 104.23c8.3041-2.4131 88.669-22.564 90.61-21.558 1.6509 0.45882 3.8816 2.0106 3.8838 2.0149 0 0 4.2602 3.0949 11.712 3.1555 7.4495 0.060599 12.082 0.090899 12.082 0.090899l0.14929 23.426m-256.68 0.23374c-0.97797-5.1184 56.757-13.511 85.841-20.097 13.387 0.088734 32.725-1.0432 43.195-0.70771m-129.04 20.805s38.334 0.077912 50.952 0c12.618-0.075749 10.476-0.13418 17.636-4.5579 7.1617-4.4215 9.8382 0.38956 12.398 7.2589 2.5574 6.8693 4.0807 8.7717 6.8263 8.5834 1.93-0.42636 3.6999 0.145 9.2648-16.864 5.4611-16.693 16.31-11.018 18.763 1.9889 2.4558 13.005 4.7233 16.699 8.025 15.71 3.3017-0.99122 4.9007-2.4651 7.6009-12.241 1.4626-5.3002 4.0655-7.2177 6.7744-7.2416 2.2892-0.021643 4.6475 1.3029 6.4953 3.1382 2.3476 2.3352 3.2412 2.5495 5.037 3.5364 4.9851 1.37 106.9 0.45449 106.9 0.45449v3.5147h-102.97s-7.6875 0.13635-10.07-3.9909c-2.3822-4.1272-7.3197-6.6637-10.02 3.1122-2.7002 9.7759-6.452 12.241-9.7538 13.232-3.3017 0.98906-7.7134-2.6425-10.169-15.647-2.4536-13.007-9.9874-19.58-14.763-2.6772-4.7752 16.901-7.9276 16.342-11.048 17.061-3.12 0.71636-6.3979-2.5365-8.9554-9.4058-2.5596-6.8693-3.1806-10.427-10.342-6.0058-7.1595 4.4215-5.0175 4.48-17.636 4.5557-12.618 0.077912-50.952 0-50.952 0zm105.92-15.989c29.956-5.9755 91.36-20.935 93.219-20.437 5.5 4.6531 5.9544 12.652 6.4174 12.302l-67.314 16.762" fill="#efd25a" stroke="#242729" stroke-linecap="round" stroke-width="1.125"/>
<path transform="matrix(1.8054 0 0 1.8049 -13.369 18.465)" d="m134.95 113.95 12.753-4.2073" fill="none" stroke="#242729" stroke-linecap="round" stroke-width="1.125"/>
<path d="m181.77 113.5-0.035156 0.003906h0.070313c-0.011719 0-0.023438 0-0.035157-0.003906zm1.2852 0.20312c8.4492 1.4727 13.312 10.551 14.691 22.723 1.5039 13.301-0.71094 25.586-10.539 28.305 9.7891 1.5039 15.434-14.699 13.68-28.305-0.62891-12.906-7.2852-23.859-17.832-22.723zm-6.2969 0.41016c-0.058593 0.015624-0.12109 0.03125-0.17969 0.050781 0.058594-0.019531 0.12109-0.035157 0.17969-0.050781zm-7.0156 3.6523c-0.019532 0.011719-0.035157 0.027344-0.054688 0.039063 0.019531-0.011719 0.039062-0.023438 0.054688-0.039063zm-1.9961 1.8672c-0.03125 0.03125-0.058594 0.0625-0.089844 0.09375 0.03125-0.03125 0.058594-0.0625 0.089844-0.09375zm-1.7656 2.125c-0.035157 0.046875-0.070313 0.09375-0.10547 0.13672 0.035156-0.046876 0.070312-0.089844 0.10547-0.13672zm-1.5898 2.4492c-0.023437 0.042968-0.046875 0.085937-0.070313 0.12891 0.023438-0.042969 0.046876-0.085938 0.070313-0.12891zm-3.6055 14.598v0.125-0.125zm0.19141 3.1914c0.042969 0.37891 0.09375 0.75391 0.15234 1.1289-0.054687-0.375-0.10938-0.75-0.15234-1.1289zm0.26953 1.832c0.023437 0.15234 0.050781 0.30078 0.078125 0.44922-0.027344-0.14844-0.054688-0.29688-0.078125-0.44922zm0.22266 1.1602c0.027344 0.13281 0.054688 0.26953 0.085938 0.40234-0.03125-0.13281-0.058594-0.26562-0.085938-0.40234zm4.3555 10.391c0.089843 0.13672 0.18359 0.27344 0.27734 0.41016-0.09375-0.13672-0.18359-0.27344-0.27734-0.41016zm0.61719 0.87891c0.097656 0.13281 0.19922 0.26562 0.29688 0.39453-0.097656-0.12891-0.19922-0.26172-0.29688-0.39453zm0.64844 0.83984c0.11719 0.14844 0.23828 0.29688 0.35938 0.44141-0.12109-0.14453-0.24219-0.29297-0.35938-0.44141zm0.6875 0.82813c0.14453 0.16406 0.29297 0.32422 0.44141 0.48437-0.14844-0.16016-0.29688-0.32031-0.44141-0.48437zm0.70703 0.77734c0.24609 0.25781 0.49609 0.51172 0.75 0.75391-0.25391-0.24219-0.50391-0.49609-0.75-0.75391zm0.75 0.75391c0.25391 0.24219 0.50781 0.47656 0.76953 0.70703-0.26172-0.23047-0.51953-0.46484-0.76953-0.70703zm1.0859 0.97656c0.15234 0.12891 0.30469 0.25781 0.45703 0.38281-0.15234-0.125-0.30469-0.25391-0.45703-0.38281zm0.89453 0.72266 0.375 0.28125-0.375-0.28125zm0.83984 0.61328c0.12109 0.082031 0.24219 0.16406 0.35937 0.24609-0.12109-0.082031-0.23828-0.16406-0.35937-0.24609zm0.83984 0.55859c0.10156 0.0625 0.20312 0.12109 0.30469 0.18359-0.10156-0.0625-0.20312-0.12109-0.30469-0.18359zm12.141 2.8359c-0.32422 0.039062-0.64453 0.066406-0.96875 0.089843 0.32422-0.023437 0.64844-0.050781 0.96875-0.089843zm-1.3828 0.10938c-0.19531 0.007812-0.39453 0.015625-0.58984 0.015625 0.19531 0 0.39453-0.007813 0.58984-0.015625zm-1.4844 0c0.14844 0.007812 0.29688 0.011718 0.44141 0.015625-0.14453-0.003907-0.29297-0.007813-0.44141-0.015625z" fill="#242729"/>
<path transform="matrix(1.8054 0 0 1.8049 -13.369 18.465)" d="m144.42 73.379c5.0456-4.5882 5.9349-2.5603 9.7343 2.1837 3.8015 4.7462 7.7762 12.592 14.886-1.8245 7.1076-14.418 12.331-10.213 18.614 0.27053 6.2811 10.484 11.437 11.105 17.768 0.25971 6.3309-10.845 14.758 0.28135 25.663 0.70338" fill="none" stroke="#336cb3" stroke-linecap="round" stroke-width="5"/>
<path d="m394.07 140.41 52.586 12.621-52.113 14.449c9.3789-8.0508 9.1836-19.32-0.47266-27.07z" fill-rule="evenodd"/>
<path transform="matrix(1.8054 0 0 1.8049 -13.369 18.465)" d="m108.37 30.375c-30.62 0-55.442 29.99-55.442 66.983s24.824 66.981 55.442 66.981c0.63612 0 1.2636-0.032464 1.8932-0.056271-0.62746 0.12553-1.2549 0.24889-1.8932 0.34195h220.5v-134.25zm-9.321 16.842c0.56904-0.019478 1.1359 0.045449 1.692 0.15366 2.5748 0.59517 4.773 2.1686 6.9518 3.5905 3.5679 2.3634 6.928 5.099 10.814 6.9407 4.7709 2.2595 10.331 2.1015 15.317 0.67092 4.1109-1.2098 7.9969-3.123 12.199-4.0406 5.4459-1.186 11.4-1.3765 16.548 1.054 3.5982 1.9954 7.2201 4.1359 11.279 5.0535 5.8657 1.515 12.396 0.088734 17.071-3.7679 2.8971-2.807 6.3568-5.0687 10.199-6.3391 7.4798-2.3114 15.578-2.1794 23.147-0.34628 3.9465 0.75099 7.5793 2.5538 11.061 4.4951 2.7478 1.6124 5.6255 3.0862 8.765 3.7485 5.2685 1.2488 10.708-0.04112 15.756-1.6297 5.1733-1.5669 10.381-3.716 15.89-3.9562 4.5783-0.21426 9.0073 1.5041 12.83 3.9043 1.5881 1.0172 3.2585 1.9175 4.7579 3.0646 3.0594 2.5278 5.4524 6.3369 6.6359 9.9923 3.9898 10.709 4.7427 21.679 3.4467 32.39-1.2592 10.044-5.0045 20.396-10.79 28.774-2.2069 3.0126-5.9825 5.5967-9.0809 7.7653-6.4845 3.9909-14.369 5.2743-21.872 4.4562-4.7276-0.44367-9.0657-2.5603-13.672-3.5407-4.8509-1.0107-9.8533-0.034628-14.455 1.5929-3.9552 1.3007-7.9017 3.0559-12.095 3.7203-5.1517 0.896-10.435-0.25105-15.185-2.2811-3.4207-1.4068-6.5169-3.4433-9.6954-5.3046-6.0777-3.4541-13.11-5.7266-20.165-4.9691-6.4845 0.61464-12.441 3.4347-18.605 5.3067-4.7276 1.4306-9.836 1.8807-14.657 0.63412-6.8783-1.8526-12.887-6.0469-19.83-7.7199-3.6285-1.0605-7.6745-0.92413-11.076 0.81592-3.4251 1.7444-6.9648 3.3784-10.771 4.0796-4.6302 0.81376-9.4314 1.2379-14.075 0.29434-4.2516-0.73151-8.1418-3.281-10.474-6.9148-2.8993-4.77-3.5787-10.553-3.2022-16.033 0.14496-3.5688 1.084-7.0273 1.8369-10.501 1.454-6.5014 0.24449-13.18-0.97797-19.612-0.5301-3.2117-1.4129-6.6053-0.2856-9.7932 1.097-2.3893 3.3991-3.8718 5.2079-5.6811 3.9379-4.6423 7.0341-9.9209 10.963-14.574 2.1572-2.6728 5.0218-5.2093 8.5962-5.4928zm0 0" fill="url(#x)" stroke="#000" stroke-linecap="round" stroke-width="1.125"/>
<path transform="matrix(1.8054 0 0 1.8049 -13.369 18.465)" d="m98.988 44.951c-12.223 2.3807-15.161 16.578-24.213 23.333-7.7675 10.057 1.9538 22.556-1.5189 33.723-2.4969 10.62-4.0439 24.066 5.2252 31.981 9.585 7.8324 23.155 5.0189 33.394 0.060599 14.577-6.4105 26.619 10.512 41.274 7.0316 12.084-2.4283 24.841-10.566 37.074-4.1986 10.481 4.757 21.215 13.628 33.439 9.8906 10.769-3.7788 22.599-8.0099 33.457-2.0755 14.051 3.6229 31.17-1.7487 37.412-15.656 11.504-19.918 13.014-45.505 3.7756-66.546-7.4322-11.492-23.707-14.749-35.705-8.9059-9.7689 4.5644-20.899 3.7095-29.534-2.7378-11.803-5.1487-26.723-6.6572-38.024 0.27702-7.43 7.6354-21.005 10.934-29.59 3.307-11.262-6.4689-24.246-0.99772-35.326 2.9044-11.658 1.8872-19.384-9.1742-29.536-12.302-0.53442-0.028136-1.0688-0.058435-1.6033-0.08657zm0.064909 2.266c11.041 2.201 18.733 15.048 30.949 12.172 10.918-2.7053 23.151-9.4296 34.024-2.965 8.8991 6.7308 22.554 6.0426 30.315-2.1513 14.083-10.066 33.026-5.1141 46.625 3.2767 14.652 5.8153 28.837-9.343 43.457-3.0646 12.789 4.0341 18.638 18.868 18.91 30.888 1.6098 19.457-4.2148 45.579-20.62 53.79-10.825 6.588-24.272 4.3956-35.547 0.32031-13.387-1.8915-26.096 10.646-39.253 3.7874-11.015-4.7895-21.998-14.013-34.792-10.308-11.377 2.6101-23.789 10.04-35.205 3.4606-9.1934-4.8392-21.336-9.5032-30.769-2.6793-10.206 4.2765-25.497 4.5709-31.206-6.7373-6.6013-12.996 3.2974-26.934-0.79623-40.24-5.5628-12.633 5.8332-20.443 11.842-29.67 2.9382-4.3242 6.6641-8.7955 12.067-9.8798zm0 0" fill="#2a3853" stroke="#232323" stroke-linecap="round" stroke-width="1.125"/>
<path transform="matrix(1.8054 0 0 1.8049 -13.369 18.465)" d="m100.75 69.011c2.618 1.1276 5.4503 2.1664 8.2695 2.2768" fill="none" stroke="#336cb3" stroke-linecap="round" stroke-width="5"/>
<path d="m173.69 133.76 52.586 12.621-52.113 14.449c9.3789-8.0508 9.1836-19.316-0.47266-27.07z" fill-rule="evenodd"/>
<path transform="matrix(1.8054 0 0 1.8049 -13.369 18.465)" d="m145.43 105.34 27.937-7.484" fill="#efd25a" stroke="#242729" stroke-linecap="round" stroke-width="1.125"/>
<path d="m162.55 145.3c5.8867 2.625 12.254 6.0117 20.715 6.3398 2.4922 0.097656 4.5938-1.8438 4.6875-4.3359 0.09375-2.4922-1.8477-4.5859-4.3359-4.6836-6.293-0.24219-13.758-4.0664-20.559-6.918-0.48828-0.20312-0.62891-0.25-1.1445-0.27344-0.41016 4.6914 0.19531 7.9141 0.63672 9.8711z" fill="#336cb3"/>
<path d="m174.46 133.24 51.793 15.547-52.84 11.504c9.8164-7.5117 10.254-18.773 1.0469-27.051z" fill-rule="evenodd"/>
<path transform="matrix(1.8054 0 0 1.8049 -13.369 101.67)" d="m108.37 202.39h220.5v134.25h-220.5c51.246-7.5142 67.677-122.63 0-134.25zm0 0" fill="url(#w)" stroke="#000" stroke-linecap="round" stroke-width="1.125"/>
<path transform="matrix(1.8054 0 0 1.8049 -13.369 101.67)" d="m108.37 202.39c-30.62 0-55.442 29.99-55.442 66.983 0 36.993 24.821 66.981 55.442 66.981s55.444-29.988 55.444-66.981c0-36.993-24.824-66.983-55.444-66.983zm-0.53875 22.277c5.6515-0.019478 8.9359 5.1011 9.7732 12.494 0.89143 7.8843-1.2463 15.338-7.7134 16.134s-12.432-4.9496-13.326-12.836c-0.89143-7.8843 3.6285-14.92 10.096-15.717 0.40244-0.049778 0.7919-0.075749 1.1705-0.075749zm0.04111 66.457c4.9829 0.002164 6.7614 4.9323 7.5101 11.544 0.79623 7.0511 0.12333 13.345-5.6601 14.057-5.7856 0.7142-11.121-4.4259-11.92-11.477-0.79839-7.0533 3.2433-13.347 9.0268-14.059 0.36133-0.045449 0.70968-0.064927 1.0429-0.064927zm0 0" fill="url(#t)" stroke="#000" stroke-linecap="round" stroke-width="1.125"/>
<path transform="matrix(1.8054 0 0 1.8049 -13.369 101.67)" d="m22.349 241.71c5.0456-4.5882 5.9349-2.5603 9.7343 2.1859 3.8015 4.744 7.7762 12.592 14.884-1.8266 7.1098-14.418 12.333-10.211 18.616 0.27269" fill="none" stroke="#336cb3" stroke-linecap="round" stroke-width="5"/>
<path d="m181.64 627.12c-0.023437 0-0.046875 0.003906-0.066406 0.003906 0.058594 0 0.12109 0.003906 0.17969 0.007812-0.039062-0.003906-0.078124-0.007812-0.11719-0.011718zm1.5273 0.12891c7.6484 1.1211 10.52 9.5977 11.777 20.707 1.3477 11.93 0.36328 22.66-8.3672 25.016 9.918 0.070313 13.699-11.859 12.121-25.234-2.0469-12.398-7.8477-21.98-15.531-20.488zm-5.7148 0.38672c-0.042969 0.007812-0.082031 0.019531-0.125 0.03125 0.042969-0.007813 0.082031-0.019531 0.125-0.03125zm-2.0547 0.6875c-0.023438 0.011719-0.046875 0.019531-0.070313 0.03125 0.023438-0.011719 0.046875-0.023438 0.070313-0.03125zm-5.5273 3.6641c-0.019531 0.019531-0.039062 0.039063-0.058594 0.058594 0.019532-0.019531 0.039063-0.039063 0.058594-0.058594zm-1.5156 1.6523c-0.039063 0.046875-0.078125 0.097656-0.11719 0.14453 0.039062-0.046875 0.078124-0.09375 0.11719-0.14453zm-2.5938 3.9961c-0.039063 0.078125-0.078125 0.15234-0.11328 0.23047 0.035156-0.078126 0.074218-0.15234 0.11328-0.23047zm-2.6562 9.7422c-0.003906 0.03125-0.003906 0.0625-0.003906 0.097656 0-0.035156 0-0.066406 0.003906-0.097656zm-0.070313 2.543v0.15234c0-0.050781 0.003907-0.10156 0-0.15234zm0.17188 2.6914c0.042968 0.35938 0.089843 0.71484 0.14453 1.0703-0.054688-0.35156-0.10156-0.71094-0.14453-1.0703zm0.20312 1.4219c0.03125 0.21094 0.070313 0.41797 0.10938 0.625-0.039063-0.20703-0.074219-0.41406-0.10938-0.625zm0.21094 1.1562c0.027344 0.13281 0.058594 0.26562 0.089844 0.39844-0.03125-0.13281-0.0625-0.26562-0.089844-0.39844zm2.3242 6.6758c0.042969 0.082031 0.082031 0.16406 0.125 0.24609-0.042969-0.082031-0.082031-0.16406-0.125-0.24609zm2.1953 3.5625c0.089844 0.125 0.18359 0.24609 0.27344 0.36719-0.089844-0.12109-0.18359-0.24609-0.27344-0.36719zm0.55469 0.71484c0.12109 0.15234 0.24609 0.30469 0.37109 0.44922-0.125-0.14453-0.25-0.29688-0.37109-0.44922zm0.59375 0.71094c0.13672 0.15625 0.27344 0.30859 0.41406 0.46094-0.14062-0.15234-0.27734-0.30469-0.41406-0.46094zm0.65625 0.72266c0.21094 0.21875 0.42578 0.4375 0.64453 0.64844-0.21875-0.21094-0.43359-0.42969-0.64453-0.64844zm1.5898 1.5c0.15234 0.12891 0.30078 0.25391 0.45313 0.375-0.15234-0.12109-0.30469-0.24609-0.45313-0.375zm0.72656 0.59375c0.14453 0.10547 0.28516 0.21484 0.42578 0.32031-0.14062-0.10547-0.28125-0.21094-0.42578-0.32031zm0.75391 0.55469c0.125 0.089844 0.25 0.17188 0.37891 0.25391-0.12891-0.082031-0.25391-0.16406-0.37891-0.25391zm2.7188 1.5898c0.078125 0.035156 0.15625 0.074219 0.23438 0.10938-0.078125-0.035156-0.15625-0.074219-0.23438-0.10938zm8.9922 1.5117c-0.29688 0.039063-0.59375 0.0625-0.89062 0.082031 0.29688-0.015625 0.59375-0.042968 0.89062-0.082031zm-1.1289 0.097656c-0.21484 0.011719-0.42969 0.015625-0.64062 0.019531 0.21094-0.003906 0.42578-0.007812 0.64062-0.019531zm-1.4102 0.003907c0.13672 0.007812 0.27734 0.011718 0.41797 0.011718-0.14062 0-0.28125-0.003906-0.41797-0.011718z" fill="#242729"/>
<path transform="matrix(1.8054 0 0 1.8049 -13.369 101.67)" d="m134.95 285.96 12.753-4.2073" fill="none" stroke="#242729" stroke-linecap="round" stroke-width="1.125"/>
<path d="m181.77 507.18-0.035156 0.003906h0.070313c-0.011719 0-0.023438-0.003906-0.035157-0.003906zm1.2852 0.20703c8.4492 1.4727 13.312 10.547 14.691 22.719 1.5039 13.305-0.71094 25.586-10.539 28.309 9.7891 1.5 15.434-14.703 13.68-28.309-0.62891-12.902-7.2852-23.855-17.832-22.719zm-6.2969 0.40625c-0.058593 0.015625-0.12109 0.03125-0.17969 0.050781 0.058594-0.015625 0.12109-0.035156 0.17969-0.050781zm-7.0156 3.6523c-0.019532 0.011719-0.035157 0.027344-0.054688 0.039063 0.019531-0.011719 0.039062-0.023437 0.054688-0.039063zm-1.9961 1.8672c-0.03125 0.03125-0.058594 0.0625-0.089844 0.09375 0.03125-0.03125 0.058594-0.0625 0.089844-0.09375zm-1.7656 2.125c-0.035157 0.046875-0.070313 0.09375-0.10547 0.13672 0.035156-0.042969 0.070312-0.089844 0.10547-0.13672zm-1.5898 2.4492c-0.023437 0.042969-0.046875 0.085937-0.070313 0.12891 0.023438-0.042969 0.046876-0.085937 0.070313-0.12891zm-3.6055 14.598v0.125-0.125zm0.19141 3.1914c0.042969 0.37891 0.09375 0.75391 0.15234 1.1289-0.054687-0.375-0.10938-0.75-0.15234-1.1289zm0.26953 1.832c0.023437 0.15234 0.050781 0.30078 0.078125 0.44922-0.027344-0.14844-0.054688-0.29688-0.078125-0.44922zm0.22266 1.1602c0.027344 0.13672 0.054688 0.26953 0.085938 0.40234-0.03125-0.13281-0.058594-0.26562-0.085938-0.40234zm4.3555 10.395c0.089843 0.13672 0.18359 0.26953 0.27734 0.40625-0.09375-0.13281-0.18359-0.27344-0.27734-0.40625zm0.61719 0.875c0.097656 0.13281 0.19922 0.26562 0.29688 0.39453-0.097656-0.12891-0.19922-0.26172-0.29688-0.39453zm0.64844 0.84375c0.11719 0.14453 0.23828 0.29297 0.35938 0.4375-0.12109-0.14453-0.24219-0.29297-0.35938-0.4375zm0.6875 0.82422c0.14453 0.16406 0.29297 0.32422 0.44141 0.48438-0.14844-0.16016-0.29688-0.32031-0.44141-0.48438zm0.70703 0.77734c0.24609 0.25781 0.49609 0.51172 0.75 0.75391-0.25391-0.24219-0.50391-0.49609-0.75-0.75391zm0.75 0.75391c0.25391 0.24219 0.50781 0.47656 0.76953 0.70703-0.26172-0.23047-0.51953-0.46484-0.76953-0.70703zm1.0859 0.97656c0.15234 0.12891 0.30469 0.25781 0.45703 0.38281-0.15234-0.125-0.30469-0.25391-0.45703-0.38281zm0.89453 0.72266 0.375 0.28125c-0.125-0.089844-0.25-0.1875-0.375-0.28125zm0.83984 0.61328c0.12109 0.082031 0.24219 0.16406 0.35937 0.24609-0.12109-0.082031-0.23828-0.16406-0.35937-0.24609zm0.83984 0.55859c0.10156 0.0625 0.20312 0.12109 0.30469 0.18359-0.10156-0.0625-0.20312-0.12109-0.30469-0.18359zm12.141 2.8359c-0.32422 0.039062-0.64453 0.066406-0.96875 0.089844 0.32422-0.019532 0.64844-0.050782 0.96875-0.089844zm-1.3828 0.10938c-0.19531 0.007813-0.39453 0.015625-0.58984 0.015625 0.19531-0.003906 0.39453-0.007812 0.58984-0.015625zm-1.4844 0c0.14844 0.007813 0.29688 0.011719 0.44141 0.011719-0.14453 0-0.29297-0.003906-0.44141-0.011719z" fill="#242729"/>
<path transform="matrix(1.8054 0 0 1.8049 -13.369 101.67)" d="m144.42 245.39c5.0456-4.5882 5.9349-2.5603 9.7343 2.1837 3.8015 4.7462 7.7762 12.592 14.886-1.8245 7.1076-14.418 12.331-10.213 18.614 0.27053 6.2811 10.484 11.437 11.105 17.768 0.25971 6.3309-10.845 14.758 0.28135 25.663 0.70338" fill="none" stroke="#336cb3" stroke-linecap="round" stroke-width="5"/>
<path d="m394.07 534.09 52.586 12.621-52.113 14.449c9.3789-8.0508 9.1836-19.32-0.47266-27.07z" fill-rule="evenodd"/>
<path transform="matrix(1.8054 0 0 1.8049 -13.369 101.67)" d="m328.5 286.89h-257.14v-3.7593c25.778-10.187 54.849-11.94 86.302-19.619h170.71zm0 0" fill="#efd25a" stroke="#242729" stroke-linecap="round" stroke-width="1.125"/>
<path transform="matrix(1.8054 0 0 1.8049 -13.369 101.67)" d="m71.363 283.13h257.12" fill="none" stroke="#242729" stroke-linecap="round" stroke-width="1.125"/>
<path transform="matrix(1.8054 0 0 1.8049 -13.369 101.67)" d="m108.37 202.39c-30.62 0-55.442 29.99-55.442 66.983 0 36.993 24.824 66.981 55.442 66.981 0.63612 0 1.2636-0.032464 1.8932-0.05627-0.62746 0.12553-1.2549 0.24889-1.8932 0.34195h220.5v-134.25zm-9.321 16.842c0.56904-0.019478 1.1359 0.045449 1.692 0.15366 2.5748 0.59517 4.773 2.1686 6.9518 3.5905 3.5679 2.3634 6.928 5.099 10.814 6.9407 4.7709 2.2595 10.331 2.1015 15.317 0.67092 4.1109-1.2098 7.9969-3.123 12.199-4.0406 5.4459-1.186 11.4-1.3765 16.548 1.054 3.5982 1.9954 7.2201 4.1359 11.279 5.0535 5.8657 1.515 12.396 0.088734 17.071-3.7679 2.8971-2.8049 6.3568-5.0687 10.199-6.3391 7.4798-2.3114 15.578-2.1794 23.147-0.34628 3.9465 0.75099 7.5793 2.5538 11.061 4.4951 2.7478 1.6124 5.6255 3.0862 8.765 3.7485 5.2685 1.2488 10.708-0.041121 15.756-1.6297 5.1733-1.5647 10.381-3.716 15.89-3.9562 4.5783-0.21426 9.0073 1.5041 12.83 3.9043 1.5881 1.0172 3.2585 1.9175 4.7579 3.0646 3.0594 2.5278 5.4524 6.3369 6.6359 9.9923 3.9898 10.709 4.7427 21.679 3.4467 32.39-1.2592 10.044-5.0045 20.396-10.79 28.774-2.2069 3.0126-5.9825 5.5967-9.0809 7.7653-6.4845 3.9909-14.369 5.2743-21.872 4.4562-4.7276-0.44367-9.0657-2.5603-13.672-3.5407-4.8509-1.0107-9.8533-0.034628-14.455 1.5929-3.9552 1.3007-7.9017 3.0559-12.095 3.7203-5.1517 0.896-10.435-0.25105-15.185-2.2811-3.4207-1.4068-6.5169-3.4411-9.6954-5.3046-6.0777-3.4541-13.11-5.7266-20.165-4.9691-6.4845 0.61464-12.441 3.4347-18.605 5.3067-4.7276 1.4306-9.836 1.8807-14.657 0.63629-6.8783-1.8548-12.887-6.0491-19.83-7.7199-3.6285-1.0605-7.6745-0.9263-11.076 0.81592-3.4251 1.7444-6.9648 3.3762-10.771 4.0796-4.6302 0.81159-9.4314 1.2358-14.075 0.29217-4.2516-0.73151-8.1418-3.281-10.474-6.9148-2.8993-4.77-3.5765-10.553-3.2022-16.033 0.14496-3.5688 1.084-7.0273 1.8369-10.501 1.454-6.5014 0.24449-13.18-0.97797-19.612-0.5301-3.2117-1.4129-6.6053-0.2856-9.7932 1.097-2.3893 3.3991-3.8718 5.2079-5.6811 3.9379-4.6423 7.0341-9.9209 10.963-14.574 2.1572-2.6728 5.0218-5.2093 8.5962-5.4928zm0 0" fill="url(#v)" stroke="#000" stroke-linecap="round" stroke-width="1.125"/>
<path transform="matrix(1.8054 0 0 1.8049 -13.369 101.67)" d="m98.988 216.96c-12.223 2.3807-15.161 16.578-24.213 23.335-7.7675 10.055 1.9538 22.554-1.5189 33.723-2.4969 10.618-4.0439 24.064 5.2252 31.979 9.585 7.8324 23.155 5.0189 33.394 0.060599 14.577-6.4105 26.619 10.512 41.274 7.0316 12.084-2.4283 24.841-10.564 37.074-4.1986 10.481 4.757 21.215 13.628 33.439 9.8906 10.769-3.7788 22.599-8.0099 33.457-2.0755 14.051 3.6251 31.17-1.7487 37.412-15.656 11.504-19.918 13.014-45.505 3.7756-66.546-7.4322-11.492-23.707-14.749-35.705-8.9059-9.7689 4.5644-20.899 3.7095-29.534-2.7378-11.803-5.1487-26.723-6.6572-38.024 0.27702-7.43 7.6354-21.005 10.934-29.59 3.307-11.262-6.4668-24.246-0.99772-35.326 2.9044-11.658 1.8872-19.384-9.1742-29.536-12.302-0.53442-0.028135-1.0688-0.05627-1.6033-0.08657zm0.064909 2.266c11.041 2.201 18.733 15.048 30.949 12.172 10.918-2.7053 23.151-9.4296 34.024-2.9628 8.8991 6.7286 22.554 6.0404 30.315-2.1534 14.083-10.064 33.026-5.1141 46.625 3.2767 14.652 5.8175 28.837-9.343 43.457-3.0624 12.789 4.0341 18.638 18.866 18.91 30.886 1.6098 19.457-4.2148 45.579-20.62 53.79-10.825 6.588-24.272 4.3956-35.547 0.32031-13.387-1.8915-26.096 10.646-39.253 3.7874-11.015-4.7895-21.998-14.013-34.792-10.308-11.377 2.6101-23.789 10.04-35.205 3.4606-9.1934-4.8392-21.336-9.5032-30.769-2.6793-10.206 4.2765-25.497 4.5709-31.206-6.7373-6.6013-12.996 3.2974-26.934-0.79623-40.24-5.5628-12.633 5.8332-20.443 11.842-29.67 2.9382-4.3242 6.6641-8.7955 12.067-9.8798zm0 0" fill="#2a3853" stroke="#232323" stroke-linecap="round" stroke-width="1.125"/>
<path transform="matrix(1.8054 0 0 1.8049 -13.369 101.67)" d="m100.75 241.02c2.618 1.1276 5.4503 2.1664 8.2695 2.2768" fill="none" stroke="#336cb3" stroke-linecap="round" stroke-width="5"/>
<path d="m173.69 527.44 52.586 12.621-52.113 14.449c9.3789-8.0508 9.1836-19.316-0.47266-27.07z" fill-rule="evenodd"/>
<path d="m162.55 538.98c5.8867 2.625 12.254 6.0117 20.715 6.3398 2.4922 0.097656 4.5938-1.8438 4.6875-4.3359 0.09375-2.4922-1.8477-4.5859-4.3359-4.6836-6.293-0.24219-13.758-4.0664-20.559-6.918-0.48828-0.20312-0.62891-0.25-1.1445-0.27344-0.41016 4.6914 0.19531 7.9141 0.63672 9.8711z" fill="#336cb3"/>
<path d="m174.46 526.91 51.793 15.547-52.84 11.504c9.8164-7.5117 10.254-18.77 1.0469-27.051z" fill-rule="evenodd"/>
<path transform="matrix(1.8054 0 0 1.8049 -13.369 101.67)" d="m158.11 266.58-50.487 11.514" fill="#efd25a" stroke="#242729" stroke-linecap="round" stroke-width="1.125"/>
<path transform="matrix(1.8054 0 0 1.8049 -13.369 101.67)" d="m174.01 266.58-50.487 11.514" fill="#efd25a" stroke="#242729" stroke-linecap="round" stroke-width="1.125"/>
<path transform="matrix(1.8054 0 0 1.8049 -13.369 101.67)" d="m189.9 266.58-50.487 11.514" fill="#efd25a" stroke="#242729" stroke-linecap="round" stroke-width="1.125"/>
<path transform="matrix(1.8054 0 0 1.8049 -13.369 101.67)" d="m205.79 266.58-50.487 11.514" fill="#efd25a" stroke="#242729" stroke-linecap="round" stroke-width="1.125"/>
<path transform="matrix(1.8054 0 0 1.8049 -13.369 101.67)" d="m221.68 266.58-50.487 11.514" fill="#efd25a" stroke="#242729" stroke-linecap="round" stroke-width="1.125"/>
<path transform="matrix(1.8054 0 0 1.8049 -13.369 101.67)" d="m237.57 266.58-50.487 11.514" fill="#efd25a" stroke="#242729" stroke-linecap="round" stroke-width="1.125"/>
<path transform="matrix(1.8054 0 0 1.8049 -13.369 101.67)" d="m253.47 266.58-50.487 11.514" fill="#efd25a" stroke="#242729" stroke-linecap="round" stroke-width="1.125"/>
<path transform="matrix(1.8054 0 0 1.8049 -13.369 101.67)" d="m269.36 266.58-50.489 11.514" fill="#efd25a" stroke="#242729" stroke-linecap="round" stroke-width="1.125"/>
<path transform="matrix(1.8054 0 0 1.8049 -13.369 101.67)" d="m285.25 266.58-50.489 11.514" fill="#efd25a" stroke="#242729" stroke-linecap="round" stroke-width="1.125"/>
<path transform="matrix(1.8054 0 0 1.8049 -13.369 101.67)" d="m301.15 266.58-50.489 11.514" fill="#efd25a" stroke="#242729" stroke-linecap="round" stroke-width="1.125"/>
<path transform="matrix(1.8054 0 0 1.8049 -13.369 101.67)" d="m303.28 269.72-36.73 8.3756" fill="#efd25a" stroke="#242729" stroke-linecap="round" stroke-width="1.125"/>
<path transform="matrix(1.8054 0 0 1.8049 -13.369 101.67)" d="m303.44 273.3-21 4.7895" fill="#efd25a" stroke="#242729" stroke-linecap="round" stroke-width="1.125"/>
<path transform="matrix(1.8054 0 0 1.8049 -13.369 101.67)" d="m302.72 277.09-4.3901 1.002" fill="#efd25a" stroke="#242729" stroke-linecap="round" stroke-width="1.125"/>
<path d="m484.74 569.57c-12.129 0.019532-23.078 6.6758-27.809 16.914l-0.046876-0.003906-77.062 70.57 182.2 59.742-47.395-123.86h-0.007812c-2.3398-13.457-15.004-23.363-29.879-23.367z" fill="#666" fill-opacity=".37"/>
<path transform="matrix(1.8054 0 0 1.8049 -13.369 109.49)" d="m319.16 343.21c0 30.377-26.862 55-60 55-33.136 0-59.998-24.623-59.998-55 0-30.375 26.862-55 59.998-55 33.139 0 60 24.625 60 55zm0 0" fill="#5389ad" stroke="#242729" stroke-linecap="round" stroke-width="2"/>
<path transform="matrix(1.8054 0 0 1.8049 -13.369 109.49)" d="m222.28 386.59c-14.07-10.066-23.117-25.757-23.117-43.387 0-13.198 5.1776-25.958 14.587-35.946l90.839 0.017314c9.4011 9.9858 14.572 22.738 14.572 35.929 0 17.701-9.1198 33.448-23.29 43.508zm0 0" fill="#efd25a" stroke="#3e4647" stroke-linecap="round" stroke-width="2"/>
<path transform="matrix(1.8054 0 0 1.8049 -13.369 109.49)" d="m209.71 314.94-4.3641 6.681" fill="none" stroke="#3e4647" stroke-linecap="square" stroke-width="3"/>
<path transform="matrix(1.8054 0 0 1.8049 -13.369 109.49)" d="m305.54 378.1h-92.762" fill="none" stroke="#3e4647" stroke-linecap="round" stroke-width="2"/>
<path transform="matrix(1.8054 0 0 1.8049 -13.369 109.49)" d="m235.94 314.94-31.468 48.163" fill="none" stroke="#3e4647" stroke-linecap="square" stroke-width="3"/>
<path transform="matrix(1.8054 0 0 1.8049 -13.369 109.49)" d="m312.17 319.76-29.069 44.49" fill="none" stroke="#3e4647" stroke-linecap="square" stroke-width="3"/>
<path transform="matrix(1.8054 0 0 1.8049 -13.369 109.49)" d="m319.16 343.21c0 30.377-26.862 55-60 55-33.136 0-59.998-24.623-59.998-55 0-30.375 26.862-55 59.998-55 33.139 0 60 24.625 60 55zm0 0" fill="none" stroke="#242729" stroke-linecap="round" stroke-width="2"/>
<path transform="matrix(1.8054 0 0 1.8049 -13.369 109.49)" d="m271.09 322.64-21.489 32.89" fill="#3e4647" stroke="#242729" stroke-linecap="square" stroke-width="2"/>
<path d="m475.33 691.83-3.6094 3.6094 12.637-3.6094-12.637-3.6094z" fill-rule="evenodd"/>
<path d="m436.53 751.19-3.6094 3.6133 12.637-3.6133-12.637-3.6094z" fill-rule="evenodd"/>
<path transform="matrix(1.8054 0 0 1.8049 -13.369 109.49)" d="m243.88 364.28c30.103-7.2156 38.723-27.596 32.219-49.31-30.103 7.2156-38.723 27.596-32.219 49.31zm0 0" fill="none" stroke="#3e4647" stroke-linecap="square" stroke-linejoin="round" stroke-width="3"/>
<path transform="matrix(1.8054 0 0 1.8049 -13.369 18.465)" d="m246.82 372.65c-10.479 10.049-13.35 21.876-10.446 33.535" fill="none" stroke="#3e4647" stroke-linecap="square" stroke-linejoin="round" stroke-opacity=".6" stroke-width="2.5"/>
<path transform="matrix(1.8054 0 0 1.8049 -13.369 18.465)" d="m237.25 374.95c-6.4845 7.7523-8.8905 16.36-7.9688 25.025" fill="none" stroke="#3e4647" stroke-linecap="square" stroke-linejoin="round" stroke-opacity=".6" stroke-width="2"/>
<path transform="matrix(1.8054 0 0 1.8049 -13.369 18.465)" d="m274.31 406.76c10.476-10.051 13.35-21.878 10.446-33.537" fill="none" stroke="#3e4647" stroke-linecap="square" stroke-linejoin="round" stroke-opacity=".6" stroke-width="2.5"/>
<path transform="matrix(1.8054 0 0 1.8049 -13.369 18.465)" d="m283.87 404.46c6.4845-7.7523 8.8905-16.36 7.9688-25.025" fill="none" stroke="#3e4647" stroke-linecap="square" stroke-linejoin="round" stroke-opacity=".6" stroke-width="2"/>
<path transform="matrix(1.8054 0 0 1.8049 -13.369 18.465)" d="m292.66 320.7c0 8.486-7.5036 15.364-16.762 15.364-9.2561 0-16.76-6.878-16.76-15.364s7.5036-15.364 16.76-15.364c9.2583 0 16.762 6.878 16.762 15.364zm0 0" fill="none" stroke="#242729" stroke-linecap="round"/>
<path transform="matrix(1.8054 0 0 1.8049 -13.369 18.465)" d="m263.79 373.66c-11.718 6.5295-17.216 18.892-18.112 30.234" fill="none" stroke="#3e4647" stroke-linecap="square" stroke-linejoin="round" stroke-opacity=".6" stroke-width="1.5"/>
<path transform="matrix(1.8054 0 0 1.8049 -13.369 18.465)" d="m267.32 374.33c-11.169 5.8846-17.681 19.357-19.371 30.925" fill="none" stroke="#3e4647" stroke-linecap="square" stroke-linejoin="round" stroke-opacity=".6"/>
<path transform="matrix(1.8054 0 0 1.8049 -13.369 18.465)" d="m256.7 407.2c10.407-7.1874 18.83-19.736 18.83-30.981" fill="none" stroke="#3e4647" stroke-linecap="square" stroke-linejoin="round" stroke-opacity=".6" stroke-width="1.5"/>
<path transform="matrix(1.8054 0 0 1.8049 -13.369 18.465)" d="m253.53 407.2c10.613-6.8606 16.468-19.885 19.984-32.319" fill="none" stroke="#3e4647" stroke-linecap="square" stroke-linejoin="round" stroke-opacity=".6"/>
<g>
<use x="31.75" y="44.085559" xlink:href="#g"/>
<use x="42.582351" y="44.085559" xlink:href="#o"/>
<use x="53.414702" y="44.085559" xlink:href="#a"/>
<use x="64.247053" y="44.085559" xlink:href="#i"/>
<use x="69.663228" y="44.085559" xlink:href="#b"/>
<use x="75.079404" y="44.085559" xlink:href="#l"/>
<use x="89.522538" y="44.085559" xlink:href="#e"/>
<use x="94.938714" y="44.085559" xlink:href="#d"/>
<use x="105.771065" y="44.085559" xlink:href="#j"/>
<use x="116.603416" y="44.085559" xlink:href="#g"/>
<use x="127.435767" y="44.085559" xlink:href="#l"/>
</g>
<g>
<use x="25.429687" y="349.968372" xlink:href="#f"/>
<use x="32.651255" y="349.968372" xlink:href="#g"/>
<use x="43.483606" y="349.968372" xlink:href="#n"/>
<use x="54.315957" y="349.968372" xlink:href="#d"/>
<use x="65.148308" y="349.968372" xlink:href="#j"/>
<use x="75.980659" y="349.968372" xlink:href="#b"/>
<use x="81.396834" y="349.968372" xlink:href="#l"/>
<use x="95.839969" y="349.968372" xlink:href="#e"/>
<use x="101.256144" y="349.968372" xlink:href="#d"/>
<use x="112.088495" y="349.968372" xlink:href="#j"/>
<use x="122.920846" y="349.968372" xlink:href="#g"/>
<use x="133.753197" y="349.968372" xlink:href="#l"/>
</g>
<g>
<use x="433.304687" y="44.085559" xlink:href="#o"/>
<use x="444.137038" y="44.085559" xlink:href="#c"/>
<use x="454.969389" y="44.085559" xlink:href="#q"/>
<use x="463.996348" y="44.085559" xlink:href="#h"/>
<use x="471.217916" y="44.085559" xlink:href="#e"/>
<use x="476.634091" y="44.085559" xlink:href="#s"/>
<use x="487.466442" y="44.085559" xlink:href="#n"/>
<use x="498.298793" y="44.085559" xlink:href="#i"/>
<use x="503.714969" y="44.085559" xlink:href="#a"/>
<use x="514.54732" y="44.085559" xlink:href="#f"/>
<use x="521.768887" y="44.085559" xlink:href="#b"/>
<use x="527.185062" y="44.085559" xlink:href="#j"/>
<use x="538.017413" y="44.085559" xlink:href="#n"/>
<use x="548.849764" y="44.085559" xlink:href="#k"/>
<use x="557.876723" y="44.085559" xlink:href="#h"/>
</g>
<g>
<use x="436.011719" y="349.968372" xlink:href="#h"/>
<use x="443.233286" y="349.968372" xlink:href="#ag"/>
<use x="454.065637" y="349.968372" xlink:href="#p"/>
<use x="472.119555" y="349.968372" xlink:href="#m"/>
<use x="482.951906" y="349.968372" xlink:href="#a"/>
<use x="493.784257" y="349.968372" xlink:href="#d"/>
<use x="504.616608" y="349.968372" xlink:href="#e"/>
<use x="510.032783" y="349.968372" xlink:href="#k"/>
<use x="519.059743" y="349.968372" xlink:href="#b"/>
<use x="524.475918" y="349.968372" xlink:href="#j"/>
<use x="535.308269" y="349.968372" xlink:href="#n"/>
<use x="546.14062" y="349.968372" xlink:href="#k"/>
<use x="555.167579" y="349.968372" xlink:href="#h"/>
</g>
<g>
<use x="228.195312" y="44.085559" xlink:href="#h"/>
<use x="235.41688" y="44.085559" xlink:href="#f"/>
<use x="242.638447" y="44.085559" xlink:href="#a"/>
<use x="253.470798" y="44.085559" xlink:href="#o"/>
<use x="264.303149" y="44.085559" xlink:href="#c"/>
<use x="275.1355" y="44.085559" xlink:href="#i"/>
<use x="280.551675" y="44.085559" xlink:href="#i"/>
<use x="285.967851" y="44.085559" xlink:href="#e"/>
<use x="291.384026" y="44.085559" xlink:href="#d"/>
<use x="302.216377" y="44.085559" xlink:href="#r"/>
<use x="313.048728" y="44.085559" xlink:href="#b"/>
<use x="318.464904" y="44.085559" xlink:href="#l"/>
<use x="332.908038" y="44.085559" xlink:href="#a"/>
<use x="343.740389" y="44.085559" xlink:href="#o"/>
<use x="354.57274" y="44.085559" xlink:href="#c"/>
</g>
<g>
<use x="215.214844" y="349.968372" xlink:href="#s"/>
<use x="226.047195" y="349.968372" xlink:href="#a"/>
<use x="236.879546" y="349.968372" xlink:href="#q"/>
<use x="245.906505" y="349.968372" xlink:href="#e"/>
<use x="251.32268" y="349.968372" xlink:href="#i"/>
<use x="256.738856" y="349.968372" xlink:href="#a"/>
<use x="267.571207" y="349.968372" xlink:href="#f"/>
<use x="274.792774" y="349.968372" xlink:href="#b"/>
<use x="280.208949" y="349.968372" xlink:href="#p"/>
<use x="298.262868" y="349.968372" xlink:href="#c"/>
<use x="309.095219" y="349.968372" xlink:href="#p"/>
<use x="327.149137" y="349.968372" xlink:href="#s"/>
<use x="337.981488" y="349.968372" xlink:href="#f"/>
<use x="345.203055" y="349.968372" xlink:href="#a"/>
<use x="356.035406" y="349.968372" xlink:href="#d"/>
<use x="366.867757" y="349.968372" xlink:href="#c"/>
</g>
<g>
<use x="225.144531" y="372.530872" xlink:href="#af"/>
<use x="239.587666" y="372.530872" xlink:href="#b"/>
<use x="245.003841" y="372.530872" xlink:href="#g"/>
<use x="255.836192" y="372.530872" xlink:href="#f"/>
<use x="263.05776" y="372.530872" xlink:href="#r"/>
<use x="273.89011" y="372.530872" xlink:href="#a"/>
<use x="284.722461" y="372.530872" xlink:href="#d"/>
<use x="295.554812" y="372.530872" xlink:href="#b"/>
<use x="300.970988" y="372.530872" xlink:href="#g"/>
<use x="311.803339" y="372.530872" xlink:href="#ae"/>
<use x="319.024906" y="372.530872" xlink:href="#b"/>
<use x="324.441082" y="372.530872" xlink:href="#ad"/>
<use x="337.078824" y="372.530872" xlink:href="#g"/>
<use x="347.911175" y="372.530872" xlink:href="#f"/>
<use x="355.132743" y="372.530872" xlink:href="#h"/>
<use x="362.35431" y="372.530872" xlink:href="#e"/>
</g>
<g>
<use x="208.894531" y="395.093372" xlink:href="#ac"/>
<use x="223.337666" y="395.093372" xlink:href="#b"/>
<use x="228.753841" y="395.093372" xlink:href="#k"/>
<use x="237.7808" y="395.093372" xlink:href="#g"/>
<use x="248.613151" y="395.093372" xlink:href="#k"/>
<use x="257.64011" y="395.093372" xlink:href="#ab"/>
<use x="268.472461" y="395.093372" xlink:href="#i"/>
<use x="273.888637" y="395.093372" xlink:href="#c"/>
<use x="284.720988" y="395.093372" xlink:href="#a"/>
<use x="295.553339" y="395.093372" xlink:href="#f"/>
<use x="302.774906" y="395.093372" xlink:href="#b"/>
<use x="308.191082" y="395.093372" xlink:href="#m"/>
<use x="319.023432" y="395.093372" xlink:href="#a"/>
<use x="329.855783" y="395.093372" xlink:href="#f"/>
<use x="337.077351" y="395.093372" xlink:href="#h"/>
<use x="344.298918" y="395.093372" xlink:href="#e"/>
<use x="349.715093" y="395.093372" xlink:href="#h"/>
<use x="356.936661" y="395.093372" xlink:href="#e"/>
<use x="362.352836" y="395.093372" xlink:href="#g"/>
<use x="373.185187" y="395.093372" xlink:href="#d"/>
</g>
<g>
<use x="138.070312" y="756.085559" xlink:href="#i"/>
<use x="143.486488" y="756.085559" xlink:href="#a"/>
<use x="154.318839" y="756.085559" xlink:href="#f"/>
<use x="161.540406" y="756.085559" xlink:href="#r"/>
<use x="172.372757" y="756.085559" xlink:href="#c"/>
<use x="183.205108" y="756.085559" xlink:href="#b"/>
<use x="188.621284" y="756.085559" xlink:href="#a"/>
<use x="199.453634" y="756.085559" xlink:href="#p"/>
<use x="217.507553" y="756.085559" xlink:href="#m"/>
<use x="228.339904" y="756.085559" xlink:href="#i"/>
<use x="233.756079" y="756.085559" xlink:href="#e"/>
<use x="239.172255" y="756.085559" xlink:href="#h"/>
<use x="246.393822" y="756.085559" xlink:href="#n"/>
<use x="257.226173" y="756.085559" xlink:href="#j"/>
<use x="268.058524" y="756.085559" xlink:href="#c"/>
</g>
<g>
<use x="145.289062" y="778.648059" xlink:href="#i"/>
<use x="150.705238" y="778.648059" xlink:href="#g"/>
<use x="161.537589" y="778.648059" xlink:href="#k"/>
<use x="170.564548" y="778.648059" xlink:href="#a"/>
<use x="181.396899" y="778.648059" xlink:href="#i"/>
<use x="186.813074" y="778.648059" xlink:href="#e"/>
<use x="192.22925" y="778.648059" xlink:href="#aa"/>
<use x="201.256209" y="778.648059" xlink:href="#c"/>
<use x="212.08856" y="778.648059" xlink:href="#j"/>
<use x="222.920911" y="778.648059" xlink:href="#b"/>
<use x="228.337086" y="778.648059" xlink:href="#m"/>
<use x="239.169437" y="778.648059" xlink:href="#c"/>
<use x="250.001788" y="778.648059" xlink:href="#a"/>
<use x="260.834139" y="778.648059" xlink:href="#z"/>
</g>
<g>
<use x="334.03125" y="444.054309" xlink:href="#e"/>
<use x="339.447425" y="444.054309" xlink:href="#d"/>
<use x="350.279776" y="444.054309" xlink:href="#j"/>
<use x="361.112127" y="444.054309" xlink:href="#c"/>
<use x="371.944478" y="444.054309" xlink:href="#m"/>
<use x="382.776829" y="444.054309" xlink:href="#c"/>
<use x="393.60918" y="444.054309" xlink:href="#d"/>
<use x="404.441531" y="444.054309" xlink:href="#j"/>
<use x="415.273882" y="444.054309" xlink:href="#c"/>
<use x="426.106233" y="444.054309" xlink:href="#d"/>
<use x="436.938584" y="444.054309" xlink:href="#h"/>
<use x="444.160151" y="444.054309" xlink:href="#b"/>
<use x="449.576327" y="444.054309" xlink:href="#f"/>
<use x="456.797894" y="444.054309" xlink:href="#c"/>
<use x="467.630245" y="444.054309" xlink:href="#q"/>
<use x="476.657204" y="444.054309" xlink:href="#g"/>
<use x="487.489555" y="444.054309" xlink:href="#d"/>
<use x="498.321906" y="444.054309" xlink:href="#a"/>
<use x="509.154257" y="444.054309" xlink:href="#h"/>
<use x="516.375824" y="444.054309" xlink:href="#g"/>
<use x="527.208175" y="444.054309" xlink:href="#f"/>
<use x="534.429742" y="444.054309" xlink:href="#q"/>
</g>
<path transform="matrix(1.8054 0 0 1.8049 -13.369 18.465)" d="m169.43 411.28h21.031l51.383-13.767" fill="none" stroke="#242729" stroke-linecap="round" stroke-width="1.125"/>
<path d="m426.71 735.02c0.51172 1.9102-0.625 3.8789-2.5352 4.3906-1.9102 0.51172-3.8789-0.625-4.3906-2.5352-0.51172-1.9102 0.66797-3.8867 2.5352-4.3867 1.9102-0.51562 3.8789 0.62109 4.3906 2.5312z" fill-rule="evenodd"/>
<path transform="matrix(1.8054 0 0 1.8049 -13.369 18.465)" d="m171.8 19.863v74.686" fill="none" stroke="#242729" stroke-linecap="round" stroke-width="1.125"/>
<path d="m296.8 192.7c-1.9766 0-3.582-1.6055-3.582-3.582 0-1.9766 1.6055-3.582 3.582-3.582 1.9805 0 3.5859 1.6484 3.5859 3.582 0 1.9766-1.6055 3.582-3.5859 3.582z" fill-rule="evenodd"/>
<path transform="matrix(1.8054 0 0 1.8049 -13.369 18.465)" d="m283.91 19.863v47.397" fill="none" stroke="#242729" stroke-linecap="round" stroke-width="1.125"/>
<path d="m499.2 143.45c-1.9805 0-3.5859-1.6055-3.5859-3.5859 0-1.9766 1.6055-3.582 3.5859-3.582 1.9766 0 3.582 1.6484 3.582 3.582 0 1.9805-1.6055 3.5859-3.582 3.5859z" fill-rule="evenodd"/>
<path transform="matrix(1.8054 0 0 1.8049 -13.369 18.465)" d="m283.89 171.76-0.099528-43.817" fill="none" stroke="#242729" stroke-linecap="round" stroke-width="1.125"/>
<path d="m498.98 245.8c1.9805-0.003907 3.5898 1.5977 3.5938 3.5742 0.003906 1.9805-1.5977 3.5898-3.5781 3.5938-1.9766 0.003906-3.5859-1.6406-3.5898-3.5742-0.003906-1.9805 1.5977-3.5898 3.5742-3.5938z" fill-rule="evenodd"/>
<path transform="matrix(1.8054 0 0 1.8049 -13.369 18.465)" d="m171.69 171.76v-28.202l16.32-27.157" fill="none" stroke="#242729" stroke-linecap="round" stroke-width="1.125"/>
<path d="m327.9 225.48c1.6992 1.0195 2.2461 3.2227 1.2266 4.918-1.0195 1.6953-3.2227 2.2422-4.918 1.2266-1.6953-1.0195-2.2227-3.2617-1.2266-4.918 1.0195-1.6953 3.2227-2.2461 4.918-1.2266z" fill-rule="evenodd"/>
<path transform="matrix(1.8054 0 0 1.8049 -13.369 18.465)" d="m55.603 172.33v-17.597l50.112-28.932" fill="none" stroke="#242729" stroke-linecap="round" stroke-width="1.125"/>
<path d="m180.59 243.74c0.98828 1.7109 0.39844 3.9062-1.3125 4.8945-1.7148 0.98828-3.9062 0.40234-4.8984-1.3125-0.98828-1.7109-0.36328-3.9258 1.3125-4.8945 1.7148-0.98828 3.9062-0.40234 4.8984 1.3125z" fill-rule="evenodd"/>
<path transform="matrix(1.8054 0 0 1.8049 -13.369 18.465)" d="m55.603 19.863v9.949l52.828 30.167" fill="none" stroke="#242729" stroke-linecap="round" stroke-width="1.125"/>
<path d="m185.5 128.5c-0.98047 1.7188-3.1719 2.3164-4.8906 1.3359-1.7188-0.98047-2.3164-3.1719-1.3359-4.8906 0.98438-1.7148 3.2109-2.293 4.8906-1.332 1.7188 0.98047 2.3164 3.168 1.3359 4.8867z" fill-rule="evenodd"/>
<path transform="matrix(1.8054 0 0 1.8049 -13.369 18.465)" d="m250.68 241.77v9.9469l-38.546 66.763" fill="none" stroke="#242729" stroke-linecap="round" stroke-width="1.125"/>
<path d="m367.83 596.39c-1.7148-0.98828-2.3008-3.1836-1.3125-4.8945 0.98828-1.7148 3.1836-2.3008 4.8984-1.3125 1.7109 0.98828 2.2773 3.2188 1.3086 4.8945-0.98828 1.7148-3.1797 2.3008-4.8945 1.3125z" fill-rule="evenodd"/>
</svg>
