<?xml version="1.0" encoding="UTF-8"?>
<svg width="800px" height="406px" version="1.1" viewBox="0 0 800 406" xmlns="http://www.w3.org/2000/svg" xmlns:xlink="http://www.w3.org/1999/xlink">
<defs>
<symbol id="y" overflow="visible">
<path d="m1.8594-13.766h1.8594v5.6406h6.7656v-5.6406h1.8594v13.766h-1.8594v-6.5469h-6.7656v6.5469h-1.8594z"/>
</symbol>
<symbol id="i" overflow="visible">
<path d="m10.609-5.5781v0.82812h-7.7969c0.070312 1.168 0.42188 2.0586 1.0469 2.6719 0.63281 0.60547 1.5156 0.90625 2.6406 0.90625 0.64453 0 1.2734-0.078125 1.8906-0.23438 0.61328-0.16406 1.2227-0.40625 1.8281-0.71875v1.5938c-0.61719 0.26172-1.2461 0.46094-1.8906 0.59375-0.63672 0.13281-1.2812 0.20312-1.9375 0.20312-1.6484 0-2.9492-0.47656-3.9062-1.4375-0.96094-0.95703-1.4375-2.2539-1.4375-3.8906 0-1.6875 0.45312-3.0234 1.3594-4.0156 0.91406-1 2.1445-1.5 3.6875-1.5 1.3945 0 2.4922 0.44922 3.2969 1.3438 0.8125 0.89844 1.2188 2.1172 1.2188 3.6562zm-1.7031-0.5c-0.011719-0.92578-0.27344-1.6641-0.78125-2.2188-0.5-0.5625-1.168-0.84375-2-0.84375-0.94922 0-1.7109 0.27344-2.2812 0.8125-0.5625 0.53125-0.89062 1.2812-0.98438 2.25z"/>
</symbol>
<symbol id="f" overflow="visible">
<path d="m6.4688-5.1875c-1.3672 0-2.3125 0.15625-2.8438 0.46875s-0.79688 0.85156-0.79688 1.6094c0 0.59375 0.19531 1.0703 0.59375 1.4219 0.39453 0.35547 0.9375 0.53125 1.625 0.53125 0.9375 0 1.6875-0.33203 2.25-1 0.57031-0.66406 0.85938-1.5508 0.85938-2.6562v-0.375zm3.3906-0.70312v5.8906h-1.7031v-1.5625c-0.38672 0.625-0.87109 1.0898-1.4531 1.3906-0.57422 0.28906-1.2773 0.4375-2.1094 0.4375-1.0625 0-1.9062-0.29688-2.5312-0.89062-0.61719-0.59375-0.92188-1.3828-0.92188-2.375 0-1.1641 0.38281-2.0391 1.1562-2.625 0.78125-0.59375 1.9414-0.89062 3.4844-0.89062h2.375v-0.17188c0-0.78125-0.25781-1.3828-0.76562-1.8125-0.51172-0.42578-1.2344-0.64062-2.1719-0.64062-0.58594 0-1.1562 0.074219-1.7188 0.21875-0.5625 0.14844-1.1016 0.35938-1.6094 0.64062v-1.5781c0.61328-0.23828 1.2109-0.41406 1.7969-0.53125 0.59375-0.125 1.1641-0.1875 1.7188-0.1875 1.4883 0 2.6016 0.39062 3.3438 1.1719 0.73828 0.77344 1.1094 1.9453 1.1094 3.5156z"/>
</symbol>
<symbol id="k" overflow="visible">
<path d="m1.7812-14.344h1.6875v14.344h-1.6875z"/>
</symbol>
<symbol id="a" overflow="visible">
<path d="m3.4531-13.25v2.9219h3.5v1.3281h-3.5v5.5938c0 0.84375 0.11328 1.3867 0.34375 1.625 0.22656 0.24219 0.69531 0.35938 1.4062 0.35938h1.75v1.4219h-1.75c-1.3047 0-2.2031-0.24219-2.7031-0.73438-0.5-0.48828-0.75-1.3789-0.75-2.6719v-5.5938h-1.25v-1.3281h1.25v-2.9219z"/>
</symbol>
<symbol id="s" overflow="visible">
<path d="m10.359-6.2344v6.2344h-1.7031v-6.1719c0-0.97656-0.19531-1.707-0.57812-2.1875-0.375-0.48828-0.94531-0.73438-1.7031-0.73438-0.91797 0-1.6406 0.29297-2.1719 0.875-0.52344 0.58594-0.78125 1.3828-0.78125 2.3906v5.8281h-1.7031v-14.344h1.7031v5.625c0.40625-0.625 0.87891-1.0859 1.4219-1.3906 0.55078-0.3125 1.1875-0.46875 1.9062-0.46875 1.1875 0 2.082 0.37109 2.6875 1.1094 0.61328 0.73047 0.92188 1.8086 0.92188 3.2344z"/>
</symbol>
<symbol id="j" overflow="visible"></symbol>
<symbol id="e" overflow="visible">
<path d="m9.2031-9.9219v1.5781c-0.48047-0.25781-0.96094-0.45703-1.4375-0.59375-0.48047-0.13281-0.96875-0.20312-1.4688-0.20312-1.0938 0-1.9492 0.35156-2.5625 1.0469-0.60547 0.69922-0.90625 1.6797-0.90625 2.9375 0 1.2617 0.30078 2.2422 0.90625 2.9375 0.61328 0.69922 1.4688 1.0469 2.5625 1.0469 0.5 0 0.98828-0.0625 1.4688-0.1875 0.47656-0.13281 0.95703-0.33594 1.4375-0.60938v1.5781c-0.46875 0.21875-0.96094 0.38281-1.4688 0.48438-0.5 0.11328-1.0391 0.17188-1.6094 0.17188-1.5625 0-2.8047-0.48438-3.7188-1.4531-0.90625-0.97656-1.3594-2.3008-1.3594-3.9688 0-1.6758 0.45703-3 1.375-3.9688 0.92578-0.96875 2.1953-1.4531 3.8125-1.4531 0.51953 0 1.0234 0.058594 1.5156 0.17188 0.5 0.10547 0.98438 0.26562 1.4531 0.48438z"/>
</symbol>
<symbol id="b" overflow="visible">
<path d="m5.7812-9.1406c-0.90625 0-1.625 0.35938-2.1562 1.0781-0.53125 0.71094-0.79688 1.6797-0.79688 2.9062 0 1.2422 0.25781 2.2148 0.78125 2.9219 0.53125 0.71094 1.2539 1.0625 2.1719 1.0625 0.90625 0 1.6172-0.35156 2.1406-1.0625 0.53125-0.71875 0.79688-1.6914 0.79688-2.9219 0-1.2188-0.26562-2.1875-0.79688-2.9062-0.52344-0.71875-1.2344-1.0781-2.1406-1.0781zm0-1.4375c1.4688 0 2.625 0.48047 3.4688 1.4375 0.84375 0.96094 1.2656 2.2891 1.2656 3.9844 0 1.6875-0.42188 3.0156-1.2656 3.9844-0.84375 0.96094-2 1.4375-3.4688 1.4375-1.4805 0-2.6406-0.47656-3.4844-1.4375-0.83594-0.96875-1.25-2.2969-1.25-3.9844 0-1.6953 0.41406-3.0234 1.25-3.9844 0.84375-0.95703 2.0039-1.4375 3.4844-1.4375z"/>
</symbol>
<symbol id="d" overflow="visible">
<path d="m10.359-6.2344v6.2344h-1.7031v-6.1719c0-0.97656-0.19531-1.707-0.57812-2.1875-0.375-0.48828-0.94531-0.73438-1.7031-0.73438-0.91797 0-1.6406 0.29297-2.1719 0.875-0.52344 0.58594-0.78125 1.3828-0.78125 2.3906v5.8281h-1.7031v-10.328h1.7031v1.6094c0.40625-0.625 0.87891-1.0859 1.4219-1.3906 0.55078-0.3125 1.1875-0.46875 1.9062-0.46875 1.1875 0 2.082 0.37109 2.6875 1.1094 0.61328 0.73047 0.92188 1.8086 0.92188 3.2344z"/>
</symbol>
<symbol id="n" overflow="visible">
<path d="m8.5781-8.75v-5.5938h1.6875v14.344h-1.6875v-1.5469c-0.36719 0.61719-0.82031 1.0742-1.3594 1.375-0.54297 0.28906-1.1953 0.4375-1.9531 0.4375-1.25 0-2.2656-0.49219-3.0469-1.4844-0.78125-1-1.1719-2.3125-1.1719-3.9375 0-1.6133 0.39062-2.9219 1.1719-3.9219s1.7969-1.5 3.0469-1.5c0.75781 0 1.4102 0.15234 1.9531 0.45312 0.53906 0.30469 0.99219 0.76172 1.3594 1.375zm-5.7812 3.5938c0 1.25 0.25391 2.2305 0.76562 2.9375 0.50781 0.71094 1.2109 1.0625 2.1094 1.0625 0.89453 0 1.6016-0.35156 2.125-1.0625 0.51953-0.70703 0.78125-1.6875 0.78125-2.9375 0-1.2383-0.26172-2.2109-0.78125-2.9219-0.52344-0.71875-1.2305-1.0781-2.125-1.0781-0.89844 0-1.6016 0.35938-2.1094 1.0781-0.51172 0.71094-0.76562 1.6836-0.76562 2.9219z"/>
</symbol>
<symbol id="c" overflow="visible">
<path d="m1.7812-10.328h1.6875v10.328h-1.6875zm0-4.0156h1.6875v2.1562h-1.6875z"/>
</symbol>
<symbol id="x" overflow="visible">
<path d="m6.4531-11.922-2.5312 6.8438h5.0625zm-1.0469-1.8438h2.1094l5.2344 13.766h-1.9375l-1.25-3.5312h-6.2031l-1.25 3.5312h-1.9688z"/>
</symbol>
<symbol id="r" overflow="visible">
<path d="m0.5625-10.328h1.7969l3.2188 8.6719 3.2344-8.6719h1.7969l-3.875 10.328h-2.2969z"/>
</symbol>
<symbol id="h" overflow="visible">
<path d="m8.3594-10.016v1.5938c-0.48047-0.23828-0.98047-0.42188-1.5-0.54688-0.51172-0.125-1.043-0.1875-1.5938-0.1875-0.84375 0-1.4805 0.13281-1.9062 0.39062-0.41797 0.26172-0.625 0.64844-0.625 1.1562 0 0.39844 0.14844 0.71094 0.45312 0.9375 0.30078 0.21875 0.90625 0.43359 1.8125 0.64062l0.57812 0.125c1.207 0.26172 2.0625 0.625 2.5625 1.0938 0.50781 0.46875 0.76562 1.125 0.76562 1.9688 0 0.96094-0.38281 1.7188-1.1406 2.2812-0.75 0.55469-1.793 0.82812-3.125 0.82812-0.55469 0-1.1328-0.058594-1.7344-0.17188-0.59375-0.10156-1.2266-0.25781-1.8906-0.46875v-1.75c0.63281 0.32422 1.2539 0.57031 1.8594 0.73438 0.60156 0.15625 1.207 0.23438 1.8125 0.23438 0.78906 0 1.3984-0.13281 1.8281-0.40625 0.4375-0.26953 0.65625-0.65625 0.65625-1.1562 0-0.45703-0.15625-0.80469-0.46875-1.0469-0.3125-0.25-0.99609-0.48828-2.0469-0.71875l-0.57812-0.14062c-1.0547-0.21875-1.8125-0.55469-2.2812-1.0156-0.46875-0.45703-0.70312-1.0859-0.70312-1.8906 0-0.96875 0.34375-1.7188 1.0312-2.25s1.6641-0.79688 2.9375-0.79688c0.625 0 1.2109 0.046875 1.7656 0.14062 0.55078 0.09375 1.0625 0.23438 1.5312 0.42188z"/>
</symbol>
<symbol id="q" overflow="visible">
<path d="m3.7188-12.234v5.1719h2.3438c0.86328 0 1.5312-0.22266 2-0.67188 0.47656-0.44531 0.71875-1.0859 0.71875-1.9219 0-0.82031-0.24219-1.457-0.71875-1.9062-0.46875-0.44531-1.1367-0.67188-2-0.67188zm-1.8594-1.5312h4.2031c1.5391 0 2.7031 0.35156 3.4844 1.0469 0.78906 0.69922 1.1875 1.7188 1.1875 3.0625 0 1.3672-0.39844 2.3984-1.1875 3.0938-0.78125 0.6875-1.9453 1.0312-3.4844 1.0312h-2.3438v5.5312h-1.8594z"/>
</symbol>
<symbol id="g" overflow="visible">
<path d="m7.7656-8.7344c-0.19922-0.11328-0.41406-0.19531-0.64062-0.25-0.21875-0.050781-0.46484-0.078125-0.73438-0.078125-0.96094 0-1.6953 0.3125-2.2031 0.9375-0.51172 0.625-0.76562 1.5234-0.76562 2.6875v5.4375h-1.7031v-10.328h1.7031v1.6094c0.35156-0.625 0.81641-1.0859 1.3906-1.3906 0.57031-0.3125 1.2656-0.46875 2.0781-0.46875 0.11328 0 0.24219 0.011719 0.39062 0.03125 0.14453 0.011719 0.30078 0.03125 0.46875 0.0625z"/>
</symbol>
<symbol id="w" overflow="visible">
<path d="m3.4219-1.5469v5.4688h-1.7031v-14.25h1.7031v1.5781c0.35156-0.61328 0.80078-1.0703 1.3438-1.375 0.53906-0.30078 1.1914-0.45312 1.9531-0.45312 1.25 0 2.2656 0.5 3.0469 1.5 0.78906 1 1.1875 2.3086 1.1875 3.9219 0 1.625-0.39844 2.9375-1.1875 3.9375-0.78125 0.99219-1.7969 1.4844-3.0469 1.4844-0.76172 0-1.4141-0.14844-1.9531-0.4375-0.54297-0.30078-0.99219-0.75781-1.3438-1.375zm5.7656-3.6094c0-1.2383-0.25781-2.2109-0.76562-2.9219-0.51172-0.71875-1.2188-1.0781-2.125-1.0781-0.89844 0-1.6016 0.35938-2.1094 1.0781-0.51172 0.71094-0.76562 1.6836-0.76562 2.9219 0 1.25 0.25391 2.2305 0.76562 2.9375 0.50781 0.71094 1.2109 1.0625 2.1094 1.0625 0.90625 0 1.6133-0.35156 2.125-1.0625 0.50781-0.70703 0.76562-1.6875 0.76562-2.9375z"/>
</symbol>
<symbol id="p" overflow="visible">
<path d="m3.7188-6.5781v5.0469h2.9844c1 0 1.7383-0.20703 2.2188-0.625 0.48828-0.41406 0.73438-1.0508 0.73438-1.9062 0-0.85156-0.24609-1.4844-0.73438-1.8906-0.48047-0.41406-1.2188-0.625-2.2188-0.625zm0-5.6562v4.1562h2.75c0.90625 0 1.582-0.17188 2.0312-0.51562 0.44531-0.34375 0.67188-0.86328 0.67188-1.5625 0-0.69531-0.22656-1.2188-0.67188-1.5625-0.44922-0.34375-1.125-0.51562-2.0312-0.51562zm-1.8594-1.5312h4.75c1.4141 0 2.5078 0.29688 3.2812 0.89062 0.76953 0.59375 1.1562 1.4336 1.1562 2.5156 0 0.84375-0.19922 1.5156-0.59375 2.0156-0.39844 0.49219-0.97656 0.79688-1.7344 0.92188 0.91406 0.19922 1.625 0.60938 2.125 1.2344 0.50781 0.625 0.76562 1.4023 0.76562 2.3281 0 1.2305-0.41797 2.1836-1.25 2.8594-0.83594 0.66797-2.0234 1-3.5625 1h-4.9375z"/>
</symbol>
<symbol id="o" overflow="visible">
<path d="m6.0781 0.95312c-0.48047 1.2266-0.94922 2.0312-1.4062 2.4062-0.46094 0.375-1.0703 0.5625-1.8281 0.5625h-1.3438v-1.4219h0.98438c0.46875 0 0.83203-0.10938 1.0938-0.32812 0.25781-0.21875 0.54688-0.74219 0.85938-1.5625l0.29688-0.78125-4.1719-10.156h1.7969l3.2188 8.0781 3.2344-8.0781h1.7969z"/>
</symbol>
<symbol id="m" overflow="visible">
<path d="m7-14.344v1.4062h-1.625c-0.60547 0-1.0273 0.125-1.2656 0.375-0.23047 0.25-0.34375 0.69531-0.34375 1.3281v0.90625h2.7812v1.3281h-2.7812v9h-1.7031v-9h-1.625v-1.3281h1.625v-0.71875c0-1.1445 0.26562-1.9766 0.79688-2.5 0.53125-0.53125 1.3789-0.79688 2.5469-0.79688z"/>
</symbol>
<symbol id="l" overflow="visible">
<path d="m1.6094-4.0781v-6.25h1.6875v6.1875c0 0.98047 0.1875 1.7148 0.5625 2.2031 0.38281 0.49219 0.95703 0.73438 1.7188 0.73438 0.91406 0 1.6406-0.28906 2.1719-0.875 0.53125-0.58203 0.79688-1.3789 0.79688-2.3906v-5.8594h1.7031v10.328h-1.7031v-1.5781c-0.40625 0.625-0.88672 1.0898-1.4375 1.3906-0.54297 0.30078-1.1719 0.45312-1.8906 0.45312-1.1797 0-2.0742-0.36328-2.6875-1.0938-0.61719-0.73828-0.92188-1.8203-0.92188-3.25z"/>
</symbol>
<symbol id="v" overflow="visible">
<path d="m4.7969-13.766h1.5625l-4.7969 15.516h-1.5625z"/>
</symbol>
<symbol id="u" overflow="visible">
<path d="m1.8594-13.766h8.6875v1.5781h-6.8281v4.0625h6.5469v1.5781h-6.5469v4.9844h7v1.5625h-8.8594z"/>
</symbol>
<symbol id="t" overflow="visible">
<path d="m9.8125-8.3438c0.42578-0.75781 0.92969-1.3203 1.5156-1.6875 0.59375-0.36328 1.2891-0.54688 2.0938-0.54688 1.0703 0 1.8984 0.38281 2.4844 1.1406 0.58203 0.75 0.875 1.8203 0.875 3.2031v6.2344h-1.7031v-6.1719c0-0.98828-0.17969-1.7227-0.53125-2.2031-0.34375-0.47656-0.875-0.71875-1.5938-0.71875-0.88672 0-1.5859 0.29297-2.0938 0.875-0.51172 0.58594-0.76562 1.3828-0.76562 2.3906v5.8281h-1.7031v-6.1719c0-1-0.17969-1.7344-0.53125-2.2031-0.34375-0.47656-0.88281-0.71875-1.6094-0.71875-0.86719 0-1.5547 0.29297-2.0625 0.875-0.51172 0.58594-0.76562 1.3828-0.76562 2.3906v5.8281h-1.7031v-10.328h1.7031v1.6094c0.38281-0.63281 0.84766-1.1016 1.3906-1.4062 0.53906-0.30078 1.1797-0.45312 1.9219-0.45312 0.75 0 1.3828 0.19531 1.9062 0.57812 0.53125 0.38672 0.92188 0.9375 1.1719 1.6562z"/>
</symbol>
</defs>
<path transform="matrix(.88485 0 0 .88442 -42.327 -59.073)" d="m395.5 87.984h208.78v87.31h-208.78zm0 0" fill="#2b8059" stroke="#000" stroke-linecap="round" stroke-width="1.5"/>
<path transform="matrix(.88485 0 0 .88442 -42.327 -59.073)" d="m395.5 252.67h208.78v87.31h-208.78zm0 0" fill="#39a675" stroke="#000" stroke-linecap="round" stroke-width="1.5"/>
<path transform="matrix(.88485 0 0 .88442 -42.327 -59.073)" d="m722.42 252.67h208.78v87.31h-208.78zm0 0" fill="#39a675" stroke="#000" stroke-linecap="round" stroke-width="1.5"/>
<path transform="matrix(.88485 0 0 .88442 -42.327 -59.073)" d="m68.584 252.67h208.78v87.31h-208.78zm0 0" fill="#39a675" stroke="#000" stroke-linecap="round" stroke-width="1.5"/>
<path transform="matrix(.88485 0 0 .88442 -42.327 -59.073)" d="m604.28 417.35h208.78v87.31h-208.78zm0 0" fill="#2b8059" stroke="#000" stroke-linecap="round" stroke-width="1.5"/>
<path transform="matrix(.88485 0 0 .88442 -42.327 -59.073)" d="m186.35 417.35h208.78v87.31h-208.78zm0 0" fill="#2b8059" stroke="#000" stroke-linecap="round" stroke-width="1.5"/>
<g fill="#fff">
<use x="321.550781" y="65.263127" xlink:href="#y"/>
<use x="335.708333" y="65.263127" xlink:href="#i"/>
<use x="347.211343" y="65.263127" xlink:href="#f"/>
<use x="358.714354" y="65.263127" xlink:href="#k"/>
<use x="364.023436" y="65.263127" xlink:href="#a"/>
<use x="371.102212" y="65.263127" xlink:href="#s"/>
<use x="383.490069" y="65.263127" xlink:href="#j"/>
<use x="389.683998" y="65.263127" xlink:href="#e"/>
<use x="400.302162" y="65.263127" xlink:href="#b"/>
<use x="411.805173" y="65.263127" xlink:href="#d"/>
<use x="424.19303" y="65.263127" xlink:href="#n"/>
<use x="436.580888" y="65.263127" xlink:href="#c"/>
<use x="441.88997" y="65.263127" xlink:href="#a"/>
<use x="448.968745" y="65.263127" xlink:href="#c"/>
<use x="454.277827" y="65.263127" xlink:href="#b"/>
<use x="465.780838" y="65.263127" xlink:href="#d"/>
</g>
<g fill="#fff">
<use x="357.519531" y="210.911565" xlink:href="#x"/>
<use x="369.907389" y="210.911565" xlink:href="#e"/>
<use x="380.525553" y="210.911565" xlink:href="#a"/>
<use x="387.604328" y="210.911565" xlink:href="#c"/>
<use x="392.91341" y="210.911565" xlink:href="#r"/>
<use x="404.416421" y="210.911565" xlink:href="#c"/>
<use x="409.725503" y="210.911565" xlink:href="#a"/>
<use x="416.804278" y="210.911565" xlink:href="#c"/>
<use x="422.11336" y="210.911565" xlink:href="#i"/>
<use x="433.616371" y="210.911565" xlink:href="#h"/>
</g>
<g fill="#fff">
<use x="629.847656" y="208.856877" xlink:href="#q"/>
<use x="640.46582" y="208.856877" xlink:href="#f"/>
<use x="651.968831" y="208.856877" xlink:href="#g"/>
<use x="659.932453" y="208.856877" xlink:href="#a"/>
<use x="667.011229" y="208.856877" xlink:href="#c"/>
<use x="672.320311" y="208.856877" xlink:href="#e"/>
<use x="682.938475" y="208.856877" xlink:href="#c"/>
<use x="688.247557" y="208.856877" xlink:href="#w"/>
<use x="700.635414" y="208.856877" xlink:href="#f"/>
<use x="712.138425" y="208.856877" xlink:href="#a"/>
<use x="719.217201" y="208.856877" xlink:href="#c"/>
<use x="724.526282" y="208.856877" xlink:href="#b"/>
<use x="736.029293" y="208.856877" xlink:href="#d"/>
</g>
<g fill="#fff">
<use x="35.433594" y="195.591252" xlink:href="#p"/>
<use x="48.706298" y="195.591252" xlink:href="#b"/>
<use x="60.209309" y="195.591252" xlink:href="#n"/>
<use x="72.597167" y="195.591252" xlink:href="#o"/>
<use x="84.100177" y="195.591252" xlink:href="#j"/>
<use x="90.294106" y="195.591252" xlink:href="#m"/>
<use x="97.372882" y="195.591252" xlink:href="#l"/>
<use x="109.76074" y="195.591252" xlink:href="#d"/>
<use x="122.148597" y="195.591252" xlink:href="#e"/>
<use x="132.766761" y="195.591252" xlink:href="#a"/>
<use x="139.845537" y="195.591252" xlink:href="#c"/>
<use x="145.154619" y="195.591252" xlink:href="#b"/>
<use x="156.657629" y="195.591252" xlink:href="#d"/>
<use x="169.045487" y="195.591252" xlink:href="#h"/>
<use x="178.778804" y="195.591252" xlink:href="#v"/>
</g>
<g fill="#fff">
<use x="34.992188" y="219.173284" xlink:href="#p"/>
<use x="48.264892" y="219.173284" xlink:href="#b"/>
<use x="59.767903" y="219.173284" xlink:href="#n"/>
<use x="72.15576" y="219.173284" xlink:href="#o"/>
<use x="83.658771" y="219.173284" xlink:href="#j"/>
<use x="89.8527" y="219.173284" xlink:href="#h"/>
<use x="99.586017" y="219.173284" xlink:href="#a"/>
<use x="106.664792" y="219.173284" xlink:href="#g"/>
<use x="114.628415" y="219.173284" xlink:href="#l"/>
<use x="127.016273" y="219.173284" xlink:href="#e"/>
<use x="137.634436" y="219.173284" xlink:href="#a"/>
<use x="144.713212" y="219.173284" xlink:href="#l"/>
<use x="157.10107" y="219.173284" xlink:href="#g"/>
<use x="164.179846" y="219.173284" xlink:href="#i"/>
<use x="175.682856" y="219.173284" xlink:href="#h"/>
</g>
<g fill="#fff">
<use x="145.863281" y="343.294377" xlink:href="#u"/>
<use x="157.366292" y="343.294377" xlink:href="#d"/>
<use x="169.75415" y="343.294377" xlink:href="#r"/>
<use x="181.25716" y="343.294377" xlink:href="#c"/>
<use x="186.566242" y="343.294377" xlink:href="#g"/>
<use x="193.645018" y="343.294377" xlink:href="#b"/>
<use x="205.148028" y="343.294377" xlink:href="#d"/>
<use x="217.535886" y="343.294377" xlink:href="#t"/>
<use x="236.117673" y="343.294377" xlink:href="#i"/>
<use x="247.620683" y="343.294377" xlink:href="#d"/>
<use x="260.008541" y="343.294377" xlink:href="#a"/>
<use x="267.087317" y="343.294377" xlink:href="#f"/>
<use x="278.590327" y="343.294377" xlink:href="#k"/>
</g>
<g fill="#fff">
<use x="182.144531" y="366.880315" xlink:href="#m"/>
<use x="189.223307" y="366.880315" xlink:href="#f"/>
<use x="200.726318" y="366.880315" xlink:href="#e"/>
<use x="211.344481" y="366.880315" xlink:href="#a"/>
<use x="218.423257" y="366.880315" xlink:href="#b"/>
<use x="229.926268" y="366.880315" xlink:href="#g"/>
<use x="237.889891" y="366.880315" xlink:href="#h"/>
</g>
<g fill="#fff">
<use x="508.117188" y="356.563909" xlink:href="#q"/>
<use x="518.735351" y="356.563909" xlink:href="#i"/>
<use x="530.238362" y="356.563909" xlink:href="#g"/>
<use x="538.201985" y="356.563909" xlink:href="#h"/>
<use x="547.935301" y="356.563909" xlink:href="#b"/>
<use x="559.438312" y="356.563909" xlink:href="#d"/>
<use x="571.82617" y="356.563909" xlink:href="#f"/>
<use x="583.32918" y="356.563909" xlink:href="#k"/>
<use x="588.638262" y="356.563909" xlink:href="#j"/>
<use x="594.832191" y="356.563909" xlink:href="#m"/>
<use x="601.910967" y="356.563909" xlink:href="#f"/>
<use x="613.413977" y="356.563909" xlink:href="#e"/>
<use x="624.032141" y="356.563909" xlink:href="#a"/>
<use x="631.110917" y="356.563909" xlink:href="#b"/>
<use x="642.613928" y="356.563909" xlink:href="#g"/>
<use x="650.57755" y="356.563909" xlink:href="#h"/>
</g>
<path transform="matrix(.88485 0 0 .88442 -42.327 -59.073)" d="m708.67 414.21v-23.585h-417.93v23.585" fill="none" stroke="#666" stroke-linecap="round" stroke-width="4"/>
<path transform="matrix(.88485 0 0 .88442 -42.327 -59.073)" d="m392.36 296.32h-111.86" fill="none" stroke="#666" stroke-linecap="round" stroke-width="4"/>
<path transform="matrix(.88485 0 0 .88442 -42.327 -59.073)" d="m607.42 296.32h111.86" fill="none" stroke="#666" stroke-linecap="round" stroke-width="4"/>
<path transform="matrix(.88485 0 0 .88442 -42.327 -59.073)" d="m826.81 342.72v27.362h-653.84v-27.362" fill="none" stroke="#666" stroke-linecap="round" stroke-width="4"/>
<path transform="matrix(.88485 0 0 .88442 -42.327 -59.073)" d="m499.7 390.62v-47.899" fill="none" stroke="#666" stroke-linecap="round" stroke-width="4"/>
<path transform="matrix(.88485 0 0 .88442 -42.327 -59.073)" d="m499.89 248.03v-69.599" fill="none" stroke="#666" stroke-linecap="round" stroke-width="4"/>
<path transform="matrix(.88485 0 0 .88442 -42.327 -59.073)" d="m826.81 248.03v-35.356h-653.84v35.356" fill="none" stroke="#666" stroke-linecap="round" stroke-width="4"/>
</svg>
