<?xml version="1.0" encoding="UTF-8"?>
<svg width="800px" height="237px" version="1.1" viewBox="0 0 800 237" xmlns="http://www.w3.org/2000/svg" xmlns:xlink="http://www.w3.org/1999/xlink">
<defs>
<symbol id="an" overflow="visible">
<path d="m3.9844-13.109v11.469h2.4219c2.0312 0 3.5195-0.45703 4.4688-1.375 0.94531-0.92578 1.4219-2.3828 1.4219-4.375 0-1.9766-0.47656-3.4258-1.4219-4.3438-0.94922-0.91406-2.4375-1.375-4.4688-1.375zm-2-1.6406h4.1094c2.8633 0 4.9609 0.59375 6.2969 1.7812 1.3438 1.1875 2.0156 3.0469 2.0156 5.5781 0 2.543-0.67188 4.4141-2.0156 5.6094-1.3438 1.1875-3.4453 1.7812-6.2969 1.7812h-4.1094z"/>
</symbol>
<symbol id="c" overflow="visible">
<path d="m11.391-5.9844v0.89062h-8.375c0.082031 1.25 0.46094 2.2031 1.1406 2.8594 0.67578 0.65625 1.6133 0.98438 2.8125 0.98438 0.70703 0 1.3906-0.082031 2.0469-0.25 0.65625-0.17578 1.3047-0.4375 1.9531-0.78125v1.7188c-0.65625 0.28125-1.3281 0.49219-2.0156 0.625-0.6875 0.14453-1.3828 0.21875-2.0781 0.21875-1.7734 0-3.1719-0.50781-4.2031-1.5312-1.0312-1.0312-1.5469-2.4219-1.5469-4.1719 0-1.8125 0.48828-3.25 1.4688-4.3125 0.97656-1.0625 2.2969-1.5938 3.9531-1.5938 1.4883 0 2.6641 0.48047 3.5312 1.4375 0.875 0.96094 1.3125 2.2617 1.3125 3.9062zm-1.8281-0.53125c-0.011719-1-0.28906-1.7969-0.82812-2.3906-0.54297-0.59375-1.2617-0.89062-2.1562-0.89062-1.0234 0-1.8398 0.28906-2.4531 0.85938-0.60547 0.57422-0.95312 1.3828-1.0469 2.4219z"/>
</symbol>
<symbol id="l" overflow="visible">
<path d="m9.8906-10.641v1.7031c-0.52344-0.28125-1.043-0.49219-1.5625-0.64062-0.51172-0.14453-1.0312-0.21875-1.5625-0.21875-1.1797 0-2.0938 0.375-2.75 1.125s-0.98438 1.8047-0.98438 3.1562c0 1.3438 0.32812 2.3906 0.98438 3.1406s1.5703 1.125 2.75 1.125c0.53125 0 1.0508-0.066406 1.5625-0.20312 0.51953-0.14453 1.0391-0.36328 1.5625-0.65625v1.6875c-0.51172 0.24219-1.043 0.41797-1.5938 0.53125-0.54297 0.11328-1.1172 0.17188-1.7188 0.17188-1.6797 0-3.0078-0.51953-3.9844-1.5625-0.98047-1.0508-1.4688-2.4609-1.4688-4.2344 0-1.8125 0.49219-3.2344 1.4844-4.2656 0.98828-1.0312 2.3477-1.5469 4.0781-1.5469 0.5625 0 1.1094 0.058594 1.6406 0.17188 0.53906 0.11719 1.0625 0.28906 1.5625 0.51562z"/>
</symbol>
<symbol id="j" overflow="visible">
<path d="m8.3281-9.3594c-0.19922-0.125-0.42188-0.21094-0.67188-0.26562-0.24219-0.0625-0.5-0.09375-0.78125-0.09375-1.0312 0-1.8242 0.33984-2.375 1.0156-0.55469 0.66797-0.82812 1.625-0.82812 2.875v5.8281h-1.8281v-11.062h1.8281v1.7188c0.38281-0.67578 0.87891-1.1758 1.4844-1.5 0.61328-0.32031 1.3633-0.48438 2.25-0.48438 0.125 0 0.25781 0.011719 0.40625 0.03125 0.15625 0.011719 0.32812 0.03125 0.51562 0.0625z"/>
</symbol>
<symbol id="b" overflow="visible">
<path d="m6.9531-5.5625c-1.4805 0-2.5078 0.16797-3.0781 0.5-0.5625 0.33594-0.84375 0.90625-0.84375 1.7188 0 0.64844 0.21094 1.1641 0.64062 1.5469 0.42578 0.375 1.0039 0.5625 1.7344 0.5625 1.0078 0 1.8164-0.35156 2.4219-1.0625 0.61328-0.71875 0.92188-1.6719 0.92188-2.8594v-0.40625zm3.625-0.75v6.3125h-1.8281v-1.6719c-0.40625 0.66797-0.92188 1.1641-1.5469 1.4844-0.61719 0.3125-1.375 0.46875-2.2812 0.46875-1.1367 0-2.0391-0.31641-2.7031-0.95312-0.66797-0.63281-1-1.4844-1-2.5469 0-1.25 0.41406-2.1875 1.25-2.8125 0.83203-0.63281 2.0781-0.95312 3.7344-0.95312h2.5469v-0.17188c0-0.84375-0.27734-1.4922-0.82812-1.9531-0.54297-0.45703-1.3125-0.6875-2.3125-0.6875-0.63672 0-1.2578 0.078125-1.8594 0.23438-0.59375 0.14844-1.168 0.375-1.7188 0.6875v-1.6875c0.66406-0.25781 1.3125-0.45312 1.9375-0.57812s1.2344-0.1875 1.8281-0.1875c1.6016 0 2.8008 0.41797 3.5938 1.25 0.78906 0.82422 1.1875 2.0781 1.1875 3.7656z"/>
</symbol>
<symbol id="d" overflow="visible">
<path d="m8.9688-10.734v1.7188c-0.51172-0.26953-1.043-0.46875-1.5938-0.59375-0.55469-0.13281-1.125-0.20312-1.7188-0.20312-0.90625 0-1.5898 0.14062-2.0469 0.42188-0.44922 0.27344-0.67188 0.68359-0.67188 1.2344 0 0.42969 0.16016 0.76172 0.48438 1 0.32031 0.24219 0.97266 0.46875 1.9531 0.6875l0.625 0.14062c1.2891 0.27344 2.207 0.66406 2.75 1.1719 0.53906 0.5 0.8125 1.2031 0.8125 2.1094 0 1.0234-0.40625 1.8359-1.2188 2.4375-0.8125 0.59375-1.9336 0.89062-3.3594 0.89062-0.59375 0-1.2148-0.058594-1.8594-0.17188-0.63672-0.11328-1.3125-0.28516-2.0312-0.51562v-1.875c0.67578 0.34375 1.3359 0.60547 1.9844 0.78125 0.65625 0.17969 1.3047 0.26562 1.9531 0.26562 0.85156 0 1.5078-0.14453 1.9688-0.4375 0.46875-0.28906 0.70312-0.70703 0.70312-1.25 0-0.48828-0.16797-0.86328-0.5-1.125-0.33594-0.26953-1.0703-0.52344-2.2031-0.76562l-0.625-0.14062c-1.125-0.23828-1.9453-0.60156-2.4531-1.0938-0.5-0.48828-0.75-1.1641-0.75-2.0312 0-1.0391 0.36719-1.8438 1.1094-2.4062 0.73828-0.5625 1.7891-0.84375 3.1562-0.84375 0.66406 0 1.2969 0.054687 1.8906 0.15625 0.59375 0.09375 1.1406 0.24219 1.6406 0.4375z"/>
</symbol>
<symbol id="a" overflow="visible">
<path d="m1.9062-11.062h1.8281v11.062h-1.8281zm0-4.3125h1.8281v2.2969h-1.8281z"/>
</symbol>
<symbol id="e" overflow="visible">
<path d="m11.125-6.6719v6.6719h-1.8281v-6.625c0-1.0391-0.20312-1.8203-0.60938-2.3438-0.40625-0.51953-1.0234-0.78125-1.8438-0.78125-0.98047 0-1.7578 0.3125-2.3281 0.9375-0.5625 0.625-0.84375 1.4805-0.84375 2.5625v6.25h-1.8281v-11.062h1.8281v1.7188c0.4375-0.66406 0.94531-1.1602 1.5312-1.4844 0.59375-0.33203 1.2734-0.5 2.0469-0.5 1.2695 0 2.2344 0.39844 2.8906 1.1875 0.65625 0.78125 0.98438 1.9375 0.98438 3.4688z"/>
</symbol>
<symbol id="s" overflow="visible">
<path d="m9.2031-5.6562c0-1.3203-0.27734-2.3438-0.82812-3.0625-0.54297-0.72656-1.3047-1.0938-2.2812-1.0938-0.98047 0-1.7422 0.36719-2.2812 1.0938-0.54297 0.71875-0.8125 1.7422-0.8125 3.0625 0 1.3125 0.26953 2.3359 0.8125 3.0625 0.53906 0.71875 1.3008 1.0781 2.2812 1.0781 0.97656 0 1.7383-0.35938 2.2812-1.0781 0.55078-0.72656 0.82812-1.75 0.82812-3.0625zm1.8125 4.2812c0 1.8828-0.41797 3.2852-1.25 4.2031-0.83594 0.91406-2.1172 1.375-3.8438 1.375-0.64844 0-1.2578-0.046875-1.8281-0.14062-0.5625-0.09375-1.1094-0.24219-1.6406-0.4375v-1.7656c0.53125 0.28906 1.0547 0.50391 1.5781 0.64062 0.51953 0.13281 1.0508 0.20312 1.5938 0.20312 1.1953 0 2.0938-0.3125 2.6875-0.9375 0.59375-0.61719 0.89062-1.5547 0.89062-2.8125v-0.90625c-0.375 0.65625-0.85938 1.1484-1.4531 1.4688-0.58594 0.32422-1.2812 0.48438-2.0938 0.48438-1.3672 0-2.4648-0.51562-3.2969-1.5469-0.82422-1.0391-1.2344-2.4102-1.2344-4.1094 0-1.7188 0.41016-3.0938 1.2344-4.125 0.83203-1.0312 1.9297-1.5469 3.2969-1.5469 0.8125 0 1.5078 0.16406 2.0938 0.48438 0.59375 0.32422 1.0781 0.80859 1.4531 1.4531v-1.6719h1.8125z"/>
</symbol>
<symbol id="g" overflow="visible">
<path d="m9.2031-9.3906v-5.9844h1.8125v15.375h-1.8125v-1.6562c-0.38672 0.65625-0.87109 1.1484-1.4531 1.4688-0.58594 0.3125-1.2812 0.46875-2.0938 0.46875-1.3438 0-2.4375-0.53125-3.2812-1.5938-0.83594-1.0703-1.25-2.4727-1.25-4.2031 0-1.7383 0.41406-3.1406 1.25-4.2031 0.84375-1.0703 1.9375-1.6094 3.2812-1.6094 0.8125 0 1.5078 0.16406 2.0938 0.48438 0.58203 0.3125 1.0664 0.79688 1.4531 1.4531zm-6.2031 3.875c0 1.3359 0.27344 2.3828 0.82812 3.1406 0.55078 0.76172 1.3047 1.1406 2.2656 1.1406 0.96875 0 1.7266-0.37891 2.2812-1.1406 0.55078-0.75781 0.82812-1.8047 0.82812-3.1406 0-1.3438-0.27734-2.3945-0.82812-3.1562-0.55469-0.75781-1.3125-1.1406-2.2812-1.1406-0.96094 0-1.7148 0.38281-2.2656 1.1406-0.55469 0.76172-0.82812 1.8125-0.82812 3.1562z"/>
</symbol>
<symbol id="w" overflow="visible">
<path d="m10.531-8.9375c0.45703-0.82031 1.0039-1.4258 1.6406-1.8125 0.63281-0.38281 1.3789-0.57812 2.2344-0.57812 1.1562 0 2.0469 0.40625 2.6719 1.2188 0.625 0.80469 0.9375 1.9492 0.9375 3.4375v6.6719h-1.8281v-6.625c0-1.0508-0.1875-1.832-0.5625-2.3438-0.375-0.51953-0.94922-0.78125-1.7188-0.78125-0.94922 0-1.6992 0.3125-2.25 0.9375-0.54297 0.625-0.8125 1.4805-0.8125 2.5625v6.25h-1.8281v-6.625c0-1.0625-0.1875-1.8477-0.5625-2.3594-0.375-0.50781-0.96094-0.76562-1.75-0.76562-0.92969 0-1.668 0.32031-2.2188 0.95312-0.54297 0.625-0.8125 1.4766-0.8125 2.5469v6.25h-1.8281v-11.062h1.8281v1.7188c0.41406-0.67578 0.91016-1.1758 1.4844-1.5 0.58203-0.32031 1.2734-0.48438 2.0781-0.48438 0.80078 0 1.4844 0.20312 2.0469 0.60938 0.57031 0.40625 0.98828 1 1.25 1.7812z"/>
</symbol>
<symbol id="am" overflow="visible">
<path d="m1.9844-14.75h2v14.75h-2z"/>
</symbol>
<symbol id="v" overflow="visible">
<path d="m9.8594-5.5156c0-1.3438-0.27734-2.3945-0.82812-3.1562-0.54297-0.75781-1.2969-1.1406-2.2656-1.1406-0.96094 0-1.7148 0.38281-2.2656 1.1406-0.55469 0.76172-0.82812 1.8125-0.82812 3.1562 0 1.3359 0.27344 2.3828 0.82812 3.1406 0.55078 0.76172 1.3047 1.1406 2.2656 1.1406 0.96875 0 1.7227-0.37891 2.2656-1.1406 0.55078-0.75781 0.82812-1.8047 0.82812-3.1406zm-6.1875-3.875c0.38281-0.65625 0.86719-1.1406 1.4531-1.4531 0.58203-0.32031 1.2812-0.48438 2.0938-0.48438 1.3438 0 2.4297 0.53906 3.2656 1.6094 0.84375 1.0625 1.2656 2.4648 1.2656 4.2031 0 1.7305-0.42188 3.1328-1.2656 4.2031-0.83594 1.0625-1.9219 1.5938-3.2656 1.5938-0.8125 0-1.5117-0.15625-2.0938-0.46875-0.58594-0.32031-1.0703-0.8125-1.4531-1.4688v1.6562h-1.8281v-15.375h1.8281z"/>
</symbol>
<symbol id="n" overflow="visible">
<path d="m1.9062-15.375h1.8281v15.375h-1.8281z"/>
</symbol>
<symbol id="m" overflow="visible">
<path d="m3.7031-14.203v3.1406h3.7656v1.4062h-3.7656v6.0156c0 0.89844 0.125 1.4766 0.375 1.7344 0.25 0.26172 0.75391 0.39062 1.5156 0.39062h1.875v1.5156h-1.875c-1.4062 0-2.3828-0.25781-2.9219-0.78125-0.53125-0.53125-0.79688-1.4844-0.79688-2.8594v-6.0156h-1.3281v-1.4062h1.3281v-3.1406z"/>
</symbol>
<symbol id="al" overflow="visible">
<path d="m12.062-2.1094v-3.9531h-3.2656v-1.6406h5.25v6.3281c-0.77344 0.55469-1.625 0.96875-2.5625 1.25-0.92969 0.26953-1.918 0.40625-2.9688 0.40625-2.3125 0-4.1211-0.67188-5.4219-2.0156-1.3047-1.3438-1.9531-3.2188-1.9531-5.625 0-2.4141 0.64844-4.2969 1.9531-5.6406 1.3008-1.3438 3.1094-2.0156 5.4219-2.0156 0.95703 0 1.8672 0.12109 2.7344 0.35938 0.875 0.23047 1.6758 0.57812 2.4062 1.0469v2.125c-0.74219-0.625-1.5273-1.0938-2.3594-1.4062-0.83594-0.32031-1.7109-0.48438-2.625-0.48438-1.8047 0-3.1562 0.50781-4.0625 1.5156-0.90625 1-1.3594 2.5-1.3594 4.5 0 1.9922 0.45312 3.4922 1.3594 4.5 0.90625 1 2.2578 1.5 4.0625 1.5 0.70703 0 1.3359-0.054687 1.8906-0.17188 0.5625-0.125 1.0625-0.31641 1.5-0.57812z"/>
</symbol>
<symbol id="ak" overflow="visible">
<path d="m3.6719-1.6562v5.8594h-1.8281v-15.266h1.8281v1.6719c0.38281-0.65625 0.86719-1.1406 1.4531-1.4531 0.58203-0.32031 1.2812-0.48438 2.0938-0.48438 1.3438 0 2.4297 0.53906 3.2656 1.6094 0.84375 1.0625 1.2656 2.4648 1.2656 4.2031 0 1.7305-0.42188 3.1328-1.2656 4.2031-0.83594 1.0625-1.9219 1.5938-3.2656 1.5938-0.8125 0-1.5117-0.15625-2.0938-0.46875-0.58594-0.32031-1.0703-0.8125-1.4531-1.4688zm6.1875-3.8594c0-1.3438-0.27734-2.3945-0.82812-3.1562-0.54297-0.75781-1.2969-1.1406-2.2656-1.1406-0.96094 0-1.7148 0.38281-2.2656 1.1406-0.55469 0.76172-0.82812 1.8125-0.82812 3.1562 0 1.3359 0.27344 2.3828 0.82812 3.1406 0.55078 0.76172 1.3047 1.1406 2.2656 1.1406 0.96875 0 1.7227-0.37891 2.2656-1.1406 0.55078-0.75781 0.82812-1.8047 0.82812-3.1406z"/>
</symbol>
<symbol id="u" overflow="visible">
<path d="m3.9844-13.109v5.5469h2.5156c0.92578 0 1.6445-0.23828 2.1562-0.71875 0.50781-0.48828 0.76562-1.1758 0.76562-2.0625 0-0.88281-0.25781-1.5664-0.76562-2.0469-0.51172-0.47656-1.2305-0.71875-2.1562-0.71875zm-2-1.6406h4.5156c1.6562 0 2.9062 0.375 3.75 1.125 0.85156 0.74219 1.2812 1.8359 1.2812 3.2812 0 1.4609-0.42969 2.5625-1.2812 3.3125-0.84375 0.74219-2.0938 1.1094-3.75 1.1094h-2.5156v5.9219h-2z"/>
</symbol>
<symbol id="t" overflow="visible">
<path d="m6.2031-9.7969c-0.98047 0-1.7578 0.38281-2.3281 1.1406-0.5625 0.76172-0.84375 1.8086-0.84375 3.1406 0 1.3242 0.28125 2.3672 0.84375 3.125 0.57031 0.76172 1.3477 1.1406 2.3281 1.1406 0.96875 0 1.7344-0.37891 2.2969-1.1406 0.57031-0.76953 0.85938-1.8125 0.85938-3.125s-0.28906-2.3516-0.85938-3.125c-0.5625-0.76953-1.3281-1.1562-2.2969-1.1562zm0-1.5312c1.582 0 2.8281 0.51562 3.7344 1.5469 0.90625 1.0234 1.3594 2.4453 1.3594 4.2656 0 1.8047-0.45312 3.2188-1.3594 4.25s-2.1523 1.5469-3.7344 1.5469c-1.5938 0-2.8398-0.51562-3.7344-1.5469-0.89844-1.0312-1.3438-2.4453-1.3438-4.25 0-1.8203 0.44531-3.2422 1.3438-4.2656 0.89453-1.0312 2.1406-1.5469 3.7344-1.5469z"/>
</symbol>
<symbol id="aj" overflow="visible">
<path d="m1.7188-4.3594v-6.7031h1.8281v6.625c0 1.0547 0.20312 1.8398 0.60938 2.3594 0.40625 0.52344 1.0195 0.78125 1.8438 0.78125 0.97656 0 1.7539-0.3125 2.3281-0.9375 0.57031-0.625 0.85938-1.4766 0.85938-2.5625v-6.2656h1.8125v11.062h-1.8125v-1.7031c-0.44922 0.67969-0.96484 1.1797-1.5469 1.5-0.58594 0.32031-1.2617 0.48438-2.0312 0.48438-1.2734 0-2.2422-0.39062-2.9062-1.1719-0.65625-0.78906-0.98438-1.9453-0.98438-3.4688z"/>
</symbol>
<symbol id="ai" overflow="visible">
<path d="m1.8594-14.75h3.8125v8.8438c0 1.2188 0.19531 2.0898 0.59375 2.6094 0.40625 0.52344 1.0547 0.78125 1.9531 0.78125 0.91406 0 1.5703-0.25781 1.9688-0.78125 0.39453-0.51953 0.59375-1.3906 0.59375-2.6094v-8.8438h3.8125v8.8438c0 2.0859-0.52734 3.6367-1.5781 4.6562-1.043 1.0234-2.6406 1.5312-4.7969 1.5312-2.1484 0-3.7461-0.50781-4.7969-1.5312-1.043-1.0195-1.5625-2.5703-1.5625-4.6562z"/>
</symbol>
<symbol id="k" overflow="visible">
<path d="m12.844-6.7344v6.7344h-3.5625v-5.1562c0-0.95703-0.023438-1.6133-0.0625-1.9688-0.042969-0.36328-0.11719-0.63281-0.21875-0.8125-0.14844-0.22656-0.33984-0.40625-0.57812-0.53125-0.23047-0.13281-0.49609-0.20312-0.79688-0.20312-0.74219 0-1.3242 0.28906-1.75 0.85938-0.41797 0.57422-0.625 1.3672-0.625 2.375v5.4375h-3.5469v-11.062h3.5469v1.6094c0.53125-0.63281 1.0938-1.1016 1.6875-1.4062 0.60156-0.3125 1.2695-0.46875 2-0.46875 1.2812 0 2.25 0.39062 2.9062 1.1719 0.66406 0.78125 1 1.9219 1 3.4219z"/>
</symbol>
<symbol id="i" overflow="visible">
<path d="m1.7031-11.062h3.5469v11.062h-3.5469zm0-4.3125h3.5469v2.8906h-3.5469z"/>
</symbol>
<symbol id="p" overflow="visible">
<path d="m0.3125-11.062h3.5312l2.7656 7.6406 2.75-7.6406h3.5469l-4.3594 11.062h-3.8906z"/>
</symbol>
<symbol id="h" overflow="visible">
<path d="m12.766-5.5625v1h-8.2812c0.082031 0.83594 0.37891 1.4609 0.89062 1.875 0.51953 0.41797 1.2422 0.625 2.1719 0.625 0.73828 0 1.5-0.10938 2.2812-0.32812 0.78125-0.22656 1.582-0.56641 2.4062-1.0156v2.7344c-0.83594 0.3125-1.6719 0.54688-2.5156 0.70312-0.83594 0.16406-1.668 0.25-2.5 0.25-2.0117 0-3.5742-0.50391-4.6875-1.5156-1.1055-1.0195-1.6562-2.4453-1.6562-4.2812 0-1.8125 0.53906-3.2344 1.625-4.2656 1.0938-1.0312 2.5977-1.5469 4.5156-1.5469 1.7383 0 3.1289 0.52734 4.1719 1.5781 1.0508 1.043 1.5781 2.4375 1.5781 4.1875zm-3.6406-1.1719c0-0.67578-0.19922-1.2188-0.59375-1.625-0.38672-0.41406-0.89844-0.625-1.5312-0.625-0.6875 0-1.2461 0.19531-1.6719 0.57812-0.42969 0.38672-0.69922 0.94531-0.8125 1.6719z"/>
</symbol>
<symbol id="aa" overflow="visible">
<path d="m9.9375-8.0469c-0.3125-0.14453-0.625-0.25391-0.9375-0.32812-0.30469-0.070312-0.60938-0.10938-0.92188-0.10938-0.90625 0-1.6055 0.29297-2.0938 0.875-0.49219 0.58594-0.73438 1.4219-0.73438 2.5156v5.0938h-3.5469v-11.062h3.5469v1.8125c0.44531-0.71875 0.96875-1.2422 1.5625-1.5781 0.59375-0.33203 1.3008-0.5 2.125-0.5 0.11328 0 0.23828 0.007813 0.375 0.015625 0.14453 0.011719 0.34766 0.03125 0.60938 0.0625z"/>
</symbol>
<symbol id="f" overflow="visible">
<path d="m10.359-10.719v2.6875c-0.76172-0.3125-1.4961-0.54688-2.2031-0.70312-0.69922-0.16406-1.3594-0.25-1.9844-0.25-0.67969 0-1.1836 0.085937-1.5156 0.25-0.32422 0.16797-0.48438 0.42969-0.48438 0.78125 0 0.28125 0.125 0.5 0.375 0.65625 0.25 0.14844 0.69141 0.25781 1.3281 0.32812l0.625 0.09375c1.8125 0.23047 3.0312 0.60938 3.6562 1.1406 0.63281 0.52344 0.95312 1.3438 0.95312 2.4688 0 1.1875-0.4375 2.0781-1.3125 2.6719-0.875 0.58594-2.1797 0.875-3.9062 0.875-0.73047 0-1.4844-0.058594-2.2656-0.17188-0.78125-0.11328-1.5859-0.28516-2.4062-0.51562v-2.6875c0.70703 0.34375 1.4297 0.60547 2.1719 0.78125 0.73828 0.16797 1.4922 0.25 2.2656 0.25 0.6875 0 1.2031-0.09375 1.5469-0.28125 0.35156-0.19531 0.53125-0.48438 0.53125-0.85938 0-0.3125-0.12109-0.54688-0.35938-0.70312-0.24219-0.15625-0.71875-0.27344-1.4375-0.35938l-0.625-0.078125c-1.5742-0.19531-2.6797-0.5625-3.3125-1.0938-0.63672-0.53906-0.95312-1.3516-0.95312-2.4375 0-1.1758 0.39844-2.0469 1.2031-2.6094 0.8125-0.5625 2.0469-0.84375 3.7031-0.84375 0.65625 0 1.3438 0.054687 2.0625 0.15625 0.71875 0.09375 1.5 0.24609 2.3438 0.45312z"/>
</symbol>
<symbol id="z" overflow="visible">
<path d="m6.6719-4.9844c-0.74219 0-1.2969 0.125-1.6719 0.375s-0.5625 0.62109-0.5625 1.1094c0 0.44922 0.14844 0.80469 0.45312 1.0625 0.30078 0.25 0.71875 0.375 1.25 0.375 0.66406 0 1.2266-0.23828 1.6875-0.71875 0.45703-0.47656 0.6875-1.0781 0.6875-1.7969v-0.40625zm5.4062-1.3281v6.3125h-3.5625v-1.6406c-0.48047 0.67969-1.0156 1.168-1.6094 1.4688s-1.3203 0.45312-2.1719 0.45312c-1.1484 0-2.0781-0.33203-2.7969-1-0.71094-0.66406-1.0625-1.5312-1.0625-2.5938 0-1.3008 0.44141-2.2539 1.3281-2.8594 0.89453-0.60156 2.3008-0.90625 4.2188-0.90625h2.0938v-0.28125c0-0.5625-0.22656-0.97266-0.67188-1.2344-0.4375-0.25781-1.125-0.39062-2.0625-0.39062-0.76172 0-1.4688 0.078125-2.125 0.23438-0.64844 0.14844-1.25 0.37109-1.8125 0.67188v-2.6875c0.75781-0.1875 1.5195-0.32812 2.2812-0.42188 0.76953-0.09375 1.5352-0.14062 2.2969-0.14062 2 0 3.4414 0.39844 4.3281 1.1875 0.88281 0.78125 1.3281 2.0586 1.3281 3.8281z"/>
</symbol>
<symbol id="o" overflow="visible">
<path d="m1.7031-15.375h3.5469v15.375h-3.5469z"/>
</symbol>
<symbol id="ah" overflow="visible">
<path d="m5.6719-11.875v9h1.3594c1.5625 0 2.75-0.38281 3.5625-1.1562 0.82031-0.76953 1.2344-1.8906 1.2344-3.3594 0-1.457-0.41406-2.5664-1.2344-3.3281-0.8125-0.76953-2-1.1562-3.5625-1.1562zm-3.8125-2.875h4.0156c2.25 0 3.9219 0.16406 5.0156 0.48438 1.0938 0.3125 2.0352 0.85547 2.8281 1.625 0.6875 0.65625 1.1953 1.4219 1.5312 2.2969 0.34375 0.86719 0.51562 1.8516 0.51562 2.9531 0 1.1172-0.17188 2.1094-0.51562 2.9844-0.33594 0.86719-0.84375 1.6328-1.5312 2.2969-0.79297 0.77344-1.7461 1.3203-2.8594 1.6406-1.1055 0.3125-2.7656 0.46875-4.9844 0.46875h-4.0156z"/>
</symbol>
<symbol id="r" overflow="visible">
<path d="m9.25-1.875c-0.49219 0.64844-1.0312 1.1211-1.625 1.4219-0.58594 0.30469-1.2617 0.45312-2.0312 0.45312-1.3555 0-2.4766-0.53125-3.3594-1.5938-0.88672-1.0625-1.3281-2.4141-1.3281-4.0625 0-1.6562 0.44141-3.0078 1.3281-4.0625 0.88281-1.0625 2.0039-1.5938 3.3594-1.5938 0.76953 0 1.4453 0.15234 2.0312 0.45312 0.59375 0.30469 1.1328 0.78125 1.625 1.4375v-1.6406h3.5469v9.9531c0 1.7695-0.5625 3.125-1.6875 4.0625-1.1172 0.9375-2.7461 1.4062-4.8906 1.4062-0.6875 0-1.3555-0.054687-2-0.15625-0.64844-0.10547-1.2969-0.26562-1.9531-0.48438v-2.75c0.625 0.35156 1.2344 0.61719 1.8281 0.79688 0.59375 0.17578 1.1875 0.26562 1.7812 0.26562 1.1641 0 2.0195-0.25781 2.5625-0.76562 0.53906-0.51172 0.8125-1.3008 0.8125-2.375zm-2.3438-6.8906c-0.73047 0-1.3047 0.27344-1.7188 0.8125-0.40625 0.54297-0.60938 1.3086-0.60938 2.2969 0 1.0117 0.19531 1.7812 0.59375 2.3125 0.39453 0.52344 0.97266 0.78125 1.7344 0.78125 0.73828 0 1.3125-0.26953 1.7188-0.8125 0.41406-0.53906 0.625-1.3008 0.625-2.2812 0-0.98828-0.21094-1.7539-0.625-2.2969-0.40625-0.53906-0.98047-0.8125-1.7188-0.8125z"/>
</symbol>
<symbol id="ag" overflow="visible">
<path d="m10.828-2.6875h-5.9531l-0.95312 2.6875h-3.8281l5.4844-14.75h4.5312l5.4688 14.75h-3.8281zm-5.0156-2.7344h4.0469l-2.0156-5.875z"/>
</symbol>
<symbol id="af" overflow="visible">
<path d="m5.5781-14.203v3.1406h3.6406v2.5312h-3.6406v4.6875c0 0.51172 0.097656 0.85938 0.29688 1.0469 0.20703 0.17969 0.61328 0.26562 1.2188 0.26562h1.8281v2.5312h-3.0469c-1.3984 0-2.3867-0.28906-2.9688-0.875-0.58594-0.58203-0.875-1.5703-0.875-2.9688v-4.6875h-1.7656v-2.5312h1.7656v-3.1406z"/>
</symbol>
<symbol id="ae" overflow="visible">
<path d="m0.09375-14.75h13.625v2.875h-4.9062v11.875h-3.8125v-11.875h-4.9062z"/>
</symbol>
<symbol id="ad" overflow="visible">
<path d="m10.656-10.719v2.8906c-0.48047-0.33203-0.96484-0.57812-1.4531-0.73438-0.48047-0.15625-0.98047-0.23438-1.5-0.23438-0.99219 0-1.7617 0.28906-2.3125 0.85938-0.55469 0.57422-0.82812 1.3828-0.82812 2.4219 0 1.0312 0.27344 1.8359 0.82812 2.4062 0.55078 0.57422 1.3203 0.85938 2.3125 0.85938 0.55078 0 1.0781-0.078125 1.5781-0.23438 0.5-0.16406 0.95703-0.41016 1.375-0.73438v2.8906c-0.55469 0.21094-1.1172 0.35938-1.6875 0.45312-0.57422 0.10156-1.1484 0.15625-1.7188 0.15625-2 0-3.5625-0.50781-4.6875-1.5312-1.125-1.0195-1.6875-2.4414-1.6875-4.2656 0-1.832 0.5625-3.2578 1.6875-4.2812 1.125-1.0195 2.6875-1.5312 4.6875-1.5312 0.58203 0 1.1562 0.054687 1.7188 0.15625 0.5625 0.09375 1.125 0.24609 1.6875 0.45312z"/>
</symbol>
<symbol id="ac" overflow="visible">
<path d="m12.844-6.7344v6.7344h-3.5625v-5.1406c0-0.96875-0.023438-1.6289-0.0625-1.9844-0.042969-0.36328-0.11719-0.63281-0.21875-0.8125-0.14844-0.22656-0.33984-0.40625-0.57812-0.53125-0.23047-0.13281-0.49609-0.20312-0.79688-0.20312-0.74219 0-1.3242 0.28906-1.75 0.85938-0.41797 0.57422-0.625 1.3672-0.625 2.375v5.4375h-3.5469v-15.375h3.5469v5.9219c0.53125-0.63281 1.0938-1.1016 1.6875-1.4062 0.60156-0.3125 1.2695-0.46875 2-0.46875 1.2812 0 2.25 0.39062 2.9062 1.1719 0.66406 0.78125 1 1.9219 1 3.4219z"/>
</symbol>
<symbol id="q" overflow="visible">
<path d="m6.9688-8.7969c-0.78125 0-1.3828 0.28125-1.7969 0.84375-0.40625 0.5625-0.60938 1.375-0.60938 2.4375 0 1.0547 0.20312 1.8594 0.60938 2.4219 0.41406 0.5625 1.0156 0.84375 1.7969 0.84375s1.375-0.28125 1.7812-0.84375 0.60938-1.3672 0.60938-2.4219c0-1.0625-0.20312-1.875-0.60938-2.4375s-1-0.84375-1.7812-0.84375zm0-2.5312c1.9141 0 3.4062 0.51562 4.4688 1.5469 1.0703 1.0234 1.6094 2.4453 1.6094 4.2656 0 1.8125-0.53906 3.2344-1.6094 4.2656-1.0625 1.0234-2.5547 1.5312-4.4688 1.5312-1.9062 0-3.4023-0.50781-4.4844-1.5312-1.0742-1.0312-1.6094-2.4531-1.6094-4.2656 0-1.8203 0.53516-3.2422 1.6094-4.2656 1.082-1.0312 2.5781-1.5469 4.4844-1.5469z"/>
</symbol>
<symbol id="ab" overflow="visible">
<path d="m0.25-11.062h3.5469l2.9688 7.5 2.5312-7.5h3.5469l-4.6562 12.109c-0.46875 1.2266-1.0156 2.0859-1.6406 2.5781-0.625 0.48828-1.4492 0.73438-2.4688 0.73438h-2.0469v-2.3125h1.1094c0.59375 0 1.0234-0.10156 1.2969-0.29688 0.28125-0.1875 0.5-0.52734 0.65625-1.0156l0.09375-0.3125z"/>
</symbol>
<filter id="ap" x="0%" y="0%" width="100%" height="100%">
<feColorMatrix in="SourceGraphic" values="0 0 0 0 1 0 0 0 0 1 0 0 0 0 1 0 0 0 1 0"/>
</filter>
<mask id="y">
<g filter="url(#ap)">
<rect width="800" height="237" fill-opacity=".2"/>
</g>
</mask>
<clipPath id="ao">
<rect width="800" height="237"/>
</clipPath>
<g id="x" clip-path="url(#ao)">
<path transform="matrix(1.8417 0 0 1.8401 4.7435 11.306)" d="m133.62 77.658v-24.385h-6.2273l10.213-14.431 10.213 14.431h-6.2273v24.385zm0 0" fill="#50dc9d" stroke="#000" stroke-linecap="round"/>
<path transform="matrix(1.8417 0 0 1.8401 4.7435 11.306)" d="m287.43 38.668v24.387h-6.2273l10.215 14.431 10.213-14.431h-6.2273v-24.387zm0 0" fill="#50dc9d" stroke="#000" stroke-linecap="round"/>
</g>
</defs>
<path transform="matrix(1.8417 0 0 1.8401 4.7435 11.306)" d="m83.328 38.707h108.55v39.094h-108.55zm0 0" fill="#2b8059" stroke="#000" stroke-linecap="round" stroke-width="1.5"/>
<path transform="matrix(1.8417 0 0 1.8401 4.7435 11.306)" d="m83.328 77.801h108.55v39.092h-108.55zm0 0" fill="#3eaf7c" stroke="#000" stroke-linecap="round" stroke-width="1.5"/>
<path transform="matrix(1.8417 0 0 -1.8401 4.7435 11.306)" d="m237.14-77.62h108.55v39.092h-108.55zm0 0" fill="#2b8059" stroke="#000" stroke-linecap="round" stroke-width="1.5"/>
<path transform="matrix(1.8417 0 0 1.8401 4.7435 11.306)" d="m237.14-0.38505h108.55v39.092h-108.55zm0 0" fill="#3eaf7c" stroke="#000" stroke-linecap="round" stroke-width="1.5"/>
<path transform="matrix(1.8417 0 0 1.8401 4.7435 11.306)" d="m359.69 38.707v36.037" fill="none" stroke="#000" stroke-linecap="round" stroke-width="1.5"/>
<path d="m673.87 134.41-6.6602 18.094-6.6602-18.094c3.9336 2.8906 9.3125 2.875 13.32 0z" fill-rule="evenodd"/>
<path transform="matrix(1.8417 0 0 1.8401 4.7435 11.306)" d="m69.327 77.801v-36.169" fill="none" stroke="#000" stroke-linecap="round" stroke-width="1.5"/>
<path d="m125.73 102.35 6.6602-18.094 6.6602 18.094c-3.9336-2.8906-9.3125-2.875-13.32 0z" fill-rule="evenodd"/>
<path transform="matrix(1.8417 0 0 1.8401 4.7435 11.306)" d="m228.91 41.683v33.146" fill="none" stroke="#000" stroke-linecap="round" stroke-width="1.5"/>
<path d="m419.63 102.45 6.6602-18.094 6.6602 18.094c-3.9336-2.8906-9.3125-2.8711-13.32 0z" fill-rule="evenodd"/>
<path d="m433 134.56-6.6562 18.094-6.6602-18.094c3.9297 2.8906 9.3086 2.8711 13.316 0z" fill-rule="evenodd"/>
<path transform="matrix(1.8417 0 0 1.8401 4.7435 11.306)" d="m200.08 41.683v33.146" fill="none" stroke="#000" stroke-linecap="round" stroke-width="1.5"/>
<path d="m366.55 102.45 6.6602-18.094 6.6602 18.094c-3.9297-2.8906-9.3125-2.8711-13.32 0z" fill-rule="evenodd"/>
<path d="m379.92 134.56-6.6602 18.094-6.6602-18.094c3.9336 2.8906 9.3125 2.8711 13.32 0z" fill-rule="evenodd"/>
<path transform="matrix(1.8417 0 0 1.8401 4.7435 11.306)" d="m214.51 41.683v10.342m0 12.408v10.395" fill="none" stroke="#000" stroke-linecap="round" stroke-width="1.5"/>
<path d="m393.12 102.45 6.6562-18.094 6.6602 18.094c-3.9297-2.8906-9.3086-2.8711-13.316 0z" fill-rule="evenodd"/>
<path d="m406.49 134.56-6.6602 18.094-6.6602-18.094c3.9336 2.8906 9.3125 2.8711 13.32 0z" fill-rule="evenodd"/>
<path transform="matrix(1.8417 0 0 1.8401 4.7435 11.306)" d="m91.776 77.461v-24.385h-6.2273l10.213-14.431 10.213 14.431h-6.2273v24.385zm0 0" fill="#50dc9d" stroke="#000" stroke-linecap="round"/>
<path transform="matrix(1.8417 0 0 1.8401 4.7435 11.306)" d="m175.46 77.461v-24.385h-6.2273l10.213-14.431 10.215 14.431h-6.2273v24.385zm0 0" fill="#50dc9d" stroke="#000" stroke-linecap="round"/>
<path transform="matrix(1.8417 0 0 1.8401 4.7435 11.306)" d="m245.59 38.868v24.385h-6.2273l10.213 14.431 10.213-14.431h-6.2273v-24.385zm0 0" fill="#50dc9d" stroke="#000" stroke-linecap="round"/>
<path transform="matrix(1.8417 0 0 1.8401 4.7435 11.306)" d="m329.27 38.868v24.385h-6.2273l10.213 14.431 10.215-14.431h-6.2294v-24.385zm0 0" fill="#50dc9d" stroke="#000" stroke-linecap="round"/>
<use mask="url(#y)" xlink:href="#x"/>
<path transform="matrix(1.8417 0 0 1.8401 4.7435 11.306)" d="m345.69 77.801h4.0448m1.9429 0h4.0448m1.945 0h4.0448m1.945 0h4.0448m1.945 0h4.0427" fill="none" stroke="#000" stroke-width="1.5"/>
<path transform="matrix(1.8417 0 0 1.8401 4.7435 11.306)" d="m345.69 38.707h4.0448m1.9429 0h4.0448m1.945 0h4.0448m1.945 0h4.0448m1.945 0h4.0427" fill="none" stroke="#000" stroke-width="1.5"/>
<path transform="matrix(1.8417 0 0 1.8401 4.7435 11.306)" d="m191.88 38.707h4.5263m2.2631 0h4.5263m2.2631 0h4.5263m2.2631 0h4.5263m2.2631 0h4.5263m2.2631 0h4.5284m2.2631 0h4.5263" fill="none" stroke="#000" stroke-width="1.5"/>
<path transform="matrix(1.8417 0 0 1.8401 4.7435 11.306)" d="m55.326 38.707h4.0448m1.945 0h4.0448m1.9429 0h4.0448m1.945 0h4.0448m1.945 0h4.0448" fill="none" stroke="#000" stroke-width="1.5"/>
<path transform="matrix(1.8417 0 0 1.8401 4.7435 11.306)" d="m55.326 77.801h4.0448m1.945 0h4.0448m1.9429 0h4.0448m1.945 0h4.0448m1.945 0h4.0448" fill="none" stroke="#000" stroke-width="1.5"/>
<path transform="matrix(1.8417 0 0 1.8401 4.7435 11.306)" d="m191.88 77.801h4.5263m2.2631 0h4.5263m2.2631 0h4.5263m2.2631 0h4.5263m2.2631 0h4.5263m2.2631 0h4.5284m2.2631 0h4.5263" fill="none" stroke="#000" stroke-width="1.5"/>
<g>
<use x="678.617188" y="110.353984" xlink:href="#an"/>
<use x="693.350635" y="110.353984" xlink:href="#c"/>
<use x="706.242402" y="110.353984" xlink:href="#l"/>
<use x="717.292487" y="110.353984" xlink:href="#j"/>
<use x="724.659211" y="110.353984" xlink:href="#c"/>
<use x="737.550978" y="110.353984" xlink:href="#b"/>
<use x="750.442744" y="110.353984" xlink:href="#d"/>
<use x="761.49283" y="110.353984" xlink:href="#a"/>
<use x="767.017873" y="110.353984" xlink:href="#e"/>
<use x="779.909639" y="110.353984" xlink:href="#s"/>
</g>
<g>
<use x="687.824219" y="135.654765" xlink:href="#g"/>
<use x="700.715985" y="135.654765" xlink:href="#c"/>
<use x="713.607752" y="135.654765" xlink:href="#w"/>
<use x="733.866242" y="135.654765" xlink:href="#b"/>
<use x="746.758009" y="135.654765" xlink:href="#e"/>
<use x="759.649776" y="135.654765" xlink:href="#g"/>
<use x="772.541542" y="135.654765" xlink:href="#d"/>
</g>
<g>
<use x="7.03125" y="110.353984" xlink:href="#am"/>
<use x="12.556293" y="110.353984" xlink:href="#e"/>
<use x="25.448059" y="110.353984" xlink:href="#l"/>
<use x="36.498145" y="110.353984" xlink:href="#j"/>
<use x="43.864869" y="110.353984" xlink:href="#c"/>
<use x="56.756635" y="110.353984" xlink:href="#b"/>
<use x="69.648402" y="110.353984" xlink:href="#d"/>
<use x="80.698488" y="110.353984" xlink:href="#a"/>
<use x="86.223531" y="110.353984" xlink:href="#e"/>
<use x="99.115297" y="110.353984" xlink:href="#s"/>
</g>
<g>
<use x="19.921875" y="135.654765" xlink:href="#b"/>
<use x="32.813642" y="135.654765" xlink:href="#v"/>
<use x="45.705408" y="135.654765" xlink:href="#a"/>
<use x="51.230451" y="135.654765" xlink:href="#n"/>
<use x="56.755494" y="135.654765" xlink:href="#a"/>
<use x="62.280537" y="135.654765" xlink:href="#m"/>
<use x="69.64726" y="135.654765" xlink:href="#a"/>
<use x="75.172303" y="135.654765" xlink:href="#c"/>
<use x="88.06407" y="135.654765" xlink:href="#d"/>
</g>
<g>
<use x="378.609375" y="123.57664" xlink:href="#al"/>
<use x="395.184503" y="123.57664" xlink:href="#b"/>
<use x="408.07627" y="123.57664" xlink:href="#ak"/>
</g>
<g>
<use x="503.621094" y="41.459453" xlink:href="#u"/>
<use x="514.671179" y="41.459453" xlink:href="#j"/>
<use x="522.037903" y="41.459453" xlink:href="#t"/>
<use x="534.92967" y="41.459453" xlink:href="#g"/>
<use x="547.821436" y="41.459453" xlink:href="#aj"/>
<use x="560.713203" y="41.459453" xlink:href="#l"/>
<use x="571.763289" y="41.459453" xlink:href="#m"/>
</g>
<g>
<use x="493.492188" y="66.76414" xlink:href="#g"/>
<use x="506.383954" y="66.76414" xlink:href="#c"/>
<use x="519.275721" y="66.76414" xlink:href="#w"/>
<use x="539.534211" y="66.76414" xlink:href="#b"/>
<use x="552.425978" y="66.76414" xlink:href="#e"/>
<use x="565.317744" y="66.76414" xlink:href="#g"/>
<use x="578.209511" y="66.76414" xlink:href="#d"/>
</g>
<g fill="#fff">
<use x="488.101562" y="111.103984" xlink:href="#ai"/>
<use x="504.676691" y="111.103984" xlink:href="#k"/>
<use x="519.410139" y="111.103984" xlink:href="#i"/>
<use x="526.776862" y="111.103984" xlink:href="#p"/>
<use x="539.668629" y="111.103984" xlink:href="#h"/>
<use x="552.560396" y="111.103984" xlink:href="#aa"/>
<use x="561.7688" y="111.103984" xlink:href="#f"/>
<use x="574.660567" y="111.103984" xlink:href="#z"/>
<use x="587.552333" y="111.103984" xlink:href="#o"/>
</g>
<g fill="#fff">
<use x="501.914063" y="136.404765" xlink:href="#ah"/>
<use x="518.489191" y="136.404765" xlink:href="#h"/>
<use x="531.380958" y="136.404765" xlink:href="#f"/>
<use x="544.272724" y="136.404765" xlink:href="#i"/>
<use x="551.639448" y="136.404765" xlink:href="#r"/>
<use x="566.372896" y="136.404765" xlink:href="#k"/>
</g>
<g fill="#fff">
<use x="206.007812" y="111.432109" xlink:href="#ag"/>
<use x="222.582941" y="111.432109" xlink:href="#f"/>
<use x="235.474708" y="111.432109" xlink:href="#f"/>
<use x="248.366474" y="111.432109" xlink:href="#i"/>
<use x="255.733198" y="111.432109" xlink:href="#f"/>
<use x="268.624965" y="111.432109" xlink:href="#af"/>
<use x="277.833369" y="111.432109" xlink:href="#i"/>
<use x="285.200093" y="111.432109" xlink:href="#p"/>
<use x="298.09186" y="111.432109" xlink:href="#h"/>
</g>
<g fill="#fff">
<use x="193.113281" y="136.736796" xlink:href="#ae"/>
<use x="204.163367" y="136.736796" xlink:href="#h"/>
<use x="217.055134" y="136.736796" xlink:href="#ad"/>
<use x="229.9469" y="136.736796" xlink:href="#ac"/>
<use x="244.680348" y="136.736796" xlink:href="#k"/>
<use x="259.413795" y="136.736796" xlink:href="#q"/>
<use x="274.147243" y="136.736796" xlink:href="#o"/>
<use x="281.513967" y="136.736796" xlink:href="#q"/>
<use x="296.247414" y="136.736796" xlink:href="#r"/>
<use x="310.980862" y="136.736796" xlink:href="#ab"/>
</g>
<g>
<use x="214.292969" y="183.365703" xlink:href="#u"/>
<use x="225.343054" y="183.365703" xlink:href="#c"/>
<use x="238.234821" y="183.365703" xlink:href="#j"/>
<use x="247.443226" y="183.365703" xlink:href="#d"/>
<use x="258.493311" y="183.365703" xlink:href="#t"/>
<use x="271.385078" y="183.365703" xlink:href="#e"/>
<use x="284.276845" y="183.365703" xlink:href="#b"/>
<use x="297.168611" y="183.365703" xlink:href="#n"/>
</g>
<g>
<use x="218.898438" y="208.67039" xlink:href="#b"/>
<use x="231.790204" y="208.67039" xlink:href="#v"/>
<use x="244.681971" y="208.67039" xlink:href="#a"/>
<use x="250.207014" y="208.67039" xlink:href="#n"/>
<use x="255.732056" y="208.67039" xlink:href="#a"/>
<use x="261.257099" y="208.67039" xlink:href="#m"/>
<use x="268.623823" y="208.67039" xlink:href="#a"/>
<use x="274.148866" y="208.67039" xlink:href="#c"/>
<use x="287.040632" y="208.67039" xlink:href="#d"/>
</g>
</svg>
