<?xml version="1.0" encoding="UTF-8"?>
<svg width="700px" height="226px" version="1.1" viewBox="0 0 700 226" xmlns="http://www.w3.org/2000/svg" xmlns:xlink="http://www.w3.org/1999/xlink">
<defs>
<symbol id="a" overflow="visible">
<path d="m25.641-6.3594h-14.109l-2.2188 6.3594h-9.0781l12.969-34.953h10.75l12.969 34.953h-9.0781zm-11.859-6.4844h9.5938l-4.7812-13.906z"/>
</symbol>
</defs>
<path transform="matrix(2.1907 0 0 2.1877 -12.567 31.707)" d="m83.304 24.045-18.553 53.33c17.045 6.8191 37.496 6.8191 54.541 0l-18.56-53.33c-5.7754 0.65888-11.652 0.65888-17.428 0z" fill="#fff" stroke="#000" stroke-linejoin="round" stroke-width="2.5768"/>
<path transform="matrix(2.1907 0 0 2.1877 -12.567 31.707)" d="m105.65 13.296c0 7.5298-6.1053 13.635-13.635 13.635s-13.635-6.1049-13.635-13.635c0-7.5316 6.1053-13.636 13.635-13.636s13.635 6.1049 13.635 13.636z" fill="#fff" stroke="#000" stroke-width="2.5768"/>
<path d="m182.2 56.332c0 4.1172-3.3398 7.457-7.4648 7.457s-7.4688-3.3398-7.4688-7.457c0-4.1172 3.3438-7.457 7.4688-7.457s7.4648 3.3398 7.4648 7.457z"/>
<path transform="matrix(2.1907 0 0 2.1877 -12.567 31.707)" d="m282.99 24.045-18.553 53.33c17.045 6.8191 37.498 6.8191 54.541 0l-18.558-53.33c-5.7772 0.65888-11.654 0.65888-17.43 0z" fill="#fff" stroke="#000" stroke-linejoin="round" stroke-width="2.5768"/>
<path transform="matrix(2.1907 0 0 2.1877 -12.567 31.707)" d="m305.34 13.296c0 7.5298-6.1035 13.635-13.635 13.635-7.53 0-13.635-6.1049-13.635-13.635 0-7.5316 6.1053-13.636 13.635-13.636 7.5318 0 13.635 6.1049 13.635 13.636z" fill="#fff" stroke="#000" stroke-width="2.5768"/>
<path d="m619.66 56.332c0 4.1172-3.3438 7.457-7.4688 7.457s-7.4688-3.3398-7.4688-7.457c0-4.1172 3.3438-7.457 7.4688-7.457s7.4688 3.3398 7.4688 7.457z"/>
<path transform="matrix(2.1907 0 0 2.1877 -12.567 31.707)" d="m44.909-8.8169h8.9012v41.081h-8.9012z" fill="#ccc" stroke="#000" stroke-width="1.2939"/>
<path transform="matrix(2.1907 0 0 2.1877 -12.567 31.707)" d="m10.736 11.723h26.479" fill="none" stroke="#000" stroke-width="2.5877"/>
<path transform="matrix(2.2676 0 0 2.2644 68.961 57.352)" d="m5.7692-2.7735e-4 -8.6493 5.0009v-10z" fill-rule="evenodd" stroke="#000" stroke-width="1.25"/>
<path transform="matrix(2.1907 0 0 2.1877 -12.567 31.707)" d="m53.81 11.723h13.692" fill="none" stroke="#000" stroke-width="1.2939"/>
<path transform="matrix(1.1338 0 0 1.1322 135.31 57.352)" d="m5.7694-5.547e-4 -8.6511 4.9992v-9.9984z" fill-rule="evenodd" stroke="#000" stroke-width="1.25"/>
<path transform="matrix(2.1907 0 0 2.1877 -12.567 31.707)" d="m240.04-8.8169h8.8994v41.081h-8.8994z" fill="#ccc" stroke="#000" stroke-width="1.2939"/>
<path transform="matrix(2.1907 0 0 2.1877 -12.567 31.707)" d="m143.77 11.723h26.479" fill="none" stroke="#000" stroke-width="2.5877"/>
<path transform="matrix(2.2676 0 0 2.2644 360.4 57.352)" d="m5.7705-2.7735e-4 -8.6511 5.0009v-10z" fill-rule="evenodd" stroke="#000" stroke-width="1.25"/>
<path transform="matrix(2.1907 0 0 2.1877 -12.567 31.707)" d="m249.59 11.723h13.694" fill="none" stroke="#000" stroke-width="1.2939"/>
<path transform="matrix(1.1338 0 0 1.1322 564.21 57.352)" d="m5.7717-5.547e-4 -8.6511 4.9992v-9.9984z" fill-rule="evenodd" stroke="#000" stroke-width="1.25"/>
<path transform="matrix(2.1907 0 0 2.1877 -12.567 31.707)" d="m178.89-1.971h27.386v27.387h-27.386z" fill="#fff" stroke="#000" stroke-width="2.5877"/>
<path transform="matrix(2.1907 0 0 2.1877 -12.567 31.707)" d="m207.57 11.723h17.116" fill="none" stroke="#000" stroke-width="5.1755"/>
<path transform="matrix(4.5352 0 0 4.5289 479.67 57.352)" d="m5.7699-1.3868e-4 -8.6502 5v-10z" fill-rule="evenodd" stroke="#000" stroke-width="1.25"/>
<g>
<use x="390.765625" y="74.822463" xlink:href="#a"/>
</g>
</svg>
