<?xml version="1.0" encoding="UTF-8"?>
<svg width="800px" height="223px" version="1.1" viewBox="0 0 800 223" xmlns="http://www.w3.org/2000/svg" xmlns:xlink="http://www.w3.org/1999/xlink">
<defs>
<symbol id="q" overflow="visible">
<path d="m1.9531-14.453h1.9531v5.9219h7.1094v-5.9219h1.9531v14.453h-1.9531v-6.8906h-7.1094v6.8906h-1.9531z"/>
</symbol>
<symbol id="c" overflow="visible">
<path d="m1.1562-1.2812h1.6406v-4.6562l-1.6875 0.34375v-1.2656l1.6719-0.34375h1.7656v5.9219h1.6406v1.2812h-5.0312z"/>
</symbol>
<symbol id="a" overflow="visible">
<path d="m2.8438-1.3594h3.1719v1.3594h-5.2344v-1.3594l2.625-2.3281c0.23828-0.20703 0.41016-0.41016 0.51562-0.60938 0.11328-0.20703 0.17188-0.42188 0.17188-0.64062 0-0.33203-0.11719-0.60156-0.34375-0.8125-0.21875-0.20703-0.51562-0.3125-0.89062-0.3125-0.29297 0-0.60938 0.0625-0.95312 0.1875s-0.71484 0.30859-1.1094 0.54688v-1.5781c0.41406-0.13281 0.82812-0.23828 1.2344-0.3125 0.41406-0.070312 0.81641-0.10938 1.2031-0.10938 0.86328 0 1.5352 0.19531 2.0156 0.57812 0.47656 0.375 0.71875 0.90234 0.71875 1.5781 0 0.39844-0.10547 0.76562-0.3125 1.1094-0.19922 0.33594-0.62109 0.78125-1.2656 1.3438z"/>
</symbol>
<symbol id="b" overflow="visible">
<path d="m4.5938-3.875c0.48828 0.125 0.85938 0.34375 1.1094 0.65625 0.25 0.30469 0.375 0.69531 0.375 1.1719 0 0.71875-0.27344 1.2656-0.8125 1.6406-0.54297 0.36719-1.3398 0.54688-2.3906 0.54688-0.375 0-0.75-0.03125-1.125-0.09375-0.36719-0.050781-0.73047-0.14062-1.0938-0.26562v-1.4375c0.35156 0.17969 0.69531 0.3125 1.0312 0.40625 0.34375 0.085938 0.67969 0.125 1.0156 0.125 0.48828 0 0.86328-0.082031 1.125-0.25 0.26953-0.17578 0.40625-0.42188 0.40625-0.73438 0-0.33203-0.13672-0.58203-0.40625-0.75-0.27344-0.16406-0.66797-0.25-1.1875-0.25h-0.75v-1.2031h0.78125c0.46875 0 0.81641-0.070312 1.0469-0.21875 0.22656-0.14453 0.34375-0.36328 0.34375-0.65625 0-0.28125-0.11719-0.49219-0.34375-0.64062-0.21875-0.15625-0.53125-0.23438-0.9375-0.23438-0.29297 0-0.59375 0.039062-0.90625 0.10938-0.30469 0.0625-0.60547 0.16406-0.90625 0.29688v-1.3594c0.36328-0.10156 0.72266-0.17969 1.0781-0.23438 0.36328-0.050781 0.72266-0.078125 1.0781-0.078125 0.92578 0 1.625 0.15625 2.0938 0.46875 0.46875 0.30469 0.70312 0.76172 0.70312 1.375 0 0.42969-0.11719 0.77734-0.34375 1.0469-0.21875 0.26172-0.54688 0.44922-0.98438 0.5625z"/>
</symbol>
<symbol id="d" overflow="visible">
<path d="m4.7031-6.1875v2.5156h2.5312v1.1406h-2.5312v2.5312h-1.1406v-2.5312h-2.5156v-1.1406h2.5156v-2.5156z"/>
</symbol>
<symbol id="p" overflow="visible">
<path d="m3.6406-5.6719-2.0469 3.0156h2.0469zm-0.3125-1.5312h2.0625v4.5469h1.0312v1.3438h-1.0312v1.3125h-1.75v-1.3125h-3.2031v-1.5938z"/>
</symbol>
<symbol id="o" overflow="visible">
<path d="m1.0469-7.2031h4.6094v1.375h-3.125v1.1094c0.13281-0.039062 0.27344-0.070312 0.42188-0.09375 0.14453-0.019531 0.29688-0.03125 0.45312-0.03125 0.875 0 1.5547 0.21875 2.0469 0.65625 0.48828 0.4375 0.73438 1.0547 0.73438 1.8438 0 0.77344-0.27344 1.3828-0.8125 1.8281-0.53125 0.4375-1.2656 0.65625-2.2031 0.65625-0.40625 0-0.8125-0.042969-1.2188-0.125-0.39844-0.070312-0.79297-0.19141-1.1875-0.35938v-1.4531c0.38281 0.21875 0.75391 0.38672 1.1094 0.5 0.35156 0.11719 0.6875 0.17188 1 0.17188 0.44531 0 0.80078-0.10938 1.0625-0.32812 0.25781-0.21875 0.39062-0.51562 0.39062-0.89062 0-0.38281-0.13281-0.6875-0.39062-0.90625-0.26172-0.21875-0.61719-0.32812-1.0625-0.32812-0.27344 0-0.55859 0.039063-0.85938 0.10938-0.30469 0.074219-0.625 0.17969-0.96875 0.3125z"/>
</symbol>
<symbol id="n" overflow="visible">
<path d="m1.1562-1.2812h1.6406v-4.6562l-1.6875 0.34375v-1.2656l1.6719-0.34375h1.7656v5.9219h1.6406v1.2812h-5.0312z"/>
</symbol>
<symbol id="m" overflow="visible">
<path d="m2.8438-1.3594h3.1719v1.3594h-5.2344v-1.3594l2.625-2.3281c0.23828-0.20703 0.41016-0.41016 0.51562-0.60938 0.11328-0.20703 0.17188-0.42188 0.17188-0.64062 0-0.33203-0.11719-0.60156-0.34375-0.8125-0.21875-0.20703-0.51562-0.3125-0.89062-0.3125-0.29297 0-0.60938 0.0625-0.95312 0.1875s-0.71484 0.30859-1.1094 0.54688v-1.5781c0.41406-0.13281 0.82812-0.23828 1.2344-0.3125 0.41406-0.070312 0.81641-0.10938 1.2031-0.10938 0.86328 0 1.5352 0.19531 2.0156 0.57812 0.47656 0.375 0.71875 0.90234 0.71875 1.5781 0 0.39844-0.10547 0.76562-0.3125 1.1094-0.19922 0.33594-0.62109 0.78125-1.2656 1.3438z"/>
</symbol>
<symbol id="l" overflow="visible">
<path d="m4.5938-3.875c0.48828 0.125 0.85938 0.34375 1.1094 0.65625 0.25 0.30469 0.375 0.69531 0.375 1.1719 0 0.71875-0.27344 1.2656-0.8125 1.6406-0.54297 0.36719-1.3398 0.54688-2.3906 0.54688-0.375 0-0.75-0.03125-1.125-0.09375-0.36719-0.050781-0.73047-0.14062-1.0938-0.26562v-1.4375c0.35156 0.17969 0.69531 0.3125 1.0312 0.40625 0.34375 0.085938 0.67969 0.125 1.0156 0.125 0.48828 0 0.86328-0.082031 1.125-0.25 0.26953-0.17578 0.40625-0.42188 0.40625-0.73438 0-0.33203-0.13672-0.58203-0.40625-0.75-0.27344-0.16406-0.66797-0.25-1.1875-0.25h-0.75v-1.2031h0.78125c0.46875 0 0.81641-0.070312 1.0469-0.21875 0.22656-0.14453 0.34375-0.36328 0.34375-0.65625 0-0.28125-0.11719-0.49219-0.34375-0.64062-0.21875-0.15625-0.53125-0.23438-0.9375-0.23438-0.29297 0-0.59375 0.039062-0.90625 0.10938-0.30469 0.0625-0.60547 0.16406-0.90625 0.29688v-1.3594c0.36328-0.10156 0.72266-0.17969 1.0781-0.23438 0.36328-0.050781 0.72266-0.078125 1.0781-0.078125 0.92578 0 1.625 0.15625 2.0938 0.46875 0.46875 0.30469 0.70312 0.76172 0.70312 1.375 0 0.42969-0.11719 0.77734-0.34375 1.0469-0.21875 0.26172-0.54688 0.44922-0.98438 0.5625z"/>
</symbol>
<symbol id="k" overflow="visible">
<path d="m3.6406-5.6719-2.0469 3.0156h2.0469zm-0.3125-1.5312h2.0625v4.5469h1.0312v1.3438h-1.0312v1.3125h-1.75v-1.3125h-3.2031v-1.5938z"/>
</symbol>
<symbol id="j" overflow="visible">
<path d="m1.0469-7.2031h4.6094v1.375h-3.125v1.1094c0.13281-0.039062 0.27344-0.070312 0.42188-0.09375 0.14453-0.019531 0.29688-0.03125 0.45312-0.03125 0.875 0 1.5547 0.21875 2.0469 0.65625 0.48828 0.4375 0.73438 1.0547 0.73438 1.8438 0 0.77344-0.27344 1.3828-0.8125 1.8281-0.53125 0.4375-1.2656 0.65625-2.2031 0.65625-0.40625 0-0.8125-0.042969-1.2188-0.125-0.39844-0.070312-0.79297-0.19141-1.1875-0.35938v-1.4531c0.38281 0.21875 0.75391 0.38672 1.1094 0.5 0.35156 0.11719 0.6875 0.17188 1 0.17188 0.44531 0 0.80078-0.10938 1.0625-0.32812 0.25781-0.21875 0.39062-0.51562 0.39062-0.89062 0-0.38281-0.13281-0.6875-0.39062-0.90625-0.26172-0.21875-0.61719-0.32812-1.0625-0.32812-0.27344 0-0.55859 0.039063-0.85938 0.10938-0.30469 0.074219-0.625 0.17969-0.96875 0.3125z"/>
</symbol>
<symbol id="i" overflow="visible">
<path d="m3.0312-3.7344-1.7031 1.9531 1.75 0.4375zm-0.29688-1.2812 1.7812 0.4375 0.078125 3.6094 0.875 0.21875 0.03125 1.0781-0.875-0.21875 0.015625 1.0469-1.5156-0.375-0.015625-1.0469-2.75-0.6875-0.03125-1.2656z"/>
</symbol>
<symbol id="h" overflow="visible">
<path d="m5.625-5.9844 3.1562 2.5312-0.92188 1.25-2.1406-1.7188-0.76562 1c0.125 0.054687 0.23828 0.10938 0.34375 0.17188 0.11328 0.0625 0.22266 0.13672 0.32812 0.21875 0.59375 0.48047 0.90625 1.0547 0.9375 1.7188 0.039062 0.66797-0.20312 1.3594-0.73438 2.0781-0.53125 0.70703-1.1328 1.1133-1.7969 1.2188-0.65625 0.11328-1.3086-0.089844-1.9531-0.60938-0.28125-0.23047-0.53906-0.49219-0.76562-0.78125-0.21875-0.29297-0.40625-0.62109-0.5625-0.98438l1-1.3281c0.11328 0.42969 0.25 0.78906 0.40625 1.0781 0.16406 0.28906 0.35938 0.52344 0.57812 0.70312 0.30078 0.23828 0.61328 0.32812 0.9375 0.26562 0.33203-0.054687 0.62891-0.25 0.89062-0.59375 0.25-0.34375 0.35938-0.67969 0.32812-1.0156-0.023437-0.34375-0.18359-0.63281-0.48438-0.875-0.1875-0.15625-0.40625-0.28516-0.65625-0.39062-0.25-0.10156-0.54688-0.17969-0.89062-0.23438z"/>
</symbol>
<symbol id="g" overflow="visible">
<path d="m5.9531-4.7656c-1.2617 0-2.1367 0.14844-2.625 0.4375-0.48047 0.28125-0.71875 0.77344-0.71875 1.4688 0 0.55469 0.17969 0.99219 0.54688 1.3125 0.36328 0.32422 0.85938 0.48438 1.4844 0.48438 0.86328 0 1.5547-0.30078 2.0781-0.90625 0.53125-0.61328 0.79688-1.4297 0.79688-2.4531v-0.34375zm3.1094-0.64062v5.4062h-1.5469v-1.4375c-0.36719 0.57422-0.8125 1-1.3438 1.2812-0.53125 0.26953-1.1836 0.40625-1.9531 0.40625-0.96875 0-1.7422-0.26953-2.3125-0.8125-0.57422-0.55078-0.85938-1.2852-0.85938-2.2031 0-1.0625 0.35156-1.8633 1.0625-2.4062 0.71875-0.53906 1.7852-0.8125 3.2031-0.8125h2.2031v-0.15625c0-0.71875-0.24219-1.2695-0.71875-1.6562-0.46875-0.39453-1.1328-0.59375-1.9844-0.59375-0.54297 0-1.0742 0.070313-1.5938 0.20312-0.51172 0.125-1.0078 0.32031-1.4844 0.57812v-1.4375c0.57031-0.22656 1.125-0.39453 1.6562-0.5 0.53906-0.11328 1.0664-0.17188 1.5781-0.17188 1.375 0 2.3984 0.35938 3.0781 1.0781 0.67578 0.71094 1.0156 1.7891 1.0156 3.2344z"/>
</symbol>
<symbol id="f" overflow="visible">
<path d="m8.4531-4.7344c0-1.1445-0.23438-2.0391-0.70312-2.6875-0.46875-0.65625-1.1211-0.98438-1.9531-0.98438-0.82422 0-1.4766 0.32812-1.9531 0.98438-0.46875 0.64844-0.70312 1.543-0.70312 2.6875 0 1.1484 0.23438 2.0469 0.70312 2.7031 0.47656 0.64844 1.1289 0.96875 1.9531 0.96875 0.83203 0 1.4844-0.32031 1.9531-0.96875 0.46875-0.65625 0.70312-1.5547 0.70312-2.7031zm-5.3125-3.3125c0.33203-0.5625 0.75-0.97656 1.25-1.25 0.5-0.28125 1.0977-0.42188 1.7969-0.42188 1.1562 0 2.0938 0.46094 2.8125 1.375 0.71875 0.91797 1.0781 2.1211 1.0781 3.6094 0 1.4922-0.35938 2.6953-1.0781 3.6094-0.71875 0.91797-1.6562 1.375-2.8125 1.375-0.69922 0-1.2969-0.13672-1.7969-0.40625-0.5-0.28125-0.91797-0.70312-1.25-1.2656v1.4219h-1.5625v-13.172h1.5625z"/>
</symbol>
<symbol id="e" overflow="visible">
<path d="m8.4688-9.125v1.4531c-0.4375-0.23828-0.88281-0.41406-1.3281-0.53125-0.4375-0.125-0.88672-0.1875-1.3438-0.1875-1.0117 0-1.7969 0.32422-2.3594 0.96875-0.55469 0.63672-0.82812 1.5312-0.82812 2.6875s0.27344 2.0586 0.82812 2.7031c0.5625 0.63672 1.3477 0.95312 2.3594 0.95312 0.45703 0 0.90625-0.054687 1.3438-0.17188 0.44531-0.125 0.89062-0.30469 1.3281-0.54688v1.4375c-0.42969 0.19922-0.875 0.35156-1.3438 0.45312-0.46875 0.10156-0.96484 0.15625-1.4844 0.15625-1.4375 0-2.5781-0.44531-3.4219-1.3438-0.84375-0.90625-1.2656-2.1172-1.2656-3.6406 0-1.5391 0.42578-2.7539 1.2812-3.6406 0.85156-0.89453 2.0195-1.3438 3.5-1.3438 0.47656 0 0.94531 0.054688 1.4062 0.15625 0.45703 0.09375 0.89844 0.24219 1.3281 0.4375z"/>
</symbol>
</defs>
<path transform="matrix(1.2406 0 0 1.2388 0 .11779)" d="m558.78 125.15 29.871-18.67-0.66122-44.783h-18.668l-30.552 18.472" fill="#fff" stroke="#000" stroke-width="2.8226"/>
<path transform="matrix(1.2406 0 0 1.2388 0 .11779)" d="m475.75 66.514-20.322 58.42c18.668 7.4701 41.074 7.4701 59.746 0l-20.331-58.417c-6.3288 0.71894-12.768 0.71894-19.094-0.003153z" fill="#fff" stroke="#000" stroke-linejoin="round" stroke-width="2.8226"/>
<path transform="matrix(1.2406 0 0 1.2388 0 .11779)" d="m308.29 126.25v-15.751l26.326-15.356v14.855" fill="#fff" stroke="#000" stroke-linecap="round" stroke-width=".28346"/>
<path transform="matrix(1.2406 0 0 1.2388 0 .11779)" d="m308.29 126.25v-15.751h-97.498v15.751" fill="#fff" stroke="#000" stroke-linecap="round" stroke-width=".28346"/>
<path transform="matrix(1.2406 0 0 1.2388 0 .11779)" d="m334.62 84.251v10.813l-26.326 15.435h-97.498l43.93-25.627zm0 0" fill="#fff" stroke="#000" stroke-linecap="round" stroke-width=".28346"/>
<path transform="matrix(1.2406 0 0 1.2388 17.093 -191.9)" d="m30.842 193.8c-5.5291 0.54867-11.131 0.54867-16.66 0l-21.549 86.134c18.672 7.4669 41.074 7.4669 59.746 0z" fill="#fff" stroke="#000" stroke-linejoin="round" stroke-width="2.8226"/>
<path transform="matrix(1.2406 0 0 1.2388 17.093 -191.9)" d="m0.016252 250.42-7.3836 29.514c29.868 13.852 59.746 0 59.746 0l-7.3805-29.518s-25.498 6.8331-44.982 0.003153" fill="#666" stroke="#000" stroke-width="2.8346"/>
<path transform="matrix(1.2406 0 0 1.2388 17.093 -191.9)" d="m0.0099541 250.42c14.487 4.1182 30.501 4.1182 44.991 0" fill="none" stroke="#000" stroke-width="2.8346"/>
<path transform="matrix(1.2406 0 0 1.2388 17.093 -191.9)" d="m3.8891 234.9c12.129 2.7906 25.107 2.7906 37.236 0" fill="none" stroke="#000" stroke-width=".74682"/>
<path transform="matrix(1.2406 0 0 1.2388 17.093 -191.9)" d="m7.444 220.7c9.8931 1.8131 20.23 1.8131 30.123 0" fill="none" stroke="#000" stroke-width=".74682"/>
<path transform="matrix(1.2406 0 0 1.2388 17.093 -191.9)" d="m11.298 205.28c7.412 0.99328 15.003 0.99328 22.412-0.006307" fill="none" stroke="#000" stroke-width=".74682"/>
<path transform="matrix(1.2406 0 0 1.2388 17.093 -191.9)" d="m37.448 181.35c0 8.2489-6.6846 14.937-14.934 14.937s-14.937-6.6881-14.937-14.937 6.6878-14.937 14.937-14.937 14.934 6.6881 14.934 14.937z" fill="#fff" stroke="#000" stroke-width="2.8226"/>
<path d="m54.281 29.992c0 2.5547-2.0742 4.625-4.6328 4.625-2.5586 0-4.6328-2.0703-4.6328-4.625 0-2.5547 2.0742-4.6289 4.6328-4.6289 2.5586 0 4.6328 2.0742 4.6328 4.6289z"/>
<path transform="matrix(1.2406 0 0 1.2388 17.093 -191.9)" d="m37.441 186.58s-3.7343 7.4669-14.934 0" fill="none" stroke="#000" stroke-width="1.2702"/>
<g fill="#fff">
<use x="37.550781" y="148.839498" xlink:href="#q"/>
</g>
<g>
<use x="41.78125" y="115.515802" xlink:href="#c"/>
</g>
<g>
<use x="41.785156" y="96.343927" xlink:href="#a"/>
</g>
<g>
<use x="41.785156" y="77.172052" xlink:href="#b"/>
</g>
<path transform="matrix(1.2353 0 0 1.2335 7.9539 -122.66)" d="m101.91 225.21 30.002-18.75-0.66403-75.215h-18.751l-30.678 18.55" fill="#fff" stroke="#000" stroke-width="2.8346"/>
<path transform="matrix(1.2353 0 0 1.2335 7.9539 -122.66)" d="m82.501 225v-75h18.748v75z" fill="#fff" stroke="#000" stroke-width="2.8346"/>
<path transform="matrix(1.2353 0 0 1.2335 7.9539 -122.66)" d="m101.25 210 30.002-18.75" fill="none" stroke="#000" stroke-width="2.8346"/>
<path transform="matrix(1.2353 0 0 1.2335 7.9539 -122.66)" d="m101.25 195 30.002-18.753" fill="none" stroke="#000" stroke-width="2.8346"/>
<path transform="matrix(1.2353 0 0 1.2335 7.9539 -122.66)" d="m101.25 180 30.002-18.75" fill="none" stroke="#000" stroke-width="2.8346"/>
<path transform="matrix(1.2353 0 0 1.2335 7.9539 -122.66)" d="m101.25 165 30.002-18.75" fill="none" stroke="#000" stroke-width="2.8346"/>
<path transform="matrix(1.2353 0 0 1.2335 7.9539 -122.66)" d="m101.25 150 30.002-18.75" fill="none" stroke="#000" stroke-width="2.8346"/>
<path transform="matrix(1.2353 0 0 1.2335 7.9539 -122.66)" d="m101.25 210h-18.748" fill="none" stroke="#000" stroke-width="2.8346"/>
<path transform="matrix(1.2353 0 0 1.2335 7.9539 -122.66)" d="m82.501 195h18.748" fill="none" stroke="#000" stroke-width="2.8346"/>
<path transform="matrix(1.2353 0 0 1.2335 7.9539 -122.66)" d="m101.25 180h-18.748" fill="none" stroke="#000" stroke-width="2.8346"/>
<path transform="matrix(1.2353 0 0 1.2335 7.9539 -122.66)" d="m82.501 165h18.748" fill="none" stroke="#000" stroke-width="2.8346"/>
<path transform="matrix(1.2353 0 0 1.2335 7.9539 -122.66)" d="m112.56 217.93-0.063241-15.067" fill="none" stroke="#000" stroke-width=".75"/>
<path transform="matrix(1.2353 0 0 1.2335 7.9539 -122.66)" d="m123.73 210.95 0.025297-15.016" fill="none" stroke="#000" stroke-width=".75"/>
<path transform="matrix(1.2353 0 0 1.2335 7.9539 -122.66)" d="m118.22 199.39v-14.893" fill="none" stroke="#000" stroke-width=".75"/>
<path transform="matrix(1.2353 0 0 1.2335 7.9539 -122.66)" d="m112.56 187.93v-15.001" fill="none" stroke="#000" stroke-width=".75"/>
<path transform="matrix(1.2353 0 0 1.2335 7.9539 -122.66)" d="m123.75 180.96v-15.023" fill="none" stroke="#000" stroke-width=".75"/>
<path transform="matrix(1.2353 0 0 1.2335 7.9539 -122.66)" d="m117.98 169.54v-15.042" fill="none" stroke="#000" stroke-width=".75"/>
<path transform="matrix(1.2353 0 0 1.2335 7.9539 -122.66)" d="m123.75 150.94v-15.001" fill="none" stroke="#000" stroke-width=".75"/>
<path transform="matrix(1.2353 0 0 1.2335 7.9539 -122.66)" d="m112.54 157.95v-15.001" fill="none" stroke="#000" stroke-width=".75"/>
<path transform="matrix(1.2353 0 0 1.2335 7.9539 -122.66)" d="m112.54 142.94h-18.789" fill="none" stroke="#000" stroke-width=".75"/>
<path transform="matrix(1.2353 0 0 1.2335 7.9539 -122.66)" d="m123.75 135.94h-18.748" fill="none" stroke="#000" stroke-width=".75"/>
<g>
<use x="118.34375" y="149.234276" xlink:href="#n"/>
</g>
<g>
<use x="118.34375" y="130.710839" xlink:href="#m"/>
</g>
<g>
<use x="118.34375" y="112.191307" xlink:href="#l"/>
</g>
<g>
<use x="118.34375" y="93.671776" xlink:href="#k"/>
</g>
<g>
<use x="118.34375" y="75.148339" xlink:href="#j"/>
</g>
<path transform="matrix(1.2406 0 0 1.2388 17.093 -191.9)" d="m41.176 179.12h126.96" fill="none" stroke="#000" stroke-width="2.8226"/>
<path transform="matrix(1.4007 0 0 1.3987 225.68 29.991)" d="m5.7699 0.0011609-8.6508 4.9992v-10.001z" fill-rule="evenodd" stroke="#000" stroke-width="1.25"/>
<path transform="matrix(1.2406 0 0 1.2388 17.093 -191.9)" d="m108.39 195.92h37.34" fill="none" stroke="#000" stroke-width=".74682"/>
<path transform="matrix(1.2406 0 0 1.2388 17.093 -191.9)" d="m138.71 195.92v-13.345" fill="none" stroke="#000" stroke-width=".74682"/>
<path transform="matrix(-6.8e-17 -.37006 .3706 -6.8e-17 189.17 34.275)" d="m5.7688 0.0028771-8.645 4.9961v-10.003z" fill-rule="evenodd" stroke="#000" stroke-width="1.25"/>
<g>
<use x="193.746094" y="44.32049" xlink:href="#d"/>
</g>
<path transform="matrix(1.2406 0 0 1.2388 45.646 -191.9)" d="m317.15 280.15 29.875-18.67-0.66122-74.896h-18.672l-30.548 18.472" fill="#fff" stroke="#000" stroke-width="2.8226"/>
<path transform="matrix(1.2406 0 0 1.2388 45.646 -191.9)" d="m234.13 193.31-20.325 58.42c18.672 7.4701 41.074 7.4701 59.746 0l-20.331-58.417c-6.3257 0.71894-12.765 0.71894-19.09 0z" fill="#fff" stroke="#000" stroke-linejoin="round" stroke-width="2.8226"/>
<path transform="matrix(1.2406 0 0 1.2388 45.646 -191.9)" d="m297.83 250.14-26.326 15.356" fill="none" stroke="#000" stroke-width="2.8346"/>
<path transform="matrix(1.2406 0 0 1.2388 45.646 -191.9)" d="m269.21 239.25h28.615" fill="none" stroke="#000" stroke-width="2.8346"/>
<path transform="matrix(1.2406 0 0 1.2388 45.646 -191.9)" d="m174 281.25v-15.751l43.93-25.627" fill="none" stroke="#000" stroke-width="2.8346"/>
<path transform="matrix(1.2406 0 0 1.2388 45.646 -191.9)" d="m218.94 236.96c15.806 5.02 33.669 5.02 49.475 0" fill="none" stroke="#000" stroke-width=".74682"/>
<path transform="matrix(1.2406 0 0 1.2388 45.646 -191.9)" d="m223.83 222.91c12.884 3.1816 26.808 3.1816 39.692 0" fill="none" stroke="#000" stroke-width=".74682"/>
<path transform="matrix(1.2406 0 0 1.2388 45.646 -191.9)" d="m229.19 207.53c9.5247 1.6744 19.449 1.6744 28.974 0" fill="none" stroke="#000" stroke-width=".74682"/>
<path transform="matrix(1.2406 0 0 1.2388 45.646 -191.9)" d="m258.61 181.53c0 8.2489-6.6878 14.937-14.937 14.937-8.2464 0-14.934-6.6881-14.934-14.937s6.6878-14.934 14.934-14.934c8.2495 0 14.937 6.6849 14.937 14.934z" fill="#fff" stroke="#000" stroke-width="2.8226"/>
<path d="m357.21 30.223c0 2.5547-2.0742 4.625-4.6328 4.625-2.5586 0-4.6328-2.0703-4.6328-4.625 0-2.5547 2.0742-4.625 4.6328-4.625 2.5586 0 4.6328 2.0703 4.6328 4.625z"/>
<g>
<use x="344.300781" y="118.918146" xlink:href="#c"/>
</g>
<g>
<use x="344.300781" y="99.746271" xlink:href="#a"/>
</g>
<g>
<use x="344.296875" y="80.574396" xlink:href="#b"/>
</g>
<path transform="matrix(1.2406 0 0 1.2388 45.646 -191.9)" d="m297.83 279.93v-74.682h18.668v74.682z" fill="#fff" stroke="#000" stroke-width="2.8226"/>
<path transform="matrix(1.2406 0 0 1.2388 45.646 -191.9)" d="m316.49 265 29.875-18.67" fill="none" stroke="#000" stroke-width="2.8226"/>
<path transform="matrix(1.2406 0 0 1.2388 45.646 -191.9)" d="m316.49 250.06 29.875-18.674" fill="none" stroke="#000" stroke-width="2.8226"/>
<path transform="matrix(1.2406 0 0 1.2388 45.646 -191.9)" d="m316.49 235.13 29.875-18.67" fill="none" stroke="#000" stroke-width="2.8226"/>
<path transform="matrix(1.2406 0 0 1.2388 45.646 -191.9)" d="m316.49 220.19 29.875-18.67" fill="none" stroke="#000" stroke-width="2.8226"/>
<path transform="matrix(1.2406 0 0 1.2388 45.646 -191.9)" d="m316.49 205.25 29.875-18.67" fill="none" stroke="#000" stroke-width="2.8226"/>
<path transform="matrix(1.2406 0 0 1.2388 45.646 -191.9)" d="m316.49 265h-18.668" fill="none" stroke="#000" stroke-width="2.8226"/>
<path transform="matrix(1.2406 0 0 1.2388 45.646 -191.9)" d="m297.83 250.06h18.668" fill="none" stroke="#000" stroke-width="2.8226"/>
<path transform="matrix(1.2406 0 0 1.2388 45.646 -191.9)" d="m316.49 235.13h-18.668" fill="none" stroke="#000" stroke-width="2.8226"/>
<path transform="matrix(1.2406 0 0 1.2388 45.646 -191.9)" d="m297.83 220.19h18.668" fill="none" stroke="#000" stroke-width="2.8226"/>
<path transform="matrix(1.2406 0 0 1.2388 45.646 -191.9)" d="m327.76 272.89-0.062973-15.003" fill="none" stroke="#000" stroke-width=".74682"/>
<path transform="matrix(1.2406 0 0 1.2388 45.646 -191.9)" d="m338.88 265.94 0.02519-14.953" fill="none" stroke="#000" stroke-width=".74682"/>
<path transform="matrix(1.2406 0 0 1.2388 45.646 -191.9)" d="m333.39 254.44v-14.83" fill="none" stroke="#000" stroke-width=".74682"/>
<path transform="matrix(1.2406 0 0 1.2388 45.646 -191.9)" d="m327.76 243.02v-14.937" fill="none" stroke="#000" stroke-width=".74682"/>
<path transform="matrix(1.2406 0 0 1.2388 45.646 -191.9)" d="m338.9 236.08v-14.959" fill="none" stroke="#000" stroke-width=".74682"/>
<path transform="matrix(1.2406 0 0 1.2388 45.646 -191.9)" d="m333.16 224.71v-14.978" fill="none" stroke="#000" stroke-width=".74682"/>
<path transform="matrix(1.2406 0 0 1.2388 45.646 -191.9)" d="m338.9 206.19v-14.937" fill="none" stroke="#000" stroke-width=".74682"/>
<path transform="matrix(1.2406 0 0 1.2388 45.646 -191.9)" d="m327.73 213.16v-14.937" fill="none" stroke="#000" stroke-width=".74682"/>
<path transform="matrix(1.2406 0 0 1.2388 45.646 -191.9)" d="m327.73 198.23h-18.709" fill="none" stroke="#000" stroke-width=".74682"/>
<path transform="matrix(1.2406 0 0 1.2388 45.646 -191.9)" d="m338.9 191.25h-18.668" fill="none" stroke="#000" stroke-width=".74682"/>
<g>
<use x="423.601562" y="149.234552" xlink:href="#c"/>
</g>
<g>
<use x="423.601562" y="130.711115" xlink:href="#a"/>
</g>
<g>
<use x="423.601562" y="112.191583" xlink:href="#b"/>
</g>
<g>
<use x="423.601562" y="93.672052" xlink:href="#p"/>
</g>
<g>
<use x="423.601562" y="75.148615" xlink:href="#o"/>
</g>
<path transform="matrix(1.2406 0 0 1.2388 45.646 -191.9)" d="m258.61 186.77s-3.7343 7.4701-14.937 0" fill="none" stroke="#000" stroke-width="1.2702"/>
<path transform="matrix(1.2406 0 0 1.2388 45.646 -191.9)" d="m263.25 179.12h126.96" fill="none" stroke="#000" stroke-width="2.8226"/>
<path transform="matrix(1.4007 0 0 1.3987 529.74 29.991)" d="m5.7706 0.0011609-8.6508 4.9992v-10.001z" fill-rule="evenodd" stroke="#000" stroke-width="1.25"/>
<path transform="matrix(1.2406 0 0 1.2388 45.646 -191.9)" d="m330.46 195.92h37.34" fill="none" stroke="#000" stroke-width=".74682"/>
<path transform="matrix(1.2406 0 0 1.2388 45.646 -191.9)" d="m360.78 195.92v-13.345" fill="none" stroke="#000" stroke-width=".74682"/>
<path transform="matrix(-6.8e-17 -.37006 .3706 -6.8e-17 493.23 34.275)" d="m5.7688-0.0052073-8.645 5.0066v-10.003z" fill-rule="evenodd" stroke="#000" stroke-width="1.25"/>
<g>
<use x="497.804688" y="44.32049" xlink:href="#d"/>
</g>
<path transform="matrix(1.2406 0 0 1.2388 45.646 -191.9)" d="m174 265.5h97.498v15.751" fill="none" stroke="#000" stroke-width="2.8346"/>
<g>
<use x="315.292969" y="150.82049" xlink:href="#d"/>
<use x="323.977198" y="150.82049" xlink:href="#a"/>
</g>
<path transform="matrix(1.2406 0 0 1.2388 0 .11779)" d="m460.56 110.16c15.806 5.0168 33.669 5.0168 49.472 0" fill="none" stroke="#000" stroke-width=".74682"/>
<path transform="matrix(1.2406 0 0 1.2388 0 .11779)" d="m465.45 96.12c12.884 3.1816 26.808 3.1816 39.692 0" fill="none" stroke="#000" stroke-width=".74682"/>
<path transform="matrix(1.2406 0 0 1.2388 0 .11779)" d="m470.81 80.736c9.5247 1.6744 19.446 1.6775 28.974 0.003153" fill="none" stroke="#000" stroke-width=".74682"/>
<path transform="matrix(1.2406 0 0 1.2388 0 .11779)" d="m500.23 54.74c0 8.2489-6.6878 14.937-14.937 14.937s-14.937-6.6881-14.937-14.937 6.6878-14.937 14.937-14.937 14.937 6.6881 14.937 14.937z" fill="#fff" stroke="#000" stroke-width="2.8226"/>
<path d="m611.32 65.164c0 2.5547-2.0742 4.625-4.6328 4.625s-4.6328-2.0703-4.6328-4.625c0-2.5547 2.0742-4.625 4.6328-4.625s4.6328 2.0703 4.6328 4.625z"/>
<g>
<use x="598.40625" y="153.859552" xlink:href="#c"/>
</g>
<g>
<use x="598.410156" y="134.687677" xlink:href="#a"/>
</g>
<g>
<use x="598.40625" y="115.515802" xlink:href="#b"/>
</g>
<path transform="matrix(1.2406 0 0 1.2388 0 .11779)" d="m539.44 124.93v-44.584h18.672v44.584z" fill="#fff" stroke="#000" stroke-width="2.8226"/>
<path transform="matrix(1.2406 0 0 1.2388 0 .11779)" d="m558.11 110 29.871-18.67" fill="none" stroke="#000" stroke-width="2.8226"/>
<path transform="matrix(1.2406 0 0 1.2388 0 .11779)" d="m558.11 95.064 29.871-18.674" fill="none" stroke="#000" stroke-width="2.8226"/>
<path transform="matrix(1.2406 0 0 1.2388 0 .11779)" d="m558.11 80.127 29.871-18.67" fill="none" stroke="#000" stroke-width="2.8226"/>
<path transform="matrix(1.2406 0 0 1.2388 0 .11779)" d="m558.11 110h-18.672" fill="none" stroke="#000" stroke-width="2.8226"/>
<path transform="matrix(1.2406 0 0 1.2388 0 .11779)" d="m539.44 95.064h18.672" fill="none" stroke="#000" stroke-width="2.8226"/>
<path transform="matrix(1.2406 0 0 1.2388 0 .11779)" d="m569.38 117.89-0.059824-15.003" fill="none" stroke="#000" stroke-width=".74682"/>
<path transform="matrix(1.2406 0 0 1.2388 0 .11779)" d="m580.5 110.94 0.025189-14.953" fill="none" stroke="#000" stroke-width=".74682"/>
<path transform="matrix(1.2406 0 0 1.2388 0 .11779)" d="m575.01 99.437v-14.83" fill="none" stroke="#000" stroke-width=".74682"/>
<path transform="matrix(1.2406 0 0 1.2388 0 .11779)" d="m569.38 88.023v-14.937" fill="none" stroke="#000" stroke-width=".74682"/>
<path transform="matrix(1.2406 0 0 1.2388 0 .11779)" d="m580.52 81.082v-14.959" fill="none" stroke="#000" stroke-width=".74682"/>
<path transform="matrix(1.2406 0 0 1.2388 0 .11779)" d="m569.35 73.101h-18.709" fill="none" stroke="#000" stroke-width=".74682"/>
<path transform="matrix(1.2406 0 0 1.2388 0 .11779)" d="m580.52 66.123h-18.668" fill="none" stroke="#000" stroke-width=".74682"/>
<g>
<use x="677.707031" y="149.234552" xlink:href="#c"/>
</g>
<g>
<use x="677.707031" y="130.711115" xlink:href="#a"/>
</g>
<g>
<use x="677.707031" y="112.191583" xlink:href="#b"/>
</g>
<path transform="matrix(1.2406 0 0 1.2388 0 .11779)" d="m500.23 59.974s-3.7343 7.4701-14.937 0" fill="none" stroke="#000" stroke-width="1.2702"/>
<path transform="matrix(1.2406 0 0 1.2388 0 .11779)" d="m504.87 53.662h126.96" fill="none" stroke="#000" stroke-width="2.8226"/>
<path transform="matrix(1.4007 0 0 1.3987 783.85 66.595)" d="m5.7691-9.2911e-4 -8.648 5.002v-10.001z" fill-rule="evenodd" stroke="#000" stroke-width="1.25"/>
<path transform="matrix(1.2406 0 0 1.2388 0 .11779)" d="m572.08 70.465h37.343" fill="none" stroke="#000" stroke-width=".74682"/>
<path transform="matrix(1.2406 0 0 1.2388 0 .11779)" d="m602.4 70.465v-13.345" fill="none" stroke="#000" stroke-width=".74682"/>
<path transform="matrix(-6.8e-17 -.37006 .3706 -6.8e-17 747.34 70.88)" d="m5.7662-2.9624e-4 -8.645 4.9961v-9.9921z" fill-rule="evenodd" stroke="#000" stroke-width="1.25"/>
<g>
<use x="751.914062" y="80.925958" xlink:href="#d"/>
</g>
<path d="m744.47 145.62 17.727 4.6836v12.793l-17.727-5.9453z" fill="#e9e9ff" fill-rule="evenodd"/>
<path d="m709.37 156.04v12.812l35.098-11.699v-11.531z" fill="#353564" fill-rule="evenodd"/>
<path d="m709.37 168.85 15.613 8.1328 37.211-13.887-17.727-5.9453z" fill="#afafde" fill-rule="evenodd"/>
<path transform="matrix(1.2406 0 0 1.2388 0 .11779)" d="m571.79 125.86 12.585 5.2912 29.994-9.9201-14.289-3.7808z" fill="#fff" fill-rule="evenodd" stroke="#000" stroke-linejoin="round" stroke-width="2.8346"/>
<path transform="matrix(1.2406 0 0 1.2388 0 .11779)" d="m584.38 131.16v11.617l29.994-11.21v-10.327z" fill="#fff" fill-rule="evenodd" stroke="#000" stroke-linejoin="round" stroke-width="2.8346"/>
<path transform="matrix(1.2406 0 0 1.2388 0 .11779)" d="m571.79 125.86 12.585 5.2912v11.617l-12.585-6.5651z" fill="#fff" fill-rule="evenodd" stroke="#000" stroke-linejoin="round" stroke-width="2.8346"/>
<path d="m744.47 145.62 17.727 4.6836v12.793l-17.727-5.9453z" fill="#e9e9ff" fill-rule="evenodd"/>
<path d="m709.37 156.04v12.812l35.098-11.699v-11.531z" fill="#353564" fill-rule="evenodd"/>
<path d="m709.37 168.85 15.613 8.1328 37.211-13.887-17.727-5.9453z" fill="#afafde" fill-rule="evenodd"/>
<path transform="matrix(1.2406 0 0 1.2388 0 .11779)" d="m571.79 125.86 12.585 5.2912 29.994-9.9201-14.289-3.7808z" fill="#fff" fill-rule="evenodd" stroke="#000" stroke-linejoin="round" stroke-width="2.8346"/>
<path transform="matrix(1.2406 0 0 1.2388 0 .11779)" d="m584.38 131.16v11.617l29.994-11.21v-10.327z" fill="#fff" fill-rule="evenodd" stroke="#000" stroke-linejoin="round" stroke-width="2.8346"/>
<path transform="matrix(1.2406 0 0 1.2388 0 .11779)" d="m571.79 125.86 12.585 5.2912v11.617l-12.585-6.5651z" fill="#fff" fill-rule="evenodd" stroke="#000" stroke-linejoin="round" stroke-width="2.8346"/>
<path transform="matrix(1.2406 0 0 1.2388 0 .11779)" d="m614.41 129.22 10.287-6.2529 7.0562 14.404-10.79 5.2218z" fill="#fff" stroke="#000" stroke-linejoin="round" stroke-width="1.5668"/>
<path transform="matrix(1.2406 0 0 1.2388 0 .11779)" d="m585.76 105.69 7.5725 15.457 27.636 21.448-6.5524-13.373z" fill="#fff" fill-rule="evenodd" stroke="#000" stroke-linejoin="round" stroke-width="1.5668"/>
<path transform="matrix(1.2406 0 0 1.2388 0 .11779)" d="m585.76 105.69 9.446-9.4409 29.497 26.721-10.287 6.2529z" fill="#fff" stroke="#000" stroke-linejoin="round" stroke-width="1.5668"/>
<path transform="matrix(1.2406 0 0 1.2388 0 .11779)" d="m593.33 121.14 10.129-8.0471 28.297 24.274-10.79 5.2218z" fill="#fff" stroke="#000" stroke-linejoin="round" stroke-width="2.8346"/>
<path transform="matrix(1.2406 0 0 1.2388 0 .11779)" d="m595.2 96.246 8.2558 16.851 28.297 24.274-7.0562-14.404z" fill="#fff" stroke="#000" stroke-linejoin="round" stroke-width="2.8346"/>
<path transform="matrix(1.2406 0 0 1.2388 0 .11779)" d="m585.76 105.69 9.446-9.4409 8.2558 16.851-10.129 8.0471z" fill="#fff" stroke="#000" stroke-linejoin="round" stroke-width="2.8346"/>
<g>
<use x="714.288139" y="168.64714" xlink:href="#i"/>
</g>
<g>
<use x="756.488158" y="161.40398" xlink:href="#h"/>
</g>
<g>
<use x="91.226562" y="210.246768" xlink:href="#g"/>
</g>
<g>
<use x="374.527344" y="210.246768" xlink:href="#f"/>
</g>
<g>
<use x="657.832031" y="210.246768" xlink:href="#e"/>
</g>
</svg>
