<?xml version="1.0" encoding="UTF-8"?>
<svg width="800px" height="460px" version="1.1" viewBox="0 0 800 460" xmlns="http://www.w3.org/2000/svg" xmlns:xlink="http://www.w3.org/1999/xlink">
<defs>
<symbol id="x" overflow="visible">
<path d="m6.3594-7.1875c0.69531 0 1.1953-0.12891 1.5-0.39062 0.3125-0.25781 0.46875-0.6875 0.46875-1.2812 0-0.58203-0.15625-1-0.46875-1.25-0.30469-0.25781-0.80469-0.39062-1.5-0.39062h-1.3906v3.3125zm-1.3906 2.2969v4.8906h-3.3438v-12.922h5.0938c1.707 0 2.957 0.28906 3.75 0.85938 0.78906 0.57422 1.1875 1.4766 1.1875 2.7031 0 0.85547-0.21094 1.5586-0.625 2.1094-0.40625 0.55469-1.0273 0.96094-1.8594 1.2188 0.45703 0.09375 0.86328 0.32812 1.2188 0.70312 0.36328 0.36719 0.72656 0.91797 1.0938 1.6562l1.8125 3.6719h-3.5469l-1.5781-3.2031c-0.3125-0.64453-0.63672-1.0859-0.96875-1.3281-0.32422-0.23828-0.75781-0.35938-1.2969-0.35938z"/>
</symbol>
<symbol id="a" overflow="visible">
<path d="m11.172-4.875v0.89062h-7.25c0.070313 0.73047 0.33203 1.2773 0.78125 1.6406 0.45703 0.35547 1.0859 0.53125 1.8906 0.53125 0.65625 0 1.3203-0.09375 2-0.28125 0.6875-0.19531 1.3945-0.48828 2.125-0.875v2.375c-0.74219 0.28125-1.4805 0.49219-2.2188 0.625-0.73047 0.14453-1.4609 0.21875-2.1875 0.21875-1.75 0-3.1172-0.44141-4.0938-1.3281-0.96875-0.89453-1.4531-2.1484-1.4531-3.7656 0-1.5703 0.47266-2.8125 1.4219-3.7188 0.95703-0.90625 2.2734-1.3594 3.9531-1.3594 1.5195 0 2.7383 0.46094 3.6562 1.375 0.91406 0.91797 1.375 2.1406 1.375 3.6719zm-3.1875-1.0312c0-0.58203-0.17188-1.0508-0.51562-1.4062-0.34375-0.36328-0.79297-0.54688-1.3438-0.54688-0.60547 0-1.0938 0.16797-1.4688 0.5-0.375 0.33594-0.60938 0.82031-0.70312 1.4531z"/>
</symbol>
<symbol id="h" overflow="visible">
<path d="m1.0156-9.6875h8.4531v2.1562l-5.1094 5.3125h5.1094v2.2188h-8.6719v-2.1562l5.1094-5.3125h-4.8906z"/>
</symbol>
<symbol id="q" overflow="visible">
<path d="m4.5938-1.4062v5.0938h-3.1094v-13.375h3.1094v1.4219c0.42578-0.57031 0.89453-0.98828 1.4062-1.25 0.51953-0.26953 1.1172-0.40625 1.7969-0.40625 1.1953 0 2.1758 0.47656 2.9375 1.4219 0.76953 0.94922 1.1562 2.168 1.1562 3.6562 0 1.5-0.38672 2.7266-1.1562 3.6719-0.76172 0.94922-1.7422 1.4219-2.9375 1.4219-0.67969 0-1.2773-0.13281-1.7969-0.39062-0.51172-0.26953-0.98047-0.69141-1.4062-1.2656zm2.0625-6.2656c-0.66797 0-1.1797 0.24609-1.5312 0.73438-0.35547 0.48047-0.53125 1.1797-0.53125 2.0938 0 0.92969 0.17578 1.6367 0.53125 2.125 0.35156 0.48047 0.86328 0.71875 1.5312 0.71875 0.65625 0 1.1562-0.23828 1.5-0.71875 0.35156-0.48828 0.53125-1.1953 0.53125-2.125 0-0.91406-0.17969-1.6133-0.53125-2.0938-0.34375-0.48828-0.84375-0.73438-1.5-0.73438z"/>
</symbol>
<symbol id="e" overflow="visible">
<path d="m4.875-12.438v2.75h3.2031v2.2188h-3.2031v4.1094c0 0.44922 0.085938 0.75 0.26562 0.90625 0.17578 0.15625 0.53125 0.23438 1.0625 0.23438h1.5938v2.2188h-2.6562c-1.2188 0-2.0859-0.25391-2.5938-0.76562-0.51172-0.50781-0.76562-1.375-0.76562-2.5938v-4.1094h-1.5469v-2.2188h1.5469v-2.75z"/>
</symbol>
<symbol id="d" overflow="visible">
<path d="m6.1094-7.7031c-0.6875 0-1.2148 0.24609-1.5781 0.73438-0.36719 0.49219-0.54688 1.1992-0.54688 2.125 0 0.9375 0.17969 1.6523 0.54688 2.1406 0.36328 0.49219 0.89062 0.73438 1.5781 0.73438 0.67578 0 1.1914-0.24219 1.5469-0.73438 0.35156-0.48828 0.53125-1.2031 0.53125-2.1406 0-0.92578-0.17969-1.6328-0.53125-2.125-0.35547-0.48828-0.87109-0.73438-1.5469-0.73438zm0-2.2188c1.6641 0 2.9688 0.45312 3.9062 1.3594 0.9375 0.89844 1.4062 2.1367 1.4062 3.7188 0 1.5938-0.46875 2.8438-1.4062 3.75-0.9375 0.89844-2.2422 1.3438-3.9062 1.3438-1.6797 0-2.9922-0.44531-3.9375-1.3438-0.9375-0.90625-1.4062-2.1562-1.4062-3.75 0-1.582 0.46875-2.8203 1.4062-3.7188 0.94531-0.90625 2.2578-1.3594 3.9375-1.3594z"/>
</symbol>
<symbol id="g" overflow="visible">
<path d="m8.6875-7.0469c-0.27344-0.125-0.54297-0.21875-0.8125-0.28125-0.26172-0.0625-0.52734-0.09375-0.79688-0.09375-0.80469 0-1.418 0.25781-1.8438 0.76562-0.42969 0.51172-0.64062 1.2422-0.64062 2.1875v4.4688h-3.1094v-9.6875h3.1094v1.5938c0.39453-0.63281 0.84766-1.0977 1.3594-1.3906 0.51953-0.28906 1.1406-0.4375 1.8594-0.4375 0.10156 0 0.21875 0.007813 0.34375 0.015625 0.125 0.011719 0.30078 0.027344 0.53125 0.046875z"/>
</symbol>
<symbol id="c" overflow="visible">
<path d="m1.4844-13.469h3.1094v13.469h-3.1094z"/>
</symbol>
<symbol id="b" overflow="visible">
<path d="m11.234-5.9062v5.9062h-3.1094v-4.5156c0-0.83203-0.023438-1.4062-0.0625-1.7188-0.03125-0.32031-0.09375-0.5625-0.1875-0.71875-0.125-0.19531-0.29297-0.35156-0.5-0.46875-0.21094-0.11328-0.44531-0.17188-0.70312-0.17188-0.64844 0-1.1562 0.25-1.5312 0.75-0.36719 0.5-0.54688 1.1953-0.54688 2.0781v4.7656h-3.1094v-9.6875h3.1094v1.4219c0.46875-0.57031 0.96094-0.98828 1.4844-1.25 0.51953-0.26953 1.0977-0.40625 1.7344-0.40625 1.125 0 1.9727 0.34375 2.5469 1.0312 0.58203 0.6875 0.875 1.6836 0.875 2.9844z"/>
</symbol>
<symbol id="p" overflow="visible">
<path d="m1.625-12.922h4.25l2.9375 6.9219 2.9688-6.9219h4.2344v12.922h-3.1562v-9.4531l-2.9844 6.9688h-2.1094l-2.9844-6.9688v9.4531h-3.1562z"/>
</symbol>
<symbol id="k" overflow="visible">
<path d="m1.3906-3.7656v-5.9219h3.1094v0.96875c0 0.52344-0.007812 1.1836-0.015625 1.9844v1.5781c0 0.78125 0.019531 1.3438 0.0625 1.6875 0.039063 0.34375 0.10938 0.59375 0.20312 0.75 0.125 0.19922 0.28906 0.35547 0.5 0.46875 0.20703 0.10547 0.44141 0.15625 0.70312 0.15625 0.64453 0 1.1484-0.24219 1.5156-0.73438 0.375-0.5 0.5625-1.1914 0.5625-2.0781v-4.7812h3.1094v9.6875h-3.1094v-1.4062c-0.46875 0.57422-0.96484 0.99609-1.4844 1.2656-0.52344 0.25781-1.0938 0.39062-1.7188 0.39062-1.125 0-1.9805-0.34375-2.5625-1.0312-0.58594-0.6875-0.875-1.6797-0.875-2.9844z"/>
</symbol>
<symbol id="j" overflow="visible">
<path d="m9.0625-9.3906v2.3594c-0.65625-0.28125-1.2969-0.48828-1.9219-0.625-0.61719-0.13281-1.1992-0.20312-1.75-0.20312-0.58594 0-1.0234 0.074219-1.3125 0.21875-0.28125 0.14844-0.42188 0.37109-0.42188 0.67188 0 0.25 0.10156 0.44531 0.3125 0.57812 0.21875 0.13672 0.60938 0.23438 1.1719 0.29688l0.54688 0.078125c1.5938 0.19922 2.6602 0.53125 3.2031 1 0.55078 0.46094 0.82812 1.1797 0.82812 2.1562 0 1.0312-0.38281 1.8086-1.1406 2.3281-0.76172 0.52344-1.9023 0.78125-3.4219 0.78125-0.63672 0-1.2969-0.054688-1.9844-0.15625-0.6875-0.09375-1.3906-0.24219-2.1094-0.45312v-2.3438c0.61328 0.29297 1.2422 0.51562 1.8906 0.67188 0.65625 0.14844 1.3164 0.21875 1.9844 0.21875 0.61328 0 1.0703-0.082031 1.375-0.25 0.30078-0.16406 0.45312-0.41016 0.45312-0.73438 0-0.28125-0.10547-0.48828-0.3125-0.625-0.21094-0.13281-0.625-0.23828-1.25-0.3125l-0.54688-0.078125c-1.3867-0.16406-2.3555-0.48438-2.9062-0.95312-0.55469-0.46875-0.82812-1.1758-0.82812-2.125 0-1.0312 0.34766-1.7891 1.0469-2.2812 0.70703-0.5 1.7891-0.75 3.25-0.75 0.5625 0 1.1562 0.046875 1.7812 0.14062 0.63281 0.085938 1.3203 0.21484 2.0625 0.39062z"/>
</symbol>
<symbol id="o" overflow="visible">
<path d="m1.4844-13.469h3.1094v7.3281l3.5625-3.5469h3.6094l-4.75 4.4375 5.1094 5.25h-3.75l-3.7812-4.0469v4.0469h-3.1094z"/>
</symbol>
<symbol id="n" overflow="visible">
<path d="m13.25-0.95312c-0.83594 0.39844-1.6992 0.69922-2.5938 0.90625-0.89844 0.19531-1.8203 0.29688-2.7656 0.29688-2.1562 0-3.8672-0.59766-5.125-1.7969-1.25-1.207-1.875-2.8438-1.875-4.9062 0-2.0703 0.64062-3.707 1.9219-4.9062 1.2812-1.1953 3.0352-1.7969 5.2656-1.7969 0.85156 0 1.6719 0.085938 2.4531 0.25 0.78906 0.15625 1.5352 0.39844 2.2344 0.71875v2.6719c-0.71875-0.40625-1.4375-0.70703-2.1562-0.90625-0.71094-0.20703-1.418-0.3125-2.125-0.3125-1.3359 0-2.3594 0.37109-3.0781 1.1094-0.71875 0.74219-1.0781 1.7969-1.0781 3.1719s0.34375 2.4375 1.0312 3.1875c0.69531 0.74219 1.6875 1.1094 2.9688 1.1094 0.34375 0 0.66016-0.019531 0.95312-0.0625 0.30078-0.050781 0.57031-0.125 0.8125-0.21875v-2.5h-2.0469v-2.2344h5.2031z"/>
</symbol>
<symbol id="i" overflow="visible">
<path d="m8.0938-8.2656v-5.2031h3.1094v13.469h-3.1094v-1.4062c-0.42969 0.57422-0.90234 0.99609-1.4219 1.2656-0.51172 0.25781-1.1055 0.39062-1.7812 0.39062-1.1992 0-2.1836-0.47266-2.9531-1.4219-0.76172-0.94531-1.1406-2.1719-1.1406-3.6719 0-1.4883 0.37891-2.707 1.1406-3.6562 0.76953-0.94531 1.7539-1.4219 2.9531-1.4219 0.66406 0 1.2578 0.13672 1.7812 0.40625 0.51953 0.26172 0.99219 0.67969 1.4219 1.25zm-2.0469 6.2656c0.66406 0 1.1719-0.23828 1.5156-0.71875 0.35156-0.48828 0.53125-1.1953 0.53125-2.125 0-0.91406-0.17969-1.6133-0.53125-2.0938-0.34375-0.48828-0.85156-0.73438-1.5156-0.73438-0.65625 0-1.1641 0.24609-1.5156 0.73438-0.34375 0.48047-0.51562 1.1797-0.51562 2.0938 0 0.92969 0.17188 1.6367 0.51562 2.125 0.35156 0.48047 0.85938 0.71875 1.5156 0.71875z"/>
</symbol>
<symbol id="w" overflow="visible">
<path d="m5.8438-4.3594c-0.65625 0-1.1484 0.10938-1.4688 0.32812-0.32422 0.21875-0.48438 0.54297-0.48438 0.96875 0 0.39844 0.12891 0.70312 0.39062 0.92188 0.25781 0.21875 0.625 0.32812 1.0938 0.32812 0.58203 0 1.0703-0.20703 1.4688-0.625 0.40625-0.41406 0.60938-0.9375 0.60938-1.5625v-0.35938zm4.7344-1.1719v5.5312h-3.125v-1.4375c-0.41797 0.59375-0.88672 1.0273-1.4062 1.2969-0.52344 0.25781-1.1562 0.39062-1.9062 0.39062-1 0-1.8125-0.28906-2.4375-0.875-0.625-0.58203-0.9375-1.3438-0.9375-2.2812 0-1.1328 0.39062-1.9688 1.1719-2.5s2.0078-0.79688 3.6875-0.79688h1.8281v-0.25c0-0.48828-0.19922-0.84375-0.59375-1.0625-0.38672-0.22656-0.98438-0.34375-1.7969-0.34375-0.66797 0-1.2891 0.070313-1.8594 0.20312-0.57422 0.125-1.1055 0.32422-1.5938 0.59375v-2.375c0.66406-0.15625 1.332-0.27344 2-0.35938 0.66406-0.082031 1.3359-0.125 2.0156-0.125 1.75 0 3.0078 0.34375 3.7812 1.0312 0.78125 0.6875 1.1719 1.8086 1.1719 3.3594zm-7.2656-8.1875h2.0312v2.1406h-2.0312zm3.4219 0h2.0312v2.1406h-2.0312z"/>
</symbol>
<symbol id="v" overflow="visible">
<path d="m9.3281-9.3906v2.5312c-0.42969-0.28906-0.85547-0.50391-1.2812-0.64062-0.41797-0.13281-0.85547-0.20312-1.3125-0.20312-0.86719 0-1.543 0.25781-2.0312 0.76562-0.48047 0.5-0.71875 1.1992-0.71875 2.0938 0 0.90625 0.23828 1.6172 0.71875 2.125 0.48828 0.5 1.1641 0.75 2.0312 0.75 0.48828 0 0.94531-0.066406 1.375-0.20312 0.4375-0.14453 0.84375-0.36328 1.2188-0.65625v2.5469c-0.49219 0.17969-0.98438 0.30469-1.4844 0.39062-0.5 0.09375-1 0.14062-1.5 0.14062-1.75 0-3.1211-0.44531-4.1094-1.3438-0.98047-0.89453-1.4688-2.1445-1.4688-3.75 0-1.5938 0.48828-2.8359 1.4688-3.7344 0.98828-0.89453 2.3594-1.3438 4.1094-1.3438 0.50781 0 1.0078 0.046875 1.5 0.14062 0.5 0.085938 0.99219 0.21484 1.4844 0.39062z"/>
</symbol>
<symbol id="u" overflow="visible">
<path d="m11.234-5.9062v5.9062h-3.1094v-4.5c0-0.84375-0.023438-1.4219-0.0625-1.7344-0.03125-0.32031-0.09375-0.5625-0.1875-0.71875-0.125-0.19531-0.29297-0.35156-0.5-0.46875-0.21094-0.11328-0.44531-0.17188-0.70312-0.17188-0.64844 0-1.1562 0.25-1.5312 0.75-0.36719 0.5-0.54688 1.1953-0.54688 2.0781v4.7656h-3.1094v-13.469h3.1094v5.2031c0.46875-0.57031 0.96094-0.98828 1.4844-1.25 0.51953-0.26953 1.0977-0.40625 1.7344-0.40625 1.125 0 1.9727 0.34375 2.5469 1.0312 0.58203 0.6875 0.875 1.6836 0.875 2.9844z"/>
</symbol>
<symbol id="m" overflow="visible">
<path d="m1.4844-9.6875h3.1094v9.6875h-3.1094zm0-3.7812h3.1094v2.5312h-3.1094z"/>
</symbol>
<symbol id="l" overflow="visible">
<path d="m1.8125-3.3438h3.1094v2.6406l-2.1406 3.2188h-1.8438l0.875-3.2188z"/>
</symbol>
<symbol id="f" overflow="visible"></symbol>
<symbol id="t" overflow="visible">
<path d="m5.8438-4.3594c-0.65625 0-1.1484 0.10938-1.4688 0.32812-0.32422 0.21875-0.48438 0.54297-0.48438 0.96875 0 0.39844 0.12891 0.70312 0.39062 0.92188 0.25781 0.21875 0.625 0.32812 1.0938 0.32812 0.58203 0 1.0703-0.20703 1.4688-0.625 0.40625-0.41406 0.60938-0.9375 0.60938-1.5625v-0.35938zm4.7344-1.1719v5.5312h-3.125v-1.4375c-0.41797 0.59375-0.88672 1.0273-1.4062 1.2969-0.52344 0.25781-1.1562 0.39062-1.9062 0.39062-1 0-1.8125-0.28906-2.4375-0.875-0.625-0.58203-0.9375-1.3438-0.9375-2.2812 0-1.1328 0.39062-1.9688 1.1719-2.5s2.0078-0.79688 3.6875-0.79688h1.8281v-0.25c0-0.48828-0.19922-0.84375-0.59375-1.0625-0.38672-0.22656-0.98438-0.34375-1.7969-0.34375-0.66797 0-1.2891 0.070313-1.8594 0.20312-0.57422 0.125-1.1055 0.32422-1.5938 0.59375v-2.375c0.66406-0.15625 1.332-0.27344 2-0.35938 0.66406-0.082031 1.3359-0.125 2.0156-0.125 1.75 0 3.0078 0.34375 3.7812 1.0312 0.78125 0.6875 1.1719 1.8086 1.1719 3.3594z"/>
</symbol>
<symbol id="s" overflow="visible">
<path d="m10.625-12.516v2.7344c-0.71094-0.3125-1.4023-0.54688-2.0781-0.70312-0.67969-0.16406-1.3125-0.25-1.9062-0.25-0.80469 0-1.3984 0.10938-1.7812 0.32812-0.375 0.21875-0.5625 0.55859-0.5625 1.0156 0 0.34375 0.125 0.61719 0.375 0.8125 0.25781 0.19922 0.72656 0.36719 1.4062 0.5l1.4219 0.28125c1.4375 0.29297 2.457 0.73438 3.0625 1.3281 0.60156 0.58594 0.90625 1.418 0.90625 2.5 0 1.4297-0.42188 2.4922-1.2656 3.1875-0.84375 0.6875-2.1367 1.0312-3.875 1.0312-0.82422 0-1.6484-0.078125-2.4688-0.23438-0.82422-0.15625-1.6484-0.38281-2.4688-0.6875v-2.8125c0.82031 0.4375 1.6172 0.77344 2.3906 1 0.76953 0.21875 1.5156 0.32812 2.2344 0.32812s1.2695-0.11719 1.6562-0.35938c0.39453-0.25 0.59375-0.59766 0.59375-1.0469 0-0.40625-0.13672-0.71875-0.40625-0.9375-0.26172-0.21875-0.78125-0.41406-1.5625-0.59375l-1.2969-0.28125c-1.293-0.26953-2.2422-0.70703-2.8438-1.3125-0.59375-0.61328-0.89062-1.4297-0.89062-2.4531 0-1.2891 0.41406-2.2812 1.25-2.9688 0.83203-0.69531 2.0312-1.0469 3.5938-1.0469 0.70703 0 1.4375 0.058594 2.1875 0.17188 0.75 0.10547 1.5234 0.26172 2.3281 0.46875z"/>
</symbol>
<symbol id="r" overflow="visible">
<path d="m0.625-9.6875h3.0156l1.625 6.6719 1.6406-6.6719h2.5781l1.6406 6.6094 1.625-6.6094h3.0156l-2.5469 9.6875h-3.3906l-1.6406-6.6562-1.625 6.6562h-3.3906z"/>
</symbol>
</defs>
<path transform="matrix(1.774 0 0 1.7725 .2191 0)" d="m369.81 60.954c-3.75-6.173 3.75-3.7487 3.75-3.7487 59.999 29.999 51.295 178.92 51.295 178.92s-1.515 10.025-2.5455 4.8286c-15-120-37.5-150-52.499-180" fill="#ccc" stroke="#000" stroke-width="1.4173"/>
<path transform="matrix(1.774 0 0 1.7725 .2191 0)" d="m389.52 22.091c-3.75-6.173 3.75-3.7487 3.75-3.7487 60.001 30.001 51.295 178.92 51.295 178.92s-1.515 10.025-2.5433 4.8286c-15.002-120-37.502-150-52.502-180" fill="#ccc" stroke="#000" stroke-width="1.4173"/>
<path transform="matrix(1.774 0 0 1.7725 .2191 0)" d="m424.24 76.98c-0.66059-3.2374 4.9456-0.99614 1.4995 1.5008-25.552 41.19-42.245 41.919-47.067 45.19 35.088 15.273 40.747 60.458 40.747 60.458 6.3549 8.3658-2.3297 12.875-2.257 0.42754 0 0-8.515-50.175-43.784-59.51-40.701 8.3261-48.302-14.358-50.89-25.089-0.74206-21.591-3.3338-23.522-20.203-24.141 0 0 16.502-0.36804 18.816-26.343 13.284 20.588 32.034 9.3377 32.034 9.3377-15 18.75 0 22.499 0 22.499-11.25-3.7487-7.4999 15.002-7.4999 15.002-11.25-11.251-23.81-6.2325-20.514 3.427 2.2724 5.4832 2.2394 6.6512 3.5804 9.1614 0.83455 1.5603 2.1998 4.033 4.9809 7.1911 6.934 7.8721 29.841 11.793 49.747 2.4595 15.775-7.3983 29.557-24.255 40.809-41.571" fill="#fff" stroke="#000" stroke-width="1.4173"/>
<path transform="matrix(1.774 0 0 1.7725 .2191 0)" d="m6.0728 22.902h44.999v7.4997h-44.999zm0 0" fill="#ccc" stroke="#000" stroke-linecap="round" stroke-width="1.4173"/>
<path transform="matrix(1.774 0 0 1.7725 .2191 0)" d="m5.7095 45.401h44.999v7.4997h-44.999zm0 0" fill="#ccc" stroke="#000" stroke-linecap="round" stroke-width="1.4173"/>
<path transform="matrix(1.774 0 0 1.7725 .2191 0)" d="m5.7095 67.9h44.999v7.5019h-44.999zm0 0" fill="#ccc" stroke="#000" stroke-linecap="round" stroke-width="1.4173"/>
<path transform="matrix(1.774 0 0 1.7725 .2191 0)" d="m5.7095 90.402h44.999v7.4997h-44.999zm0 0" fill="#ccc" stroke="#000" stroke-linecap="round" stroke-width="1.4173"/>
<path transform="matrix(1.774 0 0 1.7725 .2191 0)" d="m5.7095 112.9h44.999v7.5019h-44.999zm0 0" fill="#ccc" stroke="#000" stroke-linecap="round" stroke-width="1.4173"/>
<path transform="matrix(1.774 0 0 1.7725 .2191 0)" d="m5.7095 135.4h44.999v7.4997h-44.999zm0 0" fill="#ccc" stroke="#000" stroke-linecap="round" stroke-width="1.4173"/>
<path transform="matrix(1.774 0 0 1.7725 .2191 0)" d="m5.7095 157.9h44.999v7.4997h-44.999zm0 0" fill="#ccc" stroke="#000" stroke-linecap="round" stroke-width="1.4173"/>
<path transform="matrix(1.774 0 0 1.7725 .2191 0)" d="m5.7095 180.4h44.999v7.4997h-44.999zm0 0" fill="#ccc" stroke="#000" stroke-linecap="round" stroke-width="1.4173"/>
<path transform="matrix(1.774 0 0 1.7725 .2191 0)" d="m5.7095 202.9h44.999v7.4997h-44.999zm0 0" fill="#ccc" stroke="#000" stroke-linecap="round" stroke-width="1.4173"/>
<path transform="matrix(1.774 0 0 1.7725 .2191 0)" d="m5.7095 225.4h44.999v7.4997h-44.999zm0 0" fill="#ccc" stroke="#000" stroke-linecap="round" stroke-width="1.4173"/>
<path transform="matrix(1.774 0 0 1.7725 .2191 0)" d="m121.96 45.401c0 6.2126-5.0359 11.251-11.25 11.251-6.2118 0-11.25-5.038-11.25-11.251s5.0381-11.251 11.25-11.251c6.214 0 11.25 5.038 11.25 11.251zm0 0" fill="#ccc" stroke="#000" stroke-linecap="round" stroke-width="1.4173"/>
<path transform="matrix(1.774 0 0 1.7725 .2191 0)" d="m121.96 77.793c0 6.2126-5.0359 11.251-11.25 11.251-6.2118 0-11.25-5.038-11.25-11.251s5.0381-11.251 11.25-11.251c6.214 0 11.25 5.038 11.25 11.251zm0 0" fill="#ccc" stroke="#000" stroke-linecap="round" stroke-width="1.4173"/>
<path transform="matrix(1.774 0 0 1.7725 .2191 0)" d="m121.96 110.19c0 6.2126-5.0359 11.248-11.25 11.248-6.2118 0-11.25-5.0358-11.25-11.248 0-6.2148 5.0381-11.251 11.25-11.251 6.214 0 11.25 5.0358 11.25 11.251zm0 0" fill="#ccc" stroke="#000" stroke-linecap="round" stroke-width="1.4173"/>
<path transform="matrix(1.774 0 0 1.7725 .2191 0)" d="m121.96 142.58c0 6.2126-5.0359 11.248-11.25 11.248-6.2118 0-11.25-5.0358-11.25-11.248 0-6.2148 5.0381-11.251 11.25-11.251 6.214 0 11.25 5.0358 11.25 11.251zm0 0" fill="#ccc" stroke="#000" stroke-linecap="round" stroke-width="1.4173"/>
<path transform="matrix(1.774 0 0 1.7725 .2191 0)" d="m121.96 174.97c0 6.2148-5.0359 11.251-11.25 11.251-6.2118 0-11.25-5.0358-11.25-11.251 0-6.2126 5.0381-11.248 11.25-11.248 6.214 0 11.25 5.0358 11.25 11.248zm0 0" fill="#ccc" stroke="#000" stroke-linecap="round" stroke-width="1.4173"/>
<path transform="matrix(1.774 0 0 1.7725 .2191 0)" d="m121.96 207.36c0 6.2148-5.0359 11.251-11.25 11.251-6.2118 0-11.25-5.0358-11.25-11.251 0-6.2126 5.0381-11.248 11.25-11.248 6.214 0 11.25 5.0358 11.25 11.248zm0 0" fill="#ccc" stroke="#000" stroke-linecap="round" stroke-width="1.4173"/>
<path transform="matrix(1.774 0 0 1.7725 .2191 0)" d="m226.96 45.401c0 6.2126-5.0381 11.251-11.25 11.251-6.214 0-11.25-5.038-11.25-11.251s5.0359-11.251 11.25-11.251c6.2118 0 11.25 5.038 11.25 11.251zm0 0" fill="#ccc" stroke="#000" stroke-linecap="round" stroke-width="1.4173"/>
<path transform="matrix(1.774 0 0 1.7725 .2191 0)" d="m226.96 77.793c0 6.2126-5.0381 11.251-11.25 11.251-6.214 0-11.25-5.038-11.25-11.251s5.0359-11.251 11.25-11.251c6.2118 0 11.25 5.038 11.25 11.251zm0 0" fill="#ccc" stroke="#000" stroke-linecap="round" stroke-width="1.4173"/>
<path transform="matrix(1.774 0 0 1.7725 .2191 0)" d="m226.96 110.19c0 6.2126-5.0381 11.248-11.25 11.248-6.214 0-11.25-5.0358-11.25-11.248 0-6.2148 5.0359-11.251 11.25-11.251 6.2118 0 11.25 5.0358 11.25 11.251zm0 0" fill="#ccc" stroke="#000" stroke-linecap="round" stroke-width="1.4173"/>
<path transform="matrix(1.774 0 0 1.7725 .2191 0)" d="m226.96 142.58c0 6.2126-5.0381 11.248-11.25 11.248-6.214 0-11.25-5.0358-11.25-11.248 0-6.2148 5.0359-11.251 11.25-11.251 6.2118 0 11.25 5.0358 11.25 11.251zm0 0" fill="#ccc" stroke="#000" stroke-linecap="round" stroke-width="1.4173"/>
<path transform="matrix(1.774 0 0 1.7725 .2191 0)" d="m226.96 174.97c0 6.2148-5.0381 11.251-11.25 11.251-6.214 0-11.25-5.0358-11.25-11.251 0-6.2126 5.0359-11.248 11.25-11.248 6.2118 0 11.25 5.0358 11.25 11.248zm0 0" fill="#ccc" stroke="#000" stroke-linecap="round" stroke-width="1.4173"/>
<path transform="matrix(1.774 0 0 1.7725 .2191 0)" d="m226.96 207.36c0 6.2148-5.0381 11.251-11.25 11.251-6.214 0-11.25-5.0358-11.25-11.251 0-6.2126 5.0359-11.248 11.25-11.248 6.2118 0 11.25 5.0358 11.25 11.248zm0 0" fill="#ccc" stroke="#000" stroke-linecap="round" stroke-width="1.4173"/>
<path transform="matrix(1.774 0 0 1.7725 .2191 0)" d="m174.46 61.76c0 6.2126-5.0381 11.248-11.252 11.248-6.2118 0-11.25-5.0358-11.25-11.248 0-6.2148 5.0381-11.251 11.25-11.251 6.214 0 11.252 5.0358 11.252 11.251zm0 0" fill="#ccc" stroke="#000" stroke-linecap="round" stroke-width="1.4173"/>
<path transform="matrix(1.774 0 0 1.7725 .2191 0)" d="m174.46 94.15c0 6.2148-5.0381 11.251-11.252 11.251-6.2118 0-11.25-5.0358-11.25-11.251 0-6.2126 5.0381-11.248 11.25-11.248 6.214 0 11.252 5.0358 11.252 11.248zm0 0" fill="#ccc" stroke="#000" stroke-linecap="round" stroke-width="1.4173"/>
<path transform="matrix(1.774 0 0 1.7725 .2191 0)" d="m174.46 126.54c0 6.2148-5.0381 11.251-11.252 11.251-6.2118 0-11.25-5.0358-11.25-11.251 0-6.2126 5.0381-11.248 11.25-11.248 6.214 0 11.252 5.0358 11.252 11.248zm0 0" fill="#ccc" stroke="#000" stroke-linecap="round" stroke-width="1.4173"/>
<path transform="matrix(1.774 0 0 1.7725 .2191 0)" d="m174.46 158.93c0 6.2126-5.0381 11.251-11.252 11.251-6.2118 0-11.25-5.038-11.25-11.251 0-6.2126 5.0381-11.251 11.25-11.251 6.214 0 11.252 5.038 11.252 11.251zm0 0" fill="#ccc" stroke="#000" stroke-linecap="round" stroke-width="1.4173"/>
<path transform="matrix(1.774 0 0 1.7725 .2191 0)" d="m174.46 191.33c0 6.2126-5.0381 11.251-11.252 11.251-6.2118 0-11.25-5.038-11.25-11.251 0-6.2126 5.0381-11.251 11.25-11.251 6.214 0 11.252 5.038 11.252 11.251zm0 0" fill="#ccc" stroke="#000" stroke-linecap="round" stroke-width="1.4173"/>
<g>
<use x="8.105469" y="22.327503" xlink:href="#x"/>
<use x="22.297304" y="22.327503" xlink:href="#a"/>
<use x="34.715161" y="22.327503" xlink:href="#h"/>
<use x="45.359037" y="22.327503" xlink:href="#a"/>
<use x="57.776894" y="22.327503" xlink:href="#q"/>
<use x="70.19475" y="22.327503" xlink:href="#e"/>
<use x="79.064647" y="22.327503" xlink:href="#d"/>
<use x="91.482503" y="22.327503" xlink:href="#g"/>
<use x="100.352401" y="22.327503" xlink:href="#h"/>
<use x="110.996278" y="22.327503" xlink:href="#a"/>
<use x="123.414134" y="22.327503" xlink:href="#c"/>
<use x="128.736072" y="22.327503" xlink:href="#c"/>
<use x="134.058011" y="22.327503" xlink:href="#a"/>
<use x="146.475867" y="22.327503" xlink:href="#b"/>
</g>
<g>
<use x="531.386719" y="45.472034" xlink:href="#p"/>
<use x="549.126513" y="45.472034" xlink:href="#d"/>
<use x="561.54437" y="45.472034" xlink:href="#e"/>
<use x="570.414267" y="45.472034" xlink:href="#d"/>
<use x="582.832123" y="45.472034" xlink:href="#b"/>
<use x="595.249979" y="45.472034" xlink:href="#a"/>
<use x="607.667836" y="45.472034" xlink:href="#k"/>
<use x="620.085692" y="45.472034" xlink:href="#g"/>
<use x="628.955589" y="45.472034" xlink:href="#d"/>
<use x="641.373445" y="45.472034" xlink:href="#b"/>
</g>
<g>
<use x="643.917969" y="22.327503" xlink:href="#p"/>
<use x="661.657763" y="22.327503" xlink:href="#k"/>
<use x="674.07562" y="22.327503" xlink:href="#j"/>
<use x="684.719496" y="22.327503" xlink:href="#o"/>
<use x="695.363373" y="22.327503" xlink:href="#a"/>
<use x="707.781229" y="22.327503" xlink:href="#c"/>
<use x="713.103168" y="22.327503" xlink:href="#h"/>
<use x="723.747045" y="22.327503" xlink:href="#a"/>
<use x="736.164901" y="22.327503" xlink:href="#c"/>
<use x="741.486839" y="22.327503" xlink:href="#c"/>
<use x="746.808778" y="22.327503" xlink:href="#a"/>
<use x="759.226634" y="22.327503" xlink:href="#b"/>
</g>
<g>
<use x="478.113281" y="428.729847" xlink:href="#n"/>
<use x="492.305117" y="428.729847" xlink:href="#a"/>
<use x="504.722973" y="428.729847" xlink:href="#i"/>
<use x="517.140829" y="428.729847" xlink:href="#w"/>
<use x="529.558686" y="428.729847" xlink:href="#v"/>
<use x="540.202562" y="428.729847" xlink:href="#u"/>
<use x="552.620419" y="428.729847" xlink:href="#e"/>
<use x="561.490316" y="428.729847" xlink:href="#b"/>
<use x="573.908172" y="428.729847" xlink:href="#m"/>
<use x="579.230111" y="428.729847" xlink:href="#j"/>
<use x="589.873987" y="428.729847" xlink:href="#l"/>
<use x="596.969905" y="428.729847" xlink:href="#f"/>
<use x="602.291844" y="428.729847" xlink:href="#n"/>
<use x="616.483679" y="428.729847" xlink:href="#a"/>
<use x="628.901535" y="428.729847" xlink:href="#i"/>
<use x="641.319392" y="428.729847" xlink:href="#t"/>
<use x="653.737248" y="428.729847" xlink:href="#b"/>
<use x="666.155104" y="428.729847" xlink:href="#o"/>
<use x="676.798981" y="428.729847" xlink:href="#a"/>
<use x="689.216837" y="428.729847" xlink:href="#b"/>
<use x="701.634693" y="428.729847" xlink:href="#l"/>
</g>
<g>
<use x="495.855469" y="450.886097" xlink:href="#s"/>
<use x="508.273325" y="450.886097" xlink:href="#a"/>
<use x="520.691181" y="450.886097" xlink:href="#a"/>
<use x="533.109037" y="450.886097" xlink:href="#c"/>
<use x="538.430976" y="450.886097" xlink:href="#a"/>
<use x="550.848832" y="450.886097" xlink:href="#f"/>
<use x="556.17077" y="450.886097" xlink:href="#k"/>
<use x="568.588627" y="450.886097" xlink:href="#b"/>
<use x="581.006483" y="450.886097" xlink:href="#i"/>
<use x="593.424339" y="450.886097" xlink:href="#f"/>
<use x="598.746278" y="450.886097" xlink:href="#j"/>
<use x="609.390154" y="450.886097" xlink:href="#d"/>
<use x="621.808011" y="450.886097" xlink:href="#f"/>
<use x="627.129949" y="450.886097" xlink:href="#r"/>
<use x="643.095764" y="450.886097" xlink:href="#a"/>
<use x="655.51362" y="450.886097" xlink:href="#m"/>
<use x="660.835559" y="450.886097" xlink:href="#e"/>
<use x="669.705456" y="450.886097" xlink:href="#a"/>
<use x="682.123312" y="450.886097" xlink:href="#g"/>
</g>
<path transform="matrix(1.774 0 0 1.7725 .2191 0)" d="m337.92 74.095c0 4.1432-3.358 7.5019-7.4999 7.5019s-7.4999-3.3587-7.4999-7.5019c0-4.141 3.358-7.4997 7.4999-7.4997s7.4999 3.3587 7.4999 7.4997zm0 0" fill="#ccc" stroke="#000" stroke-linecap="round" stroke-width="1.4173"/>
<path transform="matrix(1.774 0 0 1.7725 .2191 0)" d="m51.072 26.651s32.774 0.65674 50.511 12.172" fill="none" stroke="#000" stroke-width="1.1339"/>
<path transform="matrix(-1.0123 -.6566 .65716 -1.0114 180.43 68.811)" d="m8.7187 4.0322-10.926-4.0145 10.928-4.0198c-1.7468 2.3738-1.7357 5.6186-0.001396 8.0343z" fill-rule="evenodd" stroke="#000" stroke-linejoin="round" stroke-width=".625"/>
<path transform="matrix(1.774 0 0 1.7725 .2191 0)" d="m50.709 116.65c22.912-7.0391 35.914-15.791 48.749-6.4506" fill="none" stroke="#000" stroke-width="1.1339"/>
<path transform="matrix(-.9759 -.70943 .71003 -.97507 176.66 195.33)" d="m8.7182 4.0324-10.925-4.0178 10.925-4.0144c-1.7451 2.3713-1.7338 5.6161 2.5e-5 8.0322z" fill-rule="evenodd" stroke="#000" stroke-linejoin="round" stroke-width=".625"/>
<path transform="matrix(1.774 0 0 1.7725 .2191 0)" d="m50.709 71.651s33.074-7.2639 48.767 5.5184" fill="none" stroke="#000" stroke-width="1.1339"/>
<path transform="matrix(-.93578 -.76149 .76214 -.93498 176.69 136.78)" d="m8.7186 4.0317-10.926-4.0153 10.925-4.0178c-1.7446 2.3734-1.7341 5.6153 0.001275 8.0331z" fill-rule="evenodd" stroke="#000" stroke-linejoin="round" stroke-width=".625"/>
<path transform="matrix(1.774 0 0 1.7725 .2191 0)" d="m50.709 71.651s32.827-2.4044 49.522-22.155" fill="none" stroke="#000" stroke-width="1.1339"/>
<path transform="matrix(-.77907 .92094 -.92172 -.77841 178.03 87.731)" d="m8.7189 4.0334-10.925-4.018 10.924-4.0168c-1.7441 2.3726-1.7348 5.6154 5.25e-4 8.0348z" fill-rule="evenodd" stroke="#000" stroke-linejoin="round" stroke-width=".625"/>
<path transform="matrix(1.774 0 0 1.7725 .2191 0)" d="m50.709 116.65c29.513-10.605 29.733-17.399 51.528-31.455" fill="none" stroke="#000" stroke-width="1.1339"/>
<path transform="matrix(-1.0142 .65358 -.65414 -1.0134 181.59 151.01)" d="m8.7179 4.0341-10.925-4.0162 10.927-4.0195c-1.7466 2.3736-1.7364 5.6182-0.002444 8.0356z" fill-rule="evenodd" stroke="#000" stroke-linejoin="round" stroke-width=".625"/>
<path transform="matrix(1.774 0 0 1.7725 .2191 0)" d="m50.709 139.15s35.148-3.654 51.099-22.085" fill="none" stroke="#000" stroke-width="1.1339"/>
<path transform="matrix(-.78972 .91185 -.91262 -.78904 180.82 207.49)" d="m8.7185 4.0332-10.925-4.0162 10.925-4.0181c-1.7471 2.3722-1.7371 5.6165-3.96e-4 8.0344z" fill-rule="evenodd" stroke="#000" stroke-linejoin="round" stroke-width=".625"/>
<path transform="matrix(1.774 0 0 1.7725 .2191 0)" d="m50.709 139.15c41.758-5.5405 38.926-20.848 54.268-6.2545" fill="none" stroke="#000" stroke-width="1.1339"/>
<path transform="matrix(-.87438 -.83116 .83186 -.87363 186.44 235.56)" d="m8.7194 4.0329-10.925-4.0171 10.925-4.0176c-1.7461 2.3721-1.7362 5.6178 1.93e-4 8.0347z" fill-rule="evenodd" stroke="#000" stroke-linejoin="round" stroke-width=".625"/>
<path transform="matrix(1.774 0 0 1.7725 .2191 0)" d="m50.709 139.15s36.244-3.557 51.167 28.85" fill="none" stroke="#000" stroke-width="1.1339"/>
<path transform="matrix(-.50477 -1.0953 1.0962 -.50434 180.95 297.78)" d="m8.7199 4.0329-10.929-4.0167 10.927-4.0194c-1.746 2.3745-1.7348 5.6187 0.0016 8.0361z" fill-rule="evenodd" stroke="#000" stroke-linejoin="round" stroke-width=".625"/>
<path transform="matrix(1.774 0 0 1.7725 .2191 0)" d="m50.709 184.15c15.859-6.1245 31.402-2.6865 48.749-9.1614" fill="none" stroke="#000" stroke-width="1.1339"/>
<path transform="matrix(-1.1307 .42166 -.42202 -1.1297 176.66 310.16)" d="m8.718 4.0327-10.925-4.0154 10.925-4.0202c-1.7462 2.3737-1.7342 5.6181-5.01e-4 8.0356z" fill-rule="evenodd" stroke="#000" stroke-linejoin="round" stroke-width=".625"/>
<path transform="matrix(1.774 0 0 1.7725 .2191 0)" d="m50.709 229.15c22.073-7.092 43.271-18.312 53.834-44.773" fill="none" stroke="#000" stroke-width="1.1339"/>
<path transform="matrix(-.44742 1.1199 -1.1209 -.44704 185.68 326.81)" d="m8.718 4.0346-10.924-4.0175 10.924-4.0193c-1.7455 2.373-1.7373 5.6178-8.36e-4 8.0368z" fill-rule="evenodd" stroke="#000" stroke-linejoin="round" stroke-width=".625"/>
<path transform="matrix(1.774 0 0 1.7725 .2191 0)" d="m50.709 229.15c5.5402 1.3598 29.94-16.161 52.136-13.745" fill="none" stroke="#000" stroke-width="1.1339"/>
<path transform="matrix(-1.1998 -.13043 .13054 -1.1988 182.66 381.8)" d="m8.7183 4.0332-10.927-4.0182 10.929-4.0175c-1.7473 2.3734-1.7362 5.6177-0.001476 8.0358z" fill-rule="evenodd" stroke="#000" stroke-linejoin="round" stroke-width=".625"/>
<path transform="matrix(1.774 0 0 1.7725 .2191 0)" d="m121.12 49.67c0.45801-1.3576 19.571-0.25785 32.721 5.8644" fill="none" stroke="#000" stroke-width="1.1339"/>
<path transform="matrix(-1.0941 -.50891 .50934 -1.0932 273.12 98.433)" d="m8.7184 4.0342-10.925-4.0188 10.925-4.0176c-1.7441 2.3735-1.7367 5.6181-4.17e-4 8.0364z" fill-rule="evenodd" stroke="#000" stroke-linejoin="round" stroke-width=".625"/>
<path transform="matrix(1.774 0 0 1.7725 .2191 0)" d="m121.61 80.59s16.979 0.18733 33.358 5.9063" fill="none" stroke="#000" stroke-width="1.1339"/>
<path transform="matrix(-1.1394 -.39759 .39793 -1.1384 275.12 153.31)" d="m8.7195 4.0344-10.927-4.0174 10.925-4.0181c-1.7428 2.3724-1.7346 5.6155 0.001945 8.0355z" fill-rule="evenodd" stroke="#000" stroke-linejoin="round" stroke-width=".625"/>
<path transform="matrix(1.774 0 0 1.7725 .2191 0)" d="m121.91 111.25s19.987 6.1289 31.915-10.898" fill="none" stroke="#000" stroke-width="1.1339"/>
<path transform="matrix(-.69245 .98762 -.98846 -.69186 273.1 177.87)" d="m8.7189 4.0328-10.926-4.0161 10.926-4.0181c-1.744 2.3717-1.7359 5.6184-6.4e-5 8.0342z" fill-rule="evenodd" stroke="#000" stroke-linejoin="round" stroke-width=".625"/>
<path transform="matrix(1.774 0 0 1.7725 .2191 0)" d="m121.71 144.95c14.267-8.8749 25.428-11.751 35.828-41.08" fill="none" stroke="#000" stroke-width="1.1339"/>
<path transform="matrix(-.40338 1.1365 -1.1375 -.40304 279.69 184.1)" d="m8.7173 4.0326-10.925-4.0175 10.926-4.0154c-1.7442 2.37-1.7345 5.6153-6.67e-4 8.0328z" fill-rule="evenodd" stroke="#000" stroke-linejoin="round" stroke-width=".625"/>
<path transform="matrix(1.774 0 0 1.7725 .2191 0)" d="m121.96 175.15c6.2228-0.85068 17.407-4.2336 31.656 10.31" fill="none" stroke="#000" stroke-width="1.1339"/>
<path transform="matrix(-.84461 -.86134 .86207 -.84389 272.72 328.71)" d="m8.7171 4.0339-10.924-4.019 10.925-4.0181c-1.7447 2.3733-1.7353 5.6178-0.001359 8.0371z" fill-rule="evenodd" stroke="#000" stroke-linejoin="round" stroke-width=".625"/>
<path transform="matrix(1.774 0 0 1.7725 .2191 0)" d="m123.5 80.656c13.346 0.52892 29.991-13.223 29.991-13.223" fill="none" stroke="#000" stroke-width="1.1339"/>
<path transform="matrix(-.93041 .76803 -.76868 -.92962 272.51 119.52)" d="m8.7187 4.0356-10.926-4.0179 10.925-4.0209c-1.7462 2.3728-1.7354 5.6172 4.61e-4 8.0388z" fill-rule="evenodd" stroke="#000" stroke-linejoin="round" stroke-width=".625"/>
<path transform="matrix(1.774 0 0 1.7725 .2191 0)" d="m122.02 144.75c18.241-1.578 31.413-12.648 31.413-12.648" fill="none" stroke="#000" stroke-width="1.1339"/>
<path transform="matrix(-.92392 .77581 -.77647 -.92313 272.4 234.15)" d="m8.7183 4.0333-10.927-4.0168 10.928-4.0183c-1.7442 2.3722-1.7354 5.6167-7.28e-4 8.035z" fill-rule="evenodd" stroke="#000" stroke-linejoin="round" stroke-width=".625"/>
<path transform="matrix(1.774 0 0 1.7725 .2191 0)" d="m121.61 145.34c14.031 0 30.905 10.091 30.905 10.091" fill="none" stroke="#000" stroke-width="1.1339"/>
<path transform="matrix(-1.0358 -.61892 .61944 -1.0349 270.78 275.5)" d="m8.7181 4.0342-10.927-4.0189 10.926-4.0166c-1.7453 2.3724-1.736 5.6167 9.15e-4 8.0355z" fill-rule="evenodd" stroke="#000" stroke-linejoin="round" stroke-width=".625"/>
<path transform="matrix(1.774 0 0 1.7725 .2191 0)" d="m121.96 175.21c17.453-11.013 36.359-38.536 36.359-38.536" fill="none" stroke="#000" stroke-width="1.1339"/>
<path transform="matrix(-.68328 .99397 -.99482 -.6827 281.07 242.25)" d="m8.7171 4.0328-10.925-4.0168 10.928-4.0187c-1.7458 2.3732-1.7373 5.6185-0.002476 8.0355z" fill-rule="evenodd" stroke="#000" stroke-linejoin="round" stroke-width=".625"/>
<path transform="matrix(1.774 0 0 1.7725 .2191 0)" d="m174.46 61.76c13.199 0.58843 30.955-11.819 30.955-11.819" fill="none" stroke="#000" stroke-width="1.1339"/>
<path transform="matrix(-.9893 .69065 -.69124 -.98846 364.62 88.521)" d="m8.7196 4.0348-10.926-4.0179 10.925-4.0168c-1.7457 2.3685-1.7363 5.6156 8.21e-4 8.0347z" fill-rule="evenodd" stroke="#000" stroke-linejoin="round" stroke-width=".625"/>
<path transform="matrix(1.774 0 0 1.7725 .2191 0)" d="m174.46 94.15c5.9585 0.99173 19.818-7.5393 32.968 8.4209" fill="none" stroke="#000" stroke-width="1.1339"/>
<path transform="matrix(-.76742 -.93066 .93145 -.76677 368.19 181.8)" d="m8.7174 4.0342-10.926-4.0195 10.926-4.0152c-1.7438 2.3712-1.7351 5.616-6.41e-4 8.0347z" fill-rule="evenodd" stroke="#000" stroke-linejoin="round" stroke-width=".625"/>
<path transform="matrix(1.774 0 0 1.7725 .2191 0)" d="m174.46 126.54c16.083-2.1311 30.594-12.745 30.594-12.745" fill="none" stroke="#000" stroke-width="1.1339"/>
<path transform="matrix(-.97415 .71182 -.71243 -.97333 363.98 201.7)" d="m8.7202 4.0331-10.927-4.0184 10.926-4.0174c-1.7435 2.373-1.7348 5.6181 0.001661 8.0358z" fill-rule="evenodd" stroke="#000" stroke-linejoin="round" stroke-width=".625"/>
<path transform="matrix(1.774 0 0 1.7725 .2191 0)" d="m174.46 158.93c21.183-1.6661 30.354-13.549 30.354-13.549" fill="none" stroke="#000" stroke-width="1.1339"/>
<path transform="matrix(-.73741 .95457 -.95538 -.73678 363.56 257.69)" d="m8.7196 4.0329-10.928-4.0155 10.927-4.0179c-1.7469 2.3705-1.7344 5.6154 0.001002 8.0335z" fill-rule="evenodd" stroke="#000" stroke-linejoin="round" stroke-width=".625"/>
<path transform="matrix(1.774 0 0 1.7725 .2191 0)" d="m174.46 191.33c16.587-3.2088 32.433 9.0446 32.433 9.0446" fill="none" stroke="#000" stroke-width="1.1339"/>
<path transform="matrix(-.95472 -.73763 .73826 -.95392 367.24 355.15)" d="m8.7189 4.0346-10.927-4.0196 10.927-4.0184c-1.745 2.3731-1.7341 5.6201 5.58e-4 8.038z" fill-rule="evenodd" stroke="#000" stroke-linejoin="round" stroke-width=".625"/>
<path transform="matrix(1.774 0 0 1.7725 .2191 0)" d="m174.46 61.76c20.549-3.1691 32.516 8.9388 32.516 8.9388" fill="none" stroke="#000" stroke-width="1.1339"/>
<path transform="matrix(-.84836 -.85765 .85838 -.84764 367.39 125.31)" d="m8.7183 4.0338-10.927-4.0184 10.926-4.0184c-1.7458 2.3748-1.7346 5.6169 2.28e-4 8.0368z" fill-rule="evenodd" stroke="#000" stroke-linejoin="round" stroke-width=".625"/>
<path transform="matrix(1.774 0 0 1.7725 .2191 0)" d="m174.46 94.15c21.844 9.0908 39.129 37.377 39.129 37.377" fill="none" stroke="#000" stroke-width="1.1339"/>
<path transform="matrix(-.62929 -1.0289 1.0298 -.62876 379.12 233.13)" d="m8.7166 4.0341-10.924-4.0164 10.926-4.02c-1.7463 2.3733-1.7364 5.6187-0.002101 8.0364z" fill-rule="evenodd" stroke="#000" stroke-linejoin="round" stroke-width=".625"/>
<path transform="matrix(1.774 0 0 1.7725 .2191 0)" d="m174.46 126.54c18.457 0.76032 31.499 10.42 31.499 10.42" fill="none" stroke="#000" stroke-width="1.1339"/>
<path transform="matrix(-.96988 -.71762 .71823 -.96906 365.59 242.76)" d="m8.7188 4.0322-10.926-4.018 10.926-4.0154c-1.7437 2.3716-1.7356 5.6186 3.73e-4 8.0335z" fill-rule="evenodd" stroke="#000" stroke-linejoin="round" stroke-width=".625"/>
<path transform="matrix(1.774 0 0 1.7725 .2191 0)" d="m174.46 126.54c19.681 12.557 33.402 40.363 33.402 40.363" fill="none" stroke="#000" stroke-width="1.1339"/>
<path transform="matrix(-.53404 -1.0814 1.0823 -.53359 368.96 295.84)" d="m8.7177 4.0331-10.925-4.0159 10.927-4.0177c-1.7452 2.3728-1.7343 5.6157-0.001346 8.0336z" fill-rule="evenodd" stroke="#000" stroke-linejoin="round" stroke-width=".625"/>
<path transform="matrix(1.774 0 0 1.7725 .2191 0)" d="m226.96 45.401 17.263-2.0452" fill="none" stroke="#000" stroke-width="1.1339"/>
<path transform="matrix(1.774 0 0 1.7725 .2191 0)" d="m226.96 77.793 17.263-1.3201" fill="none" stroke="#000" stroke-width="1.1339"/>
<path transform="matrix(1.774 0 0 1.7725 .2191 0)" d="m226.96 110.19 17.263 3.3212" fill="none" stroke="#000" stroke-width="1.1339"/>
<path transform="matrix(1.774 0 0 1.7725 .2191 0)" d="m226.96 142.58 17.263 0.75371" fill="none" stroke="#000" stroke-width="1.1339"/>
<path transform="matrix(1.774 0 0 1.7725 .2191 0)" d="m226.96 174.97 17.263 0.78677" fill="none" stroke="#000" stroke-width="1.1339"/>
<path transform="matrix(1.774 0 0 1.7725 .2191 0)" d="m226.96 207.36 17.263-2.865" fill="none" stroke="#000" stroke-width="1.1339"/>
<path transform="matrix(1.774 0 0 1.7725 .2191 0)" d="m244.22 43.356 12.15-2.6755" fill="none" stroke="#000" stroke-dasharray="1.13386,1.13386" stroke-width="1.1339"/>
<path transform="matrix(1.774 0 0 1.7725 .2191 0)" d="m244.22 76.473 12.15-1.697" fill="none" stroke="#000" stroke-dasharray="1.13386,1.13386" stroke-width="1.1339"/>
<path transform="matrix(1.774 0 0 1.7725 .2191 0)" d="m244.22 113.51 12.15 4.5223" fill="none" stroke="#000" stroke-dasharray="1.13386,1.13386" stroke-width="1.1339"/>
<path transform="matrix(1.774 0 0 1.7725 .2191 0)" d="m244.22 143.33 12.15 1.5405" fill="none" stroke="#000" stroke-dasharray="1.13386,1.13386" stroke-width="1.1339"/>
<path transform="matrix(1.774 0 0 1.7725 .2191 0)" d="m244.22 175.75 12.15 0.65674" fill="none" stroke="#000" stroke-dasharray="1.13386,1.13386" stroke-width="1.1339"/>
<path transform="matrix(1.774 0 0 1.7725 .2191 0)" d="m244.22 204.49 12.15-3.2969" fill="none" stroke="#000" stroke-dasharray="1.13386,1.13386" stroke-width="1.1339"/>
<path transform="matrix(1.774 0 0 1.7725 .2191 0)" d="m296.97 47.297s9.0677 5.0578 18.314 20.432" fill="none" stroke="#000" stroke-width="1.1339"/>
<path transform="matrix(-.62204 -1.0333 1.0342 -.62151 559.52 120.05)" d="m8.7178 4.0343-10.924-4.0172 10.927-4.0189c-1.7474 2.371-1.738 5.6173-0.002271 8.0361z" fill-rule="evenodd" stroke="#000" stroke-linejoin="round" stroke-width=".625"/>
<path transform="matrix(1.774 0 0 1.7725 .2191 0)" d="m292.44 122.85s11.4-3.6187 28.368-38.151" fill="none" stroke="#000" stroke-width="1.1339"/>
<path transform="matrix(-.53228 1.0822 -1.0831 -.53183 569.33 150.13)" d="m8.7179 4.0323-10.925-4.0153 10.925-4.0198c-1.7467 2.373-1.7354 5.6204-1.47e-4 8.0351z" fill-rule="evenodd" stroke="#000" stroke-linejoin="round" stroke-width=".625"/>
<path transform="matrix(1.774 0 0 1.7725 .2191 0)" d="m314.25 149.94s23.497-16.203 23.709-58.911" fill="none" stroke="#000" stroke-width="1.1339"/>
<path transform="matrix(-.0059698 1.2058 -1.2069 -.0059647 599.76 161.34)" d="m8.719 4.0328-10.927-4.0178 10.926-4.0158c-1.7441 2.3714-1.7345 5.6178 8.65e-4 8.0336z" fill-rule="evenodd" stroke="#000" stroke-linejoin="round" stroke-width=".625"/>
<path transform="matrix(1.774 0 0 1.7725 .2191 0)" d="m296.97 47.297s-10.776-6.6005-24.283-4.0418" fill="none" stroke="#000" stroke-dasharray="1.13386,1.13386" stroke-width="1.1339"/>
<path transform="matrix(1.774 0 0 1.7725 .2191 0)" d="m292.44 122.85s-12.963 5.5515-21.22 4.4914" fill="none" stroke="#000" stroke-dasharray="1.13386,1.13386" stroke-width="1.1339"/>
<path transform="matrix(1.774 0 0 1.7725 .2191 0)" d="m314.25 149.94s-11.129 12.337-26.849 13.051" fill="none" stroke="#000" stroke-dasharray="1.13386,1.13386" stroke-width="1.1339"/>
<path transform="matrix(1.774 0 0 1.7725 .2191 0)" d="m326.52 226.06-61.556-76.929" fill="none" stroke="#000" stroke-width="1.1339"/>
<path transform="matrix(.75403 .94152 -.94232 .75339 470.26 264.32)" d="m8.7207 4.0336-10.928-4.0186 10.926-4.0162c-1.7446 2.3721-1.7356 5.6169 0.001404 8.0348z" fill-rule="evenodd" stroke="#000" stroke-linejoin="round" stroke-width=".625"/>
<path transform="matrix(1.774 0 0 1.7725 .2191 0)" d="m333.45 31.101v22.598" fill="none" stroke="#000" stroke-miterlimit="4.1" stroke-width="1.1339"/>
<path transform="matrix(-7.4e-17 -1.2058 1.2069 -7.4e-17 591.75 95.178)" d="m8.7195 4.0328-10.927-4.0167 10.927-4.0167c-1.7461 2.3725-1.7363 5.6157 0 8.0335z" fill-rule="evenodd" stroke="#000" stroke-linejoin="round" stroke-width=".625"/>
</svg>
