<?xml version="1.0" encoding="UTF-8"?>
<svg width="800px" height="386px" version="1.1" viewBox="0 0 800 386" xmlns="http://www.w3.org/2000/svg" xmlns:xlink="http://www.w3.org/1999/xlink">
<defs>
<symbol id="i" overflow="visible">
<path d="m14.047-18.516v2.5156c-0.98047-0.46875-1.9062-0.81641-2.7812-1.0469-0.875-0.22656-1.7188-0.34375-2.5312-0.34375-1.4062 0-2.4961 0.27734-3.2656 0.82812-0.76172 0.54297-1.1406 1.3203-1.1406 2.3281 0 0.84375 0.25391 1.4844 0.76562 1.9219 0.50781 0.42969 1.4727 0.77734 2.8906 1.0469l1.5625 0.3125c1.9375 0.36719 3.3633 1.0117 4.2812 1.9375 0.91406 0.92969 1.375 2.1719 1.375 3.7344 0 1.8555-0.625 3.2617-1.875 4.2188-1.2422 0.96094-3.0586 1.4375-5.4531 1.4375-0.90625 0-1.8711-0.10547-2.8906-0.3125-1.0234-0.20703-2.0781-0.50781-3.1719-0.90625v-2.6719c1.0508 0.59375 2.0781 1.043 3.0781 1.3438 1.0078 0.29297 2.0039 0.4375 2.9844 0.4375 1.4766 0 2.6172-0.28516 3.4219-0.85938 0.80078-0.58203 1.2031-1.4141 1.2031-2.5 0-0.9375-0.29297-1.6719-0.875-2.2031-0.57422-0.53125-1.5156-0.92578-2.8281-1.1875l-1.5781-0.3125c-1.9375-0.38281-3.3398-0.98828-4.2031-1.8125-0.85547-0.82031-1.2812-1.9609-1.2812-3.4219 0-1.6875 0.59375-3.0195 1.7812-4 1.1953-0.97656 2.8438-1.4688 4.9375-1.4688 0.89453 0 1.8047 0.085938 2.7344 0.25 0.9375 0.16797 1.8906 0.41406 2.8594 0.73438z"/>
</symbol>
<symbol id="l" overflow="visible">
<path d="m12.797-13.812v2.2031c-0.65625-0.36328-1.3242-0.63281-2-0.8125-0.66797-0.1875-1.3438-0.28125-2.0312-0.28125-1.5312 0-2.7188 0.48438-3.5625 1.4531s-1.2656 2.3281-1.2656 4.0781 0.42188 3.1172 1.2656 4.0938c0.84375 0.96875 2.0312 1.4531 3.5625 1.4531 0.6875 0 1.3633-0.09375 2.0312-0.28125 0.67578-0.1875 1.3438-0.46094 2-0.82812v2.1875c-0.65625 0.30469-1.3398 0.53125-2.0469 0.6875-0.69922 0.15625-1.4453 0.23438-2.2344 0.23438-2.168 0-3.8867-0.67578-5.1562-2.0312-1.2734-1.3633-1.9062-3.2031-1.9062-5.5156 0-2.3438 0.64062-4.1797 1.9219-5.5156 1.2891-1.3438 3.0547-2.0156 5.2969-2.0156 0.71875 0 1.4219 0.074219 2.1094 0.21875 0.69531 0.14844 1.3672 0.37109 2.0156 0.67188z"/>
</symbol>
<symbol id="k" overflow="visible">
<path d="m14.406-8.6719v8.6719h-2.3594v-8.5938c0-1.3516-0.26562-2.3672-0.79688-3.0469-0.53125-0.67578-1.3242-1.0156-2.375-1.0156-1.2812 0-2.293 0.40625-3.0312 1.2188-0.73047 0.8125-1.0938 1.918-1.0938 3.3125v8.125h-2.3594v-19.953h2.3594v7.8281c0.5625-0.86328 1.2227-1.5078 1.9844-1.9375 0.76953-0.42578 1.6562-0.64062 2.6562-0.64062 1.6562 0 2.9062 0.51172 3.75 1.5312 0.84375 1.0234 1.2656 2.5234 1.2656 4.5z"/>
</symbol>
<symbol id="b" overflow="visible">
<path d="m9-7.2188c-1.9062 0-3.2305 0.21875-3.9688 0.65625-0.73047 0.4375-1.0938 1.1836-1.0938 2.2344 0 0.83594 0.27344 1.4961 0.82812 1.9844 0.55078 0.49219 1.3008 0.73438 2.25 0.73438 1.3008 0 2.3477-0.46094 3.1406-1.3906 0.78906-0.92578 1.1875-2.1562 1.1875-3.6875v-0.53125zm4.7031-0.96875v8.1875h-2.3594v-2.1875c-0.54297 0.875-1.2148 1.5234-2.0156 1.9375-0.80469 0.41406-1.7812 0.625-2.9375 0.625-1.4805 0-2.6523-0.41016-3.5156-1.2344-0.86719-0.83203-1.2969-1.9414-1.2969-3.3281 0-1.6133 0.53516-2.8281 1.6094-3.6406 1.082-0.82031 2.6953-1.2344 4.8438-1.2344h3.3125v-0.23438c0-1.082-0.35938-1.9219-1.0781-2.5156-0.71094-0.59375-1.7109-0.89062-3-0.89062-0.82422 0-1.625 0.10156-2.4062 0.29688-0.77344 0.1875-1.5156 0.48047-2.2344 0.875v-2.1719c0.86328-0.33203 1.7031-0.58203 2.5156-0.75 0.8125-0.16406 1.6016-0.25 2.375-0.25 2.0703 0 3.6172 0.53906 4.6406 1.6094 1.0312 1.0742 1.5469 2.7109 1.5469 4.9062z"/>
</symbol>
<symbol id="g" overflow="visible">
<path d="m2.4688-19.953h2.3594v19.953h-2.3594z"/>
</symbol>
<symbol id="e" overflow="visible">
<path d="m2.5781-19.141h11v2.1719h-8.4062v5.6406h7.5781v2.1875h-7.5781v9.1406h-2.5938z"/>
</symbol>
<symbol id="d" overflow="visible">
<path d="m11.625-13.938v2.2344c-0.66797-0.34375-1.3594-0.59766-2.0781-0.76562-0.71875-0.17578-1.4648-0.26562-2.2344-0.26562-1.168 0-2.043 0.18359-2.625 0.54688-0.58594 0.35547-0.875 0.89062-0.875 1.6094 0 0.54297 0.20703 0.96875 0.625 1.2812 0.41406 0.3125 1.2539 0.60938 2.5156 0.89062l0.8125 0.1875c1.6758 0.35547 2.8633 0.85938 3.5625 1.5156 0.70703 0.65625 1.0625 1.5703 1.0625 2.7344 0 1.3359-0.52734 2.3906-1.5781 3.1719-1.0547 0.78125-2.5078 1.1719-4.3594 1.1719-0.76172 0-1.5586-0.078125-2.3906-0.23438-0.83594-0.14453-1.7148-0.36719-2.6406-0.67188v-2.4375c0.875 0.46094 1.7344 0.80469 2.5781 1.0312 0.84375 0.21875 1.6797 0.32812 2.5156 0.32812 1.1016 0 1.9531-0.1875 2.5469-0.5625 0.60156-0.38281 0.90625-0.92188 0.90625-1.6094 0-0.64453-0.21875-1.1328-0.65625-1.4688-0.42969-0.34375-1.3711-0.67578-2.8281-1l-0.8125-0.1875c-1.4688-0.3125-2.5273-0.78516-3.1719-1.4219-0.64844-0.63281-0.96875-1.5078-0.96875-2.625 0-1.3438 0.47266-2.3789 1.4219-3.1094 0.95703-0.73828 2.3164-1.1094 4.0781-1.1094 0.875 0 1.6953 0.0625 2.4688 0.1875 0.76953 0.125 1.4766 0.32031 2.125 0.57812z"/>
</symbol>
<symbol id="a" overflow="visible">
<path d="m14.75-7.7656v1.1406h-10.844c0.10156 1.625 0.59375 2.8672 1.4688 3.7188 0.875 0.85547 2.0938 1.2812 3.6562 1.2812 0.90625 0 1.7852-0.10938 2.6406-0.32812 0.85156-0.22656 1.6953-0.56641 2.5312-1.0156v2.2344c-0.84375 0.36719-1.7148 0.64062-2.6094 0.82812-0.88672 0.1875-1.7891 0.28125-2.7031 0.28125-2.293 0-4.1055-0.66406-5.4375-2-1.3359-1.332-2-3.1406-2-5.4219 0-2.3438 0.62891-4.2031 1.8906-5.5781 1.2695-1.3828 2.9844-2.0781 5.1406-2.0781 1.9258 0 3.4531 0.62109 4.5781 1.8594 1.125 1.2422 1.6875 2.9336 1.6875 5.0781zm-2.3594-0.70312c-0.011719-1.2891-0.37109-2.3164-1.0781-3.0781-0.71094-0.76953-1.6406-1.1562-2.7969-1.1562-1.3242 0-2.3828 0.37109-3.1719 1.1094-0.78125 0.74219-1.2344 1.7891-1.3594 3.1406z"/>
</symbol>
<symbol id="c" overflow="visible">
<path d="m10.797-12.156c-0.27344-0.15625-0.5625-0.26953-0.875-0.34375-0.3125-0.070312-0.65625-0.10938-1.0312-0.10938-1.3359 0-2.3594 0.4375-3.0781 1.3125-0.71094 0.86719-1.0625 2.1094-1.0625 3.7344v7.5625h-2.3594v-14.359h2.3594v2.2344c0.5-0.875 1.1445-1.5195 1.9375-1.9375 0.78906-0.42578 1.7578-0.64062 2.9062-0.64062 0.15625 0 0.33203 0.011719 0.53125 0.03125 0.19531 0.023437 0.41406 0.054687 0.65625 0.09375z"/>
</symbol>
<symbol id="f" overflow="visible"></symbol>
<symbol id="p" overflow="visible">
<path d="m3.25-2.1875h4.2344v-14.594l-4.5938 0.92188v-2.3594l4.5625-0.92188h2.5938v16.953h4.2344v2.1875h-11.031z"/>
</symbol>
<symbol id="o" overflow="visible">
<path d="m5.0312-2.1875h9.0469v2.1875h-12.156v-2.1875c0.97656-1.0078 2.3164-2.3672 4.0156-4.0781 1.6953-1.7188 2.7656-2.8281 3.2031-3.3281 0.82031-0.92578 1.3984-1.7109 1.7344-2.3594 0.33203-0.64453 0.5-1.2812 0.5-1.9062 0-1.0195-0.35938-1.8477-1.0781-2.4844-0.71094-0.64453-1.6367-0.96875-2.7812-0.96875-0.8125 0-1.6719 0.14062-2.5781 0.42188-0.89844 0.28125-1.8594 0.71094-2.8906 1.2812v-2.6094c1.0391-0.42578 2.0156-0.74219 2.9219-0.95312 0.90625-0.21875 1.7344-0.32812 2.4844-0.32812 1.9883 0 3.5703 0.5 4.75 1.5 1.1758 0.99219 1.7656 2.3125 1.7656 3.9688 0 0.79297-0.14844 1.543-0.4375 2.25-0.29297 0.69922-0.82812 1.5273-1.6094 2.4844-0.21875 0.25-0.90234 0.96875-2.0469 2.1562-1.1367 1.1797-2.75 2.8281-4.8438 4.9531z"/>
</symbol>
<symbol id="n" overflow="visible">
<path d="m10.656-10.328c1.2383 0.27344 2.2031 0.82812 2.8906 1.6719 0.69531 0.83594 1.0469 1.8672 1.0469 3.0938 0 1.8867-0.65234 3.3516-1.9531 4.3906-1.293 1.0312-3.1367 1.5469-5.5312 1.5469-0.80469 0-1.6328-0.085938-2.4844-0.25-0.84375-0.15625-1.7188-0.39062-2.625-0.70312v-2.5c0.71875 0.41797 1.5039 0.73438 2.3594 0.95312 0.85156 0.21094 1.7422 0.3125 2.6719 0.3125 1.625 0 2.8594-0.31641 3.7031-0.95312 0.85156-0.64453 1.2812-1.5781 1.2812-2.7969 0-1.1328-0.39844-2.0195-1.1875-2.6562-0.78125-0.63281-1.8828-0.95312-3.2969-0.95312h-2.2188v-2.125h2.3281c1.2695 0 2.2422-0.25391 2.9219-0.76562 0.67578-0.50781 1.0156-1.2422 1.0156-2.2031 0-0.97656-0.35156-1.7266-1.0469-2.25-0.69922-0.53125-1.6992-0.79688-3-0.79688-0.71094 0-1.4688 0.078125-2.2812 0.23438-0.8125 0.14844-1.7031 0.38672-2.6719 0.71875v-2.3125c0.97656-0.26953 1.8945-0.47266 2.75-0.60938 0.86328-0.14453 1.6758-0.21875 2.4375-0.21875 1.9688 0 3.5234 0.44922 4.6719 1.3438 1.1445 0.89844 1.7188 2.1055 1.7188 3.625 0 1.0625-0.30859 1.9609-0.92188 2.6875-0.60547 0.73047-1.4648 1.2344-2.5781 1.5156z"/>
</symbol>
<symbol id="m" overflow="visible">
<path d="m2.2344-5.6719v-8.6875h2.3594v8.5938c0 1.3672 0.25781 2.3867 0.78125 3.0625 0.53125 0.67969 1.3281 1.0156 2.3906 1.0156 1.2695 0 2.2734-0.39844 3.0156-1.2031 0.73828-0.8125 1.1094-1.9219 1.1094-3.3281v-8.1406h2.3594v14.359h-2.3594v-2.2031c-0.57422 0.875-1.2422 1.5273-2 1.9531-0.75 0.41406-1.625 0.625-2.625 0.625-1.6484 0-2.8984-0.50781-3.75-1.5312-0.85547-1.0312-1.2812-2.5352-1.2812-4.5156z"/>
</symbol>
<symbol id="h" overflow="visible">
<path d="m13.656-11.609c0.58203-1.0625 1.2852-1.8438 2.1094-2.3438 0.82031-0.5 1.7852-0.75 2.8906-0.75 1.5 0 2.6562 0.52734 3.4688 1.5781 0.8125 1.043 1.2188 2.5273 1.2188 4.4531v8.6719h-2.375v-8.5938c0-1.375-0.24609-2.3945-0.73438-3.0625-0.48047-0.66406-1.2188-1-2.2188-1-1.2305 0-2.1992 0.40625-2.9062 1.2188-0.71094 0.8125-1.0625 1.918-1.0625 3.3125v8.125h-2.375v-8.5938c0-1.3828-0.24609-2.4062-0.73438-3.0625-0.48047-0.66406-1.2305-1-2.25-1-1.1992 0-2.1562 0.41406-2.875 1.2344-0.71094 0.8125-1.0625 1.9141-1.0625 3.2969v8.125h-2.3594v-14.359h2.3594v2.2344c0.53906-0.88281 1.1875-1.5352 1.9375-1.9531 0.75-0.41406 1.6445-0.625 2.6875-0.625 1.0391 0 1.9258 0.26562 2.6562 0.79688 0.72656 0.52344 1.2695 1.2891 1.625 2.2969z"/>
</symbol>
<symbol id="j" overflow="visible">
<path d="m3.5-13.422v2.9688h3.5312v1.3438h-3.5312v5.6719c0 0.84375 0.11328 1.3906 0.34375 1.6406 0.23828 0.24219 0.71094 0.35938 1.4219 0.35938h1.7656v1.4375h-1.7656c-1.3242 0-2.2422-0.24219-2.75-0.73438-0.5-0.5-0.75-1.3984-0.75-2.7031v-5.6719h-1.25v-1.3438h1.25v-2.9688z"/>
</symbol>
</defs>
<path transform="matrix(2.386 0 0 2.3879 10.367 6.3103)" d="m47.028 152.81h267.71" fill="none" stroke="#000" stroke-width=".75"/>
<path d="m742.18 363.27 21.508 7.9141-21.508 7.9141c3.4375-4.6719 3.418-11.066 0-15.828z" fill-rule="evenodd"/>
<path transform="matrix(2.386 0 0 2.3879 10.367 6.3103)" d="m47.028 18.919h278.64" fill="none" stroke="#999" stroke-width=".75"/>
<path transform="matrix(2.386 0 0 2.3879 10.367 6.3103)" d="m55.45 135.34v-135.34" fill="none" stroke="#999" stroke-width=".75"/>
<path transform="matrix(2.386 0 0 2.3879 10.367 6.3103)" d="m73.495 135.34v-135.34" fill="none" stroke="#999" stroke-width=".75"/>
<path transform="matrix(2.386 0 0 2.3879 10.367 6.3103)" d="m91.532 135.34v-135.34" fill="none" stroke="#999" stroke-width=".75"/>
<path transform="matrix(2.386 0 0 2.3879 10.367 6.3103)" d="m109.49 135.34v-135.34" fill="none" stroke="#999" stroke-width=".75"/>
<path transform="matrix(2.386 0 0 2.3879 10.367 6.3103)" d="m127.66 135.34v-135.34" fill="none" stroke="#999" stroke-width=".75"/>
<path transform="matrix(2.386 0 0 2.3879 10.367 6.3103)" d="m145.69 135.34v-135.34" fill="none" stroke="#999" stroke-width=".75"/>
<path transform="matrix(2.386 0 0 2.3879 10.367 6.3103)" d="m163.66 135.34v-135.34" fill="none" stroke="#999" stroke-width=".75"/>
<path transform="matrix(2.386 0 0 2.3879 10.367 6.3103)" d="m181.81 135.34v-135.34" fill="none" stroke="#999" stroke-width=".75"/>
<path transform="matrix(2.386 0 0 2.3879 10.367 6.3103)" d="m199.85 135.34v-135.34" fill="none" stroke="#999" stroke-width=".75"/>
<path transform="matrix(2.386 0 0 2.3879 10.367 6.3103)" d="m217.82 135.34v-135.34" fill="none" stroke="#999" stroke-width=".75"/>
<path transform="matrix(2.386 0 0 2.3879 10.367 6.3103)" d="m235.96 135.34v-135.34" fill="none" stroke="#999" stroke-width=".75"/>
<path transform="matrix(2.386 0 0 2.3879 10.367 6.3103)" d="m254 135.34v-135.34" fill="none" stroke="#999" stroke-width=".75"/>
<path transform="matrix(2.386 0 0 2.3879 10.367 6.3103)" d="m271.98 135.34v-135.34" fill="none" stroke="#999" stroke-width=".75"/>
<path transform="matrix(2.386 0 0 2.3879 10.367 6.3103)" d="m290.1 135.34v-135.34" fill="none" stroke="#999" stroke-width=".75"/>
<path transform="matrix(2.386 0 0 2.3879 10.367 6.3103)" d="m308.15 135.34v-135.34" fill="none" stroke="#999" stroke-width=".75"/>
<path transform="matrix(2.386 0 0 2.3879 10.367 6.3103)" d="m47.028 108.53h269.77" fill="none" stroke="#000"/>
<path transform="matrix(2.386 0 0 2.3879 10.367 6.3103)" d="m47.028 90.534h269.77" fill="none" stroke="#000"/>
<path transform="matrix(2.386 0 0 2.3879 10.367 6.3103)" d="m47.028 72.342h269.77" fill="none" stroke="#000"/>
<path transform="matrix(2.386 0 0 2.3879 10.367 6.3103)" d="m47.028 135.34h269.77" fill="none" stroke="#000"/>
<g>
<use x="10.199219" y="60.008071" xlink:href="#i"/>
<use x="26.900925" y="60.008071" xlink:href="#l"/>
<use x="41.216674" y="60.008071" xlink:href="#k"/>
<use x="57.918381" y="60.008071" xlink:href="#b"/>
<use x="74.620088" y="60.008071" xlink:href="#g"/>
<use x="81.777962" y="60.008071" xlink:href="#g"/>
</g>
<g>
<use x="10.199219" y="187.480727" xlink:href="#e"/>
<use x="22.129009" y="187.480727" xlink:href="#b"/>
<use x="38.830716" y="187.480727" xlink:href="#d"/>
<use x="53.146465" y="187.480727" xlink:href="#a"/>
<use x="69.848171" y="187.480727" xlink:href="#c"/>
<use x="81.777962" y="187.480727" xlink:href="#f"/>
<use x="88.935836" y="187.480727" xlink:href="#p"/>
</g>
<g>
<use x="10.199219" y="231.976821" xlink:href="#e"/>
<use x="22.129009" y="231.976821" xlink:href="#b"/>
<use x="38.830716" y="231.976821" xlink:href="#d"/>
<use x="53.146465" y="231.976821" xlink:href="#a"/>
<use x="69.848171" y="231.976821" xlink:href="#c"/>
<use x="81.777962" y="231.976821" xlink:href="#f"/>
<use x="88.935836" y="231.976821" xlink:href="#o"/>
</g>
<g>
<use x="10.199219" y="274.594008" xlink:href="#e"/>
<use x="22.129009" y="274.594008" xlink:href="#b"/>
<use x="38.830716" y="274.594008" xlink:href="#d"/>
<use x="53.146465" y="274.594008" xlink:href="#a"/>
<use x="69.848171" y="274.594008" xlink:href="#c"/>
<use x="81.777962" y="274.594008" xlink:href="#f"/>
<use x="88.935836" y="274.594008" xlink:href="#n"/>
</g>
<g>
<use x="10.199219" y="339.066665" xlink:href="#i"/>
<use x="26.900925" y="339.066665" xlink:href="#m"/>
<use x="43.602632" y="339.066665" xlink:href="#h"/>
<use x="69.848171" y="339.066665" xlink:href="#h"/>
<use x="96.09371" y="339.066665" xlink:href="#a"/>
</g>
<g>
<use x="781.042969" y="381.079951" xlink:href="#j"/>
</g>
<path transform="matrix(2.386 0 0 2.3879 10.367 6.3103)" d="m55.45 135.34v-8.8122" fill="none" stroke="#000" stroke-width="2"/>
<path transform="matrix(2.386 0 0 2.3879 10.367 6.3103)" d="m73.495 135.34v-8.8122" fill="none" stroke="#000" stroke-width="2"/>
<path transform="matrix(2.386 0 0 2.3879 10.367 6.3103)" d="m91.532 135.34v-8.8122" fill="none" stroke="#000" stroke-width="2"/>
<path transform="matrix(2.386 0 0 2.3879 10.367 6.3103)" d="m109.49 135.34v-8.8122" fill="none" stroke="#000" stroke-width="2"/>
<path transform="matrix(2.386 0 0 2.3879 10.367 6.3103)" d="m127.66 135.34v-8.8122" fill="none" stroke="#000" stroke-width="2"/>
<path transform="matrix(2.386 0 0 2.3879 10.367 6.3103)" d="m145.69 135.34v-8.8122" fill="none" stroke="#000" stroke-width="2"/>
<path transform="matrix(2.386 0 0 2.3879 10.367 6.3103)" d="m163.66 135.34v-8.8122" fill="none" stroke="#000" stroke-width="2"/>
<path transform="matrix(2.386 0 0 2.3879 10.367 6.3103)" d="m181.81 135.34v-8.8122" fill="none" stroke="#000" stroke-width="2"/>
<path transform="matrix(2.386 0 0 2.3879 10.367 6.3103)" d="m199.85 135.34v-8.8122" fill="none" stroke="#000" stroke-width="2"/>
<path transform="matrix(2.386 0 0 2.3879 10.367 6.3103)" d="m217.82 135.34v-8.8122" fill="none" stroke="#000" stroke-width="2"/>
<path transform="matrix(2.386 0 0 2.3879 10.367 6.3103)" d="m235.96 135.34v-8.8122" fill="none" stroke="#000" stroke-width="2"/>
<path transform="matrix(2.386 0 0 2.3879 10.367 6.3103)" d="m254 135.34v-8.8122" fill="none" stroke="#000" stroke-width="2"/>
<path transform="matrix(2.386 0 0 2.3879 10.367 6.3103)" d="m271.98 135.34v-8.8122" fill="none" stroke="#000" stroke-width="2"/>
<path transform="matrix(2.386 0 0 2.3879 10.367 6.3103)" d="m290.1 135.34v-8.8122" fill="none" stroke="#000" stroke-width="2"/>
<path transform="matrix(2.386 0 0 2.3879 10.367 6.3103)" d="m308.15 135.34v-8.8122" fill="none" stroke="#000" stroke-width="2"/>
<path transform="matrix(2.386 0 0 2.3879 10.367 6.3103)" d="m55.45 72.228v-8.8106" fill="none" stroke="#000" stroke-width="2"/>
<path transform="matrix(2.386 0 0 2.3879 10.367 6.3103)" d="m73.495 90.534v-8.8106" fill="none" stroke="#000" stroke-width="2"/>
<path transform="matrix(2.386 0 0 2.3879 10.367 6.3103)" d="m91.532 108.53v-8.8122" fill="none" stroke="#000" stroke-width="2"/>
<path transform="matrix(2.386 0 0 2.3879 10.367 6.3103)" d="m109.49 72.228v-8.8106" fill="none" stroke="#000" stroke-width="2"/>
<path transform="matrix(2.386 0 0 2.3879 10.367 6.3103)" d="m127.66 90.534v-8.8106" fill="none" stroke="#000" stroke-width="2"/>
<path transform="matrix(2.386 0 0 2.3879 10.367 6.3103)" d="m145.69 108.53v-8.8122" fill="none" stroke="#000" stroke-width="2"/>
<path transform="matrix(2.386 0 0 2.3879 10.367 6.3103)" d="m163.66 72.228v-8.8106" fill="none" stroke="#000" stroke-width="2"/>
<path transform="matrix(2.386 0 0 2.3879 10.367 6.3103)" d="m181.81 90.534v-8.8106" fill="none" stroke="#000" stroke-width="2"/>
<path transform="matrix(2.386 0 0 2.3879 10.367 6.3103)" d="m199.85 108.53v-8.8122" fill="none" stroke="#000" stroke-width="2"/>
<path transform="matrix(2.386 0 0 2.3879 10.367 6.3103)" d="m217.82 72.228v-8.8106" fill="none" stroke="#000" stroke-width="2"/>
<path transform="matrix(2.386 0 0 2.3879 10.367 6.3103)" d="m235.96 90.534v-8.8106" fill="none" stroke="#000" stroke-width="2"/>
<path transform="matrix(2.386 0 0 2.3879 10.367 6.3103)" d="m254 108.53v-8.8122" fill="none" stroke="#000" stroke-width="2"/>
<path transform="matrix(2.386 0 0 2.3879 10.367 6.3103)" d="m271.98 72.228v-8.8106" fill="none" stroke="#000" stroke-width="2"/>
<path transform="matrix(2.386 0 0 2.3879 10.367 6.3103)" d="m290.1 90.534v-8.8106" fill="none" stroke="#000" stroke-width="2"/>
<path transform="matrix(2.386 0 0 2.3879 10.367 6.3103)" d="m308.15 108.53v-8.8122" fill="none" stroke="#000" stroke-width="2"/>
<path transform="matrix(2.386 0 0 2.3879 10.367 6.3103)" d="m50.921 18.751s3.0795-18.832 4.5137-18.832c2.256 0 5.9872 37.663 9.0258 37.663 3.0386 0 6.0396-37.663 9.0258-37.663 2.9879 0 6.0134 37.663 9.0258 37.663 3.0141 0 5.9872-37.663 9.0274-37.663 2.96 0 5.961 37.663 9.0258 37.663 2.9338 0 4.5137-18.832 4.5137-18.832s1.4211-18.832 4.5137-18.832c2.9076 0 5.9872 37.663 9.0274 37.663 3.0386 0 6.0379-37.663 9.0258-37.663 2.9862 0 6.0134 37.663 9.0258 37.663 3.0124 0 5.9872-37.663 9.0258-37.663 2.9617 0 5.961 37.663 9.0258 37.663 2.7767 0 4.5137-18.832 4.5137-18.832s2.0121-18.832 4.5137-18.832c2.7488 0 5.9872 37.663 9.0274 37.663 3.0386 0 6.0379-37.663 9.0258-37.663 2.9862 0 6.0134 37.663 9.0258 37.663 3.0141 0 5.9872-37.663 9.0258-37.663 2.9617 0 5.961 37.663 9.0274 37.663 1.4342 0 4.5104-18.832 4.5104-18.832s1.8566-18.832 4.5121-18.832c2.5949 0 5.9872 37.663 9.0258 37.663 3.0402 0 6.0396-37.663 9.0274-37.663 2.9862 0 6.0117 37.663 9.0258 37.663 3.0124 0 5.9872-37.663 9.0258-37.663 2.9617 0 5.961 37.663 9.0258 37.663 2.464 0 4.5121-18.832 4.5121-18.832s2.4509-18.832 4.5104-18.832c2.256 0 5.9872 37.663 9.0258 37.663s6.0396-37.663 9.0258-37.663c2.9879 0 6.0134 37.663 9.0258 37.663 3.0141 0 5.9872-37.663 9.0274-37.663 2.96 0 5.961 37.663 9.0258 37.663 1.4342 0 4.5121-18.832 4.5121-18.832" fill="none" stroke="#000"/>
<path transform="matrix(2.386 0 0 2.3879 10.367 6.3103)" d="m50.921 18.751s3.0795-18.832 4.5137-18.832c2.256 0 5.9872 37.663 9.0258 37.663 3.0386 0 6.0396-37.663 9.0258-37.663 2.9879 0 6.0134 37.663 9.0258 37.663 3.0141 0 5.9872-37.663 9.0274-37.663 2.96 0 5.961 37.663 9.0258 37.663 2.9338 0 4.5137-18.832 4.5137-18.832s1.4211-18.832 4.5137-18.832c2.9076 0 5.9872 37.663 9.0274 37.663 3.0386 0 6.0379-37.663 9.0258-37.663 2.9862 0 6.0134 37.663 9.0258 37.663 3.0124 0 5.9872-37.663 9.0258-37.663 2.9617 0 5.961 37.663 9.0258 37.663 2.7767 0 4.5137-18.832 4.5137-18.832s2.0121-18.832 4.5137-18.832c2.7488 0 5.9872 37.663 9.0274 37.663 3.0386 0 6.0379-37.663 9.0258-37.663 2.9862 0 6.0134 37.663 9.0258 37.663 3.0141 0 5.9872-37.663 9.0258-37.663 2.9617 0 5.961 37.663 9.0274 37.663 1.4342 0 4.5104-18.832 4.5104-18.832s1.8566-18.832 4.5121-18.832c2.5949 0 5.9872 37.663 9.0258 37.663 3.0402 0 6.0396-37.663 9.0274-37.663 2.9862 0 6.0117 37.663 9.0258 37.663 3.0124 0 5.9872-37.663 9.0258-37.663 2.9617 0 5.961 37.663 9.0258 37.663 2.464 0 4.5121-18.832 4.5121-18.832s2.4509-18.832 4.5104-18.832c2.256 0 5.9872 37.663 9.0258 37.663s6.0396-37.663 9.0258-37.663c2.9879 0 6.0134 37.663 9.0258 37.663 3.0141 0 5.9872-37.663 9.0274-37.663 2.96 0 5.961 37.663 9.0258 37.663 1.4342 0 4.5121-18.832 4.5121-18.832" fill="none" stroke="#808080" stroke-dasharray="0.5,0.5" stroke-width=".5"/>
</svg>
