<?xml version="1.0" encoding="UTF-8"?>
<svg width="600px" height="542px" version="1.1" viewBox="0 0 600 542" xmlns="http://www.w3.org/2000/svg" xmlns:xlink="http://www.w3.org/1999/xlink">
<defs>
<symbol id="ai" overflow="visible">
<path d="m-0.03125-8.5938h7.2656v0.98438h-3.0469v7.6094h-1.1719v-7.6094h-3.0469z"/>
</symbol>
<symbol id="a" overflow="visible">
<path d="m6.625-3.4844v0.51562h-4.875c0.050781 0.73047 0.26953 1.2891 0.65625 1.6719 0.39453 0.375 0.94531 0.5625 1.6562 0.5625 0.40625 0 0.79688-0.046875 1.1719-0.14062 0.38281-0.10156 0.76562-0.25391 1.1406-0.45312v1c-0.375 0.15625-0.76562 0.27734-1.1719 0.35938-0.39844 0.09375-0.79688 0.14062-1.2031 0.14062-1.0312 0-1.8516-0.29688-2.4531-0.89062-0.59375-0.60156-0.89062-1.4141-0.89062-2.4375 0-1.0508 0.28125-1.8828 0.84375-2.5 0.57031-0.625 1.3438-0.9375 2.3125-0.9375 0.86328 0 1.5469 0.28125 2.0469 0.84375 0.50781 0.55469 0.76562 1.3086 0.76562 2.2656zm-1.0625-0.3125c0-0.58203-0.16406-1.0469-0.48438-1.3906-0.3125-0.34375-0.73047-0.51562-1.25-0.51562-0.59375 0-1.0703 0.16797-1.4219 0.5-0.35547 0.33594-0.55859 0.80469-0.60938 1.4062z"/>
</symbol>
<symbol id="f" overflow="visible">
<path d="m4.8438-5.4531c-0.11719-0.070313-0.24609-0.125-0.39062-0.15625-0.13672-0.03125-0.28906-0.046875-0.45312-0.046875-0.60547 0-1.0703 0.19922-1.3906 0.59375-0.3125 0.38672-0.46875 0.94531-0.46875 1.6719v3.3906h-1.0625v-6.4375h1.0625v1c0.21875-0.39453 0.50391-0.6875 0.85938-0.875 0.36328-0.1875 0.80078-0.28125 1.3125-0.28125 0.070312 0 0.14844 0.007812 0.23438 0.015625 0.09375 0.011719 0.19141 0.023437 0.29688 0.03125z"/>
</symbol>
<symbol id="i" overflow="visible">
<path d="m6.1406-5.2031c0.25781-0.47656 0.57031-0.82812 0.9375-1.0469 0.375-0.22656 0.8125-0.34375 1.3125-0.34375 0.66406 0 1.1797 0.23438 1.5469 0.70312 0.36328 0.46875 0.54688 1.1367 0.54688 2v3.8906h-1.0625v-3.8594c0-0.61328-0.10938-1.0664-0.32812-1.3594-0.21875-0.30078-0.55469-0.45312-1-0.45312-0.55469 0-0.99219 0.18359-1.3125 0.54688-0.3125 0.36719-0.46875 0.85938-0.46875 1.4844v3.6406h-1.0625v-3.8594c0-0.61328-0.10938-1.0664-0.32812-1.3594-0.21875-0.30078-0.55859-0.45312-1.0156-0.45312-0.54297 0-0.97656 0.18359-1.2969 0.54688-0.3125 0.36719-0.46875 0.85938-0.46875 1.4844v3.6406h-1.0625v-6.4375h1.0625v1c0.23828-0.39453 0.52344-0.6875 0.85938-0.875 0.34375-0.1875 0.74219-0.28125 1.2031-0.28125 0.46875 0 0.86719 0.12109 1.2031 0.35938 0.33203 0.23047 0.57812 0.57422 0.73438 1.0312z"/>
</symbol>
<symbol id="d" overflow="visible">
<path d="m1.1094-6.4375h1.0625v6.4375h-1.0625zm0-2.5156h1.0625v1.3438h-1.0625z"/>
</symbol>
<symbol id="b" overflow="visible">
<path d="m6.4688-3.8906v3.8906h-1.0469v-3.8594c0-0.60156-0.12109-1.0547-0.35938-1.3594-0.24219-0.30078-0.60156-0.45312-1.0781-0.45312-0.57422 0-1.0273 0.18359-1.3594 0.54688-0.32422 0.36719-0.48438 0.85938-0.48438 1.4844v3.6406h-1.0625v-6.4375h1.0625v1c0.25-0.38281 0.54688-0.67188 0.89062-0.85938 0.34375-0.19531 0.73828-0.29688 1.1875-0.29688 0.73828 0 1.2969 0.23047 1.6719 0.6875 0.38281 0.46094 0.57812 1.1328 0.57812 2.0156z"/>
</symbol>
<symbol id="h" overflow="visible">
<path d="m4.0469-3.2344c-0.85547 0-1.4492 0.10156-1.7812 0.29688-0.33594 0.1875-0.5 0.52344-0.5 1 0 0.375 0.125 0.67188 0.375 0.89062s0.58594 0.32812 1.0156 0.32812c0.58203 0 1.0508-0.20703 1.4062-0.625 0.35156-0.41406 0.53125-0.96875 0.53125-1.6562v-0.23438zm2.1094-0.4375v3.6719h-1.0625v-0.98438c-0.24219 0.39844-0.54297 0.6875-0.90625 0.875-0.35547 0.1875-0.79297 0.28125-1.3125 0.28125-0.66797 0-1.1992-0.17969-1.5938-0.54688-0.38672-0.375-0.57812-0.875-0.57812-1.5 0-0.72656 0.24219-1.2734 0.73438-1.6406 0.48828-0.36328 1.2109-0.54688 2.1719-0.54688h1.4844v-0.10938c0-0.48828-0.16406-0.86328-0.48438-1.125-0.3125-0.26953-0.76172-0.40625-1.3438-0.40625-0.36719 0-0.72656 0.046875-1.0781 0.14062-0.34375 0.085938-0.67969 0.21484-1 0.39062v-0.98438c0.38281-0.14453 0.75781-0.25391 1.125-0.32812 0.36328-0.070313 0.71875-0.10938 1.0625-0.10938 0.9375 0 1.6328 0.24219 2.0938 0.71875 0.45703 0.48047 0.6875 1.2148 0.6875 2.2031z"/>
</symbol>
<symbol id="c" overflow="visible">
<path d="m1.1094-8.9531h1.0625v8.9531h-1.0625z"/>
</symbol>
<symbol id="w" overflow="visible">
<path d="m3.6562-8.9375c-0.51172 0.88672-0.89062 1.7617-1.1406 2.625-0.25 0.85547-0.375 1.7266-0.375 2.6094 0 0.88672 0.125 1.7656 0.375 2.6406 0.25 0.86719 0.62891 1.7344 1.1406 2.6094h-0.92188c-0.57422-0.89844-1.0078-1.7734-1.2969-2.6406-0.28125-0.875-0.42188-1.7422-0.42188-2.6094 0-0.85156 0.14062-1.7109 0.42188-2.5781 0.28125-0.86328 0.71094-1.75 1.2969-2.6562z"/>
</symbol>
<symbol id="ah" overflow="visible">
<path d="m5.75-6.2031v1c-0.29297-0.16406-0.58984-0.28906-0.89062-0.375-0.30469-0.082031-0.60938-0.125-0.92188-0.125-0.6875 0-1.2266 0.21875-1.6094 0.65625-0.375 0.4375-0.5625 1.0469-0.5625 1.8281 0 0.79297 0.1875 1.4062 0.5625 1.8438 0.38281 0.42969 0.92188 0.64062 1.6094 0.64062 0.3125 0 0.61719-0.039063 0.92188-0.125 0.30078-0.082031 0.59766-0.20312 0.89062-0.35938v0.96875c-0.29297 0.13672-0.60156 0.24219-0.92188 0.3125-0.3125 0.070312-0.64844 0.10938-1 0.10938-0.96875 0-1.7422-0.30078-2.3125-0.90625-0.57422-0.61328-0.85938-1.4414-0.85938-2.4844 0-1.0508 0.28516-1.875 0.85938-2.4688 0.58203-0.60156 1.375-0.90625 2.375-0.90625 0.33203 0 0.64844 0.039062 0.95312 0.10938 0.3125 0.0625 0.61328 0.15625 0.90625 0.28125z"/>
</symbol>
<symbol id="ag" overflow="visible">
<path d="m6.4688-3.8906v3.8906h-1.0469v-3.8594c0-0.60156-0.12109-1.0547-0.35938-1.3594-0.24219-0.30078-0.60156-0.45312-1.0781-0.45312-0.57422 0-1.0273 0.18359-1.3594 0.54688-0.32422 0.36719-0.48438 0.85938-0.48438 1.4844v3.6406h-1.0625v-8.9531h1.0625v3.5156c0.25-0.38281 0.54688-0.67188 0.89062-0.85938 0.34375-0.19531 0.73828-0.29688 1.1875-0.29688 0.73828 0 1.2969 0.23047 1.6719 0.6875 0.38281 0.46094 0.57812 1.1328 0.57812 2.0156z"/>
</symbol>
<symbol id="k" overflow="visible">
<path d="m2.1562-8.2656v1.8281h2.1875v0.8125h-2.1875v3.5c0 0.53125 0.070312 0.87109 0.21875 1.0156 0.14453 0.14844 0.4375 0.21875 0.875 0.21875h1.0938v0.89062h-1.0938c-0.8125 0-1.375-0.14844-1.6875-0.45312-0.3125-0.3125-0.46875-0.86719-0.46875-1.6719v-3.5h-0.78125v-0.8125h0.78125v-1.8281z"/>
</symbol>
<symbol id="af" overflow="visible">
<path d="m0.57812-3.7031h3.1094v0.95312h-3.1094z"/>
</symbol>
<symbol id="p" overflow="visible">
<path d="m3.7969 0.59375c-0.30469 0.76953-0.59375 1.2695-0.875 1.5-0.28125 0.23828-0.66406 0.35938-1.1406 0.35938h-0.84375v-0.89062h0.625c0.28906 0 0.51562-0.070312 0.67188-0.20312 0.16406-0.13672 0.34375-0.46484 0.53125-0.98438l0.1875-0.48438-2.6094-6.3281h1.125l2.0156 5.0312 2.0156-5.0312h1.125z"/>
</symbol>
<symbol id="g" overflow="visible">
<path d="m5.2188-6.25v1c-0.29297-0.15625-0.60156-0.26953-0.92188-0.34375-0.32422-0.082031-0.65625-0.125-1-0.125-0.53125 0-0.93359 0.085938-1.2031 0.25-0.26172 0.15625-0.39062 0.39844-0.39062 0.71875 0 0.25 0.09375 0.44922 0.28125 0.59375 0.19531 0.13672 0.57812 0.26562 1.1406 0.39062l0.35938 0.078125c0.75781 0.15625 1.2969 0.38672 1.6094 0.6875 0.3125 0.29297 0.46875 0.69922 0.46875 1.2188 0 0.60547-0.24219 1.0859-0.71875 1.4375-0.46875 0.34375-1.1172 0.51562-1.9375 0.51562-0.34375 0-0.70312-0.039063-1.0781-0.10938-0.375-0.0625-0.77344-0.16016-1.1875-0.29688v-1.0938c0.39453 0.19922 0.78125 0.35156 1.1562 0.45312 0.38281 0.10547 0.75781 0.15625 1.125 0.15625 0.5 0 0.88281-0.082031 1.1562-0.25 0.26953-0.17578 0.40625-0.42188 0.40625-0.73438 0-0.28125-0.10156-0.5-0.29688-0.65625-0.1875-0.15625-0.60938-0.30078-1.2656-0.4375l-0.375-0.09375c-0.65625-0.13281-1.1328-0.34375-1.4219-0.625-0.29297-0.28906-0.4375-0.6875-0.4375-1.1875 0-0.60156 0.21094-1.0664 0.64062-1.3906 0.42578-0.33203 1.0352-0.5 1.8281-0.5 0.39453 0 0.76562 0.03125 1.1094 0.09375 0.34375 0.054688 0.66016 0.13672 0.95312 0.25z"/>
</symbol>
<symbol id="ae" overflow="visible">
<path d="m0.9375-8.9375h0.92188c0.58203 0.90625 1.0156 1.793 1.2969 2.6562 0.28906 0.86719 0.4375 1.7266 0.4375 2.5781 0 0.86719-0.14844 1.7344-0.4375 2.6094-0.28125 0.86719-0.71484 1.7422-1.2969 2.6406h-0.92188c0.50781-0.875 0.89062-1.7422 1.1406-2.6094 0.25781-0.875 0.39062-1.7539 0.39062-2.6406 0-0.88281-0.13281-1.7539-0.39062-2.6094-0.25-0.86328-0.63281-1.7383-1.1406-2.625z"/>
</symbol>
<symbol id="o" overflow="visible">
<path d="m4.0312-7.4375-1.5781 4.2656h3.1562zm-0.65625-1.1562h1.3125l3.2812 8.5938h-1.2031l-0.78125-2.2031h-3.875l-0.79688 2.2031h-1.2188z"/>
</symbol>
<symbol id="n" overflow="visible">
<path d="m6.4688-6.4375-2.3281 3.125 2.4531 3.3125h-1.25l-1.875-2.5312-1.875 2.5312h-1.25l2.5-3.375-2.2969-3.0625h1.25l1.7188 2.2969 1.7031-2.2969z"/>
</symbol>
<symbol id="m" overflow="visible">
<path d="m3.6094-5.7031c-0.5625 0-1.0117 0.22656-1.3438 0.67188-0.33594 0.4375-0.5 1.043-0.5 1.8125 0 0.77344 0.16016 1.3828 0.48438 1.8281 0.33203 0.4375 0.78516 0.65625 1.3594 0.65625 0.5625 0 1.0078-0.21875 1.3438-0.65625 0.33203-0.44531 0.5-1.0547 0.5-1.8281 0-0.75781-0.16797-1.3633-0.5-1.8125-0.33594-0.44531-0.78125-0.67188-1.3438-0.67188zm0-0.89062c0.92578 0 1.6484 0.30469 2.1719 0.90625 0.53125 0.59375 0.79688 1.418 0.79688 2.4688 0 1.0547-0.26562 1.8828-0.79688 2.4844-0.52344 0.60547-1.2461 0.90625-2.1719 0.90625-0.92969 0-1.6523-0.30078-2.1719-0.90625-0.52344-0.60156-0.78125-1.4297-0.78125-2.4844 0-1.0508 0.25781-1.875 0.78125-2.4688 0.51953-0.60156 1.2422-0.90625 2.1719-0.90625z"/>
</symbol>
<symbol id="ad" overflow="visible">
<path d="m1.1562-8.5938h1.7344l2.2031 5.8438 2.2031-5.8438h1.7344v8.5938h-1.1406v-7.5469l-2.2188 5.8906h-1.1719l-2.2188-5.8906v7.5469h-1.125z"/>
</symbol>
<symbol id="ac" overflow="visible">
<path d="m1.1562-8.5938h1.1719v3.6406l3.8594-3.6406h1.4844l-4.2656 4.0156 4.5781 4.5781h-1.5312l-4.125-4.1406v4.1406h-1.1719z"/>
</symbol>
<symbol id="ab" overflow="visible">
<path d="m2.1406-0.96875v3.4219h-1.0625v-8.8906h1.0625v0.96875c0.21875-0.38281 0.49219-0.66406 0.82812-0.84375 0.34375-0.1875 0.75391-0.28125 1.2344-0.28125 0.78125 0 1.4141 0.3125 1.9062 0.9375 0.48828 0.61719 0.73438 1.4297 0.73438 2.4375 0 1.0117-0.24609 1.8281-0.73438 2.4531-0.49219 0.625-1.125 0.9375-1.9062 0.9375-0.48047 0-0.89062-0.09375-1.2344-0.28125-0.33594-0.1875-0.60938-0.47266-0.82812-0.85938zm3.6094-2.25c0-0.78125-0.16406-1.3906-0.48438-1.8281-0.32422-0.44531-0.76562-0.67188-1.3281-0.67188s-1.0078 0.22656-1.3281 0.67188c-0.3125 0.4375-0.46875 1.0469-0.46875 1.8281s0.15625 1.3984 0.46875 1.8438c0.32031 0.4375 0.76562 0.65625 1.3281 0.65625s1.0039-0.21875 1.3281-0.65625c0.32031-0.44531 0.48438-1.0625 0.48438-1.8438z"/>
</symbol>
<symbol id="aa" overflow="visible">
<path d="m4.0312-7.4375-1.5781 4.2656h3.1562zm-0.65625-1.1562h1.3125l3.2812 8.5938h-1.2031l-0.78125-2.2031h-3.875l-0.79688 2.2031h-1.2188zm1.2031-2.1562h1.1719v1.1719h-1.1719zm-2.25 0h1.1719v1.1719h-1.1719z"/>
</symbol>
<symbol id="z" overflow="visible">
<path d="m1-2.5469v-3.8906h1.0625v3.8594c0 0.60547 0.11719 1.0625 0.35938 1.375 0.23828 0.30469 0.59375 0.45312 1.0625 0.45312 0.57031 0 1.0234-0.17969 1.3594-0.54688 0.33203-0.36328 0.5-0.86328 0.5-1.5v-3.6406h1.0625v6.4375h-1.0625v-0.98438c-0.26172 0.38672-0.5625 0.67969-0.90625 0.875-0.33594 0.1875-0.72656 0.28125-1.1719 0.28125-0.74219 0-1.3047-0.22656-1.6875-0.6875-0.38672-0.46875-0.57812-1.1445-0.57812-2.0312z"/>
</symbol>
<symbol id="y" overflow="visible">
<path d="m1.0781-6.5469c0-0.75781 0.22656-1.3477 0.6875-1.7656 0.45703-0.42578 1.1016-0.64062 1.9375-0.64062 0.80078 0 1.4102 0.22656 1.8281 0.67188 0.41406 0.44922 0.63281 1.1016 0.65625 1.9531-0.58594 0.03125-1.0391 0.15625-1.3594 0.375-0.32422 0.21875-0.48438 0.51562-0.48438 0.89062 0 0.17969 0.050781 0.34375 0.15625 0.5 0.11328 0.15625 0.29688 0.3125 0.54688 0.46875l0.32812 0.21875c0.64453 0.40625 1.0547 0.74609 1.2344 1.0156 0.1875 0.27344 0.28125 0.60156 0.28125 0.98438 0 0.65625-0.21875 1.1641-0.65625 1.5156-0.42969 0.35547-1.0469 0.53125-1.8594 0.53125-0.24219 0-0.49609-0.027344-0.76562-0.078125-0.26172-0.054688-0.52734-0.11719-0.79688-0.20312v-0.95312c0.30078 0.11719 0.58594 0.20312 0.85938 0.26562 0.26953 0.054687 0.53125 0.078125 0.78125 0.078125 0.4375 0 0.76953-0.085938 1-0.26562 0.23828-0.1875 0.35938-0.45312 0.35938-0.79688 0-0.25-0.058594-0.45312-0.17188-0.60938-0.11719-0.16406-0.36719-0.36328-0.75-0.59375l-0.53125-0.32812c-0.375-0.21875-0.64844-0.45703-0.8125-0.71875-0.16797-0.25781-0.25-0.56641-0.25-0.92188 0-0.47656 0.16016-0.88281 0.48438-1.2188 0.32031-0.33203 0.76953-0.55078 1.3438-0.65625-0.023438-0.39453-0.16406-0.70312-0.42188-0.92188-0.25-0.21875-0.58984-0.32812-1.0156-0.32812-0.5 0-0.88281 0.13672-1.1406 0.40625-0.26172 0.27344-0.39062 0.65625-0.39062 1.1562v6.5156h-1.0781z"/>
</symbol>
<symbol id="l" overflow="visible">
<path d="m1.1562-8.5938h1.1719v7.6094h4.1875v0.98438h-5.3594z"/>
</symbol>
<symbol id="x" overflow="visible">
<path d="m1.1562-8.5938h1.1719v8.5938h-1.1719z"/>
</symbol>
<radialGradient id="q" cx="268.49" cy="113.28" r="178.89" gradientTransform="matrix(-.91834 -1.8091 5.0678 -2.5726 49.153 991.23)" gradientUnits="userSpaceOnUse">
<stop stop-color="#6e7dbd" offset="0"/>
<stop stop-color="#fff" offset="1"/>
</radialGradient>
<linearGradient id="e" x1="145" x2="162.26" y1="170.73" y2="187.46" gradientUnits="userSpaceOnUse">
<stop stop-color="#5ab3cc" offset="0"/>
<stop stop-color="#72d1d1" offset="1"/>
</linearGradient>
<linearGradient id="t" x1="213.79" x2="363.05" y1="127.83" y2="233.22" gradientUnits="userSpaceOnUse">
<stop stop-color="#145c50" offset="0"/>
<stop stop-color="#288e8a" stop-opacity="0" offset="1"/>
</linearGradient>
<linearGradient id="s" x1="171.14" x2="185.95" y1="167.54" y2="179.21" gradientTransform="matrix(1.4742 0 0 1.4735 -3.6915 -8.3975)" gradientUnits="userSpaceOnUse">
<stop stop-color="#fff" offset="0"/>
<stop stop-color="#fff" stop-opacity="0" offset="1"/>
</linearGradient>
<linearGradient id="r" x1="196.97" x2="200.8" y1="169.08" y2="172.54" gradientUnits="userSpaceOnUse">
<stop stop-color="#faefc1" offset="0"/>
<stop stop-color="#e7b18a" offset="1"/>
</linearGradient>
<linearGradient id="j" x1="123.19" x2="140.41" y1="240.06" y2="258.32" gradientUnits="userSpaceOnUse">
<stop stop-color="#f2b1d5" offset="0"/>
<stop stop-color="#ca5386" offset="1"/>
</linearGradient>
<linearGradient id="v" x1="149.82" x2="158.87" y1="192.58" y2="198.95" gradientTransform="matrix(1.4742 0 0 1.4735 -3.6915 -8.3975)" gradientUnits="userSpaceOnUse">
<stop stop-color="#fff" offset="0"/>
<stop stop-color="#fff" stop-opacity="0" offset="1"/>
</linearGradient>
<linearGradient id="u" x1="218.85" x2="311.86" y1="82.851" y2="133.45" gradientTransform="matrix(1.4742 0 0 1.4735 -3.6915 -8.3975)" gradientUnits="userSpaceOnUse">
<stop stop-color="#fff" offset="0"/>
<stop stop-color="#fff" stop-opacity="0" offset="1"/>
</linearGradient>
</defs>
<path transform="matrix(1.4742 0 0 1.4735 -3.6915 -8.3975)" d="m35.354 395.98 28.329-36.95c13.498-17.608 25.25-19.453 37.842-17.6l17.423 2.5609c41.282 6.0681 77.354-9.7557 113.04-29.85 40.829-22.987 59.319-48.126 83.083-84.657 36.419-55.987 51.02-126.2 42.556-155.86-15.223-53.344-37.063-58.237-55.254-63.237-32.089-8.8252-56.131-2.2348-79.763 3.0593-33.987 7.6137-38.772 28.236-41.92 48.288-39.742 30.632-76.106 63.749-101.04 104.87-28.488 46.978-20.565 86.63-17.598 117.98 1.9688 20.792-19.855 32.08-31.03 48.243l-28.149 40.714" fill="url(#q)" stroke="#000" stroke-width=".75"/>
<path transform="matrix(1.4742 0 0 1.4735 -3.6915 -8.3975)" d="m33.942 395s19.185-26.526 28.902-38.858c4.8227-6.1185 13.617-17.51 18.862-23.406 3.9827-4.4802 18.756-14.809 26.021-15.72 31.067-3.9023 72.234-13.268 93.907-32.014 29.962-25.919 57.488-44.158 86.814-83.104 15.875-21.086 35.19-46.509 48.76-75.763-0.83205-56.928-32.423-107.68-105.47-113.21-2.202-0.16701-13.912 2.8498-20.483 5.5539-0.64391 0.2651-1.3594 0.56201-1.9105 0.80325-6.8843 3.0195-13.172 7.6349-17.542 13.814-4.7803 6.7574-7.1148 14.859-8.612 22.902-0.40808 2.2056-0.75785 4.3609-1.1076 6.5612-24.593 18.955-48.185 39.85-68.988 62.967-6.7067 7.452-13.093 15.209-19.023 23.297-5.9038 8.0538-8.3364 11.06-10.652 14.962-3.6462 6.145-7.1996 12.017-9.6692 18.724-0.67041 1.8265-1.7568 3.8784-2.369 5.8084-0.46107 1.4474-0.91684 2.9718-1.3488 4.512-1.7542 6.2723-4.0595 13.244-4.8651 19.639-0.99369 7.892-2.8406 15.826-2.6498 23.798 0.079495 3.3959-0.62271 7.8231-0.38423 11.238 0.17489 2.4919 0.40542 5.1801 0.63331 7.6932 0.67041 7.3062 1.672 14.583 2.2126 21.9 0.45047 6.1291-0.076845 20.683-3.2858 25.871-4.5418 7.3433-12.722 15.363-18.708 21.492-2.8115 2.8737-6.3781 5.4902-8.8425 8.7165-2.7293 3.5789-5.2361 6.4711-7.8144 10.159-7.0963 10.148-22.134 31.12-22.134 31.12" fill="#adb3f5" stroke="#000" stroke-width=".75"/>
<path transform="matrix(1.4742 0 0 1.4735 -3.6915 -8.3975)" d="m33.155 394.46c8.4848-11.728 18.366-26.104 27.206-37.567 6.5-8.2499 12.865-16.611 19.717-24.575 2.6631-3.054 5.978-5.4478 9.2532-7.7966 4.7008-3.221 9.595-6.2961 14.99-8.2075 2.8088-0.98617 5.819-1.0206 8.7285-1.5217 8.127-1.1558 16.145-2.5662 24.182-4.3211 11.94-2.6139 23.954-5.9754 35.322-10.509 8.9326-3.5948 17.794-8.0034 25.481-13.952 3.201-2.5317 6.2059-5.2861 9.3698-7.8973 16.715-14.042 34.029-27.433 49.637-42.742 11.633-11.33 22.296-23.642 31.952-36.693 10.923-14.474 21.76-29.135 31.279-44.537 5.6574-9.146 10.88-18.57 15.427-28.321-0.27028-16.174-3.1109-32.597-9.4096-47.636-0.63331-1.5296-1.3196-3.0699-1.99-4.4828-6.3013-13.441-15.639-25.473-27.264-34.728-7.181-5.75-15.215-10.471-23.602-14.114-7.2499-3.1547-14.746-5.5326-22.471-7.3035-15.796-4.2708-27.002-3.2899-41.494 3.3164-7.6236 3.4145-14.463 8.9843-18.512 16.378-4.306 7.6747-5.9674 16.449-7.3135 25.047-0.092744 0.59117-0.079495 1.2433-0.72075 1.5084-15.361 11.858-30.235 24.365-44.313 37.729-8.7683 8.3268-17.277 17.014-25.335 26.046-2.6048 2.9188-5.1221 5.8322-7.5759 8.8013-6.2616 7.4811-11.956 15.41-17.733 23.263-2.8671 3.9314-5.2122 8.2102-7.6289 12.425-1.99 3.5338-3.837 7.2956-5.2599 11.171-0.95659 2.4045-2.1517 4.7188-2.7929 7.2372-1.6508 5.8349-3.5031 11.606-4.82 17.534-0.83205 3.844-1.15 7.7197-1.8284 11.603-0.92744 5.7924-1.8098 11.633-1.6164 17.518-0.063596 4.0481-0.7499 8.1015-0.24378 12.15 0.57501 8.1386 1.6561 16.145 2.414 24.286 0.67836 6.4791 0.51672 13.032-0.27558 19.493-0.48492 3.5179-1.052 7.1312-2.724 10.31-3.2937 5.408-7.5918 10.116-11.908 14.716-3.0341 3.1202-6.0098 6.2988-9.1711 9.2891-2.6975 2.4628-5.5328 4.8328-7.6474 7.8443-2.8645 3.616-5.766 7.2081-8.3602 11.031-6.2589 8.857-14.436 20.185-20.833 28.946" fill="#837fcb" stroke="#000" stroke-width=".75"/>
<path transform="matrix(1.4742 0 0 1.4735 -3.6915 -8.3975)" d="m206.35 25.876c-5.774 3.3959-9.9554 8.6025-13.808 14.127-5.1778 7.4202-6.1874 17.661-6.826 24.286-0.55116 0.86158-1.2772 1.5376-2.6922 3.2422-21.056 16.463-41.284 34.068-59.666 53.524-4.2238 4.4722-8.4689 9.146-12.446 13.796-5.9224 6.9218-11.908 14.427-16.466 22.314-22.309 38.615-26.199 63.123-26.085 96.444 0.029148 8.2791 1.3673 17.006 1.7568 25.28 0.32858 7.0066 1.7754 13.883 2.6154 20.858 1.8151 15.063 8.3019 17.12 17.325 17.261 4.9923 0.07953 10.014-2.7146 14.64-3.5179 2.6127-0.45332 7.454-3.1706 10.793-3.8599 17.881-3.6928 59.714-10.275 86.491-30.831 17.995-13.814 33.722-29.055 50.066-44.821 12.677-12.226 23.772-25.5 34.26-39.638 8.2065-11.06 17.288-22.184 24.837-33.654 6.6299-10.074 13.949-20.034 19.304-30.868 0.76845-1.5535 2.1146-2.9665 2.2391-4.6923 0.42927-5.8905-0.60416-11.837-1.4839-17.751-1.4733-9.8856-4.1284-19.806-8.1164-29.06-0.39748-0.9199-0.86914-1.983-1.2772-2.8604-0.7393-1.5853-1.4336-2.9956-2.255-4.5544-1.8469-3.494-3.8582-6.7919-6.1317-10.058-2.2577-3.2395-4.5948-6.1821-7.234-9.1301-4.6929-5.241-10.136-9.9996-15.809-13.981-12.091-8.4832-25.764-15.219-40.132-18.451-14.089-1.8928-32.27-1.4315-43.897 6.5983z" fill="#658cd3" stroke="#000" stroke-width=".75"/>
<path transform="matrix(1.4742 0 0 1.4735 -3.6915 -8.3975)" d="m206.35 25.876c-5.774 3.3959-9.9554 8.6025-13.808 14.127-5.1778 7.4202-6.1874 17.661-6.826 24.286-0.55116 0.86158-1.2772 1.5376-2.6922 3.2422-21.056 16.463-41.284 34.068-59.666 53.524-4.2238 4.4722-8.4689 9.146-12.446 13.796-5.9224 6.9218-11.908 14.427-16.466 22.314-22.309 38.615-26.199 63.123-26.085 96.444 0.029148 8.2791 1.3673 17.006 1.7568 25.28 0.32858 7.0066 1.7754 13.883 2.6154 20.858 1.8151 15.063 8.3019 17.12 17.325 17.261 4.9923 0.07953 10.014-2.7146 14.64-3.5179 2.6127-0.45332 7.454-3.1706 10.793-3.8599 17.881-3.6928 59.714-10.275 86.491-30.831 17.995-13.814 33.722-29.055 50.066-44.821 12.677-12.226 23.772-25.5 34.26-39.638 8.2065-11.06 17.288-22.184 24.837-33.654 6.6299-10.074 13.949-20.034 19.304-30.868 0.76845-1.5535 2.1146-2.9665 2.2391-4.6923 0.42927-5.8905-0.60416-11.837-1.4839-17.751-1.4733-9.8856-4.1284-19.806-8.1164-29.06-0.39748-0.9199-0.86914-1.983-1.2772-2.8604-0.7393-1.5853-1.4336-2.9956-2.255-4.5544-1.8469-3.494-3.8582-6.7919-6.1317-10.058-2.2577-3.2395-4.5948-6.1821-7.234-9.1301-4.6929-5.241-10.136-9.9996-15.809-13.981-12.091-8.4832-25.764-15.219-40.132-18.451-14.089-1.8928-32.27-1.4315-43.897 6.5983z" fill="#9bc2fb" stroke="#000" stroke-width=".35"/>
<path transform="matrix(1.4742 0 0 1.4735 -3.6915 -8.3975)" d="m235.89 21.001c-8.1535 0.23594-17.574 1.7576-24.879 5.5963-5.0665 2.6086-9.497 6.3969-12.929 10.941-2.7638 3.5338-5.3553 7.3247-6.6537 11.664-1.6614 5.013-2.1649 10.299-2.7797 15.514-0.47962 1.8875-2.4272 2.7862-3.6488 4.2098-2.6684 2.4893-5.3341 4.9468-8.1005 7.3168-24.023 19.358-46.857 40.367-66.657 64.08-5.5832 6.6991-10.803 13.745-14.956 21.433-8.6914 15.485-16.188 31.852-20.062 49.253-3.254 14.482-4.0198 29.397-3.8264 44.2 0.22524 7.1922 1.105 14.353 1.5899 21.502 0.22524 3.6902 0.52732 7.3751 1.0652 11.036 0.66511 4.7612 1.3779 9.5198 2.0801 14.276 0.59621 3.4755 1.6641 7.1604 4.4067 9.5595 2.6604 2.1447 6.2483 2.3435 9.5208 2.4124 4.6531-0.092785 8.8637-2.3488 13.345-3.3164 4.3961-0.98087 8.2807-3.5629 12.762-4.2496 16.326-3.1945 32.702-6.4976 48.444-11.977 11.824-4.1091 23.422-9.2573 33.6-16.627 10.578-7.8576 20.486-16.574 30.174-25.492 8.5033-7.8682 16.84-15.917 25.12-24.018 12.372-12.348 23.268-26.067 33.658-40.094 8.127-10.734 16.461-21.333 23.793-32.637 6.0337-9.0346 19.026-31.809 19.026-31.809 0.73665-0.2651 0.62536-13.828-0.78965-19.702-2.6472-10.978-5.827-21.712-11.037-31.74-6.8816-13.276-17.086-24.811-29.458-33.217-9.4917-6.4976-19.823-11.879-30.818-15.328-3.7707-1.1797-7.6262-2.1579-11.58-2.4257-3.4633-0.28631-6.9399-0.39765-10.411-0.36054z" fill="#9bc2fb" stroke="#000" stroke-width=".35"/>
<path transform="matrix(1.4742 0 0 1.4735 -3.6915 -8.3975)" d="m235.69 23.941c-7.6739 0.24389-17.619 1.7258-24.424 5.4982-6.3543 3.433-11.19 9.1195-14.773 15.294-4.2318 6.5692-4.7326 14.88-5.1327 21.521-6.7809 7.847-19.28 16.187-25.998 23.109-19.813 16.847-37.212 36.144-53.672 56.313-4.9499 6.0549-9.4149 12.518-13.114 19.413-7.6156 13.756-14.285 28.172-18.143 43.463-3.7787 14.981-4.7273 30.518-4.5233 45.918 0.090095 5.8481 0.787 11.67 1.2004 17.483 0.48757 6.0973 0.90094 12.205 1.8231 18.257 0.62536 4.1462 1.1898 8.3056 1.9132 12.433 0.44517 2.1473 1.1951 4.4882 3.0844 5.7818 2.157 1.1293 4.6902 1.079 7.0565 0.97557 3.9615-0.49309 7.5918-2.3117 11.479-3.1308 4.6531-1.2751 8.9246-3.7989 13.75-4.4616 19.119-3.7035 38.338-7.7356 56.402-15.204 9.542-3.8837 18.689-8.8676 26.753-15.31 17.409-13.608 33.271-29.031 49.123-44.386 9.7779-9.541 18.652-19.962 26.999-30.765 6.3119-8.1836 12.489-16.471 18.737-24.702 5.4958-7.3009 10.721-14.798 15.719-22.446 5.0691-9.5807 17.362-27.441 17.362-27.441s1.4044-10.501 0.34448-16.031c-2.5783-13.425-9.2744-31.762-17.174-42.954-6.2298-8.8411-15.441-17.886-24.463-23.838-10.183-6.7282-22.677-10.699-34.583-13.594-5.1539-1.1903-10.485-1.1638-15.745-1.1983z" fill="#9bc2fb" stroke="#000" stroke-width=".35"/>
<path transform="matrix(1.4742 0 0 1.4735 -3.6915 -8.3975)" d="m228.92 26.088c-3.1215 0.6548-6.3304 1.3016-9.0439 2.317-5.607 2.0863-13.133 9.3925-16.614 14.204-2.0642 2.8525-3.9774 5.8746-5.1778 9.199-0.7976 2.2958-1.2825 4.8354-1.5872 7.1498-0.38422 2.8392-0.787 8.5521-0.787 8.5521s-1.4177 2.081-2.2047 3.0593c-7.7216 8.1624-17.205 14.36-25.248 22.176-5.1009 4.4935-10.191 9.0028-15.046 13.767-14.505 14.053-27.807 29.299-40.439 45.041-4.0701 5.2543-7.6766 10.861-10.825 16.712-4.767 8.7801-9.2506 17.929-12.754 27.364-2.0589 5.5459-3.8396 11.344-5.1274 17.104-2.0881 9.3474-3.1162 18.902-3.4978 28.461-0.14839 3.95-0.20404 8.0538-0.16164 12.065 0.034448 6.0894 0.7287 12.028 1.1633 18.101 0.60416 8.0829 1.37 16.208 2.7161 24.233 0.42927 2.5874 0.74195 5.2066 1.3753 7.7515 0.20139 0.73698 0.75255 1.4581 1.5793 1.4501 3.6965 0.65215 7.2738-0.88809 10.734-1.9591 2.414-0.73963 4.7564-1.2725 7.1068-2.2295 3.7866-1.4581 7.6077-2.9665 11.657-3.5073 5.9197-1.1452 11.813-2.3223 17.643-3.6266 7.9283-1.7841 15.78-3.7936 23.549-6.2961 13.122-4.2602 26.143-9.8008 37.185-18.289 15.406-11.924 29.636-25.269 43.614-38.816 5.8482-5.6493 11.739-11.272 17.144-17.356 9.0624-10.021 17.256-20.781 25.372-31.568 8.1694-10.763 16.334-21.489 23.729-32.796 6.9002-10.286 20.163-28.583 20.163-28.583s1.7966-6.0284 0.24908-15.625c-0.50612-3.1414-2.4961-13.984-4.4279-17.001-0.60416-1.7576-1.5157-3.7035-2.255-5.5008-1.4866-3.6345-3.1745-7.9663-5.0983-11.421-5.8349-10.442-14.495-20.23-23.846-27.653-5.713-4.3556-10.581-6.654-17.295-9.6178-7.393-3.266-15.401-6.092-22.881-6.8475-7.3771-0.74758-18.581-0.45067-20.663-0.013255z" fill="#9bc2fb" stroke="#000" stroke-width=".35"/>
<path transform="matrix(1.4742 0 0 1.4735 -3.6915 -8.3975)" d="m230.95 27.583c-4.1125 0.2757-7.9654 0.7794-14.153 4.8063-4.4835 2.9161-9.3248 9.1751-12.253 13.589-2.1729 3.2793-4.0145 6.8847-4.6558 10.805-0.74725 3.8784-1.362 11.752-1.362 11.752s-3.0288 4.1409-4.767 5.9992c-7.8223 7.6932-16.861 13.944-24.744 21.539-10.276 8.9524-20.012 18.552-29.228 28.541-8.8822 9.6815-17.46 19.655-25.51 30.041-2.785 3.5046-5.2361 7.3963-7.4911 11.174-4.2848 7.33-8.0157 14.976-11.49 22.719-3.7098 8.5415-6.6988 17.412-8.6597 26.521-0.20669 1.0684-0.49817 2.3833-0.69426 3.5576-1.0228 5.6838-1.6376 11.436-2.0669 17.192-0.16429 2.3833-0.30208 4.9892-0.37098 7.3857-0.17489 5.7527-0.10599 11.468 0.23584 17.181 0.48492 7.0729 1.0811 14.098 1.7409 21.163 0.7128 6.9085 1.733 13.777 2.9307 20.58 3.193-0.36849 6.2722-1.3175 9.3089-2.3329 3.1189-0.91725 6.2271-1.8716 9.232-3.1176 4.1496-1.5773 8.506-2.4999 12.868-3.2687 6.8286-1.3255 13.649-2.7544 20.337-4.3901 2.7426-0.67336 5.6388-1.4209 8.3629-2.1871 3.299-0.91725 6.5981-1.9114 9.7858-2.9718 1.4548-0.46393 2.9784-1.01 4.3961-1.5031 10.748-3.8334 21.217-8.7616 30.343-15.683 0.6969-0.5408 1.6217-1.2566 2.3954-1.8769 17.852-14.101 34.143-29.97 50.373-45.862 5.1539-5.1429 10.043-10.612 14.672-16.15 8.8743-10.631 17.07-21.749 25.412-32.785 8.0661-10.758 15.819-21.712 22.94-33.108 3.4527-5.4346 13.379-19.617 13.379-19.617 4.1523-9.0187-1.0202-29.392-8.5802-44.017-4.0145-7.6959-9.3857-15.082-15.496-21.245-6.9903-7.0517-16.606-13.756-25.751-17.672-6.9293-2.9691-12.091-4.8805-19.484-6.3465-1.6217-0.32077-6.5318-0.9358-9.0916-0.98882-1.6985-0.037114-7.1572 0.19617-12.865 0.57792z" fill="#9bc2fb" stroke="#000" stroke-width=".35"/>
<path transform="matrix(1.4742 0 0 1.4735 -3.6915 -8.3975)" d="m239 28.967c-6.0072 0.021208-12.603 1.4395-18.101 4.0295-5.3845 2.5715-12.799 12.346-15.565 17.555-1.3117 2.4151-2.2974 5.0157-2.6604 7.7489-0.61476 3.7538-1.3832 11.317-1.3832 11.317s-3.8582 5.3921-6.1529 7.7383c-7.9972 7.6985-17.097 14.138-25.105 21.826-18.345 16.139-34.89 34.232-50.185 53.261-3.8052 4.679-7.3851 9.5542-10.382 14.793-1.8734 3.1759-3.6859 6.5162-5.3633 9.822-3.8582 7.7144-7.5626 15.535-10.34 23.713-2.3742 6.9244-4.2 14.045-5.3527 21.28-0.20139 1.3202-0.42397 2.8657-0.59621 4.2761-0.14309 1.246-0.29943 2.6934-0.44252 4.0295-0.45312 4.4563-0.7499 9.0691-0.8718 13.547-0.19344 6.8634-0.00265 13.658 0.54587 20.487 0.85854 11.161 1.7648 22.385 3.6939 33.45-0.095394 0.89869 0.42662 0.85362 1.105 0.57262 3.4501-0.90664 6.8207-2.0386 10.212-3.1229 3.9244-1.3971 7.9495-3.046 12.128-3.8042 6.3861-1.36 12.804-2.4654 19.166-3.9579 11.776-2.6537 23.438-5.8773 34.662-10.41 8.9564-3.6319 17.568-8.2605 25.131-14.318 14.76-11.686 28.547-24.54 42.024-37.671 4.8571-4.7745 9.8203-9.4482 14.426-14.472 8.339-9.0373 16.077-18.899 23.528-28.708 8.7418-11.564 17.555-23.085 25.656-35.115 4.2742-6.3094 8.3549-12.751 12.354-19.238 2.0351-3.4834 9.0174-11.293 9.0174-11.293 2.4272-6.6461 1.6932-15.015-0.74195-25.076-1.521-4.3238-3.2619-8.7165-5.1327-12.91-4.4146-9.8962-10.432-19.23-18.233-26.762-0.62006-0.59913-2.1596-1.6728-2.8857-2.3249-4.5074-4.0746-9.6878-7.5819-15.04-10.464-1.2719-0.68396-3.4077-1.5694-4.7458-2.1606-4.73-2.0837-9.6215-4.1303-14.548-5.53-4.2079-1.1956-9.542-2.0254-13.935-2.1791-1.5978-0.055671-4.2848 0.063624-5.8853 0.071577z" fill="#9bc2fb" stroke="#000" stroke-width=".35"/>
<path transform="matrix(1.4742 0 0 1.4735 -3.6915 -8.3975)" d="m243.33 30.446c-6.2483-0.023859-15.112 1.8955-20.69 4.9627-5.6786 3.4118-15.184 14.83-17.004 21.158-1.2269 4.7692-1.2375 14.204-1.2375 14.204s-6.0284 6.6408-8.8107 9.3978c-8.1827 7.5872-16.593 14.575-24.707 22.239-7.6156 6.8794-15.048 13.971-22.1 21.436-9.9157 10.381-19.278 21.277-28.218 32.53-4.9711 6.1477-9.0677 12.945-12.685 19.959-5.721 11.057-10.946 22.478-14.039 34.58-1.529 5.7527-2.5942 11.651-3.2646 17.621-0.54852 4.8116-0.87444 9.753-1.044 14.557-0.18814 6.2829-0.076845 12.51 0.33653 18.759 0.51672 7.3539 1.1474 14.718 1.9556 22.072 0.41337 3.6239 0.88504 7.3406 1.4548 10.983 3.8476-1.1373 7.6156-2.4283 11.463-3.7618 3.4421-1.3069 7.0062-2.264 10.618-2.9797 5.2599-1.0286 10.522-2.0545 15.753-3.221 5.8747-1.299 11.824-2.7597 17.648-4.4298 1.1898-0.36319 2.5412-0.73963 3.7416-1.1187 8.7391-2.7305 17.391-5.8985 25.468-10.246 6.2934-3.3827 12.171-7.5076 17.582-12.168 16.05-13.093 30.937-27.483 45.67-42.003 13.217-13.109 24.378-28.066 35.571-42.885 7.5573-9.9572 14.889-20.004 21.803-30.407 6.5742-9.8538 19.434-26.688 19.434-26.688s2.202-5.8958 1.9397-7.7012c-0.39748-13.289-1.7754-16.487-5.2838-24.365-1.9052-4.9123-4.2159-10.177-6.9903-14.578-6.8445-10.821-16.193-20.675-27.381-26.966-6.9399-3.8519-16.22-7.5421-23.87-9.5834-4.2795-1.1161-8.6914-1.4846-13.114-1.3573z" fill="#9bc2fb" stroke="#000" stroke-width=".35"/>
<path transform="matrix(1.4742 0 0 1.4735 -3.6915 -8.3975)" d="m243.29 32.14c-6.8101 0.12725-14.709 1.9883-20.576 5.5565-4.3113 2.9744-7.7879 8.0325-11.013 12.118-2.3345 3.0301-4.3113 6.4923-4.7803 10.35-0.61476 3.7035-0.7764 7.4679-1.0944 11.2-1.0732 1.3679-2.3531 2.5821-3.5057 3.8917-3.1904 3.4887-6.4947 6.8794-10.075 9.9757-7.9521 7.102-15.976 14.125-23.769 21.404-17.59 16.123-33.608 33.917-48.288 52.715-6.8631 8.8968-11.832 19.05-16.601 29.172-4.8147 10.429-8.5537 21.404-10.454 32.753-1.6535 9.7159-2.2232 19.594-2.1729 29.442 0.11924 10.437 1.1341 20.837 2.1755 31.216 0.36833 3.6955 0.8718 7.3751 1.3488 11.057 5.6839-1.7417 11.166-3.9871 16.93-5.469 6.561-1.5349 13.207-2.6033 19.802-4.1462 14.359-3.221 28.658-7.1948 42.005-13.494 7.5944-3.6451 14.675-8.3295 21.077-13.801 13.313-10.933 25.942-22.669 38.248-34.718 6.2218-6.0655 12.446-12.144 18.133-18.721 10.607-12.115 20.107-25.134 29.797-37.978 9.8786-13.258 19.362-26.844 27.715-41.122 1.8257-3.2501 7.5441-9.5224 7.5441-9.5224 4.4358-14.315 0.18019-25.736-5.8376-38.164-4.624-9.0929-11.007-17.396-18.419-24.41-5.9621-5.591-13.119-10.18-20.753-13.101-5.9833-2.4045-12.764-4.7267-19.134-5.7871-2.4007-0.33138-5.88-0.47453-8.3019-0.41621z" fill="#9bc2fb" stroke="#000" stroke-width=".35"/>
<path transform="matrix(1.4742 0 0 1.4735 -3.6915 -8.3975)" d="m243.24 33.736c-1.0917 0.034464-3.9191 0.36584-5.0347 0.46128-5.9436 0.50899-11.013 2.5794-15.912 6.1-4.7061 3.669-8.4901 8.8888-11.728 13.875-1.672 2.8869-2.3557 6.2166-2.5783 9.5145-0.28883 2.7491-0.47167 5.5088-0.69691 8.2632-4.6955 5.469-9.7408 10.638-15.152 15.402-13.79 12.232-27.617 24.458-40.397 37.758-8.4556 8.8278-16.532 18.019-24.243 27.502-3.0129 3.7644-6.0814 7.4891-8.8451 11.442-3.9694 5.7686-7.3268 11.951-10.382 18.191-3.2142 6.6646-6.4046 13.366-8.7603 20.394-0.78965 2.2746-1.5078 4.573-2.1384 6.8237-2.0324 7.102-3.3414 14.437-4.041 21.751-0.81615 8.0856-0.99369 16.227-0.72605 24.347 0.14309 4.0507 0.38688 8.2473 0.73135 12.346 0.56971 6.6275 1.1977 13.34 2.0139 19.962 0.12984 1.071 0.25438 2.1208 0.39482 3.168 6.5742-2.2136 13.09-4.7188 19.932-5.9886 7.605-1.4713 15.26-3.0752 22.738-4.907 9.3725-2.3143 18.647-5.0979 27.595-8.7404 2.149-0.88278 4.4305-1.8584 6.5106-2.8578 7.4831-3.547 14.394-8.2128 20.74-13.515 15.886-13.168 30.908-27.297 45.463-41.902 7.5255-7.3777 14.378-15.405 20.942-23.639 7.0592-8.8835 13.792-18.003 20.605-27.099 6.1529-8.2711 12.139-16.675 17.775-25.312 4.4411-6.8926 16.029-24.135 16.029-24.135 4.5021-12.91-0.076845-24.522-5.3368-35.55-1.7197-3.5576-3.2646-6.6037-5.4852-9.9439-4.6584-7.0729-10.363-13.38-16.946-18.727-3.042-2.4177-6.5186-4.618-9.9501-6.4366-0.7128-0.36319-2.361-1.2486-3.1877-1.6383-1.8522-0.88278-4.0092-1.633-5.8296-2.317-7.5759-2.7597-15.939-4.8036-24.1-4.5942z" fill="#9bc2fb" stroke="#000" stroke-width=".35"/>
<path transform="matrix(1.4742 0 0 1.4735 -3.6915 -8.3975)" d="m239.32 35.934c-5.3871 0.56997-11.543 3.0089-15.862 6.4022-4.0913 3.3774-8.127 7.4864-10.97 11.948-1.8761 3.0725-1.4124 8.2605-1.7038 11.696-0.21199 2.3965-0.39748 4.7957-0.58561 7.1948-5.7024 6.7044-11.956 12.932-18.618 18.682-15.74 13.944-31.419 28.04-45.479 43.71-8.1509 8.9896-15.971 18.284-23.353 27.915-4.4782 6.1053-8.1827 12.746-11.487 19.506-3.5375 7.2081-6.9399 14.467-9.4281 22.139-3.0473 9.1142-4.8889 18.605-5.6892 28.175-0.29148 3.3429-0.49022 6.8528-0.58296 10.22-0.29943 10.185 0.34713 20.373 1.3302 30.444 0.41337 4.3503 0.84265 8.6979 1.3753 13.035 6.1821-2.1579 12.433-4.2177 18.907-5.3047 12.033-2.3726 23.939-4.9839 35.656-8.7218 8.0449-2.5927 15.984-5.6413 23.401-9.7239 6.9558-3.8678 13.241-8.804 19.246-13.997 15.356-13.008 29.94-26.934 44.075-41.213 8.5775-8.804 16.265-18.369 23.697-28.032 6.0549-7.9185 12.788-16.097 18.703-24.119 12.534-14.702 26.729-38.41 30.012-44.145 0 0 2.2577-9.2388 1.4415-13.221-0.23848-4.9865-1.3329-8.9975-2.9996-12.778-3.2195-7.9875-7.5467-17.03-12.942-23.764-5.1804-6.4605-11.333-12.55-18.559-16.688-4.3431-2.5715-10.218-4.9335-14.958-6.5162-6.1582-0.97027-12.356-3.8068-18.326-3.1626-1.9768 0.21208-4.5657 0.1352-6.2987 0.31812z" fill="#9bc2fb" stroke="#000" stroke-width=".35"/>
<path transform="matrix(1.4742 0 0 1.4735 -3.6915 -8.3975)" d="m243.72 37.331c-6.0814 0.20678-13.864 2.4628-18.899 6.0814-4.4199 3.5126-7.9654 9.0373-10.798 13.912-1.7356 3.6372-1.5343 7.7621-1.9847 11.672l-0.38158 4.7851c-6.5769 7.8125-13.983 14.883-21.715 21.539-14.81 13.157-29.498 26.521-42.744 41.279-7.8647 8.7059-15.464 17.664-22.606 26.974-6.7624 8.8809-11.596 19.018-16.254 29.105-5.872 12.767-9.55 26.547-10.668 40.558-1.1712 12.799-0.67306 25.688 0.51937 38.466 0.40012 4.4245 0.8718 8.8411 1.3329 13.26 4.0675-1.3838 8.3311-2.7305 12.407-3.7114 4.1894-0.99943 8.4477-1.6595 12.65-2.598 15.541-3.2766 31.067-7.2664 45.529-13.958 7.038-3.2978 13.575-7.6057 19.561-12.555 6.6166-5.408 13.011-11.079 19.357-16.799 10.594-9.655 20.899-19.633 30.913-29.89 12.658-13.274 23.47-28.132 34.48-42.761 11.529-15.458 35.354-51.851 35.354-51.851 4.9658-10.792 0-25.285-6.3993-37.082-5.093-9.1062-10.769-16.805-19.042-23.207-6.4285-4.8646-15.756-8.857-23.422-11.211-5.554-1.4262-12.229-2.089-17.189-2.0095z" fill="#9bc2fb" stroke="#000" stroke-width=".35"/>
<path transform="matrix(1.4742 0 0 1.4735 -3.6915 -8.3975)" d="m244.07 38.786c-5.4666 0.20678-12.335 2.2321-16.877 5.4796-4.1152 3.3217-8.6729 9.4561-11.214 14.101-1.3594 3.3694-0.98309 11.293-0.98309 11.293l-0.41337 5.2092c-7.8541 7.847-17.256 17.21-24.98 24.776-14.669 13.056-29.138 26.417-42.143 41.165-6.8604 7.672-13.506 15.564-19.781 23.676-7.3612 9.4243-12.438 20.341-17.383 31.157-2.9493 6.6805-5.2811 13.655-6.9399 20.718-1.5237 6.4578-2.4908 13.138-2.9095 19.811-0.24114 3.1812-0.36038 6.3067-0.41867 9.4588-0.10334 6.2961 0.14309 12.611 0.57766 18.827 0.38952 5.5035 0.94069 10.994 1.5131 16.481 5.4295-1.7868 10.989-3.1467 16.609-4.1621 9.9369-1.975 19.754-4.1753 29.461-7.0888 7.7216-2.3408 15.462-5.1376 22.746-8.7324 7.5043-3.7406 14.251-8.804 20.587-14.257 15.825-13.393 30.855-27.637 45.368-42.432 11.484-11.845 21.342-25.031 31.263-38.23 12.958-17.229 39.822-56.225 39.822-56.225 1.2719-2.2348 3.6992-10.554-0.050347-21.078-2.0775-6.1371-4.4305-12.097-7.825-17.552-5.0983-8.0352-12.587-17.059-20.467-22.454-6.5742-4.3476-14.669-6.9403-22.24-9.0055-3.7734-1.0233-9.4016-1.0074-13.321-0.9358z" fill="#9bc2fb" stroke="#000" stroke-width=".35"/>
<path transform="matrix(1.4742 0 0 1.4735 -3.6915 -8.3975)" d="m243.08 40.353c-5.2864 0.21208-10.846 2.3992-15.144 5.7023-3.8396 3.2316-7.9495 9.5595-10.181 14.082-1.0944 3.3668-0.88504 6.9536-1.3196 10.429-0.13249 1.6277-0.39482 4.8778-0.39482 4.8778s-20.067 20.49-30.725 30.06c-12.96 11.654-25.629 23.681-37.151 36.78-7.3639 8.2844-14.532 16.76-21.175 25.638-6.6908 9.3554-11.511 19.856-16.169 30.322-5.3951 12.767-8.3629 26.513-9.0253 40.343-0.75255 13.115 2.4776 27.308 1.5104 39.24 0.050346 0.61238-0.050347 1.4474 0.77905 0.90664 8.6385-2.651 17.611-3.897 26.384-5.986 13.845-3.168 27.635-7.1073 40.397-13.443 8.8478-4.4935 16.506-10.904 23.936-17.396 14.813-12.807 29.005-26.322 42.625-40.391 12.83-13.573 23.753-28.766 34.962-43.665 10.946-14.745 33.86-49.494 33.86-49.494 4.775-9.6841-1.5819-27.507-8.4742-37.907-5.7342-8.3878-13.758-17.995-22.81-22.785-6.2218-3.3005-13.798-6.6275-22.354-7.2028-2.6233-0.55406-6.8472-0.17497-9.5314-0.11134z" fill="#9bc2fb" stroke="#000" stroke-width=".35"/>
<path transform="matrix(1.4742 0 0 1.4735 -3.6915 -8.3975)" d="m245.92 41.514c-4.9552 0.20678-11.784 1.6781-15.806 4.7904-3.5985 3.0593-7.9415 9.8856-10.011 14.164-0.99899 3.3721-1.0599 8.0829-1.5025 11.545-0.12719 1.5667-0.26498 4.0693-0.26498 4.0693s-23.507 23.265-35.272 34.047c-11.988 10.874-23.666 22.189-34.331 34.41-5.0983 5.75-10.088 11.627-14.842 17.605-3.103 3.9341-6.2139 7.8814-8.7895 12.189-4.9048 7.9981-8.8054 16.556-12.563 25.137-0.8559 2.0519-1.6323 4.2018-2.3213 6.1609-0.55646 1.6516-1.0202 3.1176-1.5184 4.7851-0.33918 1.1823-0.7552 2.6457-1.0785 3.95-2.1808 8.4488-3.3017 17.149-3.6409 25.863-0.45312 9.9837 1.4839 19.602 2.369 29.519 0.17754 1.9909-1.0228 4.3052-0.8294 6.2935 9.0359-2.6324 18.39-3.9155 27.516-6.1848 13.117-3.1017 26.17-6.9615 38.221-13.096 10.035-5.2782 18.453-13.001 26.943-20.394 13.3-11.733 26.119-24.013 38.417-36.793 12.452-13.271 35.759-43.548 35.759-43.548l32.272-48.858s2.8512-6.9483 1.2242-13.419c-2.2126-8.8172-4.8545-16.386-10.083-23.795-5.766-8.0219-13.103-17.285-22.134-21.513-6.0469-2.8816-8.3311-4.2602-14.916-5.5008-1.9715-0.33403-10.822-1.4687-12.82-1.4262z" fill="#9bc2fb" stroke="#000" stroke-width=".35"/>
<path transform="matrix(1.4742 0 0 1.4735 -3.6915 -8.3975)" d="m243.48 43.02c-4.4411 0.20413-9.2744 1.9697-12.852 4.8381-3.1506 2.7544-6.9664 10.368-8.7391 14.199-0.8294 3.4543-0.64921 7.0411-1.1076 10.548-0.12189 1.5243-0.36833 4.5756-0.36833 4.5756s-22.468 22.929-34.31 33.673c-13.353 12.062-26.281 24.638-37.999 38.315-6.3861 7.3274-12.671 14.819-18.395 22.719-4.5392 6.601-8.1827 13.772-11.559 21.07-1.8787 4.117-3.8635 8.3666-5.3792 12.701-2.4855 6.8953-4.2212 14.048-5.3156 21.293-0.15104 1.1081-0.35243 2.4734-0.48492 3.6875-1.158 10.076 1.4998 26.02 2.5624 29.19 2.565 7.6481 7.6845 7.8099 19.837 4.7665 10.446-2.4257 21.061-1.4978 30.974-5.5088 5.3924-2.2003 10.631-4.6472 15.488-7.9159 4.9499-3.274 9.5208-7.0676 13.988-10.901 15.785-13.613 30.974-27.928 45.392-42.989 12.73-13.7 23.602-28.899 34.816-43.818 12.073-16.72 32.858-47.222 32.858-47.222 1.4707-2.7067 1.6164-6.6964 1.1818-13.385-0.29413-4.565-7.1068-20.773-12.531-26.237-5.464-7.1259-12.038-14.122-20.319-17.78-5.8296-2.6457-12.258-4.5809-18.583-5.6148-1.5316-0.24124-3.6038-0.34728-5.1539-0.29956z" fill="#9bc2fb" stroke="#000" stroke-width=".35"/>
<path transform="matrix(1.4742 0 0 1.4735 -3.6915 -8.3975)" d="m231.96 48.857c-2.3425 1.869-4.0198 5.7845-5.7342 8.2155-1.1553 1.7576-2.1517 3.73-2.9519 5.6758-0.7128 3.3297-0.56176 6.6487-0.99899 10.018-0.029148 0.41091-0.095394 1.1983-0.14044 1.7523-0.12454 1.0975-0.32328 3.3164-0.32328 3.3164s-22.913 23.427-34.999 34.399c-13.625 12.314-26.779 25.198-38.685 39.2-6.1185 7.0702-12.131 14.254-17.563 21.871-5.7978 8.5999-10.138 18.067-14.296 27.536-1.1659 2.7173-2.1649 5.4399-3.0632 8.181-2.2206 6.7813-3.7469 13.833-4.6372 20.879-0.48757 3.7194-0.44252 7.6588-0.21464 11.46 0.40012 5.819 1.0838 11.641 2.4113 17.327 0.65716 2.3673 1.8999 4.9812 4.412 5.7951 2.9069 0.90134 5.9992 0.28631 8.922-0.22799 3.5481-0.72903 7.0459-1.7311 10.652-2.1659 8.1535-1.1876 16.609-1.1717 24.4-4.1488 3.7495-1.4978 7.3241-3.0831 10.896-5.0237 8.3682-4.5968 15.555-10.97 22.722-17.197 14.036-12.29 27.59-25.15 40.532-38.615 11.312-11.988 21.132-25.285 30.977-38.453 9.7991-13.064 19.421-26.25 27.73-40.33 2.4272-4.0534 9.3513-12.685 9.3513-12.685s2.2126-7.0252 1.8204-10.355c-0.8347-7.0782-4.9631-16.335-8.6544-22.51-2.9837-5.0316-6.659-8.7616-10.626-13.046-3.8873-4.1303-8.8319-8.2102-14.118-10.36-5.8296-2.5317-12.242-4.2284-18.562-5.0263-4.2079-0.83772-15.867 0.76084-19.259 4.5147z" fill="#9bc2fb" stroke="#000" stroke-width=".35"/>
<path transform="matrix(1.4742 0 0 1.4735 -3.6915 -8.3975)" d="m246.47 45.446c-4.3245 0.2545-10.827 2.3117-14.203 5.2145-2.9758 2.8578-5.146 8.0935-7.1651 11.664-0.92214 2.1394-0.76845 4.5306-1.0069 6.8025-0.24114 2.8233-0.75785 8.6979-0.75785 8.6979l-1.7913 2.765s-3.943 4.6711-6.0019 6.8767c-9.709 10.376-20.698 19.358-31.125 28.981-13.355 12.224-26.13 25.116-37.755 39.01-5.6415 6.6408-11.254 13.348-16.095 20.606-5.2228 8.1677-9.2877 17.004-13.106 25.895-3.7495 8.8438-6.1158 18.25-7.3427 27.769-0.8188 6.2855-0.30738 12.651 0.44252 18.915 0.48227 3.4649 0.89829 6.9668 1.884 10.331 0.52997 1.7947 1.6084 3.6637 3.5269 4.1992 3.6753 0.74493 7.3824-0.33138 10.965-1.0949 2.5094-0.57792 4.9446-1.079 7.5467-1.474 7.8859-1.1479 16.037-1.1452 23.613-3.8784 7.3824-2.7942 14.455-6.4897 20.7-11.338 6.7571-5.1562 13.066-10.866 19.415-16.51 12.497-11.232 24.638-22.87 36.141-35.121 11.688-12.767 21.821-26.828 32.193-40.658 11.042-14.864 32.932-48.304 32.932-48.304 2.3478-6.6196 2.7876-12.12-0.7234-19.938-3.6435-8.1121-9.1446-16.974-13.188-21.258-4.0754-4.7718-8.5192-9.3527-14.309-11.937-5.2467-2.3196-11.688-4.7373-17.351-5.7341-1.6641-0.26245-5.7501-0.50369-7.4381-0.47983z" fill="#9bc2fb" stroke="#000" stroke-width=".35"/>
<path transform="matrix(1.4742 0 0 1.4735 -3.6915 -8.3975)" d="m231.34 54.703c-4.3007 6.4313-4.9101 10.031-5.1274 17.581l-0.90624 6.6143s-20.446 23.276-30.046 31.809c-16.108 14.257-31.612 29.275-45.5 45.73-7.4195 8.8331-15.072 17.632-20.571 27.843-3.8105 7.0278-7.1095 14.321-10.117 21.722-3.0394 7.9663-5.0479 16.328-6.0443 24.795-0.8082 7.1153 0.047697 14.278 1.0652 21.325 0.39482 2.5317 0.7658 5.1482 1.8681 7.4732 0.63331 0.82446 1.7144 0.82976 2.6551 0.81121 3.6303-0.050369 7.0963-1.2831 10.647-1.9061 6.6988-1.474 13.586-1.6357 20.343-2.7358 4.0648-0.64419 8.0263-1.8637 11.749-3.6213 5.6415-2.4495 11.005-5.5486 15.859-9.3342 6.8578-5.2755 13.276-11.089 19.725-16.842 12.149-10.967 24.005-22.284 35.174-34.256 11.723-12.73 21.805-26.826 32.182-40.64 10.817-14.551 32.468-47.087 32.468-47.087s5.6627-7.5103 1.0175-18.045c-3.3467-8.5919-8.7762-17.52-15.194-24.068-3.4819-3.669-9.4043-8.1412-14.116-10.023-5.35-2.1314-12.462-4.5915-18.236-5.1005-5.2864-0.23594-13.178 1.6065-16.797 5.1138z" fill="#9bc2fb" stroke="#000" stroke-width=".35"/>
<path transform="matrix(1.4742 0 0 1.4735 -3.6915 -8.3975)" d="m243 48.584c-3.3679 0.26245-5.5832 2.3329-8.1668 4.7108-5.35 5.8746-5.5779 8.7377-6.4364 15.887-0.28353 3.2952-0.7234 9.8856-0.7234 9.8856-10.088 12.372-25.576 28.443-38.099 38.758 0 0-18.403 17.247-26.951 26.391-5.7236 6.0947-11.095 12.385-16.458 18.809-3.9165 4.7055-7.719 9.4561-11.153 14.49-4.4252 6.6593-7.9018 13.788-11.172 21.086-1.8363 4.1091-3.6356 8.1624-4.987 12.478-1.1394 3.4808-2.0775 7.0808-2.8194 10.593-1.15 5.583-2.0669 11.272-1.7966 16.993 0.18284 5.1562 0.8294 10.291 1.6694 15.368 0.17224 0.94906 0.42397 2.1553 0.72075 3.1812 0.21994 0.53815 0.26233 1.2778 0.72076 1.641 3.3971 0.30221 6.6882-0.82711 9.9793-1.4872 4.9949-1.1452 10.091-1.7232 15.186-2.2109 3.943-0.41621 7.9627-0.84832 11.834-1.9591 2.4935-0.72372 5.0479-1.7868 7.4778-2.9082 2.4246-1.1187 4.9843-2.362 7.3215-3.7909 6.3331-3.7777 11.975-8.6449 17.505-13.422 15.3-13.321 30.171-27.281 44.106-42.074 12.099-13.181 22.526-27.753 33.245-42.042 6.4576-8.7085 12.82-17.616 18.562-26.712 3.7177-5.9276 12.539-19.026 12.539-19.026s2.3001-3.433 2.5677-4.9494c0.33123-1.8716 0.36303-7.7409-0.60681-10.599-3.2937-9.7-7.0062-16.524-14.251-23.713-3.8661-4.4961-10.197-9.3209-15.793-11.458-1.7939-0.73168-5.1804-1.9193-6.8816-2.5052-3.9165-1.3229-8.869-1.869-13.101-1.9909z" fill="#9bc2fb" stroke="#000" stroke-width=".35"/>
<path transform="matrix(1.4742 0 0 1.4735 -3.6915 -8.3975)" d="m234.86 55.501c-4.2742 4.5995-4.2397 10.633-4.8916 16.521-0.26498 2.9506-0.24378 7.7383-0.24378 7.7383s-3.5773 4.6817-5.2891 6.8926c-11.304 13.289-23.957 25.055-36.666 36.905-13.244 12.224-25.852 25.163-37.333 39.065-6.0575 7.2134-12.128 14.517-16.718 22.783-1.2242 2.1844-2.4776 4.5624-3.6091 6.8741-2.3054 4.7082-4.4888 9.6284-6.5239 14.522-1.3938 3.5046-2.6074 7.2717-3.5375 10.935-1.1686 4.6207-2.1119 9.313-2.6048 14.058-0.029148 0.49574-0.11659 1.3414-0.14839 1.975-0.14309 2.2905-0.12454 4.6393 0.047697 6.8237 0.18284 2.9426 0.49817 6.0019 0.89564 8.8464 0.34448 2.1394 0.60416 4.3529 1.1606 6.4234 3.3123-0.29956 6.4868-1.3838 9.754-1.9485 6.1662-1.2195 12.457-1.5667 18.676-2.4177 1.937-0.28896 4.0648-0.69986 6.0178-1.2778 4.0622-1.3149 7.9521-3.1255 11.715-5.1297 4.3616-2.3514 8.3602-5.3312 12.144-8.3719 6.5636-5.4001 12.889-11.084 19.198-16.776 11.315-10.312 22.335-20.967 32.755-32.191 11.092-12.261 20.841-25.731 30.754-39.004 8.6067-11.537 18.149-22.746 25.415-35.216 1.9423-3.3509 7.772-11.426 7.772-11.426s2.8009-4.5597 2.5597-6.7097c-0.18284-1.6489 0.29943-5.0475-0.35243-6.6408-0.20934-0.5143-1.0546-3.5789-1.2825-4.0932-3.1877-7.3035-6.4364-13.255-11.808-19.148-3.7204-4.2602-10.613-9.7504-16.013-11.611-2.6392-1.0339-6.2854-2.4018-8.9617-3.1043-2.5756-0.65215-6.447-1.6304-10.099-1.4634-1.5343 0.068926-7.3904 0.2704-12.783 6.1662z" fill="#9bc2fb" stroke="#000" stroke-width=".35"/>
<path transform="matrix(1.4742 0 0 1.4735 -3.6915 -8.3975)" d="m231.83 72.38c-0.23584 2.773-0.24378 8.3056-0.24378 8.3056s-3.7098 5.1642-5.6309 7.611c-11.781 13.663-25.839 25.656-38.923 37.997-12.952 12.051-25.237 24.843-36.472 38.519-3.3944 4.056-6.7597 8.1412-9.8203 12.401-2.4405 3.3827-4.6902 6.9589-6.6272 10.588-2.8353 5.2225-5.3765 10.784-7.7534 16.298-0.95924 2.2295-1.8761 4.3874-2.6392 6.6461-0.86914 2.4972-1.5899 4.8938-2.2444 7.4679-0.8506 3.388-1.5766 6.8131-2.0987 10.267-0.15104 1.0949-0.33918 2.4416-0.45047 3.6372-0.56176 5.75 0.082145 11.524 0.8188 17.226 0.25968 1.6224 0.46372 3.2581 0.8082 4.8672 3.4925-0.58057 6.8869-1.6277 10.39-2.1473 6.1715-1.0631 12.452-1.3229 18.62-2.3806 4.8227-0.82711 9.3168-2.8949 13.663-5.0687 2.7744-1.3785 5.5779-3.1176 8.1562-4.9627 5.2334-3.7326 9.9766-7.953 14.823-12.158 14.871-13.122 29.365-26.712 42.824-41.289 4.6054-5.1191 8.967-10.442 13.178-15.811 6.8896-8.8305 13.543-17.918 20.21-26.871 10.244-13.56 29.713-42.35 29.713-42.35s2.732-5.416 2.4272-7.5448c-0.47432-3.3138-0.42397-6.4684-2.0377-9.3925-3.4262-6.4128-10.485-17.807-15.743-22.838-3.05-2.9188-8.2913-5.4955-12.274-6.9324-3.6409-1.3122-8.3364-2.6377-12.189-3.266-1.3806-0.22534-4.4994-0.44007-5.8879-0.23329-11.596 2.256-13.779 11.049-14.595 21.412z" fill="url(#e)" stroke="#000" stroke-width=".35"/>
<path transform="matrix(1.4742 0 0 1.4735 -3.6915 -8.3975)" d="m245.81 53.03c-7.8488 1.5641-11.153 8.1492-11.712 15.67-0.18814 3.1998-0.35508 6.6885-0.91949 9.8485-0.18549 0.93846-0.14309 3.0274-0.14309 3.0274s-5.5117 7.4202-8.6756 10.79c-11.824 13.088-23.933 26.794-36.698 38.896-10.53 9.9042-20.846 20.036-30.25 31.009-3.8131 4.512-8.3602 8.7828-12.028 13.475-1.7197 2.2136-3.2248 4.1806-4.7512 6.4552-1.3329 1.983-2.9413 4.9282-4.1284 7.0252-3.8131 6.8237-5.6335 12.37-8.6385 19.58-0.20139 0.5196-0.53792 1.3494-0.72605 1.8769-1.3435 3.6743-2.4325 7.4361-3.3043 11.251-2.0934 7.3883-0.90359 13.303-1.2295 19.328 1.9847 6.8926 7.4831 9.4588 12.242 8.7165 4.0622-0.5196 8.1456-0.85097 12.2-1.4209 1.5899-0.23064 3.3944-0.50899 5.0241-0.97027 4.5153-1.2751 8.7524-3.3668 12.868-5.5857 7.5308-4.3079 13.973-10.196 20.504-15.84 13.816-12.197 27.254-24.758 39.885-38.188 8.3973-8.9074 15.952-18.703 23.34-28.501 4.1894-5.5804 8.4106-11.285 12.531-16.823 7.1201-9.8829 14.052-19.647 20.504-29.972 1.7515-2.8816 8.3867-12.144 8.3867-12.144 5.297-7.5925 0.031798-18.382-4.4809-25.039-1.5846-2.5105-2.8062-5.0528-4.6611-7.2452-2.467-2.8127-5.2652-6.0363-8.2436-8.3242-2.9546-2.2613-6.2589-3.3535-9.7726-4.5173-1.5078-0.5408-4.0012-1.0684-5.5434-1.5164-0.41337-0.10074-3.0102-0.95701-3.5693-1.079-3.5375-0.56732-4.139-0.20943-8.0104 0.21738z" fill="url(#e)" stroke="#000" stroke-width=".35"/>
<path transform="matrix(1.4742 0 0 1.4735 -3.6915 -8.3975)" d="m249.36 55.047c-10.353 0.85627-12.817 9.2202-13.893 17.505-0.55912 4.3052-0.57766 6.2802-0.16694 9.4058 0 0-4.8598 5.5698-6.4921 7.5236-2.5067 3.1229-5.3659 6.1079-8.18 9.0558-12.849 13.34-23.928 28.111-37.122 41.133-10.112 9.9068-20.155 17.987-29.132 28.93-6.0655 7.277-12.237 14.84-16.424 23.387-3.4209 6.6646-5.5646 13.836-8.1668 20.863-2.1013 6.2299-2.0563 6.2458-2.8751 12.77 0.10864 10.092 3.8608 16.871 7.4619 18.04 4.3219 2.2454 9.1446 3.4622 14.375 3.1096 4.5127-0.75288 8.7391-2.6431 12.801-4.6817 8.1138-4.0613 14.95-10.129 21.729-16.062 14.272-12.481 28.128-25.463 41.131-39.272 10.711-11.452 20.014-24.108 29.379-36.658 4.0251-5.3709 8.0449-10.75 11.768-16.338 5.8402-10.434 22.447-33.57 22.447-33.57s3.5587-6.3041 2.6048-9.6682c-1.786-6.2935-5.2281-14.164-9.4069-19.132-2.4484-2.9108-5.8826-7.8735-8.9193-10.175-4.0516-3.0752-10.721-4.7612-15.523-6.214-2.5279-0.76614-4.7538-0.17232-7.3957 0.047719z" fill="url(#e)" stroke="#000" stroke-width=".35"/>
<path transform="matrix(1.4742 0 0 1.4735 -3.6915 -8.3975)" d="m249.15 57.274c-14.685 1.8637-11.572 25.635-11.572 25.638 0 0-3.5375 3.0566-4.6425 4.74-5.4878 7.2982-11.042 15.898-17.529 22.295-12.34 11.951-22.161 24.532-34.185 36.804-10.663 10.819-21.994 20.1-30.833 32.456-11.861 16.582-18.62 35.025-19.301 44.887-0.99369 14.36 11.824 17.539 24.251 16.041 17.722-2.1367 21.599-10.596 33.799-21.46 12.205-10.869 23.035-21.394 34.162-33.315 4.1337-4.4245 8.1986-9.2467 11.964-13.931 7.4831-9.3501 14.646-19.063 21.816-28.652 6.6696-9.0479 13.482-19.291 19.468-28.795 2.4537-3.9686 9.762-14.917 9.762-14.917s2.3848-5.6625 1.7197-9.4773c-1.3302-7.6163-7.1254-17.976-12.515-23.498-2.369-2.4124-5.9356-5.3974-9.0863-6.6832-1.2375-0.55141-4.5498-1.7815-5.8747-2.2215-4.5763-1.5137-9.8388-0.10604-11.402 0.090134z" fill="url(#e)" stroke="#000" stroke-width=".35"/>
<path transform="matrix(1.4742 0 0 1.4735 -3.6915 -8.3975)" d="m239.57 83.824s-4.5418 3.502-5.9807 5.6122c-6.2828 8.0988-11.082 18.679-18.43 25.789-11.916 11.336-21.135 23.954-32.59 35.749-10.12 10.403-21.67 20.893-30.982 32.66-4.0595 5.1297-7.7932 10.585-10.753 16.42-2.3848 4.7002-4.4676 9.6444-5.5567 14.801-1.0016 4.7373-1.3965 9.6947-0.83205 14.504 0.68366 5.8402 9.9263 7.961 16.927 8.6449 6.251 0.61238 12.764-1.3573 18.377-4.1806 6.8684-3.4543 11.855-9.8008 17.518-15.002 12.868-11.818 25.839-24.201 37.349-36.777 10.766-12.627 32.413-41.093 47.064-62.776 8.4768-12.547 12.886-20.802 12.886-20.802s3.5534-4.7294 1.5051-12.02c-2.0033-4.4775-4.9605-12.245-8.1933-15.911-0.71546-0.80591-3.5799-3.6796-4.3802-4.5438-2.5809-2.7862-5.5328-4.1197-8.4662-5.1827-3.5455-1.2884-8.0581-2.1897-13.284-1.519-6.5186 0.83772-12.603 7.1471-12.179 24.535z" fill="url(#e)" stroke="#000" stroke-width=".35"/>
<path transform="matrix(1.4742 0 0 1.4735 -3.6915 -8.3975)" d="m242.99 69.848c-0.84265 1.9193-1.3832 3.775-1.831 6.2272-0.65716 3.5868-0.17754 8.181-0.17754 8.181s-3.9562 3.8784-5.66 6.259c-7.0724 8.8888-12.47 21.102-20.671 28.925-12.78 11.996-23.742 26.666-35.661 39.542-8.3152 8.8729-14.715 13.35-22.704 22.52-18.183 20.874-22.518 45.971-18.732 49.12 14.338 11.922 31.252 2.8578 43.11-7.5501 15.274-13.406 29.575-27.663 43.078-42.872 10.689-12.038 30.913-38.376 30.913-38.376l29.111-44.643s1.8019-3.9076 1.1315-8.1545c-1.0414-6.609-8.7789-20.41-16.294-25.365-12.285-6.3836-22.118-1.7894-25.613 6.1848z" fill="url(#e)" stroke="#000" stroke-width=".35"/>
<path transform="matrix(1.4742 0 0 1.4735 -3.6915 -8.3975)" d="m243.66 70.495c-3.6753 8.5097-1.1394 14.048-1.1394 14.048s-3.7548 6.3677-7.6607 11.511c-5.6892 8.9736-15.152 21.388-22.253 31.231-10.737 14.883-22.998 24.169-34.649 37.042-8.0767 8.2446-17.314 15.431-23.909 24.087-5.2016 6.8316-10.236 15.036-11.85 20.818-2.679 9.6019-5.9356 24.805 9.5553 24.294 5.7263-0.18822 13.27-1.6224 17.478-4.4722 6.0681-4.1144 8.2834-4.9388 13.766-9.7212 24.93-20.675 51.995-53.654 73.021-80.978 4.7458-7.68 13.737-21.118 20.263-31.616 1.9211-3.0964 5.8111-9.3103 5.8111-9.3103 0.65716-3.6398 2.157-12.274-5.6415-24.281-5.2122-8.0219-11.124-11.725-19.558-11.426-7.4699 0.2651-11.588 4.9574-13.233 8.7722z" fill="url(#t)" stroke="#000" stroke-width=".35"/>
<path d="m247.51 253.66 15.219-13.32c0.75391-2.293-0.83203-1.3477-1.9688-1.0195l-14.137 12.773c-2.5859 3-0.46094 1.9492 0.88672 1.5664z" fill="url(#s)"/>
<path transform="matrix(1.4742 0 0 1.4735 -3.6915 -8.3975)" d="m20.939 386.15c42.108-49.24 104.61-126.54 143.41-171.98 15.668-18.353 28.682-29.89 33.046-34.784 13.482-15.113 46.248-46.424 65.655-70.578 6.659-8.287 13.329-16.712 14.245-27.737 0.30208-3.616-3.8714-5.8985-6.6935-4.687-4.0145 1.7258-4.6266 6.6408-5.3818 10.774-1.6773 9.1804-4.5816 14.379-8.3602 19.925-8.0793 11.855-18.692 22.968-29.376 33.371-27.672 26.934-53.879 53.805-77.661 84.209 0 0-55.856 64.054-83.825 96.653-17.192 20.036-51.2 60.43-51.2 60.43" fill="url(#r)" stroke="#000" stroke-width=".75"/>
<path transform="matrix(1.4742 0 0 1.4735 -3.6915 -8.3975)" d="m151.53 225.99c-6.0443-2.9028-13.363-4.2973-26.35 10.742-6.6007 7.6428-13.588 14.766-12.709 27.777 0.063596 0.95171 0.33388 2.6934 0.33388 2.6934 1.2507-0.88013 5.1831 0.73698 3.8529 3.9818 1.7568 0.88544 5.4772-0.8006 8.8557-2.1924 11.408-4.7029 18.252-14.785 24.198-25.132 4.2265-7.3512 7.6766-15.058 1.8178-17.87z" fill="url(#j)" stroke="#000" stroke-width=".75"/>
<path transform="matrix(1.4742 0 0 1.4735 -3.6915 -8.3975)" d="m115.84 277.37c-0.45842-8.7006-10.647-6.7097-23.226 3.5842-23.909 19.564-20.928 27.751-21.111 33.943 2.3345-0.37909 4.3192 0.18027 4.5736 5.3762 6.72 1.7603 17.401-2.3939 26.525-13.107 8.4265-9.8935 13.904-17.118 13.239-29.797z" fill="url(#j)" stroke="#000" stroke-width=".75"/>
<path transform="matrix(1.4742 0 0 1.4735 -3.6915 -8.3975)" d="m30.097 375.38c14.105-5.5698 23.949-16.407 32.013-29.487 4.6796-7.5845 11.066-18.862 4.9605-23.851-4.351-3.555-17.759-0.54611-33.338 17.788-6.606 7.778-12.939 15.485-8.8716 29.97 4.3404-0.074228 4.7909 2.7517 5.2361 5.5804z" fill="url(#j)" stroke="#000" stroke-width=".75"/>
<path d="m207.8 318.77c-0.44922-9.457-0.50781-18.93 6.6953-28.668 3.4531-7.2852 6.75-14.633 14.082-20.449-0.085937-2.2383 0.57031-4.043 3.8945-4.2852 2.4297-2.5352 4.8672-5.1133 6.8945-5.3477-0.95703 2.4414-3.0547 5.082-5.6797 7.8164 0.074219 1.6875-0.46875 3.1406-3.4766 3.6523-7.1328 3.7734-10.645 11.723-14.523 19.25-5.9961 9.0898-6.6289 18.586-7.8867 28.031z" fill="url(#v)"/>
<path d="m279.08 220.16c25.414-34.266 58.637-64.688 76.238-102.79 0 0-5.6758-19.594 9.9219-29.988 5.2891-3.5234 13.094-4.8047 23.48-0.33594 3.7266 1.6016 7.6953 4.4805 10.031 6.707 2.1602 2.0625 2.5508 4.3164 0.78906 2.9805-4.8828-3.7031-9.7578-9.6328-22.863-10.574-2.1602-0.15625-12.039-2.1133-18.992 13.727-2.2383 5.1055-2.6602 10.871 0.066406 16.641l26.254 7.8086c6.3359-2.0156 12.164 0.20703 17.508 6.4102 0 0 11.949 0.80469 10.648 4.418-1.4297 3.9648-12.09-3.7109-12.09-3.7109-3.8242-3.5508-7.6445-7.1016-17.633-5.4102l-24.867-7.6289c-19.484 41.93-78.492 101.75-78.492 101.75z" fill="url(#u)"/>
<path transform="matrix(1.4742 0 0 1.4735 -3.6915 -8.3975)" d="m180.69 61.739c1.0944-0.015906 1.2454 0.49574 1.3885 0.82181 0.52202 0.092785 1.1474-0.047718 1.3143 0.83242 0.7711-0.29161 1.5422-0.066275 2.3133 0.89604 1.2613-0.18292 1.9344 0.51695 2.6869 1.0949 1.2746-0.24654 2.1013 0.34463 2.9652 0.86953 1.9688-0.34728 3.0367 0.63624 4.351 1.2566 1.4389-0.12725 2.1702 0.40825 2.8168 1.0259 1.2322-0.18292 2.157 0.16701 2.7585 1.0816 0.94864 0.11399 1.7065-0.33668 3.1136 1.1532 0.41867 0.063624 0.70221-0.19617 1.4256 0.59382 0.52202-0.10604 1.0228-0.05302 1.4574 0.58587 0.96984-0.05302 1.9423 0.25184 2.9122 1.2248 0.7658-0.34728 1.0546 0.24124 1.4574 0.60708 1.264-0.068927 1.9768 0.68661 2.9254 1.0869 0.62271-0.17762 1.0493 0.17762 1.4574 0.57527 1.6508-0.26775 1.6985 0.33668 2.3001 0.63889 0.77375 0.090134 1.5793 0.07953 2.0775 1.0975 0.8347-0.19352 1.2216 0.11134 1.3965 0.6548l1.1209 0.60708c1.362-0.28101 1.8204 0.12195 2.3716 0.45597 0.93274-0.13785 1.7754-0.15111 2.3716 0.16966 1.3726 0.098087 1.4574 0.44272 2.0457 0.69191 0.8082-0.005302 1.3461 0.44007 1.8602 0.9252 0.68631 0.1193 1.1527 0.43211 1.4495 0.89074 1.1527-0.28631 1.7515 0.007953 2.2683 0.38174 1.2878-0.002651 1.7038 0.5249 2.2815 0.95436 1.0493 0.02651 1.3435 0.59913 1.9927 0.91194 0.46902-0.034463 0.94069-0.2704 1.4097 0.43211 0.51142-0.20678 1.0255 0.11664 1.5396 0.28631l19.831 6.1477c5.1963-1.0737 8.3284 0.2757 11.696 3.8864l8.0449 2.8525c0.41072-0.015906 0.8188-0.058322 1.2481 0.4056 0.69691-0.11399 1.0228 0.19087 1.2269 0.63094 1.0016-0.29161 1.2852 0.25715 1.7409 0.59913 1.3276-0.034463 1.2772 0.66805 1.6879 1.124 0.81085-0.1352 1.5263-0.060974 2.0881 0.34463 0.64126 0.018557 1.2693-0.050369 2.0377 0.64154 0.50082 0.14315 1.0202 0.002651 1.4707 0.9305 0.64391 0.087483 1.1288 0.49839 1.5104 1.1187 0.59886 0.10604 1.2348 0.087483 1.6561 0.76084 0.87709 0.039766 1.7409-0.021208 2.7134 0.80856 0.65981 0.10339 1.3117 0.25184 1.884 0.84567 0.63596 0.082181 1.2189 0.21208 1.529 0.60178 0.8718 0.034463 1.3488 0.45067 1.7621 0.92785 0.8188 0.1299 1.1871 0.67866 1.5952 1.1903 0.79495 0.10869 1.3647 0.60178 1.725 1.4528 0.7181 0.074228 1.3249 0.39765 1.7992 1.0286 0.8665-0.074228 1.5767 0.28101 2.1914 0.90399 0.68366 0.11664 1.3832 0.43742 2.1093 1.1983 0.7234 0.023859 1.1845 0.56997 1.6667 1.0763 0.8241 0.068926 1.5846 0.41621 2.2948 0.97822 0.76845 0.23859 1.5104 0.55406 2.1146 1.3043 0.87974 0.031812 1.5952 0.31812 2.0748 0.97292 1.1712 0.38705 2.1199 1.2751 2.9201 2.4919 0.88504 0.16436 1.6031 0.77144 2.1702 1.7894 1.3912 0.21473 1.9317 1.3175 2.6657 2.2189 1.2507 0.11399 1.9211 0.7847 2.7028 1.3494 1.0652-0.16701 2.0881-0.055671 3.0182 0.69721 0.55912-0.05302 1.0997-0.055671 1.5078 0.31812" fill="none" stroke="#000" stroke-width=".35"/>
<path transform="matrix(1.4742 0 0 1.4735 -3.6915 -8.3975)" d="m345.8 210.87-156.97-42.061v13.716" fill="none" stroke="#000" stroke-width=".75"/>
<path d="m274.66 261.64c-0.60937 0-1.1055-0.49609-1.1055-1.1055s0.49609-1.1055 1.1055-1.1055c0.61328 0 1.1094 0.49609 1.1094 1.1055s-0.49609 1.1055-1.1094 1.1055z" fill-rule="evenodd"/>
<g>
<use x="512.339844" y="309.043438" xlink:href="#ai"/>
<use x="518.236443" y="309.043438" xlink:href="#a"/>
<use x="525.607193" y="309.043438" xlink:href="#f"/>
<use x="530.029643" y="309.043438" xlink:href="#i"/>
<use x="541.822842" y="309.043438" xlink:href="#d"/>
<use x="544.771141" y="309.043438" xlink:href="#b"/>
<use x="552.141891" y="309.043438" xlink:href="#h"/>
<use x="559.51264" y="309.043438" xlink:href="#c"/>
</g>
<g>
<use x="476.222656" y="323.777813" xlink:href="#w"/>
<use x="480.645106" y="323.777813" xlink:href="#b"/>
<use x="488.015855" y="323.777813" xlink:href="#d"/>
<use x="490.964155" y="323.777813" xlink:href="#ah"/>
<use x="496.860755" y="323.777813" xlink:href="#ag"/>
<use x="504.231504" y="323.777813" xlink:href="#k"/>
<use x="508.653954" y="323.777813" xlink:href="#af"/>
<use x="513.076404" y="323.777813" xlink:href="#i"/>
<use x="524.869603" y="323.777813" xlink:href="#p"/>
<use x="532.240352" y="323.777813" xlink:href="#a"/>
<use x="539.611102" y="323.777813" xlink:href="#c"/>
<use x="542.559402" y="323.777813" xlink:href="#d"/>
<use x="545.507701" y="323.777813" xlink:href="#b"/>
<use x="552.878451" y="323.777813" xlink:href="#d"/>
<use x="555.826751" y="323.777813" xlink:href="#g"/>
<use x="561.72335" y="323.777813" xlink:href="#d"/>
<use x="564.67165" y="323.777813" xlink:href="#a"/>
<use x="572.0424" y="323.777813" xlink:href="#f"/>
<use x="576.464849" y="323.777813" xlink:href="#k"/>
<use x="580.887299" y="323.777813" xlink:href="#a"/>
<use x="588.258048" y="323.777813" xlink:href="#g"/>
<use x="594.154648" y="323.777813" xlink:href="#ae"/>
</g>
<g>
<use x="523.394531" y="338.512188" xlink:href="#o"/>
<use x="530.765281" y="338.512188" xlink:href="#n"/>
<use x="536.66188" y="338.512188" xlink:href="#m"/>
<use x="544.03263" y="338.512188" xlink:href="#b"/>
</g>
<g>
<use x="362.453125" y="470.488751" xlink:href="#ad"/>
<use x="372.772174" y="470.488751" xlink:href="#p"/>
<use x="380.142924" y="470.488751" xlink:href="#a"/>
<use x="387.513673" y="470.488751" xlink:href="#c"/>
<use x="390.461973" y="470.488751" xlink:href="#d"/>
<use x="393.410273" y="470.488751" xlink:href="#b"/>
<use x="400.781022" y="470.488751" xlink:href="#d"/>
<use x="403.729322" y="470.488751" xlink:href="#g"/>
<use x="409.625922" y="470.488751" xlink:href="#d"/>
<use x="412.574221" y="470.488751" xlink:href="#a"/>
<use x="419.944971" y="470.488751" xlink:href="#f"/>
<use x="424.367421" y="470.488751" xlink:href="#k"/>
<use x="428.78987" y="470.488751" xlink:href="#a"/>
<use x="436.16062" y="470.488751" xlink:href="#g"/>
</g>
<g>
<use x="388.25" y="485.223126" xlink:href="#o"/>
<use x="395.620749" y="485.223126" xlink:href="#n"/>
<use x="401.517349" y="485.223126" xlink:href="#m"/>
<use x="408.888099" y="485.223126" xlink:href="#b"/>
</g>
<g>
<use x="36.046875" y="183.055157" xlink:href="#ac"/>
<use x="43.417624" y="183.055157" xlink:href="#h"/>
<use x="50.788374" y="183.055157" xlink:href="#ab"/>
<use x="58.159123" y="183.055157" xlink:href="#g"/>
<use x="64.055723" y="183.055157" xlink:href="#a"/>
<use x="71.426473" y="183.055157" xlink:href="#c"/>
</g>
<g>
<use x="80.296875" y="122.691876" xlink:href="#aa"/>
<use x="87.667624" y="122.691876" xlink:href="#z"/>
<use x="95.038374" y="122.691876" xlink:href="#y"/>
<use x="102.409123" y="122.691876" xlink:href="#a"/>
<use x="109.779873" y="122.691876" xlink:href="#f"/>
<use x="114.202323" y="122.691876" xlink:href="#a"/>
</g>
<g>
<use x="74.402344" y="137.430157" xlink:href="#l"/>
<use x="80.298943" y="137.430157" xlink:href="#h"/>
<use x="87.669693" y="137.430157" xlink:href="#i"/>
<use x="99.462892" y="137.430157" xlink:href="#a"/>
<use x="106.833641" y="137.430157" xlink:href="#c"/>
<use x="109.781941" y="137.430157" xlink:href="#c"/>
<use x="112.730241" y="137.430157" xlink:href="#a"/>
<use x="120.100991" y="137.430157" xlink:href="#b"/>
</g>
<g>
<use x="136.652344" y="80.160626" xlink:href="#x"/>
<use x="139.600644" y="80.160626" xlink:href="#b"/>
<use x="146.971393" y="80.160626" xlink:href="#b"/>
<use x="154.342143" y="80.160626" xlink:href="#a"/>
<use x="161.712892" y="80.160626" xlink:href="#f"/>
<use x="166.135342" y="80.160626" xlink:href="#a"/>
</g>
<g>
<use x="128.546875" y="94.895001" xlink:href="#l"/>
<use x="134.443475" y="94.895001" xlink:href="#h"/>
<use x="141.814224" y="94.895001" xlink:href="#i"/>
<use x="153.607423" y="94.895001" xlink:href="#a"/>
<use x="160.978173" y="94.895001" xlink:href="#c"/>
<use x="163.926473" y="94.895001" xlink:href="#c"/>
<use x="166.874772" y="94.895001" xlink:href="#a"/>
<use x="174.245522" y="94.895001" xlink:href="#b"/>
</g>
<path transform="matrix(1.4742 0 0 1.4735 -3.6915 -8.3975)" d="m57.602 129.2 29.94 8.0219v22.011" fill="none" stroke="#000" stroke-width=".75"/>
<path d="m125.36 227.32c-0.60938 0-1.1055-0.49609-1.1055-1.1055 0-0.60938 0.49609-1.1055 1.1055-1.1055s1.1055 0.49609 1.1055 1.1055c0 0.60937-0.49609 1.1055-1.1055 1.1055z" fill-rule="evenodd"/>
<path transform="matrix(1.4742 0 0 1.4735 -3.6915 -8.3975)" d="m94.175 97.416 56.836 15.23v23.016" fill="none" stroke="#000" stroke-width=".75"/>
<path d="m218.92 192.58c-0.60938 0-1.1055-0.49609-1.1055-1.1055 0-0.60937 0.49609-1.1055 1.1055-1.1055s1.1055 0.49609 1.1055 1.1055c0 0.60938-0.49609 1.1055-1.1055 1.1055z" fill-rule="evenodd"/>
<path transform="matrix(1.4742 0 0 1.4735 -3.6915 -8.3975)" d="m130.44 67.772 79.034 21.176v25.691" fill="none" stroke="#000" stroke-width=".75"/>
<path d="m305.11 161.61c-0.60938 0-1.1055-0.49219-1.1055-1.1055 0-0.60938 0.49609-1.1055 1.1055-1.1055s1.1055 0.49609 1.1055 1.1055c0 0.61328-0.49609 1.1055-1.1055 1.1055z" fill-rule="evenodd"/>
<path transform="matrix(1.4742 0 0 1.4735 -3.6915 -8.3975)" d="m242.36 319.81-153.37-41.096v12.794" fill="none" stroke="#000" stroke-width=".75"/>
<path d="m127.49 422.22c-0.60938 0-1.1055-0.49609-1.1055-1.1055s0.49609-1.1055 1.1055-1.1055c0.60937 0 1.1055 0.49609 1.1055 1.1055s-0.49609 1.1055-1.1055 1.1055z" fill-rule="evenodd"/>
</svg>
