<?xml version="1.0" encoding="UTF-8"?>
<svg width="800px" height="494px" version="1.1" viewBox="0 0 800 494" xmlns="http://www.w3.org/2000/svg" xmlns:xlink="http://www.w3.org/1999/xlink">
<defs>
<symbol id="e" overflow="visible">
<path d="m22.016-11.594v1.7344h-16.188c0.15625 2.418 0.88281 4.2617 2.1875 5.5312 1.3125 1.2734 3.1328 1.9062 5.4688 1.9062 1.3516 0 2.6602-0.16406 3.9219-0.5 1.2695-0.33203 2.5312-0.83203 3.7812-1.5v3.3281c-1.2617 0.54297-2.5547 0.94922-3.875 1.2188-1.3242 0.28125-2.668 0.42188-4.0312 0.42188-3.4297 0-6.1406-0.98828-8.1406-2.9688-1.9922-1.9883-2.9844-4.6797-2.9844-8.0781 0-3.5 0.94531-6.2812 2.8438-8.3438 1.8945-2.0625 4.4453-3.0938 7.6562-3.0938 2.8828 0 5.1641 0.93359 6.8438 2.7969 1.6758 1.8555 2.5156 4.3711 2.5156 7.5469zm-3.5156-1.0312c-0.03125-1.9141-0.57422-3.4453-1.625-4.5938-1.0547-1.1562-2.4453-1.7344-4.1719-1.7344-1.9688 0-3.543 0.55859-4.7188 1.6719-1.1797 1.1055-1.8555 2.668-2.0312 4.6875z"/>
</symbol>
<symbol id="d" overflow="visible">
<path d="m13.422-10.766c-2.8438 0-4.8125 0.32812-5.9062 0.98438-1.0938 0.64844-1.6406 1.75-1.6406 3.3125 0 1.25 0.41016 2.2461 1.2344 2.9844 0.82031 0.73047 1.9414 1.0938 3.3594 1.0938 1.9453 0 3.5078-0.6875 4.6875-2.0625 1.1758-1.3828 1.7656-3.2266 1.7656-5.5312v-0.78125zm7.0312-1.4531v12.219h-3.5312v-3.25c-0.80469 1.3047-1.8047 2.2617-3 2.875-1.1992 0.61328-2.6641 0.92188-4.3906 0.92188-2.1992 0-3.9453-0.61328-5.2344-1.8438-1.293-1.2266-1.9375-2.875-1.9375-4.9375 0-2.4062 0.80078-4.2188 2.4062-5.4375 1.6133-1.2266 4.0234-1.8438 7.2344-1.8438h4.9219v-0.34375c0-1.625-0.53125-2.8789-1.5938-3.7656-1.0625-0.88281-2.5586-1.3281-4.4844-1.3281-1.2188 0-2.4141 0.15234-3.5781 0.45312-1.1562 0.29297-2.2734 0.73047-3.3438 1.3125v-3.25c1.2891-0.5 2.5391-0.875 3.75-1.125 1.207-0.25 2.3828-0.375 3.5312-0.375 3.1016 0 5.4219 0.80859 6.9531 2.4219 1.5312 1.6055 2.2969 4.0391 2.2969 7.2969z"/>
</symbol>
<symbol id="c" overflow="visible">
<path d="m19.062-10.688c0-2.582-0.53125-4.6094-1.5938-6.0781-1.0625-1.4766-2.5273-2.2188-4.3906-2.2188-1.8555 0-3.3203 0.74219-4.3906 2.2188-1.0625 1.4688-1.5938 3.4961-1.5938 6.0781 0 2.5859 0.53125 4.6172 1.5938 6.0938 1.0703 1.4688 2.5352 2.2031 4.3906 2.2031 1.8633 0 3.3281-0.73438 4.3906-2.2031 1.0625-1.4766 1.5938-3.5078 1.5938-6.0938zm-11.969-7.4688c0.73828-1.2812 1.6719-2.2266 2.7969-2.8438 1.1328-0.625 2.4844-0.9375 4.0469-0.9375 2.6016 0 4.7188 1.0391 6.3438 3.1094 1.625 2.0625 2.4375 4.7773 2.4375 8.1406 0 3.3672-0.8125 6.0781-2.4375 8.1406s-3.7422 3.0938-6.3438 3.0938c-1.5625 0-2.9141-0.30859-4.0469-0.92188-1.125-0.61328-2.0586-1.5625-2.7969-2.8438v3.2188h-3.5312v-29.75h3.5312z"/>
</symbol>
<symbol id="b" overflow="visible">
<path d="m19.109-20.594v3.2969c-1-0.55078-2-0.96094-3-1.2344-1-0.28125-2.0117-0.42188-3.0312-0.42188-2.2812 0-4.0547 0.72656-5.3125 2.1719-1.2617 1.4492-1.8906 3.4805-1.8906 6.0938 0 2.6172 0.62891 4.6484 1.8906 6.0938 1.2578 1.4492 3.0312 2.1719 5.3125 2.1719 1.0195 0 2.0312-0.13281 3.0312-0.40625 1-0.28125 2-0.69531 3-1.25v3.25c-0.98047 0.46094-1.9961 0.80469-3.0469 1.0312-1.0547 0.22656-2.1719 0.34375-3.3594 0.34375-3.2305 0-5.7969-1.0078-7.7031-3.0312-1.8984-2.0312-2.8438-4.7656-2.8438-8.2031 0-3.4883 0.95703-6.2344 2.875-8.2344 1.9258-2.0078 4.5625-3.0156 7.9062-3.0156 1.082 0 2.1406 0.11719 3.1719 0.34375 1.0312 0.21875 2.0312 0.55469 3 1z"/>
</symbol>
<symbol id="a" overflow="visible">
<path d="m17.781-18.156v-11.594h3.5312v29.75h-3.5312v-3.2188c-0.74219 1.2812-1.6719 2.2305-2.7969 2.8438s-2.4805 0.92188-4.0625 0.92188c-2.5938 0-4.7031-1.0312-6.3281-3.0938s-2.4375-4.7734-2.4375-8.1406c0-3.3633 0.8125-6.0781 2.4375-8.1406 1.625-2.0703 3.7344-3.1094 6.3281-3.1094 1.582 0 2.9375 0.3125 4.0625 0.9375 1.125 0.61719 2.0547 1.5625 2.7969 2.8438zm-11.984 7.4688c0 2.5859 0.53125 4.6172 1.5938 6.0938 1.0625 1.4688 2.5234 2.2031 4.3906 2.2031 1.8633 0 3.3281-0.73438 4.3906-2.2031 1.0703-1.4766 1.6094-3.5078 1.6094-6.0938 0-2.582-0.53906-4.6094-1.6094-6.0781-1.0625-1.4766-2.5273-2.2188-4.3906-2.2188-1.8672 0-3.3281 0.74219-4.3906 2.2188-1.0625 1.4688-1.5938 3.4961-1.5938 6.0781z"/>
</symbol>
</defs>
<path transform="matrix(3.5613 0 0 3.5593 1.3811 12.125)" d="m23.641 92.92c-14.41-6.7331-20.291-20.434-20.484-30.332-0.49249-25.379 43.407-45.219 76.248-30.69 20.342-10.386 37.376-4.0903 37.063-3.3265 7.9664-4.2593 23.1-5.8924 32-0.088896 8.2988-8.6339 44.733 2.9654 39.676 21.455 9.4176 7.8514 12.986 13.683 12.834 23.211 28.528 8.2125 26.673 58.516-9.2004 55.595-42.778 11.176-81.403-1.7132-116.97-14.341 0 0-4.0046-2.8337-6.0349-0.89884s-3.375 2.6252-4.3962 2.3168c-1.0201-0.3073-7.7953-2.9435-13.608-1.5189-5.8122 1.4245-5.3713-7.9623-7.8107-11.508-2.4778-3.6041-6.2948-5.3184-10.608-6.4477-3.0065-0.7869-4.5739-1.4948-8.7046-3.4252z" fill="#de8fb8" stroke="#000" stroke-width=".75"/>
<path transform="matrix(3.5613 0 0 3.5593 1.3811 12.125)" d="m79.405 31.897c-28.587 10.191 91.186 95.579 121.57 41.25" fill="none" stroke="#000" stroke-width=".75"/>
<path transform="matrix(3.5613 0 0 3.5593 1.3811 12.125)" d="m116.47 28.571c-17.802 6.7934 10.196 33.294 29.829 34.934 1.6475 0.13719 3.3443 0.036217 4.9084 0.061459 5.1004 0.081214 9.0084 1.8185 13.078 2.0369 10.418 0.55862 19.42-3.287 23.861-15.667" fill="none" stroke="#000" stroke-width=".75"/>
<path transform="matrix(3.5613 0 0 3.5593 1.3811 12.125)" d="m148.47 28.482c-1.5334 1.3664 1.5137 4.1682 1.5137 4.1682" fill="none" stroke="#000" stroke-width=".75"/>
<path transform="matrix(3.5613 0 0 3.5593 1.3811 12.125)" d="m151.2 63.566c-16.708-0.25132-25.173-12.623-17.542-22.63 6.285-8.241 19.199-6.1679 19.199-6.1679 1.065-2.5769 10.933-2.9808 19.476-0.85604 6.8169 1.6956 13.293 7.1962 14.278 11.324 3.0865 12.932-12.839 22.343-24.675 20.094-9.0117-1.8218-7.871-1.8251-10.736-1.7637" fill="#e6abca" stroke="#000" stroke-width=".75"/>
<path transform="matrix(3.5613 0 0 3.5593 1.3811 12.125)" d="m145.31 51.796c0.76012 5.0989-1.7604 8.8808-6.546 6.5641-2.1772-1.0536-4.7592-5.4117-4.4565-6.8154 0.35867-1.6605 3.5066-3.0115 5.7716-2.8919 2.2047 0.11633 4.9972 1.5782 5.2309 3.1432z" fill="#996397" stroke="#000" stroke-width=".75"/>
<path transform="matrix(3.5613 0 0 3.5593 1.3811 12.125)" d="m136.14 42.036c6.3135-6.1635 13.928-6.2535 14.011-4.165 0.084458 2.0874-0.61533 9.5295-4.3753 8.702-3.7611-0.8275-11.136-3.265-9.6358-4.537z" fill="#996397" stroke="#000" stroke-width=".75"/>
<path transform="matrix(3.5613 0 0 3.5593 1.3811 12.125)" d="m154.42 42.307c-0.10639-8.5099 7.6922-7.216 10.686-7.0228 3.8192 0.24584 11.56 3.0686 13.706 4.2198 2.5162 1.3499-0.52868 2.736-3.2445 4.4262-1.8965 1.1787-8.4567 5.3788-12.612 5.5105-3.8159 0.12182-8.4556-0.72763-8.5357-7.1337z" fill="#996397" stroke="#000" stroke-width=".75"/>
<path transform="matrix(3.5613 0 0 3.5593 1.3811 12.125)" d="m171.56 48.125c3.601-2.319 10.521-6.631 11.649-5.0956 1.3294 1.8076 4.4587 6.8867 1.5542 7.7274-2.9056 0.84177-17.077-0.13719-13.203-2.6318z" fill="#996397" stroke="#000" stroke-width=".75"/>
<path transform="matrix(3.5613 0 0 3.5593 1.3811 12.125)" d="m157.07 53.028c12.581-2.162 24.848-1.4673 24.562 1.2336-0.30054 2.8315-7.8875 11.218-18.193 9.5404-10.307-1.6781-10.536-4.0179-9.7707-6.5092 0.69869-2.7635 0.94439-3.8423 3.4024-4.2648z" fill="#996397" stroke="#000" stroke-width=".75"/>
<path transform="matrix(3.5613 0 0 3.5593 1.3811 12.125)" d="m139.35 46.252c-1.4171-0.91201-4.1395-2.6087-4.5837-2.0051-0.5232 0.71117-1.755 2.7097-0.61204 3.0411 1.144 0.33034 6.7204-0.053777 5.1958-1.036z" fill="#996397" stroke="#000" stroke-width=".75"/>
<path transform="matrix(3.5613 0 0 3.5593 1.3811 12.125)" d="m166.24 48.606c-6.7665 1.8767-9.287-0.41265-10.084-1.1348-0.79851-0.72105-1.6826-3.7446-1.6826-3.7446s6.9036-1.3795 8.3931 0.44229c1.4884 1.8218 3.3739 4.4371 3.3739 4.4371z" fill="#583456" stroke="#000" stroke-width=".75"/>
<path transform="matrix(2.671 0 0 2.6695 1.3811 12.125)" d="m280.46 130.6c2.5959 0.79458 7.8915 16.158 4.4474 17.611-3.6737 0.8736-24.248 1.1253-20.517-2.6208 3.1121-3.1256 14.544-15.456 16.07-14.99z" fill="#996397" stroke="#000"/>
<path transform="matrix(2.671 0 0 2.6695 1.3811 12.125)" d="m136.73 141.26c11.122 2.2301 48.884 10.305 69.305 12.282 7.7628 0.75214 24.605-0.55899 28.859-1.9433 4.2558-1.3858 8.2044-2.631 11.511-3.073 3.3052-0.44046 24.708 2.6691 27.013 2.7788 2.3048 0.11121 14.772-0.94969 7.0257 9.4676-7.7482 10.417-25.491 8.0511-25.491 8.0511s-0.84238 0.27364-3.1019 1.1326c-6.2477 2.375-16.396 3.7241-49.671 4.2729-33.276 0.54874-100.63-23.59-105.15-24.597-2.7451-0.61313-6.078-0.011706-8.2395 2.4876-2.0358 2.353-1.9275 1.1238-7.7833-0.93945-5.8572-2.0633-14.199 0.21803-16.175-0.34973-2.7085-0.77702-3.798-8.6965-5.5354-12.552-1.578-3.4988-4.6565-7.3385-6.2447-8.297 3.5479-4.8099 9.721-8.5736 17.927-7.2478 9.1784 1.4853 20.039 5.4918 31.368 9.1238 12.294 3.9407 25.048 7.5302 34.38 9.4032z" fill="#996397" stroke="#000"/>
<path transform="matrix(2.671 0 0 2.6695 1.3811 12.125)" d="m53.863 80.505c22.863-16.702 37.678-13.645 51.613-8.0921 14.676 5.8489 23.351 16.473 41.56 28.584 18.297 12.17 39.783 17.854 48.495 19.576 8.5554 1.6916 28.1 5.9059 48.054 0.03512 3.3169-0.97603 6.2725-1.5584 8.9649-1.8818l5.7022-0.28242c9.6186 0.30144 14.506 4.6724 17.592 7.1541 4.3699 3.5149 0.69321 5.6835-5.8177 12.052-6.5109 6.3683-7.7072 9.3359-13.123 9.2657-5.417-0.070239-6.2257-1.8482-14.48 0.51362-8.2527 2.3618-11.928 4.2626-28.18 4.3782-15.923 0.11414-75.45-10.092-108.44-20.785-13.547-4.3914-25.6-10.076-34.168-10.862-11.217-1.0272-16.612 4.7075-18.901 6.0713-2.2624 2.0267-5.8133-0.087798-7.9807-1.1648-20.559-10.204 3.7542-40.363 9.1097-44.562z" fill="#996397" stroke="#000"/>
<path transform="matrix(3.5613 0 0 3.5593 1.3811 12.125)" d="m40.397 60.379c17.147-12.527 28.258-10.234 38.71-6.0691 11.007 4.3866 17.513 12.354 31.17 21.438 13.723 9.1278 29.838 13.39 36.372 14.682 6.4166 1.2687 21.075 4.4294 36.04 0.02634 2.4877-0.73202 4.7044-1.1688 6.7237-1.4114l4.2766-0.21181c7.214 0.22608 10.88 3.5043 13.194 5.3656 3.2774 2.6362 0.51991 4.2626-4.3633 9.0389-4.8832 4.7763-5.7804 7.002-9.842 6.9493-4.0627-0.052679-4.6693-1.3861-10.86 0.38522-6.1895 1.7713-8.9459 3.197-21.135 3.2837-11.943 0.085604-56.588-7.5694-81.331-15.589-10.16-3.2936-19.2-7.5573-25.626-8.1466-8.4128-0.77044-12.459 3.5306-14.176 4.5535-1.6968 1.52-4.36-0.065849-5.9855-0.8736-15.42-7.6528 2.8156-30.272 6.8323-33.422zm3.6251 44.991c1.4862 3.8752 1.3228 9.8697 7.1548 8.7349 5.832-1.1348 12.336 1.5409 13.574 1.7999 1.2362 0.2601 2.2749-0.8286 3.42-1.9393 1.1451-1.1096 2.1389-1.3334 3.4178-1.0251 0.84238 0.081214 3.1194 0.87579 3.1194 0.87579 35.573 12.628 74.198 25.517 116.98 14.341 9.5371 1.1074 19.947-3.9817 22.028-9.0147 2.0807-5.032 4.202-15.177-2.6895-23.638-4.8667-5.9747-12.519-9.2584-20.69-8.7239-9.3671-0.28754-8.9777 5.9001-29.004 3.9059-21.005-2.0929-29.733-8.5779-39.853-12.013-6.7489-2.2915-28.723-19.982-41.135-26.378-6.1544-3.1717-10.31-3.0631-13.672-3.1651-4.3655-0.1317-13.395-0.41375-23.498 7.1567-21.443 16.072-18.868 29.268-15.954 35.262 2.616 5.381 12.461 3.0653 16.806 13.821zm58.524 0.57728c8.3415 1.6726 36.663 7.7285 51.979 9.2112 5.8221 0.56411 18.453-0.41924 21.644-1.4575 3.1918-1.0393 6.1533-1.9733 8.6333-2.3047 2.4789-0.33034 18.531 2.0018 20.26 2.0841 1.7286 0.083409 11.079-0.71227 5.2693 7.1007-5.8111 7.813-19.118 6.0384-19.118 6.0384s-0.63178 0.20523-2.3264 0.84945c-4.6857 1.7812-12.297 2.7931-37.253 3.2047-24.957 0.41156-75.471-17.693-78.86-18.448-2.0588-0.45985-4.5585-0.009877-6.1797 1.8657-1.5268 1.7648-1.4456 0.84287-5.8374-0.70458-4.3929-1.5475-10.649 0.16352-12.131-0.2623-2.0314-0.58276-2.8485-6.5224-4.1516-9.4142-1.1835-2.6241-3.4924-5.5039-4.6836-6.2227 2.661-3.6074 7.2908-6.4302 13.445-5.4358 6.8838 1.1139 15.029 4.1189 23.526 6.8428 9.2201 2.9555 18.786 5.6477 25.785 7.0524zm107.8-8.0007c1.9469 0.59594 5.9186 12.118 3.3355 13.208-2.7553 0.6552-18.186 0.84397-15.388-1.9656 2.3341-2.3442 10.908-11.592 12.052-11.243z" fill="#e6abca" stroke="#000" stroke-width=".75"/>
<path d="m111.85 334.71c-29.434-110.15 117.43-153.34 159.02-128.5 5.4688 3.2656 25.586 9.5586 34.02 14.961 22.973 14.719 32.332 25.637 38.441 29.375 7.6406 4.6719-55.109 55.219-57.129 37.23-2.8086-25.059-25.629-46.531-50.793-55.449-4.8281-1.7109-12.949-5.9922-20.902-2.0938-20.723 10.152-51.859 34.773-88.23 62.098-10.727 8.0547-7.4844 27.266-14.422 42.375z" fill="#854f82"/>
<path d="m506.71 149.7c15.617-7.0508 27.832-6.5898 28.039-1.4102 0.17188 4.2266-1.7305 14.137-4.8555 21.773-4.2344 3.2578-48.332-8.7891-23.184-20.363z" fill="#854f82"/>
<path d="m505.27 220.24c1.9609-5.7891 2.0469-11.109 0.21094-16.969-3.1406-5.5156-9.6914-7.9141-15.59-9.125-3.3164-0.17969-10.551-1.2852-8.168 4.4141 1.6328 5.4609 4.1484 9.9492 7.6797 14.375 3.8945 4.668 9.6875 6.918 15.867 7.3047z" fill="#854f82"/>
<path transform="matrix(3.5613 0 0 3.5593 1.3811 12.125)" d="m40.397 60.379c17.147-12.527 28.258-10.234 38.71-6.0691 11.007 4.3866 17.513 12.354 31.17 21.438 13.723 9.1278 29.838 13.39 36.372 14.682 6.4166 1.2687 21.075 4.4294 36.04 0.02634 2.4877-0.73202 4.7044-1.1688 6.7237-1.4114l4.2766-0.21181c7.214 0.22608 10.88 3.5043 13.194 5.3656 3.2774 2.6362 0.51991 4.2626-4.3633 9.0389-4.8832 4.7763-5.7804 7.002-9.842 6.9493-4.0627-0.052679-4.6693-1.3861-10.86 0.38522-6.1895 1.7713-8.9459 3.197-21.135 3.2837-11.943 0.085604-56.588-7.5694-81.331-15.589-10.16-3.2936-19.2-7.5573-25.626-8.1466-8.4128-0.77044-12.459 3.5306-14.176 4.5535-1.6968 1.52-4.36-0.065849-5.9855-0.8736-15.42-7.6528 2.8156-30.272 6.8323-33.422zm3.6251 44.991c1.4862 3.8752 1.3228 9.8697 7.1548 8.7349 5.832-1.1348 12.336 1.5409 13.574 1.7999 1.2362 0.2601 2.2749-0.8286 3.42-1.9393 1.1451-1.1096 2.1389-1.3334 3.4178-1.0251 0.84238 0.081214 3.1194 0.87579 3.1194 0.87579 35.573 12.628 74.198 25.517 116.98 14.341 9.5371 1.1074 19.947-3.9817 22.028-9.0147 2.0807-5.032 4.202-15.177-2.6895-23.638-4.8667-5.9747-12.519-9.2584-20.69-8.7239-9.3671-0.28754-8.9777 5.9001-29.004 3.9059-21.005-2.0929-29.733-8.5779-39.853-12.013-6.7489-2.2915-28.723-19.982-41.135-26.378-6.1544-3.1717-10.31-3.0631-13.672-3.1651-4.3655-0.1317-13.395-0.41375-23.498 7.1567-21.443 16.072-18.868 29.268-15.954 35.262 2.616 5.381 12.461 3.0653 16.806 13.821zm58.524 0.57728c8.3415 1.6726 36.663 7.7285 51.979 9.2112 5.8221 0.56411 18.453-0.41924 21.644-1.4575 3.1918-1.0393 6.1533-1.9733 8.6333-2.3047 2.4789-0.33034 18.531 2.0018 20.26 2.0841 1.7286 0.083409 11.079-0.71227 5.2693 7.1007-5.8111 7.813-19.118 6.0384-19.118 6.0384s-0.63178 0.20523-2.3264 0.84945c-4.6857 1.7812-12.297 2.7931-37.253 3.2047-24.957 0.41156-75.471-17.693-78.86-18.448-2.0588-0.45985-4.5585-0.009877-6.1797 1.8657-1.5268 1.7648-1.4456 0.84287-5.8374-0.70458-4.3929-1.5475-10.649 0.16352-12.131-0.2623-2.0314-0.58276-2.8485-6.5224-4.1516-9.4142-1.1835-2.6241-3.4924-5.5039-4.6836-6.2227 2.661-3.6074 7.2908-6.4302 13.445-5.4358 6.8838 1.1139 15.029 4.1189 23.526 6.8428 9.2201 2.9555 18.786 5.6477 25.785 7.0524zm107.8-8.0007c1.9469 0.59594 5.9186 12.118 3.3355 13.208-2.7553 0.6552-18.186 0.84397-15.388-1.9656 2.3341-2.3442 10.908-11.592 12.052-11.243z" fill="#e6abca" stroke="#000" stroke-width=".75"/>
<path transform="matrix(3.5613 0 0 3.5593 1.3811 12.125)" d="m40.397 60.379c17.147-12.527 28.258-10.234 38.71-6.0691 11.007 4.3866 17.513 12.354 31.17 21.438 13.723 9.1278 29.838 13.39 36.372 14.682 6.4166 1.2687 21.075 4.4294 36.04 0.02634 2.4877-0.73202 4.7044-1.1688 6.7237-1.4114l4.2766-0.21181c7.214 0.22608 10.88 3.5043 13.194 5.3656 3.2774 2.6362 0.51991 4.2626-4.3633 9.0389-4.8832 4.7763-5.7804 7.002-9.842 6.9493-4.0627-0.052679-4.6693-1.3861-10.86 0.38522-6.1895 1.7713-8.9459 3.197-21.135 3.2837-11.943 0.085604-56.588-7.5694-81.331-15.589-10.16-3.2936-19.2-7.5573-25.626-8.1466-8.4128-0.77044-12.459 3.5306-14.176 4.5535-1.6968 1.52-4.36-0.065849-5.9855-0.8736-15.42-7.6528 2.8156-30.272 6.8323-33.422zm3.6251 44.991c1.4862 3.8752 1.3228 9.8697 7.1548 8.7349 5.832-1.1348 12.336 1.5409 13.574 1.7999 1.2362 0.2601 2.2749-0.8286 3.42-1.9393 1.1451-1.1096 2.1389-1.3334 3.4178-1.0251 0.84238 0.081214 3.1194 0.87579 3.1194 0.87579 35.573 12.628 74.198 25.517 116.98 14.341 9.5371 1.1074 19.947-3.9817 22.028-9.0147 2.0807-5.032 4.202-15.177-2.6895-23.638-4.8667-5.9747-12.519-9.2584-20.69-8.7239-9.3671-0.28754-8.9777 5.9001-29.004 3.9059-21.005-2.0929-29.733-8.5779-39.853-12.013-6.7489-2.2915-28.723-19.982-41.135-26.378-6.1544-3.1717-10.31-3.0631-13.672-3.1651-4.3655-0.1317-13.395-0.41375-23.498 7.1567-21.443 16.072-18.868 29.268-15.954 35.262 2.616 5.381 12.461 3.0653 16.806 13.821zm58.524 0.57728c8.3415 1.6726 36.663 7.7285 51.979 9.2112 5.8221 0.56411 18.453-0.41924 21.644-1.4575 3.1918-1.0393 6.1533-1.9733 8.6333-2.3047 2.4789-0.33034 18.531 2.0018 20.26 2.0841 1.7286 0.083409 11.079-0.71227 5.2693 7.1007-5.8111 7.813-19.118 6.0384-19.118 6.0384s-0.63178 0.20523-2.3264 0.84945c-4.6857 1.7812-12.297 2.7931-37.253 3.2047-24.957 0.41156-75.471-17.693-78.86-18.448-2.0588-0.45985-4.5585-0.009877-6.1797 1.8657-1.5268 1.7648-1.4456 0.84287-5.8374-0.70458-4.3929-1.5475-10.649 0.16352-12.131-0.2623-2.0314-0.58276-2.8485-6.5224-4.1516-9.4142-1.1835-2.6241-3.4924-5.5039-4.6836-6.2227 2.661-3.6074 7.2908-6.4302 13.445-5.4358 6.8838 1.1139 15.029 4.1189 23.526 6.8428 9.2201 2.9555 18.786 5.6477 25.785 7.0524zm107.8-8.0007c1.9469 0.59594 5.9186 12.118 3.3355 13.208-2.7553 0.6552-18.186 0.84397-15.388-1.9656 2.3341-2.3442 10.908-11.592 12.052-11.243z" fill="#e6abca" stroke="#000" stroke-width=".75"/>
<path d="m183.25 341.48c-17.969-0.27734-29.934 6.6445-38.223 17.879 4.2422 2.5586 12.465 12.809 16.676 22.148 4.6406 10.289 6.1016 28.285 13.336 30.363 5.2773 1.5117 27.559-4.5742 43.203 0.93359 15.641 5.5039 15.352 8.7891 20.789 2.5078 0.77734-2.8594 4.8555-1.7578 6.2695-5.2227 7.0742-17.301 18.012-43.949 27.289-45.137-0.76953-0.007813-42.32-16.004-81.375-22.758-2.7383-0.44531-5.3984-0.67578-7.9648-0.71484z" fill="#854f82"/>
<path d="m650.18 166.82c-60.566 27.598-27.105 24.57 11.418 22.66 1.7812-2.3164-0.42578-5.5742-0.90625-8.1055-1.9492-5.5078-4.9844-10.621-8.2852-15.227-0.74219 0.22656-1.4844 0.44922-2.2266 0.67188z" fill="#854f82"/>
<path d="m618.23 199.23c-25.184 2.0469-31.434-0.46094-27.949 7.7344 3.4805 8.1953 25.965 17.234 41.141 9.8945 15.176-7.3359 13.809-18.789-13.191-17.629z" fill="#854f82"/>
<path d="m611.7 199.63c-0.22656-3.6797 2.5742-6.8516 6.2539-7.0781 3.6836-0.23047 6.8555 2.5703 7.082 6.25 0.23047 3.6758-2.5703 6.8477-6.25 7.0781-3.6836 0.22656-6.8555-2.5742-7.0859-6.25z" fill-rule="evenodd"/>
<path d="m650.18 166.82c-60.566 27.598-27.105 24.57 11.418 22.66 1.7812-2.3164-0.42578-5.5742-0.90625-8.1055-1.9492-5.5078-4.9844-10.621-8.2852-15.227-0.74219 0.22656-1.4844 0.44922-2.2266 0.67188z" fill="#854f82"/>
<path d="m637.23 155.55c-28.918-15.16-45.461-15.105-41.211-9.0391 4.2539 6.0664 11.473 20.57 20.785 18.852 9.3086-1.7188 26.082-6.7891 20.426-9.8125z" fill="#854f82"/>
<path d="m480.91 173.84c-0.99219 1.5859-2.0703 3.3047-2.0508 5.2422 3.5 1.1016 7.3867 0.12109 10.898 0.14062 0.93359-0.21094 4.9297-0.19531 2.8711-1.2422-3.3828-2.2188-6.9141-4.3711-10.871-5.3984-0.28125 0.42188-0.5625 0.83984-0.84766 1.2578z" fill="#854f82"/>
<path d="m708.55 392.34c22.633-40.848 11.27-52.27 5.6016-56.031-5.6641-3.7617-8.6484-4.3789-8.6484-4.3789s11.484 1.8672 24.043 10.801c12.559 8.9375 15.289 12.551 4.0781 23.754-11.211 11.207-25.074 25.855-25.074 25.855z" fill="#854f82"/>
<path d="m704.34 331.97c-58.359-9.1602-100.06 28.883-98.133 48.988 2.4844 25.988 44.371 23.289 63.316 20.492 14.586-2.1562 10.641 0.92578 10.641 0.92578s-49.484 7.2461-42.805-15.469c6.4336-23.129 80.891-52.879 66.98-54.938z" fill="#854f82"/>
<path d="m688.99 412.73c-51-7.0625-47.809 7.4922-43.203 19.906 3.8828 10.473 12.312 21.391 19.461 24.527 11.562 5.0664 9.0078 1.6992 9.0078 1.6992s-12.121-6.8555-15.621-22.551c-4.3438-19.484 23.691-16.238 35.707-16.348 30.922-0.28516 17.762-4.0078-5.3516-7.2344z" fill="#854f82"/>
<path d="m722.43 418.96c28.395-2.0352 31.949-0.09375 31.176 10.043-1.0586 13.84-24.812 26.469-26.93 24.254 0 0 17.762-19.828 16.043-26.484-1.8047-7.0039-19.918-8.0664-20.289-7.8125z" fill="#854f82"/>
<path d="m294 125.66c-15.125 32.934 23.926 83.516 23.926 83.516s-79.148-61.176-23.926-83.516z" fill="#ba78ab"/>
<path d="m424.28 119.73c-39.488 22.039 11.047 71.496 11.047 71.496s-70.988-58.941-11.047-71.496z" fill="#ba78ab"/>
<path d="m545.3 108.39c-14.086 6.6484-6.6758 19.77-6.6758 19.77s-16.137-16.188 6.6758-19.77z" fill="#ba78ab"/>
<path d="m44.906 170.6c-22.066 82.457 41.648 117.59 41.648 117.59l1.0469 47.945c-4.8125 1.8047-125.73-77.086-42.695-165.54z" fill="#ba78ab"/>
<path d="m769.48 317.4c30.531 58.184 0.71094 109.55 0.71094 109.55s12.375-47.164-17.539-80.535z" fill="#a95798"/>
<path d="m703.59 234.29c5.9336 35.645-11.641 57.27-30.531 78.105 13.863-7.4297 28.688-18.281 40.414-40.621-0.69141-13.758-2.9297-26.762-9.8828-37.484z" fill="#a95798"/>
<path d="m672.46 196.06c12.629 9.2773 19.527 15.926 27.285 32.379-15.41-19.648-20.641-31.199-42.074-5.043 5.9258-8.918 14.453-17.32 14.789-27.336z" fill="#a95798"/>
<path d="m719.43 276.47c-15.078 23.062-24.543 30.867-24.543 30.867 17.129-7.6211 33.176-18.379 54.355-14.27-8.1523-6.6445-16.754-13.012-29.812-16.598z" fill="#a95798"/>
<path d="m179.48 326.3c52.035-9.4219 64.473-20.742 64.473-20.742 44.57 24.316 94.531 47.891 158.71 69.496-146.59-38.672-107.72-37.645-223.18-48.754z" fill="#854f82"/>
<path d="m139.18 194.26c41.734-14.969 63.531-33.559 66.262-57.844 0 0 24.816 42.785-66.262 57.844z" fill="#ba78ab"/>
<path d="m383.59 135.36c1.3242 48.613 41.676 61.75 48.316 72.23 4 6.3125-9.5195 12.363-16.789 20.344-4.7969 5.2656 0.54688 15.316-10.98 12.805-28.984-6.3164-86.582-59.641-77.387-100.11 9.1914-40.469 56.211-28.379 56.84-5.2695z" fill="#e69cbf"/>
<path d="m355.94 114.09c-12.258 0.15234-24.879 7.5742-29.188 26.543-6.0625 26.684 2.5938 33.477 14.711 49.902-10.352-18.52-16.301-24.113-10.926-47.777 6.3398-27.898 32.559-30.879 49.828-17.035-4.8555-7.1172-14.52-11.754-24.426-11.633z" fill="#fff"/>
<path d="m469.99 109.99c36.445-5.4219 43.844 0.82422 46.863 8.0938 3.0156 7.2734 6.5078 9.0859-10.812 13.426-17.32 4.3359-33.977 16.039-37.34 24.578-3.3672 8.5391-51.996-29.082 1.2891-46.098z" fill="#e69cbf"/>
<path d="m566.54 107.73c-10.219 5.6211-8.7266 8.6172-1.5703 10.531 0.023438-1.6914 2.2031-3.8398 7.3047-6.6484 24.32-0.27344 44.133 7.4844 54.547 13.559-7.0391-5.8477-30.223-17.781-60.281-17.441z" fill="#fff"/>
<path d="m580.33 201.64c-26.148 1.1055-25.328 4.8203-27.141 13.648-1.8086 8.8242-2.332 8.8906-2.332 8.8906s11.723-19.41 29.473-22.539z" fill="#854f82"/>
<path d="m579.62 195.13c3.6641-0.39844 6.9648 2.25 7.3633 5.9141 0.39844 3.6641-2.25 6.9648-5.918 7.3633-3.668 0.39844-6.9648-2.25-7.3633-5.9141-0.40234-3.6641 2.25-6.9648 5.918-7.3633z" fill-rule="evenodd"/>
<path d="m328.68 119.99c0-2.4844 1.832-4.5352 4.0703-4.5352 2.2383 0 4.0391 2.0508 4.0391 4.5352 0 2.5156-1.8008 4.5352-4.0391 4.5352-2.2383 0-4.0703-2.0195-4.0703-4.5352" fill="#fff" fill-rule="evenodd"/>
<path d="m252.1 131.16c0-1.0625 0.78516-1.9414 1.7422-1.9414 0.95703 0 1.7266 0.87891 1.7266 1.9414 0 1.0742-0.76953 1.9414-1.7266 1.9414-0.95703 0-1.7422-0.86719-1.7422-1.9414" fill="#fff" fill-rule="evenodd"/>
<path d="m462.79 119.73c0-2.1992 1.6211-4.0117 3.6016-4.0117s3.5742 1.8125 3.5742 4.0117c0 2.2266-1.5938 4.0117-3.5742 4.0117s-3.6016-1.7852-3.6016-4.0117" fill="#fff" fill-rule="evenodd"/>
<path d="m571.27 114.23c0-1.668 1.2305-3.0469 2.7344-3.0469s2.7148 1.3789 2.7148 3.0469c0 1.6914-1.2109 3.0469-2.7148 3.0469s-2.7344-1.3555-2.7344-3.0469" fill="#fff" fill-rule="evenodd"/>
<path d="m579.71 112.96c0-0.76562 0.5625-1.3945 1.25-1.3945s1.2422 0.62891 1.2422 1.3945c0 0.76953-0.55469 1.3906-1.2422 1.3906s-1.25-0.62109-1.25-1.3906" fill="#fff" fill-rule="evenodd"/>
<path d="m492.26 107.95c-5.8672 0.0625-13.16 0.68359-22.27 2.0391-31.074 9.9219-27.48 26.84-18.426 37.539-6.8594-10.625-6.9141-25.18 20.992-34.094 27.785-4.1289 38.676-1.4766 43.625 3.2383-2.5312-4.8516-7.8672-8.8945-23.922-8.7227z" fill="#fff"/>
<path d="m566.25 253.62c49.242 11.375 77.887-17.219 96.273-20.91 6.793-1.3633-0.28516 18.586 9.625 19.535 48.957 4.6836-0.050782 51.227-24.66 64.34-24.223 12.91-107.93 8.0703-114.82-9.6641-4.6367-11.93 20.379-54.738 33.578-53.301z" fill="#b977ab"/>
<path d="m754.65 375.44c6.9336 2.1211 12.551 26.879 3.3516 30.754-9.1367 0.26562-44.863 3.375-35.668-4.2734 9.0547-7.5273 28.242-27.727 32.316-26.48z" fill="#854f82"/>
<path d="m650.18 166.82c-60.566 27.598-27.105 24.57 11.418 22.66 1.7812-2.3164-0.42578-5.5742-0.90625-8.1055-1.9492-5.5078-4.9844-10.621-8.2852-15.227-0.74219 0.22656-1.4844 0.44922-2.2266 0.67188z" fill="#854f82"/>
<path d="m265.77 124.25c-20.16 27.637 3.4766 51.16 26.512 71.766-0.078125-0.16016-69.824-42.586-26.512-71.766z" fill="#fff"/>
<path d="m255.88 128.4c0-0.52734 0.39062-0.96094 0.86328-0.96094 0.47656 0 0.85938 0.43359 0.85938 0.96094 0 0.53125-0.38281 0.96094-0.85938 0.96094-0.47266 0-0.86328-0.42969-0.86328-0.96094" fill="#fff" fill-rule="evenodd"/>
<path transform="matrix(3.5613 0 0 3.5593 1.3811 12.125)" d="m139.26 40.956c9.2443 14.233 25.798 11.893 28.423 7.5276 2.6259-4.3647 0.22156-11.204-4.3567-11.272-4.5772-0.068045-3.9991 0.24584-3.9914 4.5754 0.15795 3.8928 0.20511 4.503 0.20511 4.503" fill="none" stroke="#000" stroke-width="1.35"/>
<path d="m574.65 167.21-4.582 16.145-6.9766-15.266c3.6016 2.25 8.2695 1.8789 11.559-0.87891z" fill-rule="evenodd"/>
<path transform="matrix(3.5613 0 0 3.5593 1.3811 12.125)" d="m53.429 60.768 9.7598 7.712" fill="none" stroke="#000" stroke-width="2.95"/>
<path d="m218.43 233.36 19.164 31.27-34.867-11.41c8.9492-2.4531 15.27-10.492 15.703-19.859z" fill-rule="evenodd"/>
<path transform="matrix(3.5613 0 0 3.5593 1.3811 12.125)" d="m72.349 74.752c24.29 16.008 45.47 25.984 65.444 28.888" fill="none" stroke="#000" stroke-width="2.75"/>
<path d="m475.15 366.57 30.066 16.293-33.465 7.0586c6.0781-6.1562 7.4219-15.59 3.3984-23.352z" fill-rule="evenodd"/>
<path transform="matrix(3.5613 0 0 3.5593 1.3811 12.125)" d="m151.33 105.28c26.14 1.1524 29.477-1.6901 42.542-10.418" fill="none" stroke="#000" stroke-width="2.55"/>
<path d="m671.19 350.33 30.828-7.4297-18.668 25.621c0.36328-8.0078-4.5703-15.34-12.16-18.191z" fill-rule="evenodd"/>
<path transform="matrix(3.5613 0 0 3.5593 1.3811 12.125)" d="m195.47 115.1c-0.82374 0.4796-1.6475 0.93396-2.4712 1.3609m-1.6826 0.84067c-1.7407 0.83409-3.4759 1.5562-5.2013 2.1807m-1.7791 0.6102c-1.8306 0.59484-3.647 1.0821-5.4437 1.4772m-1.8427 0.37644c-1.8888 0.35339-3.7523 0.6113-5.5852 0.78909m-1.8745 0.15694c-1.9206 0.13389-3.8028 0.18548-5.6389 0.1767m-1.88-0.028534c-1.9392-0.051582-3.8203-0.16353-5.6334-0.30949m-1.8734-0.16462c-1.9634-0.18548-3.8379-0.40168-5.6093-0.6113m-1.8679-0.22169c-0.97071-0.11414-1.9063-0.22279-2.8036-0.31717" fill="none" stroke="#000" stroke-width="2.55"/>
<path d="m531.45 457.02-28.453-14 30.75-7.7578c-5.4062 5.9258-6.3086 14.715-2.2969 21.758z" fill-rule="evenodd"/>
<path transform="matrix(3.5613 0 0 3.5593 1.3811 12.125)" d="m135.39 120.8c-1.1122-0.21401-2.2167-0.43131-3.3114-0.65081m-2.2047-0.44777c-2.242-0.45985-4.4433-0.93067-6.6008-1.4059m-2.1948-0.49058c-2.242-0.50594-4.4346-1.0174-6.5734-1.5321m-2.186-0.53228c-2.2442-0.55094-4.4269-1.1041-6.5427-1.655m-2.1751-0.57289c-2.2529-0.59813-4.4258-1.1919-6.5109-1.7768m-2.1652-0.6124c-2.2727-0.64971-4.4346-1.2852-6.4758-1.8997m-2.1531-0.6541c-2.3231-0.71117-4.4741-1.3905-6.4374-2.0238m-2.14-0.6969c-2.5074-0.82311-4.6517-1.5529-6.3946-2.1566m-2.1235-0.7419c-1.8328-0.64422-2.9231-1.0404-3.1864-1.1107" fill="none" stroke="#000" stroke-width="2.75"/>
<path d="m251.62 390.92-27.953-19.699 34.062-3.0938c-6.7578 5.4023-9.1953 14.613-6.1094 22.793z" fill-rule="evenodd"/>
<path transform="matrix(3.5613 0 0 3.5593 1.3811 12.125)" d="m158.35 53.251c-0.001097 0.40058-0.031809 0.76714-0.092136 1.103m-0.19304 0.71117c-0.27531 0.73641-0.75573 1.2621-1.4577 1.587m-0.6965 0.24145c-0.61204 0.15036-1.3436 0.19755-2.2025 0.14377m-0.73489-0.065849c-0.34441-0.040607-0.70747-0.094384-1.0881-0.16133-0.35099-0.06146-0.71734-0.1295-1.0958-0.20194m-0.72502-0.14158c-0.70418-0.14048-1.4369-0.29303-2.1685-0.45107m-0.72063-0.15804c-0.73928-0.16243-1.4698-0.32705-2.1608-0.48619m-0.71953-0.16682c-0.80728-0.18767-1.5433-0.36327-2.1553-0.51033m-0.71734-0.1734c-0.67347-0.16462-1.0749-0.26559-1.0749-0.26559" fill="none" stroke="#000" stroke-width="1.35"/>
<path d="m508.77 213.12-13.879-9.4453 16.695-1.793c-3.2734 2.707-4.3984 7.2461-2.8164 11.238z" fill-rule="evenodd"/>
<path d="m183.24 160.84c-2.832 3.9727-7.0586 4.5547-10.156 7.1211-3.1016 2.5664-5.9375 6.5391-9.8789 8.5078-9.3242 4.125-19.48 4.0703-29.066 6.8242 3.9453 1.5938 11.574-0.15234 16.629-0.11328 5.0664 0.019531 9.6016-2.7383 13.547-4.707 7.9023-3.9531 15.238-10.68 22.297-15.23 0.28125-2.1758-0.28125-1.3906-1.1211-1.9883" fill="#ba78ab" fill-rule="evenodd"/>
<path d="m134.83 7.375c0.625 0.44531 0.78516 1.3047 0.33984 1.9297-0.44531 0.62109-1.3242 0.76562-1.9453 0.32422s-0.75391-1.3086-0.30859-1.9297c0.44531-0.625 1.293-0.76562 1.9141-0.32422" fill="#fff" fill-rule="evenodd"/>
<path d="m195.98 123.37s12.691 19.668-13.312 42.34c-27.559 22.887-87.875 46.379-98 15.258-11.68-30.926 38.914-46.711 53.305-55.043 14.082-9.9023 40.707-33.457 58.008-2.5547" fill="#d4b878" fill-rule="evenodd"/>
<path d="m179.26 22.898s-26.754-1.8008-42.258-11.516c-15.5-9.7188-14.035 9.8789-5.6797 15.828 0 0 9.625 4.207 8.957 13.008-1.6016 8.1328-5.0664 14.969-5.0664 14.969s-21.492 4.5742-24.484 38.25c-4.5195 33.883-9.082 71.742-9.082 71.742s13.316 10.805 21.781-3.043c8.4766-13.867-2.5273-49.531 1.9141-63.621 4.4258-14.074 16.988-35.605 32.184-27.434 15.207 8.1523 18.094 47.34 13.652 61.43 0 0 9.3086 6.6289 14.973-5.2656 7.2109-12.09 3.1133-57.441-11.453-66.492-7.1328-3.7539-13.027-9.2773-11.438-13.445 0.64063-4.8438 0.35156-6.375 11.238-7.8984 10.891-1.5195 24.648-12.949 4.7617-16.512" fill="#d4b878" fill-rule="evenodd"/>
<path transform="matrix(-3.3421 4.6872 -4.6899 -3.3402 509.56 2570.5)" d="m-306.54 300.16c-0.75036-0.59803-1.4963-0.79691-1.8711-1.1953-1.6841-0.5973-4.6804-1.3906-5.9889-3.1834" fill="none" stroke="#474c4c" stroke-linecap="round" stroke-linejoin="round" stroke-miterlimit="10" stroke-width=".375"/>
<path transform="matrix(-3.3421 4.6872 -4.6899 -3.3402 509.56 2570.5)" d="m-315.19 292.87c6.19e-4 -0.39441 0.18794-1.1876 0.56313-1.7814 0 0 1.5034-3.7692 7.3244-2.3827 6.0076 1.59 15.394 7.7344 12.015 12.297-1.6914 2.578-4.6953 2.1799-7.324 0.98808" fill="none" stroke="#474c4c" stroke-linecap="round" stroke-linejoin="round" stroke-miterlimit="10" stroke-width=".375"/>
<path transform="matrix(-3.3421 4.6872 -4.6899 -3.3402 509.56 2570.5)" d="m-327.18 303.59s2.4413 3.9649 2.6291 7.1369c0.18686 3.1718 2.8122 0.98861 2.8119-0.79282 0 0-0.37468-1.7853 0.93788-2.5782 1.3121-0.59357 2.6285-0.79289 2.6285-0.79289s2.8131 2.578 7.8791-0.39503c5.25-2.7768 11.067-5.9491 11.067-5.9491s0.18684-2.9725-2.6255-2.7733c-2.8163 0.19958-6.7536 5.3517-9.1948 6.1444-2.4374 0.79328-6.7499 1.1878-7.1249-1.7849-0.37898-2.9725 4.8749-7.332 7.3161-8.1247 0 0-1.21e-4 -1.9847-2.2539-1.5864-2.4373 0.19934-8.4413 5.3517-8.254 8.3242 0.18765 1.3872 1.39e-4 2.7777-0.74981 2.9731-0.74992 0.39782-0.93745 0.59309-2.2501-0.7928-1.3125-1.3868-4.3161-2.1799-2.8161 0.99155zm0 0" fill="none" stroke="#474c4c" stroke-linecap="round" stroke-linejoin="round" stroke-miterlimit="10" stroke-width=".375"/>
<path d="m176.11 35.207c1.9062-2.6719 5.957-2.4648 6.9492-5.7891-4.6719-3.3281-8.4453-1.9883-13.449-2.8711-4.7109 0.67578-10.648-0.875-15.012-2.6602-5.0039-0.88281-9.3828-2.6484-13.117-5.3086-3.4297-1.1211-9.3242-6.6445-12.172-4.668 4.2656 13.777 37.703 24.176 49.641 19.289" fill="#e6ca94" fill-rule="evenodd"/>
<path d="m183.13 82.473c-1.2695-10.074-10.898-22.176-21.145-25.551-8.6953-3.5703-24.836-4.6055-28.543 4.543 3.0938 3.5273 8.0547 0.51953 12.727-0.10156 4.043 0.25781 8.9883 1.1836 13.965 2.1055 8.375 2.0469 15.832 7.3555 20.5 14.602" fill="#e6ca94" fill-rule="evenodd"/>
<path d="m193.09 128.16c-3.125 8.375-5.9102 18.289-14.051 25.715-7.5469 6.5547-15.059 13.102-23.852 17.414-5.3477 1.4922-10.367 4.543-15.715 6.0352-3.7539 1.2734-11.613 2.3008-13.492 4.9375-3.7461 5.2539 4.7344 7.3477 9.4531 6.7344 4.7188-0.61719 11.305-3.8477 15.699-6.0195 11.012-5.4102 22.293-13.25 32.012-20.875 4.0859-3.7148 10.992-9.3711 12.219-15.121 0.92969-3.3164 1.2031-13.695-0.058593-15.918" fill="#e6ca94" fill-rule="evenodd"/>
<path d="m186.64 121.02c-0.96094 3.3203-6.043 14.359-11.887 8.8438-2.7852-1.9844 2.168-1.1055 3.7305-1.3203 2.1992-1.1094 3.7422-1.3359 5.0078-3.1133 0.625-0.875 0.96484-3.2891 2.5195-3.5312" fill="#e6ca94" fill-rule="evenodd"/>
<path d="m123.78 155.98c-0.94531 3.3047-4.0781 7.6953-7.8086 9.0156-2.7969 1.9844-7.75 1.1055-10.535-0.87891-0.91406-0.65234-3.0742-3.5117-0.59766-3.0742 2.1914-1.0898 4.0391 0.22656 6.5156 0.66406 2.4609 0.42578 3.7148-1.332 5.9023-2.4219 1.25-1.7578 3.7578-5.2734 4.9805-3.0781" fill="#e6ca94" fill-rule="evenodd"/>
<path transform="matrix(-3.3421 4.6872 -4.6899 -3.3402 509.56 2570.5)" d="m-314.28 290.65s3.3867-2.9765 11.097 1.7892c7.9069 4.5627 8.2815 6.348 8.0943 8.1364" fill="none" stroke="#474c4c" stroke-linecap="round" stroke-linejoin="round" stroke-miterlimit="10" stroke-width=".375"/>
<path d="m120.16 161.03c-1.5938 4.2461-7.625 10.691-13.008 4.1797 1.9062 1.3555 4.4492 1.8164 6.9766 2.2617 3.1719-0.41797 2.5352-3.5508 5.7188-3.9883" fill="#fff" fill-rule="evenodd"/>
<path d="m196.47 136.95c-1.2383 1.7383-1.5039 4.1992-2.1289 5.0781-1.8672 2.6211-2.7773 5.9453-4.6562 8.582-1.8672 2.6211-4.707 4.5469-6.9492 5.5977-1.6133 0.17578-2.8672 1.9336-4.4844 2.1094 2.2422-1.0547 4.8477-0.52344 6.4453-0.71094 2.6055 0.53125 2.8555-1.9141 5.0977-2.9688 1.8672-2.6172 3.3867-6.8359 5.8789-10.332 1.2539-1.7578 0.89062-3.3438 1.1719-5.793" fill="#fff" fill-rule="evenodd"/>
<path d="m183.58 30.859c2.5078 0.4375 1.9062-2.6719-0.60156-3.1055-2.4961-0.45312-7.2031 0.22656-10.359 0.65625-5.0156-0.86719-10.66-0.85547-15.664-1.7422-3.4258-1.1172-6.8867-2.2266-8.7578-3.5586-2.5078-0.43359-5.0039-0.88672-6.8711-2.2188 2.4961 0.45312 4.3633 1.7852 6.8711 2.2188 2.8047 1.9961 6.2461 3.0938 9.6953 4.2266 3.4414 1.0977 8.4453 1.9844 12.516 2.2031 2.5078 0.43359 5.6602 0.003907 8.168 0.4375 2.5078 0.43359 3.4414 1.0977 5.0039 0.88281" fill="#fff" fill-rule="evenodd"/>
<path d="m147.76 21.668c0.69531 0.49609 0.85938 1.4648 0.36328 2.1641-0.49609 0.69531-1.4688 0.85938-2.168 0.36328-0.69531-0.49609-0.85938-1.4688-0.36328-2.1641 0.49609-0.69922 1.4688-0.85938 2.168-0.36328" fill="#fff" fill-rule="evenodd"/>
<path d="m143.56 19.535c0.46094 0.32422 0.53125 1.0391 0.14062 1.5859-0.37891 0.53125-1.0781 0.69922-1.5352 0.37109-0.45703-0.32422-0.53125-1.0391-0.15234-1.5703 0.39062-0.55078 1.0898-0.71484 1.5469-0.38672" fill="#fff" fill-rule="evenodd"/>
<path d="m181.52 73.426c-3.1172-3.5742-6.2344-7.1445-9.9883-9.8203-4.6914-3.3398-10.02-5.7812-15.664-5.7695-5.9688-1.5469-10.695-0.88281-16.996 0.011718-3.7734 1.3438-5.6953 4.0352-10.125 6.2617 7.9102-5.1328 18-7.3906 27.418-4.7109 5.0195 0.89844 9.3984 2.6641 13.152 5.3359 2.5273 0.44922 4.3945 1.7773 6.2656 3.1094 0.95312 0.67969 2.8203 2.0078 4.0508 4.2383" fill="#fff" fill-rule="evenodd"/>
<path d="m177.45 67.82c0.62109 0.44531 0.84375 1.1797 0.51563 1.6406-0.33984 0.47266-1.1055 0.50781-1.7305 0.0625-0.62109-0.44141-0.86328-1.1914-0.52344-1.668 0.32812-0.46094 1.1172-0.47656 1.7383-0.035157" fill="#fff" fill-rule="evenodd"/>
<path d="m178.91 71.43c0.84375 0.59766 1.2773 1.4609 0.9375 1.9375-0.32422 0.45703-1.2969 0.34766-2.1406-0.25391-0.85938-0.61328-1.2812-1.4922-0.95703-1.9531 0.33984-0.47266 1.2969-0.34375 2.1602 0.26953" fill="#fff" fill-rule="evenodd"/>
<path d="m182.95 158.27c0.93359 0.66406 1.1484 1.9492 0.48438 2.8828-0.66797 0.93359-1.9531 1.1523-2.8867 0.48437-0.9375-0.66406-1.1523-1.9492-0.48438-2.8828 0.66406-0.93359 1.9531-1.1523 2.8867-0.48438" fill="#fff" fill-rule="evenodd"/>
<path d="m179.45 132.85c0.76953 0.54688 0.95313 1.6445 0.40234 2.4141-0.5625 0.78906-1.6445 0.95312-2.4141 0.40625-0.78906-0.5625-0.96875-1.6289-0.40625-2.4141 0.54688-0.76953 1.6289-0.96875 2.418-0.40625" fill="#fff" fill-rule="evenodd"/>
<path d="m178.55 136.47c0.47656 0.33594 0.57031 0.98438 0.24219 1.4414-0.32812 0.45703-0.96484 0.58203-1.4453 0.24219-0.45703-0.32422-0.56641-0.98438-0.24219-1.4414 0.32812-0.46094 0.98438-0.57031 1.4453-0.24219" fill="#fff" fill-rule="evenodd"/>
<path d="m113.84 167.13c0.62109 0.44531 0.80469 1.2383 0.41406 1.7852-0.39453 0.55078-1.1992 0.63672-1.8242 0.19141-0.625-0.44141-0.80469-1.2344-0.41406-1.7852 0.39062-0.54687 1.1992-0.63281 1.8242-0.19141" fill="#fff" fill-rule="evenodd"/>
<path d="m113.45 170.66c0.45703 0.32812 0.66016 0.85938 0.4375 1.168-0.22266 0.3125-0.78906 0.29297-1.2461-0.03125-0.47656-0.33984-0.66016-0.85938-0.44141-1.168 0.22266-0.3125 0.77344-0.30859 1.25 0.03125" fill="#fff" fill-rule="evenodd"/>
<path d="m187.14 26.828c-4.6367-3.3008-11.191-3.9102-15.887-3.168-9.0625-1.043-18.121-2.0586-25.246-5.7773 2.4883 0.41797 4.3398 1.7383 5.2734 2.4023 3.4258 1.0859 5.2773 2.4062 7.7656 2.8242 4.0781 0.17188 7.5 1.2578 11.566 1.4453 4.9922 0.82422 9.9727 1.6641 15.887 3.1719" fill="#b89e66" fill-rule="evenodd"/>
<path d="m141.23 34.191c0.95312 0.67578 1.957 5.3125 1.3281 6.1914-0.28516 2.418 0.039062 3.9766-1.1992 5.7148-0.30859 2.4062-2.1602 5.0039-2.4492 7.4219 2.5195 0.49609 4.7109-0.5625 6.2773-0.74609 1.582-0.19922 7.582 1.4531 7.8711-0.96484-0.32812-1.5586-3.8086-2.7148-4.7617-3.3945-2.8594-2.0352-1.6172-3.7734-1.9453-5.332 0.28906-2.418 0.59375-4.8203 2.7695-5.8945 1.2383-1.7422 1.8672-2.6211-0.64844-3.0859-1.9062-1.3555-3.4727-1.1719-5.375-2.5312-1.582 0.19922-1.9062-1.3555-3.4844-1.1562-0.61719 0.86328 1.2891 2.2188 2.2422 2.8984" fill="#b89e66" fill-rule="evenodd"/>
<path d="m106.64 152.25c0.625-0.87891 1.25-5.707 0.92969-7.2305 0.33594-2.4102 0.33594-6.3594 0.64062-8.7656 1.2539-5.707 0.94922-11.168 2.1992-16.875 0.625-4.8281 1.2539-9.625 1.8789-14.453 0.93359-3.2852 0.93359-7.2305 1.8945-10.52 0.30859-2.4062 1.5469-8.0938 0.92969-11.184-0.92969 7.2344-0.023437 15.801-0.95312 23.035-0.32422 6.3398-1.2539 13.574-1.5898 19.934-1.2383 5.6875-1.8633 10.516-3.1328 16.207-0.93359 3.2852-2.4805 7.4297-2.7969 9.8516" fill="#b89e66" fill-rule="evenodd"/>
<path d="m177.05 123.11c-0.62891-3.0703 0.30469-6.3516 0.30859-10.27-0.003906-3.9492-0.63281-7.0195-1.582-11.617 0.003906-7.8672-2.4922-20.137-8.0938-28.047 3.7188 2.6484 5.9102 9.457 6.8398 14.039 2.4961 4.4023 3.4297 8.9844 4.3633 13.598 0.64453 7.0039 1.5781 15.535-1.2109 21.418" fill="#b89e66" fill-rule="evenodd"/>
<path d="m171.18 126.97c-0.625 0.875-1.8789 2.6367-1.5898 4.168 1.1875 2.168 2.0859 2.8086 3.8984 4.1016-5.5078 0.050781-8.1523-5.8086-2.9336-7.3906" fill="#b89e66" fill-rule="evenodd"/>
<path d="m100.62 160.69c-3.4336 4.8164 0.35937 7.5156 5.3164 8.6172-1.5273 0.12891-5.5312-0.29688-5.9102-1.7812-2.8398-2.0195-0.73828-2.9531-1.1172-4.4375" fill="#b89e66" fill-rule="evenodd"/>
<path d="m171.59 111.16c-9.0469 2.8086-17.477 8.7031-25.277 13.719-3.75 1.3047-7.1914 4.1562-10.004 6.125-2.1758 1.0742-3.7383 1.2891-5.2969 1.5039-2.8164 1.9688-1.2539 1.7578-0.64062 4.8438 8.7383-4.3516 17.168-10.246 25.918-14.613 3.4297-2.832 5.3086-5.4688 9.0586-6.7734 1.5586-0.21484 7.8047-1.0664 6.2422-4.8047" fill="#b89e66" fill-rule="evenodd"/>
<path d="m101.14 148.34c-5.8008 3.9883-14.508 9.9609-14.406 18.148 2.8477-6.0859 9.5977-13.457 15.395-17.441l-0.98828-0.70703" fill="#b89e66" fill-rule="evenodd"/>
<path d="m164.87 130.12c-3.1719 8.3984-21.566 4.6016-23.801 13.664-0.62891 0.87891 1.5234 7.7383 1.832 9.2852-0.042969 3.9727-5.6406 3.957-0.69531 8.8359 8.3906 5.9766 39.41-11.879 24.191-24.047" fill="#d9bd85" fill-rule="evenodd"/>
<path transform="matrix(3.5613 0 0 3.5593 1.3811 12.125)" d="m63.518 13.27h-21.608" fill="none" stroke="#000"/>
<path d="m143.66 59.355c0-3.9297 3.1914-7.1211 7.125-7.1211 3.9297 0 7.1211 3.1914 7.1211 7.1211 0 3.9297-3.1914 7.1172-7.1211 7.1172-3.9336 0-7.125-3.1875-7.125-7.1172z" fill-rule="evenodd"/>
<path transform="matrix(3.5613 0 0 3.5593 1.3811 12.125)" d="m20.879 103.71 24.791-24.792" fill="none" stroke="#000"/>
<path d="m168.96 288.07c2.7812 2.7773 2.7812 7.2891 0 10.066s-7.293 2.7773-10.074 0c-2.7773-2.7773-2.7773-7.2891 0-10.066 2.7812-2.7773 7.293-2.7773 10.074 0z" fill-rule="evenodd"/>
<path transform="matrix(3.5613 0 0 3.5593 1.3811 12.125)" d="m53.844 120.44 12.653-12.654" fill="none" stroke="#000"/>
<path d="m243.14 390.82c2.7812 2.7773 2.7812 7.2891 0 10.066-2.7812 2.7812-7.293 2.7812-10.074 0-2.7773-2.7773-2.7773-7.2891 0-10.066 2.7812-2.7773 7.293-2.7773 10.074 0z" fill-rule="evenodd"/>
<path transform="matrix(3.5613 0 0 3.5593 1.3811 12.125)" d="m203.7 46.822h-21.428" fill="none" stroke="#000"/>
<path d="m643.54 178.78c0-3.9297 3.1875-7.1211 7.1211-7.1211 3.9297 0 7.1211 3.1914 7.1211 7.1211 0 3.9297-3.1914 7.1172-7.1211 7.1172-3.9336 0-7.1211-3.1875-7.1211-7.1172z" fill-rule="evenodd"/>
<path transform="matrix(3.5613 0 0 3.5593 1.3811 12.125)" d="m208.94 53.248v52.221" fill="none" stroke="#000"/>
<path d="m745.5 394.49c-3.9336 0-7.125-3.1914-7.125-7.1211 0-3.9297 3.1914-7.1172 7.125-7.1172 3.9297 0 7.1211 3.1875 7.1211 7.1172 0 3.9297-3.1914 7.1211-7.1211 7.1211z" fill-rule="evenodd"/>
<path transform="matrix(3.5613 0 0 3.5593 1.3811 12.125)" d="m203.7 22.758-39.846 22.872" fill="none" stroke="#000"/>
<path d="m578.87 178.01c-1.957-3.4102-0.78125-7.7617 2.6289-9.7188 3.4102-1.957 7.7656-0.77734 9.7227 2.6328 1.9609 3.4062 0.78125 7.7578-2.6289 9.7148s-7.7656 0.77734-9.7227-2.6289z" fill-rule="evenodd"/>
<g>
<use x="733.167969" y="101.890405" xlink:href="#e"/>
</g>
<g>
<use x="236.554687" y="70.038842" xlink:href="#d"/>
</g>
<g>
<use x="49.203125" y="402.034936" xlink:href="#c"/>
</g>
<g>
<use x="734.949219" y="189.460717" xlink:href="#b"/>
</g>
<g>
<use x="164.625" y="465.003686" xlink:href="#a"/>
</g>
</svg>
