<?xml version="1.0" encoding="UTF-8"?>
<svg width="800px" height="278px" version="1.1" viewBox="0 0 800 278" xmlns="http://www.w3.org/2000/svg" xmlns:xlink="http://www.w3.org/1999/xlink">
<defs>
<symbol id="d" overflow="visible">
<path d="m5.6719-8.9688c-0.88672 0-1.5898 0.35156-2.1094 1.0469-0.52344 0.69922-0.78125 1.6523-0.78125 2.8594 0 1.2188 0.25391 2.1797 0.76562 2.875 0.51953 0.6875 1.2266 1.0312 2.125 1.0312 0.89453 0 1.5977-0.34766 2.1094-1.0469 0.51953-0.69531 0.78125-1.6484 0.78125-2.8594 0-1.1953-0.26172-2.1445-0.78125-2.8438-0.51172-0.70703-1.2148-1.0625-2.1094-1.0625zm0-1.4219c1.457 0 2.5977 0.47656 3.4219 1.4219 0.82031 0.9375 1.2344 2.2422 1.2344 3.9062 0 1.6562-0.41406 2.9609-1.2344 3.9062-0.82422 0.94922-1.9648 1.4219-3.4219 1.4219-1.4492 0-2.5898-0.47266-3.4219-1.4219-0.82422-0.94531-1.2344-2.25-1.2344-3.9062 0-1.6641 0.41016-2.9688 1.2344-3.9062 0.83203-0.94531 1.9727-1.4219 3.4219-1.4219z"/>
</symbol>
<symbol id="k" overflow="visible">
<path d="m0.54688-10.141h1.7656l3.1719 8.5156 3.1719-8.5156h1.7656l-3.7969 10.141h-2.2656z"/>
</symbol>
<symbol id="p" overflow="visible">
<path d="m6.3594-5.0938c-1.3438 0-2.2773 0.15625-2.7969 0.46875-0.52344 0.30469-0.78125 0.82422-0.78125 1.5625 0 0.59375 0.19141 1.0703 0.57812 1.4219 0.39453 0.34375 0.92578 0.51562 1.5938 0.51562 0.92578 0 1.6641-0.32812 2.2188-0.98438 0.5625-0.65625 0.84375-1.5312 0.84375-2.625v-0.35938zm3.3281-0.6875v5.7812h-1.6719v-1.5469c-0.38672 0.625-0.86719 1.0859-1.4375 1.375-0.5625 0.28906-1.25 0.4375-2.0625 0.4375-1.043 0-1.8711-0.28906-2.4844-0.875-0.61719-0.58203-0.92188-1.3633-0.92188-2.3438 0-1.1328 0.37891-1.9922 1.1406-2.5781 0.76953-0.58203 1.9102-0.875 3.4219-0.875h2.3438v-0.15625c0-0.76953-0.25781-1.3633-0.76562-1.7812-0.5-0.41406-1.2031-0.625-2.1094-0.625-0.58594 0-1.1523 0.070312-1.7031 0.20312-0.54297 0.13672-1.0703 0.34375-1.5781 0.625v-1.5469c0.60156-0.22656 1.1914-0.39844 1.7656-0.51562 0.57031-0.125 1.1328-0.1875 1.6875-0.1875 1.457 0 2.5508 0.38281 3.2812 1.1406 0.72656 0.76172 1.0938 1.918 1.0938 3.4688z"/>
</symbol>
<symbol id="g" overflow="visible">
<path d="m1.75-14.094h1.6719v14.094h-1.6719z"/>
</symbol>
<symbol id="b" overflow="visible">
<path d="m10.422-5.4844v0.8125h-7.6562c0.070313 1.1484 0.41406 2.0234 1.0312 2.625 0.625 0.59375 1.4883 0.89062 2.5938 0.89062 0.63281 0 1.25-0.078125 1.8438-0.23438 0.60156-0.15625 1.2031-0.39062 1.7969-0.70312v1.5781c-0.59375 0.25-1.2109 0.44531-1.8438 0.57812-0.625 0.13281-1.2617 0.20312-1.9062 0.20312-1.6172 0-2.8984-0.46875-3.8438-1.4062-0.94922-0.94531-1.4219-2.2227-1.4219-3.8281 0-1.6641 0.44531-2.9844 1.3438-3.9531 0.90625-0.97656 2.1172-1.4688 3.6406-1.4688 1.3633 0 2.4414 0.44531 3.2344 1.3281 0.78906 0.875 1.1875 2.0703 1.1875 3.5781zm-1.6719-0.5c-0.011719-0.90625-0.26562-1.6289-0.76562-2.1719-0.49219-0.53906-1.1484-0.8125-1.9688-0.8125-0.92969 0-1.6719 0.26172-2.2344 0.78125-0.5625 0.52344-0.88672 1.2617-0.96875 2.2188z"/>
</symbol>
<symbol id="j" overflow="visible">
<path d="m8.2188-9.8438v1.5781c-0.48047-0.23828-0.97656-0.42188-1.4844-0.54688-0.5-0.125-1.0234-0.1875-1.5625-0.1875-0.82422 0-1.4453 0.13281-1.8594 0.39062-0.41797 0.25-0.625 0.63281-0.625 1.1406 0 0.38672 0.14453 0.6875 0.4375 0.90625 0.30078 0.21875 0.89844 0.42969 1.7969 0.625l0.5625 0.125c1.1875 0.26172 2.0234 0.625 2.5156 1.0938 0.5 0.46094 0.75 1.1016 0.75 1.9219 0 0.9375-0.375 1.6836-1.125 2.2344-0.74219 0.55469-1.7617 0.82812-3.0625 0.82812-0.54297 0-1.1094-0.054687-1.7031-0.15625-0.58594-0.10547-1.2031-0.26562-1.8594-0.48438v-1.7188c0.61328 0.32422 1.2188 0.57031 1.8125 0.73438 0.60156 0.15625 1.1953 0.23438 1.7812 0.23438 0.78906 0 1.3945-0.13281 1.8125-0.40625 0.42578-0.26953 0.64062-0.64844 0.64062-1.1406 0-0.44531-0.15625-0.78906-0.46875-1.0312-0.30469-0.25-0.96875-0.48438-2-0.70312l-0.57812-0.14062c-1.0312-0.21875-1.7773-0.55078-2.2344-1-0.46094-0.44531-0.6875-1.0664-0.6875-1.8594 0-0.94531 0.33594-1.6797 1.0156-2.2031 0.67578-0.51953 1.6328-0.78125 2.875-0.78125 0.61328 0 1.1914 0.046875 1.7344 0.14062 0.55078 0.09375 1.0547 0.23047 1.5156 0.40625z"/>
</symbol>
<symbol id="c" overflow="visible"></symbol>
<symbol id="y" overflow="visible">
<path d="m1.8125-13.516h7.7812v1.5312h-5.9375v3.9844h5.3594v1.5469h-5.3594v6.4531h-1.8438z"/>
</symbol>
<symbol id="a" overflow="visible">
<path d="m10.172-6.125v6.125h-1.6562v-6.0625c0-0.95703-0.1875-1.6758-0.5625-2.1562-0.375-0.47656-0.9375-0.71875-1.6875-0.71875-0.89844 0-1.6055 0.28906-2.125 0.85938-0.52344 0.57422-0.78125 1.3555-0.78125 2.3438v5.7344h-1.6719v-10.141h1.6719v1.5781c0.39453-0.61328 0.86328-1.0703 1.4062-1.375 0.53906-0.30078 1.1641-0.45312 1.875-0.45312 1.1641 0 2.0469 0.36719 2.6406 1.0938 0.59375 0.71875 0.89062 1.7773 0.89062 3.1719z"/>
</symbol>
<symbol id="f" overflow="visible">
<path d="m3.3906-13.016v2.875h3.4375v1.2969h-3.4375v5.5c0 0.83594 0.11328 1.3711 0.34375 1.6094 0.22656 0.23047 0.6875 0.34375 1.375 0.34375h1.7188v1.3906h-1.7188c-1.2812 0-2.168-0.23828-2.6562-0.71875-0.49219-0.47656-0.73438-1.3516-0.73438-2.625v-5.5h-1.2188v-1.2969h1.2188v-2.875z"/>
</symbol>
<symbol id="l" overflow="visible">
<path d="m7.625-8.5781c-0.1875-0.11328-0.39062-0.19531-0.60938-0.25-0.21875-0.050781-0.46484-0.078125-0.73438-0.078125-0.9375 0-1.6641 0.30859-2.1719 0.92188-0.5 0.61719-0.75 1.4961-0.75 2.6406v5.3438h-1.6719v-10.141h1.6719v1.5781c0.35156-0.61328 0.80469-1.0703 1.3594-1.375 0.5625-0.30078 1.25-0.45312 2.0625-0.45312 0.11328 0 0.23828 0.011719 0.375 0.03125 0.13281 0.011719 0.28516 0.03125 0.45312 0.0625z"/>
</symbol>
<symbol id="au" overflow="visible">
<path d="m1.8125-13.516h8.5625v1.5312h-6.7188v4h6.4375v1.5469h-6.4375v4.8906h6.875v1.5469h-8.7188z"/>
</symbol>
<symbol id="at" overflow="visible">
<path d="m6.875-14.094v1.3906h-1.5938c-0.59375 0-1.0117 0.12109-1.25 0.35938-0.23047 0.24219-0.34375 0.67188-0.34375 1.2969v0.90625h2.75v1.2969h-2.75v8.8438h-1.6719v-8.8438h-1.5938v-1.2969h1.5938v-0.70312c0-1.1328 0.25781-1.957 0.78125-2.4688 0.53125-0.51953 1.3672-0.78125 2.5156-0.78125z"/>
</symbol>
<symbol id="i" overflow="visible">
<path d="m1.5781-4v-6.1406h1.6562v6.0781c0 0.96094 0.1875 1.6797 0.5625 2.1562 0.375 0.48047 0.9375 0.71875 1.6875 0.71875 0.90625 0 1.6172-0.28516 2.1406-0.85938 0.51953-0.57031 0.78125-1.3516 0.78125-2.3438v-5.75h1.6719v10.141h-1.6719v-1.5625c-0.40625 0.61719-0.88281 1.0742-1.4219 1.375-0.53125 0.30078-1.1484 0.45312-1.8438 0.45312-1.168 0-2.0547-0.35938-2.6562-1.0781-0.60547-0.72656-0.90625-1.7891-0.90625-3.1875z"/>
</symbol>
<symbol id="o" overflow="visible">
<path d="m8.4219-5.1875c0-1.207-0.25-2.1445-0.75-2.8125-0.5-0.66406-1.1992-1-2.0938-1-0.89844 0-1.5938 0.33594-2.0938 1-0.49219 0.66797-0.73438 1.6055-0.73438 2.8125 0 1.1992 0.24219 2.1328 0.73438 2.7969 0.5 0.66797 1.1953 1 2.0938 1 0.89453 0 1.5938-0.33203 2.0938-1 0.5-0.66406 0.75-1.5977 0.75-2.7969zm1.6719 3.9219c0 1.7266-0.38672 3.0156-1.1562 3.8594-0.77344 0.84375-1.9453 1.2656-3.5156 1.2656-0.59375 0-1.1523-0.046875-1.6719-0.14062-0.51172-0.085938-1.0117-0.21484-1.5-0.39062v-1.625c0.48828 0.25781 0.96875 0.45312 1.4375 0.57812 0.47656 0.13281 0.96875 0.20312 1.4688 0.20312 1.0938 0 1.9102-0.28906 2.4531-0.85938 0.53906-0.57422 0.8125-1.4336 0.8125-2.5781v-0.82812c-0.34375 0.59375-0.78906 1.043-1.3281 1.3438-0.53125 0.29297-1.1719 0.4375-1.9219 0.4375-1.2422 0-2.2461-0.47266-3.0156-1.4219-0.76172-0.94531-1.1406-2.2031-1.1406-3.7656 0-1.5703 0.37891-2.832 1.1406-3.7812 0.76953-0.94531 1.7734-1.4219 3.0156-1.4219 0.75 0 1.3906 0.15234 1.9219 0.45312 0.53906 0.29297 0.98438 0.73438 1.3281 1.3281v-1.5312h1.6719z"/>
</symbol>
<symbol id="h" overflow="visible">
<path d="m9.6406-8.2031c0.41406-0.73828 0.91406-1.2852 1.5-1.6406 0.58203-0.36328 1.2656-0.54688 2.0469-0.54688 1.0508 0 1.8633 0.37109 2.4375 1.1094 0.57031 0.74219 0.85938 1.793 0.85938 3.1562v6.125h-1.6719v-6.0625c0-0.97656-0.17188-1.7031-0.51562-2.1719s-0.87109-0.70312-1.5781-0.70312c-0.86719 0-1.5469 0.28906-2.0469 0.85938-0.5 0.57422-0.75 1.3555-0.75 2.3438v5.7344h-1.6719v-6.0625c0-0.97656-0.17188-1.7031-0.51562-2.1719s-0.875-0.70312-1.5938-0.70312c-0.85547 0-1.5312 0.29297-2.0312 0.875-0.5 0.57422-0.75 1.3516-0.75 2.3281v5.7344h-1.6719v-10.141h1.6719v1.5781c0.38281-0.625 0.84375-1.082 1.375-1.375 0.53125-0.30078 1.1602-0.45312 1.8906-0.45312 0.72656 0 1.3516 0.1875 1.875 0.5625 0.51953 0.375 0.89844 0.91797 1.1406 1.625z"/>
</symbol>
<symbol id="as" overflow="visible">
<path d="m1.8125-13.516h1.8438v5.5312h6.6406v-5.5312h1.8281v13.516h-1.8281v-6.4375h-6.6406v6.4375h-1.8438z"/>
</symbol>
<symbol id="n" overflow="visible">
<path d="m1.75-10.141h1.6719v10.141h-1.6719zm0-3.9531h1.6719v2.1094h-1.6719z"/>
</symbol>
<symbol id="e" overflow="visible">
<path d="m1.6875-14.094h1.6719v8.3281l4.9688-4.375h2.125l-5.375 4.75 5.6094 5.3906h-2.1719l-5.1562-4.9531v4.9531h-1.6719z"/>
</symbol>
<symbol id="ah" overflow="visible">
<path d="m2-13.516h7.1875v1.5312h-5.5156v3.3125c0.26953-0.082031 0.53516-0.14453 0.79688-0.1875 0.26953-0.050781 0.53516-0.078125 0.79688-0.078125 1.5078 0 2.7031 0.41797 3.5781 1.25 0.88281 0.82422 1.3281 1.9375 1.3281 3.3438 0 1.4609-0.45312 2.5938-1.3594 3.4062-0.89844 0.80469-2.1719 1.2031-3.8281 1.2031-0.5625 0-1.1406-0.054687-1.7344-0.15625-0.58594-0.09375-1.1875-0.23438-1.8125-0.42188v-1.8438c0.53906 0.29297 1.0977 0.51172 1.6719 0.65625 0.58203 0.14844 1.1953 0.21875 1.8438 0.21875 1.0391 0 1.8633-0.26953 2.4688-0.8125 0.61328-0.55078 0.92188-1.3008 0.92188-2.25 0-0.9375-0.30859-1.6797-0.92188-2.2344-0.60547-0.55078-1.4297-0.82812-2.4688-0.82812-0.49219 0-0.98047 0.058594-1.4688 0.17188-0.48047 0.10547-0.97656 0.27344-1.4844 0.5z"/>
</symbol>
<symbol id="ag" overflow="visible">
<path d="m2.2969-1.5469h2.9844v-10.312l-3.25 0.65625v-1.6719l3.2344-0.64062h1.8281v11.969h3v1.5469h-7.7969z"/>
</symbol>
<symbol id="af" overflow="visible">
<path d="m5.8906-12.312c-0.9375 0-1.6484 0.46484-2.125 1.3906-0.46875 0.92969-0.70312 2.3203-0.70312 4.1719 0 1.8555 0.23438 3.2461 0.70312 4.1719 0.47656 0.92969 1.1875 1.3906 2.125 1.3906 0.94531 0 1.6562-0.46094 2.125-1.3906 0.47656-0.92578 0.71875-2.3164 0.71875-4.1719 0-1.8516-0.24219-3.2422-0.71875-4.1719-0.46875-0.92578-1.1797-1.3906-2.125-1.3906zm0-1.4531c1.5195 0 2.6758 0.60156 3.4688 1.7969 0.80078 1.1992 1.2031 2.9375 1.2031 5.2188s-0.40234 4.0234-1.2031 5.2188c-0.79297 1.1992-1.9492 1.7969-3.4688 1.7969-1.5117 0-2.668-0.59766-3.4688-1.7969-0.80469-1.1953-1.2031-2.9375-1.2031-5.2188s0.39844-4.0195 1.2031-5.2188c0.80078-1.1953 1.957-1.7969 3.4688-1.7969z"/>
</symbol>
<symbol id="ar" overflow="visible">
<path d="m3.5625-1.5469h6.375v1.5469h-8.5781v-1.5469c0.69531-0.71875 1.6445-1.6797 2.8438-2.8906 1.1953-1.207 1.9453-1.9883 2.25-2.3438 0.58203-0.65625 0.98828-1.207 1.2188-1.6562 0.23828-0.45703 0.35938-0.91016 0.35938-1.3594 0-0.71875-0.25781-1.3008-0.76562-1.75-0.5-0.44531-1.1523-0.67188-1.9531-0.67188-0.57422 0-1.1836 0.10156-1.8281 0.29688-0.63672 0.19922-1.3125 0.5-2.0312 0.90625v-1.8594c0.72656-0.28906 1.4102-0.50781 2.0469-0.65625 0.64453-0.15625 1.2344-0.23438 1.7656-0.23438 1.4062 0 2.5234 0.35156 3.3594 1.0469 0.83203 0.69922 1.25 1.6367 1.25 2.8125 0 0.55469-0.10547 1.0781-0.3125 1.5781-0.21094 0.5-0.58984 1.0898-1.1406 1.7656-0.14844 0.17969-0.625 0.68359-1.4375 1.5156-0.8125 0.83594-1.9531 2-3.4219 3.5z"/>
</symbol>
<symbol id="ae" overflow="visible">
<path d="m6.3438-11.719-2.4844 6.7344h4.9688zm-1.0312-1.7969h2.0625l5.1562 13.516h-1.9062l-1.2188-3.4688h-6.0938l-1.2344 3.4688h-1.9375z"/>
</symbol>
<symbol id="ad" overflow="visible">
<path d="m8.2344-6.3438c0.39453 0.13672 0.77344 0.42188 1.1406 0.85938 0.375 0.42969 0.75 1.0273 1.125 1.7969l1.8594 3.6875h-1.9688l-1.7344-3.4688c-0.44922-0.90625-0.88281-1.5039-1.2969-1.7969-0.41797-0.30078-0.99219-0.45312-1.7188-0.45312h-1.9844v5.7188h-1.8438v-13.516h4.1406c1.5391 0 2.6914 0.32422 3.4531 0.96875 0.75781 0.64844 1.1406 1.6211 1.1406 2.9219 0 0.85547-0.19922 1.5625-0.59375 2.125-0.39844 0.55469-0.96875 0.9375-1.7188 1.1562zm-4.5781-5.6719v4.7969h2.2969c0.875 0 1.5352-0.20312 1.9844-0.60938 0.45703-0.40625 0.6875-1.0039 0.6875-1.7969 0-0.78906-0.23047-1.3828-0.6875-1.7812-0.44922-0.40625-1.1094-0.60938-1.9844-0.60938z"/>
</symbol>
<symbol id="ac" overflow="visible">
<path d="m1.5781-4v-6.1406h1.6562v6.0781c0 0.96094 0.1875 1.6797 0.5625 2.1562 0.375 0.48047 0.9375 0.71875 1.6875 0.71875 0.90625 0 1.6172-0.28516 2.1406-0.85938 0.51953-0.57031 0.78125-1.3516 0.78125-2.3438v-5.75h1.6719v10.141h-1.6719v-1.5625c-0.40625 0.61719-0.88281 1.0742-1.4219 1.375-0.53125 0.30078-1.1484 0.45312-1.8438 0.45312-1.168 0-2.0547-0.35938-2.6562-1.0781-0.60547-0.72656-0.90625-1.7891-0.90625-3.1875zm4.1875-6.3906m0.82812-3.6719h1.8438v1.8438h-1.8438zm-3.5312 0h1.8281v1.8438h-1.8281z"/>
</symbol>
<symbol id="ab" overflow="visible">
<path d="m9.0469-9.75v1.5469c-0.46875-0.25-0.94531-0.4375-1.4219-0.5625-0.46875-0.13281-0.94922-0.20312-1.4375-0.20312-1.0742 0-1.9141 0.34375-2.5156 1.0312-0.59375 0.67969-0.89062 1.6367-0.89062 2.875 0 1.2422 0.29688 2.2031 0.89062 2.8906 0.60156 0.67969 1.4414 1.0156 2.5156 1.0156 0.48828 0 0.96875-0.0625 1.4375-0.1875 0.47656-0.13281 0.95312-0.32812 1.4219-0.57812v1.5312c-0.46875 0.21875-0.95312 0.38281-1.4531 0.48438-0.49219 0.11328-1.0156 0.17188-1.5781 0.17188-1.5312 0-2.75-0.47656-3.6562-1.4375-0.89844-0.96875-1.3438-2.2656-1.3438-3.8906 0-1.6562 0.45312-2.957 1.3594-3.9062 0.91406-0.94531 2.1641-1.4219 3.75-1.4219 0.50781 0 1.0078 0.054687 1.5 0.15625 0.48828 0.10547 0.96094 0.26562 1.4219 0.48438z"/>
</symbol>
<symbol id="m" overflow="visible">
<path d="m3.3594-1.5156v5.375h-1.6719v-14h1.6719v1.5312c0.35156-0.60156 0.79688-1.0508 1.3281-1.3438 0.53125-0.28906 1.1719-0.4375 1.9219-0.4375 1.2266 0 2.2266 0.49219 3 1.4688 0.76953 0.98047 1.1562 2.2656 1.1562 3.8594s-0.38672 2.8828-1.1562 3.8594c-0.77344 0.98047-1.7734 1.4688-3 1.4688-0.75 0-1.3906-0.14844-1.9219-0.4375s-0.97656-0.73828-1.3281-1.3438zm5.6719-3.5469c0-1.2266-0.25781-2.1914-0.76562-2.8906-0.5-0.69531-1.1953-1.0469-2.0781-1.0469-0.875 0-1.5703 0.35156-2.0781 1.0469-0.5 0.69922-0.75 1.6641-0.75 2.8906 0 1.2305 0.25 2.1953 0.75 2.8906 0.50781 0.69922 1.2031 1.0469 2.0781 1.0469 0.88281 0 1.5781-0.34766 2.0781-1.0469 0.50781-0.69531 0.76562-1.6602 0.76562-2.8906z"/>
</symbol>
<symbol id="aa" overflow="visible">
<path d="m5.75-14.078c-0.8125 1.3984-1.418 2.7734-1.8125 4.125-0.38672 1.3555-0.57812 2.7305-0.57812 4.125 0 1.3984 0.19531 2.7812 0.59375 4.1562 0.39453 1.3672 0.99219 2.7344 1.7969 4.1094h-1.4531c-0.90625-1.418-1.5859-2.8047-2.0312-4.1719-0.44922-1.375-0.67188-2.7383-0.67188-4.0938 0-1.3438 0.22266-2.6953 0.67188-4.0625 0.44531-1.3633 1.125-2.7578 2.0312-4.1875z"/>
</symbol>
<symbol id="z" overflow="visible">
<path d="m1.4844-14.078h1.4531c0.90625 1.4297 1.582 2.8242 2.0312 4.1875 0.44531 1.3672 0.67188 2.7188 0.67188 4.0625 0 1.3555-0.22656 2.7188-0.67188 4.0938-0.44922 1.3672-1.125 2.7539-2.0312 4.1719h-1.4531c0.80078-1.375 1.3984-2.7422 1.7969-4.1094 0.39453-1.375 0.59375-2.7578 0.59375-4.1562 0-1.3945-0.19922-2.7695-0.59375-4.125-0.39844-1.3516-0.99609-2.7266-1.7969-4.125z"/>
</symbol>
<symbol id="aq" overflow="visible">
<path d="m10.172-6.125v6.125h-1.6562v-6.0625c0-0.95703-0.1875-1.6758-0.5625-2.1562-0.375-0.47656-0.9375-0.71875-1.6875-0.71875-0.89844 0-1.6055 0.28906-2.125 0.85938-0.52344 0.57422-0.78125 1.3555-0.78125 2.3438v5.7344h-1.6719v-14.094h1.6719v5.5312c0.39453-0.61328 0.86328-1.0703 1.4062-1.375 0.53906-0.30078 1.1641-0.45312 1.875-0.45312 1.1641 0 2.0469 0.36719 2.6406 1.0938 0.59375 0.71875 0.89062 1.7773 0.89062 3.1719z"/>
</symbol>
<symbol id="ap" overflow="visible">
<path d="m-11.719-6.3438 6.7344 2.4844v-4.9688zm-1.7969 1.0312v-2.0625l13.516-5.1562v1.9062l-3.4688 1.2188v6.0938l3.4688 1.2344v1.9375z"/>
</symbol>
<symbol id="w" overflow="visible">
<path d="m-4-1.5781h-6.1406v-1.6562h6.0781c0.96094 0 1.6797-0.1875 2.1562-0.5625 0.48047-0.375 0.71875-0.9375 0.71875-1.6875 0-0.90625-0.28516-1.6172-0.85938-2.1406-0.57031-0.51953-1.3516-0.78125-2.3438-0.78125h-5.75v-1.6719h10.141v1.6719h-1.5625c0.61719 0.40625 1.0742 0.88281 1.375 1.4219 0.30078 0.53125 0.45312 1.1484 0.45312 1.8438 0 1.168-0.35938 2.0547-1.0781 2.6562-0.72656 0.60547-1.7891 0.90625-3.1875 0.90625z"/>
</symbol>
<symbol id="v" overflow="visible">
<path d="m-9.8438-8.2188h1.5781c-0.23828 0.48047-0.42188 0.97656-0.54688 1.4844-0.125 0.5-0.1875 1.0234-0.1875 1.5625 0 0.82422 0.13281 1.4453 0.39062 1.8594 0.25 0.41797 0.63281 0.625 1.1406 0.625 0.38672 0 0.6875-0.14453 0.90625-0.4375 0.21875-0.30078 0.42969-0.89844 0.625-1.7969l0.125-0.5625c0.26172-1.1875 0.625-2.0234 1.0938-2.5156 0.46094-0.5 1.1016-0.75 1.9219-0.75 0.9375 0 1.6836 0.375 2.2344 1.125 0.55469 0.74219 0.82812 1.7617 0.82812 3.0625 0 0.54297-0.054687 1.1094-0.15625 1.7031-0.10547 0.58594-0.26562 1.2031-0.48438 1.8594h-1.7188c0.32422-0.61328 0.57031-1.2188 0.73438-1.8125 0.15625-0.60156 0.23438-1.1953 0.23438-1.7812 0-0.78906-0.13281-1.3945-0.40625-1.8125-0.26953-0.42578-0.64844-0.64062-1.1406-0.64062-0.44531 0-0.78906 0.15625-1.0312 0.46875-0.25 0.30469-0.48438 0.96875-0.70312 2l-0.14062 0.57812c-0.21875 1.0312-0.55078 1.7773-1 2.2344-0.44531 0.46094-1.0664 0.6875-1.8594 0.6875-0.94531 0-1.6797-0.33594-2.2031-1.0156-0.51953-0.67578-0.78125-1.6328-0.78125-2.875 0-0.61328 0.046875-1.1914 0.14062-1.7344 0.09375-0.55078 0.23047-1.0547 0.40625-1.5156z"/>
</symbol>
<symbol id="u" overflow="visible">
<path d="m-14.094-1.75v-1.6719h14.094v1.6719z"/>
</symbol>
<symbol id="r" overflow="visible">
<path d="m-5.4844-10.422h0.8125v7.6562c1.1484-0.070313 2.0234-0.41406 2.625-1.0312 0.59375-0.625 0.89062-1.4883 0.89062-2.5938 0-0.63281-0.078125-1.25-0.23438-1.8438-0.15625-0.60156-0.39062-1.2031-0.70312-1.7969h1.5781c0.25 0.59375 0.44531 1.2109 0.57812 1.8438 0.13281 0.625 0.20312 1.2617 0.20312 1.9062 0 1.6172-0.46875 2.8984-1.4062 3.8438-0.94531 0.94922-2.2227 1.4219-3.8281 1.4219-1.6641 0-2.9844-0.44531-3.9531-1.3438-0.97656-0.90625-1.4688-2.1172-1.4688-3.6406 0-1.3633 0.44531-2.4414 1.3281-3.2344 0.875-0.78906 2.0703-1.1875 3.5781-1.1875zm-0.5 1.6719c-0.90625 0.011719-1.6289 0.26562-2.1719 0.76562-0.53906 0.49219-0.8125 1.1484-0.8125 1.9688 0 0.92969 0.26172 1.6719 0.78125 2.2344 0.52344 0.5625 1.2617 0.88672 2.2188 0.96875z"/>
</symbol>
<symbol id="q" overflow="visible">
<path d="m-6.125-10.172h6.125v1.6562h-6.0625c-0.95703 0-1.6758 0.1875-2.1562 0.5625-0.47656 0.375-0.71875 0.9375-0.71875 1.6875 0 0.89844 0.28906 1.6055 0.85938 2.125 0.57422 0.52344 1.3555 0.78125 2.3438 0.78125h5.7344v1.6719h-10.141v-1.6719h1.5781c-0.61328-0.39453-1.0703-0.86328-1.375-1.4062-0.30078-0.53906-0.45312-1.1641-0.45312-1.875 0-1.1641 0.36719-2.0469 1.0938-2.6406 0.71875-0.59375 1.7773-0.89062 3.1719-0.89062z"/>
</symbol>
<symbol id="ak" overflow="visible">
<path d="m-14.094-1.6875v-1.6719h8.3281l-4.375-4.9688v-2.125l4.75 5.375 5.3906-5.6094v2.1719l-4.9531 5.1562h4.9531v1.6719z"/>
</symbol>
<symbol id="aj" overflow="visible">
<path d="m-5.1875-8.4219c-1.207 0-2.1445 0.25-2.8125 0.75-0.66406 0.5-1 1.1992-1 2.0938 0 0.89844 0.33594 1.5938 1 2.0938 0.66797 0.49219 1.6055 0.73438 2.8125 0.73438 1.1992 0 2.1328-0.24219 2.7969-0.73438 0.66797-0.5 1-1.1953 1-2.0938 0-0.89453-0.33203-1.5938-1-2.0938-0.66406-0.5-1.5977-0.75-2.7969-0.75zm3.9219-1.6719c1.7266 0 3.0156 0.38672 3.8594 1.1562 0.84375 0.77344 1.2656 1.9453 1.2656 3.5156 0 0.59375-0.046875 1.1523-0.14062 1.6719-0.085938 0.51172-0.21484 1.0117-0.39062 1.5h-1.625c0.25781-0.48828 0.45312-0.96875 0.57812-1.4375 0.13281-0.47656 0.20312-0.96875 0.20312-1.4688 0-1.0938-0.28906-1.9102-0.85938-2.4531-0.57422-0.53906-1.4336-0.8125-2.5781-0.8125h-0.82812c0.59375 0.34375 1.043 0.78906 1.3438 1.3281 0.29297 0.53125 0.4375 1.1719 0.4375 1.9219 0 1.2422-0.47266 2.2461-1.4219 3.0156-0.94531 0.76172-2.2031 1.1406-3.7656 1.1406-1.5703 0-2.832-0.37891-3.7812-1.1406-0.94531-0.76953-1.4219-1.7734-1.4219-3.0156 0-0.75 0.15234-1.3906 0.45312-1.9219 0.29297-0.53906 0.73438-0.98438 1.3281-1.3281h-1.5312v-1.6719z"/>
</symbol>
<symbol id="ai" overflow="visible"></symbol>
<symbol id="ao" overflow="visible">
<path d="m-8.6094-8.4219h-5.4844v-1.6719h14.094v1.6719h-1.5156c0.60547 0.35547 1.0547 0.79688 1.3438 1.3281s0.4375 1.1719 0.4375 1.9219c0 1.2305-0.48828 2.2305-1.4688 3-0.97656 0.77344-2.2656 1.1562-3.8594 1.1562s-2.8789-0.38281-3.8594-1.1562c-0.97656-0.76953-1.4688-1.7695-1.4688-3 0-0.75 0.14844-1.3906 0.4375-1.9219 0.29297-0.53125 0.74219-0.97266 1.3438-1.3281zm3.5469 5.6719c1.2305 0 2.1953-0.25 2.8906-0.75 0.69922-0.5 1.0469-1.1914 1.0469-2.0781 0-0.88281-0.34766-1.5781-1.0469-2.0781-0.69531-0.50781-1.6602-0.76562-2.8906-0.76562-1.2266 0-2.1914 0.25781-2.8906 0.76562-0.69531 0.5-1.0469 1.1953-1.0469 2.0781 0 0.88672 0.35156 1.5781 1.0469 2.0781 0.69922 0.5 1.6641 0.75 2.8906 0.75z"/>
</symbol>
<symbol id="t" overflow="visible">
<path d="m-8.5781-7.625c-0.11328 0.1875-0.19531 0.39062-0.25 0.60938-0.050781 0.21875-0.078125 0.46484-0.078125 0.73438 0 0.9375 0.30859 1.6641 0.92188 2.1719 0.61719 0.5 1.4961 0.75 2.6406 0.75h5.3438v1.6719h-10.141v-1.6719h1.5781c-0.61328-0.35156-1.0703-0.80469-1.375-1.3594-0.30078-0.5625-0.45312-1.25-0.45312-2.0625 0-0.11328 0.011719-0.23828 0.03125-0.375 0.011719-0.13281 0.03125-0.28516 0.0625-0.45312z"/>
</symbol>
<symbol id="an" overflow="visible">
<path d="m-6.4531-3.6562h4.9531v-2.9219c0-0.98828-0.20312-1.7188-0.60938-2.1875-0.40625-0.47656-1.0312-0.71875-1.875-0.71875s-1.4609 0.24219-1.8594 0.71875c-0.40625 0.46875-0.60938 1.1992-0.60938 2.1875zm-5.5625 0h4.0781v-2.7031c0-0.89453-0.16406-1.5625-0.5-2-0.34375-0.4375-0.85938-0.65625-1.5469-0.65625-0.67578 0-1.1797 0.21875-1.5156 0.65625-0.34375 0.4375-0.51562 1.1055-0.51562 2zm-1.5 1.8438v-4.6875c0-1.3828 0.29297-2.4531 0.875-3.2031 0.57422-0.75781 1.3984-1.1406 2.4688-1.1406 0.82422 0 1.4805 0.19531 1.9688 0.57812 0.49219 0.38672 0.79297 0.95312 0.90625 1.7031 0.19922-0.90625 0.60547-1.6016 1.2188-2.0938 0.61719-0.5 1.3828-0.75 2.2969-0.75 1.2109 0 2.1406 0.41406 2.7969 1.2344 0.65625 0.8125 0.98438 1.9805 0.98438 3.5v4.8594z"/>
</symbol>
<symbol id="s" overflow="visible">
<path d="m-5.0938-6.3594c0 1.3438 0.15625 2.2773 0.46875 2.7969 0.30469 0.52344 0.82422 0.78125 1.5625 0.78125 0.59375 0 1.0703-0.19141 1.4219-0.57812 0.34375-0.39453 0.51562-0.92578 0.51562-1.5938 0-0.92578-0.32812-1.6641-0.98438-2.2188-0.65625-0.5625-1.5312-0.84375-2.625-0.84375h-0.35938zm-0.6875-3.3281h5.7812v1.6719h-1.5469c0.625 0.38672 1.0859 0.86719 1.375 1.4375 0.28906 0.5625 0.4375 1.25 0.4375 2.0625 0 1.043-0.28906 1.8711-0.875 2.4844-0.58203 0.61719-1.3633 0.92188-2.3438 0.92188-1.1328 0-1.9922-0.37891-2.5781-1.1406-0.58203-0.76953-0.875-1.9102-0.875-3.4219v-2.3438h-0.15625c-0.76953 0-1.3633 0.25781-1.7812 0.76562-0.41406 0.5-0.625 1.2031-0.625 2.1094 0 0.58594 0.070312 1.1523 0.20312 1.7031 0.13672 0.54297 0.34375 1.0703 0.625 1.5781h-1.5469c-0.22656-0.60156-0.39844-1.1914-0.51562-1.7656-0.125-0.57031-0.1875-1.1328-0.1875-1.6875 0-1.457 0.38281-2.5508 1.1406-3.2812 0.76172-0.72656 1.918-1.0938 3.4688-1.0938z"/>
</symbol>
<symbol id="am" overflow="visible">
<path d="m-10.141-1.75v-1.6719h10.141v1.6719zm-3.9531 0v-1.6719h2.1094v1.6719z"/>
</symbol>
<symbol id="x" overflow="visible">
<path d="m-8.2031-9.6406c-0.73828-0.41406-1.2852-0.91406-1.6406-1.5-0.36328-0.58203-0.54688-1.2656-0.54688-2.0469 0-1.0508 0.37109-1.8633 1.1094-2.4375 0.74219-0.57031 1.793-0.85938 3.1562-0.85938h6.125v1.6719h-6.0625c-0.97656 0-1.7031 0.17188-2.1719 0.51562s-0.70312 0.87109-0.70312 1.5781c0 0.86719 0.28906 1.5469 0.85938 2.0469 0.57422 0.5 1.3555 0.75 2.3438 0.75h5.7344v1.6719h-6.0625c-0.97656 0-1.7031 0.17188-2.1719 0.51562s-0.70312 0.875-0.70312 1.5938c0 0.85547 0.29297 1.5312 0.875 2.0312 0.57422 0.5 1.3516 0.75 2.3281 0.75h5.7344v1.6719h-10.141v-1.6719h1.5781c-0.625-0.38281-1.082-0.84375-1.375-1.375-0.30078-0.53125-0.45312-1.1602-0.45312-1.8906 0-0.72656 0.1875-1.3516 0.5625-1.875 0.375-0.51953 0.91797-0.89844 1.625-1.1406z"/>
</symbol>
<symbol id="al" overflow="visible">
<path d="m-5.0625-9.0312c-1.2266 0-2.1914 0.25781-2.8906 0.76562-0.69531 0.5-1.0469 1.1953-1.0469 2.0781 0 0.875 0.35156 1.5703 1.0469 2.0781 0.69922 0.5 1.6641 0.75 2.8906 0.75 1.2305 0 2.1953-0.25 2.8906-0.75 0.69922-0.50781 1.0469-1.2031 1.0469-2.0781 0-0.88281-0.34766-1.5781-1.0469-2.0781-0.69531-0.50781-1.6602-0.76562-2.8906-0.76562zm-3.5469 5.6719c-0.60156-0.35156-1.0508-0.79688-1.3438-1.3281-0.28906-0.53125-0.4375-1.1719-0.4375-1.9219 0-1.2266 0.49219-2.2266 1.4688-3 0.98047-0.76953 2.2656-1.1562 3.8594-1.1562s2.8828 0.38672 3.8594 1.1562c0.98047 0.77344 1.4688 1.7734 1.4688 3 0 0.75-0.14844 1.3906-0.4375 1.9219s-0.73828 0.97656-1.3438 1.3281h1.5156v1.6719h-14.094v-1.6719z"/>
</symbol>
</defs>
<path transform="matrix(1.6861 0 0 1.6866 0 .057202)" d="m26.064 118.38h9.4409l2.4396-2.4411 5.88 5.8804 3.415-3.4393h423.06" fill="none" stroke="#000"/>
<path transform="matrix(1.6861 0 0 1.6866 0 .057202)" d="m30.086 122.23v-112.79" fill="none" stroke="#000"/>
<path d="m46.648 24.809 4.0625-11.059 4.0664 11.059c-2.4023-1.7656-5.6836-1.7578-8.1289 0z" fill-rule="evenodd"/>
<path transform="matrix(1.6861 0 0 1.6866 0 .057202)" d="m49.658 122.23v-3.8493" fill="none" stroke="#000" stroke-width=".75"/>
<path transform="matrix(1.6861 0 0 1.6866 0 .057202)" d="m75.697 122.23v-3.8493" fill="none" stroke="#000" stroke-width=".75"/>
<path transform="matrix(1.6861 0 0 1.6866 0 .057202)" d="m101.58 122.23v-3.8493" fill="none" stroke="#000" stroke-width=".75"/>
<path transform="matrix(1.6861 0 0 1.6866 0 .057202)" d="m127.42 122.23v-3.8493" fill="none" stroke="#000" stroke-width=".75"/>
<path transform="matrix(1.6861 0 0 1.6866 0 .057202)" d="m153.4 122.23v-3.8493" fill="none" stroke="#000" stroke-width=".75"/>
<path transform="matrix(1.6861 0 0 1.6866 0 .057202)" d="m180.21 122.23v-3.8493" fill="none" stroke="#000" stroke-width=".75"/>
<path transform="matrix(1.6861 0 0 1.6866 0 .057202)" d="m205.8 122.23v-3.8493" fill="none" stroke="#000" stroke-width=".75"/>
<path transform="matrix(1.6861 0 0 1.6866 0 .057202)" d="m231.4 122.23v-3.8493" fill="none" stroke="#000" stroke-width=".75"/>
<path transform="matrix(1.6861 0 0 1.6866 0 .057202)" d="m257.19 122.23v-3.8493" fill="none" stroke="#000" stroke-width=".75"/>
<path transform="matrix(1.6861 0 0 1.6866 0 .057202)" d="m284.19 122.23v-3.8493" fill="none" stroke="#000" stroke-width=".75"/>
<path transform="matrix(1.6861 0 0 1.6866 0 .057202)" d="m309.69 122.23v-3.8493" fill="none" stroke="#000" stroke-width=".75"/>
<path transform="matrix(1.6861 0 0 1.6866 0 .057202)" d="m335.19 122.23v-3.8493" fill="none" stroke="#000" stroke-width=".75"/>
<path transform="matrix(1.6861 0 0 1.6866 0 .057202)" d="m361.8 122.23v-3.8493" fill="none" stroke="#000" stroke-width=".75"/>
<path transform="matrix(1.6861 0 0 1.6866 0 .057202)" d="m388.66 122.23v-3.8493" fill="none" stroke="#000" stroke-width=".75"/>
<path transform="matrix(1.6861 0 0 1.6866 0 .057202)" d="m414.01 122.23v-3.8493" fill="none" stroke="#000" stroke-width=".75"/>
<path transform="matrix(1.6861 0 0 1.6866 0 .057202)" d="m439.66 122.23v-3.8493" fill="none" stroke="#000" stroke-width=".75"/>
<g>
<use x="64.113281" y="249.229669" xlink:href="#d"/>
<use x="75.915675" y="249.229669" xlink:href="#k"/>
<use x="87.718069" y="249.229669" xlink:href="#p"/>
<use x="99.520463" y="249.229669" xlink:href="#g"/>
<use x="104.578632" y="249.229669" xlink:href="#b"/>
<use x="116.381026" y="249.229669" xlink:href="#j"/>
<use x="126.497363" y="249.229669" xlink:href="#c"/>
<use x="131.555532" y="249.229669" xlink:href="#y"/>
<use x="141.67187" y="249.229669" xlink:href="#b"/>
<use x="153.474264" y="249.229669" xlink:href="#a"/>
<use x="165.276658" y="249.229669" xlink:href="#j"/>
<use x="175.392995" y="249.229669" xlink:href="#f"/>
<use x="182.137221" y="249.229669" xlink:href="#b"/>
<use x="193.939614" y="249.229669" xlink:href="#l"/>
</g>
<g>
<use x="256.320312" y="249.229669" xlink:href="#au"/>
<use x="268.122706" y="249.229669" xlink:href="#a"/>
<use x="279.9251" y="249.229669" xlink:href="#f"/>
<use x="286.669325" y="249.229669" xlink:href="#at"/>
<use x="293.413551" y="249.229669" xlink:href="#b"/>
<use x="305.215944" y="249.229669" xlink:href="#l"/>
<use x="311.96017" y="249.229669" xlink:href="#a"/>
<use x="323.762564" y="249.229669" xlink:href="#i"/>
<use x="335.564957" y="249.229669" xlink:href="#a"/>
<use x="347.367351" y="249.229669" xlink:href="#o"/>
<use x="359.169745" y="249.229669" xlink:href="#c"/>
<use x="364.227914" y="249.229669" xlink:href="#k"/>
<use x="376.030308" y="249.229669" xlink:href="#d"/>
<use x="387.832702" y="249.229669" xlink:href="#h"/>
<use x="406.379321" y="249.229669" xlink:href="#c"/>
<use x="411.43749" y="249.229669" xlink:href="#d"/>
<use x="423.239884" y="249.229669" xlink:href="#k"/>
<use x="435.042278" y="249.229669" xlink:href="#p"/>
<use x="446.844672" y="249.229669" xlink:href="#g"/>
<use x="451.90284" y="249.229669" xlink:href="#b"/>
<use x="463.705234" y="249.229669" xlink:href="#a"/>
<use x="475.507628" y="249.229669" xlink:href="#c"/>
<use x="480.565797" y="249.229669" xlink:href="#y"/>
<use x="490.682135" y="249.229669" xlink:href="#b"/>
<use x="502.484529" y="249.229669" xlink:href="#a"/>
<use x="514.286923" y="249.229669" xlink:href="#j"/>
<use x="524.40326" y="249.229669" xlink:href="#f"/>
<use x="531.147485" y="249.229669" xlink:href="#b"/>
<use x="542.949879" y="249.229669" xlink:href="#l"/>
</g>
<g>
<use x="686.265625" y="249.229669" xlink:href="#as"/>
<use x="699.754075" y="249.229669" xlink:href="#b"/>
<use x="711.556469" y="249.229669" xlink:href="#g"/>
<use x="716.614638" y="249.229669" xlink:href="#n"/>
<use x="721.672807" y="249.229669" xlink:href="#e"/>
<use x="731.789144" y="249.229669" xlink:href="#d"/>
<use x="743.591538" y="249.229669" xlink:href="#f"/>
<use x="750.335763" y="249.229669" xlink:href="#l"/>
<use x="757.079989" y="249.229669" xlink:href="#b"/>
<use x="768.882382" y="249.229669" xlink:href="#h"/>
<use x="787.429002" y="249.229669" xlink:href="#p"/>
</g>
<g>
<use x="19.149809" y="184.773438" xlink:href="#ap"/>
<use x="19.149809" y="171.280568" xlink:href="#w"/>
<use x="19.149809" y="159.474306" xlink:href="#v"/>
<use x="19.149809" y="149.354654" xlink:href="#u"/>
<use x="19.149809" y="144.294828" xlink:href="#r"/>
<use x="19.149809" y="132.488566" xlink:href="#q"/>
<use x="19.149809" y="120.682305" xlink:href="#ak"/>
<use x="19.149809" y="110.562653" xlink:href="#w"/>
<use x="19.149809" y="98.756391" xlink:href="#q"/>
<use x="19.149809" y="86.95013" xlink:href="#aj"/>
<use x="19.149809" y="75.143869" xlink:href="#ai"/>
<use x="19.149809" y="70.084043" xlink:href="#ao"/>
<use x="19.149809" y="58.277782" xlink:href="#r"/>
<use x="19.149809" y="46.47152" xlink:href="#t"/>
</g>
<g>
<use x="42.333403" y="189.832031" xlink:href="#an"/>
<use x="42.333403" y="176.339161" xlink:href="#s"/>
<use x="42.333403" y="164.5329" xlink:href="#v"/>
<use x="42.333403" y="154.413248" xlink:href="#am"/>
<use x="42.333403" y="149.353421" xlink:href="#u"/>
<use x="42.333403" y="144.293595" xlink:href="#s"/>
<use x="42.333403" y="132.487334" xlink:href="#t"/>
<use x="42.333403" y="125.740899" xlink:href="#x"/>
<use x="42.333403" y="107.188203" xlink:href="#r"/>
<use x="42.333403" y="95.381942" xlink:href="#x"/>
<use x="42.333403" y="76.829245" xlink:href="#al"/>
<use x="42.333403" y="65.022984" xlink:href="#t"/>
<use x="42.333403" y="56.58994" xlink:href="#s"/>
<use x="42.333403" y="44.783679" xlink:href="#q"/>
</g>
<g>
<use x="77.652344" y="225.721856" xlink:href="#ah"/>
</g>
<g>
<use x="290.09375" y="225.721856" xlink:href="#ag"/>
<use x="301.896144" y="225.721856" xlink:href="#af"/>
</g>
<g>
<use x="510.125" y="225.721856" xlink:href="#ag"/>
<use x="521.927394" y="225.721856" xlink:href="#ah"/>
</g>
<g>
<use x="729.859375" y="225.721856" xlink:href="#ar"/>
<use x="741.661769" y="225.721856" xlink:href="#af"/>
<use x="753.464163" y="225.721856" xlink:href="#h"/>
<use x="772.010782" y="225.721856" xlink:href="#h"/>
</g>
<g>
<use x="131.105469" y="61.007013" xlink:href="#ae"/>
<use x="144.593919" y="61.007013" xlink:href="#i"/>
<use x="156.396313" y="61.007013" xlink:href="#j"/>
<use x="166.512651" y="61.007013" xlink:href="#g"/>
<use x="171.570819" y="61.007013" xlink:href="#b"/>
<use x="183.373213" y="61.007013" xlink:href="#a"/>
<use x="195.175607" y="61.007013" xlink:href="#e"/>
<use x="205.291945" y="61.007013" xlink:href="#i"/>
<use x="217.094339" y="61.007013" xlink:href="#a"/>
<use x="228.896733" y="61.007013" xlink:href="#o"/>
<use x="240.699127" y="61.007013" xlink:href="#c"/>
<use x="245.757295" y="61.007013" xlink:href="#h"/>
<use x="264.303914" y="61.007013" xlink:href="#n"/>
<use x="269.362083" y="61.007013" xlink:href="#f"/>
<use x="276.106308" y="61.007013" xlink:href="#c"/>
<use x="281.164477" y="61.007013" xlink:href="#p"/>
<use x="292.966871" y="61.007013" xlink:href="#e"/>
<use x="303.083209" y="61.007013" xlink:href="#f"/>
<use x="309.827434" y="61.007013" xlink:href="#n"/>
<use x="314.885603" y="61.007013" xlink:href="#k"/>
<use x="326.687997" y="61.007013" xlink:href="#b"/>
<use x="338.490391" y="61.007013" xlink:href="#l"/>
<use x="346.920672" y="61.007013" xlink:href="#c"/>
<use x="351.978841" y="61.007013" xlink:href="#ad"/>
<use x="363.781235" y="61.007013" xlink:href="#ac"/>
<use x="375.583629" y="61.007013" xlink:href="#ab"/>
<use x="385.699966" y="61.007013" xlink:href="#e"/>
<use x="395.816304" y="61.007013" xlink:href="#e"/>
<use x="405.932642" y="61.007013" xlink:href="#d"/>
<use x="417.735036" y="61.007013" xlink:href="#m"/>
<use x="429.537429" y="61.007013" xlink:href="#m"/>
<use x="441.339823" y="61.007013" xlink:href="#g"/>
<use x="446.397992" y="61.007013" xlink:href="#i"/>
<use x="458.200386" y="61.007013" xlink:href="#a"/>
<use x="470.00278" y="61.007013" xlink:href="#o"/>
<use x="481.805174" y="61.007013" xlink:href="#c"/>
<use x="486.863343" y="61.007013" xlink:href="#aa"/>
<use x="493.607568" y="61.007013" xlink:href="#n"/>
<use x="498.665737" y="61.007013" xlink:href="#a"/>
<use x="510.468131" y="61.007013" xlink:href="#c"/>
<use x="515.5263" y="61.007013" xlink:href="#k"/>
<use x="527.328693" y="61.007013" xlink:href="#n"/>
<use x="532.386862" y="61.007013" xlink:href="#k"/>
<use x="544.189256" y="61.007013" xlink:href="#d"/>
<use x="555.99165" y="61.007013" xlink:href="#z"/>
</g>
<g>
<use x="131.105469" y="91.366388" xlink:href="#ae"/>
<use x="144.593919" y="91.366388" xlink:href="#i"/>
<use x="156.396313" y="91.366388" xlink:href="#j"/>
<use x="166.512651" y="91.366388" xlink:href="#g"/>
<use x="171.570819" y="91.366388" xlink:href="#b"/>
<use x="183.373213" y="91.366388" xlink:href="#a"/>
<use x="195.175607" y="91.366388" xlink:href="#e"/>
<use x="205.291945" y="91.366388" xlink:href="#i"/>
<use x="217.094339" y="91.366388" xlink:href="#a"/>
<use x="228.896733" y="91.366388" xlink:href="#o"/>
<use x="240.699127" y="91.366388" xlink:href="#c"/>
<use x="245.757295" y="91.366388" xlink:href="#d"/>
<use x="257.559689" y="91.366388" xlink:href="#aq"/>
<use x="269.362083" y="91.366388" xlink:href="#a"/>
<use x="281.164477" y="91.366388" xlink:href="#b"/>
<use x="292.966871" y="91.366388" xlink:href="#c"/>
<use x="298.02504" y="91.366388" xlink:href="#ad"/>
<use x="309.827434" y="91.366388" xlink:href="#ac"/>
<use x="321.629828" y="91.366388" xlink:href="#ab"/>
<use x="331.746166" y="91.366388" xlink:href="#e"/>
<use x="341.862503" y="91.366388" xlink:href="#e"/>
<use x="351.978841" y="91.366388" xlink:href="#d"/>
<use x="363.781235" y="91.366388" xlink:href="#m"/>
<use x="375.583629" y="91.366388" xlink:href="#m"/>
<use x="387.386023" y="91.366388" xlink:href="#g"/>
<use x="392.444191" y="91.366388" xlink:href="#i"/>
<use x="404.246585" y="91.366388" xlink:href="#a"/>
<use x="416.048979" y="91.366388" xlink:href="#o"/>
<use x="427.851373" y="91.366388" xlink:href="#c"/>
<use x="432.909542" y="91.366388" xlink:href="#aa"/>
<use x="439.653767" y="91.366388" xlink:href="#m"/>
<use x="451.456161" y="91.366388" xlink:href="#d"/>
<use x="463.258555" y="91.366388" xlink:href="#j"/>
<use x="473.374893" y="91.366388" xlink:href="#f"/>
<use x="480.119118" y="91.366388" xlink:href="#c"/>
<use x="485.177287" y="91.366388" xlink:href="#h"/>
<use x="503.723906" y="91.366388" xlink:href="#d"/>
<use x="515.5263" y="91.366388" xlink:href="#l"/>
<use x="523.956581" y="91.366388" xlink:href="#f"/>
<use x="530.700806" y="91.366388" xlink:href="#b"/>
<use x="542.5032" y="91.366388" xlink:href="#h"/>
<use x="561.049819" y="91.366388" xlink:href="#z"/>
</g>
<path transform="matrix(1.6861 0 0 1.6866 0 .057202)" d="m89.813 154.37h-25.425" fill="none" stroke="#000" stroke-width=".75"/>
<path d="m115.18 263.48-8.2891-3.0469 8.2891-3.0508c-1.3242 1.8008-1.3164 4.2617 0 6.0977z" fill-rule="evenodd"/>
<path transform="matrix(1.6861 0 0 1.6866 0 .057202)" d="m326.06 144.35h43.917" fill="none" stroke="#000" stroke-width=".75"/>
<path d="m617.19 240.46 8.2891 3.0508-8.2891 3.0508c1.3242-1.8008 1.3164-4.2656 0-6.1016z" fill-rule="evenodd"/>
<path transform="matrix(1.6861 0 0 1.6866 0 .057202)" d="m424.93 154.44h26.242" fill="none" stroke="#000" stroke-width=".75"/>
<path d="m754.09 257.48 8.2891 3.0469-8.2891 3.0508c1.3242-1.8008 1.3164-4.2656 0-6.0977z" fill-rule="evenodd"/>
<path transform="matrix(1.6861 0 0 1.6866 0 .057202)" d="m30.464 79.128h405.25" fill="none" stroke="#000" stroke-width=".75"/>
<path transform="matrix(1.6861 0 0 1.6866 0 .057202)" d="m51.725 79.128c144 0 132.65-4.6344 154.95-4.6344 37.697 0 28.288 8.9191 57.776 8.391 29.488-0.52806 24.838-11.893 42.036-11.691 12.687 0.14823 21.836 21.294 25.184 21.301 14.054 0.032425 8.7065-66.602 12.976-66.276 2.7871 0.21076 0.61858 84.494 5.2035 84.644 2.1013 0.069481 2.2427-25.395 8.9869-31.13 2.7894-2.3716 17.059-1.8436 17.059-1.8436" fill="none" stroke="#000" stroke-width="2"/>
<path transform="matrix(1.6861 0 0 1.6866 0 .057202)" d="m51.725 79.128c20.325 0.63459 39.131-0.90557 54.408-0.27561 71.638 2.9576 96.807-2.2396 103.03-2.2906 6.6237-0.053268 40.071 4.463 51.048 4.3889 26.608-0.18528 35.581-6.1491 45.717-5.7646 7.9258 0.29877 15.059 6.0472 22.99 6.1398 1.8673 0.020844 8.871-4.0577 12.501-4.0137 6.5172 0.081061 34.486 0.57669 34.486 0.57669" fill="none" stroke="#000" stroke-dasharray="2,2" stroke-width="2"/>
<path transform="matrix(1.6861 0 0 1.6866 0 .057202)" d="m76.983 33.051h-35.463" fill="none" stroke="#000" stroke-width="2"/>
<path transform="matrix(1.6861 0 0 1.6866 0 .057202)" d="m76.983 49.83h-35.463" fill="none" stroke="#000" stroke-dasharray="2,2" stroke-width="2"/>
</svg>
