<?xml version="1.0" encoding="UTF-8"?>
<svg width="800px" height="315px" version="1.1" viewBox="0 0 800 315" xmlns="http://www.w3.org/2000/svg" xmlns:xlink="http://www.w3.org/1999/xlink">
<defs>
<symbol id="a" overflow="visible">
<path d="m5.8281-46.281h11.953v17.641h17.625v-17.641h11.938v46.281h-11.938v-19.625h-17.625v19.625h-11.953z"/>
</symbol>
</defs>
<path transform="matrix(2.6479 0 0 2.645 0 .14857)" d="m63.459 48.539-20.323 58.42c18.67 7.4683 41.074 7.4683 59.745 0l-20.33-58.419c-6.3272 0.72069-12.766 0.72069-19.092-0.001477z" fill="none" stroke="#000" stroke-linejoin="round" stroke-width="2.8226"/>
<path transform="matrix(2.6479 0 0 2.645 0 .14857)" d="m87.942 36.764c0 8.2495-6.6871 14.937-14.937 14.937s-14.937-6.6871-14.937-14.937 6.6871-14.937 14.937-14.937 14.937 6.6871 14.937 14.937z" fill="#fff" stroke="#000" stroke-width="2.8226"/>
<path d="m184.29 91.484c0 5.4531-4.4258 9.875-9.8867 9.875-5.4609 0-9.8867-4.4219-9.8867-9.875 0-5.457 4.4258-9.8789 9.8867-9.8789 5.4609 0 9.8867 4.4219 9.8867 9.8789z"/>
<path transform="matrix(2.6479 0 0 2.645 0 .14857)" d="m256.29 48.539-20.324 58.42c18.67 7.4683 41.076 7.4683 59.746 0l-20.331-58.419c-6.3257 0.72069-12.765 0.72069-19.091-0.001477z" fill="none" stroke="#000" stroke-linejoin="round" stroke-width="2.8226"/>
<path transform="matrix(2.6479 0 0 2.645 0 .14857)" d="m280.77 36.764c0 8.2495-6.6871 14.937-14.935 14.937-8.2494 0-14.937-6.6871-14.937-14.937s6.6871-14.937 14.937-14.937c8.2479 0 14.935 6.6871 14.935 14.937z" fill="#fff" stroke="#000" stroke-width="2.8226"/>
<path transform="matrix(2.6479 0 0 2.645 0 .14857)" d="m42.433 12.794h9.7497v45h-9.7497z" stroke="#000" stroke-width="1.4173"/>
<path transform="matrix(2.6479 0 0 2.645 0 .14857)" d="m4.9995 35.295h29.006" fill="none" stroke="#000" stroke-width="2.8346"/>
<path transform="matrix(3.0024 0 0 2.9991 90.042 93.502)" d="m5.7703 6.3527e-4 -8.6507 4.9989v-9.9991z" fill-rule="evenodd" stroke="#000" stroke-width="1.25"/>
<path transform="matrix(2.6479 0 0 2.645 0 .14857)" d="m214.8 12.541h9.7497v45h-9.7497z" stroke="#000" stroke-width="1.4173"/>
<path transform="matrix(2.6479 0 0 2.645 0 .14857)" d="m136.82 35.042h29.006" fill="none" stroke="#000" stroke-width="2.8346"/>
<path transform="matrix(3.0024 0 0 2.9991 439.11 92.835)" d="m5.7701 2.8525e-4 -8.6507 5.0002v-10z" fill-rule="evenodd" stroke="#000" stroke-width="1.25"/>
<path transform="matrix(2.6479 0 0 2.645 0 .14857)" d="m260.72 35.042h-24.85l-0.34225-29.333h-45.232v14.333" fill="none" stroke="#000" stroke-width="1.4175"/>
<path transform="matrix(1.5014 -1.84e-16 1.84e-16 1.4997 690.38 92.835)" d="m5.7687 5.7044e-4 -8.6483 4.9983v-9.9992z" fill-rule="evenodd" stroke="#000" stroke-width="1.25"/>
<path transform="matrix(2.6479 0 0 2.645 0 .14857)" d="m175.3 20.042h30v30h-30z" fill="#fff" stroke="#000" stroke-width="2.8346"/>
<g>
<use x="477.308594" y="115.975126" xlink:href="#a"/>
</g>
</svg>
