<?xml version="1.0" encoding="UTF-8"?>
<svg width="800px" height="344px" version="1.1" viewBox="0 0 800 344" xmlns="http://www.w3.org/2000/svg" xmlns:xlink="http://www.w3.org/1999/xlink">
<defs>
<symbol id="f" overflow="visible">
<path d="m6.3281-50.219h12.938v19.141h19.094v-19.141h12.953v50.219h-12.953v-21.297h-19.094v21.297h-12.938z"/>
</symbol>
<symbol id="e" overflow="visible">
<path d="m22.047-13.266v13.266h-3.6094v-13.141c0-2.082-0.40625-3.6406-1.2188-4.6719-0.8125-1.0391-2.0273-1.5625-3.6406-1.5625-1.9492 0-3.4844 0.625-4.6094 1.875-1.125 1.2422-1.6875 2.9336-1.6875 5.0781v12.422h-3.6406v-30.531h3.6406v11.969c0.86328-1.3203 1.8789-2.3047 3.0469-2.9531 1.1641-0.65625 2.5156-0.98438 4.0469-0.98438 2.5195 0 4.4258 0.78125 5.7188 2.3438 1.3008 1.5625 1.9531 3.8594 1.9531 6.8906z"/>
</symbol>
<symbol id="a" overflow="visible">
<path d="m22.578-11.891v1.7656h-16.594c0.15625 2.4922 0.89844 4.3867 2.2344 5.6875 1.3438 1.3047 3.2109 1.9531 5.6094 1.9531 1.3828 0 2.7266-0.17188 4.0312-0.51562 1.3008-0.34375 2.5938-0.85156 3.875-1.5312v3.4062c-1.293 0.55469-2.6211 0.96875-3.9844 1.25-1.3555 0.28906-2.7344 0.4375-4.1406 0.4375-3.5 0-6.2773-1.0156-8.3281-3.0469-2.043-2.0391-3.0625-4.8008-3.0625-8.2812 0-3.6016 0.96875-6.457 2.9062-8.5625 1.9453-2.1133 4.5664-3.1719 7.8594-3.1719 2.957 0 5.2969 0.95312 7.0156 2.8594 1.7188 1.8984 2.5781 4.4805 2.5781 7.75zm-3.6094-1.0625c-0.03125-1.9766-0.58984-3.5547-1.6719-4.7344-1.0742-1.1758-2.4961-1.7656-4.2656-1.7656-2.0234 0-3.6367 0.57422-4.8438 1.7188-1.2109 1.1367-1.9062 2.7344-2.0938 4.7969z"/>
</symbol>
<symbol id="d" overflow="visible">
<path d="m19.562-10.969c0-2.6562-0.54688-4.7383-1.6406-6.25-1.0938-1.5078-2.5938-2.2656-4.5-2.2656-1.918 0-3.4219 0.75781-4.5156 2.2656-1.0859 1.5117-1.625 3.5938-1.625 6.25s0.53906 4.7422 1.625 6.25c1.0938 1.5117 2.5977 2.2656 4.5156 2.2656 1.9062 0 3.4062-0.75391 4.5-2.2656 1.0938-1.5078 1.6406-3.5938 1.6406-6.25zm-12.281-7.6719c0.75781-1.3125 1.7188-2.2812 2.875-2.9062 1.1562-0.63281 2.5352-0.95312 4.1406-0.95312 2.6641 0 4.832 1.0586 6.5 3.1719 1.6641 2.1172 2.5 4.9023 2.5 8.3594 0 3.4609-0.83594 6.2461-2.5 8.3594-1.668 2.1172-3.8359 3.1719-6.5 3.1719-1.6055 0-2.9844-0.3125-4.1406-0.9375-1.1562-0.63281-2.1172-1.6094-2.875-2.9219v3.2969h-3.6406v-30.531h3.6406z"/>
</symbol>
<symbol id="c" overflow="visible">
<path d="m22.047-13.266v13.266h-3.6094v-13.141c0-2.082-0.40625-3.6406-1.2188-4.6719-0.8125-1.0391-2.0273-1.5625-3.6406-1.5625-1.9492 0-3.4844 0.625-4.6094 1.875-1.125 1.2422-1.6875 2.9336-1.6875 5.0781v12.422h-3.6406v-21.984h3.6406v3.4219c0.86328-1.3203 1.8789-2.3047 3.0469-2.9531 1.1641-0.65625 2.5156-0.98438 4.0469-0.98438 2.5195 0 4.4258 0.78125 5.7188 2.3438 1.3008 1.5625 1.9531 3.8594 1.9531 6.8906z"/>
</symbol>
<symbol id="b" overflow="visible">
<path d="m6.0625-4.9844h3.9844v4.9844h-3.9844zm0-24.312h3.9844v12.859l-0.39062 7h-3.1875l-0.40625-7z"/>
</symbol>
</defs>
<path transform="matrix(2.8692 0 0 2.8706 0 .043277)" d="m245.35 17.667c0-6.2134-15.951-11.25-35.625-11.25-19.675 0-48.119 4.8621-31.69 14.287l-0.24234 14.995-11.496 7.5756 15.39-5.254 5.6404-11.605c32.744 7.1823 58.023-2.5352 58.023-8.7486z" fill="#e6e6e6" stroke="#000" stroke-width="2.8346"/>
<path transform="matrix(2.8692 0 0 2.8706 0 .043277)" d="m26.734 49.367-20.324 58.42c18.671 7.4681 41.076 7.4681 59.747 0l-20.332-58.419c-6.3266 0.72122-12.765 0.72122-19.091-0.001361z" fill="none" stroke="#000" stroke-linejoin="round" stroke-width="2.8226"/>
<path transform="matrix(2.8692 0 0 2.8706 0 .043277)" d="m51.217 37.592c0 8.2492-6.6874 14.938-14.936 14.938-8.2503 0-14.938-6.6883-14.938-14.938s6.6874-14.936 14.938-14.936c8.2489 0 14.936 6.687 14.936 14.936z" fill="#fff" stroke="#000" stroke-width="2.8226"/>
<path d="m132.46 101.54c0 5.9219-4.7969 10.719-10.715 10.719-5.918 0-10.715-4.7969-10.715-10.719 0-5.918 4.7969-10.719 10.715-10.719 5.918 0 10.715 4.8008 10.715 10.719z"/>
<path transform="matrix(2.8692 0 0 2.8706 0 .043277)" d="m143.46 49.367-20.322 58.42c18.669 7.4681 41.074 7.4681 59.745 0l-20.33-58.419c-6.3266 0.72122-12.766 0.72122-19.093-0.001361z" fill="none" stroke="#000" stroke-linejoin="round" stroke-width="2.8226"/>
<path transform="matrix(2.8692 0 0 2.8706 0 .043277)" d="m167.95 37.592c0 8.2492-6.6874 14.938-14.936 14.938s-14.936-6.6883-14.936-14.938 6.6874-14.936 14.936-14.936 14.936 6.687 14.936 14.936z" fill="#fff" stroke="#000" stroke-width="2.8226"/>
<path d="m467.38 101.54c0 5.9219-4.7969 10.719-10.715 10.719-5.9141 0-10.711-4.7969-10.711-10.719 0-5.918 4.7969-10.719 10.711-10.719 5.918 0 10.715 4.8008 10.715 10.719z"/>
<path transform="matrix(2.8692 0 0 2.8706 0 .043277)" d="m194.26 74.519h29.999v30h-29.999z" fill="#fff" stroke="#000" stroke-width="2.8346"/>
<g>
<use x="571.605469" y="282.124108" xlink:href="#f"/>
</g>
<path transform="matrix(2.8692 0 0 2.8706 0 .043277)" d="m39.463 66.51 35.572-18.357" fill="none" stroke="#000" stroke-width="2.8346"/>
<path d="m238.68 145.42c0 5.9453-9.6367 10.766-21.52 10.766-11.887 0-21.52-4.8203-21.52-10.766 0-5.9453 9.6328-10.766 21.52-10.766 11.883 0 21.52 4.8203 21.52 10.766z"/>
<path d="m202.26 166.55h29.789c2.375 0 4.3008 1.9258 4.3008 4.3047v72.465c0 2.3789-1.9258 4.3047-4.3008 4.3047h-29.789c-2.375 0-4.3047-1.9258-4.3047-4.3047v-72.465c0-2.3789 1.9297-4.3047 4.3047-4.3047z"/>
<path transform="matrix(2.8692 0 0 2.8706 45.196 -487.56)" d="m59.933 220.65v7.2231" fill="none" stroke="#000" stroke-width="2.8346"/>
<path transform="matrix(2.8692 0 0 2.8706 0 .043277)" d="m224.26 74.519 45.001-48.749" fill="none" stroke="#000" stroke-width="2.8346"/>
<path d="m785.65 145.42c0 5.9453-9.6328 10.766-21.516 10.766-11.887 0-21.52-4.8203-21.52-10.766 0-5.9453 9.6328-10.766 21.52-10.766 11.883 0 21.516 4.8203 21.516 10.766z"/>
<path d="m749.24 166.55h29.785c2.3789 0 4.3047 1.9258 4.3047 4.3047v72.465c0 2.3789-1.9258 4.3047-4.3047 4.3047h-29.785c-2.3789 0-4.3047-1.9258-4.3047-4.3047v-72.465c0-2.3789 1.9258-4.3047 4.3047-4.3047z"/>
<path transform="matrix(2.8692 0 0 2.8706 592.18 -487.56)" d="m59.933 220.65v7.2231" fill="none" stroke="#000" stroke-width="2.8346"/>
<path transform="matrix(2.8692 0 0 2.8706 0 .043277)" d="m266.32 50.782v-21.262" fill="none" stroke="#000" stroke-width=".75"/>
<g>
<use x="529.078125" y="64.39694" xlink:href="#e"/>
<use x="554.901064" y="64.39694" xlink:href="#a"/>
<use x="580.724002" y="64.39694" xlink:href="#d"/>
<use x="606.546941" y="64.39694" xlink:href="#a"/>
<use x="632.369879" y="64.39694" xlink:href="#c"/>
<use x="658.192818" y="64.39694" xlink:href="#b"/>
</g>
</svg>
