<?xml version="1.0" encoding="UTF-8"?>
<svg width="600px" height="258px" version="1.1" viewBox="0 0 600 258" xmlns="http://www.w3.org/2000/svg" xmlns:xlink="http://www.w3.org/1999/xlink">
<defs>
<symbol id="f" overflow="visible">
<path d="m27.578-6.8594h-15.172l-2.3906 6.8594h-9.7656l13.953-37.672h11.562l13.953 37.672h-9.7656zm-12.75-6.9844h10.312l-5.1406-15z"/>
</symbol>
<symbol id="e" overflow="visible">
<path d="m2.8438-22.906h2.7031v22.906h-2.7031z"/>
</symbol>
<symbol id="d" overflow="visible">
<path d="m2.8438-16.484h2.7031v16.484h-2.7031zm0-6.4219h2.7031v3.4375h-2.7031z"/>
</symbol>
<symbol id="c" overflow="visible">
<path d="m11.172-22.906v2.2656h-2.5781c-0.96875 0-1.6484 0.19922-2.0312 0.59375-0.375 0.38672-0.5625 1.0898-0.5625 2.1094v1.4531h4.4531v2.1094h-4.4531v14.375h-2.7188v-14.375h-2.5938v-2.1094h2.5938v-1.1406c0-1.8438 0.42578-3.1797 1.2812-4.0156 0.85156-0.84375 2.207-1.2656 4.0625-1.2656z"/>
</symbol>
<symbol id="b" overflow="visible">
<path d="m5.5156-21.156v4.6719h5.5781v2.1094h-5.5781v8.9375c0 1.3438 0.17969 2.2109 0.54688 2.5938 0.375 0.38672 1.125 0.57812 2.25 0.57812h2.7812v2.2656h-2.7812c-2.0938 0-3.5391-0.39062-4.3281-1.1719-0.79297-0.78125-1.1875-2.2031-1.1875-4.2656v-8.9375h-1.9844v-2.1094h1.9844v-4.6719z"/>
</symbol>
<symbol id="a" overflow="visible">
<path d="m4.5469-3.7344h2.9844v3.7344h-2.9844zm0-18.234h2.9844v9.6406l-0.29688 5.25h-2.375l-0.3125-5.25z"/>
</symbol>
</defs>
<path transform="matrix(2.1519 0 0 2.1529 0 .032458)" d="m245.35 17.668c0-6.2143-15.949-11.251-35.624-11.251-19.675 0-48.119 4.8626-31.691 14.287l-0.24143 14.996-11.496 7.5751 15.39-5.2545 5.64-11.603c32.743 7.1814 58.023-2.5365 58.023-8.749z" fill="#e6e6e6" stroke="#000" stroke-width="2.8346"/>
<path transform="matrix(2.1519 0 0 2.1529 0 .032458)" d="m26.735 49.367-20.324 58.42c18.67 7.4681 41.075 7.4681 59.745 0l-20.331-58.42c-6.3261 0.72213-12.765 0.72213-19.091 0z" fill="#fff" stroke="#000" stroke-linejoin="round" stroke-width="2.8226"/>
<path transform="matrix(2.1519 0 0 2.1529 0 .032458)" d="m51.217 37.592c0 8.2501-6.6874 14.938-14.938 14.938-8.2485 0-14.936-6.6879-14.936-14.938 0-8.2483 6.6874-14.936 14.936-14.936 8.2503 0 14.938 6.6879 14.938 14.936z" fill="#fff" stroke="#000" stroke-width="2.8226"/>
<path d="m99.344 76.156c0 4.4414-3.5977 8.0391-8.0352 8.0391s-8.0352-3.5977-8.0352-8.0391c0-4.4375 3.5977-8.0391 8.0352-8.0391s8.0352 3.6016 8.0352 8.0391z"/>
<path transform="matrix(2.1519 0 0 2.1529 0 .032458)" d="m143.46 49.367-20.324 58.42c18.672 7.4681 41.075 7.4681 59.747 0l-20.331-58.42c-6.328 0.72213-12.767 0.72213-19.093 0z" fill="#fff" stroke="#000" stroke-linejoin="round" stroke-width="2.8226"/>
<path transform="matrix(2.1519 0 0 2.1529 0 .032458)" d="m167.94 37.592c0 8.2501-6.6874 14.938-14.936 14.938-8.2485 0-14.936-6.6879-14.936-14.938 0-8.2483 6.6874-14.936 14.936-14.936 8.2485 0 14.936 6.6879 14.936 14.936z" fill="#fff" stroke="#000" stroke-width="2.8226"/>
<path d="m350.54 76.156c0 4.4414-3.5977 8.0391-8.0352 8.0391s-8.0352-3.5977-8.0352-8.0391c0-4.4375 3.5977-8.0391 8.0352-8.0391s8.0352 3.6016 8.0352 8.0391z"/>
<path transform="matrix(2.1519 0 0 2.1529 0 .032458)" d="m194.26 74.519h30.001v30.001h-30.001z" fill="#fff" stroke="#000" stroke-width="2.8346"/>
<g>
<use x="430.328125" y="211.594057" xlink:href="#f"/>
</g>
<path transform="matrix(2.1519 0 0 2.1529 0 .032458)" d="m39.463 66.51 35.572-18.356" fill="none" stroke="#000" stroke-width="2.8346"/>
<path d="m179.01 109.06c0 4.4609-7.2266 8.0742-16.141 8.0742-8.9141 0-16.141-3.6133-16.141-8.0742 0-4.457 7.2266-8.0703 16.141-8.0703 8.9141 0 16.141 3.6133 16.141 8.0703z"/>
<path d="m151.7 124.91h22.34c1.7852 0 3.2305 1.4492 3.2305 3.2305v54.352c0 1.7812-1.4453 3.2266-3.2305 3.2266h-22.34c-1.7812 0-3.2266-1.4453-3.2266-3.2266v-54.352c0-1.7812 1.4453-3.2305 3.2266-3.2305z"/>
<path transform="matrix(2.1519 0 0 2.1529 33.897 -365.67)" d="m59.933 220.65v7.2213" fill="none" stroke="#000" stroke-width="2.8346"/>
<path transform="matrix(2.1519 0 0 2.1529 0 .032458)" d="m224.26 74.519 45-48.749" fill="none" stroke="#000" stroke-width="2.8346"/>
<path d="m589.24 109.06c0 4.4609-7.2266 8.0742-16.141 8.0742-8.9141 0-16.141-3.6133-16.141-8.0742 0-4.457 7.2266-8.0703 16.141-8.0703 8.9141 0 16.141 3.6133 16.141 8.0703z"/>
<path d="m561.93 124.91h22.34c1.7852 0 3.2305 1.4492 3.2305 3.2305v54.352c0 1.7812-1.4453 3.2266-3.2305 3.2266h-22.34c-1.7812 0-3.2266-1.4453-3.2266-3.2266v-54.352c0-1.7812 1.4453-3.2305 3.2266-3.2305z"/>
<path transform="matrix(2.1519 0 0 2.1529 444.13 -365.67)" d="m59.933 220.65v7.2213" fill="none" stroke="#000" stroke-width="2.8346"/>
<path transform="matrix(2.1519 0 0 2.1529 0 .032458)" d="m266.32 50.783v-21.263" fill="none" stroke="#000" stroke-width=".75"/>
<g>
<use x="429.316406" y="48.297705" xlink:href="#e"/>
<use x="437.924052" y="48.297705" xlink:href="#d"/>
<use x="446.531699" y="48.297705" xlink:href="#c"/>
<use x="457.291256" y="48.297705" xlink:href="#b"/>
<use x="468.050814" y="48.297705" xlink:href="#a"/>
</g>
</svg>
