<?xml version="1.0" standalone="no"?>
<!DOCTYPE svg PUBLIC "-//W3C//DTD SVG 20010904//EN"
 "http://www.w3.org/TR/2001/REC-SVG-20010904/DTD/svg10.dtd">
<svg version="1.0" xmlns="http://www.w3.org/2000/svg"
 width="700.000000pt" height="700.000000pt" viewBox="0 0 700.000000 700.000000"
 preserveAspectRatio="xMidYMid meet">
<metadata>
Created by potrace 1.14, written by Peter Selinger 2001-2017
</metadata>
<g transform="translate(0.000000,700.000000) scale(0.100000,-0.100000)"
fill="#000000" stroke="none">
<path d="M3015 6989 c-687 -71 -1311 -336 -1840 -781 -49 -42 -151 -138 -226
-214 -501 -512 -809 -1134 -919 -1859 -28 -178 -38 -583 -21 -772 32 -342 113
-669 241 -982 57 -138 157 -341 168 -341 4 1 399 227 877 504 522 303 869 510
868 518 -1 7 -18 52 -38 101 -64 156 -87 262 -92 442 -8 249 30 439 129 635
203 402 576 666 1022 722 l96 12 0 1013 0 1013 -92 -1 c-51 -1 -129 -5 -173
-10z m-1567 -1842 c1 -141 0 -257 -2 -257 -3 0 -21 9 -40 21 l-36 21 -226
-101 c-124 -56 -230 -101 -235 -101 -15 0 -11 507 3 516 20 12 512 163 523
160 6 -2 11 -99 13 -259z m-694 123 c45 -19 46 -20 46 -65 0 -52 -10 -56 -70
-25 -38 19 -40 23 -40 65 0 25 4 45 9 45 5 0 30 -9 55 -20z m46 -277 l0 -122
-31 9 c-17 5 -42 16 -55 25 -23 15 -24 20 -24 134 l0 118 55 -21 55 -21 0
-122z m-42 -145 l43 -12 -3 -75 c-3 -72 -4 -76 -33 -92 -16 -9 -40 -20 -52
-24 -23 -6 -23 -6 -23 110 0 90 3 115 13 111 6 -3 31 -11 55 -18z m817 -159
c108 -72 195 -135 193 -141 -4 -10 -616 -337 -634 -338 -11 0 -417 307 -422
320 -4 10 616 288 645 289 13 1 104 -53 218 -130z m255 -263 c0 -19 -6 -41
-14 -48 -13 -14 -665 -381 -698 -393 -10 -4 -88 50 -234 163 l-219 168 -3 62
c-2 34 0 62 3 62 3 0 99 -71 213 -158 114 -88 217 -164 229 -170 23 -13 43 -3
493 236 113 61 211 110 218 111 7 1 12 -12 12 -33z"/>
<path d="M1270 4757 c-89 -38 -102 -46 -95 -57 9 -15 325 -230 338 -230 22 0
162 85 162 99 0 16 -293 221 -315 221 -8 -1 -49 -15 -90 -33z m225 -93 c69
-48 125 -90 125 -93 0 -4 -24 -20 -54 -36 l-54 -29 -93 64 c-152 104 -179 124
-179 130 0 8 90 48 112 49 10 1 74 -38 143 -85z"/>
<path d="M3390 5988 l0 -1015 73 -8 c519 -50 957 -402 1121 -900 98 -298 82
-634 -42 -924 l-39 -90 836 -482 c460 -266 853 -493 874 -506 l37 -23 -15 -33
c-15 -30 -15 -31 0 -12 30 36 182 358 228 480 394 1048 240 2222 -409 3131
-211 296 -510 591 -807 798 -510 354 -1123 565 -1724 593 l-133 6 0 -1015z
m2083 -849 c11 -7 72 -54 133 -105 62 -52 115 -94 118 -94 3 0 7 46 8 103 l3
102 90 0 90 0 3 -186 2 -187 106 -86 c58 -48 108 -94 111 -102 5 -14 -62 -104
-83 -111 -5 -1 -144 110 -309 247 -170 141 -309 250 -320 250 -11 0 -147 -105
-318 -245 -164 -135 -305 -245 -312 -245 -18 0 -85 79 -85 100 0 15 609 526
665 558 26 15 71 15 98 1z m207 -477 l235 -197 3 -197 c3 -257 18 -239 -201
-236 l-162 3 -5 162 c-3 89 -8 164 -11 167 -3 4 -49 9 -101 13 -143 9 -138 15
-138 -171 0 -121 -3 -156 -14 -165 -11 -9 -60 -11 -171 -9 -207 4 -195 -10
-195 227 0 120 4 183 13 199 18 34 469 401 492 401 11 0 124 -88 255 -197z"/>
<path d="M6021 6106 c-60 -33 -65 -96 -14 -163 130 -168 198 -262 264 -368
273 -431 440 -897 516 -1435 25 -183 25 -682 0 -870 -97 -714 -373 -1337 -827
-1865 -170 -197 -446 -446 -666 -598 -447 -311 -997 -521 -1554 -593 -173 -22
-545 -30 -722 -15 -457 39 -891 161 -1290 363 -307 155 -549 323 -822 573
-105 95 -119 105 -155 105 -54 0 -91 -38 -91 -94 0 -39 5 -46 87 -125 527
-504 1217 -852 1923 -970 411 -69 864 -69 1265 -1 920 157 1761 673 2327 1427
408 543 653 1175 723 1863 21 203 16 647 -10 830 -96 694 -344 1284 -767 1826
-95 122 -129 142 -187 110z"/>
<path d="M3209 4840 c-515 -59 -927 -438 -1036 -951 -24 -115 -24 -343 1 -459
101 -482 455 -835 936 -936 116 -25 344 -25 458 0 455 97 802 428 918 873 35
132 44 355 20 492 -85 487 -463 874 -943 965 -104 20 -260 27 -354 16z m-64
-276 c48 -20 142 -109 205 -194 73 -99 330 -499 330 -514 0 -8 -6 -19 -14 -25
-10 -9 -50 40 -197 246 -101 141 -218 292 -259 335 -69 72 -78 78 -116 78 -31
0 -46 -6 -66 -27 -81 -86 -167 -376 -275 -926 -25 -130 -48 -236 -49 -234 -6
5 63 526 86 662 85 491 190 668 355 599z m655 -863 c81 -109 228 -261 308
-319 35 -25 89 -55 120 -68 31 -13 48 -24 37 -24 -35 0 -132 46 -202 96 -80
57 -203 178 -291 286 -55 68 -62 80 -52 99 7 11 13 19 15 17 1 -1 31 -41 65
-87z"/>
<path d="M1545 2557 c-374 -216 -767 -443 -872 -505 l-193 -111 -26 45 c-14
24 -28 44 -31 44 -16 0 184 -306 282 -430 423 -539 1014 -946 1658 -1140 760
-230 1564 -186 2292 125 558 239 1051 638 1411 1145 88 123 190 288 141 228
-12 -15 -93 30 -878 484 -475 275 -869 502 -875 505 -6 2 -33 -26 -60 -64 -64
-90 -201 -227 -294 -292 -95 -67 -271 -155 -375 -186 -183 -56 -428 -71 -611
-40 -189 33 -386 117 -546 232 -89 64 -246 222 -298 300 -19 29 -37 53 -40 53
-3 0 -311 -177 -685 -393z m1896 -391 c93 -62 105 -213 22 -288 -49 -45 -135
-60 -196 -34 -43 17 -93 76 -106 123 -13 47 -13 49 -1 95 34 120 176 173 281
104z m-581 -341 c186 -42 280 -56 416 -62 155 -7 265 5 490 53 89 19 168 34
176 34 8 0 27 -9 42 -21 20 -16 26 -29 26 -58 0 -44 -20 -67 -71 -81 -45 -13
-311 -67 -371 -75 l-48 -6 0 -72 c0 -108 18 -330 35 -432 9 -49 34 -142 57
-205 23 -63 41 -130 41 -147 1 -90 -125 -116 -167 -35 -29 57 -79 211 -100
312 -21 99 -24 105 -49 108 -23 3 -27 -1 -32 -35 -27 -158 -97 -368 -137 -410
-47 -51 -148 -13 -148 54 0 15 18 78 39 138 63 180 91 362 91 601 l0 123 -37
6 c-76 11 -260 47 -338 65 -88 20 -115 42 -115 92 0 34 39 78 70 78 12 0 70
-11 130 -25z"/>
</g>
</svg>
